<svg xmlns="http://www.w3.org/2000/svg" width="17.362" height="18.751" viewBox="0 0 17.362 18.751">
  <g id="组_2254" data-name="组 2254" transform="translate(563.445 -872.333) rotate(90)">
    <g id="组_2244" data-name="组 2244" transform="translate(872.333 546.083)">
      <g id="组_2243" data-name="组 2243" transform="translate(0 0)">
        <g id="组_2242" data-name="组 2242">
          <path id="路径_15113" data-name="路径 15113" d="M876.146,546.1c1.5-.193,4.461,1.2,4.076,3.814s-1.231,2.532-.454,5.746.081,4.582-2.154,4.774-3.067-1.575-3.219-3.766-1.525-4.136-1.9-5.523S872.049,546.627,876.146,546.1Z" transform="translate(-872.333 -546.083)" fill="#999"/>
        </g>
      </g>
    </g>
    <g id="组_2247" data-name="组 2247" transform="translate(883.161 549.08)">
      <g id="组_2246" data-name="组 2246" transform="translate(0 0)">
        <g id="组_2245" data-name="组 2245">
          <path id="路径_15114" data-name="路径 15114" d="M990.783,577.744c-1.5-.193-4.461,1.195-4.076,3.814s1.23,2.532.454,5.746-.081,4.582,2.154,4.774,3.067-1.575,3.219-3.766,1.525-4.136,1.9-5.524S994.879,578.27,990.783,577.744Z" transform="translate(-986.673 -577.726)" fill="#999"/>
        </g>
      </g>
    </g>
  </g>
</svg>
