<svg xmlns="http://www.w3.org/2000/svg" xmlns:xlink="http://www.w3.org/1999/xlink" viewBox="0 0 30.72 30.71"><defs><style>.cls-1,.cls-3{fill:none;}.cls-2{fill:#f0f1e1;}.cls-3{stroke:#9f7224;stroke-miterlimit:10;stroke-width:0.5px;}.cls-4{clip-path:url(#clip-path);}.cls-5{fill:#9f7224;}</style><clipPath id="clip-path"><path class="cls-1" d="M1.84,14.44A14.32,14.32,0,1,0,16.57.55h-.43a14.31,14.31,0,0,0-14.3,13.9"/></clipPath></defs><title>資產 47</title><g id="圖層_2" data-name="圖層 2"><g id="football"><path id="路径_3467" data-name="路径 3467" class="cls-2" d="M28.62,16.82A14.31,14.31,0,1,1,14.73,2.09,14.31,14.31,0,0,1,28.62,16.82h0"/><path id="路径_3468" data-name="路径 3468" class="cls-3" d="M30.46,15.27A14.31,14.31,0,1,1,16.57.55,14.3,14.3,0,0,1,30.46,15.27h0"/><g id="组_1666" data-name="组 1666"><g class="cls-4"><g id="组_1665" data-name="组 1665"><path id="路径_3469" data-name="路径 3469" class="cls-5" d="M5.67,22.4c-1.52-1.3-3-4.74-3.12-4.88l.17-.08S4.3,21,5.78,22.26Z"/><path id="路径_3470" data-name="路径 3470" class="cls-5" d="M22.56,1.42l0,.56a10.46,10.46,0,0,1,1.21,4l-4.86,1.8a42.1,42.1,0,0,0-5.89-2l-.57-3.66C13,1.9,16.37.28,17.85.27c0,0-7.14-1.59-10.85,3a36.09,36.09,0,0,1,5.25-1l.56,3.62a28.41,28.41,0,0,0-4.1,4.66,24.2,24.2,0,0,0-4.62.9C3.75,10.29,3.94,7,3.71,7.11c-.78.4-2.63,8.07-2.47,9s1.39,1.41,1.39,1.41A38.06,38.06,0,0,1,4.1,11.55a27.27,27.27,0,0,1,4.56-.91A19.94,19.94,0,0,0,11.92,16c-.23.67-1.49,4.38-1.78,5.85a40.92,40.92,0,0,1-4.42.49c-.08.89,2.07,5.17,2.07,5.17s4.6,2.28,5.46,1.69a11,11,0,0,0,2.05-3,44.29,44.29,0,0,0,6-1.85h0a33.88,33.88,0,0,0,4.09,1.25c1.34-.74,3.91-4.73,3.91-4.73.14-1-.89-3.87-1.13-4.51.62-1.68.46-5.26.41-6.07.37-.22,1.66-1,1.89-1.85s-8-7.07-8-7.07M21.35,24.18a41.89,41.89,0,0,1-6.08,1.88,41.34,41.34,0,0,1-4.95-4.22c.29-1.44,1.52-5.06,1.76-5.77.65-.17,5.56-1.42,6.38-1.84L23,18.58c-.05,1.22-1.47,4.7-1.65,5.6M28,16.35a28.25,28.25,0,0,1-4.9,2.1l-4.59-4.39c.07-.85.45-5.28.48-6.09h0l4.85-1.8a24.88,24.88,0,0,1,4.57,4.12c0,.66.22,4.41-.4,6.07"/></g></g></g></g></g></svg>