<?xml version="1.0" encoding="utf-8"?>
<!-- Generator: Adobe Illustrator 24.3.0, SVG Export Plug-In . SVG Version: 6.00 Build 0)  -->
<svg version="1.1" id="圖層_1" xmlns="http://www.w3.org/2000/svg" xmlns:xlink="http://www.w3.org/1999/xlink" x="0px" y="0px"
	 viewBox="0 0 17.4 18.8" style="enable-background:new 0 0 17.4 18.8;" xml:space="preserve">
<style type="text/css">
	.st0{fill:#E0E0E0;}
</style>
<g id="组_2253" transform="translate(563.445 -872.333) rotate(90)">
	<g id="组_2244" transform="translate(872.333 546.083)">
		<g id="组_2243" transform="translate(0 0)">
			<g id="组_2242">
				<path id="路径_15113" class="st0" d="M3.8,0c1.5-0.2,4.5,1.2,4.1,3.8S6.7,6.4,7.4,9.6s0.1,4.6-2.2,4.8s-3.1-1.6-3.2-3.8
					S0.5,6.4,0.2,5.1S-0.3,0.5,3.8,0z"/>
			</g>
		</g>
	</g>
	<g id="组_2247" transform="translate(883.161 549.08)">
		<g id="组_2246" transform="translate(0 0)">
			<g id="组_2245">
				<path id="路径_15114" class="st0" d="M4.1,0C2.6-0.2-0.4,1.2,0,3.8s1.2,2.5,0.5,5.7s-0.1,4.6,2.2,4.8s3.1-1.6,3.2-3.8
					s1.5-4.1,1.9-5.5S8.2,0.5,4.1,0z"/>
			</g>
		</g>
	</g>
</g>
</svg>
