<svg xmlns="http://www.w3.org/2000/svg" viewBox="0 0 153.58 135.9"><defs><style>.cls-1,.cls-13,.cls-3,.cls-9{fill:none;}.cls-1{stroke:#fff;stroke-miterlimit:10;stroke-width:2px;}.cls-2{fill:#efd9e8;}.cls-3{stroke:#b36389;stroke-width:0.75px;}.cls-13,.cls-3,.cls-9{stroke-miterlimit:10;}.cls-4{fill:#9e4572;}.cls-5{fill:#b36389;}.cls-6{fill:#ad527b;}.cls-7{fill:#dcb0c6;}.cls-8{fill:#673457;}.cls-13,.cls-9{stroke:#9e4572;}.cls-9{stroke-width:0.5px;}.cls-10{fill:#ca7474;}.cls-11{fill:#f2dfb6;}.cls-12{fill:#8f4d72;}.cls-14{fill:#f7f7f7;}.cls-15,.cls-18{fill:#99b97b;}.cls-16{fill:#7b994e;}.cls-17{fill:#e2b3ca;}.cls-18{opacity:0.75;}.cls-18,.cls-21{isolation:isolate;}.cls-19{fill:#f5e6d6;}.cls-20{fill:#595758;}.cls-21{fill:#e4f2ee;opacity:0.52;}.cls-22{fill:#8aa36f;}.cls-23{fill:#e0a396;}</style></defs><title>组 1664 (2)</title><g id="圖層_2" data-name="圖層 2"><g id="圖層_3" data-name="圖層 3"><g id="组_1664" data-name="组 1664"><path id="路径_4422-2" data-name="路径 4422-2" class="cls-1" d="M48,111.79A186.09,186.09,0,0,1,7.82,62.71s-.05,0-.07.06c-3.92,3.21-4.53,9.39-2,15.36A10.92,10.92,0,0,0,6.62,91a11.69,11.69,0,0,0,2.72,2.48,5.07,5.07,0,0,0-.46.35c-3.22,2.63-3.34,7.88-.27,11.73a8.83,8.83,0,0,0,9.12,3.38,11.73,11.73,0,0,0,2.4,9.48,11.16,11.16,0,0,0,15.64,2h0l.14-.11c.3-.25.59-.52.87-.8l0,0c5.69,7.12,14.3,9.63,19.22,5.59a8.86,8.86,0,0,0,2.89-4.6Q53.36,116.41,48,111.79Z"/><g id="组_1660" data-name="组 1660"><path id="路径_3436" data-name="路径 3436" class="cls-2" d="M144.78,92.11c.47-3.16-2.13-6.19-5.88-7a5.7,5.7,0,0,0-4.68-6.5,5.54,5.54,0,0,0-5.29,2.23,5,5,0,0,0-2.08-.83,4.64,4.64,0,0,0-5.35,3.77,4.8,4.8,0,0,0,0,1.07c-2,.74-3.41,2-3.65,3.6-.31,2.1,1.43,4.23,4.27,5.64l0,.13c-.51,3.4,1.23,6.48,3.87,6.87a4,4,0,0,0,2.53-.47,5.44,5.44,0,0,0,2.74,1.26c2.9.44,5.74-1.57,7.36-4.82,3.19-.25,5.79-2.22,6.21-5"/><path id="路径_3437" data-name="路径 3437" class="cls-2" d="M151.41,110.41a2.92,2.92,0,0,0-1.14-3.83,2.43,2.43,0,0,0-3.29-3.43,2.11,2.11,0,0,0-3.53-.09,2.11,2.11,0,0,0-.2.43,2.23,2.23,0,0,0-2.11.83c-.5.79-.17,2,.73,3l0,.05c-.8,1.28-.65,2.82.36,3.43a1.71,1.71,0,0,0,1.1.24,2.35,2.35,0,0,0,.89,1,3.36,3.36,0,0,0,3.84-.68,2.87,2.87,0,0,0,3.39-.94"/><path id="路径_3438" data-name="路径 3438" class="cls-2" d="M123.46,86.64a57,57,0,0,1-15.9-1.14c-9.41-2.14.55,6,5.43,7.63,5.9,2,9,4,17.42,3.14Z"/></g><g id="组_1661" data-name="组 1661"><path id="路径_3439" data-name="路径 3439" class="cls-3" d="M152.91,108.76a2.75,2.75,0,0,0-1.09-3.63,2.31,2.31,0,0,0-3.11-3.26,2,2,0,0,0-.66-.65,2,2,0,0,0-2.69.57,1.92,1.92,0,0,0-.19.41,2.15,2.15,0,0,0-2,.78c-.47.75-.16,1.85.7,2.85l0,0a2.35,2.35,0,0,0,.34,3.26,1.67,1.67,0,0,0,1.05.23,2.28,2.28,0,0,0,.84.93,3.19,3.19,0,0,0,3.64-.65,2.71,2.71,0,0,0,3.22-.9"/><path id="路径_3440" data-name="路径 3440" class="cls-3" d="M140.05,83.65a5.4,5.4,0,0,0-4.44-6.16,5.28,5.28,0,0,0-5,2.12,4.71,4.71,0,0,0-2-.79,4.4,4.4,0,0,0-5.08,3.58,5,5,0,0,0,0,1,6.12,6.12,0,0,0-2.71,1.79A52.79,52.79,0,0,1,110.32,84c-8.93-2,.52,5.7,5.15,7.24,3.24,1.07,5.6,2.18,8.55,2.76.2,2.49,1.68,4.51,3.73,4.82a3.85,3.85,0,0,0,2.4-.45,5.28,5.28,0,0,0,2.6,1.2c2.75.41,5.45-1.5,7-4.58,3-.23,5.5-2.1,5.89-4.71C146.08,87.28,143.61,84.41,140.05,83.65Z"/></g><g id="组_1663" data-name="组 1663"><path id="路径_3441" data-name="路径 3441" class="cls-4" d="M8.74,63.43S1.83,46.75,2,45.21A23.17,23.17,0,0,1,2.76,41a4,4,0,0,1,1-.94L20.3,59.28Z"/><path id="路径_3442" data-name="路径 3442" class="cls-5" d="M36.05,58.5A116.89,116.89,0,0,0,27,50.08c-4.16-3.31-11.18-8.75-14.36-9.93s-3.93-2-6.54-1.12-1.35.48-1.35.48S3,40.29,3.2,41.27A122.82,122.82,0,0,0,9.37,52.53c1.08,1.6,5.26,7.88,5.26,7.88Z"/><path id="路径_3443" data-name="路径 3443" class="cls-6" d="M39.38,58.85,71.8,77.7s5,5.08,6.76,5.91,5.82,1.2,8.88.76,4.23-.48,6.32.81-.17,5.28-.93,7.27-6,7.82-8.51,9.47-6.41,4.53-12,5.11-33.8.24-40.12-.18A47.63,47.63,0,0,1,19,104.38c-2-.86-8.38-4.06-12-7.44S1,88.17.3,85.74s0-8.56,1.22-11.14,3-8.87,9.58-13.44S21.93,55.88,25,56s11.73,1.36,14.33,2.87"/><path id="路径_3444" data-name="路径 3444" class="cls-7" d="M31.48,59.57A11.57,11.57,0,0,1,36,64.16c1.54,3.06,4.21,9.85-.23,18.68S24.85,94.2,22.46,95a13.37,13.37,0,0,1-7.61.62c-3.8-1-8.57-2.43-10.74-8.11s-1-3.94-1.15-5.48-.4-5.53.47-7.23,2.81-6.57,5.09-9.38,5.28-5.87,9.82-7.33c3.81-1.22,10.33-.78,13.14,1.46"/><path id="路径_3445" data-name="路径 3445" class="cls-8" d="M20.65,68.88,22,62.45s.41-.87,1-.88,1.2-.55,2.3,0S29.24,64,29.24,64s1.18.82.85,1.6a6.78,6.78,0,0,1-1.82,2.87c-1.4,1.47-4,2.74-4.83,2.7s-2.79-2.26-2.79-2.26"/><path id="路径_3446" data-name="路径 3446" class="cls-8" d="M16.93,70.47s.78-.72,1-3.26.53-4.48.53-4.48A1.24,1.24,0,0,0,17.09,62c-1.08.11-5.69,3.21-6.63,4a1.94,1.94,0,0,0-.51,2.5c.34.86,3,2.49,3,2.49Z"/><path id="路径_3447" data-name="路径 3447" class="cls-8" d="M10.82,74.27l-2.17-.73s-2.84-.51-3.21.37-1.35,7.86-1.35,7.86.64,2,1.77,1.7,5.52-3.4,5.82-4.7.74-4-.86-4.5"/><path id="路径_3448" data-name="路径 3448" class="cls-8" d="M15.57,86a2.21,2.21,0,0,0-1-2.46l-1.43-.75a3.08,3.08,0,0,0-2.24.34c-.93.67-4.18,4.12-4.18,4.12s-1.52,1-.71,1.8a21.64,21.64,0,0,0,4.94,3c1.06.28,1.81,1,2.93-.92A14.57,14.57,0,0,0,15.57,86"/><path id="路径_3449" data-name="路径 3449" class="cls-8" d="M18.93,83.62l1.94-1.4a10.06,10.06,0,0,1,2-.55c.93-.12,3.92,2.35,4,3s.85,1.64-1.2,3.1S20,91.6,20,91.6s-2,1-2.21-1.87a22.25,22.25,0,0,1,0-4.24,2.69,2.69,0,0,1,1.18-1.87"/><path id="路径_3450" data-name="路径 3450" class="cls-8" d="M23.87,77.08a31.61,31.61,0,0,1,.71-3.74,14.42,14.42,0,0,1,5.13-2.46c1.82-.32,2.55-.07,2.59,1.67s-.92,6-1.7,7.08a1.83,1.83,0,0,1-2.3.84c-.84-.27-3.58-1.71-3.58-1.71s-1-.81-.85-1.69"/><path id="路径_3451" data-name="路径 3451" class="cls-9" d="M12.32,73l-2.18-.72s-2.83-.51-3.21.37-1.34,7.85-1.34,7.85.64,2,1.76,1.71,5.53-3.41,5.83-4.71.73-4-.86-4.5"/><path id="路径_3452" data-name="路径 3452" class="cls-10" d="M13.08,73.43c-1.83,2.91-1.52,6.37.7,7.75s5.51.12,7.34-2.78,1.53-6.38-.69-7.75-5.51-.13-7.35,2.78"/><path id="路径_3453" data-name="路径 3453" class="cls-11" d="M11.34,72.37c-1.54,2.44-1,4.77,1.22,6.9,1.89,1.79,5.27.5,6.81-1.93s1.28-6.16-1.23-6.9c-3.53-1-5.26-.5-6.8,1.93"/><path id="路径_3454" data-name="路径 3454" class="cls-5" d="M58.17,68.58s-14.06-8.83-17.69-9.15c-.61,0-1.74-.26-2,.63A7.87,7.87,0,0,0,39,64.55c.7,1.89,2.57,8.48,6.69,11.42l6.63,4.72c2.8,2,14.43,4.2,18.24,4.57s4.09-.13,4.4-.46c.69-.74,1.41-1.73-1-4.69S58.17,68.58,58.17,68.58"/><path id="路径_3455" data-name="路径 3455" class="cls-5" d="M58.5,68.81l10.9,7.6s5.07,3.17,4.18,4.77-1.76,2.64-6.16,1.95A53.72,53.72,0,0,1,56,80.47c-3.29-1.32-6.53-2.34-9.1-5.62s-5.64-8.2-6.15-11L40.28,61s.51-1.41,4-.13,12.13,6.46,14.22,7.92"/><path id="路径_3456" data-name="路径 3456" class="cls-12" d="M39.88,67s2.22,6,4.37,7.71c1.73,1.42,2.54,2.77,4.28,3.83,2.55,1.56,3.7,2.54,6.45,3.4s11.34,3,11.87,2.8-7-7-9-8.63c-3.56-2.85-10.8-6.53-12.54-7.38A37.46,37.46,0,0,0,39.88,67"/><path id="路径_3457" data-name="路径 3457" class="cls-13" d="M96.19,81.06c-2.09-1.29-3.26-1.26-6.32-.81s-7.13.08-8.88-.76-6.77-5.91-6.77-5.91l-2.13-1.24c-4.78-3.57-11.49-7.88-11.49-7.88s-14.06-8.83-17.69-9.14l-.12,0-1-.57a18,18,0,0,0-4.41-1.45,106.6,106.6,0,0,0-8-7.31C25.21,42.65,18.2,37.22,15,36s-3.94-2-6.55-1.11-1.34.48-1.34.48-1.73.78-1.5,1.76A122.65,122.65,0,0,0,11.8,48.41l4.55,6.82c-.89.53-1.83,1.12-2.82,1.8C6.91,61.62,5.2,67.9,4,70.48s-2,8.7-1.22,11.14,3,7.83,6.67,11.2,10,6.58,12,7.44a47.72,47.72,0,0,0,13.24,2.47c6.31.42,34.56.76,40.11.18s9.4-3.46,12-5.11,7.76-7.48,8.52-9.47S98.28,82.35,96.19,81.06Z"/><path id="路径_3458" data-name="路径 3458" class="cls-4" d="M34.75,95.12a3.3,3.3,0,0,1,0-3.94C36.26,89.24,38,86.94,38,86.94l10.92,8.6L75.26,135a12.52,12.52,0,0,1-6.63.73,10.31,10.31,0,0,1-7.13-4c-.68-.88-26.76-36.59-26.76-36.59"/><path id="路径_3459" data-name="路径 3459" class="cls-5" d="M65.34,95.22s-.63-2.46-4.53-3.34C57.43,91.12,42.64,87,42.64,87s-4.71-1-4.7.24.84,2.27,2.43,4.55l22,31.83s7.87,9.3,8.63,9.6,3.06,2.67,5,1.6,1.77-4.31,1.42-5.55-6.52-20.4-9.54-27.83l-2.52-6.22"/><path id="路径_3460" data-name="路径 3460" class="cls-9" d="M22.15,67.59l1.36-6.43s.41-.87,1-.89,1.19-.55,2.3,0,3.94,2.43,3.94,2.43,1.19.82.85,1.6a6.82,6.82,0,0,1-1.81,2.87c-1.4,1.47-4,2.74-4.83,2.7s-2.79-2.26-2.79-2.26"/><path id="路径_3461" data-name="路径 3461" class="cls-9" d="M18.42,69.18s.78-.72,1-3.26.52-4.48.52-4.48a1.23,1.23,0,0,0-1.37-.75c-1.08.11-5.7,3.21-6.64,4a2,2,0,0,0-.51,2.5c.34.86,3,2.49,3,2.49Z"/><path id="路径_3462" data-name="路径 3462" class="cls-9" d="M17.06,84.71a2.21,2.21,0,0,0-1-2.46l-1.42-.76a3.15,3.15,0,0,0-2.25.35C11.49,82.51,8.25,86,8.25,86S6.72,87,7.53,87.76a21.64,21.64,0,0,0,4.94,3c1.06.28,1.81,1,2.93-.92a14.37,14.37,0,0,0,1.66-5.18"/><path id="路径_3463" data-name="路径 3463" class="cls-9" d="M20.43,82.32l1.94-1.4a10,10,0,0,1,2-.54c.94-.12,3.93,2.35,4,3s.86,1.64-1.2,3.1-5.69,3.8-5.69,3.8-2,1-2.21-1.86a20.83,20.83,0,0,1,0-4.25,2.62,2.62,0,0,1,1.18-1.87"/><path id="路径_3464" data-name="路径 3464" class="cls-9" d="M25.36,75.78a29.58,29.58,0,0,1,.72-3.73,14.45,14.45,0,0,1,5.12-2.46c1.82-.32,2.55-.08,2.59,1.66s-.91,6-1.7,7.09a1.82,1.82,0,0,1-2.3.84c-.84-.27-3.57-1.71-3.57-1.71s-1-.81-.86-1.69"/><path id="路径_3465" data-name="路径 3465" class="cls-13" d="M42.3,62.87s2.23,5.95,4.37,7.7C48.41,72,49.22,73.34,51,74.4c2.56,1.57,3.71,2.54,6.45,3.4s11.35,3,11.88,2.81-7.05-7-9.05-8.63c-3.57-2.86-10.8-6.53-12.54-7.38a36.41,36.41,0,0,0-5.39-1.74"/><path id="路径_3466" data-name="路径 3466" class="cls-13" d="M67.77,91.1s-.63-2.46-4.53-3.34c-3.38-.76-18.17-4.88-18.17-4.88s-4.71-.95-4.71.24.85,2.27,2.44,4.56,22,31.82,22,31.82,7.88,9.3,8.64,9.6,3.06,2.67,5,1.6,1.78-4.31,1.43-5.55-6.52-20.4-9.54-27.83c-1-2.51-2.52-6.22-2.52-6.22"/><g id="组_1662" data-name="组 1662"><g id="组_1603" data-name="组 1603"><path id="Path_3256" data-name="Path 3256" class="cls-14" d="M59.9,71l-4.06.48-1.28-4Z"/><path id="Path_3257" data-name="Path 3257" class="cls-15" d="M62.54,80v0c4.28-6.6,4.56-9.94,4.56-9.94L52.74,60.65s-5.49,6.05-7.28,8.6a1.1,1.1,0,0,0-.14.21,9.75,9.75,0,0,0-1.42,2.36c-.2.94,1.83,4.11,7.15,7.77,5.24,3.09,8.27,3.93,9.69,3A9.64,9.64,0,0,0,62.54,80Z"/><path id="Rectangle_314" data-name="Rectangle 314" class="cls-16" d="M53.23,71.32l3.49,2.26a3.28,3.28,0,0,1,1,4.55h0a3.29,3.29,0,0,1-4.55,1h0l-3.49-2.25a3.3,3.3,0,0,1-1-4.56h0A3.29,3.29,0,0,1,53.23,71.32Z"/><circle id="Ellipse_222" data-name="Ellipse 222" class="cls-17" cx="55.08" cy="77.4" r="0.8"/><circle id="Ellipse_223" data-name="Ellipse 223" class="cls-17" cx="49.91" cy="74.05" r="0.8"/><circle id="Ellipse_224" data-name="Ellipse 224" class="cls-17" cx="52.59" cy="75.78" r="0.8"/><path id="Rectangle_315" data-name="Rectangle 315" class="cls-17" d="M51.09,71.46l6,3.91a.39.39,0,0,1,.12.54h0a.39.39,0,0,1-.54.11l-6.06-3.91a.4.4,0,0,1-.12-.54h0A.41.41,0,0,1,51.09,71.46Z"/><path id="Path_2919" data-name="Path 2919" class="cls-18" d="M48,62c1.14,1,2.3,1.9,3.46,2.81A100.2,100.2,0,0,0,69.62,76.14c6.3,3,12.55,5.64,19.69,4.62,22-3.14,28.61-29.7,26.51-48.47A34.12,34.12,0,0,0,108,13.4C95.27-1.53,70.9-3.12,53.76,4.38,39.32,10.7,25.9,24.5,32.05,41.35,35.1,49.71,41.25,56.32,48,62Z"/><path id="Path_2921" data-name="Path 2921" class="cls-19" d="M41.61,40.76s-2.26-2.5-3.22.64a3.55,3.55,0,0,0,2,4.6,3.72,3.72,0,0,0,1.18.25c1.47-.25.06-5.49.06-5.49"/><path id="Path_2922" data-name="Path 2922" class="cls-19" d="M90.62,72.4s3.22,1,.75,3.2a3.55,3.55,0,0,1-5.72-.89c-.37-1.44,5-2.31,5-2.31"/><path id="Path_2923" data-name="Path 2923" class="cls-19" d="M99.2,65.49c-8.17,15-25.36,13.92-40.68,4S36,45.35,45.39,30.75C53.45,18.27,72,15.93,86.88,25.53s19.42,26.92,12.32,40"/><path id="Path_2924" data-name="Path 2924" class="cls-20" d="M52.38,52.26a1.71,1.71,0,1,1-.49-2.4,1.72,1.72,0,0,1,.49,2.4"/><path id="Path_2925" data-name="Path 2925" class="cls-20" d="M57.72,62.84a6.79,6.79,0,0,0,6.22,4c.13,0,.25-.28.12-.27a6.66,6.66,0,0,1-6.14-4c-.06-.12-.26.1-.2.22"/><path id="Path_2926" data-name="Path 2926" class="cls-20" d="M80.32,70.32a1.72,1.72,0,1,1-.5-2.4,1.74,1.74,0,0,1,.5,2.4"/><path id="Path_2927" data-name="Path 2927" class="cls-17" d="M99.38,21.77C93,12,85,11.13,85,11.13,48.88,8.94,40.34,36.38,39.76,37.25s.93,2.26.93,2.26,15.58.35,28.27,8.55l4.53-3.57L72,50.24C83.83,57.88,90.44,71.9,91.55,72.62s1.63.78,3.35-.18c15.77-9.91,11.7-40.46,4.49-50.66"/><path id="Path_2928" data-name="Path 2928" class="cls-21" d="M70.5,3.18A54.67,54.67,0,0,1,83.14,4a41,41,0,0,1,11.6,3.5c2.66,1.39,4.79,3.6,3.46,6.75-1.9,4.52-8.63,5-12.76,5.66C77.23,21.21,69,23.28,60.62,22.58A25.61,25.61,0,0,1,48.7,18.81a6,6,0,0,1-3.19-4.37C45.35,10.5,50.82,8.27,53.73,7A48,48,0,0,1,70.5,3.18Z"/><ellipse id="Ellipse_135" data-name="Ellipse 135" class="cls-21" cx="40.05" cy="29.66" rx="10.37" ry="6.44" transform="translate(-1.2 57.63) rotate(-70.66)"/><g id="Group_1535" data-name="Group 1535"><path id="Path_3250" data-name="Path 3250" class="cls-22" d="M65.92,81.5a8.8,8.8,0,0,0,1.33-3.66,2,2,0,0,0-1.71-2.28,2,2,0,0,0-2.26,1.6h0s0,0,0,0c-.46,3.28-3.1,4.6-9.39,4.72a1.94,1.94,0,0,0-1.92,2h0V84a2,2,0,0,0,2.08,2,20.83,20.83,0,0,0,8.16-1.4A8.5,8.5,0,0,0,65.92,81.5Z"/></g><g id="Group_1537" data-name="Group 1537"><g id="Group_1536" data-name="Group 1536"><path id="Path_3252" data-name="Path 3252" class="cls-22" d="M38.12,56.26c0-.16.09-.32.14-.48A2,2,0,1,1,42.12,57h0a5.27,5.27,0,0,0,6,7.18,2,2,0,0,1,2.34,1.61,2,2,0,0,1-1.57,2.28h0a9.66,9.66,0,0,1-8.85-3A9.34,9.34,0,0,1,38.12,56.26Z"/></g><path id="Path_3253" data-name="Path 3253" class="cls-22" d="M41.79,58.59a7.22,7.22,0,0,1,.33-1.6,2,2,0,0,0-1.33-2.49h0a2,2,0,0,0-2.52,1.28l-.15.48a11.38,11.38,0,0,0-.35,2A6.91,6.91,0,0,0,41.79,58.59Z"/></g><g id="Group_1537-2" data-name="Group 1537-2"><g id="Group_1536-2" data-name="Group 1536-2"><path id="Path_3252-2" data-name="Path 3252-2" class="cls-15" d="M38.83,55.34a4.52,4.52,0,0,1,.18-.47,2,2,0,1,1,3.75,1.49h0A5.27,5.27,0,0,0,48.23,64a2,2,0,0,1,2.22,1.79,2,2,0,0,1-1.74,2.15h-.05a9.62,9.62,0,0,1-8.6-3.6A9.31,9.31,0,0,1,38.83,55.34Z"/></g><path id="Path_3253-2" data-name="Path 3253-2" class="cls-17" d="M42.31,57.93a7.22,7.22,0,0,1,.45-1.57,2,2,0,0,0-1.14-2.58h0A2,2,0,0,0,39,54.87h0l-.18.47a11.26,11.26,0,0,0-.5,2A6.68,6.68,0,0,0,42.31,57.93Z"/></g><g id="Group_1535-2" data-name="Group 1535-2"><path id="Path_3250-2" data-name="Path 3250-2" class="cls-15" d="M65.92,82.14a8.77,8.77,0,0,0,1.43-3.62A2,2,0,0,0,65.7,76.2a2,2,0,0,0-2.3,1.53h0v0c-.56,3.27-3.23,4.52-9.52,4.45a1.94,1.94,0,0,0-2,1.91h0v.06a2.06,2.06,0,0,0,2,2,21,21,0,0,0,8.2-1.16A8.52,8.52,0,0,0,65.92,82.14Z"/><path id="Path_3251" data-name="Path 3251" class="cls-17" d="M51.89,84.21a2,2,0,0,1,1.93-2h1.46a6.76,6.76,0,0,1,.21,4c-.5,0-1,0-1.56,0a2.06,2.06,0,0,1-2-2Z"/></g><path id="Path_3266" data-name="Path 3266" class="cls-17" d="M56.67,72.6a47.76,47.76,0,0,1-9.3-7.9,1.57,1.57,0,0,1,.19-2.21h0a.1.1,0,0,1,0,0,1.69,1.69,0,0,1,2.32.21,44.74,44.74,0,0,0,8.57,7.26,45.83,45.83,0,0,0,10.3,4.75,1.57,1.57,0,0,1,1.12,1.92h0v.06a1.68,1.68,0,0,1-2,1.1A49.13,49.13,0,0,1,56.67,72.6Z"/></g><ellipse id="椭圆_146-4" data-name="椭圆 146-4" class="cls-23" cx="76.4" cy="73.12" rx="1.63" ry="2.92" transform="translate(-22.24 111.25) rotate(-64.88)"/><ellipse id="椭圆_147-4" data-name="椭圆 147-4" class="cls-23" cx="48.44" cy="55.22" rx="1.63" ry="2.92" transform="translate(-24.08 66.89) rotate(-57.88)"/></g></g></g></g></g></svg>