<svg xmlns="http://www.w3.org/2000/svg" viewBox="0 0 24.72 88.43"><defs><style>.cls-1{fill:#729bcc;}.cls-2{fill:#d54e53;}.cls-3{fill:#e89760;}.cls-4{fill:#c05439;}.cls-5{fill:#7b84b3;}.cls-6{fill:#d76e4e;}.cls-7{fill:#eebe79;}.cls-8{fill:#eeb188;}</style></defs><title>组 1673 (2)</title><g id="圖層_2" data-name="圖層 2"><g id="圖層_8" data-name="圖層 8"><g id="组_1673" data-name="组 1673"><path id="路径_3500" data-name="路径 3500" class="cls-1" d="M12.05,37.52s3.13,6.29,6.81,25.64c3.4,17.91,1.57,25.27,1.57,25.27a115.11,115.11,0,0,0,1.68-26.08c-.63-16.56-3.84-27-3.84-27Z"/><path id="路径_3501" data-name="路径 3501" class="cls-2" d="M6.16,27.1,4,31.27l.88,7.38,3.81-6.89Z"/><path id="路径_3502" data-name="路径 3502" class="cls-3" d="M17.27,23.24l4,2,3.41,6.49L17.8,28.61Z"/><path id="路径_3503" data-name="路径 3503" class="cls-4" d="M4.54,1.89l8.87,28.66-4.3,4.2S2.48,23.19.42,16.74,4.54,1.89,4.54,1.89"/><path id="路径_3504" data-name="路径 3504" class="cls-5" d="M6.36,7.77a4.19,4.19,0,0,0-2.61,5.17,3.85,3.85,0,0,0,4.81,2.58l.18-.06Z"/><path id="路径_3505" data-name="路径 3505" class="cls-6" d="M4.54,1.89,11.68,25a9,9,0,0,0,7.54,6.27h0s-1.11-13.48-3.06-20S4.54,1.89,4.54,1.89"/><path id="路径_3506" data-name="路径 3506" class="cls-3" d="M14.17,33l-2.12,4.53,7.59,13.15Z"/><path id="路径_3507" data-name="路径 3507" class="cls-7" d="M18.27,35.34,14.17,33l5.47,17.68Z"/><path id="路径_3508" data-name="路径 3508" class="cls-4" d="M14.71,34.6l-1.39,2.84,4.8,8.17Z"/><path id="路径_3509" data-name="路径 3509" class="cls-6" d="M17.33,36,14.71,34.6l3.41,11Z"/><path id="路径_3510" data-name="路径 3510" class="cls-3" d="M5.12,3.76,3,4.3,4,0Z"/><path id="路径_3511" data-name="路径 3511" class="cls-8" d="M7.07,2.85l-1.95.91L4,0Z"/></g></g></g></svg>