<svg xmlns="http://www.w3.org/2000/svg" viewBox="0 0 126.69 141.78"><defs><style>.cls-1{fill:#f7f7f7;}.cls-2{fill:#595758;}.cls-3{fill:#bfc0c0;opacity:0.75;}.cls-3,.cls-6{isolation:isolate;}.cls-4{fill:#f5e6d6;}.cls-5{fill:#60a695;}.cls-6{fill:#e4f2ee;opacity:0.52;}.cls-7{fill:#e0a396;}</style></defs><title>组 1658 (2)</title><g id="圖層_2" data-name="圖層 2"><g id="圖層_5" data-name="圖層 5"><g id="组_1658" data-name="组 1658"><g id="组_1602" data-name="组 1602"><g id="组_1581" data-name="组 1581"><path id="Path_3306" data-name="Path 3306" class="cls-1" d="M20.15,132.61a3.07,3.07,0,0,1-.09-1.7c1.6-6.5,7.92-15.76,9-17.2a3.1,3.1,0,0,1,4.27-.63A3,3,0,0,1,34,117.2h0l-.06.07c-1.28,1.67-6.72,10-7.94,15a3.1,3.1,0,0,1-3.68,2.26,3,3,0,0,1-2.15-1.88Z"/><path id="Path_3307" data-name="Path 3307" class="cls-1" d="M20.15,132.61a3.07,3.07,0,0,1-.09-1.7c1.6-6.5,7.92-15.76,9-17.2a3.1,3.1,0,0,1,4.27-.63A3,3,0,0,1,34,117.2h0l-.06.07c-1.28,1.67-6.72,10-7.94,15a3.1,3.1,0,0,1-3.68,2.26,3,3,0,0,1-2.15-1.88Z"/><path id="Path_3308" data-name="Path 3308" class="cls-2" d="M22.31,134.49A3.1,3.1,0,0,0,26,132.23a17.36,17.36,0,0,1,.67-2.08A8.93,8.93,0,0,0,21,128a24.87,24.87,0,0,0-1,2.92,3.08,3.08,0,0,0,.09,1.7,3,3,0,0,0,2.16,1.87Z"/><path id="Path_3309" data-name="Path 3309" class="cls-1" d="M54.52,112.87a9.51,9.51,0,0,0-4.81-1.35,3.42,3.42,0,0,0-3.2,2.84A2.32,2.32,0,0,0,48,117.28a1.84,1.84,0,0,0,.52.1c4.37.16,5.94,3.77,5.6,12.88a2.23,2.23,0,0,0,1.93,2.49,2.29,2.29,0,0,0,.64,0,3.57,3.57,0,0,0,2.79-3.33c.2-5.26-.18-8.85-1.23-11.63a9.49,9.49,0,0,0-3.77-4.91Z"/><path id="Path_3310" data-name="Path 3310" class="cls-2" d="M56.72,132.74a2.22,2.22,0,0,1-2.56-1.82,2.09,2.09,0,0,1,0-.66c0-.71,0-1.38,0-2a9.09,9.09,0,0,1,5.36-1.08c0,.72,0,1.47,0,2.26a3.57,3.57,0,0,1-2.79,3.33Z"/><path id="Path_3311" data-name="Path 3311" class="cls-1" d="M29.1,111.25a9.55,9.55,0,0,0,4.63-1.86,3.43,3.43,0,0,0,.8-4.2,2.32,2.32,0,0,0-3-1.39,2.16,2.16,0,0,0-.48.24c-3.56,2.54-7,.64-12.3-6.79a2.23,2.23,0,0,0-3-.8h0a2.74,2.74,0,0,0-.5.4A3.59,3.59,0,0,0,15,101.2c3.05,4.29,5.54,6.9,8.07,8.46a9.44,9.44,0,0,0,6,1.6Z"/><path id="Path_3312" data-name="Path 3312" class="cls-2" d="M15.24,96.84a2.22,2.22,0,0,1,3.14-.11,2.24,2.24,0,0,1,.41.51c.41.58.81,1.12,1.2,1.63A9.13,9.13,0,0,1,16.4,103c-.44-.57-.88-1.18-1.34-1.82a3.57,3.57,0,0,1,.18-4.34Z"/><path id="Path_3313" data-name="Path 3313" class="cls-1" d="M38.57,139.83A3,3,0,0,1,39,137c2.69-3.53,2.48-11.47,1.23-13.72a3,3,0,0,1,1.21-4.06h0a3,3,0,0,1,4.12,1.15c2.26,4.09,2.53,14.6-1.74,20.19a3.1,3.1,0,0,1-4.26.64A2.89,2.89,0,0,1,38.57,139.83Z"/><path id="Path_3314" data-name="Path 3314" class="cls-2" d="M39,137a3,3,0,0,0-.44,2.83,2.93,2.93,0,0,0,1,1.36,3.11,3.11,0,0,0,4.27-.64,13.69,13.69,0,0,0,1.65-2.88A8.82,8.82,0,0,0,40,135.26,8.07,8.07,0,0,1,39,137Z"/><path id="Path_3315" data-name="Path 3315" class="cls-1" d="M49.29,106.78l-9.39,2.53-4.39-8.91Z"/><path id="Path_3324" data-name="Path 3324" class="cls-1" d="M49.67,120v0c2.91-6.37,2.32-9.53,2.32-9.53L33.83,102a97.85,97.85,0,0,0-5.64,8.36.88.88,0,0,0-.09.2,6.78,6.78,0,0,0-.93,2.28c0,.89,3.08,3.8,9.85,7.07,6.54,2.73,10.06,3.42,11.35,2.44A6.85,6.85,0,0,0,49.67,120Z"/><path id="Rectangle_318" data-name="Rectangle 318" class="cls-2" d="M37.4,109.33l6.65,3a2.69,2.69,0,0,1,1.34,3.56h0a2.69,2.69,0,0,1-3.56,1.33l-6.65-3a2.69,2.69,0,0,1-1.34-3.56h0a2.69,2.69,0,0,1,3.56-1.33Z"/><path id="Rectangle_319" data-name="Rectangle 319" class="cls-1" d="M41.7,113.65l2.2,1a.4.4,0,0,1,.2.53h0a.4.4,0,0,1-.53.2h0l-2.2-1a.4.4,0,0,1-.2-.53h0a.39.39,0,0,1,.53-.2Z"/><path id="Rectangle_320" data-name="Rectangle 320" class="cls-1" d="M41.13,114.9l2.2,1a.4.4,0,0,1,.2.53h0a.4.4,0,0,1-.53.2h0l-2.2-1a.4.4,0,0,1-.2-.53h0a.4.4,0,0,1,.53-.2Z"/><path id="Rectangle_321" data-name="Rectangle 321" class="cls-1" d="M36.12,109.39l8.52,3.87a.32.32,0,0,1,.16.44h0a.32.32,0,0,1-.43.16L35.85,110a.34.34,0,0,1-.17-.44h0a.32.32,0,0,1,.44-.16Z"/><path id="Path_3006" data-name="Path 3006" class="cls-3" d="M38.58,105.58c3.59,1.63,7.2,3.12,10.76,4.5,9.39,3.65,19.27,6.44,29.35,6.44a44.78,44.78,0,0,0,20.55-4.7c6.94-3.58,11.74-9.79,15.92-16.25,9.89-15.26,14.67-34,9.29-51.74A61.9,61.9,0,0,0,107.33,17c-8-7.5-17-11.89-27.44-14.69C63.88-2,46.18-.32,31.56,7.64,12.87,17.81.34,38.16,0,59.46c-.17,10.65,3,19.7,10.44,27.48C18.12,95,28.23,100.88,38.58,105.58Z"/><path id="Path_3008" data-name="Path 3008" class="cls-4" d="M8.92,65.61S4.77,62.21,4,67.36,7.89,75,10.13,74.23s-1.21-8.62-1.21-8.62"/><path id="Path_3009" data-name="Path 3009" class="cls-4" d="M93.33,103.7s5.3.87,1.92,4.85-8.26,2.13-9.19,0,7.27-4.8,7.27-4.8"/><path id="Path_3010" data-name="Path 3010" class="cls-4" d="M103.71,90.17c-9.28,25.46-36.52,27.85-62.9,15.94C14.2,94.1-.32,73.49,11,48.35c9.7-21.5,38.31-29.56,63.9-18S111.78,68,103.71,90.18"/><path id="Path_3011" data-name="Path 3011" class="cls-5" d="M51.63,21.89s-3.86-11.62,1.08-18.3c-7,1.84-11.65,9.66-1.08,18.3"/><path id="Path_3012" data-name="Path 3012" class="cls-5" d="M93.3,105a6.87,6.87,0,0,1-2.88-.32c-5.41-2.52-9.89-7-19.1-26.11C52.51,85.38,15.81,70.84,8.38,67.36A3.93,3.93,0,0,1,6.71,66,7.49,7.49,0,0,1,6.63,64c.76-18.78,10.43-50.13,43.55-45,15-11.72,37.51-1.28,42.27,1.13s11.82,6.16,20.28,22.3C121,58.16,119,81.31,97.35,103a16.94,16.94,0,0,1-4,2"/><path id="Path_3013" data-name="Path 3013" class="cls-5" d="M67.47,87.41c3.66-3,4.46-11.49,4.46-11.49"/><path id="Path_3014" data-name="Path 3014" class="cls-5" d="M72,77.24s-3.31,5.5-8.2,6.24"/><path id="Path_3015" data-name="Path 3015" class="cls-5" d="M71.62,75.78s2.45,9,.17,11.54"/><path id="Path_3057" data-name="Path 3057" class="cls-2" d="M32.44,85.58a2.55,2.55,0,1,1-1.24-3.39h0a2.56,2.56,0,0,1,1.25,3.38h0"/><path id="Path_3058" data-name="Path 3058" class="cls-2" d="M69,101.27a2.55,2.55,0,1,1-1.25-3.39A2.56,2.56,0,0,1,69,101.27h0"/><path id="Path_3059" data-name="Path 3059" class="cls-2" d="M38.25,97.67A15.58,15.58,0,0,0,52,104.2c.25,0,.39-.54.13-.52a15.39,15.39,0,0,1-13.55-6.44c-.16-.2-.47.23-.31.43"/><path id="Path_3019" data-name="Path 3019" class="cls-6" d="M39.83,9.75A65,65,0,0,1,54.41,6.12c4.7-.61,9.67-1.08,14.37-.27,3.52.61,6.72,2.33,6.37,6.38-.51,5.79-7.92,8.8-12.35,11C54,27.68,45.42,33,35.72,35.26a30.54,30.54,0,0,1-14.84.06c-2.14-.59-4.42-1.69-5.18-3.77-1.61-4.4,3.75-8.9,6.58-11.39A57.37,57.37,0,0,1,39.83,9.75Z"/><ellipse id="Ellipse_144" data-name="Ellipse 144" class="cls-6" cx="15.04" cy="50.71" rx="12.29" ry="7.64" transform="translate(-36.06 64.37) rotate(-88.45)"/><path id="Path_3325" data-name="Path 3325" class="cls-2" d="M41.88,109.17a65.22,65.22,0,0,1-10.08-5.75c-.66-.49-.77-1.2-.24-1.59a1.94,1.94,0,0,1,2.15.19A61.3,61.3,0,0,0,43,107.31a65.24,65.24,0,0,0,10.33,3.54,1.6,1.6,0,0,1,1.42,1.42c-.06.6-.8.93-1.63.74a68.59,68.59,0,0,1-11.23-3.85Z"/></g></g><ellipse id="椭圆_146-2" data-name="椭圆 146-2" class="cls-7" cx="64.42" cy="105.82" rx="1.89" ry="3.41" transform="translate(-55.21 137.99) rotate(-73.72)"/><ellipse id="椭圆_147-2" data-name="椭圆 147-2" class="cls-7" cx="27.91" cy="89.96" rx="1.89" ry="3.41" transform="translate(-65.76 80.08) rotate(-66.74)"/></g></g></g></svg>