<svg xmlns="http://www.w3.org/2000/svg" xmlns:xlink="http://www.w3.org/1999/xlink" viewBox="0 0 335.08 342.66"><defs><style>.cls-1,.cls-12,.cls-13,.cls-15,.cls-17,.cls-21,.cls-22,.cls-23,.cls-4,.cls-46,.cls-48,.cls-5,.cls-50,.cls-52,.cls-53,.cls-60,.cls-61,.cls-8{fill:none;}.cls-2{fill:#7f79af;}.cls-3{fill:#8f8dbe;}.cls-4,.cls-50{stroke:#fff;}.cls-12,.cls-13,.cls-15,.cls-17,.cls-21,.cls-22,.cls-23,.cls-4,.cls-46,.cls-48,.cls-5,.cls-50,.cls-52,.cls-53,.cls-60,.cls-61,.cls-8{stroke-miterlimit:10;}.cls-5{stroke:#98acc5;}.cls-6{fill:#7b5545;}.cls-7{fill:#c2d9dd;}.cls-8{stroke:#e4f1f5;}.cls-9{fill:#8b6652;}.cls-10{fill:#e68c4a;}.cls-11{fill:#edc25e;}.cls-12{stroke:#edc25e;}.cls-13{stroke:#e68c4a;}.cls-14{fill:#90b136;}.cls-15{stroke:#a2c54c;}.cls-16{fill:#a1b532;}.cls-17{stroke:#c9d23e;}.cls-18{fill:#8bbb47;}.cls-19{fill:#77ac2d;}.cls-20{fill:#64a133;}.cls-21{stroke:#8bbb47;}.cls-22{stroke:#77ac2d;}.cls-23{stroke:#64a133;}.cls-24{fill:#e37a21;}.cls-25{fill:#db4c1d;}.cls-26{clip-path:url(#clip-path);}.cls-27{fill:#60adb8;}.cls-28{fill:#74bccd;}.cls-29{fill:#afc947;}.cls-30{fill:#9ebe40;}.cls-31{fill:#e3c84a;}.cls-32{fill:#d8ebec;}.cls-33{fill:#8eaa28;}.cls-34{fill:#d7c372;}.cls-35{fill:#e4e099;}.cls-36{fill:#c1ae60;}.cls-37{fill:#d8b45a;}.cls-38{fill:#cbcccc;}.cls-39{fill:#ada06c;}.cls-40{fill:#c4b87c;}.cls-41{fill:#e1bc60;}.cls-42{fill:#e2d97c;}.cls-43{fill:#aac234;}.cls-44{fill:#92cad4;}.cls-45{fill:#786fa3;}.cls-46{stroke:#8f8dbe;}.cls-47{fill:#e4f1f5;}.cls-48{stroke:#e1ad47;}.cls-49{fill:#c9d23e;}.cls-50{stroke-width:2px;}.cls-51{fill:#b5c43b;}.cls-52{stroke:#d1d84d;}.cls-53{stroke:#a2ba30;}.cls-54{fill:#c4dad8;}.cls-55{fill:#7fa82f;}.cls-56{fill:#fff;}.cls-57{fill:#e07531;}.cls-58{fill:#739030;}.cls-59{fill:#a2ba30;}.cls-60{stroke:#739030;}.cls-61{stroke:#90b136;}.cls-62{fill:#b6926d;}.cls-63{fill:#76a62f;}.cls-64{fill:#97c04e;}.cls-65{fill:#ddc866;}.cls-66{fill:#e8d785;}.cls-67{fill:#f3c71e;}.cls-68{fill:#5f8796;}</style><clipPath id="clip-path"><ellipse class="cls-1" cx="162.37" cy="155.39" rx="129.56" ry="130.2"/></clipPath></defs><title>資產 52</title><g id="圖層_2" data-name="圖層 2"><g id="圖層_1-2" data-name="圖層 1"><g id="组_1955" data-name="组 1955"><g id="组_1674" data-name="组 1674"><g id="组_1825" data-name="组 1825"><path id="路径_4122" data-name="路径 4122" class="cls-2" d="M284.73,130l37.67,28.54-34.19,30.75Z"/><path id="路径_4123" data-name="路径 4123" class="cls-3" d="M322.4,158.48l-35.93,1.11-1.74-29.65Z"/><path id="路径_4124" data-name="路径 4124" class="cls-4" d="M308.06,147.62l3,6.15L304.43,159l18-.56Z"/><path id="路径_4125" data-name="路径 4125" class="cls-5" d="M309.53,162l-5.1-2.92,18-.55-18.29,16.44Z"/></g><g id="组_1829" data-name="组 1829"><path id="路径_4162" data-name="路径 4162" class="cls-6" d="M130.2,37.05a.69.69,0,0,1-.53.82h0a.72.72,0,0,1-.85-.56l-1-4.51a.69.69,0,0,1,.53-.82h0a.75.75,0,0,1,.86.57Z"/><path id="路径_4163" data-name="路径 4163" class="cls-7" d="M123.77,7.93,120,16.7l2.36.39-3.27,7.41,3.24.22-2.69,10.54,6.2-.09Z"/><path id="路径_4163-2" data-name="路径 4163-2" class="cls-4" d="M123.25,7.47l-3.73,8.77,2.36.38L118.61,24l3.25.23-2.69,10.53,6.2-.09Z"/><path id="路径_4164" data-name="路径 4164" class="cls-8" d="M132,34.33l-6.15.84L123.76,7.93Z"/><path id="路径_4165" data-name="路径 4165" class="cls-7" d="M136.37,32.6,132,34.33l-8.27-26.4,5.62,5.54-1.85,1.3L134,19.65l-2.5,3.05,6.68,9Z"/><path id="路径_4165-2" data-name="路径 4165-2" class="cls-4" d="M136.93,32l-4.35,1.73-8.26-26.4,5.61,5.54-1.84,1.3,6.47,4.88-2.5,3.05,6.69,9Z"/></g><g id="组_1830" data-name="组 1830"><path id="路径_4166" data-name="路径 4166" class="cls-6" d="M141.69,31.3a.53.53,0,0,1-.38.65h0a.52.52,0,0,1-.6-.44h0L140,28a.55.55,0,0,1,.39-.65h0a.52.52,0,0,1,.6.44h0Z"/><path id="路径_4167" data-name="路径 4167" class="cls-7" d="M137.2,8.59l-2.61,6.84,1.65.3L134,21.51l2.27.18-1.88,8.21,4.33-.07Z"/><path id="路径_4167-2" data-name="路径 4167-2" class="cls-4" d="M136.54,8.22l-2.6,6.85,1.65.3-2.29,5.78,2.27.17-1.88,8.22,4.33-.07Z"/><path id="路径_4168" data-name="路径 4168" class="cls-8" d="M143,29.18l-4.3.65L137.19,8.58Z"/><path id="路径_4169" data-name="路径 4169" class="cls-7" d="M146,27.83l-3,1.35L137.2,8.59l3.92,4.32-1.29,1,4.53,3.8-1.75,2.37,4.67,7Z"/><path id="路径_4169-2" data-name="路径 4169-2" class="cls-4" d="M146.23,27.83l-3,1.35L137.42,8.59l3.92,4.32-1.29,1,4.52,3.8-1.74,2.37,4.67,7Z"/></g><g id="组_1831" data-name="组 1831"><path id="路径_4170" data-name="路径 4170" class="cls-9" d="M70.21,73.08c.54-.55,1.1-1.12,1.67-1.67L59.91,58l-.84.8c-.28.26-.55.56-.84.83l2.86,3.23c-1,.93-2.49,2.39-2.92,2.82a1,1,0,0,1-.53.33.84.84,0,0,1-.74-.38l0,0-3.42-3.85-.9.87L56,66.42a1.37,1.37,0,0,0,1.36.58,2.54,2.54,0,0,0,1.36-.78l2.92-2.81Z"/><path id="路径_4171" data-name="路径 4171" class="cls-6" d="M67.93,56.76l-3-3.38-.89.87,3,3.39,0,0a.74.74,0,0,1,.24.73,1.07,1.07,0,0,1-.35.52l-2.91,2.84-3.78-4.12-.8.76c.26.34.5.66.5.67L71.4,71.88c.3-.3.62-.6.93-.89h0l-7.81-8.72c1-.94,2.46-2.42,2.9-2.84a3,3,0,0,0,.87-1.33A1.29,1.29,0,0,0,67.93,56.76Z"/><path id="路径_4172" data-name="路径 4172" class="cls-10" d="M51.09,56.94a4.52,4.52,0,0,1-.55,6.18,4.12,4.12,0,0,1-5.83.41h0l-.14-.12a4.52,4.52,0,0,1,.55-6.18A4.12,4.12,0,0,1,51,56.82Z"/><path id="路径_4174" data-name="路径 4174" class="cls-11" d="M55.47,61.86c1.84,2,1.54,5.4-.67,7.6s-5.5,2.35-7.34.34-1.54-5.4.67-7.6S53.63,59.86,55.47,61.86Z"/><path id="路径_4176" data-name="路径 4176" class="cls-10" d="M56.82,45.36a4.47,4.47,0,0,1-.55,6.1,4.09,4.09,0,0,1-5.75.4l-.13-.13a4.46,4.46,0,0,1,.54-6.09,4.07,4.07,0,0,1,5.75-.4Z"/><path id="路径_4178" data-name="路径 4178" class="cls-10" d="M68,46.05c1.84,2,1.54,5.4-.67,7.6S61.84,56,60,54s-1.54-5.4.67-7.6S66.17,44.05,68,46.05Z"/><path id="路径_4180" data-name="路径 4180" class="cls-10" d="M61,50.79c2.4,2.61,2,7.06-.88,9.92s-7.18,3.07-9.58.45-2-7,.88-9.92S58.56,48.17,61,50.79Z"/><path id="路径_4172-2" data-name="路径 4172-2" class="cls-12" d="M49.22,56.94a4.53,4.53,0,0,1-.54,6.18,4.14,4.14,0,0,1-5.84.41l-.13-.12a4.53,4.53,0,0,1,.54-6.18,4.14,4.14,0,0,1,5.84-.41h0Z"/><path id="路径_4174-2" data-name="路径 4174-2" class="cls-13" d="M53.61,61.86c1.83,2,1.54,5.4-.68,7.6s-5.5,2.35-7.34.34-1.53-5.4.68-7.6S51.76,59.86,53.61,61.86Z"/><path id="路径_4176-2" data-name="路径 4176-2" class="cls-12" d="M55,45.36a4.48,4.48,0,0,1-.54,6.1,4.09,4.09,0,0,1-5.75.4l-.14-.13a4.46,4.46,0,0,1,.54-6.09,4.07,4.07,0,0,1,5.75-.4Z"/><path id="路径_4178-2" data-name="路径 4178-2" class="cls-12" d="M66.15,46.05c1.84,2,1.54,5.4-.68,7.6S60,56,58.14,54s-1.55-5.4.67-7.6S64.31,44.05,66.15,46.05Z"/><path id="路径_4180-2" data-name="路径 4180-2" class="cls-12" d="M59.1,50.79c2.4,2.61,2,7.06-.88,9.92s-7.18,3.07-9.58.45-2-7,.88-9.92S56.7,48.17,59.1,50.79Z"/></g><g id="组_1832" data-name="组 1832"><path id="路径_4182" data-name="路径 4182" class="cls-9" d="M245.29,61.21c.32.41.66.83,1,1.26l10.88-8.68-.47-.63c-.15-.21-.33-.42-.49-.64l-2.6,2.08c-.55-.74-1.4-1.88-1.66-2.21a.66.66,0,0,1-.17-.4.75.75,0,0,1,.35-.54l0,0,3.11-2.49-.51-.67-3.1,2.47a1.22,1.22,0,0,0-.57,1,1.68,1.68,0,0,0,.39,1c.25.32,1.1,1.47,1.65,2.2Z"/><path id="路径_4183" data-name="路径 4183" class="cls-6" d="M257.08,59.74l2.73-2.2-.51-.67-2.75,2.2,0,0a.6.6,0,0,1-.54.17.7.7,0,0,1-.32-.27c-.25-.34-1.12-1.47-1.68-2.19l3.35-2.75-.44-.6-.53.36L246,62.11c.18.23.36.46.52.7h0l7.06-5.67c.55.73,1.42,1.86,1.66,2.19a1.82,1.82,0,0,0,.84.66A1,1,0,0,0,257.08,59.74Z"/><path id="路径_4184" data-name="路径 4184" class="cls-14" d="M258.89,47.26a3,3,0,0,1-4.22-.39l-.08-.1a3.21,3.21,0,0,1,.49-4.43,3,3,0,0,1,4.22.39h0l.07.09A3.21,3.21,0,0,1,258.89,47.26Z"/><path id="路径_4186" data-name="路径 4186" class="cls-14" d="M254.91,50.44a3.68,3.68,0,0,1-5.19-.48h0l-.09-.11a4,4,0,0,1,.6-5.45,3.68,3.68,0,0,1,5.19.49l.1.12A4,4,0,0,1,254.91,50.44Z"/><path id="路径_4188" data-name="路径 4188" class="cls-14" d="M266.41,51.67a3,3,0,0,1-4.17-.39l-.08-.09a3.18,3.18,0,0,1,.49-4.37,3,3,0,0,1,4.16.39h0l.08.1A3.18,3.18,0,0,1,266.41,51.67Z"/><path id="路径_4190" data-name="路径 4190" class="cls-14" d="M264.62,60a3.68,3.68,0,0,1-5.19-.49h0l-.1-.12a4,4,0,0,1,.6-5.44,3.7,3.7,0,0,1,5.2.48h0l.09.12A4,4,0,0,1,264.62,60Z"/><path id="路径_4192" data-name="路径 4192" class="cls-14" d="M262.09,54.67a4.81,4.81,0,0,1-6.77-.64h0l-.13-.15a5.17,5.17,0,0,1,.79-7.11,4.81,4.81,0,0,1,6.78.64h0l.13.15A5.17,5.17,0,0,1,262.09,54.67Z"/><path id="路径_4184-2" data-name="路径 4184-2" class="cls-15" d="M258.92,46.3a3,3,0,0,1-4.22-.4.39.39,0,0,1-.08-.1,3.21,3.21,0,0,1,.49-4.43,3,3,0,0,1,4.22.4h0l.08.1A3.22,3.22,0,0,1,258.92,46.3Z"/><path id="路径_4186-2" data-name="路径 4186-2" class="cls-15" d="M254.94,49.48a3.68,3.68,0,0,1-5.19-.49h0l-.09-.12a4,4,0,0,1,.6-5.44,3.69,3.69,0,0,1,5.19.48h0l.1.12A4,4,0,0,1,254.94,49.48Z"/><path id="路径_4188-2" data-name="路径 4188-2" class="cls-15" d="M266.43,50.71a3,3,0,0,1-4.17-.39l-.07-.1a3.17,3.17,0,0,1,.49-4.36,2.94,2.94,0,0,1,4.16.39h0l.08.1A3.17,3.17,0,0,1,266.43,50.71Z"/><path id="路径_4190-2" data-name="路径 4190-2" class="cls-15" d="M264.65,59a3.69,3.69,0,0,1-5.19-.48l-.1-.12a4,4,0,0,1,.6-5.45,3.69,3.69,0,0,1,5.2.49h0l.09.12A4,4,0,0,1,264.65,59Z"/><path id="路径_4192-2" data-name="路径 4192-2" class="cls-15" d="M262.12,53.7a4.82,4.82,0,0,1-6.78-.63l-.12-.16A5.16,5.16,0,0,1,256,45.8a4.82,4.82,0,0,1,6.78.64l.12.15A5.16,5.16,0,0,1,262.12,53.7Z"/></g><g id="组_1833" data-name="组 1833"><path id="路径_4194" data-name="路径 4194" class="cls-9" d="M286,149.74c0,.53,0,1.08,0,1.61l13.73.15v-.8c0-.27,0-.54,0-.82l-3.29,0c0-.93,0-2.37,0-2.8a.7.7,0,0,1,.11-.42.74.74,0,0,1,.6-.2h0l3.93,0v-.86l-3.92,0a1.15,1.15,0,0,0-1,.42,1.67,1.67,0,0,0-.3,1.06c0,.41,0,1.86,0,2.78Z"/><path id="路径_4195" data-name="路径 4195" class="cls-6" d="M296.17,156.13l3.46,0v-.85l-3.47,0h0a.6.6,0,0,1-.53-.22.73.73,0,0,1-.09-.41v-2.8l4.27,0c0-.25,0-.5,0-.75-.32,0-.64,0-.64-.06l-13.1-.12v.88h0l8.93.07c0,.92,0,2.37,0,2.78a1.88,1.88,0,0,0,.26,1.06A1,1,0,0,0,296.17,156.13Z"/><path id="路径_4196" data-name="路径 4196" class="cls-14" d="M305.06,147.48a3.15,3.15,0,1,1,3-3.28h0v.12A3.11,3.11,0,0,1,305.06,147.48Z"/><path id="路径_4198" data-name="路径 4198" class="cls-14" d="M300,147.44a3.88,3.88,0,1,1,3.73-4v.13a3.8,3.8,0,0,1-3.71,3.89h0Z"/><path id="路径_4200" data-name="路径 4200" class="cls-14" d="M308.32,155.76a3.11,3.11,0,1,1,3-3.23v.11A3.07,3.07,0,0,1,308.32,155.76Z"/><path id="路径_4202" data-name="路径 4202" class="cls-14" d="M302,161.13a3.83,3.83,0,0,1-3.79-3.86,3.78,3.78,0,0,1,3.7-3.89h0a3.88,3.88,0,0,1,.07,7.75Z"/><path id="路径_4204" data-name="路径 4204" class="cls-14" d="M303.15,155.35a5,5,0,0,1-4.95-5,5,5,0,0,1,4.84-5.08h0a5,5,0,0,1,4.95,5,5,5,0,0,1-4.84,5.08Z"/><path id="路径_4196-2" data-name="路径 4196-2" class="cls-15" d="M305.83,146.61a3.15,3.15,0,1,1,3-3.27h0v.11A3.11,3.11,0,0,1,305.83,146.61Z"/><path id="路径_4198-2" data-name="路径 4198-2" class="cls-15" d="M300.8,146.57a3.88,3.88,0,1,1,3.73-4h0v.13a3.8,3.8,0,0,1-3.71,3.89Z"/><path id="路径_4200-2" data-name="路径 4200-2" class="cls-15" d="M309.1,154.89a3.11,3.11,0,1,1,3-3.22v.1A3.06,3.06,0,0,1,309.1,154.89Z"/><path id="路径_4202-2" data-name="路径 4202-2" class="cls-15" d="M302.75,160.26a3.88,3.88,0,0,1-.09-7.75h0a3.88,3.88,0,0,1,.07,7.76Z"/><path id="路径_4204-2" data-name="路径 4204-2" class="cls-15" d="M303.92,154.49a5,5,0,0,1-4.95-5.05,5,5,0,0,1,4.84-5.08h0a5,5,0,0,1,5,5,5,5,0,0,1-4.84,5.08h0Z"/></g><g id="组_1836" data-name="组 1836"><path id="路径_4219" data-name="路径 4219" class="cls-9" d="M192.79,285.2l.31,2.45.51-.07-.3-2.46v0a.49.49,0,0,1,.08-.39.39.39,0,0,1,.25-.1l1.7-.23.28,2.23a.45.45,0,0,0,.54.29c.27,0,.47-.23.45-.43l-1.12-8.92a.44.44,0,0,0-.54-.29c-.28,0-.47.22-.45.42l.79,6.32-1.69.23a1,1,0,0,0-.62.28A.75.75,0,0,0,192.79,285.2Z"/><path id="路径_4220" data-name="路径 4220" class="cls-16" d="M190.52,291.47c-.37-3,2-5.71,5.4-6.16s6.37,1.58,6.74,4.53-2.06,5.7-5.41,6.16S190.88,294.42,190.52,291.47Z"/><path id="路径_4220-2" data-name="路径 4220-2" class="cls-17" d="M191.46,292.16c-.37-3,2.06-5.7,5.41-6.16s6.37,1.58,6.74,4.53-2.06,5.71-5.4,6.16S191.83,295.12,191.46,292.16Z"/></g><g id="组_1837" data-name="组 1837"><path id="路径_4222" data-name="路径 4222" class="cls-9" d="M179,281.65l-1.17,0-.13,10.61h.58c.19,0,.39,0,.59,0l0-2.54,2,0a.46.46,0,0,1,.3.08.55.55,0,0,1,.14.46v0l0,3h.62l0-3a.92.92,0,0,0-.3-.81,1.15,1.15,0,0,0-.76-.24h-2Z"/><path id="路径_4223" data-name="路径 4223" class="cls-6" d="M174.35,289.48l0,2.67H175l0-2.68v0a.46.46,0,0,1,.16-.41.45.45,0,0,1,.3-.07h2v3.3H178l0-.49.11-10.12h-.64l-.05,6.9h-2a1.24,1.24,0,0,0-.77.2A.8.8,0,0,0,174.35,289.48Z"/><path id="路径_4224" data-name="路径 4224" class="cls-14" d="M180.57,296.35a2.34,2.34,0,0,1,2.27-2.38,2.3,2.3,0,0,1,2.27,2.33h0v0a2.27,2.27,0,1,1-4.54,0h0Z"/><path id="路径_4226" data-name="路径 4226" class="cls-14" d="M180.61,292.47a2.87,2.87,0,0,1,2.79-2.92,2.83,2.83,0,0,1,2.8,2.87h0a2.8,2.8,0,1,1-5.59.05Z"/><path id="路径_4228" data-name="路径 4228" class="cls-14" d="M174.6,298.87a2.31,2.31,0,0,1,2.24-2.35,2.26,2.26,0,0,1,2.24,2.29h0v0a2.24,2.24,0,1,1-4.48.05h0Z"/><path id="路径_4230" data-name="路径 4230" class="cls-14" d="M170.74,294a2.8,2.8,0,1,1,5.59-.06h0v0a2.87,2.87,0,0,1-2.79,2.92,2.83,2.83,0,0,1-2.8-2.86Z"/><path id="路径_4232" data-name="路径 4232" class="cls-14" d="M174.9,294.86a3.74,3.74,0,0,1,3.64-3.81,3.7,3.7,0,0,1,3.66,3.74h0a3.74,3.74,0,0,1-3.64,3.82,3.7,3.7,0,0,1-3.66-3.74Z"/><path id="路径_4224-2" data-name="路径 4224-2" class="cls-17" d="M181.5,296.83a2.33,2.33,0,0,1,2.27-2.38,2.31,2.31,0,0,1,2.27,2.33h0v0a2.27,2.27,0,1,1-4.54.22v-.18Z"/><path id="路径_4226-2" data-name="路径 4226-2" class="cls-17" d="M181.53,293a2.87,2.87,0,0,1,2.8-2.92,2.84,2.84,0,0,1,2.8,2.87h0a2.87,2.87,0,0,1-2.79,2.92,2.83,2.83,0,0,1-2.8-2.87Z"/><path id="路径_4228-2" data-name="路径 4228-2" class="cls-17" d="M175.53,299.34a2.24,2.24,0,1,1,4.48,0h0v0a2.31,2.31,0,0,1-2.24,2.35,2.27,2.27,0,0,1-2.24-2.3h0Z"/><path id="路径_4230-2" data-name="路径 4230-2" class="cls-17" d="M171.66,294.43a2.88,2.88,0,0,1,2.79-2.92,2.84,2.84,0,0,1,2.8,2.87v0a2.88,2.88,0,0,1-2.79,2.92,2.84,2.84,0,0,1-2.8-2.87Z"/><path id="路径_4232-2" data-name="路径 4232-2" class="cls-17" d="M175.82,295.34a3.74,3.74,0,0,1,3.65-3.81,3.69,3.69,0,0,1,3.65,3.74h0a3.74,3.74,0,0,1-3.64,3.82,3.7,3.7,0,0,1-3.66-3.74Z"/></g><g id="组_1838" data-name="组 1838"><path id="路径_4234" data-name="路径 4234" class="cls-6" d="M39.65,156.74a.76.76,0,0,1,.74.77.31.31,0,0,1,0,.1h0a1,1,0,0,1-.91.87l-5.36,0a.75.75,0,0,1-.74-.77h0s0-.07,0-.1h0a1,1,0,0,1,.92-.87Z"/><path id="路径_4235" data-name="路径 4235" class="cls-18" d="M5.09,156.65l8.5,6.76,1.23-2.7L22,166.55l1.35-3.79,10.81,6,2-7.39Z"/><path id="路径_4236" data-name="路径 4236" class="cls-19" d="M37.24,153.84l-1.14,7.53-31-4.72Z"/><path id="路径_4237" data-name="路径 4237" class="cls-20" d="M36.78,148.22l.46,5.63L5.09,156.66l8.06-5.19L14,154l7.61-6.39,2.55,3.78,12.25-5.56Z"/><path id="路径_4235-2" data-name="路径 4235-2" class="cls-21" d="M4.21,157.35l8.5,6.76,1.22-2.7,7.14,5.85,1.34-3.8,10.81,6,2-7.39Z"/><path id="路径_4236-2" data-name="路径 4236-2" class="cls-22" d="M36.36,154.55l-1.14,7.52-31-4.72Z"/><path id="路径_4237-2" data-name="路径 4237-2" class="cls-21" d="M35.9,148.92l.46,5.63L4.21,157.36l8.05-5.19.83,2.53,7.61-6.39,2.55,3.77,12.25-5.55Z"/></g><g id="组_1840" data-name="组 1840"><path id="路径_4241" data-name="路径 4241" class="cls-6" d="M281.76,185.83a.6.6,0,0,1-.2-.82h0a.21.21,0,0,1,0-.06h0a.78.78,0,0,1,.92-.41L286,186.1a.61.61,0,0,1,.2.83h0a.16.16,0,0,1,0,.07h0a.78.78,0,0,1-.92.4Z"/><path id="路径_4242" data-name="路径 4242" class="cls-18" d="M304.33,195.87l-3-7.7-1.8,1.74-2.49-6.6-2.29,2.56-4.84-7.77-4.06,5.16Z"/><path id="路径_4243" data-name="路径 4243" class="cls-19" d="M282.26,188.77l3.56-5.51,18.52,12.61Z"/><path id="路径_4244" data-name="路径 4244" class="cls-20" d="M280.46,193.27l1.8-4.5,22.07,7.1-7.2,1.71.4-2.21-7.36,2.77-.26-3.67-10.08.78Z"/><path id="路径_4242-2" data-name="路径 4242-2" class="cls-21" d="M303.76,198.61l-8.19,1.19.61-2.43-7,1.12,1.08-3.26-9.15-.34,2.46-6.08Z"/><path id="路径_4243-2" data-name="路径 4243-2" class="cls-22" d="M286.63,183l-3,5.82,20.15,9.81Z"/><path id="路径_4244-2" data-name="路径 4244-2" class="cls-23" d="M289.65,179.19l-3,3.79,17.13,15.63-2.1-7.1L300,193l-1.25-7.76-3.32,1.6-4.33-9.14Z"/></g><g id="组_1845" data-name="组 1845"><path id="路径_4283" data-name="路径 4283" class="cls-9" d="M249.08,45.82,252,41.26l-.8-.55-2.94,4.57,0,0a1.14,1.14,0,0,1-.64.56.59.59,0,0,1-.46-.15l-2.62-1.79,2.66-4.14a.9.9,0,0,0-.32-1.18.83.83,0,0,0-1.17.13h0L235,55.35a.89.89,0,0,0,.33,1.18.82.82,0,0,0,1.16-.12l0,0,7.54-11.75,2.6,1.78a1.61,1.61,0,0,0,1.21.33A1.78,1.78,0,0,0,249.08,45.82Z"/><path id="路径_4284" data-name="路径 4284" class="cls-14" d="M260.71,38.08a11.13,11.13,0,0,1-15.28,3.77h0a4.28,4.28,0,0,1-.42-.26,12,12,0,0,1-3-16.35,11.12,11.12,0,0,1,15.28-3.78h0l.42.27A12,12,0,0,1,260.71,38.08Z"/><path id="路径_4284-2" data-name="路径 4284-2" class="cls-15" d="M260.71,36.7a11.13,11.13,0,0,1-15.28,3.77h0c-.15-.08-.28-.17-.42-.26a12,12,0,0,1-3-16.35,11.15,11.15,0,0,1,15.29-3.78l.42.27A12,12,0,0,1,260.71,36.7Z"/><path id="路径_4286" data-name="路径 4286" class="cls-24" d="M247.31,26.92a1.16,1.16,0,0,1-1.6.36l0,0a1.25,1.25,0,0,1-.35-1.7,1.16,1.16,0,0,1,1.6-.36l0,0A1.25,1.25,0,0,1,247.31,26.92Z"/><path id="路径_4287" data-name="路径 4287" class="cls-24" d="M245.57,33.41a1.16,1.16,0,0,1-1.6.36h0l-.05,0a1.26,1.26,0,0,1-.34-1.7,1.16,1.16,0,0,1,1.6-.36l0,0A1.25,1.25,0,0,1,245.57,33.41Z"/><path id="路径_4288" data-name="路径 4288" class="cls-24" d="M253.67,25.27a1.15,1.15,0,0,1-1.6.35l0,0a1.27,1.27,0,0,1-.35-1.7,1.16,1.16,0,0,1,1.6-.36l.05,0A1.25,1.25,0,0,1,253.67,25.27Z"/><path id="路径_4289" data-name="路径 4289" class="cls-25" d="M254.25,35.09a1.16,1.16,0,0,1-1.6.36l0,0a1.26,1.26,0,0,1-.35-1.7,1.16,1.16,0,0,1,1.6-.36l0,0A1.25,1.25,0,0,1,254.25,35.09Z"/><path id="路径_4290" data-name="路径 4290" class="cls-25" d="M252.88,40.15a1.16,1.16,0,0,1-1.61.35h0l0,0a1.25,1.25,0,0,1-.35-1.7,1.16,1.16,0,0,1,1.6-.35l0,0A1.26,1.26,0,0,1,252.88,40.15Z"/><path id="路径_4291" data-name="路径 4291" class="cls-25" d="M257.25,29.74a1.16,1.16,0,0,1-1.6.36l0,0a1.25,1.25,0,0,1-.35-1.7,1.16,1.16,0,0,1,1.6-.36l.05,0A1.25,1.25,0,0,1,257.25,29.74Z"/><path id="路径_4292" data-name="路径 4292" class="cls-25" d="M258.83,35.32a1.17,1.17,0,0,1-1.61.36l0,0a1.25,1.25,0,0,1-.35-1.7,1.15,1.15,0,0,1,1.6-.35l.05,0A1.27,1.27,0,0,1,258.83,35.32Z"/></g><g id="组_1847" data-name="组 1847"><g id="组_1655" data-name="组 1655"><g class="cls-26"><g id="组_1654" data-name="组 1654"><g id="组_1846" data-name="组 1846"><path id="路径_4293" data-name="路径 4293" class="cls-27" d="M164.92,247.83c3.19-3.63,7-6.27,10.21-9.91.33-.32,1.28-.32,1.6-.32,1.6-1.32,2.88-4,5.11-2.65,3.83,1.66,8.3,4.3,11.49,1.33,9.57-8.59,13.73-23.13,25.21-28.41,10.81-4.8,23.7-1.55,35.51-3.13l-.73-.5C244.71,198.3,239,190.37,231,183.76c-3.82-3-8.93-4.3-13.08-1.65-1.91,1-3.5,0-5.1,2.64-.32.66-1.92,1-2.87,1.65-9.15,5.51-23,24.78-27.45,25.77-9.57,2-19.78,3.3-28.72-1-1.27-.66-2.55-2.65-4.15-3.3-5.42-2.65-9.25-6.28-13.72-9.91-10.21-7.93-22.66-3.3-34.78-5.29-4.79-.66-8-5-9.26-9.91-.95-4.62.64-9.58-.95-13.54-1.92-4.63-7.34-7.6-9.58-12.22-3.83-7.27.64-16.19-2.55-23.13-3.51-8.58-12.45-11.89-21.06-15.2-2.56-1.32-4.15-4.62-4.47-7.6-.37-6.85-1.27-13.71-3.62-19.87Q47.7,94.62,46,98.14c2.4,6.19.58,14.07,1.51,20.87,8.62,4.62,7,13.54,7.66,21.8,19.15-.33,25.85,22.13,28.4,38,2.55,14.54-1,28.74,1.28,43,1,5.61,8.3,8.25,11.8,13.54,6.6,10.56,5.18,21.9.84,32.72a128.47,128.47,0,0,0,38.41,14.76C141.58,268.81,154.87,258.8,164.92,247.83Z"/><path id="路径_4294" data-name="路径 4294" class="cls-28" d="M254.05,204.74c-11.81,1.57-24.71-1.67-35.52,3.12-11.48,5.29-15.63,19.82-25.21,28.41-3.19,3-7.65.33-11.48-1.32-2.24-1.32-3.51,1.32-5.11,2.64-.32,0-1.28,0-1.6.33-3.19,3.64-7,6.28-10.21,9.91-10,11-23.35,21-29,34.93a129.5,129.5,0,0,0,26.48,2.73h.48A129,129,0,0,0,259,242a130.31,130.31,0,0,0,21.27-32.71A32.29,32.29,0,0,1,254.05,204.74Z"/><path id="路径_4295" data-name="路径 4295" class="cls-28" d="M290.46,135.69A129.41,129.41,0,0,0,49.62,91.2c2.34,6.16,3.25,13,3.61,19.88.33,3,1.92,6.27,4.47,7.6,8.62,3.3,17.55,6.6,21.06,15.2,3.2,6.93-1.27,15.85,2.56,23.12,2.23,4.62,7.65,7.6,9.57,12.22,1.6,4,0,8.92,1,13.54,1.27,5,4.46,9.25,9.25,9.91,12.13,2,24.57-2.64,34.79,5.29,4.46,3.63,8.3,7.26,13.72,9.91,1.6.66,2.87,2.64,4.14,3.3,8.94,4.29,19.15,3,28.73,1,4.46-1,7.66-5.62,10.84-9.58A92.18,92.18,0,0,1,202.9,193c2.87-1.65,4.79-4.3,7-6.61,1-.66,2.55-1,2.87-1.65,1.6-2.64,3.19-1.65,5.11-2.64,4.15-2.65,9.25-1.32,13.08,1.65,8,6.61,13.72,14.54,22.33,20.48a32.36,32.36,0,0,0,27,5.05,131.18,131.18,0,0,0,10.14-73.59Z"/><path id="路径_4296" data-name="路径 4296" class="cls-29" d="M152.08,94c11.17,2.64,23.3,3,30.32,12.22,2.55,3.3,2.23,9.25.32,12.55-5.75,9.58-19.47,3.3-29.36,4.62,0,7.93,9.89,6.61,15.32,8.59-5.11,5.29-13.4,1.32-19.15,5-2.55,1.65-2.87,5.94-5.42,7.6-2.88,2-7-1-9.58,1.65-4.47,4.62-6.7,13.87-2.23,17.5,4.78,3.64,12.12-1,17.87-3.63,6.7-3,15,.66,22-2.64,18.5-8.59,33.18-24.77,42.76-43.6,3.51-6.28-7.66-8.26-8.3-12.55-1-6.28-3.19-11.23-9.57-12.22-13.4-2.32-26.17,0-39.58-2.32a8.9,8.9,0,0,1-2.61-1,82,82,0,0,0-14.09.79A20.64,20.64,0,0,0,152.08,94Z"/><path id="路径_4297" data-name="路径 4297" class="cls-30" d="M268,152.7a82.48,82.48,0,0,1-7.66-10.9c-4.47-7.27-6.7-14.87-12.45-21.47-.32-.66-.32-2-.64-2.64C239,105.13,229.7,96.54,217.89,88c-.95-.33-2.23-.33-3.19-.66-5.1-4-9.89-4.62-15.31-5-8.81-.78-18-.45-27.06-.38-4,2.75-8.44,4.59-12.27,4.12-1.74-.17-3.47-.27-5.17-.32a9.44,9.44,0,0,0,2.62,1c13.4,2.31,26.16,0,39.57,2.31,6.37,1,8.61,5.94,9.57,12.22.64,4.29,11.81,6.27,8.3,12.55-9.58,18.83-24.26,35-42.76,43.6-7,3.3-15.32-.33-22,2.64-5.75,2.65-13.08,7.27-17.87,3.64-4.47-3.64-2.24-12.89,2.23-17.51,2.55-2.64,6.7.33,9.58-1.65,2.55-1.65,2.87-6,5.42-7.6,5.74-3.64,14,.33,19.15-5-5.43-2-15.32-.66-15.32-8.58,9.89-1.32,23.61,5,29.36-4.63,1.91-3.3,2.23-9.25-.32-12.55-7-9.25-19.15-9.58-30.32-12.22a20.64,20.64,0,0,1-11.28-7.47c-19.44,2.8-36.7,12.37-54.14,23.65a20.22,20.22,0,0,1-12.84,3.35c5.66,1.78,13.4.11,18.14,1.81,10.94,3.94.17,25.47,5.93,34.56,3.73,5.89,9,15.43,14.13,20,7.06,6.19,15.06,1.45,24.08,2.08,2.3,12,11.66,18.66,21.8,17.74s21-9.46,26.8-14c10.48-8.36,19.94-28.1,35.16-28.77,9.87-.44,21.08,31.53,27,38.09,8.37,9.26,18,16.11,32.39,11.19,1.89-.65,6.29-3.66,7.78-4.62a163.77,163.77,0,0,0,3.45-16.7C282,168.38,275.19,160.42,268,152.7Z"/><path id="路径_4298" data-name="路径 4298" class="cls-31" d="M86.66,110.19c23-14.86,45.64-26.75,73.4-24.11,3.83.47,8.3-1.37,12.27-4.12-10,.08-19.91-.16-29.11-2.59-.32-7.6,1.28-14.87-.95-22.46a5.9,5.9,0,0,0-4.79-4.3c-12.44-1.32-23.93,3.63-36.38,5.94-5.42,1-10.53.66-16,1.65-3.85.73-7.61.65-10.53-.6A130.91,130.91,0,0,0,64.27,70.33c.19,2.65.45,5.24.45,7.38,0,7.73-1.7,18.21.44,25.52,1.39,4.73,1.42,5.45,5.28,8.56a10,10,0,0,0,3.38,1.74A20.26,20.26,0,0,0,86.66,110.19Z"/><path id="路径_4299" data-name="路径 4299" class="cls-32" d="M154.64,55c8-5.29,15.31-9.91,21.37-17.51,1-1,8.46-8,10.36-10.09l-1.83-.34A129.33,129.33,0,0,0,74.61,59.6c2.92,1.26,6.68,1.33,10.53.6,5.43-1,10.53-.65,16-1.65,12.45-2.31,23.93-7.26,36.38-5.94a5.9,5.9,0,0,1,4.79,4.3,14.46,14.46,0,0,1,.5,3.27A33,33,0,0,0,150.48,57C151.76,56.35,153.68,55.69,154.64,55Z"/><path id="路径_4300" data-name="路径 4300" class="cls-33" d="M290.45,135.69A130,130,0,0,0,186.37,27.43c-1.9,2.07-9.4,9.1-10.36,10.09C170,45.12,162.61,49.74,154.63,55c-.95.66-2.87,1.32-4.15,2a32.62,32.62,0,0,1-7.71,3.17,49.42,49.42,0,0,1-.74,9.64c-1.06,6.94-2.82,14.38-2.64,18.8,1.84,7,11.44,5.44,23,2.14,12.54-3.59,27.37-9.27,37-8.41,5.42.33,10.21,1,15.31,5,1,.33,2.24.33,3.19.66,11.81,8.59,21.07,17.18,29.36,29.73.33.66.33,2,.64,2.64,5.75,6.61,8,14.2,12.45,21.47A82.48,82.48,0,0,0,268,152.7c7.2,7.73,13.94,15.68,22.48,22.14a131.73,131.73,0,0,0,0-39.15Z"/><path id="路径_4301" data-name="路径 4301" class="cls-34" d="M150.09,185l-.06,0Z"/><path id="路径_4302" data-name="路径 4302" class="cls-34" d="M99.47,149.06Z"/><path id="路径_4303" data-name="路径 4303" class="cls-34" d="M102.49,153.93l0,0S102.52,153.94,102.49,153.93Z"/><path id="路径_4304" data-name="路径 4304" class="cls-34" d="M117,170.09h-.07S116.62,170,117,170.09Z"/><path id="路径_4305" data-name="路径 4305" class="cls-34" d="M189.79,167.3h0l0,0Z"/><path id="路径_4306" data-name="路径 4306" class="cls-34" d="M263.28,197.9l.35.08.18,0,.14,0H264l1.3.17.32,0,.35,0,.69.05.68,0c.23,0,.44,0,.66,0a35.91,35.91,0,0,0,5-.26c1.57-.19,3.05-.43,4.45-.7l.27-.05.13,0,.11,0,.07,0,.5-.13.5-.12.25-.06.27-.1,1.05-.37.95-.46a16.13,16.13,0,0,0,3.15-2.22c.45-.39.84-.8,1.24-1.18l1.1-1.14c.68-.74,1.33-1.45,1.88-2.12.27-.33.54-.65.77-1s.47-.6.67-.89c.42-.56.76-1.09,1.06-1.53s.51-.85.69-1.17l.51-1-.63.89c-.21.29-.5.64-.82,1.05s-.74.87-1.21,1.37c-.23.26-.49.52-.76.8s-.55.56-.86.85c-.61.59-1.29,1.19-2.06,1.83l-1.19,1c-.42.32-.85.66-1.3,1a14.24,14.24,0,0,1-3,1.68l-.84.3-.85.2-.22.05-.25,0-.51.07-.51.08-.46,0c-1.39.13-2.83.22-4.33.25-.37,0-.75,0-1.13,0s-.76,0-1.14,0-.77,0-1.16-.06l-1.17-.11c-.2,0-.4,0-.59-.06l-.56-.1-.58-.09-.29,0-.31-.07-1.27-.28-1.09-.34a24.53,24.53,0,0,1-8.74-5.76q-2.14-2.08-4.07-4.37c-.67-.8-1.33-1.61-2-2.44l-1-1.27-.5-.66-.25-.33-.2-.28a23.7,23.7,0,0,1-1.53-2.56c-.49-.94-1-1.93-1.43-3-.92-2-1.8-4.24-2.7-6.48s-1.84-4.55-2.86-6.9-2.12-4.74-3.42-7.13a39.49,39.49,0,0,0-4.76-7.1,22.45,22.45,0,0,0-3.43-3.25,15.42,15.42,0,0,0-4.55-2.41,13.75,13.75,0,0,0-5.37-.62,15.47,15.47,0,0,0-2.61.44c-.4.13-.83.24-1.23.38l-.6.21a6,6,0,0,0-.61.25l-.62.27-.16.07-.12.06-.23.1-.45.23a1.08,1.08,0,0,0-.22.11l-.17.1-.34.2a10.85,10.85,0,0,0-1.26.87,13.88,13.88,0,0,0-1,.93,25.79,25.79,0,0,0-3.18,3.82c-.87,1.25-1.64,2.46-2.37,3.5l-.24.33-.12.16-.16.22-.15.21-.09.1c.07-.08,0,0,0,0l-.29.35c-.18.23-.39.48-.6.72l-.31.36-.34.38-.7.78-.74.83-.38.42-.38.46-.39.46-.42.54-.42.55-.32.45-.31.44-.14.21-.08.12-.15.25-1.22,1.94c-.37.62-.74,1.24-1.12,1.85s-.67,1.07-1,1.61l-.24.4-.31.43-.63.89-.32.44-.13.19h0c-.19.26,0,0,0,0l0,0-.08.09-.64.81c-1.73,2.15-3.56,4.24-5.46,6.22l-1.45,1.44c-.48.48-1,.91-1.48,1.37s-1,.83-1.43,1.23c-.24.2-.45.39-.71.59l-.89.65-.79.58-.09.07.09-.07-.07,0-.11.07-.2.12-.42.26-1.65,1a37.67,37.67,0,0,1-3.44,1.68,34.8,34.8,0,0,1-3.59,1.28,36.91,36.91,0,0,1-3.76.79c-1.29.25-2.5.29-3.75.43l-2.18.05-.55,0h-1.47a18.31,18.31,0,0,1-3.47-.25,6.34,6.34,0,0,1-1.22-.36,1.23,1.23,0,0,0-.26-.12.8.8,0,0,0-.16-.08l-.17-.11-.23-.14-.06,0-.06,0,.06,0,0,0-.18-.13-.7-.5-.7-.58c-.23-.18-.47-.42-.7-.63s-.47-.42-.71-.67l-.72-.7-.73-.75-1.53-1.59-.8-.83-.77-.79-.1-.1-.1-.11-.1-.11c-.07-.08-.13-.13-.2-.22l-.26-.33-.13-.16-.14-.2-1.31-1.77c-.23-.31-.54-.69-.82-1-.11-.15-.37-.43-.59-.66l-.33-.36-.17-.17a.84.84,0,0,0-.15-.14l-.41-.37-.1-.09c.17.14-.34-.29-.38-.31l-.46-.32a7.06,7.06,0,0,0-.93-.54l-.46-.23-.45-.17a12.6,12.6,0,0,0-3.27-.73,22.12,22.12,0,0,0-2.7-.05c-.83,0-1.62.1-2.34.16l-1,.08-1.06.08c-.83.05-1.56.13-2.26.2a32.78,32.78,0,0,1-3.7.21l-.72,0-.17,0-.14,0-.14,0h-.13l-.13,0-.23-.08a0,0,0,0,1,0,0h0c-.36-.13,0,0-.07,0h0l-.19-.08a2.23,2.23,0,0,1-.55-.51,7.55,7.55,0,0,1-.7-1.1,28.81,28.81,0,0,1-1.43-3.45c-.25-.67-.5-1.38-.8-2.13-.16-.38-.31-.77-.5-1.18s-.37-.8-.65-1.32L112,160l-.07-.11a1.59,1.59,0,0,0-.13-.22l-.41-.63c-.12-.2-.31-.43-.46-.65l-.25-.32c-.09-.11-.19-.22-.29-.32a10.31,10.31,0,0,0-1.31-1.25,9.53,9.53,0,0,0-1.58-1,12.79,12.79,0,0,0-2.75-1l-.5-.1-.42-.11a3.44,3.44,0,0,1-.38-.11l-.17-.05-.12,0a1.82,1.82,0,0,1-.3-.11l-.24-.1-.12,0,0,0,0,0s-.09,0,0,0l-.18-.08-.22-.13a4.09,4.09,0,0,1-.8-.64A6.23,6.23,0,0,1,100,151c-.08-.22-.16-.44-.23-.68s-.07-.24-.09-.33l0-.14a1.24,1.24,0,0,1-.05-.19l-.1-.51s0,0,0,0h0V149l0-.22-.14-.89c-.15-1.22-.27-2.45-.32-3.71-.13-2.53-.06-5.13,0-7.77s.17-5.31.11-8.06c0-.35,0-.7,0-1.06s0-.65-.05-1l0-.48v-.29l0-.25c0-.33-.05-.66-.07-1,0-.68-.11-1.37-.2-2.09s-.22-1.47-.39-2.22a17,17,0,0,0-.71-2.3,14.12,14.12,0,0,0-1.12-2.19,5.3,5.3,0,0,0-.37-.55l-.2-.28-.1-.13-.07-.09-.29-.36-.14-.17-.12-.13-.23-.25a8.89,8.89,0,0,0-2.19-1.67,10.62,10.62,0,0,0-4.62-1.18,31.48,31.48,0,0,0-3.76.1l-.83,0-.79,0-.42,0H81.12c-1.06,0-2.1,0-3.1,0-.5,0-1-.08-1.46-.12s-.94-.12-1.37-.23a13,13,0,0,1-1.3-.32,9.5,9.5,0,0,1-1.19-.47,2.93,2.93,0,0,1-.56-.28l-.54-.3a9.19,9.19,0,0,1-1-.75c-.31-.27-.61-.56-.9-.86s-.25-.3-.38-.45l-.19-.22-.1-.1-.1-.16-.43-.63-.11-.16-.05-.07,0,0,0,0,0,0-.14-.26-.33-.57a5.43,5.43,0,0,1-.3-.59c-.18-.4-.38-.8-.54-1.21s-.3-.83-.45-1.24a29.67,29.67,0,0,1-1.1-5.18,50.91,50.91,0,0,1-.4-5.15C65,89.83,65,88.18,65,86.6s0-3.12-.06-4.61c0-.72-.06-1.43-.08-2.12s0-1.34,0-2c0-1.32.05-2.57.07-3.74s0-2.3,0-3.33a26.55,26.55,0,0,0-.65-5.25,9.62,9.62,0,0,0-1.24-3,6.36,6.36,0,0,0-.5-.66l-.19-.2.16.23a4.86,4.86,0,0,1,.4.7,7,7,0,0,1,.48,1.25,13.65,13.65,0,0,1,.36,1.8,25.67,25.67,0,0,1,.06,5.11c-.15,2-.46,4.33-.76,7-.07.67-.14,1.35-.2,2.07s-.08,1.41-.12,2.14q-.15,2.15-.36,4.53c-.13,1.59-.27,3.24-.34,5s-.13,3.58,0,5.5a37.1,37.1,0,0,0,.37,3.79A22.77,22.77,0,0,0,70,110.21c5.1,3,12.76-.33,17.87,2.31,13.07,7.27,6.37,25.1,8.61,39,.64,2.64,0,6.93,3.19,7.6,6.7.66,11.17,4.62,13.08,11.23a5.88,5.88,0,0,0,2.56,3.63c6.06,2.31,12.76-1.65,18.51,2,5.74,4,8.3,11.23,15,12.55,11.48,1.66,22.65,2,32.54-5.94,13.09-10.24,20.75-24.12,31.92-35.35,4.46-4.62,11.76-1.25,13.72,3.32.48,1.13,3.05,3.69,3.17,4.9,6.17,9.59,11.29,19.56,17.25,29.77a29.58,29.58,0,0,0,14.8,12.5l.27.07Z"/><path id="路径_4307" data-name="路径 4307" class="cls-34" d="M176.85,180.28l-.1.07Z"/><path id="路径_4308" data-name="路径 4308" class="cls-34" d="M156.92,186h-.06C156.81,186.05,156.92,186,156.92,186Z"/><path id="路径_4310" data-name="路径 4310" class="cls-35" d="M247.5,185.17c-4.21-7.2-8-14.28-12-21.2-1.12-3.42-6.23-12.74-7.05-14.1-3.6-6-10.59-7.31-15.06-2.68-11.17,11.23-18.82,25.1-31.91,35.35-9.89,7.92-21.06,7.6-32.55,5.94-6.7-1.32-9.25-8.59-15-12.55-5.74-3.63-12.44.33-18.51-2a5.88,5.88,0,0,1-2.55-3.64c-1.91-6.6-6.38-10.56-13.08-11.23-3.2-.66-2.56-5-3.2-7.6-2.23-13.87,4.47-31.71-8.61-39-5.1-2.65-12.77.66-17.87-2.32a22.88,22.88,0,0,1-7.76-9.42c.11.73.25,1.46.43,2.2.14.51.28,1,.43,1.55s.37,1,.55,1.56c.1.26.21.52.33.77l.36.77.18.39.24.42.38.66.1.17.13.2.27.39a8.94,8.94,0,0,0,.56.77A13.46,13.46,0,0,0,67.5,112a14,14,0,0,0,1.42,1.24c.26.19.52.36.78.54a7.61,7.61,0,0,0,.82.48,14.92,14.92,0,0,0,1.71.82c.58.21,1.17.44,1.76.59s1.19.3,1.78.43,1.19.21,1.77.27c1.19.16,2.34.24,3.51.29l.86,0h2.64a26.86,26.86,0,0,1,3.11.1,4.84,4.84,0,0,1,2.1.63,2.45,2.45,0,0,1,.6.56l.08.08h0s0-.06,0,0l0,0,0,0,.27.37.07.09,0,0,.06.1L91,119a6.7,6.7,0,0,1,.5,1.13,8.63,8.63,0,0,1,.32,1.31c.09.47.14,1,.19,1.51s.06,1.12.08,1.72c0,.31,0,.62,0,.92v1.87l0,.88c0,1.2-.1,2.48-.18,3.75s-.18,2.6-.26,3.92c-.18,2.67-.37,5.44-.35,8.35,0,1.45.08,3,.22,4.47l.13,1.14,0,.29,0,.15s0,.25,0,.21l.09.51a13.25,13.25,0,0,0,.3,1.36c.1.43.24.86.38,1.3a14.59,14.59,0,0,0,2.84,5,12.59,12.59,0,0,0,2.33,2c.21.13.43.28.66.41l.68.36.59.28c.12.06.42.18.65.27l.36.14.32.11.61.2.56.17.5.14a5.26,5.26,0,0,1,1.15.41,1.33,1.33,0,0,1,.36.35l.07.07.06.11.16.21.16.27v0h0c0-.05,0,0,0,0l.06.1.06.12,0,.1c0,.11.17.35.27.61s.22.53.33.81c.21.58.43,1.23.67,1.92a35.75,35.75,0,0,0,1.81,4.56,15.78,15.78,0,0,0,1.57,2.57,11,11,0,0,0,2.55,2.44,9.25,9.25,0,0,0,1.66.92l.21.09.33.12.25.09.12,0,.2.06.48.13.48.12.38.07.38.07.37,0c.49.06,1,.1,1.4.12a23.91,23.91,0,0,0,2.54,0c.8,0,1.56-.1,2.28-.16s1.41-.12,2-.15l1.08-.06,1.13-.08c.7,0,1.36-.09,2-.1a12.22,12.22,0,0,1,1.6.05,3.85,3.85,0,0,1,.94.2l0,0,0,0-.1-.1.17.14h0s0,0,0,0,0,0,0,0h0l.38.34a.14.14,0,0,1,.05.06v0l0,0a1.29,1.29,0,0,1,.14.17c.17.23.33.42.53.7l1.3,1.82.19.25.21.27.43.55c.16.19.36.4.54.6l.27.3.09.1.1.1.77.79.73.77,1.53,1.61.81.84.86.85c.28.28.59.57.9.85s.6.57.94.84l1,.84c.35.27.72.53,1.08.8l.27.2.26.17.11.07.23.15.3.18.82.44.73.35a14.71,14.71,0,0,0,3,.92,26.12,26.12,0,0,0,5.22.46h1.79l.54,0,2.19-.06A48.8,48.8,0,0,0,165,195a45.53,45.53,0,0,0,4.77-1,43.21,43.21,0,0,0,9-3.85c.7-.41,1.38-.86,2.06-1.3l.51-.32.25-.17.13-.08a2.25,2.25,0,0,0,.25-.17l.88-.66.87-.66c.31-.24.65-.54,1-.81.64-.55,1.33-1.11,1.87-1.64s1.16-1.08,1.71-1.63L190,181c2.11-2.25,4.08-4.58,5.94-7l.69-.9.09-.11a2.7,2.7,0,0,0,.19-.26l.15-.22.31-.45.61-.9c.1-.16.2-.29.3-.46l.33-.53.64-1.06.32-.53.16-.27.13-.23,1.08-1.88,1-1.73.13-.22.07-.11h0c-.07.1,0,0,0,0h0l.3-.45c.1-.14.2-.32.29-.43l.23-.3.22-.32.3-.36.29-.36.32-.38.32-.38.34-.4.7-.82.36-.42.37-.44c.25-.3.49-.59.74-.92l.37-.47.13-.18.08-.11.15-.21.16-.22.18-.27.36-.54c.84-1.3,1.55-2.48,2.25-3.54.34-.54.69-1,1-1.49a12.25,12.25,0,0,1,1-1.17,6.42,6.42,0,0,1,.47-.45c.13-.11.27-.21.41-.31l.09-.06,0,0c-.16.09,0,0,0,0l.45-.24.22-.12.11,0,.07,0,.3-.14c.19-.1.45-.19.67-.28s.46-.16.68-.24a8.49,8.49,0,0,1,1.31-.28,6.23,6.23,0,0,1,2.47.16,10.73,10.73,0,0,1,4.8,3.23,35,35,0,0,1,4.13,5.62c.56.93,1.1,1.87,1.61,2.83,1.8,3.31,3.4,6.78,5,10.18,1,2.19,2.07,4.37,3.19,6.52.56,1.07,1.14,2.14,1.78,3.19a27.61,27.61,0,0,0,2.15,3.1l.33.39.27.31.55.62c.37.43.76.84,1.12,1.26.75.83,1.5,1.63,2.27,2.42a58.08,58.08,0,0,0,4.74,4.41A36.15,36.15,0,0,0,257,195.5a22,22,0,0,0,5.29,2.19A29.52,29.52,0,0,1,247.5,185.17Z"/><path id="路径_4311" data-name="路径 4311" class="cls-34" d="M131.85,179.17h0s-.4-.34-.16-.14l.1.09,0,0h0S131.84,179.16,131.85,179.17Z"/><path id="路径_4312" data-name="路径 4312" class="cls-34" d="M68.36,105.73v0S68.38,105.76,68.36,105.73Z"/><path id="路径_4313" data-name="路径 4313" class="cls-34" d="M90.45,118.09l0,0C90.41,118,90.43,118.05,90.45,118.09Z"/><path id="路径_4314" data-name="路径 4314" class="cls-34" d="M104.61,164.31h0S104.58,164.26,104.61,164.31Z"/><path id="路径_4315" data-name="路径 4315" class="cls-36" d="M174.48,104.83q3.6.33,7.18.74c4.87.58,9.75,1.21,14.59,2-8.09-15.28-50-17.74-48.8-26.89.75-5.68,39.46-8.76,64.26-11.86-3.28,3-12.83,9.75-5.61,14.48,13.93,9.13,51.43,18.78,42.32,28-4.12,4.17-7.7,7.42-9,10.87,2.09.15,4.34.54,6.16.86,4.42-5,13.38-10.74,12.09-16.2-1.57-6.67-40.5-22.69-42-25.89-1.1-2.4,5.51-10.34,10.56-14.22,5.16-1.88-3.29-10.49-3.29-10.49s-5.38,6.24-21.75,8.12c-26.53,3-68.82.52-72,16C125.59,98.37,160.09,95.78,174.48,104.83Z"/><path id="路径_4316" data-name="路径 4316" class="cls-28" d="M272.46,160.62c-15.54-19-32.83-29.65-30.75-35.35s16.3-10.42,14.74-17.08S216.27,86.71,214.8,83.52c-1.1-2.4,8.85-10.47,13.9-14.36,5.17-1.87,8.39-4.28,8.46-7.47.16-7.19-8.22-15.8-20.2-23.13-15.72-9.61-37.62-17-54.59-16.16,0,0,68.85,18.45,59.93,35.75s-85.72.61-90.6,24.6c-4.14,20.36,40.08,14.52,49.58,28.57,1.77,2.62,3,6.45,1.28,8.43a24,24,0,0,1-11.79,5.35c-15.67,3-13.63-12-34.89-3.15s-24.23,3.46-32.4,5.38S88.62,145,88.62,145v7.3s10-20.24,17.46-20.5,18.19.9,26.73-3.32,13-7.55,20.8-3.39a32.36,32.36,0,0,0,24.82,2.42c-12.63,16.66-47.39,35-49.47,42.06a106.4,106.4,0,0,0-3.57,15.79l9.65,3.07s3.34-14.83,9.28-18.56,53.85-35.25,53.47-55.24-61.48-25.34-61.48-38.3c0-5.73,45.15.49,69.95-2.62-3.28,3-4.94,7.3,2.28,12,13.93,9.12,46.6,16.81,37.49,26s-15.46,14.55-.5,26.81a87.27,87.27,0,0,1,20.18,23.82c3.32,6.08-9.08,18-10.49,22-2.65,7.47-1.38,17.81-1.38,17.81l9.37,1.82s-4.44-12.85.41-18.66S282.77,173.21,272.46,160.62Z"/><path id="路径_4317" data-name="路径 4317" class="cls-28" d="M126.45,226l-4.77-7c-.64-7.28-8.2-10.4-13.72-10.81-6.81-.51-14.34-5.7-16.12,3.17-2,10.15,4.78,19.65,7.92,28,2.74,7.26,6.27,19.56,15.85,18.38a14.93,14.93,0,0,1,3.69-4.34c2.79-1.9,3.34-.32,5.83-1.4,3-1.3,4.6-2.06,5.49-5.6C132.06,240.6,131.46,228.94,126.45,226Z"/><path id="路径_4318" data-name="路径 4318" class="cls-37" d="M121.76,227.65l-3.57-5.08c-.47-5.29-6.12-7.55-10.25-7.85-3.18-.23-6.56-1.78-9-1.36-.9.15-4.4.1-5,1a8.22,8.22,0,0,0-.59,2.44c-1.52,7.36,2.28,12.47,4.63,18.51,1.12,2.89,4.28,10.05,6.41,12.92a8.74,8.74,0,0,0,4.86,3.2c.82.22,3.38-.63,4.36-.75a10.82,10.82,0,0,1,2.76-3.15c2.08-1.38,2.49-.23,4.36-1,2.22-.94,3.44-1.49,4.1-4.06C126,238.25,125.51,229.77,121.76,227.65Z"/><path id="路径_4319" data-name="路径 4319" class="cls-30" d="M117.63,228.37l-3.57-5.08c-.47-5.28-6.13-7.54-10.26-7.84-5.1-.38-10.72-4.14-12,2.3C90.23,225.11,95.32,232,97.67,238c2,5.26,4.68,14.19,11.85,13.34a10.85,10.85,0,0,1,2.77-3.15c2.08-1.38,2.5-.23,4.35-1,2.23-.94,3.44-1.49,4.11-4.06C121.83,239,121.38,230.5,117.63,228.37Z"/><path id="路径_4320" data-name="路径 4320" class="cls-28" d="M96.63,235.28c-3.51-5.29-10.85-7.93-11.81-13.54-2.23-14.21,1.28-28.41-1.27-43-2.55-15.85-9.26-38.31-28.4-38-.64-8.26,1-17.18-7.66-21.8-.94-6.8.88-14.68-1.51-20.87A130.39,130.39,0,0,0,97.47,268C101.81,257.18,103.23,245.84,96.63,235.28Z"/><path id="路径_4321" data-name="路径 4321" class="cls-38" d="M67.38,82.71c.52-5.14-.92-9.5-4.16-11.23-3.84-2-9.08.19-13.2,5.1-3.76-.56-8,2-10.25,6.53a14.29,14.29,0,0,0-1.2,3.53l-.42-.25c-3.15-1.68-7.5.57-9.7,5-1.74,3.5-1.63,7.32,0,9.61a12.32,12.32,0,0,0-7,6.38c-2.85,5.73-1.38,12.39,3.27,14.86a6.29,6.29,0,0,0,.92.41l0,.06c-4.09,8.25-3.5,17,1.32,19.57,4.37,2.32,10.7-1.24,14.89-8.05Z"/><path id="路径_4322" data-name="路径 4322" class="cls-33" d="M142.18,66.06s-16.54,10.1,9.06,18.64S207.3,76.26,221,81.37,251.64,65,240.08,59.62s-44.8-32.56-56.41-30"/></g></g></g></g></g><path id="路径_4323" data-name="路径 4323" class="cls-39" d="M187.82,248.57c1.91,3.3,4.78,5.29,7.34,7.27-2.23-3.33-3.88-7.65-3.62-11.43a27.78,27.78,0,0,0-4.5,3.44C187.44,248.09,187.82,248.41,187.82,248.57Z"/><path id="路径_4324" data-name="路径 4324" class="cls-39" d="M186.23,258.16c1-1,1.91,0,2.87,0a11.31,11.31,0,0,1-3.21-9.22c-.24.23-.47.47-.72.7-1.7,1.72-3.35,3.51-5,5.37,2,1.5,4.33,3.74,6.36,4.79C186.54,259.15,186.87,258.49,186.23,258.16Z"/><path id="路径_4325" data-name="路径 4325" class="cls-39" d="M197.56,242.28l-.79.14a1.48,1.48,0,0,1,0,.21A3.35,3.35,0,0,0,197.56,242.28Z"/><path id="路径_4326" data-name="路径 4326" class="cls-39" d="M200,245.27c1.27-.33,1-1.65,1.91-2.31,0,5.61,2.56,10.24,5.1,14.87.27-5.25-.35-10.73,0-16-.91.06-1.93.08-3.11.09-1.44,0-2.73,0-3.93.13A17.86,17.86,0,0,0,200,245.27Z"/><path id="路径_4327" data-name="路径 4327" class="cls-39" d="M211.2,240.92a10.66,10.66,0,0,1-2.07.6,6.58,6.58,0,0,0,1.35,2.44C211,243.12,210.88,241.58,211.2,240.92Z"/><path id="路径_4328" data-name="路径 4328" class="cls-39" d="M264.7,227.14c.14-3.26.36-6.52.64-9.77-.24-.24-.49-.47-.74-.7C264.87,220.16,264.51,223.65,264.7,227.14Z"/><path id="路径_4329" data-name="路径 4329" class="cls-40" d="M264.6,216.67l-.81-.72-.2-.16c-.84,1.47-.56,3.57-2.37,4.38a26.36,26.36,0,0,1,.24-6l-.67-.46c-.5.16-.81-.16-1.05-.66a20.35,20.35,0,0,0-3.85-1.78c-1.52,1.67-1.42,4.89-2.65,6.93.3-2.84-1.43-5.38-2.14-7.91l-.56,0a7.93,7.93,0,0,0-1.77,3,14.94,14.94,0,0,0-.84-3.08h-.14a20.7,20.7,0,0,0-2.48.19c-1,2.57.16,5.91,1.55,8.5-2.21-2.61-3.49-5.55-6.3-7.21l-.09,0c-.06.92-.94,1.27-.63,2.22a7,7,0,0,0-1.33-1.27,24.91,24.91,0,0,0-3.3,2.15,19.44,19.44,0,0,0,4,13.33c-3.51-2.32-5.75-6.61-9.25-7.93l-.27-.13-1.24,1.44a16.57,16.57,0,0,1,.23,2.32,9.92,9.92,0,0,0-1.88-.28c-.51.64-1,1.3-1.51,2a17.81,17.81,0,0,0,4.34,6.26c-2.65-.3-4.48-2.86-7-2.73-.63.83-1.25,1.65-1.88,2.46a31.1,31.1,0,0,0,2.2,3.57c-1.28-.66-2.56-2.31-3.84-1.32-.31,0,0,1.32,0,2a11.51,11.51,0,0,0-1.43-.5c-.75.86-1.41,1.62-2,2.27a17.22,17.22,0,0,1,.9,6.16c-1-1.62-2.52-3.47-4.07-3.35a9.54,9.54,0,0,1-1.27.66c-.32.66-.18,2.2-.72,3a6.47,6.47,0,0,1-1.35-2.43,19.88,19.88,0,0,1-2.16.26c-.35,5.32.27,10.8,0,16-2.55-4.63-5.1-9.25-5.1-14.87-1,.66-.64,2-1.91,2.32a17.12,17.12,0,0,1,0-3.28,23.36,23.36,0,0,0-2.37.28,2.71,2.71,0,0,1-.8.35,1.27,1.27,0,0,1,0-.2,16.53,16.53,0,0,0-5.22,2c-.27,3.78,1.38,8.1,3.61,11.43-2.55-2-5.42-4-7.34-7.26,0-.16-.38-.49-.78-.73-.38.35-.76.71-1.15,1.1a11.29,11.29,0,0,0,3.21,9.21c-1,0-1.92-1-2.87,0,.63.32.31,1,.31,1.65-2-1.05-4.31-3.3-6.35-4.79-1.52,1.72-3,3.49-4.5,5.27,1.64,3.4,5.14,7,6.71,10.42-2.88-.32-4.47-3.3-7.34-3.63v1c-1.6-.33-2.24-2-3.83-2.32,0,2-.64,3.64-.33,5.63a4.69,4.69,0,0,1-2.48-2.4c-1,1.16-2,2.29-3,3.41l-.24.27c.49,3.3,1.8,6.92,2.2,10.27-2.47-1.7-4.69-3.15-6.29-5.62A77.13,77.13,0,0,0,156,284c.37,0,2.21,2.23,2.21,2.23a9.94,9.94,0,0,1,3.56-.82c.16,0,1.52-.15,1.68-.15,38.24-.14,71.94-18,95.57-44.6a65.39,65.39,0,0,1,5.41-5q.06-4.26.24-8.54C264.51,223.65,264.87,220.16,264.6,216.67Z"/><path id="路径_4330" data-name="路径 4330" class="cls-39" d="M271.33,224.44a44.94,44.94,0,0,0-6-7.07q-.44,4.88-.65,9.77l0,.63,0-.63q-.19,4.26-.25,8.54c3.68-3.13,7.67-6.27,7.67-6.27S271.52,225.67,271.33,224.44Z"/><path id="路径_4331" data-name="路径 4331" class="cls-39" d="M167.4,282.93c-.41-3.35-1.71-7-2.2-10.28-1.42,1.58-2.78,3.12-4.08,4.66C162.71,279.77,164.94,281.23,167.4,282.93Z"/><path id="路径_4332" data-name="路径 4332" class="cls-39" d="M170.91,271.37c-.32-2,.32-3.64.32-5.62,1.6.33,2.24,2,3.83,2.31v-1c2.88.32,4.47,3.3,7.34,3.63-1.57-3.45-5.06-7-6.71-10.42-2.41,2.9-4.82,5.83-7.27,8.69A4.71,4.71,0,0,0,170.91,271.37Z"/><path id="路径_4333" data-name="路径 4333" class="cls-39" d="M246.86,218.85c-1.39-2.6-2.53-5.94-1.54-8.5a19.3,19.3,0,0,0-4.76,1.29C243.37,213.3,244.65,216.23,246.86,218.85Z"/><path id="路径_4334" data-name="路径 4334" class="cls-39" d="M239.84,213.89c-.31-.95.57-1.3.63-2.22a20.8,20.8,0,0,0-2,1A6.68,6.68,0,0,1,239.84,213.89Z"/><path id="路径_4335" data-name="路径 4335" class="cls-39" d="M260.78,213.69c-.34-.23-.7-.45-1-.66C260,213.53,260.28,213.85,260.78,213.69Z"/><path id="路径_4336" data-name="路径 4336" class="cls-39" d="M261.22,220.17c1.81-.8,1.53-2.9,2.37-4.38-.72-.6-1.43-1.14-2.13-1.64A26.36,26.36,0,0,0,261.22,220.17Z"/><path id="路径_4337" data-name="路径 4337" class="cls-39" d="M250.54,210.23c-.83-.06-1.7-.08-2.61-.07a15.53,15.53,0,0,1,.85,3.07A7.86,7.86,0,0,1,250.54,210.23Z"/><path id="路径_4338" data-name="路径 4338" class="cls-39" d="M253.24,218.19c1.23-2.05,1.14-5.27,2.65-6.94a21.12,21.12,0,0,0-4.79-1C251.81,212.8,253.55,215.34,253.24,218.19Z"/><path id="路径_4339" data-name="路径 4339" class="cls-39" d="M229.62,231.73a17.9,17.9,0,0,1-4.34-6.26c-.9,1.17-1.78,2.36-2.67,3.53C225.14,228.87,227,231.42,229.62,231.73Z"/><path id="路径_4340" data-name="路径 4340" class="cls-39" d="M216.54,243.62a17.18,17.18,0,0,0-.9-6.16,16,16,0,0,1-3.17,2.8C214,240.15,215.5,242,216.54,243.62Z"/><path id="路径_4341" data-name="路径 4341" class="cls-39" d="M239.2,228.1a19.4,19.4,0,0,1-4-13.34,40,40,0,0,0-5.53,5.27l.26.13C233.46,221.49,235.69,225.78,239.2,228.1Z"/><path id="路径_4342" data-name="路径 4342" class="cls-39" d="M219.09,233.71c1.28-1,2.56.66,3.84,1.32a31.1,31.1,0,0,1-2.2-3.57c-.89,1.13-1.78,2.24-2.69,3.29-.13.15-.25.3-.38.44a10.08,10.08,0,0,1,1.43.5C219.09,235,218.78,233.71,219.09,233.71Z"/><path id="路径_4343" data-name="路径 4343" class="cls-39" d="M228.44,221.48c-.55.67-1.1,1.35-1.64,2a9.82,9.82,0,0,1,1.87.28A16.57,16.57,0,0,0,228.44,221.48Z"/><path id="路径_4344" data-name="路径 4344" class="cls-41" d="M66.56,233.38c-1.92-4-5.43-6.94-8.3-10.57-5.43-6.94-1.28-13.54,3.19-19.49,1.28-1.65-1-4-1-5.94a64.18,64.18,0,0,0-4.15-21.8c-1-3.3,1-7.27-1-9.91-2.4-3.49-7.54-5.48-9.37-9.22A8.86,8.86,0,0,1,44.2,156a8.24,8.24,0,0,1-5.43-6.27c0-.17-.08-.34-.11-.5a53.9,53.9,0,0,0,1.09,6.55c0,.33,1.6.33,1.28,3.3,0,1.32,1.91-.33,1.27,2.31,1.92.33,4.47-1,5.11.66,1,4,0,8.26.64,12.22,0,.66,1.6.66,1.6.66,2.87,7.27-2.56,19.5,7.33,22.47,1.28.33-1.91,3-1.91,5.28-.64,0-1.28-.33-1.59,0-1,1.65-1.6,2.64-1.28,4.63h-1c-1,5.28,1.6,9.24,3.83,13.87.32,1.32-.32,3,.32,4,1,1.32,2.24,2,2.24,5.29,0,.66.95,1.32,1.27,2.31a28.37,28.37,0,0,0,.78,3.18q3.7,4.6,7.82,8.83C68,240.85,68.17,237,66.56,233.38Z"/><path id="路径_4345" data-name="路径 4345" class="cls-42" d="M75.47,238.56a103.68,103.68,0,0,1-6.7-9.91,41.65,41.65,0,0,0-8.62-9.91,5.93,5.93,0,0,1-.64-5.62c1-2.64,5.43-1.65,5.75-3,2.23-15.2,3.82-31.05-3.51-44.92-1.6-3.3-3.51-7.27-7-8.26-2.9-.82-5.8-.06-8.7-.52,1.83,3.74,7,5.73,9.36,9.21,1.92,2.64,0,6.61,1,9.91a64.47,64.47,0,0,1,4.15,21.8c0,2,2.23,4.3,1,5.95-4.47,5.94-8.62,12.55-3.19,19.49,2.87,3.63,6.37,6.6,8.3,10.57,1.61,3.61,1.41,7.46.93,11.35.18.19.37.4.56.58a27.9,27.9,0,0,1,5.83,1.5C76.11,247.48,76.75,240.54,75.47,238.56Z"/><path id="路径_4346" data-name="路径 4346" class="cls-43" d="M57.62,230.41c0-3.3-1.28-4-2.23-5.29-.64-1,0-2.64-.33-4-2.23-4.62-4.78-8.59-3.82-13.87h.95c-.32-2,.32-3,1.28-4.63.32-.33,1,0,1.59,0,0-2.31,3.2-4.95,1.92-5.28-9.89-3-4.47-15.2-7.34-22.47,0,0-1.6,0-1.6-.66-.64-4,.32-8.26-.64-12.22-.64-1.65-3.19-.33-5.1-.66.63-2.64-1.28-1-1.28-2.31.32-3-1.28-3-1.28-3.3a53.9,53.9,0,0,1-1.09-6.55c-3-13,.11-25.1-.2-37.82,0-.47,0-1-.05-1.42-.53,1.49-1,3-1.53,4.5a130.86,130.86,0,0,0,22.8,121.44,26.93,26.93,0,0,1-.77-3.19C58.58,231.73,57.62,231.07,57.62,230.41Z"/><g id="组_1848" data-name="组 1848"><path id="路径_4347" data-name="路径 4347" class="cls-39" d="M42.41,136.16c-2.08,0-4.06-.14-5.22-1.66a67.73,67.73,0,0,0,.2,8.31c1.62-1.17,3.37-2.25,5.06-3.32C42.42,138.38,42.41,137.27,42.41,136.16Z"/><path id="路径_4348" data-name="路径 4348" class="cls-39" d="M72.7,235.92c2.18,0,4.39.24,6.61.45a42.54,42.54,0,0,0-4.45-7c-1.61.7-3.2,1.46-4.75,2.19C71,233.1,71.76,234.47,72.7,235.92Z"/><path id="路径_4349" data-name="路径 4349" class="cls-39" d="M71.8,244.86c-1.21.06-2.3.67-3.75.46.86.47,5,2.92,5,2.92l1.62-.3A17.61,17.61,0,0,1,71.8,244.86Z"/><path id="路径_4350" data-name="路径 4350" class="cls-39" d="M81.08,241.23a18.09,18.09,0,0,0-6-1.37,6.7,6.7,0,0,1,.18,1.19c.83.2,1.71.54,2.52.81,1.17.61,2.08,1.49,3.2,1.63A6.59,6.59,0,0,0,81.08,241.23Z"/><path id="路径_4351" data-name="路径 4351" class="cls-39" d="M41.93,116.4c-1.21.12-2.45.31-3.69.45-.06,2.23-.2,4.43-.36,6.61a47,47,0,0,0,4.67-1.35A41.89,41.89,0,0,0,41.93,116.4Z"/><path id="路径_4352" data-name="路径 4352" class="cls-39" d="M42.46,130.93l.06-3.3c-1.65,0-3.3,0-4.94-.12-.13,1.77-.25,3.55-.33,5.33.87-.44,2.38-.87,3.22-1.3A7,7,0,0,1,42.46,130.93Z"/><path id="路径_4353" data-name="路径 4353" class="cls-39" d="M41.36,113.58c-.26-1.14-.57-2.34-1-3.6a15.14,15.14,0,0,0-2,0s-.12,1.8-.12,2.27,0,1.15,0,1.71C39.3,113.83,40.33,113.69,41.36,113.58Z"/><path id="路径_4354" data-name="路径 4354" class="cls-39" d="M71.89,199.31a18.64,18.64,0,0,1-5.51-.59c0,.08,0,.17,0,.25-.33,3.42-.78,6.87-1.3,10.36a15.49,15.49,0,0,0,3.17-.49c2.55-.66-1-1.32-1-3a19.17,19.17,0,0,0,3.54-.38A43.06,43.06,0,0,0,71.89,199.31Z"/><path id="路径_4355" data-name="路径 4355" class="cls-39" d="M66.62,195.61c2.07-.25,4.18,0,5.6-.73,0-.51,0-1,0-1.54-1.17-.23-2.79-.43-2.44-1.35s1.4-.82,2.46-.82c0-.65,0-1.3,0-1.95a35.75,35.75,0,0,1-5.47-.38C66.83,191.09,66.76,193.34,66.62,195.61Z"/><path id="路径_4356" data-name="路径 4356" class="cls-39" d="M43.93,148.65c-1.72.7-3.46,1.37-5.2,2a8.7,8.7,0,0,0,4.57,5.18A11.24,11.24,0,0,1,47.74,150h0A16.41,16.41,0,0,1,43.93,148.65Z"/><path id="路径_4357" data-name="路径 4357" class="cls-39" d="M65,214.89l.12-.08a10,10,0,0,0,2.41-2.21,34.33,34.33,0,0,0-6-1.42,3.51,3.51,0,0,0-2.24,2,5.62,5.62,0,0,0-.29,1,7.2,7.2,0,0,0,.65,5,16.32,16.32,0,0,1,5.89-1.22A5.64,5.64,0,0,1,65,214.89Z"/><path id="路径_4358" data-name="路径 4358" class="cls-39" d="M70.69,224c-.27-.35-.57-.69-.88-1a21.49,21.49,0,0,1-4.24,2,36.08,36.08,0,0,1,2.35,3,28.42,28.42,0,0,1,3.72-2.76Z"/><path id="路径_4359" data-name="路径 4359" class="cls-39" d="M50,154.33c1,0,1.91,0,2.23-1,0,1-1,3-.63,3,2.78.44,4.13-1.79,5.77-3.8A13.68,13.68,0,0,0,52.58,151C51.68,152.07,50.48,153,50,154.33Z"/><path id="路径_4360" data-name="路径 4360" class="cls-39" d="M63.59,158.27c-.48.19-1,.4-1.42.64a4.42,4.42,0,0,0-1.28,2.69,12.46,12.46,0,0,0,4-1.49C64.5,159.48,64.05,158.86,63.59,158.27Z"/><path id="路径_4361" data-name="路径 4361" class="cls-39" d="M61.17,164.75l.3.6c.28.53.54,1.07.79,1.62l.3.64a40.62,40.62,0,0,0,3.73-5.38q-.26-.45-.54-.87c-.33.2-.68.39-1,.57C63.54,162.88,62.3,163.78,61.17,164.75Z"/><path id="路径_4362" data-name="路径 4362" class="cls-39" d="M64.21,172.1c1.59-1.67,3-3.63,4.87-4.27l-.26-.62a40.93,40.93,0,0,0-4.94,3.88C64,171.42,64.11,171.76,64.21,172.1Z"/><path id="路径_4363" data-name="路径 4363" class="cls-39" d="M65.16,175.57c1.71-1.38,3.5-2.63,5.21-4-.18-.65-.4-1.31-.63-2-1.72,1.46-3.41,2.9-5,4.45C64.91,174.54,65,175.06,65.16,175.57Z"/><path id="路径_4364" data-name="路径 4364" class="cls-39" d="M66.67,185.72c1.79-.64,3.59-1.22,5.35-1.89q-.09-1.49-.21-2.85c-1.88,0-3.76,0-5.64-.12C66.41,182.48,66.57,184.1,66.67,185.72Z"/></g><g id="组_1849" data-name="组 1849"><path id="路径_4365" data-name="路径 4365" class="cls-40" d="M42.57,142.6c-.06-1-.1-2.07-.12-3.11-1.7,1.07-3.44,2.15-5.06,3.32a49.88,49.88,0,0,0,1.18,7.29c0,.2.1.39.16.58,1.74-.66,3.48-1.33,5.2-2C42.64,147.79,42.81,146.5,42.57,142.6Z"/><path id="路径_4366" data-name="路径 4366" class="cls-40" d="M42.41,136.16c0-1.74,0-3.49.05-5.23a7.29,7.29,0,0,0-2,.61c-.84.43-2.35.86-3.22,1.3l-.06,1.67C38.35,136,40.33,136.15,42.41,136.16Z"/><path id="路径_4367" data-name="路径 4367" class="cls-40" d="M41.36,113.57c-1,.11-2.06.26-3.07.44,0,.95,0,1.9,0,2.84,1.24-.14,2.48-.33,3.68-.46Q41.71,115.07,41.36,113.57Z"/><path id="路径_4368" data-name="路径 4368" class="cls-40" d="M74.59,238.58a4.29,4.29,0,0,1,.51,1.28,18.09,18.09,0,0,1,6,1.37,8.43,8.43,0,0,0-.44-1.78,32.3,32.3,0,0,0-1.33-3.09c-2.22-.2-4.43-.43-6.61-.44C73.25,236.76,73.86,237.63,74.59,238.58Z"/><path id="路径_4369" data-name="路径 4369" class="cls-40" d="M75.28,241.05c.16,2.14-.52,4.5-2.07,4a3.39,3.39,0,0,0-1.41-.22,17.14,17.14,0,0,0,2.83,3.07l1.38-.27c2,.28,4.4-1.38,5-4.16-1.12-.15-2-1-3.2-1.63A23.91,23.91,0,0,0,75.28,241.05Z"/><path id="路径_4370" data-name="路径 4370" class="cls-40" d="M42.57,123.08c0-.3,0-.63,0-1q-2.31.8-4.67,1.35l-.3,4.05c1.63.08,3.29.1,4.94.12C42.55,126.11,42.57,124.59,42.57,123.08Z"/><path id="路径_4371" data-name="路径 4371" class="cls-40" d="M72.22,194.87c-1.42.69-3.53.48-5.6.74-.07,1-.15,2.06-.24,3.1a18.57,18.57,0,0,0,5.51.59C72.05,197.85,72.15,196.36,72.22,194.87Z"/><path id="路径_4372" data-name="路径 4372" class="cls-40" d="M68.23,208.83a14.83,14.83,0,0,1-3.17.49c0,.1,0,.2,0,.3-.2.81-1.94,1-3.48,1.56a34.33,34.33,0,0,1,6,1.42,19.39,19.39,0,0,0,3.26-7.12,20.07,20.07,0,0,1-3.54.38C67.27,207.51,70.78,208.17,68.23,208.83Z"/><path id="路径_4373" data-name="路径 4373" class="cls-40" d="M72.28,191.16c-1,0-2,0-2.46.83s1.27,1.12,2.44,1.35C72.28,192.61,72.29,191.89,72.28,191.16Z"/><path id="路径_4374" data-name="路径 4374" class="cls-40" d="M71.64,225.24A28.48,28.48,0,0,0,67.93,228c.3.44.58.88.86,1.32.49.8.92,1.53,1.32,2.22,1.56-.73,3.14-1.49,4.75-2.19C73.84,228,72.76,226.65,71.64,225.24Z"/><path id="路径_4375" data-name="路径 4375" class="cls-40" d="M65.55,217.89a16.54,16.54,0,0,0-5.89,1.22,3.15,3.15,0,0,0,.19.27A52.07,52.07,0,0,1,65.57,225a21.49,21.49,0,0,0,4.24-2C68.28,221.34,66.45,219.81,65.55,217.89Z"/><path id="路径_4376" data-name="路径 4376" class="cls-40" d="M64.72,161.93c.35-.18.7-.37,1-.57-.27-.42-.54-.84-.82-1.25a12.46,12.46,0,0,1-4,1.49,4.37,4.37,0,0,1,1.28-2.69c-.85.42-1.69.9-2.53,1.4a28.92,28.92,0,0,1,4-2,28.62,28.62,0,0,0-4.12-4.33l-.74-.58a14.11,14.11,0,0,0-1.32-.85c-1.65,2-3,4.25-5.78,3.8-.32,0,.64-2,.64-3-.32,1-1.28,1-2.23,1,.44-1.36,1.63-2.26,2.54-3.33l-1.44-.23c-1.18,1.09-.63.48-.07,0a23.94,23.94,0,0,1-3.34-.72,11.21,11.21,0,0,0-4.44,5.81,10.18,10.18,0,0,0,1.18.5l.24.08.73-.59-.73.59c3.4,1.19,6.27.3,9.7,1.26a8.42,8.42,0,0,1,4.37,3.13l.8-.48-.8.48a22.17,22.17,0,0,1,2.39,3.93C62.31,163.77,63.54,162.88,64.72,161.93ZM47.86,153.7l-.74.67.74-.67Zm-1.66,1.5-.55.47c.19-.15.37-.31.55-.47Z"/><path id="路径_4377" data-name="路径 4377" class="cls-40" d="M64.21,172.1c.2.64.38,1.29.56,1.93,1.56-1.55,3.25-3,5-4.45q-.3-.87-.66-1.74C67.22,168.48,65.8,170.44,64.21,172.1Z"/><path id="路径_4378" data-name="路径 4378" class="cls-40" d="M63,168.58c.34.83.65,1.67.92,2.51a43,43,0,0,1,4.94-3.88.61.61,0,0,1,0-.12,41.77,41.77,0,0,0-2.48-4.85,41.59,41.59,0,0,1-3.73,5.38Z"/><path id="路径_4379" data-name="路径 4379" class="cls-40" d="M65.36,176.38c.33,1.49.6,3,.82,4.48,1.87.1,3.75.12,5.63.12-.15-1.78-.32-3.38-.47-4.7a28.36,28.36,0,0,0-1-4.73c-1.72,1.39-3.5,2.64-5.21,4C65.23,175.84,65.3,176.11,65.36,176.38Z"/><path id="路径_4380" data-name="路径 4380" class="cls-40" d="M66.79,188.84a35.75,35.75,0,0,0,5.47.38c0-1.87-.12-3.68-.24-5.39-1.76.67-3.56,1.25-5.35,1.89C66.73,186.75,66.77,187.8,66.79,188.84Z"/></g><path id="路径_4381" data-name="路径 4381" class="cls-44" d="M139.62,171c-1.87-.15-2.49.5-3.81-1.16-1.11-1.41-1.1-1.77-3.17-1.89-.22-.61-1.39-2-2-1l-.43-.13c-1.63,1.12-1.62,4.8-1.52,6.51,1.53-.21,2.22-1.18,3.18.57.39.72.32,1.37,1.14,1.9s1.5.23,2.24.43c.28.06,1.08.51,1.19.52C138.52,177,139.72,172.83,139.62,171Z"/><path id="路径_4382" data-name="路径 4382" class="cls-44" d="M100.9,132c-.5-.4-.83-.26-.81-1.16s.11-.91-.45-1.34c.08-.28.09-1.07-.33-.77l-.09-.13c-.73.14-1.61,1.61-2,2.31.49.2.92-.06.78.81-.06.36-.24.61-.13,1s.37.37.54.58.18.4.21.43C99.15,134.14,100.49,132.7,100.9,132Z"/><path id="路径_4383" data-name="路径 4383" class="cls-44" d="M261.52,186.81c-1.14-.09-1.52.3-2.32-.68-.68-.83-.68-1-1.94-1.11-.13-.36-.84-1.2-1.21-.6l-.25-.08c-1,.66-1,2.83-.93,3.84.93-.13,1.35-.7,1.94.33.23.42.19.81.69,1.12s.91.13,1.37.25c.16,0,.64.3.72.31C260.85,190.35,261.58,187.9,261.52,186.81Z"/><path id="路径_4384" data-name="路径 4384" class="cls-44" d="M124,179.58s-7.94-.42-6.18,4.63,14.39,4,14.39,4-12.12-1.22-12.87-4.92S124,179.58,124,179.58Z"/><path id="路径_4385" data-name="路径 4385" class="cls-44" d="M137.24,187.2s3.83,4.44-2.52,5.05a26.35,26.35,0,0,1-12.12-2.05s10,1.94,13.28,0C138.2,188.83,137.24,187.2,137.24,187.2Z"/><g id="组_1852" data-name="组 1852"><g id="组_1850" data-name="组 1850"><path id="路径_4386" data-name="路径 4386" class="cls-2" d="M267.85,85,333,94.27,287.75,142.2Z"/><path id="路径_4388" data-name="路径 4388" class="cls-4" d="M308.19,90.74l6.14,4.6-8.94,8.6L333,94.28Z"/><path id="路径_4389" data-name="路径 4389" class="cls-5" d="M314,104.25l-8.58-.32L333,94.26,308.79,119.9Z"/></g><path id="路径_4390" data-name="路径 4390" class="cls-45" d="M301,91.35l-3.24-2.09L267.85,85l10,28.6Z"/><path id="路径_4390-2" data-name="路径 4390-2" class="cls-46" d="M301.86,94.32l-3.24-2.09L268.7,88l10,28.6Z"/><g id="组_1851" data-name="组 1851"><path id="路径_4391" data-name="路径 4391" class="cls-2" d="M250.29,56.68l45.76,9.56L277.47,109Z"/><path id="路径_4392" data-name="路径 4392" class="cls-3" d="M296.05,66.24l-32.17,16.6L250.29,56.68Z"/><path id="路径_4393" data-name="路径 4393" class="cls-4" d="M278.63,62.6l5.22,4.28L280,74.54l16.09-8.3Z"/><path id="路径_4394" data-name="路径 4394" class="cls-5" d="M285.78,75,280,74.54l16.09-8.3L286.11,89.1Z"/></g></g><g id="组_1853" data-name="组 1853"><path id="路径_4395" data-name="路径 4395" class="cls-4" d="M309.55,138.56c1.4,1.8,3.22,2.71,4.86,2.21,1.93-.6,3-3,2.94-5.9a4.92,4.92,0,0,0,1.49-5.39,5.94,5.94,0,0,0-.67-1.5l.22-.06c1.59-.49,2.38-2.61,1.77-4.73a4,4,0,0,0-3-3,5.56,5.56,0,0,0,.44-4.3c-.78-2.74-3.33-4.37-5.67-3.65a3.34,3.34,0,0,0-.44.17s0,0,0,0c-1.14-3.93-4-6.52-6.46-5.77-2.2.68-3.26,3.86-2.6,7.38Z"/></g><g id="组_1854" data-name="组 1854"><path id="路径_4397" data-name="路径 4397" class="cls-47" d="M275,69.63c1.65,1.26,3.38,1.65,4.53.85,1.35-1,1.5-3.3.55-5.81a4.74,4.74,0,0,0-.45-5.05,6.08,6.08,0,0,0-1-1.16l.16-.1c1.11-.79,1.1-2.81,0-4.54a3.81,3.81,0,0,0-3.27-2,5.68,5.68,0,0,0-.95-3.86c-1.46-2.21-4-3.07-5.62-1.91l-.3.24v0c-2.09-3.19-5.17-4.8-6.87-3.6-1.54,1.08-1.43,4.1.16,7Z"/><path id="路径_4397-2" data-name="路径 4397-2" class="cls-4" d="M278,70.28c1.66,1.25,3.39,1.65,4.53.84,1.36-1,1.51-3.3.56-5.81a4.75,4.75,0,0,0-.45-5,6.53,6.53,0,0,0-1-1.17l.16-.1c1.11-.78,1.1-2.81,0-4.53a3.84,3.84,0,0,0-3.27-2,5.63,5.63,0,0,0-1-3.86c-1.45-2.22-4-3.08-5.61-1.92a1.76,1.76,0,0,0-.3.24v0c-2.1-3.19-5.17-4.8-6.88-3.6-1.54,1.08-1.42,4.1.16,7Z"/></g><path id="路径_4399" data-name="路径 4399" class="cls-48" d="M121.43,74.61c-.23-3-4.68-1.79-7-1.79a61.88,61.88,0,0,0-9,.54c-.75.1-3.23.71-4,.21-1.49-1-.12-3.22-.87-4.59-1-1.75-3.7-1.15-5.25-1.15a55.77,55.77,0,0,0-8.56.63c-1.41.21-4,.58-5.14-.34-.64-.5-.53-1.17-1.12-1.64a6.78,6.78,0,0,0-2.42-.92,21.57,21.57,0,0,0-5-.23l-1.3-.77c-3.13,2.86-4.67,4.72-4.44,9.2,2.68-.52,1.2.93,1.87,2.67,1.12,2.93,4.72.45,6.78,0,2.55-.5,9.76-.68,9,3.47-.32,1.7-1.77,3.83-.9,5.92,1.25,3,5.32,1.67,7.4,2.74,1.47.75.07,2.58,1.71,3.51,1.82,1,6.34.18,8.19-.38,4-1.22,7.36-4.54,10.64-7.12C114.6,82.58,121.74,78.86,121.43,74.61Z"/><path id="路径_4400" data-name="路径 4400" class="cls-48" d="M93.72,98.39C93,97.2,91.57,97,90.38,96.86c-2.71-.27-7.45,1.65-7.27-2.28-2.19-.24-4.28,2.49-5.28,4.5a5.77,5.77,0,0,0-3.06,1.39c-.66.62-2.1,1.6-1.86,2.73.28,1.3,2.13.74,3.33.8-.24,1.43-.62,1.46.58,2.09s3.08.2,4.27.19c3.92,0,6.69-2.84,10.08-4.56C92.75,100.93,95,100.57,93.72,98.39Z"/><g id="组_1855" data-name="组 1855"><path id="路径_4401" data-name="路径 4401" class="cls-49" d="M261.52,218.51c-1.3-2.27-5.55-3-8.73-4.3s-4.15,0-4.15,0l-2.2,3.3s-1.47-3.3-3.67-3.3-4.4,2.54-4.4,2.54L234.94,219l1.47,6.83-3.91-4.56a38.3,38.3,0,0,0-3.18,4.31c-1.23,2-6.12,7.59-8.56,10.38s-3.92,8.88-3.92,8.88a47.84,47.84,0,0,1-5.13,1.5,15.49,15.49,0,0,1-6.36,0v10.12l-2.45-10.12h-6.11c-2.94,0-5.14,2.7-5.14,2.7l1,4.9a9.13,9.13,0,0,0-4.16,0c-2.44.5-8.56,9.11-8.56,9.11v3.58a10.52,10.52,0,0,0-6.36,2.49c-2.65,2.29-13.3,14.71-15.32,17.08a119.24,119.24,0,0,0,53.33-9.43c22.24-9.83,29-15.79,36.07-21.39,18.87-14.92,24.48-26,24.48-26S262.82,220.79,261.52,218.51Z"/></g><path id="路径_4402" data-name="路径 4402" class="cls-38" d="M225.52,56.35c3.42-.65,5.86-2.3,6.16-4.54.35-2.64-2.39-5.34-6.56-6.87-.58-2.33-3.28-4.37-6.74-4.86a10,10,0,0,0-2.56-.06c0-.1,0-.2.05-.3.29-2.18-2.23-4.34-5.63-4.82-2.68-.38-5.11.39-6.16,1.8a9.49,9.49,0,0,0-5.84-3c-4.39-.62-8.29,1.47-8.72,4.69,0,.2,0,.41,0,.62h0c-6.31-.9-11.78,1.07-12.22,4.4-.4,3,3.46,6.1,8.86,7.32Z"/><g id="组_1856" data-name="组 1856"><path id="路径_4403" data-name="路径 4403" class="cls-47" d="M234,35.22c3.66-.79,6.4-2.94,7-5.9.66-3.5-1.9-7.14-6.1-9.26a7.93,7.93,0,0,0-6.51-6.58,8.84,8.84,0,0,0-2.67-.13c0-.13.07-.26.1-.39.54-2.88-1.86-5.79-5.36-6.5a6.4,6.4,0,0,0-6.63,2.26A8.7,8.7,0,0,0,208,4.63a8,8,0,0,0-9.61,5.92h0l0,.13a7.35,7.35,0,0,0-.11.82h-.05c-6.49-1.32-12.43,1.19-13.26,5.59-.76,4,2.93,8.17,8.45,9.9Z"/><path id="路径_4404" data-name="路径 4404" class="cls-50" d="M231.84,30.47c3.5-.75,6.11-2.8,6.65-5.64.64-3.36-1.81-6.83-5.83-8.85a7.57,7.57,0,0,0-6.22-6.3,8.14,8.14,0,0,0-2.56-.13,2.49,2.49,0,0,0,.09-.37c.53-2.76-1.77-5.55-5.11-6.23a6.15,6.15,0,0,0-6.35,2.16A8.35,8.35,0,0,0,207,1.21a7.63,7.63,0,0,0-9.19,5.66l0,.12a6.82,6.82,0,0,0-.1.79h0c-6.22-1.26-11.89,1.13-12.7,5.35-.72,3.81,2.8,7.81,8.09,9.47Z"/></g><g id="组_1859" data-name="组 1859"><path id="路径_4405" data-name="路径 4405" class="cls-16" d="M185.64,278.43a4,4,0,0,1,2.22-2.61c1.31-.68,3.84.08,4.26,1.57.92-3.31,4.18-1.31,6.27-.83a1.76,1.76,0,0,1,1.05-2.21c4.89,1.08,2.9-2.09,5.78-5,0-.26.6-.42,1.14-.6a6.53,6.53,0,0,1,3,.78c-.28-3.27,2.8-3.58,5-2.8.15-1.32.06-2.94.86-3.38,1.3-.39,2.28,0,3.61-1,.77-.2,2,.69,2.27.17,1.94-2.28,4.45-5.88,7.69-3.74a5.7,5.7,0,0,1,1,1.33c1.55-3.22,3.91-5.65,7.74-4.85a2.76,2.76,0,0,1,1.52.92v-.47a3.88,3.88,0,0,0-7.64-.74,7.05,7.05,0,0,0-1.52-.14,7.24,7.24,0,0,0-6.16,3.54,5.34,5.34,0,0,0-3.19-1.38,5.13,5.13,0,0,0-5.06,3.2,4.47,4.47,0,0,0-1.74-.61c-2.6-.33-5,1.78-5.39,4.82,0,0,0,.06,0,.09a5.21,5.21,0,0,0-1-.25,5.81,5.81,0,0,0-6.77,4.6,6.07,6.07,0,0,0-.1,1.47l-.11,0a3.68,3.68,0,0,0-3.53,1,5.3,5.3,0,0,0-4.16,1.78,4.26,4.26,0,0,0-1.23-.6,3.32,3.32,0,0,0-4.27,1.89c0,.06,0,.13-.05.19a5.3,5.3,0,0,0-2.39-1.7,4.82,4.82,0,0,0-6.19,2.77,4.68,4.68,0,0,0-.15,2.72l.85-1.38C180.73,274.74,184.25,275.75,185.64,278.43Z"/><path id="路径_4406" data-name="路径 4406" class="cls-16" d="M226.75,267.14a3.57,3.57,0,0,1,.79-2.72,2.31,2.31,0,0,1,3.26-.18l.12.11c-.32-2.86,2.5-2.3,4.08-2.56a1.6,1.6,0,0,1,.1-2c3.68-.65,1.4-2.52,2.54-5.68,0-.21.29-.51.62-.81a4.28,4.28,0,0,1,2.29-.31c-1.13-2.47.9-3.65,2.67-3.71-.28-1.08-.8-2.31-.38-2.9.78-.7,1.57-.72,2.21-1.87.47-.39,1.56-.07,1.61-.56.68-2.36,1.38-5.94,4.23-5.26a4.66,4.66,0,0,1,1.08.73c.14-3,1.07-5.59,3.94-6.14a1.84,1.84,0,0,1,1.31.26,2.79,2.79,0,0,0-.14-.37,2.84,2.84,0,0,0-3.62-1.72l-.25.1a3.31,3.31,0,0,0-1.6,3.37,5.44,5.44,0,0,0-1.1.36,5.83,5.83,0,0,0-3.23,4.63,3.56,3.56,0,0,0-2.59-.1,4.15,4.15,0,0,0-2.56,4,3,3,0,0,0-1.39.06c-1.88.54-2.9,2.9-2.33,5.4,0,0,0,0,0,.07a4.41,4.41,0,0,0-.73.09,4.77,4.77,0,0,0-3.35,5.66,5.51,5.51,0,0,0,.35,1.18h-.08a2.73,2.73,0,0,0-2.14,1.88,4.06,4.06,0,0,0-2.35,2.65,3,3,0,0,0-1-.09,2.59,2.59,0,0,0-2.4,2.78h0a1,1,0,0,0,0,.16,3.62,3.62,0,0,0-2.14-.6,3.76,3.76,0,0,0-3.47,4h0v0a4.35,4.35,0,0,0,.67,2.16c.07-.46.14-.91.2-1.33C222.31,265.75,225,265.48,226.75,267.14Z"/><path id="路径_4407" data-name="路径 4407" class="cls-51" d="M225.45,270.77a3.38,3.38,0,0,0,1.53-.4,3.58,3.58,0,0,0,3.42,2.19,3.89,3.89,0,0,0,3.27-4.41h0s0,0,0-.08a4.56,4.56,0,0,0-.48-1.6,3.37,3.37,0,0,0,1.48.12,3.86,3.86,0,0,0,3-2.42,3.78,3.78,0,0,0,3.87,1.69,4.58,4.58,0,0,0,3.16-5.55,4.75,4.75,0,0,0-2.24-3.21,5.29,5.29,0,0,0,.42-.82,3.12,3.12,0,0,0,3,.72,3.63,3.63,0,0,0,2.46-2.87,4.78,4.78,0,0,0,2.8-.18,5.67,5.67,0,0,0,3.46-7c0-.09-.06-.18-.1-.27a6.39,6.39,0,0,0,2.41-8.73h0a6.18,6.18,0,0,0-.61-.9,3.57,3.57,0,0,0,.51-3.24,1.91,1.91,0,0,0-1.3-.27c-2.83.52-3.72,3.08-3.83,6a4.35,4.35,0,0,0-1.07-.74c-2.82-.7-3.47,2.83-4.11,5.17,0,.48-1.12.15-1.58.54-.63,1.13-1.4,1.14-2.16,1.82-.41.58.12,1.8.4,2.88-1.74,0-3.73,1.2-2.59,3.66a4.17,4.17,0,0,0-2.26.28c-.32.29-.65.58-.6.8-1.09,3.13,1.17,5-2.45,5.61a1.59,1.59,0,0,0-.07,2c-1.55.25-4.33-.34-4,2.51a2.25,2.25,0,0,0-3.18-.1h0l-.14.14a3.51,3.51,0,0,0-.76,2.7c-1.71-1.67-4.37-1.42-4.67.76-.06.42-.13.86-.18,1.32A3.72,3.72,0,0,0,225.45,270.77Z"/><path id="路径_4408" data-name="路径 4408" class="cls-51" d="M181.4,281.36a5.27,5.27,0,0,0,2.12.29,4.69,4.69,0,0,0,3.29,4.07,5,5,0,0,0,6.2-3.33,5.07,5.07,0,0,0,.18-2.05,5.21,5.21,0,0,0,1.8.84,5.41,5.41,0,0,0,5-1.21,5.23,5.23,0,0,0,4.1,3.74,5.7,5.7,0,0,0,6.59-4.62,5.53,5.53,0,0,0-1.32-4.64,5.59,5.59,0,0,0,.92-.7,4.53,4.53,0,0,0,3.4,2.24,4.79,4.79,0,0,0,4.45-2,7.43,7.43,0,0,0,3.62,1.15c4,.25,7.55-2.58,7.65-6.05v-.34a7.42,7.42,0,0,0,7.25-7.5,6.87,6.87,0,0,0-.46-2.29,4,4,0,0,0,2.17-3.33,2.74,2.74,0,0,0-1.51-.92c-3.82-.81-6.15,1.61-7.67,4.82a6.33,6.33,0,0,0-1-1.34c-3.24-2.14-5.71,1.45-7.62,3.73-.28.51-1.49-.38-2.25-.18-1.32,1-2.3.59-3.59,1-.79.44-.69,2.05-.83,3.38-2.22-.8-5.28-.49-5,2.79a6.46,6.46,0,0,0-3-.79c-.55.18-1.09.34-1.13.6-2.86,2.94-.88,6.1-5.73,5A1.76,1.76,0,0,0,198,276c-2.08-.48-5.32-2.48-6.23.83-.42-1.49-2.92-2.24-4.22-1.56a4.07,4.07,0,0,0-2.22,2.62c-1.38-2.68-4.86-3.69-6.26-1.42-.28.43-.57.9-.86,1.37A5,5,0,0,0,181.4,281.36Z"/><g id="组_1857" data-name="组 1857"><path id="路径_4409" data-name="路径 4409" class="cls-52" d="M225.7,266.53a3.34,3.34,0,0,0,4.3-1.28h.43c1.69-.09,3-1.23,2.94-2.48s-1.49-2.14-3.12-2a3.81,3.81,0,0,0-1.61.45,3.5,3.5,0,0,0-1.53-.32,3.12,3.12,0,0,0-3.06,2.55c-1.25.06-2.24.76-2.27,1.67s1.05,1.78,2.43,1.8A3.08,3.08,0,0,0,225.7,266.53Z"/><path id="路径_4410" data-name="路径 4410" class="cls-52" d="M218.8,271.49h0a2.26,2.26,0,0,0,2.4-2.1v0a2.75,2.75,0,0,0,2.6,1.49c1.56,0,2.86-.89,2.87-2s-1.22-2-2.73-2a2.6,2.6,0,0,0-2.81,1.8,2.24,2.24,0,0,0-4.39.42v0a3.78,3.78,0,0,0-.57-.1c-1.54-.14-2.87.58-3,1.67s1,2.13,2.6,2.29A2.71,2.71,0,0,0,218.8,271.49Z"/><path id="路径_4411" data-name="路径 4411" class="cls-52" d="M206.64,279.05a.22.22,0,0,1,0-.08,1.78,1.78,0,0,0,.11-3.54,1.88,1.88,0,0,0-2.2,1.39,1.24,1.24,0,0,0,0,.27h0c-1.33-.28-2.56.14-2.75,1s.74,1.73,2.1,2S206.47,279.87,206.64,279.05Z"/><path id="路径_4412" data-name="路径 4412" class="cls-52" d="M190.69,281.48c.25-.75-.67-1.73-2-2.22s-2.68-.32-3,.42.59,1.77,2,2.27S190.44,282.23,190.69,281.48Z"/></g><g id="组_1858" data-name="组 1858"><path id="路径_4413" data-name="路径 4413" class="cls-52" d="M251.32,246.05a2.12,2.12,0,0,0,1.11-.2,2.62,2.62,0,0,0,1.45-2.09,1.78,1.78,0,0,0,.29-.12,2.32,2.32,0,0,0,1.28-2.8,1.89,1.89,0,0,0-2.58-.74h0l-.13.08a2.76,2.76,0,0,0-1,.83,2.09,2.09,0,0,0-1.13.2,2.59,2.59,0,0,0-1.35,2.89,1.73,1.73,0,0,0-1.06,2,1.55,1.55,0,0,0,2.08.72h0l.1-.05A2.23,2.23,0,0,0,251.32,246.05Z"/><path id="路径_4414" data-name="路径 4414" class="cls-52" d="M248.06,252h0a1.94,1.94,0,0,1,3.22-2,2.08,2.08,0,0,0,1.38-2.41,1.75,1.75,0,0,0-2.35-.78h0l-.09,0a2.09,2.09,0,0,0-1.4,2.24,1.6,1.6,0,0,0-1.85-.67,1.84,1.84,0,0,0-1,2.3s0,0,0,0a2,2,0,0,0-.42.1A2,2,0,0,0,244,253a1.84,1.84,0,0,0,2.37,1h0l.07,0A2.11,2.11,0,0,0,248.06,252Z"/><path id="路径_4415" data-name="路径 4415" class="cls-52" d="M242,261.46a.14.14,0,0,0,0-.07,1.53,1.53,0,0,0,.7-1.62A1.42,1.42,0,0,0,241,258.6h0a1.48,1.48,0,0,0-1.1,1.74,1.6,1.6,0,0,0,0,.21h0c-1,.19-1.7.87-1.6,1.56s1,1.13,2,.94S242.09,262.15,242,261.46Z"/><path id="路径_4416" data-name="路径 4416" class="cls-53" d="M231.81,268.1c0-.66-.95-1.15-2-1.12s-1.93.55-1.9,1.21.91,1.2,2,1.18S231.86,268.76,231.81,268.1Z"/></g></g><path id="路径_4421" data-name="路径 4421" class="cls-54" d="M104.6,46.59s-6.11,3.71-3.38,4.51S108.3,49,114.9,46.59s14.3-5,14.3-5-.49,3,7,2.11,9.49-5.85,13.81-5.81,18.84-.43,15.63-2.64S162.1,33,154.9,32.73s-35.68,5.3-41.3,7.62A26.63,26.63,0,0,0,104.6,46.59Z"/><g id="组_1865" data-name="组 1865"><path id="路径_4430" data-name="路径 4430" class="cls-55" d="M34.65,146.37a3.37,3.37,0,0,1,1.22,2.3c.18,1.16-.74,2.9-1.74,2.87,1.89,1.48.06,3.48-.61,5,.85-.11,1.25,1.14,1.17,1.32-1.55,3.46.78,2.7,2.07,5.58.16.1.16.55.17,1a5.41,5.41,0,0,1-1,2.1c2.08.55,1.71,3,.82,4.48.8.42,1.81.74,2,1.45,0,1.08-.4,1.74,0,3,0,.63-.78,1.34-.51,1.68,1.06,2,2.85,4.77.94,6.72a3.42,3.42,0,0,1-1,.46c1.71,1.94,2.8,4.3,1.61,7a1.88,1.88,0,0,1-.85.93l.29.11a2.5,2.5,0,0,0,3-1.9c0-.11,0-.23.05-.34a3.52,3.52,0,0,0-1.19-3.39,6.39,6.39,0,0,0,.37-1.12,6.86,6.86,0,0,0-1.09-5.52,4,4,0,0,0,1.43-2.1,4.72,4.72,0,0,0-1.08-4.6,3.36,3.36,0,0,0,.7-1.18,4.47,4.47,0,0,0-2-5.23l0,0a5.35,5.35,0,0,0-1.3-6.9,3.84,3.84,0,0,0-.89-.43l0-.07a3.49,3.49,0,0,0,0-2.93,5,5,0,0,0-.36-3.58,2.76,2.76,0,0,0,.6-.8,3.06,3.06,0,0,0-.4-3.69l-.1-.08A3.47,3.47,0,0,0,38.26,147a4.48,4.48,0,0,0-.6-5.36,2.71,2.71,0,0,0-1.66-.75c.25.33.48.66.7,1C37.83,143.51,36.57,145.94,34.65,146.37Z"/><path id="路径_4431" data-name="路径 4431" class="cls-55" d="M33.8,180.32a2.43,2.43,0,0,1,1.55,1.23c.44.75.2,2.25-.57,2.54,1.83.44,1,2.42.86,3.66.61-.35,1.26.4,1.25.55-.26,2.9,1.3,1.63,3.06,3.23.14,0,.27.33.39.64a3.89,3.89,0,0,1-.22,1.79c1.73-.27,2.1,1.53,1.82,2.86.72.05,1.58-.06,1.87.4.3.74.16,1.34.76,2.09.16.44-.24,1.18.06,1.33,1.34,1.07,3.43,2.42,2.5,4.4a3,3,0,0,1-.65.63c1.82.81,3.27,2.11,3.1,4.39a1.54,1.54,0,0,1-.4.91h.25a2.1,2.1,0,0,0,1.72-2.43s0-.06,0-.09a2.42,2.42,0,0,0-1.8-2,4.49,4.49,0,0,0,0-.9,4.6,4.6,0,0,0-2.29-3.5,3.19,3.19,0,0,0,.53-1.92,3.23,3.23,0,0,0-2-2.86,2.71,2.71,0,0,0,.22-1.05,3.13,3.13,0,0,0-2.94-3h0a3.68,3.68,0,0,0,.07-.58,3.62,3.62,0,0,0-2.9-3.82,3.07,3.07,0,0,0-.8,0v-.06a2.35,2.35,0,0,0-.78-2,3.35,3.35,0,0,0-1.22-2.38,2.44,2.44,0,0,0,.24-.75,2.1,2.1,0,0,0-1.29-2.44l-.1,0a3,3,0,0,0,.75-1.46,3.06,3.06,0,0,0-1.88-3.54,2.28,2.28,0,0,0-1.46,0l.79.45C35.46,177.32,35.15,179.42,33.8,180.32Z"/><path id="路径_4432" data-name="路径 4432" class="cls-33" d="M33.15,143.07a4.36,4.36,0,0,0-.56,1.52,2.74,2.74,0,0,0-3.12,1.51,4.47,4.47,0,0,0,1,5.45,3,3,0,0,0,1.22.58,3.85,3.85,0,0,0-.86,1.15,5.1,5.1,0,0,0-.14,4,3.25,3.25,0,0,0-3.05,2.19,5,5,0,0,0,1.67,6,3,3,0,0,0,3.12.09,4.41,4.41,0,0,0,.27.85,3,3,0,0,0-2,2,4.46,4.46,0,0,0,.42,3.8,5.91,5.91,0,0,0-1.37,2.44c-.88,3,.24,6.25,2.37,7.13l.22.08c-.66,3.09.87,6.38,3.35,7.18a3.63,3.63,0,0,0,1.5.19,3.1,3.1,0,0,0,1.67,2.4,1.88,1.88,0,0,0,.85-.91c1.19-2.67.11-5-1.61-6.87a3.37,3.37,0,0,0,1-.44c1.92-1.93.13-4.61-.93-6.58-.27-.33.5-1,.51-1.64-.35-1.21.05-1.86,0-2.91-.13-.7-1.15-1-2-1.42.89-1.47,1.25-3.83-.83-4.38a5.14,5.14,0,0,0,1-2.05c0-.45,0-.9-.16-1-1.3-2.82-3.63-2.08-2.09-5.46.08-.17-.33-1.4-1.19-1.3.68-1.44,2.5-3.4.6-4.86,1,0,1.92-1.65,1.73-2.79a3.3,3.3,0,0,0-1.22-2.27c1.91-.4,3.17-2.78,2-4.36-.22-.3-.45-.63-.7-1A3,3,0,0,0,33.15,143.07Z"/><g id="组_1863" data-name="组 1863"><path id="路径_4433" data-name="路径 4433" class="cls-53" d="M34.37,179.69a2.72,2.72,0,0,0-.47,1,3,3,0,0,0,.49,2.47c0,.11-.06.22-.08.33-.25,1.28.22,2.54,1,2.77s1.6-.61,1.83-1.85a3.61,3.61,0,0,0,0-1.31,2.8,2.8,0,0,0,.48-1.07,2.74,2.74,0,0,0-1-2.89c.19-1-.07-1.85-.63-2.08s-1.3.36-1.56,1.4A3.17,3.17,0,0,0,34.37,179.69Z"/><path id="路径_4434" data-name="路径 4434" class="cls-53" d="M32.54,173.36v0a1.93,1.93,0,0,0,.88,2.29c-.57,0-1.15.66-1.4,1.6-.3,1.16,0,2.35.73,2.61s1.44-.45,1.73-1.57a2.33,2.33,0,0,0-.61-2.53,1.44,1.44,0,0,0,1.38-1.13,1.91,1.91,0,0,0-.85-2.25h0a3,3,0,0,0,.17-.41c.36-1.12.15-2.28-.5-2.63s-1.52.27-1.89,1.42A2.45,2.45,0,0,0,32.54,173.36Z"/><path id="路径_4435" data-name="路径 4435" class="cls-53" d="M30,162.49s0,0,0,0a1.6,1.6,0,0,0,.6,1.57,1.09,1.09,0,0,0,1.48-.43.94.94,0,0,0,.1-.23,1.67,1.67,0,0,0-.47-2l-.16-.09a0,0,0,0,1,0,0c.41-.94.37-1.95-.09-2.29s-1.22.15-1.64,1.1S29.55,162.18,30,162.49Z"/><path id="路径_4436" data-name="路径 4436" class="cls-53" d="M31.4,150c.42.36,1.2-.1,1.75-1s.68-1.94.27-2.33-1.2,0-1.77,1S31,149.63,31.4,150Z"/></g><path id="路径_4437" data-name="路径 4437" class="cls-33" d="M31.78,178.51a3.39,3.39,0,0,0,0,1.23,2.43,2.43,0,0,0-2,2A3.06,3.06,0,0,0,32,185.27a2.46,2.46,0,0,0,1.08,0,3,3,0,0,0-.34,1.07,3.42,3.42,0,0,0,1,2.83,2.8,2.8,0,0,0-1.75,2.5,3.48,3.48,0,0,0,2.88,3.66,2.72,2.72,0,0,0,2.4-.93,5.27,5.27,0,0,0,.43.51,2.53,2.53,0,0,0-1,2A3,3,0,0,0,38,199.5a4.33,4.33,0,0,0-.39,2.13c.11,2.35,1.85,4.28,3.7,4.22h.19A4.36,4.36,0,0,0,46,209.78a3.32,3.32,0,0,0,1.19-.34,2.23,2.23,0,0,0,1.91,1.14,1.54,1.54,0,0,0,.4-.91c.19-2.24-1.24-3.5-3.06-4.27a3,3,0,0,0,.65-.63c1-2-1.13-3.26-2.46-4.29-.29-.14.11-.87-.05-1.31-.59-.73-.46-1.31-.74-2-.29-.44-1.14-.33-1.86-.37.28-1.31-.07-3.07-1.8-2.79a3.87,3.87,0,0,0,.23-1.75c-.12-.31-.25-.62-.39-.64-1.74-1.55-3.31-.3-3-3.14a1,1,0,0,0-1.25-.53c.13-1.22,1-3.16-.83-3.58.77-.29,1-1.76.57-2.5a2.36,2.36,0,0,0-1.53-1.19c1.34-.89,1.67-2.94.37-3.67l-.79-.45A2.61,2.61,0,0,0,31.78,178.51Z"/><g id="组_1864" data-name="组 1864"><path id="路径_4438" data-name="路径 4438" class="cls-53" d="M42.46,203.65a2,2,0,0,0-.08.87,2.24,2.24,0,0,1,1.06,1.81c.15,1,.84,1.71,1.5,1.63s1.06-.94.9-1.88a2.39,2.39,0,0,0-.34-.92,2.1,2.1,0,0,0,.08-.9A1.88,1.88,0,0,0,44,202.58c-.11-.72-.55-1.27-1-1.25s-.88.67-.8,1.47A2.12,2.12,0,0,0,42.46,203.65Z"/><path id="路径_4439" data-name="路径 4439" class="cls-53" d="M39.38,199.81v0a1.34,1.34,0,0,0,1.28,1.32A1.51,1.51,0,0,0,40,202.7c.08.91.65,1.62,1.24,1.6s1-.77.9-1.65-.57-1.52-1.13-1.57a1.21,1.21,0,0,0,.75-1.22,1.34,1.34,0,0,0-1.25-1.3h0a2,2,0,0,0,0-.34c0-.89-.48-1.64-1.08-1.68s-1.08.67-1.06,1.59A1.68,1.68,0,0,0,39.38,199.81Z"/><path id="路径_4440" data-name="路径 4440" class="cls-53" d="M34.59,193h0a1.07,1.07,0,0,0,.88.9.94.94,0,0,0,1-.87h0V193a1.14,1.14,0,0,0-.87-1.23H35.5c.06-.79-.23-1.48-.68-1.56s-.88.48-1,1.28S34.14,193,34.59,193Z"/><path id="路径_4441" data-name="路径 4441" class="cls-53" d="M32.3,183.89c.41.12.88-.45,1.06-1.26s0-1.56-.42-1.7-.91.4-1.09,1.23S31.88,183.77,32.3,183.89Z"/></g></g><g id="组_1866" data-name="组 1866"><path id="路径_4442" data-name="路径 4442" class="cls-56" d="M134.77,21.29l-2.6,6.85,1.65.3-2.28,5.77,2.27.18-1.88,8.22,4.33-.08Z"/><path id="路径_4443" data-name="路径 4443" class="cls-47" d="M140.55,41.89l-4.3.64-1.48-21.24Z"/><path id="路径_4443-2" data-name="路径 4443-2" class="cls-4" d="M140.09,41.84l-4.3.65L134.3,21.25Z"/><path id="路径_4444" data-name="路径 4444" class="cls-7" d="M143.59,40.54l-3,1.35L134.77,21.3l3.93,4.32-1.29,1,4.52,3.8-1.74,2.37,4.67,7Z"/><path id="路径_4444-2" data-name="路径 4444-2" class="cls-4" d="M143.86,40.54l-3,1.35L135,21.3,139,25.62l-1.29,1,4.52,3.8-1.74,2.37,4.67,7Z"/></g><g id="组_1867" data-name="组 1867"><path id="路径_4445" data-name="路径 4445" class="cls-9" d="M97.4,69.65l-2.81-4.29-1,.67,2.82,4.31,0,0a.94.94,0,0,1,.19.82.86.86,0,0,1-.39.45l-3.15,2.22L90.57,70c-.23-.35-.82-.34-1.32,0s-.73.92-.5,1.27L99,86.85c.23.34.82.34,1.32,0s.73-.92.5-1.27L93.55,74.5l3.14-2.21a2.47,2.47,0,0,0,1-1.16A1.55,1.55,0,0,0,97.4,69.65Z"/><path id="路径_4446" data-name="路径 4446" class="cls-10" d="M96.26,55.44c3.38,5.16,1.07,12.9-5.16,17.27s-14,3.72-17.4-1.44S72.62,58.37,78.86,54,92.87,50.27,96.26,55.44Z"/><path id="路径_4446-2" data-name="路径 4446-2" class="cls-12" d="M93.87,55.08C97.25,60.25,95,68,88.72,72.35s-14,3.73-17.4-1.44S70.24,58,76.47,53.65,90.49,49.92,93.87,55.08Z"/><path id="路径_4448" data-name="路径 4448" class="cls-10" d="M79.1,59.91a1.19,1.19,0,1,1-1.19-1.24A1.23,1.23,0,0,1,79.1,59.91Z"/><path id="路径_4449" data-name="路径 4449" class="cls-10" d="M80.61,67.36a2.72,2.72,0,1,1-2.71-2.81A2.77,2.77,0,0,1,80.61,67.36Z"/><path id="路径_4450" data-name="路径 4450" class="cls-10" d="M86.55,69.79a2.13,2.13,0,1,1-2.13-2.21A2.17,2.17,0,0,1,86.55,69.79Z"/><path id="路径_4451" data-name="路径 4451" class="cls-10" d="M82.29,63.41a1.17,1.17,0,1,1-1.17-1.2A1.18,1.18,0,0,1,82.29,63.41Z"/><path id="路径_4452" data-name="路径 4452" class="cls-11" d="M88.46,57A2.46,2.46,0,1,1,86,54.41,2.49,2.49,0,0,1,88.46,57Z"/><path id="路径_4453" data-name="路径 4453" class="cls-11" d="M92.67,64.25a2,2,0,1,1-2-2,2,2,0,0,1,2,2Z"/><path id="路径_4454" data-name="路径 4454" class="cls-11" d="M95.37,58.58A1.58,1.58,0,1,1,93.79,57a1.61,1.61,0,0,1,1.58,1.63Z"/></g><g id="组_1868" data-name="组 1868"><path id="路径_4455" data-name="路径 4455" class="cls-9" d="M78.71,93.76l-2.45-2.6-.59.59,2.46,2.61,0,0a.56.56,0,0,1,.14.77.53.53,0,0,1-.13.13c-.3.29-1.28,1.3-1.91,1.94L74,94.85c-.2-.21-.61-.13-.91.18s-.4.73-.2.94l8.94,9.48c.2.21.61.13.91-.17s.4-.73.2-.94l-6.34-6.72,1.9-1.93a1.8,1.8,0,0,0,.54-.93A1.06,1.06,0,0,0,78.71,93.76Z"/><path id="路径_4456" data-name="路径 4456" class="cls-10" d="M76.22,84.09c3,3.14,2.29,8.78-1.5,12.6s-9.24,4.38-12.2,1.24S60.23,89.15,64,85.33,73.26,81,76.22,84.09Z"/><path id="路径_4457" data-name="路径 4457" class="cls-11" d="M64,85.33c-3.79,3.82-4.45,9.46-1.5,12.6s8.42,2.58,12.2-1.24Z"/><path id="路径_4458" data-name="路径 4458" class="cls-10" d="M64.89,89.38a.86.86,0,0,1-.67,1,.84.84,0,0,1-1-.68h0a.86.86,0,0,1,.67-1,.83.83,0,0,1,1,.69h0Z"/><path id="路径_4459" data-name="路径 4459" class="cls-10" d="M66.84,94.34a2,2,0,0,1-1.54,2.29,1.91,1.91,0,0,1-2.21-1.56v0a2,2,0,0,1,1.54-2.3,1.91,1.91,0,0,1,2.21,1.56Z"/><path id="路径_4460" data-name="路径 4460" class="cls-10" d="M71.23,95.25A1.54,1.54,0,0,1,70,97.05a1.49,1.49,0,0,1-1.73-1.22h0v0A1.54,1.54,0,0,1,69.5,94a1.5,1.5,0,0,1,1.73,1.23Z"/><path id="路径_4461" data-name="路径 4461" class="cls-10" d="M67.52,91.39a.84.84,0,0,1-.66,1,.81.81,0,0,1-.94-.67h0a.84.84,0,0,1,.66-1,.81.81,0,0,1,.94.67h0Z"/><path id="路径_4462" data-name="路径 4462" class="cls-57" d="M71,86.13a1.78,1.78,0,0,1-1.39,2.08,1.73,1.73,0,0,1-2-1.41h0v0A1.79,1.79,0,0,1,69,84.69a1.74,1.74,0,0,1,2,1.41h0Z"/><path id="路径_4463" data-name="路径 4463" class="cls-57" d="M74.8,90.64a1.43,1.43,0,0,1-1.12,1.67,1.4,1.4,0,0,1-1.61-1.14v0a1.44,1.44,0,0,1,1.13-1.67,1.39,1.39,0,0,1,1.6,1.13Z"/><path id="路径_4464" data-name="路径 4464" class="cls-57" d="M76,86.37a1.13,1.13,0,0,1-.89,1.33,1.1,1.1,0,0,1-1.28-.9v0a1.15,1.15,0,0,1,.89-1.33,1.11,1.11,0,0,1,1.28.91Z"/></g><g id="组_1869" data-name="组 1869"><path id="路径_4465" data-name="路径 4465" class="cls-33" d="M174.16,112.59c-.27-3-3.19-3.86-5.49-4.92a45.76,45.76,0,0,0-13.33-4.17c-2.61-.31-5,0-7.56-.94-2.73-1-5.31-3-7.9-4.31-2.19-1.15-4.54-2.67-7-2.87-1.79-.15-3.65,0-5.44,0-3.25,0-6.57,0-9.77.15-1.68.09-4.12-.26-5.68.48a5.47,5.47,0,0,0-1.84,1.74,2.71,2.71,0,0,0-1.43.83c-1.24,1.43.17,1.37.12,2.67,0,.45-.89.7-.9,1.31,0,1.18,1.2,1.4,2,1.77,2.36,1.08,4.89,1.78,7.23,2.9-.45,2.25.08,2.51,2.86,2.53,3,0,5.93-.13,8.86,0a5.28,5.28,0,0,1-.12,2c2.62.88,6.43.33,9.25.36a19.6,19.6,0,0,1,5.64.83c5.19,1.55,10.64,1.72,16.08,1.72,2.64,0,5,.48,7.76.48C170.44,115.19,174.54,116.63,174.16,112.59Z"/><path id="路径_4466" data-name="路径 4466" class="cls-33" d="M115.06,95c1.92,1.32,4.15.33,6.07.66-.32,1.32-1.6,2.31-.64,3.63,2.87,4,8.93,3,11.81-.33.95,5.62,7.34,9.58,12.12,5.94.33,1,1,2,1.6,2,2.56.66,6.39,1.32,7.34-2,1.92,3.64,6.7,5.29,10.21,3.3l1-1c1.92,4,7,4.29,10.21,2a5.54,5.54,0,0,0,1.16-1.35,6,6,0,0,0-4.93-3.59,4.82,4.82,0,0,0,.88-2.77c0-2.93-2.66-5.3-5.95-5.3a5.89,5.89,0,0,0-5.71,3.85l-.26,0a4.93,4.93,0,0,0,0-.55,6.22,6.22,0,0,0-6.33-6.12,6.54,6.54,0,0,0-2.85.66A10.7,10.7,0,0,0,148,92.91c-.07-4.5-4.37-8.13-9.67-8.13A10.31,10.31,0,0,0,130.7,88a6.33,6.33,0,0,0-2.1,1,5.1,5.1,0,0,0-5.13-4,5.21,5.21,0,0,0-4.75,2.89,7.38,7.38,0,0,0-1.32-.13,6.77,6.77,0,0,0-4.15,1.4A5.42,5.42,0,0,0,115.06,95Z"/><path id="路径_4467" data-name="路径 4467" class="cls-58" d="M174.74,109.18c-3.2,2.31-8.3,2-10.21-2l-1,1c-3.51,2-8.3.33-10.21-3.3-1,3.3-4.79,2.64-7.34,2-.64,0-1.28-1-1.6-2-4.79,3.63-11.17-.33-12.13-6-2.87,3.3-8.94,4.3-11.81.33-1-1.32.33-2.31.64-3.63-1.91-.33-4.15.66-6.06-.66a5.41,5.41,0,0,1-1.83-5.86,5.14,5.14,0,0,0-2.07,4,5.42,5.42,0,0,0,3.63,4.92,7.26,7.26,0,0,0,7.41,8.33,12.93,12.93,0,0,1,14.54,2.07,7.69,7.69,0,0,0,1.1-.67,7.21,7.21,0,0,0,13,2.61,10.48,10.48,0,0,0,7.9,3.18,11.6,11.6,0,0,0,5.87-1.51,6.62,6.62,0,0,0,5.26,2.4c3.45,0,6.24-2.31,6.24-5.16a4.22,4.22,0,0,0-.27-1.49A5.88,5.88,0,0,1,174.74,109.18Z"/><path id="路径_4468" data-name="路径 4468" class="cls-59" d="M126.14,89.48c0,1.31-1.41,2.38-3.16,2.38s-3.17-1.06-3.17-2.38,1.42-2.38,3.17-2.38S126.14,88.17,126.14,89.48Z"/><path id="路径_4469" data-name="路径 4469" class="cls-59" d="M143.67,90.84c0,2.06-2.13,3.73-4.77,3.73s-4.75-1.67-4.75-3.73,2.13-3.73,4.75-3.73S143.67,88.78,143.67,90.84Z"/><path id="路径_4470" data-name="路径 4470" class="cls-59" d="M146.52,92.74c0,1.63-1.7,3-3.81,3s-3.81-1.32-3.81-3,1.71-3,3.81-3S146.52,91.11,146.52,92.74Z"/><path id="路径_4471" data-name="路径 4471" class="cls-59" d="M136.19,91.59a3.54,3.54,0,1,1-4-3,3.55,3.55,0,0,1,4,3Z"/><path id="路径_4472" data-name="路径 4472" class="cls-59" d="M151.77,99.51c0,1.27-1.38,2.3-3.08,2.3s-3.09-1-3.09-2.3,1.38-2.3,3.09-2.3S151.77,98.24,151.77,99.51Z"/><path id="路径_4473" data-name="路径 4473" class="cls-59" d="M159,97.24c0,1.8-1.85,3.25-4.13,3.25s-4.13-1.46-4.13-3.25S152.62,94,154.9,94,159,95.45,159,97.24Z"/><path id="路径_4474" data-name="路径 4474" class="cls-59" d="M168.82,102.06c0,1.16-1.44,2.1-3.22,2.1s-3.23-.94-3.23-2.1,1.44-2.11,3.23-2.11S168.82,100.89,168.82,102.06Z"/><path id="路径_4475" data-name="路径 4475" class="cls-59" d="M170.07,99.8c0,1.1-1.19,2-2.66,2s-2.67-.9-2.67-2,1.19-2,2.67-2S170.07,98.7,170.07,99.8Z"/><path id="路径_4468-2" data-name="路径 4468-2" class="cls-60" d="M128.67,88.42c0,1.31-1.42,2.38-3.17,2.38s-3.16-1.06-3.16-2.38S123.75,86,125.5,86,128.67,87.11,128.67,88.42Z"/><path id="路径_4469-2" data-name="路径 4469-2" class="cls-60" d="M146.19,89.78c0,2.06-2.13,3.73-4.76,3.73s-4.76-1.67-4.76-3.73S138.8,86,141.43,86,146.19,87.71,146.19,89.78Z"/><path id="路径_4470-2" data-name="路径 4470-2" class="cls-60" d="M149.05,91.68c0,1.63-1.71,2.95-3.81,2.95s-3.81-1.32-3.81-2.95,1.7-3,3.81-3S149.05,90.05,149.05,91.68Z"/><path id="路径_4471-2" data-name="路径 4471-2" class="cls-60" d="M138.71,90.52a3.54,3.54,0,1,1-4-2.94,3.49,3.49,0,0,1,4,2.94Z"/><path id="路径_4472-2" data-name="路径 4472-2" class="cls-60" d="M154.29,98.44c0,1.27-1.38,2.3-3.08,2.3s-3.09-1-3.09-2.3,1.38-2.29,3.09-2.29S154.29,97.18,154.29,98.44Z"/><path id="路径_4473-2" data-name="路径 4473-2" class="cls-60" d="M161.55,96.18c0,1.79-1.85,3.24-4.13,3.24S153.3,98,153.3,96.18s1.84-3.24,4.12-3.24S161.55,94.39,161.55,96.18Z"/><path id="路径_4474-2" data-name="路径 4474-2" class="cls-60" d="M171.34,101c0,1.17-1.44,2.11-3.22,2.11s-3.23-.94-3.23-2.11,1.45-2.1,3.23-2.1S171.34,99.83,171.34,101Z"/><path id="路径_4475-2" data-name="路径 4475-2" class="cls-60" d="M172.59,98.74c0,1.1-1.18,2-2.66,2s-2.66-.9-2.66-2,1.18-2,2.66-2S172.59,97.64,172.59,98.74Z"/></g><path id="路径_4476" data-name="路径 4476" class="cls-61" d="M114.32,237.41a10.66,10.66,0,0,0-2.13-4.25c-2-2.37-3.51-4.43-6.11-5.54-.29-1-.54-1.86-.81-2.89a9.73,9.73,0,0,0-2.56-3.82c-1-1.14-1.43-1.88-3-1.27-.8.31-.48.69-1.49.74a5.6,5.6,0,0,1-2.4-.86c-.79.82-.42,4.26-.32,5.46.2,2.31,2,4.72,3,6.62,2.56,4.45,2.37,9.93,5.27,14.2,1.83,2.68,1.36.38,2.78-.28,1-.48,1.65.81,2.57.85,1.38.07,3-1.9,4-2.85C115.19,241.36,115.2,240.17,114.32,237.41Z"/><g id="组_1870" data-name="组 1870"><path id="路径_4477" data-name="路径 4477" class="cls-9" d="M90,235.64l.07.06c.77.62,1,.65,1.68,0,.5-.47.72-.92,1.39-.88.32,0,.6.16.86.07.48-.14.84-.88,1-1.31s.14-.73.47-.9.64.13.92,0a4.34,4.34,0,0,0,.5-.69,3.69,3.69,0,0,1,.92-1c.32-.19.45,0,.77-.13a2,2,0,0,0,.58-.47,6.83,6.83,0,0,1,.84-.86c.24-.14.39,0,.63-.11.58-.17.84-.81,1.29-1.25.06.1.22.18.27.29.9-.53.81-2.11,1.28-2.91l-.75-1.55Z"/><path id="路径_4478" data-name="路径 4478" class="cls-62" d="M90,235.64l0-.07c-.5-.88-.51-1.1.18-1.74.5-.46,1-.63,1-1.32a3,3,0,0,1,0-.9,2,2,0,0,1,1.37-.85c.33-.07.72-.06.92-.38s0-.67.15-.94a4.42,4.42,0,0,1,.72-.43,3.85,3.85,0,0,0,1.09-.83c.22-.31.07-.46.21-.78a2.22,2.22,0,0,1,.52-.54,6.16,6.16,0,0,0,.92-.77c.17-.22.08-.39.18-.63.24-.58.88-.76,1.35-1.18-.09-.07-.15-.24-.24-.31.61-.87,2.12-.58,2.94-1l1.41.95Z"/><path id="路径_4479" data-name="路径 4479" class="cls-63" d="M91.19,235.47A5.39,5.39,0,0,0,94,240.86c3.42,2.18,4.19.72,4.19.72a3.55,3.55,0,0,1-4.25,2c-3-.92-4.41-5.62-4.41-5.62a6.28,6.28,0,0,0,1,5.89c2.23,2.55,3.12,1.86,3.12,1.86s-2.53,1.09-4.92-2.1a5.29,5.29,0,0,1-.54-5.38s-2.69,1.84-1.88,4.19,1.37,2.72,1.37,2.72-2.76-1.28-2.91-2.72a4.55,4.55,0,0,1,.87-2.81l5.51-5.06Z"/><path id="路径_4480" data-name="路径 4480" class="cls-64" d="M90.23,234.35s-3.17.29-4.85-3.48-.19-4.39-.19-4.39a3.68,3.68,0,0,0-2.45,4.13c.53,3.16,4.86,5.19,4.86,5.19a5.71,5.71,0,0,1-5.53-1.73c-2.18-2.59-1.41-3.42-1.41-3.42s-1.35,2.47,1.44,5.3a4.84,4.84,0,0,0,5.09,1.19s-2.08,2.54-4.24,1.43-2.45-1.72-2.45-1.72.9,3,2.27,3.32a4.23,4.23,0,0,0,2.8-.57l5.5-5.07Z"/></g><g id="组_1871" data-name="组 1871"><path id="路径_4481" data-name="路径 4481" class="cls-9" d="M98.84,253.51l.1,0c1.07.4,1.33.37,1.89-.6.4-.69.49-1.28,1.24-1.48.37-.1.73,0,1-.23a2.51,2.51,0,0,0,.64-1.81c0-.4-.08-.87.23-1.17s.75-.08,1-.39a5.89,5.89,0,0,0,.32-1,4.55,4.55,0,0,1,.69-1.46c.29-.32.49-.18.81-.42a2.42,2.42,0,0,0,.48-.74,8.73,8.73,0,0,1,.65-1.25c.22-.25.42-.18.67-.35.59-.41.65-1.21,1-1.86.1.1.3.12.4.22.82-.91.19-2.64.44-3.7l-1.36-1.46Z"/><path id="路径_4482" data-name="路径 4482" class="cls-62" d="M98.84,253.51l-.08-.07c-.85-.79-.94-1-.38-2,.4-.7.86-1.05.68-1.84-.09-.38-.31-.67-.27-1,.06-.6.79-1.18,1.24-1.44s.78-.33.89-.76-.28-.73-.14-1.11a5,5,0,0,1,.65-.73,4.51,4.51,0,0,0,.93-1.32c.14-.42-.07-.53,0-.94a2.36,2.36,0,0,1,.4-.79,7.75,7.75,0,0,0,.76-1.19c.11-.31,0-.47,0-.77.07-.73.72-1.16,1.11-1.8-.13,0-.26-.22-.38-.26.39-1.18,2.16-1.41,3-2.15l1.88.56Z"/><path id="路径_4483" data-name="路径 4483" class="cls-63" d="M100.16,252.87a6.15,6.15,0,0,0,4.91,5c4.54,1.18,4.91-.72,4.91-.72s-.44,3.75-4,3.8-6.81-4.66-6.81-4.66-.23,4.16,3.11,6.19,4.11.95,4.11.95-2.46,2.13-6.2-.57a6.12,6.12,0,0,1-2.42-5.79s-2.36,3-.67,5.34S99.49,265,99.49,265s-3.5-.43-4.16-2a5.43,5.43,0,0,1,0-3.45l4.43-7.63Z"/><path id="路径_4484" data-name="路径 4484" class="cls-64" d="M98.71,252s-3.42,1.47-6.57-2.12-1.7-4.83-1.7-4.83a4.39,4.39,0,0,0-1.34,5.49c1.66,3.33,7.18,4,7.18,4a6.68,6.68,0,0,1-6.75.07c-3.3-2.1-2.73-3.3-2.73-3.3s-.66,3.24,3.4,5.39a5.63,5.63,0,0,0,6.07-.52s-1.46,3.59-4.24,3.13-3.31-1-3.31-1,2,3,3.65,2.87a5,5,0,0,0,2.93-1.65l4.42-7.63Z"/></g><g id="组_1873" data-name="组 1873"><path id="路径_4486" data-name="路径 4486" class="cls-58" d="M276.89,155.65a2.53,2.53,0,0,1-1.22-1.48c-.32-.82,0-2.36.78-2.52-1.65-.74-.66-2.63-.36-3.87-.65.24-1.21-.61-1.18-.77.61-2.92-1.13-1.91-2.85-3.66-.15,0-.26-.37-.37-.7a3.8,3.8,0,0,1,.42-1.84c-1.95.18-2.25-1.66-1.78-3.06-.84-.06-1.86.08-2.17-.38-.29-.77-.07-1.4-.74-2.14-.15-.46.43-1.25.08-1.39-1.54-1-4.23-2.08-2.7-4.31a4.83,4.83,0,0,1,1-.76c-2.33-.62-4.26-1.57-3.52-4a2.34,2.34,0,0,1,.8-1.06l-.37.07c-1.77.43-3.12,1.93-3,3.17.08,1,1,1.59,2.27,1.57a3.42,3.42,0,0,0,2.54,4.13l.06,0a3.38,3.38,0,0,0-.82,2.12,2.86,2.86,0,0,0,2.38,2.7,2.88,2.88,0,0,0-.3,1.14,3.09,3.09,0,0,0,3.24,2.93h.06a3.26,3.26,0,0,0-.11.61,3.73,3.73,0,0,0,2.88,4,3.05,3.05,0,0,0,.8.06.17.17,0,0,1,0,.07,2.61,2.61,0,0,0,.62,2.19,3.9,3.9,0,0,0,1,2.6,2.52,2.52,0,0,0-.28.75,2.39,2.39,0,0,0,1,2.67l.09,0a3,3,0,0,0-.76,1.46,3.54,3.54,0,0,0,1.28,3.82,1.6,1.6,0,0,0,1.17.16l-.58-.56C275.21,158.53,275.61,156.35,276.89,155.65Z"/><path id="路径_4487" data-name="路径 4487" class="cls-33" d="M278.42,158.26a4,4,0,0,0,.2-1.24,2,2,0,0,0,2-1.46,3.62,3.62,0,0,0-1.38-4.15,2.13,2.13,0,0,0-1-.34,2.93,2.93,0,0,0,.5-1,3.89,3.89,0,0,0-.46-3.12,2.53,2.53,0,0,0,2.27-1.83,4,4,0,0,0-2.29-4.63,2.86,2.86,0,0,0-2.84.27,4.28,4.28,0,0,0-.4-.61,2.56,2.56,0,0,0,1.49-1.83,3,3,0,0,0-1-2.85,4.14,4.14,0,0,0,1-2,4.22,4.22,0,0,0-3.32-5l-.34-.05-.25,0c.24-2.39-2-4.59-5.14-4.29a6.72,6.72,0,0,0-1.82.44,2.45,2.45,0,0,0-2.52-.92,2.26,2.26,0,0,0-.8,1.06c-.74,2.46,1.19,3.41,3.52,4a4.91,4.91,0,0,0-1,.76c-1.54,2.23,1.15,3.27,2.7,4.31.35.14-.23.94-.08,1.39.67.75.45,1.38.74,2.15.31.46,1.33.31,2.17.38-.47,1.39-.17,3.23,1.78,3.06a3.76,3.76,0,0,0-.42,1.83c.11.34.22.68.37.7,1.73,1.76,3.46.75,2.85,3.67,0,.15.53,1,1.18.77-.3,1.23-1.29,3.12.37,3.87-.76.16-1.12,1.69-.79,2.52a2.59,2.59,0,0,0,1.22,1.48c-1.28.7-1.68,2.88-.7,3.77.19.17.39.37.59.56A2.47,2.47,0,0,0,278.42,158.26Z"/><path id="路径_4487-2" data-name="路径 4487-2" class="cls-53" d="M279.26,158.26a3.5,3.5,0,0,0,.2-1.24,2,2,0,0,0,2.05-1.46,3.65,3.65,0,0,0-1.38-4.15,2.17,2.17,0,0,0-1-.34,2.91,2.91,0,0,0,.49-1,3.85,3.85,0,0,0-.46-3.12,2.52,2.52,0,0,0,2.27-1.83,4,4,0,0,0-2.29-4.63,2.87,2.87,0,0,0-2.84.27,3.56,3.56,0,0,0-.4-.61,2.55,2.55,0,0,0,1.5-1.83,3,3,0,0,0-1.05-2.85,4.05,4.05,0,0,0,1-2,4.22,4.22,0,0,0-3.32-5h0l-.34-.05-.25,0c.24-2.39-2-4.59-5.14-4.29a6.82,6.82,0,0,0-1.82.44,2.45,2.45,0,0,0-2.52-.92,2.26,2.26,0,0,0-.8,1.06c-.74,2.46,1.19,3.41,3.52,4a4.91,4.91,0,0,0-1,.76c-1.54,2.23,1.15,3.27,2.69,4.31.35.14-.23.94-.07,1.39.66.75.44,1.38.73,2.15.31.46,1.34.31,2.18.38-.48,1.39-.18,3.23,1.77,3.06a3.87,3.87,0,0,0-.42,1.83c.11.34.22.68.37.7,1.73,1.76,3.46.75,2.85,3.67,0,.15.53,1,1.18.77-.3,1.23-1.28,3.12.37,3.87-.76.16-1.11,1.69-.79,2.52a2.59,2.59,0,0,0,1.22,1.48c-1.27.7-1.68,2.88-.7,3.77.19.17.39.37.59.56A2.45,2.45,0,0,0,279.26,158.26Z"/><g id="组_1872" data-name="组 1872"><path id="路径_4488" data-name="路径 4488" class="cls-59" d="M271.43,130.22a1.79,1.79,0,0,0-.59-2.64,1.17,1.17,0,0,0,0-.26,1.58,1.58,0,0,0-1.3-1.82l-.25,0a2,2,0,0,0-1.82,1.91,1.78,1.78,0,0,0,.23,1,2.08,2.08,0,0,0-.33,1,1.83,1.83,0,0,0,1.71,1.84,1.27,1.27,0,0,0,1.08,1.41,1.49,1.49,0,0,0,1.36-1.44A1.71,1.71,0,0,0,271.43,130.22Z"/><path id="路径_4489" data-name="路径 4489" class="cls-59" d="M274.4,134.72v0a1.45,1.45,0,0,0-1.27-1.62h0a1.67,1.67,0,0,0,1.19-1.43,1.41,1.41,0,1,0-1.67,1.44,1.36,1.36,0,0,0-1.19,1.17,1.45,1.45,0,0,0,1.3,1.53h0a1.47,1.47,0,0,0-.08.35,1.63,1.63,0,0,0,1,1.94c.67.13,1.36-.48,1.53-1.42A1.69,1.69,0,0,0,274.4,134.72Z"/><path id="路径_4490" data-name="路径 4490" class="cls-59" d="M278.52,142.89l0,0a1.33,1.33,0,0,0-.77-1.18.93.93,0,0,0-1.22.49.79.79,0,0,0-.06.22,1.32,1.32,0,0,0,.75,1.48l.15.05h0c-.19.79,0,1.58.47,1.78s1-.24,1.2-1A1.56,1.56,0,0,0,278.52,142.89Z"/><path id="路径_4491" data-name="路径 4491" class="cls-59" d="M279.37,152.81c-.36-.24-.87.23-1.11,1s-.16,1.62.18,1.84.84-.22,1.11-1S279.75,153.05,279.37,152.81Z"/></g><g id="组_1872-2" data-name="组 1872-2"><path id="路径_4488-2" data-name="路径 4488-2" class="cls-60" d="M272.31,130.22a1.88,1.88,0,0,0,.35-.88,1.81,1.81,0,0,0-.93-1.76,2.34,2.34,0,0,0,0-.26,1.59,1.59,0,0,0-1.31-1.82l-.25,0a2,2,0,0,0-1.82,1.91,1.78,1.78,0,0,0,.23,1,2,2,0,0,0-.32,1,1.83,1.83,0,0,0,1.7,1.84,1.27,1.27,0,0,0,1.08,1.41,1.5,1.5,0,0,0,1.36-1.44A1.71,1.71,0,0,0,272.31,130.22Z"/><path id="路径_4489-2" data-name="路径 4489-2" class="cls-60" d="M275.29,134.72v0a1.47,1.47,0,0,0-1.28-1.62h0a1.69,1.69,0,0,0,1.19-1.43,1.42,1.42,0,1,0-1.68,1.44,1.37,1.37,0,0,0-1.19,1.17,1.45,1.45,0,0,0,1.3,1.53h0a2.21,2.21,0,0,0-.08.35,1.65,1.65,0,0,0,1,1.94c.68.13,1.36-.48,1.54-1.42A1.72,1.72,0,0,0,275.29,134.72Z"/><path id="路径_4490-2" data-name="路径 4490-2" class="cls-60" d="M279.41,142.89l-.05,0a1.33,1.33,0,0,0-.78-1.18.93.93,0,0,0-1.22.49.79.79,0,0,0-.06.22,1.33,1.33,0,0,0,.75,1.48l.16.05h0c-.19.79,0,1.58.46,1.78s1-.24,1.2-1A1.56,1.56,0,0,0,279.41,142.89Z"/><path id="路径_4491-2" data-name="路径 4491-2" class="cls-60" d="M280.26,152.81c-.37-.24-.88.23-1.12,1s-.16,1.62.19,1.84.84-.22,1.11-1S280.63,153.05,280.26,152.81Z"/></g></g><path id="路径_4492" data-name="路径 4492" class="cls-56" d="M167.59,32.65a2.05,2.05,0,0,0-.55.1,3.07,3.07,0,0,0,.05-.68,3.35,3.35,0,0,0-3.57-3.1h0a3.55,3.55,0,0,0-1.71.51,4,4,0,0,0-7.44,1.6,2.83,2.83,0,0,0-1.65-.44,2.65,2.65,0,1,0-.08,5.29h.28a2.82,2.82,0,0,0,2.5-1.72,4,4,0,0,0,5.65.19,3.51,3.51,0,0,0,2.71,1.07,3.58,3.58,0,0,0,2-.69,1.89,1.89,0,0,0,2,1.44,1.79,1.79,0,1,0,.15-3.58h0a1.51,1.51,0,0,0-.3,0Z"/><path id="路径_4493" data-name="路径 4493" class="cls-56" d="M125.16,36.72a4.37,4.37,0,0,0-.72.45,3.32,3.32,0,0,0-.25-.83c-.93-2.08-3.81-2.74-6.42-1.47a6.55,6.55,0,0,0-2.13,1.64,6.2,6.2,0,0,0-5.94-.1c-2.75,1.33-4.26,4.14-3.65,6.54a4.92,4.92,0,0,0-2.5.49c-2.1,1-3.18,3.2-2.42,4.89s3.08,2.23,5.18,1.21A4.49,4.49,0,0,0,109,46a6.49,6.49,0,0,0,4.87-.4,7.07,7.07,0,0,0,3.06-2.82,5.78,5.78,0,0,0,4.26-.4,6.35,6.35,0,0,0,2.41-2,2.74,2.74,0,0,0,3.44.48c1.48-.72,2.27-2.22,1.75-3.35S126.63,36,125.16,36.72Z"/><g id="组_1874" data-name="组 1874"><path id="路径_4494" data-name="路径 4494" class="cls-56" d="M143,27.15l-1.57,4.15,1,.18L141,35l1.37.11-1.13,5,2.62,0Z"/><path id="路径_4495" data-name="路径 4495" class="cls-47" d="M146.49,39.63l-2.6.4L143,27.15Z"/><path id="路径_4496" data-name="路径 4496" class="cls-7" d="M148.34,38.81l-1.84.82L143,27.15l2.38,2.62-.79.62,2.74,2.3-1.05,1.45,2.83,4.24Z"/></g><g id="组_1657" data-name="组 1657"><path id="路径_3428" data-name="路径 3428" class="cls-65" d="M173.94,63.07c-2.32,1.26-2.42,3.39-.28,4.82l8.6-4.67a9.4,9.4,0,0,0-8.32-.15"/><path id="路径_3429" data-name="路径 3429" class="cls-66" d="M173.53,62.85a10.35,10.35,0,0,1,9.13.15l5.07-2.75-15.91-9.82-3.3,1.79,5.93,3.66-2.91,1.58c.44,1.13-.1,2.34-1.62,3.16a8.92,8.92,0,0,1-5.55.73l-2.91,1.58-5.94-3.66-3.3,1.79,15.92,9.82,5.07-2.75c-2.34-1.57-2.22-3.9.32-5.28"/><path id="路径_3430" data-name="路径 3430" class="cls-65" d="M182.33,68.25c2.3-1.25,2.42-3.35.33-4.78l-8.6,4.66a9.45,9.45,0,0,0,8.27.12"/><path id="路径_3431" data-name="路径 3431" class="cls-66" d="M188.13,60.5l-5.07,2.75c2.35,1.57,2.22,3.9-.32,5.28a10.35,10.35,0,0,1-9.13-.15l-5.07,2.75L184.45,81l3.3-1.79-5.93-3.66,2.91-1.58c-.44-1.13.1-2.34,1.62-3.16a9,9,0,0,1,5.56-.73l2.9-1.58,5.94,3.66,3.3-1.79Z"/><path id="路径_3432" data-name="路径 3432" class="cls-56" d="M158.24,57.79l2.47,1.53,7.56-4.1-2.47-1.53,2.31-1.25-.4-.25-2.31,1.26-.4.22.4.24,2.07,1.29-6.74,3.66-2.08-1.28h0l6.75-3.66-.4-.25-6.75,3.66h0l-.4.22Z"/><path id="路径_3433" data-name="路径 3433" class="cls-56" d="M204.86,70.34,171.83,50l-3.71,2h0l-.4.22.4.25,5.54,3.42-12.19,6.61-5.53-3.42h0l2.31-1.26-.4-.24-2.31,1.25h0l-.4.22.4.25,5.93,3.66,9.6-5.21c.26,1-.25,2-1.53,2.66a8,8,0,0,1-4.68.71l-.48.26a8.92,8.92,0,0,0,5.55-.73c1.52-.83,2.06-2,1.62-3.16l-.22.11,3.13-1.69-5.93-3.66h0l3.3-1.79,15.91,9.82.12-.07h0l-.12.07L182.67,63l.2.12a1.37,1.37,0,0,1,.2.13l5.07-2.76,15.92,9.83-3.3,1.79-5.94-3.66L191.92,70a9,9,0,0,0-5.56.72c-1.52.83-2.06,2-1.62,3.17l-2.91,1.58,5.93,3.66.4.24.41-.22,2.31-1.25-.4-.25-2.31,1.26-5.54-3.42,12.18-6.61,5.54,3.42.4.24.4-.21Zm-19.64,3.32c-.27-1,.24-2,1.53-2.66a8,8,0,0,1,4.68-.71Z"/><path id="路径_3434" data-name="路径 3434" class="cls-38" d="M164.17,51.34c.28-.15.5,0,.49.3l-.07,2.75-.4.22.07-2.76c0-.06,0-.09-.1-.06L160.1,54a.27.27,0,0,0-.11.18l-.07,2.75-.4.22.07-2.76a1.11,1.11,0,0,1,.52-.84Z"/><path id="路径_3435" data-name="路径 3435" class="cls-38" d="M196.65,71.5c.28-.15.5,0,.49.3l-.07,2.76-.4.21.07-2.75c0-.07,0-.09-.1-.06l-4.06,2.19a.25.25,0,0,0-.11.17l-.07,2.76-.4.21.07-2.75a1.1,1.1,0,0,1,.52-.85Z"/></g><g id="组_1672" data-name="组 1672"><path id="路径_3473" data-name="路径 3473" class="cls-67" d="M44.61,99.34a.63.63,0,0,1-.42-.21A.53.53,0,0,1,44.61,99.34Z"/><path id="路径_3474" data-name="路径 3474" class="cls-67" d="M45,97.41l.1,0C45,97.51,45,97.44,45,97.41Z"/></g></g></g><path id="路径_4422" data-name="路径 4422" class="cls-47" d="M143.14,327.37a185.93,185.93,0,0,1-40.21-49.07l-.07.06c-3.92,3.21-4.53,9.38-2,15.35a10.92,10.92,0,0,0,.88,12.83,11.47,11.47,0,0,0,2.72,2.48,5.07,5.07,0,0,0-.46.35c-3.22,2.63-3.34,7.89-.27,11.73a8.83,8.83,0,0,0,9.12,3.38,11.76,11.76,0,0,0,2.4,9.49,11.15,11.15,0,0,0,15.64,2h0l.14-.11c.3-.25.59-.52.87-.8l0,.05c5.69,7.12,14.29,9.63,19.22,5.6a8.93,8.93,0,0,0,2.89-4.61Q148.48,332,143.14,327.37Z"/><ellipse id="椭圆_235" data-name="椭圆 235" class="cls-68" cx="57.25" cy="138.84" rx="20.98" ry="5.71" transform="translate(-91.99 155.6) rotate(-74)"/></g></g></svg>