<svg xmlns="http://www.w3.org/2000/svg" viewBox="0 0 121.73 120.46"><defs><style>.cls-1{fill:#f4d2d7;}.cls-2{fill:#99b97b;}.cls-3{fill:#69a9c5;}.cls-4{fill:#deaab3;}.cls-5{fill:#fff;}.cls-6{fill:#f3c71e;}.cls-7{fill:#d54e53;}.cls-8{fill:#e2513b;}.cls-9{fill:#f3da42;}.cls-10{fill:#f4d93c;}.cls-11{fill:#f5da3a;}.cls-12{fill:#f3d93b;}.cls-13{fill:#be3e40;}.cls-14{fill:#f5c74b;}.cls-15{fill:#040000;}.cls-16{fill:#ebd471;}.cls-17,.cls-18{fill:none;stroke-miterlimit:10;}.cls-17{stroke:#fff;}.cls-18{stroke:#e1ad47;}.cls-19{fill:#f5e6d6;}.cls-20{fill:#e4f2ee;opacity:0.52;isolation:isolate;}.cls-21{fill:#595758;}.cls-22{fill:#e0a396;}</style></defs><title>组 1672-2 (2)</title><g id="圖層_2" data-name="圖層 2"><g id="圖層_6" data-name="圖層 6"><g id="组_1672-2" data-name="组 1672-2"><path id="Path_3284" data-name="Path 3284" class="cls-1" d="M80.9,55,84,61.77l-6.19,4.46Z"/><g id="Group_1541" data-name="Group 1541"><path id="Path_3275" data-name="Path 3275" class="cls-2" d="M115.06,85.26a3.53,3.53,0,0,1-2,.46c-8.08-.6-20.4-6.3-22.33-7.32a3.73,3.73,0,0,1-1.6-5,3.55,3.55,0,0,1,4.78-1.57h0l.09,0a71.14,71.14,0,0,0,19.45,6.48,3.75,3.75,0,0,1,3.43,3.94,3.6,3.6,0,0,1-1.8,2.94Z"/><path id="Path_3276" data-name="Path 3276" class="cls-1" d="M115.06,85.26a3.53,3.53,0,0,1-2,.46c-8.08-.6-20.4-6.3-22.33-7.32a3.73,3.73,0,0,1-1.6-5,3.55,3.55,0,0,1,4.78-1.57h0l.09,0a71.14,71.14,0,0,0,19.45,6.48,3.75,3.75,0,0,1,3.43,3.94,3.6,3.6,0,0,1-1.8,2.94Z"/><path id="Path_3277" data-name="Path 3277" class="cls-3" d="M116.87,82.32a3.75,3.75,0,0,0-3.43-3.94,22.81,22.81,0,0,1-2.61-.39,10.73,10.73,0,0,0-1.45,7.17,30.32,30.32,0,0,0,3.67.53,3.45,3.45,0,0,0,2-.45,3.57,3.57,0,0,0,1.81-2.94Z"/></g><g id="Group_1545" data-name="Group 1545"><path id="Path_3282" data-name="Path 3282" class="cls-1" d="M119.93,57a3.58,3.58,0,0,1-3.45,0c-4.76-2.5-14.19-.65-16.63,1.29a3.63,3.63,0,0,1-5.09-.63h0l0,0a3.68,3.68,0,0,1,.55-5.15c4.42-3.52,16.91-6,24.44-2a3.75,3.75,0,0,1,1.62,5A3.52,3.52,0,0,1,119.93,57Z"/><path id="Path_3283" data-name="Path 3283" class="cls-3" d="M116.48,57a3.58,3.58,0,0,0,3.45,0,3.54,3.54,0,0,0,1.42-1.5,3.75,3.75,0,0,0-1.61-5A16.9,16.9,0,0,0,116,49.11a10.65,10.65,0,0,0-1.78,7.08,9.78,9.78,0,0,1,2.29.82Z"/></g><path id="Path_3285" data-name="Path 3285" class="cls-1" d="M95.27,49.17h0c-14.66-3.92-20.81-3.08-20.81-3.08l-6.91,25s14.53,6,20.29,7.65a4.05,4.05,0,0,0,.47.12,24.4,24.4,0,0,0,5.19,1.25c1.8-.05,6-4.27,8.91-13.6,1.91-9,1.32-13.85-1.4-15.59A24.14,24.14,0,0,0,95.27,49.17Z"/><path id="Rectangle_316" data-name="Rectangle 316" class="cls-4" d="M85.7,66.22l2-7.34A6,6,0,0,1,95,54.61h0A6,6,0,0,1,99.29,62h0l-2,7.33A6,6,0,0,1,90,73.58h0a6,6,0,0,1-4.28-7.36Z"/><circle id="Ellipse_227" data-name="Ellipse 227" class="cls-5" cx="95.22" cy="59.57" r="1.47"/><circle id="Ellipse_228" data-name="Ellipse 228" class="cls-5" cx="92.32" cy="70.46" r="1.47"/><circle id="Ellipse_229" data-name="Ellipse 229" class="cls-5" cx="93.83" cy="64.81" r="1.47"/><path id="Rectangle_317" data-name="Rectangle 317" class="cls-5" d="M87.16,69.86l3.39-12.73a.71.71,0,0,1,.87-.51h0a.72.72,0,0,1,.5.88L88.54,70.23a.71.71,0,0,1-.87.51h0A.72.72,0,0,1,87.16,69.86Z"/><path id="路径_3473-2" data-name="路径 3473-2" class="cls-6" d="M80.78,19a.74.74,0,0,1-.54-.12A.62.62,0,0,1,80.78,19Z"/><path id="路径_3474-2" data-name="路径 3474-2" class="cls-6" d="M80.67,16.64h.13C80.76,16.74,80.71,16.67,80.67,16.64Z"/><g id="组_1670" data-name="组 1670"><path id="路径_3475" data-name="路径 3475" class="cls-6" d="M91.63,16.79a14.32,14.32,0,0,1,2.16,1.37,26.46,26.46,0,0,1,3.08,2.6l.18.21c.16,1.06.18,2.15.29,3.22,0,.1,0,.24-.13.21a.6.6,0,0,1-.3-.19A24.35,24.35,0,0,0,92,20.44c-.08-.05-.2-.08-.18-.23h0c0-.95-.13-1.88-.18-2.82A1.51,1.51,0,0,1,91.63,16.79Z"/><g id="组_1669" data-name="组 1669"><path id="路径_3476" data-name="路径 3476" class="cls-7" d="M52.15,106.29a2.51,2.51,0,0,1,.21-1.43,12.13,12.13,0,0,1,1.47-2.57A44.32,44.32,0,0,1,59,96.48c1-1,2.05-2,3-3.12a4.28,4.28,0,0,1,1-.89c.49-.3.84-.17,1.1.43a1.89,1.89,0,0,1,.78-.17.91.91,0,0,1,.93.63,3.21,3.21,0,0,1,.18.87c.11,1,.05,2,.14,3.06a17.78,17.78,0,0,0,.23,2.06c.27,1.25.56,2.5.82,3.75a30.07,30.07,0,0,1,.75,5.5,7.81,7.81,0,0,1-.05,1.08,3.52,3.52,0,0,1-1.41,2.56,4.9,4.9,0,0,1-1.54,1,5.4,5.4,0,0,1-3.46-.15,1.45,1.45,0,0,1-.9-.83c-.15,0-.2.19-.27.29a26.11,26.11,0,0,1-2.53,3,1.73,1.73,0,0,1-1.4.53.91.91,0,0,1-.85-.73,5.51,5.51,0,0,1-.15-1.4,26.77,26.77,0,0,0-.14-2.69,7.15,7.15,0,0,0-1.47-3.75c.18-.1.18-.1.36,0a3.58,3.58,0,0,1,1,1.27,8,8,0,0,1,.71,3.23c0,.74.08,1.48.17,2.21s.73.92,1.37.54a4.27,4.27,0,0,0,.95-.9,23.47,23.47,0,0,0,4.43-7.55.57.57,0,0,0,0-.14.24.24,0,0,1,0-.13h0a.5.5,0,0,0-.05.13,16.93,16.93,0,0,1-2.14,4.11,19.38,19.38,0,0,1-2.36,2.91,1.59,1.59,0,0,1-1,.49,1,1,0,0,1-1.11-.78.53.53,0,0,1,0-.13,8.35,8.35,0,0,1-.11-1.5,8.24,8.24,0,0,0-.64-3.67,3.79,3.79,0,0,0-1.54-1.79c-.38-.21-.43-.17-.59.28-.08.24,0,.58-.3.71A5.87,5.87,0,0,1,52.15,106.29Z"/><path id="路径_3477" data-name="路径 3477" class="cls-6" d="M58.6,69.17a2.43,2.43,0,0,1-1-.28,20.33,20.33,0,0,0-3.77-.84c-.57,0-1.15,0-1.72,0a29.46,29.46,0,0,0-3.25.27,13.71,13.71,0,0,0-2.76.59,17.27,17.27,0,0,0-3,1.21,15.07,15.07,0,0,0-4,3c-.36.37-.66.8-1,1.16a7.69,7.69,0,0,0-.84,1.21,17.13,17.13,0,0,0-1.4,2.6,22.2,22.2,0,0,0-1.24,3.63,31,31,0,0,0-.76,4.39c-.08.74-.1,1.49-.12,2.24,0,.92,0,1.82.05,2.73a5.07,5.07,0,0,0,0,1c.22.75.11,1.56.35,2.31a.49.49,0,0,1,0,.41,13.05,13.05,0,0,1-.82-3.49c-.06-.67-.11-1.34-.16-2a.32.32,0,0,0,.06-.27,30.2,30.2,0,0,1,.48-6.44A23.91,23.91,0,0,1,35,77.76a18.53,18.53,0,0,1,1.74-3.37c.27-.41.55-.81.85-1.19a14.85,14.85,0,0,1,7.08-4.92c.51-.16,1-.28,1.56-.4a16.9,16.9,0,0,1,3-.48c.63,0,1.26-.06,1.9,0l1.5,0a9.29,9.29,0,0,1,2,.3,14.62,14.62,0,0,1,2.41.75c.41.17.84.31,1.25.49C58.4,69,58.54,69,58.6,69.17Z"/><path id="路径_3478" data-name="路径 3478" class="cls-8" d="M53,106.8a1.56,1.56,0,0,0,.17-.63,1.92,1.92,0,0,1,.31-.72,4.2,4.2,0,0,1,2.34,2.82,9.53,9.53,0,0,1,.37,3,8.46,8.46,0,0,0,.1,1.51.81.81,0,0,0,.87.74,1.27,1.27,0,0,0,.92-.36c.39-.39.77-.81,1.13-1.24s.77-1,1.14-1.49a23.23,23.23,0,0,0,2.13-3.72,3.85,3.85,0,0,1,.34-.71h0a.85.85,0,0,1-.06.42,22.88,22.88,0,0,1-3.52,6.47,16.23,16.23,0,0,1-1.51,1.7,1.45,1.45,0,0,1-1,.41.8.8,0,0,1-.86-.73v0c-.06-.86-.11-1.73-.16-2.58a6.2,6.2,0,0,0-1.2-3.64,6.17,6.17,0,0,0-.66-.6s-.08,0-.11,0Z"/><path id="路径_3479" data-name="路径 3479" class="cls-9" d="M58.28,46.87l.14,1.61a.28.28,0,0,1,0,.38c-.16-.15-.09-.35-.13-.53s0-.6-.15-.86A2.05,2.05,0,0,1,58.28,46.87Z"/><path id="路径_3480" data-name="路径 3480" class="cls-6" d="M97.31,24.38l.09.08,1.16,1.26a36.52,36.52,0,0,1,2.44,3,43,43,0,0,1,3.64,5.7c.83,1.53,1.57,3.1,2.26,4.71.81,1.92,1.52,3.89,2.16,5.88.48,1.54.91,3.1,1.29,4.67.22.93.39,1.88.6,2.82s.34,1.9.5,2.86.28,2.2.45,3.3c.21,1.33.29,2.68.37,4,0,.9.13,1.81.14,2.72s0,1.66,0,2.49c0,1.17-.05,2.34-.11,3.52-.12,2.16-.3,4.3-.61,6.44-.19,1.31-.41,2.6-.66,3.89-.3,1.61-.68,3.19-1.13,4.75a54.77,54.77,0,0,1-1.81,5.33c-.37.91-.75,1.81-1.16,2.7-.55,1.17-1.16,2.32-1.82,3.44-.41.69-.86,1.34-1.26,2a.56.56,0,0,1-.05.08c-.51.59-.88,1.3-1.39,1.9-.66.78-1.33,1.57-2.05,2.3a24.33,24.33,0,0,1-2.44,2.21,19.69,19.69,0,0,1-3.32,2.16,15,15,0,0,1-2.05.91l-.2.08A20.08,20.08,0,0,1,89,110c-1.21,0-2.42,0-3.62-.06a27.56,27.56,0,0,1-5.25-.88,7.39,7.39,0,0,1-2.39-.91h0a7.2,7.2,0,0,1,1.39.32,32,32,0,0,0,3.5.6c.51.06,1,.11,1.54.15a8.25,8.25,0,0,0,1,0c.45,0,.9,0,1.34,0a24.36,24.36,0,0,0,2.82-.23,8.53,8.53,0,0,0,2.67-.72A20.62,20.62,0,0,0,95.89,106a23.63,23.63,0,0,0,3.11-2.8,29.09,29.09,0,0,0,2.27-2.69c.55-.74,1.07-1.52,1.57-2.31a40.74,40.74,0,0,0,2-3.59q.84-1.71,1.56-3.48c.33-.83.64-1.66.93-2.5.5-1.48,1-3,1.33-4.5q.42-1.64.75-3.3c.3-1.52.54-3,.74-4.59.15-1.15.27-2.3.37-3.45.07-1,.14-1.9.17-2.86l.06-2c0-.41,0-.82,0-1.23,0-.75-.07-1.5,0-2.25,0-.51-.1-1-.1-1.55a24.85,24.85,0,0,0-.2-3.34c-.14-1-.19-2-.33-3s-.2-1.71-.38-2.55-.36-1.87-.54-2.79c-.3-1.64-.72-3.25-1.14-4.85-.31-1.2-.71-2.38-1.1-3.56a61.51,61.51,0,0,0-3-7.25c-.7-1.46-1.49-2.87-2.32-4.24A42.89,42.89,0,0,0,98,26.2a2,2,0,0,0-.49-.51.06.06,0,0,1,0-.07s0,0,0,0a29.85,29.85,0,0,0-5.57-5h0c-.44-.3-.89-.6-1.34-.88-.08-.06-.18-.09-.23-.2a5.34,5.34,0,0,1,1.46.71,28.28,28.28,0,0,1,2.48,1.6c.26.18.51.4.76.6s.74.66,1.14.94a2.44,2.44,0,0,1,.6.6A1.5,1.5,0,0,0,97.31,24.38Z"/><path id="路径_3481" data-name="路径 3481" class="cls-6" d="M58.45,48.86l0-.37a15.78,15.78,0,0,0,.32-1.8q.46-2.73,1.16-5.42a54,54,0,0,1,1.94-6.22A45.24,45.24,0,0,1,64.63,29q.74-1.3,1.53-2.58a36,36,0,0,1,2.46-3.32,24.64,24.64,0,0,1,2.72-2.78,22.16,22.16,0,0,1,3.29-2.4,18.1,18.1,0,0,1,4-1.77,8.35,8.35,0,0,1,1.91-.41c.34,0,.64-.18,1-.21a17.9,17.9,0,0,1,7.05.79c.68.23,1.34.47,2,.76a.33.33,0,0,1,.16.15h0a3.92,3.92,0,0,1-1.17-.33,16.68,16.68,0,0,0-3-.57,11.36,11.36,0,0,0-2.54,0c-.28,0-.54-.05-.82,0a18.63,18.63,0,0,0-6.25,2A21.3,21.3,0,0,0,74,20.23a24.73,24.73,0,0,0-2.73,2.49,27.24,27.24,0,0,0-2.72,3.33,43,43,0,0,0-3.47,6A53.84,53.84,0,0,0,62.74,38a56.71,56.71,0,0,0-2,7.81q-.59,3-.91,6c-.14,1.29-.22,2.58-.34,3.88-.05.57,0,1.15-.06,1.73s0,1.34-.08,2a2.19,2.19,0,0,0,0,.51,1.14,1.14,0,0,1-.05.52,2.74,2.74,0,0,1,.08,1,.3.3,0,0,0-.06.26c.1,1,.1,2.07.14,3.1,0,1.31.17,2.61.25,3.9,0,0,0,.09,0,.14s-.21,0-.29,0a5.69,5.69,0,0,0-.77-.32c-.44-.09-.57-.34-.59-.81,0-1-.19-1.94-.21-2.91s-.12-1.82-.13-2.73,0-1.63,0-2.44,0-1.47,0-2.21.09-1.65.1-2.48c0-.39.06-.78.08-1.17.08-1.47.27-2.93.43-4.39A5.23,5.23,0,0,1,58.45,48.86Z"/><path id="路径_3482" data-name="路径 3482" class="cls-10" d="M91.93,20.58q1.66,20.69,3.34,41.36l0,.33-.08,0,0-.45c-.23-2.91-.47-5.81-.7-8.71q-1.29-16-2.57-32c0-.19-.11-.4,0-.59Z"/><path id="路径_3483" data-name="路径 3483" class="cls-11" d="M97.5,25.6a.28.28,0,0,0,0,.09l1.83,22.73q.51,6.4,1,12.8l0,.51-.09,0,0-.45L99.15,47.23q-.86-10.51-1.69-21C97.44,26,97.35,25.79,97.5,25.6Z"/><path id="路径_3484" data-name="路径 3484" class="cls-12" d="M59.38,61.49c0-.34-.05-.69-.08-1,.1.07.1.18.11.29.14,1.7.27,3.41.41,5.11a.16.16,0,0,1-.08.14Z"/><path id="路径_3485" data-name="路径 3485" class="cls-6" d="M58.78,69.25a.18.18,0,0,1-.18-.08A.15.15,0,0,1,58.78,69.25Z"/><path id="路径_3486" data-name="路径 3486" class="cls-6" d="M58.78,69.25a.16.16,0,0,1,.18.07h0A.16.16,0,0,1,58.78,69.25Z"/><path id="路径_3487" data-name="路径 3487" class="cls-6" d="M59,69.32l.12,0c-.06.1-.08,0-.11,0Z"/><path id="路径_3488" data-name="路径 3488" class="cls-6" d="M77.75,108.19s0,0,0,0S77.73,108.15,77.75,108.19Z"/><path id="路径_3489" data-name="路径 3489" class="cls-13" d="M65.23,96.08c.12,1,0,2,.15,3a18,18,0,0,0,.39,2.07c.12.56.26,1.12.36,1.68s.27,1.31.4,2c0,.12,0,.24,0,.37.06.78.14,1.57.18,2.35a7.41,7.41,0,0,1-.39,3.1,2.58,2.58,0,0,1-2.19,1.82,4.29,4.29,0,0,1-2.5-.33,2,2,0,0,1-.35-.19c-.44-.32-.45-.32-.15-.79a24.18,24.18,0,0,0,2-3.8,15.57,15.57,0,0,0,1.3-5,8.26,8.26,0,0,0-.55-3.81,6.14,6.14,0,0,1-.24-4.39.32.32,0,0,1,.36-.26h0A1.15,1.15,0,0,1,65.14,95C65.18,95.35,65.2,95.7,65.23,96.08Z"/><path id="路径_3490" data-name="路径 3490" class="cls-8" d="M62.87,105.86c0,.07,0,.15-.07.19h0a.18.18,0,0,1,.07-.19Z"/><path id="路径_3491" data-name="路径 3491" class="cls-8" d="M62.87,105.86l0-.13c.09.06,0,.09,0,.13Z"/><path id="路径_3492" data-name="路径 3492" class="cls-14" d="M82.37,14.29A16.15,16.15,0,0,0,75.63,16a23,23,0,0,0-7.53,6.2,39.06,39.06,0,0,0-5.47,9.17,60.5,60.5,0,0,0-4,13.24,19.34,19.34,0,0,0-.37,2.28,3,3,0,0,0,0,.67.14.14,0,0,0-.12-.07c-.17,1-.27,2-.38,3q-.36,3.41-.44,6.83c0,1.8,0,3.59,0,5.38s.16,3.5.34,5.24c0,.1.06.21,0,.3-.71-.21-1.41-.45-2.12-.65a17.08,17.08,0,0,0-4.76-.7,20,20,0,0,0-3.08.33A20,20,0,0,0,43,68.54a15.24,15.24,0,0,0-6.28,5,20.21,20.21,0,0,0-3.5,9.74A26.78,26.78,0,0,0,33,86.49a20.55,20.55,0,0,0,.13,2.83c.22-.08.16-.28.15-.43a18.68,18.68,0,0,1,0-2,27.08,27.08,0,0,1,2.3-10.18A15.66,15.66,0,0,1,41,70.25a16.42,16.42,0,0,1,6.53-2.49,21.06,21.06,0,0,1,3.06-.26,16.58,16.58,0,0,1,3.52.22,24.82,24.82,0,0,1,3.38,1,14.9,14.9,0,0,0-5.85-.84,21.72,21.72,0,0,0-7.29,1.51,15.82,15.82,0,0,0-8.13,7.66,25.05,25.05,0,0,0-2.46,9.17A30.29,30.29,0,0,0,33.8,93c.08.62.22,1.22.3,1.84a9.22,9.22,0,0,0,.79,1.72,16.7,16.7,0,0,0,5,6,17.51,17.51,0,0,0,12.21,3.79c.17-.42.11-.89.29-1.32a13,13,0,0,1,1.39-2.46,46,46,0,0,1,5-5.67,39.35,39.35,0,0,0,2.92-3A5.06,5.06,0,0,1,63,92.58c.25-.14.55-.23.71,0a.6.6,0,0,0,.74.28,1.16,1.16,0,0,1,1.31.94,3.29,3.29,0,0,1,0,.54c.08,1.49.11,3,.28,4.47,0,.17-.06.42.19.49L67,98.07a.56.56,0,0,1,.21.27,40.51,40.51,0,0,0,7.72,9.34A18.43,18.43,0,0,0,77,109.22a13,13,0,0,0,2.36,1.39,33.38,33.38,0,0,0,5.7,1.63A16.58,16.58,0,0,0,92,112a15.18,15.18,0,0,0,4.72-2.15,24.64,24.64,0,0,0,5.78-5.38,39.07,39.07,0,0,0,5.08-8.55,59.79,59.79,0,0,0,4.08-13.4,78.06,78.06,0,0,0,1.3-12.19c.07-2.16.07-4.32,0-6.47a90.69,90.69,0,0,0-1-10.14c-.37-2.2-.8-4.38-1.32-6.53a70.68,70.68,0,0,0-3.74-11.28,50.52,50.52,0,0,0-7.18-12.16,25.47,25.47,0,0,0-2.38-2.6c-.27.08-.18.32-.17.5.07.91.12,1.82.23,2.73a.94.94,0,0,0,.32.49c.8.84,1.58,1.7,2.31,2.61a46.89,46.89,0,0,1,4.92,7.56,62.27,62.27,0,0,1,5,13.31q.78,3,1.3,6.07c.31,1.85.56,3.7.75,5.57.14,1.28.21,2.57.26,3.86,0,1.5.1,3,.09,4.51a71.6,71.6,0,0,1-.77,10,59.13,59.13,0,0,1-3.59,13.53,37.62,37.62,0,0,1-8.14,12.78,21.63,21.63,0,0,1-4.39,3.35,11.85,11.85,0,0,1-3.09,1.42,19.64,19.64,0,0,1-4.58.48,27.78,27.78,0,0,1-9.22-1.48l.32.11a27.9,27.9,0,0,0,10.84.58,9.49,9.49,0,0,0,1.9-.5,20.75,20.75,0,0,0,6.16-4,30.09,30.09,0,0,0,5.09-6.16,47,47,0,0,0,5-10.83,63.7,63.7,0,0,0,2.58-12c.3-2.47.45-5,.52-7.45,0-2.25-.08-4.5-.15-6.74,0-1-.19-1.94-.29-2.91-.21-2-.48-4-.84-5.92a68.75,68.75,0,0,0-2.12-8.6A58.39,58.39,0,0,0,102,31.59a44.14,44.14,0,0,0-3.85-5.44,1.81,1.81,0,0,0-.42-.41c-.12-.08-.23-.09-.21.12q1.44,17.88,2.88,35.76Q98.92,43.71,97.47,25.8a.41.41,0,0,0-.11-.5A32.67,32.67,0,0,0,93,21.23a9.64,9.64,0,0,0-.84-.58c-.12-.08-.22-.1-.26,0a.39.39,0,0,0-.23-.36c-.42-.25-.83-.5-1.26-.72.35.17.69.37,1,.57.12.07.26.22.41,0a.83.83,0,0,0,0-.15c0-.94-.15-1.87-.22-2.8a.92.92,0,0,0-.16-.48l0,0A17.25,17.25,0,0,0,82.37,14.29Zm-4.48,93.95.4.15-.43-.15a.09.09,0,0,0-.1,0s0,0,0,0a.21.21,0,0,0,.11,0ZM58.31,47.77c0,.12,0,.24,0,.36,0-.11,0-.22,0-.33v0Zm0,21.27.24.09.09.05a.34.34,0,0,0-.12-.06L58.28,69Zm.44.17-.07,0,.07,0a0,0,0,0,0,.05,0h0l0,0a.08.08,0,0,0-.05-.05ZM85.9,78.86A8.86,8.86,0,0,1,79.36,83a5,5,0,0,1-2.79-.46c-3-1.6-3.07-6.22-3.3-9.34-.49-6.64-1.36-13.3-.91-20,.2-3.12.75-6.35,2.45-8.89,1.36-2,3.86-3.53,6-2.51,1.56.77,2.34,2.63,2.92,4.38a96.27,96.27,0,0,1,3.55,17.14c.67,4.94,1.42,10.58-1.12,15.1l-.21.37ZM59.75,65.54c0-.34-.06-.72-.09-1.11,0,.38.05.75.09,1.11Zm-.1-1.17c0-.51-.08-1.06-.13-1.62,0,.55.1,1.1.13,1.62Zm35.59-2.25c-.31-3.78-.62-7.59-.92-11.38q.47,5.73,1,11.47s0,.06-.06-.09ZM91.91,20.81q.74,8.82,1.42,17.65-.72-8.85-1.43-17.71a.09.09,0,0,0,0-.05.4.4,0,0,0,0,.11Zm-1.53-1.29-.18-.11.18.11Zm.25-2.36c.05,0,.07.07.13,0s-.08,0-.13,0l0,0A2.22,2.22,0,0,1,90.1,17l.53.19ZM87.44,16.1a23.36,23.36,0,0,1,2.33.74,15.81,15.81,0,0,0-8.16-.41,18.74,18.74,0,0,0-8.47,4.36A30.43,30.43,0,0,0,67,28.26a54.45,54.45,0,0,0-6.39,17.36A68.67,68.67,0,0,0,59.4,55a52.29,52.29,0,0,0-.14,5.6c.06.31.09.63.13.94-.23,0-.19.22-.18.35.06.62,0,1.23,0,1.85.12,1.51.1,3,.28,4.57a1.31,1.31,0,0,1,0,.28c0,.09-.07.15-.15.13a3.6,3.6,0,0,1-1-.42c-.23-.15-.18-.45-.21-.69q-.31-3.66-.34-7.35a82.22,82.22,0,0,1,.43-9c.08-.78.21-1.55.26-2.34a2.77,2.77,0,0,1-.11-.48c.19.21.18-.07.2-.15.1-.46.17-.93.24-1.4a62,62,0,0,1,2.64-10.49,46.68,46.68,0,0,1,3.34-7.51,30.21,30.21,0,0,1,8-9.59,17.15,17.15,0,0,1,9.79-3.67,16.57,16.57,0,0,1,4.86.49Z"/><g id="组_1667" data-name="组 1667"><path id="路径_3493" data-name="路径 3493" class="cls-5" d="M43.84,96.62a1.91,1.91,0,0,1,1-1.89,3.35,3.35,0,0,1,1.94-.41,4.91,4.91,0,0,1,3.55,1.81,2.73,2.73,0,0,1,.57,1.14A2,2,0,0,1,50,99.52a3.39,3.39,0,0,1-2.16.4,5,5,0,0,1-3.22-1.64A2.79,2.79,0,0,1,43.84,96.62Z"/><path id="路径_3494" data-name="路径 3494" class="cls-15" d="M47,95.07a3.54,3.54,0,0,1,2.67,1,2.52,2.52,0,0,1,.45.62,1.44,1.44,0,0,1-.45,2,1.51,1.51,0,0,1-.22.11A2.67,2.67,0,0,1,48,99a3.43,3.43,0,0,1-2.06-1.08,2,2,0,0,1-.54-1,1.33,1.33,0,0,1,.58-1.45A2.27,2.27,0,0,1,47,95.07Z"/><path id="路径_3495" data-name="路径 3495" class="cls-5" d="M46.21,96.05a1.42,1.42,0,0,1,1.21.51.63.63,0,0,1,.06.89.64.64,0,0,1-.38.22,1.35,1.35,0,0,1-1.29-.38.75.75,0,0,1-.26-.79A.68.68,0,0,1,46.21,96.05Z"/></g><g id="组_1668" data-name="组 1668"><path id="路径_3496" data-name="路径 3496" class="cls-16" d="M70.61,76.88c0,.53.17,1,.27,1.56a21.82,21.82,0,0,1,.3,3.13c0,1,.08,2,0,3,0,.63-.06,1.25-.07,1.87s-.07,1.31-.13,2c-.11,1.37-.22,2.74-.34,4.11a11.8,11.8,0,0,0-.07,2.3,9,9,0,0,0,.7,2.65,12.61,12.61,0,0,0,1.5,2.62,11.31,11.31,0,0,0,1.54,1.77c.18.18.38.34.56.52a17.5,17.5,0,0,0,3.8,2.76,7.74,7.74,0,0,1,.83.52,5.51,5.51,0,0,1-1.23-.51,21.31,21.31,0,0,1-2.9-1.66,22.05,22.05,0,0,1-2-1.59,20.59,20.59,0,0,1-1.57-1.53,12.11,12.11,0,0,1-1.34-1.77,12,12,0,0,1-1.32-2.8,7.45,7.45,0,0,1-.4-2.29c0-.71.06-1.41.11-2.11.1-1.37.28-2.74.35-4.12a22.39,22.39,0,0,1,.39-2.83c.3-1.65.53-3.31.72-5,.08-.69.13-1.4.18-2.1A1.41,1.41,0,0,1,70.61,76.88Z"/><path id="路径_3497" data-name="路径 3497" class="cls-16" d="M69,71.85a17.82,17.82,0,0,0-2.59-2.62,5.3,5.3,0,0,1-.88-1.12c.11-.13.17,0,.24,0l1.54.84a.63.63,0,0,1,.28.28A18.23,18.23,0,0,1,69,71.85Z"/></g><path id="路径_3498" data-name="路径 3498" class="cls-17" d="M88.74,86c4-4.77,4.57-11.81,4.52-18.25-.07-10.26-1.12-20.62-4.42-30.2"/></g><path id="路径_3499" data-name="路径 3499" class="cls-18" d="M105.26,30.71C102,26,97.86,22,92.22,20.56a15.2,15.2,0,0,0-3.42-.51A16.05,16.05,0,0,0,82,21.3,22.86,22.86,0,0,0,74,27,39,39,0,0,0,68,35.78a61.1,61.1,0,0,0-4.84,13A21.54,21.54,0,0,0,62.63,51a2,2,0,0,0-.15.59c-.23,1-.4,1.94-.57,2.92q-.58,3.38-.89,6.79c-.16,1.79-.26,3.58-.31,5.37s-.07,3.5,0,5.25c0,.1,0,.21-.07.3-.69-.26-1.37-.55-2.07-.79-5.51-1.9-12.42-1.09-17,2.6s-6.59,10.15-6.81,16.19c-.21,5.85,1.44,11.19,6,15.08a19,19,0,0,0,7.31,4c3,.81,6.43.36,7.15,4.22a22.35,22.35,0,0,1,0,4.25,3.45,3.45,0,0,0,.2,1.39,1.27,1.27,0,0,0,1.07.8,1.84,1.84,0,0,0,1.14-.55,22.6,22.6,0,0,0,2.87-3c-.12.26.22.48.49.56a12,12,0,0,0,3,.61,4.1,4.1,0,0,0,2.82-.88c1.16-1,1.38-2.72,1.4-4.26a30.62,30.62,0,0,0-.41-5.49c-.19-1.16-1.06-3.37.29-4.19,0,0,3.94,6.19,4.34,6.71a25.09,25.09,0,0,0,6.3,5.86,18.23,18.23,0,0,0,14.56,2.5c5.21-1.48,9.25-5.6,12.34-10,9.27-13.27,11.65-30.66,10.07-46.47a69.08,69.08,0,0,0-7-24.92A50.26,50.26,0,0,0,105.26,30.71Z"/></g><g id="Group_1542" data-name="Group 1542"><path id="Path_3278" data-name="Path 3278" class="cls-1" d="M94.89,49.22a15.78,15.78,0,0,1-6.83,2,3.72,3.72,0,0,1-3.93-3.41,3.58,3.58,0,0,1,3.21-3.9h.09c6-.41,8.79-5,9.83-16.5a3.56,3.56,0,0,1,3.83-3.26h.11a3.75,3.75,0,0,1,3.29,4.06,38.13,38.13,0,0,1-3.61,14.69,15.43,15.43,0,0,1-6,6.37Z"/><path id="Path_3279" data-name="Path 3279" class="cls-3" d="M101.19,24.1a3.54,3.54,0,0,0-3.93,3.14h0v.11c-.08.88-.16,1.74-.28,2.55a12.34,12.34,0,0,0,7.2,1.09c.12-.91.22-1.85.31-2.84a3.74,3.74,0,0,0-3.29-4Z"/></g><g id="Group_1544" data-name="Group 1544"><g id="Group_1543" data-name="Group 1543"><path id="Path_3280" data-name="Path 3280" class="cls-1" d="M81.34,102.17l-.81.43A3.69,3.69,0,0,1,77.14,96h0a9.63,9.63,0,0,0,1.59-17,3.72,3.72,0,0,1-.92-5.12,3.57,3.57,0,0,1,5-.88h0l.08,0a17.6,17.6,0,0,1,7.53,15.3,17,17,0,0,1-9.06,13.82Z"/></g><path id="Path_3281" data-name="Path 3281" class="cls-3" d="M79.64,94.41A14,14,0,0,1,77.15,96,3.64,3.64,0,0,0,75.62,101h0a3.66,3.66,0,0,0,4.9,1.63c.28-.14.55-.29.81-.44A20.35,20.35,0,0,0,84.41,100a12.41,12.41,0,0,0-4.77-5.63Z"/></g><path id="Path_3294" data-name="Path 3294" class="cls-3" d="M84.44,62.1A87.49,87.49,0,0,1,76,82.74a2.88,2.88,0,0,1-4,.91h0l-.09-.06a3.06,3.06,0,0,1-1-4.16,82,82,0,0,0,7.79-19,84.37,84.37,0,0,0,2.45-20.57,2.89,2.89,0,0,1,2.71-3H84a3.07,3.07,0,0,1,3.08,2.93,89.43,89.43,0,0,1-2.65,22.34Z"/><g id="组_1671" data-name="组 1671"><path id="Path_2975" data-name="Path 2975" class="cls-1" d="M74.08,72c4.71-10.54,8.71-22,9-33.66.35-16.15-5-33.12-21.9-37.11C35.17-4.87,7.26,12,1.24,38c-4.62,19.93,3.91,43,21.06,54.37,7.5,5,17,7.37,25.73,5.2C60.56,94.46,69.07,83.27,74.08,72Z"/><path id="Path_2977" data-name="Path 2977" class="cls-3" d="M66.68,5.47a9.55,9.55,0,1,1-11.9,6.4h0a9.56,9.56,0,0,1,11.89-6.4h0"/><path id="Path_2978" data-name="Path 2978" class="cls-3" d="M44.93,77.79A9.55,9.55,0,1,1,33,84.19a9.55,9.55,0,0,1,11.89-6.4h0"/><path id="Path_2979" data-name="Path 2979" class="cls-19" d="M50.44,85.48s-2.06,3.32,1.74,3.38a4.09,4.09,0,0,0,4.37-5.08c-.75-1.54-6.11,1.7-6.11,1.7"/><path id="Path_2980" data-name="Path 2980" class="cls-19" d="M69.88,20.81S70,16.9,73.2,19a4.11,4.11,0,0,1,1.71,5.54,4.19,4.19,0,0,1-.86,1.11c-1.49.87-4.17-4.79-4.17-4.79"/><path id="Path_2981" data-name="Path 2981" class="cls-19" d="M60.23,14.94C79.52,19.2,83.86,38.67,77.78,58.88,71.66,79.27,58.15,91.74,38.89,86c-16.47-5-25-24.86-19.15-44.47s23.7-30.25,40.49-26.55"/><path id="Path_2985" data-name="Path 2985" class="cls-3" d="M51,87.2l16.8-55.88-7.93-2.94,8.29,1.76.36-1.22-3.4-1.62,3.81.26,2.55-8.49S46.55,1.13,26.27,20C14.93,32.53,15.48,39,14.85,41s-7,12.51,2.1,28.44S37.21,86.32,42.31,87c1.28.17,8.57.65,8.57.65Z"/><path id="Path_2986" data-name="Path 2986" class="cls-1" d="M51.46,32.66c-.26-3.7-.05-7.12-.63-10.8-.31-2-1.35-4.23-1.71-6.2-.28-1.5,1.89.08,2,.91.19,1,.36,2,.54,3,.68-1.16,1.44-2.28,2.19-3.4,1-1.44,2.88-.24,1.92,1.19s-1.91,2.86-2.74,4.35c.06-.1-.2.41-.26.57l0,.06a1.55,1.55,0,0,1-.5.73c.58,3.66,1,7.34,1.28,11,.08,1.15-2-.58-2.1-1.42"/><path id="Path_2987" data-name="Path 2987" class="cls-20" d="M4.62,65a60.9,60.9,0,0,1-3-13.73,45.52,45.52,0,0,1,.16-13.44c.66-3.27,2.36-6.22,6.13-5.78,5.4.63,8,7.65,10,11.86,3.89,8.35,8.63,16.5,10.47,25.64A28.56,28.56,0,0,1,28,83.44a6.69,6.69,0,0,1-3.68,4.74c-4.15,1.39-8.21-3.75-10.46-6.47A53.49,53.49,0,0,1,4.62,65Z"/><ellipse id="Ellipse_140" data-name="Ellipse 140" class="cls-20" cx="42.23" cy="89.34" rx="7.14" ry="11.49" transform="translate(-49.38 126.4) rotate(-86.72)"/><path id="Path_3054" data-name="Path 3054" class="cls-21" d="M63,69.47a1.9,1.9,0,1,1-2.39,1.22A1.89,1.89,0,0,1,63,69.47h0"/><path id="Path_3055" data-name="Path 3055" class="cls-21" d="M71.83,41.15a1.9,1.9,0,1,1-2.38,1.26,1.89,1.89,0,0,1,2.38-1.26h0"/><path id="Path_3056" data-name="Path 3056" class="cls-21" d="M72.53,63.33A11.65,11.65,0,0,0,76,52.53c0-.18-.43-.23-.4,0a11.46,11.46,0,0,1-3.41,10.65c-.13.14.22.33.36.19"/><ellipse id="椭圆_146-5" data-name="椭圆 146-5" class="cls-22" cx="76.05" cy="43.94" rx="2.45" ry="1.36" transform="translate(18.67 110.43) rotate(-79.22)"/><ellipse id="椭圆_147-5" data-name="椭圆 147-5" class="cls-22" cx="67.24" cy="72.21" rx="2.45" ry="1.36" transform="translate(-22.05 114.2) rotate(-72.22)"/></g></g></g></g></svg>