<svg xmlns="http://www.w3.org/2000/svg" viewBox="0 0 134.23 166.14"><defs><style>.cls-1{fill:#f0dea0;}.cls-2,.cls-5{fill:#eac6bc;}.cls-3{fill:#a597ba;}.cls-4{fill:#f7f7f7;}.cls-5{opacity:0.75;}.cls-12,.cls-13,.cls-5,.cls-8{isolation:isolate;}.cls-6{fill:#f5e6d6;}.cls-7{fill:#595758;}.cls-8{fill:#e4f2ee;opacity:0.52;}.cls-9{fill:#e0a396;}.cls-10{fill:#e8e8e8;}.cls-11,.cls-13{fill:none;stroke:#8d8c8c;stroke-miterlimit:10;}.cls-13{font-size:5px;font-family:ArialMT, Arial;letter-spacing:0.15em;}</style></defs><title>資產 45</title><g id="圖層_2" data-name="圖層 2"><g id="圖層_7" data-name="圖層 7"><g id="组_1659" data-name="组 1659"><g id="组_1582" data-name="组 1582"><g id="Group_1556" data-name="Group 1556"><path id="Path_3338" data-name="Path 3338" class="cls-1" d="M6.77,19.85a3,3,0,0,1,1.77-.27c7,1,17.39,6.67,19,7.67a3.27,3.27,0,0,1,1.11,4.41,3.1,3.1,0,0,1-4.26,1.09l-.07,0c-1.89-1.17-11.18-6-16.55-6.78A3.27,3.27,0,0,1,5,22.31a3.13,3.13,0,0,1,1.74-2.46Z"/><path id="Path_3339" data-name="Path 3339" class="cls-2" d="M6.77,19.85a3,3,0,0,1,1.77-.27c7,1,17.39,6.67,19,7.67a3.27,3.27,0,0,1,1.11,4.41,3.1,3.1,0,0,1-4.26,1.09l-.07,0c-1.89-1.17-11.18-6-16.55-6.78A3.27,3.27,0,0,1,5,22.31a3.13,3.13,0,0,1,1.74-2.46Z"/><path id="Path_3340" data-name="Path 3340" class="cls-3" d="M5,22.31a3.27,3.27,0,0,0,2.76,3.62,17.32,17.32,0,0,1,2.25.48,9.42,9.42,0,0,0,1.68-6.15,24.5,24.5,0,0,0-3.17-.68,3.05,3.05,0,0,0-1.78.27A3.11,3.11,0,0,0,5,22.3Z"/></g><g id="Group_1557" data-name="Group 1557"><path id="Path_3341" data-name="Path 3341" class="cls-2" d="M30.73,57.79a10.07,10.07,0,0,0,.92-5.19,3.61,3.61,0,0,0-3.32-3.06,2.45,2.45,0,0,0-2.91,1.89,2.76,2.76,0,0,0-.06.57c.3,4.6-3.32,6.63-12.94,7.23a2.35,2.35,0,0,0-2.33,3,3.78,3.78,0,0,0,3.8,2.58c5.55-.35,9.27-1.12,12.09-2.51a10,10,0,0,0,4.75-4.47Z"/><path id="Path_3342" data-name="Path 3342" class="cls-3" d="M10.1,62.19a2.35,2.35,0,0,1,1.64-2.88,2.66,2.66,0,0,1,.69-.08c.74,0,1.46-.1,2.13-.16a9.48,9.48,0,0,1,1.7,5.52q-1.13.1-2.37.18a3.76,3.76,0,0,1-3.79-2.58Z"/></g><g id="Group_1559" data-name="Group 1559"><path id="Path_3345" data-name="Path 3345" class="cls-2" d="M2.41,39.16a3.14,3.14,0,0,1,2.9.81C8.68,43.23,17,44,19.54,43a3.16,3.16,0,0,1,4.1,1.77v0a3.21,3.21,0,0,1-1.71,4.18c-4.56,1.86-15.61.85-21-4.31a3.27,3.27,0,0,1-.14-4.55,3.1,3.1,0,0,1,1.56-.91Z"/><path id="Path_3346" data-name="Path 3346" class="cls-3" d="M5.31,40a3.09,3.09,0,0,0-4.45.1A3.27,3.27,0,0,0,1,44.62,14.71,14.71,0,0,0,3.81,46.7,9.22,9.22,0,0,0,7,41.21,8,8,0,0,1,5.32,40Z"/></g><path id="Path_3347" data-name="Path 3347" class="cls-2" d="M35.06,45.12l-1.62-4.28,4-2.46Z"/><path id="Path_3348" data-name="Path 3348" class="cls-2" d="M23.28,50.52h0c7.79,2.66,11.35,1.81,11.35,1.81l6.91-20s-7.46-4.26-10.5-5.43a1.06,1.06,0,0,0-.25-.09A9.24,9.24,0,0,0,28,26c-1,.09-3.93,3.56-6.67,11C19.21,44.18,19,48,20.28,49.3A8.56,8.56,0,0,0,23.28,50.52Z"/><path id="Rectangle_322" data-name="Rectangle 322" class="cls-4" d="M31.73,36.37l-2.28,6.7a3.15,3.15,0,0,1-4,2h0a3.16,3.16,0,0,1-2-4h0l2.27-6.7a3.17,3.17,0,0,1,4-2h0a3.17,3.17,0,0,1,2,4Z"/><path id="Rectangle_323" data-name="Rectangle 323" class="cls-2" d="M27.48,41l-.79,2.33a.46.46,0,0,1-.59.29h0a.47.47,0,0,1-.29-.6h0l.79-2.32a.47.47,0,0,1,.6-.3h0a.47.47,0,0,1,.29.6Z"/><path id="Rectangle_324" data-name="Rectangle 324" class="cls-2" d="M25.94,40.48l-.79,2.32a.47.47,0,0,1-.59.3h0a.48.48,0,0,1-.29-.6h0l.79-2.33a.48.48,0,0,1,.59-.3h0a.48.48,0,0,1,.3.6Z"/><path id="Rectangle_325" data-name="Rectangle 325" class="cls-2" d="M31.55,34.74,28.4,44a.39.39,0,0,1-.49.24h0a.39.39,0,0,1-.24-.49h0l3.15-9.29a.39.39,0,0,1,.49-.24h0A.39.39,0,0,1,31.55,34.74Z"/><path id="Path_3038" data-name="Path 3038" class="cls-5" d="M42.78,17.08c-3.32,9.81-7.12,19.47-10.27,29.34-3,9.44-6.2,20-4,29.88,2.41,11.22,10.87,20.51,21,25.92,21.16,11.3,49.82,10.17,68.39-5.82,20.26-17.44,20.55-46.29,6.94-67.82-9-14.27-23.44-23.85-39.77-27.75C65.36-3.88,46.52,12.19,38.73,29Z"/><g id="Group_1368" data-name="Group 1368"><path id="Path_3040" data-name="Path 3040" class="cls-3" d="M104.72,87.6a11.7,11.7,0,1,1,14.8-7.41h0a11.7,11.7,0,0,1-14.8,7.41h0"/><path id="Path_3041" data-name="Path 3041" class="cls-3" d="M111.74,69.74a11.7,11.7,0,1,1,14.8-7.41h0a11.71,11.71,0,0,1-14.8,7.41h0"/><path id="Path_3042" data-name="Path 3042" class="cls-3" d="M112.73,81.76a13.14,13.14,0,1,1,16.62-8.31,13.13,13.13,0,0,1-16.62,8.31h0"/><path id="Path_3043" data-name="Path 3043" class="cls-6" d="M68.25,10.31s2.64-4-2-4.2-6.41,4.13-5.54,6.06,7.56-1.86,7.56-1.86"/><path id="Path_3044" data-name="Path 3044" class="cls-6" d="M42.1,88.83S41.81,93.61,38,91s-2.65-7.15-.81-8.17,4.94,6,4.94,6"/><path id="Path_3045" data-name="Path 3045" class="cls-6" d="M55.07,96.82C31.6,90.9,27,66.91,35.16,42.35,43.4,17.6,60.39,2.81,83.79,10.6c20,6.66,29.78,31.36,21.84,55.17S75.51,102,55.07,96.82"/><path id="Path_3052" data-name="Path 3052" class="cls-3" d="M69,8.64l-12.34,37L55.27,49.8,54,53.73,41.43,91.35s29.9,22.88,55.42.53c14.34-15,13.9-22.94,14.74-25.4s9.07-15.07-1.54-34.91S85.84,10.22,79.62,9.21C78.05,9,69.14,8.11,69.14,8.11Z"/><path id="Path_3060" data-name="Path 3060" class="cls-7" d="M53.14,35.17a2.4,2.4,0,1,1,3-1.48h0a2.39,2.39,0,0,1-3,1.49h0"/><path id="Path_3061" data-name="Path 3061" class="cls-7" d="M45,61.76a2.4,2.4,0,1,1,3-1.48h0a2.4,2.4,0,0,1-3,1.48h0"/><path id="Path_3062" data-name="Path 3062" class="cls-7" d="M43.91,37.19a14.67,14.67,0,0,0-4.82,13.45c0,.24.54.31.5.08a14.46,14.46,0,0,1,4.76-13.28c.18-.17-.26-.42-.44-.25"/><g id="Group_1558" data-name="Group 1558"><path id="Path_3343" data-name="Path 3343" class="cls-2" d="M33,25.38a10,10,0,0,0,1,5.17,3.62,3.62,0,0,0,4.2,1.65,2.46,2.46,0,0,0,2-2.82,2.39,2.39,0,0,0-.15-.54c-2-4.19.7-7.39,9.45-11.42a2.33,2.33,0,0,0,1.42-3,2.37,2.37,0,0,0-.32-.61,3.77,3.77,0,0,0-4.47-1c-5,2.32-8.24,4.39-10.36,6.7A10,10,0,0,0,33,25.37Z"/><path id="Path_3344" data-name="Path 3344" class="cls-3" d="M50.64,13.82a2.36,2.36,0,0,1-.5,3.28,2,2,0,0,1-.6.32c-.69.32-1.33.63-1.93.93A9.45,9.45,0,0,1,44,13.82c.67-.34,1.39-.69,2.14-1a3.77,3.77,0,0,1,4.47,1Z"/></g></g><path id="Path_3053" data-name="Path 3053" class="cls-8" d="M122,33.05a67.94,67.94,0,0,1,4.63,15,51.15,51.15,0,0,1,1.09,15c-.44,3.71-2,7.15-6.3,7-6.09-.2-9.66-7.78-12.23-12.29-5.12-9-11.17-17.6-14.08-27.62a31.85,31.85,0,0,1-.91-15.51c.49-2.27,1.52-4.71,3.66-5.63,4.5-1.92,9.51,3.43,12.27,6.24A59.77,59.77,0,0,1,122,33.05Z"/><ellipse id="Ellipse_145" data-name="Ellipse 145" class="cls-8" cx="77.82" cy="9.45" rx="12.86" ry="7.99" transform="translate(-0.23 2.1) rotate(-1.54)"/><path id="Path_3357" data-name="Path 3357" class="cls-3" d="M32.46,41a52.43,52.43,0,0,1,6-12.05,1.67,1.67,0,0,1,2.32-.35l.13.12a2,2,0,0,1,.38,2.6,48.36,48.36,0,0,0-5.47,11.1A52.06,52.06,0,0,0,33.39,54.8a1.64,1.64,0,0,1-1.63,1.67h-.17a2,2,0,0,1-1.7-2,55.54,55.54,0,0,1,2.57-13.51Z"/></g><ellipse id="椭圆_146-3" data-name="椭圆 146-3" class="cls-9" cx="40.4" cy="57.72" rx="2.39" ry="1.33" transform="translate(-23.5 87.39) rotate(-79.92)"/><ellipse id="椭圆_147-3" data-name="椭圆 147-3" class="cls-9" cx="48.68" cy="31.11" rx="2.39" ry="1.33" transform="translate(4.63 68.49) rotate(-72.91)"/><path id="路径_3512" data-name="路径 3512" class="cls-10" d="M64,145.39,41.2,126.16,23.43,151l23.25,13.08Z"/><path id="路径_3513" data-name="路径 3513" class="cls-11" d="M59,146.78,36.21,127.55,18.44,152.42l23.25,13.09Z"/><path id="路径_3514" data-name="路径 3514" class="cls-11" d="M40.88,127.55s15.63-24.44-17.55-29.13S17.19,63.5,17.19,63.5"/><g id="FUBON" class="cls-12"><text class="cls-13" transform="translate(30.32 151.49) rotate(-11.42)">FUBON</text></g></g></g></g></svg>