<svg xmlns="http://www.w3.org/2000/svg" viewBox="0 0 77.13 81.19"><defs><style>.cls-1{fill:#f0dea0;}.cls-2{fill:#a5c0bb;}.cls-3{fill:#de9c8c;}.cls-4{fill:#f7f7f7;}.cls-5{fill:#7b9a93;}.cls-6{fill:#f5e6d6;}.cls-7{fill:#595758;}.cls-8{fill:#eddb73;}.cls-9{fill:#e4f2ee;opacity:0.52;isolation:isolate;}.cls-10{fill:#e0a396;}</style></defs><title>组 1656 (2)</title><g id="圖層_2" data-name="圖層 2"><g id="圖層_4" data-name="圖層 4"><g id="组_1656" data-name="组 1656"><g id="组_1600" data-name="组 1600"><g id="组_1583" data-name="组 1583"><g id="Group_1524" data-name="Group 1524"><path id="Path_3219" data-name="Path 3219" class="cls-1" d="M54,81.11a1.65,1.65,0,0,1-.78-.54c-2.29-2.9-4.18-8.8-4.43-9.76A1.71,1.71,0,0,1,50,68.74a1.62,1.62,0,0,1,2,1.12v0c.3,1.12,2.07,6.31,3.83,8.53a1.71,1.71,0,0,1-.26,2.37,1.67,1.67,0,0,1-1.55.3Z"/><path id="Path_3220" data-name="Path 3220" class="cls-2" d="M54,81.11a1.65,1.65,0,0,1-.78-.54c-2.29-2.9-4.18-8.8-4.43-9.76A1.71,1.71,0,0,1,50,68.74a1.62,1.62,0,0,1,2,1.12v0c.3,1.12,2.07,6.31,3.83,8.53a1.71,1.71,0,0,1-.26,2.37,1.67,1.67,0,0,1-1.55.3Z"/><path id="Path_3221" data-name="Path 3221" class="cls-3" d="M55.54,80.81a1.7,1.7,0,0,0,.26-2.37,10.75,10.75,0,0,1-.67-1,4.87,4.87,0,0,0-2.86,1.72,12.29,12.29,0,0,0,.95,1.4,1.6,1.6,0,0,0,.77.54,1.62,1.62,0,0,0,1.54-.3Z"/></g><g id="Group_1525" data-name="Group 1525"><path id="Path_3222" data-name="Path 3222" class="cls-2" d="M62.55,61.38a7.11,7.11,0,0,1-2.76-1.69,1.7,1.7,0,0,1-.07-2.37,1.63,1.63,0,0,1,2.3-.13h0l0,0c2,1.9,4.41,1.4,8.58-1.79a1.62,1.62,0,0,1,2.27.28h0l0,0a1.71,1.71,0,0,1-.35,2.36,17.31,17.31,0,0,1-6,3.32,7,7,0,0,1-4,0Z"/><path id="Path_3223" data-name="Path 3223" class="cls-3" d="M72.94,55.75a1.63,1.63,0,0,0-2.27-.35l0,0c-.33.25-.64.48-.94.69a5.56,5.56,0,0,0,1.85,2.76l1-.77a1.73,1.73,0,0,0,.35-2.36Z"/></g><g id="Group_1527" data-name="Group 1527"><g id="Group_1526" data-name="Group 1526"><path id="Path_3224" data-name="Path 3224" class="cls-2" d="M36.26,76.09,35.87,76A1.69,1.69,0,0,1,37,72.78h0a4.39,4.39,0,0,0,6.21-4.72,1.7,1.7,0,0,1,1.44-1.89,1.63,1.63,0,0,1,1.83,1.4h0v0a8,8,0,0,1-2.82,7.25,7.77,7.77,0,0,1-7.43,1.22Z"/></g><path id="Path_3225" data-name="Path 3225" class="cls-3" d="M38.35,73.12A5.94,5.94,0,0,1,37,72.79a1.67,1.67,0,0,0-2.13,1h0a1.68,1.68,0,0,0,1,2.15l.39.14a9.58,9.58,0,0,0,1.67.37,5.61,5.61,0,0,0,.42-3.33Z"/></g><g id="Group_1528" data-name="Group 1528"><path id="Path_3226" data-name="Path 3226" class="cls-2" d="M65,74a1.64,1.64,0,0,1-1.08-1.15c-.63-2.37-4.16-5-5.56-5.19A1.65,1.65,0,0,1,57,65.78h0v0a1.68,1.68,0,0,1,1.9-1.4c2.55.4,7.22,3.84,8.21,7.6A1.71,1.71,0,0,1,66,74,1.67,1.67,0,0,1,65,74Z"/><path id="Path_3227" data-name="Path 3227" class="cls-3" d="M63.93,72.87A1.64,1.64,0,0,0,65,74,1.67,1.67,0,0,0,66,74,1.72,1.72,0,0,0,67.12,72a7.32,7.32,0,0,0-.69-1.69,4.79,4.79,0,0,0-2.93,1.58,4.34,4.34,0,0,1,.43,1Z"/></g><path id="Path_3228" data-name="Path 3228" class="cls-4" d="M53.64,60.29l-1.33,3.15-3.41-.71Z"/><path id="Path_3229" data-name="Path 3229" class="cls-2" d="M62.7,61.93v0c-3.2-6.14-5.79-7.73-5.79-7.73l-15,7.74s2.14,6.9,3.32,9.37a1.86,1.86,0,0,0,.1.2,7.89,7.89,0,0,0,1.2,2.11c.67.54,4.28.2,10-2.59,5.19-3,7.42-5.07,7.34-6.61A7.47,7.47,0,0,0,62.7,61.93Z"/><g id="Group_1532" data-name="Group 1532"><path id="Rectangle_312" data-name="Rectangle 312" class="cls-5" d="M51.13,65.26l3.07-1.6a2.75,2.75,0,0,1,3.71,1.15h0a2.75,2.75,0,0,1-1.16,3.71h0l-3.07,1.61A2.76,2.76,0,0,1,50,69h0a2.76,2.76,0,0,1,1.16-3.71Z"/><circle id="Ellipse_218" data-name="Ellipse 218" class="cls-3" cx="56.3" cy="66.41" r="0.67"/><circle id="Ellipse_219" data-name="Ellipse 219" class="cls-3" cx="51.75" cy="68.8" r="0.67"/><circle id="Ellipse_220" data-name="Ellipse 220" class="cls-3" cx="54.11" cy="67.56" r="0.67"/><path id="Rectangle_313" data-name="Rectangle 313" class="cls-3" d="M50.35,66.88l5.33-2.79a.33.33,0,0,1,.44.14h0a.33.33,0,0,1-.14.44h0l-5.32,2.78a.32.32,0,0,1-.44-.13h0A.32.32,0,0,1,50.35,66.88Z"/></g><path id="Path_2947" data-name="Path 2947" class="cls-2" d="M42.15,66.48A91.16,91.16,0,0,0,64.61,52.77a44.72,44.72,0,0,0,8.81-9.31,20.72,20.72,0,0,0,2.45-19C71.15,11.76,58,2.58,44.86.44,31.91-1.68,18.77,4,10.57,14.08A46.08,46.08,0,0,0,1.3,31.67a40.86,40.86,0,0,0-.16,19.81c1.53,6.25,4.66,13,10.42,16.36A18.53,18.53,0,0,0,15,69.43c7.24,2.47,15.69,1.38,22.74-1.21Q40,67.41,42.15,66.48Z"/><path id="Path_2949" data-name="Path 2949" class="cls-6" d="M16.69,61.22s-3.48.75-1.1,3.28,5.56,1.13,6.1-.34-5-2.94-5-2.94"/><path id="Path_2950" data-name="Path 2950" class="cls-6" d="M71.44,33s2.64-2.4,3.32,1-2.3,5.19-3.82,4.77.5-5.77.5-5.77"/><path id="Path_2951" data-name="Path 2951" class="cls-6" d="M68.68,22C78.11,37.34,68.09,52.52,51,61.35S17,69.29,8.57,53C1.38,39,9,20.8,25.61,12.24S60.48,8.62,68.68,22"/><path id="Path_2952" data-name="Path 2952" class="cls-7" d="M31.33,58.34a1.42,1.42,0,1,1-2-.46,1.43,1.43,0,0,1,2,.45h0"/><path id="Path_2953" data-name="Path 2953" class="cls-7" d="M62.56,42.26a1.51,1.51,0,0,1-.65,2,1.49,1.49,0,1,1,.64-2h0"/><path id="Path_2954" data-name="Path 2954" class="cls-8" d="M12.76,61.68s42-20,47.74-23.15c-2.81-5.54-2.65-6.69-2.65-6.69l3.87,6.06,11.72-7.82S69.15,10.92,54.88,6.22c0,0-13.15-5.57-29.81,2.29S3.84,34,4.31,42.29s6.39,19.36,8.46,19.38"/><path id="Path_2955" data-name="Path 2955" class="cls-7" d="M44.63,59.56a9.12,9.12,0,0,0,7.93-4c.08-.12-.11-.37-.19-.24a9,9,0,0,1-7.83,3.92c-.15,0-.06.3.09.3"/><path id="Path_2956" data-name="Path 2956" class="cls-9" d="M6.08,24.07a47.43,47.43,0,0,1,6-9.18,35.71,35.71,0,0,1,7.6-7.28c2.19-1.41,4.77-2.08,6.58.27,2.61,3.37.11,8.67-1.17,12.07-2.54,6.75-4.5,13.86-8.61,19.88a22.33,22.33,0,0,1-7.94,7.39c-1.45.75-3.22,1.28-4.67.54-3-1.56-2.39-6.65-2.1-9.39A41.72,41.72,0,0,1,6.08,24.07Z"/><ellipse id="Ellipse_139" data-name="Ellipse 139" class="cls-9" cx="13.06" cy="58.41" rx="5.59" ry="8.99" transform="translate(-35.19 23) rotate(-41.13)"/><path id="Path_3238" data-name="Path 3238" class="cls-3" d="M52.33,63.67a39.71,39.71,0,0,1-9.55,3.52,1.32,1.32,0,0,1-1.53-1.07v0a1.4,1.4,0,0,1,1.1-1.6,37.73,37.73,0,0,0,8.79-3.24,38.31,38.31,0,0,0,7.67-5.52,1.31,1.31,0,0,1,1.86,0h0l0,0a1.39,1.39,0,0,1,0,1.94,40.93,40.93,0,0,1-8.32,6Z"/></g></g><ellipse id="椭圆_146" data-name="椭圆 146" class="cls-10" cx="62.14" cy="47.25" rx="2.78" ry="1.54" transform="matrix(0.82, -0.57, 0.57, 0.82, -15.83, 43.45)"/><ellipse id="椭圆_147" data-name="椭圆 147" class="cls-10" cx="33.3" cy="62.12" rx="2.78" ry="1.54" transform="translate(-24.89 22.35) rotate(-27.46)"/></g></g></g></svg>