<?xml version="1.0" encoding="utf-8"?>
<!-- Generator: Adobe Illustrator 24.3.0, SVG Export Plug-In . SVG Version: 6.00 Build 0)  -->
<svg version="1.1" id="bg" xmlns="http://www.w3.org/2000/svg" xmlns:xlink="http://www.w3.org/1999/xlink" x="0px" y="0px"
	 viewBox="0 0 1000 1024" style="enable-background:new 0 0 1000 1024;" xml:space="preserve">
<style type="text/css">
	.st0{clip-path:url(#SVGID_2_);fill:url(#天空_1_);}
	.st1{clip-path:url(#SVGID_2_);}
	.st2{fill:url(#SVGID_3_);}
	.st3{fill:#5A7DE0;}
	.st4{fill:url(#SVGID_4_);}
	.st5{fill:none;stroke:#A62D19;stroke-linecap:round;stroke-linejoin:round;stroke-miterlimit:10;}
	.st6{fill:#1F1B1C;}
	.st7{fill:#A62D19;stroke:#A62D19;stroke-miterlimit:10;}
	.st8{fill:none;stroke:#FFBA00;stroke-width:0.5;stroke-linecap:round;stroke-linejoin:round;stroke-miterlimit:10;}
	.st9{fill:none;stroke:#0E191F;stroke-linecap:round;stroke-linejoin:round;stroke-miterlimit:10;}
	.st10{fill:#DBD2C5;}
	.st11{fill:#84642C;}
	.st12{fill:#322F30;}
	.st13{fill:#1A1517;}
	.st14{fill:#3D251D;}
	.st15{fill:#3D251D;stroke:#3D251D;stroke-miterlimit:10;}
	.st16{fill:#8F2007;}
	.st17{clip-path:url(#XMLID_14_);fill:#9B2007;}
	.st18{opacity:0.8;clip-path:url(#XMLID_14_);}
	.st19{fill:url(#SVGID_5_);}
	.st20{fill:#847F45;}
	.st21{fill:url(#SVGID_6_);}
	.st22{fill:none;stroke:#5F6466;stroke-width:2;stroke-linecap:round;stroke-linejoin:round;stroke-miterlimit:10;}
	.st23{fill:#49B584;}
	.st24{fill:#D1AC49;}
	.st25{fill:none;stroke:#C48737;stroke-width:4;stroke-miterlimit:10;}
	.st26{fill:#CE954A;}
	.st27{fill:#808081;}
	.st28{clip-path:url(#SVGID_2_);fill:url(#地板_2_);}
	.st29{fill:url(#SVGID_7_);}
	.st30{fill:url(#SVGID_8_);}
	.st31{fill:url(#SVGID_9_);}
	.st32{fill:#9D9C2D;}
	.st33{fill:url(#SVGID_10_);}
	.st34{fill:url(#SVGID_11_);}
	.st35{fill:#7A8A2D;}
	.st36{fill:url(#SVGID_12_);}
	.st37{fill:url(#SVGID_13_);}
	.st38{fill:url(#SVGID_14_);}
	.st39{fill:url(#SVGID_15_);}
	.st40{fill:url(#SVGID_16_);}
	.st41{display:none;}
	.st42{display:inline;}
	.st43{fill:none;stroke:#FFFFFF;stroke-linecap:round;stroke-miterlimit:10;}
	.st44{fill:none;stroke:#FFFFFF;stroke-linecap:round;stroke-miterlimit:10;stroke-dasharray:10.2247,10.2247,10.2247,10.2247;}
	
		.st45{fill:none;stroke:#FFFFFF;stroke-linecap:round;stroke-miterlimit:10;stroke-dasharray:10.2247,10.2247,10.2247,10.2247,10.2247,10.2247;}
	.st46{display:inline;fill:#FFFFFF;}
	.st47{font-family:'jf-openhuninn-1.1';}
	.st48{font-size:20px;}
	.st49{letter-spacing:7;}
</style>
<g>
	<defs>
		<rect id="SVGID_1_" x="-12" width="1024" height="1024"/>
	</defs>
	<clipPath id="SVGID_2_">
		<use xlink:href="#SVGID_1_"  style="overflow:visible;"/>
	</clipPath>
	<linearGradient id="天空_1_" gradientUnits="userSpaceOnUse" x1="500" y1="-2.1991" x2="500" y2="432.0445">
		<stop  offset="0" style="stop-color:#3BDBBB"/>
		<stop  offset="8.952320e-03" style="stop-color:#3FDBBB"/>
		<stop  offset="0.1273" style="stop-color:#6BDBBB"/>
		<stop  offset="0.2511" style="stop-color:#90DBBB"/>
		<stop  offset="0.379" style="stop-color:#AFDBBB"/>
		<stop  offset="0.5124" style="stop-color:#C7DBBB"/>
		<stop  offset="0.6536" style="stop-color:#D8DBBB"/>
		<stop  offset="0.8079" style="stop-color:#E2DBBB"/>
		<stop  offset="1" style="stop-color:#E5DBBB"/>
	</linearGradient>
	<rect id="天空" x="-12" y="-2.2" class="st0" width="1024" height="434.2"/>
	<g id="山_1_" class="st1">
		<linearGradient id="SVGID_3_" gradientUnits="userSpaceOnUse" x1="100.649" y1="176.9094" x2="100.649" y2="450.8719">
			<stop  offset="0" style="stop-color:#49B584"/>
			<stop  offset="0.1451" style="stop-color:#4DB38D"/>
			<stop  offset="0.3818" style="stop-color:#58AEA5"/>
			<stop  offset="0.6804" style="stop-color:#69A6CD"/>
			<stop  offset="1" style="stop-color:#7F9CFF"/>
		</linearGradient>
		<path class="st2" d="M180.6,450.9c14.6-102.8,6.6-274-29-274c-49.8,0-62.5,133.4-79.9,133.4c-16.4,0-57.9-177.8-57.9,140.6H180.6z
			"/>
		<g>
			<polygon class="st3" points="104.5,450.9 108.2,245.6 107.5,245.6 103.8,450.9 			"/>
		</g>
		<g>
			<polygon class="st3" points="102.6,450.9 77.2,321.2 76.5,321.6 101.9,450.9 			"/>
		</g>
		<g>
			<polygon class="st3" points="99.7,450.9 30.4,290.6 30,291.7 98.7,450.9 			"/>
		</g>
		<g>
			<polygon class="st3" points="91.9,450.9 21.5,399.2 21.3,400.6 89.7,450.9 			"/>
		</g>
		<g>
			<polygon class="st3" points="106.3,450.9 140.7,205.8 140,205.2 105.5,450.9 			"/>
		</g>
		<g>
			<polygon class="st3" points="108.9,450.9 178.1,276.4 177.6,275.3 107.9,450.9 			"/>
		</g>
		<g>
			<polygon class="st3" points="115.6,450.9 178.4,391.7 178.1,390.3 113.8,450.9 			"/>
		</g>
	</g>
	<g id="山" class="st1">
		
			<linearGradient id="SVGID_4_" gradientUnits="userSpaceOnUse" x1="968.3633" y1="196.0846" x2="968.3633" y2="433.8415" gradientTransform="matrix(1 0 0 1 -68.2324 0)">
			<stop  offset="0" style="stop-color:#49B584"/>
			<stop  offset="0.1451" style="stop-color:#4DB38D"/>
			<stop  offset="0.3818" style="stop-color:#58AEA5"/>
			<stop  offset="0.6804" style="stop-color:#69A6CD"/>
			<stop  offset="1" style="stop-color:#7F9CFF"/>
		</linearGradient>
		<path class="st4" d="M991.8,433.8c21.8-110.2-55.8-237.8-108.9-237.8c-51.5,0-90.4,117.4-74.5,237.8H991.8z"/>
		<g>
			<rect x="899" y="213.8" class="st3" width="1.1" height="220"/>
		</g>
		<g>
			<polygon class="st3" points="897.2,433.8 851.9,241.5 851,242.3 896.1,433.8 			"/>
		</g>
		<g>
			<polygon class="st3" points="892.9,433.8 817.3,308.4 816.6,309.9 891.3,433.8 			"/>
		</g>
		<g>
			<polygon class="st3" points="881.2,433.8 812.5,391.7 812.1,393.5 877.8,433.8 			"/>
		</g>
		<g>
			<polygon class="st3" points="902.7,433.8 940.5,260.4 939.5,259.7 901.5,433.8 			"/>
		</g>
		<g>
			<polygon class="st3" points="906.6,433.8 972.8,306.5 972.1,305.1 905.1,433.8 			"/>
		</g>
		<g>
			<polygon class="st3" points="916.6,433.8 990,376.9 989.6,375.1 913.9,433.8 			"/>
		</g>
	</g>
	<g id="酒館" class="st1">
		<g id="燈籠">
			<g>
				<g>
					<g>
						<g>
							<line class="st5" x1="854.4" y1="329.5" x2="854.4" y2="345.9"/>
							<line class="st5" x1="856.7" y1="329.5" x2="856.7" y2="345.9"/>
							<line class="st5" x1="858.9" y1="329.5" x2="858.9" y2="345.9"/>
							<line class="st5" x1="852.2" y1="329.5" x2="852.2" y2="345.9"/>
							<line class="st5" x1="850" y1="329.5" x2="850" y2="345.9"/>
						</g>
						<path class="st6" d="M851.9,300.1c0,1.4,1.2,2.6,2.6,2.6c1.4,0,2.6-1.2,2.6-2.6c0-1.4-2.6-2.6-2.6-2.6
							S851.9,298.7,851.9,300.1z"/>
						<path class="st7" d="M837.7,315.2c0-6,4.2-11.2,10.1-13.4h13.2c6,2.2,10.1,7.4,10.1,13.4c0,6-4.2,11.2-10.1,13.4h-13.2
							C841.9,326.4,837.7,321.2,837.7,315.2z"/>
						<path class="st8" d="M850.1,328.6c-3.9-2.2-6.7-7.4-6.7-13.4c0-6,2.8-11.2,6.7-13.4"/>
						<path class="st8" d="M858.8,301.8c3.9,2.2,6.7,7.4,6.7,13.4c0,6-2.8,11.2-6.7,13.4"/>
						<path class="st8" d="M852.8,328.6c-1.5-2.2-2.6-7.4-2.6-13.4c0-6,1.1-11.2,2.6-13.4"/>
						<path class="st8" d="M856.1,301.8c1.5,2.2,2.6,7.4,2.6,13.4c0,6-1.1,11.2-2.6,13.4"/>
						<path class="st6" d="M848.3,301.8h12.4c0.4,0,0.8-0.3,0.8-0.7v-0.8c0-0.4-0.3-0.7-0.8-0.7h-12.4c-0.4,0-0.8,0.3-0.8,0.7v0.8
							C847.5,301.4,847.8,301.8,848.3,301.8z"/>
						<path class="st6" d="M848.6,330.9h11.7c0.4,0,0.7-0.3,0.7-0.7v-0.8c0-0.4-0.3-0.7-0.7-0.7h-11.7c-0.4,0-0.7,0.3-0.7,0.7v0.8
							C847.9,330.6,848.2,330.9,848.6,330.9z"/>
						<line class="st9" x1="854.5" y1="298.6" x2="854.5" y2="293.7"/>
					</g>
				</g>
				<g>
					<g>
						<path class="st6" d="M851.9,264.5c0,1.4,1.2,2.6,2.6,2.6c1.4,0,2.6-1.2,2.6-2.6c0-1.4-2.6-2.6-2.6-2.6
							S851.9,263.1,851.9,264.5z"/>
						<path class="st7" d="M837.7,279.6c0-6,4.2-11.2,10.1-13.4h13.2c6,2.2,10.1,7.4,10.1,13.4c0,6-4.2,11.2-10.1,13.4h-13.2
							C841.9,290.8,837.7,285.6,837.7,279.6z"/>
						<path class="st8" d="M850.1,293c-3.9-2.2-6.7-7.4-6.7-13.4c0-6,2.8-11.2,6.7-13.4"/>
						<path class="st8" d="M858.8,266.2c3.9,2.2,6.7,7.4,6.7,13.4c0,6-2.8,11.2-6.7,13.4"/>
						<path class="st8" d="M852.8,293c-1.5-2.2-2.6-7.4-2.6-13.4c0-6,1.1-11.2,2.6-13.4"/>
						<path class="st8" d="M856.1,266.2c1.5,2.2,2.6,7.4,2.6,13.4c0,6-1.1,11.2-2.6,13.4"/>
						<path class="st6" d="M848.3,266.2h12.4c0.4,0,0.8-0.3,0.8-0.7v-0.8c0-0.4-0.3-0.7-0.8-0.7h-12.4c-0.4,0-0.8,0.3-0.8,0.7v0.8
							C847.5,265.8,847.8,266.2,848.3,266.2z"/>
						<path class="st6" d="M848.6,295.3h11.7c0.4,0,0.7-0.3,0.7-0.7v-0.8c0-0.4-0.3-0.7-0.7-0.7h-11.7c-0.4,0-0.7,0.3-0.7,0.7v0.8
							C847.9,294.9,848.2,295.3,848.6,295.3z"/>
						<line class="st9" x1="854.5" y1="261.9" x2="854.5" y2="246.5"/>
					</g>
				</g>
			</g>
			<g>
				<g>
					<g>
						<g>
							<line class="st5" x1="137.9" y1="329.5" x2="137.9" y2="345.9"/>
							<line class="st5" x1="140.1" y1="329.5" x2="140.1" y2="345.9"/>
							<line class="st5" x1="142.3" y1="329.5" x2="142.3" y2="345.9"/>
							<line class="st5" x1="135.7" y1="329.5" x2="135.7" y2="345.9"/>
							<line class="st5" x1="133.5" y1="329.5" x2="133.5" y2="345.9"/>
						</g>
						<path class="st6" d="M135.3,300.1c0,1.4,1.2,2.6,2.6,2.6c1.4,0,2.6-1.2,2.6-2.6c0-1.4-2.6-2.6-2.6-2.6
							S135.3,298.7,135.3,300.1z"/>
						<path class="st7" d="M121.2,315.2c0-6,4.2-11.2,10.1-13.4h13.2c6,2.2,10.1,7.4,10.1,13.4c0,6-4.2,11.2-10.1,13.4h-13.2
							C125.4,326.4,121.2,321.2,121.2,315.2z"/>
						<path class="st8" d="M133.6,328.6c-3.9-2.2-6.7-7.4-6.7-13.4c0-6,2.8-11.2,6.7-13.4"/>
						<path class="st8" d="M142.3,301.8c3.9,2.2,6.7,7.4,6.7,13.4c0,6-2.8,11.2-6.7,13.4"/>
						<path class="st8" d="M136.3,328.6c-1.5-2.2-2.6-7.4-2.6-13.4c0-6,1.1-11.2,2.6-13.4"/>
						<path class="st8" d="M139.6,301.8c1.5,2.2,2.6,7.4,2.6,13.4c0,6-1.1,11.2-2.6,13.4"/>
						<path class="st6" d="M131.7,301.8h12.4c0.4,0,0.8-0.3,0.8-0.7v-0.8c0-0.4-0.3-0.7-0.8-0.7h-12.4c-0.4,0-0.8,0.3-0.8,0.7v0.8
							C131,301.4,131.3,301.8,131.7,301.8z"/>
						<path class="st6" d="M132.1,330.9h11.7c0.4,0,0.7-0.3,0.7-0.7v-0.8c0-0.4-0.3-0.7-0.7-0.7h-11.7c-0.4,0-0.7,0.3-0.7,0.7v0.8
							C131.3,330.6,131.7,330.9,132.1,330.9z"/>
						<line class="st9" x1="137.9" y1="298.6" x2="137.9" y2="293.7"/>
					</g>
				</g>
				<g>
					<g>
						<path class="st6" d="M135.3,264.5c0,1.4,1.2,2.6,2.6,2.6c1.4,0,2.6-1.2,2.6-2.6c0-1.4-2.6-2.6-2.6-2.6
							S135.3,263.1,135.3,264.5z"/>
						<path class="st7" d="M121.2,279.6c0-6,4.2-11.2,10.1-13.4h13.2c6,2.2,10.1,7.4,10.1,13.4c0,6-4.2,11.2-10.1,13.4h-13.2
							C125.4,290.8,121.2,285.6,121.2,279.6z"/>
						<path class="st8" d="M133.6,293c-3.9-2.2-6.7-7.4-6.7-13.4c0-6,2.8-11.2,6.7-13.4"/>
						<path class="st8" d="M142.3,266.2c3.9,2.2,6.7,7.4,6.7,13.4c0,6-2.8,11.2-6.7,13.4"/>
						<path class="st8" d="M136.3,293c-1.5-2.2-2.6-7.4-2.6-13.4c0-6,1.1-11.2,2.6-13.4"/>
						<path class="st8" d="M139.6,266.2c1.5,2.2,2.6,7.4,2.6,13.4c0,6-1.1,11.2-2.6,13.4"/>
						<path class="st6" d="M131.7,266.2h12.4c0.4,0,0.8-0.3,0.8-0.7v-0.8c0-0.4-0.3-0.7-0.8-0.7h-12.4c-0.4,0-0.8,0.3-0.8,0.7v0.8
							C131,265.8,131.3,266.2,131.7,266.2z"/>
						<path class="st6" d="M132.1,295.3h11.7c0.4,0,0.7-0.3,0.7-0.7v-0.8c0-0.4-0.3-0.7-0.7-0.7h-11.7c-0.4,0-0.7,0.3-0.7,0.7v0.8
							C131.3,294.9,131.7,295.3,132.1,295.3z"/>
						<line class="st9" x1="137.9" y1="261.9" x2="137.9" y2="246.5"/>
					</g>
				</g>
			</g>
		</g>
		<rect id="牆壁" x="163.3" y="253.9" class="st10" width="426.2" height="165.6"/>
		<rect x="589.5" y="253.9" class="st11" width="229.2" height="17.4"/>
		<rect id="內牆" x="589.5" y="280.3" class="st12" width="229.2" height="123"/>
		<rect x="589.5" y="308.5" class="st13" width="225.7" height="5.1"/>
		<rect x="589.5" y="386.9" class="st13" width="111.8" height="13.6"/>
		
			<rect x="589.6" y="341" transform="matrix(-1.836970e-16 1 -1 -1.836970e-16 992.8433 -305.7692)" class="st13" width="119.5" height="5.1"/>
		<rect x="705.5" y="386.9" class="st13" width="106.8" height="13.6"/>
		
			<rect x="586.5" y="271.3" transform="matrix(-1 -3.097567e-05 3.097567e-05 -1 1401.3948 556.1676)" class="st14" width="228.4" height="13.6"/>
		
			<rect x="511.9" y="331.3" transform="matrix(-2.174102e-05 1 -1 -2.174102e-05 931.3834 -255.1985)" class="st15" width="162.7" height="13.6"/>
		<g id="建築地板">
			<defs>
				<path id="XMLID_5_" d="M851.9,433H139.2c-6,0-10.9-4.9-10.9-10.9v0c0-6,4.9-10.9,10.9-10.9h712.7c6,0,10.9,4.9,10.9,10.9v0
					C862.8,428.1,857.9,433,851.9,433z"/>
			</defs>
			<use xlink:href="#XMLID_5_"  style="overflow:visible;fill:#656566;"/>
			<clipPath id="XMLID_11_">
				<use xlink:href="#XMLID_5_"  style="overflow:visible;"/>
			</clipPath>
		</g>
		<g id="酒甕1">
			<path class="st16" d="M792.3,334.4c-7-0.7-13.4-0.5-20.1-0.2c-2.9,0.1-2.9-0.1-2.9,3.4c0,2.1,1.7,2.1,3.5,2
				c6.2-0.7,12.6-0.6,18.8,0.2c0.1,0,0.2,0,0.4,0c1.6,0,3.2,0.1,3.2-1.9C795.1,334.6,795.1,334.7,792.3,334.4z"/>
			<g>
				<defs>
					<path id="XMLID_12_" d="M819.2,378.9c-3,12.1-4.1,15.8-10.2,22.5c-5.7,6.8-15.6,9.2-26.9,9.2c-11.3,0-21.2-2.3-26.9-9.1
						c-6.1-6.7-7.3-10.7-10.2-22.5c-1.8-7.7-4.3-15-0.4-23.3c3.7-7.8,14.7-17.4,37.5-17.9c25.5,0.7,35.6,11.5,38.6,19.2
						C823.7,365.2,820.6,372.1,819.2,378.9z"/>
				</defs>
				<linearGradient id="XMLID_13_" gradientUnits="userSpaceOnUse" x1="782.2319" y1="337.7679" x2="782.2319" y2="410.551">
					<stop  offset="0.45" style="stop-color:#4A3921"/>
					<stop  offset="1" style="stop-color:#241B10"/>
				</linearGradient>
				<use xlink:href="#XMLID_12_"  style="overflow:visible;fill:url(#XMLID_13_);"/>
				<clipPath id="XMLID_14_">
					<use xlink:href="#XMLID_12_"  style="overflow:visible;"/>
				</clipPath>
				<path class="st17" d="M763,387.6c-6.4-4.6-9.6-9.4-14.2-15.2c2.9-5,7.2-10.2,14-15.2c5.6,2.9,11.8,6.9,16.4,13.7
					C773.4,378.1,767.9,385,763,387.6z"/>
				<g class="st18">
					<path d="M755.8,375.8c-0.5-1.2-0.5-2.3,0.1-3.6c0.3-1.1,0.7-1.6,1.1-1.5c0.3,0.1,0.6,0.3,0.9,0.6c0.3,0.2,0.1,0.6-0.4,0.9
						c-0.9,0.7-1.4,1.7-1.3,3c0.1,1.3,0.5,2.1,0.9,2.4c0.6,0.2,0.9-0.1,1.3-1.2c0.3-1.1,0.6-2.4,0.7-3.7c0.1-0.6,0.1-0.5,0.3,0.2
						c0,1.2,0,2.4-0.2,3.3c-0.1,1-0.4,2-0.6,2.9c-0.1,0.2-0.1,0.5-0.1,0.8c0,0.3-0.3,0-0.8-0.7C757,378.1,756.3,377,755.8,375.8z
						 M757.2,368.5c-0.2-0.7-0.2-1.2,0.2-1.9c0.5-0.9,0.9-1.3,1.2-1.1c0.1,0,0.2,0.2,0.2,0.5c0.1,0.3,0.2,0.6,0.4,0.8
						c0.2,0.2,0.4,0.4,0.5,0.6c0.1,0.1,0,0.3-0.2,0.5c-0.2,0.3-0.5,0.5-0.9,0.5c-0.4,0-0.7,0.1-1,0.2
						C757.4,368.7,757.2,368.7,757.2,368.5z M761.1,379c-0.5-1-1-3.6-0.6-7.9c0-0.3,0-0.5,0.2-0.5c0.1,0,0.2-0.1,0.4-0.2
						c0.4-0.3,1-0.6,1.9-1c-0.1-0.5-0.2-1-0.4-1.4c-0.2-0.3,0-0.5,0.6-0.6c0.5,0,0.8,0.2,0.7,0.5c-0.1,0.3-0.1,0.7,0,1
						c0.1,0,0.2-0.1,0.4-0.1c0.2-0.1,0.4-0.2,0.6-0.2c0-0.2,0-0.3,0-0.5c0-0.8-0.1-1.4-0.3-1.7c-1.5,0.3-2.7,1-3.6,1.6
						c-0.2,0.2-0.5,0-0.8-0.5c-0.3-0.4-0.2-0.7,0.5-0.8c1.2-0.7,2.6-1.5,4-2c0.7-0.2,1.3-0.2,1.8-0.1c0.5,0.1,0.8,0.2,0.9,0.2
						c0.1,0,0.2,0.1,0.4,0.4c0.2,0.3,0.4,0.5,0.5,0.6c0.2,0.2,0.4,0.5,0.6,0.9c0.2,0.4,0.1,0.5-0.2,0.3c-0.9-0.5-1.8-0.8-2.8-0.8
						c-0.2,0.6-0.4,1.4-0.3,2.2c0.7-0.2,1.4-0.2,2-0.1c1.2,0.3,1.7,0.6,1.6,0.9c-0.1,0.2-0.2,0.6-0.1,1.1c0,0.5,0.1,1,0.3,1.6
						c0,0.6,0.4,2.7-0.8,6c-0.1,0.2-0.4,0.5-1,0.6c-0.6,0.2-1.3,0-2-0.3c-0.4-0.3-0.3-0.4,0.2-0.5c0.8-0.2,1.3-0.4,1.5-0.6
						c0.3-0.2,0.7-1.5,0.6-3.8c-0.1-2.3-0.5-3.6-0.7-3.8c-0.2-0.3-0.6-0.3-1.5-0.1c0.1,1.2,0.3,1.8,0.6,2c0,0.1,0.1,0.1,0.3,0
						c0.1,0,0.2,0,0.3,0c0.3,0,0.5,0.2,0.5,0.5c0,0.4-0.1,0.7-0.5,0.7c-0.2,0.1-0.5,0.1-0.7,0.1c-0.6,0-0.9-0.2-1.1-0.7
						c-0.2-0.8-0.4-1.6-0.4-2.3c-0.4,0.1-0.7,0.3-1,0.4c0,0.3-0.1,0.5-0.1,0.7c-0.1,0.6-0.1,1,0,1.4c0.1,0.4,0,0.7-0.1,0.8
						c-0.7,0.9-1.4,1.5-2.1,1.6c0,1,0,1.8,0.2,2.6c0,0.3,0.3,0.4,0.8,0.1c0.5-0.3,1.1-0.5,1.9-0.8c0.7-0.3,1.3-0.5,1.6-0.8
						c0.1-0.1,0.3,0.1,0.5,0.5c0.1,0.4,0,0.7-0.2,0.7c-1.6,0.8-2.7,1.2-3.3,1.6c-0.7,0.4-1,0.7-1.2,1
						C761.7,380.1,761.5,379.9,761.1,379z M761.7,371.6c-0.1,0.9-0.2,1.7-0.2,2.4c0.7-0.8,1.1-1.4,1.3-1.8c0.1-0.6,0.2-1.2,0.2-1.7
						C762.3,370.8,761.9,371.2,761.7,371.6z M762.1,375.8c-0.2-0.4-0.1-0.7,0.2-0.8c1.5-0.6,2.8-1.2,3.9-1.6c0.3-0.1,0.5,0,0.5,0.5
						c0,0.5-0.1,0.7-0.3,0.7c-1.4,0.6-2.7,1.1-3.8,1.6C762.4,376.4,762.2,376.3,762.1,375.8z"/>
				</g>
			</g>
			<linearGradient id="SVGID_5_" gradientUnits="userSpaceOnUse" x1="796.162" y1="374.9301" x2="771.7598" y2="332.6642">
				<stop  offset="0" style="stop-color:#B23107"/>
				<stop  offset="0.6042" style="stop-color:#B03007"/>
				<stop  offset="0.8216" style="stop-color:#A92B07"/>
				<stop  offset="0.9763" style="stop-color:#9E2207"/>
				<stop  offset="1" style="stop-color:#9B2007"/>
			</linearGradient>
			<path class="st19" d="M744.7,353.7c-0.7,0-1.2-0.7-0.9-1.3c2.4-4,4.3-5.8,8.7-8.6c8.5-5.5,17.8-7,29.6-7c11.8,0,25.1,3.4,33,11.2
				c1.1,1.1,6.8,4.9,10.9,9.6c0,0-12.5-2.3-22.7,2.6c-0.5,0.2-6.3,0.1-9.3-0.7c-7.9-2.2-16.2-7.8-20.6-14.2c-0.3-0.2-0.6-0.1-1,0.1
				c0,0-4.6,2-11.2,4.6C756,352.3,751,353.4,744.7,353.7z"/>
		</g>
		
			<rect x="645.1" y="336.1" transform="matrix(-2.933085e-05 1 -1 -2.933085e-05 1048.3236 -362.5971)" class="st15" width="120.6" height="13.6"/>
		<g id="窗戶">
			<g>
				<path class="st12" d="M484.4,357.6h-21c-5.5,0-10-4.5-10-10v-62.8c0-5.5,4.5-10,10-10h21c5.5,0,10,4.5,10,10v62.8
					C494.4,353.1,489.9,357.6,484.4,357.6z"/>
				<g>
					<g>
						<rect x="460.6" y="322.6" class="st20" width="1" height="25.4"/>
						<path class="st20" d="M461.1,323.1v24.4h0L461.1,323.1L461.1,323.1 M462.1,322.1h-2v26.4h2V322.1L462.1,322.1z"/>
					</g>
					<g>
						<rect x="465.7" y="322.6" class="st20" width="1" height="25.4"/>
						<path class="st20" d="M466.2,323.1v24.4h0L466.2,323.1L466.2,323.1 M467.2,322.1h-2v26.4h2V322.1L467.2,322.1z"/>
					</g>
					<g>
						<rect x="470.8" y="322.6" class="st20" width="1" height="25.4"/>
						<path class="st20" d="M471.3,323.1v24.4h0L471.3,323.1L471.3,323.1 M472.3,322.1h-2v26.4h2V322.1L472.3,322.1z"/>
					</g>
					<g>
						<rect x="475.9" y="322.6" class="st20" width="1" height="25.4"/>
						<path class="st20" d="M476.4,323.1v24.4h0L476.4,323.1L476.4,323.1 M477.4,322.1h-2v26.4h2V322.1L477.4,322.1z"/>
					</g>
					<g>
						<rect x="481" y="322.6" class="st20" width="1" height="25.4"/>
						<path class="st20" d="M481.6,323.1v24.4h0L481.6,323.1L481.6,323.1 M482.6,322.1h-2v26.4h2V322.1L482.6,322.1z"/>
					</g>
					<g>
						<rect x="486.2" y="322.6" class="st20" width="1" height="25.4"/>
						<path class="st20" d="M486.7,323.1v24.4h0L486.7,323.1L486.7,323.1 M487.7,322.1h-2v26.4h2V322.1L487.7,322.1z"/>
					</g>
				</g>
				<g>
					<g>
						<rect x="460.6" y="283.8" class="st20" width="26.6" height="32"/>
						<path class="st20" d="M486.7,284.3v31h-25.6v-31H486.7 M487.7,283.3h-27.6v33h27.6V283.3L487.7,283.3z"/>
					</g>
				</g>
			</g>
			<g>
				<path class="st12" d="M369.8,357.6h-60.3c-5.5,0-10-4.5-10-10v-62.8c0-5.5,4.5-10,10-10h60.3c5.5,0,10,4.5,10,10v62.8
					C379.8,353.1,375.3,357.6,369.8,357.6z"/>
				<g>
					<g>
						<g>
							<g>
								<rect x="311.4" y="322.6" class="st20" width="3.2" height="11"/>
								<path class="st20" d="M314.1,323.1v10h-2.2v-10H314.1 M315.1,322.1h-4.2v12h4.2V322.1L315.1,322.1z"/>
							</g>
							<g>
								<rect x="318.9" y="322.6" class="st20" width="3.2" height="11"/>
								<path class="st20" d="M321.6,323.1v10h-2.2v-10H321.6 M322.6,322.1h-4.2v12h4.2V322.1L322.6,322.1z"/>
							</g>
							<g>
								<rect x="326.4" y="322.6" class="st20" width="3.2" height="11"/>
								<path class="st20" d="M329.1,323.1v10h-2.2v-10H329.1 M330.1,322.1h-4.2v12h4.2V322.1L330.1,322.1z"/>
							</g>
							<g>
								<rect x="333.9" y="322.6" class="st20" width="3.2" height="11"/>
								<path class="st20" d="M336.6,323.1v10h-2.2v-10H336.6 M337.6,322.1h-4.2v12h4.2V322.1L337.6,322.1z"/>
							</g>
						</g>
						<g>
							<g>
								<rect x="342.1" y="322.6" class="st20" width="3.2" height="11"/>
								<path class="st20" d="M344.9,323.1v10h-2.2v-10H344.9 M345.9,322.1h-4.2v12h4.2V322.1L345.9,322.1z"/>
							</g>
							<g>
								<rect x="349.6" y="322.6" class="st20" width="3.2" height="11"/>
								<path class="st20" d="M352.4,323.1v10h-2.2v-10H352.4 M353.4,322.1h-4.2v12h4.2V322.1L353.4,322.1z"/>
							</g>
							<g>
								<rect x="357.2" y="322.6" class="st20" width="3.2" height="11"/>
								<path class="st20" d="M359.9,323.1v10h-2.2v-10H359.9 M360.9,322.1h-4.2v12h4.2V322.1L360.9,322.1z"/>
							</g>
							<g>
								<rect x="364.7" y="322.6" class="st20" width="3.2" height="11"/>
								<path class="st20" d="M367.4,323.1v10h-2.2v-10H367.4 M368.4,322.1h-4.2v12h4.2V322.1L368.4,322.1z"/>
							</g>
						</g>
					</g>
					<g>
						<g>
							<g>
								<rect x="311.4" y="336.9" class="st20" width="3.2" height="11"/>
								<path class="st20" d="M314.1,337.4v10h-2.2v-10H314.1 M315.1,336.4h-4.2v12h4.2V336.4L315.1,336.4z"/>
							</g>
							<g>
								<rect x="318.9" y="336.9" class="st20" width="3.2" height="11"/>
								<path class="st20" d="M321.6,337.4v10h-2.2v-10H321.6 M322.6,336.4h-4.2v12h4.2V336.4L322.6,336.4z"/>
							</g>
							<g>
								<rect x="326.4" y="336.9" class="st20" width="3.2" height="11"/>
								<path class="st20" d="M329.1,337.4v10h-2.2v-10H329.1 M330.1,336.4h-4.2v12h4.2V336.4L330.1,336.4z"/>
							</g>
							<g>
								<rect x="333.9" y="336.9" class="st20" width="3.2" height="11"/>
								<path class="st20" d="M336.6,337.4v10h-2.2v-10H336.6 M337.6,336.4h-4.2v12h4.2V336.4L337.6,336.4z"/>
							</g>
						</g>
						<g>
							<g>
								<rect x="342.1" y="336.9" class="st20" width="3.2" height="11"/>
								<path class="st20" d="M344.9,337.4v10h-2.2v-10H344.9 M345.9,336.4h-4.2v12h4.2V336.4L345.9,336.4z"/>
							</g>
							<g>
								<rect x="349.6" y="336.9" class="st20" width="3.2" height="11"/>
								<path class="st20" d="M352.4,337.4v10h-2.2v-10H352.4 M353.4,336.4h-4.2v12h4.2V336.4L353.4,336.4z"/>
							</g>
							<g>
								<rect x="357.2" y="336.9" class="st20" width="3.2" height="11"/>
								<path class="st20" d="M359.9,337.4v10h-2.2v-10H359.9 M360.9,336.4h-4.2v12h4.2V336.4L360.9,336.4z"/>
							</g>
							<g>
								<rect x="364.7" y="336.9" class="st20" width="3.2" height="11"/>
								<path class="st20" d="M367.4,337.4v10h-2.2v-10H367.4 M368.4,336.4h-4.2v12h4.2V336.4L368.4,336.4z"/>
							</g>
						</g>
					</g>
				</g>
				<g>
					<g>
						<rect x="311.4" y="283.8" class="st20" width="56.5" height="31.7"/>
						<path class="st20" d="M367.4,284.3V315h-55.5v-30.7H367.4 M368.4,283.3h-57.5V316h57.5V283.3L368.4,283.3z"/>
					</g>
				</g>
			</g>
			<g>
				<path class="st12" d="M556.6,357.6h-21c-5.5,0-10-4.5-10-10v-62.8c0-5.5,4.5-10,10-10h21c5.5,0,10,4.5,10,10v62.8
					C566.6,353.1,562.2,357.6,556.6,357.6z"/>
				<g>
					<g>
						<rect x="532.8" y="322.6" class="st20" width="1" height="25.4"/>
						<path class="st20" d="M533.4,323.1v24.4h0L533.4,323.1L533.4,323.1 M534.4,322.1h-2v26.4h2V322.1L534.4,322.1z"/>
					</g>
					<g>
						<rect x="537.9" y="322.6" class="st20" width="1" height="25.4"/>
						<path class="st20" d="M538.5,323.1v24.4h0L538.5,323.1L538.5,323.1 M539.5,322.1h-2v26.4h2V322.1L539.5,322.1z"/>
					</g>
					<g>
						<rect x="543.1" y="322.6" class="st20" width="1" height="25.4"/>
						<path class="st20" d="M543.6,323.1v24.4h0L543.6,323.1L543.6,323.1 M544.6,322.1h-2v26.4h2V322.1L544.6,322.1z"/>
					</g>
					<g>
						<rect x="548.2" y="322.6" class="st20" width="1" height="25.4"/>
						<path class="st20" d="M548.7,323.1v24.4h0L548.7,323.1L548.7,323.1 M549.7,322.1h-2v26.4h2V322.1L549.7,322.1z"/>
					</g>
					<g>
						<rect x="553.3" y="322.6" class="st20" width="1" height="25.4"/>
						<path class="st20" d="M553.8,323.1v24.4h0L553.8,323.1L553.8,323.1 M554.8,322.1h-2v26.4h2V322.1L554.8,322.1z"/>
					</g>
					<g>
						<rect x="558.4" y="322.6" class="st20" width="1" height="25.4"/>
						<path class="st20" d="M558.9,323.1v24.4h0L558.9,323.1L558.9,323.1 M559.9,322.1h-2v26.4h2V322.1L559.9,322.1z"/>
					</g>
				</g>
				<g>
					<g>
						<rect x="532.8" y="283.8" class="st20" width="26.6" height="32"/>
						<path class="st20" d="M559,284.3v31h-25.6v-31H559 M560,283.3h-27.6v33H560V283.3L560,283.3z"/>
					</g>
				</g>
			</g>
		</g>
		<g>
			<rect x="419.7" y="257.2" class="st14" width="12.6" height="154.7"/>
			<path class="st14" d="M431.7,257.7l0,153.7h-11.6l0-153.7L431.7,257.7 M432.7,256.7l-13.6,0l0,155.7h13.6L432.7,256.7
				L432.7,256.7z"/>
		</g>
		<g>
			<rect x="172.7" y="402" class="st14" width="643.2" height="9.8"/>
			<path class="st14" d="M815.4,402.5v8.8H173.2v-8.8H815.4 M816.4,401.5H172.2v10.8h644.2V401.5L816.4,401.5z"/>
		</g>
		<g>
			<rect x="255.1" y="257.2" class="st14" width="12.6" height="154.7"/>
			<path class="st14" d="M267.2,257.7l0,153.7h-11.6l0-153.7H267.2 M268.2,256.7h-13.6l0,155.7h13.6L268.2,256.7L268.2,256.7z"/>
		</g>
		<linearGradient id="SVGID_6_" gradientUnits="userSpaceOnUse" x1="238.4152" y1="294.4007" x2="319.486" y2="294.4007">
			<stop  offset="0" style="stop-color:#574618"/>
			<stop  offset="0.5328" style="stop-color:#594719"/>
			<stop  offset="0.7247" style="stop-color:#604A1B"/>
			<stop  offset="0.8615" style="stop-color:#6B5020"/>
			<stop  offset="0.9713" style="stop-color:#7C5826"/>
			<stop  offset="1" style="stop-color:#825B28"/>
		</linearGradient>
		<path class="st21" d="M319.4,324.9c0.6,0.7-3.5,3-11.2,4.8c-1,0.2-3.3-5-3.3-5c0,0-1.7,6.9-2.3,7c-22.4,3.6-43.3-7-63.7,1.2
			c-1-22.8,0-75.6,0-75.6c24.7-4,49.4,3.2,74.1,0.9C313,258.1,311.7,308.1,319.4,324.9z"/>
		<g>
			<path d="M262.5,293.2c-1.1,5.3-2.7,10.7-4.5,15c-1.8,4.4-3.5,6.3-4.2,6c-0.6-0.3-1.4-3.4-1.2-9.6c0.2-6.2,1.5-10.8,4.3-13.5
				c1.7-1.4,2.4-2.6,1.6-3.5c-0.8-1-1.8-1.9-2.5-2.6c-0.8-0.7-2.1,1.2-3.2,5.9c-1.3,5.8-1.8,11.1-1.1,16.4c0.7,5.4,1.8,9.3,3.4,11.7
				c1.1,1.7,2.1,1.9,2.1,1.2c0-0.8,0.1-1.8,0.5-2.6c1.2-3.2,2.8-7.2,3.7-10.9c0.9-3.6,2.1-8.5,2-12.7
				C263.5,291.4,262.9,290.9,262.5,293.2z"/>
			<path d="M291,294.2c-3.8,1.7-9.3,4-16.3,6.9c-1.4,0.4-1.5,1.4-0.9,2.9c0.7,1.5,1.5,1.9,2.5,1.3c5.4-2.1,11.2-4.5,16.1-6.7
				c0.6-0.1,0.9-1.2,0.6-2.7C292.8,294.3,292,293.6,291,294.2z"/>
			<path d="M266.2,276.3c-0.6-0.6-1.2-1.2-2-1.7c-0.9-0.5-1.3-1.2-1.8-1.8c-0.5-0.6-0.9-0.9-1.3-1c-1.3-0.4-2.8-0.3-4.1,1.1
				c-0.8,0.9-0.7,2.4,0.2,4.8c0,0.6,0.5,0.7,1.5,0.7c0.8-0.1,2,0,3.5,0.1c1.3,0.1,2.6-0.2,3.4-0.9
				C266.2,277,266.5,276.5,266.2,276.3z"/>
			<path d="M304.5,271c-0.7,0-1.3-0.1-1.7-0.1c-0.4,0-0.9,0-1.4,0c-0.6,0-2.1,0-4.8,0.1c-2.7,0.1-5.6,0.3-8.6,0.6
				c-6.5,0.7-12.6,2-17.7,3.2c-2.9,0-3.4,0.5-2.3,1.6c1.1,1.2,2.2,1.9,3.1,1.4c3.8-1.5,9.2-2.8,15.5-3.9c0.6,0.6,0.8,1.8,0.4,3.7
				c-0.2,0.4-0.3,0.8-0.3,1.3c-0.8,0.2-1.7,0.6-2.5,0.9c-0.6,0.2-1.1,0.4-1.5,0.5c-0.1-1.1,0.2-2.1,0.5-2.7c0.3-0.8-0.7-1.3-2.9-1.1
				c-2.3,0.2-3,0.8-2.5,1.5c0.6,0.9,0.9,2.2,1,3.7c-3.7,1.4-6.4,2.4-8,3.3c-0.8,0.5-1.4,0.7-1.7,0.8c-0.6,0.1-0.8,0.7-0.9,1.8
				c-2,8.8-4.2,20.9,0.9,27.7c1.7,2.3,3.7,2.1,4.3,0.8c0.4-0.8,2.8-2.1,6.1-3.6c3.3-1.4,9.2-3.4,14.6-5.8c1.1-0.2,1.1-1.1,0.1-2.4
				c-1-1.4-1.8-2-2.4-1.7c-1.3,0.9-3.3,1.9-6.6,3c-3.4,1.1-6.4,2.3-8.8,3.4c-2.7,1.2-4.1,1.1-4.3,0c-0.9-2.5-1.8-8.1-0.8-9.1
				c0.8-0.9,6.4-2.8,9.6-6.3c0.8-0.7,1.1-1.9,0.7-3c-0.4-1.1-0.5-2.7,0.1-4.6c0.2-0.8,0.4-1.5,0.6-2.3c1.2-0.5,2.7-1.1,4.3-1.6
				c0,2,0.4,4.4,1.1,7.2c0.4,1.6,2.1,2.1,4,2.1c0.8,0,1.8-0.2,2.6-0.4c0.9-0.3,1.5-1.3,1.5-2.7c-0.1-1.3-0.6-1.9-1.6-1.7
				c-0.4,0.1-0.7,0.2-1.2,0.3c-0.6,0.3-0.9,0.2-1.1,0c-1.3-0.3-1.9-2.6-1.8-6c3.2-1,4.9-0.9,5.3-0.5c0.4,0.4,0.9,4.1,1.6,12.9
				c0.7,8.8,1.6,13.2,1.2,13.9c-0.3,0.5-1.7,1.5-4.9,1.8c-2.1,0.2-2.3,0.6,0,1.4c3.9,1.1,7.2,1.5,9,1.7c1.7,0.2,1.6-0.1,1.3-0.7
				c-4.6-10.6-2.6-21.2-2.6-23.7c0-2.4,0.1-4.5,0.2-6.1c0.2-1.4,0.5-2.7,1.2-3.7c0.7-1-0.3-1.5-4.4-1.3c-2,0.1-4.5,0.5-7.5,1.3
				c0.1-2.2,1.2-4.4,2.5-4.9c2.9-1.2,8.2-0.9,11-0.6c0.9,0.1,1.5-0.2,1.5-0.7C305.5,271.2,305.1,271.1,304.5,271z M277.6,290.9
				c-0.6,1.3-2.7,3.6-5.8,6.6c0.1-2.6,0.3-6,1.4-8.5c0.5-1.3,2.8-2.7,5.8-3.9C278.5,286.7,278.3,289.1,277.6,290.9z"/>
		</g>
		<g id="橫柱">
			<path class="st15" d="M144,248.4c-0.1,0.4-0.2,0.7-0.2,1.1c0,6.4,8.1,11.7,18,11.7h670.6c9.9,0,18-5.3,18-11.7
				c0-0.4-0.1-0.7-0.2-1.1H144z"/>
			<g>
				<g>
					<path class="st22" d="M202.8,248.4c0,0.3-0.1,0.7-0.1,1c0,5.4,6.7,11.8,15,11.8"/>
					<path class="st22" d="M261.7,248.4c0,0.2-0.1,0.7-0.1,0.9c0,4.3,5.4,11.9,12,11.9"/>
					<path class="st22" d="M320.5,248.4c0,0.2-0.1,0.6-0.1,0.8c0,3.2,4,12,9,12"/>
					<path class="st22" d="M379.4,248.4c0,0.1-0.1,0.6-0.1,0.7c0,2.1,2.7,12.1,6,12.1"/>
					<path class="st22" d="M438.2,248.4c0,0.1,0,0.6,0,0.6c0,1.1,1.3,12.2,3,12.2"/>
					<line class="st22" x1="497.1" y1="248.4" x2="497.1" y2="261.1"/>
				</g>
				<g>
					<path class="st22" d="M791.3,248.4c0,0.3,0.1,0.7,0.1,1c0,5.4-6.7,11.8-15,11.8"/>
					<path class="st22" d="M732.4,248.4c0,0.2,0.1,0.7,0.1,0.9c0,4.3-5.4,11.9-12,11.9"/>
					<path class="st22" d="M673.6,248.4c0,0.2,0.1,0.6,0.1,0.8c0,3.2-4,12-9,12"/>
					<path class="st22" d="M614.7,248.4c0,0.1,0.1,0.6,0.1,0.7c0,2.1-2.7,12.1-6,12.1"/>
					<path class="st22" d="M555.9,248.4c0,0.1,0,0.6,0,0.6c0,1.1-1.3,12.2-3,12.2"/>
				</g>
			</g>
		</g>
		<g id="屋簷">
			<path class="st23" d="M842.7,215.7c-13.4,0-26.9-1.6-26.9-4.7c0,5.6-58.5,5.6-58.5,0c0,5.6-58.5,5.6-58.5,0
				c0,5.6-48.7,5.6-48.7,0c0,5.6-48.7,5.6-48.7,0c0,5.5-48.6,5.5-48.6,0c0,5.6-46.7,5.6-46.7,0c0,5.6-48.7,5.6-48.7,0
				c0,5.6-48.8,5.6-48.8,0c0,5.6-49,5.6-49,0c0,4.9-49.2,4.9-49.2,0c0,5.5-55.8,5.5-55.8,0c0,5.5-56,5.5-56,0c0,3-17.1,4.6-34.7,4.7
				c-6.1,4-23.2,24.7-36.6,31.7c-0.1,0.1-0.1,0.2-0.2,0.3c-1,1.6-1.6,2.6-1.6,2.6c0-0.2,0.2-0.4,0.4-0.4c0,6.2,72.7,6.2,72.7,0
				c0,5.5,56,5.5,56,0c0,5.5,55.8,5.5,55.8,0c0,4.9,49.2,4.9,49.2,0c0,5.6,49,5.6,49,0c0,5.6,48.8,5.6,48.8,0c0,5.6,48.7,5.6,48.7,0
				c0,5.6,46.7,5.6,46.7,0c0,5.5,48.6,5.5,48.6,0c0,5.6,48.7,5.6,48.7,0c0,5.6,48.7,5.6,48.7,0c0,5.6,58.5,5.6,58.5,0
				c0,5.6,58.5,5.6,58.5,0c0,6.2,53.8,6.2,53.8,0"/>
			<g>
				<path class="st24" d="M183.1,251c-13.7,0-27.4,0-41,0c-1.3-0.2-2.5-0.3-3.8-0.5c-3.5-0.4-6.9-0.8-10.2-2
					c-1.2-0.4-1.2-0.7-0.3-1.5c5.8-5,11.6-10.1,17.4-15.1c12.8-11,25.5-22.1,38.3-33.1c10.9-9.4,21.8-18.8,32.7-28.3
					c1.1-0.9,2.2-1.3,3.6-1.3c35.8,0,71.7,0,107.5,0c43.2,0,86.5,0,129.7,0c22.8,0,45.5,0,68.3,0c23,0,46.1,0,69.1,0
					c24.9,0,49.8,0,74.8,0c23.4,0,46.7,0,70.1,0c20.8,0,41.6,0,62.4,0c0.9,0,1.6,0.3,2.2,1c6.7,7.9,13.4,15.9,20.2,23.8
					c14.8,17.5,29.7,34.9,44.5,52.4c1.1,1.3,1,1.5-0.5,2.1c-2.6,1-5.3,1.3-8.1,1.6c-2.3,0.3-4.5,0.5-6.8,0.7c-6.7,0-13.4,0-20.2,0
					c-1.4-0.4-2.9-0.3-4.4-0.4c-3.4-0.4-6.8-0.5-10-1.8c-1.8-0.8-3.1-0.8-4.9,0c-2.6,1.1-5.6,1.3-8.4,1.6c-2.5,0.3-4.9,0.5-7.4,0.7
					c-7.3,0-14.6,0-21.8,0c-1.6-0.4-3.3-0.3-5-0.4c-3.7-0.4-7.6-0.5-11.1-1.9c-1.7-0.7-3-0.7-4.7,0c-2.7,1.1-5.7,1.3-8.6,1.6
					c-2.5,0.3-4.9,0.5-7.4,0.7c-7.3,0-14.6,0-21.8,0c-0.3-0.1-0.6-0.2-0.9-0.2c-2.9-0.1-5.7-0.4-8.6-0.8c-2.9-0.4-5.8-0.7-8.4-2.2
					c-0.3-0.2-0.5-0.2-0.8,0c-2.2,1.6-4.9,1.9-7.5,2.3c-2.5,0.4-5,0.6-7.5,0.9c-6.1,0-12.2,0-18.2,0c-1.9-0.2-3.7-0.4-5.6-0.6
					c-3.2-0.4-6.5-0.7-9.3-2.5c-0.3-0.2-0.5-0.1-0.8,0c-2.1,1.5-4.5,1.8-6.9,2.2c-2.6,0.4-5.3,0.6-8,1c-6,0-12,0-18,0
					c-0.5-0.2-1-0.2-1.5-0.2c-3.9-0.3-7.8-0.6-11.6-1.9c-2-0.7-2.6-0.7-4.5,0c-2.4,0.8-4.8,1.2-7.3,1.5c-2.3,0.3-4.7,0.5-7,0.7
					c-5.2,0-10.4,0-15.6,0c-2.3-0.2-4.5-0.4-6.8-0.7c-3.2-0.4-6.5-0.6-9.3-2.5c-0.3-0.2-0.5-0.2-0.8,0c-2,1.5-4.5,1.8-6.9,2.2
					c-2.6,0.4-5.1,0.6-7.7,0.9c-5.6,0-11.2,0-16.8,0c-1.2-0.4-2.5-0.2-3.8-0.4c-3.7-0.5-7.5-0.6-10.8-2.8c-0.3-0.2-0.5-0.1-0.8,0.1
					c-2.1,1.5-4.6,1.8-7,2.2c-2.6,0.4-5.2,0.6-7.8,0.9c-6,0-12,0-18,0c-2-0.2-4-0.4-6.1-0.7c-3.1-0.5-6.2-0.6-8.9-2.5
					c-0.3-0.2-0.5-0.1-0.8,0.1c-2.2,1.5-4.7,1.8-7.2,2.2c-2.7,0.4-5.4,0.6-8.1,0.9c-5.8,0-11.7,0-17.5,0c-2.1-0.2-4.1-0.4-6.2-0.7
					c-3.2-0.4-6.4-0.7-9.2-2.5c-0.3-0.2-0.5-0.1-0.8,0c-2.1,1.6-4.7,1.8-7.1,2.2c-2.6,0.4-5.1,0.6-7.7,0.9c-6.2,0-12.3,0-18.5,0
					c-1.9-0.2-3.8-0.4-5.7-0.7c-3.2-0.5-6.5-0.7-9.3-2.6c-0.3-0.2-0.6-0.1-0.9,0.1c-1.3,0.7-2.7,1.1-4.1,1.3
					c-4.4,0.9-8.9,1.2-13.3,1.3c-5.8,0.2-11.6,0.2-17.4-0.2c-3.5-0.3-7.1-0.5-10.6-1.4c-2.3-0.6-4-0.6-6.2,0.1
					c-0.3,0.1-0.5,0.2-0.8,0.2c-3.2,0.8-6.5,1.1-9.8,1.4c-1.7,0.2-3.5,0.1-5.2,0.4c-6,0-12,0-18,0c-0.6-0.3-1.3-0.2-1.9-0.2
					c-4.6-0.3-9.3-0.6-13.8-1.8c-1.2-0.3-2.2-1.3-3.3-1.3c-1.1,0-2.1,1-3.3,1.3c-3.4,0.9-6.8,1.2-10.3,1.5c-1.8,0.2-3.6,0.1-5.4,0.4
					c-6,0-12,0-18,0c-0.4-0.1-0.7-0.2-1.1-0.2c-3-0.1-5.9-0.3-8.8-0.7c-3-0.4-6.1-0.7-8.7-2.3c-0.3-0.2-0.5-0.2-0.8,0
					c-2.6,1.6-5.6,1.9-8.5,2.3C187.7,250.5,185.4,250.8,183.1,251z"/>
			</g>
			<line class="st25" x1="198.6" y1="246.6" x2="255.9" y2="161.9"/>
			<line class="st25" x1="254.6" y1="246.6" x2="302.1" y2="161.9"/>
			<line class="st25" x1="310.5" y1="246.6" x2="348.4" y2="161.5"/>
			<line class="st25" x1="359.6" y1="246.6" x2="387.8" y2="161.9"/>
			<line class="st25" x1="408.6" y1="246.6" x2="427.4" y2="161.5"/>
			<line class="st25" x1="457.5" y1="246.6" x2="466.8" y2="161.5"/>
			<line class="st25" x1="506.1" y1="245.8" x2="506.1" y2="161.5"/>
			<line class="st25" x1="217.4" y1="169.3" x2="803.1" y2="169.3"/>
			<line class="st25" x1="815.8" y1="246.6" x2="755.9" y2="157.5"/>
			<line class="st25" x1="757.3" y1="246.6" x2="707.4" y2="157.2"/>
			<line class="st25" x1="698.8" y1="246.6" x2="658.9" y2="156.8"/>
			<line class="st25" x1="650.1" y1="246.6" x2="620.2" y2="156.3"/>
			<line class="st25" x1="601.4" y1="246.6" x2="581.5" y2="155.8"/>
			<line class="st25" x1="552.8" y1="246.6" x2="543.5" y2="161.9"/>
		</g>
		<path class="st26" d="M801.8,168.5H218.4c-0.4,0-0.8-0.4-0.8-0.8v-11.6c0-0.4,0.4-0.8,0.8-0.8h584.2v12.4
			C802.6,168.1,802.2,168.5,801.8,168.5z"/>
		<g id="XMLID_2_">
			<path class="st27" d="M253.4,410.9v-25.2c0-1.9,1.6-3.5,3.5-3.5h9c1.9,0,3.5,1.6,3.5,3.5v25.2H253.4z"/>
			<path class="st27" d="M265.9,383.7c1.1,0,2,0.9,2,2v23.7h-13v-23.7c0-1.1,0.9-2,2-2H265.9 M265.9,380.7h-9c-2.8,0-5,2.2-5,5v26.7
				h19v-26.7C270.9,382.9,268.7,380.7,265.9,380.7L265.9,380.7z"/>
		</g>
		<g id="XMLID_1_">
			<path class="st27" d="M417.9,410.9v-25.2c0-1.9,1.6-3.5,3.5-3.5h9c1.9,0,3.5,1.6,3.5,3.5v25.2H417.9z"/>
			<path class="st27" d="M430.5,383.7c1.1,0,2,0.9,2,2v23.7h-13v-23.7c0-1.1,0.9-2,2-2H430.5 M430.5,380.7h-9c-2.8,0-5,2.2-5,5v26.7
				h19v-26.7C435.5,382.9,433.2,380.7,430.5,380.7L430.5,380.7z"/>
		</g>
		<g>
			<rect x="161.2" y="257.2" class="st14" width="12.6" height="154.7"/>
			<path class="st14" d="M173.3,257.7l0,153.7h-11.6l0-153.7H173.3 M174.3,256.7h-13.6l0,155.7h13.6L174.3,256.7L174.3,256.7z"/>
		</g>
		<g id="XMLID_4_">
			<path class="st27" d="M159.5,410.9v-9c0-1.9,1.6-3.5,3.5-3.5h9c1.9,0,3.5,1.6,3.5,3.5v9H159.5z"/>
			<path class="st27" d="M172,399.9c1.1,0,2,0.9,2,2v7.5h-13v-7.5c0-1.1,0.9-2,2-2H172 M172,396.9h-9c-2.8,0-5,2.2-5,5v10.5h19
				v-10.5C177,399.2,174.8,396.9,172,396.9L172,396.9z"/>
		</g>
		<g>
			<rect x="814.2" y="257.2" class="st14" width="12.6" height="154.7"/>
			<path class="st14" d="M826.3,257.7l0,153.7h-11.6l0-153.7L826.3,257.7 M827.3,256.7l-13.6,0l0,155.7h13.6L827.3,256.7
				L827.3,256.7z"/>
		</g>
		<g id="XMLID_8_">
			<path class="st27" d="M813.4,410.8v-9c0-1.9,1.6-3.5,3.5-3.5h9c1.9,0,3.5,1.6,3.5,3.5v9H813.4z"/>
			<path class="st27" d="M825.9,399.8c1.1,0,2,0.9,2,2v7.5h-13v-7.5c0-1.1,0.9-2,2-2H825.9 M825.9,396.8h-9c-2.8,0-5,2.2-5,5v10.5
				h19v-10.5C830.9,399,828.6,396.8,825.9,396.8L825.9,396.8z"/>
		</g>
	</g>
	<linearGradient id="地板_2_" gradientUnits="userSpaceOnUse" x1="500" y1="1024" x2="500" y2="432.0445">
		<stop  offset="0" style="stop-color:#424242"/>
		<stop  offset="0.5519" style="stop-color:#3F3F3F"/>
		<stop  offset="0.8834" style="stop-color:#373737"/>
		<stop  offset="1" style="stop-color:#323232"/>
	</linearGradient>
	<rect id="地板_1_" x="-12" y="432" class="st28" width="1024" height="592"/>
	<g id="草_8_" class="st1">
		<linearGradient id="SVGID_7_" gradientUnits="userSpaceOnUse" x1="56.1953" y1="877.4583" x2="56.1953" y2="430.0445">
			<stop  offset="0" style="stop-color:#7A8A2D"/>
			<stop  offset="0.4291" style="stop-color:#7D8B2D"/>
			<stop  offset="0.6871" style="stop-color:#85902D"/>
			<stop  offset="0.8991" style="stop-color:#93972D"/>
			<stop  offset="1" style="stop-color:#9D9C2D"/>
		</linearGradient>
		<path class="st29" d="M-62,877.5L-12,430l190,2C131.5,422.6-96.9,835.8-62,877.5z"/>
		<linearGradient id="SVGID_8_" gradientUnits="userSpaceOnUse" x1="942.6302" y1="877.4583" x2="942.6302" y2="430.0445">
			<stop  offset="0" style="stop-color:#7A8A2D"/>
			<stop  offset="0.4291" style="stop-color:#7D8B2D"/>
			<stop  offset="0.6871" style="stop-color:#85902D"/>
			<stop  offset="0.8991" style="stop-color:#93972D"/>
			<stop  offset="1" style="stop-color:#9D9C2D"/>
		</linearGradient>
		<path class="st30" d="M1062,877.5L1012,430l-190,2C862.8,430,1081.8,848.2,1062,877.5z"/>
		<g id="草">
			<g>
				
					<linearGradient id="SVGID_9_" gradientUnits="userSpaceOnUse" x1="31.97" y1="378.8966" x2="31.97" y2="443.4264" gradientTransform="matrix(1 -0.2245 0 1 0 13.8296)">
					<stop  offset="0" style="stop-color:#247746"/>
					<stop  offset="0.4328" style="stop-color:#267846"/>
					<stop  offset="0.5888" style="stop-color:#2D7A44"/>
					<stop  offset="0.6999" style="stop-color:#387D42"/>
					<stop  offset="0.7898" style="stop-color:#49823E"/>
					<stop  offset="0.8667" style="stop-color:#5F893A"/>
					<stop  offset="0.9337" style="stop-color:#7A9134"/>
					<stop  offset="0.9939" style="stop-color:#999B2E"/>
					<stop  offset="1" style="stop-color:#9D9C2D"/>
				</linearGradient>
				<path class="st31" d="M-12,459.3L76.9,440c4.7-6.2,10.9-48.3-23.5-55.4c-10.9-2.2-38.6,0.1-56.6,22.9
					c-12.1,15.4-18.3,37.3-9,51.6C-12.1,459.2-12.1,459.3-12,459.3z"/>
			</g>
			<g>
				<g>
					<polygon class="st32" points="32.1,449 33.7,448.6 33.7,392.1 32.1,392.5 					"/>
				</g>
				<g>
					<path class="st32" d="M60,394.4c0.2,0.1,0.4,0.3,0.6,0.4l-27.5,30.7l-0.5-0.5L60,394.4z"/>
				</g>
				<g>
					<path class="st32" d="M69.1,404.6c0.2,0.2,0.3,0.4,0.6,0.5l-36.5,39.7l-0.5-0.5L69.1,404.6z"/>
				</g>
				<g>
					<path class="st32" d="M74.1,419.8c0.1,0.2,0.3,0.5,0.4,0.7l-22.2,24.3l-0.5-0.5L74.1,419.8z"/>
				</g>
				<g>
					<polygon class="st32" points="15.4,453 16,452.3 -10,434.6 -10.5,435.3 					"/>
				</g>
				<g>
					<polygon class="st32" points="33.2,407.5 46,392.2 45.5,391.8 32.6,407.1 					"/>
				</g>
				<g>
					<polygon class="st32" points="32.6,425.6 33.1,424.9 5,406.6 4.5,407.4 					"/>
				</g>
				<g>
					<polygon class="st32" points="32.6,444.8 33.1,444.1 -4.2,419.7 -4.8,420.4 					"/>
				</g>
				<g>
					<polygon class="st32" points="32.6,407.7 33.1,406.9 19.1,396.9 18.5,397.6 					"/>
				</g>
			</g>
		</g>
		<g id="草_1_">
			<g>
				
					<linearGradient id="SVGID_10_" gradientUnits="userSpaceOnUse" x1="-63.5099" y1="396.5624" x2="-63.5099" y2="451.7947" gradientTransform="matrix(1 0.1475 0 1 1022.7325 18.9113)">
					<stop  offset="0" style="stop-color:#247746"/>
					<stop  offset="0.3896" style="stop-color:#267846"/>
					<stop  offset="0.5299" style="stop-color:#2D7A44"/>
					<stop  offset="0.6299" style="stop-color:#387D42"/>
					<stop  offset="0.7108" style="stop-color:#49823E"/>
					<stop  offset="0.7801" style="stop-color:#5F893A"/>
					<stop  offset="0.8403" style="stop-color:#7A9134"/>
					<stop  offset="0.8945" style="stop-color:#999B2E"/>
					<stop  offset="0.9" style="stop-color:#9D9C2D"/>
				</linearGradient>
				<path class="st33" d="M898.2,444.9l123.7,18.2c6.5-9.7-3.4-23.9-17.7-30.6c-19.2-9-17.1-27.5-41.8-42.4
					c-10.8-6.5-33.3-14.4-53.1,0.5c-13,9.8-19.4,37.5-11.3,53.9C898.1,444.7,898.2,444.8,898.2,444.9z"/>
			</g>
			<g>
				<g>
					<polygon class="st32" points="943.8,450 942.7,449.8 942.7,392.3 943.8,392.5 					"/>
				</g>
				<g>
					<polygon class="st32" points="943.1,426.5 916.6,399.7 916.9,399.3 943.4,426.1 					"/>
				</g>
				<g>
					<polygon class="st32" points="943.1,445.7 907.7,410.2 908,409.8 943.4,445.4 					"/>
				</g>
				<g>
					<polygon class="st32" points="923.6,447.2 902.1,425.6 902.5,425.3 924,446.8 					"/>
				</g>
				<g>
					<polygon class="st32" points="983.3,455.6 977.3,449.5 977.6,449.2 983.6,455.2 					"/>
				</g>
				<g>
					<polygon class="st32" points="1010,459.5 1009.6,459 1015.6,454.8 1016,455.2 					"/>
				</g>
				<g>
					<polygon class="st32" points="961,452.7 960.6,452.2 975.4,441.8 975.7,442.2 					"/>
				</g>
				<g>
					
						<rect x="935.5" y="389.1" transform="matrix(0.7371 -0.6758 0.6758 0.7371 -24.4134 737.5728)" class="st32" width="0.5" height="22.1"/>
				</g>
				<g>
					<polygon class="st32" points="943.4,426.5 943.1,426.1 969.6,407.1 969.9,407.6 					"/>
				</g>
				<g>
					<polygon class="st32" points="943.4,445.8 943.1,445.3 978.5,420.2 978.8,420.7 					"/>
				</g>
				<g>
					<polygon class="st32" points="996.8,447.2 996.4,446.8 1006.7,439.5 1007,440 					"/>
				</g>
				<g>
					<polygon class="st32" points="996.8,458 996.4,457.5 1011.2,447.1 1011.6,447.5 					"/>
				</g>
				<g>
					<polygon class="st32" points="996.6,447.2 986.3,436.9 986.7,436.6 996.9,446.9 					"/>
				</g>
				<g>
					<polygon class="st32" points="996.6,458 981.8,443.1 982.1,442.8 996.9,457.6 					"/>
				</g>
				<g>
					<polygon class="st32" points="943.5,408.5 943.1,408.1 958,396.2 958.4,396.6 					"/>
				</g>
				<g>
					<polygon class="st32" points="997.2,459 996.1,458.8 996.1,434.1 997.2,434.2 					"/>
				</g>
			</g>
		</g>
		<g id="草_2_">
			<g>
				
					<linearGradient id="SVGID_11_" gradientUnits="userSpaceOnUse" x1="1017.0775" y1="451.7846" x2="1017.0775" y2="506.7076" gradientTransform="matrix(-1.0846 -0.2859 0 1 2033.3855 299.7782)">
					<stop  offset="0" style="stop-color:#3C7B61"/>
					<stop  offset="0.4525" style="stop-color:#3E7C60"/>
					<stop  offset="0.6155" style="stop-color:#457E5C"/>
					<stop  offset="0.7317" style="stop-color:#508256"/>
					<stop  offset="0.8256" style="stop-color:#61884D"/>
					<stop  offset="0.9061" style="stop-color:#778F41"/>
					<stop  offset="0.976" style="stop-color:#929833"/>
					<stop  offset="1" style="stop-color:#9D9C2D"/>
				</linearGradient>
				<path class="st34" d="M890.8,505.3c-9.4-27.9,24-48.6,46.9-42.6c22.2,5.8,39,37.4,32.1,63.4L890.8,505.3z"/>
			</g>
			<g>
				<polygon class="st35" points="930.3,515.7 930.3,464.9 930.8,465.1 930.7,515.9 				"/>
			</g>
			<g>
				<polygon class="st35" points="931.5,516.1 951,476.8 951.4,477.1 932,516.2 				"/>
			</g>
			<g>
				<polygon class="st35" points="938.4,517.9 968,516 968.1,516.4 939.8,518.3 				"/>
			</g>
			<g>
				<polygon class="st35" points="929.1,515.4 912.9,471.1 913.3,471 929.6,515.6 				"/>
			</g>
			<g>
				<polygon class="st35" points="927.5,515 898.9,478.1 899.2,477.8 928.1,515.2 				"/>
			</g>
			<g>
				<polygon class="st35" points="923.1,513.9 891.5,492.4 891.7,492 924.3,514.2 				"/>
			</g>
		</g>
		<g id="草_3_">
			<g>
				
					<linearGradient id="SVGID_12_" gradientUnits="userSpaceOnUse" x1="1852.9211" y1="815.6892" x2="1854.2056" y2="863.1989" gradientTransform="matrix(1.0934 -0.2803 -2.956030e-02 0.9996 -1922.0616 151.7559)">
					<stop  offset="0" style="stop-color:#3C7B61"/>
					<stop  offset="0.4525" style="stop-color:#3E7C60"/>
					<stop  offset="0.6155" style="stop-color:#457E5C"/>
					<stop  offset="0.7317" style="stop-color:#508256"/>
					<stop  offset="0.8256" style="stop-color:#61884D"/>
					<stop  offset="0.9061" style="stop-color:#778F41"/>
					<stop  offset="0.976" style="stop-color:#929833"/>
					<stop  offset="1" style="stop-color:#9D9C2D"/>
				</linearGradient>
				<path class="st36" d="M113.3,485.5c8.7-23.6-19.2-41.3-38.7-36.2c-18.9,4.9-34,31.5-28.8,53.6L113.3,485.5z"/>
			</g>
			<g>
				<polygon class="st35" points="79.5,494.2 80.7,451.1 80.3,451.2 79.1,494.2 				"/>
			</g>
			<g>
				<polygon class="st35" points="78.5,494.4 62.9,461.1 62.5,461.3 78,494.5 				"/>
			</g>
			<g>
				<polygon class="st35" points="76.9,494.8 49.8,477.4 49.5,477.8 76.3,495 				"/>
			</g>
			<g>
				<polygon class="st35" points="72.5,495.9 47.5,494.2 47.4,494.6 71.3,496.2 				"/>
			</g>
			<g>
				<polygon class="st35" points="80.5,493.9 95.4,456.4 95,456.4 80,494 				"/>
			</g>
			<g>
				<polygon class="st35" points="81.9,493.5 107,462.4 106.7,462.2 81.4,493.7 				"/>
			</g>
			<g>
				<polygon class="st35" points="85.6,492.6 112.9,474.5 112.8,474.2 84.6,492.8 				"/>
			</g>
		</g>
		<g id="草_4_">
			<g>
				
					<linearGradient id="SVGID_13_" gradientUnits="userSpaceOnUse" x1="-33.0733" y1="503.8155" x2="-33.0733" y2="561.295" gradientTransform="matrix(0.9493 0.4364 -0.1139 0.98 1087.4286 52.1842)">
					<stop  offset="0" style="stop-color:#247746"/>
					<stop  offset="0.3896" style="stop-color:#267846"/>
					<stop  offset="0.5299" style="stop-color:#2D7A44"/>
					<stop  offset="0.6299" style="stop-color:#387D42"/>
					<stop  offset="0.7108" style="stop-color:#49823E"/>
					<stop  offset="0.7801" style="stop-color:#5F893A"/>
					<stop  offset="0.8403" style="stop-color:#7A9134"/>
					<stop  offset="0.8945" style="stop-color:#999B2E"/>
					<stop  offset="0.9" style="stop-color:#9D9C2D"/>
				</linearGradient>
				<path class="st37" d="M932.7,552.5l122.2,56.2c7.7-7.9-0.6-25.4-14.1-36.5c-18.2-15-14-33.3-37-55.9
					c-10.1-9.9-31.8-24.8-53.4-15.6c-14.2,6-24,32.3-17.8,51.5C932.6,552.3,932.7,552.4,932.7,552.5z"/>
			</g>
			<g>
				<g>
					<polygon class="st32" points="977.9,571.5 976.9,571 983.7,512.4 984.8,512.9 					"/>
				</g>
				<g>
					<polygon class="st32" points="980,547.3 956.5,512 956.9,511.7 980.4,547.1 					"/>
				</g>
				<g>
					<polygon class="st32" points="977.7,567 946.3,520 946.7,519.7 978.1,566.7 					"/>
				</g>
				<g>
					<polygon class="st32" points="958,562.6 938.9,534 939.3,533.8 958.4,562.3 					"/>
				</g>
				<g>
					<polygon class="st32" points="1017,589.2 1011.7,581.2 1012.1,581 1017.4,588.9 					"/>
				</g>
				<g>
					<polygon class="st32" points="1043.3,601.3 1043,600.7 1049.6,598.2 1049.9,598.8 					"/>
				</g>
				<g>
					<polygon class="st32" points="994.9,579.5 994.6,578.9 1010.6,572.7 1010.9,573.3 					"/>
				</g>
				<g>
					<polygon class="st32" points="982.1,529 969,507.8 969.4,507.6 982.5,528.8 					"/>
				</g>
				<g>
					<polygon class="st32" points="980.4,547.5 980.1,546.9 1008.9,535.6 1009.2,536.2 					"/>
				</g>
				<g>
					<polygon class="st32" points="978.1,567.1 977.8,566.5 1016.3,551.7 1016.6,552.3 					"/>
				</g>
				<g>
					<polygon class="st32" points="1031.5,584.8 1031.2,584.3 1042.4,580 1042.7,580.5 					"/>
				</g>
				<g>
					<polygon class="st32" points="1030.3,595.8 1030,595.2 1046,589 1046.3,589.6 					"/>
				</g>
				<g>
					<polygon class="st32" points="1031.3,584.7 1022.2,571.1 1022.6,570.9 1031.7,584.5 					"/>
				</g>
				<g>
					<polygon class="st32" points="1030,595.7 1016.9,576.1 1017.3,575.8 1030.4,595.4 					"/>
				</g>
				<g>
					<polygon class="st32" points="982.5,529.2 982.2,528.6 998.6,521 998.9,521.6 					"/>
				</g>
				<g>
					<polygon class="st32" points="1030.5,596.9 1029.4,596.4 1032.4,571.2 1033.4,571.7 					"/>
				</g>
			</g>
		</g>
		<g id="草_5_">
			<g>
				
					<linearGradient id="SVGID_14_" gradientUnits="userSpaceOnUse" x1="-687.1153" y1="841.57" x2="-687.1153" y2="887.819" gradientTransform="matrix(-0.9632 0.4632 8.404287e-02 0.9493 -727.9947 23.2566)">
					<stop  offset="0" style="stop-color:#247746"/>
					<stop  offset="0.3896" style="stop-color:#267846"/>
					<stop  offset="0.5299" style="stop-color:#2D7A44"/>
					<stop  offset="0.6299" style="stop-color:#387D42"/>
					<stop  offset="0.7108" style="stop-color:#49823E"/>
					<stop  offset="0.7801" style="stop-color:#5F893A"/>
					<stop  offset="0.8403" style="stop-color:#7A9134"/>
					<stop  offset="0.8945" style="stop-color:#999B2E"/>
					<stop  offset="0.9" style="stop-color:#9D9C2D"/>
				</linearGradient>
				<path class="st38" d="M57.1,518.2l-99.7,48c-6-5.9,1.1-19.9,12.3-29.1c15-12.4,12.1-26.5,31.2-45c8.4-8.1,26.2-20.4,43.4-14
					c11.3,4.3,18.5,24.5,13,39.8C57.2,518,57.1,518.1,57.1,518.2z"/>
			</g>
			<g>
				<g>
					<polygon class="st32" points="20.2,534.6 21.1,534.1 17,488.4 16.2,488.9 					"/>
				</g>
				<g>
					<polygon class="st32" points="19.1,515.7 38.9,487.2 38.6,487 18.8,515.5 					"/>
				</g>
				<g>
					<polygon class="st32" points="20.5,531 46.9,493.2 46.6,493 20.2,530.8 					"/>
				</g>
				<g>
					<polygon class="st32" points="36.5,526.9 52.5,503.9 52.2,503.7 36.2,526.7 					"/>
				</g>
				<g>
					<polygon class="st32" points="-11.7,549.7 -7.2,543.3 -7.5,543.1 -12,549.5 					"/>
				</g>
				<g>
					<polygon class="st32" points="-33.2,560 -32.9,559.6 -38.1,557.8 -38.4,558.3 					"/>
				</g>
				<g>
					<polygon class="st32" points="6.4,541.4 6.6,540.9 -6.1,536.6 -6.4,537.1 					"/>
				</g>
				<g>
					<polygon class="st32" points="17.9,501.4 28.9,484.4 28.6,484.2 17.6,501.2 					"/>
				</g>
				<g>
					<polygon class="st32" points="18.9,515.8 19.1,515.4 -3.9,507.5 -4.1,507.9 					"/>
				</g>
				<g>
					<polygon class="st32" points="20.2,531.1 20.5,530.7 -10.2,520.3 -10.5,520.8 					"/>
				</g>
				<g>
					<polygon class="st32" points="-23.3,546.7 -23,546.3 -31.9,543.3 -32.1,543.7 					"/>
				</g>
				<g>
					<polygon class="st32" points="-22.5,555.3 -22.3,554.8 -35,550.5 -35.3,551 					"/>
				</g>
				<g>
					<polygon class="st32" points="-23.1,546.7 -15.4,535.7 -15.7,535.5 -23.4,546.5 					"/>
				</g>
				<g>
					<polygon class="st32" points="-22.3,555.2 -11.3,539.4 -11.6,539.2 -22.6,555 					"/>
				</g>
				<g>
					<polygon class="st32" points="17.6,501.5 17.9,501.1 4.8,495.7 4.5,496.1 					"/>
				</g>
				<g>
					<polygon class="st32" points="-22.7,556.2 -21.9,555.8 -23.6,536.1 -24.5,536.5 					"/>
				</g>
			</g>
		</g>
		<g id="草_7_">
			
				<linearGradient id="SVGID_15_" gradientUnits="userSpaceOnUse" x1="934.5781" y1="613.0811" x2="934.5781" y2="553.9119" gradientTransform="matrix(-1.0846 -0.6481 0 1 2033.3771 670.749)">
				<stop  offset="5.000000e-02" style="stop-color:#9D9C2D"/>
				<stop  offset="8.557678e-02" style="stop-color:#A59D25"/>
				<stop  offset="0.189" style="stop-color:#B59F14"/>
				<stop  offset="0.3178" style="stop-color:#C1A109"/>
				<stop  offset="0.4984" style="stop-color:#C7A202"/>
				<stop  offset="1" style="stop-color:#C9A200"/>
			</linearGradient>
			<path class="st39" d="M977.2,652.8c-10.1-33.5,25.9-43.7,50.6-29c23.9,14.3,42,54.3,34.6,79.8L977.2,652.8z"/>
			<g>
				<polygon class="st35" points="1019.7,678.2 1019.8,623.5 1020.3,623.8 1020.2,678.5 				"/>
			</g>
			<g>
				<polygon class="st35" points="1021.1,679 1042.1,643.7 1042.5,644.1 1021.6,679.3 				"/>
			</g>
			<g>
				<polygon class="st35" points="1023.1,680.2 1058.2,669.9 1058.5,670.5 1023.8,680.6 				"/>
			</g>
			<g>
				<polygon class="st35" points="1028.5,683.4 1060.4,692 1060.6,692.5 1030.1,684.4 				"/>
			</g>
			<g>
				<polygon class="st35" points="1018.5,677.5 1001,623.8 1001.4,623.9 1019.1,677.8 				"/>
			</g>
			<g>
				<polygon class="st35" points="1016.7,676.4 986,626.3 986.3,626.2 1017.4,676.8 				"/>
			</g>
			<g>
				<polygon class="st35" points="1012.1,673.6 978,639.1 978.2,638.7 1013.3,674.4 				"/>
			</g>
		</g>
		<g id="草_6_">
			
				<linearGradient id="SVGID_16_" gradientUnits="userSpaceOnUse" x1="1747.8051" y1="1222.9017" x2="1747.8051" y2="1163.7324" gradientTransform="matrix(1.0846 -0.6837 0 1 -1915.4172 621.7289)">
				<stop  offset="5.000000e-02" style="stop-color:#9D9C2D"/>
				<stop  offset="8.557678e-02" style="stop-color:#A59D25"/>
				<stop  offset="0.189" style="stop-color:#B59F14"/>
				<stop  offset="0.3178" style="stop-color:#C1A109"/>
				<stop  offset="0.4984" style="stop-color:#C7A202"/>
				<stop  offset="1" style="stop-color:#C9A200"/>
			</linearGradient>
			<path class="st40" d="M22.8,622.8C32.9,589-3.1,580-27.7,595.5c-23.9,15.1-42,55.7-34.6,81L22.8,622.8z"/>
			<g>
				<polygon class="st35" points="-19.7,649.6 -19.8,594.9 -20.3,595.2 -20.2,650 				"/>
			</g>
			<g>
				<polygon class="st35" points="-21.1,650.5 -42.1,615.9 -42.5,616.3 -21.6,650.8 				"/>
			</g>
			<g>
				<polygon class="st35" points="-23.1,651.7 -58.2,642.7 -58.5,643.2 -23.8,652.2 				"/>
			</g>
			<g>
				<polygon class="st35" points="-28.5,655.2 -60.4,664.8 -60.6,665.3 -30.1,656.2 				"/>
			</g>
			<g>
				<polygon class="st35" points="-18.5,648.9 -1,594.7 -1.4,594.8 -19.1,649.2 				"/>
			</g>
			<g>
				<polygon class="st35" points="-16.7,647.8 14,596.7 13.7,596.5 -17.4,648.2 				"/>
			</g>
			<g>
				<polygon class="st35" points="-12.1,644.8 22,609.2 21.8,608.8 -13.3,645.6 				"/>
			</g>
		</g>
	</g>
</g>
<g id="出血" class="st41">
	<g class="st42">
		<g>
			<polyline class="st43" points="960,967 960,972 955,972 			"/>
			<line class="st44" x1="944.8" y1="972" x2="909" y2="972"/>
			<line class="st45" x1="903.9" y1="972" x2="50.1" y2="972"/>
			<polyline class="st43" points="45,972 40,972 40,967 			"/>
			<line class="st44" x1="40" y1="956.8" x2="40" y2="921"/>
			<line class="st45" x1="40" y1="915.9" x2="40" y2="62.1"/>
			<polyline class="st43" points="40,57 40,52 45,52 			"/>
			<line class="st44" x1="55.2" y1="52" x2="91" y2="52"/>
			<line class="st45" x1="96.1" y1="52" x2="949.9" y2="52"/>
			<polyline class="st43" points="955,52 960,52 960,57 			"/>
			<line class="st44" x1="960" y1="67.2" x2="960" y2="103"/>
			<line class="st45" x1="960" y1="108.1" x2="960" y2="961.9"/>
		</g>
	</g>
	<text transform="matrix(1 0 0 1 389.3829 43.6739)" class="st46 st47 st48 st49">920 x 920  px</text>
</g>
</svg>
