<?xml version="1.0" encoding="utf-8"?>
<!-- Generator: Adobe Illustrator 24.3.0, SVG Export Plug-In . SVG Version: 6.00 Build 0)  -->
<svg version="1.1" id="圖層_2" xmlns="http://www.w3.org/2000/svg" xmlns:xlink="http://www.w3.org/1999/xlink" x="0px" y="0px"
	 viewBox="0 0 257.7 478.1" style="enable-background:new 0 0 257.7 478.1;" xml:space="preserve">
<style type="text/css">
	.st0{opacity:0.8;fill:#2D2D2D;}
	.st1{fill:#F7E7D6;}
	.st2{fill:#EDBCB2;}
	.st3{fill:#AB9BC0;}
	.st4{fill:#EFC9C0;}
	.st5{fill:#EFEFEF;}
	.st6{fill:#B5A6CC;}
	.st7{fill:#BCB0A6;}
	.st8{fill:#3D3939;}
	.st9{fill:#F0867A;}
	.st10{fill:#AA9CC0;}
</style>
<g>
	<ellipse class="st0" cx="134.2" cy="445.9" rx="94.9" ry="13.2"/>
	<g>
		<g>
			<path class="st1" d="M142.7,370.4c-3,23.1,2.7,46.7,15.9,65.9c2.5,3.7,8.6,0.2,6-3.5c-12.6-18.3-17.8-40.4-14.9-62.4
				C150.3,365.9,143.3,366,142.7,370.4L142.7,370.4z"/>
		</g>
	</g>
	<path class="st2" d="M159.2,295.6c0,0,25.3-14.4,47.9-32.3c0,0-7.7-25.1-25.8-39.3c-18-14.3-29.4-10.6-29.4-10.6
		S130,247.7,125.7,259c-2.9,7.7-4.9,15.5,5.8,27.2C133.6,288.3,146.7,302.7,159.2,295.6z"/>
	<path class="st1" d="M108.5,331.4c-2.6,36.2-5.2,72.3-7.7,108.5c-0.4,5.1,7.5,5.6,7.9,0.6c2.6-36.2,5.1-72.3,7.7-108.5
		C116.8,326.9,108.9,326.3,108.5,331.4"/>
	<g>
		<g>
			<path class="st3" d="M105.8,437c-4.1-1.2-12-2.4-15.1,1.5c-4,5,2.8,8.7,6.9,9.3c4,0.6,11.4,0.5,13.3-4c2.4-5.7-6-7.4-9.7-7.4
				c-3.9,0-3.9,6,0,6c0.8,0,1.9,0.2,2.7,0.2c0.7,0.5,1.2,0.3,1.3-0.6c0.7-1,0.6-1.1-0.5-0.5c-0.8,0-1.8,0.5-2.6,0.5
				c-1.1,0.1-2.2,0.1-3.3-0.1c-0.5-0.1-2.1-0.8-2.6-0.6c-0.8,0.9-0.8,1.2,0,0.9c0.6-0.1,1.2-0.2,1.7-0.2c2.2-0.1,4.2,0.2,6.3,0.8
				C107.9,443.8,109.5,438,105.8,437L105.8,437z"/>
		</g>
	</g>
	<g>
		<g>
			<path class="st3" d="M160.4,429.9c-4.2,0.6-11.4,2.8-12.8,7.4c-1.8,6.3,6.2,6.9,10.2,5.8c3.7-1,10.6-4.4,10.4-9.1
				c-0.2-6.4-8.7-4.2-12.2-2.7c-3.5,1.6-0.5,6.7,3,5.2c0.3-0.1,3.1-0.8,3.3-1c0.3-1.8,0-2.2-0.9-1.1c-0.3,0.2-0.6,0.5-0.9,0.7
				c-1.7,1.3-3.7,2.1-5.8,2.4c-0.5,0.1-0.9,0.1-1.4,0.1c-0.5,1.4-0.4,1.8,0.3,1.1c0.7-0.1,1.7-1.2,2.4-1.5c1.9-1,3.9-1.4,5.9-1.7
				C165.8,435.2,164.1,429.4,160.4,429.9L160.4,429.9z"/>
		</g>
	</g>
	<path class="st1" d="M79.3,250c0,0-5.1,48.3-6,63.2c-1,14.9,2.2,17.9,16.1,22.7s56,9.8,85.1-1.7c8.4-4,11.9-7.1,11.9-18.6
		c-0.1-11.5-1.8-46.5-8.9-65.1L79.3,250z"/>
	<path class="st4" d="M78,262.6c0,0-9.1,49.3-11.1,67.1s-2,32-2,32s30.9,14.6,68.4,13.1c37.6-1.6,61.3-21.4,61.3-21.4
		s-2.9-62.4-14.6-94.5L78,262.6z"/>
	<path class="st5" d="M71.7,298.3c0,0,10.3-35.7,38-39.2c27.7-3.5,59.5,5.6,59.5,5.6s9.3,3.2,12.9,0.5c0,0-1.9-6-2.6-8L80,251.6
		C80,251.6,72.9,290.9,71.7,298.3z"/>
	<g>
		<circle class="st3" cx="196.5" cy="56.9" r="44.2"/>
		<path class="st1" d="M237.4,194.7c-6.3,61.2-65,81.6-129.7,70.1C42.4,253.1-1,215.8,10,154.1c9.4-52.7,68-86.4,130.8-75.2
			C203.5,90.1,242.8,141.4,237.4,194.7"/>
		<circle class="st6" cx="223.8" cy="79.2" r="27"/>
		<path class="st3" d="M8.6,144l228.5,70c0,0,57.5-115.5-47.9-135.3c0,0-35.3-44.4-102.5-35.4C29,51.1,8.6,108.6,8.6,144z"/>
		<path class="st7" d="M190.6,199.5c0,0,13.8-6.2,12,8.4c-1.7,14.6-16.1,17.9-21.7,14.2C175.4,218.4,190.6,199.5,190.6,199.5"/>
		<path class="st1" d="M188.6,198.5c0,0,13.8-6.2,12,8.4c-1.7,14.6-16.1,17.9-21.7,14.2C173.4,217.4,188.6,198.5,188.6,198.5"/>
		<g>
			<g>
				<path class="st8" d="M61.6,189.6c4.9,0.3,9.7,0.5,14.6,0.8c1.3,0.1,1.3-1.9,0-2c-4.9-0.3-9.7-0.5-14.6-0.8
					C60.3,187.5,60.3,189.5,61.6,189.6L61.6,189.6z"/>
			</g>
		</g>
		<g>
			<path class="st9" d="M48.6,211.4c0.6-3.3,2.8-5.7,5.8-6.8c3-1.1,6.4-0.7,9.1,1.1c0.8,0.5,1.5,1.2,1.8,2s0.2,2-0.5,2.6
				c-0.7,0.6-1.8,0.5-2.7,0.2c-0.9-0.3-1.8-0.7-2.7-0.7c-1.9,0-3.3,1.7-4.5,3.1c-1.3,1.4-3.3,2.6-5,1.6
				C48.9,213.8,48.5,212.5,48.6,211.4c0.2-1.1,0.5-2,1.1-3"/>
			<g>
				<path class="st9" d="M49.6,211.7c1.1-5.7,7.7-8.4,12.7-5.6c1,0.5,2.7,1.7,2.1,3c-0.6,1.3-2.8,0.1-3.7-0.2
					c-3.2-0.9-4.9,1.6-7,3.5c-0.9,0.8-2.7,2.1-3.7,0.9c-1-1.2-0.2-3.2,0.6-4.4c0.7-1.1-1-2.1-1.7-1c-1,1.5-1.7,3.6-1.1,5.4
					c0.6,1.7,2.1,2.7,3.9,2.5c1.8-0.3,3.2-1.5,4.3-2.8c0.6-0.6,1.2-1.3,1.9-1.8c0.9-0.6,1.7-0.5,2.7-0.2c1.7,0.5,3.7,1.3,5.1-0.2
					c1.3-1.3,0.9-3.4-0.2-4.7c-2.3-2.9-7-3.7-10.4-2.8c-3.8,1-6.8,4-7.5,7.9C47.4,212.4,49.4,212.9,49.6,211.7L49.6,211.7z"/>
			</g>
		</g>
	</g>
	<path class="st10" d="M69.1,314.1c0,0,32.4,14.4,67.6,10.8c35.2-3.6,53.6-18.9,53.6-18.9l1.2,9.7c0,0-30.2,14.6-53.3,16.2
		c-23.1,1.6-52.6-4-70.2-10.8L69.1,314.1z"/>
	<path class="st1" d="M134.1,286.9c0.3,28.6-19.4,52.6-39.9,66.4c0,0,0,0,0,0c0,0-6.1,2.4-7,3.6c-0.7,0.8-0.1,1.4,1.6,1.8
		c-3.2,1.8-6.1,5.1-4,6.5c1.8,1.2,10.1-4.5,13.2-7.1c0,0,0,0,0,0c22-14.7,43.6-39.3,43.4-69.8C141.2,283.5,134.1,282.2,134.1,286.9z
		"/>
	<path class="st2" d="M114.4,277.9c0,0-19.5,21.7-35.1,45.9c0,0,15.3,21.3,36.9,29.1c21.6,7.8,31.3,0.7,31.3,0.7s9.8-39.6,10.3-51.6
		c0.3-8.2-0.3-16.3-14.1-23.9C140.9,276.6,124,267.2,114.4,277.9z"/>
</g>
</svg>
