<?xml version="1.0" encoding="utf-8"?>
<!-- Generator: Adobe Illustrator 24.3.0, SVG Export Plug-In . SVG Version: 6.00 Build 0)  -->
<svg version="1.1" id="圖層_2" xmlns="http://www.w3.org/2000/svg" xmlns:xlink="http://www.w3.org/1999/xlink" x="0px" y="0px"
	 viewBox="0 0 325.5 478.1" style="enable-background:new 0 0 325.5 478.1;" xml:space="preserve">
<style type="text/css">
	.st0{opacity:0.8;fill:#2D2D2D;}
	.st1{fill:#F7E7D6;}
	.st2{fill:#EDBCB2;}
	.st3{fill:#AB9BC0;}
	.st4{fill:#EFC9C0;}
	.st5{fill:#EFEFEF;}
	.st6{fill:#B5A6CC;}
	.st7{fill:#BCB0A6;}
	.st8{fill:#3D3939;}
	.st9{fill:#F0867A;}
	.st10{fill:#AA9CC0;}
	.st11{fill:none;stroke:#FFFFFF;stroke-miterlimit:10;}
</style>
<g>
	<ellipse class="st0" cx="210" cy="451.9" rx="94.9" ry="13.2"/>
	<path class="st1" d="M161.8,266.3c-24.4,14.9-55.1,10.2-77.5-0.3c0,0,0,0,0,0c0,0-5.2-4-6.7-4.2c-1-0.2-1.3,0.6-0.7,2.3
		c-3.2-1.8-7.5-2.6-7.6-0.1c-0.1,2.2,9.1,6.3,12.8,7.7c0,0,0,0,0,0c23.9,11.3,56.1,17.4,82.2,1.5
		C168.3,270.7,165.8,263.8,161.8,266.3z"/>
	<path class="st2" d="M162.5,270.4c0,0-29.1-2.3-57.8-0.2c0,0-7.7,25.1-0.8,47c6.9,21.9,18.4,25.3,18.4,25.3s37.5-16.2,47.3-23.1
		c6.7-4.7,12.7-10.1,10.4-25.7C179.6,290.8,176.9,271.5,162.5,270.4z"/>
	<path class="st1" d="M222.5,339.6c0.1,36.3,0.2,72.5,0.3,108.8c0,5.1,7.9,5.1,7.9,0c-0.1-36.3-0.2-72.5-0.3-108.8
		C230.4,334.5,222.5,334.5,222.5,339.6"/>
	<g>
		<path class="st1" d="M182.2,339.6c0.1,36.3,0.2,72.5,0.3,108.8c0,5.1,7.9,5.1,7.9,0c-0.1-36.3-0.2-72.5-0.3-108.8
			C190.1,334.5,182.2,334.5,182.2,339.6"/>
		<g>
			<g>
				<path class="st3" d="M187.5,445.1c-4.3-0.9-12.5-1.7-15.3,2.7c-3.4,5.4,3.6,8.3,7.7,8.7c3.9,0.3,11.7-0.5,13-5.1
					c1.6-5.7-6.3-6.8-10.1-6.5c-3.8,0.3-3.9,6.3,0,6c0.9-0.1,1.8-0.2,2.7-0.1c0.5,0,0.9,0.1,1.4,0.3c0.9,0.5,0.9-0.1,0.1-1.6
					c-0.4-0.2-2.2,0.7-2.7,0.8c-1.1,0.2-2.2,0.3-3.3,0.3c-0.9,0-1.9-0.5-2.8-0.4c-0.8-0.6-1.1-0.5-0.9,0.4c-0.2,0.9,0.2,1,1.1,0.4
					c1.2,0.1,2.5-0.4,3.7-0.4c1.3,0,2.5,0.2,3.7,0.4C189.7,451.7,191.3,445.9,187.5,445.1L187.5,445.1z"/>
			</g>
		</g>
	</g>
	<g>
		<g>
			<path class="st3" d="M227.8,445.1c-4.3-0.9-12.5-1.7-15.3,2.7c-3.4,5.4,3.6,8.3,7.7,8.7c3.9,0.3,11.7-0.5,13-5.1
				c1.6-5.7-6.3-6.8-10.1-6.5c-3.8,0.3-3.9,6.3,0,6c0.9-0.1,1.8-0.2,2.7-0.1c0.5,0,0.9,0.1,1.4,0.3c0.9,0.5,0.9-0.1,0.1-1.6
				c-0.4-0.2-2.2,0.7-2.7,0.8c-1.1,0.2-2.2,0.3-3.3,0.3c-0.9,0-1.9-0.5-2.8-0.4c-0.8-0.6-1.1-0.5-0.9,0.4c-0.2,0.9,0.2,1,1.1,0.4
				c1.2,0.1,2.5-0.4,3.7-0.4c1.3,0,2.5,0.2,3.7,0.4C229.9,451.7,231.6,445.9,227.8,445.1L227.8,445.1z"/>
		</g>
	</g>
	<path class="st1" d="M152,257.7c0,0-5.1,48.3-6,63.2c-1,14.9,2.2,17.9,16.1,22.7c13.9,4.8,56,9.8,85.1-1.7
		c8.4-4,11.9-7.1,11.9-18.6c-0.1-11.5-1.8-46.5-8.9-65.1L152,257.7z"/>
	<path class="st4" d="M150.7,270.3c0,0-9.1,49.3-11.1,67.1c-2,17.8-2,32-2,32s30.9,14.6,68.4,13.1s61.3-21.4,61.3-21.4
		s-2.9-62.4-14.6-94.5L150.7,270.3z"/>
	<path class="st5" d="M144.4,306c0,0,10.3-35.7,38-39.2c27.7-3.5,59.5,5.6,59.5,5.6s9.3,3.2,12.9,0.5c0,0-3.5-11.6-4.3-13.6h-97.8
		C152.8,259.2,145.7,298.6,144.4,306z"/>
	<g>
		<circle class="st3" cx="229" cy="46.9" r="44.2"/>
		<path class="st1" d="M314.1,162.8c14.8,59.7-33.5,98.8-98.4,109.8c-65.4,11.1-118.9-9.3-129.4-71.1c-9-52.8,34.7-104.3,97.6-115
			C246.9,75.9,301.2,110.8,314.1,162.8"/>
		<circle class="st6" cx="262.3" cy="58.7" r="27"/>
		<path class="st3" d="M81.7,192.5l238.7-11.5c0,0,15.1-128.2-90.8-111.1c0,0-48.3-29.8-108.4,1.4C69.5,98.2,69.8,159.2,81.7,192.5z
			"/>
		<g>
			<path class="st7" d="M271.5,183.9c0,0,10.9-10.5,14.2,3.8c3.3,14.3-9.1,22.3-15.6,20.7C263.6,206.8,271.5,183.9,271.5,183.9"/>
		</g>
		<g>
			<path class="st1" d="M269.5,182.9c0,0,10.9-10.5,14.2,3.8c3.3,14.3-9.1,22.3-15.6,20.7C261.6,205.8,269.5,182.9,269.5,182.9"/>
		</g>
		<g>
			<g>
				<path class="st8" d="M146.9,217.5c4.7-1.4,9.3-2.8,14-4.2c1.2-0.4,0.7-2.3-0.5-1.9c-4.7,1.4-9.3,2.8-14,4.2
					C145.2,215.9,145.7,217.8,146.9,217.5L146.9,217.5z"/>
			</g>
		</g>
		<g>
			<path class="st9" d="M119.1,233.6c-0.2-2.3,0-2.7,0.4-3.5c0.5-0.8,0.9-1.1,1.8-1.1c0.7-0.1,1.4,0.3,1.9,0.7
				c1.7,1.3,2.9,3.3,3.2,5.5c0.2,1.3,0,2.7-0.8,3.7c-0.8,1-2,1.5-3.3,0.8c-0.8-0.4-1.7-1.5-2.1-2.4c-1.1-2.3-2-4.9-0.7-7.1"/>
			<g>
				<path class="st9" d="M120.1,233.6c0-0.5-0.1-1-0.1-1.5c0-0.2,0-0.3,0-0.5c0-0.1,0-0.1,0-0.2c0,0.2,0,0,0-0.1
					c0-0.1,0.1-0.2,0.1-0.3c0-0.1-0.1,0.2,0,0c0,0,0-0.1,0.1-0.1c0.1-0.2,0.3-0.5,0.4-0.7c0.1-0.1,0.2-0.2,0.2-0.2
					c0,0,0.2-0.1,0.4-0.1c0.5-0.1,0.9,0.1,1.3,0.4c0.8,0.5,1.4,1.3,1.9,2.1c0.9,1.5,1.5,3.7,0.7,5.4c-0.3,0.6-0.9,1.3-1.7,1.2
					c-0.9-0.1-1.5-0.9-1.9-1.6c-0.6-1-1.1-2.2-1.3-3.3c-0.3-1.2-0.3-2.4,0.2-3.5c0.6-1.1-1.1-2.2-1.7-1c-1.4,2.7-0.5,5.9,0.9,8.5
					c0.6,1.1,1.6,2.3,2.8,2.7c1.3,0.4,2.6,0.1,3.6-0.9c2-2,1.7-5.3,0.6-7.6c-1-2.2-3.5-5-6.2-4.2c-1.1,0.3-1.8,1.3-2.2,2.3
					c-0.4,1-0.3,2.1-0.2,3.1c0.1,0.5,0.4,1,1,1C119.6,234.6,120.2,234.2,120.1,233.6L120.1,233.6z"/>
			</g>
		</g>
	</g>
	<path class="st10" d="M141.9,321.8c0,0,32.4,14.4,67.6,10.8c35.2-3.6,53.6-18.9,53.6-18.9l1.2,9.7c0,0-30.2,14.6-53.3,16.2
		c-23.1,1.6-52.6-4-70.2-10.8L141.9,321.8z"/>
	<path class="st1" d="M197.9,291.8c14.1,24.9,8.5,55.4-2.7,77.4c0,0,0,0,0,0c0,0-4.2,5.1-4.4,6.6c-0.2,1,0.6,1.3,2.3,0.8
		c-1.9,3.1-2.8,7.4-0.3,7.6c2.2,0.2,6.6-8.9,8.1-12.6c0,0,0,0,0,0c12.1-23.6,19.1-55.6,4-82.1C202.5,285.4,195.6,287.7,197.9,291.8z
		"/>
	<path class="st2" d="M176.3,293.5c0,0-6.5,28.4-8.4,57.2c0,0,23.7,11.2,46.4,7.5c22.7-3.7,27.7-14.6,27.7-14.6
		s-10.7-39.4-16.1-50.1c-3.7-7.3-8.2-14.1-24-14C198.9,279.5,179.5,279.5,176.3,293.5z"/>
	<path class="st11" d="M79.5,251.6c-10.9-2.3-22.6-0.5-32.3,5"/>
	<path class="st11" d="M84.1,247.4c-5.5-1.5-11.5-1-16.6,1.4"/>
</g>
</svg>
