<svg id="rocket" xmlns="http://www.w3.org/2000/svg" viewBox="0 0 67.89 121.8"><defs><style>.cls-1{fill:#09f;}.cls-2{fill:#0633ad;}.cls-3{fill:#214a81;}.cls-4{fill:#fff;}.cls-5{fill:#f7f7f7;}.cls-6{fill:#cee0f0;}.cls-7{fill:#e05edc;}.cls-8{fill:#7fe5e3;}.cls-9{fill:#0062ff;}.cls-10{fill:#a9c5bf;stroke:#000043;stroke-miterlimit:10;}.cls-11{fill:#f7e8d7;}.cls-12{fill:#5a5758;}.cls-13{fill:#f6e272;}.cls-14{fill:#e6f4f0;opacity:0.52;isolation:isolate;}</style></defs><g id="rocket-2" data-name="rocket"><path id="Path_3380" data-name="Path 3380" class="cls-1" d="M14.82,85.87a.66.66,0,0,0-.8-.48.7.7,0,0,0-.45.37c-1.8,4-6.61,15.12-13.51,33.65a1.62,1.62,0,0,0,.81,1.86.66.66,0,0,0,.92-.19.41.41,0,0,0,.08-.19c3.23-11.23,8.36-21.62,13.56-32a.72.72,0,0,0,.05-.46Z"/><path id="Path_3381" data-name="Path 3381" class="cls-2" d="M1.85,121a.66.66,0,0,0,.44.82l.16,0h.81a2.34,2.34,0,0,0,2-1.23c2.76-4.78,7.35-10.33,14.48-12.73a.65.65,0,0,0,.43-.79L16,90.42a.66.66,0,0,0-.8-.48.69.69,0,0,0-.43.35C9.77,100.2,4.93,110.19,1.85,121Z"/><path id="Path_3382" data-name="Path 3382" class="cls-2" d="M62.59,120.56c-2.84-4.92-7.6-10.64-15.07-12.92l6-23.59s5.43,11.56,14.3,35.36c.47,1.26-1.17,2.38-2.4,2.38h-.8A2.32,2.32,0,0,1,62.59,120.56Z"/><path id="Path_3383" data-name="Path 3383" class="cls-3" d="M40.76,114.6H26.53a1.23,1.23,0,0,1-1.17-1l-.78-3.85a1.31,1.31,0,0,1,.94-1.6,1,1,0,0,1,.23,0h15.8a1.31,1.31,0,0,1,1.21,1.4h0a2,2,0,0,1,0,.24l-.78,3.85A1.24,1.24,0,0,1,40.76,114.6Z"/><path id="Path_3384" data-name="Path 3384" class="cls-4" d="M13.16,75s2.18,22.4,8.93,36.6a27.94,27.94,0,0,1,23.42,0s7.75-12,9.33-38.37c.92-15.21-.17-32.58-4.68-47.54H18.67C14.48,37.86,11.5,54.23,13.16,75Z"/><path id="Path_3385" data-name="Path 3385" class="cls-5" d="M53.84,43.47a112.87,112.87,0,0,0-3.72-17.75H18.63C14.44,37.9,11.45,54.27,13.11,75Q14,83.45,15.8,91.74C34.57,83.88,48.31,65,53.84,43.47Z"/><path id="Path_3386" data-name="Path 3386" class="cls-6" d="M15.8,91.74a94.09,94.09,0,0,0,6.25,19.88,28,28,0,0,1,23.42,0s7.75-12,9.33-38.37a157.65,157.65,0,0,0-1-29.78C48.31,65,34.57,83.88,15.8,91.74Z"/><path id="Path_3387" data-name="Path 3387" class="cls-7" d="M31.44,1.44A82.56,82.56,0,0,0,18.63,25.72H50.12C47.23,16.14,43,7.55,36.89,1.15a3.53,3.53,0,0,0-5-.23,3.37,3.37,0,0,0-.47.53Z"/><path id="Path_3388" data-name="Path 3388" class="cls-1" d="M34.56,0a3.59,3.59,0,0,0-3.12,1.41A82.74,82.74,0,0,0,18.63,25.71H37.07A8.35,8.35,0,0,0,38.17,23,45.34,45.34,0,0,0,34.56,0Z"/><path id="Path_3389" data-name="Path 3389" class="cls-8" d="M29.9,15.74C32.11,12,33,8.28,31.77,7.41s-3.92,1.45-6.13,5.19-3,7.46-1.87,8.33S27.69,19.48,29.9,15.74Z"/><path id="Path_3390" data-name="Path 3390" class="cls-9" d="M36.89,1.15A3.49,3.49,0,0,0,34.56,0a45.38,45.38,0,0,1,3.61,23,8.53,8.53,0,0,1-1.1,2.69h13C47.23,16.14,43,7.55,36.89,1.15Z"/><path id="Path_3392" data-name="Path 3392" class="cls-1" d="M33.19,94.83a29.44,29.44,0,0,0-2.9,23.07C34.23,110.52,34.35,102.67,33.19,94.83Z"/><path id="Path_3393" data-name="Path 3393" class="cls-9" d="M33.41,94.48l-.22.35c1.16,7.84,1.05,15.69-2.9,23.07.26.89.57,1.8.94,2.73.17.73,1.36,1.25,2.65,1.15,1-.07,1.85-.53,2-1.11C39.63,112,38.77,102.88,33.41,94.48Z"/><g id="Group_1583" data-name="Group 1583"><path id="Path_2947" data-name="Path 2947" class="cls-10" d="M29.72,67.43a32.4,32.4,0,0,0,9.37-.62,15.85,15.85,0,0,0,4.33-1.48,7.43,7.43,0,0,0,3.91-5.59c.62-4.81-2-9.89-5.82-12.74a13.27,13.27,0,0,0-13.1-1.36,16.48,16.48,0,0,0-5.84,4,14.63,14.63,0,0,0-3.33,6.23c-.55,2.24-.68,4.89.58,6.9a7.43,7.43,0,0,0,.84,1.08,12.48,12.48,0,0,0,7.39,3.38C28.61,67.33,29.16,67.38,29.72,67.43Z"/><path id="Path_2949" data-name="Path 2949" class="cls-11" d="M22.54,61.55s-1.22-.34-.89.85a1.34,1.34,0,0,0,1.56,1.06,1.26,1.26,0,0,0,.42-.16c.42-.38-1.09-1.76-1.09-1.76"/><path id="Path_2950" data-name="Path 2950" class="cls-11" d="M44.52,61.69s1.23-.32.89.86a1.34,1.34,0,0,1-1.57,1.05,1.25,1.25,0,0,1-.43-.17c-.41-.38,1.11-1.74,1.11-1.74"/><path id="Path_2951" data-name="Path 2951" class="cls-11" d="M45.47,57.75c.44,6.42-5.24,9.56-12.11,9.51s-12.06-3.12-12-9.66c0-5.6,5.47-10.1,12.13-10.06s11.62,4.63,12,10.21"/><path id="Path_2952" data-name="Path 2952" class="cls-12" d="M27.65,63.06a.54.54,0,0,1-1.07,0,.53.53,0,0,1,.54-.53h0a.53.53,0,0,1,.53.53h0"/><path id="Path_2953" data-name="Path 2953" class="cls-12" d="M40.18,63.15a.54.54,0,0,1-.54.53.53.53,0,0,1-.52-.54.53.53,0,0,1,.53-.53h0a.55.55,0,0,1,.53.54h0"/><path id="Path_2954" data-name="Path 2954" class="cls-13" d="M21.23,61s16.57.63,18.92.59c0-2.22.27-2.55.27-2.55l.22,2.55,5-.53s1.82-6.76-1.91-10.61a13.82,13.82,0,0,0-9.8-4.21,13.3,13.3,0,0,0-12.16,7.24c-1.23,2.7-1.19,7.17-.54,7.52"/><path id="Path_2955" data-name="Path 2955" class="cls-12" d="M31.65,65.65a3.26,3.26,0,0,0,3.16,0s0-.13,0-.11a3.18,3.18,0,0,1-3.12,0c-.05,0-.07.08,0,.11"/><path id="Path_2956" data-name="Path 2956" class="cls-14" d="M25.34,48.05a17.41,17.41,0,0,1,3.43-1.9,12.9,12.9,0,0,1,3.61-1c.92-.09,1.85.13,2,1.17C34.68,47.78,33,49,32,49.9c-1.92,1.72-3.71,3.64-6,4.86a7.8,7.8,0,0,1-3.74,1,1.85,1.85,0,0,1-1.56-.6c-.7-1,.35-2.5.89-3.31A14.85,14.85,0,0,1,25.34,48.05Z"/><ellipse id="Ellipse_139" data-name="Ellipse 139" class="cls-14" cx="21.86" cy="60.05" rx="1.99" ry="3.2" transform="translate(-13.4 6.75) rotate(-13.48)"/></g></g></svg>