<?xml version="1.0" encoding="utf-8"?>
<!-- Generator: Adobe Illustrator 24.3.0, SVG Export Plug-In . SVG Version: 6.00 Build 0)  -->
<svg version="1.1" id="圖層_4" xmlns="http://www.w3.org/2000/svg" xmlns:xlink="http://www.w3.org/1999/xlink" x="0px" y="0px"
	 viewBox="0 0 311.6 314.8" style="enable-background:new 0 0 311.6 314.8;" xml:space="preserve">
<style type="text/css">
	.st0{clip-path:url(#XMLID_2_);fill:url(#SVGID_1_);}
	.st1{clip-path:url(#XMLID_2_);fill:url(#SVGID_2_);}
	.st2{clip-path:url(#XMLID_2_);}
	.st3{clip-path:url(#XMLID_2_);fill:url(#XMLID_5_);}
	.st4{clip-path:url(#XMLID_2_);fill:url(#SVGID_3_);}
	.st5{clip-path:url(#XMLID_2_);fill:url(#SVGID_4_);}
	.st6{fill:url(#SVGID_5_);}
	.st7{fill:#753D17;}
	.st8{fill:#F7E7D6;}
	.st9{clip-path:url(#SVGID_7_);fill:#E0B190;}
	.st10{clip-path:url(#SVGID_7_);fill:#D88A4B;}
	.st11{clip-path:url(#SVGID_7_);}
	.st12{clip-path:url(#SVGID_7_);fill:#E5D5C5;}
	.st13{clip-path:url(#SVGID_7_);fill:#E0A469;}
	.st14{clip-path:url(#SVGID_7_);fill:#544B47;}
	.st15{clip-path:url(#SVGID_7_);fill:#CB783C;}
	.st16{clip-path:url(#SVGID_7_);fill:#383532;}
	.st17{clip-path:url(#SVGID_7_);fill:#D0BFAD;}
	.st18{clip-path:url(#SVGID_7_);fill:#FFFFFF;}
	.st19{clip-path:url(#SVGID_7_);fill:#24211F;}
	.st20{clip-path:url(#SVGID_7_);fill:#263C5B;}
	.st21{clip-path:url(#SVGID_7_);fill:#5F554E;}
	.st22{clip-path:url(#SVGID_7_);fill:#A45E29;}
	.st23{clip-path:url(#SVGID_7_);fill:#B65E43;}
	.st24{fill:#FFFFFF;}
	.st25{fill:#2B2B2B;}
</style>
<g>
	<g>
		<defs>
			<path id="XMLID_20_" d="M277.9,157.4c4.2-6.6,6.6-14.5,6.6-23c0-21.4-15.6-39.1-36-42.5c-6-19.9-24.5-34.3-46.3-34.3
				c-1.3,0-2.5,0.1-3.8,0.2c-10.6-12.2-26.3-19.9-43.7-19.9c-19.7,0-37,9.8-47.5,24.8c-32.3,1.9-58,28.7-58,61.5
				c0,4.9,0.6,9.6,1.7,14.2c-7,10.3-11.1,22.8-11.1,36.2c0,35.6,28.9,64.5,64.5,64.5c1.9,0,3.7-0.1,5.5-0.2
				c10.7,18,30.4,30.1,52.9,30.1c25,0,46.5-14.9,56.2-36.3c7.7,5.2,16.9,8.3,26.9,8.3c26.4,0,47.9-21.4,47.9-47.9
				C293.6,178.8,287.6,166.2,277.9,157.4z"/>
		</defs>
		<use xlink:href="#XMLID_20_"  style="overflow:visible;fill:#FFFFFF;"/>
		<clipPath id="XMLID_2_">
			<use xlink:href="#XMLID_20_"  style="overflow:visible;"/>
		</clipPath>
		
			<linearGradient id="SVGID_1_" gradientUnits="userSpaceOnUse" x1="166.197" y1="180.7653" x2="176.9169" y2="158.6759" gradientTransform="matrix(0.9829 0.1843 -0.1843 0.9829 65.2056 17.8801)">
			<stop  offset="0" style="stop-color:#C96873"/>
			<stop  offset="1" style="stop-color:#E86D64"/>
		</linearGradient>
		<path class="st0" d="M185.7,181.9c0,0,13.8,4.1,21.9,15.8c8,11.8,6.2-24.3,15.5-28.2s24.9,6.6,30.3,23.5
			c5.4,16.9-43,74.4-64.2,14.4L185.7,181.9z"/>
		<linearGradient id="SVGID_2_" gradientUnits="userSpaceOnUse" x1="143.8006" y1="236.9192" x2="126.259" y2="236.4319">
			<stop  offset="0" style="stop-color:#C96873"/>
			<stop  offset="1" style="stop-color:#E86D64"/>
		</linearGradient>
		<path class="st1" d="M140,194.4c0,0-28.6,10.7-24,55.5s32.5,24.7,32.5,24.7L140,194.4z"/>
		<g class="st2">
			<defs>
				<path id="XMLID_23_" d="M138.3,195.1c0,0,2,34.3,3.3,39.8s3.1,17.8,35.4,11.7s26.2-22.6,26.2-22.6s-3.3-19.8-11-39.2
					L138.3,195.1z"/>
			</defs>
			
				<linearGradient id="XMLID_3_" gradientUnits="userSpaceOnUse" x1="231.0895" y1="365.884" x2="229.4653" y2="425.3304" gradientTransform="matrix(0.8865 -0.4628 0.4628 0.8865 -214.2051 -21.0316)">
				<stop  offset="0" style="stop-color:#FFD6BB"/>
				<stop  offset="1" style="stop-color:#F7E7D6"/>
			</linearGradient>
			<use xlink:href="#XMLID_23_"  style="overflow:visible;fill:url(#XMLID_3_);"/>
			<clipPath id="XMLID_4_">
				<use xlink:href="#XMLID_23_"  style="overflow:visible;"/>
			</clipPath>
		</g>
		<linearGradient id="XMLID_5_" gradientUnits="userSpaceOnUse" x1="175.3584" y1="268.208" x2="171.4858" y2="199.4692">
			<stop  offset="0" style="stop-color:#C96873"/>
			<stop  offset="1" style="stop-color:#E86D64"/>
		</linearGradient>
		<path id="XMLID_22_" class="st3" d="M139.2,208.1c0,0,17.2-5.5,29.6-3.6c0,0,16-9,28.1-6.9c0,0,9.2,51.1,10.9,61.6
			c1.8,10.5-60.3,16.3-60.3,16.3S139.9,233,139.2,208.1z"/>
		<linearGradient id="SVGID_3_" gradientUnits="userSpaceOnUse" x1="102.7137" y1="253.0267" x2="204.5522" y2="220.8672">
			<stop  offset="0" style="stop-color:#CC6573"/>
			<stop  offset="0.1528" style="stop-color:#D26A74"/>
			<stop  offset="0.3492" style="stop-color:#E27977"/>
			<stop  offset="0.4772" style="stop-color:#F0867A"/>
		</linearGradient>
		<path class="st4" d="M149.5,192.9c0,0,2.5,54.2,15.8,75.8s0,0,0,0l-7.4,6.7l-23.8-6.7c0,0-6-44.2,3.2-73.7L149.5,192.9z"/>
		<linearGradient id="SVGID_4_" gradientUnits="userSpaceOnUse" x1="268.5739" y1="240.064" x2="89.2602" y2="218.1371">
			<stop  offset="0" style="stop-color:#CC6573"/>
			<stop  offset="0.1528" style="stop-color:#D26A74"/>
			<stop  offset="0.3492" style="stop-color:#E27977"/>
			<stop  offset="0.4772" style="stop-color:#F0867A"/>
		</linearGradient>
		<path class="st5" d="M179.1,187.2c0,0,17.3,29,17.7,71.3c0.4,42.3,0,0,0,0l2.1,7.2l10.2-9.3l5.4-8.3c0,0-2.9-32.6-22.3-63.5
			L179.1,187.2z"/>
	</g>
	<linearGradient id="SVGID_5_" gradientUnits="userSpaceOnUse" x1="148.4408" y1="192.9135" x2="148.4408" y2="192.9135">
		<stop  offset="0" style="stop-color:#C96873"/>
		<stop  offset="1" style="stop-color:#E86D64"/>
	</linearGradient>
	<path class="st6" d="M148.4,192.9"/>
	<path class="st7" d="M256.4,162.3c-2.2-1-4.7-0.8-7-0.5c-4.7,0.5-8.5,1-13.2,1.5l-0.6,2.3c-1.5,1-5.1-0.3-5.1-0.3s-2.5-0.8-2.8-1.5
		c-0.3-0.7-0.3-1.4-0.3-1.4c-9.6-1.6-16.8-1.8-26.5-2.4c-18.5-1.2-37-2.3-55.5-3.5c-15.1-0.9-30.2-1.9-45.3-1.8
		c-8.1,0-16.3,0.4-24,3c-4.1,1.4-8.1,3.6-10.4,7.2c-3.3,5.1-3.5,12.4-0.8,17.8c3.1,6.2,9.2,8,15.1,9.3c5.9,1.3,13.7,0.3,19.8-0.2
		c43.2-3.6,77-8,119.7-18.2c0,0,0.9-2.8,3.8-4.1c2.8-1.4,7.1-0.5,7.1-0.5c3-0.7,3.9,1.3,3.9,1.3c7,0,12.7,0.5,19.7,0.5
		c2,0,4.3-0.8,5.3-2.7C260.1,166,258.5,163.3,256.4,162.3z"/>
	<g>
		<path class="st8" d="M231.8,171c-0.9,0.1-1.9-0.2-2.7-0.6s-1.4-1.4-1.1-2.3c0.3-1,1.6-1.3,2.6-1.2c0.9,0.1,1.7,0.3,2.4,0.8
			c0.6,0.3,1.1,0.8,1.2,1.4c0.1,0.6,0,1.4-0.6,1.6C232.9,171,232.4,171,231.8,171"/>
	</g>
	<g>
		<path class="st8" d="M231.4,159.7c-1.6-0.2-2.3-0.2-3.1,0.5s-1.4,1.4-1.4,2.5c0,0.5,0.3,0.9,0.4,1.1c0.1,0.2,0.3,0.3,0.5,0.4
			c1.7,1,3.5,1.6,5.5,1.8c0.6,0.1,1.2,0.1,1.8-0.1s1.1-0.5,1.4-1.1c0.2-0.5,0.2-1.1,0-1.6c-0.4-1.1-1.3-2-2.4-2.6
			c-1.1-0.5-1.7-0.9-2.9-1.1"/>
	</g>
	<g>
		<g>
			<path class="st8" d="M84.1,154.8c0.5,1,1,2.1,1.5,3.1c0.1,0.3,0.6,0.4,0.8,0.2c0.3-0.2,0.4-0.5,0.2-0.8c-0.5-1-1-2.1-1.5-3.1
				c-0.1-0.3-0.6-0.4-0.8-0.2C84,154.2,83.9,154.5,84.1,154.8L84.1,154.8z"/>
		</g>
	</g>
	<g>
		<g>
			<path class="st8" d="M70.4,158.5c0.9,0.9,1.8,1.8,2.8,2.8c0.2,0.2,0.6,0.2,0.9,0c0.2-0.2,0.2-0.6,0-0.9c-0.9-0.9-1.8-1.8-2.8-2.8
				c-0.2-0.2-0.6-0.2-0.9,0C70.1,157.9,70.1,158.3,70.4,158.5L70.4,158.5z"/>
		</g>
	</g>
	<g>
		<g>
			<path class="st8" d="M59.3,174.1c1.4-0.2,2.8-0.4,4.2-0.7c0.3-0.1,0.5-0.5,0.4-0.8c-0.1-0.4-0.4-0.5-0.8-0.4
				c-1.4,0.2-2.8,0.4-4.2,0.7c-0.3,0.1-0.5,0.5-0.4,0.8C58.6,174,58.9,174.1,59.3,174.1L59.3,174.1z"/>
		</g>
	</g>
	<g>
		<g>
			<path class="st8" d="M69.8,179.7c1.2-0.5,2.4-1.1,3.6-1.6c0.3-0.1,0.4-0.6,0.2-0.8c-0.2-0.3-0.5-0.4-0.8-0.2
				c-1.2,0.5-2.4,1.1-3.6,1.6c-0.3,0.1-0.4,0.6-0.2,0.8C69.2,179.8,69.5,179.9,69.8,179.7L69.8,179.7z"/>
		</g>
	</g>
	<g>
		<g>
			<path class="st8" d="M65,163.7c1,0.9,2.1,1.7,3.1,2.6c0.2,0.2,0.6,0.3,0.9,0c0.2-0.2,0.3-0.7,0-0.9c-1-0.9-2.1-1.7-3.1-2.6
				c-0.2-0.2-0.6-0.3-0.9,0C64.8,163.1,64.7,163.5,65,163.7L65,163.7z"/>
		</g>
	</g>
	<g>
		<g>
			<path class="st8" d="M71.4,192.1c1.1-1,2.2-2.1,3.2-3.1c0.2-0.2,0.2-0.6,0-0.9c-0.3-0.2-0.6-0.2-0.9,0c-1.1,1-2.2,2.1-3.2,3.1
				c-0.2,0.2-0.2,0.6,0,0.9C70.8,192.4,71.2,192.4,71.4,192.1L71.4,192.1z"/>
		</g>
	</g>
	<g>
		<g>
			<path class="st8" d="M62.3,183.6c1.1-0.5,2.3-1,3.4-1.5c0.3-0.1,0.4-0.6,0.2-0.8c-0.2-0.3-0.5-0.4-0.8-0.2
				c-1.1,0.5-2.3,1-3.4,1.5c-0.3,0.1-0.4,0.6-0.2,0.8C61.7,183.7,62,183.7,62.3,183.6L62.3,183.6z"/>
		</g>
	</g>
	<g>
		<g>
			<path class="st8" d="M74.9,169.4c1.1,1.1,2.2,2.2,3.2,3.2c0.2,0.2,0.6,0.2,0.9,0c0.2-0.2,0.2-0.6,0-0.9c-1.1-1.1-2.2-2.2-3.2-3.2
				c-0.2-0.2-0.6-0.2-0.9,0C74.7,168.8,74.7,169.1,74.9,169.4L74.9,169.4z"/>
		</g>
	</g>
	<g>
		<g>
			<path class="st8" d="M82.1,159.5c0.3,0.8,0.7,1.6,1,2.4c0.1,0.2,0.1,0.3,0.3,0.4c0.1,0.1,0.3,0.1,0.5,0.1c0.1,0,0.3-0.1,0.4-0.3
				c0.1-0.1,0.1-0.3,0.1-0.5c-0.3-0.8-0.7-1.6-1-2.4c-0.1-0.2-0.1-0.3-0.3-0.4c-0.1-0.1-0.3-0.1-0.5-0.1c-0.1,0-0.3,0.1-0.4,0.3
				C82.1,159.2,82,159.4,82.1,159.5L82.1,159.5z"/>
		</g>
	</g>
	<g>
		<g>
			<path class="st8" d="M83.9,178.6c1.3-0.7,2.4-1.5,3.5-2.4c0.3-0.2,0.2-0.7,0-0.9c-0.3-0.2-0.6-0.2-0.9,0
				c-0.1,0.1-0.3,0.2-0.4,0.3c0,0-0.1,0.1,0,0c0,0-0.1,0.1-0.1,0.1c-0.1,0.1-0.1,0.1-0.2,0.1c-0.3,0.2-0.6,0.4-0.8,0.6
				c-0.6,0.4-1.1,0.7-1.7,1c-0.3,0.2-0.4,0.6-0.2,0.8C83.3,178.6,83.6,178.7,83.9,178.6L83.9,178.6z"/>
		</g>
	</g>
	<g>
		<g>
			<path class="st8" d="M89.7,166c0.3,0.8,0.7,1.6,1,2.4c0.1,0.2,0.1,0.3,0.3,0.4c0.1,0.1,0.3,0.1,0.5,0.1c0.3-0.1,0.6-0.4,0.4-0.8
				c-0.3-0.8-0.7-1.6-1-2.4c-0.1-0.2-0.1-0.3-0.3-0.4c-0.1-0.1-0.3-0.1-0.5-0.1C89.8,165.4,89.6,165.7,89.7,166L89.7,166z"/>
		</g>
	</g>
	<g>
		<g>
			<path class="st8" d="M87.9,190.7c1.1-1.5,2.2-2.9,3.2-4.4c0.2-0.3,0-0.7-0.2-0.8c-0.3-0.2-0.6,0-0.8,0.2
				c-1.1,1.5-2.2,2.9-3.2,4.4c-0.2,0.3,0,0.7,0.2,0.8C87.4,191.1,87.7,191,87.9,190.7L87.9,190.7z"/>
		</g>
	</g>
	<g>
		<g>
			<path class="st8" d="M80.5,185.8c0.4-0.4,0.8-0.8,1.1-1.1c0.1-0.1,0.2-0.3,0.2-0.4c0-0.2-0.1-0.3-0.2-0.4
				c-0.1-0.1-0.3-0.2-0.4-0.2c-0.2,0-0.3,0.1-0.4,0.2c-0.4,0.4-0.8,0.8-1.1,1.1c-0.1,0.1-0.2,0.3-0.2,0.4c0,0.2,0.1,0.3,0.2,0.4
				c0.1,0.1,0.3,0.2,0.4,0.2C80.2,186,80.4,185.9,80.5,185.8L80.5,185.8z"/>
		</g>
	</g>
	<g>
		<g>
			<path class="st8" d="M95.5,175.7c0.8,0,0.8-1.2,0-1.2C94.7,174.5,94.7,175.7,95.5,175.7L95.5,175.7z"/>
		</g>
	</g>
	<g>
		<g>
			<path class="st8" d="M93.8,158.4c0.2-0.9,0.5-1.8,0.7-2.8c0.1-0.3-0.1-0.7-0.4-0.8c-0.3-0.1-0.7,0.1-0.8,0.4
				c-0.2,0.9-0.5,1.8-0.7,2.8c-0.1,0.3,0.1,0.7,0.4,0.8C93.4,158.9,93.7,158.7,93.8,158.4L93.8,158.4z"/>
		</g>
	</g>
	<g>
		<g>
			<path class="st8" d="M91.2,156.1c0-1.1,0-2.3,0-3.4c0-0.3-0.3-0.6-0.6-0.6c-0.3,0-0.6,0.3-0.6,0.6c0,1.1,0,2.3,0,3.4
				c0,0.3,0.3,0.6,0.6,0.6C91,156.7,91.2,156.5,91.2,156.1L91.2,156.1z"/>
		</g>
	</g>
	<g>
		<g>
			<path class="st8" d="M100.3,195.6c0.6-1.8,1.3-3.4,2.2-5c0.4-0.7-0.7-1.3-1.1-0.6c-1,1.7-1.7,3.5-2.3,5.3
				c-0.1,0.3,0.1,0.7,0.4,0.8C99.9,196.1,100.2,195.9,100.3,195.6L100.3,195.6z"/>
		</g>
	</g>
	<g>
		<g>
			<path class="st8" d="M94.9,193.3c0.5-0.8,1-1.6,1.5-2.4c0.2-0.3,0.1-0.7-0.2-0.8c-0.3-0.2-0.7-0.1-0.8,0.2
				c-0.5,0.8-1,1.6-1.5,2.4c-0.2,0.3-0.1,0.7,0.2,0.8C94.4,193.7,94.7,193.6,94.9,193.3L94.9,193.3z"/>
		</g>
	</g>
	<g>
		<g>
			<path class="st8" d="M81.3,192.9c0.3-0.4,0.6-0.8,1-1.1c0.1-0.1,0.2-0.3,0.2-0.4c0-0.2-0.1-0.3-0.2-0.4c-0.1-0.1-0.3-0.2-0.4-0.2
				c-0.2,0-0.3,0.1-0.4,0.2c-0.3,0.4-0.6,0.8-1,1.1c-0.1,0.1-0.2,0.3-0.2,0.4c0,0.2,0.1,0.3,0.2,0.4c0.1,0.1,0.3,0.2,0.4,0.2
				C81,193.1,81.2,193.1,81.3,192.9L81.3,192.9z"/>
		</g>
	</g>
	<g>
		<g>
			<path class="st8" d="M95.5,182.2c0.6,0,1.3,0,1.9,0c0.3,0,0.6-0.3,0.6-0.6c0-0.3-0.3-0.6-0.6-0.6c-0.6,0-1.3,0-1.9,0
				c-0.3,0-0.6,0.3-0.6,0.6C94.9,182,95.1,182.2,95.5,182.2L95.5,182.2z"/>
		</g>
	</g>
	<g>
		<g>
			<path class="st8" d="M102.3,185.8c0.3-0.3,0.5-0.5,0.8-0.8c0.1-0.1,0.2-0.3,0.2-0.4c0-0.1,0-0.2-0.1-0.2c0-0.1-0.1-0.1-0.1-0.2
				c-0.1-0.1-0.3-0.2-0.4-0.2c-0.2,0-0.3,0.1-0.4,0.2c-0.3,0.3-0.5,0.5-0.8,0.8c-0.1,0.1-0.2,0.3-0.2,0.4c0,0.1,0,0.2,0.1,0.2
				c0,0.1,0.1,0.1,0.1,0.2c0.1,0.1,0.3,0.2,0.4,0.2C102,186,102.1,185.9,102.3,185.8L102.3,185.8z"/>
		</g>
	</g>
	<g>
		<g>
			<path class="st8" d="M109.2,190.6c0.1,0.3,0.1,0.5,0.1,0.8c0,0.1,0,0.1,0,0.2c0,0,0,0.2,0,0.1c0,0.1,0,0.3,0,0.4
				c0.1,0.5,0.1,1,0.1,1.5c0,0.3,0.3,0.6,0.6,0.6c0.3,0,0.6-0.3,0.6-0.6c0-1.1-0.1-2.2-0.3-3.2c-0.1-0.3-0.5-0.5-0.8-0.4
				C109.3,189.9,109.1,190.2,109.2,190.6L109.2,190.6z"/>
		</g>
	</g>
	<g>
		<g>
			<path class="st8" d="M97.3,166.1c1.1,0.7,2.1,1.4,3.2,2.2c0.3,0.2,0.7,0.1,0.8-0.2c0.2-0.3,0.1-0.6-0.2-0.8
				c-1.1-0.7-2.1-1.4-3.2-2.2c-0.3-0.2-0.7-0.1-0.8,0.2C96.9,165.5,97,165.9,97.3,166.1L97.3,166.1z"/>
		</g>
	</g>
	<g>
		<g>
			<path class="st8" d="M101.5,177c1.2-0.6,2.4-1.1,3.6-1.7c0.3-0.1,0.4-0.6,0.2-0.8c-0.2-0.3-0.5-0.4-0.8-0.2
				c-1.2,0.6-2.4,1.1-3.6,1.7c-0.3,0.1-0.4,0.6-0.2,0.8C100.9,177.1,101.2,177.1,101.5,177L101.5,177z"/>
		</g>
	</g>
	<g>
		<g>
			<path class="st8" d="M109.1,186.5c0.7-0.9,1.5-1.7,2.2-2.6c0.2-0.2,0.3-0.6,0-0.9c-0.2-0.2-0.6-0.3-0.9,0
				c-0.7,0.9-1.5,1.7-2.2,2.6c-0.2,0.2-0.3,0.6,0,0.9C108.5,186.7,108.9,186.7,109.1,186.5L109.1,186.5z"/>
		</g>
	</g>
	<g>
		<g>
			<path class="st8" d="M118,190.4c0.2-0.5,0.4-1.1,0.7-1.6c0.1-0.1,0-0.4-0.1-0.5c-0.1-0.1-0.2-0.2-0.4-0.3c-0.2,0-0.3,0-0.5,0.1
				c0,0-0.1,0.1-0.1,0.1c-0.1,0.1-0.1,0.2-0.2,0.3c-0.2,0.5-0.4,1.1-0.7,1.6c-0.1,0.1,0,0.4,0.1,0.5c0.1,0.1,0.2,0.2,0.4,0.3
				c0.2,0,0.3,0,0.5-0.1c0,0,0.1-0.1,0.1-0.1C117.9,190.6,118,190.5,118,190.4L118,190.4z"/>
		</g>
	</g>
	<g>
		<defs>
			<path id="XMLID_19_" d="M116.9,98.1c10.4,5.1,14.7,17.7,9.6,28.1c-5.1,10.4-25.3,18.7-35.7,13.7c-10.4-5.1-14.7-17.7-9.6-28.1
				C86.3,101.3,106.5,93,116.9,98.1z"/>
		</defs>
		<use xlink:href="#XMLID_19_"  style="overflow:visible;fill:#7A4623;"/>
		<clipPath id="XMLID_6_">
			<use xlink:href="#XMLID_19_"  style="overflow:visible;"/>
		</clipPath>
	</g>
	<g>
		<defs>
			<path id="XMLID_18_" d="M211.9,148.7c5.6,28.5-18,45.7-48.8,49.4c-31,3.7-55.7-7.1-59.3-36.4c-3-25.1,18.7-48.3,48.6-51.9
				C182.3,106.2,207.1,123.9,211.9,148.7"/>
		</defs>
		<use xlink:href="#XMLID_18_"  style="overflow:visible;fill:#F7E7D6;"/>
		<clipPath id="XMLID_7_">
			<use xlink:href="#XMLID_18_"  style="overflow:visible;"/>
		</clipPath>
	</g>
	<g>
		<defs>
			<path id="XMLID_17_" d="M218.6,147.7C218.6,147.7,218.6,147.7,218.6,147.7c-0.2-0.9-0.3-1.7-0.4-2.5c-0.1-0.7-0.3-1.4-0.5-2.1
				c-1.7-8.6-3.2-14.3-3.2-14.3c-4.3-16.9-23.4-35.5-56-34c-27,1.2-35.3,13.5-37.3,17.7c-4.6,0.9-8.4,3-11.4,6.1
				c-6.6,5.6-13.4,16-12.7,35.2c0.1,3.9,0.5,7.4,0.9,10.4c3.2,20.6,13.1,23,16.9,23.2l0,0c0.9,0,1.5-0.1,1.5-0.1s-4-11.6-1.3-21.7
				l0,0c21.9-3,40.8-25.5,40.8-25.5c1.7,4.8-2.3,9.6-2.3,9.6c11.5-3.2,14.2-18.8,14.2-18.8c14.6-6.1,24.9,5.3,24.9,5.3
				s4.5,3.7,8.4,13.2c0.2,0.4,0.3,0.8,0.5,1.3c0,0,5.5,14.1,5.3,25.8C206.6,176.5,221.9,172.3,218.6,147.7z"/>
		</defs>
		<use xlink:href="#XMLID_17_"  style="overflow:visible;fill:#A05C2D;"/>
		<clipPath id="XMLID_8_">
			<use xlink:href="#XMLID_17_"  style="overflow:visible;"/>
		</clipPath>
	</g>
	<g>
		<defs>
			
				<rect id="SVGID_6_" x="96.9" y="80.2" transform="matrix(0.9805 -0.1967 0.1967 0.9805 -24.6902 33.5456)" width="119.2" height="121.6"/>
		</defs>
		<clipPath id="SVGID_7_">
			<use xlink:href="#SVGID_6_"  style="overflow:visible;"/>
		</clipPath>
		<path class="st9" d="M205.9,166.7c-2.2-10.9-22.8-15.9-46-11.2c-23.2,4.7-40.3,17.2-38.2,28.1c1.4,6.8,10,11.3,22,12.6
			c2,0.8,6.6,2.7,8,3.4c1.8,0.9,0.9-1.7,3.8-2.2c2.9-0.5,3.2,2.1,3.2,2.1s1.7-2.6,3.6-3.1c1.9-0.5,3.8,2.7,3.8,2.7l1.8-3.9
			c0.1-0.3,0.6-0.4,0.8-0.2l3.2,2.9c0,0,0.5-3.7,2.4-4c1.9-0.3,4.5,1.5,4.5,1.5s-0.7-2.5,2.2-3.2c2.8-0.7,3,2.1,4.3,0.6
			c1.2-1.4,6.1-6.3,6.7-6.9C201.6,180.3,207.2,173.2,205.9,166.7"/>
		<path class="st10" d="M187.7,171.7c-10.4,0.9-22.6,4.4-24.2,4.8c-0.1,0-0.2,0.1-0.3,0.1c-1.6,0.2-14.3,1.6-24.2,4.9
			c-6.1,2-7.6,5.3-7.8,7.7c-0.1,1.4,1.2-0.7,2.8-1.2c0.8-0.3,1.7-0.5,2.7-0.5c1-0.1,1.7,0.4,2.3,1c0.9,1,3.2,3.9,4.2,2.8
			c0.6-0.7,1.4-1.3,2.4-1.7c2.9-1.2,4.9,0,6.2,1.7c0.9,1.1,2.9,1,3.9-0.1c0.4-0.5,1-0.9,1.7-1.2c2.5-1,5.8,1.4,7.8,3.1
			c0.8,0.7,2.1,0.5,2.6-0.5c1.2-2.3,3.4-5.8,6-5.9c0.8,0,1.5,0.2,2.1,0.5c1.4,0.7,3.3,0,3.7-1.4c0.5-2.1,1.9-3.9,5.1-4
			c1.1,0,2.1,0.2,2.9,0.6c1.3,0.7,2-2.8,2.5-4.1c0.3-0.8,0.8-1.5,1.7-1.8c1-0.4,1.9-0.5,2.7-0.6c1.7-0.1,4,1.2,3.4,0
			C196.7,173.6,194,171.2,187.7,171.7"/>
		<g class="st11">
			<defs>
				<path id="XMLID_16_" d="M163.8,177.6c3.2,2.8,7.5,4.1,11.7,3.2c7.8-1.6,12.7-9.7,11-18.3c-1.1-5.6-2.5-6.3-19.7-26.2
					c0.1,0.1,0.1,0.1,0.2,0.2c-0.1-0.1-0.1-0.2-0.2-0.3l-0.1,0.1c-3.3-3.4-1.9-9.4,2.6-10.3l7.1-1.4c5.7-1.2,10.7-6.1,12.9-14.8
					c6.6,6.8,11.4,15.7,13.4,25.9c0.9,4.2,0.7,8.9,4.2,15.3l0,0c1.6,2.9,4.1,6.1,7,8.4c-2.5,0.7-5.2,0.7-7.8-0.2
					c-0.2,5.2,1,10.5,3.3,15.1c-2.8-0.3-5.4-1.5-7.3-3.3c0,3.7,0.7,7.5,1.9,10.8c-2-0.1-3.9-0.6-5.7-1.5c-1.8-0.9-3.3-2.3-4.5-4
					c-2.5,3.3-6,5.5-9.9,6.3l-37.3,7.5c-3.9,0.8-8,0.1-11.5-2c-0.4,2.1-1.3,3.9-2.6,5.4c-1.3,1.5-2.9,2.8-4.7,3.6
					c-0.2-3.6-1-7.3-2.4-10.7c-1.1,2.4-3,4.5-5.5,5.9c0.4-5.2-0.6-10.5-2.8-15.2c-2.1,1.8-4.6,2.9-7.1,3.2c1.9-3.3,3-7.1,3.3-10.4
					l0,0c0.8-7.3-1.2-11.5-2-15.8c-2-10.2-1-20.2,2.4-29.1c5.4,7.2,11.9,9.8,17.7,8.7l7.1-1.4c4.5-0.9,8.1,4.2,6.4,8.5l-0.1-0.1
					c0,0.1,0,0.2,0,0.4c0-0.1,0.1-0.2,0.1-0.2c-8.1,24.9-9.2,26.1-8.1,31.7c1.7,8.5,9.4,14.2,17.2,12.6
					C158.5,184.3,161.9,181.4,163.8,177.6"/>
			</defs>
			<use xlink:href="#XMLID_16_"  style="overflow:visible;fill:#F4D5BD;"/>
			<clipPath id="XMLID_9_">
				<use xlink:href="#XMLID_16_"  style="overflow:visible;"/>
			</clipPath>
		</g>
		<path class="st12" d="M147.5,96.1c0.1,0,0.2,0,0.2-0.1c4.2-0.8,8.3-1,12.3-0.7c-4-0.3-8.1-0.1-12.3,0.7
			C147.7,96.1,147.6,96.1,147.5,96.1c-0.1,0-0.2,0.1-0.3,0.1c-4.1,0.8-8,2.2-11.6,4.1c3.6-1.9,7.5-3.3,11.6-4.1
			C147.3,96.2,147.4,96.2,147.5,96.1"/>
		<path class="st13" d="M163.9,177.7c3.5,3,8.2,4.2,12.6,2.9c0.8,3.9-1.5,7.7-5,8.4l-10.1,2c-3.6,0.7-7.1-1.9-7.9-5.8
			C157.9,184.7,161.7,181.8,163.9,177.7"/>
		<path class="st14" d="M217.7,155.7c0,0.2-0.1,0.4-0.3,0.5l-31,6.2c-0.1-0.3-0.1-0.5-0.2-0.8l31-6.2
			C217.5,155.3,217.7,155.5,217.7,155.7"/>
		<path class="st14" d="M105.7,178.2c0,0.2,0.2,0.4,0.5,0.3l31-6.2c-0.1-0.3-0.1-0.5-0.1-0.8l-31,6.2
			C105.8,177.7,105.6,178,105.7,178.2"/>
		<path class="st14" d="M216.3,161.5c0,0.2-0.1,0.4-0.3,0.5l-29.4,5.9c0-0.3,0.1-0.6,0.1-0.9l29.1-5.8
			C216.1,161.2,216.3,161.3,216.3,161.5"/>
		<path class="st14" d="M109.2,183c0,0.2,0.2,0.4,0.5,0.3l29.4-5.9c-0.1-0.3-0.3-0.5-0.4-0.8l-29.1,5.8
			C109.3,182.6,109.2,182.8,109.2,183"/>
		<path class="st14" d="M215,167.4c0,0.2-0.1,0.4-0.3,0.5l-29.9,6c0.2-0.3,0.3-0.6,0.5-0.9l29.2-5.9
			C214.7,167,214.9,167.1,215,167.4"/>
		<path class="st14" d="M112.7,187.9c0,0.2,0.2,0.4,0.5,0.3l29.9-6c-0.3-0.2-0.5-0.5-0.8-0.7l-29.2,5.9
			C112.8,187.4,112.7,187.6,112.7,187.9"/>
		<g class="st11">
			<defs>
				<path id="XMLID_15_" d="M147.5,96.2c0.1,0,0.2,0,0.3-0.1c15.6-3.1,30.9,2.5,41.6,13.7c0,0,0,0,0,0c-2.2,8.7-7.2,13.7-12.9,14.8
					l-7.1,1.4c-4.5,0.9-5.9,7-2.6,10.3l0.1-0.1c0,0.1,0.1,0.2,0.2,0.3c-0.1-0.1-0.1-0.1-0.2-0.2c17.1,19.9,18.5,20.5,19.7,26.2
					c1.7,8.5-3.2,16.7-11,18.3c-4.3,0.9-8.5-0.5-11.7-3.2c-1.9,3.8-5.3,6.6-9.6,7.5c-7.8,1.6-15.4-4.1-17.2-12.6
					c-1.1-5.6-0.1-6.8,8.1-31.7c0,0.1-0.1,0.2-0.1,0.2c0-0.1,0-0.2,0-0.4l0.1,0.1c1.7-4.4-1.9-9.4-6.4-8.5l-7.1,1.4
					c-5.7,1.2-12.3-1.5-17.7-8.7c0,0,0,0,0,0c5.6-14.4,17.6-25.6,33.1-28.7C147.3,96.2,147.4,96.2,147.5,96.2"/>
			</defs>
			<use xlink:href="#XMLID_15_"  style="overflow:visible;fill:#D88A4B;"/>
			<clipPath id="XMLID_10_">
				<use xlink:href="#XMLID_15_"  style="overflow:visible;"/>
			</clipPath>
		</g>
		<path class="st10" d="M183.2,104.3c0.5,0.3,0.9,0.7,1.4,1C184.1,104.9,183.6,104.6,183.2,104.3"/>
		<path class="st10" d="M117.7,117.4c-0.3,0.5-0.6,1-0.9,1.5C117.1,118.4,117.4,117.9,117.7,117.4"/>
		<path class="st10" d="M170.2,97.5l-0.1,0.1C170.2,97.6,170.2,97.5,170.2,97.5C170.2,97.5,170.2,97.5,170.2,97.5"/>
		<path class="st10" d="M127.1,106.2l0.1,0.1C127.2,106.2,127.1,106.2,127.1,106.2C127.1,106.2,127.1,106.2,127.1,106.2"/>
		<path class="st10" d="M188.8,112.1c0.2-0.4,0.3-0.9,0.4-1.4L188.8,112.1L188.8,112.1z"/>
		<path class="st10" d="M115.6,126.8c-0.3-0.4-0.6-0.7-0.9-1.1L115.6,126.8L115.6,126.8z"/>
		<path class="st15" d="M192.8,93c0.8,3.9,0.1,6.3-3.3,16.8c-6.1-6.3-13.6-10.9-21.9-13l5.1-7.3C178.1,81.1,190.6,82.2,192.8,93"/>
		<path class="st15" d="M104.5,110.7c0.8,3.9,2.3,5.8,9.5,14.2c3.2-8.2,8.4-15.3,15.1-20.5l-7.5-4.8
			C113.4,94.1,102.3,99.9,104.5,110.7"/>
		<path class="st16" d="M190.3,93.5c0.5,2.4-0.7,7.5-3.1,14.1c-2.8-2.6-5.9-4.8-9.3-6.6c0.5-2.9,1.9-5.5,4.1-7.3
			c-2,0.1-3.9,0.8-5.4,1.8c1.2-2.9,3.4-5.2,6.1-6.3c-2.2-0.6-4.3-0.5-6.2,0.1c1.2-1.1,2.7-1.9,4.4-2.2
			C184.6,86.1,189.1,87.9,190.3,93.5"/>
		<path class="st16" d="M107,110.2c0.5,2.4,3.5,6.6,8.3,11.8c1.6-3.5,3.6-6.7,6-9.7c-1.6-2.5-3.9-4.4-6.6-5.2
			c1.9-0.7,3.9-0.8,5.7-0.5c-2.2-2.3-5.1-3.5-8.1-3.5c1.8-1.4,3.8-2.1,5.8-2.3c-1.6-0.5-3.3-0.7-4.9-0.3
			C109.4,101.2,105.9,104.6,107,110.2"/>
		<path class="st14" d="M163.8,177.6c3.2,2.8,7.4,4.1,11.6,3.2c0.3-0.1,0.6-0.1,1-0.2c0.1,0.6-5.6,2-11.4,3.2
			c-5.8,1.2-11.6,2-11.7,1.4c0.3,0,0.6-0.1,1-0.2C158.6,184.2,161.9,181.4,163.8,177.6"/>
		<path class="st17" d="M181.3,128.1c1,5.1-1.9,10.1-6.6,11c-2.9,0.6-5.8-0.5-7.8-2.6c-0.9-1.8-0.8-3.9,0-5.6
			c0.7-1.4,1.8-2.4,3.4-2.8c1.3-0.3,6.5-1.3,6.6-1.3c0.4-0.1,0.7-0.2,1.1-0.3c0.8-0.2,1.7-0.6,2.5-1
			C180.8,126.3,181.1,127.2,181.3,128.1"/>
		<path class="st17" d="M128.6,138.6c1,5.1,5.7,8.6,10.3,7.6c2.9-0.6,5.1-2.7,6.2-5.4c0.1-2-0.8-4-2.1-5.2c-1.1-1-2.6-1.6-4.2-1.3
			c-1.3,0.3-6.5,1.3-6.6,1.3c-0.4,0.1-0.7,0.1-1.1,0.2c-0.9,0.1-1.7,0.1-2.6,0.1C128.4,136.9,128.5,137.7,128.6,138.6"/>
		<path class="st18" d="M178.7,128.6c0.7,3.6-1.3,7-4.6,7.7c-3.3,0.7-6.5-1.7-7.2-5.3c0,0,0-0.1,0-0.1c0.7-1.4,1.8-2.4,3.4-2.8
			c1.3-0.3,6.5-1.3,6.6-1.3c0.4-0.1,0.7-0.2,1.1-0.3C178.3,127.1,178.6,127.8,178.7,128.6"/>
		<path class="st18" d="M131.2,138.1c0.7,3.6,4,6,7.2,5.3s5.3-4.1,4.6-7.7c0,0,0-0.1,0-0.1c-1.1-1-2.6-1.6-4.2-1.3
			c-1.3,0.3-6.5,1.3-6.6,1.3c-0.4,0.1-0.7,0.1-1.1,0.2C131,136.6,131,137.4,131.2,138.1"/>
		<path class="st19" d="M174.9,130.5c0.2,1.2-0.4,2.3-1.5,2.5c-1.1,0.2-2.1-0.6-2.4-1.8c-0.2-1.2,0.4-2.3,1.5-2.5
			S174.7,129.3,174.9,130.5"/>
		<path class="st19" d="M135.5,138.4c0.2,1.2,1.3,2,2.4,1.8c1.1-0.2,1.8-1.4,1.5-2.5c-0.2-1.2-1.3-2-2.4-1.8
			S135.2,137.2,135.5,138.4"/>
		<path class="st20" d="M166.8,136.3c0,0.1,0.1,0.2,0.2,0.3c-0.1-0.1-0.1-0.1-0.2-0.2l0,0L166.8,136.3z"/>
		<path class="st20" d="M145.2,140.6c0,0.1,0,0.2,0,0.4c0-0.1,0.1-0.2,0.1-0.2l0-0.1L145.2,140.6z"/>
		<path class="st20" d="M170.9,128l-0.6,0.1c0.1,0,0.2-0.1,0.3-0.1C170.7,128,170.8,128,170.9,128"/>
		<path class="st20" d="M138.2,134.5l0.6-0.1c-0.1,0-0.2,0-0.3,0.1C138.4,134.5,138.3,134.5,138.2,134.5"/>
		<path class="st18" d="M174.9,129.6c0.1,0.5-0.2,1-0.6,1.1c-0.5,0.1-0.9-0.2-1-0.7c-0.1-0.5,0.2-1,0.6-1.1
			C174.4,128.7,174.8,129.1,174.9,129.6"/>
		<path class="st18" d="M135.1,137.6c0.1,0.5,0.5,0.8,1,0.7c0.5-0.1,0.7-0.6,0.6-1.1c-0.1-0.5-0.5-0.8-1-0.7
			C135.2,136.6,135,137.1,135.1,137.6"/>
		<path class="st14" d="M162.8,172.6c0.2,0,0.4,0.1,0.4,0.3l1.8,9.1c0,0.2-0.1,0.4-0.3,0.5c-0.2,0-0.4-0.1-0.4-0.3l-1.8-9.1
			C162.5,172.9,162.6,172.7,162.8,172.6"/>
		<path class="st14" d="M169.1,171.5c-0.2,0-0.5-0.1-0.5-0.4c-0.1-0.3,0.1-0.5,0.3-0.6c0.2,0,0.5,0.1,0.5,0.4
			C169.4,171.2,169.3,171.5,169.1,171.5"/>
		<path class="st14" d="M156.7,174c0.2,0,0.4-0.3,0.3-0.6c-0.1-0.3-0.3-0.4-0.5-0.4c-0.2,0-0.4,0.3-0.3,0.6
			C156.2,173.9,156.5,174.1,156.7,174"/>
		<path class="st14" d="M174.1,170.5c-0.2,0-0.5-0.1-0.5-0.4c-0.1-0.3,0.1-0.5,0.3-0.6c0.2,0,0.5,0.1,0.5,0.4
			C174.5,170.2,174.3,170.5,174.1,170.5"/>
		<path class="st14" d="M151.6,175c0.2,0,0.4-0.3,0.3-0.6c-0.1-0.3-0.3-0.4-0.5-0.4c-0.2,0-0.4,0.3-0.3,0.6
			C151.2,174.9,151.4,175.1,151.6,175"/>
		<path class="st14" d="M179.2,169.5c-0.2,0-0.5-0.1-0.5-0.4c-0.1-0.3,0.1-0.5,0.3-0.6c0.2,0,0.5,0.1,0.5,0.4
			C179.6,169.2,179.4,169.4,179.2,169.5"/>
		<path class="st14" d="M146.6,176c0.2,0,0.4-0.3,0.3-0.6c-0.1-0.3-0.3-0.4-0.5-0.4c-0.2,0-0.4,0.3-0.3,0.6
			C146.1,175.9,146.3,176.1,146.6,176"/>
		<path class="st14" d="M184.2,168.5c-0.2,0-0.5-0.1-0.5-0.4c-0.1-0.3,0.1-0.5,0.3-0.6c0.2,0,0.5,0.1,0.5,0.4
			C184.6,168.2,184.5,168.4,184.2,168.5"/>
		<path class="st14" d="M141.5,177c0.2,0,0.4-0.3,0.3-0.6c-0.1-0.3-0.3-0.4-0.5-0.4c-0.2,0-0.4,0.3-0.3,0.6
			C141,176.9,141.3,177.1,141.5,177"/>
		<path class="st14" d="M170.5,165.7c-0.2,0-0.5-0.1-0.5-0.4c-0.1-0.3,0.1-0.5,0.3-0.6c0.2,0,0.5,0.1,0.5,0.4
			C170.9,165.4,170.8,165.6,170.5,165.7"/>
		<path class="st14" d="M153.1,169.2c0.2,0,0.4-0.3,0.3-0.6c-0.1-0.3-0.3-0.4-0.5-0.4c-0.2,0-0.4,0.3-0.3,0.6
			C152.6,169,152.9,169.2,153.1,169.2"/>
		<path class="st14" d="M175.6,164.7c-0.2,0-0.5-0.1-0.5-0.4c-0.1-0.3,0.1-0.5,0.3-0.6c0.2,0,0.5,0.1,0.5,0.4
			C176,164.4,175.8,164.6,175.6,164.7"/>
		<path class="st14" d="M148,170.2c0.2,0,0.4-0.3,0.3-0.6c-0.1-0.3-0.3-0.4-0.5-0.4c-0.2,0-0.4,0.3-0.3,0.6
			C147.6,170.1,147.8,170.2,148,170.2"/>
		<path class="st14" d="M180.6,163.7c-0.2,0-0.5-0.1-0.5-0.4c-0.1-0.3,0.1-0.5,0.3-0.6c0.2,0,0.5,0.1,0.5,0.4
			C181,163.3,180.9,163.6,180.6,163.7"/>
		<path class="st14" d="M143,171.2c0.2,0,0.4-0.3,0.3-0.6c-0.1-0.3-0.3-0.4-0.5-0.4c-0.2,0-0.4,0.3-0.3,0.6
			C142.5,171.1,142.7,171.3,143,171.2"/>
		<path class="st14" d="M171.2,176.6c-0.2,0-0.5-0.1-0.5-0.4c-0.1-0.3,0.1-0.5,0.3-0.6c0.2,0,0.5,0.1,0.5,0.4
			C171.6,176.3,171.4,176.6,171.2,176.6"/>
		<path class="st14" d="M156.7,179.5c0.2,0,0.4-0.3,0.3-0.6s-0.3-0.4-0.5-0.4c-0.2,0-0.4,0.3-0.3,0.6
			C156.2,179.4,156.5,179.6,156.7,179.5"/>
		<path class="st14" d="M176.2,175.6c-0.2,0-0.5-0.1-0.5-0.4c-0.1-0.3,0.1-0.5,0.3-0.6c0.2,0,0.5,0.1,0.5,0.4
			C176.6,175.3,176.5,175.6,176.2,175.6"/>
		<path class="st14" d="M151.7,180.6c0.2,0,0.4-0.3,0.3-0.6c-0.1-0.3-0.3-0.4-0.5-0.4c-0.2,0-0.4,0.3-0.3,0.6
			C151.2,180.4,151.4,180.6,151.7,180.6"/>
		<path class="st14" d="M181.3,174.6c-0.2,0-0.5-0.1-0.5-0.4c-0.1-0.3,0.1-0.5,0.3-0.6c0.2,0,0.5,0.1,0.5,0.4
			C181.7,174.3,181.5,174.6,181.3,174.6"/>
		<path class="st14" d="M146.6,181.6c0.2,0,0.4-0.3,0.3-0.6c-0.1-0.3-0.3-0.4-0.5-0.4c-0.2,0-0.4,0.3-0.3,0.6
			C146.1,181.4,146.4,181.6,146.6,181.6"/>
		<path class="st16" d="M189.4,109.8c0.3,9.6-6.2,15.7-12.6,17c-0.1,0-5.3,1.1-6.6,1.3c-3.5,0.7-5,5.1-3.3,8.5
			c-3.5-3.3-2.2-9.6,2.4-10.6l7.1-1.4C182.2,123.4,187.3,118.5,189.4,109.8"/>
		<path class="st16" d="M114.1,124.9c3.4,9,11.7,12.1,18.1,10.8c0.1,0,5.3-1.1,6.6-1.3c3.5-0.7,6.6,2.8,6.3,6.6
			c2-4.5-1.7-9.8-6.3-8.8l-7.1,1.4C126,134.7,119.4,132.1,114.1,124.9"/>
		<path class="st21" d="M167,136.6c-0.5-0.5-0.9-1-1.2-1.6c0.3,0.5,0.7,1.1,1.2,1.5C166.9,136.5,166.9,136.5,167,136.6"/>
		<path class="st21" d="M145.1,141c0.3-0.6,0.5-1.3,0.5-2c-0.1,0.6-0.3,1.3-0.5,1.8C145.1,140.9,145.1,140.9,145.1,141"/>
		<path class="st22" d="M177.7,116.8c-3.3,1.7-6.5,0.9-9.8,2.9c-2,1.3-3,4.6-2.6,6.5c0.2-1.6,2.1-5.5,6.2-5.7
			c4.6-0.3,6.5-0.8,8.6-2.5c3-2.4,4.5-5.8,4.3-9.4C183.2,112.9,181.4,114.9,177.7,116.8"/>
		<path class="st22" d="M127.6,126.8c3.8,0.3,6.4-1.7,10.1-1.1c2.3,0.4,4.5,3.1,4.9,5c-0.8-1.4-4.1-4.2-7.9-2.9
			c-4.4,1.5-6.3,1.8-8.9,1c-3.7-1-6.4-3.6-7.6-7C121.1,125.4,123.5,126.5,127.6,126.8"/>
		<path class="st22" d="M154.2,129.4c0.1-0.4,0.2-0.8,0.3-1.2c0.1-0.4,0.3-0.9,0.5-1.4c6-16.1,21-5.4,22-23.5
			c-2,6.3-4.9,8.2-9.1,9.8c-3.8,1.4-7.6,0.4-12.5,4.9c-0.6,0.6-1.2,1.3-1.7,2.4c0.1-1.7,0.5-3.3,1.3-4.8c-0.3,0.2-0.7,0.5-0.9,0.8
			c1.2-4.1-1-10.7-5-12.8c-2.9,3.5-2.3,10.4,0.3,13.8c-0.4-0.1-0.8-0.3-1.2-0.3c1.3,1.1,2.3,2.5,3.1,4c-0.8-0.8-1.7-1.2-2.5-1.5
			c-6.2-2.3-9.3,0.1-13.4,0.3c-4.5,0.2-7.9-0.5-12.2-5.5c7.9,16.3,17.6,0.7,29.3,13.2c0.3,0.4,0.6,0.7,0.9,1.1
			C153.7,128.7,153.9,129.1,154.2,129.4"/>
		<path class="st22" d="M156.5,114.5c6.2-6.1,14.9-1.2,15.6-13.3c-1.4,4.4-3.5,5.3-6.5,6.4c-2.1,0.8-4.5,0.5-7,2
			c-1.4-5.9-5.4-10.5-10-10.5C153.3,100.2,156.1,107.1,156.5,114.5"/>
		<path class="st22" d="M146.2,116.5c-8.1-3.3-14.2,4.7-19.5-6.2c3,3.5,5.3,3.5,8.4,3.4c2.2-0.1,4.3-1.2,7.3-0.9
			c-1-6,0.9-11.7,5.2-13.6C143.7,102.2,143.8,109.6,146.2,116.5"/>
		<path class="st22" d="M180.2,105.3c0.1,4.4-2.4,8.2-6.1,9.5C179,115.9,182.7,110.2,180.2,105.3"/>
		<path class="st22" d="M120.9,117.2c1.6,4.1,5.4,6.7,9.3,6.4C126,126.5,120.5,122.7,120.9,117.2"/>
		<path class="st22" d="M158.7,142.5c4.4-0.6,6.1-6.7,2.7-10.1C162.6,136.1,161.5,140.2,158.7,142.5"/>
		<path class="st22" d="M155.1,143.2c-4.3,1.1-8.2-3.8-6.4-8.3C149,138.9,151.6,142.2,155.1,143.2"/>
		<path class="st22" d="M157.7,128.1c0.3,0.1,0.6,0.1,0.9,0.1c-3,1.9-3.9,6.6-1.2,9.9c-1.5-5.7,1.9-8,3.8-9.6
			c2.7-2.2,3.4-6.2,1.7-9.2C163.2,123.3,161,126.8,157.7,128.1"/>
		<path class="st22" d="M150.5,129.6c-0.3,0.2-0.5,0.3-0.8,0.4c3.5,0.6,6.1,4.6,4.9,8.7c-0.8-5.8-4.9-6.7-7.2-7.4
			c-3.3-1-5.5-4.4-5.2-7.8C143.5,127.2,146.9,129.7,150.5,129.6"/>
		<path class="st22" d="M160.6,105.7c3.5,0.4,7.3-1.8,8.5-5.7c-1.9,1.9-4.4,3.1-7.1,2.9c-1-2.9-3-4.9-6.3-4.9
			C158.8,99.5,159.8,102.8,160.6,105.7"/>
		<path class="st22" d="M139.1,110c-3.1,1.8-7.4,1.2-10-2c2.5,1,5.3,1.2,7.7-0.1c-0.1-3,0.9-5.7,3.9-6.9
			C138.4,103.6,138.7,107.1,139.1,110"/>
		<path class="st21" d="M179.6,139.2c4.5-2.9,6.7-8.5,5.4-14C189.8,130.5,186.6,139.2,179.6,139.2"/>
		<path class="st21" d="M134.5,148.2c-5.3-0.9-9.5-5.2-10.4-10.9C121.8,144.2,128.1,150.9,134.5,148.2"/>
		<path class="st21" d="M181.4,145.4c9.9-4.8,10.7-11.9,8.4-21.3C196.9,133.1,193.1,145.2,181.4,145.4"/>
		<path class="st21" d="M135.2,154.7c-11-0.6-14.5-6.9-16-16.4C116.2,149.3,124.4,159,135.2,154.7"/>
		<path class="st21" d="M199.8,136.3c-0.6-4.8-2.2-10.7-4.9-13.2c4,10.2,3,23-8.1,28.1c4.9-0.5,8.9-2.7,11.4-5.8
			c2.5,6.9,6.7,8.5,8,8.7C201.5,148.3,200.4,141.9,199.8,136.3"/>
		<path class="st21" d="M114.8,153.4c-1.3-4.7-2.1-10.7-0.6-14c0.2,11,6.1,22.4,18.3,22.8c-4.7,1.4-9.2,0.9-12.8-0.9
			c0.4,7.3-2.9,10.4-4,11.1C117.8,165.1,116.3,158.8,114.8,153.4"/>
		<path class="st23" d="M160.5,160.9c0.3,0,0.6,0,0.9-0.1c0.7-0.1,1.2-0.6,1.5-1.2c0.6-1.2,0.2-0.4,1.2-2.4c0.6-1.2,1.5-1.9,2.6-2.1
			c2-0.4,3.3-2.3,3.3-4.4c2.3,2.6,1.7,6.6-0.9,8.2c-0.2-0.7-0.9-1.1-1.6-1c-0.7,0.1-1.2,0.9-1.1,1.8c0.1,0.5,0.4,0.8,0.7,1.1
			c-1.1,2.2-3.3,6.3-3.3,6.3l0.9,4.4l-1.6,3.2l-2.7-2.3l-0.9-4.4c0,0-3.6-3-5.4-4.6c0.3-0.3,0.4-0.8,0.3-1.3
			c-0.2-0.8-0.9-1.4-1.6-1.2c-0.7,0.1-1.1,0.8-1.1,1.5c-3-0.5-5.1-4-4-7.3c0.8,2,2.7,3.2,4.7,2.8c1.1-0.2,2.2,0.1,3.2,0.9
			c1.8,1.5,1,0.9,2.1,1.7c0.5,0.5,1.2,0.6,1.9,0.5C159.9,161.1,160.2,161,160.5,160.9"/>
	</g>
	<g>
		<path class="st24" d="M106.6,265.4c0-5-4-9-9-9c-0.8,0-1.6,0.1-2.3,0.3c-1.8-1.3-3.9-2-6.3-2c-5.9,0-10.7,4.8-10.7,10.7
			c0,4.9,3.3,9,7.7,10.3c-0.5,1.1-0.8,2.4-0.8,3.7c0,5.1,4.1,9.2,9.2,9.2c5.1,0,9.2-4.1,9.2-9.2c0-2.2-0.8-4.2-2.1-5.8
			C104.5,272.1,106.6,269,106.6,265.4z"/>
		<path class="st24" d="M53.6,278.8c-5.4,0-9.7,4.4-9.7,9.7c0,0.2,0,0.4,0,0.5c-2.6,1.4-4.4,4.2-4.4,7.4c0,4.6,3.8,8.4,8.4,8.4
			c4.1,0,7.6-3,8.3-6.9c4.1-1.1,7.1-4.9,7.1-9.4C63.3,283.2,59,278.8,53.6,278.8z"/>
	</g>
	<g>
		<g>
			<g>
				<path class="st25" d="M122.6,73.7c1.8,3.1,3.5,6.3,5.3,9.4c0.6,1,2.2,0.1,1.6-0.9c-1.8-3.1-3.5-6.3-5.3-9.4
					C123.6,71.8,122,72.7,122.6,73.7L122.6,73.7z"/>
			</g>
		</g>
		<g>
			<g>
				<path class="st25" d="M122,78.6c0.5,0.8,1,1.5,1.5,2.2c0.2,0.3,0.5,0.6,0.9,0.8c0.5,0.2,1.1,0.2,1.6-0.1
					c0.4-0.3,0.6-0.7,0.9-1.1c0.2-0.4,0.5-0.8,0.7-1.2c0.5-0.8,0.9-1.6,1.4-2.3c0.2-0.4,0.1-1-0.3-1.3c-0.4-0.2-1-0.1-1.3,0.3
					c-0.8,1.3-1.5,2.6-2.3,3.9c0,0-0.1,0.2-0.1,0.1c0-0.1,0,0,0,0c0,0,0,0,0.1-0.1c0.1,0,0.2,0,0.3,0c-0.1,0-0.1,0,0,0
					c0.1,0,0.1,0,0,0c0,0,0,0,0.1,0.1c0,0-0.1-0.1-0.1-0.1c0,0-0.1-0.1-0.1-0.1c-0.1-0.1-0.1-0.1-0.2-0.2c0.1,0.1-0.1-0.1-0.1-0.1
					c-0.4-0.6-0.8-1.2-1.2-1.8c-0.2-0.4-0.8-0.6-1.3-0.3C121.9,77.6,121.7,78.1,122,78.6L122,78.6z"/>
			</g>
		</g>
		<g>
			<g>
				<path class="st25" d="M128.2,72.3c0.2-0.6,0.3-1.2,0.5-1.8c0.1-0.3,0.2-0.6,0.3-0.9c0-0.1,0-0.1,0-0.2c0.1-0.2-0.1,0.1,0,0
					c0.1-0.1-0.1,0.1-0.1,0.1c0.1-0.1-0.1,0,0,0c0.1,0-0.2,0,0,0c0.1,0,0.1,0,0.2,0c0.2,0-0.1,0,0,0c0.1,0,0.2,0,0.2,0
					c0.3,0.1,0.6,0.1,0.9,0.2c0.6,0.1,1.2,0.3,1.8,0.4c0.5,0.1,1-0.2,1.1-0.6c0.1-0.5-0.1-1-0.6-1.1c-0.7-0.2-1.4-0.4-2.1-0.5
					c-0.7-0.1-1.5-0.4-2.2-0.1c-0.8,0.3-1,1.2-1.2,1.9c-0.2,0.7-0.4,1.4-0.6,2.1c-0.1,0.5,0.2,1,0.6,1.1
					C127.6,73.1,128.1,72.8,128.2,72.3L128.2,72.3z"/>
			</g>
		</g>
		<g>
			<g>
				<path class="st25" d="M129.9,73.5c0.7-0.1,1.4-0.1,2.1-0.2c0.2,0,0.5-0.1,0.7-0.3c0.2-0.2,0.3-0.4,0.3-0.7
					c0-0.2-0.1-0.5-0.3-0.7c-0.2-0.2-0.4-0.3-0.7-0.3c-0.7,0.1-1.4,0.1-2.1,0.2c-0.2,0-0.5,0.1-0.7,0.3c-0.2,0.2-0.3,0.4-0.3,0.7
					c0,0.2,0.1,0.5,0.3,0.7C129.5,73.4,129.7,73.5,129.9,73.5L129.9,73.5z"/>
			</g>
		</g>
		<g>
			<g>
				<path class="st25" d="M131,78.1c0.8,1.1,1.4,2.2,2,3.4c0.1,0.2,0.4,0.4,0.6,0.4c0.2,0.1,0.5,0,0.7-0.1c0.5-0.3,0.5-0.8,0.3-1.3
					c-0.5-1.2-1.2-2.3-2-3.4c-0.1-0.2-0.3-0.4-0.6-0.4c-0.2-0.1-0.5,0-0.7,0.1C130.9,77.1,130.7,77.7,131,78.1L131,78.1z"/>
			</g>
		</g>
		<g>
			<g>
				<path class="st25" d="M133.2,77.3c0,0,0.1-0.2,0.1-0.2c-0.1,0.1-0.1,0.1,0,0c0.1-0.1,0.1-0.1,0,0c-0.1,0-0.1,0,0,0
					c0,0,0.1,0,0.1,0c0.1,0,0,0-0.1,0c0,0,0.1,0,0.1,0c0,0,0.2,0,0.2,0c0,0-0.2,0,0,0c0,0,0.1,0,0.1,0c0.1,0,0,0-0.1,0
					c0,0,0.2,0,0.2,0c0,0,0.1,0,0.1,0c0,0-0.1,0-0.1,0c0.1,0,0.2,0.1,0.2,0.1c0.1,0,0.2,0.1,0.1,0c0.1,0.1,0.1,0.1,0.2,0.2
					c0.1,0.1,0.1,0.1,0.2,0.2c0,0,0.1,0.1,0.1,0.1c-0.1-0.1-0.1-0.1,0,0c0.1,0.1,0.2,0.3,0.3,0.4c0.2,0.3,0.4,0.6,0.6,1
					c0.1,0.2,0.2,0.4,0.3,0.5c0,0.1,0,0,0,0c0,0.1,0,0.1,0,0c0-0.1,0-0.2,0.1-0.3c-0.1,0.1,0.1-0.1,0,0c-0.1,0-0.1,0.1-0.2,0.1
					c-0.2,0.1-0.3,0.2-0.5,0.3c-0.4,0.2-0.7,0.5-1.1,0.7c-0.4,0.3-0.6,0.8-0.3,1.3c0.3,0.4,0.8,0.6,1.3,0.3c0.4-0.3,0.9-0.6,1.3-0.9
					c0.5-0.3,1-0.6,1.2-1.2c0.2-0.6-0.1-1.2-0.4-1.7c-0.2-0.4-0.5-0.9-0.8-1.3c-0.5-0.8-1.2-1.6-2.2-1.8c-0.9-0.2-2,0.1-2.4,1.1
					c-0.2,0.4-0.1,1,0.3,1.3C132.3,77.8,133,77.8,133.2,77.3L133.2,77.3z"/>
			</g>
		</g>
		<g>
			<g>
				<path class="st25" d="M145.1,70.9c0.9-0.1,1.7-0.2,2.6-0.3c0.3,0,0.5-0.1,0.7-0.3c0.2-0.2,0.3-0.4,0.3-0.7
					c0-0.2-0.1-0.5-0.3-0.7c-0.2-0.2-0.4-0.3-0.7-0.3c-0.9,0.1-1.7,0.2-2.6,0.3c-0.3,0-0.5,0.1-0.7,0.3c-0.2,0.2-0.3,0.4-0.3,0.7
					c0,0.2,0.1,0.5,0.3,0.7C144.6,70.8,144.9,70.9,145.1,70.9L145.1,70.9z"/>
			</g>
		</g>
		<g>
			<g>
				<path class="st25" d="M146.7,68.1c0,2.3,0,4.5,0,6.8c0,1.2,1.8,1.2,1.8,0c0-2.3,0-4.5,0-6.8C148.6,66.9,146.7,66.9,146.7,68.1
					L146.7,68.1z"/>
			</g>
		</g>
		<g>
			<g>
				<path class="st25" d="M145.7,77c0.5-0.2,1-0.4,1.4-0.6c0.1,0,0.2-0.1,0.3-0.2c0.1-0.1,0.2-0.2,0.2-0.3c0.1-0.2,0.2-0.5,0.1-0.7
					c-0.1-0.2-0.2-0.4-0.4-0.6c-0.1,0-0.1-0.1-0.2-0.1c-0.2,0-0.3,0-0.5,0c-0.5,0.2-1,0.4-1.4,0.6c-0.1,0-0.2,0.1-0.3,0.2
					c-0.1,0.1-0.2,0.2-0.2,0.3c-0.1,0.2-0.2,0.5-0.1,0.7c0.1,0.2,0.2,0.4,0.4,0.6c0.1,0,0.1,0.1,0.2,0.1
					C145.3,77.1,145.5,77.1,145.7,77L145.7,77z"/>
			</g>
		</g>
		<g>
			<g>
				<path class="st25" d="M153.9,70.1c0.9-0.1,1.7-0.2,2.6-0.3c0.3,0,0.5-0.1,0.7-0.3c0.2-0.2,0.3-0.4,0.3-0.7
					c0-0.2-0.1-0.5-0.3-0.7c-0.2-0.2-0.4-0.3-0.7-0.3c-0.9,0.1-1.7,0.2-2.6,0.3c-0.3,0-0.5,0.1-0.7,0.3c-0.2,0.2-0.3,0.4-0.3,0.7
					c0,0.2,0.1,0.5,0.3,0.7C153.5,69.9,153.7,70.1,153.9,70.1L153.9,70.1z"/>
			</g>
		</g>
		<g>
			<g>
				<path class="st25" d="M151.8,67.8c-0.2,1.2-0.3,2.5-0.3,3.8c0.1,1.3,0.3,2.6,0.8,3.8c0.3,0.7,0.8,1.1,1.5,1.2
					c0.6,0,1.2-0.2,1.8-0.4c1.2-0.4,2.4-1,3.5-1.6c1-0.6,0.1-2.2-0.9-1.6c-0.9,0.5-1.8,1-2.7,1.3c-0.5,0.2-0.9,0.3-1.4,0.4
					c0,0-0.1,0-0.1,0c0,0,0,0,0,0c0.1,0.1,0.1,0.1,0.1,0c0-0.1-0.1-0.3-0.2-0.5c-0.6-1.9-0.7-4-0.3-5.9c0.1-0.5-0.1-1-0.6-1.1
					C152.5,67,151.9,67.3,151.8,67.8L151.8,67.8z"/>
			</g>
		</g>
		<g>
			<g>
				<path class="st25" d="M164.3,70.6c1-0.6,2-1.2,3.1-1.8c0.4-0.2,0.6-0.8,0.3-1.3c-0.3-0.4-0.8-0.6-1.3-0.3c-1,0.6-2,1.2-3.1,1.8
					c-0.4,0.2-0.6,0.8-0.3,1.3C163.3,70.7,163.8,70.8,164.3,70.6L164.3,70.6z"/>
			</g>
		</g>
		<g>
			<g>
				<path class="st25" d="M165.5,67.6c1.2,2.4,2.5,4.8,3.7,7.1c0.2,0.4,0.8,0.6,1.3,0.3c0.4-0.3,0.6-0.8,0.3-1.3
					c-1.2-2.4-2.5-4.8-3.7-7.1c-0.2-0.4-0.8-0.6-1.3-0.3C165.4,66.6,165.3,67.1,165.5,67.6L165.5,67.6z"/>
			</g>
		</g>
		<g>
			<g>
				<path class="st25" d="M169,77.1c1-0.5,1.8-1.3,2.3-2.2c0.1-0.2,0.2-0.5,0.1-0.7c-0.1-0.2-0.2-0.4-0.4-0.6
					c-0.5-0.2-1-0.1-1.3,0.3c-0.1,0.1-0.2,0.3-0.3,0.4c0-0.1,0.1-0.1,0.1-0.2c-0.3,0.4-0.6,0.7-1,1c0.1,0,0.1-0.1,0.2-0.1
					c-0.2,0.2-0.5,0.3-0.7,0.5c-0.2,0.1-0.4,0.3-0.4,0.6c-0.1,0.2,0,0.5,0.1,0.7C168,77.2,168.5,77.4,169,77.1L169,77.1z"/>
			</g>
		</g>
		<g>
			<g>
				<path class="st25" d="M175.1,66.8c0.9-0.7,1.8-1.4,2.6-2.1c0.2-0.1,0.3-0.4,0.3-0.7c0-0.2-0.1-0.5-0.3-0.7
					c-0.2-0.2-0.4-0.3-0.7-0.3c-0.1,0-0.2,0-0.2,0c-0.2,0-0.3,0.1-0.4,0.2c-0.9,0.7-1.8,1.4-2.6,2.1c-0.2,0.1-0.3,0.4-0.3,0.7
					c0,0.2,0.1,0.5,0.3,0.7c0.2,0.2,0.4,0.3,0.7,0.3c0.1,0,0.2,0,0.2,0C174.8,67,175,66.9,175.1,66.8L175.1,66.8z"/>
			</g>
		</g>
		<g>
			<g>
				<path class="st25" d="M171.3,65.5c0.9,1.8,1.9,3.5,3,5.2c1,1.6,2,3.3,3.4,4.6c1.3,1.2,3,1.5,4.4,0.3c1.6-1.4,3-3,4.4-4.5
					c0.8-0.9-0.5-2.2-1.3-1.3c-1.3,1.3-2.5,2.6-3.8,3.9c-0.4,0.5-1,1.2-1.7,0.9c-0.6-0.2-1.1-0.8-1.5-1.3c-2.1-2.7-3.8-5.6-5.4-8.6
					C172.3,63.5,170.7,64.4,171.3,65.5L171.3,65.5z"/>
			</g>
		</g>
		<g>
			<g>
				<path class="st25" d="M195,75c0.1,1.8,0.3,3.7,0.6,5.5c0.1,0.9,0.3,1.8,0.5,2.7c0.1,0.7,0.2,1.7,0.8,2.2
					c0.6,0.6,1.4,0.5,2.2,0.3c0.9-0.3,1.8-0.5,2.7-0.8c1.8-0.5,3.6-1.1,5.5-1.6c1.1-0.3,0.7-2.1-0.5-1.8c-1.5,0.5-3.1,0.9-4.6,1.4
					c-0.8,0.2-1.5,0.5-2.3,0.7c-0.4,0.1-0.8,0.3-1.3,0.4c-0.1,0-0.3,0.1-0.4,0.1c0,0-0.1,0-0.1,0c0.2,0.1,0.2,0.2,0.2,0.1
					c0.1-0.1-0.2-0.9-0.2-1c-0.1-0.4-0.2-0.8-0.2-1.1c-0.1-0.8-0.3-1.5-0.4-2.3c-0.2-1.6-0.4-3.1-0.5-4.7
					C196.8,73.8,194.9,73.8,195,75L195,75z"/>
			</g>
		</g>
		<g>
			<g>
				<path class="st25" d="M197.4,75.4c0.7-0.4,1.5-0.7,2.3-0.9c0.3-0.1,0.9-0.3,1.2-0.2c0.3,0.1,0.3,0.6,0.4,0.9
					c0.5,1.8,1,3.6,1.4,5.4c0.4,1.8,0.7,3.6,1,5.4c0.1,0.4,0.2,0.9,0.2,1.3c0,0.3,0,0.3-0.3,0.4c-0.6,0.3-1.2,0.3-1.8,0.6
					c-1,0.6-0.1,2.2,0.9,1.6c0.7-0.4,1.5-0.3,2.1-0.8c0.8-0.6,0.9-1.5,0.8-2.4c-0.3-2.4-0.7-4.9-1.3-7.3c-0.3-1.2-0.6-2.4-0.9-3.5
					c-0.3-0.9-0.4-2.3-1.1-3c-0.7-0.8-1.8-0.6-2.7-0.4c-1.1,0.3-2.2,0.7-3.1,1.2C195.4,74.3,196.4,75.9,197.4,75.4L197.4,75.4z"/>
			</g>
		</g>
		<g>
			<g>
				<path class="st25" d="M194.1,82c3.7-1.2,7.5-2.3,11.3-3.2c1.2-0.3,0.7-2.1-0.5-1.8c-3.8,1-7.6,2-11.3,3.2
					C192.5,80.5,193,82.3,194.1,82L194.1,82z"/>
			</g>
		</g>
		<g>
			<g>
				<path class="st25" d="M199.6,78.5c0.3,0.1,0.6,0.2,0.8,0.3c-0.1,0-0.1-0.1-0.2-0.1c0.6,0.3,1.2,0.6,1.8,0.9
					c0.4,0.2,1,0.1,1.3-0.3c0.2-0.4,0.1-1-0.3-1.3c-0.9-0.5-1.9-1-2.9-1.3c-0.2-0.1-0.5,0-0.7,0.1c-0.2,0.1-0.4,0.3-0.4,0.6
					C198.8,77.9,199.1,78.4,199.6,78.5L199.6,78.5z"/>
			</g>
		</g>
		<g>
			<g>
				<path class="st25" d="M200.6,82.7c0.7,0.3,1.4,0.7,2.1,1c0.2,0.1,0.5,0.2,0.7,0.1c0.2-0.1,0.4-0.2,0.6-0.4
					c0.1-0.2,0.2-0.5,0.1-0.7c-0.1-0.2-0.2-0.4-0.4-0.6c-0.7-0.3-1.4-0.7-2.1-1c-0.2-0.1-0.5-0.2-0.7-0.1c-0.2,0.1-0.4,0.2-0.6,0.4
					c-0.1,0.2-0.2,0.5-0.1,0.7C200.3,82.4,200.4,82.6,200.6,82.7L200.6,82.7z"/>
			</g>
		</g>
		<g>
			<g>
				<path class="st25" d="M215.3,94.1c1.2-0.8,2.4-1.7,3.6-2.5c0.4-0.3,0.6-0.8,0.3-1.3c-0.3-0.4-0.8-0.6-1.3-0.3
					c-1.2,0.8-2.4,1.7-3.6,2.5c-0.4,0.3-0.6,0.8-0.3,1.3C214.3,94.2,214.8,94.4,215.3,94.1L215.3,94.1z"/>
			</g>
		</g>
		<g>
			<g>
				<path class="st25" d="M214.7,90.5c0.9,1.7,1.8,3.5,2.7,5.2c0.2,0.4,0.9,0.6,1.3,0.3c0.4-0.3,0.6-0.8,0.3-1.3
					c-0.9-1.7-1.8-3.5-2.7-5.2c-0.2-0.4-0.9-0.6-1.3-0.3C214.6,89.5,214.5,90,214.7,90.5L214.7,90.5z"/>
			</g>
		</g>
		<g>
			<g>
				<path class="st25" d="M215.8,98c2.6-1.6,5.2-3.2,7.9-4.5c0.4-0.2,0.6-0.9,0.3-1.3c-0.3-0.5-0.8-0.6-1.3-0.3
					c-2.7,1.4-5.3,2.9-7.9,4.5C213.8,97,214.8,98.6,215.8,98L215.8,98z"/>
			</g>
		</g>
		<g>
			<g>
				<path class="st25" d="M219.6,92.1c-1.1,4.4-2.3,8.8-3.4,13.2c-0.3,1.2,1.5,1.6,1.8,0.5c1.1-4.4,2.3-8.8,3.4-13.2
					C221.7,91.4,219.9,91,219.6,92.1L219.6,92.1z"/>
			</g>
		</g>
		<g>
			<g>
				<path class="st25" d="M222.4,99.4c0.7-0.6,1.4-1.2,2.1-1.7c0.2-0.1,0.3-0.4,0.3-0.7c0-0.2-0.1-0.5-0.3-0.7
					c-0.2-0.2-0.4-0.3-0.7-0.3c-0.1,0-0.2,0-0.2,0c-0.2,0-0.3,0.1-0.4,0.2c-0.7,0.6-1.4,1.2-2.1,1.7c-0.2,0.1-0.3,0.4-0.3,0.7
					c0,0.2,0.1,0.5,0.3,0.7c0.2,0.2,0.4,0.3,0.7,0.3c0.1,0,0.2,0,0.2,0C222.1,99.6,222.3,99.6,222.4,99.4L222.4,99.4z"/>
			</g>
		</g>
		<g>
			<g>
				<path class="st25" d="M219.4,97.9c0.5,0.9,1,1.8,1.4,2.7c0.4,0.8,0.8,1.7,1.5,2.3c0.9,0.6,1.9,0.3,2.9,0c1-0.3,2-0.6,2.9-0.9
					c1.1-0.3,0.7-2.1-0.5-1.8c-0.8,0.3-1.7,0.5-2.5,0.8c-0.4,0.1-0.8,0.3-1.2,0.4c-0.1,0-0.3,0.1-0.5,0.1c0,0-0.1-0.1-0.1-0.1
					c-0.4-0.5-0.7-1.3-1.1-1.9c-0.4-0.8-0.9-1.6-1.3-2.4c-0.2-0.4-0.8-0.6-1.3-0.3C219.3,96.9,219.2,97.5,219.4,97.9L219.4,97.9z"/>
			</g>
		</g>
		<g>
			<g>
				<path class="st25" d="M229.2,116.3c2.5-1,5.1-1.9,7.7-2.5c1.3-0.3,2.6-0.6,3.9-0.8c0.3-0.1,0.6-0.1,0.9-0.1
					c0.2,0,0.4-0.1,0.5-0.1c0.4,0,0.4-0.1-0.1-0.4c0,0-0.1,0.9-0.1,1c-0.1,0.3-0.2,0.6-0.3,1c-0.4,1.1,1.4,1.6,1.8,0.5
					c0.3-1.1,1.1-3.4-0.4-3.9c-0.7-0.2-1.6,0.1-2.3,0.2c-0.8,0.1-1.7,0.3-2.5,0.5c-3.3,0.7-6.6,1.7-9.7,2.9
					C227.7,114.9,228.1,116.7,229.2,116.3L229.2,116.3z"/>
			</g>
		</g>
		<g>
			<g>
				<path class="st25" d="M228.2,116.7c-0.3,5.4-0.6,10.8-0.8,16.1c-0.1,1.2,1.8,1.2,1.8,0c0.3-5.4,0.6-10.8,0.8-16.1
					C230.1,115.5,228.3,115.5,228.2,116.7L228.2,116.7z"/>
			</g>
		</g>
		<g>
			<g>
				<path class="st25" d="M233.3,108.9c0.1,1.3,0.2,2.6,0.3,3.8c0,0.5,0.4,0.9,0.9,0.9c0.5,0,1-0.4,0.9-0.9
					c-0.1-1.3-0.2-2.6-0.3-3.8c0-0.5-0.4-0.9-0.9-0.9C233.7,108,233.2,108.4,233.3,108.9L233.3,108.9z"/>
			</g>
		</g>
		<g>
			<g>
				<path class="st25" d="M235.3,111c1.3-0.5,2.6-1.1,3.9-1.6c0.2-0.1,0.4-0.2,0.6-0.4c0.1-0.2,0.2-0.5,0.1-0.7
					c-0.1-0.4-0.7-0.8-1.1-0.6c-1.3,0.5-2.6,1.1-3.9,1.6c-0.2,0.1-0.4,0.2-0.6,0.4c-0.1,0.2-0.2,0.5-0.1,0.7
					C234.3,110.8,234.8,111.2,235.3,111L235.3,111z"/>
			</g>
		</g>
		<g>
			<g>
				<path class="st25" d="M234.2,118.4c0.4-0.2,0.7-0.4,1.1-0.5c-0.2,0.1,0.1-0.1,0.2-0.1c0.1,0,0.2-0.1,0.2-0.1
					c0.2-0.1,0.4-0.1,0.6-0.2c0.8-0.3,1.6-0.5,2.4-0.6c0.5-0.1,0.8-0.7,0.6-1.1c-0.2-0.5-0.6-0.7-1.1-0.6c-1.7,0.3-3.4,0.9-4.9,1.7
					c-0.4,0.2-0.6,0.9-0.3,1.3C233.2,118.5,233.7,118.6,234.2,118.4L234.2,118.4z"/>
			</g>
		</g>
		<g>
			<g>
				<path class="st25" d="M233.4,114.2c0.2,1.1,0.5,2.3,0.7,3.4c0.1,0.6,0.2,1.2,0.3,1.7c0.1,0.5,0.2,1,0.3,1.5
					c0.2,0.5,0.5,1,1.1,1.2c0.6,0.2,1.1-0.1,1.7-0.3c1.1-0.4,2.2-0.8,3.3-1.3c0.5-0.2,0.8-0.6,0.6-1.1c-0.1-0.4-0.7-0.8-1.1-0.6
					c-0.9,0.4-1.9,0.7-2.8,1.1c-0.2,0.1-0.5,0.2-0.7,0.3c-0.1,0-0.5,0.2-0.5,0.2c-0.1-0.1,0.3,0.1,0.3,0.1c0,0,0,0,0,0
					c0,0,0-0.1,0-0.1c-0.1-0.2-0.1-0.4-0.1-0.6c-0.4-2-0.8-4-1.2-5.9c-0.1-0.5-0.7-0.8-1.1-0.6C233.5,113.2,233.3,113.7,233.4,114.2
					L233.4,114.2z"/>
			</g>
		</g>
		<g>
			<g>
				<path class="st25" d="M235.7,125.8c-0.5,2.7-1,5.4-1.5,8.2c-0.1,0.5,0.1,1,0.6,1.1c0.5,0.1,1-0.2,1.1-0.6c0.5-2.7,1-5.4,1.5-8.2
					c0.1-0.5-0.1-1-0.6-1.1C236.4,125.1,235.8,125.3,235.7,125.8L235.7,125.8z"/>
			</g>
		</g>
		<g>
			<g>
				<path class="st25" d="M239.8,125.6c0.2,0.4,0.1,0.9,0.1,1.4c0,0.5,0,1,0.1,1.5c0.2,1,1,1.9,2.1,2c1.2,0.1,2.4-0.8,3.3-1.4
					c1.1-0.6,2.2-1.3,3.3-1.9c1-0.6,0.1-2.2-0.9-1.6c-1,0.6-1.9,1.1-2.9,1.7c-0.5,0.3-0.9,0.5-1.4,0.8c-0.4,0.2-0.8,0.5-1.2,0.6
					c-0.2,0-0.3-0.1-0.4-0.2c-0.1-0.2-0.2-0.6-0.2-0.8c0-1.1,0.1-2-0.3-3c-0.2-0.5-0.9-0.6-1.3-0.3
					C239.7,124.6,239.6,125.1,239.8,125.6L239.8,125.6z"/>
			</g>
		</g>
	</g>
</g>
</svg>
