<?xml version="1.0" encoding="utf-8"?>
<!-- Generator: Adobe Illustrator 24.3.0, SVG Export Plug-In . SVG Version: 6.00 Build 0)  -->
<svg version="1.1" id="圖層_3" xmlns="http://www.w3.org/2000/svg" xmlns:xlink="http://www.w3.org/1999/xlink" x="0px" y="0px"
	 viewBox="0 0 509.2 332.8" style="enable-background:new 0 0 509.2 332.8;" xml:space="preserve">
<style type="text/css">
	.st0{opacity:0.64;fill:#CECECE;}
	.st1{fill:url(#SVGID_1_);}
	.st2{clip-path:url(#XMLID_2_);fill:#F9D069;}
	.st3{clip-path:url(#XMLID_3_);fill:#D3A64C;}
	.st4{clip-path:url(#XMLID_3_);fill:#FCD98B;}
	.st5{clip-path:url(#XMLID_4_);fill:#F9D069;}
	.st6{fill:#F7E7D6;}
	.st7{fill:#FFFFFF;}
	.st8{fill:#3D3939;}
	.st9{clip-path:url(#XMLID_6_);fill:#F9D069;}
	.st10{opacity:0.68;fill:url(#SVGID_2_);}
	.st11{fill:url(#SVGID_3_);}
</style>
<path class="st0" d="M272.4,277.4L272.4,277.4c1.8-5.7,2.8-11.9,2.8-18.5c0-27.3-17.4-49.4-38.8-49.4c-16.1,0-29.8,12.4-35.7,30.2
	c-2.9-0.7-5.9-1.1-9.1-1.1c-4.3,0-8.4,0.7-12.2,2c-4.3-25.9-23.2-45.4-45.8-45.4c-21.9,0-40.3,18.3-45.3,42.9
	c-16.2,2.3-28.6,16-28.6,32.6c0,2.4,0.3,4.8,0.8,7.1l-0.8-0.1c-41.3-4.2-47.5,26-47.5,26h81h22h36.9h17.7h43.6h6.7h32.7H296
	C296,278.4,272.4,277.4,272.4,277.4z"/>
<linearGradient id="SVGID_1_" gradientUnits="userSpaceOnUse" x1="218.4591" y1="251.2832" x2="502.2278" y2="251.2832">
	<stop  offset="0" style="stop-color:#FFFFFF;stop-opacity:0.7"/>
	<stop  offset="0.6829" style="stop-color:#FFFFFF;stop-opacity:0.1024"/>
	<stop  offset="0.8" style="stop-color:#FFFFFF;stop-opacity:0"/>
</linearGradient>
<path class="st1" d="M465.6,281.2L465.6,281.2c1.8-6.1,2.8-12.8,2.8-19.8c0-29.3-17.4-53.1-38.8-53.1c-16.1,0-29.8,13.4-35.7,32.4
	c-2.9-0.8-5.9-1.2-9.1-1.2c-4.3,0-8.4,0.8-12.2,2.2c-4.3-27.8-23.2-48.7-45.8-48.7c-21.9,0-40.3,19.6-45.3,46.1
	c-16.2,2.5-28.6,17.2-28.6,35.1c0,2.6,0.3,5.1,0.8,7.6l-0.8-0.1c-41.3-4.5-47.5,27.9-47.5,27.9h81h22h36.9h17.7h43.6h6.7H446h43.2
	C489.2,282.3,465.6,281.2,465.6,281.2z"/>
<g>
	<defs>
		<path id="XMLID_131_" d="M275.7,188.3c0,0,26.2,28.8,58.1,11.3s20.4,35.3-5.7,52.5c-26.1,17.3-64,12.8-72.1-39.4
			C247.9,160.5,275.7,188.3,275.7,188.3z"/>
	</defs>
	<use xlink:href="#XMLID_131_"  style="overflow:visible;fill:#FCEBB9;"/>
	<clipPath id="XMLID_2_">
		<use xlink:href="#XMLID_131_"  style="overflow:visible;"/>
	</clipPath>
	<path class="st2" d="M342.7,192.6c0,0,9.2,18-14.8,43.2c-23.9,25.2-58.2,18.6-58.2,18.6l26.5,18.2l32.1-10.2l20.9-23.7l13-29.9
		l-2.5-13.8L342.7,192.6z"/>
</g>
<g>
	<defs>
		<path id="XMLID_130_" d="M254.4,12.3c-7.2-4.8-18.8-5-18.8-5s-11.6-1-19.3,3c-7.7,4-0.7,31.1-0.7,31.1l17.9,4l18.3-2
			C251.8,43.3,261.7,17.1,254.4,12.3z"/>
	</defs>
	<use xlink:href="#XMLID_130_"  style="overflow:visible;fill:#FCD98B;"/>
	<clipPath id="XMLID_3_">
		<use xlink:href="#XMLID_130_"  style="overflow:visible;"/>
	</clipPath>
	<path class="st3" d="M210.1,4.7c0,0,13,7,5.5,36.7s0,0,0,0l1.8,2l1.4-1.3C218.8,42.1,224.9,7.9,210.1,4.7z"/>
	<path class="st3" d="M261.2,7.4c0,0-13.7,5.6-9.4,35.9s0,0,0,0l-2,1.8l-1.2-1.4C248.6,43.7,246.2,9.1,261.2,7.4z"/>
	<circle class="st3" cx="226.1" cy="33.5" r="1.1"/>
	<circle class="st3" cx="221.3" cy="40.4" r="0.7"/>
	<circle class="st3" cx="246.6" cy="41.7" r="0.7"/>
	<circle class="st3" cx="223.3" cy="11.3" r="0.6"/>
	<circle class="st3" cx="247.7" cy="12.6" r="0.6"/>
	<circle class="st3" cx="242.7" cy="34.4" r="1.1"/>
	<path class="st3" d="M224.5,46.5"/>
	<path class="st3" d="M219.7,28.4c0,0,1.1-9.4,7-10.6c5.9-1.2,8.3,3.4,8.1,6.2s-5.2,6.2-8.2,2.1c-1.2-1.8,0-4.9,3.5-3.7
		c0,0-2,0.2-1.4,1.8c0.5,1.6,3,1.6,3.6,0c0.5-1.6-0.5-4.4-3.6-4.3c-3.1,0.1-6.4,3-8.7,11.5s0,0,0,0l-0.6-1.9L219.7,28.4z"/>
	<path class="st3" d="M217.4,46.9c0,0,7.9,5.2,12.6,1.4c4.7-3.7,2.7-8.5,0.5-10.2c-2.3-1.7-8.1,0-6.9,4.9c0.6,2.1,3.7,3.2,5.1-0.3
		c0,0-1.4,1.4-2.3-0.1c-0.9-1.4,0.8-3.3,2.3-2.7s3,3.2,0.9,5.5c-2.1,2.3-6.4,3-14.4-0.7c-7.9-3.7,0,0,0,0l1.1,1.7L217.4,46.9z"/>
	<path class="st3" d="M249.8,48.6c0,0-8.4,4.3-12.7,0.1c-4.3-4.2-1.8-8.8,0.6-10.2s8.1,0.9,6.3,5.6c-0.8,2.1-4,2.7-5.1-0.8
		c0,0,1.3,1.5,2.3,0.2s-0.4-3.4-2-2.9c-1.6,0.5-3.4,2.8-1.5,5.4c1.8,2.5,6.1,3.7,14.4,0.8c8.3-2.9,0,0,0,0l-1.2,1.6L249.8,48.6z"/>
	<path class="st3" d="M249.5,30c0,0-0.1-9.4-5.8-11.2c-5.7-1.8-8.6,2.5-8.7,5.3s4.5,6.8,7.9,3c1.4-1.7,0.5-4.9-3.1-4.1
		c0,0,1.9,0.4,1.2,1.9c-0.7,1.5-3.2,1.2-3.5-0.4c-0.3-1.6,1-4.3,4-3.9c3.1,0.5,6.1,3.7,7.4,12.3s0,0,0,0l0.8-1.8L249.5,30z"/>
	<path class="st3" d="M233.7,45.3c0,0-0.9,1.1-0.9-0.2c-0.1-3,0.3-10.5-2.3-13.2c-3.7-3.8-7.1-1.2-6.7,1.7c0.3,2.1,2.2,2.6,3.2,1.6
		c0,0,0.9,2.8-2.3,3c-3.2,0.3-5.2-3-5.1-5.1s1.1-7,7.6-5.8C233.6,28.5,234.2,35.9,233.7,45.3z"/>
	<path class="st3" d="M233.7,45.3c0,0,0.8,1.2,0.9-0.1c0.4-3,0.8-10.5,3.7-12.9c4.1-3.4,7.4-0.6,6.8,2.1c-0.4,1.9-2.7,2.5-3.7,1.5
		c0,0-1.2,2.7,2,3.3c3.1,0.6,5.5-2.4,5.6-4.6c0.1-2.2-0.3-7.1-6.9-6.6C235.7,28.6,234.2,35.9,233.7,45.3z"/>
	<path class="st4" d="M496.8,25.4c-7.2-4.8-18.8-5-18.8-5s-11.6-1-19.3,3c-7.7,4-0.7,31.1-0.7,31.1l17.9,4l18.3-2
		C494.1,56.3,504,30.2,496.8,25.4z"/>
	<polygon class="st3" points="234.7,27.5 232.8,28.8 234.4,33.1 236.4,29.2 	"/>
	<path class="st3" d="M235.1,20.5c0,0-1.6-2.2-5.7-2.8c-3.2-0.5-4.4,0.5-7.4-0.3c-2.9-0.7-4.7-3.1-3.5-7c1.2-4,7.4-3.9,8.5-0.7
		c0.7,2.3-0.2,4-1.4,4.7s-4.7,0.3-4.4-2.4c0,0,1.1,2.1,3.1,1.4c2-0.7,1.5-4.5-1.9-4c-3.4,0.5-3.4,5.9-0.1,6.7c1.4,0.5,4-0.1,4.5-0.1
		C227.5,15.9,232.9,15.2,235.1,20.5z"/>
	<path class="st3" d="M235.1,20.4c0,0,1.8-2,5.9-2.1c3.2-0.1,4.3,0.9,7.4,0.5c2.9-0.4,5.1-2.6,4.3-6.6c-0.8-4.1-6.9-4.7-8.3-1.6
		c-1,2.2-0.2,4,0.9,4.8c1.2,0.8,4.7,0.8,4.6-2c0,0-1.4,1.9-3.3,1c-1.9-0.9-1-4.6,2.3-3.8c3.3,0.8,2.7,6.2-0.6,6.6
		c-1.5,0.4-3.9-0.5-4.5-0.5C243.1,16.7,237.8,15.5,235.1,20.4z"/>
	<path class="st3" d="M234,5.5c0,0-1.9-2.2-1.2,0.9c0.1,0.6-2.6,0.5-4.6,3.5c-0.4,0.6-0.8,2-0.8,2.9c0.1,1.5,0.7,3.1,3.6,3.5
		c2.9,0.3,4.5-1.5,4.5-3.6c0.1-4.5-5.8-4-5-0.3c0,0,1.3-2.3,3-0.8c1.1,1.1-0.1,3.6-2.9,2.9c-2-0.5-2-2.1-1.4-3.4
		c0.5-1.3,1.5-2.1,2.7-2.9C233.5,7.2,235.5,6.3,234,5.5z"/>
	<path class="st3" d="M237.8,5.7c0,0,2.1-2,1,1.1c-0.2,0.6,2.5,0.8,4.2,4c0.4,0.7,0.6,2,0.5,3c-0.3,1.4-1.1,3-4,3
		c-2.9,0-4.3-2-4.1-4.1c0.4-4.5,6.2-3.4,5,0.3c0,0-1.1-2.4-2.9-1.1c-1.2,0.9-0.3,3.6,2.6,3.2c2-0.3,2.2-1.9,1.8-3.2
		c-0.4-1.3-1.3-2.2-2.4-3.2C238.1,7.4,236.2,6.4,237.8,5.7z"/>
	<path class="st3" d="M220.3,17.8c0,0,0.5,2.3,0.3,3.7c0,0,0.9-2.2,2.2-2.6C222.8,18.9,221.1,18.7,220.3,17.8z"/>
	<path class="st3" d="M249.8,19.3c0,0-0.8,2.2-0.8,3.6c0,0-0.6-2.3-1.8-2.9C247.1,20,248.8,20.1,249.8,19.3z"/>
</g>
<g>
	<defs>
		<path id="XMLID_129_" d="M183.1,180.9c0,0-21.6,93.7-11.9,122.7h105.1c0,0,8.8-43.6-6.7-122.4L183.1,180.9z"/>
	</defs>
	<use xlink:href="#XMLID_129_"  style="overflow:visible;fill:#FCEBB9;"/>
	<clipPath id="XMLID_4_">
		<use xlink:href="#XMLID_129_"  style="overflow:visible;"/>
	</clipPath>
	<path class="st5" d="M160.2,288.1c0,0,39.7,6.9,66.1,6.9s62.4-6.9,62.4-6.9l-3.8,19.9H160.1L160.2,288.1z"/>
	<path class="st5" d="M172.2,240h105.5c0,0,0.5,6.7,0.5,7.7h-107C171.2,247.7,171.8,242.8,172.2,240z"/>
</g>
<g>
	<path class="st6" d="M161.3,161C161.4,160.9,161.4,160.8,161.3,161L161.3,161z"/>
	<path class="st6" d="M161.2,161.9c0,0,0-0.1,0-0.2C161.3,161.8,161.2,161.9,161.2,161.9z"/>
	<path class="st6" d="M161.3,161.7c0-0.3,0.1-0.6,0.1-0.7C161.3,161.2,161.3,161.5,161.3,161.7z"/>
	<path class="st6" d="M153.7,129c0,0-11.7-9.6-13.9,5c-0.9,5.7,0.7,10.3,3.2,13.6l0,0c0,0,6,8.7,6.6,11.8c0.8,3.9,2.9,7.4,6.7,7.5
		c3.6,0,4.6-2.5,4.9-4.9l-3.4-9C162.5,149.3,153.7,129,153.7,129z"/>
</g>
<g>
	<path class="st6" d="M293.2,168.1C293.2,168,293.2,167.9,293.2,168.1L293.2,168.1z"/>
	<path class="st6" d="M293.3,169c0,0,0-0.1,0-0.2C293.3,168.9,293.3,169,293.3,169z"/>
	<path class="st6" d="M293.3,168.8c0-0.3,0-0.6,0-0.7C293.2,168.3,293.3,168.6,293.3,168.8z"/>
	<path class="st6" d="M304.3,137.1c0,0,12.7-8.3,13.3,6.4c0.2,5.8-1.8,10.2-4.6,13.2l0,0c0,0-6.9,8-7.9,11.1
		c-1.3,3.8-3.7,7.1-7.5,6.7c-3.6-0.3-4.3-3-4.3-5.4l4.4-8.6C293.3,156.4,304.3,137.1,304.3,137.1z"/>
</g>
<g>
	<defs>
		<path id="XMLID_128_" d="M306.5,133c0.8,41.4-36.6,59.8-80.8,57.4c-44.5-2.4-76.5-23.7-74.3-65.8c1.9-36,38.2-63.2,81-60.9
			C275.3,66.1,305.8,97,306.5,133"/>
	</defs>
	<use xlink:href="#XMLID_128_"  style="overflow:visible;fill:#F7E7D6;"/>
	<clipPath id="XMLID_5_">
		<use xlink:href="#XMLID_128_"  style="overflow:visible;"/>
	</clipPath>
</g>
<path class="st7" d="M318.4,101.4c-4.6-20.7-34-61.9-84.7-58.9C183.7,34,150,71.9,143.2,92c-6.8,20.1,8.1,35.8,8.1,35.8
	c3.3-19.7,15-42.3,32-37.1c17,5.2,47.5,7.2,47.5,7.2s30.5,1.4,48-2c17.4-3.4,26.6,20.4,27.8,40.3C306.5,136.1,323,122.1,318.4,101.4
	z"/>
<path class="st7" d="M167.9,134.3c5.2-4.5,19.4-7.6,26.4-5.5s7.2,10.6-1.2,11s-19.1,3.9-22.9,10.3c-2.6,4.4-13.5,22.7-0.9,45.1
	c0,0-20.8-9.4-13.7-42.3C158.8,140.5,167.9,134.3,167.9,134.3z"/>
<path class="st7" d="M288.9,140.9c-4.6-5-18.4-9.8-25.6-8.4c-7.2,1.4-8.4,9.7,0,11c8.3,1.3,18.5,6,21.6,12.8
	c2.1,4.7,10.9,24.1-4.1,44.9c0,0,21.7-7,18.4-40.5C297.3,148.1,288.9,140.9,288.9,140.9z"/>
<g>
	<g>
		<path class="st8" d="M187.4,144.9c2.4,0,4.8,0.2,7.2,0.5c0.5,0.1,0.5-0.7,0-0.7c-2.4-0.3-4.8-0.5-7.2-0.5
			C186.9,144.2,186.9,144.9,187.4,144.9L187.4,144.9z"/>
	</g>
</g>
<g>
	<g>
		<path class="st8" d="M262.2,148.8c2.3-0.2,4.6-0.1,6.9,0.1c0.5,0.1,0.5-0.7,0-0.7c-2.3-0.3-4.6-0.3-6.9-0.1
			C261.7,148.1,261.7,148.8,262.2,148.8L262.2,148.8z"/>
	</g>
</g>
<g>
	<g>
		<path class="st8" d="M193.7,147.9c-1.9,1.2-4.5,1.1-6.3-0.3c-0.4-0.3-0.9,0.2-0.5,0.5c2,1.6,5,1.8,7.2,0.4
			C194.5,148.3,194.1,147.7,193.7,147.9L193.7,147.9z"/>
	</g>
</g>
<g>
	<g>
		<path class="st8" d="M262.3,151.6c1.2,0.8,2.6,1.3,4.1,1.3c1.3-0.1,2.5-0.6,3.3-1.6c0.3-0.4-0.2-0.9-0.5-0.5
			c-0.7,0.9-1.8,1.4-2.9,1.4c-1.3,0-2.5-0.5-3.6-1.2C262.3,150.7,262,151.3,262.3,151.6L262.3,151.6z"/>
	</g>
</g>
<path class="st7" d="M223.8,144c0,0-42.6-1.6-42.4,56.1s36,85,53.3,91.8c0,0,0.3-13.1,18.4-33.5c13.9-15.6,28.6-58.1,10.8-94.2
	C256,148.8,244.1,142.9,223.8,144z"/>
<g>
	<defs>
		<path id="XMLID_127_" d="M183.1,180.9c0,0-5.4,29.5,0.8,43.1c6.2,13.4,19.2,11.6,23.4,14.4c5.8,3.9,5.6,24.1-29.5,42.5
			s-29.9-42.5-23.6-65C160.5,193.3,171.9,185.3,183.1,180.9z"/>
	</defs>
	<use xlink:href="#XMLID_127_"  style="overflow:visible;fill:#FCEBB9;"/>
	<clipPath id="XMLID_6_">
		<use xlink:href="#XMLID_127_"  style="overflow:visible;"/>
	</clipPath>
	<path class="st9" d="M205.1,232.6c0,0-2.9,24.7-31.3,36.8c-28.4,12.1-39.3-2.9-39.3-2.9l18.3,24.7l36.2-6.9l21.2-20.4l9.3-20.4
		L205.1,232.6z"/>
</g>
<linearGradient id="SVGID_2_" gradientUnits="userSpaceOnUse" x1="49.4764" y1="276.8954" x2="183.9631" y2="276.8954">
	<stop  offset="0" style="stop-color:#FFFFFF;stop-opacity:0.7"/>
	<stop  offset="0.6829" style="stop-color:#FFFFFF;stop-opacity:0.1024"/>
	<stop  offset="0.8" style="stop-color:#FFFFFF;stop-opacity:0"/>
</linearGradient>
<path class="st10" d="M163.6,289.5c0.3-1.3,0.4-2.7,0.4-4.1c0-11-8.2-20.2-18.9-21.6c-5.3-8.3-14.5-13.8-25.1-13.8
	c-9.2,0-17.4,4.2-22.8,10.8c-5-5.4-12.2-8.7-20.1-8.7c-15.2,0-27.6,12.4-27.6,27.6c0,10.5,5.9,19.6,14.5,24.3l0,0h0h26.2h12.9h27.5
	h6.4h16.7h3c15.1,0,27.3-3.3,27.3-7.3C184,293.1,175.3,290.3,163.6,289.5z"/>
<linearGradient id="SVGID_3_" gradientUnits="userSpaceOnUse" x1="212.6171" y1="264.0426" x2="373.8652" y2="264.0426">
	<stop  offset="0" style="stop-color:#FFFFFF;stop-opacity:0.7"/>
	<stop  offset="0.8239" style="stop-color:#FFFFFF;stop-opacity:0.7854"/>
	<stop  offset="0.9651" style="stop-color:#FFFFFF;stop-opacity:0.8"/>
</linearGradient>
<path class="st11" d="M339.3,224.2c-16.8,0-30.8,16-33.9,37.1c-1.2-0.2-2.4-0.3-3.7-0.3c-11,0-20.5,6.9-24.1,16.7
	c-1.8-0.4-3.6-0.6-5.5-0.6c-7.5,0-14.2,3.1-18.5,7.8c-2.2-2-5.1-3.2-8.4-3.2c-5.5,0-10.3,3.6-11.9,8.6c-11.9,1.6-20.7,7-20.7,13.5
	h150c1.1-1.4,2.2-2.9,3.2-4.4c5-8,8-18.2,8-29.4C373.9,244.7,358.4,224.2,339.3,224.2z"/>
</svg>
