<?xml version="1.0" encoding="utf-8"?>
<!-- Generator: Adobe Illustrator 24.3.0, SVG Export Plug-In . SVG Version: 6.00 Build 0)  -->
<svg version="1.1" id="圖層_2" xmlns="http://www.w3.org/2000/svg" xmlns:xlink="http://www.w3.org/1999/xlink" x="0px" y="0px"
	 viewBox="0 0 509.2 332.8" style="enable-background:new 0 0 509.2 332.8;" xml:space="preserve">
<style type="text/css">
	.st0{opacity:0.73;fill:#D3D3D3;}
	.st1{fill:url(#SVGID_1_);}
	.st2{clip-path:url(#XMLID_2_);fill:#F9D069;}
	.st3{clip-path:url(#XMLID_3_);fill:#D3A64C;}
	.st4{clip-path:url(#XMLID_3_);fill:#FCD98B;}
	.st5{clip-path:url(#XMLID_4_);fill:#F9D069;}
	.st6{fill:#F7E7D6;}
	.st7{fill:#FFFFFF;}
	.st8{fill:#3D3939;}
	.st9{clip-path:url(#XMLID_6_);fill:#F9D069;}
	.st10{opacity:0.83;fill:url(#SVGID_2_);}
	.st11{fill:url(#SVGID_3_);}
</style>
<path class="st0" d="M272.7,271.8L272.7,271.8c1.8-7.5,2.8-15.7,2.8-24.3c0-36-17.4-65.1-38.8-65.1c-16.1,0-29.8,16.4-35.7,39.8
	c-2.9-1-5.9-1.5-9.1-1.5c-4.3,0-8.4,1-12.2,2.7c-4.3-34.1-23.2-59.8-45.8-59.8c-21.9,0-40.3,24.1-45.3,56.5
	c-16.2,3-28.6,21.1-28.6,43c0,3.2,0.3,6.3,0.8,9.3l-0.8-0.1c-41.3-5.5-47.5,34.2-47.5,34.2h81h22h36.9h17.7h43.6h6.7h32.7h43.2
	C296.3,273.2,272.7,271.8,272.7,271.8z"/>
<linearGradient id="SVGID_1_" gradientUnits="userSpaceOnUse" x1="210.131" y1="259.8172" x2="493.8996" y2="259.8172">
	<stop  offset="0" style="stop-color:#FFFFFF;stop-opacity:0.7"/>
	<stop  offset="0.8537" style="stop-color:#FFFFFF;stop-opacity:0.9561"/>
	<stop  offset="1" style="stop-color:#FFFFFF"/>
</linearGradient>
<path class="st1" d="M470.3,284.6L470.3,284.6c1.8-5.1,2.8-10.6,2.8-16.4c0-24.3-17.4-43.9-38.8-43.9c-16.1,0-29.8,11.1-35.7,26.8
	c-2.9-0.6-5.9-1-9.1-1c-4.3,0-8.4,0.6-12.2,1.8c-4.3-23-23.2-40.3-45.8-40.3c-21.9,0-40.3,16.2-45.3,38.1c-16.2,2-28.6,14.3-28.6,29
	c0,2.2,0.3,4.3,0.8,6.3l-0.8-0.1c-41.3-3.7-47.5,23.1-47.5,23.1h81h22h36.9h17.7h43.6h6.7h32.7h43.2
	C493.9,285.5,470.3,284.6,470.3,284.6z"/>
<g>
	<defs>
		<path id="XMLID_14_" d="M272.7,183.7c0,0,37.9,8.9,54.3-23.5s36.8,17.5,25,46.5s-45.5,46.8-81.8,8.3S272.7,183.7,272.7,183.7z"/>
	</defs>
	<use xlink:href="#XMLID_14_"  style="overflow:visible;fill:#FCEBB9;"/>
	<clipPath id="XMLID_2_">
		<use xlink:href="#XMLID_14_"  style="overflow:visible;"/>
	</clipPath>
	<path class="st2" d="M330.4,149.4c0,0,17.7,9.7,12.3,44s-37.5,48.3-37.5,48.3h32.1L358,215l3.8-31.3l-6.2-32l-9.9-9.9L330.4,149.4z
		"/>
</g>
<g>
	<defs>
		<path id="XMLID_13_" d="M249.8,11.8c-7.5-4.4-19.1-4-19.1-4s-11.6-0.4-19.1,4s1,31.1,1,31.1l18.1,3l18.1-3
			C248.9,42.8,257.3,16.2,249.8,11.8z"/>
	</defs>
	<use xlink:href="#XMLID_13_"  style="overflow:visible;fill:#FCD98B;"/>
	<clipPath id="XMLID_3_">
		<use xlink:href="#XMLID_13_"  style="overflow:visible;"/>
	</clipPath>
	<path class="st3" d="M205.2,6.5c0,0,13.4,6.3,7.5,36.3c-5.9,30,0,0,0,0l1.9,1.9l1.3-1.3C215.8,43.4,220.1,8.9,205.2,6.5z"/>
	<path class="st3" d="M256.3,6.5c0,0-13.4,6.3-7.5,36.3c5.9,30,0,0,0,0l-1.9,1.9l-1.3-1.3C245.7,43.4,241.4,8.9,256.3,6.5z"/>
	<circle class="st3" cx="222.7" cy="34.4" r="1.1"/>
	<circle class="st3" cx="218.2" cy="41.5" r="0.7"/>
	<circle class="st3" cx="243.5" cy="41.5" r="0.7"/>
	<circle class="st3" cx="218.7" cy="12.4" r="0.6"/>
	<circle class="st3" cx="243.1" cy="12.4" r="0.6"/>
	<circle class="st3" cx="239.3" cy="34.4" r="1.1"/>
	<path class="st3" d="M221.7,47.5"/>
	<path class="st3" d="M216,29.7c0,0,0.6-9.4,6.4-10.9c5.8-1.5,8.4,2.9,8.4,5.8s-4.9,6.5-8.1,2.5c-1.3-1.8-0.3-4.9,3.3-3.9
		c0,0-2,0.3-1.3,1.9s3.1,1.4,3.5-0.2c0.4-1.6-0.7-4.4-3.8-4.1c-3.1,0.3-6.3,3.4-8,11.9s0,0,0,0l-0.7-1.9L216,29.7z"/>
	<path class="st3" d="M214.7,48.3c0,0,8.2,4.7,12.7,0.7c4.5-4,2.3-8.7-0.1-10.2c-2.3-1.6-8.1,0.4-6.6,5.3c0.7,2.1,3.9,3,5.1-0.6
		c0,0-1.4,1.4-2.3,0.1c-0.9-1.4,0.6-3.4,2.2-2.8c1.6,0.5,3.2,3,1.2,5.4c-2,2.4-6.3,3.3-14.4,0s0,0,0,0l1.1,1.6L214.7,48.3z"/>
	<path class="st3" d="M247.1,48.3c0,0-8.2,4.7-12.7,0.7c-4.5-4-2.3-8.7,0.1-10.2c2.3-1.6,8.1,0.4,6.6,5.3c-0.7,2.1-3.9,3-5.1-0.6
		c0,0,1.4,1.4,2.3,0.1c0.9-1.4-0.6-3.4-2.2-2.8c-1.6,0.5-3.2,3-1.2,5.4c2,2.4,6.3,3.3,14.4,0s0,0,0,0l-1.1,1.6L247.1,48.3z"/>
	<path class="st3" d="M245.8,29.7c0,0-0.6-9.4-6.4-10.9c-5.8-1.5-8.4,2.9-8.4,5.8s4.9,6.5,8.1,2.5c1.3-1.8,0.3-4.9-3.3-3.9
		c0,0,2,0.3,1.3,1.9s-3.1,1.4-3.5-0.2c-0.4-1.6,0.7-4.4,3.8-4.1c3.1,0.3,6.3,3.4,8,11.9s0,0,0,0l0.7-1.9L245.8,29.7z"/>
	<path class="st3" d="M230.9,45.8c0,0-0.8,1.2-0.9-0.1c-0.2-3-0.2-10.5-3-13.1c-3.9-3.6-7.1-0.8-6.6,2c0.4,2,2.3,2.4,3.3,1.4
		c0,0,1,2.7-2.2,3.2c-3.2,0.4-5.4-2.7-5.4-4.8c0-2.2,0.7-7.1,7.3-6.2C229.9,29.1,230.9,36.3,230.9,45.8z"/>
	<path class="st3" d="M230.9,45.8c0,0,0.8,1.2,0.9-0.1c0.2-3,0.2-10.5,3-13.1c3.9-3.6,7.3-1,6.9,1.8c-0.3,1.9-2.6,2.7-3.6,1.7
		c0,0-1,2.7,2.2,3.2c3.2,0.4,5.4-2.7,5.4-4.8c0-2.2-0.7-7.1-7.3-6.2C232,29.1,230.9,36.3,230.9,45.8z"/>
	<path class="st4" d="M492.5,11.8c-7.5-4.4-19.1-4-19.1-4s-11.6-0.4-19.1,4s1,31.1,1,31.1l18.1,3l18.1-3
		C491.5,42.8,499.9,16.2,492.5,11.8z"/>
	<polygon class="st3" points="230.9,28 229,29.4 230.9,33.6 232.7,29.5 	"/>
	<path class="st3" d="M230.9,20.9c0,0-1.7-2.1-5.8-2.4c-3.2-0.3-4.4,0.7-7.4,0.1c-2.9-0.6-4.9-2.8-3.9-6.8s7.2-4.3,8.4-1.1
		c0.9,2.2,0,4-1.2,4.7c-1.2,0.8-4.7,0.6-4.5-2.2c0,0,1.2,2,3.2,1.2s1.2-4.6-2.1-3.9c-3.4,0.6-3.1,6.1,0.3,6.7
		c1.5,0.4,3.9-0.3,4.5-0.3C223.1,16.7,228.5,15.8,230.9,20.9z"/>
	<path class="st3" d="M230.9,20.9c0,0,1.7-2.1,5.8-2.4c3.2-0.3,4.4,0.7,7.4,0.1c2.9-0.6,4.9-2.8,3.9-6.8s-7.2-4.3-8.4-1.1
		c-0.9,2.2,0,4,1.2,4.7c1.2,0.8,4.7,0.6,4.5-2.2c0,0-1.2,2-3.2,1.2c-2-0.8-1.2-4.6,2.1-3.9c3.4,0.6,3.1,6.1-0.3,6.7
		c-1.5,0.4-3.9-0.3-4.5-0.3C238.8,16.7,233.4,15.8,230.9,20.9z"/>
	<path class="st3" d="M229,6.1c0,0-2-2.1-1.1,1c0.2,0.6-2.6,0.7-4.5,3.8c-0.4,0.7-0.7,2-0.6,2.9c0.2,1.4,0.9,3.1,3.8,3.3
		c2.9,0.2,4.4-1.7,4.3-3.9c-0.2-4.5-6-3.7-5,0c0,0,1.2-2.3,2.9-0.9c1.2,1,0.1,3.6-2.8,3.1c-2-0.4-2.1-2-1.6-3.3
		c0.5-1.3,1.4-2.1,2.6-3.1C228.6,7.7,230.6,6.8,229,6.1z"/>
	<path class="st3" d="M232.8,6.1c0,0,2-2.1,1.1,1c-0.2,0.6,2.6,0.7,4.5,3.8c0.4,0.7,0.7,2,0.6,2.9c-0.2,1.4-0.9,3.1-3.8,3.3
		c-2.9,0.2-4.4-1.7-4.3-3.9c0.2-4.5,6-3.7,5,0c0,0-1.2-2.3-2.9-0.9c-1.2,1-0.1,3.6,2.8,3.1c2-0.4,2.1-2,1.6-3.3
		c-0.5-1.3-1.4-2.1-2.6-3.1C233.2,7.7,231.3,6.8,232.8,6.1z"/>
	<path class="st3" d="M216,19c0,0,0.6,2.3,0.5,3.7c0,0,0.8-2.3,2.1-2.7C218.6,20,216.9,19.9,216,19z"/>
	<path class="st3" d="M245.6,19c0,0-0.7,2.2-0.7,3.6c0,0-0.7-2.3-2-2.8C242.9,19.8,244.6,19.8,245.6,19z"/>
</g>
<g>
	<defs>
		<path id="XMLID_12_" d="M187.7,183.7c0,0-21.6,93.7-11.9,122.7h105.1c0,0,8.8-43.6-6.7-122.4L187.7,183.7z"/>
	</defs>
	<use xlink:href="#XMLID_12_"  style="overflow:visible;fill:#FCEBB9;"/>
	<clipPath id="XMLID_4_">
		<use xlink:href="#XMLID_12_"  style="overflow:visible;"/>
	</clipPath>
	<path class="st5" d="M164.9,290.9c0,0,39.7,6.9,66.1,6.9s62.4-6.9,62.4-6.9l-3.8,19.9H164.8L164.9,290.9z"/>
	<path class="st5" d="M176.8,242.8h105.5c0,0,0.5,6.7,0.5,7.7h-107C175.8,250.5,176.4,245.6,176.8,242.8z"/>
</g>
<g>
	<path class="st6" d="M164.8,165.2C164.9,165.1,164.9,165.1,164.8,165.2L164.8,165.2z"/>
	<path class="st6" d="M164.8,166.2c0,0,0-0.1,0-0.2C164.8,166,164.8,166.1,164.8,166.2z"/>
	<path class="st6" d="M164.8,165.9c0-0.3,0-0.6,0.1-0.7C164.8,165.4,164.8,165.7,164.8,165.9z"/>
	<path class="st6" d="M155.5,133.6c0,0-12.2-9-13.6,5.7c-0.5,5.8,1.2,10.2,3.9,13.4l0,0c0,0,6.4,8.4,7.3,11.5c1,3.9,3.3,7.3,7.1,7.1
		c3.6-0.2,4.4-2.8,4.6-5.1l-3.9-8.8C165.4,153.5,155.5,133.6,155.5,133.6z"/>
</g>
<g>
	<path class="st6" d="M296.9,165.2C296.9,165.1,296.9,165.1,296.9,165.2L296.9,165.2z"/>
	<path class="st6" d="M297,166.2c0,0,0-0.1,0-0.2C297,166,297,166.1,297,166.2z"/>
	<path class="st6" d="M297,165.9c0-0.3,0-0.6-0.1-0.7C296.9,165.4,297,165.7,297,165.9z"/>
	<path class="st6" d="M306.3,133.6c0,0,12.2-9,13.6,5.7c0.5,5.8-1.2,10.2-3.9,13.4l0,0c0,0-6.4,8.4-7.3,11.5c-1,3.9-3.3,7.3-7.1,7.1
		c-3.6-0.2-4.4-2.8-4.6-5.1l3.9-8.8C296.4,153.5,306.3,133.6,306.3,133.6z"/>
</g>
<g>
	<defs>
		<path id="XMLID_10_" d="M308.3,129.5c3.1,41.2-33.4,61.7-77.6,61.7c-44.6,0-77.7-19.6-77.7-61.7c0-36,34.8-65.2,77.6-65.2
			C273.5,64.3,305.6,93.6,308.3,129.5"/>
	</defs>
	<use xlink:href="#XMLID_10_"  style="overflow:visible;fill:#F7E7D6;"/>
	<clipPath id="XMLID_5_">
		<use xlink:href="#XMLID_10_"  style="overflow:visible;"/>
	</clipPath>
</g>
<path class="st7" d="M318.5,97.3c-5.7-20.4-37.3-60-87.7-54.3c-50.4-5.7-82,33.9-87.7,54.3c-5.7,20.4,10,35.3,10,35.3
	c2.3-19.8,12.7-43.1,29.9-38.8c17.2,4.3,47.8,4.6,47.8,4.6s30.6-0.3,47.8-4.6c17.2-4.3,27.7,19,29.9,38.8
	C308.5,132.6,324.2,117.7,318.5,97.3z"/>
<path class="st7" d="M263.2,155.8c-11.5-13-32.3-11.1-32.3-11.1s-20.8-1.9-32.3,11.1c-11.5,13-22.6,65.9,0,98.8
	c22.6,32.9,32.3,36.4,32.3,36.4s9.7-3.4,32.3-36.4C285.8,221.6,274.7,168.8,263.2,155.8z"/>
<path class="st7" d="M172.7,137.3c5.4-4.2,19.7-6.7,26.6-4.2c6.9,2.5,6.7,10.9-1.7,10.9c-8.4,0-19.2,3-23.4,9.2
	c-2.8,4.3-14.6,22-3.1,45c0,0-20.3-10.3-11.7-42.9C163.3,143,172.7,137.3,172.7,137.3z"/>
<path class="st7" d="M288.3,137.3c-5.4-4.2-19.7-6.7-26.6-4.2s-6.7,10.9,1.7,10.9c8.4,0,19.2,3,23.4,9.2c2.8,4.3,14.6,22,3.1,45
	c0,0,20.3-10.3,11.7-42.9C297.6,143,288.3,137.3,288.3,137.3z"/>
<g>
	<g>
		<path class="st8" d="M190,147.8c2.4-0.1,4.8,0,7.2,0.1c0.5,0,0.5-0.7,0-0.7c-2.4-0.2-4.8-0.2-7.2-0.1
			C189.5,147.1,189.5,147.8,190,147.8L190,147.8z"/>
	</g>
</g>
<g>
	<g>
		<path class="st8" d="M264.8,147.6c2.3-0.3,4.6-0.4,6.9-0.2c0.5,0,0.5-0.7,0-0.7c-2.3-0.1-4.6,0-6.9,0.2
			C264.4,146.9,264.4,147.6,264.8,147.6L264.8,147.6z"/>
	</g>
</g>
<g>
	<g>
		<path class="st8" d="M196.5,150.4c-1.9,1.3-4.5,1.3-6.4,0c-0.4-0.3-0.7,0.4-0.4,0.6c2.1,1.4,5,1.4,7.1,0
			C197.2,150.8,196.9,150.1,196.5,150.4L196.5,150.4z"/>
	</g>
</g>
<g>
	<g>
		<path class="st8" d="M265.2,150.4c1.3,0.7,2.8,1.2,4.2,1.1c1.3-0.1,2.5-0.8,3.2-1.8c0.3-0.4-0.4-0.7-0.6-0.4
			c-0.6,0.9-1.7,1.4-2.8,1.5c-1.3,0.1-2.6-0.4-3.7-1C265.1,149.5,264.8,150.1,265.2,150.4L265.2,150.4z"/>
	</g>
</g>
<g>
	<defs>
		<path id="XMLID_9_" d="M187.7,183.7c0,0-26.6,9.2-30.3,43.3c-3.7,34.1,20.1,56.7,36,55.5s43.3-65.6,4.7-58.1
			c0,0-10.5,2.7-11.7-5.1c-0.4-2.9-0.6-8.3-0.7-13.5C185.4,200,186.2,192,187.7,183.7z"/>
	</defs>
	<use xlink:href="#XMLID_9_"  style="overflow:visible;fill:#FCEBB9;"/>
	<clipPath id="XMLID_6_">
		<use xlink:href="#XMLID_9_"  style="overflow:visible;"/>
	</clipPath>
	<path class="st9" d="M204.2,223.9c0,0,7.1,21.1-7.1,39.7c-14.1,18.6-25.1,15.5-25.1,15.5l19.5,10.3l23.6-20.5l8-27.2l-2.3-17.6
		L204.2,223.9"/>
</g>
<linearGradient id="SVGID_2_" gradientUnits="userSpaceOnUse" x1="98.6344" y1="284.0788" x2="198.0048" y2="284.0788">
	<stop  offset="0.1644" style="stop-color:#FFFFFF;stop-opacity:0.7"/>
	<stop  offset="0.8777" style="stop-color:#FFFFFF;stop-opacity:0.1024"/>
	<stop  offset="1" style="stop-color:#FFFFFF;stop-opacity:0"/>
</linearGradient>
<path class="st10" d="M188.6,296.6c0.3-1.3,0.4-2.7,0.4-4.1c0-11-8.2-20.2-18.9-21.6c-5.3-8.3-14.5-13.8-25.1-13.8
	c-9.2,0-17.4,4.2-22.8,10.8c-5-5.4-12.2-8.7-20.1-8.7c-15.2,0-27.6,12.4-27.6,27.6c0,10.5,5.9,19.6,14.5,24.3l0,0h0h26.2h12.9h27.5
	h6.4h16.7h3c15.1,0,27.3-3.3,27.3-7.3C209,300.3,200.3,297.5,188.6,296.6z"/>
<linearGradient id="SVGID_3_" gradientUnits="userSpaceOnUse" x1="189.2126" y1="276.3081" x2="350.4608" y2="276.3081">
	<stop  offset="0" style="stop-color:#FFFFFF;stop-opacity:0.7"/>
	<stop  offset="0.6829" style="stop-color:#FFFFFF;stop-opacity:0.1024"/>
	<stop  offset="0.8" style="stop-color:#FFFFFF;stop-opacity:0"/>
</linearGradient>
<path class="st11" d="M315.9,236.5c-16.8,0-30.8,16-33.9,37.1c-1.2-0.2-2.4-0.3-3.7-0.3c-11,0-20.5,6.9-24.1,16.7
	c-1.8-0.4-3.6-0.6-5.5-0.6c-7.5,0-14.2,3.1-18.5,7.8c-2.2-2-5.1-3.2-8.4-3.2c-5.5,0-10.3,3.6-11.9,8.6c-11.9,1.6-20.7,7-20.7,13.5
	h150c1.1-1.4,2.2-2.9,3.2-4.4c5-8,8-18.2,8-29.4C350.5,257,335,236.5,315.9,236.5z"/>
</svg>
