<?xml version="1.0" encoding="utf-8"?>
<!-- Generator: Adobe Illustrator 24.3.0, SVG Export Plug-In . SVG Version: 6.00 Build 0)  -->
<svg version="1.1" id="圖層_5" xmlns="http://www.w3.org/2000/svg" xmlns:xlink="http://www.w3.org/1999/xlink" x="0px" y="0px"
	 viewBox="0 0 311.6 314.8" style="enable-background:new 0 0 311.6 314.8;" xml:space="preserve">
<style type="text/css">
	.st0{clip-path:url(#XMLID_2_);fill:url(#SVGID_1_);}
	.st1{clip-path:url(#XMLID_2_);fill:url(#SVGID_2_);}
	.st2{clip-path:url(#XMLID_2_);}
	.st3{clip-path:url(#XMLID_2_);fill:url(#XMLID_5_);}
	.st4{clip-path:url(#XMLID_2_);fill:url(#SVGID_3_);}
	.st5{clip-path:url(#XMLID_2_);fill:url(#SVGID_4_);}
	.st6{fill:url(#SVGID_5_);}
	.st7{fill:#753D17;}
	.st8{fill:#F7E7D6;}
	.st9{clip-path:url(#SVGID_7_);fill:#E0B190;}
	.st10{clip-path:url(#SVGID_7_);fill:#D88A4B;}
	.st11{clip-path:url(#SVGID_7_);}
	.st12{clip-path:url(#SVGID_7_);fill:#E5D5C5;}
	.st13{clip-path:url(#SVGID_7_);fill:#E0A469;}
	.st14{clip-path:url(#SVGID_7_);fill:#544B47;}
	.st15{clip-path:url(#SVGID_7_);fill:#CB783C;}
	.st16{clip-path:url(#SVGID_7_);fill:#383532;}
	.st17{clip-path:url(#SVGID_7_);fill:#D0BFAD;}
	.st18{clip-path:url(#SVGID_7_);fill:#FFFFFF;}
	.st19{clip-path:url(#SVGID_7_);fill:#24211F;}
	.st20{clip-path:url(#SVGID_7_);fill:#263C5B;}
	.st21{clip-path:url(#SVGID_7_);fill:#5F554E;}
	.st22{clip-path:url(#SVGID_7_);fill:#A45E29;}
	.st23{clip-path:url(#SVGID_7_);fill:#B65E43;}
	.st24{fill:#FFFFFF;}
	.st25{fill:#2B2B2B;}
</style>
<g>
	<g>
		<defs>
			<path id="XMLID_134_" d="M279.3,158.2c4.2-6.6,6.6-14.5,6.6-23c0-21.4-15.6-39.1-36-42.5c-6-19.9-24.5-34.3-46.3-34.3
				c-1.3,0-2.5,0.1-3.8,0.2c-10.6-12.2-26.3-19.9-43.7-19.9c-19.7,0-37,9.8-47.5,24.8c-32.3,1.9-58,28.7-58,61.5
				c0,4.9,0.6,9.6,1.7,14.2c-7,10.3-11.1,22.8-11.1,36.2c0,35.6,28.9,64.5,64.5,64.5c1.9,0,3.7-0.1,5.5-0.2
				c10.7,18,30.4,30.1,52.9,30.1c25,0,46.5-14.9,56.2-36.3c7.7,5.2,16.9,8.3,26.9,8.3c26.4,0,47.9-21.4,47.9-47.9
				C295,179.6,288.9,166.9,279.3,158.2z"/>
		</defs>
		<use xlink:href="#XMLID_134_"  style="overflow:visible;fill:#FFFFFF;"/>
		<clipPath id="XMLID_2_">
			<use xlink:href="#XMLID_134_"  style="overflow:visible;"/>
		</clipPath>
		
			<linearGradient id="SVGID_1_" gradientUnits="userSpaceOnUse" x1="108.0315" y1="137.2274" x2="118.7513" y2="115.1381" gradientTransform="matrix(0.9124 0.4093 -0.4093 0.9124 144.1898 58.5158)">
			<stop  offset="0" style="stop-color:#C96873"/>
			<stop  offset="1" style="stop-color:#E86D64"/>
		</linearGradient>
		<path class="st0" d="M187.7,182.6c0,0,12.5,7.2,17.5,20.5c5.1,13.3,11.7-22.2,21.7-23.7c10-1.6,22.6,12.3,23.9,30
			c1.3,17.7-59.2,62.3-65.8-1L187.7,182.6z"/>
		<linearGradient id="SVGID_2_" gradientUnits="userSpaceOnUse" x1="145.1665" y1="237.6841" x2="127.625" y2="237.1969">
			<stop  offset="0" style="stop-color:#C96873"/>
			<stop  offset="1" style="stop-color:#E86D64"/>
		</linearGradient>
		<path class="st1" d="M141.4,195.1c0,0-28.6,10.7-24,55.5c4.5,44.8,32.5,24.7,32.5,24.7L141.4,195.1z"/>
		<g class="st2">
			<defs>
				<path id="XMLID_136_" d="M139.7,195.8c0,0,2,34.3,3.3,39.8s3.1,17.8,35.4,11.7s26.2-22.6,26.2-22.6s-3.3-19.8-11-39.2
					L139.7,195.8z"/>
			</defs>
			
				<linearGradient id="XMLID_3_" gradientUnits="userSpaceOnUse" x1="231.9463" y1="367.1943" x2="230.3221" y2="426.6407" gradientTransform="matrix(0.8865 -0.4628 0.4628 0.8865 -214.2051 -21.0316)">
				<stop  offset="0" style="stop-color:#FFD6BB"/>
				<stop  offset="1" style="stop-color:#F7E7D6"/>
			</linearGradient>
			<use xlink:href="#XMLID_136_"  style="overflow:visible;fill:url(#XMLID_3_);"/>
			<clipPath id="XMLID_4_">
				<use xlink:href="#XMLID_136_"  style="overflow:visible;"/>
			</clipPath>
		</g>
		<linearGradient id="XMLID_5_" gradientUnits="userSpaceOnUse" x1="176.7244" y1="268.9729" x2="172.8518" y2="200.2341">
			<stop  offset="0" style="stop-color:#C96873"/>
			<stop  offset="1" style="stop-color:#E86D64"/>
		</linearGradient>
		<path id="XMLID_135_" class="st3" d="M140.5,208.8c0,0,17.2-5.5,29.6-3.6c0,0,16-9,28.1-6.9c0,0,9.2,51.1,10.9,61.6
			c1.8,10.5-60.3,16.3-60.3,16.3S141.2,233.8,140.5,208.8z"/>
		<linearGradient id="SVGID_3_" gradientUnits="userSpaceOnUse" x1="104.0797" y1="253.7917" x2="205.9182" y2="221.6322">
			<stop  offset="0" style="stop-color:#CC6573"/>
			<stop  offset="0.1528" style="stop-color:#D26A74"/>
			<stop  offset="0.3492" style="stop-color:#E27977"/>
			<stop  offset="0.4772" style="stop-color:#F0867A"/>
		</linearGradient>
		<path class="st4" d="M150.9,193.7c0,0,2.5,54.2,15.8,75.8s0,0,0,0l-7.4,6.7l-23.8-6.7c0,0-6-44.2,3.2-73.7L150.9,193.7z"/>
		<linearGradient id="SVGID_4_" gradientUnits="userSpaceOnUse" x1="269.9399" y1="240.829" x2="90.6261" y2="218.902">
			<stop  offset="0" style="stop-color:#CC6573"/>
			<stop  offset="0.1528" style="stop-color:#D26A74"/>
			<stop  offset="0.3492" style="stop-color:#E27977"/>
			<stop  offset="0.4772" style="stop-color:#F0867A"/>
		</linearGradient>
		<path class="st5" d="M180.5,188c0,0,17.3,29,17.7,71.3c0.4,42.3,0,0,0,0l2.1,7.2l10.2-9.3l5.4-8.3c0,0-2.9-32.6-22.3-63.5
			L180.5,188z"/>
	</g>
	
		<linearGradient id="SVGID_5_" gradientUnits="userSpaceOnUse" x1="120.0016" y1="141.2166" x2="120.0016" y2="141.2166" gradientTransform="matrix(0.9854 0.1703 -0.1703 0.9854 52.5529 31.9755)">
		<stop  offset="0" style="stop-color:#C96873"/>
		<stop  offset="1" style="stop-color:#E86D64"/>
	</linearGradient>
	<path class="st6" d="M146.8,191.6"/>
	<path class="st7" d="M258.3,179.8c-2-1.3-4.5-1.5-6.9-1.7c-4.7-0.3-8.5-0.5-13.3-0.8l-1,2.1c-1.7,0.8-4.9-1.2-4.9-1.2
		s-2.3-1.2-2.5-1.9c-0.2-0.7-0.1-1.5-0.1-1.5c-9.2-3.2-16.3-4.6-25.7-6.9c-18-4.3-36.1-8.6-54.1-12.9c-14.7-3.5-29.4-7-44.3-9.5
		c-8-1.4-16.1-2.4-24.1-1.1c-4.2,0.7-8.6,2.2-11.5,5.3c-4.1,4.4-5.6,11.6-3.8,17.4c2,6.6,7.7,9.5,13.3,11.8
		c5.6,2.3,13.5,2.7,19.5,3.2c43.1,3.8,78,5.2,121.8,2.4c0,0,1.4-2.6,3.6-3.4c3-1,7.1,0.7,7.1,0.7c3.1-0.2,3.7,1.9,3.7,1.9
		c6.9,1.1,12.5,2.7,19.3,3.8c2,0.3,4.4-0.1,5.6-1.7C261.4,184.1,260.3,181.1,258.3,179.8z"/>
	<g>
		<path class="st8" d="M232.6,184.1c-0.9-0.1-1.8-0.5-2.6-1.1s-1.2-1.6-0.7-2.4c0.5-0.9,1.8-1,2.8-0.8c0.8,0.2,1.6,0.6,2.2,1.2
			c0.5,0.4,0.9,1,1,1.6c0,0.6-0.3,1.3-0.9,1.5C233.7,184.3,233.2,184.2,232.6,184.1"/>
	</g>
	<g>
		<path class="st8" d="M234.2,173c-1.5-0.5-2.2-0.6-3.2,0c-1,0.6-1.6,1.1-1.8,2.2c-0.1,0.5,0.1,0.9,0.2,1.1c0.1,0.2,0.3,0.4,0.4,0.5
			c1.5,1.3,3.2,2.2,5.1,2.7c0.6,0.2,1.2,0.3,1.8,0.2s1.2-0.3,1.6-0.8c0.3-0.5,0.4-1,0.3-1.6c-0.2-1.2-0.9-2.2-1.9-2.9
			c-1-0.7-1.6-1.2-2.7-1.5"/>
	</g>
	<g>
		<g>
			<path class="st8" d="M89.8,143c0.3,1.1,0.6,2.2,0.9,3.3c0.1,0.3,0.4,0.5,0.8,0.4c0.3-0.1,0.5-0.4,0.4-0.8
				c-0.3-1.1-0.6-2.2-0.9-3.3c-0.1-0.3-0.4-0.5-0.8-0.4C89.9,142.3,89.7,142.7,89.8,143L89.8,143z"/>
		</g>
	</g>
	<g>
		<g>
			<path class="st8" d="M75.7,144.3c0.8,1.1,1.5,2.1,2.3,3.2c0.2,0.3,0.5,0.4,0.8,0.2c0.3-0.2,0.4-0.6,0.2-0.8
				c-0.8-1.1-1.5-2.1-2.3-3.2c-0.2-0.3-0.5-0.4-0.8-0.2C75.6,143.6,75.5,144,75.7,144.3L75.7,144.3z"/>
		</g>
	</g>
	<g>
		<g>
			<path class="st8" d="M62,157.8c1.4,0,2.8,0.1,4.3,0.1c0.3,0,0.6-0.3,0.6-0.6c0-0.3-0.3-0.6-0.6-0.6c-1.4,0-2.8-0.1-4.3-0.1
				c-0.3,0-0.6,0.3-0.6,0.6C61.4,157.6,61.7,157.8,62,157.8L62,157.8z"/>
		</g>
	</g>
	<g>
		<g>
			<path class="st8" d="M71.5,165.2c1.3-0.3,2.5-0.6,3.8-1c0.3-0.1,0.5-0.4,0.4-0.8c-0.1-0.3-0.4-0.5-0.8-0.4
				c-1.3,0.3-2.5,0.6-3.8,1c-0.3,0.1-0.5,0.4-0.4,0.8C70.8,165.1,71.1,165.3,71.5,165.2L71.5,165.2z"/>
		</g>
	</g>
	<g>
		<g>
			<path class="st8" d="M69.6,148.7c0.9,1,1.7,2.1,2.6,3.1c0.2,0.2,0.7,0.2,0.9,0c0.2-0.3,0.2-0.6,0-0.9c-0.9-1-1.7-2.1-2.6-3.1
				c-0.2-0.2-0.7-0.2-0.9,0C69.3,148.1,69.3,148.4,69.6,148.7L69.6,148.7z"/>
		</g>
	</g>
	<g>
		<g>
			<path class="st8" d="M70.9,177.7c1.2-0.8,2.5-1.7,3.7-2.5c0.3-0.2,0.4-0.6,0.2-0.8c-0.2-0.3-0.6-0.4-0.8-0.2
				c-1.2,0.8-2.5,1.7-3.7,2.5c-0.3,0.2-0.4,0.6-0.2,0.8C70.3,177.7,70.6,177.9,70.9,177.7L70.9,177.7z"/>
		</g>
	</g>
	<g>
		<g>
			<path class="st8" d="M63.4,167.8c1.2-0.3,2.4-0.6,3.6-0.9c0.3-0.1,0.5-0.4,0.4-0.8c-0.1-0.3-0.4-0.5-0.8-0.4
				c-1.2,0.3-2.4,0.6-3.6,0.9c-0.3,0.1-0.5,0.4-0.4,0.8C62.8,167.7,63.1,167.8,63.4,167.8L63.4,167.8z"/>
		</g>
	</g>
	<g>
		<g>
			<path class="st8" d="M78.3,155.8c0.9,1.3,1.8,2.5,2.6,3.8c0.2,0.3,0.5,0.4,0.8,0.2c0.3-0.2,0.4-0.6,0.2-0.8
				c-0.9-1.3-1.8-2.5-2.6-3.8c-0.2-0.3-0.5-0.4-0.8-0.2C78.2,155.1,78.1,155.5,78.3,155.8L78.3,155.8z"/>
		</g>
	</g>
	<g>
		<g>
			<path class="st8" d="M87.1,147.5c0.2,0.9,0.4,1.7,0.6,2.6c0.1,0.3,0.5,0.5,0.8,0.4c0.3-0.1,0.5-0.4,0.4-0.8
				c-0.2-0.9-0.4-1.7-0.6-2.6c-0.1-0.3-0.5-0.5-0.8-0.4C87.2,146.8,87,147.1,87.1,147.5L87.1,147.5z"/>
		</g>
	</g>
	<g>
		<g>
			<path class="st8" d="M85.6,166.5c1.3-0.5,2.7-1,3.9-1.7c0.3-0.2,0.4-0.6,0.2-0.8c-0.2-0.3-0.5-0.4-0.8-0.2
				c-1.2,0.7-2.3,1.2-3.6,1.6c-0.3,0.1-0.5,0.4-0.4,0.8C84.9,166.3,85.3,166.6,85.6,166.5L85.6,166.5z"/>
		</g>
	</g>
	<g>
		<g>
			<path class="st8" d="M93.5,155.2c0.2,0.9,0.4,1.7,0.6,2.6c0.1,0.3,0.5,0.5,0.8,0.4c0.3-0.1,0.5-0.4,0.4-0.8
				c-0.2-0.9-0.4-1.7-0.6-2.6c-0.1-0.3-0.5-0.5-0.8-0.4C93.6,154.5,93.4,154.8,93.5,155.2L93.5,155.2z"/>
		</g>
	</g>
	<g>
		<g>
			<path class="st8" d="M87.4,179.1c1.3-1.3,2.6-2.5,3.9-3.8c0.2-0.2,0.2-0.6,0-0.9c-0.3-0.2-0.6-0.2-0.9,0
				c-1.3,1.3-2.6,2.5-3.9,3.8c-0.2,0.2-0.2,0.6,0,0.9C86.8,179.3,87.2,179.3,87.4,179.1L87.4,179.1z"/>
		</g>
	</g>
	<g>
		<g>
			<path class="st8" d="M81,173c0.4-0.3,0.9-0.6,1.3-0.9c0.1-0.1,0.2-0.2,0.3-0.4c0-0.1,0-0.3-0.1-0.5c-0.1-0.1-0.2-0.2-0.4-0.3
				c-0.2,0-0.3,0-0.5,0.1c-0.4,0.3-0.9,0.6-1.3,0.9c-0.1,0.1-0.2,0.2-0.3,0.4c0,0.1,0,0.3,0.1,0.5c0.1,0.1,0.2,0.2,0.4,0.3
				C80.7,173.1,80.8,173.1,81,173L81,173z"/>
		</g>
	</g>
	<g>
		<g>
			<path class="st8" d="M97.6,165.6c0.8,0,0.8-1.2,0-1.2C96.8,164.4,96.8,165.6,97.6,165.6L97.6,165.6z"/>
		</g>
	</g>
	<g>
		<g>
			<path class="st8" d="M98.8,148.3c0.4-0.9,0.8-1.7,1.1-2.6c0.1-0.2,0.1-0.3,0.1-0.5c0-0.1-0.1-0.3-0.3-0.4
				c-0.3-0.1-0.7-0.1-0.8,0.2c-0.4,0.9-0.8,1.7-1.1,2.6c-0.1,0.2-0.1,0.3-0.1,0.5c0,0.1,0.1,0.3,0.3,0.4
				C98.2,148.7,98.6,148.6,98.8,148.3L98.8,148.3z"/>
		</g>
	</g>
	<g>
		<g>
			<path class="st8" d="M96.6,145.6c0.2-1.1,0.4-2.2,0.6-3.4c0.1-0.3-0.1-0.7-0.4-0.8c-0.3-0.1-0.7,0.1-0.8,0.4
				c-0.2,1.1-0.4,2.2-0.6,3.4c-0.1,0.3,0.1,0.7,0.4,0.8C96.2,146.1,96.6,146,96.6,145.6L96.6,145.6z"/>
		</g>
	</g>
	<g>
		<g>
			<path class="st8" d="M98.8,186c0.9-1.6,1.9-3.2,3-4.6c0.2-0.3,0.3-0.6,0-0.9c-0.2-0.2-0.7-0.3-0.9,0c-1.2,1.5-2.3,3.1-3.2,4.9
				c-0.2,0.3-0.1,0.7,0.2,0.8C98.3,186.4,98.7,186.3,98.8,186L98.8,186z"/>
		</g>
	</g>
	<g>
		<g>
			<path class="st8" d="M93.9,182.9c0.6-0.7,1.2-1.4,1.9-2.2c0.1-0.1,0.2-0.3,0.2-0.4c0-0.2-0.1-0.3-0.2-0.4c-0.2-0.2-0.6-0.3-0.9,0
				c-0.6,0.7-1.2,1.4-1.9,2.2c-0.1,0.1-0.2,0.3-0.2,0.4c0,0.2,0.1,0.3,0.2,0.4C93.2,183.1,93.7,183.1,93.9,182.9L93.9,182.9z"/>
		</g>
	</g>
	<g>
		<g>
			<path class="st8" d="M80.7,180.1c0.4-0.3,0.8-0.6,1.2-1c0.1-0.1,0.2-0.3,0.2-0.4c0-0.2-0.1-0.3-0.2-0.4c-0.1-0.1-0.3-0.2-0.4-0.2
				c-0.1,0-0.1,0-0.2,0c-0.1,0-0.2,0.1-0.3,0.2c-0.4,0.3-0.8,0.6-1.2,1c-0.1,0.1-0.2,0.3-0.2,0.4c0,0.2,0.1,0.3,0.2,0.4
				c0.1,0.1,0.3,0.2,0.4,0.2c0.1,0,0.1,0,0.2,0C80.5,180.2,80.6,180.2,80.7,180.1L80.7,180.1z"/>
		</g>
	</g>
	<g>
		<g>
			<path class="st8" d="M96.3,172c0.6,0.1,1.3,0.2,1.9,0.3c0.2,0,0.3,0,0.5-0.1c0.1-0.1,0.2-0.2,0.3-0.4c0.1-0.3-0.1-0.7-0.4-0.8
				c-0.6-0.1-1.3-0.2-1.9-0.3c-0.2,0-0.3,0-0.5,0.1c-0.1,0.1-0.2,0.2-0.3,0.4C95.8,171.6,96,172,96.3,172L96.3,172z"/>
		</g>
	</g>
	<g>
		<g>
			<path class="st8" d="M102.4,176.7c0.3-0.2,0.6-0.4,0.9-0.7c0.1,0,0.1-0.1,0.2-0.2c0.1-0.1,0.1-0.1,0.1-0.2c0-0.1,0-0.2,0-0.2
				c0-0.1,0-0.2-0.1-0.2c-0.1-0.1-0.2-0.2-0.4-0.3c-0.2,0-0.3,0-0.5,0.1c-0.3,0.2-0.6,0.4-0.9,0.7c-0.1,0-0.1,0.1-0.2,0.2
				c-0.1,0.1-0.1,0.1-0.1,0.2c0,0.1,0,0.2,0,0.2c0,0.1,0,0.2,0.1,0.2c0.1,0.1,0.2,0.2,0.4,0.3C102.1,176.8,102.3,176.8,102.4,176.7
				L102.4,176.7z"/>
		</g>
	</g>
	<g>
		<g>
			<path class="st8" d="M108.5,182.5c0,0.5,0,1,0,1.5c0,0.2,0,0.5-0.1,0.7c0,0.1,0,0.1,0,0.2c0-0.1,0,0,0,0.1c0,0.1,0,0.3-0.1,0.4
				c-0.1,0.3,0.1,0.7,0.4,0.8c0.3,0.1,0.7-0.1,0.8-0.4c0.2-1.1,0.3-2.2,0.2-3.3c0-0.3-0.3-0.6-0.6-0.6
				C108.8,181.9,108.5,182.1,108.5,182.5L108.5,182.5z"/>
		</g>
	</g>
	<g>
		<g>
			<path class="st8" d="M100.9,156.4c0.9,0.9,1.9,1.8,2.8,2.7c0.2,0.2,0.6,0.2,0.9,0c0.2-0.2,0.2-0.6,0-0.9
				c-0.9-0.9-1.9-1.8-2.8-2.7c-0.2-0.2-0.6-0.2-0.9,0C100.7,155.7,100.6,156.1,100.9,156.4L100.9,156.4z"/>
		</g>
	</g>
	<g>
		<g>
			<path class="st8" d="M103.2,167.9c1.3-0.3,2.5-0.7,3.8-1c0.3-0.1,0.5-0.4,0.4-0.8c-0.1-0.3-0.4-0.5-0.8-0.4
				c-1.3,0.3-2.5,0.7-3.8,1c-0.3,0.1-0.5,0.4-0.4,0.8C102.5,167.8,102.8,168,103.2,167.9L103.2,167.9z"/>
		</g>
	</g>
	<g>
		<g>
			<path class="st8" d="M109.2,178.4c0.9-0.7,1.8-1.5,2.7-2.2c0.2-0.2,0.2-0.7,0-0.9c-0.3-0.2-0.6-0.2-0.9,0
				c-0.9,0.7-1.8,1.5-2.7,2.2c-0.2,0.2-0.2,0.7,0,0.9C108.6,178.7,108.9,178.7,109.2,178.4L109.2,178.4z"/>
		</g>
	</g>
	<g>
		<g>
			<path class="st8" d="M117.2,183.9c0.3-0.5,0.6-1,0.9-1.5c0.2-0.3,0.1-0.7-0.2-0.8c-0.3-0.2-0.7-0.1-0.8,0.2
				c-0.3,0.5-0.6,1-0.9,1.5c-0.2,0.3-0.1,0.7,0.2,0.8C116.6,184.3,117,184.2,117.2,183.9L117.2,183.9z"/>
		</g>
	</g>
	<g>
		<defs>
			<path id="XMLID_133_" d="M113.7,104.4c10.9,3.9,16.6,15.9,12.7,26.8s-23,21.5-33.9,17.6C81.6,145,75.9,133,79.7,122
				C83.6,111.1,102.8,100.5,113.7,104.4z"/>
		</defs>
		<use xlink:href="#XMLID_133_"  style="overflow:visible;fill:#7A4623;"/>
		<clipPath id="XMLID_6_">
			<use xlink:href="#XMLID_133_"  style="overflow:visible;"/>
		</clipPath>
	</g>
	<g>
		<defs>
			<path id="XMLID_132_" d="M213.8,144c8.8,27.6-12.8,47.5-42.9,54.6c-30.4,7.2-56.2-0.8-63-29.5c-5.8-24.6,13.2-50.1,42.4-57
				C179.5,105.2,206.1,120,213.8,144"/>
		</defs>
		<use xlink:href="#XMLID_132_"  style="overflow:visible;fill:#F7E7D6;"/>
		<clipPath id="XMLID_7_">
			<use xlink:href="#XMLID_132_"  style="overflow:visible;"/>
		</clipPath>
	</g>
	<g>
		<defs>
			<path id="XMLID_48_" d="M220.3,142.3C220.3,142.3,220.2,142.2,220.3,142.3c-0.3-0.9-0.5-1.7-0.7-2.4c-0.2-0.7-0.5-1.4-0.8-2
				c-2.6-8.3-4.8-13.9-4.8-13.9c-6.1-16.3-27.2-32.6-59.5-27.5c-26.7,4.3-33.5,17.3-35.1,21.8c-4.5,1.4-8,3.9-10.7,7.3
				c-6,6.3-11.5,17.4-8.7,36.4c0.6,3.9,1.3,7.3,2.1,10.2c5.5,20.1,15.6,21.4,19.4,21.1l0,0c0.9-0.1,1.4-0.2,1.4-0.2
				s-5.3-11.1-3.7-21.4l0,0c21.4-5.5,37.7-30,37.7-30c2.3,4.5-1.2,9.8-1.2,9.8c11.1-4.5,12-20.3,12-20.3c13.8-7.7,25.3,2.4,25.3,2.4
				s4.9,3.2,9.9,12.2c0.2,0.4,0.4,0.8,0.6,1.2c0,0,7,13.4,8.1,25.1C211.7,172.2,226.4,166.3,220.3,142.3z"/>
		</defs>
		<use xlink:href="#XMLID_48_"  style="overflow:visible;fill:#A05C2D;"/>
		<clipPath id="XMLID_8_">
			<use xlink:href="#XMLID_48_"  style="overflow:visible;"/>
		</clipPath>
	</g>
	<g>
		<defs>
			
				<rect id="SVGID_6_" x="98.3" y="81.8" transform="matrix(0.952 -0.306 0.306 0.952 -36.0727 55.1308)" width="119.2" height="121.6"/>
		</defs>
		<clipPath id="SVGID_7_">
			<use xlink:href="#SVGID_6_"  style="overflow:visible;"/>
		</clipPath>
		<path class="st9" d="M209.8,162.5c-3.4-10.5-24.4-13.2-47-5.9c-22.6,7.3-38.1,21.7-34.7,32.2c2.1,6.6,11.2,10.1,23.2,10
			c2.1,0.6,6.9,2,8.3,2.5c1.9,0.7,0.7-1.8,3.5-2.6c2.8-0.8,3.5,1.7,3.5,1.7s1.4-2.8,3.2-3.5c1.8-0.7,4,2.3,4,2.3l1.3-4.1
			c0.1-0.3,0.5-0.5,0.8-0.3l3.5,2.6c0,0,0.1-3.7,1.9-4.2c1.9-0.5,4.6,1,4.6,1s-0.9-2.4,1.8-3.4c2.8-1,3.2,1.8,4.3,0.1
			c1.1-1.6,5.4-7,5.9-7.6C207.1,176.6,211.8,168.8,209.8,162.5"/>
		<path class="st10" d="M192.3,169.6c-10.2,2-22,6.9-23.5,7.5c-0.1,0-0.2,0.1-0.3,0.1c-1.6,0.4-14,3.2-23.5,7.6
			c-5.8,2.6-7,6.1-6.9,8.5c0,1.4,1.1-0.8,2.6-1.5c0.7-0.3,1.6-0.7,2.7-0.8c1-0.2,1.7,0.2,2.4,0.7c1,0.9,3.7,3.5,4.5,2.3
			c0.5-0.8,1.2-1.5,2.2-2c2.8-1.5,4.9-0.5,6.4,1c1,1,3,0.7,3.9-0.6c0.4-0.6,0.9-1,1.6-1.4c2.4-1.3,6,0.7,8.1,2.2
			c0.9,0.6,2.1,0.2,2.5-0.8c0.9-2.5,2.7-6.2,5.3-6.5c0.8-0.1,1.5,0,2.1,0.2c1.5,0.5,3.3-0.4,3.5-1.8c0.3-2.1,1.5-4.1,4.6-4.6
			c1.1-0.2,2.1,0,2.9,0.3c1.4,0.5,1.7-3,2-4.4c0.2-0.8,0.6-1.6,1.5-2c1-0.5,1.9-0.7,2.7-0.9c1.6-0.3,4.1,0.7,3.3-0.4
			C201.5,170.5,198.5,168.4,192.3,169.6"/>
		<g class="st11">
			<defs>
				<path id="XMLID_36_" d="M169.3,178.2c3.5,2.4,7.9,3.2,12,1.9c7.5-2.4,11.5-11.1,8.8-19.4c-1.8-5.5-3.2-6-22.5-23.8
					c0.1,0.1,0.1,0.1,0.2,0.2c-0.1-0.1-0.1-0.2-0.2-0.3l-0.1,0.1c-3.6-3-2.9-9.2,1.4-10.6l6.9-2.2c5.6-1.8,10-7.3,11.2-16.2
					c7.3,6,13.1,14.3,16.3,24.2c1.3,4.1,1.7,8.8,5.9,14.7l0,0c1.9,2.7,4.7,5.6,7.9,7.5c-2.4,1-5.1,1.3-7.8,0.7
					c0.4,5.2,2.2,10.3,5,14.7c-2.8,0-5.5-0.9-7.6-2.5c0.4,3.7,1.5,7.3,3.1,10.5c-2,0.2-4-0.1-5.8-0.8c-1.9-0.7-3.5-1.9-4.9-3.5
					c-2.1,3.6-5.3,6.2-9.1,7.4l-36.2,11.6c-3.8,1.2-7.9,1-11.7-0.7c-0.1,2.1-0.8,4-1.9,5.7c-1.1,1.7-2.6,3.1-4.3,4.1
					c-0.6-3.5-1.8-7.1-3.6-10.4c-0.8,2.5-2.5,4.8-4.8,6.4c-0.2-5.2-1.8-10.4-4.5-14.8c-1.8,2.1-4.3,3.4-6.7,4
					c1.5-3.5,2.1-7.4,2.1-10.7l0,0c-0.1-7.3-2.4-11.3-3.8-15.4c-3.2-9.9-3.3-20-0.9-29.2c6.2,6.5,12.9,8.4,18.5,6.6l6.9-2.2
					c4.4-1.4,8.5,3.2,7.3,7.8l-0.1-0.1c0,0.1,0,0.2,0,0.4c0-0.1,0.1-0.2,0.1-0.2c-5.3,25.7-6.2,26.9-4.4,32.4
					c2.7,8.3,10.9,13,18.5,10.6C164.7,185.3,167.8,182.1,169.3,178.2"/>
			</defs>
			<use xlink:href="#XMLID_36_"  style="overflow:visible;fill:#F4D5BD;"/>
			<clipPath id="XMLID_9_">
				<use xlink:href="#XMLID_36_"  style="overflow:visible;"/>
			</clipPath>
		</g>
		<path class="st12" d="M143.8,99c0.1,0,0.2-0.1,0.2-0.1c4-1.3,8.1-2,12.2-2.1c-4,0.1-8.1,0.8-12.1,2.1C144,99,143.9,99,143.8,99
			c-0.1,0.1-0.2,0.1-0.3,0.1c-4,1.3-7.7,3.1-11,5.4c3.4-2.3,7.1-4.1,11.1-5.4C143.7,99.1,143.8,99.1,143.8,99"/>
		<path class="st13" d="M169.3,178.2c3.9,2.6,8.6,3.2,12.8,1.5c1.2,3.8-0.6,7.8-4.1,8.9l-9.8,3.2c-3.5,1.1-7.3-1.1-8.5-4.9
			C164.2,185.8,167.6,182.5,169.3,178.2"/>
		<path class="st14" d="M220.3,150.3c0.1,0.2,0,0.5-0.2,0.5l-30.1,9.7c-0.1-0.3-0.2-0.5-0.3-0.8l30.1-9.7
			C220,150,220.3,150.1,220.3,150.3"/>
		<path class="st14" d="M111.5,185.3c0.1,0.2,0.3,0.3,0.5,0.3l30.1-9.7c-0.1-0.3-0.2-0.5-0.2-0.8l-30.1,9.7
			C111.6,184.8,111.5,185.1,111.5,185.3"/>
		<path class="st14" d="M219.6,156.3c0.1,0.2,0,0.5-0.2,0.5l-28.5,9.2c0-0.3,0-0.6,0-0.9l28.3-9.1
			C219.3,155.9,219.5,156,219.6,156.3"/>
		<path class="st14" d="M115.6,189.7c0.1,0.2,0.3,0.3,0.5,0.3l28.5-9.2c-0.2-0.2-0.3-0.5-0.5-0.7l-28.3,9.1
			C115.6,189.2,115.5,189.5,115.6,189.7"/>
		<path class="st14" d="M218.9,162.2c0.1,0.2,0,0.5-0.2,0.5l-29,9.3c0.1-0.3,0.3-0.7,0.4-1l28.4-9.1
			C218.6,161.9,218.8,162,218.9,162.2"/>
		<path class="st14" d="M119.6,194.1c0.1,0.2,0.3,0.3,0.5,0.3l29-9.3c-0.3-0.2-0.6-0.4-0.9-0.6l-28.4,9.1
			C119.7,193.7,119.6,193.9,119.6,194.1"/>
		<g class="st11">
			<defs>
				<path id="XMLID_35_" d="M143.8,99.1c0.1,0,0.2-0.1,0.3-0.1c15.1-4.9,31-1,42.9,8.9c0,0,0,0,0,0c-1.2,8.9-5.6,14.4-11.2,16.2
					l-6.9,2.2c-4.4,1.4-5,7.6-1.4,10.6l0.1-0.1c0.1,0.1,0.1,0.2,0.2,0.3c-0.1-0.1-0.1-0.1-0.2-0.2c19.3,17.8,20.7,18.3,22.5,23.8
					c2.7,8.3-1.3,17-8.8,19.4c-4.1,1.3-8.5,0.5-12-1.9c-1.5,4-4.5,7.2-8.7,8.5c-7.5,2.4-15.8-2.3-18.5-10.6
					c-1.8-5.5-0.8-6.7,4.4-32.4c0,0.1,0,0.2-0.1,0.2c0-0.1,0-0.2,0-0.4l0.1,0.1c1.2-4.6-3-9.2-7.3-7.8l-6.9,2.2
					c-5.6,1.8-12.4-0.1-18.5-6.6c0,0,0,0,0,0c3.9-15,14.6-27.4,29.7-32.2C143.6,99.1,143.7,99.1,143.8,99.1"/>
			</defs>
			<use xlink:href="#XMLID_35_"  style="overflow:visible;fill:#D88A4B;"/>
			<clipPath id="XMLID_10_">
				<use xlink:href="#XMLID_35_"  style="overflow:visible;"/>
			</clipPath>
		</g>
		<path class="st10" d="M180.2,103.1c0.5,0.3,1,0.6,1.5,0.9C181.2,103.7,180.7,103.4,180.2,103.1"/>
		<path class="st10" d="M116.7,123.5c-0.2,0.5-0.5,1.1-0.7,1.6C116.2,124.6,116.4,124,116.7,123.5"/>
		<path class="st10" d="M166.6,97.9l-0.1,0.1C166.5,97.9,166.5,97.9,166.6,97.9C166.5,97.8,166.6,97.9,166.6,97.9"/>
		<path class="st10" d="M124.7,111.3l0.1,0.1C124.8,111.4,124.7,111.3,124.7,111.3C124.7,111.3,124.7,111.3,124.7,111.3"/>
		<path class="st10" d="M186.7,110.2c0.1-0.5,0.2-0.9,0.3-1.4L186.7,110.2L186.7,110.2z"/>
		<path class="st10" d="M115.6,133.1c-0.3-0.3-0.7-0.6-1-1L115.6,133.1L115.6,133.1z"/>
		<path class="st15" d="M188.4,90.8c1.2,3.8,0.8,6.2-1.4,17.1c-6.7-5.6-14.8-9.2-23.2-10.5l4.2-7.8
			C172.6,80.7,185.1,80.3,188.4,90.8"/>
		<path class="st15" d="M102.8,118.3c1.2,3.8,2.9,5.6,11.1,13.1c2.2-8.5,6.6-16.1,12.7-22.1l-8-3.9
			C109.8,100.9,99.4,107.8,102.8,118.3"/>
		<path class="st16" d="M186,91.6c0.7,2.3,0.2,7.5-1.5,14.3c-3.1-2.3-6.5-4.1-9.9-5.6c0.1-3,1.3-5.7,3.2-7.7c-2,0.4-3.7,1.2-5.2,2.3
			c0.8-3.1,2.8-5.6,5.4-7c-2.2-0.3-4.3,0-6.1,0.8c1.1-1.2,2.5-2.2,4.1-2.7C179.6,84.9,184.3,86.1,186,91.6"/>
		<path class="st16" d="M105.2,117.5c0.7,2.3,4.2,6.2,9.6,10.8c1.2-3.6,2.8-7.1,4.8-10.3c-1.8-2.3-4.4-3.9-7.1-4.4
			c1.8-0.9,3.7-1.2,5.6-1.1c-2.4-2-5.5-2.9-8.4-2.5c1.6-1.5,3.5-2.5,5.5-2.9c-1.6-0.4-3.3-0.3-4.9,0.2
			C106.6,108.4,103.4,112.1,105.2,117.5"/>
		<path class="st14" d="M169.3,178.1c3.5,2.4,7.8,3.2,11.9,1.9c0.3-0.1,0.6-0.2,0.9-0.3c0.2,0.6-5.3,2.6-10.9,4.4
			c-5.6,1.8-11.3,3.3-11.5,2.7c0.3-0.1,0.6-0.2,0.9-0.3C164.8,185.3,167.8,182.1,169.3,178.1"/>
		<path class="st17" d="M181,127c1.6,5-0.8,10.2-5.3,11.7c-2.8,0.9-5.8,0.2-8-1.7c-1.1-1.7-1.3-3.8-0.7-5.6c0.5-1.4,1.5-2.6,3-3.1
			c1.3-0.4,6.3-2,6.4-2.1c0.4-0.1,0.7-0.2,1.1-0.4c0.8-0.3,1.6-0.7,2.3-1.2C180.3,125.3,180.7,126.1,181,127"/>
		<path class="st17" d="M129.9,143.4c1.6,5,6.6,7.9,11.1,6.4c2.8-0.9,4.8-3.2,5.5-6.1c-0.1-2-1.2-3.8-2.7-4.9
			c-1.2-0.9-2.8-1.3-4.3-0.8c-1.3,0.4-6.3,2-6.4,2.1c-0.4,0.1-0.7,0.2-1.1,0.3c-0.8,0.2-1.7,0.3-2.6,0.4
			C129.5,141.6,129.6,142.5,129.9,143.4"/>
		<path class="st18" d="M178.5,127.8c1.1,3.5-0.5,7.2-3.7,8.2c-3.2,1-6.7-1-7.8-4.5c0,0,0-0.1,0-0.1c0.5-1.4,1.5-2.6,3-3.1
			c1.3-0.4,6.3-2,6.4-2.1c0.4-0.1,0.7-0.2,1.1-0.4C178,126.4,178.3,127,178.5,127.8"/>
		<path class="st18" d="M132.4,142.6c1.1,3.5,4.6,5.5,7.8,4.5c3.2-1,4.8-4.7,3.7-8.2c0,0,0-0.1,0-0.1c-1.2-0.9-2.8-1.3-4.3-0.8
			c-1.3,0.4-6.3,2-6.4,2.1c-0.4,0.1-0.7,0.2-1.1,0.3C132,141.1,132.1,141.9,132.4,142.6"/>
		<path class="st19" d="M174.9,130.1c0.4,1.1-0.2,2.4-1.2,2.7c-1,0.3-2.2-0.3-2.6-1.5c-0.4-1.1,0.2-2.4,1.2-2.7
			S174.6,128.9,174.9,130.1"/>
		<path class="st19" d="M136.7,142.4c0.4,1.1,1.5,1.8,2.6,1.5s1.6-1.5,1.2-2.7c-0.4-1.1-1.5-1.8-2.6-1.5
			C136.8,140,136.3,141.2,136.7,142.4"/>
		<path class="st20" d="M167.5,136.7c0.1,0.1,0.1,0.2,0.2,0.3c-0.1-0.1-0.1-0.1-0.2-0.2l0,0L167.5,136.7z"/>
		<path class="st20" d="M146.5,143.5c0,0.1,0,0.2,0,0.4c0-0.1,0.1-0.2,0.1-0.2l0-0.1L146.5,143.5z"/>
		<path class="st20" d="M170.6,128l-0.6,0.2c0.1,0,0.2-0.1,0.3-0.1C170.4,128.1,170.5,128.1,170.6,128"/>
		<path class="st20" d="M139,138.2l0.6-0.2c-0.1,0-0.2,0.1-0.3,0.1C139.2,138.2,139.1,138.2,139,138.2"/>
		<path class="st18" d="M174.9,129.1c0.2,0.5-0.1,1-0.5,1.1c-0.4,0.1-0.9-0.1-1.1-0.6c-0.2-0.5,0.1-1,0.5-1.1
			C174.2,128.4,174.7,128.7,174.9,129.1"/>
		<path class="st18" d="M136.1,141.6c0.2,0.5,0.6,0.8,1.1,0.6c0.4-0.1,0.7-0.6,0.5-1.1c-0.2-0.5-0.6-0.8-1.1-0.6
			C136.2,140.6,136,141.1,136.1,141.6"/>
		<path class="st14" d="M167.7,173.3c0.2-0.1,0.4,0,0.5,0.2l2.8,8.8c0.1,0.2,0,0.4-0.2,0.5c-0.2,0.1-0.4,0-0.5-0.2l-2.8-8.8
			C167.4,173.6,167.5,173.4,167.7,173.3"/>
		<path class="st14" d="M173.8,171.5c-0.2,0.1-0.5-0.1-0.6-0.3c-0.1-0.3,0-0.5,0.3-0.6c0.2-0.1,0.5,0.1,0.6,0.3
			C174.1,171.2,174,171.4,173.8,171.5"/>
		<path class="st14" d="M161.7,175.4c0.2-0.1,0.4-0.3,0.3-0.6c-0.1-0.3-0.3-0.4-0.6-0.3c-0.2,0.1-0.4,0.3-0.3,0.6
			C161.3,175.3,161.5,175.4,161.7,175.4"/>
		<path class="st14" d="M178.7,169.9c-0.2,0.1-0.5-0.1-0.6-0.3c-0.1-0.3,0-0.5,0.3-0.6c0.2-0.1,0.5,0.1,0.6,0.3
			C179,169.6,178.9,169.9,178.7,169.9"/>
		<path class="st14" d="M156.8,176.9c0.2-0.1,0.4-0.3,0.3-0.6c-0.1-0.3-0.3-0.4-0.6-0.3c-0.2,0.1-0.4,0.3-0.3,0.6
			C156.3,176.9,156.6,177,156.8,176.9"/>
		<path class="st14" d="M183.6,168.4c-0.2,0.1-0.5-0.1-0.6-0.3c-0.1-0.3,0-0.5,0.3-0.6c0.2-0.1,0.5,0.1,0.6,0.3
			C183.9,168,183.8,168.3,183.6,168.4"/>
		<path class="st14" d="M151.9,178.5c0.2-0.1,0.4-0.3,0.3-0.6c-0.1-0.3-0.3-0.4-0.6-0.3c-0.2,0.1-0.4,0.3-0.3,0.6
			C151.4,178.5,151.7,178.6,151.9,178.5"/>
		<path class="st14" d="M188.5,166.8c-0.2,0.1-0.5-0.1-0.6-0.3c-0.1-0.3,0-0.5,0.3-0.6c0.2-0.1,0.5,0.1,0.6,0.3
			C188.8,166.4,188.7,166.7,188.5,166.8"/>
		<path class="st14" d="M147,180.1c0.2-0.1,0.4-0.3,0.3-0.6c-0.1-0.3-0.3-0.4-0.6-0.3c-0.2,0.1-0.4,0.3-0.3,0.6
			C146.5,180,146.8,180.2,147,180.1"/>
		<path class="st14" d="M174.5,165.5c-0.2,0.1-0.5-0.1-0.6-0.3c-0.1-0.3,0-0.5,0.3-0.6c0.2-0.1,0.5,0.1,0.6,0.3
			C174.9,165.2,174.8,165.5,174.5,165.5"/>
		<path class="st14" d="M157.6,171c0.2-0.1,0.4-0.3,0.3-0.6c-0.1-0.3-0.3-0.4-0.6-0.3c-0.2,0.1-0.4,0.3-0.3,0.6
			C157.1,170.9,157.4,171.1,157.6,171"/>
		<path class="st14" d="M179.5,164c-0.2,0.1-0.5-0.1-0.6-0.3c-0.1-0.3,0-0.5,0.3-0.6c0.2-0.1,0.5,0.1,0.6,0.3
			C179.8,163.6,179.7,163.9,179.5,164"/>
		<path class="st14" d="M152.7,172.6c0.2-0.1,0.4-0.3,0.3-0.6c-0.1-0.3-0.3-0.4-0.6-0.3c-0.2,0.1-0.4,0.3-0.3,0.6
			C152.2,172.5,152.5,172.6,152.7,172.6"/>
		<path class="st14" d="M184.4,162.4c-0.2,0.1-0.5-0.1-0.6-0.3c-0.1-0.3,0-0.5,0.3-0.6c0.2-0.1,0.5,0.1,0.6,0.3
			C184.7,162,184.6,162.3,184.4,162.4"/>
		<path class="st14" d="M147.8,174.1c0.2-0.1,0.4-0.3,0.3-0.6c-0.1-0.3-0.3-0.4-0.6-0.3c-0.2,0.1-0.4,0.3-0.3,0.6
			C147.3,174.1,147.6,174.2,147.8,174.1"/>
		<path class="st14" d="M176.4,176.4c-0.2,0.1-0.5-0.1-0.6-0.3c-0.1-0.3,0-0.5,0.3-0.6c0.2-0.1,0.5,0.1,0.6,0.3
			C176.8,176,176.7,176.3,176.4,176.4"/>
		<path class="st14" d="M162.4,180.9c0.2-0.1,0.4-0.3,0.3-0.6c-0.1-0.3-0.3-0.4-0.6-0.3c-0.2,0.1-0.4,0.3-0.3,0.6
			C161.9,180.8,162.2,180.9,162.4,180.9"/>
		<path class="st14" d="M181.3,174.8c-0.2,0.1-0.5-0.1-0.6-0.3c-0.1-0.3,0-0.5,0.3-0.6c0.2-0.1,0.5,0.1,0.6,0.3
			C181.7,174.4,181.6,174.7,181.3,174.8"/>
		<path class="st14" d="M157.5,182.5c0.2-0.1,0.4-0.3,0.3-0.6c-0.1-0.3-0.3-0.4-0.6-0.3c-0.2,0.1-0.4,0.3-0.3,0.6
			C157,182.4,157.3,182.5,157.5,182.5"/>
		<path class="st14" d="M186.2,173.2c-0.2,0.1-0.5-0.1-0.6-0.3c-0.1-0.3,0-0.5,0.3-0.6c0.2-0.1,0.5,0.1,0.6,0.3
			C186.6,172.9,186.5,173.1,186.2,173.2"/>
		<path class="st14" d="M152.6,184c0.2-0.1,0.4-0.3,0.3-0.6c-0.1-0.3-0.3-0.4-0.6-0.3c-0.2,0.1-0.4,0.3-0.3,0.6
			C152.1,184,152.3,184.1,152.6,184"/>
		<path class="st16" d="M187.1,107.9c1.4,9.5-4.4,16.3-10.6,18.3c-0.1,0-5.2,1.6-6.4,2.1c-3.3,1.1-4.4,5.6-2.3,8.8
			c-3.9-2.9-3.3-9.3,1.2-10.8l6.9-2.2C181.4,122.3,185.9,116.8,187.1,107.9"/>
		<path class="st16" d="M113.9,131.4c4.4,8.5,13,10.7,19.3,8.7c0.1,0,5.2-1.7,6.4-2.1c3.4-1.1,6.8,2,7,5.8c1.5-4.6-2.8-9.5-7.2-8.1
			l-6.9,2.2C126.8,139.8,120,137.9,113.9,131.4"/>
		<path class="st21" d="M167.7,137c-0.6-0.4-1-0.9-1.4-1.5C166.7,136.1,167.2,136.5,167.7,137C167.7,137,167.7,137,167.7,137"/>
		<path class="st21" d="M146.5,143.8c0.2-0.7,0.3-1.3,0.3-2c0,0.6-0.1,1.3-0.3,1.9C146.5,143.8,146.5,143.8,146.5,143.8"/>
		<path class="st22" d="M176.2,116.2c-3.1,2.1-6.4,1.6-9.4,4c-1.8,1.5-2.4,4.9-1.8,6.7c0.1-1.6,1.5-5.7,5.5-6.4
			c4.5-0.8,6.4-1.5,8.3-3.4c2.7-2.7,3.8-6.2,3.2-9.8C181.2,111.7,179.6,113.8,176.2,116.2"/>
		<path class="st22" d="M127.5,131.8c3.8-0.1,6.1-2.4,9.9-2.2c2.4,0.1,4.8,2.6,5.4,4.4c-1-1.2-4.5-3.7-8.2-2c-4.2,2-6.1,2.5-8.7,2
			c-3.8-0.6-6.7-2.8-8.4-6.1C120.9,131.1,123.4,131.9,127.5,131.8"/>
		<path class="st22" d="M154.2,131.3c0-0.4,0.1-0.8,0.2-1.2c0.1-0.5,0.2-0.9,0.3-1.4c4.1-16.6,20.2-7.7,19.2-25.8
			c-1.3,6.4-4,8.7-8,10.8c-3.6,1.9-7.5,1.2-11.8,6.3c-0.6,0.7-1.1,1.5-1.4,2.5c-0.1-1.7,0.1-3.4,0.7-5c-0.3,0.3-0.6,0.6-0.9,0.9
			c0.7-4.2-2.2-10.5-6.4-12.2c-2.5,3.8-1.2,10.6,1.9,13.6c-0.4-0.1-0.8-0.2-1.2-0.2c1.4,0.9,2.6,2.2,3.5,3.6c-0.9-0.7-1.8-1-2.6-1.2
			c-6.5-1.6-9.2,1.2-13.3,1.8c-4.4,0.7-7.9,0.4-12.7-4.1c9.7,15.3,17.6-1.3,30.6,9.8c0.4,0.3,0.7,0.6,1.1,1
			C153.7,130.7,154,131,154.2,131.3"/>
		<path class="st22" d="M154.9,116.2c5.5-6.8,14.7-2.9,14-14.9c-0.9,4.5-2.9,5.6-5.7,7c-2,1-4.4,1-6.8,2.8
			c-2.1-5.7-6.5-9.8-11.2-9.3C150.1,102.4,153.6,109,154.9,116.2"/>
		<path class="st22" d="M144.9,119.4c-8.4-2.3-13.6,6.2-20.1-4c3.4,3.1,5.6,2.9,8.7,2.4c2.2-0.3,4.2-1.7,7.1-1.7
			c-1.6-5.8-0.4-11.8,3.6-14.1C140.7,105.5,141.7,112.8,144.9,119.4"/>
		<path class="st22" d="M177.3,104.5c0.6,4.4-1.4,8.4-5,10.1C177.4,115.1,180.4,109,177.3,104.5"/>
		<path class="st22" d="M119.8,123c2,3.9,6.1,6,10,5.3C125.9,131.6,120,128.4,119.8,123"/>
		<path class="st22" d="M160.1,143.8c4.3-1.1,5.3-7.3,1.5-10.3C163.3,137.1,162.7,141.3,160.1,143.8"/>
		<path class="st22" d="M156.7,144.9c-4.2,1.6-8.6-2.9-7.3-7.5C150.1,141.3,153.1,144.3,156.7,144.9"/>
		<path class="st22" d="M157.5,129.7c0.3,0,0.6,0,0.9,0c-2.7,2.3-3.1,7-0.1,10c-2.1-5.5,1-8.2,2.7-10c2.4-2.5,2.7-6.5,0.7-9.3
			C162.5,124.2,160.7,128,157.5,129.7"/>
		<path class="st22" d="M150.6,131.9c-0.2,0.2-0.5,0.4-0.8,0.5c3.5,0.2,6.6,3.9,5.9,8.1c-1.5-5.7-5.6-6.1-8-6.5
			c-3.4-0.6-6-3.8-6-7.2C143.4,130.4,147,132.4,150.6,131.9"/>
		<path class="st22" d="M157.9,107.1c3.6,0,7-2.6,7.8-6.7c-1.6,2.1-4,3.6-6.7,3.6c-1.4-2.7-3.6-4.5-6.8-4.1
			C155.4,101.1,156.9,104.3,157.9,107.1"/>
		<path class="st22" d="M137.1,113.8c-2.9,2.1-7.2,2-10.2-0.9c2.6,0.8,5.4,0.6,7.6-1c-0.5-3,0.3-5.7,3.1-7.3
			C135.6,107.4,136.3,110.9,137.1,113.8"/>
		<path class="st21" d="M180.6,138.2c4.2-3.4,5.7-9.2,3.8-14.5C189.7,128.5,187.5,137.4,180.6,138.2"/>
		<path class="st21" d="M136.8,152.3c-5.4-0.3-10-4.1-11.6-9.6C123.7,149.7,130.7,155.7,136.8,152.3"/>
		<path class="st21" d="M183.1,144.2c9.3-5.9,9.3-13,6-22.1C197.1,130.3,194.7,142.7,183.1,144.2"/>
		<path class="st21" d="M138.2,158.6c-11,0.6-15.1-5.2-17.8-14.5C118.8,155.4,127.9,164.1,138.2,158.6"/>
		<path class="st21" d="M200.3,133.1c-1.1-4.7-3.4-10.4-6.3-12.5c5.1,9.7,5.6,22.5-4.9,28.8c4.8-1,8.5-3.7,10.7-7
			c3.2,6.6,7.6,7.7,8.9,7.8C203.4,144.8,201.6,138.5,200.3,133.1"/>
		<path class="st21" d="M117.8,159.6c-1.8-4.5-3.3-10.4-2.1-13.9c1.5,10.9,8.6,21.6,20.8,20.6c-4.5,1.9-9.1,1.9-12.8,0.5
			c1.2,7.2-1.7,10.7-2.7,11.5C122.1,170.9,119.9,164.8,117.8,159.6"/>
		<path class="st23" d="M164,161.9c0.3,0,0.6-0.1,0.8-0.2c0.6-0.2,1.1-0.7,1.4-1.4c0.5-1.3,0.1-0.4,1-2.5c0.5-1.3,1.3-2.1,2.3-2.4
			c1.9-0.6,3-2.6,2.8-4.7c2.6,2.3,2.5,6.4,0.1,8.3c-0.3-0.7-1-1-1.7-0.8c-0.7,0.2-1.1,1.1-0.8,1.9c0.1,0.5,0.5,0.8,0.9,1
			c-0.9,2.3-2.5,6.6-2.5,6.6l1.4,4.3l-1.3,3.3l-3-2L164,169c0,0-3.9-2.6-5.9-3.9c0.2-0.4,0.3-0.8,0.1-1.3c-0.3-0.8-1.1-1.3-1.8-1
			c-0.7,0.2-1,0.9-0.9,1.6c-3-0.1-5.6-3.4-4.8-6.8c1,1.9,3.1,2.9,5,2.3c1.1-0.3,2.1-0.2,3.3,0.6c1.9,1.3,1.1,0.7,2.3,1.5
			c0.6,0.4,1.3,0.5,1.9,0.3C163.5,162.1,163.8,162,164,161.9"/>
	</g>
	<g>
		<path class="st24" d="M103,259.9c-2.5-4.3-8-5.8-12.3-3.3c-0.7,0.4-1.3,0.9-1.9,1.5c-2.2-0.2-4.4,0.2-6.5,1.4
			c-5.1,3-6.9,9.5-3.9,14.7c2.4,4.2,7.3,6.2,11.8,5.1c0.1,1.2,0.5,2.4,1.2,3.6c2.5,4.4,8.2,5.9,12.6,3.4c4.4-2.5,5.9-8.2,3.4-12.6
			c-1.1-1.9-2.8-3.3-4.7-4C104.5,266.8,104.8,263.1,103,259.9z"/>
		<path class="st24" d="M58.7,288.5c-1.9-3.7-6.4-5.2-10.1-3.3c-0.1,0.1-0.2,0.1-0.4,0.2c-1.9-1.3-4.4-1.6-6.6-0.5
			c-3.2,1.6-4.5,5.5-2.9,8.7c1.4,2.9,4.7,4.2,7.7,3.3c2.2,2.4,5.9,3.2,9,1.7C59.1,296.8,60.6,292.2,58.7,288.5z"/>
	</g>
	<g>
		<g>
			<g>
				<path class="st25" d="M123,72.6c1.5,4.2,3.1,8.4,4.6,12.7c0.4,1.1,2.2,0.6,1.8-0.5c-1.5-4.2-3.1-8.4-4.6-12.7
					C124.3,71,122.6,71.5,123,72.6L123,72.6z"/>
			</g>
		</g>
		<g>
			<g>
				<path class="st25" d="M121.2,78.4c0.4,1,0.8,2,1.4,3c0.5,0.9,1.3,1.9,2.5,1.4c0.5-0.2,0.9-0.6,1.2-1c0.4-0.5,0.7-0.9,1.1-1.4
					c0.7-0.9,1.4-1.7,2.2-2.6c0.3-0.4,0.4-0.9,0-1.3c-0.3-0.3-1-0.4-1.3,0c-0.6,0.7-1.2,1.5-1.8,2.2c-0.6,0.7-1.2,1.5-1.8,2.2
					c-0.1,0.1-0.2,0.1-0.2,0.2c-0.1,0.1,0,0,0,0c0,0,0.1,0,0.1,0c0.1,0-0.1-0.1,0,0c0,0-0.2-0.2-0.1-0.1c-0.1-0.1-0.1-0.1-0.1-0.2
					c-0.1-0.2-0.2-0.3-0.3-0.5c-0.4-0.8-0.8-1.6-1.1-2.4c-0.2-0.5-0.6-0.8-1.1-0.6C121.4,77.4,121.1,78,121.2,78.4L121.2,78.4z"/>
			</g>
		</g>
		<g>
			<g>
				<path class="st25" d="M129.8,72.1c0.3-0.7,0.7-1.4,1-2.1c0.2-0.4,0.3-0.7,0.5-1.1c0.1-0.1,0.1-0.3,0.2-0.4c-0.1,0.1,0,0,0,0
					c0,0-0.1,0-0.1,0c0,0,0.2,0,0.2,0c0.2,0,0.3,0.1,0.5,0.1c0.4,0.1,0.7,0.3,1.1,0.4c0.7,0.3,1.4,0.6,2,0.9c0.5,0.2,1,0.1,1.3-0.3
					c0.2-0.4,0.1-1.1-0.3-1.3c-0.9-0.4-1.7-0.8-2.6-1.1c-0.8-0.3-1.7-0.7-2.6-0.5c-0.9,0.2-1.3,1.1-1.7,1.9
					c-0.4,0.8-0.8,1.7-1.2,2.5c-0.2,0.4-0.1,1,0.3,1.3C128.9,72.7,129.6,72.6,129.8,72.1L129.8,72.1z"/>
			</g>
		</g>
		<g>
			<g>
				<path class="st25" d="M132.1,73.8c0.9,0.1,1.8,0.2,2.7,0.2c0.2,0,0.5-0.1,0.7-0.3c0.2-0.2,0.3-0.4,0.3-0.7
					c0-0.2-0.1-0.5-0.3-0.7c-0.2-0.2-0.4-0.2-0.7-0.3c-0.9-0.1-1.8-0.2-2.7-0.2c-0.2,0-0.5,0.1-0.7,0.3c-0.2,0.2-0.3,0.4-0.3,0.7
					c0,0.2,0.1,0.5,0.3,0.7C131.6,73.7,131.8,73.7,132.1,73.8L132.1,73.8z"/>
			</g>
		</g>
		<g>
			<g>
				<path class="st25" d="M132.5,79.9c0.2,0.4,0.4,0.7,0.5,1.1c0,0.1,0,0.1,0.1,0.2c0-0.1,0-0.1,0,0c0,0.1,0.1,0.2,0.1,0.2
					c0.1,0.2,0.1,0.4,0.2,0.6c0.3,0.8,0.5,1.5,0.7,2.3c0.1,0.5,0.7,0.8,1.1,0.6c0.5-0.2,0.8-0.6,0.6-1.1c-0.4-1.7-1.1-3.3-1.8-4.8
					c-0.2-0.4-0.9-0.6-1.3-0.3C132.4,78.9,132.3,79.4,132.5,79.9L132.5,79.9z"/>
			</g>
		</g>
		<g>
			<g>
				<path class="st25" d="M135.1,79C135.2,78.9,135,79.1,135.1,79C135.2,78.9,135.2,78.9,135.1,79c0.1-0.1,0.1-0.1,0.1-0.1
					C135.3,78.9,135.2,78.9,135.1,79c0.1-0.1,0.2-0.1,0.2-0.1c0.1,0,0.3,0,0.1,0c0.1,0,0.2,0,0.2,0c0.2,0-0.1-0.1,0.1,0
					c0.1,0,0.2,0,0.2,0.1c0.2,0.1-0.1-0.1,0.1,0c0.3,0.2,0.5,0.4,0.6,0.6c0.1,0.2,0.2,0.3,0.3,0.5c0,0.1,0.1,0.2,0.1,0.3
					c0,0.1,0.1,0.1,0.1,0.2c0-0.1,0-0.1,0,0c0.2,0.4,0.4,0.9,0.5,1.3c0.1,0.2,0.2,0.4,0.2,0.6c0,0.1,0,0.1,0.1,0.2c0,0,0,0,0,0
					c0-0.1,0-0.2,0.1-0.2c-0.1,0.1-0.1,0.1,0,0c0,0,0,0-0.1,0c0,0-0.1,0-0.1,0.1c-0.1,0.1-0.2,0.1-0.3,0.2c-0.2,0.1-0.4,0.2-0.7,0.3
					c-0.5,0.2-1,0.4-1.5,0.7c-0.5,0.2-0.6,0.9-0.3,1.3c0.3,0.5,0.8,0.5,1.3,0.3c0.5-0.2,0.9-0.4,1.4-0.6c0.4-0.2,0.9-0.3,1.3-0.6
					c0.5-0.3,0.8-0.8,0.8-1.5c0-0.5-0.2-1-0.4-1.5c-0.6-1.6-1.3-3.7-3.2-4.1c-1-0.2-2,0.1-2.6,1c-0.3,0.4-0.1,1,0.3,1.3
					C134.3,79.6,134.8,79.4,135.1,79L135.1,79z"/>
			</g>
		</g>
		<g>
			<g>
				<path class="st25" d="M146.2,73.5c0.8-0.3,1.6-0.6,2.4-1c0.2-0.1,0.4-0.2,0.6-0.4c0.1-0.2,0.2-0.5,0.1-0.7
					c-0.1-0.2-0.2-0.4-0.4-0.6c-0.2-0.1-0.5-0.2-0.7-0.1c-0.8,0.3-1.6,0.6-2.4,1c-0.2,0.1-0.4,0.2-0.6,0.4c-0.1,0.2-0.2,0.5-0.1,0.7
					c0.1,0.2,0.2,0.4,0.4,0.6C145.7,73.5,146,73.6,146.2,73.5L146.2,73.5z"/>
			</g>
		</g>
		<g>
			<g>
				<path class="st25" d="M147.1,70.4c0.6,2.2,1.2,4.4,1.8,6.6c0.3,1.1,2.1,0.7,1.8-0.5c-0.6-2.2-1.2-4.4-1.8-6.6
					C148.5,68.8,146.7,69.2,147.1,70.4L147.1,70.4z"/>
			</g>
		</g>
		<g>
			<g>
				<path class="st25" d="M148.6,79.1c0.4-0.3,0.8-0.6,1.2-1c0.1-0.1,0.2-0.2,0.2-0.3c0.1-0.1,0.1-0.2,0.1-0.4c0-0.1,0-0.2-0.1-0.4
					c0-0.1-0.1-0.2-0.2-0.3c-0.2-0.2-0.4-0.3-0.7-0.3c-0.1,0-0.2,0-0.2,0c-0.2,0-0.3,0.1-0.4,0.2c-0.4,0.3-0.8,0.6-1.2,1
					c-0.1,0.1-0.2,0.2-0.2,0.3c-0.1,0.1-0.1,0.2-0.1,0.4c0,0.1,0,0.2,0.1,0.4c0,0.1,0.1,0.2,0.2,0.3c0.2,0.2,0.4,0.3,0.7,0.3
					c0.1,0,0.2,0,0.2,0C148.3,79.3,148.5,79.2,148.6,79.1L148.6,79.1z"/>
			</g>
		</g>
		<g>
			<g>
				<path class="st25" d="M154.5,70.3c0.8-0.3,1.6-0.6,2.4-1c0.2-0.1,0.4-0.2,0.6-0.4c0.1-0.2,0.2-0.5,0.1-0.7
					c-0.1-0.2-0.2-0.4-0.4-0.6c-0.2-0.1-0.5-0.2-0.7-0.1c-0.8,0.3-1.6,0.6-2.4,1c-0.2,0.1-0.4,0.2-0.6,0.4c-0.1,0.2-0.2,0.5-0.1,0.7
					c0.1,0.2,0.2,0.4,0.4,0.6C154,70.3,154.3,70.4,154.5,70.3L154.5,70.3z"/>
			</g>
		</g>
		<g>
			<g>
				<path class="st25" d="M151.9,68.7c0.2,2.5,1,5,2.4,7c0.5,0.6,1.1,1,1.9,0.9c0.6-0.1,1.1-0.5,1.6-0.9c1.1-0.7,2-1.6,2.9-2.5
					c0.8-0.9-0.5-2.2-1.3-1.3c-0.7,0.7-1.4,1.4-2.2,2c-0.4,0.3-0.8,0.6-1.3,0.8c-0.2,0.1-0.1,0,0,0.1c-0.1-0.1-0.3-0.4-0.4-0.5
					c-1-1.7-1.7-3.6-1.9-5.6c0-0.5-0.4-0.9-0.9-0.9C152.3,67.8,151.8,68.2,151.9,68.7L151.9,68.7z"/>
			</g>
		</g>
		<g>
			<g>
				<path class="st25" d="M168.9,69.8c0.8-0.2,1.6-0.5,2.4-0.7c0.2-0.1,0.4-0.2,0.6-0.4c0.1-0.2,0.2-0.5,0.1-0.7
					c-0.2-0.5-0.6-0.8-1.1-0.6c-0.8,0.2-1.6,0.5-2.4,0.7c-0.2,0.1-0.4,0.2-0.6,0.4c-0.1,0.2-0.2,0.5-0.1,0.7
					C167.9,69.6,168.4,70,168.9,69.8L168.9,69.8z"/>
			</g>
		</g>
		<g>
			<g>
				<path class="st25" d="M170,67.7c0.5,1.9,1,3.7,1.4,5.6c0.1,0.5,0.7,0.8,1.1,0.6c0.5-0.2,0.8-0.6,0.6-1.1c-0.5-1.9-1-3.7-1.4-5.6
					c-0.1-0.5-0.7-0.8-1.1-0.6C170.1,66.7,169.8,67.2,170,67.7L170,67.7z"/>
			</g>
		</g>
		<g>
			<g>
				<path class="st25" d="M171.1,75.2c0.8-0.2,1.5-0.6,2.1-1.2c0.2-0.2,0.3-0.4,0.3-0.7c0-0.2-0.1-0.5-0.3-0.7
					c-0.2-0.2-0.4-0.3-0.7-0.3c-0.2,0-0.5,0.1-0.7,0.3c-0.1,0.1-0.2,0.2-0.3,0.3c0.1,0,0.1-0.1,0.2-0.1c-0.3,0.2-0.6,0.4-0.9,0.5
					c0.1,0,0.1-0.1,0.2-0.1c-0.2,0.1-0.3,0.1-0.5,0.2c-0.2,0.1-0.4,0.2-0.6,0.4c-0.1,0.2-0.2,0.5-0.1,0.7c0.1,0.2,0.2,0.4,0.4,0.6
					C170.6,75.2,170.8,75.2,171.1,75.2L171.1,75.2z"/>
			</g>
		</g>
		<g>
			<g>
				<path class="st25" d="M177.1,69c0.7-0.3,1.5-0.7,2.2-1c0.2-0.1,0.4-0.4,0.4-0.6c0.1-0.2,0-0.5-0.1-0.7c-0.1-0.2-0.3-0.4-0.6-0.4
					c-0.1,0-0.2,0-0.2,0c-0.2,0-0.3,0-0.5,0.1c-0.7,0.3-1.5,0.7-2.2,1c-0.2,0.1-0.4,0.4-0.4,0.6c-0.1,0.2,0,0.5,0.1,0.7
					c0.1,0.2,0.3,0.4,0.6,0.4c0.1,0,0.2,0,0.2,0C176.8,69.1,177,69.1,177.1,69L177.1,69z"/>
			</g>
		</g>
		<g>
			<g>
				<path class="st25" d="M174.3,67.2c0.4,1.4,0.8,2.9,1.3,4.3c0.2,0.7,0.5,1.3,0.8,2c0.2,0.6,0.5,1.2,0.8,1.7
					c0.4,0.5,0.8,1,1.5,1.2c0.7,0.2,1.3,0.1,1.9-0.3c1.3-0.7,2.5-1.6,3.8-2.4c1-0.6,0.1-2.2-0.9-1.6c-1.1,0.7-2.2,1.4-3.3,2.1
					c-0.2,0.1-0.4,0.3-0.7,0.4c-0.2,0.1-0.3,0-0.3,0c-0.3-0.1-0.5-0.6-0.7-0.9c-0.5-1.1-0.9-2.2-1.3-3.3c-0.4-1.2-0.8-2.5-1.1-3.7
					C175.8,65.6,174,66.1,174.3,67.2L174.3,67.2z"/>
			</g>
		</g>
		<g>
			<g>
				<path class="st25" d="M194.8,76c0.1,2.2,0.4,4.4,0.7,6.5c0.2,1.1,0.4,2.2,0.6,3.2c0.2,0.8,0.2,2,0.9,2.6
					c0.7,0.7,1.6,0.5,2.4,0.3c1.1-0.3,2.2-0.7,3.2-1c2.2-0.7,4.3-1.3,6.5-2c1.1-0.3,0.7-2.1-0.5-1.8c-1.8,0.6-3.7,1.1-5.5,1.7
					c-0.9,0.3-1.8,0.6-2.7,0.8c-0.5,0.2-1,0.3-1.5,0.5c-0.2,0.1-0.3,0.1-0.5,0.1c-0.1,0-0.1,0-0.2,0c0.1,0.1,0.1,0,0.1,0
					c-0.3-0.8-0.4-1.8-0.5-2.6c-0.2-0.9-0.3-1.8-0.5-2.7c-0.3-1.9-0.5-3.8-0.6-5.7C196.5,74.8,194.7,74.8,194.8,76L194.8,76z"/>
			</g>
		</g>
		<g>
			<g>
				<path class="st25" d="M197.4,76.3c0.9-0.5,1.8-0.9,2.8-1.1c0.4-0.1,1-0.4,1.4-0.3c0.5,0.1,0.6,0.8,0.7,1.2
					c0.6,2.1,1.2,4.3,1.7,6.5c0.5,2.1,0.8,4.3,1.1,6.4c0.1,0.5,0.2,1.1,0.2,1.6c0,0.4,0,0.5-0.4,0.7c-0.7,0.3-1.4,0.3-2.1,0.7
					c-1,0.6-0.1,2.2,0.9,1.6c0.8-0.4,1.8-0.4,2.5-0.9c0.9-0.6,1-1.7,0.8-2.7c-0.4-2.9-0.9-5.8-1.5-8.6c-0.3-1.4-0.7-2.8-1.1-4.2
					c-0.3-1.1-0.5-2.6-1.3-3.5c-0.8-0.9-2-0.7-3.1-0.4c-1.3,0.3-2.5,0.8-3.7,1.4C195.4,75.3,196.3,76.9,197.4,76.3L197.4,76.3z"/>
			</g>
		</g>
		<g>
			<g>
				<path class="st25" d="M193.5,84.1c4.4-1.4,8.9-2.7,13.4-3.8c1.2-0.3,0.7-2.1-0.5-1.8c-4.5,1.1-9,2.4-13.4,3.8
					C191.9,82.7,192.3,84.5,193.5,84.1L193.5,84.1z"/>
			</g>
		</g>
		<g>
			<g>
				<path class="st25" d="M200.1,80c0.3,0.1,0.5,0.2,0.8,0.3c0,0,0.1,0,0.1,0c-0.1-0.1-0.2-0.1-0.1,0c0.1,0,0.1,0,0.2,0.1
					c0.1,0.1,0.3,0.1,0.4,0.2c0.5,0.2,1,0.5,1.5,0.8c0.4,0.2,1,0.1,1.3-0.3c0.2-0.4,0.1-1-0.3-1.3c-1.1-0.6-2.2-1.2-3.4-1.6
					c-0.5-0.2-1,0.2-1.1,0.6C199.3,79.4,199.6,79.9,200.1,80L200.1,80z"/>
			</g>
		</g>
		<g>
			<g>
				<path class="st25" d="M201.3,85c0.8,0.4,1.6,0.8,2.4,1.2c0.2,0.1,0.5,0.2,0.7,0.1c0.2-0.1,0.4-0.2,0.6-0.4
					c0.2-0.4,0.1-1-0.3-1.3c-0.8-0.4-1.6-0.8-2.4-1.2c-0.2-0.1-0.5-0.2-0.7-0.1c-0.2,0.1-0.4,0.2-0.6,0.4
					C200.8,84.2,200.9,84.8,201.3,85L201.3,85z"/>
			</g>
		</g>
		<g>
			<g>
				<path class="st25" d="M218.8,91.5c1.6-0.6,3.3-1.3,4.9-1.9c0.4-0.2,0.8-0.6,0.6-1.1c-0.1-0.4-0.7-0.8-1.1-0.6
					c-1.6,0.6-3.3,1.3-4.9,1.9c-0.4,0.2-0.8,0.6-0.6,1.1C217.8,91.3,218.3,91.7,218.8,91.5L218.8,91.5z"/>
			</g>
		</g>
		<g>
			<g>
				<path class="st25" d="M219.4,87.2c0.6,2.3,1.2,4.6,1.8,6.9c0.1,0.5,0.7,0.8,1.1,0.6c0.5-0.1,0.8-0.7,0.6-1.1
					c-0.6-2.3-1.2-4.6-1.8-6.9c-0.1-0.5-0.7-0.8-1.1-0.6C219.6,86.2,219.3,86.7,219.4,87.2L219.4,87.2z"/>
			</g>
		</g>
		<g>
			<g>
				<path class="st25" d="M218.3,96.1c3.4-1.2,6.9-2.3,10.5-3.1c1.2-0.3,0.7-2.1-0.5-1.8c-3.5,0.9-7,1.9-10.5,3.1
					C216.7,94.7,217.2,96.5,218.3,96.1L218.3,96.1z"/>
			</g>
		</g>
		<g>
			<g>
				<path class="st25" d="M224.8,90.6c-2.5,4.8-5.1,9.6-7.6,14.5c-0.6,1.1,1,2,1.6,0.9c2.5-4.8,5.1-9.6,7.6-14.5
					C226.9,90.5,225.3,89.5,224.8,90.6L224.8,90.6z"/>
			</g>
		</g>
		<g>
			<g>
				<path class="st25" d="M225.6,99.7c1-0.5,2-1,2.9-1.5c0.4-0.2,0.6-0.9,0.3-1.3c-0.3-0.4-0.8-0.6-1.3-0.3c-1,0.5-2,1-2.9,1.5
					c-0.4,0.2-0.6,0.9-0.3,1.3C224.7,99.8,225.2,99.9,225.6,99.7L225.6,99.7z"/>
			</g>
		</g>
		<g>
			<g>
				<path class="st25" d="M222.9,97.2c0.3,1.2,0.6,2.4,0.9,3.5c0.3,1,0.4,2.3,1.2,3.1c0.8,0.9,2,0.8,3.1,0.7
					c1.2-0.1,2.5-0.2,3.7-0.2c0.5,0,0.9-0.4,0.9-0.9c0-0.5-0.4-1-0.9-0.9c-1.1,0.1-2.2,0.1-3.2,0.2c-0.5,0-1,0.1-1.6,0.1
					c-0.3,0-0.6,0-0.7-0.2c-0.2-0.3-0.3-0.7-0.4-1c-0.1-0.5-0.3-1.1-0.4-1.6c-0.3-1.1-0.6-2.2-0.8-3.2
					C224.3,95.5,222.5,96,222.9,97.2L222.9,97.2z"/>
			</g>
		</g>
		<g>
			<g>
				<path class="st25" d="M229.5,119.4c2.2-1.6,4.5-3,6.9-4.3c1.2-0.6,2.4-1.2,3.6-1.7c0.3-0.1,0.6-0.2,0.9-0.4
					c0.2-0.1,0.4-0.1,0.5-0.2c0.1,0,0.1-0.1,0.2-0.1c-0.2-0.1-0.3-0.2-0.5-0.4c0,0,0.1,0.8,0.1,0.9c0,0.4,0,0.8,0,1.2
					c-0.1,1.2,1.8,1.2,1.8,0c0.1-1.2,0.1-4.1-1.8-3.6c-0.7,0.2-1.5,0.6-2.1,0.9c-0.8,0.3-1.5,0.7-2.2,1c-2.9,1.4-5.7,3.1-8.4,5
					C227.6,118.5,228.6,120.1,229.5,119.4L229.5,119.4z"/>
			</g>
		</g>
		<g>
			<g>
				<path class="st25" d="M228.7,120.1c1,5.3,2.1,10.6,3.1,15.9c0.2,1.2,2,0.7,1.8-0.5c-1-5.3-2.1-10.6-3.1-15.9
					C230.2,118.4,228.4,118.9,228.7,120.1L228.7,120.1z"/>
			</g>
		</g>
		<g>
			<g>
				<path class="st25" d="M231.6,111.3c0.4,1.2,0.8,2.4,1.2,3.6c0.2,0.5,0.6,0.8,1.1,0.6c0.5-0.1,0.8-0.6,0.6-1.1
					c-0.4-1.2-0.8-2.4-1.2-3.6c-0.2-0.5-0.6-0.8-1.1-0.6C231.8,110.3,231.5,110.8,231.6,111.3L231.6,111.3z"/>
			</g>
		</g>
		<g>
			<g>
				<path class="st25" d="M234.2,112.8c1.1-0.8,2.2-1.7,3.4-2.5c0.2-0.1,0.4-0.3,0.4-0.6c0.1-0.2,0-0.5-0.1-0.7
					c-0.2-0.4-0.8-0.6-1.3-0.3c-1.1,0.8-2.2,1.7-3.4,2.5c-0.2,0.1-0.4,0.3-0.4,0.6c-0.1,0.2,0,0.5,0.1,0.7
					C233.1,112.9,233.7,113.1,234.2,112.8L234.2,112.8z"/>
			</g>
		</g>
		<g>
			<g>
				<path class="st25" d="M234.8,120.2c0.2-0.1,0.3-0.3,0.5-0.4c0.1-0.1,0.2-0.1,0.2-0.2c0,0,0.1-0.1,0.1,0c-0.1,0.1,0,0,0.1,0
					c0.3-0.2,0.7-0.5,1-0.7c0.7-0.4,1.4-0.8,2.1-1.2c0.4-0.2,0.6-0.9,0.3-1.3c-0.3-0.5-0.8-0.5-1.3-0.3c-1.6,0.7-3,1.7-4.3,2.8
					c-0.4,0.3-0.4,1,0,1.3C233.9,120.6,234.4,120.6,234.8,120.2L234.8,120.2z"/>
			</g>
		</g>
		<g>
			<g>
				<path class="st25" d="M233.1,116.5c0.5,1,1,2.1,1.5,3.1c0.2,0.5,0.5,1,0.7,1.5c0.2,0.5,0.4,1,0.7,1.5c0.3,0.5,0.8,0.9,1.4,0.9
					c0.6,0,1-0.4,1.5-0.7c1-0.7,1.9-1.3,2.9-2c0.4-0.3,0.6-0.8,0.3-1.3c-0.2-0.4-0.9-0.6-1.3-0.3c-0.8,0.6-1.6,1.2-2.5,1.7
					c-0.1,0.1-1.1,0.8-1.1,0.8c-0.1-0.1,0.4,0.1,0.3,0.1c0,0-0.1-0.1-0.1-0.1c-0.1-0.2-0.2-0.4-0.3-0.6c-0.9-1.8-1.7-3.6-2.6-5.5
					c-0.2-0.5-0.9-0.6-1.3-0.3C232.9,115.5,232.9,116,233.1,116.5L233.1,116.5z"/>
			</g>
		</g>
		<g>
			<g>
				<path class="st25" d="M238.1,127.2c0.2,2.8,0.3,5.5,0.5,8.3c0,0.5,0.4,0.9,0.9,0.9c0.5,0,1-0.4,0.9-0.9
					c-0.2-2.8-0.3-5.5-0.5-8.3c0-0.5-0.4-0.9-0.9-0.9C238.6,126.2,238.1,126.7,238.1,127.2L238.1,127.2z"/>
			</g>
		</g>
		<g>
			<g>
				<path class="st25" d="M242,125.9c0.3,0.3,0.3,0.8,0.4,1.2c0.1,0.5,0.2,1,0.5,1.5c0.5,1,1.5,1.7,2.7,1.5c1.1-0.3,2-1.4,2.8-2.1
					c0.9-0.9,1.8-1.8,2.7-2.6c0.9-0.8-0.4-2.1-1.3-1.3c-0.8,0.8-1.6,1.5-2.4,2.3c-0.4,0.4-0.8,0.7-1.2,1.1c-0.3,0.3-0.6,0.7-1,0.8
					c-0.1,0.1-0.2,0.1-0.3,0c0.1,0-0.1,0-0.1-0.1c-0.1,0,0,0-0.1-0.1c-0.2-0.2-0.3-0.5-0.4-0.8c-0.3-1-0.4-1.9-1-2.7
					c-0.3-0.4-1-0.3-1.3,0C241.7,125,241.7,125.5,242,125.9L242,125.9z"/>
			</g>
		</g>
	</g>
</g>
</svg>
