<?xml version="1.0" encoding="utf-8"?>
<!-- Generator: Adobe Illustrator 24.3.0, SVG Export Plug-In . SVG Version: 6.00 Build 0)  -->
<svg version="1.1" id="bg" xmlns="http://www.w3.org/2000/svg" xmlns:xlink="http://www.w3.org/1999/xlink" x="0px" y="0px"
	 viewBox="0 0 1000 1024" style="enable-background:new 0 0 1000 1024;" xml:space="preserve">
<style type="text/css">
	.st0{clip-path:url(#SVGID_2_);fill:url(#天空_1_);}
	.st1{clip-path:url(#SVGID_2_);}
	.st2{fill:url(#後_2_);}
	.st3{fill-rule:evenodd;clip-rule:evenodd;fill:url(#SVGID_3_);}
	.st4{fill:url(#右_前山_1_);}
	.st5{fill-rule:evenodd;clip-rule:evenodd;fill:url(#SVGID_4_);}
	.st6{fill:url(#後_3_);}
	.st7{fill:url(#左_前山_1_);}
	.st8{clip-path:url(#SVGID_2_);fill:url(#地板_1_);}
	.st9{fill:url(#SVGID_5_);}
	.st10{fill:url(#SVGID_6_);}
	.st11{fill:url(#SVGID_7_);}
	.st12{fill:url(#SVGID_8_);}
	.st13{fill:url(#SVGID_9_);}
	.st14{fill:url(#SVGID_10_);}
	.st15{fill:url(#SVGID_11_);}
	.st16{fill:url(#SVGID_12_);}
	.st17{fill:url(#SVGID_13_);}
	.st18{fill:url(#SVGID_14_);}
	.st19{fill:url(#SVGID_15_);}
</style>
<g>
	<defs>
		<rect id="SVGID_1_" x="-12" width="1024" height="1024"/>
	</defs>
	<clipPath id="SVGID_2_">
		<use xlink:href="#SVGID_1_"  style="overflow:visible;"/>
	</clipPath>
	<linearGradient id="天空_1_" gradientUnits="userSpaceOnUse" x1="500" y1="-2.1991" x2="500" y2="432.0445">
		<stop  offset="0" style="stop-color:#3BDBBB"/>
		<stop  offset="8.952320e-03" style="stop-color:#3FDBBB"/>
		<stop  offset="0.1273" style="stop-color:#6BDBBB"/>
		<stop  offset="0.2511" style="stop-color:#90DBBB"/>
		<stop  offset="0.379" style="stop-color:#AFDBBB"/>
		<stop  offset="0.5124" style="stop-color:#C7DBBB"/>
		<stop  offset="0.6536" style="stop-color:#D8DBBB"/>
		<stop  offset="0.8079" style="stop-color:#E2DBBB"/>
		<stop  offset="1" style="stop-color:#E5DBBB"/>
	</linearGradient>
	<rect id="天空" x="-12" y="-2.2" class="st0" width="1024" height="434.2"/>
	<g id="山" class="st1">
		
			<linearGradient id="後_2_" gradientUnits="userSpaceOnUse" x1="948.1401" y1="219.0982" x2="1025.5288" y2="410.9882" gradientTransform="matrix(1 0 0 1 -68.2324 0)">
			<stop  offset="0.3" style="stop-color:#FFD746"/>
			<stop  offset="0.3573" style="stop-color:#E0CF4B"/>
			<stop  offset="0.4289" style="stop-color:#C0C651"/>
			<stop  offset="0.5068" style="stop-color:#A5BF55"/>
			<stop  offset="0.5921" style="stop-color:#91BA59"/>
			<stop  offset="0.6886" style="stop-color:#83B65B"/>
			<stop  offset="0.8055" style="stop-color:#7BB45D"/>
			<stop  offset="1" style="stop-color:#78B35D"/>
		</linearGradient>
		<path id="後" class="st2" d="M1300.1,444.6c-57.9-92.9-150.9-117.4-214.2-161.8c-121.5-85.4-163.2,73.9-251.6,73.7
			c-100.2-0.3-132.2,26.2-192.8,88.2H1300.1z"/>
		
			<linearGradient id="SVGID_3_" gradientUnits="userSpaceOnUse" x1="5.7623" y1="186.6384" x2="-173.0759" y2="84.1797" gradientTransform="matrix(-0.9463 -0.3233 0.3233 -0.9463 850.5526 572.8777)">
			<stop  offset="0" style="stop-color:#49C484"/>
			<stop  offset="0.1451" style="stop-color:#4DC18D"/>
			<stop  offset="0.3818" style="stop-color:#58B9A5"/>
			<stop  offset="0.6804" style="stop-color:#69ACCD"/>
			<stop  offset="1" style="stop-color:#7F9CFF"/>
		</linearGradient>
		<path class="st3" d="M799.9,447.3c11.5,14.3,21.4,27.3,25.6,32.8l129.1,44.1l8.4-24.6c-16.6-1.8-30.1-1.9-30.1-1.9
			s13.1,0,31.2-1.2l17.1-50c-31.3,8.3-59.1,19.2-59.1,19.2s20.6-12.2,64-33.8l26.2-76.7c-36.6,2-92.3,82.6-94.2,85.3
			c0,0,0,0.1,0,0.1s0,0,0-0.1c2.2-3.2,83.2-121.7,56.5-143.7c-32.5-26.8-66.8,107-76.6,148.9c-1.7,7.5-2.8,12.2-2.8,12.2
			s1-4.6,2.8-12.2c3.1-14,8-37.7,11.5-60c6.2-40.1,7.8-77.6-12.1-77.7c-36.5-0.2-32.3,138.2-32.2,142.4c0,0.1,0,0.1,0,0.1s0,0,0-0.1
			c-0.1-3.6-3.9-107.8-37.3-97.2c-25.6,8.2,16.2,106.6,16.2,106.6s-39.3-90.9-60-69.8C773.2,401.3,783.1,426.4,799.9,447.3z"/>
		
			<linearGradient id="右_前山_1_" gradientUnits="userSpaceOnUse" x1="1024.5315" y1="407.9143" x2="896.6609" y2="433.9006" gradientTransform="matrix(1 0 0 1 -68.2324 0)">
			<stop  offset="0" style="stop-color:#93C449"/>
			<stop  offset="0.1597" style="stop-color:#9CC44B"/>
			<stop  offset="0.42" style="stop-color:#B4C44F"/>
			<stop  offset="0.7467" style="stop-color:#DCC356"/>
			<stop  offset="1" style="stop-color:#FFC35C"/>
		</linearGradient>
		<path id="右_前山" class="st4" d="M1231,435.6c-57-50.8-85.5-130.4-162.4-130.4c-84.4,0-73.9,47.8-177.9,62.9
			c-90.3,13.1-98.3,57.2-157.2,41.6c-69.6-18.4-96.1,6.8-150.2,25.9H1231z"/>
		
			<linearGradient id="SVGID_4_" gradientUnits="userSpaceOnUse" x1="56.9015" y1="355.2601" x2="-44.2847" y2="506.0176" gradientTransform="matrix(0.9941 -0.1086 0.1086 0.9941 -35.6689 8.6499)">
			<stop  offset="0" style="stop-color:#49C484"/>
			<stop  offset="0.1451" style="stop-color:#4DC18D"/>
			<stop  offset="0.3818" style="stop-color:#58B9A5"/>
			<stop  offset="0.6804" style="stop-color:#69ACCD"/>
			<stop  offset="1" style="stop-color:#7F9CFF"/>
		</linearGradient>
		<path class="st5" d="M-2.4,440.7l80.9-8.8c-6.1-9-22.8-14.6-20.4-19.8c9-19.9,51.5,13.7,58.6-20.5c4.4-21.1-29.5-16.3-29-24.3
			c0.7-12.5,19.8-10.3,37.8-20.3c30.3-16.9,30.2-52.6,3.1-52.8c-29.2-0.2-59,69.7-58.7,51.8c0.3-17.9,18-45.2-1.6-51.6
			c-36-11.9-21.6,72.1-31.7,63c-5-4.5,2.9-31.9-14.3-32.3c-28.3-0.6-2.2,65-21,61.9c-8-1.3,1.2-30.3-18.9-25.4
			c-18.1,4.4-1.2,63.8-1.2,63.8L-2.4,440.7z"/>
		
			<linearGradient id="後_3_" gradientUnits="userSpaceOnUse" x1="143.5582" y1="289.2744" x2="201.4971" y2="432.9373" gradientTransform="matrix(-1 0 0 1 352.2405 0)">
			<stop  offset="0.3" style="stop-color:#FFD746"/>
			<stop  offset="0.3573" style="stop-color:#E0CF4B"/>
			<stop  offset="0.4289" style="stop-color:#C0C651"/>
			<stop  offset="0.5068" style="stop-color:#A5BF55"/>
			<stop  offset="0.5921" style="stop-color:#91BA59"/>
			<stop  offset="0.6886" style="stop-color:#83B65B"/>
			<stop  offset="0.8055" style="stop-color:#7BB45D"/>
			<stop  offset="1" style="stop-color:#78B35D"/>
		</linearGradient>
		<path id="後_1_" class="st6" d="M-114.6,454.6C-69.5,382.2,43,383.1,92.3,348.5c94.7-66.5,118.3,79.6,186.1,67.4
			c50.3-9.1,73.1-9.6,120.3,38.7H-114.6z"/>
		
			<linearGradient id="左_前山_1_" gradientUnits="userSpaceOnUse" x1="52.9661" y1="360.821" x2="165.1898" y2="458.6385" gradientTransform="matrix(1 0 0 1 -68.2324 0)">
			<stop  offset="0" style="stop-color:#93C449"/>
			<stop  offset="0.1597" style="stop-color:#9CC44B"/>
			<stop  offset="0.42" style="stop-color:#B4C44F"/>
			<stop  offset="0.7467" style="stop-color:#DCC356"/>
			<stop  offset="1" style="stop-color:#FFC35C"/>
		</linearGradient>
		<path id="左_前山" class="st7" d="M327.7,435.6c-21.4-23.9-47.8-51-94.1-37.2c-71.4,21.2-91.6-35.6-138.3-43.2
			c-65.8-10.7-96.2,40.9-197.9,22.9c-66.9-11.9-82.5,31.9-87.4,57.5H327.7z"/>
	</g>
	<linearGradient id="地板_1_" gradientUnits="userSpaceOnUse" x1="500" y1="1024" x2="500" y2="432.0445">
		<stop  offset="0" style="stop-color:#424242"/>
		<stop  offset="0.5519" style="stop-color:#3F3F3F"/>
		<stop  offset="0.8834" style="stop-color:#373737"/>
		<stop  offset="1" style="stop-color:#323232"/>
	</linearGradient>
	<rect id="地板" x="-12" y="432" class="st8" width="1024" height="592"/>
	<g id="草_8_" class="st1">
		<g id="草皮_1_">
			<linearGradient id="SVGID_5_" gradientUnits="userSpaceOnUse" x1="56.1953" y1="877.4583" x2="56.1953" y2="430.0445">
				<stop  offset="0" style="stop-color:#8B9C3E"/>
				<stop  offset="0.6899" style="stop-color:#8A9E41"/>
				<stop  offset="1" style="stop-color:#89A346"/>
			</linearGradient>
			<path class="st9" d="M-62,877.5L-12,430l190,2C131.5,422.6-96.9,835.8-62,877.5z"/>
			<linearGradient id="SVGID_6_" gradientUnits="userSpaceOnUse" x1="942.6302" y1="877.4583" x2="942.6302" y2="430.0445">
				<stop  offset="0" style="stop-color:#8B9C3E"/>
				<stop  offset="0.6899" style="stop-color:#8A9E41"/>
				<stop  offset="1" style="stop-color:#89A346"/>
			</linearGradient>
			<path class="st10" d="M1062,877.5L1012,430l-190,2C862.8,430,1081.8,848.2,1062,877.5z"/>
		</g>
		<g>
			<g>
				<linearGradient id="SVGID_7_" gradientUnits="userSpaceOnUse" x1="982.7201" y1="634.7216" x2="982.7201" y2="645.1091">
					<stop  offset="0" style="stop-color:#AFDB58"/>
					<stop  offset="0.4935" style="stop-color:#AED957"/>
					<stop  offset="0.6712" style="stop-color:#ADD252"/>
					<stop  offset="0.7979" style="stop-color:#A9C74A"/>
					<stop  offset="0.8997" style="stop-color:#A4B63F"/>
					<stop  offset="0.9865" style="stop-color:#9EA030"/>
					<stop  offset="1" style="stop-color:#9D9C2D"/>
				</linearGradient>
				<path class="st11" d="M970.3,639.6c-0.7,2.2-0.7,4-0.2,5.5h25.6C987.2,637.9,973.9,629,970.3,639.6z"/>
			</g>
			<g>
				<linearGradient id="SVGID_8_" gradientUnits="userSpaceOnUse" x1="1015.6533" y1="623.4826" x2="1015.6533" y2="645.1091">
					<stop  offset="0" style="stop-color:#AFDB58"/>
					<stop  offset="0.4935" style="stop-color:#AED957"/>
					<stop  offset="0.6712" style="stop-color:#ADD252"/>
					<stop  offset="0.7979" style="stop-color:#A9C74A"/>
					<stop  offset="0.8997" style="stop-color:#A4B63F"/>
					<stop  offset="0.9865" style="stop-color:#9EA030"/>
					<stop  offset="1" style="stop-color:#9D9C2D"/>
				</linearGradient>
				<path class="st12" d="M1023.8,625.6c-8.9-8.3-15.9,9.3-19,19.5h10.1C1022.9,639.8,1030.9,632.2,1023.8,625.6z"/>
			</g>
			<g>
				<linearGradient id="SVGID_9_" gradientUnits="userSpaceOnUse" x1="990.9835" y1="594.9766" x2="990.9835" y2="645.1091">
					<stop  offset="0" style="stop-color:#AFDB58"/>
					<stop  offset="0.4935" style="stop-color:#AED957"/>
					<stop  offset="0.6712" style="stop-color:#ADD252"/>
					<stop  offset="0.7979" style="stop-color:#A9C74A"/>
					<stop  offset="0.8997" style="stop-color:#A4B63F"/>
					<stop  offset="0.9865" style="stop-color:#9EA030"/>
					<stop  offset="1" style="stop-color:#9D9C2D"/>
				</linearGradient>
				<path class="st13" d="M1009.3,607.3c-8.6-5.4-11.4,16.5-12.1,23.6c-1.8-4.9-3.6-9.7-5.6-14.7c0.8-6.3,2.2-23.6-6.6-20.9
					c-9.5,2.9,0.2,16,4.5,21.1c0,0.1,0,0.3,0.1,0.4c1.7,4.3,3.3,8.5,4.8,12.5c-4.9-7.9-17-25.2-23.2-16
					c-7.4,10.9,19.1,18.1,24.5,19.4c1.5,4.2,2.9,8.4,4.2,12.4h2.3c-1.4-4.3-2.8-8.5-4.3-12.7C1001.6,629,1018.7,613.1,1009.3,607.3z
					"/>
			</g>
		</g>
		<g>
			<g>
				
					<linearGradient id="SVGID_10_" gradientUnits="userSpaceOnUse" x1="227.192" y1="504.6008" x2="227.192" y2="531.8717" gradientTransform="matrix(-1 0 0 1 241.179 0)">
					<stop  offset="0" style="stop-color:#AFDB58"/>
					<stop  offset="0.4935" style="stop-color:#AED957"/>
					<stop  offset="0.6712" style="stop-color:#ADD252"/>
					<stop  offset="0.7979" style="stop-color:#A9C74A"/>
					<stop  offset="0.8997" style="stop-color:#A4B63F"/>
					<stop  offset="0.9865" style="stop-color:#9EA030"/>
					<stop  offset="1" style="stop-color:#9D9C2D"/>
				</linearGradient>
				<path class="st14" d="M46.6,517.5c1.9,5.7,1.9,10.4,0.6,14.4h-67.3C2.3,512.9,37.1,489.6,46.6,517.5z"/>
			</g>
			<g>
				
					<linearGradient id="SVGID_11_" gradientUnits="userSpaceOnUse" x1="313.6528" y1="475.0947" x2="313.6528" y2="531.8717" gradientTransform="matrix(-1 0 0 1 241.179 0)">
					<stop  offset="0" style="stop-color:#AFDB58"/>
					<stop  offset="0.4935" style="stop-color:#AED957"/>
					<stop  offset="0.6712" style="stop-color:#ADD252"/>
					<stop  offset="0.7979" style="stop-color:#A9C74A"/>
					<stop  offset="0.8997" style="stop-color:#A4B63F"/>
					<stop  offset="0.9865" style="stop-color:#9EA030"/>
					<stop  offset="1" style="stop-color:#9D9C2D"/>
				</linearGradient>
				<path class="st15" d="M-93.9,480.8c23.4-21.8,41.7,24.5,50,51.1h-26.5C-91.5,518-112.4,498.1-93.9,480.8z"/>
			</g>
			<g>
				
					<linearGradient id="SVGID_12_" gradientUnits="userSpaceOnUse" x1="232.9436" y1="395.4762" x2="232.9436" y2="527.0913" gradientTransform="matrix(-0.9682 -0.2501 -0.2501 0.9682 359.306 77.7126)">
					<stop  offset="0" style="stop-color:#AFDB58"/>
					<stop  offset="0.4935" style="stop-color:#AED957"/>
					<stop  offset="0.6712" style="stop-color:#ADD252"/>
					<stop  offset="0.7979" style="stop-color:#A9C74A"/>
					<stop  offset="0.8997" style="stop-color:#A4B63F"/>
					<stop  offset="0.9865" style="stop-color:#9EA030"/>
					<stop  offset="1" style="stop-color:#9D9C2D"/>
				</linearGradient>
				<path class="st16" d="M-19.8,421.5c25.3-8,18.1,49.3,15.2,67.8C3.1,478.2,11,467,19.2,455.8c2.1-16.4,10-61.3,30.4-48.8
					c22.3,13.6-11.1,40.5-25.2,50.6c-0.1,0.4-0.2,0.7-0.5,1c-7.2,9.8-13.9,19.3-20.4,28.7c17.7-16.8,59.8-52.8,69.6-25.3
					c11.6,32.5-60.4,33.4-74.9,33.2c-6.6,9.8-12.9,19.4-18.8,28.8l-5.8-1.5c6.3-10,12.7-19.8,19.4-29.5
					C-14.5,481.9-47.4,430.3-19.8,421.5z"/>
			</g>
		</g>
		<g>
			<g>
				<linearGradient id="SVGID_13_" gradientUnits="userSpaceOnUse" x1="856.5198" y1="446.6861" x2="856.5198" y2="464.1091">
					<stop  offset="0" style="stop-color:#AFDB58"/>
					<stop  offset="0.4935" style="stop-color:#AED957"/>
					<stop  offset="0.6712" style="stop-color:#ADD252"/>
					<stop  offset="0.7979" style="stop-color:#A9C74A"/>
					<stop  offset="0.8997" style="stop-color:#A4B63F"/>
					<stop  offset="0.9865" style="stop-color:#9EA030"/>
					<stop  offset="1" style="stop-color:#9D9C2D"/>
				</linearGradient>
				<path class="st17" d="M835.7,454.9c-1.2,3.6-1.2,6.6-0.4,9.2h43C864,452,841.7,437.1,835.7,454.9z"/>
			</g>
			<g>
				<linearGradient id="SVGID_14_" gradientUnits="userSpaceOnUse" x1="911.7586" y1="427.8349" x2="911.7586" y2="464.1091">
					<stop  offset="0" style="stop-color:#AFDB58"/>
					<stop  offset="0.4935" style="stop-color:#AED957"/>
					<stop  offset="0.6712" style="stop-color:#ADD252"/>
					<stop  offset="0.7979" style="stop-color:#A9C74A"/>
					<stop  offset="0.8997" style="stop-color:#A4B63F"/>
					<stop  offset="0.9865" style="stop-color:#9EA030"/>
					<stop  offset="1" style="stop-color:#9D9C2D"/>
				</linearGradient>
				<path class="st18" d="M925.4,431.5c-14.9-13.9-26.7,15.6-31.9,32.7h17C923.9,455.3,937.3,442.5,925.4,431.5z"/>
			</g>
			<g>
				<linearGradient id="SVGID_15_" gradientUnits="userSpaceOnUse" x1="870.38" y1="380.0218" x2="870.38" y2="464.1091">
					<stop  offset="0" style="stop-color:#AFDB58"/>
					<stop  offset="0.4935" style="stop-color:#AED957"/>
					<stop  offset="0.6712" style="stop-color:#ADD252"/>
					<stop  offset="0.7979" style="stop-color:#A9C74A"/>
					<stop  offset="0.8997" style="stop-color:#A4B63F"/>
					<stop  offset="0.9865" style="stop-color:#9EA030"/>
					<stop  offset="1" style="stop-color:#9D9C2D"/>
				</linearGradient>
				<path class="st19" d="M901.1,400.6c-14.4-9-19.1,27.6-20.2,39.5c-3-8.2-6.1-16.4-9.4-24.6c1.3-10.5,3.6-39.5-11-35.1
					c-15.9,4.9,0.4,26.8,7.5,35.3c0,0.2,0,0.5,0.1,0.7c2.9,7.2,5.5,14.2,8,21c-8.3-13.2-28.5-42.2-39-26.8
					c-12.4,18.3,32,30.3,41,32.5c2.5,7.1,4.9,14,7,20.8h3.8c-2.3-7.2-4.7-14.3-7.3-21.4C888.2,437.1,916.8,410.4,901.1,400.6z"/>
			</g>
		</g>
	</g>
</g>
</svg>
