<?xml version="1.0" encoding="utf-8"?>
<!-- Generator: Adobe Illustrator 24.3.0, SVG Export Plug-In . SVG Version: 6.00 Build 0)  -->
<svg version="1.1" id="bg" xmlns="http://www.w3.org/2000/svg" xmlns:xlink="http://www.w3.org/1999/xlink" x="0px" y="0px"
	 viewBox="0 0 1000 1024" style="enable-background:new 0 0 1000 1024;" xml:space="preserve">
<style type="text/css">
	.st0{clip-path:url(#SVGID_2_);}
	.st1{fill:#E6E0CF;}
	.st2{clip-path:url(#XMLID_3_);fill:url(#天空_1_);}
	.st3{opacity:0.4;clip-path:url(#XMLID_3_);}
	.st4{fill:#6CD0DD;}
	.st5{fill:#54B2DD;}
	.st6{fill:#0098DD;}
	.st7{fill:#C8FF7A;}
	.st8{fill:#0090DD;}
	.st9{fill:#007BB3;}
	.st10{fill:#2BACD8;}
	.st11{clip-path:url(#XMLID_3_);}
	.st12{opacity:0.3;fill:url(#SVGID_3_);}
	.st13{opacity:0.2;fill:url(#SVGID_4_);}
	.st14{fill:none;stroke:#000000;stroke-width:12;stroke-miterlimit:10;}
	.st15{fill:url(#地板_2_);}
	.st16{fill:url(#SVGID_5_);}
	.st17{fill:url(#SVGID_6_);}
	.st18{fill:url(#SVGID_7_);}
	.st19{fill-rule:evenodd;clip-rule:evenodd;fill:#0A7B0A;}
	.st20{fill-rule:evenodd;clip-rule:evenodd;fill:url(#SVGID_8_);}
	.st21{fill:url(#SVGID_9_);}
	.st22{fill-rule:evenodd;clip-rule:evenodd;fill:url(#SVGID_10_);}
	.st23{fill-rule:evenodd;clip-rule:evenodd;fill:#F5970A;}
	.st24{fill:#89AF12;}
	.st25{fill-rule:evenodd;clip-rule:evenodd;fill:url(#SVGID_11_);}
	.st26{fill-rule:evenodd;clip-rule:evenodd;fill:#F5BC0A;}
	.st27{fill:#9E5F46;}
	.st28{fill:url(#SVGID_12_);}
	.st29{fill:#E8F7FF;}
	.st30{fill:none;stroke:#F2CB30;stroke-width:5;stroke-miterlimit:10;}
	.st31{opacity:0.7;}
	.st32{fill:#FFFFFF;}
	.st33{fill:#F8FFF7;}
	.st34{fill:#333333;}
	.st35{fill:#4D4D4D;}
	.st36{fill:#F2CB30;}
	.st37{fill:#757880;}
	.st38{fill:none;}
	.st39{fill:#CAEB8D;}
	.st40{fill:#ECBDBD;}
	.st41{fill:#6E92DB;}
	.st42{fill:#FFEAC7;}
</style>
<g>
	<defs>
		<rect id="SVGID_1_" width="1000" height="1024"/>
	</defs>
	<clipPath id="SVGID_2_">
		<use xlink:href="#SVGID_1_"  style="overflow:visible;"/>
	</clipPath>
	<g id="牆壁" class="st0">
		<rect id="天空" x="-12" y="-2.2" class="st1" width="1024" height="434.2"/>
	</g>
	<g id="窗外天空" class="st0">
		<defs>
			<path id="XMLID_2_" d="M939-14.3H401V432H939V-14.3z"/>
		</defs>
		<clipPath id="XMLID_3_">
			<use xlink:href="#XMLID_2_"  style="overflow:visible;"/>
		</clipPath>
		<linearGradient id="天空_1_" gradientUnits="userSpaceOnUse" x1="500" y1="-17.6957" x2="500" y2="423.2383">
			<stop  offset="0" style="stop-color:#0098DD"/>
			<stop  offset="0.1129" style="stop-color:#099CDB"/>
			<stop  offset="0.2971" style="stop-color:#21A6D4"/>
			<stop  offset="0.5296" style="stop-color:#49B7CA"/>
			<stop  offset="0.7986" style="stop-color:#80CFBB"/>
			<stop  offset="1" style="stop-color:#ADE2AF"/>
		</linearGradient>
		<rect id="天空_2_" x="-12" y="-17.7" class="st2" width="1024" height="440.9"/>
		<g id="樓" class="st3">
			<g>
				<g>
					<polygon class="st4" points="551.7,271.3 601.4,271.3 616.2,252.9 566.4,252.9 					"/>
					<rect x="551.7" y="271.3" class="st5" width="49.7" height="174.3"/>
					<polygon class="st6" points="601.4,271.3 601.4,445.6 630.6,445.6 630.6,271.3 616.2,252.9 					"/>
				</g>
				<g>
					<rect x="613.5" y="271" class="st7" width="6.5" height="15.3"/>
					<rect x="613.5" y="302.1" class="st7" width="6.5" height="15.3"/>
					<rect x="613.5" y="333.1" class="st7" width="6.5" height="15.3"/>
					<rect x="613.5" y="364.2" class="st7" width="6.5" height="15.3"/>
					<rect x="613.5" y="395.3" class="st7" width="6.5" height="15.3"/>
					<rect x="613.5" y="426.4" class="st7" width="6.5" height="15.3"/>
				</g>
			</g>
			<g>
				<g>
					<polygon class="st5" points="788.3,302.3 788.3,445.6 836.6,445.6 836.6,302.3 824.7,299.2 					"/>
					<polygon class="st6" points="836.6,302.3 836.6,445.6 867.2,445.6 867.2,302.3 852,287.4 					"/>
					<polygon class="st8" points="788.3,302.3 793,302.3 836.6,302.3 852,287.4 804,287.4 					"/>
				</g>
				<g>
					<rect x="846.4" y="310.5" class="st7" width="12.3" height="15.8"/>
					<rect x="846.4" y="336.9" class="st7" width="12.3" height="15.8"/>
					<rect x="846.4" y="363.2" class="st7" width="12.3" height="15.8"/>
					<rect x="846.4" y="389.6" class="st7" width="12.3" height="15.8"/>
					<rect x="846.4" y="415.9" class="st7" width="12.3" height="15.8"/>
				</g>
				<g>
					<rect x="816.8" y="310.5" class="st6" width="12.3" height="15.8"/>
					<rect x="816.8" y="336.9" class="st6" width="12.3" height="15.8"/>
					<rect x="816.8" y="363.2" class="st6" width="12.3" height="15.8"/>
					<rect x="816.8" y="389.6" class="st6" width="12.3" height="15.8"/>
					<rect x="816.8" y="415.9" class="st6" width="12.3" height="15.8"/>
				</g>
				<g>
					<g>
						<rect x="795.4" y="310.5" class="st7" width="12.3" height="15.8"/>
					</g>
					<g>
						<rect x="795.4" y="336.9" class="st7" width="12.3" height="15.8"/>
					</g>
					<g>
						<rect x="795.4" y="363.2" class="st7" width="12.3" height="15.8"/>
					</g>
					<g>
						<rect x="795.4" y="389.6" class="st6" width="12.3" height="15.8"/>
					</g>
					<g>
						<rect x="795.4" y="415.9" class="st6" width="12.3" height="15.8"/>
					</g>
				</g>
			</g>
			<g>
				<g>
					<rect x="652.9" y="301.1" class="st6" width="56.5" height="144.5"/>
					<rect x="630.6" y="301.1" class="st9" width="56.5" height="144.5"/>
				</g>
				<g>
					<rect x="637.9" y="312.7" class="st6" width="17.7" height="4.8"/>
					<rect x="663.6" y="312.7" class="st6" width="17.7" height="4.8"/>
					<rect x="637.9" y="319.1" class="st6" width="17.7" height="4.8"/>
					<rect x="663.6" y="319.1" class="st6" width="17.7" height="4.8"/>
					<rect x="637.9" y="325.5" class="st6" width="17.7" height="4.8"/>
					<rect x="663.6" y="325.5" class="st6" width="17.7" height="4.8"/>
					<rect x="637.9" y="331.9" class="st6" width="17.7" height="4.8"/>
					<rect x="663.6" y="331.9" class="st6" width="17.7" height="4.8"/>
					<rect x="637.9" y="338.2" class="st6" width="17.7" height="4.8"/>
					<rect x="663.6" y="338.2" class="st6" width="17.7" height="4.8"/>
					<polygon class="st6" points="650.8,344.6 637.9,344.6 637.9,349.5 650.8,349.5 652.8,349.5 655.6,349.5 655.6,344.6 
						652.8,344.6 					"/>
					<polygon class="st6" points="676.6,344.6 663.6,344.6 663.6,349.5 676.6,349.5 678.9,349.5 681.2,349.5 681.2,344.6 
						678.9,344.6 					"/>
					<polygon class="st6" points="650.8,351 637.9,351 637.9,355.9 650.8,355.9 652.8,355.9 655.6,355.9 655.6,351 652.8,351 					
						"/>
					<polygon class="st6" points="676.6,351 663.6,351 663.6,355.9 676.6,355.9 678.9,355.9 681.2,355.9 681.2,351 678.9,351 					
						"/>
					<polygon class="st6" points="650.8,357.4 637.9,357.4 637.9,362.3 650.8,362.3 652.8,362.3 655.6,362.3 655.6,357.4 
						652.8,357.4 					"/>
					<polygon class="st6" points="676.6,357.4 663.6,357.4 663.6,362.3 676.6,362.3 678.9,362.3 681.2,362.3 681.2,357.4 
						678.9,357.4 					"/>
					<polygon class="st6" points="650.8,363.8 637.9,363.8 637.9,368.7 650.8,368.7 652.8,368.7 655.6,368.7 655.6,363.8 
						652.8,363.8 					"/>
					<polygon class="st6" points="676.6,363.8 663.6,363.8 663.6,368.7 676.6,368.7 678.9,368.7 681.2,368.7 681.2,363.8 
						678.9,363.8 					"/>
					<polygon class="st6" points="650.8,370.2 637.9,370.2 637.9,375.1 650.8,375.1 652.8,375.1 655.6,375.1 655.6,370.2 
						652.8,370.2 					"/>
					<polygon class="st6" points="676.6,370.2 663.6,370.2 663.6,375.1 676.6,375.1 678.9,375.1 681.2,375.1 681.2,370.2 
						678.9,370.2 					"/>
					<polygon class="st6" points="650.8,376.6 637.9,376.6 637.9,381.5 650.8,381.5 652.8,381.5 655.6,381.5 655.6,376.6 
						652.8,376.6 					"/>
					<polygon class="st6" points="676.6,376.6 663.6,376.6 663.6,381.5 676.6,381.5 678.9,381.5 681.2,381.5 681.2,376.6 
						678.9,376.6 					"/>
					<polygon class="st6" points="650.8,383 637.9,383 637.9,387.9 650.8,387.9 652.8,387.9 655.6,387.9 655.6,383 652.8,383 					
						"/>
					<polygon class="st6" points="676.6,383 663.6,383 663.6,387.9 676.6,387.9 678.9,387.9 681.2,387.9 681.2,383 678.9,383 					
						"/>
					<polygon class="st6" points="650.8,389.4 637.9,389.4 637.9,394.3 650.8,394.3 652.8,394.3 655.6,394.3 655.6,389.4 
						652.8,389.4 					"/>
					<polygon class="st6" points="676.6,389.4 663.6,389.4 663.6,394.3 676.6,394.3 678.9,394.3 681.2,394.3 681.2,389.4 
						678.9,389.4 					"/>
					<polygon class="st6" points="650.8,395.8 637.9,395.8 637.9,400.7 650.8,400.7 652.8,400.7 655.6,400.7 655.6,395.8 
						652.8,395.8 					"/>
					<polygon class="st6" points="676.6,395.8 663.6,395.8 663.6,400.7 676.6,400.7 678.9,400.7 681.2,400.7 681.2,395.8 
						678.9,395.8 					"/>
					<polygon class="st6" points="650.8,402.2 637.9,402.2 637.9,407.1 650.8,407.1 652.8,407.1 655.6,407.1 655.6,402.2 
						652.8,402.2 					"/>
					<polygon class="st6" points="676.6,402.2 663.6,402.2 663.6,407.1 676.6,407.1 678.9,407.1 681.2,407.1 681.2,402.2 
						678.9,402.2 					"/>
					<polygon class="st6" points="650.8,408.6 637.9,408.6 637.9,413.5 650.8,413.5 652.8,413.5 655.6,413.5 655.6,408.6 
						652.8,408.6 					"/>
					<polygon class="st6" points="676.6,408.6 663.6,408.6 663.6,413.5 676.6,413.5 678.9,413.5 681.2,413.5 681.2,408.6 
						678.9,408.6 					"/>
					<polygon class="st6" points="650.8,415 637.9,415 637.9,419.9 650.8,419.9 652.8,419.9 655.6,419.9 655.6,415 652.8,415 					
						"/>
					<polygon class="st6" points="676.6,415 663.6,415 663.6,419.9 676.6,419.9 678.9,419.9 681.2,419.9 681.2,415 678.9,415 					
						"/>
					<polygon class="st6" points="650.8,421.4 637.9,421.4 637.9,426.2 650.8,426.2 652.8,426.2 655.6,426.2 655.6,421.4 
						652.8,421.4 					"/>
					<polygon class="st6" points="676.6,421.4 663.6,421.4 663.6,426.2 676.6,426.2 678.9,426.2 681.2,426.2 681.2,421.4 
						678.9,421.4 					"/>
				</g>
				<g>
					<rect x="691.4" y="312.7" class="st6" width="11.1" height="4.8"/>
					<rect x="691.4" y="319.1" class="st6" width="11.1" height="4.8"/>
					<rect x="691.4" y="325.5" class="st6" width="11.1" height="4.8"/>
					<rect x="691.4" y="331.9" class="st6" width="11.1" height="4.8"/>
					<rect x="691.4" y="338.2" class="st6" width="11.1" height="4.8"/>
					<rect x="691.4" y="344.6" class="st6" width="11.1" height="4.8"/>
					<rect x="691.4" y="351" class="st6" width="11.1" height="4.8"/>
					<rect x="691.4" y="357.4" class="st6" width="11.1" height="4.8"/>
					<rect x="691.4" y="363.8" class="st6" width="11.1" height="4.8"/>
					<rect x="691.4" y="370.2" class="st6" width="11.1" height="4.8"/>
					<rect x="691.4" y="376.6" class="st6" width="11.1" height="4.8"/>
					<rect x="691.4" y="383" class="st6" width="11.1" height="4.8"/>
					<rect x="691.4" y="389.4" class="st6" width="11.1" height="4.8"/>
					<rect x="691.4" y="395.8" class="st6" width="11.1" height="4.8"/>
					<rect x="691.4" y="402.2" class="st6" width="11.1" height="4.8"/>
					<rect x="691.4" y="408.6" class="st6" width="11.1" height="4.8"/>
					<rect x="691.4" y="415" class="st6" width="11.1" height="4.8"/>
					<rect x="691.4" y="421.4" class="st6" width="11.1" height="4.8"/>
				</g>
			</g>
			<g>
				<g>
					<rect x="519.5" y="228.1" class="st6" width="25.1" height="130.6"/>
					<rect x="480" y="228.1" class="st9" width="39.5" height="130.6"/>
					<g>
						<rect x="480" y="233.4" class="st6" width="39.5" height="6"/>
						<rect x="480" y="243.6" class="st6" width="39.5" height="6"/>
						<rect x="480" y="253.7" class="st6" width="39.5" height="6"/>
						<rect x="480" y="263.9" class="st6" width="39.5" height="6"/>
						<rect x="480" y="274.1" class="st6" width="39.5" height="6"/>
						<rect x="480" y="284.2" class="st6" width="39.5" height="6"/>
						<rect x="480" y="294.4" class="st6" width="39.5" height="6"/>
						<rect x="480" y="304.5" class="st6" width="39.5" height="6"/>
						<rect x="480" y="314.7" class="st6" width="39.5" height="6"/>
						<rect x="480" y="324.8" class="st6" width="39.5" height="6"/>
						<rect x="480" y="335" class="st6" width="39.5" height="6"/>
						<rect x="480" y="345.2" class="st6" width="39.5" height="6"/>
					</g>
					<g>
						<rect x="519.5" y="233.4" class="st10" width="25.1" height="6"/>
						<rect x="519.5" y="243.6" class="st10" width="25.1" height="6"/>
						<rect x="519.5" y="253.7" class="st10" width="25.1" height="6"/>
						<rect x="519.5" y="263.9" class="st10" width="25.1" height="6"/>
						<rect x="519.5" y="274.1" class="st10" width="25.1" height="6"/>
						<rect x="519.5" y="284.2" class="st10" width="25.1" height="6"/>
						<rect x="519.5" y="294.4" class="st10" width="25.1" height="6"/>
						<rect x="519.5" y="304.5" class="st10" width="25.1" height="6"/>
						<rect x="519.5" y="314.7" class="st10" width="25.1" height="6"/>
						<rect x="519.5" y="324.8" class="st10" width="25.1" height="6"/>
						<rect x="519.5" y="335" class="st10" width="25.1" height="6"/>
						<rect x="519.5" y="345.2" class="st10" width="25.1" height="6"/>
					</g>
				</g>
				<rect x="521.1" y="320.2" class="st6" width="30.6" height="125.4"/>
				<rect x="472.8" y="320.2" class="st9" width="48.3" height="125.4"/>
				<g>
					<rect x="472.8" y="325.4" class="st6" width="48.3" height="5.8"/>
					<rect x="472.8" y="335.1" class="st6" width="48.3" height="5.8"/>
					<rect x="472.8" y="344.9" class="st6" width="48.3" height="5.8"/>
					<rect x="472.8" y="354.6" class="st6" width="48.3" height="5.8"/>
					<rect x="472.8" y="364.4" class="st6" width="48.3" height="5.8"/>
					<rect x="472.8" y="374.1" class="st6" width="48.3" height="5.8"/>
					<rect x="472.8" y="383.9" class="st6" width="48.3" height="5.8"/>
					<rect x="472.8" y="393.6" class="st6" width="48.3" height="5.8"/>
					<rect x="472.8" y="403.4" class="st6" width="48.3" height="5.8"/>
					<rect x="472.8" y="413.1" class="st6" width="48.3" height="5.8"/>
					<rect x="472.8" y="422.9" class="st6" width="48.3" height="5.8"/>
					<rect x="472.8" y="432.6" class="st6" width="48.3" height="5.8"/>
				</g>
				<g>
					<rect x="521.1" y="325.4" class="st10" width="30.6" height="5.8"/>
					<rect x="521.1" y="335.1" class="st10" width="30.6" height="5.8"/>
					<rect x="521.1" y="344.9" class="st10" width="30.6" height="5.8"/>
					<rect x="521.1" y="354.6" class="st10" width="30.6" height="5.8"/>
					<rect x="521.1" y="364.4" class="st10" width="30.6" height="5.8"/>
					<rect x="521.1" y="374.1" class="st10" width="30.6" height="5.8"/>
					<rect x="521.1" y="383.9" class="st10" width="30.6" height="5.8"/>
					<rect x="521.1" y="393.6" class="st10" width="30.6" height="5.8"/>
					<rect x="521.1" y="403.4" class="st10" width="30.6" height="5.8"/>
					<rect x="521.1" y="413.1" class="st10" width="30.6" height="5.8"/>
					<rect x="521.1" y="422.9" class="st10" width="30.6" height="5.8"/>
					<rect x="521.1" y="432.6" class="st10" width="30.6" height="5.8"/>
				</g>
				<g>
					<polygon class="st4" points="501.2,210.1 518.5,228.1 544.5,228.1 525.4,210.1 					"/>
					<g>
						<polygon class="st9" points="480,228.1 519.5,228.1 501.2,210.1 						"/>
					</g>
				</g>
			</g>
			<g>
				<g>
					<rect x="756.1" y="242.7" class="st6" width="25.1" height="143.4"/>
					<rect x="716.6" y="242.7" class="st5" width="39.5" height="143.4"/>
					<g>
						<rect x="720.2" y="248.6" class="st6" width="31.3" height="6.6"/>
						<rect x="720.2" y="259.7" class="st6" width="31.3" height="6.6"/>
						<rect x="720.2" y="270.9" class="st6" width="31.3" height="6.6"/>
						<rect x="720.2" y="282" class="st6" width="31.3" height="6.6"/>
						<rect x="720.2" y="293.2" class="st6" width="31.3" height="6.6"/>
						<rect x="720.2" y="304.3" class="st6" width="31.3" height="6.6"/>
						<rect x="720.2" y="315.5" class="st6" width="31.3" height="6.6"/>
						<rect x="720.2" y="326.6" class="st6" width="31.3" height="6.6"/>
						<rect x="720.2" y="337.8" class="st6" width="31.3" height="6.6"/>
						<rect x="720.2" y="348.9" class="st6" width="31.3" height="6.6"/>
						<rect x="720.2" y="360.1" class="st6" width="31.3" height="6.6"/>
						<rect x="720.2" y="371.2" class="st6" width="31.3" height="6.6"/>
					</g>
					<g>
						<rect x="760.4" y="248.6" class="st6" width="16.3" height="6.6"/>
						<rect x="760.4" y="259.7" class="st6" width="16.3" height="6.6"/>
						<rect x="760.4" y="270.9" class="st6" width="16.3" height="6.6"/>
						<rect x="760.4" y="282" class="st6" width="16.3" height="6.6"/>
						<rect x="760.4" y="293.2" class="st6" width="16.3" height="6.6"/>
						<rect x="760.4" y="304.3" class="st6" width="16.3" height="6.6"/>
						<rect x="760.4" y="315.5" class="st6" width="16.3" height="6.6"/>
						<rect x="760.4" y="326.6" class="st6" width="16.3" height="6.6"/>
						<rect x="760.4" y="337.8" class="st6" width="16.3" height="6.6"/>
						<rect x="760.4" y="348.9" class="st6" width="16.3" height="6.6"/>
						<rect x="760.4" y="360.1" class="st6" width="16.3" height="6.6"/>
						<rect x="760.4" y="371.2" class="st6" width="16.3" height="6.6"/>
					</g>
				</g>
				<rect x="757.7" y="308" class="st6" width="30.6" height="137.6"/>
				<rect x="709.4" y="308" class="st5" width="48.3" height="137.6"/>
				<g>
					<rect x="713.2" y="313.6" class="st6" width="40.7" height="6.3"/>
					<rect x="713.2" y="324.3" class="st6" width="40.7" height="6.3"/>
					<rect x="713.2" y="335" class="st6" width="40.7" height="6.3"/>
					<rect x="713.2" y="345.7" class="st6" width="40.7" height="6.3"/>
					<rect x="713.2" y="356.4" class="st6" width="40.7" height="6.3"/>
					<rect x="713.2" y="367.1" class="st6" width="40.7" height="6.3"/>
					<rect x="713.2" y="377.9" class="st6" width="40.7" height="6.3"/>
					<rect x="713.2" y="388.6" class="st6" width="40.7" height="6.3"/>
					<rect x="713.2" y="399.3" class="st6" width="40.7" height="6.3"/>
					<rect x="713.2" y="410" class="st6" width="40.7" height="6.3"/>
					<rect x="713.2" y="420.7" class="st6" width="40.7" height="6.3"/>
					<rect x="713.2" y="431.4" class="st6" width="40.7" height="6.3"/>
				</g>
				<g>
					<rect x="762.3" y="313.6" class="st6" width="22.8" height="6.3"/>
					<rect x="762.3" y="324.3" class="st6" width="22.8" height="6.3"/>
					<rect x="762.3" y="335" class="st6" width="22.8" height="6.3"/>
					<rect x="762.3" y="345.7" class="st6" width="22.8" height="6.3"/>
					<rect x="762.3" y="356.4" class="st6" width="22.8" height="6.3"/>
					<rect x="762.3" y="367.1" class="st6" width="22.8" height="6.3"/>
					<rect x="762.3" y="377.9" class="st6" width="22.8" height="6.3"/>
					<rect x="762.3" y="388.6" class="st6" width="22.8" height="6.3"/>
					<rect x="762.3" y="399.3" class="st6" width="22.8" height="6.3"/>
					<rect x="762.3" y="410" class="st6" width="22.8" height="6.3"/>
					<rect x="762.3" y="420.7" class="st6" width="22.8" height="6.3"/>
					<rect x="762.3" y="431.4" class="st6" width="22.8" height="6.3"/>
				</g>
			</g>
			<g>
				<g>
					<polygon class="st10" points="394,316 394,445.6 442.2,445.6 442.2,316 430.3,313.2 					"/>
					<polygon class="st6" points="442.2,316 442.2,445.6 472.8,445.6 472.8,316 457.7,302.5 					"/>
					<polygon class="st4" points="394,316 398.7,316 442.2,316 457.7,302.5 409.6,302.5 					"/>
				</g>
				<g>
					<rect x="452.1" y="323.4" class="st7" width="12.3" height="14.3"/>
					<rect x="452.1" y="347.3" class="st7" width="12.3" height="14.3"/>
					<rect x="452.1" y="371.1" class="st5" width="12.3" height="14.3"/>
					<rect x="452.1" y="394.9" class="st5" width="12.3" height="14.3"/>
					<rect x="452.1" y="418.8" class="st5" width="12.3" height="14.3"/>
				</g>
				<g>
					<g>
						<rect x="422.5" y="323.4" class="st7" width="12.3" height="14.3"/>
					</g>
					<g>
						<rect x="422.5" y="347.3" class="st7" width="12.3" height="14.3"/>
					</g>
					<g>
						<rect x="422.5" y="371.1" class="st7" width="12.3" height="14.3"/>
					</g>
					<g>
						<rect x="422.5" y="394.9" class="st7" width="12.3" height="14.3"/>
					</g>
					<g>
						<rect x="422.5" y="418.8" class="st7" width="12.3" height="14.3"/>
					</g>
				</g>
				<g>
					<g>
						<rect x="401.1" y="323.4" class="st7" width="12.3" height="14.3"/>
					</g>
					<g>
						<rect x="401.1" y="347.3" class="st7" width="12.3" height="14.3"/>
					</g>
					<g>
						<rect x="401.1" y="371.1" class="st7" width="12.3" height="14.3"/>
					</g>
					<g>
						<rect x="401.1" y="394.9" class="st7" width="12.3" height="14.3"/>
					</g>
					<g>
						<rect x="401.1" y="418.8" class="st7" width="12.3" height="14.3"/>
					</g>
				</g>
			</g>
			<g>
				<rect x="906.3" y="373.5" class="st6" width="39.8" height="72.1"/>
				<polygon class="st10" points="886.8,355 867.2,373.5 867.2,373.5 867.2,445.6 907.7,445.6 907.7,373.5 906.4,373.5 				"/>
				<polygon class="st9" points="880.2,423.7 880.2,439.5 880.2,445.6 896.8,445.6 896.8,439.5 896.8,423.7 896.8,417.5 
					880.2,417.5 				"/>
				<g>
					<g>
						<rect x="927.8" y="388.5" class="st6" width="7.8" height="14.6"/>
						<rect x="917.9" y="388.5" class="st6" width="7.8" height="14.6"/>
					</g>
				</g>
				<g>
					<g>
						<rect x="889.6" y="388.5" class="st6" width="7.8" height="14.6"/>
						<rect x="879.7" y="388.5" class="st6" width="7.8" height="14.6"/>
					</g>
				</g>
				<g>
					<g>
						<rect x="927.8" y="417.5" class="st6" width="7.8" height="14.6"/>
						<rect x="917.9" y="417.5" class="st6" width="7.8" height="14.6"/>
					</g>
				</g>
				<polygon class="st7" points="887.1,352.2 909.8,376.1 946,376.1 946,371.8 925.3,352.2 				"/>
				<polygon class="st7" points="867.2,371.1 867.2,373.5 886.8,355 909.1,376.1 912.3,376.1 887.1,352.2 				"/>
			</g>
		</g>
		<g id="玻璃" class="st11">
			<linearGradient id="SVGID_3_" gradientUnits="userSpaceOnUse" x1="938.1691" y1="-52.028" x2="458.1883" y2="427.9528">
				<stop  offset="0" style="stop-color:#F4FFDB"/>
				<stop  offset="1" style="stop-color:#F4FFDB;stop-opacity:0.1"/>
			</linearGradient>
			<polygon class="st12" points="496.5,457.1 429.1,389.6 905.3,-86.6 972.8,-19.1 			"/>
			<linearGradient id="SVGID_4_" gradientUnits="userSpaceOnUse" x1="965.1321" y1="37.1941" x2="532.2325" y2="470.0937">
				<stop  offset="0" style="stop-color:#F4FFDB"/>
				<stop  offset="1" style="stop-color:#F4FFDB;stop-opacity:0.1"/>
			</linearGradient>
			<polygon class="st13" points="547.5,477.1 527,455.2 954.8,25.3 975.3,47.2 			"/>
		</g>
	</g>
	<g id="window_1_" class="st0">
		<g id="window">
			<path d="M927-1.3V421H413V-1.3H927 M939-13.3H401V433H939V-13.3L939-13.3z"/>
		</g>
		<g>
			<line class="st14" x1="670" y1="423.1" x2="670" y2="-12.5"/>
		</g>
	</g>
	<g id="地板_1_" class="st0">
		<linearGradient id="地板_2_" gradientUnits="userSpaceOnUse" x1="500" y1="1024" x2="500" y2="432.0445">
			<stop  offset="0.8921" style="stop-color:#AAC79F"/>
			<stop  offset="1" style="stop-color:#CBD1CA"/>
		</linearGradient>
		<rect id="地板" x="-12" y="432" class="st15" width="1024" height="592"/>
		<linearGradient id="SVGID_5_" gradientUnits="userSpaceOnUse" x1="-65.6095" y1="653.7514" x2="178" y2="653.7514">
			<stop  offset="0" style="stop-color:#61AD95"/>
			<stop  offset="0.4291" style="stop-color:#5FAA97"/>
			<stop  offset="0.6871" style="stop-color:#58A29C"/>
			<stop  offset="0.8991" style="stop-color:#4C94A6"/>
			<stop  offset="1" style="stop-color:#448AAD"/>
		</linearGradient>
		<path class="st16" d="M-62,877.5L-12,430l190,2C131.5,422.6-96.9,835.8-62,877.5z"/>
		<linearGradient id="SVGID_6_" gradientUnits="userSpaceOnUse" x1="822" y1="653.7514" x2="1063.2605" y2="653.7514">
			<stop  offset="0" style="stop-color:#61AD95"/>
			<stop  offset="0.4291" style="stop-color:#5FAA97"/>
			<stop  offset="0.6871" style="stop-color:#58A29C"/>
			<stop  offset="0.8991" style="stop-color:#4C94A6"/>
			<stop  offset="1" style="stop-color:#448AAD"/>
		</linearGradient>
		<path class="st17" d="M1062,877.5L1012,430l-190,2C862.8,430,1081.8,848.2,1062,877.5z"/>
	</g>
	<g id="盆栽" class="st0">
		<g id="花">
			<g>
				<linearGradient id="SVGID_7_" gradientUnits="userSpaceOnUse" x1="908.2629" y1="205.5959" x2="912.2012" y2="267.2124">
					<stop  offset="0.214" style="stop-color:#005700"/>
					<stop  offset="0.2903" style="stop-color:#026002"/>
					<stop  offset="0.4752" style="stop-color:#076F07"/>
					<stop  offset="0.6896" style="stop-color:#097809"/>
					<stop  offset="1" style="stop-color:#0A7B0A"/>
				</linearGradient>
				<path class="st18" d="M909.4,197.8c0-1.3-1.1-2.5-2.4-2.5c0,0,0,0-0.1,0c-1.3,0-2.4,1.1-2.3,2.4c0.3,11,1.7,51.2,7,103.2
					c1.3,12.8,2.7,24.6,4.2,37.1h4.8C913.6,282.8,910.3,228,909.4,197.8z"/>
				<path class="st19" d="M909.1,246.8c0,0,11.3-35.5,22.1-29C942,224.2,909.1,246.8,909.1,246.8L909.1,246.8z"/>
				<linearGradient id="SVGID_8_" gradientUnits="userSpaceOnUse" x1="913.3771" y1="271.0229" x2="947.2969" y2="271.0229">
					<stop  offset="0" style="stop-color:#005700"/>
					<stop  offset="0.3292" style="stop-color:#056A05"/>
					<stop  offset="0.6702" style="stop-color:#097709"/>
					<stop  offset="1" style="stop-color:#0A7B0A"/>
				</linearGradient>
				<path class="st20" d="M913.4,289.8c0,0,19.6-48.3,31.3-35.2C958.4,269.8,913.4,289.8,913.4,289.8L913.4,289.8z"/>
				<path class="st19" d="M916,324.8c0,0-16.5-41.2-26.7-23.1C880.8,316.7,916,324.8,916,324.8L916,324.8z"/>
				<path class="st19" d="M946.4,304.6c-13.1-8.5-20.1,15.6-23.3,33.5h12.1C945.3,325.9,955.7,310.6,946.4,304.6z"/>
				<linearGradient id="SVGID_9_" gradientUnits="userSpaceOnUse" x1="885.7889" y1="247.3901" x2="912.3173" y2="265.0945">
					<stop  offset="0.214" style="stop-color:#005700"/>
					<stop  offset="0.2903" style="stop-color:#026002"/>
					<stop  offset="0.4752" style="stop-color:#076F07"/>
					<stop  offset="0.6896" style="stop-color:#097809"/>
					<stop  offset="1" style="stop-color:#0A7B0A"/>
				</linearGradient>
				<polygon class="st21" points="883.7,242.6 880.9,246.7 909.9,266.9 912.8,262.8 				"/>
				<path class="st19" d="M904.7,260.2c0,0-17,1.2-19.8,5.5c-2.8,4.3,2.8,7.2,7,5.1C896.2,268.8,904.7,260.2,904.7,260.2
					L904.7,260.2z"/>
			</g>
			<radialGradient id="SVGID_10_" cx="882.3029" cy="244.6521" r="23.9897" gradientUnits="userSpaceOnUse">
				<stop  offset="5.000000e-02" style="stop-color:#F5970A"/>
				<stop  offset="6.830548e-02" style="stop-color:#F6A11E"/>
				<stop  offset="0.1109" style="stop-color:#F8B447"/>
				<stop  offset="0.1587" style="stop-color:#F9C66D"/>
				<stop  offset="0.2108" style="stop-color:#FAD58D"/>
				<stop  offset="0.2684" style="stop-color:#FCE2A9"/>
				<stop  offset="0.3333" style="stop-color:#FCECBF"/>
				<stop  offset="0.4092" style="stop-color:#FDF4CF"/>
				<stop  offset="0.5031" style="stop-color:#FEFADB"/>
				<stop  offset="0.6347" style="stop-color:#FEFDE2"/>
				<stop  offset="1" style="stop-color:#FEFEE4"/>
			</radialGradient>
			<path class="st22" d="M894,241.9c17.3,3.8,15.9,11.4-1.5,9.1c9.8,14.5,3.8,19.2-7.4,5.4c-3.8,17.3-11.4,15.9-9.1-1.5
				c-14.5,9.8-19.2,3.8-5.4-7.4c-17.3-3.8-15.9-11.4,1.5-9.1c-9.8-14.5-3.8-19.2,7.4-5.4c3.8-17.3,11.4-15.9,9.1,1.5
				C903.1,224.6,907.8,230.7,894,241.9z"/>
			<circle class="st23" cx="882.3" cy="244.7" r="6.4"/>
			<g>
				<path class="st24" d="M909.7,323.8c0-0.3-0.1-0.6-0.1-0.9c-0.1,0-0.3-0.1-0.4-0.1C909.4,323.1,909.5,323.5,909.7,323.8z"/>
			</g>
			<radialGradient id="SVGID_11_" cx="907.3029" cy="196.6521" r="29.3349" gradientUnits="userSpaceOnUse">
				<stop  offset="5.000000e-02" style="stop-color:#F5BC0A"/>
				<stop  offset="6.830548e-02" style="stop-color:#F6C21E"/>
				<stop  offset="0.1109" style="stop-color:#F8CF47"/>
				<stop  offset="0.1587" style="stop-color:#F9DA6D"/>
				<stop  offset="0.2108" style="stop-color:#FAE48D"/>
				<stop  offset="0.2684" style="stop-color:#FCECA9"/>
				<stop  offset="0.3333" style="stop-color:#FCF3BF"/>
				<stop  offset="0.4092" style="stop-color:#FDF8CF"/>
				<stop  offset="0.5031" style="stop-color:#FEFBDB"/>
				<stop  offset="0.6347" style="stop-color:#FEFDE2"/>
				<stop  offset="1" style="stop-color:#FEFEE4"/>
			</radialGradient>
			<path class="st25" d="M919.8,196.7c25,10.4,20.8,19.7-3.7,8.8c10.9,24.5,1.5,28.7-8.8,3.7c-10.4,25-19.7,20.8-8.8-3.7
				c-24.5,10.9-28.7,1.5-3.7-8.8c-25-10.4-20.8-19.7,3.7-8.8c-10.9-24.5-1.5-28.7,8.8-3.7c10.4-25,19.7-20.8,8.8,3.7
				C940.6,176.9,944.8,186.3,919.8,196.7z"/>
			<circle class="st26" cx="907.3" cy="196.7" r="8"/>
		</g>
		<path class="st27" d="M965.6,345.9h-96c-1.1,0-2-0.9-2-2v-11.6c0-1.1,0.9-2,2-2h96c1.1,0,2,0.9,2,2v11.6
			C967.6,345,966.7,345.9,965.6,345.9z"/>
		<linearGradient id="SVGID_12_" gradientUnits="userSpaceOnUse" x1="917.6386" y1="343.8221" x2="917.6386" y2="438.9906">
			<stop  offset="0" style="stop-color:#784848"/>
			<stop  offset="0.1244" style="stop-color:#855047"/>
			<stop  offset="0.3309" style="stop-color:#935847"/>
			<stop  offset="0.5822" style="stop-color:#9B5D46"/>
			<stop  offset="1" style="stop-color:#9E5F46"/>
		</linearGradient>
		<polygon class="st28" points="942.6,439 892.6,439 877.6,343.8 957.6,343.8 		"/>
	</g>
	<g id="視力表" class="st0">
		<g>
			<g>
				<rect x="18.9" y="64.1" class="st29" width="98.8" height="141.3"/>
			</g>
		</g>
		<g>
			<g>
				<g>
					<g>
						<path d="M63.5,126.4l-1.5-1.5c1-1,1.5-2.3,1.5-3.7c0-1.4-0.5-2.7-1.5-3.7c-2-2-5.5-2-7.4,0c-1,1-1.5,2.3-1.5,3.7
							c0,1.4,0.5,2.7,1.5,3.7l-1.5,1.5c-1.4-1.4-2.2-3.3-2.2-5.2c0-2,0.8-3.8,2.2-5.2c2.8-2.8,7.7-2.8,10.5,0
							c1.4,1.4,2.2,3.3,2.2,5.2C65.7,123.2,64.9,125,63.5,126.4z"/>
					</g>
				</g>
				<g>
					<g>
						<path d="M70.4,101.7c-2.4,0-4.8-0.9-6.6-2.7c-3.6-3.6-3.6-9.6,0-13.2c3.6-3.6,9.6-3.6,13.2,0l-1.9,1.9c-2.6-2.6-6.8-2.6-9.3,0
							c-1.2,1.2-1.9,2.9-1.9,4.7s0.7,3.4,1.9,4.7c2.6,2.6,6.8,2.6,9.3,0L77,99C75.2,100.8,72.8,101.7,70.4,101.7z"/>
					</g>
				</g>
				<g>
					<g>
						<path d="M48.6,97.4h-7.5l-1.9,4.2h-2.8L45,83.1l8.3,18.5h-2.9L48.6,97.4z M47.5,95L44.9,89L42.2,95H47.5z"/>
					</g>
				</g>
				<g>
					<g>
						<path d="M72.1,127.6v-14.6h3.1c1.5,0,2.6,0.1,3.5,0.4c0.9,0.3,1.7,0.8,2.5,1.5c1.5,1.4,2.3,3.2,2.3,5.4c0,2.3-0.8,4.1-2.4,5.5
							c-0.8,0.7-1.6,1.2-2.5,1.5c-0.8,0.3-2,0.4-3.4,0.4H72.1z M74.3,125.5h1c1,0,1.8-0.1,2.5-0.3c0.7-0.2,1.3-0.6,1.8-1.1
							c1.1-1,1.6-2.3,1.6-3.9c0-1.6-0.5-2.9-1.6-3.9c-1-0.9-2.4-1.3-4.3-1.3h-1V125.5z"/>
					</g>
				</g>
				<g>
					<g>
						<path d="M43.6,115h-5.1v3.5h4.9v2.1h-4.9v7h-2.2v-14.6h7.3V115z"/>
					</g>
				</g>
				<g>
					<g>
						<path d="M96.4,112.6l1.6,1.2l-3.5,4.8c0.2,0,0.4,0,0.5-0.1c0.1,0,0.2,0,0.3,0c1.2,0,2.2,0.5,3.1,1.4c0.9,0.9,1.3,2,1.3,3.2
							c0,1.3-0.5,2.5-1.4,3.5c-1,1-2.1,1.4-3.4,1.4c-1.3,0-2.5-0.5-3.5-1.4c-1-0.9-1.5-2.1-1.5-3.3c0-1.2,0.5-2.4,1.4-3.7
							L96.4,112.6z M97.6,123.2c0-0.8-0.3-1.4-0.8-2c-0.5-0.5-1.2-0.8-2-0.8c-0.8,0-1.4,0.3-2,0.8s-0.8,1.2-0.8,2
							c0,0.8,0.3,1.4,0.8,2s1.2,0.8,2,0.8c0.8,0,1.4-0.3,1.9-0.8C97.3,124.6,97.6,123.9,97.6,123.2z"/>
					</g>
				</g>
				<g>
					<g>
						<path d="M95.3,85.9h-8.6v-2.5h13l-11,18l-2.1-1.3L95.3,85.9z"/>
					</g>
				</g>
			</g>
			<g>
				<g>
					<g>
						<path d="M58.6,172.4c-1,0-1.9-0.4-2.7-1.1c-1.5-1.5-1.5-3.9,0-5.3l0.7,0.7c-0.5,0.5-0.8,1.2-0.8,2c0,0.7,0.3,1.4,0.8,2
							c1.1,1.1,2.9,1.1,3.9,0c0.5-0.5,0.8-1.2,0.8-2c0-0.7-0.3-1.4-0.8-2l0.7-0.7c0.7,0.7,1.1,1.7,1.1,2.7s-0.4,2-1.1,2.7
							C60.5,172,59.5,172.4,58.6,172.4z"/>
					</g>
				</g>
				<g>
					<g>
						<path d="M58,157.2c-1.5,0-2.9-0.6-4-1.7l1.1-1c1.6,1.6,4.3,1.6,5.9,0c1.6-1.6,1.6-4.2,0-5.9c-1.6-1.6-4.2-1.6-5.9,0l-1.1-1
							c2.2-2.2,5.8-2.2,8,0c2.2,2.2,2.2,5.8,0,8C60.9,156.6,59.5,157.2,58,157.2z"/>
					</g>
				</g>
				<g>
					<g>
						<path d="M59,186c-0.8,0-1.5-0.3-2-0.8c-0.5-0.5-0.8-1.3-0.8-2c0-0.8,0.3-1.5,0.8-2c1.1-1.1,3-1.1,4.1,0l-0.5,0.5
							c-0.8-0.8-2.2-0.8-3,0c-0.4,0.4-0.6,0.9-0.6,1.5c0,0.6,0.2,1.1,0.6,1.5c0.8,0.8,2.2,0.8,3,0l0.5,0.5
							C60.5,185.7,59.7,186,59,186z"/>
					</g>
				</g>
				<g>
					<g>
						<path d="M42,181h-2.5v1.5h2.4v0.9h-2.4v2.1H42v0.9h-3.4v-6.2H42V181z"/>
					</g>
				</g>
				<g>
					<g>
						<path d="M79.4,168.8h3v0.2c0,0.5-0.1,1-0.2,1.4c-0.1,0.4-0.3,0.7-0.6,1.1c-0.7,0.8-1.5,1.1-2.5,1.1c-1,0-1.9-0.4-2.6-1.1
							c-0.7-0.7-1.1-1.6-1.1-2.6c0-1,0.4-1.9,1.1-2.7c0.7-0.7,1.6-1.1,2.7-1.1c0.6,0,1.1,0.1,1.6,0.3c0.5,0.2,0.9,0.6,1.4,1.1
							l-0.8,0.7c-0.6-0.8-1.3-1.2-2.2-1.2c-0.8,0-1.4,0.3-1.9,0.8c-0.5,0.5-0.8,1.2-0.8,1.9c0,0.8,0.3,1.5,0.9,2
							c0.5,0.5,1.1,0.7,1.7,0.7c0.5,0,1-0.2,1.4-0.5c0.4-0.4,0.7-0.8,0.7-1.3h-1.8V168.8z"/>
					</g>
				</g>
				<g>
					<g>
						<path d="M92.5,150.3h5v-4.6h1.8v11.7h-1.8V152h-5v5.5h-1.8v-11.7h1.8V150.3z"/>
					</g>
				</g>
				<g>
					<g>
						<path d="M94.6,183.6l-2-3.5h1.1l1.4,2.5l1.4-2.5h1.1l-2,3.5v2.7h-0.9V183.6z"/>
					</g>
				</g>
				<g>
					<g>
						<path d="M41.1,147.4v10h-1.8v-10h-2.7v-1.7h7.1v1.7H41.1z"/>
					</g>
				</g>
				<g>
					<g>
						<path d="M40,171.6h2.7v1h-4.8l2.5-3c0.2-0.3,0.5-0.6,0.6-0.8c0.2-0.2,0.3-0.4,0.4-0.6c0.2-0.3,0.3-0.6,0.3-0.8
							c0-0.3-0.1-0.6-0.4-0.8c-0.2-0.2-0.5-0.3-0.9-0.3c-0.7,0-1.1,0.4-1.2,1.3H38c0.2-1.5,0.9-2.3,2.3-2.3c0.7,0,1.2,0.2,1.6,0.6
							c0.4,0.4,0.7,0.9,0.7,1.5c0,0.4-0.1,0.8-0.3,1.2c-0.1,0.2-0.3,0.4-0.5,0.7c-0.2,0.3-0.5,0.6-0.8,1L40,171.6z"/>
					</g>
				</g>
				<g>
					<g>
						<path d="M78.5,152v-1.5c0.7,0,1.2-0.1,1.5-0.3c0.5-0.3,0.7-0.8,0.7-1.4c0-0.5-0.2-0.9-0.5-1.2c-0.3-0.3-0.8-0.5-1.3-0.5
							c-0.5,0-0.9,0.1-1.1,0.4c-0.3,0.2-0.4,0.7-0.6,1.2h-1.8c0.2-1.1,0.6-1.9,1.1-2.4c0.6-0.5,1.4-0.8,2.4-0.8c1,0,1.9,0.3,2.5,0.9
							c0.6,0.6,1,1.4,1,2.3c0,1.1-0.4,1.9-1.3,2.5c1,0.6,1.5,1.5,1.5,2.8c0,1.1-0.4,1.9-1.1,2.6s-1.6,1-2.7,1
							c-1.4,0-2.5-0.5-3.1-1.6c-0.3-0.4-0.5-1-0.5-1.8h1.7c0.1,0.6,0.3,1,0.7,1.3c0.4,0.3,0.8,0.5,1.4,0.5c0.6,0,1-0.2,1.4-0.6
							c0.4-0.4,0.6-0.9,0.6-1.5c0-0.8-0.3-1.3-0.8-1.7C79.7,152.1,79.2,152,78.5,152z"/>
					</g>
				</g>
				<g>
					<g>
						<path d="M93.8,168.9c-0.5-0.4-0.8-0.9-0.8-1.5c0-0.6,0.2-1.1,0.6-1.5c0.4-0.4,0.9-0.6,1.5-0.6c0.6,0,1.1,0.2,1.5,0.6
							c0.4,0.4,0.6,0.9,0.6,1.5c0,0.6-0.3,1.1-0.8,1.5c0.3,0.2,0.5,0.4,0.7,0.7c0.2,0.3,0.3,0.6,0.3,1c0,0.6-0.2,1.2-0.6,1.6
							c-0.4,0.4-0.9,0.6-1.6,0.6c-0.7,0-1.2-0.2-1.6-0.6c-0.4-0.4-0.7-0.9-0.7-1.5C92.8,169.7,93.1,169.2,93.8,168.9z M93.9,170.5
							c0,0.3,0.1,0.6,0.3,0.9c0.2,0.2,0.5,0.4,0.8,0.4c0.3,0,0.6-0.1,0.8-0.3c0.2-0.2,0.3-0.5,0.3-0.8c0-0.3-0.1-0.6-0.3-0.8
							c-0.2-0.2-0.5-0.3-0.8-0.3c-0.3,0-0.6,0.1-0.8,0.3C94,169.9,93.9,170.2,93.9,170.5z M94,167.3c0,0.3,0.1,0.6,0.3,0.8
							c0.2,0.2,0.5,0.3,0.8,0.3c0.3,0,0.5-0.1,0.8-0.3c0.2-0.2,0.3-0.5,0.3-0.8s-0.1-0.5-0.3-0.8c-0.2-0.2-0.5-0.3-0.8-0.3
							c-0.3,0-0.5,0.1-0.8,0.3C94.1,166.8,94,167,94,167.3z"/>
					</g>
				</g>
				<g>
					<g>
						<path d="M78.2,186.4l-0.7-0.5l1.5-2c-0.1,0-0.1,0-0.2,0c-0.1,0-0.1,0-0.1,0c-0.5,0-0.9-0.2-1.3-0.6c-0.4-0.4-0.5-0.8-0.5-1.4
							c0-0.6,0.2-1.1,0.6-1.5c0.4-0.4,0.9-0.6,1.5-0.6c0.6,0,1,0.2,1.5,0.6c0.4,0.4,0.6,0.9,0.6,1.4c0,0.5-0.2,1-0.6,1.6L78.2,186.4
							z M77.7,181.9c0,0.3,0.1,0.6,0.3,0.8c0.2,0.2,0.5,0.3,0.8,0.3c0.3,0,0.6-0.1,0.8-0.3c0.2-0.2,0.3-0.5,0.3-0.8
							c0-0.3-0.1-0.6-0.3-0.8c-0.2-0.2-0.5-0.3-0.8-0.3c-0.3,0-0.6,0.1-0.8,0.3C77.8,181.3,77.7,181.6,77.7,181.9z"/>
					</g>
				</g>
			</g>
			<g>
				<g>
					<rect x="30.4" y="136.2" width="75.2" height="0.7"/>
				</g>
			</g>
		</g>
	</g>
	<g id="床_1_" class="st0">
		<g id="點滴">
			<path class="st30" d="M388.9,213.7c0,25.5,15.6,60.2-2.8,80.2c-18.3,19.9-76.6,23.8-84.1,69.3"/>
			<g class="st31">
				<g>
					<path class="st32" d="M369.7,167.1v42.3c0,2.5,2,4.4,4.4,4.4h10.3v7.9h7.9v-7.9h10.3c2.5,0,4.4-2,4.4-4.4v-42.3
						c0-2.5-2-4.4-4.4-4.4h-28.5C371.7,162.7,369.7,164.6,369.7,167.1z"/>
				</g>
			</g>
			<g>
				<g>
					
						<rect x="330.1" y="155.3" transform="matrix(-1 -1.224647e-16 1.224647e-16 -1 670.2532 671.4855)" class="st33" width="10" height="360.9"/>
				</g>
				<g>
					<path class="st34" d="M297.1,534c6.9,0,12.4-5.6,12.4-12.4h-24.9C284.7,528.4,290.3,534,297.1,534z"/>
					<path class="st34" d="M360.7,521.6c0,6.9,5.6,12.4,12.4,12.4c6.9,0,12.4-5.6,12.4-12.4H360.7z"/>
					<path class="st35" d="M373.1,506.1h-76c-6.9,0-12.4,8.7-12.4,15.5h24.9h51.2h24.9C385.6,514.7,380,506.1,373.1,506.1z"/>
				</g>
			</g>
			<g>
				<g>
					<path class="st33" d="M388.7,166.6c-6.3,0-11.7-4.4-13.1-10.3h-80.9c-1.4,5.9-6.8,10.3-13.1,10.3c-7.4,0-13.5-7.2-13.5-14.6
						h7.5c0,3.9,2.1,7.1,6,7.1c3.9,0,6-2.1,6-6v-4.3h95.2v4.3c0,3.9,2.1,6,6,6c3.9,0,6-3.2,6-7.1h7.5
						C402.2,159.4,396.1,166.6,388.7,166.6z"/>
				</g>
			</g>
			<g>
				<g>
					<path class="st36" d="M401,209.8h-25.1c-1.1,0-2-0.9-2-2v-17.3H403v17.3C403,208.9,402.1,209.8,401,209.8z"/>
				</g>
			</g>
		</g>
		<g id="病床">
			<g>
				<rect x="102.4" y="419.8" class="st37" width="479.1" height="33.7"/>
			</g>
			<path class="st33" d="M227.3,484.7H102.4v-21.4h124.9V484.7z M92.5,285.7v172.7v51.3c1.6-0.5,3.2-0.8,4.9-0.8
				c1.7,0,3.4,0.3,4.9,0.8v-15.1h124.9v15.1c1.6-0.5,3.2-0.8,4.9-0.8c1.7,0,3.4,0.3,4.9,0.8v-46.4h209.5v-9.9H101.3v-46.1v-15.1
				h63.5h63.5v15.1c1.4-0.5,2.8-0.8,4.4-0.8c1.5,0,3,0.3,4.4,0.8V361v-9.9v-33.7V282c0-8.8-1.9-17.1-5.3-24.4
				c-7.8-16.7-23.3-28.2-41.2-28.2h-25.7h-25.7c-17.9,0-33.4,11.5-41.2,28.2c-3.4,7.3-5.3,15.6-5.3,24.4v35.5v33.7v9.9 M169,239.3
				h21.5c0.7,0,1.3,0.1,2,0.1v31.7v46.3v33.7H169V239.3z M137.1,317.4v-46.3v-31.7c0.7,0,1.3-0.1,2-0.1h21.5v111.9h-23.5V317.4z
				 M101.3,317.4V282c0-9,2.5-17.2,6.7-24.1c4.9-8,12-14,20.4-16.8v23.5v52.9v33.7h-27.1V317.4z M228.4,382.4h-63.5h-63.5V361h63.5
				h63.5V382.4z M228.4,317.4v33.7h-27.1v-33.7v-52.9V241c8.4,2.8,15.6,8.9,20.4,16.8c4.2,6.9,6.7,15.2,6.7,24.1V317.4z"/>
			<g id="枕頭">
				<path class="st38" d="M211.7,243.9v35.7h15.6v-15.1C227.3,254.8,220.7,246.5,211.7,243.9z"/>
				<path class="st38" d="M145.1,243c-0.8,0-1.5,0.1-2.2,0.1v36.6h26.5V243H145.1z"/>
				<path class="st38" d="M102.4,285.7v10.4c0-9.1,7.4-16.4,16.4-16.4H133v-34.9C115.3,250,102.4,266.4,102.4,285.7z"/>
				<rect x="179.2" y="243" class="st38" width="22.6" height="36.7"/>
				<path class="st39" d="M253,313.1c-7.4-9.2-14.7-8.2-26.9-14.4c-50.6-25.9-112.4-5.2-124.8,19.6
					c-23.8,47.3,12.2,101.5,12.2,101.5h122c8.4,0,15.3-7.3,15.3-16.4C250.7,403.4,266.9,330.3,253,313.1z"/>
			</g>
			<g id="床">
				<path class="st38" d="M487.1,343.4c-9.5,2.8-17.6,8.9-23.1,16.8c8.3,0.7,16.1,3,23.1,6.7V343.4z"/>
				<path class="st38" d="M519,419.8h-22v33.7h26.5V341.6h-24.3c-0.8,0-1.5,0.1-2.2,0.1v31.7C510.4,384.4,519,401.1,519,419.8z"/>
				<rect x="533.4" y="341.6" class="st38" width="22.6" height="111.9"/>
				<rect x="456.5" y="419.8" class="st38" width="30.6" height="33.7"/>
				<rect x="456.5" y="463.4" class="st38" width="124.9" height="21.4"/>
				<path class="st38" d="M565.8,342.6v110.9h15.6v-90.3C581.5,353.4,574.8,345.2,565.8,342.6z"/>
				<g>
					<g>
						<polygon class="st40" points="148.9,419.8 148.9,419.8 148.9,419.8 						"/>
					</g>
					<path class="st41" d="M493.5,353.3H457h15.5h-77.4H233.4H197c-33.3,0-60.2,20.7-60.2,46.2v20.3h0h105.4h250.6h61h0v-20.3
						C553.7,374,526.7,353.3,493.5,353.3z"/>
				</g>
			</g>
			<g>
				<g>
					<path class="st35" d="M102.4,509.7c-1.6-0.5-3.2-0.8-4.9-0.8c-1.7,0-3.4,0.3-4.9,0.8C85.8,511.9,81,518,81,525.4
						c0,9.1,7.4,16.4,16.4,16.4c9.1,0,16.4-7.4,16.4-16.4C113.9,518,109,511.9,102.4,509.7z"/>
					<path class="st35" d="M237.2,509.7c-1.6-0.5-3.2-0.8-4.9-0.8c-1.7,0-3.4,0.3-4.9,0.8c-6.7,2.1-11.5,8.3-11.5,15.6
						c0,9.1,7.4,16.4,16.4,16.4s16.4-7.4,16.4-16.4C248.7,518,243.8,511.9,237.2,509.7z"/>
				</g>
				<g>
					<path class="st42" d="M237.8,525.4c0,3.1-2.5,5.6-5.6,5.6s-5.6-2.5-5.6-5.6s2.5-5.6,5.6-5.6S237.8,522.3,237.8,525.4z"/>
				</g>
			</g>
			<path class="st35" d="M456.5,509.7c-1.6-0.5-3.2-0.8-4.9-0.8c-1.7,0-3.4,0.3-4.9,0.8c-6.7,2.1-11.5,8.3-11.5,15.6
				c0,9.1,7.4,16.4,16.4,16.4c9.1,0,16.4-7.4,16.4-16.4C468,518,463.2,511.9,456.5,509.7z"/>
			<g>
				<path class="st42" d="M103,525.4c0,3.1-2.5,5.6-5.6,5.6c-3.1,0-5.6-2.5-5.6-5.6s2.5-5.6,5.6-5.6
					C100.5,519.8,103,522.3,103,525.4z"/>
			</g>
			<g>
				<path class="st42" d="M457.1,525.4c0,3.1-2.5,5.6-5.6,5.6c-3.1,0-5.6-2.5-5.6-5.6c0-3.1,2.5-5.6,5.6-5.6
					C454.6,519.8,457.1,522.3,457.1,525.4z"/>
			</g>
			<rect x="456.5" y="463.4" class="st38" width="124.9" height="21.4"/>
			<path class="st38" d="M565.8,342.6v110.9h15.6v-90.3C581.5,353.4,574.8,345.2,565.8,342.6z"/>
			<rect x="533.4" y="341.6" class="st38" width="22.6" height="111.9"/>
			<rect x="456.5" y="463.4" class="st38" width="124.9" height="21.4"/>
			<rect x="533.4" y="341.6" class="st38" width="22.6" height="111.9"/>
			<path class="st38" d="M565.8,342.6v110.9h15.6v-90.3C581.5,353.4,574.8,345.2,565.8,342.6z"/>
			<path class="st35" d="M591.3,509.7v15.6c0,2.7-2.2,4.9-4.9,4.9c-2.7,0-4.9-2.2-4.9-4.9v-15.6c-6.7,2.1-11.5,8.3-11.5,15.6
				c0,9.1,7.4,16.4,16.4,16.4c9.1,0,16.4-7.4,16.4-16.4C602.8,518,598,511.9,591.3,509.7z"/>
			<path class="st35" d="M586.4,530.3c2.7,0,4.9-2.2,4.9-4.9v-15.6c-1.6-0.5-3.2-0.8-4.9-0.8c-1.7,0-3.4,0.3-4.9,0.8v15.6
				C581.5,528.1,583.7,530.3,586.4,530.3z"/>
			<g>
				<path class="st42" d="M591.9,525.4c0,3.1-2.5,5.6-5.6,5.6s-5.6-2.5-5.6-5.6c0-3.1,2.5-5.6,5.6-5.6S591.9,522.3,591.9,525.4z"/>
			</g>
			<path id="床架" class="st33" d="M586,360c-7.8-16.7-23.3-28.2-41.2-28.2h-25.7h-25.7c-17.9,0-33.4,11.5-41.2,28.2
				c-3.4,7.3-5.3,15.6-5.3,24.4v35.5v33.7v9.9v46.4c1.4-0.5,2.8-0.8,4.4-0.8c1.5,0,3,0.3,4.4,0.8v-15.1h63.5h63.5v15.1
				c1.4-0.5,2.8-0.8,4.4-0.8c1.5,0,3,0.3,4.4,0.8v-46.4v-9.9v-33.7v-35.5C591.3,375.5,589.4,367.3,586,360z M523.3,341.6h21.5
				c0.7,0,1.3,0.1,2,0.1v31.7v46.3v33.7h-23.5V341.6z M491.4,419.8v-46.3v-31.7c0.7,0,1.3-0.1,2-0.1h21.5v111.9h-23.5V419.8z
				 M455.5,419.8v-35.5c0-8.9,2.5-17.2,6.7-24.1c4.9-8,12-14,20.4-16.8v23.5v52.9v33.7h-27.1V419.8z M582.6,484.7h-63.5h-63.5v-21.4
				h63.5h63.5V484.7z M582.6,419.8v33.7h-27.1v-33.7v-52.9v-23.5c8.4,2.8,15.6,8.9,20.4,16.8c4.2,6.9,6.7,15.2,6.7,24.1V419.8z"/>
		</g>
	</g>
</g>
</svg>
