<?xml version="1.0" encoding="utf-8"?>
<!-- Generator: Adobe Illustrator 24.3.0, SVG Export Plug-In . SVG Version: 6.00 Build 0)  -->
<svg version="1.1" id="_x31_" xmlns="http://www.w3.org/2000/svg" xmlns:xlink="http://www.w3.org/1999/xlink" x="0px" y="0px"
	 viewBox="0 0 523.2 577.1" style="enable-background:new 0 0 523.2 577.1;" xml:space="preserve">
<style type="text/css">
	.st0{opacity:0.8;}
	.st1{fill:#F0867A;}
	.st2{fill:#595959;}
	.st3{fill:#AAAAAA;}
	.st4{fill:#D3D3D3;}
	.st5{fill:#F7E7D6;}
	.st6{fill:#A54038;}
	.st7{fill:url(#XMLID_4_);}
	.st8{fill:#4C4C4C;}
	.st9{fill:#FFCD85;}
	.st10{fill:#DD544A;}
	.st11{fill:#818181;}
	.st12{fill:#747474;}
	.st13{fill:#C7C7C7;}
	.st14{opacity:0.35;fill:#FFFFFF;}
	.st15{opacity:0.7;fill:#FFFFFF;}
	.st16{opacity:0.8;fill:#FFFFFF;}
	.st17{fill:#606060;}
	.st18{opacity:0.6;fill:#FFFFFF;}
	.st19{clip-path:url(#SVGID_2_);fill:#E0B190;}
	.st20{clip-path:url(#SVGID_2_);fill:#D88A4B;}
	.st21{clip-path:url(#SVGID_2_);}
	.st22{clip-path:url(#SVGID_2_);fill:#E5D5C5;}
	.st23{clip-path:url(#SVGID_2_);fill:#E0A469;}
	.st24{clip-path:url(#SVGID_2_);fill:#544B47;}
	.st25{clip-path:url(#SVGID_2_);fill:#CB783C;}
	.st26{clip-path:url(#SVGID_2_);fill:#383532;}
	.st27{clip-path:url(#SVGID_2_);fill:#D0BFAD;}
	.st28{clip-path:url(#SVGID_2_);fill:#FFFFFF;}
	.st29{clip-path:url(#SVGID_2_);fill:#24211F;}
	.st30{clip-path:url(#SVGID_2_);fill:#263C5B;}
	.st31{clip-path:url(#SVGID_2_);fill:#5F554E;}
	.st32{clip-path:url(#SVGID_2_);fill:#A45E29;}
	.st33{clip-path:url(#SVGID_2_);fill:#B65E43;}
</style>
<g class="st0">
	<defs>
		
			<ellipse id="XMLID_3_" transform="matrix(0.9997 -2.478853e-02 2.478853e-02 0.9997 -12.8328 7.5558)" class="st0" cx="298.3" cy="521.4" rx="183.8" ry="24.3"/>
	</defs>
	<use xlink:href="#XMLID_3_"  style="overflow:visible;fill:#707070;"/>
	<clipPath id="XMLID_2_">
		<use xlink:href="#XMLID_3_"  style="overflow:visible;"/>
	</clipPath>
</g>
<path class="st1" d="M284.5,269.3c0,0,123.6-18,135.7,0s14.8,59.7-6,92.9c-20.8,33.2-135.3-9.9-143.4-40S284.5,269.3,284.5,269.3z"
	/>
<g>
	<polygon class="st2" points="305.6,520.8 374.5,495.2 460.3,488.5 394.8,513.5 	"/>
	<polygon class="st3" points="371.8,484.5 374.5,495.2 305.6,520.8 302,509.8 	"/>
	<polygon class="st4" points="371.8,484.5 374.5,495.2 461.8,488.4 458.7,477.1 	"/>
</g>
<path class="st1" d="M325.3,371.6"/>
<path class="st1" d="M295.5,267.8"/>
<g>
	<g>
		<path class="st5" d="M217.2,361.9c3.4,50.8,6.4,101.6,8.8,152.5c0.4,7.7,12.4,7.7,12,0c-2.4-50.8-5.4-101.7-8.8-152.5
			C228.7,354.2,216.7,354.2,217.2,361.9L217.2,361.9z"/>
	</g>
</g>
<path class="st6" d="M228.8,516.4l10.4-0.1c0,0,9.1,1,12.9,4.2c3.8,3.2-1.7,7.4-1.7,7.4l-25,0.5
	C225.5,528.4,219.8,516.5,228.8,516.4"/>
<path class="st1" d="M342.4,351.1c-7.5-9.1-14.4-26-21.9-50.4c-7.5-24.4-28.5-35.5-28.5-35.5l-11.1,5.8l24.1,95.6l21.7,100.1
	c32.8-1.1,55.8-9.9,58.7-34.7C391.5,380.1,349.9,360.3,342.4,351.1z"/>
<linearGradient id="XMLID_4_" gradientUnits="userSpaceOnUse" x1="222.9236" y1="385.5037" x2="219.5982" y2="507.2118" gradientTransform="matrix(0.9002 -0.4354 0.4354 0.9002 -149.6024 43.2067)">
	<stop  offset="0" style="stop-color:#FFD6BB"/>
	<stop  offset="1" style="stop-color:#F7E7D6"/>
</linearGradient>
<path id="XMLID_27_" class="st7" d="M171.9,290.4c0,0,1.8,69.7,4.2,80.8c2.4,11.1,5.1,36.3,71,25.9c65.9-10.4,58.1-35.3,58.1-35.3
	c-0.4-51.6-3.8-70.6-19.3-91.4L171.9,290.4z"/>
<g>
	<g>
		<path class="st8" d="M396,332.9c-1.5,15.9-3.1,31.8-4.6,47.7c-0.2,1.9,2.8,1.9,3,0c1.5-15.9,3.1-31.8,4.6-47.7
			C399.2,331,396.2,331,396,332.9L396,332.9z"/>
	</g>
</g>
<g>
	<g>
		<path class="st8" d="M404.3,340.2c-3.3,9-6.7,18-10,27c-0.7,1.8,2.2,2.6,2.9,0.8c3.3-9,6.7-18,10-27
			C407.9,339.2,405,338.4,404.3,340.2L404.3,340.2z"/>
	</g>
</g>
<g>
	<g>
		<path class="st8" d="M388.8,344.8c-2.6,10.1-5.1,20.2-7.7,30.3c-0.5,1.9,2.4,2.7,2.9,0.8c2.6-10.1,5.1-20.2,7.7-30.3
			C392.2,343.7,389.3,342.9,388.8,344.8L388.8,344.8z"/>
	</g>
</g>
<g>
	<g>
		<path class="st8" d="M404.1,346.2c-0.8,8.4-1.3,16.9-1.4,25.4c0,1.9,3,1.9,3,0c0.1-8.5,0.5-16.9,1.4-25.4
			C407.3,344.3,404.3,344.3,404.1,346.2L404.1,346.2z"/>
	</g>
</g>
<g>
	<g>
		<path class="st8" d="M431.5,332.9c-2.5,10.9-4,21.9-4.7,33c-0.7,10.7-0.8,21.8,0.6,32.5c0.7,4.9,1.7,9.7,2.8,14.5
			c1,4.9,1.7,9.9,1.9,14.8c0.2,3.6-0.1,7.3-0.1,10.9c0.1,4.6,0.4,9.1,0.7,13.7c0.7,10.2,1.9,20.5,1.4,30.7c-0.1,1.9,2.9,1.9,3,0
			c0.5-9-0.4-18-1.1-27c-0.4-4.7-0.7-9.3-0.9-14c-0.1-3.9,0-7.8,0-11.6c0-4.3-0.4-8.6-1.1-12.9c-0.7-5-2-9.9-2.9-14.8
			c-1.9-10.5-2-21.4-1.6-32c0.5-12.5,2.1-24.9,4.9-37.1C434.8,331.8,431.9,331,431.5,332.9L431.5,332.9z"/>
	</g>
</g>
<g>
	<g>
		<path class="st8" d="M391.9,487.6c3.6-10.9,8-21.6,13.1-31.9c0.9-1.7-1.7-3.2-2.6-1.5c-5.2,10.5-9.7,21.4-13.4,32.6
			C388.4,488.6,391.3,489.4,391.9,487.6L391.9,487.6z"/>
	</g>
</g>
<g>
	<g>
		<path class="st8" d="M383.5,489.2c3.9-12.6,9.7-24.5,17.1-35.4c1.1-1.6-1.5-3.1-2.6-1.5c-7.5,11.1-13.4,23.3-17.4,36.1
			C380,490.3,382.9,491.1,383.5,489.2L383.5,489.2z"/>
	</g>
</g>
<g>
	<g>
		<path class="st8" d="M397.8,485.1c-2.6-7.3-4-14.8-3.8-22.6c0.1-1.9-2.9-1.9-3,0c-0.2,8,1.2,15.9,3.9,23.4
			C395.6,487.7,398.5,486.9,397.8,485.1L397.8,485.1z"/>
	</g>
</g>
<g>
	<g>
		<path class="st8" d="M461.1,317.2c-1,12,7.9,21.9,10.7,33c0.5,1.9,3.4,1.1,2.9-0.8c-1.5-5.7-4.2-10.9-6.7-16.1
			c-2.3-5.1-4.5-10.4-4-16.1C464.3,315.2,461.3,315.2,461.1,317.2L461.1,317.2z"/>
	</g>
</g>
<g>
	<g>
		<path class="st8" d="M451.2,483.1c1.1-9,6.3-16.8,12.5-23c1.4-1.4-0.7-3.5-2.1-2.1c-6.9,6.8-12.3,15.3-13.4,25.1
			C447.9,485,450.9,485,451.2,483.1L451.2,483.1z"/>
	</g>
</g>
<g>
	<g>
		<path class="st8" d="M447.3,481.9c1.2-6.4,3.2-12.7,5.9-18.7c0.3-0.7,0.2-1.6-0.5-2.1c-0.6-0.4-1.7-0.2-2.1,0.5
			c-2.7,6.2-4.9,12.7-6.2,19.4C444.1,483,447,483.8,447.3,481.9L447.3,481.9z"/>
	</g>
</g>
<g>
	<g>
		<path class="st9" d="M376,406.7c0.8,1.2,1.6,2.3,2.4,3.5c0.7,1,1.3,2.2,2.2,3.1c1.8,1.9,4.4,1.7,5.7-0.6c0.2-0.4,0.4-0.8,0.6-1.3
			c0.1-0.1,0.3-0.4,0.4-0.5c0.1-0.3,0.2,0.2-0.1-0.1c0.8,0.8,1.4,1.9,2.1,2.9c1.5,2.2,2.9,4.6,4.2,6.9c0.9,1.7,3.5,0.2,2.6-1.5
			c-1.3-2.3-2.6-4.6-4.1-6.8c-1.2-1.8-2.8-5.2-5.5-4.3c-1.1,0.4-1.8,1.3-2.3,2.3c-0.2,0.4-0.4,0.7-0.6,1.1c-0.2,0.3-0.2,0.2-0.4,0.1
			c-0.9-0.7-1.4-1.8-2-2.7c-0.8-1.2-1.7-2.4-2.5-3.6C377.5,403.6,374.9,405.1,376,406.7L376,406.7z"/>
	</g>
</g>
<g>
	<g>
		<path class="st9" d="M451,333.7c-0.7,1.1-1.5,2.2-2.2,3.3c-0.3,0.5-0.7,1-0.9,1.6c-0.2,0.8,0.1,1.6,0.8,2c0.5,0.3,1.1,0.3,1.7,0.4
			c0.6,0.1,1.3,0.1,1.9,0.2c1.4,0.2,2.7,0.3,4.1,0.5c-0.4-0.8-0.9-1.5-1.3-2.3c-2,2.7-4.2,5.2-6.5,7.6c-1.3,1.4,0.8,3.5,2.1,2.1
			c2.5-2.6,4.8-5.3,7-8.2c0.8-1-0.3-2.1-1.3-2.3c-1.1-0.1-2.3-0.3-3.4-0.4c-0.5-0.1-1.1-0.1-1.6-0.2c-0.3,0-0.5-0.1-0.8-0.1
			c-0.1,0-0.6-0.2-0.3,0c0.2,0.2,0.4,0.4,0.5,0.5c0,0-0.1-0.1-0.1-0.1c0.1,0.3,0.1,0.5,0.2,0.8c-0.1,0.3-0.1,0.4,0,0.2
			c0-0.1,0.1-0.1,0.1-0.2c0.1-0.2,0.2-0.4,0.4-0.6c0.2-0.4,0.5-0.7,0.7-1.1c0.5-0.7,1-1.5,1.5-2.2
			C454.7,333.6,452.1,332.1,451,333.7L451,333.7z"/>
	</g>
</g>
<g>
	<g>
		<path class="st5" d="M262.8,393.3c13.1,0.5,25.4-3.9,38.1-6.4c6.7-1.3,13.3-1.1,20-2.1c3.1-0.4,6.1-1.2,9.2-1.2
			c2.8,0,3.8,1.2,5.2,3.7c3,5.5,3.2,12.3,4.2,18.4c1.4,8.3,1.6,16.3,0.6,24.6c-2,16.8-7.2,33-12.2,49.1c-2.3,7.4,9.3,10.6,11.6,3.2
			c5.6-18,11.2-36.3,12.9-55.2c0.8-9.3-0.3-18-1.7-27.1c-1.1-6.9-1.9-14.2-5.8-20.2c-3.9-6-9.1-8.8-16.1-8.4
			c-3.6,0.2-7.1,1.1-10.7,1.5c-3.6,0.4-7.2,0.3-10.8,0.7c-15,1.7-29.3,8.1-44.5,7.5C255.1,381,255.1,393.1,262.8,393.3L262.8,393.3z
			"/>
	</g>
</g>
<path class="st6" d="M329.3,477.8l10.4,0.2c0,0,9.1,1.2,12.7,4.6c3.7,3.4-1.9,7.3-1.9,7.3l-25-0.3
	C325.6,489.7,320.2,477.6,329.3,477.8"/>
<path class="st10" d="M179.2,317.8c0,0,43.4-17.1,76.2-10.7c0,0,21.6-19.6,45.9-13.3c0,0,15.4,30.7,7.2,66.3
	c-4.9,21.4,15.9-3.5,35.4,11.5c17,13,16.8,43.4,8.8,75.7c0,0-14.9,23.6-62.1,32c-38.9,6.9-72.1,21-85.8,29.4
	c0,0,14.8-64.6-5.3-109.8L179.2,317.8z"/>
<path class="st1" d="M204.5,399.6c0,0,15.4,84-1.6,117.8c0,0-7.8,9.5-35.2-3.2s7.2-54.1,9.1-63.8s0.2-41,0.2-41s21.6-15.6,22.3-4.4
	L204.5,399.6z"/>
<g>
	<polygon class="st11" points="372.4,251.3 362.4,250 462.1,206.9 472.1,208.2 	"/>
</g>
<g>
	<polygon class="st12" points="372.2,364 362.2,362.7 362.4,250 372.4,251.3 	"/>
</g>
<path class="st13" d="M472.1,208.2l-99.7,43.1L372.2,364l98.6-47.2L472.1,208.2z M443.9,287.7c-0.8,2-3.7,2.1-5.4,1.8
	c-0.5-0.1-0.9-0.2-1.4-0.4c0.3,0.7,0.5,1.4,0.7,2.1c0.4,1.6,0.8,4.7-0.5,6c-1.7,1.8-3.6-1.2-4.4-2.4c-0.5-0.7-0.9-1.5-1.3-2.3
	c-0.8,3.5-2.8,6.6-5.7,9c-0.6,0.5-1.4,0-1.6-0.7c-0.4-1.5-0.5-3-0.5-4.6c-0.6,0.8-1.3,1.5-2,2.2c-1.8,1.7-5,4.7-7.7,3.3
	c-2.6-1.3-1.5-4.9-0.5-7.1c-0.3,0.1-0.5,0.2-0.8,0.3c-2.5,0.8-7,1.3-8.4-1.7c-1.4-2.7,1.6-5.5,3.6-6.9c1.2-0.8,2.4-1.4,3.7-2
	c-1.2-0.2-2.4-0.5-3.5-0.8c-1.7-0.5-4.6-1.8-3.9-4.1c0.7-2.4,4.4-1.8,6.2-1.6c2.2,0.1,4.3,0.4,6.4,0.7c-1.2-1.3-2.3-2.7-3.1-4.3
	c-0.9-1.8-2-6,0.7-6.8c1.3-0.4,2.6,0.2,3.7,0.7c1.2,0.6,2.4,1.2,3.5,2c1.6,1.2,3,2.7,3.9,4.4c0.5-1.1,1.1-2.2,1.8-3.1
	c1-1.3,2.7-3.4,4.6-3.4c3.5-0.1,2.6,5.1,1.7,8.3c3.3-1.3,6.9-1.7,10.4-1.1c0.9,0.1,1.2,1.3,0.5,1.8c-2.1,1.6-4.4,3-6.8,4
	c1.1,0.4,2.1,0.9,3,1.6C442.4,283.6,444.7,285.7,443.9,287.7z"/>
<path class="st5" d="M433.2,284.5c-0.7,0.5-1.1,0.8-1.7,1.1c-0.8,0.4-1.7,0.8-2.6,1.1c-1.7,0.6-3,1-4.8,1.2c-0.2,0-0.5,0-0.7,0.1
	c0.2,0-0.4-0.1-0.2,0c0,0,0.2,0.2,0,0c-0.1-0.1-0.1,0-0.2-0.3c-0.2-0.4-0.4-0.8-0.5-1.2c0.2-0.3,0.3-0.6,0.3-0.9
	c0.1-0.6-0.1-1.2-0.4-1.6c-0.9-1.2-1.8-2.3-2.7-3.5c-0.3-0.4-0.7-0.7-1.1-0.8c-0.2-0.1-0.3-0.1-0.5-0.1c-0.5-0.1-1.2,0.1-1.6,0.4
	c-0.2,0.1-0.3,0.3-0.4,0.5c0,0-0.1,0.1-0.1,0.1c0,0,0,0.1-0.1,0.1c-0.3,0.4-0.4,1-0.2,1.6c0,0,0,0.1,0,0.1c0,0.1,0,0.1,0.1,0.2
	c0,0,0,0.1,0,0.1c0,0,0,0.1,0,0.1c0.7,1.6,1.4,3.1,2.1,4.7c0.5,1.1,0.9,2.4,1.7,3.4c1,1.3,2.5,1.7,4.1,1.6c2.2-0.1,4.4-0.7,6.4-1.4
	c2-0.7,4-1.6,5.6-2.9C438.1,286.3,435.5,282.7,433.2,284.5z"/>
<path class="st14" d="M523.2,357.2c0-4.2-2.8-7.7-6.7-8.7c0.4-1.3,0.6-2.8,0.6-4.2c0-7.9-6.4-14.3-14.3-14.3
	c-7.9,0-14.3,6.4-14.3,14.3c0,1.7,0.3,3.4,0.9,4.9c-8.6,2.6-14.8,10.5-14.8,19.9c0,1.6,0.2,3.1,0.5,4.6c-4.5,1.8-7.5,5-7.3,8.6
	c0.3,5.1,6.8,8.9,14.5,8.5c2.7-0.1,5.2-0.8,7.2-1.8c1.8,0.5,3.8,0.8,5.8,0.8c0.3,0,0.7,0,1,0c1.4,0.2,2.8,0.3,4.2,0.3
	c10.3,0,18.7-5.1,18.7-11.3c0-2.4-1.3-4.7-3.5-6.5c0.2-1,0.3-2.1,0.3-3.2c0-1-0.1-2-0.2-3C520.1,365.2,523.2,361.5,523.2,357.2z"/>
<path class="st15" d="M399.2,329.4c0-0.1,0-0.2,0-0.3c0-1-0.7-1.8-1.8-2.3c0.2-0.6,0.3-1.3,0.3-1.9c0-3.9-3.7-7.2-8.2-7.2
	c-3.7,0-6.8,2.1-7.9,5.1c-1.9,0.4-3.4,1.9-3.7,3.9c-3.8,0.3-6.8,0.9-8,1.8c-5.9,0.2-10.1,0.9-10.1,1.8c0,0.3,0.7,0.6,1.8,0.9
	c-6,0-10.7,0.2-10.7,0.5c0,0.3,5.3,0.5,11.8,0.5c2.7,0,5.1,0,7.1-0.1c1.5,0.1,3,0.1,4.7,0.1c1.7,0,3.4,0,5-0.1
	c0.8,0,1.7,0.1,2.5,0.1c0.2,0,0.3,0,0.5,0c0,0,0,0,0.1,0c0,0,0,0,0.1,0c1.7,0,3.3-0.1,4.8-0.3c0.7,0.2,1.4,0.3,2.1,0.3
	c1,0,2-0.2,2.9-0.5c1.2,0.3,2.9,0.4,4.9,0.4c3.7,0,6.6-0.6,6.6-1.4C403.8,330.1,401.9,329.5,399.2,329.4z"/>
<path class="st16" d="M480.3,369.2c0.6-0.5,1-1.1,1-1.8c0-0.6-0.3-1.1-0.7-1.5c0.5-0.9,0.7-1.9,0.7-2.9c0-4-3.9-7.3-8.7-7.3
	c-3.4,0-6.3,1.6-7.7,4c-3.3,0.1-5.9,2.3-5.9,5.1c0,0.6,0.1,1.3,0.4,1.8c-2.2,0.4-3.6,0.9-3.6,1.6c0,0.1,0,0.1,0.1,0.2
	c-4.3,0.1-7.7,0.4-7.7,0.8c0,0.4,4,0.8,8.9,0.8c1.2,0,2.4,0,3.4-0.1c1.6,0.2,3.5,0.3,5.5,0.3c1.6,0,3.2-0.1,4.5-0.2
	c0.7,0.1,1.4,0.2,2.1,0.2c0.6,0,1.2-0.1,1.8-0.2c1.2,0.1,2.8,0.2,4.6,0.2c3.5,0,6.4-0.2,6.4-0.5
	C485.5,369.5,483.3,369.2,480.3,369.2z"/>
<g>
	<path class="st1" d="M130.4,343.7c0,0,29.1-15.7,55.6-28.6l0,0c0,0-7-17.7-9.9-31.1c0,0-82,39.6-82.4,81.1
		c-0.1,6.8,1.1,13.4,3.3,19.4C91.2,361.5,130.4,343.7,130.4,343.7z"/>
	<path class="st1" d="M214.2,302.2c-7.6,3.1-17.7,7.8-28.1,12.9l-55.6,28.6c0,0-39.2,17.8-33.4,40.7c0,0,0,0.1,0,0.1
		c11.2,30.5,49.4,48.5,97.4,29.5C252,391.4,241.1,291.3,214.2,302.2z"/>
</g>
<rect x="307.7" y="510" transform="matrix(0.938 -0.3466 0.3466 0.938 -157.4132 141.4104)" class="st17" width="17.8" height="1.6"/>
<rect x="329.7" y="503.6" transform="matrix(0.938 -0.3466 0.3466 0.938 -154.2971 146.7172)" class="st17" width="6.7" height="2.1"/>
<rect x="337" y="500.9" transform="matrix(0.938 -0.3466 0.3466 0.938 -152.9 149.0964)" class="st17" width="6.7" height="2.1"/>
<rect x="344.3" y="498.2" transform="matrix(0.938 -0.3466 0.3466 0.938 -151.5205 151.4457)" class="st17" width="6.7" height="2.1"/>
<path class="st5" d="M447.5,277.6c0.1-1.7,0.2-3.6,0-5.3c-0.5-3.4-3.2-5.1-6.4-5.5c-3.5-0.5-7.1-0.7-10.6-0.7
	c-3.7-0.1-8.1-0.5-10.5,2.9c-2.3,3.3-3.6,7.4-4.3,11.3c-0.2,1.3,0.7,2.2,1.7,2.4c0.2,1.2,0.6,2.5,1.2,3.5c1.9,3,6.4,2.1,9.5,2
	c3.7-0.1,7.4-0.4,11.1-0.9c1.7-0.2,3.5-0.3,5.1-0.8c1.8-0.6,2.6-1.9,2.9-3.7C447.4,281.1,447.4,279.3,447.5,277.6z M430.5,270.6
	C430.1,270.3,430.5,270.4,430.5,270.6L430.5,270.6z"/>
<path class="st18" d="M377.4,334.1c0-3.2-4.3-5.8-9.5-5.8c-0.3,0-0.6,0-0.9,0c-0.7-5.8-5.6-10.3-11.6-10.3c-1.9,0-3.7,0.5-5.3,1.3
	c-1.2-1.7-3.2-2.8-5.4-2.8c-3.7,0-6.6,3-6.6,6.6c0,3.3,2.4,6.1,5.6,6.6c0,0,0,0.1,0,0.1c0,2,0.5,3.9,1.4,5.6c-0.4,0-0.8,0-1.2,0
	c-6.3,0-11.4,4-11.4,8.9s5.1,8.9,11.4,8.9c1.4,0,2.7-0.2,3.9-0.5c1.6,3.7,5.3,6.3,9.6,6.3c4.8,0,8.9-3.3,10.1-7.7
	c3.5-0.6,6.1-3.6,6.1-7.2c0-1.7-0.6-3.3-1.6-4.5C375.2,338.4,377.4,336.4,377.4,334.1z"/>
<g>
	<g>
		<path class="st9" d="M473.6,300.1c-1.3,1.8-2.6,3.5-3.9,5.3c-1,1.4-2.8,3.2-1.9,5c0.8,1.7,2.8,1.7,4.4,1.9
			c2.2,0.2,4.4,0.4,6.6,0.6c-0.4-0.9-0.7-1.7-1.1-2.6c-3.1,3.7-6.4,7.2-9.9,10.5c-1.4,1.3,0.7,3.4,2.1,2.1c3.5-3.3,6.8-6.8,9.9-10.5
			c0.9-1,0.3-2.4-1.1-2.6c-1.7-0.2-3.3-0.3-5-0.5c-0.8-0.1-1.5-0.1-2.3-0.2c-0.2,0-0.7-0.2-0.9-0.1c-0.1,0-0.2,0-0.3-0.1
			c0,0.5,0.1,0.6,0.2,0.3c0.2-0.1,0.4-0.5,0.5-0.7c0.2-0.3,0.5-0.7,0.7-1c0.5-0.7,1-1.3,1.4-2c1-1.3,1.9-2.6,2.9-4
			c0.5-0.7,0.1-1.7-0.5-2.1C474.9,299.1,474.1,299.4,473.6,300.1L473.6,300.1z"/>
	</g>
</g>
<g>
	<g>
		<defs>
			<path id="XMLID_24_" d="M151.1,61.1c20.7,15.2,25.1,44.3,9.9,65s-62.5,30.8-83.1,15.6s-25.1-44.3-9.9-65S130.4,45.9,151.1,61.1z"
				/>
		</defs>
		<use xlink:href="#XMLID_24_"  style="overflow:visible;fill:#A05C2D;"/>
		<clipPath id="XMLID_5_">
			<use xlink:href="#XMLID_24_"  style="overflow:visible;"/>
		</clipPath>
	</g>
	<g>
		<defs>
			<path id="XMLID_22_" d="M337.7,208.9c0.9,64.2-57.4,92.4-125.8,88.3c-69-4.2-118.5-37.5-114.6-102.8
				c3.4-55.7,59.9-97.7,126.3-93.7C290,104.7,336.9,153,337.7,208.9"/>
		</defs>
		<use xlink:href="#XMLID_22_"  style="overflow:visible;fill:#F7E7D6;"/>
		<clipPath id="XMLID_6_">
			<use xlink:href="#XMLID_22_"  style="overflow:visible;"/>
		</clipPath>
	</g>
	<g>
		<defs>
			<path id="XMLID_20_" d="M352.6,209.3c0,0,0-0.1,0-0.1c0-1.9,0-3.7,0-5.5c0-1.6-0.1-3.2-0.3-4.8c-0.2-19.3-1.2-32.4-1.2-32.4
				C348.5,128,314.3,80,242.6,70.3c-59.2-8-82,15.3-88.2,23.7c-10.4,0-19.5,3.2-27.3,8.7c-16.6,9.5-35.6,29.6-41.7,71.6
				c-1.2,8.6-1.9,16.2-2.1,23c-1.2,46.2,19.4,55.3,27.5,57.1l0,0c2,0.4,3.2,0.5,3.2,0.5s-4.1-26.9,5.7-47.7l0,0
				c48.8,2.1,98.9-39.4,98.9-39.4c1.9,11-8.8,19.9-8.8,19.9c26.4-2.5,38.3-35.3,38.3-35.3c34.1-7.4,52.1,21.4,52.1,21.4
				s8.3,9.8,13.1,32.1c0.2,1,0.4,1.9,0.6,3c0,0,6.3,32.9,1.2,58.3C315.2,267.2,350.2,264.2,352.6,209.3z"/>
		</defs>
		<use xlink:href="#XMLID_20_"  style="overflow:visible;fill:#A05C2D;"/>
		<clipPath id="XMLID_7_">
			<use xlink:href="#XMLID_20_"  style="overflow:visible;"/>
		</clipPath>
	</g>
	<g>
		<defs>
			
				<rect id="SVGID_1_" x="87.7" y="23.3" transform="matrix(0.9956 -9.354813e-02 9.354813e-02 0.9956 -14.618 21.496)" width="268.4" height="286.6"/>
		</defs>
		<clipPath id="SVGID_2_">
			<use xlink:href="#SVGID_1_"  style="overflow:visible;"/>
		</clipPath>
		<path class="st19" d="M327,239.3c-2.4-26-47.5-43-100.7-38c-53.2,5-94.3,30.1-91.9,56.1c1.5,16.3,19.9,29.1,46.4,35.1
			c4.3,2.4,14.2,8.1,17.2,10.1c3.9,2.6,2.3-3.7,8.9-4.2c6.6-0.4,6.8,5.8,6.8,5.8s4.4-5.7,8.7-6.4c4.3-0.7,7.8,7.4,7.8,7.4l4.9-8.7
			c0.4-0.7,1.4-0.8,1.9-0.2l6.4,7.7c0,0,2-8.6,6.3-8.7c4.3-0.1,9.7,4.6,9.7,4.6s-0.9-6.1,5.6-6.9c6.5-0.8,6.2,5.7,9.5,2.4
			c3.1-3.1,15.1-13.2,16.6-14.4C314.2,270.1,328.5,254.9,327,239.3"/>
		<path class="st20" d="M285,246.5c-23.5-0.6-51.7,4.5-55.3,5.2c-0.3,0-0.5,0.1-0.8,0.1c-3.7,0-32.4,0.2-55.3,5.2
			c-14.1,3.1-18.2,10.4-19.2,16.1c-0.6,3.2,2.8-1.2,6.5-2.1c1.8-0.4,3.9-0.7,6.3-0.5c2.2,0.1,3.7,1.3,4.9,2.9
			c1.8,2.6,6.4,9.9,8.8,7.5c1.5-1.5,3.4-2.7,5.8-3.4c6.9-1.9,11.1,1.3,13.6,5.6c1.7,2.8,6.3,3.2,8.8,0.7c1.1-1.1,2.5-1.9,4.1-2.4
			c5.8-1.7,12.8,4.8,16.8,9.3c1.7,1.9,4.6,1.7,5.9-0.6c3.1-5.2,8.8-12.8,14.8-12.2c1.7,0.2,3.2,0.8,4.5,1.6c3,2,7.4,0.8,8.5-2.4
			c1.7-4.8,5.2-8.7,12.3-8.1c2.4,0.2,4.6,1.1,6.3,2.2c2.8,1.9,5.2-6.1,6.5-9c0.8-1.8,2.1-3.3,4.2-3.8c2.3-0.6,4.4-0.7,6.3-0.6
			c3.8,0.2,8.7,3.8,7.5,0.8C304.8,253.3,299.4,246.9,285,246.5"/>
		<g class="st21">
			<defs>
				<path id="XMLID_18_" d="M230.2,254.2c6.6,7.3,15.8,11.4,25.5,10.5c17.8-1.7,30.6-19.6,28.7-40c-1.3-13.5-4.3-15.4-38.2-66.3
					c0.1,0.2,0.2,0.3,0.4,0.5c-0.1-0.3-0.2-0.5-0.3-0.8l-0.2,0.2c-6.5-8.8-2.1-22.6,8.2-23.6l16.2-1.5c13.2-1.2,25.5-11.6,32.4-31.4
					c13.2,17.6,22,39.7,24.3,64.1c1,10.2-0.4,21,6,37l0,0c2.8,7.2,7.7,15.2,13.9,21.4c-5.7,1-11.9,0.3-17.5-2.5
					c-1.5,12.1-0.1,24.8,4.1,36.3c-6.2-1.4-11.7-4.8-15.6-9.6c-0.8,8.7-0.1,17.7,1.8,25.8c-4.4-0.6-8.7-2.3-12.4-4.9
					c-3.7-2.6-6.9-6.2-9.1-10.6c-6.3,7.2-14.6,11.5-23.5,12.3l-85.3,8c-8.9,0.8-17.9-1.9-25.4-7.7c-1.3,4.7-3.8,8.8-6.9,12.1
					c-3.2,3.3-7.1,5.7-11.3,7.2c0.4-8.4-0.6-17.3-3-25.7c-3,5.4-7.8,9.8-13.6,12.3c2-12.1,1-24.8-2.8-36.4c-5,3.8-11,5.6-16.7,5.7
					c4.9-7.2,8.2-16,9.7-23.6l0,0c3.4-16.9,0-27.3-0.9-37.4c-2.3-24.4,2.3-47.7,11.9-67.5c10.4,18.2,24.5,26.1,37.6,24.8l16.2-1.5
					c10.3-1,17.2,11.8,12.4,21.6l-0.2-0.2c0,0.3-0.1,0.6-0.1,0.8c0.1-0.2,0.2-0.4,0.3-0.5c-23.9,56.3-26.5,58.7-25.2,72.2
					c1.9,20.4,17.9,35.6,35.6,34C216.8,268.4,225.1,262.6,230.2,254.2"/>
			</defs>
			<use xlink:href="#XMLID_18_"  style="overflow:visible;fill:#F4D5BD;"/>
			<clipPath id="XMLID_8_">
				<use xlink:href="#XMLID_18_"  style="overflow:visible;"/>
			</clipPath>
		</g>
		<path class="st22" d="M211.9,59.2c0.2,0,0.4,0,0.6-0.1c9.5-0.9,18.8-0.3,27.8,1.5c-8.9-1.8-18.2-2.4-27.7-1.5
			C212.4,59.2,212.2,59.2,211.9,59.2c-0.2,0.1-0.5,0.1-0.7,0.1c-9.4,0.9-18.5,3.2-26.9,6.6c8.5-3.5,17.5-5.8,27-6.7
			C211.5,59.3,211.7,59.2,211.9,59.2"/>
		<path class="st23" d="M230.3,254.4c7.3,7.9,17.4,11.9,27.5,10.1c0.9,9.4-5,17.6-13.2,18.4l-23.1,2.2c-8.2,0.8-15.5-6.2-16.4-15.6
			C215.4,269.3,224.6,263.5,230.3,254.4"/>
		<path class="st24" d="M356,216.7c0.1,0.5-0.3,1-0.8,1.1l-70.9,6.7c-0.1-0.7-0.1-1.3-0.2-2l71-6.7C355.5,215.7,356,216.1,356,216.7
			"/>
		<path class="st24" d="M99.7,240.7c0.1,0.5,0.5,0.9,0.9,0.9l70.9-6.7c-0.1-0.7-0.1-1.3-0.1-2l-71,6.7
			C100,239.7,99.6,240.2,99.7,240.7"/>
		<path class="st24" d="M351.6,230c0.1,0.5-0.3,1-0.8,1.1l-67.3,6.3c0.1-0.7,0.3-1.3,0.4-2l66.7-6.3
			C351.1,229,351.5,229.4,351.6,230"/>
		<path class="st24" d="M106.5,253c0.1,0.5,0.5,0.9,0.9,0.9l67.3-6.3c-0.3-0.6-0.5-1.3-0.7-1.9l-66.7,6.3
			C106.8,252,106.4,252.4,106.5,253"/>
		<path class="st24" d="M347.2,243.2c0.1,0.5-0.3,1-0.8,1.1l-68.3,6.4c0.4-0.7,0.9-1.4,1.3-2.1l66.9-6.3
			C346.7,242.3,347.1,242.7,347.2,243.2"/>
		<path class="st24" d="M113.3,265.2c0.1,0.5,0.5,0.9,0.9,0.9l68.3-6.4c-0.6-0.6-1.1-1.2-1.6-1.8l-66.9,6.3
			C113.6,264.2,113.3,264.7,113.3,265.2"/>
		<g class="st21">
			<defs>
				<path id="XMLID_14_" d="M211.9,59.3c0.2,0,0.5,0,0.7-0.1c35.6-3.3,68.7,13.8,90.3,42.7c0,0,0,0,0,0
					c-6.9,19.8-19.2,30.2-32.4,31.4l-16.2,1.5c-10.3,1-14.7,14.8-8.2,23.6l0.2-0.2c0.1,0.3,0.2,0.5,0.3,0.8
					c-0.1-0.2-0.3-0.3-0.4-0.5c33.9,50.9,37,52.8,38.2,66.3c1.9,20.4-10.9,38.3-28.7,40c-9.7,0.9-18.9-3.2-25.5-10.5
					c-5.2,8.4-13.4,14.2-23.1,15.1c-17.8,1.7-33.7-13.5-35.6-34c-1.3-13.5,1.3-15.9,25.2-72.2c-0.1,0.2-0.2,0.4-0.3,0.5
					c0-0.3,0.1-0.6,0.1-0.8l0.2,0.2c4.8-9.8-2.2-22.6-12.4-21.6l-16.2,1.5c-13.2,1.2-27.2-6.7-37.6-24.8c0,0,0,0,0,0
					c15.8-32.4,45.2-55.4,80.8-58.7C211.4,59.3,211.7,59.3,211.9,59.3"/>
			</defs>
			<use xlink:href="#XMLID_14_"  style="overflow:visible;fill:#D88A4B;"/>
			<clipPath id="XMLID_9_">
				<use xlink:href="#XMLID_14_"  style="overflow:visible;"/>
			</clipPath>
		</g>
		<path class="st20" d="M290.1,87.3c1,0.9,1.9,1.9,2.8,2.8C292,89.2,291,88.2,290.1,87.3"/>
		<path class="st20" d="M140.4,101.4c-0.8,1.1-1.5,2.2-2.3,3.3C138.9,103.6,139.6,102.5,140.4,101.4"/>
		<path class="st20" d="M262.6,68.3l-0.2,0.2c0-0.1,0-0.2,0-0.3C262.5,68.2,262.5,68.2,262.6,68.3"/>
		<path class="st20" d="M163.8,77.5l0.2,0.2c0-0.1-0.1-0.2-0.1-0.3C163.9,77.5,163.9,77.5,163.8,77.5"/>
		<path class="st20" d="M300.9,107c0.4-1,0.9-2,1.3-3.1l-1.2,3.2L300.9,107z"/>
		<path class="st20" d="M133.4,122.8c-0.6-0.9-1.2-1.8-1.8-2.8L133.4,122.8L133.4,122.8z"/>
		<path class="st25" d="M314.1,63.3c0.9,9.3-1.1,14.7-11.2,38.6c-12.2-16.3-28.1-28.9-46.1-36.1l13.1-15.8
			C284,31.9,311.7,37.5,314.1,63.3"/>
		<path class="st25" d="M112.3,82.3c0.9,9.3,3.8,14.3,18.2,35.8c8.9-18.3,22.2-33.6,38.6-44.1l-15.8-13.1
			C136,45.8,109.8,56.4,112.3,82.3"/>
		<path class="st26" d="M308.4,63.8c0.5,5.7-3.2,17.3-10.2,32.2c-5.8-6.8-12.2-12.8-19.3-17.9c1.7-6.7,5.6-12.5,10.8-16.1
			c-4.5-0.2-8.8,0.8-12.5,2.7c3.2-6.6,8.8-11.4,15.2-13.3c-4.8-1.9-9.6-2.2-13.9-1.3c3.1-2.3,6.6-3.7,10.3-4
			C297.4,45.2,307.2,50.5,308.4,63.8"/>
		<path class="st26" d="M117.9,81.7c0.5,5.7,6.4,16.4,16,29.7c4.4-7.7,9.6-14.9,15.6-21.2c-2.9-6.3-7.8-11.2-13.6-13.9
			c4.4-1.1,8.8-0.9,12.8,0.3c-4.4-5.9-10.7-9.5-17.4-10.2c4.3-2.7,9-3.9,13.4-3.8c-3.4-1.7-7.1-2.4-10.9-2.1
			C125.3,61.4,116.7,68.4,117.9,81.7"/>
		<path class="st24" d="M230.2,254.2c6.6,7.3,15.7,11.4,25.4,10.5c0.7-0.1,1.5-0.1,2.2-0.2c0.1,1.4-13,3.3-26.2,4.6
			c-13.2,1.2-26.4,1.8-26.6,0.4c0.7,0,1.4-0.1,2.2-0.2C216.9,268.3,225.1,262.6,230.2,254.2"/>
		<path class="st27" d="M280.5,142.6c1.2,12.3-6.6,23.1-17.3,24.1c-6.6,0.6-12.8-2.6-16.8-8.1c-1.6-4.5-1-9.5,1.2-13.1
			c1.8-3.1,4.6-5.3,8.2-5.6c3-0.3,14.9-1.4,15.2-1.4c0.8-0.1,1.7-0.2,2.5-0.3c1.9-0.3,3.8-0.9,5.7-1.6
			C279.8,138.4,280.3,140.5,280.5,142.6"/>
		<path class="st27" d="M160.1,154c1.2,12.3,10.8,21.5,21.5,20.5c6.6-0.6,12.1-5,15-11.1c0.7-4.7-0.8-9.5-3.6-12.7
			c-2.3-2.7-5.5-4.3-9.1-4c-3,0.3-14.9,1.4-15.2,1.4c-0.8,0.1-1.7,0.1-2.5,0.1c-1.9,0-3.9-0.1-5.9-0.5
			C159.9,149.7,159.9,151.8,160.1,154"/>
		<path class="st28" d="M274.7,143.2c0.8,8.6-4.6,16.2-12.1,16.9c-7.5,0.7-14.2-5.7-15-14.3c0-0.1,0-0.1,0-0.2
			c1.8-3.1,4.6-5.3,8.2-5.6c3-0.3,14.9-1.4,15.2-1.4c0.8-0.1,1.7-0.2,2.5-0.3C274.1,139.7,274.5,141.4,274.7,143.2"/>
		<path class="st28" d="M165.9,153.4c0.8,8.6,7.5,15,15,14.3c7.5-0.7,12.9-8.3,12.1-16.9c0-0.1,0-0.1,0-0.2c-2.3-2.7-5.5-4.3-9.1-4
			c-3,0.3-14.9,1.4-15.2,1.4c-0.8,0.1-1.7,0.1-2.5,0.1C165.8,149.9,165.7,151.6,165.9,153.4"/>
		<path class="st29" d="M265.6,146.7c0.3,2.8-1.5,5.3-4,5.5c-2.5,0.2-4.7-1.9-4.9-4.7c-0.3-2.8,1.5-5.3,4-5.5
			C263.1,141.7,265.4,143.8,265.6,146.7"/>
		<path class="st29" d="M175.4,155.1c0.3,2.8,2.5,4.9,4.9,4.7c2.5-0.2,4.2-2.7,4-5.5c-0.3-2.8-2.5-4.9-4.9-4.7
			C177,149.8,175.2,152.3,175.4,155.1"/>
		<path class="st30" d="M246.2,158.1c0.1,0.3,0.2,0.5,0.3,0.8c-0.1-0.2-0.3-0.3-0.4-0.5l-0.1-0.1L246.2,158.1z"/>
		<path class="st30" d="M196.7,162.7c0,0.3-0.1,0.6-0.1,0.9c0.1-0.2,0.2-0.4,0.3-0.5l0.1-0.1L196.7,162.7z"/>
		<path class="st30" d="M257.1,139.8l-1.4,0.1c0.2,0,0.5-0.1,0.7-0.1C256.7,139.8,256.9,139.8,257.1,139.8"/>
		<path class="st30" d="M182.5,146.8l1.4-0.1c-0.2,0-0.5,0-0.7,0C183,146.7,182.7,146.7,182.5,146.8"/>
		<path class="st28" d="M266,144.5c0.1,1.2-0.6,2.2-1.7,2.3c-1,0.1-2-0.8-2.1-2c-0.1-1.2,0.6-2.2,1.7-2.3
			C264.9,142.4,265.8,143.3,266,144.5"/>
		<path class="st28" d="M174.7,153c0.1,1.2,1,2.1,2.1,2c1-0.1,1.8-1.1,1.7-2.3c-0.1-1.2-1-2.1-2.1-2
			C175.3,150.8,174.6,151.9,174.7,153"/>
		<path class="st24" d="M229.1,242.3c0.5,0,0.9,0.3,0.9,0.8l2,21.7c0,0.5-0.3,0.9-0.8,1c-0.5,0-0.9-0.3-0.9-0.8l-2-21.7
			C228.3,242.8,228.7,242.4,229.1,242.3"/>
		<path class="st24" d="M243.3,241.3c-0.5,0.1-1-0.4-1.1-1.1c-0.1-0.6,0.3-1.2,0.9-1.2c0.5-0.1,1,0.4,1.1,1.1
			C244.2,240.7,243.8,241.2,243.3,241.3"/>
		<path class="st24" d="M215,243.9c0.5-0.1,0.9-0.6,0.9-1.2c-0.1-0.6-0.6-1.1-1.1-1.1c-0.5,0.1-0.9,0.6-0.9,1.2
			C214,243.5,214.5,244,215,243.9"/>
		<path class="st24" d="M254.9,240.2c-0.5,0.1-1-0.4-1.1-1.1c-0.1-0.6,0.3-1.2,0.9-1.2c0.5-0.1,1,0.4,1.1,1.1
			C255.8,239.6,255.4,240.1,254.9,240.2"/>
		<path class="st24" d="M203.4,245c0.5-0.1,0.9-0.6,0.9-1.2c-0.1-0.6-0.6-1.1-1.1-1.1c-0.5,0.1-0.9,0.6-0.9,1.2
			C202.4,244.6,202.9,245.1,203.4,245"/>
		<path class="st24" d="M266.4,239.1c-0.5,0.1-1-0.4-1.1-1.1c-0.1-0.6,0.3-1.2,0.9-1.2c0.5-0.1,1,0.4,1.1,1.1
			C267.4,238.5,267,239.1,266.4,239.1"/>
		<path class="st24" d="M191.9,246.1c0.5-0.1,0.9-0.6,0.9-1.2c-0.1-0.6-0.6-1.1-1.1-1.1c-0.5,0.1-0.9,0.6-0.9,1.2
			C190.8,245.7,191.3,246.2,191.9,246.1"/>
		<path class="st24" d="M278,238c-0.5,0.1-1-0.4-1.1-1.1c-0.1-0.6,0.3-1.2,0.9-1.2c0.5-0.1,1,0.4,1.1,1.1
			C278.9,237.4,278.5,238,278,238"/>
		<path class="st24" d="M180.3,247.2c0.5-0.1,0.9-0.6,0.9-1.2c-0.1-0.6-0.6-1.1-1.1-1.1c-0.5,0.1-0.9,0.6-0.9,1.2
			C179.3,246.8,179.8,247.3,180.3,247.2"/>
		<path class="st24" d="M247.9,228c-0.5,0.1-1-0.4-1.1-1.1c-0.1-0.6,0.3-1.2,0.9-1.2c0.5-0.1,1,0.4,1.1,1.1
			C248.8,227.4,248.4,227.9,247.9,228"/>
		<path class="st24" d="M208,231.7c0.5-0.1,0.9-0.6,0.9-1.2c-0.1-0.6-0.6-1.1-1.1-1.1c-0.5,0.1-0.9,0.6-0.9,1.2
			C207,231.3,207.5,231.8,208,231.7"/>
		<path class="st24" d="M259.4,226.9c-0.5,0.1-1-0.4-1.1-1.1c-0.1-0.6,0.3-1.2,0.9-1.2c0.5-0.1,1,0.4,1.1,1.1
			C260.4,226.3,260,226.8,259.4,226.9"/>
		<path class="st24" d="M196.5,232.8c0.5-0.1,0.9-0.6,0.9-1.2c-0.1-0.6-0.6-1.1-1.1-1.1c-0.5,0.1-0.9,0.6-0.9,1.2
			C195.4,232.4,195.9,232.9,196.5,232.8"/>
		<path class="st24" d="M271,225.8c-0.5,0.1-1-0.4-1.1-1.1c-0.1-0.6,0.3-1.2,0.9-1.2c0.5-0.1,1,0.4,1.1,1.1
			C272,225.2,271.6,225.7,271,225.8"/>
		<path class="st24" d="M184.9,233.9c0.5-0.1,0.9-0.6,0.9-1.2c-0.1-0.6-0.6-1.1-1.1-1.1c-0.5,0.1-0.9,0.6-0.9,1.2
			C183.8,233.5,184.3,233.9,184.9,233.9"/>
		<path class="st24" d="M246.9,253.8c-0.5,0.1-1-0.4-1.1-1.1c-0.1-0.6,0.3-1.2,0.9-1.2c0.5-0.1,1,0.4,1.1,1.1
			S247.4,253.8,246.9,253.8"/>
		<path class="st24" d="M213.8,256.9c0.5-0.1,0.9-0.6,0.9-1.2c-0.1-0.6-0.6-1.1-1.1-1.1c-0.5,0.1-0.9,0.6-0.9,1.2
			C212.8,256.5,213.3,257,213.8,256.9"/>
		<path class="st24" d="M258.4,252.7c-0.5,0.1-1-0.4-1.1-1.1c-0.1-0.6,0.3-1.2,0.9-1.2c0.5-0.1,1,0.4,1.1,1.1
			C259.4,252.1,259,252.7,258.4,252.7"/>
		<path class="st24" d="M202.2,258c0.5-0.1,0.9-0.6,0.9-1.2c-0.1-0.6-0.6-1.1-1.1-1.1c-0.5,0.1-0.9,0.6-0.9,1.2
			C201.2,257.6,201.7,258.1,202.2,258"/>
		<path class="st24" d="M270,251.7c-0.5,0.1-1-0.4-1.1-1.1c-0.1-0.6,0.3-1.2,0.9-1.2c0.5-0.1,1,0.4,1.1,1.1
			C271,251,270.6,251.6,270,251.7"/>
		<path class="st24" d="M190.7,259.1c0.5-0.1,0.9-0.6,0.9-1.2c-0.1-0.6-0.6-1.1-1.1-1.1c-0.5,0.1-0.9,0.6-0.9,1.2
			C189.6,258.7,190.1,259.2,190.7,259.1"/>
		<path class="st26" d="M302.9,101.9c-1.5,22.5-17.4,35.2-32,36.6c-0.3,0-12.2,1.1-15.2,1.4c-7.9,0.8-12.3,10.7-9.3,19
			c-7.2-8.7-2.8-23.2,7.7-24.2l16.2-1.5C283.6,132,296,121.7,302.9,101.9"/>
		<path class="st26" d="M130.4,118.1c5.6,21.9,23.6,31.4,38.3,30c0.3,0,12.2-1.2,15.2-1.4c7.9-0.7,14.1,8.2,12.6,17
			c5.4-9.9-1.6-23.3-12.1-22.3l-16.2,1.5C155.1,144.1,140.9,136.2,130.4,118.1"/>
		<path class="st31" d="M246.5,158.9c-1-1.3-1.8-2.6-2.4-4.1c0.7,1.4,1.4,2.7,2.3,3.8C246.4,158.7,246.4,158.8,246.5,158.9"/>
		<path class="st31" d="M196.5,163.6c0.8-1.4,1.3-2.9,1.6-4.5c-0.4,1.5-0.9,2.9-1.6,4.2C196.6,163.4,196.6,163.5,196.5,163.6"/>
		<path class="st32" d="M275,115.3c-7.9,3.2-14.9,0.3-22.5,4.3c-4.8,2.4-7.7,10.1-7.2,14.5c0.9-3.6,6-12.2,15.1-11.9
			c10.4,0.4,14.7-0.2,19.9-3.6c7.3-4.8,11.4-12.4,11.8-20.9C288.1,107.6,283.7,111.7,275,115.3"/>
		<path class="st32" d="M160.4,126.1c8.3,1.7,14.7-2.4,22.9,0c5.1,1.5,9.4,8.5,9.8,12.9c-1.6-3.4-8.2-10.9-17.1-8.9
			c-10.2,2.3-14.5,2.5-20.2,0.2c-8.1-3.4-13.5-10-15.5-18.3C146,120.9,151.2,124.2,160.4,126.1"/>
		<path class="st32" d="M219.4,138.8c0.3-0.9,0.6-1.8,1-2.8c0.4-1,0.8-2,1.3-3.1c17.1-36.1,48.2-7.4,54.5-49.4
			c-5.9,14.1-12.9,18-22.6,20.6c-8.9,2.4-17.2-1.1-29,8.4c-1.5,1.2-3.1,2.8-4.3,5.1c0.6-3.9,1.9-7.7,4-11c-0.8,0.5-1.6,1-2.3,1.6
			c3.6-9.3,0.2-25.3-8.3-31.3c-7.3,7.4-7.6,23.8-2.3,32.3c-0.8-0.4-1.6-0.8-2.5-1.1c2.6,2.9,4.7,6.4,6,10.1c-1.7-2-3.5-3.3-5.2-4.2
			c-13.4-7.1-20.9-2.1-30.1-2.8c-10.1-0.7-17.6-3.2-26.1-16c14,40.1,39.3,6.1,62.8,38.3c0.7,0.9,1.3,1.8,1.9,2.8
			C218.5,137.1,219,138,219.4,138.8"/>
		<path class="st32" d="M228.1,104.4c15.3-12.8,33.8,1,38-27.1c-4.1,9.9-9.1,11.4-15.9,13.2c-4.8,1.3-10.1,0.1-16.2,2.8
			c-1.8-14.1-9.7-25.9-20.1-27.3C224.1,70.3,228.7,87.1,228.1,104.4"/>
		<path class="st32" d="M204.5,106.6c-17.4-9.7-33,7.3-42.4-19.5c5.9,9,11,9.5,18.1,10c5,0.4,10-1.8,16.5-0.2
			c-0.8-14.2,4.7-27.2,14.7-30.5C202,72.4,200.6,89.7,204.5,106.6"/>
		<path class="st32" d="M283.1,89.1c-0.7,10.3-7.2,18.7-15.8,20.7C278.2,113.5,287.7,101.1,283.1,89.1"/>
		<path class="st32" d="M147.6,101.8c2.6,10,10.5,17,19.4,17.4C156.9,124.9,145.3,114.5,147.6,101.8"/>
		<path class="st32" d="M226.5,170.6c10.1-0.4,15.1-14.1,8.3-23C236.8,156.7,233.3,166,226.5,170.6"/>
		<path class="st32" d="M218.3,171.3c-10,1.5-17.5-11.1-12.4-21C205.7,159.6,210.8,168.1,218.3,171.3"/>
		<path class="st32" d="M227.5,136.7c0.7,0.2,1.4,0.3,2.1,0.4c-7.1,3.8-10.2,14.5-5,22.9c-2-13.6,6.1-18.3,10.8-21.5
			c6.5-4.5,9-13.7,6-21.1C241,126.8,235.3,134.6,227.5,136.7"/>
		<path class="st32" d="M211,138.2c-0.6,0.3-1.3,0.6-2,0.8c7.6,2.4,12.7,12.4,9.1,21.6c-0.6-13.8-9.4-16.9-14.6-19.2
			c-7.2-3.3-11.4-11.7-9.8-19.6C196,131,203,137.6,211,138.2"/>
		<path class="st32" d="M239.1,85c7.9,1.9,16.7-2.3,20.3-11.3c-4.6,4-10.6,6.2-16.6,4.9c-1.7-7-5.7-12.2-13-13
			C236.5,69.9,238.1,78,239.1,85"/>
		<path class="st32" d="M190,89.6c-7.4,3.3-16.9,0.8-22-7.3c5.3,3.1,11.6,4.1,17.2,1.7c0.4-7.2,3.3-13.1,10.3-15.2
			C189.7,74.3,189.7,82.6,190,89.6"/>
		<path class="st31" d="M274.2,168.2c10.8-5.7,17-18.2,15.3-31.5C299,150.6,289.8,170,274.2,168.2"/>
		<path class="st31" d="M171,177.9c-11.7-3.6-20.1-14.7-20.9-28.1C143.4,165.2,156,182.6,171,177.9"/>
		<path class="st31" d="M276.9,183.4c23.3-8.8,26.7-25.1,23.7-47.8C314.3,158.5,303.1,185.8,276.9,183.4"/>
		<path class="st31" d="M171.2,193.3c-24.5-4.3-30.9-19.7-32.2-42.5C129.8,175.8,145.9,200.6,171.2,193.3"/>
		<path class="st31" d="M320.1,166.7c-0.2-11.4-2.5-25.6-8-32.1c6.7,25,1.6,54.7-24.5,63.7c11.1,0.1,20.5-4.2,27-10.6
			c4,16.7,13.2,21.6,15.9,22.5C321.3,195.2,320.3,179.9,320.1,166.7"/>
		<path class="st31" d="M125.7,185c-1.9-11.3-2.3-25.6,1.9-33c-1.9,25.8,8.6,54,35.9,58c-10.9,2.1-20.9-0.3-28.5-5.4
			c-0.8,17.2-8.9,23.6-11.4,25C129.8,213.1,127.9,198,125.7,185"/>
		<path class="st33" d="M226.5,214.1c0.6,0.1,1.3,0.1,2,0c1.5-0.2,2.9-1.1,3.7-2.4c1.7-2.7,0.5-0.8,3.3-5.3c1.7-2.7,3.8-4,6.3-4.3
			c4.5-0.4,8-4.5,8.3-9.5c4.7,6.6,2.4,16-3.8,19.1c-0.4-1.7-1.8-2.9-3.3-2.7c-1.7,0.2-2.9,1.9-2.8,3.8c0.1,1.1,0.7,2.1,1.4,2.7
			c-3,4.8-8.7,14-8.7,14l1,10.6l-4.4,7l-5.6-6.1l-1-10.6c0,0-7.3-7.9-11.2-12.1c0.6-0.7,1-1.8,0.9-2.9c-0.2-2-1.7-3.4-3.4-3.3
			c-1.5,0.1-2.7,1.6-2.8,3.3c-6.6-1.9-10.6-10.7-7.3-18c1.3,4.8,5.4,8.2,10,7.8c2.5-0.2,4.8,0.7,7,3c3.6,3.9,2.1,2.3,4.3,4.6
			c1.1,1.2,2.6,1.8,4.1,1.7C225.2,214.4,225.8,214.3,226.5,214.1"/>
	</g>
</g>
</svg>
