<?xml version="1.0" encoding="utf-8"?>
<!-- Generator: Adobe Illustrator 24.3.0, SVG Export Plug-In . SVG Version: 6.00 Build 0)  -->
<svg version="1.1" id="圖層_3" xmlns="http://www.w3.org/2000/svg" xmlns:xlink="http://www.w3.org/1999/xlink" x="0px" y="0px"
	 viewBox="0 0 303.7 471.3" style="enable-background:new 0 0 303.7 471.3;" xml:space="preserve">
<style type="text/css">
	.st0{opacity:0.8;}
	.st1{opacity:0.8;fill:#4C4C4C;enable-background:new    ;}
	.st2{fill:#F7E7D6;}
	.st3{fill:#63AD9B;}
	.st4{fill:#005944;}
	.st5{fill:none;}
	.st6{fill:#096A52;}
	.st7{opacity:0.18;}
	.st8{fill:url(#SVGID_1_);}
	.st9{fill:#CB3E54;}
	.st10{fill:#014432;}
	.st11{fill:#5F554E;}
	.st12{clip-path:url(#SVGID_3_);fill:#014432;}
	.st13{fill:#DC6897;}
</style>
<g class="st0">
	<g>
		<ellipse id="XMLID_43_" class="st1" cx="154.3" cy="438" rx="117.8" ry="15.4"/>
	</g>
</g>
<g>
	<g>
		<path id="XMLID_10_" class="st2" d="M277,197.1c0,0,10.4-6.3,10.5,5.5s-11.1,15.9-15.9,13.5C266.8,213.8,277,197.1,277,197.1"/>
	</g>
</g>
<g>
	<g>
		<path id="XMLID_9_" class="st2" d="M75.1,256.1c0,0-12.2,0.3-5.9,10.3s17.9,7.4,20.7,2.8C92.6,264.6,75.1,256.1,75.1,256.1"/>
	</g>
</g>
<path class="st2" d="M278.3,197.3c-0.5,0.9-0.8,2.3-0.6,3.9c0.5,4.3,0,8.9-1.4,13.8c2.5-6,4.2-12.4,5-19
	C280.4,196.6,278.6,196.7,278.3,197.3z"/>
<g>
	<g>
		<path id="XMLID_6_" class="st3" d="M139.7,96.9c-61.2,17.8-94.8,73-83.7,125.4c2.9,13.8,8.4,25.2,15.8,34.4l2.4-0.3
			c0.7,0.3,4,4.7,5.5,6c2.4,2.1,6.2,6,10.9,10.4c26.3,15.7,63.6,16.5,101.9,5.3c40.8-11.9,71.6-33.3,83.8-63.1
			c1.4-4.9,2-9.5,1.4-13.8c-0.2-1.6,0.1-3,0.6-3.9c0.3-0.7,2.1-0.7,3-1.3c1.5-11.8,0.5-24.6-3.5-38.4
			C262.8,106.2,200.9,79,139.7,96.9z"/>
	</g>
</g>
<g>
	<g>
		<polygon id="XMLID_14_" class="st4" points="284.2,171 282.5,171.6 282.7,172.1 282.3,173 281.5,173.5 281.3,174.4 280.9,174.9 
			280.1,175.4 279.4,176.9 278.3,178 277.8,178.8 277.5,179.4 276.9,179.8 276,181.3 275,182.5 274.4,182.9 273,184.9 272.3,185.3 
			271.5,186.1 271.3,187 271,187.5 270.3,187.9 269.7,188.7 269.4,189.2 268.5,189.6 268.2,190.5 267.5,190.9 267.2,191.7 
			266.5,192.1 266.1,192.9 265.7,193.4 265,193.9 264.5,194.6 263.9,195 262.8,196.5 262.5,197.1 261.8,197.4 261.3,198.1 
			260.7,198.5 260.1,199.2 259.5,199.7 259,200.2 258.1,200.4 257.5,201.1 257,201.8 256.4,202.3 255.9,202.8 255.1,203.1 
			254.6,203.8 253.8,204.1 253.3,204.9 252.9,205.3 252,205.6 251.5,206.4 251,206.7 250.2,206.9 249.4,207.5 248.9,208.1 
			248.1,208.3 247.6,209.1 247,209.3 246.2,209.8 245.5,210.3 245,210.8 244.3,211.2 243.7,211.8 242.9,212 242.3,212.6 
			241.6,212.9 240.9,213.5 240.4,213.9 239.7,214.1 239,214.6 238.2,214.9 236.7,215.8 236.2,216.5 235.6,216.7 234.8,217.1 
			234,217.5 233.3,218 232.9,218.4 232,218.5 231.2,219.1 230.7,219.6 229.2,220.2 228.5,220.6 227.9,221.1 227.1,221.2 
			226.5,221.8 225.6,221.7 225,222.5 224.3,222.6 223.5,222.8 222.7,223.2 222,223.6 221.3,224 220,224.6 219.1,224.8 218.4,225.4 
			217.7,225.6 216.9,226 216.3,226.3 214.8,226.7 214,227.2 213.4,227.4 212.5,227.5 211.1,228.4 210.4,228.5 209.5,228.8 
			208.8,229.4 208.2,229.6 207.4,229.6 206.5,230 205.2,230.7 204.5,230.9 203.6,230.9 202.8,231.2 202.1,231.8 201.5,232 
			200.6,232.1 199.8,232.3 199.1,232.8 198.3,232.9 197.7,233.2 196.8,233.2 195.3,233.8 194.6,234 192.9,234.2 192,234.6 
			191.5,235 190.6,234.9 189.9,235.4 189.1,235.3 188.3,235.9 187.7,236.1 186.9,236.1 185.4,236.7 184.6,236.9 183.7,236.9 
			183,237.2 182.2,237.2 181.4,237.7 180.6,237.8 180,238 179.1,237.8 178.2,238.3 177.7,238.6 176.8,238.3 175.1,238.7 
			174.2,239.1 173.7,239.5 172,239.4 171.3,239.9 170.6,239.8 169.1,240.4 168.2,240.3 167.4,240.7 166.6,240.6 165.9,241.1 
			165.2,240.9 164.2,241 163.5,241.4 162.7,241.2 161.9,241.5 161.1,241.6 160.4,241.9 159.5,241.8 158.8,242.2 158,242 
			157.1,242.2 156.4,242.6 155.8,242.5 154.7,242.6 154,243 153.2,243 152.4,243.2 151.7,243.5 150.9,243.5 150.2,243.7 
			149.3,243.5 148.5,243.9 147.7,243.7 146.9,244.1 146.1,244 145.3,244.4 144.5,244.5 143.8,244.7 143.1,244.5 142.1,244.4 
			141.4,244.9 140.6,244.8 139.8,245 139.1,244.9 138.1,245.1 137.4,245.3 135.9,245.4 135.1,245.1 133.4,245.5 131.8,245.5 
			131.1,245.7 130.4,245.5 129.4,245.6 128.7,245.8 127.8,245.8 127.1,245.9 126.3,245.8 124.8,245.8 124,245.7 123.1,245.7 
			122.3,245.6 121.4,245.6 120.7,245.7 119.9,245.6 119.1,245.7 118.4,245.6 117.5,245.3 116.7,245.6 116.1,245.4 115.3,245.1 
			114.4,245.1 113.5,244.9 112.7,245.3 112,245 111.1,245.2 110.4,245.1 109.7,245 108.8,244.6 108,244.8 107.2,244.4 106.4,244.6 
			105.7,244.4 104.8,244 103.9,244.3 102.4,243.9 101.6,244 100.9,243.8 100.2,243.5 99.2,243.6 98.5,243.6 97.7,243 96.8,243.3 
			96.2,243.2 95.3,243.1 94.6,242.7 93.8,242.7 93.1,242.4 92.2,242.4 91.5,242.2 90.7,241.8 89.7,241.9 89,241.9 88.4,241.6 
			87.5,241.5 86.7,241 85.8,241.2 85.2,241.1 84.5,240.7 83.5,240.5 82,240.4 81.3,240 80.4,239.9 79,239.5 78,239.4 77.4,239.2 
			76.8,238.8 75.9,238.6 75.1,238.3 74.2,238.3 73.5,238.2 72,237.6 71.1,237.5 69.7,237.1 69,236.5 67.3,236.4 66.7,236 
			65.8,235.6 64.9,235.7 64.3,235.5 63.6,235.3 62.9,234.7 61.3,234.3 60.4,234.3 59.8,234.1 59,233.6 58.3,233.5 57.6,232.8 
			56.7,232.9 55.3,232.1 54.4,232.2 53.9,231.7 50.8,230.9 50.2,230.2 49.3,230.1 48.6,229.6 47.6,229.7 47,229.5 46.5,229.1 
			45.8,228.5 44.9,228.2 42.5,228.1 44.7,230.1 46,232 46.5,232.8 47.2,233.2 47.9,234.6 48.6,235.3 49.4,235.7 49.7,236.3 
			50.1,237 52.2,238.6 52.7,239.1 53,239.7 54.2,241 54.7,241.6 56.1,242.6 57.3,243.6 57.8,244.4 58.6,244.7 59,245.5 60,245.7 
			60.5,246.2 61,246.6 61.5,247.3 62.4,248 63.2,248.1 63.6,248.6 64.4,249.1 65,249.7 65.9,250 67.1,250.7 67.6,251.3 68.4,251.9 
			69.1,252.3 70,252.5 70.5,253 71.3,253.3 71.9,253.7 72.7,254.1 73.3,254.5 74.9,255 75.6,255.6 76.4,255.8 77,256.1 77.7,256.7 
			78.5,257.1 79.3,257.2 80,257.7 80.9,257.7 81.4,258.2 82.3,258.6 83,258.8 83.8,259.3 84.7,259.2 85.3,259.5 86,260 86.8,260.3 
			87.7,260.4 89.1,261.2 90,261.2 91.3,262 92.2,262.4 93.1,262.4 93.8,262.5 96,263.4 96.9,263.5 97.7,263.9 98.6,263.9 99.2,264 
			99.8,264.5 101.6,265 103.2,265.1 103.9,265.4 104.9,265.5 105.7,265.2 106.3,265.4 107.2,265.9 108.1,265.6 108.7,266 
			110.4,265.9 111,266.3 112,266.4 112.8,266.3 113.5,266.7 114.4,266.5 115.1,266.5 116,266.9 116.9,266.7 117.5,266.8 
			118.3,267.2 120.1,267.2 120.8,267 121.4,267.1 122.3,267.5 123.2,267.4 124,267.5 124.9,267.5 125.6,267.4 126.3,267.7 
			127.3,267.6 128.1,267.5 128.9,267.5 129.6,267.5 131.1,267.6 131.9,267.9 132.8,267.8 133.7,267.9 134.5,267.6 135.3,267.9 
			136.1,267.5 136.7,267.8 137.8,267.8 138.5,267.5 139.3,267.6 140,267.5 140.9,267.9 141.8,267.3 143.2,267.3 144.1,267.5 
			144.9,267.3 145.7,267.5 146.5,267.2 147.2,267.5 149,267.4 150.5,267.1 151.3,267.1 152.1,267 153,266.9 153.7,266.6 154.5,267 
			155.3,266.5 156.2,266.8 156.9,266.3 157.7,266.6 158.6,266.3 159.2,266.2 160.1,266.2 161,266.1 161.7,265.9 163.3,265.8 
			164.2,265.6 164.9,265.2 165.7,265.2 166.4,265 167.3,265.1 168,264.8 168.9,265.1 169.7,264.4 170.3,264.4 171.3,264.6 
			172.1,264.1 172.9,263.9 173.6,263.7 175.2,263.5 175.9,263.2 176.7,263.3 177.5,263 178.3,262.9 179.2,262.8 179.9,262.4 
			180.6,262.5 181.6,262.2 182.2,261.9 183.1,261.8 184.5,261.4 185.4,261.4 186.8,260.7 187.7,260.9 188.6,260.5 189.3,260.1 
			189.9,260 191.6,259.8 192.5,259.4 193.1,259 193.9,258.9 194.6,258.6 195.4,258.6 196.9,257.9 197.7,257.8 199.2,257.2 
			200,257.2 201,257 201.6,256.4 203.1,256 203.8,255.7 204.6,255.5 206,254.8 207,254.9 207.7,254.2 208.3,254 209.2,253.9 
			209.9,253.4 211.6,253.2 212.2,252.5 212.7,252.4 213.7,252.4 214.5,251.8 215.1,251.4 215.8,251 216.4,250.8 217.4,250.9 
			218.2,250.2 218.8,249.8 219.4,249.5 220.3,249.5 221.1,249 222.7,248.5 223.2,247.9 224,247.9 224.8,247.6 225.5,247.2 
			226.3,246.9 226.9,246.3 227.7,246.3 228.4,245.7 229.1,245.5 229.9,245.1 230.7,244.8 231.3,244 231.9,243.7 232.6,243.3 
			233.2,243 234.2,243 234.9,242.3 235.5,241.8 236.1,241.5 236.9,241.2 237.7,240.9 238.9,239.9 239.7,239.8 240.6,239.4 
			241.2,238.6 241.7,238.2 242.4,238 243.2,237.6 243.8,237 244.5,236.8 245.3,236.3 245.9,235.7 246.5,235.3 247.2,234.8 
			248,234.4 248.5,233.7 249.3,233.5 249.8,232.8 250.4,232.4 251.3,232.1 251.7,231.2 252.3,231 253.1,230.3 253.6,229.7 
			254.2,229.3 255.4,228.3 256.1,227.9 256.8,227.3 257.3,226.8 258,226.4 258.7,225.6 259.1,225.1 259.7,224.7 260.3,224 
			260.7,223.3 261.4,222.9 261.9,222.2 262.8,221.9 263,221 263.6,220.7 264.4,219.9 265.2,218.6 265.7,218.2 266.4,217.7 
			267.1,217.1 267.5,216.4 268.2,215.7 268.4,214.9 268.9,214.4 269.3,213.8 270.2,213.3 270.4,212.3 271.2,211.2 271.9,210.8 
			272.5,209.9 272.6,209 273,208.5 273.8,208 274.1,207.1 274.6,206.6 275,205.8 275.8,204.4 276.3,203.7 276.7,203 277,202.3 
			277.3,201.6 277.8,201 278.1,200.1 278.4,199.3 278.6,198.6 279.5,197.3 279.7,196.4 280.1,195.8 280.3,194.9 280.7,194.3 
			281,193.3 281.1,192.6 281.4,191.8 281.8,190.3 282.2,189.6 282.2,188.7 282.4,188.1 282.9,187.2 282.7,186.3 282.8,185.7 
			283.3,184.9 283.3,183.2 283.4,182.4 283.3,181.5 283.4,180.8 283.6,180 283.8,179.2 283.7,178.4 283.8,177.6 283.7,176.8 
			283.8,176 283.9,175.1 283.7,174.3 283.9,173.6 283.8,172.6 283.7,172.2 		"/>
	</g>
</g>
<path class="st5" d="M172.8,257.1C172.9,257.1,172.9,257,172.8,257.1C172.9,257,172.8,257,172.8,257.1L172.8,257.1z"/>
<g>
	<g>
		<path class="st6" d="M26.2,178.8c0.3-0.3,0.5-0.5,0.8-0.8c-0.6,0.2-1.3,0.3-1.9,0.5c0.3,0.1,0.7,0.2,1,0.3
			c-0.3-0.2-0.6-0.3-0.9-0.5c0.3,0.2,0.6,0.5,0.8,0.7c0.9,0.8,1.9,0.7,2.8,0c0.2-0.2,0.5-0.4,0.7-0.6c-0.5,0.2-0.9,0.4-1.4,0.6
			c0.3,0,0.5,0,0.8,0c-0.3-0.1-0.7-0.2-1-0.3c0.2,0.1,0.4,0.2,0.6,0.4c1.2,0.7,2.5,0,2.9-1.2c0.1-0.2,0.2-0.4,0.2-0.6
			c-1.1,0.3-2.2,0.6-3.3,0.9c0.3,0.3,0.5,0.6,0.8,0.9c0.8,1,2.6,0.7,3.1-0.4c0.3-0.5,0.5-1,0.8-1.5c-1,0.1-2.1,0.3-3.1,0.4
			c0.4,0.5,0.9,1.1,1.5,1.4c0.7,0.3,1.6,0.1,2.4-0.1c0.6-0.1,1.3-0.8,1.4-1.4c0.1-0.5,0.2-1.1,0.3-1.6c-0.6,0.5-1.3,1-1.9,1.5
			c0.4,0.1,0.8,0.1,1.2,0.2c-0.6-0.3-1.2-0.7-1.7-1c0.2,0.4,0.4,0.7,0.6,1.1c0.6,1.1,2.3,1.3,3.1,0.4c0.5-0.5,1-1.1,1.5-1.6
			c-0.9,0-1.9,0-2.8,0c0.9,0.9,1.8,1.5,3.2,1.5c0.7,0,1.6-0.1,2.1-0.7c0.4-0.4,0.6-0.9,0.9-1.4c-1,0.1-2.1,0.3-3.1,0.4
			c0.5,0.6,1.1,1.2,1.6,1.8c0.6,0.6,1.7,0.8,2.4,0.3c0.4-0.3,0.8-0.5,1.2-0.8c0.8-0.5,1.1-1.3,0.9-2.3c-0.1-0.3-0.1-0.5-0.2-0.8
			c-0.3,0.8-0.6,1.5-0.9,2.3c0.3-0.1,0.5-0.3,0.8-0.4c-0.5,0.1-1,0.1-1.5,0.2c0.2,0,1.1,0.3,0.7,0.1c-0.4-0.1,0.4,0.2,0.6,0.3
			c1,0.5,2.2,0.3,2.7-0.7c0.2-0.3,0.4-0.6,0.5-1c-1,0.1-2.1,0.3-3.1,0.4c0.4,0.3,0.8,0.6,1.1,1c0.8,0.6,2.1,0.9,2.8,0
			c0.2-0.2,0.6-0.5,0.6-0.8c0.1-0.4-0.5,0.4-0.1,0c0.1-0.1,0.3-0.2,0.4-0.2c-0.3,0.1-0.7,0.2-1,0.3c0.3,0,0.7,0.1,1,0.1
			c0.7,0.1,1.4-0.4,1.7-1c0.2-0.3,0.4-0.7,0.6-1c-0.9,0.2-1.8,0.5-2.7,0.7c0.3,0.2,0.7,0.3,1,0.5c1.2,0.6,2.5,0.1,2.9-1.2
			c0.1-0.4,0.2-0.8,0.3-1.2c-0.3,0.4-0.6,0.8-0.9,1.2c0.4-0.2,0.7-0.4,1.1-0.6c-1-0.4-2-0.8-2.9-1.2c0.1,0.5,0.2,0.9,0.3,1.4
			c0.4,2,3.3,1.8,3.9,0c0.1-0.4,0.2-0.7,0.3-1.1c-0.5,0.5-0.9,0.9-1.4,1.4c0.4-0.1,0.8-0.2,1.3-0.4c0.6-0.2,1.3-0.7,1.4-1.4
			c0.1-0.3,0.1-0.6,0.2-1c-1.1,0.3-2.2,0.6-3.3,0.9c0.1,0.1,0.2,0.2,0.3,0.3c0.7,0.8,2.1,0.8,2.8,0c0.2-0.2,0.4-0.4,0.5-0.6
			c-0.3,0.2-0.6,0.3-0.9,0.5c0.4-0.1,0.8-0.2,1.1-0.2c0.9-0.2,1.4-1.1,1.5-1.9c0-0.3,0.1-0.6,0.1-0.9c-0.3,0.6-0.7,1.2-1,1.7
			c0.4-0.3,0.8-0.5,1.2-0.8c0.2-0.1,0.3-0.3,0.4-0.4c0.1-0.1-0.5,0.3,0.1,0c1.2-0.5,1.3-1.5,1.5-2.6c-0.5,0.5-0.9,0.9-1.4,1.4
			c0.3-0.1,0.5-0.2,0.8-0.3c0.8-0.3,1.5-1,1.5-1.9c0-0.4,0-0.8,0-1.2c-0.8,0.6-1.7,1.3-2.5,1.9c0.5,0.1,1,0.1,1.5,0.2
			c1.4,0.2,2.4-0.5,2.5-1.9c0-0.4,0.1-0.9,0.1-1.3c-0.7,0.7-1.3,1.3-2,2c1,0.1,1.9,0,3-0.1c1.3-0.2,1.7-1.9,1.2-2.9
			c-0.3-0.6-0.6-1.2-0.9-1.8c-0.8,1-1.5,2-2.3,2.9c0.5,0.1,1,0.3,1.5,0.4c0.9,0.2,1.8-0.2,2.3-0.9c0.2-0.4,0.5-0.7,0.7-1.1
			c0.5-1,0.2-1.8-0.2-2.7c-0.4,1-0.8,2-1.2,2.9c0.6-0.1,1.2-0.2,1.7-0.6c0.5-0.4,0.7-0.9,1-1.5c-0.2,0.2-0.5,0.5-0.7,0.7
			c0.2-0.2,0.5-0.4,0.7-0.5c0.8-0.6,1.1-1.3,0.9-2.3c-0.1-0.4-0.2-0.8-0.3-1.2c-0.2,0.6-0.3,1.3-0.5,1.9c0.2-0.2,0.3-0.3,0.5-0.5
			c-0.3,0.2-0.6,0.3-0.9,0.5c0.6-0.2,1.2-0.3,1.7-0.6c0.3-0.2,0.5-0.5,0.7-0.7c-0.5,0.5,0,0.1,0.3-0.1c1.2-0.6,1.5-1.8,1.7-3
			c-1.1,0.3-2.2,0.6-3.3,0.9c0.4,0.3,0.7,0.6,1.1,0.9c1.5,1.2,3.8,0.1,3.3-1.9c-0.1-0.4-0.2-0.8-0.3-1.2c-0.3,0.8-0.6,1.5-0.9,2.3
			c0.3-0.2,0.6-0.3,0.8-0.5c1-0.5,1.2-1.8,0.7-2.7c-0.2-0.5-0.5-0.9-0.7-1.4c-0.4,1-0.8,2-1.2,2.9c0.7-0.2,1.4-0.5,2.1-0.8
			c0.8-0.3,1.5-1,1.5-1.9c0-0.2,0-1-0.1-0.5c-0.1,0.4,0.2-0.4,0.3-0.5c0.2-0.7-0.1-1.4-0.3-2.1c-0.6,0.8-1.3,1.7-1.9,2.5
			c0.6,0,1.2-0.1,1.7-0.1c1,0,2.1-0.9,2-2c0-0.4-0.1-0.7-0.1-1.1c-0.1-1.4-1.6-2.6-3-1.7c0,0,0,0-0.1,0c0.8,1,1.6,2.1,2.4,3.1
			c0.3-0.2,0.6-0.5,0.9-0.7c1.1-0.9,0.6-3.1-0.9-3.3c-0.4-0.1-0.8-0.1-1.3-0.2c0.5,0.6,1,1.3,1.5,1.9c0-0.3,0.1-0.6,0.1-0.9
			c-0.1,0.3-0.2,0.7-0.3,1c0.1-0.2,0.3-0.5,0.4-0.7c-0.4,0.3-0.8,0.6-1.2,0.9c0.4-0.1,0.7-0.2,1.1-0.4c2.4-0.8,1.4-4.7-1.1-3.9
			c-1,0.3-1.8,0.5-2.4,1.5c-0.5,0.8-0.6,1.6-0.7,2.4c-0.1,0.8,0.7,1.8,1.5,1.9c0.4,0.1,0.8,0.1,1.3,0.2c-0.3-1.1-0.6-2.2-0.9-3.3
			c-0.3,0.2-0.6,0.5-0.9,0.7c-1.7,1.5,0.5,4.4,2.4,3.1c0,0,0,0,0.1,0c-1-0.6-2-1.2-3-1.7c0,0.4,0.1,0.7,0.1,1.1c0.7-0.7,1.3-1.3,2-2
			c-0.6,0-1.2,0.1-1.7,0.1c-1.3,0.1-2.3,1.2-1.9,2.5c0.1,0.4,0.2,0.7,0.3,1.1c0-0.4,0-0.7,0-1.1c-0.3,0.8-0.4,1.3-0.3,2.1
			c0.5-0.6,1-1.3,1.5-1.9c-0.7,0.3-1.4,0.6-2.1,0.8c-1.3,0.4-1.8,1.7-1.2,2.9c0.2,0.5,0.5,0.9,0.7,1.4c0.2-0.9,0.5-1.8,0.7-2.7
			c-0.3,0.2-0.6,0.3-0.8,0.5c-0.8,0.4-1.1,1.4-0.9,2.3c0.1,0.4,0.2,0.8,0.3,1.2c1.1-0.6,2.2-1.3,3.3-1.9c-0.4-0.3-0.7-0.6-1.1-0.9
			c-1-0.8-3.1-0.8-3.3,0.9c0,0.3-0.1,0.6-0.1,0.9c0,0,0.4-0.3,0.1-0.1c-0.1,0.1-0.2,0.3-0.2,0.4c0.2-0.2,0.5-0.5,0.7-0.7
			c-0.8,0.4-1.3,0.7-2,1.4c0.3-0.2,0.6-0.3,0.9-0.5c-0.9,0.2-1.7,0.5-2.3,1.2c-0.9,1-0.5,2.1-0.3,3.2c0.3-0.8,0.6-1.5,0.9-2.3
			c-0.9,0.6-1.4,1.2-1.9,2.2c0.4-0.3,0.8-0.6,1.2-0.9c-0.3,0.1-0.7,0.2-1,0.2c-1.4,0.3-1.7,1.8-1.2,2.9c0.1,0.2,0.2,0.4,0.3,0.6
			c0-0.7,0-1.3,0-2c-0.3,0.4-0.5,0.8-0.8,1.2c0.8-0.3,1.5-0.6,2.3-0.9c-0.5-0.1-1-0.3-1.5-0.4c-1.7-0.5-3.1,1.4-2.3,2.9
			c0.3,0.6,0.6,1.2,0.9,1.8c0.4-1,0.8-2,1.2-2.9c-0.4,0.1-0.9,0.2-1.3,0.2c1,0.1,0.1-0.1,0-0.1c-0.2-0.1-0.5-0.1-0.7-0.1
			c-1.1-0.1-1.9,1-2,2c0,0.4-0.1,0.9-0.1,1.3c0.8-0.6,1.7-1.3,2.5-1.9c-0.5-0.1-1-0.1-1.5-0.2c-1.2-0.2-2.6,0.5-2.5,1.9
			c0,0.4,0,0.8,0,1.2c0.5-0.6,1-1.3,1.5-1.9c-0.3,0.1-0.5,0.2-0.8,0.3c-0.6,0.2-1.3,0.7-1.4,1.4c-0.1,0.4-0.1,0.8-0.2,1.2
			c0.3-0.4,0.6-0.8,0.9-1.2c-0.5,0.2-0.8,0.3-1.2,0.7c-0.1,0.1-0.3,0.2-0.4,0.3c-0.4,0.4,0.5-0.3-0.1,0.1c-1.2,0.7-1.4,1.6-1.6,2.9
			c0.5-0.6,1-1.3,1.5-1.9c-1.1,0.2-1.8,0.5-2.6,1.3c0.9,0,1.9,0,2.8,0c-0.1-0.1-0.2-0.2-0.3-0.3c-1-1.1-3.1-0.6-3.3,0.9
			c-0.1,0.3-0.1,0.6-0.2,1c0.5-0.5,0.9-0.9,1.4-1.4c-0.6,0.2-1.4,0.3-1.9,0.7c-0.6,0.5-0.8,1.3-1.1,2.1c1.3,0,2.6,0,3.9,0
			c-0.1-0.5-0.2-0.9-0.3-1.4c-0.3-1.3-1.9-1.8-2.9-1.2c-0.6,0.3-1.3,0.6-1.7,1.1s-0.5,1.3-0.7,1.9c1-0.4,2-0.8,2.9-1.2
			c-0.3-0.2-0.7-0.3-1-0.5c-1-0.5-2.2-0.3-2.7,0.7c-0.2,0.3-0.4,0.7-0.6,1c0.6-0.3,1.2-0.7,1.7-1c-1.7-0.2-2.7,0.5-3.8,1.8
			c0.9,0,1.9,0,2.8,0c-0.4-0.3-0.8-0.6-1.1-1c-1-0.8-2.5-0.8-3.1,0.4c-0.2,0.3-0.4,0.6-0.5,1c0.9-0.2,1.8-0.5,2.7-0.7
			c-0.7-0.3-1.3-0.6-2-0.8c-1-0.2-1.7,0.1-2.5,0.6c-0.8,0.4-1.1,1.4-0.9,2.3c0.1,0.3,0.1,0.5,0.2,0.8c0.3-0.8,0.6-1.5,0.9-2.3
			c-0.4,0.3-0.8,0.5-1.2,0.8c0.8,0.1,1.6,0.2,2.4,0.3c-0.5-0.6-1.1-1.2-1.6-1.8c-0.9-1-2.5-0.6-3.1,0.4c-0.2,0.3-0.4,0.6-0.6,1
			c0.6-0.3,1.2-0.7,1.7-1c-0.2,0-1.2,0.1-0.3,0.1c-0.3,0-0.6-0.1-0.9-0.2c0.3,0.2,0.6,0.3,0.9,0.5c-0.3-0.2-0.5-0.5-0.8-0.7
			c-0.8-0.7-2.1-0.8-2.8,0c-0.5,0.6-1,1.1-1.5,1.6c1,0.1,2.1,0.3,3.1,0.4c-0.4-0.6-0.7-1.4-1.3-1.8c-0.6-0.4-1.5-0.3-2.2-0.4
			c-0.8-0.1-1.8,0.7-1.9,1.5c-0.1,0.5-0.2,1.1-0.3,1.6c0.5-0.5,0.9-0.9,1.4-1.4c-0.4,0.1-0.7,0.1-1.1,0.2c0.6,0.2,1.3,0.3,1.9,0.5
			c-0.3-0.3-0.6-0.6-0.9-1c-0.8-1-2.5-0.7-3.1,0.4c-0.3,0.5-0.5,1-0.8,1.5c1-0.1,2.1-0.3,3.1-0.4c-0.3-0.3-0.5-0.6-0.8-0.9
			c-1.1-1.2-2.8-0.4-3.3,0.9c-0.1,0.2-0.2,0.4-0.2,0.6c1-0.4,2-0.8,2.9-1.2c-0.7-0.4-1.4-0.7-2.2-0.6c-1,0-1.6,0.6-2.3,1.2
			c0.9,0,1.9,0,2.8,0c-0.8-0.7-1.4-1.2-2.5-1.5c-1.4-0.3-2.1,0.3-3,1.2C21.6,177.7,24.4,180.6,26.2,178.8L26.2,178.8z"/>
	</g>
</g>
<g>
	<g id="XMLID_5_">
		<polygon class="st6" points="287.8,126.8 287.8,126.2 287.1,125.7 286.8,126.3 286.3,126.4 285.9,126 285.9,125 285,125.6 
			284.8,126.1 284.5,126 284.6,125.2 283.7,125.1 282.8,125.2 282.1,125.2 281.3,125.6 280.8,125 281.1,124.1 280.5,124.6 
			280,124.9 279.3,124.4 278.5,125 278,124.1 277.2,124.8 276.4,124.2 275.6,124.7 275.2,123.6 274.4,123.9 274,123.8 273.6,123.4 
			273.7,124.1 272.9,123.8 272.2,124.1 271.2,124 271,122.9 270.2,122.7 269.4,122.9 268.8,122.4 268.1,122.8 267.2,122.4 
			266.8,122.3 266,121.8 265.2,122.5 264.4,122 263.7,122.1 263.1,121.3 262.3,121.8 261.5,122 260.7,122.4 260,122 259.2,121.3 
			259.2,120.7 259,120 258.2,120.2 257.9,120.6 257.4,120.9 256.9,120.5 256.8,120.1 256.1,120.4 255.8,120.8 255.2,120.6 
			255.2,119.9 254.6,119.8 253.8,120.2 253.1,119.6 252.4,119.6 251.8,118.9 251.1,118.6 250.3,118.6 249.6,119.1 249,118.9 
			248.3,118.3 247.5,118.7 246.8,118.5 246,119 245.3,118.6 244.6,118.1 244,117.7 243.2,118.5 242.6,117.6 241.8,117.5 
			241.3,117.6 241.2,117.2 241,116.9 240.6,116.7 240.3,117.1 239.7,117.4 239,117.3 238.3,116.9 237.4,116.7 237.4,116.6 
			236.7,116.6 236,117.3 235.8,116.5 235.5,116.4 235.2,116.5 234.4,117.1 234.5,116.1 234.1,115.9 233.3,116 232.6,115.6 
			232.1,115.6 231.9,116.2 231.2,115.8 230.4,115.6 229.7,115.6 229.2,115.6 229,115.1 228.4,115.1 227.6,115 226.9,114.8 
			226.2,114.8 225.5,114.7 224.8,114.2 224.2,114.1 224,114.7 224.2,113.9 223.5,113.5 222.6,113.7 222.3,114.2 221.9,114.4 
			221.2,114.2 220.6,113.8 220,113.2 219.2,113 219,112.9 218.4,113.2 217.6,113.3 217,112.8 216.3,112.9 215.6,112.3 215,112.4 
			214.9,112.1 214.2,112.1 213.6,111.5 212.8,111.5 212,111.8 211.3,111.9 210.7,111.5 210,111.4 209.8,111.6 209.2,111.5 
			209,111.3 209,110.5 208.2,110.9 208,110 207.4,110.3 207.3,110.8 207,111.4 206.3,110.6 206.1,110.9 205.5,111.3 205,110.4 
			204.9,110.9 204.1,111.4 203.6,110.5 202.9,110.5 202.7,110.1 202.1,110.2 201.6,109.5 200.8,109.5 200.1,109.1 199.5,109.6 
			199.3,110.5 198.5,110 198,109.5 198,108.9 197.7,109.4 197.1,109.4 196.4,109.3 195.7,109.2 195,109.3 194.3,109.2 193.5,109 
			193.2,108.6 193,108.3 192.2,108.3 191.4,108.7 190.8,108.1 190.1,108.2 189.2,108.4 188.8,107.6 188.3,107.4 188.1,107 
			187.3,107.3 186.5,107 185.7,107.6 185.2,106.9 184.4,106.9 183.7,106.3 182.8,106.5 182.2,107 181.5,106.5 180.7,106.6 
			180,106.3 179.4,105.8 178.8,105.6 178.2,104.7 177.7,105.4 177.2,105.9 176.5,105.7 175.8,105.5 175.8,105 175.2,104.9 
			174.5,104.7 173.7,104.3 173,103.7 172.5,104.3 172.2,104.8 171.6,104.4 170.7,104.8 170.4,104.1 170.4,103.3 169.9,103.8 
			169.4,104.1 168.7,104.2 168,103.8 167.5,103.7 167.4,103.1 166.6,103.1 165.8,103.5 165.2,102.7 165,103.4 164.4,103.4 
			163.8,103.2 163.9,102.3 163.1,101.9 163,102.7 162.3,102.8 161.4,103.1 160.8,102.5 160,102.8 159.4,102.2 158.7,102 
			158.5,101.6 158.1,100.9 157.3,101.2 156.6,100.8 155.8,101.2 155.1,101.1 154.4,101.6 154.3,101.8 153.7,102.1 153.5,101.4 
			153,100.8 152.4,101.6 151.5,101.8 150.8,101.7 149.8,101.3 150,100.6 150,101.5 149.4,102.4 148.6,102 147.9,101.6 147.2,101.4 
			146.5,101.2 146.2,101.5 145.7,101.7 145.1,101.7 144.3,101.6 143.8,101.4 143.7,100.7 142.9,100.7 142.1,101.3 141.4,101.3 
			140.7,100.9 140.4,100.8 140,101.5 139.3,101.6 138.6,101.2 137.9,101 137.8,100.5 137,100.4 136.4,101.2 135.8,100.2 135,100.7 
			134.3,100.9 133.6,100.9 132.9,100.5 132,101.1 131.3,100.6 130.7,100.6 130,100.4 129.3,100.2 128.6,99.7 128,100.5 127.7,100.6 
			127,100.9 126.4,101.2 125.7,101.2 124.9,101.5 124.2,101.1 123.5,100.6 122.8,100.3 122.1,100.3 121.3,100.3 120.7,99.7 
			120.1,100.6 119.1,101.1 119,99.9 118.5,99.4 117.7,99.8 117,100.1 116.3,99.8 115.6,99.4 114.8,99.6 114.1,100.3 113.5,99.7 
			113.3,100.2 112.6,100.8 112.7,99.8 112,99.4 111.2,99.8 110.5,100.3 109.7,100.4 109.9,99.5 109.2,99 109.1,99.7 108.4,99.7 
			107.7,99.9 107,99.6 106.3,100.2 105.5,99.7 104.7,99.6 104,99.9 103.5,99.7 103.1,99.5 102.7,99 101.9,99.4 101.2,100.2 
			100.4,99.7 99.8,99.8 99.1,99.8 99,99.3 98.3,98.9 98.3,99.6 97.6,99.8 96.9,99.5 96.2,99.1 95.5,99 94.7,99 94.3,99 93.9,99.4 
			93.2,99.4 92.4,99.6 92.6,99 91.9,98.7 91.5,99 91.3,99.5 90.4,99.7 89.6,99.4 89.1,98.8 88.3,98.6 87.5,99.2 86.8,98.4 
			86.8,99.2 86,99 85.3,99.7 84.9,99.2 84.7,98.5 83.9,99.1 83.2,99.1 82.5,99.1 81.8,98.5 81,99 81,98.5 80.3,98 80.2,98.8 
			79.6,99.4 79.4,98.7 78.9,98.3 78.2,98.4 77.5,97.6 76.8,98.3 76,98.5 75.3,99 74.7,98.7 74.7,98 73.7,97.5 73.1,98.4 73.1,99.2 
			72.4,98.5 71.7,98.7 71,98.5 70.3,98.3 69.4,98.3 68.7,99.1 68.1,98.3 67.4,98.8 66.7,98.4 65.9,99 65.6,98.4 65.3,97.8 
			64.6,97.7 63.8,97.6 63.1,98.5 62.4,97.7 61.6,97.6 60.9,97.6 60.1,97.8 59.5,97.6 59,97.7 58.7,98.1 58,98.1 57.9,97.7 
			57.3,97.6 56.5,97.4 56.5,98 55.8,98.5 55.2,97.7 54.4,97.8 53.6,98.1 52.9,98.3 52.2,98.1 51.5,97.8 50.8,97.3 50.1,96.5 
			50,97.4 49.4,97.7 48.6,97.4 47.8,97.6 47.2,97.5 46.4,97.3 45.7,97 45.1,97.3 44.8,97.8 44.3,97.6 43.5,97.5 42.7,98 42.6,97.5 
			42.1,97.5 41.3,97.9 40.9,97.1 40.7,96.7 40,96.9 39.2,97 38.4,96.8 37.8,97.2 37.2,96.9 37,96.2 36.5,96.7 36.2,97.2 35.5,96.5 
			35.3,96.9 34.8,97.1 34.1,97.4 33.9,98.2 33.9,99 33,99.4 33.7,99.9 34.3,100.6 33.5,100.9 33,101 32.3,101.4 32.2,102.1 
			31.6,102.8 32.1,103.6 31.4,104.1 31.9,104.8 32,105.1 31.8,105.6 31.4,105.5 30.5,106.2 31.4,107.1 31.1,107.2 31.1,107.8 
			31.1,108.6 30.4,108.3 30.4,109.1 29.7,109.5 29.1,110.2 29.9,110.4 29.4,111 29.4,111.7 28.9,112.4 28.8,113 28.9,113.9 
			28.6,114.5 28.9,115.4 28.5,115.8 28,115.9 27,116.3 27.9,116.7 27.7,117.3 27.5,117.9 26.8,118.5 27.3,119.4 26.9,120 
			27.2,120.8 26.9,121.4 26.3,122.1 26.6,122.8 25.8,123.3 25.4,123.9 24.8,124 25.4,124.4 25.3,124.9 25.5,125.6 25.5,126.3 
			25.1,126.9 24.6,127.6 24.7,128.1 25.4,128.4 24.5,129 25.3,129.9 24.6,130.5 24.9,131.3 24.5,131.6 24.3,131.8 24.3,132.6 
			24.1,133.2 23.8,133.4 23.5,133.9 24.5,133.7 24.1,134.8 23.8,135.1 22.8,135.2 23.4,135.8 23.7,136.2 23.5,136.7 23.2,136.9 
			22.8,137.4 22.3,138.1 22.6,139 23.1,139.7 22.4,140.3 22.8,141.1 22.9,141.7 22.3,141.7 22.4,142.4 21.7,143.1 22.4,143.5 
			22.9,143.9 22.2,144.6 21.9,145.3 21.8,146 22.1,146.8 21,147.3 21.6,147.8 22.1,148.3 21.8,148.4 21.5,148.9 20.9,149.5 
			21,150.4 21.6,151.1 21.3,151.3 21,151.7 21.3,152.4 21.3,153.2 20.4,153.8 21,154.8 21.8,155.3 21.2,156 21,156.8 20.8,157.5 
			21.6,158.2 21.1,158.9 20.8,159.5 20.8,160.1 20.3,160.3 21,161 21.6,161.2 21.1,161.6 21.1,162.2 20.9,162.7 20.4,163.3 
			20.9,163.7 21.7,163.9 21.1,164.4 20.5,164.7 20.8,165.5 20.8,166.2 21.7,166.9 20.8,167.2 20,167.6 20.7,168.2 21.3,168.3 
			22,168.9 21.4,169.7 21,170 20.5,170.5 21.4,170.5 21.6,171.1 21.4,171.8 22,172.5 21.3,173.3 21.8,174 21.3,174.6 20.8,175.6 
			21.9,175.8 22.3,176.2 22.2,176.6 22.2,176.9 22,177.5 22.3,178.3 22.6,178.9 22.8,179.9 22,179.8 22.5,180.2 23.2,180.3 
			23.3,180.9 22.9,181.4 22.6,181.7 22.4,182.6 22.7,183.3 22.6,184.2 23.1,184.8 23.6,185.4 23.6,186.2 23.3,186.9 23.3,187.7 
			24,188.3 25,188.6 24.7,189.5 24.3,190.4 25.3,190.7 24.7,191.6 24.8,192.2 25,192.3 25.4,193.1 25.8,193.7 26.5,194.2 
			26.5,194.9 25.7,195.1 25.9,196 26.7,195.9 27.3,196.2 27.2,197.1 27.2,197.7 28,197.5 27.3,198 26.7,198.7 27.5,198.6 28,199 
			28.5,199.5 28.8,200 28.4,200.4 28.6,201.1 29.1,201.7 28.8,202.4 29,203.3 29.7,203.4 30.2,203.5 30.9,203.9 30.6,204.1 
			30.4,204.9 30.5,205.5 30.2,206 30.6,205.9 31.3,205.8 31.7,206.3 31.8,207.1 32,207.8 31.8,208.4 32.5,208.3 32.7,209.2 
			32.8,210 33.5,210.6 33.8,211.4 34.1,212 34.5,212.8 34.6,213.6 34.6,214.7 35.6,215 35.3,216 36.3,216.4 36.3,217.3 37.4,217.7 
			37.3,218.6 37.5,219.5 38.4,220 37.9,221 38.7,221.6 38.5,222.6 39.5,223 40.5,223.3 40.5,224.3 41,224.9 41.4,225.7 42.1,226.2 
			42.2,227 42.8,227.6 43.6,228.1 43.3,228.8 43.1,229.4 43.8,229.1 44.3,229.5 44.8,230 45.8,229.9 46.3,230.8 47.1,230.8 
			47.9,231.1 48.8,231.1 49.5,231.6 50.4,231.4 51.3,231.8 51.8,232.6 52.4,233.2 53.4,232.9 53.8,233.5 54.8,233.7 55.5,233.8 
			56.4,233.9 57,234.6 57.5,234.7 58,234.3 58.6,234.9 59.2,235.6 60,235.7 60.8,235.8 61.8,235.6 62.3,236.7 63.2,236.1 64,236.5 
			64.9,236.5 65.5,237.1 66.2,237.6 67.1,237.4 67.8,238.1 68.8,237.5 69.3,238.5 70.3,238.1 70.8,239 71.7,238.8 72.3,239.5 
			73.3,239.2 73.8,240 74.7,240.2 75.5,240.4 76.3,240.1 77.1,240.5 78,240.5 78.6,241.1 79.3,241.6 80.2,241.3 80.9,241.5 
			81.1,240.9 81.1,241.6 81.8,241.9 82.5,241.5 83.4,241.8 84.3,241.6 85,242.3 85.8,242.1 86.2,242.6 86.4,243 87.3,242.6 
			88.1,243.1 88.9,242.8 89.8,242.8 90.4,243.2 91.3,243.5 92,243.5 92.9,243.6 93.6,244.3 94.5,244 95.3,244.1 96,244.5 
			96.8,244.3 97.6,244.4 98.5,244.2 99.2,244.9 100,245 100.8,245.1 101.6,245 102.4,245.4 103.2,245.4 104,245.6 104.8,245.6 
			105.6,245.8 106.4,246.1 107.2,246.2 107.9,246.7 108.7,246.7 109.5,246.6 110.3,247 111.2,246.6 112,246.8 112.8,246.5 
			113.5,247.1 114.2,247 114.4,246.3 115.2,247.1 116,247.1 116.8,247 117.7,247.1 118.4,246.2 119.1,246.9 120,246.9 120.8,247.2 
			121.7,246.7 122.4,247.7 122.7,247 123.2,246.3 124,246.8 124.9,247.2 125.7,247.1 126.4,246.6 127.3,246.8 128.1,247.1 
			128.9,247.2 129.1,246.8 129.7,246.1 130.1,247 130.5,247.1 131.3,247.2 132.1,247.6 132.9,247 133.7,247.5 134.5,247 
			135.3,246.2 136.1,247.3 136.9,247.1 137.7,246.7 138.5,246.4 139.3,246.4 140.2,246.8 140.7,246.4 140.8,245.8 141.3,245.8 
			141.7,246.1 142.6,246.2 143.3,245.9 144.1,245.7 144.9,245.6 145.7,245.4 146.5,245.7 147.3,245.1 148.1,245.7 149,245.6 
			149.7,245.4 150.6,245.6 151.4,245.5 152.2,245.2 152.9,244.6 153.8,244.8 154.5,244.2 155.3,244.7 156.1,244.2 156.9,243.9 
			157.8,244.1 158.5,243.6 159.4,243.7 160,242.7 160.3,243.5 160.9,243.4 161.7,243.2 162.5,242.9 163.2,242.5 164.1,242.9 
			164.8,242 165.3,242.4 165.7,242.9 166.5,242.2 167.2,241.7 167.9,241.3 168.8,241 169.7,241.4 170.5,241.6 171.3,241.7 
			172,241.2 172.8,240.9 173.6,240.8 174.4,240.6 175,240 176,240.3 176.7,239.8 177.5,239.9 178.4,240 179.1,239.5 179.8,239 
			180.7,238.9 181.6,239.2 182.3,239.1 183.1,238.8 183.9,238.4 184.7,238 185.2,238 185.9,237.7 186.3,238.3 186.9,237.4 
			187.7,237.2 188.6,237.3 189.3,236.9 190,236.6 190.9,236.6 191.6,236.2 192.4,235.9 193.2,235.9 194,235.6 194.8,235.1 
			195.7,235.5 196.4,234.9 197,235 198,234.9 198.7,234.4 199.2,233.4 199.7,233.6 200.2,233.9 200.8,233.2 201.7,233.6 
			202.6,233.3 203.2,232.6 204.1,232.8 204.8,232.2 205.7,232.4 206.5,232 206.9,231.1 207.9,231.7 208.6,230.9 209.5,231 
			209.9,230.6 210,230 210.9,230.2 211.8,230.2 212.4,229.4 213.2,229.4 213.8,228.6 214.5,228.2 215.5,228.7 216,227.7 
			216.9,227.7 217.5,227.1 218.2,226.6 218.7,226.7 219.2,227.1 219.9,226.7 220.6,226.2 221.4,225.8 222.2,225.7 222.8,225 
			223.6,225.1 224.6,225.2 225.1,224.5 225.2,223.9 225.7,223.8 226.5,223.6 227.4,223.4 228.1,223 228.3,222.5 228.6,222.2 
			229.2,221.5 230.1,221.7 230.9,221.3 231.3,220.5 232,220 232.7,219.5 233.6,219.6 234.2,219 234.9,218.5 235.6,218.1 
			236.5,218.3 237,217.4 238,217.4 238.3,216.5 239.1,216.2 240,216.2 240.9,215.7 241,214.6 241.5,214.7 242.2,215.2 242.9,214.6 
			243,213.9 242.9,213.1 244,213.1 244.7,212.9 245.2,212.2 245.5,211.2 246.6,211.3 247.2,210.8 247.9,210.5 248.6,210 
			249.3,209.7 249.8,208.8 250.7,209 251.1,208 251.5,207.1 252.7,207.5 253.3,206.8 253.8,206.2 254.4,205.7 255.1,205.2 
			255.8,204.7 256.5,204.3 256.9,203.5 257.8,203.3 258,202.4 258.6,201.8 259.8,202 259.9,200.9 260.6,200.5 261.1,199.7 
			261.3,198.8 262.1,198.4 262.8,198.1 263.3,197.5 264,197 264.2,196 265.2,195.8 265.7,195.2 266.4,194.7 266.7,194 267,193.1 
			267.7,193.3 268,192.8 268.6,192.3 269,191.6 269.2,190.7 270.2,190.5 270.6,189.7 271.2,189.1 271.9,188.7 272.2,187.9 
			272.8,187.3 273.4,186.7 273.8,186.1 273.9,185.7 273.9,185.1 274.8,184.8 275.3,184 276,183.5 276.7,183.1 276.8,182.1 
			277.5,181.6 278.2,181.1 278.7,180.5 278.8,179.5 279.4,178.9 279.9,178.2 280.4,177.6 280.9,176.9 281.6,176.5 281.8,175.6 
			282.1,174.9 282.8,174.3 283.1,173.6 283.4,172.8 283.8,172.9 283.7,172 283.6,171.2 283.5,170.3 283.7,169.4 283.8,168.6 
			283.7,167.7 282.8,166.9 283.2,165.9 283.4,165 282.8,164.1 283.2,163.2 283.6,162.3 283.2,161.9 282.4,161.6 282.9,161 
			283,160.6 282.7,160.3 282.4,159.7 282.7,159.2 283.3,158.8 283.1,158.3 282.4,157.9 283.2,157 282.6,156.2 282.1,155.3 
			282.3,154.3 282.5,154.2 283,153.3 282.5,152.9 282.2,152.5 282.4,152.1 282.8,151.5 283.2,150.9 283.2,150.2 282.8,149.2 
			284,148.9 283.7,148.1 283.5,147.4 284.4,146.8 284.3,146.1 284.3,145.6 283.4,145.2 284.7,144.8 285.1,144.1 285,143.3 
			285.1,142.6 284.4,141.7 285.4,141.3 285,140.4 285.7,139.7 286,139.2 285.4,138.3 286.5,137.9 286.8,137 285.9,136.8 
			286.2,136.1 285.8,135.5 286.6,135.2 286.9,134.4 287.7,134.5 287.6,133.6 287.2,133.1 287,132.7 287.2,132.5 287.3,132.2 
			287.1,131.4 288,130.8 287.8,130.1 287.9,129.4 287.7,129 287.7,128.5 287.9,127.8 288.1,127.2 		"/>
	</g>
	<path class="st4" d="M154.4,172.7C154.3,172.6,154.2,172.6,154.4,172.7L154.4,172.7z"/>
	<path class="st4" d="M106.7,157.2L106.7,157.2C106.7,157.2,106.7,157.3,106.7,157.2C106.8,157.3,106.8,157.3,106.7,157.2
		C106.7,157.3,106.7,157.2,106.7,157.2z"/>
	<g>
		<g>
			<path id="XMLID_3_" class="st4" d="M293.1,134.8c0.4-0.8,0.5-1.4,0.4-2.2c0.3-0.8,0.4-1.7,0.2-2.6v-0.1c0-0.2,0.1-0.4,0.1-0.6
				c0-0.6-0.3-1.1-0.6-1.6c0-0.2-0.1-0.5-0.2-0.7c0.1-0.2,0.4-0.4,0.4-0.6c0-0.1-0.1-0.2-0.3-0.3c0-0.2,0-0.5-0.1-0.7
				c0.1-0.1,0.2-0.3,0.2-0.4c0-0.2-0.1-0.5-0.1-0.7s-0.3-0.4-0.3-0.7c0-0.2,0.2-0.5,0.1-0.7c0-0.2-0.5-0.4-0.6-0.6
				c0-0.2,0-0.5,0-0.7s-0.1-0.5-0.2-0.7c0-0.2,0-0.5-0.1-0.7s-0.1-0.5-0.1-0.7c-0.1-0.2,0.3-0.6,0.2-0.8c-0.1-0.2-0.6-0.3-0.7-0.6
				V118v-0.1c0.1-0.2,0.2-0.4,0.1-0.5c-0.1-0.2,0.1-0.5,0-0.8c-0.1-0.2,0-0.5-0.1-0.7s-0.6-0.3-0.7-0.5s0.3-0.6,0.2-0.8
				c-0.1-0.2-0.6-0.3-0.7-0.5s-0.2-0.4-0.3-0.7c-0.1-0.2-0.3-0.4-0.4-0.6s0.3-0.6,0.2-0.8c-0.1-0.2-0.6-0.3-0.7-0.5
				s-0.3-0.4-0.4-0.6s0-0.5-0.1-0.7s-0.3-0.4-0.4-0.6s0.4-0.7,0.3-0.9c-0.1-0.2-0.3-0.4-0.4-0.6s-0.3-0.4-0.4-0.6s-0.7-0.2-0.8-0.4
				c-0.1-0.2,0.2-0.6,0.1-0.8c-0.1-0.2-0.2-0.5-0.3-0.7c-0.1-0.2-0.5-0.3-0.6-0.5s-0.4-0.3-0.5-0.5s0.5-0.8,0.4-1s-0.8-0.1-0.9-0.3
				c-0.1-0.2-0.3-0.4-0.4-0.6s-0.3-0.4-0.4-0.6s0.4-0.8,0.2-1c-0.1-0.2-1,0-1.1-0.2s-0.3-0.4-0.4-0.6s0.4-0.8,0.3-1
				s-0.1-0.5-0.2-0.7s-1,0-1.1-0.2s0.2-0.7,0-0.9c-0.1-0.2-0.3-0.4-0.5-0.6c-0.1-0.2,0-0.6-0.1-0.8c-0.1-0.2-0.5-0.2-0.6-0.4
				c-0.1-0.2-0.6-0.2-0.8-0.3c-0.1-0.2,0.2-0.7,0.1-0.9c-0.1-0.2-0.5-0.2-0.6-0.4c-0.1-0.2-0.1-0.5-0.2-0.7s-0.7-0.1-0.8-0.3
				c-0.1-0.2,0-0.6-0.2-0.7c-0.1-0.2-0.3-0.3-0.5-0.5c-0.1-0.2-0.4-0.3-0.6-0.5c-0.1-0.2,0.2-0.8,0.1-1s-0.4-0.3-0.6-0.5
				c-0.1-0.2-0.6-0.1-0.8-0.3c-0.1-0.2,0.2-0.7,0-0.9c-0.1-0.2-0.3-0.4-0.5-0.6c-0.1-0.2-1,0.1-1.1,0c-0.1-0.2-0.1-0.5-0.2-0.7
				c-0.2-0.2,0.2-0.7,0-0.9c-0.2-0.2-0.8,0-0.9-0.2c-0.2-0.2,0.2-0.8,0-1s-0.3-0.4-0.5-0.6s-0.3-0.3-0.5-0.5s-0.7-0.1-0.8-0.2
				c-0.2-0.2-0.3-0.4-0.4-0.6c-0.2-0.2,0-0.6-0.2-0.8c-0.2-0.2-0.6-0.1-0.7-0.3c-0.2-0.2-0.1-0.5-0.3-0.7c-0.2-0.2-0.5-0.2-0.6-0.4
				c-0.2-0.2-0.7,0-0.9-0.2c-0.2-0.2,0-0.7-0.2-0.8c-0.2-0.2-0.5-0.2-0.6-0.4c-0.2-0.2,0.2-0.8,0-1s-0.8,0.1-0.9-0.1
				c-0.2-0.2,0.1-0.7-0.1-0.9c-0.2-0.2-0.9,0.2-1.1,0.1c-0.2-0.2-0.1-0.6-0.3-0.8c-0.2-0.2-0.3-0.4-0.5-0.5
				c-0.2-0.2-0.3-0.4-0.4-0.6c-0.2-0.2-0.2-0.4-0.4-0.6c-0.2-0.2-0.8,0.1-1-0.1s-0.1-0.6-0.3-0.7c-0.2-0.2-0.2-0.5-0.4-0.6
				c-0.2-0.2-0.4-0.3-0.6-0.5s-0.7,0-0.8-0.2c-0.2-0.2-0.1-0.6-0.3-0.7c-0.2-0.2-0.3-0.4-0.5-0.5c-0.2-0.2-0.5-0.2-0.6-0.4
				c-0.2-0.2-0.5-0.2-0.7-0.3c-0.2-0.2-0.4-0.3-0.5-0.5c-0.2-0.2-0.1-0.6-0.3-0.7c-0.2-0.2-0.1-0.6-0.3-0.7c-0.2-0.2-0.6,0-0.8-0.2
				c-0.2-0.2,0.1-0.8-0.1-0.9c-0.2-0.2-0.6,0-0.8-0.2s-0.4-0.3-0.6-0.4c-0.2-0.2-0.1-0.6-0.3-0.8c-0.2-0.2-0.9,0.4-1.1,0.2
				c-0.2-0.2,0.2-1,0.1-1.2c-0.2-0.2-0.6,0-0.8-0.1c-0.2-0.2-0.6,0-0.8-0.2s-0.3-0.4-0.5-0.6s-0.1-0.7-0.3-0.8
				c-0.2-0.1-0.6,0-0.8-0.2c-0.2-0.2-0.3-0.4-0.5-0.6c-0.2-0.1-0.5-0.2-0.7-0.3s-0.5-0.2-0.6-0.4c-0.2-0.1-0.2-0.5-0.4-0.7
				c-0.2-0.1-0.2-0.5-0.4-0.7c-0.2-0.1-0.9,0.4-1.1,0.2c-0.2-0.1-0.3-0.5-0.4-0.6c-0.2-0.1-0.6-0.1-0.8-0.2c-0.2-0.1,0.1-1-0.1-1.1
				c-0.2-0.1-0.3-0.3-0.5-0.5c-0.2-0.1-0.9,0.5-1.1,0.3c-0.2-0.1-0.3-0.4-0.5-0.6c-0.2-0.1-0.5-0.1-0.7-0.3c-0.2-0.1,0.2-1.1,0-1.2
				c-0.2-0.1-0.9,0.5-1.1,0.4c-0.2-0.1-0.3-0.4-0.5-0.5s-0.3-0.3-0.5-0.5c-0.2-0.1-0.4-0.2-0.6-0.3c-0.2-0.1-0.3-0.4-0.5-0.5
				s-0.5-0.2-0.7-0.3s-0.1-0.8-0.3-0.9c-0.2-0.1-0.8,0.3-1,0.1c-0.2-0.1-0.2-0.6-0.4-0.7c-0.2-0.1-0.6,0-0.8-0.1s-0.2-0.6-0.4-0.7
				c-0.2-0.1-0.4-0.2-0.6-0.4c-0.2-0.1-0.5,0-0.7-0.2c-0.2-0.1-0.1-0.7-0.3-0.8s-0.8,0.3-1,0.2s-0.2-0.5-0.4-0.6s-0.5,0-0.7-0.2
				c-0.2-0.1-0.4-0.3-0.6-0.4c-0.2-0.1-0.3-0.5-0.5-0.6s-0.5-0.1-0.7-0.2c-0.2-0.1-0.3-0.5-0.5-0.6s-0.5-0.1-0.7-0.2
				c-0.2-0.1-0.1-0.8-0.3-0.9c-0.2-0.1-0.6,0.1-0.8,0s-0.2-0.5-0.5-0.7c-0.2-0.1-0.4-0.3-0.6-0.4c-0.2-0.1-0.8,0.4-1,0.3
				c-0.2-0.1-0.3-0.5-0.5-0.6s-0.5-0.1-0.7-0.2c-0.2-0.1-0.2-0.7-0.4-0.8s-0.5,0-0.7-0.2c-0.2-0.1-0.6,0.1-0.8,0s-0.5-0.1-0.7-0.2
				c-0.2-0.1-0.2-0.6-0.4-0.7c-0.2-0.1-0.4-0.3-0.6-0.4c-0.2-0.1-0.3-0.4-0.6-0.5c-0.2-0.1-0.3-0.5-0.5-0.6s-0.7,0.4-0.9,0.3
				c-0.2-0.1-0.5-0.1-0.7-0.2c-0.2-0.1-0.1-0.8-0.4-0.9c-0.2-0.1-0.5-0.1-0.7-0.2c-0.2-0.1-0.5-0.1-0.7-0.2c-0.2-0.1-0.6,0.1-0.8,0
				s-0.4-0.3-0.6-0.4c-0.2-0.1-0.4-0.4-0.6-0.5c-0.2-0.1-0.6,0.1-0.8,0s-0.3-0.4-0.6-0.5c-0.2-0.1-0.5-0.1-0.7-0.2
				c-0.2-0.1-0.4-0.4-0.6-0.5c-0.2-0.1-0.4-0.3-0.6-0.4c-0.2-0.1-0.4-0.4-0.6-0.5c-0.2-0.1-0.7,0.4-0.9,0.3
				c-0.2-0.1-0.2-0.7-0.4-0.8s-0.6,0.3-0.9,0.2c-0.2-0.1-0.2-0.8-0.4-0.9c-0.2-0.1-0.5-0.1-0.7-0.2c-0.2-0.1-0.5,0-0.8-0.1
				c-0.2-0.1-0.5-0.1-0.7-0.2c-0.2-0.1-0.3-0.5-0.5-0.6s-0.4-0.3-0.6-0.4c-0.2-0.1-0.3-0.5-0.6-0.5c-0.2-0.1-0.5,0-0.7-0.1
				s-0.5-0.2-0.7-0.3s-0.4-0.3-0.6-0.4c-0.2-0.1-0.5-0.2-0.7-0.3s-0.8,0.6-1,0.5s-0.4-0.3-0.6-0.4c-0.2-0.1-0.2-0.9-0.4-1
				s-0.7,0.4-0.9,0.3c-0.2-0.1-0.5,0-0.7-0.1s-0.5-0.1-0.7-0.2c-0.2-0.1-0.5-0.1-0.7-0.2c-0.2-0.1-0.4-0.3-0.6-0.3
				c-0.2-0.1-0.2-0.8-0.5-0.9c-0.2-0.1-0.7,0.6-0.9,0.5s-0.3-0.6-0.5-0.7c-0.2-0.1-0.5,0.1-0.8,0c-0.2-0.1-0.3-0.5-0.6-0.6
				c-0.2-0.1-0.5-0.2-0.7-0.2c-0.2-0.1-0.5,0.1-0.8,0c-0.2-0.1-0.4-0.2-0.7-0.3c-0.2-0.1-0.3-0.7-0.5-0.7c-0.2-0.1-0.6,0.2-0.8,0.1
				s-0.6,0.4-0.9,0.3c-0.2-0.1-0.4-0.4-0.6-0.5c-0.2-0.1-0.5,0-0.7-0.1s-0.4-0.4-0.6-0.5c-0.2-0.1-0.4-0.3-0.6-0.4
				c-0.2-0.1-0.4-0.2-0.7-0.3c-0.2-0.1-0.5,0.1-0.8,0c-0.2-0.1-0.6,0.4-0.8,0.3s-0.4-0.4-0.6-0.5c-0.2-0.1-0.3-0.7-0.5-0.8
				c-0.2-0.1-0.5-0.1-0.7-0.1c-0.2-0.1-0.6,0.5-0.9,0.4c-0.2-0.1-0.4-0.4-0.6-0.5c-0.2-0.1-0.6,0.4-0.8,0.3s-0.3-0.7-0.6-0.7
				c-0.2-0.1-0.4-0.4-0.6-0.4c-0.2-0.1-0.6,0.3-0.8,0.2c-0.2-0.1-0.3-0.7-0.6-0.7c-0.2-0.1-0.6,0.5-0.8,0.4s-0.5,0-0.7-0.1
				s-0.4-0.5-0.6-0.5c-0.2-0.1-0.4-0.4-0.6-0.5c-0.2-0.1-0.6,0.7-0.9,0.6c-0.2-0.1-0.4-0.6-0.6-0.7c-0.2-0.1-0.5-0.1-0.7-0.1
				c-0.2-0.1-0.4-0.3-0.7-0.4c-0.2,0-0.5,0.1-0.7,0c-0.2,0-0.5,0.1-0.8,0.1c-0.2,0-0.5,0.3-0.8,0.2c-0.2,0-0.5-0.1-0.7-0.2
				c-0.2,0-0.4-0.3-0.7-0.3c-0.2,0-0.5,0.2-0.8,0.2c-0.2,0-0.3-1-0.5-1s-0.5-0.1-0.7-0.1s-0.6,0.5-0.8,0.5s-0.5,0.2-0.8,0.2
				c-0.2,0-0.3-0.9-0.6-0.9c-0.2,0-0.6,0.6-0.8,0.6s-0.4-0.2-0.7-0.3c-0.2,0-0.4-0.3-0.7-0.3c-0.2,0-0.5,0.2-0.8,0.1
				c-0.2,0-0.4-0.4-0.7-0.5c-0.2,0-0.5,0.4-0.8,0.4c-0.2,0-0.5-0.2-0.7-0.3c-0.2,0-0.5,0.2-0.7,0.2s-0.4-0.7-0.6-0.8
				c-0.2,0-0.5,0.1-0.7,0c-0.2,0-0.5,0.4-0.8,0.4c-0.2,0-0.4-0.4-0.7-0.4c-0.2,0-0.5-0.1-0.7-0.2c-0.2,0-0.5,0-0.7-0.1
				c-0.2,0-0.5-0.2-0.7-0.2s-0.5-0.2-0.7-0.2s-0.5-0.2-0.7-0.2s-0.5,0.7-0.8,0.6c-0.2,0-0.4-0.5-0.7-0.5c-0.2,0-0.5-0.3-0.7-0.4
				c-0.2,0-0.5,0-0.7,0s-0.5,0.8-0.8,0.8c-0.2,0-0.5-0.1-0.7-0.1s-0.5-0.1-0.7-0.1s-0.5-0.2-0.7-0.2s-0.5,0.3-0.7,0.3
				s-0.4-0.7-0.7-0.7c-0.2,0-0.5,0.5-0.8,0.5c-0.2,0-0.4-0.8-0.7-0.8c-0.2,0-0.5,0.6-0.8,0.6c-0.2,0-0.5-0.5-0.7-0.5
				s-0.5,0.3-0.7,0.3s-0.5,0.2-0.7,0.1c-0.2,0-0.5-0.4-0.7-0.4s-0.5,0.4-0.7,0.4s-0.5-0.1-0.7-0.1s-0.5-0.5-0.7-0.5
				s-0.5-0.2-0.7-0.2s-0.5,0.9-0.7,0.9s-0.5,0-0.7,0s-0.5-0.3-0.7-0.3s-0.5-0.1-0.7-0.1s-0.5,0.4-0.7,0.4s-0.5-0.7-0.7-0.7
				s-0.5,0.3-0.7,0.3s-0.5-0.3-0.7-0.3s-0.5,0.6-0.7,0.6s-0.5-0.2-0.7-0.2s-0.5,0.3-0.7,0.3s-0.5-0.7-0.7-0.7s-0.5,0-0.7,0
				s-0.4,1-0.7,1c-0.2,0-0.5-0.4-0.7-0.4s-0.5-0.5-0.7-0.4c-0.2,0-0.5,0.4-0.7,0.4s-0.5,0.5-0.7,0.5s-0.5-0.7-0.8-0.7
				c-0.2,0-0.4,0.6-0.7,0.6c-0.2,0-0.5-0.3-0.7-0.3s-0.5,0.5-0.7,0.5s-0.5-0.1-0.7,0c-0.2,0-0.5-0.2-0.7-0.1c-0.2,0-0.4,0.5-0.7,0.5
				c-0.2,0-0.6-0.8-0.8-0.8c-0.2,0-0.4,0.7-0.7,0.7c-0.2,0-0.5-0.6-0.8-0.6c-0.2,0-0.5,0.2-0.7,0.2S115,23,114.8,23
				s-0.5-0.1-0.7-0.1s-0.4,0.7-0.6,0.8c-0.2,0-0.5-0.1-0.7-0.1s-0.5-0.5-0.8-0.4c-0.2,0-0.4,0.7-0.6,0.7s-0.5-0.2-0.7-0.1
				c-0.2,0-0.5-0.4-0.8-0.3c-0.2,0-0.4,0.8-0.6,0.8s-0.6-0.6-0.8-0.6c-0.2,0-0.5,0-0.7,0.1c-0.2,0-0.4,0.3-0.7,0.3
				c-0.2,0-0.4,0.6-0.6,0.7c-0.2,0-0.6-0.4-0.8-0.4c-0.2,0-0.5-0.1-0.7,0c-0.2,0-0.5,0.2-0.7,0.2s-0.4,0.4-0.7,0.4
				c-0.2,0-0.4,0.3-0.7,0.4c-0.2,0-0.6-0.5-0.8-0.4c-0.2,0-0.4,0.3-0.7,0.3c-0.2,0-0.5-0.3-0.8-0.2c-0.2,0-0.4,0.4-0.6,0.5
				c-0.2,0-0.4,0.2-0.7,0.3c-0.2,0-0.4,0.2-0.7,0.3c-0.2,0-0.6-0.7-0.9-0.6c-0.2,0.1-0.4,0.3-0.7,0.3c-0.2,0.1-0.4,0.3-0.7,0.3
				c-0.2,0.1-0.5,0-0.7,0c-0.2,0.1-0.5,0-0.7,0c-0.2,0.1-0.5,0.1-0.7,0.1c-0.2,0.1-0.5,0-0.7,0.1s-0.4,0.3-0.7,0.4
				c-0.2,0.1-0.4,0.6-0.6,0.6c-0.2,0.1-0.5,0-0.7,0.1s-0.5-0.1-0.8-0.1c-0.2,0.1-0.4,0.3-0.6,0.4s-0.6-0.4-0.8-0.3
				c-0.2,0.1-0.3,0.7-0.5,0.8c-0.2,0.1-0.5,0.1-0.7,0.2s-0.5-0.2-0.8-0.1c-0.2,0.1-0.5-0.1-0.8-0.1C86.3,28.4,86.2,29,86,29
				c-0.2,0.1-0.4,0.4-0.6,0.4c-0.2,0.1-0.4,0.3-0.6,0.3c-0.2,0.1-0.6-0.4-0.9-0.3c-0.2,0.1-0.5-0.1-0.8,0c-0.2,0.1-0.5,0.1-0.7,0.2
				s-0.5,0.1-0.7,0.2s-0.3,0.5-0.6,0.5c-0.2,0.1-0.5,0-0.7,0.1s-0.5,0-0.7,0.1s-0.1,1-0.4,1.1c-0.2,0.1-0.7-0.6-0.9-0.5
				c-0.2,0.1-0.5,0.1-0.7,0.2s-0.1,1-0.4,1.1c-0.2,0.1-0.7-0.5-0.9-0.4c-0.2,0.1-0.2,0.7-0.5,0.8c-0.2,0.1-0.5,0.1-0.7,0.2
				c-0.2,0.1-0.5,0-0.7,0.1s-0.5,0.1-0.7,0.2c-0.2,0.1-0.5,0.1-0.7,0.2c-0.2,0.1-0.2,0.8-0.4,0.9c-0.2,0.1-0.7-0.3-0.9-0.2
				c-0.2,0.1-0.3,0.5-0.5,0.6s-0.6-0.1-0.8,0c-0.2,0.1-0.2,0.7-0.4,0.8c-0.2,0.1-0.5,0-0.7,0.1s-0.7-0.5-1-0.4
				c-0.2,0.1-0.1,1-0.3,1.1c-0.2,0.1-0.5,0-0.7,0.1s-0.5,0.1-0.7,0.2c-0.2,0.1-0.4,0.3-0.6,0.4c-0.2,0.1-0.4,0.2-0.7,0.3
				c-0.2,0.1-0.4,0.3-0.6,0.4c-0.2,0.1-0.4,0.4-0.6,0.5s-0.6-0.2-0.8-0.1c-0.2,0.1-0.6,0-0.8,0.1s0,1-0.2,1.1s-0.8-0.5-1-0.4
				s-0.2,0.6-0.4,0.7c-0.2,0.1-0.5,0.2-0.7,0.3s-0.2,0.7-0.4,0.8s-0.4,0.3-0.6,0.4c-0.2,0.1-0.7-0.2-0.9,0c-0.2,0.1-0.3,0.4-0.5,0.5
				s-0.6-0.1-0.8,0.1c-0.2,0.1-0.1,0.7-0.3,0.9c-0.2,0.1-0.4,0.3-0.5,0.5c-0.2,0.1-0.8-0.2-0.9-0.1c-0.2,0.1-0.1,0.7-0.3,0.8
				s-0.6,0-0.7,0.2c-0.2,0.1-0.6,0-0.8,0.1s0,0.8-0.2,0.9c-0.2,0.1-0.5,0.1-0.7,0.3c-0.2,0.1-0.4,0.3-0.5,0.5
				C52,46,52,46.4,51.8,46.6s-0.7,0-0.8,0.1c-0.2,0.2-0.1,0.7-0.2,0.8c-0.2,0.2-0.5,0.2-0.7,0.3c-0.2,0.2-0.5,0.2-0.7,0.3
				c-0.2,0.2,0,0.7-0.1,0.9c-0.2,0.2-0.4,0.3-0.6,0.4c-0.2,0.2-0.4,0.3-0.6,0.4c-0.2,0.2-0.7,0-0.8,0.2c-0.2,0.2-0.1,0.5-0.3,0.7
				s-0.5,0.1-0.7,0.3s0,0.6-0.2,0.8s-0.2,0.5-0.3,0.6c-0.2,0.2-0.3,0.3-0.5,0.5s-0.9-0.1-1,0c-0.2,0.2-0.1,0.5-0.3,0.7
				s0.1,0.7,0,0.9s-0.4,0.3-0.5,0.5s-0.9-0.1-1.1,0.1c-0.1,0.2,0.2,0.7,0.1,0.9c-1.1,0-1.5,0-1.6,0.2s0.1,0.6-0.1,0.8h-0.1
				c0,0-0.1,0-0.1,0.1c-0.2,0.1-0.6,0-0.7,0.2c-0.1,0.1-0.1,0.3-0.1,0.4c-0.1,0.1-0.2,0.2-0.3,0.4c-0.2,0.4-0.4,0.7-0.5,1.1
				c-0.1,0-0.1,0.1-0.1,0.1c-0.1,0.2-0.2,0.4-0.3,0.6c0,0.1,0,0.2,0,0.2c-0.1,0.1-0.2,0.1-0.3,0.2c-0.4,0.3-0.7,0.7-1,1.1
				c-0.1,0.2-0.2,0.5-0.3,0.8c0,0.1-0.1,0.3-0.1,0.4c-0.5,0.4-0.8,0.9-1,1.5c-0.1,0.4-0.2,0.8-0.3,1.2c-0.2,0.2-0.3,0.4-0.4,0.6l0,0
				c-0.2,0.1-0.4,0.3-0.5,0.4c-0.7,0.7-1,1.6-1.1,2.6c-0.4,0.7-0.5,1.3-0.4,2c-0.1,0.3-0.2,0.5-0.3,0.8c-0.1,0.2-0.3,0.4-0.4,0.5
				c-0.2,0.3-0.2,0.6-0.3,1c-0.5,0.5-0.7,1.1-1,1.9c-0.2,0.7,0,1.4,0.3,2c-0.3,0.6-0.4,1.3-0.2,1.9c-0.2,0.4-0.3,0.8-0.4,1.3
				c-0.1,0.9,0.1,1.6,0.4,2.3c0,0.1,0,0.1,0,0.2l0,0c-0.2,0.1-0.3,0.4-0.4,0.6c-0.5,0.6-0.4,1.8,0,2.4c-0.1,0.6-0.2,1.2-0.2,1.8
				c0,0.4-0.1,0.9,0,1.3c0.1,0.5,0.3,0.8,0.5,1.1c0,0.3,0,0.6,0.1,0.9c0,0.1,0,0.1,0.1,0.2c0,0.1-0.1,0.1-0.1,0.2
				c-0.6,0.9-0.3,2.3,0.5,3c-0.1,0.4-0.1,0.9-0.1,1.3c0.1,1,0.6,1.8,1.3,2.4c0,0.7,0.2,1.3,0.6,1.9c0,0.6,0.2,1.2,0.5,1.7
				c0,0.1-0.1,0.2-0.1,0.3c-0.2,1,0.2,1.7,0.7,2.4c0.1,0.6,0.3,1.2,0.6,1.7c0.1,0.2,0.4,0.4,0.5,0.7c0.1,0.1,0.1,0.2,0.2,0.3l0,0
				c0.1,0.9,0.8,1.7,1.5,2.4c-0.1,0.7,0.1,1.4,0.7,2.1c0.3,0.3,0.5,0.6,0.8,0.8c0.1,0.2,0.1,0.5,0.3,0.7c0.2,0.3,0.5,0.7,0.8,0.8
				l0,0c0,0,0,0,0,0.1s0,0.1,0.1,0.2c0.2,0.5,0.4,1,0.8,1.4c0.2,0.2,0.4,0.3,0.7,0.4c0.1,0.2,0.2,0.3,0.3,0.4s0.3,0.3,0.4,0.4
				c0.1,0.2,0.2,0.5,0.3,0.7c0.2,0.4,0.6,0.7,1,0.9c0,0.2,0.1,0.4,0.1,0.5c0.2,0.7,0.7,1.2,1.3,1.5c0.2,0.4,0.5,0.8,0.9,1.1l0,0
				c0.1,0.1,0.1,0.2,0.2,0.3c0.3,0.3,0.5,0.6,0.8,1c0.7,0.8,1.4,1.4,2.4,1.8c0.2,0.7,0.5,1.3,1.3,1.7c0.2,0.1,0.5,0.2,0.7,0.3
				c0.1,0.3,0.3,0.6,0.6,0.8c0.1,0.1,0.2,0.2,0.3,0.2c0.1,0.2,0.2,0.4,0.3,0.5c0.8,1.2,1.7,1.8,3,2.2c0.5,0.4,1,0.7,1.5,0.9
				c0.2,0.1,0.4,0.2,0.4,0.2l0.1,0.1c0.2,0.2,0.4,0.3,0.6,0.5c0.5,0.7,1.1,1.2,1.8,1.7c0.4,0.6,0.9,1.2,1.7,1.4
				c0.1,0,0.3,0.1,0.5,0.1c0.3,0.4,0.6,0.8,1,1.1s0.8,0.5,1.1,0.6c0.3,0.4,0.7,0.7,1.2,0.8c0.5,0.7,1.2,1.1,2.1,1.1
				c0.1,0,0.2,0,0.3,0l0,0l0,0c0.3,0.3,0.7,0.7,1.2,0.9c0.4,0.2,0.8,0.3,1.2,0.5c0.3,0.1,0.2,0.1,0,0c-0.3-0.1-0.3-0.1-0.1,0l0,0
				l0,0l0,0c0.2,0,0.4,0.3,0.3,0.3c0.7,0.6,1.7,1,2.6,1.2c0.3,0.4,0.7,0.7,1.1,1c0.1,0,0.1,0.1,0.2,0.1c0,0,0,0,0.1,0.1
				c0.7,0.9,1.8,1,2.9,1.1c0.3,0.2,0.6,0.3,0.9,0.5c0.4,0.4,0.9,0.7,1.5,0.9c0.1,0.1,0.1,0.1,0.2,0.2c0.7,0.7,1.6,1.1,2.5,1.1
				c0.1,0,0.2,0,0.3,0c0.1,0.1,0.4,0.2,0.5,0.2c0.3,0.1,0.5,0.1,0.8,0.1c0.5,0.5,1.2,0.8,1.9,1.1c0,0,0,0.1,0.1,0.1
				c0.3,0.6,0.9,0.9,1.5,1.1c0.6,0.8,1.8,1.2,2.7,0.9c0.1,0,0.2-0.1,0.3-0.1c0,0,0.1,0,0.1,0.1c0.1,0.1,0.3,0.1,0.4,0.2
				c0,0.1,0.1,0.1,0.1,0.2c0.4,0.7,1.4,1.3,2.2,1.2h0.1c0.2,0.2,0.5,0.3,0.8,0.4c0.3,0.1,0.7,0.1,1,0.1c0.4,0.2,0.8,0.2,1.1,0.3
				c0.8,0.7,1.7,1.2,2.8,1.4c0,0,0,0.1,0.1,0.1c0.4,0.7,1.3,1.2,2.2,1.2c0.3,0,0.7,0,1,0c0.3,0.4,0.7,0.8,1.4,1
				c0.4,0.1,0.8,0.2,1.3,0.2c0.4,0.4,0.9,0.6,1.5,0.6l0,0l0,0l0,0l0,0c0,0,0,0,0.1,0.1c0.1,0,0.2,0.1,0.2,0.1
				c-0.1,0-0.2-0.1-0.2-0.1s0,0,0.1,0.1s0.2,0.2,0.3,0.3c0.6,0.6,1.5,0.8,2.3,0.6c0.4,0.4,0.8,0.6,1.3,0.7c0.4,0.5,1,0.7,1.6,0.8
				c0.5,0.4,1.1,0.7,1.7,0.7c0,0,0.5,0,0.7,0c0.3,0.2,0.6,0.4,0.9,0.6c0.6,0.4,1.2,0.4,1.9,0.4c0.2,0.1,0.5,0.2,0.7,0.2
				c0.3,0.2,0.6,0.4,0.9,0.6c0.3,0.1,0.5,0.2,0.8,0.2c0.5,0.3,1,0.6,1.7,0.6c0.1,0,0.2,0,0.2,0c0.7,0.7,1.6,1,2.5,0.8
				c0.3,0.2,0.7,0.3,1.2,0.3c0.1,0,0.2,0,0.3,0c0.1,0.1,0.2,0.3,0.4,0.4c0.7,0.6,1.3,0.9,2.1,1c0.7,0.4,1.3,0.6,2.2,0.4
				c0.2-0.1,0.3-0.1,0.5-0.2h0.1c0.2,0.2,0.4,0.4,0.6,0.5c0.3,0.1,0.5,0.2,0.8,0.3c0.4,0.4,0.8,0.7,1.5,0.8c0.4,0.1,0.8,0.2,1.2,0.2
				c0.1,0,0.3,0,0.5,0c0.1,0,0.1,0,0.2,0l0,0c0.3,0.1,0.5,0.3,0.8,0.4c0.6,0.2,1.1,0.3,1.5,0.3c0.1,0.1,0.2,0.1,0.3,0.2
				c0.4,0.2,0.8,0.3,1.2,0.3c0.4,0.2,0.8,0.3,1.1,0.4c0.5,0.5,1.2,0.8,1.9,0.8h0.1c0.4,0.2,0.7,0.3,1.1,0.3c0.3,0.3,0.7,0.5,1.1,0.6
				c0.6,0.1,1,0,1.5-0.1c0.1,0.2,0.3,0.3,0.4,0.4c0.6,0.7,1.6,0.8,2.4,0.6c0.1,0,0.2,0,0.3-0.1c0.6,0.1,1.2,0.2,1.8,0.4
				c0.1,0,0.2,0.1,0.4,0.1c0.2,0.1,0.5,0.2,0.7,0.3c0.5,0.2,1,0.2,1.5,0.1c0.2,0.1,0.3,0.2,0.5,0.3c-0.1-0.1-0.2-0.1-0.3-0.2
				c0.1,0.1,0.2,0.1,0.3,0.2c0.9,0.8,1.8,0.9,2.8,0.7c0.8,0.6,1.9,0.8,2.8,0.3c0.5,0.3,0.9,0.5,1.4,0.7c0.7,0.2,1.4,0.2,2,0.2
				c0.6,0.5,1.5,0.7,2.3,0.5h0.1c0,0,0,0,0.1,0c0.7,0.3,1.3,0.4,2.1,0.5c-0.2,0-0.5-0.1,0.1,0.1c0.4,0.1,0.8,0.1,1.3,0.1h0.1
				c0.2,0.1,0.3,0.1,0.5,0.2c0.4,0.1,0.8,0.1,1.2,0c0.3,0.1,0.7,0.3,1.1,0.2c0.1,0,0.3,0,0.4,0c0.1,0,0.2,0.1,0.3,0.1
				s0.2,0.1,0.2,0.1c0.1,0.1,0.3,0.2,0.4,0.3c0.9,0.7,1.8,0.8,2.8,0.4c0.5,0.1,1,0.3,1.5,0.3c0.1,0,0.5,0,0.6-0.1l0,0
				c0.3,0.1,0.5,0.1,0.8,0.2c1.2,0.3,2.3,0.2,3.5,0c0.5,0.2,0.9,0.4,1.5,0.4c1,0.5,2,0.6,3.1,0.2c0.7,0.2,1.4,0.3,2.2,0.2
				c0.3,0.1,0.6,0.2,1,0.2c0.1,0.1,0.2,0.1,0.3,0.2c0.8,0.5,1.7,0.4,2.5-0.1c0.4,0.3,1,0.3,1.5,0.2c0.6,0.3,1.3,0.4,1.9,0.2l0,0
				c0.5,0.1,0.9,0.2,1.5,0.1c0.4,0.1,0.8,0.2,1.2,0.2c0.5,0,0.9-0.1,1.3-0.2c0.7,0.2,1.3,0.2,2,0.1l0,0c0.5,0.3,1,0.3,1.5,0.3
				c0.7,0.4,1.6,0.4,2.4,0.1c0.8,0.2,1.5,0,2.1-0.6l0,0c0.2,0,0.4,0,0.6-0.1h0.1c0.8,0.1,1.5,0.1,2.2,0c0.6,0.2,1.2,0.2,1.9,0
				c0.3-0.1,0.6-0.2,0.8-0.3c0.6,0.2,1.2,0.3,1.8,0.3c0.6-0.1,1.2-0.3,1.7-0.5c0.1,0,0.2,0,0.3,0c0.7,0.5,1.5,0.7,2.3,0.4
				c0.7,0.3,1.5,0.3,2.2-0.2c0.2-0.1,0.3-0.2,0.4-0.3c0.1,0,0.1,0.1,0.2,0.1c1.1,0.6,2.3,0,3.5-0.2c0.1,0,0.2,0,0.4-0.1
				c0,0,0,0,0.1,0c0.5,0.1,1-0.1,1.5-0.2c0.4-0.1,0.8-0.2,1.2-0.3c0.1,0,0.2,0.1,0.4,0.1c0.7,0.3,1.5,0,2.1-0.5
				c0.7,0.2,1.3,0.2,2-0.1c0.1,0,0.1-0.1,0.2-0.1c0,0,0,0,0.1,0c0.6-0.1,1-0.1,1.6-0.4c0.1-0.1,0.2-0.1,0.4-0.2
				c0.5,0.1,0.9,0.1,1.5,0c0.5-0.1,1-0.3,1.5-0.6c0.3,0,0.7-0.1,1-0.2c0.4-0.1,0.7-0.2,1.1-0.4c0.1,0,0.3-0.1,0.5-0.2h0.1
				c0.2,0,0.3,0,0.4,0c0.5,0,0.9-0.2,1.3-0.4c0.3,0,0.6,0,0.9-0.1c0.8,0.3,1.5,0.4,2.4-0.1c0.2-0.1,0.5-0.3,0.7-0.4
				c0.8,0.1,1.7,0,2.4-0.4c0.3-0.2,0.6-0.4,0.9-0.6c0.1,0,0.1,0,0.2,0.1c0.8,0.3,1.8-0.1,2.4-0.7c0.4,0,0.8-0.1,1.1-0.2
				c0.2-0.1,0.4-0.2,0.6-0.3c0.5,0.1,1,0.1,1.7-0.1c0.9-0.3,1.5-0.7,2.1-1.2c0.2,0,0.3-0.1,0.5-0.1c0.1,0,0.3,0,0.4,0
				c0.4,0,0.7-0.1,1.1-0.1c1.1-0.2,1.8-0.8,2.5-1.6c0.2,0,0.5,0,0.7-0.1c0.9-0.1,1.5-0.3,2.1-0.8c0.9,0.1,1.9,0,2.7-0.5
				c0.5-0.3,0.8-0.7,1.1-1.2c0.6-0.1,1.1-0.5,1.5-1c0.5,0,1-0.1,1.6-0.3c0.6-0.3,1-0.6,1.3-1c0.4-0.1,0.8-0.3,1.2-0.7
				c0.3-0.2,0.5-0.5,0.7-0.8c0,0,0,0,0.1,0c0.5-0.2,0.9-0.5,1.3-0.9l0.1-0.1c0.6-0.1,1.2-0.9,1.5-1.3l0.1-0.1l0,0c0,0,0,0-0.1,0.1
				c0.1,0,0.1-0.1,0.2-0.2c0.4-0.2,0.7-0.4,1-0.6c0.1,0,0.3-0.1,0.4-0.1c0.9-0.2,1.5-1.1,1.7-1.9c0.1-0.1,0.2-0.1,0.2-0.2
				c0.1-0.1,0.5-0.5,0.4-0.5c0.1,0,0.1-0.1,0.2-0.1c0.5-0.4,1.1-0.9,1.4-1.4c0.8-0.3,1.5-1,1.6-1.8c0.1-0.4,0.1-0.8,0.1-1.3
				c0.1-0.2,0.2-0.5,0.3-0.7c0-0.1,0.1-0.2,0.2-0.3s0.2-0.2,0.3-0.3c0.9-0.8,1.3-1.7,1.6-2.7c0.3-0.4,0.6-0.7,0.7-1.2
				c0.1-0.3,0.1-0.6,0.1-0.9c0.1-0.2,0.2-0.5,0.3-0.7c0.1-0.1,0.1-0.2,0.2-0.3c0.5-0.6,0.9-1.6,0.6-2.4c0.1-0.2,0.1-0.3,0.2-0.5
				c0.1-0.1,0.1-0.1,0.2-0.2c0.6-0.6,0.9-1.6,0.6-2.4c0-0.1-0.1-0.2-0.1-0.3s0-0.1,0-0.2c0.2-0.2,0.4-0.5,0.5-0.7
				c0.4-0.7,0.3-1.6,0.2-2.4c0-0.3-0.1-0.6-0.2-0.9l0,0l0,0C293.1,135.1,293.1,134.9,293.1,134.8z M37,62.7C37,62.7,37,62.6,37,62.7
				C37.1,62.1,37,62.5,37,62.7z M35.1,66.2C34.9,66.6,35,66.3,35.1,66.2L35.1,66.2z M34.4,101.4L34.4,101.4L34.4,101.4
				C34.4,101.5,34.4,101.4,34.4,101.4z M146.6,170.6c0.1,0,0.2,0.1,0.2,0.1l0,0C146.7,170.7,146.6,170.7,146.6,170.6z M146.8,170.7
				L146.8,170.7C146.8,170.7,146.9,170.7,146.8,170.7C146.9,170.7,146.8,170.7,146.8,170.7z M166,175.1
				C165.6,175,165.8,175,166,175.1L166,175.1z M166.2,175.2L166.2,175.2C166.2,175.2,166.3,175.2,166.2,175.2L166.2,175.2z
				 M280.1,160.4L280.1,160.4C280.2,160.2,280.2,160.2,280.1,160.4L280.1,160.4z M287.6,151.7L287.6,151.7L287.6,151.7z"/>
		</g>
	</g>
	<path class="st4" d="M70.3,140.6c0.2,0.3,0.3,0.3,0.4,0.3C70.6,140.8,70.4,140.7,70.3,140.6L70.3,140.6z"/>
</g>
<g>
	<g class="st7">
		
			<linearGradient id="SVGID_1_" gradientUnits="userSpaceOnUse" x1="34.7" y1="427.6" x2="34.7" y2="427.6" gradientTransform="matrix(1 0 0 -1 0 473)">
			<stop  offset="0" style="stop-color:#F7E6D5"/>
			<stop  offset="0.2043" style="stop-color:#F6E3D2"/>
			<stop  offset="0.3563" style="stop-color:#F3DAC9"/>
			<stop  offset="0.4914" style="stop-color:#EFCAB8"/>
			<stop  offset="0.6167" style="stop-color:#E8B3A2"/>
			<stop  offset="0.7352" style="stop-color:#DF9684"/>
			<stop  offset="0.8487" style="stop-color:#D57260"/>
			<stop  offset="0.956" style="stop-color:#C94836"/>
			<stop  offset="1" style="stop-color:#C33523"/>
		</linearGradient>
		<path class="st8" d="M34.7,45.4"/>
	</g>
</g>
<g>
	<g>
		<path id="XMLID_8_" class="st2" d="M136.1,268.5c-7,10.5-15,22.5-28,26c-12.1,3.2-23-4.8-29.5-14.5c-13-19.4-12.9-43.5-7.4-65.5
			c2.8-2.4,5.6-4.8,8.4-7.2c0.9-0.8,2.1-1.6,2.6-2.7c0.6-1.4-0.1-3.2-1.7-3.6c-1.3-0.3-2.7,0.4-3.9,0.9c-0.3,0.1-0.5,0.2-0.8,0.4
			c1-3.1,1.9-6.3,2.3-9.5c0.2-1.7,0.6-4.1-0.4-5.7c-1.1-2-3.5-1.6-5-0.3c-2.9,2.4-4.7,5.9-6.2,9.3c-1.9,4.3-3.4,8.8-4.3,13.4
			c0,0,0,0,0,0.1c-7.4,27.3-7,58.9,12.2,81.4c9,10.6,22.5,16.9,36.4,13.3c15.6-4.2,25.4-17.9,33.9-30.6
			C148.4,268.2,139.7,263.2,136.1,268.5z"/>
	</g>
</g>
<g>
	<g>
		<path id="XMLID_4_" class="st6" d="M244.5,85.3c0-0.1,0-0.2,0-0.2c0-0.1,0-0.3,0-0.3c0-0.6,0-1.1-0.2-1.7c0.3-0.8,0.3-1.7-0.3-2.5
			c0-0.2,0-0.4,0-0.5c0-0.7-0.2-1.2-0.4-1.7c0-0.5,0-1-0.3-1.5c-0.1-0.2-0.2-0.4-0.3-0.5c0.1-0.4,0.1-0.7,0-1.1
			c-0.1-0.5-0.4-0.9-0.6-1.4c0,0-0.1-0.3-0.2-0.4v-0.1c-0.1-0.5-0.3-0.8-0.5-1.2c0-0.3-0.1-0.6-0.2-0.9c-0.1-0.2-0.2-0.4-0.3-0.6
			c0.1-0.9-0.4-1.7-1.1-2.2c-0.1-0.1-0.2-0.2-0.4-0.2c0.1,0.1,0.1,0,0,0c0-0.1,0-0.2,0-0.2c0-1.1-0.5-1.8-1.3-2.4
			c-0.2-0.5-0.5-0.9-0.9-1.2c-0.2-0.2-0.5-0.3-0.8-0.4c-0.1,0-0.1-0.1-0.2-0.1c0.1-1.5-1.3-2.4-2.6-2.4c-0.1-0.1-0.2-0.1-0.3-0.2
			c0-0.1,0-0.1-0.1-0.2c-0.3-0.8-1.2-1.3-2-1.4c-0.3,0-0.6-0.1-0.9-0.1c-0.2-0.1-0.3-0.2-0.5-0.3c-0.6-1.3-1.7-1.8-3.1-1.4
			c-0.2-0.1-0.3-0.1-0.5-0.2c-0.7-0.6-1.7-1-2.6-0.7c-0.4-0.2-0.8-0.3-1.2-0.1h-0.1c-0.1,0-0.1,0-0.2,0c-0.1-0.1-0.2-0.1-0.4-0.2
			c-0.7-0.4-1.5-0.5-2.2-0.3c-0.6-0.2-1.3-0.2-1.9,0.1c-0.7-0.2-1.4-0.3-2.1-0.2c-0.1,0-0.1,0-0.2,0c-0.6,0-1,0-1.6,0.2
			c-0.1,0-0.1,0-0.2,0.1c-0.9-0.3-1.7-0.7-2.7-0.4c-0.4,0.1-0.9,0.1-1.3,0.2c-0.3,0.1-0.6,0.2-0.8,0.3c-0.6-0.3-1.3-0.4-2.2-0.1
			c-0.7,0.2-1.2,0.4-1.7,0.9c-0.4,0-0.7,0-1.1,0.1h-0.1c-0.9-0.2-1.9-0.1-2.6,0.5c-0.1,0-0.1,0-0.2,0c-1-0.1-1.7,0.3-2.4,1
			c-0.1,0.1-0.3,0.1-0.4,0.2c-0.5-0.1-1-0.1-1.6,0c-0.7,0.2-1.2,0.5-1.7,1c-0.2,0.1-0.4,0.1-0.6,0.2c-0.1,0.1-0.3,0.2-0.5,0.3l0,0
			c-0.8,0.2-1.4,0.6-1.9,1.1c-0.6,0.3-1.2,0.6-1.7,1c-0.3,0.1-0.6,0.2-0.8,0.3c-0.3,0.1-0.6,0.4-0.8,0.6c-0.4,0.2-0.9,0.5-1.2,0.8
			c-0.6,0.1-1.1,0.4-1.4,1c-0.4,0.7-0.7,1.4-0.8,2.1c-0.3,0.3-0.5,0.7-0.6,1.1c-0.2,0.5-0.3,1-0.5,1.4c-0.3,0.8-0.1,1.7,0.4,2.4
			c0,0.9,0.3,1.8,0.7,2.8c0.4,1.1,1,1.9,1.8,2.6l0,0c0,0.1,0,0.2,0.1,0.3c0.3,0.8,0.8,1.3,1.4,1.7c0.1,0.2,0.2,0.4,0.4,0.6
			s0.4,0.4,0.6,0.5c0,0,0.2,0.1,0.3,0.2l0.1,0.1c0.2,0.2,0.2,0.3,0.4,0.5c0.3,0.8,0.7,1.4,1.6,1.9l0,0c0.2,0.8,0.8,1.6,1.6,1.8
			c0.2,0,0.3,0.1,0.5,0.2c0,0.1,0.3,0.4,0.4,0.5c0.2,0.2,0.7,0.7,1.1,0.8c0,0,0,0,0.1,0.1s0.2,0.2,0.2,0.3c0.1,0.1,0.2,0.2,0.2,0.4
			c0,0,0,0.1,0.1,0.1c0.3,0.4,0.5,0.8,0.8,1.2c0.3,0.4,0.7,0.6,1.1,0.8c0.4,0.9,1.3,1.4,2.3,1.4c0.2,0.2,0.5,0.4,0.8,0.5
			c0.3,0.4,0.6,0.7,1,1c0.3,0.2,0.6,0.4,0.9,0.5c0.1,0.2,0.2,0.4,0.3,0.5c0.5,1,1.6,1.6,2.7,1.3l0,0c0.2,0.2,0.4,0.3,0.6,0.4
			c0,0.1,0.1,0.2,0.1,0.2c0.3,0.7,1.1,1.3,1.8,1.4c0.4,0.5,1,0.8,1.6,0.8c0.2,0,0.5,0,0.7,0c0.1,0,0.1,0,0.1,0l0,0
			c0.1,0,0.2,0.1,0.3,0.1c0.4,0.5,0.8,0.9,1.3,1.2c0.6,0.3,1.2,0.4,1.9,0.5c0.6,0.5,1.1,0.7,1.9,0.8c0.1,0,0.1,0.1,0.2,0.1
			c0.6,0.6,1.2,0.8,2,0.8c0.4,0.2,0.8,0.4,1.2,0.5c0.5,0.5,1.4,0.8,2.1,0.7c0.3,0.2,0.6,0.3,0.9,0.5c0.7,0.3,1.5,0.4,2.3,0.5
			c0.1,0,0.2,0,0.3,0.1c0,0,0,0,0.1,0.1c0.1,0,0.1,0,0.2,0.1c0.1,0.1,0.3,0.1,0.4,0.2c0.5,0.2,0.9,0.3,1.4,0.4
			c0.7,0.4,1.4,0.7,2.2,0.6c0.3-0.1,0.7-0.1,1-0.2c0.8,0.2,1.6,0.1,2.5,0c0.9,0.2,1.7,0.1,2.6-0.3c0.5-0.2,0.8-0.6,1.2-1
			c0.4-0.1,0.8-0.1,1.2-0.2c0.8-0.2,1.3-0.6,1.7-1.2c0.8-0.3,1.4-1,1.5-1.8c0.4-0.3,0.7-0.8,0.9-1.3c0.6-0.4,1-1.1,1-1.8
			c0-0.2,0-0.4,0-0.6c0.2-0.3,0.3-0.7,0.4-1.1c0.3-0.7,0.2-1.4,0-2.1c0.2-0.4,0.3-0.8,0.3-1.3c0-0.3,0-0.6-0.1-1c0-0.5,0,0.4,0,0.4
			l0.1-0.5c0-0.3,0-0.7,0-1c0-0.1,0-0.2,0-0.2c0-0.1,0.1-0.4,0.1-0.6c0.1-0.1,0.1-0.2,0.2-0.3c0.5-0.7,0.6-1.7,0.2-2.5
			C244.7,85.7,244.6,85.5,244.5,85.3z M187,77.2c0.1,0.1,0.1,0.2,0.1,0.3l0,0C187,77.3,187,77.3,187,77.2z M222.7,56.8
			C222.7,56.9,222.7,56.9,222.7,56.8C222.6,56.8,222.7,56.8,222.7,56.8z M222.6,56.7C222.5,56.8,222.5,56.8,222.6,56.7h-0.1l0,0
			C222.4,56.7,222.5,56.7,222.6,56.7z M187.1,77.7L187.1,77.7L187.1,77.7L187.1,77.7z M244.4,85.2L244.4,85.2L244.4,85.2L244.4,85.2
			z M244.3,89.4L244.3,89.4L244.3,89.4z"/>
	</g>
</g>
<g>
	<g>
		<g>
			<path id="XMLID_13_" class="st2" d="M225.8,278c18.3,22.3,22.6,48.1,8,75.2c-3.2,5.8,8.7,8.6,11.5,2.7
				c12.9-26.9,9.3-58.4-9.2-82.9C232,267.5,221.7,272.5,225.8,278L225.8,278z"/>
		</g>
	</g>
</g>
<g>
	<g>
		<path id="XMLID_17_" class="st9" d="M153.1,325.1c0-5.1,7.9-5.1,7.9,0c-1.5,4.3-21.5,62.8-2.2,75.7c2.6,1.8,5.5,2.2,5.5,2.2
			c1.2,0.3,1.9,0.2,2.8,0.4c1.1,0.2,1.6,0.3,2.6,1.4s1.1,2.3,1.2,2.8c0.1,0.6,0.2,2.2-0.8,3.4c-0.7,0.8-2,1.1-4.9,0.6
			c-2.5-0.4-5.7-0.9-9.1-3C149,404.4,145.8,396,145,394c-4.5-11.5-3.3-34.3,5.3-61.5l2.9-7"/>
	</g>
</g>
<g>
	<g>
		<path id="XMLID_18_" class="st9" d="M222.6,324.4c-0.1,36.3-0.2,72.5-0.3,108.8c0,5.1-7.9,5.1-7.9,0c0.1-36.3,0.2-72.5,0.3-108.8
			C214.7,319.3,222.6,319.3,222.6,324.4"/>
	</g>
</g>
<g>
	<g>
		<path id="XMLID_12_" class="st2" d="M235.6,276c0,0-2.2-17.5-36.9-22.2l-35.3,0.3c7.9,29.5,36.9,50.2,75.5,57.5
			C237.9,301.2,236.7,285.8,235.6,276L235.6,276z"/>
	</g>
</g>
<g>
	<g>
		<path id="XMLID_15_" class="st6" d="M240.1,326.4c0-0.2,0.4-0.5,0.4-0.7s0.3-0.5,0.3-0.7s-0.9-0.5-0.9-0.7s0.6-0.5,0.5-0.8
			c0-0.2,0-0.5,0-0.7s0.2-0.5,0.2-0.8c0-0.2-0.7-0.5-0.7-0.7s0.1-0.5,0.1-0.7s0.4-0.5,0.4-0.8c0-0.2-0.3-0.5-0.3-0.7s0-0.5,0-0.7
			s-0.4-0.5-0.4-0.7s0.2-0.5,0.2-0.8c0-0.2,0.1-0.5,0.1-0.8c0-0.2,0.3-0.5,0.3-0.8c0-0.2-0.8-0.4-0.8-0.7c0-0.2,0.7-0.6,0.7-0.8
			c0-0.2-0.3-0.5-0.3-0.7s-0.3-0.5-0.3-0.7s-0.3-0.5-0.3-0.7s0.6-0.6,0.6-0.8c0-0.2-0.9-0.4-0.9-0.7c0-0.2,0.5-0.5,0.4-0.8
			c0-0.2-0.2-0.5-0.3-0.7c0-0.2,0.6-0.6,0.5-0.8c0-0.2-0.7-0.4-0.7-0.7c0-0.2-0.1-0.4-0.1-0.6c-0.2-0.1-0.2-0.7-0.5-0.8
			c-0.2-0.1-0.5,0.1-0.8,0c-0.2-0.1-0.6,0.4-0.8,0.3s-0.4-0.5-0.6-0.6c-0.2-0.1-0.6,0.6-0.9,0.5c-0.2-0.1-0.4-0.4-0.6-0.4
			c-0.2-0.1-0.5,0.1-0.8,0.1c-0.2-0.1-0.4-0.4-0.6-0.5c-0.2-0.1-0.4-0.5-0.6-0.5c-0.2-0.1-0.5,0.2-0.8,0.1c-0.2-0.1-0.6,0.3-0.8,0.2
			c-0.2-0.1-0.4-0.6-0.6-0.6c-0.2-0.1-0.4-0.2-0.7-0.3c-0.2-0.1-0.4-0.2-0.7-0.3c-0.2-0.1-0.6,0.2-0.8,0.2c-0.2-0.1-0.5,0-0.7-0.1
			s-0.4-0.5-0.6-0.6c-0.2-0.1-0.4-0.4-0.6-0.5c-0.2-0.1-0.5,0.1-0.8,0c-0.2-0.1-0.5,0.1-0.8,0c-0.2-0.1-0.3-0.6-0.6-0.7
			c-0.2-0.1-0.7,0.7-0.9,0.7c-0.2-0.1-0.5-0.1-0.7-0.2s-0.5-0.1-0.7-0.2s-0.5-0.1-0.7-0.2s-0.4-0.3-0.7-0.3
			c-0.2-0.1-0.5-0.1-0.7-0.1c-0.2-0.1-0.3-0.7-0.5-0.7c-0.2-0.1-0.5,0.1-0.8,0.1c-0.2-0.1-0.4-0.2-0.7-0.3c-0.2-0.1-0.4-0.3-0.6-0.4
			c-0.2-0.1-0.6,0.2-0.8,0.2c-0.2-0.1-0.3-0.5-0.6-0.6c-0.2-0.1-0.5-0.1-0.7-0.2s-0.6,0.2-0.8,0.1s-0.3-0.7-0.5-0.8
			c-0.2-0.1-0.5,0-0.7-0.1s-0.4-0.4-0.6-0.5c-0.2-0.1-0.6,0.3-0.9,0.3c-0.2-0.1-0.2-0.9-0.4-0.9c-0.2-0.1-0.5-0.2-0.7-0.3
			c-0.2-0.1-0.5,0.1-0.8,0c-0.2-0.1-0.6,0.4-0.9,0.3c-0.2-0.1-0.3-0.5-0.6-0.6c-0.2-0.1-0.4-0.4-0.6-0.5c-0.2-0.1-0.4-0.3-0.6-0.4
			c-0.2-0.1-0.7,0.4-0.9,0.3s-0.2-0.8-0.4-0.9s-0.4-0.3-0.6-0.3c-0.2-0.1-0.4-0.2-0.7-0.3c-0.2-0.1-0.7,0.4-0.9,0.3s-0.5,0-0.8-0.1
			c-0.2-0.1-0.2-0.8-0.4-0.9s-0.7,0.4-0.9,0.3s-0.1-0.9-0.4-1c-0.2-0.1-0.8,0.6-1,0.5s-0.4-0.3-0.6-0.4c-0.2-0.1-0.2-0.7-0.4-0.8
			c-0.2-0.1-0.4-0.4-0.6-0.5c-0.2-0.1-0.7,0.3-0.9,0.2c-0.2-0.1-0.1-0.9-0.3-1s-0.6,0.2-0.9,0.1c-0.2-0.1-0.6,0.2-0.8,0
			c-0.2-0.1-0.1-0.9-0.3-1s-0.7,0.4-0.9,0.2c-0.2-0.1-0.1-0.9-0.3-1.1c-0.2-0.1-0.5,0-0.7-0.1s-0.7,0.3-0.9,0.2
			c-0.2-0.1,0-1-0.2-1.1s-0.4-0.2-0.6-0.3c-0.2-0.1-0.6,0-0.8-0.1s-0.6,0.1-0.8-0.1c-0.2-0.1-0.1-0.8-0.3-0.9s-0.6,0-0.8-0.1
			s-0.1-0.8-0.3-0.9s-0.9,0.6-1.1,0.4c-0.2-0.1-0.4-0.3-0.6-0.4c-0.2-0.1-0.1-0.7-0.3-0.9c-0.2-0.1-0.7,0.1-0.9,0s-0.2-0.6-0.3-0.8
			c-0.2-0.1-0.2-0.5-0.4-0.7c-0.2-0.1-0.4-0.3-0.5-0.5c-0.2-0.2-0.9,0.3-1,0.2c-0.2-0.2-0.3-0.5-0.4-0.6c-0.2-0.2,0-0.7-0.2-0.9
			c-0.2-0.2-0.6,0-0.8-0.2s-0.1-0.6-0.3-0.8c-0.2-0.2-0.5-0.1-0.7-0.3c-0.2-0.2-0.1-0.6-0.3-0.8c-0.2-0.2-0.9,0.2-1,0.1
			c-0.2-0.2-0.1-0.6-0.3-0.8c-0.2-0.2-0.4-0.3-0.5-0.5c-0.2-0.2-0.6-0.1-0.7-0.3c-0.2-0.2,0.2-0.9,0-1.1s-0.8,0.1-0.9-0.1
			c-0.2-0.2-0.4-0.3-0.6-0.5c-0.2-0.2,0-0.7-0.1-0.9c-0.2-0.2-0.6-0.2-0.7-0.4c-0.2-0.2-0.5-0.2-0.7-0.4c-0.2-0.2,0.4-0.9,0.2-1.1
			c-0.1-0.2-0.6-0.1-0.8-0.3c-0.1-0.2,0.2-0.7,0-0.9c-0.1-0.2-1,0.1-1.1-0.1s0.3-0.8,0.2-1s-0.4-0.3-0.5-0.5s-0.7-0.2-0.8-0.4
			c-0.1-0.2,0.4-0.8,0.3-1.1c-0.1-0.2-0.7-0.1-0.9-0.4c-0.1-0.2-0.3-0.4-0.4-0.7c-0.1-0.2,0.3-0.7,0.2-0.9c-0.1-0.2-1-0.1-1.1-0.3
			c-0.1-0.2,0-0.5-0.1-0.8c-0.1-0.2,0.3-0.7,0.2-0.9c-0.1-0.2-0.1-0.5-0.2-0.7c-0.1-0.2-0.2-0.5-0.3-0.7s-0.5-0.3-0.6-0.6
			c-0.1-0.2-0.2-0.5-0.3-0.7s0-0.5-0.1-0.8c-0.1-0.2,0.3-0.6,0.3-0.8c-0.1-0.2,0-0.5-0.1-0.7s-0.1-0.5-0.2-0.7
			c-0.1-0.2-0.6-0.4-0.6-0.6s0.1-0.5,0.1-0.8c0-0.2-0.6-0.4-0.6-0.7c0-0.2,0.6-0.6,0.6-0.8c0-0.3-0.1-0.5-0.1-0.7s-0.3-0.5-0.3-0.7
			c0-0.2-0.2-0.5-0.2-0.7c0-0.3-0.4-0.5-0.4-0.7c0-0.3,0.5-0.5,0.5-0.8s0-0.7,0-0.9H168c-0.7,0.1-1.4,0.2-2,0.3h-0.1c0,0,0,0-0.1,0
			c-29.9,4.6-34.8,22-35.2,23.5v0.1c0,0.2-0.8,0.4-0.8,0.6s0.4,0.6,0.4,0.8c0,0.2,0,0.5-0.1,0.7c0,0.2-0.1,0.5-0.2,0.7
			c0,0.2,0.1,0.5,0.1,0.8c0,0.2,0,0.5,0,0.7s-0.6,0.4-0.6,0.7c0,0.2,0,0.5,0,0.8c0,0.2,0.1,0.5,0.1,0.8c0,0.2-0.3,0.5-0.3,0.7
			s0.2,0.5,0.1,0.8c0,0.2-0.4,0.5-0.4,0.7s0.5,0.6,0.4,0.8c0,0.2,0,0.5,0,0.8c0,0.2-0.4,0.5-0.4,0.7s0.2,0.5,0.2,0.8
			c0,0.2-0.4,0.5-0.4,0.7s0,0.5,0,0.7s-0.4,0.5-0.4,0.7s0.6,0.6,0.6,0.8c0,0.2,0.1,0.5,0.1,0.8c0,0.2-0.5,0.5-0.5,0.7
			s0.3,0.5,0.2,0.8c0,0.2-0.2,0.5-0.2,0.7s0.2,0.5,0.2,0.8c0,0.2-0.2,0.5-0.3,0.7c0,0.2-0.5,0.5-0.5,0.7s-0.2,0.5-0.2,0.7
			s0.8,0.6,0.7,0.8c0,0.2-0.9,0.4-0.9,0.7c0,0.2,0.4,0.5,0.3,0.8c0,0.2-0.3,0.5-0.3,0.7s0,0.5,0,0.8c0,0.2,0.1,0.5,0,0.8
			c0,0.2,0,0.5,0,0.8c0,0.2,0.5,0.5,0.5,0.8c0,0.2-0.5,0.5-0.5,0.7c0,0.3,0,0.5,0,0.8c0,0.2,0.3,0.5,0.3,0.8c0,0.2-0.3,0.5-0.3,0.7
			s-0.2,0.5-0.2,0.7s-0.3,0.5-0.3,0.7c0,0.3,0.5,0.5,0.4,0.8c0,0.2-0.1,0.5-0.1,0.7c0,0.3,0.1,0.5,0.1,0.8c0,0.2,0,0.5,0,0.8
			c0,0.2-0.5,0.5-0.6,0.7c0,0.2-0.1,0.5-0.1,0.8c0,0.2-0.1,0.5-0.1,0.7c0,0.3,0.1,0.5,0.1,0.8c0,0.2,0.2,0.5,0.2,0.8
			s0.5,0.5,0.5,0.8c0,0.2-0.8,0.5-0.8,0.7c0,0.3,0.2,0.5,0.2,0.8s0.6,0.5,0.6,0.8s-0.1,0.5-0.1,0.8c0,0.2,0,0.5,0,0.8
			s0.1,0.5,0.1,0.8s0,0.5,0,0.8s-0.2,0.5-0.2,0.7c0,0.3-0.5,0.5-0.5,0.7c0,0.3,0,0.5,0,0.8s0,0.5,0,0.8c0,0.2-0.1,0.5-0.1,0.8
			c0,0.2,0.5,0.5,0.6,0.7c0,0.2,0.1,0.5,0.1,0.7s0.1,0.5,0.2,0.7c0,0.3-0.1,0.5,0,0.8s0.1,0.5,0.2,0.7c0,0.2-0.3,0.5-0.3,0.7
			s0.3,0.4,0.4,0.6c0,0.2,0.3,0.4,0.4,0.6s0.3,0.4,0.4,0.6c0.1,0.2-0.3,0.6-0.2,0.8c0.1,0.2,0.3,0.4,0.4,0.6c0.1,0.2-0.1,0.7,0,0.9
			c0.1,0.2,0.4,0.3,0.5,0.5s0.6,0.1,0.8,0.3c0.1,0.2,0.3,0.3,0.5,0.5s0.2,0.5,0.3,0.7c0.2,0.2,0.1,0.7,0.2,0.8c0.2,0.2,0.8-0.2,1,0
			s0,0.8,0.2,1s0.8-0.3,1-0.2c0.2,0.1,0.2,0.6,0.4,0.7s0.6-0.1,0.8,0s0.4,0.3,0.6,0.4c0.2,0.1,0.4,0.3,0.6,0.4
			c0.2,0.1,0.1,0.8,0.3,0.9s0.7-0.3,0.9-0.2c0.2,0.1,0.5,0.1,0.7,0.2s0.4,0.2,0.7,0.3c0.2,0.1,0.4,0.4,0.6,0.5
			c0.2,0.1,0.5,0,0.7,0.1s0.3,0.4,0.6,0.5c0.2,0.1,0.5,0,0.7,0.1s0.4,0.3,0.6,0.4c0.2,0.1,0.3,0.7,0.5,0.8c0.2,0.1,0.5,0.2,0.7,0.2
			c0.2,0.1,0.4,0.2,0.7,0.3c0.2,0.1,0.6-0.2,0.8-0.1s0.6-0.2,0.8-0.2c0.2,0.1,0.3,0.7,0.5,0.8c0.2,0.1,0.5,0.1,0.7,0.2
			s0.4,0.3,0.7,0.3c0.2,0.1,0.6-0.6,0.9-0.5c0.2,0.1,0.5,0,0.7,0.1s0.5,0,0.7,0.1s0.3,0.7,0.6,0.7c0.2,0.1,0.6-0.4,0.8-0.4
			c0.2,0.1,0.5,0.1,0.7,0.1c0.2,0.1,0.4,0.2,0.7,0.3c0.2,0,0.4,0.6,0.6,0.7c0.2,0,0.6-0.5,0.8-0.5s0.3,0.8,0.6,0.8
			c0.2,0,0.5,0.1,0.7,0.2c0.2,0,0.5,0,0.7,0s0.6-0.6,0.8-0.6s0.4,0.4,0.7,0.4c0.2,0,0.4,0.3,0.7,0.4c0.2,0,0.5-0.3,0.8-0.3
			c0.2,0,0.4,0.7,0.6,0.7c0.2,0,0.6-0.8,0.8-0.7c0.2,0,0.4,0.8,0.6,0.9c0.2,0,0.5-0.1,0.7-0.1s0.5,0.2,0.7,0.2s0.5-0.1,0.7-0.1
			s0.5,0.1,0.7,0.1s0.4,0.5,0.7,0.5c0.2,0,0.5,0,0.7,0s0.5,0.1,0.7,0.1s0.6-0.7,0.8-0.7s0.5,0.1,0.7,0.1s0.4,0.7,0.6,0.8
			c0.2,0,0.5,0,0.7,0.1c0.2,0,0.5-0.1,0.7-0.1s0.5-0.3,0.7-0.3s0.4,0.7,0.7,0.7c0.2,0,0.5-0.6,0.8-0.6c0.2,0,0.4,0.7,0.7,0.7
			c0.2,0,0.5-0.9,0.8-0.8c0.2,0,0.4,0.7,0.7,0.7c0.2,0,0.5-0.1,0.7-0.1s0.5,0.1,0.7,0.1s0.5-0.6,0.8-0.6c0.2,0,0.4,0.5,0.7,0.5
			c0.2,0,0.5-0.1,0.7,0c0.2,0,0.5-0.2,0.7-0.2s0.4,0.8,0.7,0.8c0.2,0,0.5-0.8,0.8-0.8c0.2,0,0.5,0,0.7,0s0.5,0.4,0.7,0.4
			s0.5-0.4,0.7-0.4s0.5,0.3,0.7,0.3s0.5,0.7,0.7,0.7s0.5-0.8,0.7-0.8s0.5,0.8,0.8,0.8c0.2,0,0.5,0,0.7,0s0.5-0.2,0.7-0.2
			s0.5-0.3,0.7-0.4c0.2,0,0.5-0.2,0.7-0.2s0.5,0.6,0.7,0.6s0.5-0.1,0.7-0.2c0.2,0,0.5-0.7,0.7-0.8c0.2,0,0.5,0.9,0.8,0.9
			c0.2,0,0.5-0.2,0.7-0.3c0.2,0,0.5-0.4,0.7-0.4s0.5-0.4,0.7-0.4s0.5,0.3,0.7,0.3s0.5-0.3,0.7-0.4c0.2,0,0.5,0.1,0.7,0.1
			s0.5-0.1,0.7-0.1s0.5,0.4,0.8,0.4c0.2,0,0.4-0.6,0.7-0.6c0.2,0,0.5,0.7,0.8,0.7c0.2,0,0.5-0.3,0.7-0.3s0.5-0.1,0.7-0.1
			s0.5,0.3,0.7,0.2c0.2,0,0.5,0,0.7-0.1c0.2,0,0.4-0.4,0.7-0.5c0.2,0,0.5-0.1,0.7-0.1s0.5-0.3,0.7-0.3s0.6,0.6,0.8,0.6
			s0.4-0.7,0.6-0.7c0.2,0,0.5,0.2,0.8,0.2c0.2,0,0.5-0.2,0.7-0.3c0.2,0,0.5-0.2,0.7-0.2s0.5,0.4,0.8,0.4c0.2,0,0.4-0.6,0.6-0.6
			c0.2,0,0.5,0.1,0.7,0c0.2,0,0.5,0.3,0.8,0.2c0.2,0,0.5,0.1,0.7,0.1s0.4-0.4,0.7-0.4c0.2,0,0.4-0.4,0.7-0.4c0.2,0,0.5,0.1,0.7,0
			c0.2,0,0.5,0,0.7,0s0.4-0.3,0.7-0.4c0.2,0,0.6,0.6,0.8,0.5c0.2,0,0.5-0.1,0.7-0.2c0.2,0,0.3-0.9,0.6-0.9c0.2,0,0.5,0.2,0.8,0.2
			c0.2-0.1,0.5-0.1,0.7-0.1c0.2-0.1,0.4-0.3,0.7-0.3c0.2-0.1,0.6,0.4,0.8,0.4c0.2-0.1,0.5,0.1,0.7,0s0.4-0.5,0.6-0.5
			c0.2-0.1,0.4-0.5,0.6-0.6c0.2-0.1,0.5,0.2,0.8,0.1c0.2-0.1,0.4-0.2,0.7-0.3c0.2-0.1,0.5,0,0.7,0c0.2-0.1,0.4-0.6,0.6-0.6
			c0.2-0.1,0.5,0.1,0.8,0c0.2-0.1,0.6,0.5,0.9,0.4c0.2-0.1,0.4-0.4,0.6-0.5c0.2-0.1,0.4-0.4,0.6-0.4c0.2-0.1,0.4-0.4,0.6-0.5
			c0.2-0.1,0.5-0.1,0.7-0.1c0.2-0.1,0.5,0,0.7-0.1s0.3-0.6,0.5-0.7s0.4-0.2,0.7-0.3c0.2-0.1,0.5,0.1,0.8,0c0.2-0.1,0.6,0.3,0.8,0.2
			c0.2-0.1,0.5,0,0.8-0.1c0.2-0.1,0.2-0.9,0.4-1s0.5,0,0.7-0.1s0.6,0.2,0.8,0.1s0.2-0.8,0.4-0.9s0.4-0.2,0.6-0.3
			c0.2-0.1,0.5-0.1,0.7-0.3c0.2-0.1,0.6,0,0.8-0.1s0.1-0.8,0.3-0.9s0.8,0.3,0.9,0.1c0.2-0.1,0.1-0.7,0.3-0.8c0.2-0.2,0.8,0.2,1,0.1
			c0.2-0.2,0.3-0.4,0.5-0.6s0.1-0.6,0.3-0.8c0.2-0.2,0.4-0.3,0.5-0.5s0.6-0.3,0.7-0.5c0.1-0.2-0.6-0.7-0.5-1
			c0.1-0.2,0.1-0.4,0.2-0.7c0-0.2,0-0.5,0.1-0.7c0-0.2,0.6-0.3,0.6-0.6c0.2-0.2,0.4-0.2,0.5-0.4c0.1-0.2-0.1-0.6,0-0.9
			c0.1-0.2,0.6-0.3,0.7-0.6c0-0.2-0.5-0.6-0.5-0.8c0-0.3,0.7-0.5,0.7-0.7C240.9,326.8,240.1,326.6,240.1,326.4z"/>
	</g>
</g>
<path class="st10" d="M164,253.3c0.7,5.5,10.7,45.9,75.6,53.3c1,0.1-1,4.4,0,4.6c-74.1-7.9-80.8-56.8-80.8-56.8L164,253.3z"/>
<g>
	<g>
		<path id="XMLID_19_" class="st11" d="M167,403c0,0-2.5,1.2-2.7,6.3s-1.4,9.4,1.3,11.1s5.6,0.1,6.1-2.1c0.3-1.4,1-5.9,0.9-8.8
			S172.7,402.1,167,403z"/>
	</g>
</g>
<g>
	<g>
		<path id="XMLID_20_" class="st11" d="M215.5,431.3l5.9-0.1c0,0,5.2,0.5,7.3,2.4c2.1,1.8-0.9,4.2-0.9,4.2l-14.1,0.3
			C213.6,438,210.3,431.3,215.5,431.3"/>
	</g>
</g>
<g>
	<g>
		<path id="XMLID_11_" class="st6" d="M76.6,145.6c0.1-2.6-3.9-2.9-4-0.3v0.1c-0.2,0.3-0.3,0.6-0.3,0.9c-0.5,0.6-0.7,1.4-0.5,2
			c0,0,0,0.1-0.1,0.1c-0.2,0.2-0.3,0.4-0.4,0.6c-0.3,0.2-0.5,0.5-0.6,0.9c0,0.1,0,0.1,0,0.2c-0.9,0-1.6,0.7-1.8,1.5
			c-0.4,0.1-0.8,0.4-1,0.8c-0.3,0.5-0.6,1.1-0.8,1.7v0.1c-0.5,0.4-0.7,1.1-0.7,1.9c-0.5,0.4-0.8,1-0.7,1.6c-0.2,0.3-0.3,0.6-0.4,0.9
			c-0.1,0-0.1,0.1-0.2,0.1c-0.2,0.1-0.4,0.3-0.6,0.4c0,0-0.1,0.1-0.2,0.2c-0.1,0.1-0.2,0.1-0.3,0.2c-0.2,0.1-0.3,0.2-0.5,0.3
			c-0.6,0.4-1.1,1.1-1.1,1.8c-0.1,0-0.2,0-0.3,0.1c-0.1-0.1-0.3-0.1-0.4-0.2c-1-0.5-2.1,0.4-2.5,1.2c-0.1,0.3-0.3,0.5-0.4,0.8
			c-0.2,0.5-0.1,1.1,0.1,1.6c-0.1,0.1-0.1,0.1-0.2,0.2c-0.4,0.1-0.7,0.2-1,0.5c-0.2,0.1-0.4,0.2-0.6,0.3c-0.3,0-0.5,0-0.8,0.1
			c-1.2,0.1-1.8,1.6-1.5,2.6h-0.1c-0.8-0.1-1.7,0.3-2.1,1.2c-0.7-0.1-1.3,0.4-1.7,1l0,0c-0.8-0.4-1.6,0-2.1,0.6h-0.1
			c-1-0.2-1.7,0-2.4,0.4c-0.7-0.8-2.1-0.9-2.9-0.2c-0.5,0-1,0.2-1.5,0.4c-0.6,0.4-1,0.8-1.3,1.4c-0.1,0.1-0.2,0.2-0.1,0.2
			c-0.1,0.1-0.2,0.1-0.3,0.2c-0.1,0-0.1,0-0.2,0c-0.3,0.1-0.5,0.1-0.7,0.2l0,0c-0.6-0.4-1.3-0.7-1.9-0.9c-1-0.4-2.2,0.3-2.5,1.2l0,0
			h-0.1c-0.4,0.1-0.9,0.4-1.2,0.7c0,0,0,0-0.1,0c-0.3,0-0.7,0.1-1,0.1c-0.1,0-0.1-0.1-0.2-0.1c-0.7-0.5-1.6-0.4-2.3,0.1
			c-0.7-0.1-1.4,0.3-1.9,0.8c-0.6-0.2-1.3-0.1-1.9,0.4l0,0l0,0c-1.5-1.7-3.9,0-3.4,1.8l-0.1,0.1c-1.1,1.5,0.9,4,2.6,2.9
			c0.3-0.2,0.6-0.4,0.9-0.6c0.1,0,0.1-0.1,0.2-0.1s0.1,0,0.2,0s0.2,0,0.4,0c0.7,0.7,1.8,0.8,2.7,0.1c0.2,0.1,0.5,0.1,0.7,0.1
			c0.4,0.1,0.7,0.2,1.1,0.1c0.4-0.1,0.8-0.1,1.3-0.2c0.9-0.1,1.4-0.7,1.5-1.4c0.3,0,0.6,0.1,0.8,0.1c0.8,0.1,1.7-0.5,2-1.3
			c0.1-0.1,0.2-0.1,0.4-0.2c0.7,0.8,1.7,1.1,2.6,0.6c0.7,0.5,1.7,0.6,2.5-0.1c0.2-0.2,0.5-0.4,0.7-0.6c0.3-0.2,0.4-0.5,0.6-0.9
			c0.6,0,1.1-0.3,1.6-0.7l0,0c0.7,0.5,1.8,0.4,2.4-0.1c0.7,0.6,1.7,0.7,2.5-0.1c0.3-0.3,0.6-0.5,0.9-0.8c0.8,0.3,1.8-0.1,2.3-0.8
			c0.1-0.2,0.2-0.3,0.4-0.5c0.1,0,0.1,0,0.2,0c1.2,0.6,3,0.2,3-1.5c0-0.1,0-0.2,0-0.4c0.8-0.2,1.5-0.6,1.9-1.4
			c0.2-0.4,0.4-0.8,0.5-1.2h0.1c1,0.3,1.9-0.1,2.4-0.9c0.7-0.1,1.2-0.6,1.5-1.3s0.6-1.2,0.6-1.8c0.5,0,1-0.1,1.5-0.2
			c0.9-0.3,1.6-1.2,1.6-2.1c0.1-0.3,0.1-0.6,0.1-0.9c0.2-0.1,0.4-0.2,0.5-0.3c0.2,0,0.3-0.1,0.5-0.1c0.8-0.2,1.6-0.9,1.6-1.8
			c0.7-0.5,1-1.4,0.7-2.3c0,0,0-0.1,0.1-0.1c0.1-0.3,0.2-0.6,0.2-0.8c0.1-0.2,0.2-0.4,0.2-0.6c0.2,0,0.4-0.1,0.6-0.2
			c1-0.5,1.6-1,1.8-2c0.3-0.2,0.6-0.5,0.8-0.9l0,0c0.3-0.3,0.5-0.6,0.6-1c0.2-0.3,0.4-0.6,0.4-1c0-0.1,0-0.1,0-0.2v-0.1l0,0
			c0.3-0.1,0.6-0.5,0.9-0.7c0.8-0.6,0.9-1.9,0.3-2.7v-0.1C76.4,146.7,76.6,146.3,76.6,145.6z M46.8,172.5
			C46.7,172.4,46.7,172.4,46.8,172.5L46.8,172.5z"/>
	</g>
</g>
<g>
	<g>
		<path class="st6" d="M57.7,167.7c-0.6-1.2-1.1-2.5-1.5-3.9c-0.2-0.6-1.2-0.4-1,0.3c0.4,1.4,1,2.8,1.6,4.1c0.1,0.2,0.5,0.3,0.7,0.2
			C57.8,168.3,57.8,168,57.7,167.7L57.7,167.7z"/>
	</g>
</g>
<g>
	<g>
		<path class="st6" d="M59.1,166.7c-0.7-1-1.3-2.1-1.7-3.2c-0.1-0.3-0.3-0.4-0.6-0.3c-0.2,0.1-0.4,0.4-0.3,0.6
			c0.4,1.2,1,2.4,1.8,3.5c0.2,0.2,0.4,0.3,0.7,0.2C59.1,167.3,59.2,167,59.1,166.7L59.1,166.7z"/>
	</g>
</g>
<g>
	<g>
		<path class="st6" d="M60.5,162.7c-0.7-1-1.2-2.1-1.6-3.2c-0.1-0.3-0.3-0.4-0.6-0.3c-0.2,0.1-0.4,0.4-0.3,0.6
			c0.4,1.2,1,2.4,1.7,3.5c0.2,0.2,0.4,0.3,0.7,0.2C60.6,163.2,60.7,162.9,60.5,162.7L60.5,162.7z"/>
	</g>
</g>
<g>
	<g>
		<path class="st6" d="M61.8,162.3c-0.4-1-0.8-2-1.3-2.9c-0.1-0.2-0.5-0.3-0.7-0.2c-0.3,0.2-0.3,0.4-0.2,0.7c0.4,1,0.8,2,1.3,2.9
			c0.1,0.2,0.5,0.3,0.7,0.2C61.8,162.8,61.9,162.6,61.8,162.3L61.8,162.3z"/>
	</g>
</g>
<g>
	<g>
		<path class="st6" d="M69.6,151.8c-1-1-1.9-2.1-2.6-3.2c-0.1-0.2-0.4-0.3-0.7-0.2c-0.2,0.1-0.3,0.5-0.2,0.7
			c0.8,1.2,1.8,2.4,2.8,3.4c0.2,0.2,0.5,0.2,0.7,0S69.8,152,69.6,151.8L69.6,151.8z"/>
	</g>
</g>
<g>
	<g>
		<path class="st6" d="M70.6,150.8c-0.6-0.6-1.1-1.2-1.7-1.8c-0.2-0.2-0.5-0.2-0.7,0s-0.2,0.5,0,0.7c0.6,0.6,1.1,1.2,1.7,1.8
			c0.2,0.2,0.5,0.2,0.7,0C70.8,151.3,70.8,151,70.6,150.8L70.6,150.8z"/>
	</g>
</g>
<g>
	<g>
		<path class="st6" d="M29.4,176.6c-0.8-0.9-1.4-1.8-2.1-2.8c-0.1-0.2-0.5-0.3-0.7-0.2s-0.3,0.4-0.2,0.7c0.7,1.1,1.4,2.1,2.2,3
			c0.2,0.2,0.5,0.2,0.7,0C29.6,177.1,29.6,176.8,29.4,176.6L29.4,176.6z"/>
	</g>
</g>
<g>
	<g>
		<path class="st6" d="M31.1,176.1c-0.6-0.8-1.1-1.6-1.5-2.5c-0.1-0.2-0.5-0.3-0.7-0.2c-0.2,0.2-0.3,0.4-0.2,0.7
			c0.5,0.9,1,1.7,1.5,2.5c0.1,0.2,0.4,0.3,0.7,0.2C31.1,176.7,31.2,176.3,31.1,176.1L31.1,176.1z"/>
	</g>
</g>
<g>
	<g>
		<path class="st6" d="M22.4,176.9c-0.7-0.6-1.4-1.3-2-2c-0.2-0.2-0.5-0.2-0.7,0s-0.2,0.5,0,0.7c0.6,0.7,1.3,1.4,2,2
			c0.2,0.2,0.5,0.2,0.7,0S22.6,177.1,22.4,176.9L22.4,176.9z"/>
	</g>
</g>
<g>
	<g>
		<path class="st6" d="M24,177c-0.7-0.6-1.4-1.2-2-1.9c-0.2-0.2-0.5-0.2-0.7,0s-0.2,0.5,0,0.7c0.6,0.7,1.3,1.3,2,1.9
			c0.1,0.1,0.2,0.1,0.4,0.1c0.1,0,0.3-0.1,0.4-0.1C24.2,177.5,24.3,177.2,24,177L24,177z"/>
	</g>
</g>
<g>
	<g>
		<path class="st6" d="M22.8,177.1c-0.9-0.6-1.9-1-3-1.3c-0.3-0.1-0.6,0.1-0.6,0.3c-0.1,0.3,0.1,0.5,0.3,0.6
			c0.2,0.1,0.5,0.1,0.7,0.2c0.1,0,0.2,0.1,0.3,0.1c0.1,0,0.1,0.1,0.2,0.1s0.1,0,0,0c0,0,0,0,0.1,0c0.5,0.2,0.9,0.4,1.4,0.7
			c0.2,0.1,0.6,0.1,0.7-0.2C23.1,177.5,23,177.2,22.8,177.1L22.8,177.1z"/>
	</g>
</g>
<g>
	<g>
		<path class="st6" d="M49.1,171.2c-0.4-1.1-0.7-2.2-1.1-3.2c-0.1-0.3-0.3-0.4-0.6-0.3c-0.3,0.1-0.4,0.4-0.3,0.6
			c0.4,1.1,0.7,2.2,1.1,3.2c0.1,0.3,0.3,0.4,0.6,0.3C49,171.7,49.2,171.4,49.1,171.2L49.1,171.2z"/>
	</g>
</g>
<g>
	<g>
		<path class="st6" d="M48.5,171.5c-0.3-0.5-0.6-0.9-0.9-1.4c-0.3-0.5-0.5-0.9-0.7-1.5c-0.1-0.2-0.3-0.4-0.6-0.3
			c-0.2,0.1-0.4,0.4-0.3,0.6c0.4,1.1,0.9,2.2,1.7,3.2c0.2,0.2,0.4,0.3,0.7,0.2C48.6,172.1,48.7,171.7,48.5,171.5L48.5,171.5z"/>
	</g>
</g>
<g>
	<g>
		<path class="st6" d="M49.9,171.3c0-0.1,0-0.1,0-0.2V171c0-0.1,0-0.1,0,0l0,0v-0.1c0-0.1,0-0.1,0-0.2c0-0.2,0-0.4,0-0.7
			c0-0.2,0-0.4,0-0.6c0-0.1,0-0.2,0-0.3s0-0.1,0-0.2l0,0v-0.1c0-0.3-0.1-0.6-0.3-0.6c-0.2-0.1-0.6,0.1-0.6,0.3c-0.1,1-0.1,2,0,3
			c0,0.3,0.4,0.4,0.6,0.3C49.9,171.8,50,171.5,49.9,171.3L49.9,171.3z"/>
	</g>
</g>
<g>
	<g>
		<path class="st6" d="M43.4,172.8c-0.2-1.1-0.6-2.2-1-3.3c-0.1-0.2-0.5-0.3-0.7-0.2c-0.2,0.2-0.3,0.4-0.2,0.7c0.4,0.9,0.8,2,0.9,3
			c0,0.3,0.4,0.4,0.6,0.3C43.4,173.3,43.5,173.1,43.4,172.8L43.4,172.8z"/>
	</g>
</g>
<g>
	<g>
		<path class="st6" d="M75.7,143.8c-0.4-1-0.7-2.1-0.9-3.1c0-0.3-0.4-0.4-0.6-0.3c-0.3,0.1-0.4,0.3-0.3,0.6c0.2,1.2,0.5,2.3,1,3.4
			c0.1,0.2,0.5,0.3,0.7,0.2C75.8,144.3,75.8,144.1,75.7,143.8L75.7,143.8z"/>
	</g>
</g>
<g>
	<g>
		<path class="st6" d="M73.6,144.7l-0.1-0.1l0,0c0,0,0,0,0-0.1c-0.1-0.1-0.1-0.2-0.2-0.3c-0.1-0.2-0.3-0.4-0.4-0.6
			c-0.2-0.4-0.4-0.8-0.6-1.2c0-0.1-0.2-0.2-0.3-0.2c-0.1,0-0.3,0-0.4,0.1c-0.3,0.2-0.3,0.4-0.2,0.7c0.4,0.9,0.9,1.7,1.5,2.4
			c0.2,0.2,0.5,0.2,0.7,0C73.8,145.2,73.7,144.9,73.6,144.7L73.6,144.7z"/>
	</g>
</g>
<g>
	<g>
		<path class="st6" d="M34.7,175.5c-0.4-0.9-0.8-1.9-1.3-2.8c-0.1-0.2-0.5-0.3-0.7-0.2c-0.2,0.2-0.3,0.4-0.2,0.7
			c0.4,0.9,0.8,1.9,1.3,2.8c0.1,0.2,0.5,0.3,0.7,0.2C34.8,176.1,34.8,175.8,34.7,175.5L34.7,175.5z"/>
	</g>
</g>
<g>
	<g>
		<path id="XMLID_16_" class="st6" d="M252.1,368.2c-0.1-0.2,0.5-0.6,0.5-0.9c-0.1-0.2-0.6-0.4-0.6-0.6c-0.1-0.2,0-0.5,0-0.7
			c-0.1-0.2-0.3-0.4-0.3-0.7c-0.1-0.2-0.5-0.4-0.6-0.6s0-0.5-0.1-0.7s0.1-0.5,0-0.8c-0.1-0.2-0.3-0.4-0.3-0.7
			c-0.1-0.2,0.4-0.6,0.4-0.9c-0.1-0.2-0.9-0.3-1-0.5s0-0.5-0.1-0.7s0.1-0.5,0-0.8c-0.1-0.2,0.3-0.6,0.2-0.8
			c-0.1-0.2-0.7-0.3-0.8-0.5s0.2-0.6,0.2-0.8c-0.1-0.2,0.4-0.6,0.3-0.8c-0.1-0.3-0.3-0.4-0.4-0.7c-0.1-0.3-0.7-0.4-0.7-0.6
			c-0.1-0.3,0.1-0.7,0.1-0.8c0-0.1-0.2-0.3-0.3-0.6c-0.1-0.2-0.5-0.3-0.6-0.5s-0.2-0.4-0.3-0.7c-0.1-0.2,0.7-0.7,0.6-1
			c-0.1-0.2-1-0.1-1.1-0.4c-0.1-0.2,0.4-0.7,0.3-0.9c-0.1-0.2-0.1-0.5-0.2-0.7c-0.1-0.2-0.2-0.4-0.3-0.7c-0.1-0.2-0.3-0.4-0.4-0.6
			c-0.1-0.2,0.1-0.5,0-0.8c-0.1-0.2-0.1-0.5-0.2-0.7c-0.1-0.2,0-0.5-0.1-0.7s-0.9-0.2-1-0.4c-0.1-0.2,0.6-0.7,0.5-1
			c-0.1-0.2-0.6-0.3-0.7-0.5c-0.1-0.2-0.2-0.4-0.3-0.7c-0.1-0.2-0.4-0.4-0.5-0.6s-0.1-0.5-0.2-0.7c-0.1-0.2,0.5-0.7,0.5-0.9
			s-0.7-0.3-0.7-0.5c-0.1-0.2-0.2-0.4-0.3-0.7c-0.1-0.2-0.1-0.5-0.2-0.7c-0.1-0.2-0.3-0.4-0.4-0.6c-0.1-0.2-0.2-0.4-0.3-0.7
			c-0.1-0.2,0.4-0.6,0.3-0.8c-0.1-0.2-0.2-0.4-0.3-0.6s-0.3-0.4-0.4-0.6c-0.1-0.2,0.1-0.5,0-0.8c-0.1-0.2-0.4-0.4-0.4-0.6
			c-0.1-0.2,0.2-0.5,0.1-0.8c-0.1-0.2-0.6-0.3-0.7-0.5c-0.1-0.2-0.2-0.4-0.3-0.7c-0.1-0.2,0.2-0.6,0.2-0.8c-0.1-0.2-0.4-0.4-0.5-0.6
			s0.2-0.6,0.2-0.8c-0.1-0.2-0.2-0.5-0.2-0.7c-0.1-0.2,0.2-0.5,0.2-0.8c-0.1-0.2-0.8-0.3-0.8-0.6c0-0.2-0.3-0.5-0.3-0.7
			c0-0.3,0.3-0.6,0.3-0.8c0-0.3-0.4-0.5-0.4-0.7s0.1-0.3-0.1-0.4c-0.2-0.1-0.4,0-0.7-0.1c-0.2-0.1-0.3-0.3-0.6-0.4
			c-0.2,0-0.4-0.5-0.6-0.6c-0.2,0-0.4-0.2-0.7-0.3c-0.2,0-0.5,0.7-0.8,0.7c-0.2,0-0.4-0.9-0.6-0.9c-0.2,0-0.5,0.4-0.7,0.4
			s-0.5-0.3-0.7-0.3s-0.5,0.1-0.7,0.1s-0.5,0.1-0.7,0.1s-0.5,0.1-0.7,0.1s-0.5,0.6-0.7,0.6s-0.5-0.4-0.7-0.4s-0.5,0-0.7,0.1
			c-0.2,0-0.5,0.3-0.7,0.3s-0.5-0.3-0.7-0.2c-0.2,0-0.5-0.1-0.7-0.1s-0.5-0.2-0.7-0.2s-0.4,0.5-0.7,0.5c-0.2,0-0.5-0.1-0.7,0
			c-0.2,0-0.5,0.2-0.7,0.2s-0.5,0.1-0.7,0.1s-0.5-0.5-0.8-0.5c-0.2,0-0.5,0-0.7,0s-0.5,0-0.7,0s-0.5,0.2-0.7,0.2s-0.5,0.2-0.7,0.3
			c-0.2,0-0.4,0.5-0.7,0.6c-0.2,0-0.6-0.7-0.8-0.7s-0.5,0.2-0.7,0.2s-0.4,0.6-0.7,0.6c-0.2,0-0.5-0.1-0.7,0c-0.2,0-0.5,0.1-0.7,0.1
			s-0.5,0.2-0.7,0.2s-0.5,0.1-0.7,0.1s-0.5-0.2-0.7-0.1c-0.2,0-0.5-0.5-0.8-0.4c-0.2,0-0.5,0-0.7,0.1c-0.2,0-0.5,0.1-0.7,0.1
			s-0.5-0.1-0.7,0c-0.2,0-0.4,0.6-0.7,0.6c-0.2,0-0.5,0.1-0.7,0.1s-0.5,0.1-0.7,0.2c-0.2,0-0.5-0.1-0.7-0.1s-0.5,0-0.7,0
			s-0.5-0.3-0.8-0.2c-0.2,0-0.4,0.3-0.7,0.3c-0.2,0-0.4,0.3-0.7,0.3c-0.2,0-0.4,0.3-0.7,0.3c-0.2,0-0.5-0.4-0.8-0.3
			c-0.2,0-0.5,0.2-0.7,0.2s-0.5-0.3-0.8-0.3c-0.2,0-0.4,0.3-0.7,0.3c-0.2,0-0.4,0.5-0.6,0.5c-0.2,0-0.5,0.1-0.7,0.2
			c-0.2,0-0.5-0.1-0.7-0.1s-0.5-0.3-0.8-0.3c-0.2,0-0.4,0.7-0.6,0.8c-0.2,0-0.6-0.5-0.8-0.5s-0.3,0.8-0.6,0.9
			c-0.2,0-0.5-0.2-0.8-0.2c-0.2,0-0.4,0.5-0.6,0.6c-0.2,0-0.5,0.1-0.7,0.1s-0.5,0-0.7,0.1c-0.2,0-0.6-0.5-0.8-0.5s-0.4,0.6-0.6,0.7
			c-0.2,0-0.5,0.2-0.7,0.2s-0.5,0.1-0.7,0.2c-0.2,0-0.5-0.1-0.7,0c-0.2,0-0.4,0.3-0.7,0.3c-0.2,0.1-0.5-0.2-0.8-0.1
			c-0.2,0.1-0.4,0.3-0.7,0.3c-0.2,0.1-0.5,0-0.7,0c-0.2,0.1-0.6-0.5-0.8-0.4s-0.5,0.1-0.7,0.2s-0.5,0-0.7,0.1s-0.3,0.4-0.6,0.5
			c-0.2-0.1-0.5,0.3-0.8,0.2c-0.2-0.1-0.3-0.7-0.5-0.8c-0.2-0.1-0.5-0.1-0.7-0.1c-0.2-0.1-0.4-0.3-0.7-0.3c-0.2-0.1-0.6,0.6-0.9,0.5
			c-0.2-0.1-0.5,0-0.7-0.1s-0.5,0-0.7-0.1s-0.3-0.7-0.6-0.7c-0.2-0.1-0.6,0.4-0.8,0.4c-0.2-0.1-0.5-0.1-0.7-0.1
			c-0.2-0.1-0.4-0.2-0.7-0.3c-0.2-0.1-0.4-0.6-0.6-0.6c-0.2-0.1-0.6,0.5-0.8,0.5c-0.2-0.1-0.3-0.8-0.6-0.8c-0.2,0-0.5-0.2-0.7-0.2
			s-0.5,0-0.7-0.1c-0.2,0-0.6,0.6-0.8,0.5c-0.2,0-0.4-0.4-0.7-0.4c-0.2,0-0.4-0.3-0.7-0.4c-0.2,0-0.5,0.3-0.8,0.2
			c-0.2,0-0.4-0.6-0.6-0.7c-0.2,0-0.6,0.7-0.9,0.7c-0.2,0-0.3-0.8-0.6-0.9c-0.2,0-0.5,0.1-0.8,0.1c-0.2,0-0.5-0.2-0.7-0.2
			s-0.5,0.1-0.7,0c-0.2,0-0.5-0.1-0.7-0.1s-0.4-0.5-0.6-0.5c-0.2,0-0.5,0-0.7,0s-0.5-0.1-0.7-0.2c-0.2,0-0.6,0.7-0.8,0.6
			c-0.2,0-0.5-0.1-0.7-0.2c-0.2,0-0.4-0.7-0.6-0.8c-0.2,0-0.5-0.1-0.7-0.1s-0.5,0.1-0.7,0.1s-0.5,0.3-0.8,0.3
			c-0.2,0-0.4-0.7-0.6-0.8c-0.2,0-0.6,0.5-0.8,0.5s-0.4-0.7-0.6-0.7c-0.2,0-0.6,0.8-0.8,0.8s-0.4-0.7-0.6-0.7c-0.2,0-0.5,0.1-0.7,0
			c-0.2,0-0.5-0.1-0.7-0.2c-0.2,0-0.6,0.6-0.8,0.5c-0.2,0-0.4-0.5-0.7-0.5c-0.2,0-0.5,0-0.7,0s-0.5,0.2-0.7,0.1
			c-0.2,0-0.4-0.8-0.6-0.8c-0.2,0-0.6,0.7-0.8,0.7s-0.5-0.1-0.7-0.1s-0.4-0.4-0.7-0.4c-0.2,0-0.5,0.3-0.8,0.3
			c-0.2,0-0.5-0.3-0.7-0.3s-0.4-0.7-0.7-0.7c-0.2,0-0.6,0.7-0.8,0.7s-0.4-0.8-0.6-0.9c-0.2,0-0.5,0-0.7-0.1c-0.2,0-0.5,0.1-0.7,0.1
			s-0.5,0.3-0.7,0.3s-0.5,0.1-0.7,0.1s-0.4-0.7-0.7-0.7c-0.2,0-0.5,0.1-0.7,0.1s-0.5,0.7-0.8,0.6c-0.2,0-0.4-0.9-0.7-0.9
			c-0.2,0-0.5,0.2-0.7,0.2s-0.5,0.4-0.7,0.4s-0.5,0.3-0.7,0.3s-0.5-0.4-0.7-0.4s-0.5,0.3-0.7,0.3s-0.5-0.2-0.7-0.2s-0.5,0.1-0.7,0.1
			s-0.5-0.4-0.7-0.4s-0.5,0.6-0.7,0.6s-0.5-0.7-0.7-0.7s-0.5,0.2-0.7,0.3c-0.2,0-0.5,0.1-0.7,0.1s-0.5-0.3-0.7-0.2
			c-0.2,0-0.5,0-0.7,0.1c-0.2,0-0.4,0.4-0.7,0.5c-0.3,0-0.5,0.1-0.7,0.2c-0.3,0.1-0.4,0.4-0.6,0.4c-0.3,0.1-0.8-0.4-0.9-0.3
			c-0.2,0.2,0.2,0.6,0.2,0.8c0,0.2-0.3,0.4-0.3,0.7c0,0.2,0.1,0.5,0.1,0.7s0,0.5,0,0.7s-0.6,0.4-0.6,0.6s0.4,0.6,0.3,0.8
			c-0.1,0.2-0.2,0.4-0.3,0.7c-0.1,0.2-0.4,0.4-0.5,0.6s-0.3,0.4-0.4,0.6s0.1,0.5,0.1,0.8c-0.1,0.2,0.2,0.5,0.1,0.8
			c-0.1,0.2-0.3,0.4-0.4,0.6s-0.3,0.4-0.3,0.7c-0.1,0.2,0.1,0.5,0,0.8c-0.1,0.2-0.8,0.3-0.8,0.5c-0.1,0.2-0.1,0.5-0.2,0.7
			s0.6,0.7,0.5,0.9c-0.1,0.2-0.5,0.4-0.5,0.6c-0.1,0.2-0.2,0.4-0.3,0.7c-0.1,0.2,0,0.5,0,0.7c-0.1,0.2-0.7,0.3-0.7,0.5
			c-0.1,0.2-0.3,0.4-0.4,0.6s0.2,0.6,0.1,0.8c-0.1,0.2,0.2,0.6,0.2,0.8c-0.1,0.2-0.4,0.4-0.5,0.6s-0.1,0.5-0.1,0.7
			c-0.1,0.2-0.3,0.4-0.4,0.6s0.2,0.6,0.2,0.8c-0.1,0.2-0.4,0.4-0.5,0.6s-0.7,0.2-0.8,0.5c-0.1,0.2,0.1,0.5,0,0.8
			c-0.1,0.2,0,0.5,0,0.7c-0.1,0.2,0.1,0.5,0,0.8c-0.1,0.2-0.3,0.4-0.3,0.6c-0.1,0.2-0.3,0.4-0.4,0.6s0.2,0.6,0.2,0.8
			c-0.1,0.2-0.2,0.5-0.2,0.7c-0.1,0.2-0.4,0.4-0.5,0.6s-0.6,0.3-0.7,0.5s-0.4,0.4-0.5,0.6c-0.1,0.3,0.5,0.7,0.4,0.9
			c-0.1,0.4-0.4,0.5-0.4,0.6s0,0.4-0.1,0.7c0,0.2,0,0.5,0,0.7s-0.2,0.5-0.2,0.7s-0.5,0.4-0.5,0.7c0,0.2,0.1,0.5,0,0.7
			c0,0.2,0.4,0.5,0.4,0.8c0,0.2-0.1,0.5-0.1,0.7s-0.4,0.4-0.4,0.7c0,0.2,0.4,0.5,0.3,0.8c0,0.2-0.8,0.4-0.9,0.6s0.2,0.5,0.2,0.8
			c0,0.2,0.2,0.5,0.2,0.8c0,0.2-0.5,0.4-0.6,0.7c0,0.2,0.1,0.5,0.1,0.8c0,0.2,0.2,0.5,0.2,0.8c0,0.2-0.3,0.5-0.4,0.7
			c0,0.2-0.5,0.4-0.5,0.7c0,0.3,0.4,0.6,0.4,0.8c0,0.3,0,0.5,0,0.7c0,0.3-0.3,0.5-0.3,0.8c0.1,0.2,0.5,0.4,0.6,0.6
			c0.2,0.2,0.2,0.5,0.4,0.6c0.2,0.1,0.5,0,0.8,0c0.2,0,0.5-0.1,0.7-0.1s0.4,0.1,0.7,0.1c0.2,0,0.4,0.2,0.7,0.3
			c0.2,0,0.5,0.1,0.7,0.1s0.5-0.2,0.7-0.2s0.3,0,0.5-0.1c0.2-0.4,12.7-1.3,12.7-1.2c0.1,0.1,0.1,0.1,0.2,0.2l0,0
			c0.2,0.1,0.3,0.2,0.5,0.3c0,0,0.1,0,0.1,0.1c0.1-0.1,0.2-0.1,0.3-0.1c0.2-0.1,0.3-0.6,0.6-0.6c0.2-0.1,0.6,0.3,0.8,0.2
			c0.2-0.1,0.2-0.8,0.5-0.9c0.2-0.1,0.5,0.1,0.8,0c0.2-0.1,0.4-0.4,0.6-0.5c0.2-0.1,0.6,0.1,0.8,0s0.6,0.1,0.8,0s0.3-0.5,0.5-0.6
			s0.3-0.6,0.5-0.7s0.6,0.2,0.8,0.1s0.5-0.1,0.7-0.2s0.5-0.1,0.7-0.2s0.3-0.5,0.5-0.6s0.4-0.3,0.6-0.4c0.2-0.1,0.6,0.2,0.8,0.1
			s0.5,0.2,0.8,0.1c0.2-0.1,0.4-0.3,0.6-0.3c0.2,0,0.4-0.3,0.7-0.3c0.2,0,0.5,0.4,0.8,0.4c0.2,0,0.4-0.9,0.6-0.9c0.2,0,0.5,0,0.7,0
			s0.5,0,0.7,0s0.5,0,0.7,0s0.5,0.2,0.7,0.2s0.5,0,0.7,0s0.4,0.6,0.6,0.6c0.2,0,0.5-0.2,0.7-0.2s0.5,0.2,0.7,0.2s0.4,0.3,0.7,0.3
			c0.2,0,0.5-0.3,0.8-0.2c0.2,0,0.4,0.5,0.6,0.5c0.2,0.1,0.5,0.1,0.7,0.1c0.2,0.1,0.5-0.2,0.8-0.2c0.2,0.1,0.3,0.7,0.6,0.7
			c0.2,0.1,0.5-0.1,0.7,0s0.4,0.4,0.6,0.4c0.2,0.1,0.6-0.4,0.8-0.3s0.3,0.8,0.5,0.9s0.5,0.1,0.7,0.2s0.5-0.1,0.8-0.1
			c0.2,0.1,0.6-0.4,0.8-0.3s0.4,0.4,0.6,0.5c0.2,0.1,0.4,0.3,0.6,0.4c0.2,0.1,0.4,0.2,0.7,0.3c0.2,0.1,0.6-0.4,0.8-0.4
			c0.2,0.1,0.3,0.7,0.6,0.8c0.2,0.1,0.5,0.2,0.7,0.2c0.2,0.1,0.5,0.1,0.7,0.2c0.2,0,0.6-0.5,0.8-0.4c0.2,0,0.5-0.1,0.7-0.1
			s0.4,0.7,0.6,0.7c0.2,0,0.6-0.5,0.8-0.5s0.4,0.8,0.6,0.8c0.2,0,0.6-0.8,0.8-0.7c0.2,0,0.5,0.1,0.7,0.1s0.4,0.6,0.6,0.6
			c0.2,0,0.5,0.2,0.7,0.2s0.5-0.5,0.8-0.5c0.2,0,0.4,0.7,0.7,0.7c0.2,0,0.5-0.4,0.7-0.4s0.5-0.4,0.7-0.4s0.5,0.7,0.7,0.7
			s0.5-0.6,0.7-0.6s0.5,0.8,0.7,0.8s0.5-0.2,0.7-0.2s0.4-0.6,0.7-0.6c0.2,0,0.5,0.8,0.8,0.8c0.2,0,0.5-0.1,0.7-0.1s0.4-0.4,0.7-0.4
			c0.2,0,0.4-0.4,0.7-0.5c0.2,0,0.5,0.5,0.8,0.5c0.2,0,0.4-0.4,0.7-0.4c0.2,0,0.6,0.5,0.8,0.5s0.3-1,0.6-1.1c0.2,0,0.5,0,0.7-0.1
			c0.2,0,0.6,0.4,0.8,0.4s0.4-0.5,0.6-0.6c0.2,0,0.5,0.3,0.8,0.3c0.2,0,0.5,0.2,0.8,0.2c0.2,0,0.5,0,0.7-0.1c0.2,0,0.3-0.9,0.6-0.9
			c0.2,0,0.5,0.1,0.7,0.1s0.6,0.4,0.8,0.4s0.4-0.5,0.6-0.5c0.2,0,0.5,0.2,0.8,0.2c0.2,0,0.4-0.4,0.7-0.4c0.2,0,0.5,0.2,0.8,0.2
			c0.2,0,0.3-0.8,0.6-0.9c0.2,0,0.5,0.3,0.8,0.2c0.2,0,0.5-0.1,0.7-0.2c0.2,0,0.4-0.4,0.7-0.4c0.2,0,0.6,0.6,0.8,0.6
			s0.4-0.6,0.6-0.7c0.2,0,0.5-0.2,0.7-0.2s0.5,0.4,0.8,0.4c0.2,0,0.4-0.4,0.7-0.4c0.2,0,0.4-0.4,0.7-0.4c0.2,0,0.6,0.8,0.8,0.7
			c0.2,0,0.4-0.5,0.7-0.5c0.2,0,0.5,0.5,0.8,0.5c0.2,0,0.4-0.9,0.6-1c0.2,0,0.5,0.7,0.8,0.7c0.2,0,0.5-0.2,0.7-0.2s0.4-0.5,0.7-0.5
			c0.2,0,0.5,0.7,0.8,0.7c0.2,0,0.4-0.6,0.7-0.6c0.2,0,0.5,0,0.7-0.1c0.2,0,0.5,0.6,0.7,0.5c0.2,0,0.5-0.9,0.7-0.9s0.5,0.2,0.7,0.2
			s0.5,0.5,0.7,0.5s0.5,0,0.7,0s0.5,0,0.7,0s0.5-0.3,0.7-0.3s0.5-0.1,0.7,0c0.2,0,0.5,0.2,0.7,0.2s0.4,0.5,0.7,0.5
			c0.2,0,0.5,0.2,0.7,0.2s0.5,0,0.7,0.1c0.2,0,0.6-0.4,0.8-0.3c0.2,0,0.4,0.3,0.7,0.4c0.2,0.1,0.6-0.4,0.8-0.4
			c0.2,0.1,0.3,0.8,0.5,0.8c0.2,0.1,0.5,0.1,0.7,0.2s0.5-0.1,0.7,0s0.5,0,0.7,0.1s0.6-0.2,0.8-0.1s0.3,0.6,0.5,0.7s0.4,0.3,0.6,0.4
			c0.2,0.1,0.4,0.2,0.7,0.3c0.2,0.1,0.4,0.4,0.6,0.4c0.2,0.1,0.6-0.4,0.9-0.3c0.2,0.1,0.4,0.4,0.6,0.5c0.2,0.1,0.5,0.2,0.7,0.2
			c0.2,0.1,0.6-0.5,0.9-0.4c0.2,0.1,0.3,0.7,0.6,0.8s0.5-0.1,0.8-0.1c0.2,0.1,0.4,0.6,0.6,0.6c0.2,0,0.6-0.5,0.8-0.4
			c0.2,0,0.5-0.1,0.7-0.1s0.4,0.3,0.7,0.4c0.2,0,0.4,0.4,0.7,0.4c0.2,0,0.5,0.1,0.7,0.2c0.2,0,0.5,0,0.7,0.1c0.2,0,0.6-0.6,0.8-0.6
			s0.5,0.1,0.7,0.1s0.4,0.4,0.7,0.4c0.2,0,0.5-0.3,0.8-0.3c0.2,0,0.4,0.7,0.7,0.7c0.2,0,0.5,0,0.7,0s0.5,0,0.7,0s0.5-0.1,0.7-0.1
			s0.5,0.5,0.7,0.5s0.5-0.3,0.7-0.3s0.5,0.4,0.7,0.4s0.5-0.8,0.7-0.8s0.5,0.7,0.7,0.7s0.5-0.4,0.7-0.4s0.5,0.6,0.7,0.6
			s0.5-0.6,0.7-0.6s0.5-0.2,0.7-0.2s0.5,0.6,0.7,0.6s0.5-0.3,0.7-0.3c0.3,0,0.5-0.5,0.7-0.5s0.6,0.7,0.8,0.6s0.5-0.3,0.7-0.5
			s0-0.6,0.1-0.8c0.1-0.2-0.1-0.4,0-0.7C252.1,368.6,252.2,368.4,252.1,368.2z"/>
	</g>
	<g>
		<defs>
			<path id="SVGID_2_" d="M252.1,368.2c-0.1-0.2,0.5-0.6,0.5-0.9c-0.1-0.2-0.6-0.4-0.6-0.6c-0.1-0.2,0-0.5,0-0.7
				c-0.1-0.2-0.3-0.4-0.3-0.7c-0.1-0.2-0.5-0.4-0.6-0.6s0-0.5-0.1-0.7s0.1-0.5,0-0.8c-0.1-0.2-0.3-0.4-0.3-0.7
				c-0.1-0.2,0.4-0.6,0.4-0.9c-0.1-0.2-0.9-0.3-1-0.5s0-0.5-0.1-0.7s0.1-0.5,0-0.8c-0.1-0.2,0.3-0.6,0.2-0.8
				c-0.1-0.2-0.7-0.3-0.8-0.5s0.2-0.6,0.2-0.8c-0.1-0.2,0.4-0.6,0.3-0.8c-0.1-0.3-0.3-0.4-0.4-0.7c-0.1-0.3-0.7-0.4-0.7-0.6
				c-0.1-0.3,0.1-0.7,0.1-0.8c0-0.1-0.2-0.3-0.3-0.6c-0.1-0.2-0.5-0.3-0.6-0.5s-0.2-0.4-0.3-0.7c-0.1-0.2,0.7-0.7,0.6-1
				c-0.1-0.2-1-0.1-1.1-0.4c-0.1-0.2,0.4-0.7,0.3-0.9c-0.1-0.2-0.1-0.5-0.2-0.7c-0.1-0.2-0.2-0.4-0.3-0.7c-0.1-0.2-0.3-0.4-0.4-0.6
				c-0.1-0.2,0.1-0.5,0-0.8c-0.1-0.2-0.1-0.5-0.2-0.7c-0.1-0.2,0-0.5-0.1-0.7s-0.9-0.2-1-0.4c-0.1-0.2,0.6-0.7,0.5-1
				c-0.1-0.2-0.6-0.3-0.7-0.5c-0.1-0.2-0.2-0.4-0.3-0.7c-0.1-0.2-0.4-0.4-0.5-0.6s-0.1-0.5-0.2-0.7c-0.1-0.2,0.5-0.7,0.5-0.9
				s-0.7-0.3-0.7-0.5c-0.1-0.2-0.2-0.4-0.3-0.7c-0.1-0.2-0.1-0.5-0.2-0.7c-0.1-0.2-0.3-0.4-0.4-0.6c-0.1-0.2-0.2-0.4-0.3-0.7
				c-0.1-0.2,0.4-0.6,0.3-0.8c-0.1-0.2-0.2-0.4-0.3-0.6s-0.3-0.4-0.4-0.6c-0.1-0.2,0.1-0.5,0-0.8c-0.1-0.2-0.4-0.4-0.4-0.6
				c-0.1-0.2,0.2-0.5,0.1-0.8c-0.1-0.2-0.6-0.3-0.7-0.5c-0.1-0.2-0.2-0.4-0.3-0.7c-0.1-0.2,0.2-0.6,0.2-0.8
				c-0.1-0.2-0.4-0.4-0.5-0.6s0.2-0.6,0.2-0.8c-0.1-0.2-0.2-0.5-0.2-0.7c-0.1-0.2,0.2-0.5,0.2-0.8c-0.1-0.2-0.8-0.3-0.8-0.6
				c0-0.2-0.3-0.5-0.3-0.7c0-0.3,0.3-0.6,0.3-0.8c0-0.3-0.4-0.5-0.4-0.7s0.1-0.3-0.1-0.4c-0.2-0.1-0.4,0-0.7-0.1
				c-0.2-0.1-0.3-0.3-0.6-0.4c-0.2,0-0.4-0.5-0.6-0.6c-0.2,0-0.4-0.2-0.7-0.3c-0.2,0-0.5,0.7-0.8,0.7c-0.2,0-0.4-0.9-0.6-0.9
				c-0.2,0-0.5,0.4-0.7,0.4s-0.5-0.3-0.7-0.3s-0.5,0.1-0.7,0.1s-0.5,0.1-0.7,0.1s-0.5,0.1-0.7,0.1s-0.5,0.6-0.7,0.6
				s-0.5-0.4-0.7-0.4s-0.5,0-0.7,0.1c-0.2,0-0.5,0.3-0.7,0.3s-0.5-0.3-0.7-0.2c-0.2,0-0.5-0.1-0.7-0.1s-0.5-0.2-0.7-0.2
				s-0.4,0.5-0.7,0.5c-0.2,0-0.5-0.1-0.7,0c-0.2,0-0.5,0.2-0.7,0.2s-0.5,0.1-0.7,0.1s-0.5-0.5-0.8-0.5c-0.2,0-0.5,0-0.7,0
				s-0.5,0-0.7,0s-0.5,0.2-0.7,0.2s-0.5,0.2-0.7,0.3c-0.2,0-0.4,0.5-0.7,0.6c-0.2,0-0.6-0.7-0.8-0.7s-0.5,0.2-0.7,0.2
				s-0.4,0.6-0.7,0.6c-0.2,0-0.5-0.1-0.7,0c-0.2,0-0.5,0.1-0.7,0.1s-0.5,0.2-0.7,0.2s-0.5,0.1-0.7,0.1s-0.5-0.2-0.7-0.1
				c-0.2,0-0.5-0.5-0.8-0.4c-0.2,0-0.5,0-0.7,0.1c-0.2,0-0.5,0.1-0.7,0.1s-0.5-0.1-0.7,0c-0.2,0-0.4,0.6-0.7,0.6
				c-0.2,0-0.5,0.1-0.7,0.1s-0.5,0.1-0.7,0.2c-0.2,0-0.5-0.1-0.7-0.1s-0.5,0-0.7,0s-0.5-0.3-0.8-0.2c-0.2,0-0.4,0.3-0.7,0.3
				c-0.2,0-0.4,0.3-0.7,0.3c-0.2,0-0.4,0.3-0.7,0.3c-0.2,0-0.5-0.4-0.8-0.3c-0.2,0-0.5,0.2-0.7,0.2s-0.5-0.3-0.8-0.3
				c-0.2,0-0.4,0.3-0.7,0.3c-0.2,0-0.4,0.5-0.6,0.5c-0.2,0-0.5,0.1-0.7,0.2c-0.2,0-0.5-0.1-0.7-0.1s-0.5-0.3-0.8-0.3
				c-0.2,0-0.4,0.7-0.6,0.8c-0.2,0-0.6-0.5-0.8-0.5s-0.3,0.8-0.6,0.9c-0.2,0-0.5-0.2-0.8-0.2c-0.2,0-0.4,0.5-0.6,0.6
				c-0.2,0-0.5,0.1-0.7,0.1s-0.5,0-0.7,0.1c-0.2,0-0.6-0.5-0.8-0.5s-0.4,0.6-0.6,0.7c-0.2,0-0.5,0.2-0.7,0.2s-0.5,0.1-0.7,0.2
				c-0.2,0-0.5-0.1-0.7,0c-0.2,0-0.4,0.3-0.7,0.3c-0.2,0.1-0.5-0.2-0.8-0.1c-0.2,0.1-0.4,0.3-0.7,0.3c-0.2,0.1-0.5,0-0.7,0
				c-0.2,0.1-0.6-0.5-0.8-0.4s-0.5,0.1-0.7,0.2s-0.5,0-0.7,0.1s-0.3,0.4-0.6,0.5c-0.2-0.1-0.5,0.3-0.8,0.2c-0.2-0.1-0.3-0.7-0.5-0.8
				c-0.2-0.1-0.5-0.1-0.7-0.1c-0.2-0.1-0.4-0.3-0.7-0.3c-0.2-0.1-0.6,0.6-0.9,0.5c-0.2-0.1-0.5,0-0.7-0.1s-0.5,0-0.7-0.1
				s-0.3-0.7-0.6-0.7c-0.2-0.1-0.6,0.4-0.8,0.4c-0.2-0.1-0.5-0.1-0.7-0.1c-0.2-0.1-0.4-0.2-0.7-0.3c-0.2-0.1-0.4-0.6-0.6-0.6
				c-0.2-0.1-0.6,0.5-0.8,0.5c-0.2-0.1-0.3-0.8-0.6-0.8c-0.2,0-0.5-0.2-0.7-0.2s-0.5,0-0.7-0.1c-0.2,0-0.6,0.6-0.8,0.5
				c-0.2,0-0.4-0.4-0.7-0.4c-0.2,0-0.4-0.3-0.7-0.4c-0.2,0-0.5,0.3-0.8,0.2c-0.2,0-0.4-0.6-0.6-0.7c-0.2,0-0.6,0.7-0.9,0.7
				c-0.2,0-0.3-0.8-0.6-0.9c-0.2,0-0.5,0.1-0.8,0.1c-0.2,0-0.5-0.2-0.7-0.2s-0.5,0.1-0.7,0c-0.2,0-0.5-0.1-0.7-0.1s-0.4-0.5-0.6-0.5
				c-0.2,0-0.5,0-0.7,0s-0.5-0.1-0.7-0.2c-0.2,0-0.6,0.7-0.8,0.6c-0.2,0-0.5-0.1-0.7-0.2c-0.2,0-0.4-0.7-0.6-0.8
				c-0.2,0-0.5-0.1-0.7-0.1s-0.5,0.1-0.7,0.1s-0.5,0.3-0.8,0.3c-0.2,0-0.4-0.7-0.6-0.8c-0.2,0-0.6,0.5-0.8,0.5s-0.4-0.7-0.6-0.7
				c-0.2,0-0.6,0.8-0.8,0.8s-0.4-0.7-0.6-0.7c-0.2,0-0.5,0.1-0.7,0c-0.2,0-0.5-0.1-0.7-0.2c-0.2,0-0.6,0.6-0.8,0.5
				c-0.2,0-0.4-0.5-0.7-0.5c-0.2,0-0.5,0-0.7,0s-0.5,0.2-0.7,0.1c-0.2,0-0.4-0.8-0.6-0.8c-0.2,0-0.6,0.7-0.8,0.7s-0.5-0.1-0.7-0.1
				s-0.4-0.4-0.7-0.4c-0.2,0-0.5,0.3-0.8,0.3c-0.2,0-0.5-0.3-0.7-0.3s-0.4-0.7-0.7-0.7c-0.2,0-0.6,0.7-0.8,0.7s-0.4-0.8-0.6-0.9
				c-0.2,0-0.5,0-0.7-0.1c-0.2,0-0.5,0.1-0.7,0.1s-0.5,0.3-0.7,0.3s-0.5,0.1-0.7,0.1s-0.4-0.7-0.7-0.7c-0.2,0-0.5,0.1-0.7,0.1
				s-0.5,0.7-0.8,0.6c-0.2,0-0.4-0.9-0.7-0.9c-0.2,0-0.5,0.2-0.7,0.2s-0.5,0.4-0.7,0.4s-0.5,0.3-0.7,0.3s-0.5-0.4-0.7-0.4
				s-0.5,0.3-0.7,0.3s-0.5-0.2-0.7-0.2s-0.5,0.1-0.7,0.1s-0.5-0.4-0.7-0.4s-0.5,0.6-0.7,0.6s-0.5-0.7-0.7-0.7s-0.5,0.2-0.7,0.3
				c-0.2,0-0.5,0.1-0.7,0.1s-0.5-0.3-0.7-0.2c-0.2,0-0.5,0-0.7,0.1c-0.2,0-0.4,0.4-0.7,0.5c-0.3,0-0.5,0.1-0.7,0.2
				c-0.3,0.1-0.4,0.4-0.6,0.4c-0.3,0.1-0.8-0.4-0.9-0.3c-0.2,0.2,0.2,0.6,0.2,0.8c0,0.2-0.3,0.4-0.3,0.7c0,0.2,0.1,0.5,0.1,0.7
				s0,0.5,0,0.7s-0.6,0.4-0.6,0.6s0.4,0.6,0.3,0.8c-0.1,0.2-0.2,0.4-0.3,0.7c-0.1,0.2-0.4,0.4-0.5,0.6s-0.3,0.4-0.4,0.6
				s0.1,0.5,0.1,0.8c-0.1,0.2,0.2,0.5,0.1,0.8c-0.1,0.2-0.3,0.4-0.4,0.6s-0.3,0.4-0.3,0.7c-0.1,0.2,0.1,0.5,0,0.8
				c-0.1,0.2-0.8,0.3-0.8,0.5c-0.1,0.2-0.1,0.5-0.2,0.7s0.6,0.7,0.5,0.9c-0.1,0.2-0.5,0.4-0.5,0.6c-0.1,0.2-0.2,0.4-0.3,0.7
				c-0.1,0.2,0,0.5,0,0.7c-0.1,0.2-0.7,0.3-0.7,0.5c-0.1,0.2-0.3,0.4-0.4,0.6s0.2,0.6,0.1,0.8c-0.1,0.2,0.2,0.6,0.2,0.8
				c-0.1,0.2-0.4,0.4-0.5,0.6s-0.1,0.5-0.1,0.7c-0.1,0.2-0.3,0.4-0.4,0.6s0.2,0.6,0.2,0.8c-0.1,0.2-0.4,0.4-0.5,0.6
				s-0.7,0.2-0.8,0.5c-0.1,0.2,0.1,0.5,0,0.8c-0.1,0.2,0,0.5,0,0.7c-0.1,0.2,0.1,0.5,0,0.8c-0.1,0.2-0.3,0.4-0.3,0.6
				c-0.1,0.2-0.3,0.4-0.4,0.6s0.2,0.6,0.2,0.8c-0.1,0.2-0.2,0.5-0.2,0.7c-0.1,0.2-0.4,0.4-0.5,0.6s-0.6,0.3-0.7,0.5
				s-0.4,0.4-0.5,0.6c-0.1,0.3,0.5,0.7,0.4,0.9c-0.1,0.4-0.4,0.5-0.4,0.6s0,0.4-0.1,0.7c0,0.2,0,0.5,0,0.7s-0.2,0.5-0.2,0.7
				s-0.5,0.4-0.5,0.7c0,0.2,0.1,0.5,0,0.7c0,0.2,0.4,0.5,0.4,0.8c0,0.2-0.1,0.5-0.1,0.7s-0.4,0.4-0.4,0.7c0,0.2,0.4,0.5,0.3,0.8
				c0,0.2-0.8,0.4-0.9,0.6s0.2,0.5,0.2,0.8c0,0.2,0.2,0.5,0.2,0.8c0,0.2-0.5,0.4-0.6,0.7c0,0.2,0.1,0.5,0.1,0.8
				c0,0.2,0.2,0.5,0.2,0.8c0,0.2-0.3,0.5-0.4,0.7c0,0.2-0.5,0.4-0.5,0.7c0,0.3,0.4,0.6,0.4,0.8c0,0.3,0,0.5,0,0.7
				c0,0.3-0.3,0.5-0.3,0.8c0.1,0.2,0.5,0.4,0.6,0.6c0.2,0.2,0.2,0.5,0.4,0.6c0.2,0.1,0.5,0,0.8,0c0.2,0,0.5-0.1,0.7-0.1
				s0.4,0.1,0.7,0.1c0.2,0,0.4,0.2,0.7,0.3c0.2,0,0.5,0.1,0.7,0.1s0.5-0.2,0.7-0.2s0.3,0,0.5-0.1c0.2-0.4,12.7-1.3,12.7-1.2
				c0.1,0.1,0.1,0.1,0.2,0.2l0,0c0.2,0.1,0.3,0.2,0.5,0.3c0,0,0.1,0,0.1,0.1c0.1-0.1,0.2-0.1,0.3-0.1c0.2-0.1,0.3-0.6,0.6-0.6
				c0.2-0.1,0.6,0.3,0.8,0.2c0.2-0.1,0.2-0.8,0.5-0.9c0.2-0.1,0.5,0.1,0.8,0c0.2-0.1,0.4-0.4,0.6-0.5c0.2-0.1,0.6,0.1,0.8,0
				s0.6,0.1,0.8,0s0.3-0.5,0.5-0.6s0.3-0.6,0.5-0.7s0.6,0.2,0.8,0.1s0.5-0.1,0.7-0.2s0.5-0.1,0.7-0.2s0.3-0.5,0.5-0.6
				s0.4-0.3,0.6-0.4c0.2-0.1,0.6,0.2,0.8,0.1s0.5,0.2,0.8,0.1c0.2-0.1,0.4-0.3,0.6-0.3c0.2,0,0.4-0.3,0.7-0.3c0.2,0,0.5,0.4,0.8,0.4
				c0.2,0,0.4-0.9,0.6-0.9c0.2,0,0.5,0,0.7,0s0.5,0,0.7,0s0.5,0,0.7,0s0.5,0.2,0.7,0.2s0.5,0,0.7,0s0.4,0.6,0.6,0.6
				c0.2,0,0.5-0.2,0.7-0.2s0.5,0.2,0.7,0.2s0.4,0.3,0.7,0.3c0.2,0,0.5-0.3,0.8-0.2c0.2,0,0.4,0.5,0.6,0.5c0.2,0.1,0.5,0.1,0.7,0.1
				c0.2,0.1,0.5-0.2,0.8-0.2c0.2,0.1,0.3,0.7,0.6,0.7c0.2,0.1,0.5-0.1,0.7,0s0.4,0.4,0.6,0.4c0.2,0.1,0.6-0.4,0.8-0.3
				s0.3,0.8,0.5,0.9s0.5,0.1,0.7,0.2s0.5-0.1,0.8-0.1c0.2,0.1,0.6-0.4,0.8-0.3s0.4,0.4,0.6,0.5c0.2,0.1,0.4,0.3,0.6,0.4
				c0.2,0.1,0.4,0.2,0.7,0.3c0.2,0.1,0.6-0.4,0.8-0.4c0.2,0.1,0.3,0.7,0.6,0.8c0.2,0.1,0.5,0.2,0.7,0.2c0.2,0.1,0.5,0.1,0.7,0.2
				c0.2,0,0.6-0.5,0.8-0.4c0.2,0,0.5-0.1,0.7-0.1s0.4,0.7,0.6,0.7c0.2,0,0.6-0.5,0.8-0.5s0.4,0.8,0.6,0.8c0.2,0,0.6-0.8,0.8-0.7
				c0.2,0,0.5,0.1,0.7,0.1s0.4,0.6,0.6,0.6c0.2,0,0.5,0.2,0.7,0.2s0.5-0.5,0.8-0.5c0.2,0,0.4,0.7,0.7,0.7c0.2,0,0.5-0.4,0.7-0.4
				s0.5-0.4,0.7-0.4s0.5,0.7,0.7,0.7s0.5-0.6,0.7-0.6s0.5,0.8,0.7,0.8s0.5-0.2,0.7-0.2s0.4-0.6,0.7-0.6c0.2,0,0.5,0.8,0.8,0.8
				c0.2,0,0.5-0.1,0.7-0.1s0.4-0.4,0.7-0.4c0.2,0,0.4-0.4,0.7-0.5c0.2,0,0.5,0.5,0.8,0.5c0.2,0,0.4-0.4,0.7-0.4
				c0.2,0,0.6,0.5,0.8,0.5s0.3-1,0.6-1.1c0.2,0,0.5,0,0.7-0.1c0.2,0,0.6,0.4,0.8,0.4s0.4-0.5,0.6-0.6c0.2,0,0.5,0.3,0.8,0.3
				c0.2,0,0.5,0.2,0.8,0.2c0.2,0,0.5,0,0.7-0.1c0.2,0,0.3-0.9,0.6-0.9c0.2,0,0.5,0.1,0.7,0.1s0.6,0.4,0.8,0.4s0.4-0.5,0.6-0.5
				c0.2,0,0.5,0.2,0.8,0.2c0.2,0,0.4-0.4,0.7-0.4c0.2,0,0.5,0.2,0.8,0.2c0.2,0,0.3-0.8,0.6-0.9c0.2,0,0.5,0.3,0.8,0.2
				c0.2,0,0.5-0.1,0.7-0.2c0.2,0,0.4-0.4,0.7-0.4c0.2,0,0.6,0.6,0.8,0.6s0.4-0.6,0.6-0.7c0.2,0,0.5-0.2,0.7-0.2s0.5,0.4,0.8,0.4
				c0.2,0,0.4-0.4,0.7-0.4c0.2,0,0.4-0.4,0.7-0.4c0.2,0,0.6,0.8,0.8,0.7c0.2,0,0.4-0.5,0.7-0.5c0.2,0,0.5,0.5,0.8,0.5
				c0.2,0,0.4-0.9,0.6-1c0.2,0,0.5,0.7,0.8,0.7c0.2,0,0.5-0.2,0.7-0.2s0.4-0.5,0.7-0.5c0.2,0,0.5,0.7,0.8,0.7c0.2,0,0.4-0.6,0.7-0.6
				c0.2,0,0.5,0,0.7-0.1c0.2,0,0.5,0.6,0.7,0.5c0.2,0,0.5-0.9,0.7-0.9s0.5,0.2,0.7,0.2s0.5,0.5,0.7,0.5s0.5,0,0.7,0s0.5,0,0.7,0
				s0.5-0.3,0.7-0.3s0.5-0.1,0.7,0c0.2,0,0.5,0.2,0.7,0.2s0.4,0.5,0.7,0.5c0.2,0,0.5,0.2,0.7,0.2s0.5,0,0.7,0.1
				c0.2,0,0.6-0.4,0.8-0.3c0.2,0,0.4,0.3,0.7,0.4c0.2,0.1,0.6-0.4,0.8-0.4c0.2,0.1,0.3,0.8,0.5,0.8c0.2,0.1,0.5,0.1,0.7,0.2
				s0.5-0.1,0.7,0s0.5,0,0.7,0.1s0.6-0.2,0.8-0.1s0.3,0.6,0.5,0.7s0.4,0.3,0.6,0.4c0.2,0.1,0.4,0.2,0.7,0.3c0.2,0.1,0.4,0.4,0.6,0.4
				c0.2,0.1,0.6-0.4,0.9-0.3c0.2,0.1,0.4,0.4,0.6,0.5c0.2,0.1,0.5,0.2,0.7,0.2c0.2,0.1,0.6-0.5,0.9-0.4c0.2,0.1,0.3,0.7,0.6,0.8
				s0.5-0.1,0.8-0.1c0.2,0.1,0.4,0.6,0.6,0.6c0.2,0,0.6-0.5,0.8-0.4c0.2,0,0.5-0.1,0.7-0.1s0.4,0.3,0.7,0.4c0.2,0,0.4,0.4,0.7,0.4
				c0.2,0,0.5,0.1,0.7,0.2c0.2,0,0.5,0,0.7,0.1c0.2,0,0.6-0.6,0.8-0.6s0.5,0.1,0.7,0.1s0.4,0.4,0.7,0.4c0.2,0,0.5-0.3,0.8-0.3
				c0.2,0,0.4,0.7,0.7,0.7c0.2,0,0.5,0,0.7,0s0.5,0,0.7,0s0.5-0.1,0.7-0.1s0.5,0.5,0.7,0.5s0.5-0.3,0.7-0.3s0.5,0.4,0.7,0.4
				s0.5-0.8,0.7-0.8s0.5,0.7,0.7,0.7s0.5-0.4,0.7-0.4s0.5,0.6,0.7,0.6s0.5-0.6,0.7-0.6s0.5-0.2,0.7-0.2s0.5,0.6,0.7,0.6
				s0.5-0.3,0.7-0.3c0.3,0,0.5-0.5,0.7-0.5s0.6,0.7,0.8,0.6s0.5-0.3,0.7-0.5s0-0.6,0.1-0.8c0.1-0.2-0.1-0.4,0-0.7
				C252.1,368.6,252.2,368.4,252.1,368.2z"/>
		</defs>
		<clipPath id="SVGID_3_">
			<use xlink:href="#SVGID_2_"  style="overflow:visible;"/>
		</clipPath>
		<path class="st12" d="M129.9,371c0.2,0.1,3.2-1.1,3.4-1c0.1,0.1,1.9-0.7,2-0.6l0,0c1.9-0.5,3.8-1.3,5.8-2.3
			c12-6.1,19.2,4.2,38.4,4c11.4-0.1,31.6-8.8,46.4-2.9c16,6.4,31.9-0.9,39.1,4.1v-9c-7.2-5-23.1,4.3-39.1-2.1
			c-14.9-5.9-35.1,4.8-46.4,4.9c-19.2,0.2-26.3-12.1-38.4-6c-2.6,1.3-18.3,2.7-18.3,2.7c-7.8-1-14.3-3.5-18.5-0.6v9
			c3.9-2.7,9.7-1.3,16.7-0.8L129.9,371z"/>
	</g>
</g>
<g>
	<path class="st13" d="M126.1,324c0,0,52,7.7,115.9-1l0.2,3.5c0,0-53.1,10.8-116.7,1.4C125.4,325.3,126.1,324,126.1,324"/>
</g>
</svg>
