<?xml version="1.0" encoding="utf-8"?>
<!-- Generator: Adobe Illustrator 24.3.0, SVG Export Plug-In . SVG Version: 6.00 Build 0)  -->
<svg version="1.1" id="bg" xmlns="http://www.w3.org/2000/svg" xmlns:xlink="http://www.w3.org/1999/xlink" x="0px" y="0px"
	 viewBox="0 0 1024 1024" style="enable-background:new 0 0 1024 1024;" xml:space="preserve">
<style type="text/css">
	.st0{clip-path:url(#SVGID_2_);fill:url(#天空_1_);}
	.st1{clip-path:url(#SVGID_2_);}
	.st2{fill:#49404D;}
	.st3{fill:#73803C;}
	.st4{fill:#5A7D4E;}
	.st5{fill:url(#XMLID_6_);}
	.st6{fill:url(#XMLID_7_);}
	.st7{fill:url(#XMLID_8_);}
	.st8{fill:url(#後_2_);}
	.st9{fill:url(#右_前山_1_);}
	.st10{fill:url(#後_3_);}
	.st11{fill:url(#左_前山_1_);}
	.st12{clip-path:url(#SVGID_2_);fill:url(#地板_1_);}
	.st13{fill:url(#SVGID_3_);}
	.st14{fill:url(#SVGID_4_);}
	.st15{fill:url(#SVGID_5_);}
	.st16{fill:#9D9C2D;}
	.st17{fill:url(#SVGID_6_);}
	.st18{fill:url(#SVGID_7_);}
	.st19{fill:#7A8A2D;}
	.st20{fill:url(#SVGID_8_);}
	.st21{fill:url(#SVGID_9_);}
	.st22{fill:url(#SVGID_10_);}
	.st23{fill:url(#SVGID_11_);}
	.st24{fill:url(#SVGID_12_);}
</style>
<g>
	<defs>
		<rect id="SVGID_1_" width="1024" height="1024"/>
	</defs>
	<clipPath id="SVGID_2_">
		<use xlink:href="#SVGID_1_"  style="overflow:visible;"/>
	</clipPath>
	<linearGradient id="天空_1_" gradientUnits="userSpaceOnUse" x1="512" y1="-2.1991" x2="512" y2="432.0445">
		<stop  offset="0" style="stop-color:#3BDBBB"/>
		<stop  offset="8.952320e-03" style="stop-color:#3FDBBB"/>
		<stop  offset="0.1273" style="stop-color:#6BDBBB"/>
		<stop  offset="0.2511" style="stop-color:#90DBBB"/>
		<stop  offset="0.379" style="stop-color:#AFDBBB"/>
		<stop  offset="0.5124" style="stop-color:#C7DBBB"/>
		<stop  offset="0.6536" style="stop-color:#D8DBBB"/>
		<stop  offset="0.8079" style="stop-color:#E2DBBB"/>
		<stop  offset="1" style="stop-color:#E5DBBB"/>
	</linearGradient>
	<rect id="天空" y="-2.2" class="st0" width="1024" height="434.2"/>
	<g id="左_樹" class="st1">
		<g id="樹">
			<g>
				<path class="st2" d="M85.8,349.7c-0.9-1.2-1.5-2.1-2.1-2.9c-1.8-2.6-2.4-3.5-4.9-6l2.2-2.1c2.6,2.7,3.4,3.8,5.2,6.4
					c0.6,0.8,1.2,1.7,2.1,2.9L85.8,349.7z"/>
			</g>
			<g>
				<path class="st2" d="M87.1,352.4l-0.8-1.8l0.6-0.2c1.4-0.6,5.2-2.1,5.8-3c0.5-0.8,1.5-1.8,2.7-3.1c2.3-2.3,5.4-5.5,5.9-7.9
					l2,0.4c-0.6,2.9-3.8,6.2-6.4,8.9c-1.1,1.1-2.1,2.2-2.5,2.8c-0.9,1.3-3.8,2.6-6.7,3.7L87.1,352.4z"/>
			</g>
			<path class="st2" d="M99,346.1c0,0-3.3,2.1-5.1,2.1l-0.4-1.7c1.7,0,5.1-1.3,5.1-1.3L99,346.1z"/>
			<path class="st2" d="M89.4,326.9h-9.1c2,4.7,9.7,9.4,9.7,14.1c-0.1,2.7-4.8,7.2-6,9.8c-0.6,1.3,0.8,2.6-0.2,3.9
				c-0.5,0.6-1.8,12.8-1.9,14.2c-0.1,0.7-0.1,1.4,0,2.1c0,0.2,0.1,0.5,0.1,0.7h6c-0.1-0.3-0.1-0.6-0.2-0.8c-0.1-0.7-0.2-1.3-0.2-2
				c0-1.3-0.7-13-0.2-13.7c1-1.4-0.2-2.7,0.3-4.1c1-2.8,6.2-7.4,6-10.1C93.4,336.2,91.8,331.5,89.4,326.9z"/>
			<path id="XMLID_1_" class="st3" d="M116.7,332.5c0.1-6.4-9.7-17.2-29.3-10.9c-12.9,4.1-25.1,3.1-30.3,10.9
				c-6.4,9.8,15.3,15.1,31.4,11.3C104.7,340,116.6,342,116.7,332.5z"/>
		</g>
		<g id="樹_1_">
			<path class="st2" d="M141,297.3c-1.8-1.3-0.4-2.4-1.5-4.2l-2.6,1.5c1.4,2.3,3.4,3.7,5.3,5.1c2.4,1.7,4.6,3.3,6,6.5l2.8-1.1
				C149.4,301.1,143.5,299.1,141,297.3z"/>
			<path class="st2" d="M168.6,292.9c-0.4,1.9-6.3,8.3-7.5,8.9c-1,0.4-2.2,1-3.1,2.3c-0.5,0.6-3.4,2-8.6,4c-0.6,0.2-1,0.4-1.4,0.5
				l1.1,2.8c0.3-0.1,0.8-0.3,1.3-0.5c6.7-2.6,9.2-3.9,10-5.1c0.4-0.6,0.9-0.8,1.8-1.3c1.5-0.7,6.5-7.6,7.2-10.9L168.6,292.9z"/>
			<path class="st2" d="M131.9,309.1c-1.3-1-2.2-1.8-2.7-2.6c-2.2-3.3-4.1-3.5-2.1,0.4c0.6,1.1,1.6,2.2,3.2,3.5c2.1,1.5,0.2,1.1,2,2
				c4.1,2.1,8.6,5.1,14.1,5l0.4-1.9c-4.3,0.1-8.9-2.6-13.4-4.8C131.8,309.9,133.8,310.5,131.9,309.1z"/>
			<path class="st2" d="M150.7,282.4h-10.2c2.2,5.2,10.9,10.6,10.9,15.8c-0.1,3-3.4,6.1-4.7,9c-0.7,1.5,0.9,2.9-0.2,4.3
				c-0.6,0.7-5,16.3-5.1,17.9c-0.1,0.8,0.9,1.6,1,2.4c0,0.3,0.1,0.5,0.1,0.8H153c-0.1-0.3-0.1-0.6-0.2-0.9c-0.1-0.7-0.2-1.5-0.2-2.2
				c0-1.5-3-12.2-0.2-17.4c0.9-1.7-2.2-3.1-1.6-4.6c1.1-3.1,7-6.2,6.8-9.4C157.1,292.8,153.3,287.6,150.7,282.4z"/>
			<path id="XMLID_4_" class="st4" d="M137.9,307.7c0.1-3.1-4.6-8.1-17.2-10.7c-7.7-1.6-17.3,2.5-20.5,10.7
				c-2.1,5.5,9.7,7.4,19.8,5.5C130.3,311.4,137.8,312.3,137.9,307.7z"/>
			<linearGradient id="XMLID_6_" gradientUnits="userSpaceOnUse" x1="144.1324" y1="315.8304" x2="169.141" y2="237.6464">
				<stop  offset="0" style="stop-color:#809C49"/>
				<stop  offset="0.3417" style="stop-color:#839D49"/>
				<stop  offset="0.5472" style="stop-color:#8BA24B"/>
				<stop  offset="0.7166" style="stop-color:#99A94E"/>
				<stop  offset="0.8655" style="stop-color:#ADB352"/>
				<stop  offset="1" style="stop-color:#C7C057"/>
			</linearGradient>
			<path id="XMLID_2_" class="st5" d="M201.3,288.6c0.1-7.2-17.4-25.6-47.5-22.6c-20.4,2-44.8,16.3-49.3,22.6
				c-7.6,10.7,27.2,16.9,45.1,12.7C167.8,297.1,201.2,299.3,201.3,288.6z"/>
		</g>
	</g>
	<g id="右_樹" class="st1">
		<g id="樹_3_">
			<g>
				<path class="st2" d="M692.1,379.8c-2-4.5-3-6-4.5-8.4c-0.6-0.9-1.2-1.9-2-3.1l-0.4-1.6c0.8,1.2,0.4,2.2,1,3
					c1.6,2.4,6.7,4.1,8.8,8.8L692.1,379.8z"/>
			</g>
			<g>
				<path class="st2" d="M693.6,382.4v-2c1.8,0,6.9-1.7,8.1-2.1c2-0.8,5.9-10.1,6.9-15.2l1,0.4c-0.7,3.7-3.6,15.3-7.1,16.7
					C700.9,380.7,695.5,382.4,693.6,382.4z"/>
			</g>
			<path class="st2" d="M677.8,376.8c-5.5-6.6,1.5-5.9,4.8-8.9l-1.1-0.2c-4.4,0.8-10.4,3-4.6,10c1.7,2-0.1,2.1,1.4,3.4
				c3.5,3,7.2,7,12.5,8.2l0.8-1.7c-4.2-0.9-8-4.6-11.9-7.8C678.5,378.6,679.3,378.6,677.8,376.8z"/>
			<path class="st2" d="M693.9,355.8l-10.2,0.3c2.3,5.2,11.2,10.3,11.3,15.5c0,3-4.2,6.2-5.5,9.2c-0.6,1.5,2,2.9,0.9,4.3
				c-0.6,0.7-8.5,16.4-8.6,18c-0.1,0.8,0,1.6,0,2.4c0,0.3,0.1,0.5,0.1,0.8l11.7-0.2c-0.1-0.3-0.2-0.6-0.2-0.9
				c-0.1-0.7-0.2-1.5-0.2-2.2c0-1.5,0.8-16.6,1.4-17.4c1.1-1.6-0.3-3.1,0.2-4.6c1.1-3.1,4.8-6.4,4.5-9.5
				C698.7,366.1,696.7,360.9,693.9,355.8z"/>
			
				<linearGradient id="XMLID_7_" gradientUnits="userSpaceOnUse" x1="691.2654" y1="376.9413" x2="691.2654" y2="344.8424" gradientTransform="matrix(0.9996 -2.673726e-02 2.673726e-02 0.9996 -9.6202 18.0515)">
				<stop  offset="0" style="stop-color:#31625B"/>
				<stop  offset="0.2244" style="stop-color:#4C715F"/>
				<stop  offset="0.5514" style="stop-color:#6E8464"/>
				<stop  offset="0.8217" style="stop-color:#839067"/>
				<stop  offset="1" style="stop-color:#8B9468"/>
			</linearGradient>
			<path id="XMLID_11_" class="st6" d="M724.7,361.2c-0.1-7.2-5.2-12.3-27.9-15.9c-15-2.4-33.8-1.3-38.9,17.7
				c-3.4,12.7,17.6,16.4,35.5,11.8C711.5,370,724.9,371.9,724.7,361.2z"/>
		</g>
		<g id="樹_2_">
			<g>
				<path class="st2" d="M788.9,310.4c-3.3-8.2-3.7-8.9-6.4-13.4c-0.4-0.7-0.9-1.5-1.5-2.5l2.6-1.5c0.6,0.9,1,1.8,1.4,2.5
					c2.7,4.6,3.2,5.4,6.6,13.8L788.9,310.4z"/>
			</g>
			<g>
				<path class="st2" d="M792.1,319.4l-1.1-2.8c0.7-0.3,3-1.1,6.6-2.3c8.5-3,28.2-9.9,30.2-11.6c1.3-1.8,4.6-3,8.7-4.4
					c4.9-1.7,10.9-3.8,11.6-6.8l2.9,0.6c-1,4.7-7.7,7-13.5,9c-3.1,1.1-6.6,2.3-7.3,3.3c-0.9,1.4-5.9,3.6-31.7,12.7
					C795.3,318.3,792.7,319.2,792.1,319.4z M827.8,302.7L827.8,302.7L827.8,302.7z"/>
			</g>
			<g>
				<path class="st2" d="M775.8,324c0,0,3.7,8.3,7.2,10.6l3.5-4.3c-2.8-1.9-7.2-7.8-7.2-7.8L775.8,324z"/>
			</g>
			<g>
				<path class="st2" d="M795.3,275.7h-21.4c4.6,7.8,23,15.6,22.9,23.5c-0.1,4.5-10.1,9-13,13.4c-1.4,2.2,5,4.3,2.5,6.4
					c-1.2,1-8.4,24.2-8.7,26.6c-0.2,1.2-0.2,2.4-0.1,3.6c0,0.4,0.1,0.8,0.2,1.2h23.1c-0.2-0.5-0.3-0.9-0.4-1.4
					c-0.3-1.1-0.4-2.2-0.4-3.3c0-2.2-6.4-24.6-5.2-25.8c2.4-2.3-0.5-4.6,0.7-6.9c2.4-4.6,12.5-9.3,12.1-13.9
					C806.7,291.2,800.9,283.4,795.3,275.7z"/>
			</g>
			<path id="XMLID_9_" class="st4" d="M895.9,282.5c-0.3-6.1-27.2-14.9-43.1-14c-12,0.6-22.5,4.7-24.4,15.5
				c-3.1,18.1,33,16.5,43.4,15C882.2,297.5,896.6,295.4,895.9,282.5z"/>
			
				<linearGradient id="XMLID_8_" gradientUnits="userSpaceOnUse" x1="816.0693" y1="303.1764" x2="779.5411" y2="206.3912" gradientTransform="matrix(0.9872 -0.1593 0.1738 1.077 -47.5958 96.9446)">
				<stop  offset="0" style="stop-color:#809C49"/>
				<stop  offset="0.4576" style="stop-color:#829E4A"/>
				<stop  offset="0.646" style="stop-color:#89A54D"/>
				<stop  offset="0.7849" style="stop-color:#95B053"/>
				<stop  offset="0.8987" style="stop-color:#A7C15B"/>
				<stop  offset="0.9974" style="stop-color:#BDD666"/>
				<stop  offset="1" style="stop-color:#BED766"/>
			</linearGradient>
			<path id="XMLID_3_" class="st7" d="M888.9,249.7c-2.8-18.7-76.7-12.8-113.8-24.9c-39.6-12.9-79.1,12.3-78.6,41.7
				c0.5,30.8,69.4,38.4,107.6,31.3C837.1,291.7,893.2,277.7,888.9,249.7z"/>
		</g>
	</g>
	<g id="山" class="st1">
		
			<linearGradient id="後_2_" gradientUnits="userSpaceOnUse" x1="960.1401" y1="199.0982" x2="1037.5288" y2="390.9882" gradientTransform="matrix(1 0 0 1 -68.2324 0)">
			<stop  offset="0.3" style="stop-color:#FFD746"/>
			<stop  offset="0.3251" style="stop-color:#F3D04A"/>
			<stop  offset="0.4002" style="stop-color:#D3BD53"/>
			<stop  offset="0.4821" style="stop-color:#B9AE5B"/>
			<stop  offset="0.5717" style="stop-color:#A4A361"/>
			<stop  offset="0.6729" style="stop-color:#969A65"/>
			<stop  offset="0.7958" style="stop-color:#8E9567"/>
			<stop  offset="1" style="stop-color:#8B9468"/>
		</linearGradient>
		<path id="後" class="st8" d="M1312.1,424.6c-57.9-92.9-150.9-117.4-214.2-161.8c-121.5-85.4-163.2,73.9-251.6,73.7
			c-100.2-0.3-132.2,26.2-192.8,88.2H1312.1z"/>
		
			<linearGradient id="右_前山_1_" gradientUnits="userSpaceOnUse" x1="982.4344" y1="304.1748" x2="987.3408" y2="434.5669" gradientTransform="matrix(1 0 0 1 -68.2324 0)">
			<stop  offset="0" style="stop-color:#49C484"/>
			<stop  offset="0.1451" style="stop-color:#4DC18D"/>
			<stop  offset="0.3818" style="stop-color:#58B9A5"/>
			<stop  offset="0.6804" style="stop-color:#69ACCD"/>
			<stop  offset="1" style="stop-color:#7F9CFF"/>
		</linearGradient>
		<path id="右_前山" class="st9" d="M1243,435.6c-57-50.8-85.5-130.4-162.4-130.4c-84.4,0-73.9,47.8-177.9,62.9
			c-90.3,13.1-98.3,57.2-157.2,41.6c-69.6-18.4-96.1,6.8-150.2,25.9H1243z"/>
		
			<linearGradient id="後_3_" gradientUnits="userSpaceOnUse" x1="151.3583" y1="278.8605" x2="211.6694" y2="428.4055" gradientTransform="matrix(1 0 0 1 -68.2324 0)">
			<stop  offset="0.3" style="stop-color:#FFD746"/>
			<stop  offset="0.3251" style="stop-color:#F3D04A"/>
			<stop  offset="0.4002" style="stop-color:#D3BD53"/>
			<stop  offset="0.4821" style="stop-color:#B9AE5B"/>
			<stop  offset="0.5717" style="stop-color:#A4A361"/>
			<stop  offset="0.6729" style="stop-color:#969A65"/>
			<stop  offset="0.7958" style="stop-color:#8E9567"/>
			<stop  offset="1" style="stop-color:#8B9468"/>
		</linearGradient>
		<path id="後_1_" class="st10" d="M410.6,454.6c-45.2-72.4-117.6-91.5-166.9-126.1c-94.7-66.5-127.2,57.6-196.1,57.4
			c-78.1-0.2-103.1,20.4-150.3,68.7H410.6z"/>
		
			<linearGradient id="左_前山_1_" gradientUnits="userSpaceOnUse" x1="64.258" y1="361.6333" x2="176.4818" y2="459.4508" gradientTransform="matrix(1 0 0 1 -68.2324 0)">
			<stop  offset="0" style="stop-color:#49C484"/>
			<stop  offset="0.1451" style="stop-color:#4DC18D"/>
			<stop  offset="0.3818" style="stop-color:#58B9A5"/>
			<stop  offset="0.6804" style="stop-color:#69ACCD"/>
			<stop  offset="1" style="stop-color:#7F9CFF"/>
		</linearGradient>
		<path id="左_前山" class="st11" d="M339.7,435.6c-22.1-8.8-59.5-32.9-94.1-27.2c-71.3,11.8-91.6-45.6-138.3-53.2
			c-65.8-10.7-96.2,40.9-197.9,22.9c-66.9-11.9-82.5,31.9-87.4,57.5H339.7z"/>
	</g>
	<linearGradient id="地板_1_" gradientUnits="userSpaceOnUse" x1="512" y1="1024" x2="512" y2="432.0445">
		<stop  offset="0" style="stop-color:#424242"/>
		<stop  offset="0.5519" style="stop-color:#3F3F3F"/>
		<stop  offset="0.8834" style="stop-color:#373737"/>
		<stop  offset="1" style="stop-color:#323232"/>
	</linearGradient>
	<rect id="地板" y="432" class="st12" width="1024" height="592"/>
	<g id="草_8_" class="st1">
		<g id="草皮_1_">
			<linearGradient id="SVGID_3_" gradientUnits="userSpaceOnUse" x1="68.1953" y1="877.4583" x2="68.1953" y2="430.0445">
				<stop  offset="0" style="stop-color:#7A8A2D"/>
				<stop  offset="0.4291" style="stop-color:#7D8B2D"/>
				<stop  offset="0.6871" style="stop-color:#85902D"/>
				<stop  offset="0.8991" style="stop-color:#93972D"/>
				<stop  offset="1" style="stop-color:#9D9C2D"/>
			</linearGradient>
			<path class="st13" d="M-50,877.5L0,430l190,2C143.5,422.6-84.9,835.8-50,877.5z"/>
			<linearGradient id="SVGID_4_" gradientUnits="userSpaceOnUse" x1="954.6302" y1="877.4583" x2="954.6302" y2="430.0445">
				<stop  offset="0" style="stop-color:#7A8A2D"/>
				<stop  offset="0.4291" style="stop-color:#7D8B2D"/>
				<stop  offset="0.6871" style="stop-color:#85902D"/>
				<stop  offset="0.8991" style="stop-color:#93972D"/>
				<stop  offset="1" style="stop-color:#9D9C2D"/>
			</linearGradient>
			<path class="st14" d="M1074,877.5L1024,430l-190,2C874.8,430,1093.8,848.2,1074,877.5z"/>
		</g>
		<g id="草">
			<g>
				
					<linearGradient id="SVGID_5_" gradientUnits="userSpaceOnUse" x1="81.5626" y1="392.1547" x2="81.5626" y2="443.9516" gradientTransform="matrix(0.9825 -8.904727e-03 0 1 1.6209 -3.4411)">
					<stop  offset="0" style="stop-color:#247746"/>
					<stop  offset="0.4328" style="stop-color:#267846"/>
					<stop  offset="0.5888" style="stop-color:#2D7A44"/>
					<stop  offset="0.6999" style="stop-color:#387D42"/>
					<stop  offset="0.7898" style="stop-color:#49823E"/>
					<stop  offset="0.8667" style="stop-color:#5F893A"/>
					<stop  offset="0.9337" style="stop-color:#7A9134"/>
					<stop  offset="0.9939" style="stop-color:#999B2E"/>
					<stop  offset="1" style="stop-color:#9D9C2D"/>
				</linearGradient>
				<path class="st15" d="M24.7,439.4l118.1-0.1c5.8-4.1,2.9-38-39.4-49.4c-13.4-3.6-47.5-3-69.6,12c-14.9,10.1-20.7,24.5-9.3,37.4
					C24.6,439.2,24.6,439.3,24.7,439.4z"/>
			</g>
			<g>
				<g>
					<polygon class="st16" points="78.9,438.7 80.9,438.7 80.9,394.1 78.9,394.1 					"/>
				</g>
				<g>
					<path class="st16" d="M113.2,400.4c0.3,0.1,0.5,0.3,0.8,0.4l-33.8,19.6l-0.7-0.5L113.2,400.4z"/>
				</g>
				<g>
					<path class="st16" d="M124.4,410c0.2,0.2,0.4,0.3,0.7,0.5l-44.9,25.1l-0.6-0.5L124.4,410z"/>
				</g>
				<g>
					<path class="st16" d="M130.6,422.8c0.2,0.2,0.3,0.4,0.4,0.6l-27.3,15.4l-0.7-0.5L130.6,422.8z"/>
				</g>
				<g>
					<polygon class="st16" points="58.4,439.1 59.1,438.6 27.2,420.2 26.5,420.7 					"/>
				</g>
				<g>
					<polygon class="st16" points="80.2,406.2 96.1,396.3 95.4,395.9 79.5,405.7 					"/>
				</g>
				<g>
					<polygon class="st16" points="79.5,420.4 80.2,419.9 45.6,400.7 45,401.2 					"/>
				</g>
				<g>
					<polygon class="st16" points="79.5,435.5 80.2,435 34.3,409.4 33.6,409.9 					"/>
				</g>
				<g>
					<polygon class="st16" points="79.5,406.2 80.2,405.7 62.9,395.4 62.2,395.9 					"/>
				</g>
			</g>
		</g>
		<g id="草_1_">
			<g>
				
					<linearGradient id="SVGID_6_" gradientUnits="userSpaceOnUse" x1="-60.187" y1="385.6511" x2="-60.187" y2="442.1168" gradientTransform="matrix(-0.9953 1.117798e-02 -3.383480e-02 1.0159 907.9948 0.7818)">
					<stop  offset="0" style="stop-color:#247746"/>
					<stop  offset="0.3896" style="stop-color:#267846"/>
					<stop  offset="0.5299" style="stop-color:#2D7A44"/>
					<stop  offset="0.6299" style="stop-color:#387D42"/>
					<stop  offset="0.7108" style="stop-color:#49823E"/>
					<stop  offset="0.7801" style="stop-color:#5F893A"/>
					<stop  offset="0.8403" style="stop-color:#7A9134"/>
					<stop  offset="0.8945" style="stop-color:#999B2E"/>
					<stop  offset="0.9" style="stop-color:#9D9C2D"/>
				</linearGradient>
				<path class="st17" d="M1026.4,440.7l-147.7-2.1c-7.7-10.9,4.4-23.7,21.4-28.2c23-6,20.8-25.2,50.3-36.2
					c13-4.8,39.9-9.1,63.3,9.4c15.4,12.1,22.7,41.4,12.9,56.8C1026.5,440.5,1026.4,440.6,1026.4,440.7z"/>
			</g>
			<g>
				<g>
					<polygon class="st16" points="971.9,438.3 973.2,438.3 973.9,379.7 972.6,379.7 					"/>
				</g>
				<g>
					<polygon class="st16" points="973.1,414.4 1005,391.6 1004.6,391.1 972.7,414 					"/>
				</g>
				<g>
					<polygon class="st16" points="972.9,434 1015.5,403.7 1015.1,403.3 972.4,433.6 					"/>
				</g>
				<g>
					<polygon class="st16" points="996.1,438.8 1021.9,420.4 1021.5,420 995.6,438.4 					"/>
				</g>
				<g>
					<polygon class="st16" points="924.8,437.4 932,432.2 931.6,431.8 924.4,436.9 					"/>
				</g>
				<g>
					<polygon class="st16" points="893,436.9 893.4,436.5 886.3,431.2 885.8,431.6 					"/>
				</g>
				<g>
					<polygon class="st16" points="951.5,438.2 951.9,437.8 934.4,424.6 934,425.1 					"/>
				</g>
				<g>
					<polygon class="st16" points="973.3,396.1 991.3,382 990.9,381.6 972.9,395.7 					"/>
				</g>
				<g>
					<polygon class="st16" points="972.7,414.4 973.1,414 941.7,390.3 941.3,390.7 					"/>
				</g>
				<g>
					<polygon class="st16" points="972.4,434 972.9,433.6 931,402.1 930.5,402.6 					"/>
				</g>
				<g>
					<polygon class="st16" points="908.8,426.6 909.2,426.2 897.1,417.1 896.7,417.5 					"/>
				</g>
				<g>
					<polygon class="st16" points="908.7,437.6 909.1,437.2 891.6,424.1 891.2,424.5 					"/>
				</g>
				<g>
					<polygon class="st16" points="909.1,426.6 921.4,417.9 921,417.5 908.7,426.2 					"/>
				</g>
				<g>
					<polygon class="st16" points="909,437.6 926.7,425 926.3,424.5 908.5,437.2 					"/>
				</g>
				<g>
					<polygon class="st16" points="972.9,396.1 973.3,395.7 955.6,381.1 955.2,381.5 					"/>
				</g>
				<g>
					<polygon class="st16" points="908.2,438.5 909.5,438.6 909.8,413.3 908.5,413.3 					"/>
				</g>
			</g>
		</g>
		<g id="草_2_">
			<g>
				
					<linearGradient id="SVGID_7_" gradientUnits="userSpaceOnUse" x1="1003.8801" y1="445.4193" x2="1003.8801" y2="522.1629" gradientTransform="matrix(-1.0846 -0.2859 0 1 2058.4009 303.2086)">
					<stop  offset="0" style="stop-color:#3C7B61"/>
					<stop  offset="0.4525" style="stop-color:#3E7C60"/>
					<stop  offset="0.6155" style="stop-color:#457E5C"/>
					<stop  offset="0.7317" style="stop-color:#508256"/>
					<stop  offset="0.8256" style="stop-color:#61884D"/>
					<stop  offset="0.9061" style="stop-color:#778F41"/>
					<stop  offset="0.976" style="stop-color:#929833"/>
					<stop  offset="1" style="stop-color:#9D9C2D"/>
				</linearGradient>
				<path class="st18" d="M914.4,523.9c-13.1-39,33.6-67.9,65.6-59.5c31,8.2,54.4,52.3,44.9,88.6L914.4,523.9z"/>
			</g>
			<g>
				<polygon class="st19" points="969.6,538.4 969.7,467.4 970.3,467.6 970.2,538.6 				"/>
			</g>
			<g>
				<polygon class="st19" points="971.3,538.9 998.6,484 999.2,484.4 972,539 				"/>
			</g>
			<g>
				<polygon class="st19" points="981,541.4 1022.3,538.7 1022.5,539.3 983,541.9 				"/>
			</g>
			<g>
				<polygon class="st19" points="968,538 945.3,476 945.9,475.9 968.7,538.2 				"/>
			</g>
			<g>
				<polygon class="st19" points="965.7,537.4 925.8,485.7 926.3,485.4 966.6,537.6 				"/>
			</g>
			<g>
				<polygon class="st19" points="959.6,535.8 915.5,505.7 915.7,505.2 961.3,536.2 				"/>
			</g>
		</g>
		<g id="草_3_">
			<g>
				
					<linearGradient id="SVGID_8_" gradientUnits="userSpaceOnUse" x1="1840.1139" y1="815.5017" x2="1841.8787" y2="880.7751" gradientTransform="matrix(1.0934 -0.2803 -2.956030e-02 0.9996 -1923.1823 155.1191)">
					<stop  offset="0" style="stop-color:#3C7B61"/>
					<stop  offset="0.4525" style="stop-color:#3E7C60"/>
					<stop  offset="0.6155" style="stop-color:#457E5C"/>
					<stop  offset="0.7317" style="stop-color:#508256"/>
					<stop  offset="0.8256" style="stop-color:#61884D"/>
					<stop  offset="0.9061" style="stop-color:#778F41"/>
					<stop  offset="0.976" style="stop-color:#929833"/>
					<stop  offset="1" style="stop-color:#9D9C2D"/>
				</linearGradient>
				<path class="st20" d="M110.6,506.4c11.9-32.4-26.3-56.7-53.2-49.8c-26,6.7-46.7,43.3-39.6,73.6L110.6,506.4z"/>
			</g>
			<g>
				<polygon class="st19" points="64.3,518.3 66,459.1 65.4,459.3 63.7,518.4 				"/>
			</g>
			<g>
				<polygon class="st19" points="62.8,518.6 41.5,472.8 41,473.1 62.3,518.8 				"/>
			</g>
			<g>
				<polygon class="st19" points="60.7,519.2 23.4,495.3 23,495.8 59.9,519.4 				"/>
			</g>
			<g>
				<polygon class="st19" points="54.7,520.7 20.3,518.3 20.1,518.8 53,521.1 				"/>
			</g>
			<g>
				<polygon class="st19" points="65.6,517.9 86.1,466.4 85.6,466.3 65,518.1 				"/>
			</g>
			<g>
				<polygon class="st19" points="67.6,517.4 102.1,474.6 101.7,474.3 66.8,517.6 				"/>
			</g>
			<g>
				<polygon class="st19" points="72.6,516.1 110.2,491.3 110,490.9 71.3,516.5 				"/>
			</g>
		</g>
		<g id="草_4_">
			<g>
				
					<linearGradient id="SVGID_9_" gradientUnits="userSpaceOnUse" x1="14.7282" y1="503.8323" x2="14.7282" y2="564.6414" gradientTransform="matrix(0.948 0.434 -0.1169 0.9745 1089.7188 50.0757)">
					<stop  offset="0" style="stop-color:#247746"/>
					<stop  offset="0.3896" style="stop-color:#267846"/>
					<stop  offset="0.5299" style="stop-color:#2D7A44"/>
					<stop  offset="0.6299" style="stop-color:#387D42"/>
					<stop  offset="0.7108" style="stop-color:#49823E"/>
					<stop  offset="0.7801" style="stop-color:#5F893A"/>
					<stop  offset="0.8403" style="stop-color:#7A9134"/>
					<stop  offset="0.8945" style="stop-color:#999B2E"/>
					<stop  offset="0.9" style="stop-color:#9D9C2D"/>
				</linearGradient>
				<path class="st21" d="M975,569.6l129.1,59.1c8.2-8.3-0.5-26.7-14.8-38.4c-19.2-15.8-14.7-35-39-58.8
					c-10.6-10.4-33.5-26.1-56.4-16.4c-15.1,6.4-25.5,34-19,54.2C974.9,569.3,975,569.5,975,569.6z"/>
			</g>
			<g>
				<g>
					<polygon class="st16" points="1022.8,589.6 1021.7,589.1 1029,527.4 1030.2,527.9 					"/>
				</g>
				<g>
					<polygon class="st16" points="1025,564.1 1000.3,526.9 1000.7,526.7 1025.5,563.9 					"/>
				</g>
				<g>
					<polygon class="st16" points="1022.6,584.8 989.5,535.4 989.9,535.1 1023,584.5 					"/>
				</g>
				<g>
					<polygon class="st16" points="1001.7,580.2 981.6,550.1 982,549.9 1002.1,579.9 					"/>
				</g>
				<g>
					<polygon class="st16" points="1064,608.2 1058.4,599.8 1058.8,599.5 1064.4,607.9 					"/>
				</g>
				<g>
					<polygon class="st16" points="1091.8,620.9 1091.5,620.3 1098.5,617.7 1098.8,618.3 					"/>
				</g>
				<g>
					<polygon class="st16" points="1040.7,598 1040.3,597.4 1057.4,590.9 1057.7,591.5 					"/>
				</g>
				<g>
					<polygon class="st16" points="1027.3,544.8 1013.6,522.6 1014,522.3 1027.8,544.6 					"/>
				</g>
				<g>
					<polygon class="st16" points="1025.4,564.3 1025.1,563.7 1055.7,551.8 1056,552.4 					"/>
				</g>
				<g>
					<polygon class="st16" points="1022.9,585 1022.6,584.3 1063.5,568.7 1063.8,569.3 					"/>
				</g>
				<g>
					<polygon class="st16" points="1079.4,603.6 1079.1,603 1090.9,598.5 1091.3,599.1 					"/>
				</g>
				<g>
					<polygon class="st16" points="1078.1,615.1 1077.7,614.5 1094.8,608 1095.1,608.6 					"/>
				</g>
				<g>
					<polygon class="st16" points="1079.2,603.5 1069.6,589.2 1070,588.9 1079.6,603.2 					"/>
				</g>
				<g>
					<polygon class="st16" points="1077.8,615 1064,594.4 1064.4,594.1 1078.2,614.7 					"/>
				</g>
				<g>
					<polygon class="st16" points="1027.7,545 1027.4,544.4 1044.8,536.4 1045.2,537 					"/>
				</g>
				<g>
					<polygon class="st16" points="1078.3,616.3 1077.2,615.8 1080.4,589.2 1081.5,589.8 					"/>
				</g>
			</g>
		</g>
		<g id="草_5_">
			<g>
				
					<linearGradient id="SVGID_10_" gradientUnits="userSpaceOnUse" x1="-621.693" y1="837.7875" x2="-621.693" y2="901.329" gradientTransform="matrix(-0.9682 0.4693 7.365418e-02 0.9619 -698.4344 10.4102)">
					<stop  offset="0" style="stop-color:#247746"/>
					<stop  offset="0.3896" style="stop-color:#267846"/>
					<stop  offset="0.5299" style="stop-color:#2D7A44"/>
					<stop  offset="0.6299" style="stop-color:#387D42"/>
					<stop  offset="0.7108" style="stop-color:#49823E"/>
					<stop  offset="0.7801" style="stop-color:#5F893A"/>
					<stop  offset="0.8403" style="stop-color:#7A9134"/>
					<stop  offset="0.8945" style="stop-color:#999B2E"/>
					<stop  offset="0.9" style="stop-color:#9D9C2D"/>
				</linearGradient>
				<path class="st22" d="M37.2,544.4l-137.7,66.8c-8.2-8.2,1.8-27.7,17.3-40.5c20.8-17.2,17-36.9,43.5-62.6
					c11.6-11.3,36.3-28.5,59.8-19.4c15.5,5.9,25.1,34.1,17.3,55.4C37.3,544.2,37.2,544.3,37.2,544.4z"/>
			</g>
			<g>
				<g>
					<polygon class="st16" points="-13.7,567.2 -12.5,566.6 -17.4,503 -18.6,503.6 					"/>
				</g>
				<g>
					<polygon class="st16" points="-14.9,540.9 12.7,501.3 12.3,501.1 -15.3,540.7 					"/>
				</g>
				<g>
					<polygon class="st16" points="-13.3,562.2 23.6,509.6 23.2,509.3 -13.7,562 					"/>
				</g>
				<g>
					<polygon class="st16" points="8.8,556.5 31.2,524.6 30.7,524.3 8.4,556.3 					"/>
				</g>
				<g>
					<polygon class="st16" points="-57.7,588.3 -51.5,579.3 -51.9,579.1 -58.1,588 					"/>
				</g>
				<g>
					<polygon class="st16" points="-87.4,602.7 -87.1,602 -94.2,599.6 -94.5,600.2 					"/>
				</g>
				<g>
					<polygon class="st16" points="-32.8,576.7 -32.4,576.1 -49.9,570 -50.3,570.7 					"/>
				</g>
				<g>
					<polygon class="st16" points="-16.4,521 -1,497.4 -1.4,497.1 -16.9,520.8 					"/>
				</g>
				<g>
					<polygon class="st16" points="-15.3,541.1 -14.9,540.5 -46.4,529.5 -46.8,530.1 					"/>
				</g>
				<g>
					<polygon class="st16" points="-13.7,562.4 -13.3,561.8 -55.3,547.3 -55.7,548 					"/>
				</g>
				<g>
					<polygon class="st16" points="-73.6,584.2 -73.3,583.5 -85.4,579.3 -85.8,580 					"/>
				</g>
				<g>
					<polygon class="st16" points="-72.7,596.1 -72.4,595.4 -89.9,589.4 -90.2,590 					"/>
				</g>
				<g>
					<polygon class="st16" points="-73.4,584 -62.7,568.8 -63.1,568.5 -73.8,583.8 					"/>
				</g>
				<g>
					<polygon class="st16" points="-72.4,595.9 -57.1,574 -57.5,573.7 -72.9,595.7 					"/>
				</g>
				<g>
					<polygon class="st16" points="-16.8,521.2 -16.4,520.6 -34.3,513.1 -34.7,513.7 					"/>
				</g>
				<g>
					<polygon class="st16" points="-73,597.3 -71.8,596.7 -73.9,569.3 -75.1,569.9 					"/>
				</g>
			</g>
		</g>
		<g id="草_7_">
			
				<linearGradient id="SVGID_11_" gradientUnits="userSpaceOnUse" x1="941.0516" y1="620.3729" x2="941.0516" y2="554.5301" gradientTransform="matrix(-1.0846 -0.6481 0 1 2058.3926 678.5256)">
				<stop  offset="5.000000e-02" style="stop-color:#9D9C2D"/>
				<stop  offset="8.557678e-02" style="stop-color:#A59D25"/>
				<stop  offset="0.189" style="stop-color:#B59F14"/>
				<stop  offset="0.3178" style="stop-color:#C1A109"/>
				<stop  offset="0.4984" style="stop-color:#C7A202"/>
				<stop  offset="1" style="stop-color:#C9A200"/>
			</linearGradient>
			<path class="st23" d="M990.4,660.8c-11.3-37.2,28.8-48.6,56.3-32.2c26.6,15.9,46.7,60.4,38.5,88.8L990.4,660.8z"/>
			<g>
				<polygon class="st19" points="1037.7,689.1 1037.8,628.2 1038.3,628.5 1038.3,689.4 				"/>
			</g>
			<g>
				<polygon class="st19" points="1039.2,689.9 1062.6,650.7 1063.1,651.2 1039.8,690.3 				"/>
			</g>
			<g>
				<polygon class="st19" points="1041.4,691.3 1080.5,679.9 1080.9,680.5 1042.2,691.8 				"/>
			</g>
			<g>
				<polygon class="st19" points="1047.5,694.9 1083,704.4 1083.2,705 1049.2,695.9 				"/>
			</g>
			<g>
				<polygon class="st19" points="1036.4,688.3 1016.9,628.6 1017.4,628.7 1037,688.6 				"/>
			</g>
			<g>
				<polygon class="st19" points="1034.4,687.1 1000.2,631.3 1000.6,631.2 1035.1,687.5 				"/>
			</g>
			<g>
				<polygon class="st19" points="1029.2,684 991.3,645.5 991.5,645.2 1030.6,684.8 				"/>
			</g>
		</g>
		<g id="草_6_">
			
				<linearGradient id="SVGID_12_" gradientUnits="userSpaceOnUse" x1="1741.8959" y1="1236.8651" x2="1741.8959" y2="1152.4701" gradientTransform="matrix(1.0488 -0.6697 5.232986e-02 0.9795 -1918.869 630.8883)">
				<stop  offset="5.000000e-02" style="stop-color:#9D9C2D"/>
				<stop  offset="8.557678e-02" style="stop-color:#A59D25"/>
				<stop  offset="0.189" style="stop-color:#B59F14"/>
				<stop  offset="0.3178" style="stop-color:#C1A109"/>
				<stop  offset="0.4984" style="stop-color:#C7A202"/>
				<stop  offset="1" style="stop-color:#C9A200"/>
			</linearGradient>
			<path class="st24" d="M31.5,638.4c11.9-47.2-40.1-59.9-74.1-38.1c-33,21-55.7,77.8-43.3,113.1L31.5,638.4z"/>
			<g>
				<polygon class="st19" points="-27.2,675.9 -31.4,599.4 -32,599.9 -27.9,676.3 				"/>
			</g>
			<g>
				<polygon class="st19" points="-29,677 -61.6,628.7 -62.2,629.3 -29.8,677.5 				"/>
			</g>
			<g>
				<polygon class="st19" points="-31.8,678.8 -82.5,666.1 -83,666.9 -32.8,679.4 				"/>
			</g>
			<g>
				<polygon class="st19" points="-39.3,683.6 -84.1,697 -84.2,697.8 -41.4,685 				"/>
			</g>
			<g>
				<polygon class="st19" points="-25.5,674.8 -4.6,599.1 -5.2,599.2 -26.3,675.3 				"/>
			</g>
			<g>
				<polygon class="st19" points="-23.1,673.2 17,601.8 16.5,601.7 -24,673.8 				"/>
			</g>
			<g>
				<polygon class="st19" points="-16.6,669.1 29.3,619.3 29,618.9 -18.4,670.2 				"/>
			</g>
		</g>
	</g>
</g>
</svg>
