<?xml version="1.0" encoding="utf-8"?>
<!-- Generator: Adobe Illustrator 24.3.0, SVG Export Plug-In . SVG Version: 6.00 Build 0)  -->
<svg version="1.1" id="圖層_4" xmlns="http://www.w3.org/2000/svg" xmlns:xlink="http://www.w3.org/1999/xlink" x="0px" y="0px"
	 viewBox="0 0 271.8 432.4" style="enable-background:new 0 0 271.8 432.4;" xml:space="preserve">
<style type="text/css">
	.st0{opacity:0.8;fill:#2D2D2D;}
	.st1{fill:#D3BBA9;}
	.st2{fill:#FFFFFF;}
	.st3{fill:#BFDDC0;}
	.st4{fill:#9FBF7D;}
	.st5{fill:#9EBF7D;}
	.st6{fill:none;stroke:#688723;stroke-width:2;stroke-linecap:round;stroke-miterlimit:10;}
	.st7{fill:#67A85A;}
	.st8{fill:none;}
	.st9{fill:#4F4539;}
	.st10{opacity:0.26;fill:#463266;}
	.st11{fill:#F4DAC3;}
	.st12{fill:#E8B7CF;}
	.st13{fill:#5F554E;}
	.st14{fill:#F0867A;}
	.st15{fill:#7C9361;}
	.st16{fill:url(#SVGID_1_);}
	.st17{fill:url(#SVGID_2_);}
	.st18{fill:#3D3A39;}
	.st19{fill:none;stroke:#3D3939;stroke-miterlimit:10;}
	.st20{fill:none;stroke:#3D3939;stroke-linecap:round;stroke-miterlimit:10;}
</style>
<ellipse class="st0" cx="139.9" cy="403.9" rx="105.7" ry="14.7"/>
<path class="st1" d="M44.2,235.1c0,0-1.2-5.1,1.3-8.1c2.5-3-1.2-4-2.1-2.8c-0.8,1.2-1.8,3.6-1.8,3.6s-1.6-7.5-7.7-5.4
	s-6.6,5.8-5.2,8.1c1.4,2.3,3.6-0.8,3.6-0.8s-2,8.3,4.3,9.5S44.2,235.1,44.2,235.1z"/>
<path class="st2" d="M163.8,287.8c5,35.3,10,70.5,14.9,105.8c0.7,5,8.4,3.9,7.7-1.1c-5-35.3-10-70.5-14.9-105.8
	C170.8,281.7,163.1,282.8,163.8,287.8"/>
<path class="st2" d="M110.7,287.4c-4.7,35.3-9.3,70.6-13.9,105.9c-0.7,5,7,6,7.7,1c4.6-35.3,9.3-70.6,13.9-105.9
	C119,283.4,111.3,282.4,110.7,287.4"/>
<path class="st3" d="M193.3,293.9h-41.4h-19.6H91c-2.2,9.4-17.3,60.3-10,73.3c7.8,13.8,39.9,18.2,53,0c2.5-3.5,5.1-16.3,7.5-26.3
	c0.2-1,1.7-1,1.9,0c2.4,9.8,4.8,22.6,7,26.3c10.4,17.9,42.7,15.6,53,0C211.5,354.8,195.5,303.3,193.3,293.9"/>
<path class="st3" d="M87.4,279.1l109.6,0.2c0,0,1.4,13.7-0.6,19.3c-3.5,8.9-19.9,14.2-53,15.8c-35.2-0.8-53.9-9.3-55.8-14.3
	C85.9,295.8,87.4,279.1,87.4,279.1"/>
<path class="st4" d="M205,309.4c-38.9,10.8-86.1,10.2-126-0.6c1.3-5.6,5.2-9.1,6.5-14.6c37.5,0,73.4-0.9,113.2-0.9
	C200,298.8,203.6,303.9,205,309.4"/>
<path class="st5" d="M85.8,236.6c0,0-16,11.4-25.1,28.5c0,0-1.8-29.9-13.6-30.1c-11.9-0.2-18.8,8.1-19.4,12.1c-0.6,4,0,7.5,2.4,13.3
	s12.9,30.8,27.1,30.8c14.2,0,26-15.9,36.4-38.3C101.4,235.5,90.1,233.9,85.8,236.6z"/>
<path class="st5" d="M93.6,220.8c0,0-5.7,38.1-6.2,58.3c0,0.9-3.9,11.9-1.5,16.2c1.3,2.3,6.5,4.4,7.2,4.6c24.2-5,39.9-5.4,100.2-2.1
	c0.5-0.2,3.2-1.1,4.4-2.5c2.6-3.2-0.1-13.3-0.1-14.5c0.3-52.1-8.9-60-8.9-60L93.6,220.8z"/>
<path class="st6" d="M103.6,265.1c-0.4,12.1,0,25.2,2.9,33.6"/>
<line class="st6" x1="109.3" y1="273.3" x2="97.5" y2="276.9"/>
<line class="st6" x1="110.3" y1="282.3" x2="98.5" y2="285.9"/>
<path class="st7" d="M168.9,221.2c-27.2,21.3-54.2,36.6-80.9,45.5l-0.5,6.2c26.9-8.9,54-24.2,81.4-45.7V221.2z"/>
<path class="st8" d="M93.6,220.8c0,0-5.7,38.1-6.2,58.3c0,0.9-3.9,11.9-1.5,16.2c1.3,2.3,6.5,4.4,7.2,4.6c24.2-5,39.9-5.4,100.2-2.1
	c0.5-0.2,3.2-1.1,4.4-2.5c2.6-3.2-0.1-13.3-0.1-14.5c0.3-52.1-8.9-60-8.9-60L93.6,220.8z"/>
<path class="st9" d="M198.9,291.3c0,0-51.3,8.6-113.7-0.1c-0.9,1.5,0.3,3,0.3,3s61.4,16.7,113.2-0.9
	C199,292.5,198.9,291.3,198.9,291.3"/>
<path class="st10" d="M93.2,234.9l-7.3-0.8c0,0-0.3-0.1-0.5,1.7c20.2,10.6,34.8,13.5,54.7,13.5c19.9,0,41-5.4,53.9-14.4
	c-0.6-2.1,0-0.4,0-0.4l-2.8,0c-15.1,4.7-31.5,7.2-48.7,7.2C124.7,241.9,108.2,239.6,93.2,234.9"/>
<path class="st11" d="M37.6,191.5c0,0-11.5-3.1-8.4,8.1c3.2,11.2,14.9,11.9,18.7,8.4C51.9,204.4,37.6,191.5,37.6,191.5"/>
<path class="st11" d="M244.2,191.5c0,0,11.6-3.1,8.4,8.1c-3.2,11.2-14.9,11.9-18.7,8.4C230,204.4,244.2,191.5,244.2,191.5"/>
<path class="st11" d="M252.9,154.5c4.5,60.3-48.7,90.1-113.3,90.1c-65.1,0-113.6-28.6-113.6-90.1c0-52.6,50.8-95.3,113.4-95.3
	C202.1,59.2,249,102,252.9,154.5"/>
<path class="st12" d="M109.7,20.1C0.1,76.2,25.4,181,25.4,184.7c-0.1,3.7,7.1,4.9,7.1,4.9s47-28.9,100.6-28.9l6.6-19.3l6.6,19.9
	c49.8,0,96.5,29,101.1,29c4.4,0,6.4-0.8,9.6-7C284.9,123.6,179.1-15.5,109.7,20.1"/>
<path class="st13" d="M185.3,391.1l-5.9,0.8c0,0-5,1.3-6.9,3.4c-1.9,2.1,1.5,4,1.5,4l14-1.7C188.1,397.5,190.4,390.4,185.3,391.1"/>
<path class="st13" d="M103.5,392.7l-5.8-0.8c0,0-5.2-0.1-7.5,1.4c-2.4,1.5,0.4,4.3,0.4,4.3l14,2.1
	C104.4,399.6,108.5,393.4,103.5,392.7"/>
<g>
	<path class="st14" d="M144.8,223.3c-1.4,0.3-2.8,0.2-4.1,0c-0.6-0.1-1.2-0.3-1.5-0.8c-0.5-0.7-0.1-1.8,0.7-2.2s1.7-0.4,2.6-0.1
		s1.6,0.7,2.4,1c0.2,0.1,0.4,0.1,0.5,0.1c0.2-0.1,0.3-0.3,0.4-0.4c0.7-1.3,1.9-2.2,3.2-2.7c0.6-0.2,1.4-0.3,1.8,0.2
		c0.3,0.3,0.4,0.8,0.3,1.3c-0.1,0.4-0.3,0.9-0.7,1.1c-3.1,2.6-6.7,3.2-9.1,2.3"/>
	<g>
		<path class="st14" d="M144.3,221.4c-0.5,0.1-0.7,0.1-1.4,0.1c-0.3,0-0.6,0-0.9,0c-0.1,0-0.2,0-0.3,0c0,0-0.7-0.1-0.3,0
			c-0.2,0-0.4-0.1-0.6-0.1c-0.3,0,0.2,0.1,0,0c-0.2-0.1,0,0,0.1,0.1c0.1,0.1,0.1,0.2,0.2,0.3c-0.1-0.3,0,0,0,0.1c0,0.3,0,0.3,0,0.1
			c0,0.3-0.2,0.1,0,0c0.2-0.2-0.2,0.3,0,0c0.2-0.2-0.1,0.1-0.1,0.1c0-0.1,0.3-0.1,0,0c0.3-0.1,0.1,0,0,0c0.1,0,0.3,0,0.4,0
			c0.1,0,0.4,0.1,0,0c0.3,0.1,0.5,0.1,0.8,0.2c0.1,0,0.3,0.1,0.4,0.2c-0.1,0-0.2-0.1,0.1,0.1c0.2,0.1,0.5,0.2,0.7,0.3
			c0.8,0.4,1.7,0.7,2.6,0.5c0.7-0.2,1.2-0.7,1.6-1.4c0.1-0.2,0.2-0.4,0.4-0.6c0,0.1-0.2,0.3,0,0c0.1-0.1,0.2-0.2,0.3-0.3
			c0.1-0.1,0.5-0.4,0.2-0.2c0.2-0.1,0.4-0.3,0.6-0.4c0.1-0.1,0.2-0.1,0.3-0.2c0.1,0,0.3-0.1,0,0c0.2,0,0.7-0.2,0.3-0.1
			c0,0,0.3,0,0.3,0c0,0.1-0.4-0.1-0.4-0.1c-0.2-0.1-0.3-0.4-0.4-0.6c0,0,0-0.4,0-0.1c0,0.3,0-0.3,0,0c-0.1,0.3,0.2-0.2,0,0
			c-0.1,0.1-0.1,0.2-0.1,0.2c0.3-0.4-0.2,0.1-0.2,0.1c0.2-0.1-0.3,0.2-0.4,0.3c-0.2,0.1-0.4,0.3-0.6,0.4c-0.2,0.1-0.5,0.3-0.7,0.4
			c-0.1,0.1-0.2,0.1-0.3,0.2c0,0-0.5,0.2-0.3,0.1c0.2-0.1-0.1,0-0.1,0c-0.2,0.1-0.3,0.1-0.5,0.2c-0.2,0.1-0.5,0.1-0.7,0.2
			c-0.3,0.1-0.5,0.1-0.8,0.2C144.4,221.4,144.1,221.4,144.3,221.4c0.3,0-0.1,0-0.2,0c-0.5,0-0.9,0-1.4,0c0.4,0,0,0-0.2-0.1
			c-0.2-0.1-0.5-0.1-0.7-0.2c-1-0.3-2.2,0.4-2.5,1.4c-0.3,1.1,0.3,2.1,1.4,2.5c1.8,0.6,3.9,0.5,5.7,0c1.1-0.3,2.1-0.7,3.1-1.3
			c1.1-0.6,2.2-1.3,2.9-2.3c0.8-1.1,1-2.6,0.3-3.9c-0.8-1.4-2.3-1.8-3.8-1.5c-1.1,0.2-2.2,0.8-3.1,1.6c-0.4,0.3-0.7,0.6-1,1
			c-0.2,0.3-0.4,0.5-0.6,0.8c-0.1,0.1-0.1,0.2-0.2,0.3c-0.2,0.4,0,0.2,0.6-0.4c0.4,0,0.7,0,1.1,0c-0.2,0-0.4-0.1-0.6-0.2
			c0.2,0.1-0.2-0.1-0.2-0.1c-0.5-0.2-0.9-0.4-1.4-0.6c-0.8-0.3-1.6-0.5-2.5-0.5c-1.9,0-3.6,1.2-4,3c-0.5,2,0.9,3.8,2.9,4.3
			c1.7,0.4,3.6,0.3,5.3,0c1-0.2,1.7-1.5,1.4-2.5C146.4,221.7,145.4,221.2,144.3,221.4L144.3,221.4z"/>
	</g>
</g>
<path class="st1" d="M152,225.7c0,0-1.5-3.3-5.4-2.3s-7.7,3.5-6.5,7.4c1.2,3.9,4,0.1,4,0.1s-0.2,2.7,0.3,4.2s-1-2-2.6-1.4
	c-1.6,0.6-1.8,2.1-0.6,3.2c1.2,1.1,3.8,1.8,4.8,4.9c0,0,3,0.7,6-1.5C155,238.2,155.5,231.3,152,225.7z"/>
<path class="st15" d="M192,237.5c0,0-11.3,9-14.6,25.7c0,0-12.5-29.6-24-25.7c-11.5,3.9-15,11.5-14.4,19.6
	c0.6,8.1,20.4,35.3,37.3,33.6c16.9-1.7,25.9-33.9,25.6-42.5C201.5,239.5,196.4,233,192,237.5z"/>
<path class="st5" d="M193,235.5c0,0-11.3,9-14.6,25.7c0,0-12.5-29.6-24-25.7c-11.5,3.9-15,11.5-14.4,19.6
	c0.6,8.1,20.4,35.3,37.3,33.6c16.9-1.7,25.9-33.9,25.6-42.5C202.5,237.5,197.4,231,193,235.5z"/>
<radialGradient id="SVGID_1_" cx="82.2718" cy="217.9539" r="11.5548" gradientUnits="userSpaceOnUse">
	<stop  offset="0.1131" style="stop-color:#F0867A"/>
	<stop  offset="0.1884" style="stop-color:#F08A7E"/>
	<stop  offset="0.2678" style="stop-color:#F1978A"/>
	<stop  offset="0.3492" style="stop-color:#F3AC9E"/>
	<stop  offset="0.4313" style="stop-color:#F5C9BA"/>
	<stop  offset="0.4982" style="stop-color:#F7E7D6"/>
</radialGradient>
<circle class="st16" cx="82.3" cy="218" r="5.9"/>
<radialGradient id="SVGID_2_" cx="200.4256" cy="217.9539" r="12.3507" gradientUnits="userSpaceOnUse">
	<stop  offset="8.441373e-02" style="stop-color:#F0867A"/>
	<stop  offset="0.1535" style="stop-color:#F08B7F"/>
	<stop  offset="0.2391" style="stop-color:#F19B8D"/>
	<stop  offset="0.3334" style="stop-color:#F3B4A5"/>
	<stop  offset="0.4332" style="stop-color:#F6D6C6"/>
	<stop  offset="0.4741" style="stop-color:#F7E7D6"/>
</radialGradient>
<circle class="st17" cx="200.4" cy="218" r="5.9"/>
<g>
	<path class="st18" d="M201.7,209.9c0,1.4-1.1,2.5-2.5,2.5s-2.5-1.1-2.5-2.5c0-1.4,1.1-2.5,2.5-2.5S201.7,208.5,201.7,209.9"/>
	<path class="st19" d="M201.7,209.9c0,1.4-1.1,2.5-2.5,2.5s-2.5-1.1-2.5-2.5c0-1.4,1.1-2.5,2.5-2.5S201.7,208.5,201.7,209.9z"/>
	<path class="st20" d="M197.5,213.3c0,0,2.3-1.9,4.7-0.5"/>
	<line class="st20" x1="195.2" y1="207.4" x2="210.5" y2="207.4"/>
</g>
<g>
	<g>
		<path class="st19" d="M83.9,209.9c0,1.4-1.1,2.5-2.5,2.5c-1.4,0-2.5-1.1-2.5-2.5c0-1.4,1.1-2.5,2.5-2.5
			C82.8,207.4,83.9,208.5,83.9,209.9z"/>
		<path class="st20" d="M79,213.6c0,0,3.1-2.5,6.2-0.6"/>
		<line class="st20" x1="77.2" y1="207.4" x2="92.5" y2="207.4"/>
	</g>
	<path class="st18" d="M83.9,209.9c0,1.4-1.1,2.5-2.5,2.5c-1.4,0-2.5-1.1-2.5-2.5c0-1.4,1.1-2.5,2.5-2.5
		C82.8,207.4,83.9,208.5,83.9,209.9"/>
</g>
</svg>
