<?xml version="1.0" encoding="utf-8"?>
<!-- Generator: Adobe Illustrator 24.3.0, SVG Export Plug-In . SVG Version: 6.00 Build 0)  -->
<svg version="1.1" id="圖層_2" xmlns="http://www.w3.org/2000/svg" xmlns:xlink="http://www.w3.org/1999/xlink" x="0px" y="0px"
	 viewBox="0 0 313.7 390.8" style="enable-background:new 0 0 313.7 390.8;" xml:space="preserve">
<style type="text/css">
	.st0{fill:url(#SVGID_1_);}
	.st1{opacity:0.8;}
	.st2{fill:url(#SVGID_2_);}
	.st3{fill:url(#SVGID_3_);}
	.st4{fill:#5F554E;}
	.st5{fill:#DC6897;}
	.st6{fill:#005944;}
	.st7{clip-path:url(#SVGID_5_);fill:#005944;}
	.st8{opacity:0.28;fill:#463266;}
	.st9{fill:#63AD9B;}
	.st10{fill:#096A52;}
	.st11{fill:#63ACE2;}
	.st12{fill:#FFF2DE;}
</style>
<g>
	<linearGradient id="SVGID_1_" gradientUnits="userSpaceOnUse" x1="92.0466" y1="189.5175" x2="59.332" y2="238.0252">
		<stop  offset="0" style="stop-color:#F7BDBE"/>
		<stop  offset="1" style="stop-color:#F7E7D6"/>
	</linearGradient>
	<path class="st0" d="M105.6,231.8c-9,4.3-19,5.4-28.8,3.8c-9.3-1.6-19.7-5.3-25.2-13.5c-10.9-16.2-2.4-35.9,10.6-47.8
		c3.3-3.1-1.6-8-4.9-4.9c-15.6,14.4-24.6,38.7-10.8,57.5c13.5,18.5,43.6,20.2,62.7,11C113.2,235.9,109.7,229.9,105.6,231.8
		L105.6,231.8z"/>
</g>
<g class="st1">
	<defs>
		<ellipse id="XMLID_18_" class="st1" cx="144.9" cy="368.7" rx="91.9" ry="11.7"/>
	</defs>
	<use xlink:href="#XMLID_18_"  style="overflow:visible;fill:#3A3A3A;"/>
	<clipPath id="XMLID_15_">
		<use xlink:href="#XMLID_18_"  style="overflow:visible;"/>
	</clipPath>
</g>
<g>
	<linearGradient id="SVGID_2_" gradientUnits="userSpaceOnUse" x1="190.619" y1="297.7602" x2="181.8256" y2="310.7987">
		<stop  offset="0" style="stop-color:#F7BDBE"/>
		<stop  offset="1" style="stop-color:#F7E7D6"/>
	</linearGradient>
	<path class="st2" d="M186.7,299.2c0,0-3.9,4-4.2,5.3c-0.2,0.9,0.4,1.1,1.9,0.8c-1.9,2.5-2.9,6.1-0.8,6.5c2.1,0.4,7.6-9.5,8.2-11.2
		C191.8,300.5,192.4,295.3,186.7,299.2"/>
	<linearGradient id="SVGID_3_" gradientUnits="userSpaceOnUse" x1="211.5153" y1="238.7275" x2="174.8766" y2="293.0539">
		<stop  offset="0" style="stop-color:#F7BDBE"/>
		<stop  offset="1" style="stop-color:#F7E7D6"/>
	</linearGradient>
	<path class="st3" d="M200.5,232c10.9,23.7,2.7,50.4-9.2,69.6c-1,1.6-0.7,1.5-2.2,0.8c-1.5-0.8-3.5-1.5-2.5-3
		c11.2-18,18.1-43.7,7.8-65.9C192.7,229.7,198.8,228.3,200.5,232"/>
</g>
<g>
	<defs>
		<path id="XMLID_11_" d="M125.5,276.4c0-4.4,6.8-4.3,6.8,0c-1.3,3.6-18.4,53.7-1.9,64.7c2.3,1.5,4.7,1.9,4.7,1.9
			c1,0.3,1.7,0.2,2.4,0.3c0.9,0.2,1.4,0.3,2.2,1.2c0.8,0.9,1,2,1,2.4c0.1,0.5,0.2,1.9-0.7,2.9c-0.6,0.7-1.7,0.9-4.2,0.5
			c-2.1-0.3-4.8-0.8-7.8-2.5c-6-3.6-8.8-10.8-9.5-12.5c-3.9-9.8-2.8-29.3,4.6-52.6l2.5-6"/>
	</defs>
	<use xlink:href="#XMLID_11_"  style="overflow:visible;fill:#CB3E54;"/>
	<clipPath id="XMLID_16_">
		<use xlink:href="#XMLID_11_"  style="overflow:visible;"/>
	</clipPath>
</g>
<g>
	<defs>
		<path id="XMLID_12_" d="M184.9,275.8c-0.1,31-0.2,62-0.2,93c0,4.4-6.8,4.3-6.8,0c0.1-31,0.2-62,0.2-93
			C178.2,271.4,184.9,271.5,184.9,275.8"/>
	</defs>
	<use xlink:href="#XMLID_12_"  style="overflow:visible;fill:#CB3E54;"/>
	<clipPath id="XMLID_17_">
		<use xlink:href="#XMLID_12_"  style="overflow:visible;"/>
	</clipPath>
</g>
<g>
	<defs>
		<path id="XMLID_4_" d="M138.1,218l55.6,0.1c0,0,3.4,24.4,5.3,43.6C166,255.9,144.8,241.9,138.1,218"/>
	</defs>
	<linearGradient id="XMLID_19_" gradientUnits="userSpaceOnUse" x1="166.021" y1="219.3159" x2="169.977" y2="247.4038">
		<stop  offset="0" style="stop-color:#F7BDBE"/>
		<stop  offset="1" style="stop-color:#F7E7D6"/>
	</linearGradient>
	<use xlink:href="#XMLID_4_"  style="overflow:visible;fill:url(#XMLID_19_);"/>
	<clipPath id="XMLID_20_">
		<use xlink:href="#XMLID_4_"  style="overflow:visible;"/>
	</clipPath>
</g>
<g>
	<defs>
		<path id="XMLID_8_" d="M198.8,261.9c0,0.2,0,0.3,0.1,0.5c0,0.2,0.6,0.4,0.6,0.6c0,0.2-0.5,0.5-0.5,0.7c0,0.2,0.2,0.4,0.2,0.6
			c0,0.2-0.4,0.4-0.4,0.6c0,0.2,0.8,0.3,0.8,0.5c0,0.2-0.6,0.5-0.5,0.7c0,0.2,0.3,0.4,0.3,0.6c0,0.2,0.2,0.4,0.3,0.6
			c0,0.2,0.2,0.4,0.2,0.6c0,0.2-0.6,0.5-0.6,0.7c0,0.2,0.6,0.4,0.7,0.6c0,0.2-0.2,0.4-0.2,0.6c0,0.2-0.1,0.4-0.1,0.6
			c0,0.2-0.2,0.4-0.1,0.6c0,0.2,0.3,0.4,0.3,0.6c0,0.2,0,0.4,0,0.6c0,0.2,0.3,0.4,0.3,0.6c0,0.2-0.4,0.4-0.4,0.6
			c0,0.2-0.1,0.4-0.1,0.6c0,0.2,0.6,0.4,0.6,0.6c0,0.2-0.2,0.4-0.2,0.6c0,0.2,0,0.4,0,0.6c0,0.2-0.5,0.4-0.5,0.6
			c0,0.2,0.8,0.4,0.8,0.6c0,0.2-0.3,0.4-0.3,0.6c0,0.2-0.3,0.4-0.3,0.6c0,0.2,0.7,0.3,0.7,0.6c0,0.2-0.6,0.4-0.6,0.6
			c0,0.2,0.5,0.5,0.4,0.7c0,0.2-0.5,0.3-0.6,0.5c-0.1,0.2,0.1,0.5,0,0.7c-0.1,0.1-0.3,0.2-0.5,0.3c0,0.2-0.5,0.3-0.5,0.5
			c0,0.2,0,0.4-0.1,0.6c0,0.2-0.1,0.4-0.1,0.6c-0.1,0.2,0.5,0.6,0.4,0.8c-0.1,0.2-0.5,0.2-0.6,0.4c-0.1,0.2-0.3,0.3-0.4,0.4
			c-0.1,0.1-0.1,0.5-0.2,0.7c-0.1,0.1-0.2,0.4-0.4,0.5c-0.2,0.1-0.6-0.2-0.8,0c-0.2,0.1-0.1,0.6-0.3,0.7c-0.2,0.1-0.6-0.2-0.8-0.1
			c-0.2,0.1-0.1,0.6-0.3,0.7c-0.2,0.1-0.5,0-0.7,0.1c-0.2,0.1-0.4,0.1-0.6,0.2c-0.2,0.1-0.4,0.2-0.6,0.3c-0.2,0.1-0.1,0.6-0.3,0.7
			c-0.2,0.1-0.5-0.2-0.7-0.1c-0.2,0.1-0.4,0-0.6,0.1c-0.2,0.1-0.1,0.7-0.3,0.8c-0.2,0.1-0.5,0-0.6,0.1c-0.2,0.1-0.5-0.2-0.7-0.1
			c-0.2,0.1-0.4,0-0.6,0c-0.2,0.1-0.4,0.1-0.6,0.2c-0.2,0.1-0.3,0.5-0.5,0.6c-0.2,0.1-0.4,0-0.6,0.1c-0.2,0.1-0.4,0-0.6,0.1
			c-0.2,0.1-0.3,0.3-0.5,0.4c-0.2,0.1-0.3,0.3-0.5,0.4c-0.2,0.1-0.3,0.3-0.5,0.4c-0.2,0.1-0.5-0.4-0.7-0.3c-0.2,0.1-0.4-0.1-0.6,0
			c-0.2,0.1-0.3,0.5-0.5,0.5c-0.2,0.1-0.4,0-0.6,0c-0.2,0.1-0.4,0.2-0.6,0.2c-0.2,0-0.5-0.1-0.7-0.1c-0.2,0-0.3,0.4-0.5,0.5
			c-0.2,0-0.3,0.4-0.5,0.4c-0.2,0-0.4,0-0.6,0c-0.2,0-0.5-0.4-0.7-0.3c-0.2,0-0.4,0.2-0.6,0.3c-0.2,0-0.4,0-0.6,0.1
			c-0.2,0-0.5-0.2-0.7-0.2c-0.2,0-0.3,0.7-0.5,0.8c-0.2,0-0.4,0.1-0.6,0.1c-0.2,0-0.5-0.5-0.7-0.4c-0.2,0-0.4,0.3-0.6,0.3
			c-0.2,0-0.4,0-0.6,0c-0.2,0-0.4-0.1-0.6,0c-0.2,0-0.4,0.3-0.6,0.4c-0.2,0-0.4,0.3-0.6,0.3c-0.2,0-0.4-0.1-0.6-0.1
			c-0.2,0-0.4-0.2-0.6-0.2c-0.2,0-0.4-0.1-0.6,0c-0.2,0-0.3,0.5-0.6,0.5c-0.2,0-0.5-0.4-0.7-0.3c-0.2,0-0.4,0.2-0.6,0.2
			c-0.2,0-0.4,0.2-0.6,0.2c-0.2,0-0.4-0.2-0.6-0.2c-0.2,0-0.3,0.6-0.5,0.6c-0.2,0-0.5-0.5-0.7-0.5c-0.2,0-0.4,0.3-0.6,0.3
			c-0.2,0-0.4,0.1-0.6,0.1c-0.2,0-0.4,0.4-0.6,0.4c-0.2,0-0.4,0-0.6,0.1c-0.2,0-0.4-0.2-0.6-0.2c-0.2,0-0.4,0.1-0.6,0.1
			c-0.2,0-0.4,0.2-0.6,0.2c-0.2,0-0.5-0.6-0.7-0.6c-0.2,0-0.4,0.5-0.6,0.5c-0.2,0-0.4-0.3-0.6-0.3c-0.2,0-0.4,0.1-0.6,0.1
			c-0.2,0-0.4-0.1-0.6-0.1c-0.2,0-0.4,0.3-0.6,0.3c-0.2,0-0.4-0.3-0.6-0.2c-0.2,0-0.4,0.3-0.6,0.3c-0.2,0-0.4,0.4-0.6,0.4
			c-0.2,0-0.4,0.2-0.6,0.2c-0.2,0-0.4-0.7-0.7-0.7c-0.2,0-0.4,0.6-0.6,0.6c-0.2,0-0.4,0.1-0.6,0.1c-0.2,0-0.4-0.5-0.6-0.5
			c-0.2,0-0.4,0.1-0.6,0.1c-0.2,0-0.4,0.3-0.6,0.3c-0.2,0-0.4,0.2-0.6,0.2c-0.2,0-0.4,0-0.6,0c-0.2,0-0.4-0.7-0.6-0.7
			c-0.2,0-0.4,0.7-0.6,0.7c-0.2,0-0.4-0.5-0.6-0.6c-0.2,0-0.4-0.2-0.6-0.2c-0.2,0-0.4,0.3-0.6,0.3c-0.2,0-0.4-0.3-0.6-0.3
			c-0.2,0-0.4,0-0.6,0c-0.2,0-0.4,0.6-0.7,0.6c-0.2,0-0.4-0.7-0.6-0.7c-0.2,0-0.4,0.2-0.6,0.2c-0.2,0-0.4,0.1-0.6,0
			c-0.2,0-0.4-0.4-0.6-0.4c-0.2,0-0.4,0.5-0.7,0.5c-0.2,0-0.4-0.1-0.6-0.1c-0.2,0-0.4,0.1-0.6,0.1c-0.2,0-0.4-0.6-0.6-0.6
			c-0.2,0-0.5,0.7-0.7,0.7c-0.2,0-0.4-0.6-0.6-0.6c-0.2,0-0.5,0.5-0.7,0.5c-0.2,0-0.4-0.6-0.6-0.6c-0.2,0-0.4,0.3-0.6,0.3
			c-0.2,0-0.4,0.1-0.6,0.1c-0.2,0-0.4,0-0.6-0.1c-0.2,0-0.4-0.6-0.6-0.6c-0.2,0-0.4-0.1-0.6-0.1c-0.2,0-0.5,0.6-0.7,0.6
			c-0.2,0-0.4-0.1-0.6-0.1c-0.2,0-0.4,0-0.6,0c-0.2,0-0.4-0.4-0.6-0.4c-0.2,0-0.4-0.1-0.6-0.1c-0.2,0-0.4,0.1-0.6,0.1
			c-0.2,0-0.4-0.1-0.6-0.1c-0.2,0-0.4,0.1-0.6,0.1c-0.2,0-0.3-0.7-0.5-0.7c-0.2,0-0.5,0.6-0.7,0.6c-0.2,0-0.3-0.5-0.5-0.6
			c-0.2,0-0.5,0.3-0.7,0.2c-0.2,0-0.4-0.3-0.6-0.3c-0.2,0-0.4-0.3-0.6-0.4c-0.2,0-0.5,0.5-0.7,0.5c-0.2,0-0.4,0-0.6,0
			c-0.2,0-0.4-0.1-0.6-0.2c-0.2,0-0.3-0.6-0.5-0.7c-0.2,0-0.5,0.4-0.7,0.4c-0.2,0-0.3-0.5-0.5-0.5c-0.2,0-0.4-0.2-0.6-0.2
			c-0.2,0-0.4-0.1-0.6-0.1c-0.2,0-0.5,0.4-0.7,0.3c-0.2,0-0.3-0.6-0.5-0.6c-0.2,0-0.4,0-0.6-0.1c-0.2,0-0.4,0-0.6,0
			c-0.2,0-0.5,0.5-0.7,0.4c-0.2-0.1-0.4-0.2-0.6-0.3c-0.2-0.1-0.4-0.1-0.6-0.1c-0.2-0.1-0.3-0.6-0.5-0.7c-0.2-0.1-0.5,0.2-0.7,0.1
			c-0.2-0.1-0.5,0.2-0.7,0.1c-0.2-0.1-0.4-0.2-0.6-0.2c-0.2-0.1-0.4-0.1-0.6-0.2c-0.2-0.1-0.2-0.6-0.4-0.7c-0.2-0.1-0.3-0.2-0.5-0.3
			c-0.2-0.1-0.4,0-0.6-0.1c-0.2-0.1-0.3-0.4-0.5-0.4c-0.2-0.1-0.4,0-0.6-0.1c-0.2-0.1-0.3-0.3-0.5-0.4c-0.2-0.1-0.4-0.1-0.6-0.2
			c-0.2-0.1-0.4-0.1-0.6-0.2c-0.2-0.1-0.6,0.2-0.8,0.1c-0.2-0.1-0.1-0.7-0.3-0.8c-0.2-0.1-0.3-0.2-0.5-0.3c-0.2-0.1-0.3-0.2-0.5-0.3
			c-0.2-0.1-0.5,0.1-0.7,0c-0.2-0.1-0.2-0.5-0.3-0.6c-0.2-0.1-0.7,0.3-0.9,0.1c-0.2-0.1,0-0.7-0.1-0.8c-0.2-0.1-0.7,0.1-0.8,0
			c-0.2-0.1-0.1-0.5-0.2-0.7c-0.1-0.1-0.2-0.4-0.3-0.6c-0.1-0.2-0.3-0.3-0.4-0.4c-0.1-0.2-0.5-0.1-0.7-0.3c-0.1-0.2-0.4-0.3-0.5-0.4
			c-0.1-0.2,0.1-0.5,0-0.7c-0.1-0.2-0.3-0.3-0.3-0.5c-0.1-0.2,0.2-0.5,0.2-0.7c-0.1-0.2-0.3-0.3-0.3-0.5c0-0.2-0.3-0.3-0.3-0.5
			c0-0.2-0.3-0.3-0.3-0.5c0-0.2,0.2-0.4,0.2-0.6c-0.1-0.2-0.1-0.4-0.2-0.6c-0.1-0.2,0.1-0.4,0-0.6c0-0.2-0.1-0.4-0.1-0.6
			c0-0.2-0.1-0.4-0.1-0.6c0-0.2-0.5-0.4-0.5-0.6c0-0.2,0.1-0.5,0.1-0.6c0-0.2,0-0.4,0-0.6c0-0.2,0-0.4,0-0.6c0-0.2,0.5-0.4,0.5-0.6
			c0-0.2,0.2-0.4,0.2-0.6c0-0.2,0-0.4,0-0.6c0-0.2-0.1-0.4-0.1-0.6c0-0.2,0-0.4,0-0.6c0-0.2,0.1-0.4,0.1-0.6c0-0.2-0.5-0.4-0.5-0.6
			c0-0.2-0.1-0.4-0.1-0.6c0-0.2,0.7-0.4,0.7-0.6c0-0.2-0.4-0.4-0.4-0.6c0-0.2-0.1-0.4-0.1-0.6c0-0.2-0.1-0.4-0.1-0.6
			c0-0.2,0.1-0.4,0.1-0.6c0-0.2,0.1-0.4,0.1-0.6c0-0.2,0.5-0.4,0.5-0.6c0-0.2,0-0.4,0-0.6c0-0.2-0.1-0.4-0.1-0.6
			c0-0.2,0.1-0.4,0.1-0.6c0-0.2-0.4-0.4-0.4-0.6c0-0.2,0.2-0.4,0.2-0.6c0-0.2,0.1-0.4,0.1-0.6c0-0.2,0.3-0.4,0.3-0.6
			c0-0.2-0.2-0.4-0.2-0.6c0-0.2,0-0.4,0-0.6c0-0.2,0.4-0.4,0.4-0.6c0-0.2-0.5-0.4-0.4-0.6c0-0.2,0-0.4,0-0.6c0-0.2,0-0.4,0-0.6
			c0-0.2,0-0.4,0-0.6c0-0.2,0.3-0.4,0.3-0.6c0-0.2-0.3-0.4-0.3-0.6c0-0.2,0.8-0.4,0.8-0.6c0-0.2-0.6-0.5-0.6-0.7
			c0-0.2,0.2-0.4,0.2-0.6c0-0.2,0.4-0.4,0.4-0.6c0-0.2,0.2-0.4,0.2-0.6c0-0.2-0.2-0.4-0.1-0.6c0-0.2,0.2-0.4,0.2-0.6
			c0-0.2-0.2-0.4-0.2-0.6c0-0.2,0.4-0.4,0.4-0.6c0-0.2-0.1-0.4-0.1-0.6c0-0.2-0.5-0.5-0.5-0.7c0-0.2,0.3-0.4,0.4-0.6
			c0-0.2,0-0.4,0-0.6c0-0.2,0.3-0.4,0.4-0.6c0-0.2-0.2-0.4-0.2-0.6c0-0.2,0.4-0.4,0.4-0.6c0-0.2,0-0.4,0-0.6c0-0.2-0.4-0.5-0.4-0.7
			c0-0.2,0.3-0.4,0.3-0.6c0-0.2-0.1-0.4-0.1-0.6c0-0.2,0.3-0.4,0.3-0.6c0-0.2-0.1-0.4-0.1-0.6c0-0.2,0-0.4,0-0.6
			c0-0.2,0.5-0.3,0.5-0.5c0-0.2,0-0.4,0-0.6c0-0.2-0.1-0.4-0.1-0.6c0-0.2,0.1-0.4,0.1-0.6c0-0.2,0-0.4,0.1-0.6
			c0-0.2-0.4-0.5-0.3-0.7c0-0.2,0.7-0.3,0.7-0.5c0-0.2,0.1-0.4,0.1-0.6c0-0.2-0.1-0.4-0.1-0.6c0-0.2,0-0.4,0.1-0.6
			c0-0.2-0.4-0.5-0.3-0.7c0-0.2,0.8-0.3,0.8-0.5c0-0.2-0.6-0.5-0.6-0.7c0-0.2,0.2-0.4,0.2-0.6c0-0.2,0.1-0.4,0.1-0.6
			c0-0.2,0.3-0.4,0.4-0.6c0-0.2-0.1-0.4,0-0.6c0-0.2,0.1-0.4,0.1-0.6c0-0.2,0.1-0.4,0.2-0.6c0-0.2,0.6-0.3,0.6-0.5
			c0-0.2-0.7-0.6-0.6-0.8c0-0.2,0.8-0.2,0.9-0.4c0-0.2,0.1-0.4,0.1-0.6c0-0.2-0.2-0.5-0.2-0.7c0-0.2,0.1-0.4,0.1-0.6
			c0.1-0.2,0.3-0.3,0.4-0.5c0.1-0.2-0.3-0.5-0.3-0.7c0.1-0.2-0.1-0.4,0-0.6c0.1-0.2,0.5-0.3,0.6-0.5c0.1-0.2,0.4-0.3,0.5-0.5
			c0.1-0.2-0.4-0.6-0.4-0.7c0.1-0.2,0.4-0.3,0.5-0.5c0.1-0.2,0.3-0.3,0.4-0.5c0.1-0.2,0.2-0.4,0.3-0.6c0.1-0.2-0.5-0.6-0.5-0.8
			c0.1-0.2,0.6-0.2,0.7-0.4c0.1-0.2,0-0.4,0.1-0.6c0.1-0.2,0.3-0.3,0.4-0.5c0.1-0.2,0.2-0.4,0.3-0.5c0.2-0.4-0.4-0.6-0.1-0.7
			c0.3-0.1,0.3-0.1,0.6-0.1c0.3,0,0.3,0.1,0.6,0.1c0.3,0,0.3-0.4,0.6-0.4c0.3,0,0.3,0.6,0.6,0.6c0.3,0,0.3,0.1,0.6,0.1
			c0.3,0,0.3-0.2,0.6-0.2c0.3,0,0.3-0.3,0.6-0.3c0.3,0,0.3,0,0.6,0c0.3,0,0.3,0.7,0.6,0.7c0.3,0,0.3-0.4,0.6-0.4
			c0.3,0,0.3-0.2,0.6-0.2c0.3,0,0.3,0.5,0.6,0.5c0.3,0,0.3-0.2,0.6-0.2c0.3,0,0.3-0.5,0.6-0.5c0.3,0,0.3,0.5,0.6,0.5
			c0.3,0,0.3-0.4,0.6-0.4c0.3,0,0.3,0.6,0.6,0.6c0.3,0,0.3-0.7,0.6-0.7c0.3,0,0.3,0.3,0.6,0.3c0.3,0,0.3-0.3,0.6-0.3
			c0.3,0,0.3,0.4,0.6,0.4c0.3,0,0.3-0.1,0.6-0.1c0.3,0,0.3,0,0.6,0c0.3,0,0.3,0,0.6,0c0.3,0,0.3,0.5,0.6,0.5c0.3,0,0.3-0.3,0.6-0.3
			c0.3,0,0.3,0.3,0.6,0.3c0.3,0,0.3,0,0.6,0c0.3,0,0.3-0.6,0.6-0.6c0.3,0,0.3,0,0.6,0c0.3,0,0.3,0,0.6,0c0.3,0,0.3,0.3,0.6,0.3
			c0.3,0,0.3,0.2,0.6,0.2c0.3,0,0.3-0.2,0.6-0.2c0.3,0,0.3-0.5,0.6-0.5c0.3,0,0.3,0.4,0.6,0.4c0.3,0,0.3-0.2,0.6-0.2
			c0.3,0,0.3,0.5,0.6,0.5c0.3,0,0.3-0.5,0.6-0.5c0.3,0,0.3,0,0.6,0c0.3,0,0.3,0.3,0.6,0.3c0.3,0,0.3-0.5,0.6-0.5
			c0.3,0,0.3,0.2,0.6,0.2c0.3,0,0.4-0.1,0.7,0c0,0.2,0,0.6,0,0.8c0,0.2-0.4,0.4-0.4,0.6c0,0.2,0.3,0.4,0.3,0.6
			c0,0.2,0.2,0.4,0.2,0.6c0,0.2,0.2,0.4,0.2,0.6c0,0.2,0,0.4,0.1,0.6c0,0.2-0.5,0.5-0.5,0.7c0,0.2,0.5,0.3,0.6,0.5
			c0,0.2-0.1,0.4-0.1,0.6c0,0.2,0.5,0.3,0.5,0.5c0,0.2,0.1,0.4,0.2,0.6c0,0.2,0,0.4,0.1,0.6c0.1,0.2-0.3,0.5-0.2,0.7
			c0.1,0.2,0,0.4,0.1,0.6c0.1,0.2,0.2,0.4,0.3,0.6c0.1,0.2,0.4,0.3,0.5,0.5c0.1,0.2,0.2,0.4,0.2,0.6c0.1,0.2,0.1,0.4,0.2,0.6
			c0.1,0.2-0.3,0.6-0.2,0.7c0.1,0.2,0,0.4,0.1,0.6c0.1,0.2,0.9,0,0.9,0.2c0.1,0.2-0.3,0.6-0.2,0.8c0.1,0.2,0.2,0.4,0.3,0.5
			c0.1,0.2,0.6,0.1,0.7,0.3c0.1,0.2-0.4,0.7-0.3,0.9c0.1,0.2,0.6,0.1,0.7,0.3c0.1,0.2,0.3,0.3,0.5,0.4c0.1,0.2-0.3,0.7-0.2,0.9
			c0.1,0.2,0.9-0.1,1,0.1c0.1,0.2-0.1,0.6,0,0.8c0.1,0.2,0.5,0.1,0.7,0.3c0.1,0.2-0.3,0.8-0.2,0.9c0.1,0.2,0.5,0.2,0.6,0.3
			c0.1,0.2,0.5,0.1,0.6,0.3c0.1,0.2,0,0.6,0.1,0.7c0.1,0.2,0.4,0.2,0.5,0.4c0.1,0.2,0.6,0,0.8,0.1c0.1,0.1-0.2,0.7,0,0.9
			c0.1,0.1,0.5,0.1,0.6,0.3c0.1,0.1,0.3,0.3,0.5,0.4c0.1,0.1,0.1,0.5,0.2,0.6c0.1,0.1,0.7-0.2,0.9-0.1c0.2,0.1,0.1,0.5,0.3,0.6
			c0.2,0.1,0.5,0.1,0.6,0.2c0.2,0.1,0.1,0.5,0.3,0.6c0.2,0.1,0.5,0,0.7,0.1c0.2,0.1,0,0.6,0.2,0.7c0.2,0.1,0.2,0.4,0.4,0.5
			c0.2,0.1,0.7-0.3,0.9-0.2c0.2,0.1,0.3,0.3,0.5,0.4c0.2,0.1,0.2,0.5,0.3,0.6c0.2,0.1,0.1,0.5,0.3,0.6c0.2,0.1,0.6-0.1,0.7,0
			c0.2,0.1,0.1,0.6,0.3,0.7c0.2,0.1,0.3,0.3,0.5,0.4c0.2,0.1,0.8-0.5,1-0.3c0.2,0.1,0.1,0.6,0.3,0.7c0.2,0.1,0.5,0,0.7,0.1
			c0.2,0.1,0.1,0.6,0.3,0.7c0.2,0.1,0.5-0.1,0.7,0c0.2,0.1,0.5,0,0.7,0.1c0.2,0.1,0.4,0.2,0.5,0.3c0.2,0.1,0,0.8,0.2,0.9
			c0.2,0.1,0.6-0.2,0.8-0.1c0.2,0.1,0.5,0,0.6,0.1c0.2,0.1,0.1,0.8,0.2,0.9c0.2,0.1,0.6-0.3,0.8-0.2c0.2,0.1,0.1,0.7,0.3,0.8
			c0.2,0.1,0.5-0.1,0.7,0c0.2,0.1,0.5-0.2,0.7-0.1c0.2,0.1,0.1,0.7,0.3,0.8c0.2,0.1,0.6-0.2,0.8-0.2c0.2,0.1,0.3,0.3,0.5,0.4
			c0.2,0.1,0.2,0.6,0.4,0.7c0.2,0.1,0.4,0.2,0.5,0.3c0.2,0.1,0.7-0.5,0.9-0.4c0.2,0.1,0.1,0.7,0.3,0.8c0.2,0.1,0.6-0.3,0.8-0.2
			c0.2,0.1,0.2,0.6,0.4,0.7c0.2,0.1,0.5,0,0.6,0.1c0.2,0.1,0.6-0.3,0.8-0.2c0.2,0.1,0.4,0.2,0.6,0.2c0.2,0.1,0.4,0.2,0.5,0.3
			c0.2,0.1,0.2,0.7,0.4,0.7c0.2,0.1,0.6-0.3,0.7-0.2c0.2,0.1,0.3,0.2,0.5,0.3c0.2,0.1,0.3,0.3,0.5,0.4c0.2,0.1,0.3,0.4,0.5,0.5
			c0.2,0.1,0.5-0.3,0.7-0.2c0.2,0.1,0.5-0.1,0.7,0c0.2,0.1,0.4,0.1,0.6,0.2c0.2,0.1,0.2,0.7,0.4,0.8c0.2,0.1,0.5-0.3,0.7-0.2
			c0.2,0.1,0.3,0.3,0.5,0.4s0.4,0,0.6,0c0.2,0.1,0.2,0.6,0.4,0.7c0.2,0.1,0.5-0.1,0.7-0.1c0.2,0.1,0.4,0.1,0.6,0.2
			c0.2,0.1,0.3,0.4,0.5,0.5c0.2,0.1,0.5-0.2,0.7-0.1c0.2,0.1,0.3,0.3,0.5,0.3c0.2,0.1,0.4,0.2,0.6,0.2c0.2,0.1,0.5-0.1,0.7-0.1
			c0.2,0.1,0.3,0.6,0.5,0.6c0.2,0.1,0.4,0,0.6,0.1c0.2,0.1,0.4,0.2,0.6,0.3s0.4,0.1,0.6,0.1c0.2,0.1,0.4,0.1,0.6,0.2
			c0.2,0.1,0.4,0.1,0.6,0.2c0.2,0.1,0.6-0.6,0.8-0.5c0.2,0.1,0.3,0.5,0.5,0.5c0.2,0.1,0.4-0.1,0.6,0c0.2,0.1,0.4-0.1,0.6,0
			c0.2,0.1,0.3,0.4,0.5,0.4c0.2,0.1,0.3,0.4,0.5,0.5c0.2,0.1,0.4,0,0.6,0.1c0.2,0.1,0.5-0.2,0.7-0.1c0.2,0.1,0.4,0.2,0.6,0.3
			c0.2,0.1,0.4,0.2,0.6,0.2c0.2,0,0.3,0.5,0.5,0.5c0.2,0,0.5-0.2,0.7-0.2c0.2,0,0.5-0.2,0.7-0.1c0.2,0,0.3,0.4,0.5,0.4
			c0.2,0,0.3,0.4,0.5,0.4c0.2,0,0.4-0.1,0.7-0.1c0.2,0,0.4,0.3,0.6,0.4c0.2,0,0.5-0.5,0.7-0.4c0.2,0,0.3,0.4,0.5,0.5
			c0.2,0,0.5-0.3,0.7-0.3c0.2,0,0.4-0.1,0.6,0C198.6,261.3,198.6,261.8,198.8,261.9"/>
	</defs>
	<use xlink:href="#XMLID_8_"  style="overflow:visible;fill:#096A52;"/>
	<clipPath id="XMLID_21_">
		<use xlink:href="#XMLID_8_"  style="overflow:visible;"/>
	</clipPath>
</g>
<path class="st4" d="M178.8,366.3l5-0.1c0,0,4.4,0.5,6.2,2c1.8,1.6-0.8,3.6-0.8,3.6l-12.1,0.2C177.2,372,174.4,366.3,178.8,366.3"/>
<g>
	<defs>
		<path id="XMLID_10_" d="M95.4,300.9c0-0.1,0.3-0.2,0.4-0.5c0.1-0.2-0.4-0.6-0.4-0.8c0.1-0.2,0.3-0.3,0.4-0.5
			c0.1-0.2,0.5-0.2,0.6-0.4c0.1-0.2,0.3-0.3,0.4-0.5c0.1-0.2,0.1-0.4,0.2-0.6c0.1-0.2-0.2-0.5-0.1-0.7c0.1-0.2,0.2-0.3,0.3-0.5
			c0.1-0.2,0.2-0.4,0.3-0.5c0.1-0.2-0.1-0.5,0-0.6c0.1-0.2,0-0.4,0-0.6c0.1-0.2-0.1-0.5,0-0.7c0.1-0.2,0.6-0.2,0.7-0.4
			c0.1-0.2,0.3-0.3,0.4-0.5c0.1-0.2-0.2-0.5-0.1-0.7c0.1-0.2,0.2-0.3,0.3-0.5c0.1-0.2,0.1-0.4,0.1-0.6c0.1-0.2,0.4-0.3,0.4-0.5
			c0.1-0.2-0.2-0.5-0.1-0.7c0.1-0.2-0.2-0.5-0.1-0.7c0.1-0.2,0.3-0.3,0.3-0.5c0.1-0.2,0.6-0.2,0.6-0.4c0.1-0.2,0-0.4,0-0.6
			c0.1-0.2,0.2-0.4,0.2-0.6c0.1-0.2,0.4-0.3,0.5-0.5c0.1-0.2-0.5-0.6-0.4-0.8c0.1-0.2,0.1-0.4,0.2-0.6c0.1-0.2,0.7-0.2,0.7-0.4
			c0.1-0.2-0.1-0.5,0-0.7c0.1-0.2,0.2-0.4,0.3-0.6c0.1-0.2,0.2-0.4,0.3-0.6c0.1-0.2-0.1-0.5-0.1-0.7c0.1-0.2-0.1-0.5-0.1-0.7
			c0.1-0.2,0.3-0.4,0.3-0.5c0.1-0.2,0.4-0.3,0.4-0.5c0.1-0.2,0.2-0.4,0.3-0.6c0-0.2-0.3-0.5-0.3-0.7c0-0.2,0.5-0.3,0.5-0.5
			c0-0.2,0-0.4,0-0.6c0-0.2-0.1-0.4-0.1-0.6c0-0.2,0.3-0.4,0.3-0.6c0-0.2-0.3-0.5-0.1-0.7c0.1-0.1,0.6,0.3,0.8,0.2
			c0.2-0.1,0.3-0.3,0.5-0.4c0.2,0,0.4-0.1,0.6-0.1c0.2,0,0.4-0.4,0.6-0.4c0.2,0,0.4,0,0.6-0.1c0.2,0,0.4,0.2,0.6,0.2
			c0.2,0,0.4-0.1,0.6-0.1c0.2,0,0.4-0.2,0.6-0.2c0.2,0,0.4,0.6,0.6,0.6c0.2,0,0.4-0.5,0.6-0.5c0.2,0,0.4,0.3,0.6,0.3
			c0.2,0,0.4-0.1,0.6-0.1c0.2,0,0.4,0.1,0.6,0.1c0.2,0,0.4-0.2,0.6-0.2c0.2,0,0.4,0.3,0.6,0.3c0.2,0,0.4-0.3,0.6-0.3
			c0.2,0,0.4-0.3,0.6-0.3c0.2,0,0.4-0.2,0.6-0.1c0.2,0,0.4,0.8,0.6,0.8c0.2,0,0.4-0.6,0.7-0.6c0.2,0,0.4-0.1,0.6-0.1
			c0.2,0,0.4,0.6,0.6,0.6c0.2,0,0.4-0.1,0.6-0.1c0.2,0,0.4-0.2,0.6-0.2c0.2,0,0.4-0.1,0.6-0.1c0.2,0,0.4,0,0.6,0.1
			c0.2,0,0.3,0.7,0.6,0.7c0.2,0,0.5-0.6,0.7-0.6c0.2,0,0.4,0.6,0.6,0.6c0.2,0,0.4,0.2,0.6,0.3c0.2,0,0.4-0.3,0.6-0.3
			c0.2,0,0.4,0.3,0.6,0.4c0.2,0,0.4,0,0.6,0.1c0.2,0,0.5-0.6,0.7-0.6c0.2,0,0.3,0.7,0.5,0.7c0.2,0,0.4-0.1,0.6-0.1
			c0.2,0,0.4,0,0.6,0c0.2,0,0.4,0.4,0.6,0.4c0.2,0,0.5-0.5,0.7-0.5c0.2,0,0.4,0.1,0.6,0.1c0.2,0,0.4-0.1,0.6,0
			c0.2,0,0.3,0.6,0.5,0.6c0.2,0,0.5-0.7,0.7-0.7c0.2,0,0.3,0.6,0.5,0.6c0.2,0,0.5-0.5,0.7-0.4c0.2,0,0.3,0.6,0.5,0.6
			c0.2,0,0.5-0.3,0.7-0.2c0.2,0,0.4-0.1,0.6-0.1c0.2,0,0.4,0.1,0.6,0.1c0.2,0,0.3,0.6,0.5,0.7c0.2,0,0.4,0.1,0.6,0.1
			c0.2,0,0.5-0.6,0.7-0.5c0.2,0,0.4,0.1,0.6,0.1c0.2,0,0.4,0,0.6,0s0.3,0.4,0.6,0.5c0.2,0,0.4,0.1,0.6,0.1c0.2,0,0.4-0.1,0.6,0
			c0.2,0,0.4,0.1,0.6,0.2c0.2,0,0.4-0.1,0.6-0.1c0.2,0,0.3,0.7,0.5,0.7c0.2,0,0.5-0.6,0.7-0.6c0.2,0,0.3,0.6,0.5,0.6
			c0.2,0,0.5-0.2,0.7-0.2c0.2,0,0.4,0.3,0.6,0.3c0.2,0,0.4,0.3,0.6,0.4c0.2,0,0.5-0.5,0.7-0.4c0.2,0,0.4,0,0.6,0
			c0.2,0,0.4,0.1,0.6,0.2c0.2,0,0.3,0.7,0.5,0.7c0.2,0,0.5-0.4,0.7-0.4c0.2,0,0.3,0.5,0.5,0.6c0.2,0,0.4,0.2,0.6,0.2
			c0.2,0,0.4,0.1,0.6,0.1c0.2,0,0.5-0.3,0.7-0.3c0.2,0,0.3,0.6,0.5,0.6c0.2,0,0.4,0,0.6,0.1c0.2,0,0.4,0,0.6,0
			c0.2,0,0.5-0.5,0.7-0.4c0.2,0.1,0.4,0.2,0.6,0.3c0.2,0.1,0.4,0.1,0.6,0.1c0.2,0.1,0.3,0.6,0.5,0.7c0.2,0.1,0.4-0.2,0.6-0.2
			c0.2,0,0.3-0.4,0.5-0.4c0.2,0,0.4,0,0.6-0.1c0.2,0,0.4-0.1,0.6-0.1c0.2,0,0.5,0.4,0.7,0.3c0.2,0,0.4,0,0.6,0
			c0.2,0,0.4-0.2,0.6-0.3c0.2,0,0.4,0.1,0.6,0.1c0.2,0,0.4-0.2,0.6-0.3c0.2,0,0.4,0.1,0.6,0c0.2,0,0.4-0.1,0.6-0.2
			c0.2,0,0.4-0.1,0.6-0.2c0.2,0,0.3-0.5,0.5-0.6s0.5,0.5,0.7,0.4c0.2,0,0.4,0,0.6-0.1c0.2,0,0.4-0.1,0.6-0.1c0.2,0,0.3-0.4,0.5-0.5
			c0.2,0,0.5,0.2,0.7,0.2c0.2,0,0.3-0.7,0.5-0.7c0.2,0,0.5,0.4,0.7,0.4c0.2,0,0.3-0.6,0.5-0.7c0.2,0,0.5,0.3,0.7,0.2
			c0.2,0,0.4,0.1,0.6,0.1c0.2,0,0.4-0.1,0.6-0.1c0.2,0,0.3-0.4,0.5-0.5c0.2,0,0.4-0.2,0.6-0.3c0.2,0,0.5,0.3,0.7,0.3
			c0.2,0,0.4-0.2,0.6-0.2c0.2,0,0.5,0.3,0.7,0.3c0.2,0,0.4-0.3,0.6-0.3c0.2,0,0.4-0.3,0.6-0.3c0.2,0,0.4-0.3,0.6-0.3
			c0.2,0,0.5,0.2,0.7,0.2c0.2,0,0.4,0,0.6,0c0.2,0,0.4,0.1,0.6,0.1c0.2,0,0.4-0.1,0.6-0.1c0.2,0,0.4-0.1,0.6-0.1
			c0.2,0,0.4-0.5,0.6-0.5c0.2,0,0.4,0.1,0.6,0c0.2,0,0.4-0.1,0.6-0.1c0.2,0,0.4,0,0.6,0c0.2,0,0.5,0.4,0.7,0.4
			c0.2,0,0.4,0.1,0.6,0.1c0.2,0,0.4-0.1,0.6-0.1c0.2,0,0.4-0.1,0.6-0.2c0.2,0,0.4-0.1,0.6-0.1c0.2,0,0.4,0.1,0.6,0
			c0.2,0,0.4-0.5,0.6-0.5c0.2,0,0.4-0.2,0.6-0.2c0.2,0,0.5,0.6,0.7,0.6c0.2,0,0.4-0.5,0.6-0.5c0.2,0,0.4-0.2,0.6-0.2
			c0.2,0,0.4-0.1,0.6-0.2c0.2,0,0.4,0,0.6,0c0.2,0,0.4,0,0.6,0c0.2,0,0.4,0.4,0.6,0.4c0.2,0,0.4-0.1,0.6-0.1c0.2,0,0.4-0.2,0.6-0.2
			c0.2,0,0.4,0.1,0.6,0c0.2,0,0.4-0.4,0.6-0.4c0.2,0,0.4,0.2,0.6,0.2c0.2,0,0.4,0.1,0.6,0.1c0.2,0,0.4,0.2,0.6,0.2
			c0.2,0,0.4-0.3,0.6-0.3c0.2,0,0.4,0,0.6,0c0.2,0,0.4,0.4,0.6,0.4c0.2,0,0.4-0.5,0.6-0.5c0.2,0,0.4-0.1,0.6-0.1
			c0.2,0,0.4-0.1,0.6-0.1c0.2,0,0.4-0.1,0.6-0.1c0.2,0,0.4,0.3,0.6,0.3c0.2,0,0.4-0.3,0.6-0.3c0.2,0,0.4,0.8,0.6,0.8
			c0.2,0,0.5-0.6,0.7-0.6c0.2,0,0.4,0.2,0.6,0.2c0.2,0,0.3,0.4,0.5,0.5c0.2,0.1,0.3,0.3,0.5,0.3c0.2,0.1,0.4,0,0.6,0.1
			c0.2,0.1,0.1,0.2,0.1,0.4c0,0.2,0.3,0.4,0.3,0.6c0,0.2-0.3,0.4-0.3,0.7c0,0.2,0.2,0.4,0.3,0.6c0,0.2,0.6,0.3,0.7,0.5
			c0,0.2-0.2,0.5-0.1,0.7c0,0.2,0.1,0.4,0.2,0.6c0,0.2-0.2,0.5-0.1,0.7c0.1,0.2,0.4,0.3,0.4,0.5c0.1,0.2-0.2,0.5-0.1,0.7
			c0.1,0.2,0.2,0.4,0.2,0.6c0.1,0.2,0.5,0.3,0.6,0.5c0.1,0.2-0.1,0.5-0.1,0.7c0.1,0.2,0.3,0.3,0.4,0.5c0.1,0.2-0.1,0.4,0,0.6
			c0.1,0.2,0.3,0.3,0.3,0.5c0.1,0.2,0.2,0.4,0.3,0.6c0.1,0.2-0.3,0.5-0.2,0.7c0.1,0.2,0.2,0.4,0.2,0.6c0.1,0.2,0.3,0.3,0.3,0.5
			c0.1,0.2,0.1,0.4,0.2,0.6c0.1,0.2,0.2,0.4,0.2,0.6c0.1,0.2,0.6,0.2,0.6,0.4s-0.5,0.6-0.4,0.8c0.1,0.2,0.1,0.4,0.2,0.6
			s0.3,0.3,0.4,0.5c0.1,0.2,0.2,0.4,0.2,0.6c0.1,0.2,0.5,0.2,0.6,0.4c0.1,0.2-0.5,0.6-0.5,0.8c0.1,0.2,0.8,0.2,0.9,0.3
			c0.1,0.2,0,0.4,0.1,0.6c0.1,0.2,0.1,0.4,0.2,0.6c0.1,0.2-0.1,0.5,0,0.7c0.1,0.2,0.3,0.3,0.3,0.5c0.1,0.2,0.2,0.4,0.2,0.6
			c0.1,0.2,0.1,0.4,0.2,0.6c0.1,0.2-0.3,0.6-0.3,0.8c0.1,0.2,0.9,0.1,0.9,0.3c0.1,0.2-0.6,0.7-0.5,0.8c0.1,0.2,0.2,0.4,0.2,0.6
			c0.1,0.2,0.5,0.3,0.5,0.5c0.1,0.3,0.2,0.5,0.2,0.6c0,0.1-0.2,0.4-0.1,0.7c0,0.2,0.5,0.3,0.6,0.5c0,0.2,0.3,0.3,0.3,0.6
			c0,0.2-0.3,0.5-0.3,0.7c0.1,0.2-0.2,0.5-0.1,0.7c0.1,0.2,0.6,0.3,0.7,0.5c0.1,0.2-0.2,0.5-0.2,0.7c0.1,0.2-0.1,0.4,0,0.6
			c0.1,0.2,0,0.4,0.1,0.6c0.1,0.2,0.8,0.2,0.8,0.4c0.1,0.2-0.4,0.5-0.3,0.7c0.1,0.2,0.2,0.4,0.3,0.6c0.1,0.2-0.1,0.5,0,0.7
			c0.1,0.2,0,0.4,0.1,0.6c0.1,0.2,0.5,0.3,0.5,0.5c0.1,0.2,0.2,0.4,0.3,0.6c0.1,0.2,0,0.4,0,0.6c0.1,0.2,0.5,0.3,0.5,0.5
			c0.1,0.2-0.4,0.6-0.4,0.7c0.1,0.2,0,0.3,0,0.5c0,0.2,0.1,0.4,0,0.6c-0.1,0.2,0,0.6-0.1,0.7c-0.1,0.1-0.4,0.3-0.6,0.4
			c-0.2,0.1-0.5-0.5-0.7-0.5c-0.2,0-0.4,0.4-0.6,0.5c-0.2,0-0.4,0.2-0.6,0.2c-0.2,0-0.4-0.5-0.6-0.5c-0.2,0-0.4,0.2-0.6,0.2
			c-0.2,0-0.4,0.5-0.6,0.5c-0.2,0-0.4-0.5-0.6-0.5c-0.2,0-0.4,0.4-0.6,0.4c-0.2,0-0.4-0.6-0.6-0.6c-0.2,0-0.4,0.7-0.6,0.7
			c-0.2,0-0.4-0.3-0.6-0.3c-0.2,0-0.4,0.2-0.6,0.2c-0.2,0-0.4-0.4-0.6-0.4c-0.2,0-0.4,0.1-0.6,0c-0.2,0-0.4,0-0.6,0
			c-0.2,0-0.4,0-0.6,0c-0.2,0-0.4-0.6-0.6-0.6c-0.2,0-0.4,0.3-0.6,0.3c-0.2,0-0.4-0.3-0.6-0.3c-0.2,0-0.4-0.1-0.6-0.1
			c-0.2,0-0.5,0.5-0.7,0.5c-0.2,0-0.4,0-0.6-0.1c-0.2,0-0.4-0.1-0.6-0.1c-0.2,0-0.4-0.3-0.6-0.4c-0.2,0-0.4-0.3-0.6-0.3
			c-0.2,0-0.4,0.1-0.6,0.1c-0.2,0-0.5,0.4-0.7,0.4c-0.2,0-0.3-0.5-0.5-0.5c-0.2,0-0.4,0.1-0.6,0.1c-0.2,0-0.3-0.6-0.5-0.7
			c-0.2-0.1-0.5,0.4-0.7,0.4c-0.2-0.1-0.4-0.1-0.6-0.2c-0.2-0.1-0.3-0.4-0.5-0.4c-0.2-0.1-0.5,0.3-0.7,0.3c-0.2-0.1-0.3-0.3-0.5-0.4
			c-0.2-0.1-0.4-0.2-0.6-0.2c-0.2-0.1-0.3-0.3-0.5-0.4c-0.2-0.1-0.2-0.5-0.4-0.6c-0.2-0.1-0.5,0.1-0.7,0.1c-0.2-0.1-0.4,0-0.6-0.1
			c-0.2-0.1-0.4,0-0.6,0c-0.2-0.1-0.4-0.1-0.6-0.2c-0.2-0.1-0.2-0.6-0.4-0.7c-0.2,0-0.5,0.4-0.7,0.3c-0.2,0-0.4-0.3-0.6-0.3
			c-0.2,0-0.5,0.3-0.7,0.3c-0.2,0-0.4,0-0.6-0.1c-0.2,0-0.4-0.1-0.6-0.2c-0.2,0-0.4-0.4-0.6-0.5c-0.2,0-0.4-0.2-0.6-0.2
			c-0.2,0-0.4,0-0.6,0c-0.2,0-0.4,0.3-0.6,0.3c-0.2,0-0.4,0-0.6,0s-0.4,0-0.6,0c-0.2,0-0.4-0.4-0.6-0.4c-0.2,0-0.4-0.1-0.6-0.1
			c-0.2,0-0.4,0.8-0.6,0.8c-0.2,0-0.4-0.5-0.6-0.5c-0.2,0-0.4,0-0.6,0c-0.2,0-0.4,0.5-0.6,0.5c-0.2,0-0.5-0.6-0.7-0.6
			c-0.2,0-0.4,0.4-0.6,0.5s-0.4,0.2-0.6,0.2c-0.2,0-0.5-0.6-0.7-0.6c-0.2,0-0.3,0.8-0.5,0.8c-0.2,0-0.5-0.4-0.7-0.4
			c-0.2,0-0.4,0.4-0.6,0.4c-0.2,0-0.5-0.7-0.7-0.6c-0.2,0-0.4,0.3-0.6,0.3c-0.2,0-0.4,0.3-0.6,0.4c-0.2,0-0.5-0.3-0.7-0.3
			c-0.2,0-0.4,0.2-0.6,0.2c-0.2,0-0.3,0.6-0.5,0.6c-0.2,0-0.5-0.5-0.7-0.5c-0.2,0-0.4,0.3-0.6,0.4c-0.2,0-0.4,0.1-0.6,0.1
			c-0.2,0-0.5-0.2-0.7-0.2c-0.2,0-0.3,0.7-0.5,0.7c-0.2,0-0.5-0.2-0.7-0.2s-0.4,0.3-0.6,0.3c-0.2,0-0.5-0.2-0.7-0.2
			c-0.2,0-0.3,0.4-0.5,0.4c-0.2,0-0.5-0.4-0.7-0.3c-0.2,0-0.4-0.1-0.6-0.1c-0.2,0-0.3,0.7-0.5,0.8c-0.2,0-0.4,0-0.6,0.1
			c-0.2,0-0.5-0.2-0.7-0.1c-0.2,0-0.5-0.3-0.7-0.2c-0.2,0-0.3,0.5-0.5,0.5c-0.2,0-0.5-0.4-0.7-0.3c-0.2,0-0.4,0-0.6,0.1
			c-0.2,0-0.3,0.9-0.5,0.9c-0.2,0-0.5-0.4-0.7-0.4c-0.2,0-0.4,0.3-0.6,0.4c-0.2,0-0.5-0.4-0.7-0.4c-0.2,0-0.4,0.4-0.6,0.4
			c-0.2,0-0.4,0.3-0.6,0.3c-0.2,0-0.4,0.1-0.6,0.1c-0.2,0-0.5-0.7-0.7-0.6c-0.2,0-0.4,0.5-0.6,0.5c-0.2,0-0.4,0.2-0.6,0.2
			c-0.2,0-0.4-0.7-0.6-0.7c-0.2,0-0.4,0.5-0.6,0.5c-0.2,0-0.4-0.6-0.6-0.6c-0.2,0-0.4,0.3-0.6,0.3c-0.2,0-0.4,0.4-0.6,0.4
			c-0.2,0-0.4-0.6-0.6-0.6c-0.2,0-0.5,0.4-0.7,0.4c-0.2,0-0.4-0.2-0.6-0.2c-0.2,0-0.4-0.5-0.6-0.5c-0.2,0-0.4-0.1-0.6-0.1
			c-0.2,0-0.5,0.7-0.7,0.6c-0.2,0-0.3-0.7-0.5-0.7c-0.2,0-0.5,0.5-0.7,0.4c-0.2,0-0.3-0.6-0.5-0.6c-0.2,0-0.4,0.1-0.6,0.1
			c-0.2,0-0.5,0.4-0.7,0.4c-0.2,0-0.4-0.1-0.6-0.1c-0.2,0-0.4-0.1-0.6-0.2c-0.2,0-0.3-0.6-0.5-0.7s-0.5,0.4-0.7,0.3
			c-0.2,0-0.4-0.2-0.6-0.2c-0.2-0.1-0.3-0.3-0.5-0.3c-0.2-0.1-0.3-0.3-0.5-0.4c-0.2-0.1-0.5,0.3-0.7,0.3c-0.2-0.1-0.5,0.1-0.6,0.1
			c-0.2-0.1-0.4-0.1-0.6-0.2c-0.2-0.1-0.2-0.7-0.4-0.7c-0.2-0.1-0.5,0.3-0.7,0.3c-0.2-0.1-0.3-0.3-0.5-0.4c-0.2-0.1-0.4,0.1-0.6,0
			c-0.2,0-0.3-0.6-0.5-0.6c-0.2,0-0.5,0.2-0.7,0.1c-0.2,0-0.4,0-0.6-0.1c-0.2,0-0.3-0.4-0.5-0.5c-0.2,0-0.5,0.2-0.7,0.2
			c-0.2,0-0.4-0.2-0.6-0.3c-0.2,0-0.4-0.1-0.6-0.2c-0.2,0-0.4,0.2-0.6,0.1c-0.2,0-0.4-0.5-0.6-0.5c-0.2,0-0.4,0-0.6,0
			c-0.2,0-0.4-0.1-0.6-0.1c-0.2,0-0.4,0-0.6,0c-0.2,0-0.4,0-0.6,0c-0.2,0-0.4,0-0.6,0c-0.2,0-0.3,0.8-0.5,0.8
			c-0.2,0-0.4-0.3-0.6-0.3c-0.2,0-0.4,0.2-0.6,0.3c-0.2,0-0.4,0.2-0.5,0.3c-0.2,0-0.4-0.2-0.6-0.1c-0.2,0.1-0.5-0.2-0.7-0.1
			c-0.2,0.1-0.4,0.2-0.5,0.3c-0.2,0.1-0.3,0.4-0.4,0.5c-0.2,0.1-0.4,0.1-0.6,0.2c-0.2,0.1-0.4,0.1-0.6,0.2c-0.2,0.1-0.5-0.2-0.7-0.1
			c-0.2,0.1-0.2,0.5-0.4,0.6c-0.2,0.1-0.3,0.4-0.5,0.5c-0.2,0.1-0.5-0.1-0.7,0c-0.2,0.1-0.5-0.1-0.7,0c-0.2,0.1-0.3,0.3-0.5,0.4
			c-0.2,0.1-0.5-0.1-0.7,0c-0.2,0.1-0.2,0.7-0.4,0.8c-0.2,0.1-0.5-0.2-0.7-0.2c-0.2,0.1-0.3,0.5-0.5,0.5c-0.2,0.1-0.4,0.3-0.6,0.3
			c-0.2,0.1-0.5-0.4-0.7-0.3c-0.2,0-0.5-0.1-0.7-0.1c-0.2,0-0.4,0.1-0.6,0.2c-0.2,0-0.3,0.6-0.5,0.7c-0.2,0-0.5-0.6-0.7-0.5
			c-0.2,0-0.3,0.8-0.5,0.8c-0.2,0-0.5-0.5-0.7-0.5c-0.2,0-0.4-0.1-0.6-0.1c-0.2,0-0.4,0.2-0.6,0.3c-0.2,0-0.4,0.6-0.6,0.6
			c-0.2,0-0.4-0.2-0.6-0.2c-0.2,0-0.4,0-0.6,0c-0.2,0-0.4-0.2-0.6-0.2c-0.2,0-0.4-0.1-0.6-0.1c-0.2,0-0.4,0.5-0.6,0.5
			c-0.2,0-0.4-0.6-0.6-0.6c-0.2,0-0.4,0.3-0.6,0.3c-0.2,0-0.4-0.5-0.6-0.5c-0.2,0-0.4,0.1-0.6,0.1c-0.2,0-0.4,0.2-0.6,0.2
			c-0.2,0-0.4-0.1-0.6-0.1c-0.2,0-0.4-0.2-0.6-0.2c-0.2,0-0.4-0.1-0.6-0.1c-0.2,0-0.4,0.1-0.6,0.1c-0.2,0-0.5,0.1-0.7,0
			c-0.2-0.1-0.2-0.4-0.4-0.5c-0.1-0.2-0.5-0.3-0.5-0.5c-0.1-0.2,0.2-0.4,0.2-0.7c0-0.2,0-0.4,0-0.6c0-0.2-0.4-0.5-0.3-0.7
			c0-0.2,0.4-0.4,0.4-0.6c0-0.2,0.3-0.4,0.3-0.6c0-0.2-0.2-0.4-0.2-0.7c0-0.2-0.1-0.4-0.1-0.6c0-0.2,0.5-0.4,0.5-0.6
			c0-0.2-0.2-0.4-0.2-0.7c0-0.2-0.2-0.5-0.2-0.7c0-0.2,0.7-0.3,0.7-0.5c0-0.2-0.3-0.5-0.3-0.7c0-0.2,0.4-0.4,0.4-0.6
			c0-0.2,0.1-0.4,0.1-0.6c0-0.2-0.4-0.5-0.3-0.7c0-0.2-0.1-0.4,0-0.6c0-0.2,0.4-0.4,0.4-0.6c0-0.2,0.1-0.4,0.2-0.6
			c0-0.2,0-0.5,0-0.6C95.4,301.2,95.4,301,95.4,300.9"/>
	</defs>
	<use xlink:href="#XMLID_10_"  style="overflow:visible;fill:#096A52;"/>
	<clipPath id="XMLID_22_">
		<use xlink:href="#XMLID_10_"  style="overflow:visible;"/>
	</clipPath>
</g>
<g>
	<path class="st5" d="M102.4,275.4c0,0,44.5,6.6,99.1-0.9l0.1,3c0,0-45.4,9.2-99.7,1.2C101.9,276.5,102.4,275.4,102.4,275.4"/>
</g>
<path class="st6" d="M129.8,221.3c6.9,7.7,32.3,33.3,69,39.2c0.1,0.9,0.3,2.9,0.4,3.8c-44.8-5.8-74.6-42.1-74.6-42.1L129.8,221.3z"
	/>
<g>
	<defs>
		<path id="SVGID_4_" d="M114.1,275.4c0.2,0,0.4,0.8,0.6,0.8c0.1,0,0.2-0.1,0.3-0.3c0.1-0.1,0.2-0.3,0.3-0.3c0.1,0,0.2,0,0.3,0
			c0.1,0,0.2,0,0.3,0c0.2,0,0.4,0.6,0.6,0.6c0.1,0,0.2,0,0.3,0c0.1,0,0.2,0,0.3,0c0.1,0,0.2,0,0.3-0.1c0.1-0.1,0.2-0.1,0.3-0.1
			c0.1,0,0.2,0,0.3,0c0.1,0,0.2-0.1,0.3,0c0.2,0,0.4,0,0.6,0.1c0.2,0,0.3,0.7,0.6,0.7c0.1,0,0.2-0.1,0.3-0.3
			c0.1-0.2,0.2-0.3,0.3-0.3c0.2,0,0.4,0.6,0.6,0.6c0.2,0,0.4,0.2,0.6,0.3c0.1,0,0.2-0.1,0.3-0.1c0.1-0.1,0.2-0.1,0.3-0.1
			c0.2,0,0.4,0.3,0.6,0.4c0.2,0,0.4,0,0.6,0.1c0.1,0,0.2-0.1,0.3-0.3c0.1-0.1,0.2-0.3,0.3-0.3c0.2,0,0.3,0.7,0.5,0.7
			c0.1,0,0.2,0,0.3-0.1c0.1,0,0.2-0.1,0.3-0.1c0.1,0,0.2,0,0.3,0c0.1,0,0.2,0,0.3,0c0.2,0,0.4,0.4,0.6,0.4c0.1,0,0.2-0.1,0.3-0.2
			c0.1-0.1,0.2-0.2,0.3-0.2c0.2,0,0.4,0.1,0.6,0.1c0.1,0,0.2,0,0.3,0c0.1,0,0.2,0,0.3,0c0.2,0,0.3,0.6,0.5,0.6
			c0.1,0,0.2-0.2,0.4-0.3c0.1-0.2,0.3-0.3,0.4-0.3c0.2,0,0.3,0.6,0.5,0.6c0.1,0,0.2-0.1,0.3-0.2c0.1-0.1,0.2-0.2,0.3-0.2
			c0.2,0,0.3,0.6,0.5,0.6c0.1,0,0.2,0,0.3-0.1c0.1-0.1,0.2-0.1,0.3-0.1c0.1,0,0.2,0,0.3,0c0.1,0,0.2,0,0.3,0c0.2,0,0.4,0.1,0.6,0.1
			s0.3,0.6,0.5,0.7c0.2,0,0.4,0.1,0.6,0.1c0.1,0,0.2-0.1,0.4-0.3c0.1-0.1,0.3-0.3,0.4-0.3c0.2,0,0.4,0.1,0.6,0.1c0.2,0,0.4,0,0.6,0
			c0.2,0,0.3,0.4,0.6,0.5c0.2,0,0.4,0.1,0.6,0.1c0.1,0,0.2,0,0.3,0c0.1,0,0.2,0,0.3,0c0.2,0,0.4,0.1,0.6,0.2c0.1,0,0.2,0,0.3,0
			c0.1,0,0.2-0.1,0.3,0c0.2,0,0.3,0.7,0.5,0.7c0.1,0,0.2-0.1,0.4-0.3c0.1-0.2,0.3-0.3,0.4-0.3c0.2,0,0.3,0.6,0.5,0.6
			c0.1,0,0.2,0,0.3-0.1c0.1-0.1,0.2-0.1,0.3-0.1c0.2,0,0.4,0.3,0.6,0.3c0.2,0,0.4,0.3,0.6,0.4c0.1,0,0.2-0.1,0.4-0.2
			c0.1-0.1,0.3-0.2,0.4-0.2c0.2,0,0.4,0,0.6,0c0.2,0,0.4,0.1,0.6,0.2c0.2,0,0.3,0.7,0.5,0.7c0.1,0,0.2-0.1,0.4-0.2
			c0.1-0.1,0.3-0.2,0.4-0.2c0.2,0,0.3,0.5,0.5,0.5c0.2,0,0.4,0.2,0.6,0.2c0.2,0,0.4,0.1,0.6,0.1c0.1,0,0.2-0.1,0.4-0.1
			c0.1-0.1,0.3-0.2,0.4-0.2c0.2,0,0.3,0.6,0.5,0.6c0.2,0,0.4,0,0.6,0.1c0.2,0,0.4,0,0.6,0.1c0.1,0,0.2-0.1,0.4-0.2
			c0.1-0.1,0.3-0.2,0.4-0.2c0.2,0.1,0.4,0.2,0.6,0.3c0.2,0.1,0.4,0.1,0.6,0.1c0.2,0.1,0.3,0.6,0.5,0.7c0.1,0,0.2,0,0.3-0.1
			c0.1-0.1,0.2-0.1,0.3-0.1c0.2,0,0.3-0.4,0.5-0.4c0.2,0,0.4,0,0.6-0.1c0.2,0,0.4-0.1,0.6-0.1c0.1,0,0.2,0.1,0.4,0.2
			c0.1,0.1,0.3,0.2,0.4,0.2c0.1,0,0.2,0,0.3,0c0.1,0,0.2,0,0.3,0c0.2,0,0.4-0.2,0.6-0.3c0.1,0,0.2,0,0.3,0c0.1,0,0.2,0.1,0.3,0
			c0.2,0,0.4-0.2,0.6-0.3c0.1,0,0.2,0,0.3,0c0.1,0,0.2,0,0.3,0c0.2,0,0.4-0.1,0.6-0.2c0.2,0,0.4-0.1,0.6-0.2c0.2,0,0.3-0.5,0.5-0.6
			c0.1,0,0.2,0.1,0.4,0.2c0.1,0.1,0.3,0.2,0.4,0.2c0.2,0,0.4,0,0.6-0.1c0.2,0,0.4-0.1,0.6-0.1c0.2,0,0.3-0.4,0.5-0.5
			c0.1,0,0.2,0,0.3,0.1c0.1,0,0.2,0.1,0.3,0.1c0.2,0,0.3-0.7,0.5-0.7c0.1,0,0.2,0.1,0.3,0.2c0.1,0.1,0.2,0.2,0.3,0.2
			c0.2,0,0.3-0.6,0.5-0.7c0.1,0,0.2,0.1,0.3,0.1c0.1,0.1,0.2,0.1,0.3,0.1c0.1,0,0.2,0,0.3,0c0.1,0,0.2,0.1,0.3,0
			c0.2,0,0.4-0.1,0.6-0.1c0.2,0,0.3-0.4,0.5-0.5c0.2,0,0.4-0.2,0.6-0.3c0.1,0,0.2,0.1,0.3,0.1c0.1,0.1,0.2,0.1,0.3,0.1
			c0.2,0,0.4-0.2,0.6-0.2c0.1,0,0.2,0.1,0.3,0.1c0.1,0.1,0.2,0.2,0.3,0.1c0.2,0,0.4-0.3,0.6-0.3c0.2,0,0.4-0.3,0.6-0.3
			c0.2,0,0.4-0.3,0.6-0.3c0.1,0,0.2,0,0.3,0.1c0.1,0.1,0.2,0.1,0.3,0.1c0.2,0,0.4,0,0.6,0c0.1,0,0.2,0,0.3,0s0.2,0,0.3,0
			c0.2,0,0.4-0.1,0.6-0.1c0.2,0,0.4-0.1,0.6-0.1c0.2,0,0.4-0.5,0.6-0.5c0.1,0,0.2,0,0.3,0c0.1,0,0.2,0,0.3,0c0.2,0,0.4-0.1,0.6-0.1
			c0.2,0,0.4,0,0.6,0c0.1,0,0.2,0.1,0.3,0.2c0.1,0.1,0.2,0.2,0.3,0.2c0.1,0,0.2,0,0.3,0.1c0.1,0,0.2,0.1,0.3,0.1
			c0.2,0,0.4-0.1,0.6-0.1c0.2,0,0.4-0.1,0.6-0.2c0.2,0,0.4-0.1,0.6-0.1c0.1,0,0.2,0,0.3,0c0.1,0,0.2,0,0.3,0c0.2,0,0.4-0.5,0.6-0.5
			c0.2,0,0.4-0.2,0.6-0.2c0.1,0,0.2,0.1,0.3,0.3c0.1,0.2,0.2,0.3,0.3,0.3c0.2,0,0.4-0.5,0.6-0.5c0.2,0,0.4-0.2,0.6-0.2
			c0.2,0,0.4-0.1,0.6-0.2c0.1,0,0.2,0,0.3,0c0.1,0,0.2,0,0.3,0c0.1,0,0.2,0,0.3,0c0.1,0,0.2,0,0.3,0c0.1,0,0.2,0.1,0.3,0.2
			c0.1,0.1,0.2,0.2,0.3,0.2c0.2,0,0.4-0.1,0.6-0.1c0.2,0,0.4-0.2,0.6-0.2c0.1,0,0.2,0,0.3,0c0.1,0,0.2,0,0.3,0
			c0.2,0,0.4-0.4,0.6-0.4c0.1,0,0.2,0,0.3,0.1c0.1,0,0.2,0.1,0.3,0.1c0.1,0,0.2,0,0.3,0c0.1,0,0.2,0,0.3,0c0.1,0,0.2,0.1,0.3,0.1
			c0.1,0.1,0.2,0.1,0.3,0.1c0.2,0,0.4-0.3,0.6-0.3c0.2,0,0.4,0,0.6,0c0.1,0,0.2,0.1,0.3,0.2c0.1,0.1,0.2,0.2,0.3,0.2
			c0.2,0,0.4-0.5,0.6-0.5c0.2,0,0.4-0.1,0.6-0.1c0.2,0,0.4-0.1,0.6-0.1c0.1,0,0.2,0,0.3,0c0.1,0,0.2,0,0.3,0c0.2,0,0.4,0.3,0.6,0.3
			c0.1,0,0.2-0.1,0.3-0.2c0.1-0.1,0.2-0.2,0.3-0.2c0.2,0,0.4,0.8,0.6,0.8c0.1,0,0.2-0.1,0.3-0.3c0.1-0.2,0.2-0.3,0.3-0.3
			c0.2,0,0.4,0.2,0.6,0.2c0.2,0,0.3,0.4,0.5,0.5c0.2,0.1,0.3,0.3,0.5,0.3c0.1,0,0.2,0,0.3,0c0.1,0,0.2,0,0.3,0
			c0.2,0.1,0.1,0.2,0.1,0.4c0,0.2,0.3,0.4,0.3,0.6c0,0.2-0.3,0.4-0.3,0.7c0,0.2,0.2,0.4,0.3,0.6c0,0.2,0.6,0.3,0.7,0.5
			c0,0.2-0.2,0.5-0.1,0.7c0,0.2,0.1,0.4,0.2,0.6c0,0.2-0.2,0.5-0.1,0.7c0.1,0.2,0.4,0.3,0.4,0.5c0.1,0.2-0.2,0.5-0.1,0.7
			c0.1,0.2,0.2,0.4,0.2,0.6c0.1,0.2,0.5,0.3,0.6,0.5c0.1,0.2-0.1,0.5-0.1,0.7c0.1,0.2,0.3,0.3,0.4,0.5s-0.1,0.4,0,0.6
			c0.1,0.2,0.3,0.3,0.3,0.5c0.1,0.2,0.2,0.4,0.3,0.6c0.1,0.2-0.3,0.5-0.2,0.7c0.1,0.2,0.2,0.4,0.2,0.6c0.1,0.2,0.3,0.3,0.3,0.5
			c0.1,0.2,0.1,0.4,0.2,0.6c0.1,0.2,0.2,0.4,0.2,0.6c0.1,0.2,0.6,0.2,0.6,0.4c0.1,0.2-0.5,0.6-0.4,0.8c0.1,0.2,0.1,0.4,0.2,0.6
			c0.1,0.2,0.3,0.3,0.4,0.5c0.1,0.2,0.2,0.4,0.2,0.6c0.1,0.2,0.5,0.2,0.6,0.4c0.1,0.2-0.5,0.6-0.5,0.8c0.1,0.2,0.8,0.2,0.9,0.3
			c0.1,0.2,0,0.4,0.1,0.6c0.1,0.2,0.1,0.4,0.2,0.6c0.1,0.2-0.1,0.5,0,0.7c0.1,0.2,0.3,0.3,0.3,0.5c0.1,0.2,0.2,0.4,0.2,0.6
			c0.1,0.2,0.1,0.4,0.2,0.6c0.1,0.2-0.3,0.6-0.3,0.8c0.1,0.2,0.9,0.1,0.9,0.3c0.1,0.2-0.6,0.7-0.5,0.8c0.1,0.2,0.2,0.4,0.2,0.6
			c0.1,0.2,0.5,0.3,0.5,0.5c0.1,0.3,0.2,0.5,0.2,0.6c0,0.1-0.2,0.4-0.1,0.7c0,0.2,0.5,0.3,0.6,0.5c0,0.2,0.3,0.3,0.3,0.6
			c0,0.2-0.3,0.5-0.3,0.7c0.1,0.2-0.2,0.5-0.2,0.7c0.1,0.2,0.6,0.3,0.7,0.5c0.1,0.2-0.2,0.5-0.2,0.7c0.1,0.2-0.1,0.4,0,0.6
			c0.1,0.2,0,0.4,0.1,0.6c0.1,0.2,0.8,0.2,0.8,0.4c0.1,0.2-0.4,0.5-0.3,0.7c0.1,0.2,0.2,0.4,0.3,0.6c0.1,0.2-0.1,0.4,0,0.7
			c0.1,0.2,0,0.4,0.1,0.6c0.1,0.2,0.5,0.3,0.5,0.5c0.1,0.2,0.2,0.4,0.3,0.6c0.1,0.2,0,0.4,0,0.6c0.1,0.2,0.5,0.3,0.5,0.5
			c0.1,0.2-0.5,0.6-0.4,0.7c0.1,0.2,0,0.3,0,0.5c0,0.2,0.1,0.4,0,0.6c-0.1,0.2,0,0.6-0.1,0.7c-0.1,0.1-0.4,0.3-0.6,0.4
			c-0.1,0-0.2-0.1-0.4-0.2c-0.1-0.1-0.3-0.3-0.4-0.3c-0.2,0-0.4,0.4-0.6,0.5c-0.2,0-0.4,0.2-0.6,0.2c-0.1,0-0.2-0.1-0.3-0.3
			c-0.1-0.1-0.2-0.3-0.3-0.3c-0.2,0-0.4,0.2-0.6,0.2c-0.2,0-0.4,0.5-0.6,0.5c-0.1,0-0.2-0.1-0.3-0.2c-0.1-0.1-0.2-0.2-0.3-0.2
			c-0.2,0-0.4,0.4-0.6,0.4c-0.2,0-0.4-0.6-0.6-0.6c-0.1,0-0.2,0.2-0.3,0.4c-0.1,0.2-0.2,0.4-0.3,0.4c-0.2,0-0.4-0.3-0.6-0.3
			c-0.1,0-0.2,0.1-0.3,0.1c-0.1,0.1-0.2,0.1-0.3,0.1c-0.2,0-0.4-0.4-0.6-0.4c-0.1,0-0.2,0-0.3,0c-0.1,0-0.2,0-0.3,0
			c-0.2,0-0.4,0-0.6,0c-0.1,0-0.2,0-0.3,0c-0.1,0-0.2,0-0.3,0c-0.2,0-0.4-0.6-0.6-0.6c-0.1,0-0.2,0.1-0.3,0.1
			c-0.1,0.1-0.2,0.1-0.3,0.1c-0.2,0-0.4-0.3-0.6-0.3c-0.2,0-0.4-0.1-0.6-0.1c-0.1,0-0.2,0.1-0.3,0.2c-0.1,0.1-0.2,0.3-0.3,0.2
			c-0.2,0-0.4,0-0.6-0.1c-0.2,0-0.4-0.1-0.6-0.1c-0.2,0-0.4-0.3-0.6-0.4c-0.2,0-0.4-0.3-0.6-0.3c-0.1,0-0.2,0-0.3,0
			c-0.1,0-0.2,0-0.3,0c-0.1,0-0.2,0.1-0.4,0.2c-0.1,0.1-0.3,0.2-0.4,0.2c-0.2,0-0.3-0.5-0.5-0.5c-0.1,0-0.2,0-0.3,0
			c-0.1,0-0.2,0.1-0.3,0c-0.2,0-0.3-0.6-0.5-0.7c-0.1,0-0.2,0.1-0.4,0.2c-0.1,0.1-0.3,0.2-0.4,0.2c-0.2-0.1-0.4-0.1-0.6-0.2
			c-0.2-0.1-0.3-0.4-0.5-0.4c-0.1,0-0.2,0.1-0.4,0.1c-0.1,0.1-0.3,0.2-0.4,0.1c-0.2-0.1-0.3-0.3-0.5-0.4c-0.2-0.1-0.4-0.2-0.6-0.2
			c-0.2-0.1-0.3-0.3-0.5-0.4c-0.2-0.1-0.2-0.5-0.4-0.6c-0.1,0-0.2,0-0.3,0c-0.1,0-0.2,0.1-0.3,0c-0.1,0-0.2,0-0.3,0
			c-0.1,0-0.2,0-0.3,0c-0.1,0-0.2,0-0.3,0c-0.1,0-0.2,0-0.3,0c-0.2-0.1-0.4-0.1-0.6-0.2c-0.2-0.1-0.2-0.6-0.4-0.7
			c-0.1,0-0.2,0.1-0.4,0.2c-0.1,0.1-0.3,0.2-0.4,0.2c-0.2,0-0.4-0.3-0.6-0.3c-0.1,0-0.2,0.1-0.3,0.1c-0.1,0.1-0.2,0.2-0.3,0.1
			c-0.2,0-0.4,0-0.6-0.1c-0.2,0-0.4-0.1-0.6-0.2c-0.2,0-0.4-0.4-0.6-0.5c-0.2,0-0.4-0.2-0.6-0.2c-0.1,0-0.2,0-0.3,0
			c-0.1,0-0.2,0-0.3,0c-0.1,0-0.2,0.1-0.3,0.1c-0.1,0.1-0.2,0.1-0.3,0.1c-0.1,0-0.2,0-0.3,0c-0.1,0-0.2,0-0.3,0c-0.2,0-0.4,0-0.6,0
			c-0.2,0-0.4-0.4-0.6-0.4c-0.1,0-0.2,0-0.3-0.1c-0.1,0-0.2-0.1-0.3-0.1c-0.2,0-0.4,0.8-0.6,0.8c-0.1,0-0.2-0.1-0.3-0.2
			c-0.1-0.1-0.2-0.2-0.3-0.2c-0.2,0-0.4,0-0.6,0c-0.2,0-0.4,0.5-0.6,0.5c-0.1,0-0.2-0.1-0.3-0.3c-0.1-0.2-0.2-0.3-0.3-0.3
			c-0.2,0-0.4,0.4-0.6,0.5c-0.2,0-0.4,0.2-0.6,0.2c-0.1,0-0.2-0.1-0.3-0.3c-0.1-0.1-0.2-0.3-0.3-0.3c-0.2,0-0.3,0.8-0.5,0.8
			c-0.1,0-0.2-0.1-0.3-0.2c-0.1-0.1-0.2-0.2-0.3-0.2c-0.2,0-0.4,0.4-0.6,0.4c-0.1,0-0.2-0.2-0.3-0.3c-0.1-0.2-0.2-0.3-0.4-0.3
			c-0.2,0-0.4,0.3-0.6,0.3c-0.2,0-0.4,0.3-0.6,0.4c-0.1,0-0.2-0.1-0.3-0.2c-0.1-0.1-0.2-0.2-0.3-0.2c-0.2,0-0.4,0.2-0.6,0.2
			c-0.2,0-0.3,0.6-0.5,0.6c-0.1,0-0.2-0.1-0.4-0.3c-0.1-0.1-0.3-0.3-0.4-0.3c-0.2,0-0.4,0.3-0.6,0.4c-0.2,0-0.4,0.1-0.6,0.1
			c-0.1,0-0.2,0-0.3-0.1c-0.1-0.1-0.2-0.1-0.3-0.1c-0.2,0-0.3,0.7-0.5,0.7c-0.1,0-0.2,0-0.3-0.1s-0.2-0.1-0.3-0.1
			c-0.2,0-0.4,0.3-0.6,0.3c-0.1,0-0.2,0-0.3-0.1c-0.1-0.1-0.2-0.1-0.3-0.1c-0.2,0-0.3,0.4-0.5,0.4c-0.1,0-0.2-0.1-0.3-0.2
			c-0.1-0.1-0.2-0.2-0.3-0.2c-0.1,0-0.2,0-0.3,0c-0.1,0-0.2,0-0.3,0c-0.2,0-0.3,0.7-0.5,0.8c-0.2,0-0.4,0-0.6,0.1
			c-0.1,0-0.2,0-0.3-0.1c-0.1,0-0.2-0.1-0.3-0.1c-0.1,0-0.2-0.1-0.3-0.1c-0.1-0.1-0.2-0.1-0.3-0.1c-0.2,0-0.3,0.5-0.5,0.5
			c-0.1,0-0.2-0.1-0.3-0.2c-0.1-0.1-0.2-0.2-0.3-0.2c-0.2,0-0.4,0-0.6,0.1c-0.2,0-0.3,0.9-0.5,0.9c-0.1,0-0.2-0.1-0.3-0.2
			s-0.2-0.2-0.3-0.2c-0.2,0-0.4,0.3-0.6,0.4c-0.1,0-0.2-0.1-0.3-0.2c-0.1-0.1-0.2-0.2-0.3-0.2c-0.2,0-0.4,0.4-0.6,0.4
			c-0.2,0-0.4,0.3-0.6,0.3c-0.2,0-0.4,0.1-0.6,0.1c-0.1,0-0.2-0.2-0.3-0.3c-0.1-0.2-0.2-0.3-0.3-0.3c-0.2,0-0.4,0.5-0.6,0.5
			c-0.2,0-0.4,0.2-0.6,0.2c-0.2,0-0.4-0.7-0.6-0.7c-0.1,0-0.2,0.1-0.3,0.3c-0.1,0.1-0.2,0.3-0.3,0.3c-0.2,0-0.4-0.6-0.6-0.6
			c-0.1,0-0.2,0.1-0.3,0.2c-0.1,0.1-0.2,0.2-0.3,0.2c-0.1,0-0.2,0.1-0.3,0.2c-0.1,0.1-0.2,0.2-0.3,0.2c-0.2,0-0.4-0.6-0.6-0.6
			c-0.1,0-0.2,0.1-0.3,0.2c-0.1,0.1-0.2,0.2-0.3,0.2c-0.2,0-0.4-0.2-0.6-0.2c-0.2,0-0.4-0.5-0.6-0.5c-0.2,0-0.4-0.1-0.6-0.1
			c-0.1,0-0.2,0.2-0.4,0.3c-0.1,0.2-0.3,0.3-0.4,0.3c-0.2,0-0.3-0.7-0.5-0.7c-0.1,0-0.2,0.1-0.3,0.2c-0.1,0.1-0.2,0.2-0.3,0.2
			c-0.2,0-0.3-0.6-0.5-0.6c-0.1,0-0.2,0-0.3,0c-0.1,0-0.2,0.1-0.3,0c-0.1,0-0.2,0.1-0.3,0.2c-0.1,0.1-0.3,0.2-0.3,0.2
			c-0.2,0-0.4-0.1-0.6-0.1c-0.2,0-0.4-0.1-0.6-0.2c-0.2,0-0.3-0.6-0.5-0.7c-0.1,0-0.2,0.1-0.4,0.2c-0.1,0.1-0.3,0.2-0.4,0.2
			c-0.2,0-0.4-0.2-0.6-0.2c-0.2,0-0.3-0.3-0.5-0.3c-0.2-0.1-0.3-0.3-0.5-0.4c-0.1,0-0.2,0.1-0.4,0.1c-0.1,0.1-0.3,0.2-0.4,0.1
			c-0.1,0-0.2,0-0.3,0c-0.1,0-0.2,0.1-0.3,0c-0.2-0.1-0.4-0.1-0.6-0.2c-0.2-0.1-0.2-0.7-0.4-0.7c-0.1,0-0.2,0.1-0.4,0.1
			c-0.1,0.1-0.3,0.2-0.4,0.1c-0.2-0.1-0.3-0.3-0.5-0.4c-0.1,0-0.2,0-0.3,0c-0.1,0-0.2,0-0.3,0c-0.2,0-0.3-0.6-0.5-0.6
			c-0.1,0-0.2,0-0.3,0.1c-0.1,0-0.2,0.1-0.3,0.1c-0.2,0-0.4,0-0.6-0.1c-0.2,0-0.3-0.4-0.5-0.5c-0.1,0-0.2,0-0.3,0.1
			c-0.1,0.1-0.2,0.1-0.3,0.1c-0.2,0-0.4-0.2-0.6-0.3c-0.2,0-0.4-0.1-0.6-0.2c-0.1,0-0.2,0-0.3,0.1c-0.1,0-0.2,0.1-0.3,0.1
			c-0.2,0-0.4-0.5-0.6-0.5c-0.1,0-0.2,0-0.3,0c-0.1,0-0.2,0-0.3,0c-0.2,0-0.4-0.1-0.6-0.1c-0.1,0-0.2,0-0.4,0c-0.1,0-0.2,0-0.3,0
			c-0.2,0-0.4,0-0.6,0c-0.2,0-0.4,0-0.6,0c-0.2,0-0.3,0.8-0.5,0.8c-0.1,0-0.2-0.1-0.3-0.2c-0.1-0.1-0.2-0.2-0.3-0.2
			c-0.2,0-0.4,0.2-0.6,0.3c-0.2,0-0.3,0.2-0.5,0.3c-0.1,0-0.2,0-0.3,0c-0.1,0-0.2-0.1-0.3,0c-0.1,0-0.2,0-0.3-0.1
			c-0.1,0-0.2-0.1-0.3-0.1c-0.2,0.1-0.4,0.2-0.5,0.3c-0.2,0.1-0.3,0.4-0.4,0.5c-0.2,0.1-0.4,0.1-0.6,0.2c-0.2,0.1-0.4,0.1-0.6,0.2
			c-0.1,0-0.2,0-0.4,0c-0.1,0-0.3-0.1-0.4,0c-0.2,0.1-0.2,0.5-0.4,0.6c-0.2,0.1-0.3,0.4-0.5,0.5c-0.1,0-0.2,0-0.3,0
			c-0.1,0-0.2-0.1-0.3,0c-0.1,0-0.2,0-0.3,0c-0.1,0-0.2-0.1-0.3,0c-0.2,0.1-0.3,0.3-0.5,0.4c-0.1,0-0.2,0-0.3,0c-0.1,0-0.2,0-0.3,0
			c-0.2,0.1-0.2,0.7-0.4,0.8c-0.1,0-0.2,0-0.4-0.1c-0.1-0.1-0.2-0.1-0.3-0.1c-0.2,0.1-0.3,0.5-0.5,0.5c-0.2,0.1-0.4,0.3-0.6,0.3
			c-0.1,0-0.2-0.1-0.4-0.2c-0.1-0.1-0.3-0.2-0.4-0.2c-0.1,0-0.2,0-0.3,0c-0.1,0-0.2-0.1-0.3,0c-0.2,0-0.4,0.1-0.6,0.2
			c-0.2,0-0.3,0.6-0.5,0.7c-0.1,0-0.2-0.1-0.4-0.3c-0.1-0.1-0.3-0.3-0.4-0.3c-0.2,0-0.3,0.8-0.5,0.8c-0.1,0-0.2-0.1-0.4-0.3
			c-0.1-0.1-0.2-0.3-0.3-0.3c-0.1,0-0.2,0-0.3-0.1c-0.1,0-0.2-0.1-0.3-0.1c-0.2,0-0.4,0.2-0.6,0.3c-0.2,0-0.4,0.6-0.6,0.6
			c-0.1,0-0.2-0.1-0.3-0.1c-0.1-0.1-0.2-0.1-0.3-0.1c-0.2,0-0.4,0-0.6,0c-0.1,0-0.2,0-0.3-0.1c-0.1-0.1-0.2-0.1-0.3-0.1
			c-0.1,0-0.2,0-0.3,0c-0.1,0-0.2,0-0.3,0c-0.2,0-0.4,0.5-0.6,0.5c-0.2,0-0.4-0.6-0.6-0.6c-0.1,0-0.2,0.1-0.3,0.2
			c-0.1,0.1-0.2,0.2-0.3,0.2c-0.2,0-0.4-0.5-0.6-0.5c-0.1,0-0.2,0-0.3,0c-0.1,0-0.2,0.1-0.3,0c-0.1,0-0.2,0-0.3,0.1
			c-0.1,0-0.2,0.1-0.3,0.1c-0.2,0-0.4-0.1-0.6-0.1c-0.2,0-0.4-0.2-0.6-0.2c-0.2,0-0.4-0.1-0.6-0.1c-0.1,0-0.2,0-0.3,0
			c-0.1,0-0.2,0-0.3,0c-0.1,0-0.2,0-0.3,0c-0.1,0-0.3,0-0.4,0c-0.2-0.1-0.2-0.4-0.4-0.5c-0.1-0.2-0.5-0.3-0.5-0.5
			c-0.1-0.2,0.2-0.4,0.2-0.7c0-0.2,0-0.4,0-0.6c0-0.2-0.4-0.5-0.3-0.7c0-0.2,0.4-0.4,0.4-0.6c0-0.2,0.3-0.4,0.3-0.6
			c0-0.2-0.2-0.4-0.2-0.7c0-0.2-0.1-0.4-0.1-0.6c0-0.2,0.5-0.4,0.5-0.6c0-0.2-0.2-0.4-0.2-0.7c0-0.2-0.2-0.5-0.2-0.7
			c0-0.2,0.7-0.3,0.7-0.5c0-0.2-0.3-0.5-0.3-0.7c0-0.2,0.4-0.4,0.4-0.6c0-0.2,0.1-0.4,0.1-0.6c0-0.2-0.4-0.5-0.3-0.7
			c0-0.2-0.1-0.4,0-0.6c0-0.2,0.4-0.4,0.4-0.6c0-0.2,0.1-0.4,0.2-0.6c0-0.2,0-0.5,0-0.6c0-0.3,0.1-0.5,0.1-0.6
			c0-0.1,0.3-0.2,0.4-0.5c0.1-0.2-0.4-0.6-0.4-0.8c0.1-0.2,0.3-0.3,0.4-0.5c0.1-0.2,0.5-0.2,0.6-0.4c0.1-0.2,0.3-0.3,0.4-0.5
			c0.1-0.2,0.1-0.4,0.2-0.6c0.1-0.2-0.2-0.5-0.1-0.7c0.1-0.2,0.2-0.3,0.3-0.5c0.1-0.2,0.2-0.4,0.3-0.5c0.1-0.2-0.1-0.5,0-0.6
			c0.1-0.2,0-0.4,0-0.6c0.1-0.2-0.1-0.5,0-0.7c0.1-0.2,0.6-0.2,0.7-0.4c0.1-0.2,0.3-0.3,0.4-0.5c0.1-0.2-0.2-0.5-0.1-0.7
			c0.1-0.2,0.2-0.3,0.3-0.5c0.1-0.2,0.1-0.4,0.1-0.6c0.1-0.2,0.4-0.3,0.4-0.5c0.1-0.2-0.2-0.5-0.1-0.7c0.1-0.2-0.2-0.5-0.1-0.7
			c0.1-0.2,0.3-0.3,0.3-0.5c0.1-0.2,0.6-0.2,0.6-0.4c0.1-0.2,0-0.4,0-0.6c0.1-0.2,0.2-0.4,0.2-0.6c0.1-0.2,0.4-0.3,0.5-0.5
			c0.1-0.2-0.5-0.6-0.4-0.8c0.1-0.2,0.1-0.4,0.2-0.6c0.1-0.2,0.7-0.2,0.7-0.4c0.1-0.2-0.1-0.5,0-0.7c0.1-0.2,0.2-0.4,0.3-0.6
			c0.1-0.2,0.2-0.4,0.3-0.6c0.1-0.2-0.1-0.5-0.1-0.7c0.1-0.2-0.1-0.5-0.1-0.7c0.1-0.2,0.3-0.4,0.3-0.5c0.1-0.2,0.4-0.3,0.4-0.5
			c0.1-0.2,0.2-0.4,0.3-0.6c0-0.2-0.3-0.5-0.3-0.7c0-0.2,0.5-0.3,0.5-0.5c0-0.2,0-0.4,0-0.6c0-0.2-0.1-0.4-0.1-0.6
			c0-0.2,0.3-0.4,0.3-0.6c0-0.2-0.3-0.5-0.1-0.7c0.1-0.1,0.2,0,0.4,0.1c0.2,0.1,0.3,0.2,0.4,0.1c0.2-0.1,0.3-0.3,0.5-0.4
			c0.2,0,0.4-0.1,0.6-0.1c0.2,0,0.4-0.4,0.6-0.4c0.2,0,0.4,0,0.6-0.1c0.1,0,0.2,0,0.3,0.1c0.1,0.1,0.2,0.1,0.3,0.1
			c0.2,0,0.4-0.1,0.6-0.1c0.2,0,0.4-0.2,0.6-0.2c0.1,0,0.2,0.2,0.3,0.3c0.1,0.2,0.2,0.3,0.3,0.3c0.2,0,0.4-0.5,0.6-0.5
			c0.2,0,0.4,0.3,0.6,0.3c0.1,0,0.2,0,0.3,0c0.1,0,0.2,0,0.3,0c0.2,0,0.4,0.1,0.6,0.1c0.1,0,0.2-0.1,0.3-0.1
			c0.1-0.1,0.2-0.1,0.3-0.1c0.2,0,0.4,0.3,0.6,0.3c0.1,0,0.2-0.1,0.3-0.1c0.1-0.1,0.2-0.1,0.3-0.1c0.1,0,0.2-0.1,0.3-0.1
			c0.1-0.1,0.2-0.2,0.3-0.2c0.1,0,0.2,0,0.3-0.1C113.9,275.4,114,275.4,114.1,275.4C114.1,275.4,114.1,275.4,114.1,275.4"/>
	</defs>
	<clipPath id="SVGID_5_">
		<use xlink:href="#SVGID_4_"  style="overflow:visible;"/>
	</clipPath>
	<path class="st7" d="M84.1,308.1c6.2-4.3,17.8,5.1,31.5-1.8c10.3-5.2,16.4,5.3,32.8,5.1c9.7-0.1,27-9.3,39.7-4.2
		c13.7,5.5,27.3-2.5,33.5,1.8v7.7c-6.2-4.3-19.7,2-33.5-3.5c-12.7-5.1-30,2.4-39.7,2.5c-16.4,0.2-22.5-8.6-32.8-3.4
		c-13.6,6.9-25.3-0.8-31.5,3.5V308.1z"/>
</g>
<path class="st8" d="M192,231.1l6.3-0.7c0,0,0.3,0,0.4,1.5c-17.3,9-29.7,11.6-46.7,11.6c-17,0-35.1-4.7-46.1-12.3
	c0.5-1.8,0-0.3,0-0.3l2.4,0c12.9,4,26.9,6.1,41.6,6.2C165,237.1,179.2,235.1,192,231.1"/>
<g>
	<defs>
		<path id="XMLID_14_" d="M241.3,189.7c0,0,10-3,7.5,6.8c-2.5,9.8-12.6,10.8-16.1,7.8C229.3,201.3,241.3,189.7,241.3,189.7"/>
	</defs>
	<linearGradient id="XMLID_23_" gradientUnits="userSpaceOnUse" x1="245.8362" y1="191.57" x2="238.1879" y2="202.9106">
		<stop  offset="0" style="stop-color:#F7BDBE"/>
		<stop  offset="1" style="stop-color:#F7E7D6"/>
	</linearGradient>
	<use xlink:href="#XMLID_14_"  style="overflow:visible;fill:url(#XMLID_23_);"/>
	<clipPath id="XMLID_24_">
		<use xlink:href="#XMLID_14_"  style="overflow:visible;"/>
	</clipPath>
</g>
<g>
	<defs>
		<path id="XMLID_13_" d="M61.6,195.3c0,0-10.1-2.4-7,7.3c3.1,9.6,13.2,10,16.5,6.8C74.4,206.1,61.6,195.3,61.6,195.3"/>
	</defs>
	<linearGradient id="XMLID_25_" gradientUnits="userSpaceOnUse" x1="55.081" y1="196.5423" x2="66.9492" y2="208.9379">
		<stop  offset="0" style="stop-color:#F7BDBE"/>
		<stop  offset="1" style="stop-color:#F7E7D6"/>
	</linearGradient>
	<use xlink:href="#XMLID_13_"  style="overflow:visible;fill:url(#XMLID_25_);"/>
	<clipPath id="XMLID_26_">
		<use xlink:href="#XMLID_13_"  style="overflow:visible;"/>
	</clipPath>
</g>
<path id="XMLID_5_" class="st9" d="M149.2,77.4c-54.5,1.7-94.1,40.2-96.1,85.9c-0.5,12.1,1.6,22.7,5.8,31.8l2,0.2
	c0.5,0.4,2.3,4.8,3.2,6.1c1.6,2.3,3.9,6.3,6.8,11c18.4,18.7,49.1,27.3,83.2,26.2c36.3-1.1,66.4-12.3,82.8-34.3
	c2.2-3.7,3.7-7.5,4.2-11.1c0.2-1.4,0.8-2.5,1.3-3.1c0.4-0.5,1.9-0.1,2.8-0.4c3.8-9.4,5.7-20.2,5.3-32.5
	C248.9,111.5,203.6,75.7,149.2,77.4z"/>
<g id="XMLID_2_">
	<polygon class="st10" points="265.8,133.7 265.5,133.2 264.7,133.3 264.3,133 264,132.6 264,132.2 263,132.3 262.6,132 
		261.8,132.2 261.8,131.1 261.1,131.5 260.3,131.2 259.8,132 260.3,131.1 260,130.5 259.1,130.9 258.8,130 258.5,130.1 257.8,130.9 
		258.2,130 257.8,129.4 256.9,129.5 256.3,129.6 255.6,129.5 255.3,129 254.8,128.6 254.1,128.6 253.8,127.5 252.9,128.2 
		252.7,127.3 252.1,127 251.4,127 251,126.4 250.5,125.9 249.9,126.1 249.5,126.7 249.1,126.1 248.3,126.1 248.2,125.4 248.2,124.9 
		247.7,124.7 246.8,125 246.9,124.6 246.6,124.3 246.3,124.6 245.7,124.8 245.2,124.2 244.4,124.7 243.7,124.2 243.6,123.5 
		243.4,122.5 242.6,122.6 241.8,122.9 241.4,122.4 240.7,122.3 239.9,122.4 239.8,121.4 239.2,121.2 238.7,120.8 238.2,120.4 
		237.5,120.6 237,120.2 236.5,119.5 236.1,119.9 235.6,120.1 235.4,119.2 234.6,119.3 234.3,118.8 233.6,118.9 232.6,119.2 
		232.9,118.2 232.8,117.5 232.5,118.1 231.8,118.3 231.1,118.1 231,117 230.2,117.3 229.8,116.5 229,116.9 228.8,116.4 228.9,115.8 
		228.2,115.2 227.5,116.2 226.7,116 226.4,115.4 226.4,114.8 226.4,113.7 225.4,114.3 224.9,114.5 224.6,114.7 223.9,114.3 
		223.5,113.9 223.3,113.2 222.6,113.2 222,112.9 221.4,112.6 220.5,113.2 220.6,112.3 220.4,112.3 219.7,112.1 219.2,111.6 
		218.8,111.2 218.1,110.9 217.8,110.1 216.9,110.4 216.3,110.5 216,109.8 215.3,109.8 214.7,109.5 214,109.7 213.4,109.4 
		212.9,108.9 212.4,108.7 211.9,108.1 211.6,107.6 210.7,107.6 210.1,107.6 209.8,107 209.2,106.7 208.7,106.4 208.1,106.1 
		207.5,105.9 207.2,105.5 206.3,105.7 206,104.8 205.3,105.1 204.5,105.2 204,104.8 203.5,104.6 203.2,104.9 203.2,104.4 
		203.3,103.7 202.9,102.8 202.3,103.2 202,103.4 201.5,102.9 200.7,103.2 200.6,102.8 200.4,102.5 200.2,102.6 199.5,103.1 
		199.3,102.2 198.7,102.2 198.8,101.5 198.1,101.5 197.6,100.9 196.8,101.4 197.1,100.8 196.5,100.8 196.4,101 195.6,100.8 
		194.7,101.2 195.2,100.4 194.9,99.6 194.3,100 193.9,100.2 193.4,99.8 192.7,99.7 192,100 191.4,99.6 191.4,98.5 190.7,98.5 
		190.4,98.1 190.4,97.6 189.7,97.5 189.1,97.3 188.8,97.7 188.2,97.8 187.7,97.3 187.2,96.7 187,96 186.1,96.6 185.6,96 185.2,95.4 
		184.6,95.3 184.1,95 183.3,95 182.6,95.2 182.4,94.4 181.6,94.3 180.9,94.2 180.7,93.4 179.9,93.4 179.2,93.6 179.3,92.7 
		178.6,92.1 178,91.9 177.5,91.5 176.9,91.5 176.3,91.2 175.8,90.7 175.4,89.9 174.7,90.9 173.7,90.8 173.4,90 173,89.4 172.3,89.4 
		171.6,89.4 171.4,89.1 170.9,88.1 170,88.4 169.6,87.8 169,87.7 168.3,87.7 168.2,86.7 167.3,87.2 166.7,86.8 165.8,87.3 
		165.2,86.9 164.8,86.5 164.1,86.4 163.6,85.9 163.7,85.3 163.5,84.6 163.1,85.3 162.4,85.8 162.2,84.6 161.6,84.6 160.9,84.4 
		160.3,84.3 159.8,84.1 159.2,84.1 158.6,83.6 157.8,84.1 157.5,83.5 156.8,83.3 156.1,83 155.5,83.4 155.2,82.5 154.4,83.1 
		153.7,82.7 153,82.9 152.7,82.1 152,82.3 152.1,81.6 151.6,81.3 150.9,81.7 150.1,81.9 150,81.2 150.1,80.4 149.3,80.9 148.8,81.2 
		148.3,81.9 147.7,81.3 148.1,80.5 147.4,80.3 146.7,80.6 146.3,80.2 145.4,80.8 144.9,79.9 144.5,78.9 143.8,79.8 143.1,79.8 
		142.5,79.2 142,79 141.5,78.4 140.8,79.1 140.5,78.2 139.9,77.8 139.2,77.7 138.4,77.8 137.8,78.1 137,78.4 136.7,77.6 136.1,77.5 
		135.3,77.8 135.2,76.8 134.4,76.6 133.8,76.7 133.3,75.9 132.7,75.9 132.4,76.3 132,76.2 131.5,75.7 131.3,75.6 131,75.3 
		130.5,75.3 129.7,75.9 129.3,75.1 128.8,74.4 128.1,74.4 127.5,74.1 126.9,74.4 126.1,74.3 125.7,73.8 125.2,73.2 124.5,73.6 
		124.2,74 123.7,73.9 123.1,73.6 123.4,73 122.7,73 122,73.1 121.5,72.6 120.8,72.8 120.2,72.8 119.5,72.5 119.2,72 118.4,72.3 
		118.1,71.8 118,71.2 117.8,72.1 117.2,72 116.7,71.5 116.2,71.1 115.6,71.1 114.9,71.1 114.2,71 113.9,70.5 113.3,70.1 113.1,68.8 
		112.5,69.4 112.1,69.9 111.6,69.5 111.3,69.7 110.7,69.8 110,70 110,69.1 109.2,68.5 108.8,68.6 108.4,69.3 107.9,68.7 107.2,68.7 
		106.7,68.3 106.1,68.3 105.4,68.1 105,67.6 104.3,68.1 103.4,68 103.3,66.8 102.6,67 102.2,66.3 101.3,67.1 100.9,66.3 100.5,66.2 
		100.2,66.6 99.7,66.3 98.9,66.5 98.4,65.8 98,65.3 97.3,65.4 96.7,65.2 96.1,64.9 95.7,65.3 95.2,66 95.4,65.1 94.9,64.7 
		94.5,64.6 93.7,64.4 93.5,65.5 93,64.6 92.4,64.7 91.8,64.3 91.4,63.8 90.7,63.7 90.2,63.6 89.6,63.1 89,63.2 88.3,63.3 87.9,62.6 
		87.5,62 87.2,62.6 86.4,63.4 86.5,62.3 86.1,62 85.6,61.6 85,61.5 84.3,61.6 83.8,61 83,61.5 83.2,60.9 82.7,60.6 81.9,61.3 
		81.4,60.5 80.9,60.8 80.2,60.3 79.5,60.5 79,59.8 78.4,59.7 78,58.7 77.2,59.6 76.7,59.5 76.1,58.8 75.6,58.5 74.9,58.5 74.1,58.4 
		73.6,59 72.9,58.8 72.8,58.2 72.5,57.9 71.8,58.2 71.4,57.8 71.5,57.2 71.2,57.9 70.4,58.5 70,57.7 69.5,57.1 69.1,56.9 68.6,56.3 
		68.1,55.9 67.3,55.8 66.9,55.9 66.5,56.5 65.9,55.9 65.3,55.4 64.6,56.2 64.1,55.7 63.6,55.4 62.9,55.8 62.3,55.3 62.1,55.8 
		61.1,55.7 61.3,56.6 60.4,56.7 61,57.4 61.1,58.1 60.3,57.9 60,58 60.2,58.1 60,58.7 59.3,58.8 58.5,59.1 58,59.8 58.3,60.5 
		58,60.9 57.4,61.3 57.3,62 56.7,62.3 56.8,62.9 56.8,63.2 56.4,63.5 55.9,64.1 55.4,64.4 55.1,64.9 55.4,65.2 55.6,66.1 54.5,66.1 
		54.1,66.6 54.1,67.2 53.5,67.6 53.6,68.3 53.4,69 52.4,69 52.6,69.9 52,70.3 52.1,71 51,71.1 51.5,72.1 51.4,72.7 51,73.2 51,73.8 
		50,74 49.9,74.7 49.5,75.1 49,75 48.7,75.4 48.8,76.1 49,76.9 47.8,77 48.3,78 47.4,78.2 48,79.1 47.2,79.5 46.7,79.9 46.4,80.5 
		46.1,80.9 46.2,81.7 45.7,82.1 45.5,82.7 45,83.3 45.3,83.9 44.9,84.5 44.6,85 44.4,85.6 43.8,86 43.1,86.4 43.2,87.2 43.6,87.9 
		43.1,88.3 43,88.9 42.3,89.3 42.2,89.9 42.2,90.5 42.3,91.2 41.7,91.7 41.8,92.4 41.1,92.8 40.9,93.4 40.1,93.8 40.5,94.2 41,94.6 
		41.1,95.5 40.3,95.3 39.6,95.5 40.2,96.4 39.7,96.9 39.3,97.4 39.4,98.1 39.5,98.7 38.5,99.1 39.3,100 38.4,100.4 39.2,101.2 
		38.3,101.4 38,101.5 38.4,102.2 38,102.8 37.8,103.4 37.7,104 37.8,104.6 37.7,105.3 37.9,106.1 36.9,105.5 36.4,106.1 36.4,106.8 
		36.8,107 36.9,107.7 35.8,107.9 36.1,108.5 36.3,109.4 36.6,110.1 36,110.7 35.2,110.4 35.7,111 36.4,111.9 35,112.1 35.4,112.9 
		35.6,113.2 35.9,113.6 35.6,114 34.8,114 35.4,114.5 35.9,114.9 35.1,115.2 34.4,115.2 34.2,115.8 33.8,116.5 34.4,116.6 
		34.8,117.1 34.6,117.8 34.7,118.5 34.1,118.4 34.3,119 35.5,119.5 34.7,120.1 34.2,120.8 34.7,121.1 34.8,121.7 35.5,122.3 
		34.5,122.5 34.1,122.6 34.1,123.2 34.3,123.5 35.1,124 34.4,124.3 33.9,124.4 34.2,125.2 34,125.7 34.4,126.5 33.3,126.9 
		34.1,127.1 34.2,127.7 34.4,128.2 34.5,129 33.8,129.4 34.1,130.1 33.5,130.7 34.1,131.3 33.5,131.9 34.2,132.2 34.6,132.5 
		34.9,133.1 34.9,133.8 34,134.2 33.8,135 34.5,135 34.3,135.6 34.7,136.2 34.9,136.8 35,137.3 34.1,137.5 34.9,138.1 35.2,138.6 
		35.2,139.2 35.1,139.8 34.9,140.5 35.7,141 35.4,141.7 35.7,142.3 35.3,142.9 35.2,143 35.7,143.5 35,144.2 35.7,144.8 36.2,144.8 
		35.9,145.6 36.2,146.1 36.1,146.8 35.9,147.1 36.4,147.3 36.6,147.6 36.3,148 36.3,148.6 37.1,149.2 36.9,150.2 36.8,151.1 
		36.8,152 37.1,152.8 36.7,153.8 37.7,154.4 38,155.3 37.8,156.2 38.5,156.9 38.7,157.8 39.1,158.6 38.9,159.5 39.8,160.2 
		39.7,161.1 39.7,162 40.2,162.8 40.3,163.7 41.2,164.2 41,164.9 40.3,165.5 41.2,165.5 41.8,165.9 41.7,166.8 42.3,167.3 
		43.2,167.4 44,167.8 44.6,168.3 45.3,168.7 45.7,169.6 46.8,169.5 47.1,170.5 47.5,171.3 48.5,171.2 49.2,171.8 50,172 50.2,172.9 
		50.6,173.9 51.4,173.4 51.8,173.6 52.5,173.8 52,174.5 53,174.4 53.7,174.9 54.4,175.4 54.8,176.2 55.8,176.1 56.2,177.1 
		57.1,177.1 57.5,177.9 58.2,177.8 58.8,177.4 58.7,178.2 59,178.7 59.5,179 59.9,178.7 60.7,179 61.3,179.5 61.9,180.1 62.6,180.3 
		63.3,180.8 64.2,180.8 65.1,181.2 65.4,182.2 66,182.5 66.7,182.9 67.7,182.9 68.2,183.6 69.2,183.5 69.8,184.1 70.3,184.8 
		71.2,184.7 71.8,185.3 72.7,185.5 73.2,186.1 74,186.4 74.7,186.9 75.1,187.6 76,187.7 76.4,187.8 77,187.5 77.8,188 78.2,188.7 
		78.8,189.3 79.5,189.6 80.5,189.5 81.3,189.8 81.8,190.4 82.1,190 82.8,190.3 83.4,190.8 83.9,191.5 84.6,192.1 85.5,192.1 
		86.1,192.7 87,192.7 87.6,193.3 88.3,193.8 89.2,193.6 90.1,193.2 91,193.5 91.6,194.2 92.3,194.7 93.1,194.5 93.8,195 94.6,195.2 
		95.2,195.8 96.1,195.9 97.1,195.3 97.6,196.3 98.3,196.7 99.1,196.9 100.1,196.6 100.7,197.3 101.4,197.4 102.1,198 103,198.1 
		103.6,198.7 104.5,198.3 105.3,198.7 106.1,198.8 106.6,199.6 107.5,199.6 108.3,199.7 109.1,200 109.5,199.8 110.2,199.2 
		110.7,200.2 111.5,200.4 112.2,201 113.1,200.3 113.8,200.9 114.6,201.1 115.4,201.2 116.3,201.7 116.8,201.3 117.1,200.9 
		117.8,201 117.8,201.8 118.6,201.8 119.5,202 120.3,201.4 120.6,201.7 121.1,202.2 121.9,201.5 122.9,201.6 123.7,201.8 
		124.6,202.2 125.6,201.6 126.3,202.5 127.2,202.2 128.1,202.3 129,202.6 129.8,203.3 130.7,203.2 131.6,203.3 132.4,202.3 
		133.4,202.6 134.1,203.3 135,202.7 136,202.7 136.2,203.1 136.7,203.8 137.7,203.4 138.5,203.2 139.4,203.5 140.3,203.9 
		140.6,203.3 141.2,202.8 142,203.6 142.9,202.8 143.4,203.4 143.8,203.8 144.6,203.8 145.5,203.8 146.4,203.6 147.4,203.4 
		148,204.5 148.9,203.8 149.9,203.8 150.7,204.1 151.7,204 152.5,204.4 153.4,204.3 154.2,204.4 154.5,203.9 155.1,204.2 
		155.9,204.3 156.9,204.7 157.8,204.2 158.7,204.7 159.5,203.8 160.3,204.5 161.2,203.8 162.1,204.4 163,204.2 163.5,204 
		163.9,203.5 164,204.3 164.8,204.3 165.6,204.2 166.6,204.4 167.4,204.1 168.3,203.5 169.1,204.1 170,203.7 170.9,204 171.8,203.7 
		172.6,203.5 173.5,203.8 174.3,202.8 175.2,203.7 176.1,203 177,202.9 177.8,202.7 178.7,202.7 179.5,202.3 180.4,202.1 
		181.3,202.4 182.2,202.4 183.1,202.6 183.9,202.1 184.8,201.8 185.6,202.3 186.1,201.9 186.5,201.6 187.4,201.6 188.3,201.9 
		189.2,201.8 190,201.4 191,202 191.8,201.3 192.6,201.2 193.3,200.7 194.3,200.6 195.1,200.6 195.8,199.8 196.7,199.4 197.7,199.5 
		198.5,199.4 199.4,199.3 200.3,199 201.1,199 201.8,198.3 202.8,198.7 203.1,198.2 203.5,197.7 204.4,198 205.2,197.8 206.3,198 
		206.9,197.1 207.7,196.9 208.7,196.8 209.6,196.7 210.3,196.1 211.2,196 211.5,194.7 212.7,195 213.4,194.4 214.4,194.7 
		215.2,194.1 215.7,193.3 216.6,193.3 217.6,193 217.5,192.7 218.2,192.4 219.1,192.3 219.7,192.4 220.3,192.8 220.9,192.1 
		221.6,191.5 222.4,191.2 223.3,191.1 224,190.5 224.8,190.1 225.6,189.7 226.5,189.4 227.1,188.8 227.5,187.8 228.6,187.8 
		229.6,187.6 229.9,186.7 230.9,186.8 231.6,186.2 232.2,185.4 233.3,185.6 233.6,184.6 234.7,184.6 235.6,184.3 235.4,183.5 
		235.7,182.9 236.7,182.8 237.3,182.1 237.9,181.5 238.7,181.1 239.2,180.3 240,179.8 240.7,179.4 241.4,178.9 242.4,178.8 
		243,178.1 243.9,177.8 244.5,177.2 245.4,176.8 245.8,176.6 246,176.1 246.6,175.5 247.4,175.1 248.1,174.7 249,174.4 249.5,173.6 
		250.2,173 251.2,172.7 251.1,171.5 252,171.3 252.2,171 251.6,170.1 252.5,169.5 252.4,168.5 252.9,167.7 252.5,166.7 253.1,165.9 
		253.5,165.7 253.8,165.2 253.9,164.3 253.9,163.4 253.8,162.5 254.7,161.8 254.7,160.8 254.5,160 254.7,159.1 254.9,158.2 
		254.9,157.3 255,156.5 254.9,155.5 254.8,155.3 255.5,154.8 255.5,153.9 255.4,153.7 255.9,153.2 256.4,153 256.2,152.1 
		256.9,151.5 257.5,151.3 257.2,150.6 257.7,150.2 258.4,149.8 258.7,149.3 258.4,148.7 257.9,148.1 258.8,147.9 258.3,146.9 
		259.5,147 259.5,146.2 260.1,146.1 260.5,145.4 260.6,144.7 260.5,143.9 261.3,143.7 261.1,143.2 260.8,142.8 261.4,142.5 
		261.5,141.9 261.4,141.1 262.4,140.9 262.2,140.2 262.8,139.6 263.9,139.6 263.6,138.8 264.4,138.5 264.2,137.8 263.9,137 
		264.2,136.4 264.5,135.7 264.9,135.4 265.4,134.8 265.8,134.4 	"/>
</g>
<g>
	<defs>
		<polygon id="XMLID_3_" points="252.8,169.7 251.3,169.8 251.3,170.2 250.8,170.9 250.1,171.2 249.7,171.8 249.2,172.1 
			248.5,172.4 247.6,173.5 246.5,174.2 245.9,174.7 245.5,175.2 244.9,175.4 243.8,176.4 242.8,177.2 242.2,177.4 240.6,178.8 
			240,178.9 239.1,179.4 238.8,180.1 238.4,180.4 237.8,180.7 237.1,181.2 236.7,181.5 235.8,181.7 235.4,182.3 234.8,182.6 
			234.4,183.1 233.7,183.3 233.2,183.9 232.7,184.2 232.1,184.5 231.5,184.9 230.9,185.1 229.7,186.1 229.3,186.6 228.6,186.7 
			228.1,187.2 227.5,187.3 226.9,187.8 226.2,188.1 225.8,188.4 225,188.4 224.3,188.8 223.8,189.3 223.2,189.6 222.6,189.9 
			221.9,190 221.4,190.5 220.6,190.5 220.1,191.1 219.6,191.4 218.8,191.4 218.2,191.9 217.7,192.1 217.1,192.1 216.3,192.4 
			215.7,192.8 215,192.8 214.4,193.3 213.9,193.4 213.1,193.7 212.4,193.9 211.9,194.2 211.2,194.3 210.6,194.8 209.9,194.7 
			209.3,195.1 208.7,195.2 207.9,195.5 207.4,195.8 206.8,195.8 206.1,196 205.4,196.2 203.9,196.5 203.4,197 202.8,197.1 
			202.1,197.2 201.4,197.4 200.7,197.6 200.2,197.9 199.5,197.7 198.7,198.1 198.2,198.4 196.8,198.6 196.2,198.8 195.6,199.1 
			194.9,199 194.3,199.3 193.5,199.1 192.8,199.6 192.2,199.5 191.5,199.5 190.8,199.7 190.1,199.8 189.5,200.1 188.2,200.3 
			187.5,200.2 186.8,200.6 186.1,200.6 185.4,200.7 184.8,200.9 183.5,200.9 182.8,201.2 182.2,201.2 181.4,201.1 180.1,201.5 
			179.4,201.4 178.7,201.4 178,201.8 177.5,201.8 176.7,201.7 176,201.8 174.7,202.2 174.1,202.1 173.4,201.9 172.6,202 
			171.9,202.4 171.4,202.4 170.6,202.3 169.9,202.4 169.2,202.6 168.5,202.5 168,202.6 167.3,202.4 165.8,202.5 165.2,202.6 
			163.8,202.4 163,202.6 162.5,202.8 161.8,202.5 161.1,202.7 160.4,202.5 159.6,202.8 159.1,202.9 158.4,202.7 157,202.9 
			156.4,202.8 155.6,202.7 155,202.8 154.3,202.6 153.5,202.8 152.9,202.8 152.3,202.8 151.6,202.4 150.8,202.7 150.2,202.8 
			149.6,202.4 148.1,202.3 147.3,202.4 146.7,202.6 145.4,202.2 144.7,202.5 144.1,202.2 142.7,202.5 142,202.1 141.3,202.3 
			140.6,202.1 140,202.3 139.5,202 138.6,201.9 137.9,202 137.3,201.8 136.6,201.8 135.9,201.7 135.2,201.8 134.5,201.5 
			133.9,201.8 133.3,201.4 132.5,201.4 131.8,201.6 131.3,201.3 130.4,201.2 129.7,201.4 129.1,201.2 128.4,201.2 127.7,201.3 
			127.1,201.1 126.4,201.2 125.7,200.7 125,200.9 124.4,200.6 123.6,200.8 123,200.5 122.2,200.7 121.6,200.6 121,200.6 
			120.4,200.3 119.6,200 118.9,200.2 118.3,199.9 117.6,200 117,199.8 116.2,199.7 115.5,199.7 114.3,199.5 113.6,199 112.2,199 
			110.9,198.7 110.2,198.7 109.7,198.4 108.8,198.3 108.2,198.2 107.5,198 106.8,198 106.2,197.8 105,197.4 104.3,197.2 103.6,197 
			103,196.7 102.2,196.5 101.6,196.5 100.9,196.2 100.3,196.1 99.8,195.9 99,195.5 98.3,195.5 97.8,195.2 97.2,194.8 96.5,194.6 
			95.8,194.3 95.1,194.4 94.5,194 93.8,194 93.2,193.8 92.6,193.5 92,193.1 91.3,193 90.7,192.6 90,192.5 89.5,192.2 88.8,191.7 
			88,191.8 86.9,191 86.2,191 85.7,190.6 85.1,190.3 84.2,190.1 83.7,190 83.2,189.3 82.3,189.4 81.9,189.1 81.2,188.9 80.6,188.4 
			79.9,188.2 79.4,187.9 78.7,187.6 78.1,187.4 77.6,186.9 76.8,186.7 76.2,186.6 75.7,186.2 75.1,185.9 74.5,185.3 73.7,185.2 
			73.2,185 72.7,184.6 71.9,184.2 70.7,183.8 70.2,183.3 69.5,183.1 69,182.8 68.4,182.4 67.7,182.1 67.2,181.9 66.7,181.4 66,181 
			65.5,180.6 64.7,180.4 64.1,180.1 63,179.4 62.4,179.1 61.3,178.5 60.8,177.8 59.4,177.4 59,176.9 58.4,176.4 57.6,176.2 
			57.1,176 56.6,175.7 56.2,175 54.9,174.3 54.2,174.1 53.7,173.8 53.2,173.3 52.6,173.1 52.2,172.3 51.4,172.2 50.4,171.2 
			49.7,171.1 49.3,170.6 46.9,169.3 46.6,168.6 45.9,168.3 45.4,167.7 44.6,167.6 44.1,167.3 43.8,166.9 43.3,166.2 42.6,165.8 
			40.7,165.2 42,167.3 42.8,169.1 43,169.9 43.5,170.4 43.8,171.7 44.1,172.4 44.8,172.9 44.9,173.5 45.1,174.2 46.4,175.9 
			46.7,176.4 46.9,177.1 47.6,178.3 47.9,179 48.8,180.1 49.6,181.2 49.9,181.9 50.4,182.3 50.6,183.1 51.3,183.5 51.7,184 
			52,184.5 52.3,185.1 52.9,185.9 53.5,186.2 53.8,186.6 54.3,187.2 54.7,187.9 55.3,188.3 56.2,189.2 56.5,189.8 57,190.4 
			57.5,190.9 58.2,191.2 58.5,191.8 59.2,192.2 59.5,192.7 60.1,193.2 60.5,193.7 61.7,194.4 62.1,195.1 62.8,195.4 63.2,195.8 
			63.7,196.3 64.2,196.9 64.9,197.2 65.4,197.7 66.1,197.9 66.4,198.4 67.1,198.9 67.6,199.3 68.2,199.8 68.9,200 69.3,200.3 
			69.9,200.9 70.4,201.3 71.1,201.6 72.2,202.6 72.9,202.7 73.8,203.7 74.4,204.2 75.2,204.3 75.8,204.6 77.4,205.8 78.1,206.1 
			78.6,206.6 79.4,206.8 79.9,207 80.3,207.5 81.7,208.3 83,208.8 83.5,209.1 84.3,209.4 85,209.4 85.5,209.7 86.1,210.3 
			86.9,210.2 87.4,210.7 88.7,211 89.2,211.4 90,211.7 90.6,211.8 91.2,212.3 92,212.3 92.5,212.5 93.1,213 94,213 94.4,213.2 
			95,213.7 96.5,214.1 97.2,214.1 97.6,214.4 98.3,214.9 99,215 99.7,215.2 100.4,215.4 101,215.5 101.6,215.9 102.4,216 103,216 
			103.7,216.3 104.3,216.4 105.5,216.8 106.1,217.2 106.9,217.4 107.6,217.6 108.3,217.5 108.9,217.9 109.6,217.8 110.1,218.2 
			111,218.4 111.7,218.3 112.3,218.6 112.9,218.6 113.6,219.1 114.4,218.9 115.6,219.1 116.3,219.5 117,219.5 117.6,219.9 
			118.3,219.8 118.9,220.2 120.4,220.4 121.6,220.6 122.4,220.8 123,220.8 123.8,221 124.4,220.8 125,221.3 125.8,221.1 
			126.4,221.5 127.1,221.3 127.7,221.7 128.5,221.6 129.1,221.7 129.8,221.9 130.6,222 131.2,222 132.6,222.2 133.3,222.3 
			134,222.1 134.7,222.2 135.3,222.2 136,222.5 136.7,222.4 137.3,222.8 138.1,222.5 138.6,222.6 139.4,223 140.2,222.7 
			140.9,222.7 141.5,222.6 142.9,222.9 143.5,222.8 144.2,223 144.9,223 145.5,223 146.3,223.1 147,223 147.6,223.2 148.4,223.2 
			149.1,223.1 149.7,223.1 151,223.1 151.8,223.3 153.1,223.1 153.8,223.4 154.6,223.3 155.2,223.1 155.8,223.1 157.3,223.3 
			158.1,223.2 158.7,223 159.3,223.1 160,222.9 160.7,223.2 162.1,222.9 162.7,223 163.5,222.9 164.1,222.8 164.7,223 165.6,223 
			166.3,222.6 167.6,222.6 168.2,222.5 168.9,222.5 170.2,222.3 171,222.6 171.7,222.1 172.3,222.1 173,222.2 173.7,222 
			175.1,222.1 175.8,221.7 176.3,221.7 177.1,221.9 177.9,221.6 178.5,221.4 179.1,221.2 179.7,221.2 180.5,221.4 181.3,221.1 
			181.9,220.9 182.5,220.8 183.2,220.9 183.9,220.7 185.4,220.6 185.9,220.3 186.6,220.4 187.4,220.3 188,220.2 188.7,220.1 
			189.3,219.7 190,219.8 190.7,219.5 191.3,219.5 192.1,219.3 192.8,219.2 193.4,218.7 194,218.6 194.7,218.5 195.3,218.3 
			196.1,218.6 196.8,218.1 197.4,217.8 198,217.7 198.7,217.6 199.4,217.5 200.6,217 201.3,217 202.2,216.9 202.8,216.4 
			203.3,216.2 203.9,216.2 204.7,215.9 205.3,215.6 205.9,215.6 206.7,215.4 207.3,214.9 207.9,214.8 208.6,214.5 209.3,214.4 
			209.9,213.9 210.6,213.9 211.2,213.4 211.7,213.2 212.6,213.1 213.1,212.5 213.6,212.4 214.4,212 214.9,211.7 215.5,211.4 
			216.7,210.9 217.4,210.7 218.2,210.4 218.7,210 219.3,209.9 220.1,209.4 220.5,209 221.1,208.8 221.8,208.4 222.2,207.9 
			222.9,207.7 223.4,207.2 224.3,207.2 224.6,206.5 225.2,206.4 226,205.9 226.9,205 227.5,204.7 228.2,204.5 228.8,204.1 
			229.3,203.7 230,203.2 230.4,202.5 230.9,202.3 231.4,201.8 232.2,201.6 232.6,200.8 233.5,200.1 234.2,199.9 234.8,199.3 
			235.2,198.6 235.6,198.3 236.3,198 236.8,197.4 237.3,197.1 237.8,196.4 238.7,195.5 239.3,195 239.8,194.5 240.2,194 
			240.6,193.5 241.1,193.1 241.6,192.4 242,191.8 242.3,191.3 243.4,190.4 243.7,189.7 244.2,189.3 244.5,188.6 244.9,188.1 
			245.4,187.4 245.6,186.9 246.1,186.3 246.7,185.1 247.2,184.6 247.4,183.8 247.7,183.4 248.3,182.8 248.3,181.9 248.6,181.5 
			249.1,180.9 249.5,179.6 249.8,178.9 249.9,178.2 250.7,176.4 250.8,175.6 251.1,175.1 251.2,174.3 251.4,173.7 251.7,173 
			251.7,172.3 252.1,171.7 252.2,170.9 252.2,170.5 		"/>
	</defs>
	<use xlink:href="#XMLID_3_"  style="overflow:visible;fill:#005944;"/>
	<clipPath id="XMLID_27_">
		<use xlink:href="#XMLID_3_"  style="overflow:visible;"/>
	</clipPath>
</g>
<g>
	<path class="st6" d="M152.1,147.9C152,147.8,151.9,147.8,152.1,147.9L152.1,147.9z"/>
	<path class="st6" d="M112.7,131C112.7,131,112.7,131,112.7,131C112.7,131,112.8,131,112.7,131C112.8,131,112.8,131,112.7,131
		C112.8,131,112.7,131,112.7,131z"/>
	<g>
		<defs>
			<path id="XMLID_1_" d="M273.1,126.6c0.4-0.6,0.6-1.2,0.5-1.9c0.3-0.7,0.5-1.4,0.4-2.2c0,0,0-0.1,0-0.1c0.1-0.2,0.1-0.4,0.1-0.5
				c0-0.5-0.2-1-0.4-1.4c0-0.2,0-0.4-0.1-0.6c0.1-0.1,0.4-0.3,0.4-0.4c0-0.1-0.1-0.2-0.2-0.3c0-0.2,0-0.4,0-0.6
				c0.1-0.1,0.2-0.2,0.2-0.3c0-0.2-0.1-0.4-0.1-0.6c0-0.2-0.2-0.4-0.2-0.6c0-0.2,0.2-0.4,0.2-0.6c0-0.2-0.4-0.4-0.4-0.6
				c0-0.2,0-0.4,0-0.6c0-0.2-0.1-0.4-0.1-0.6c0-0.2,0-0.4,0-0.6c0-0.2,0-0.4-0.1-0.6c0-0.2,0.3-0.5,0.3-0.7c0-0.2-0.5-0.3-0.6-0.5
				c0,0,0-0.1,0-0.1c0,0,0-0.1,0-0.1c0.1-0.2,0.2-0.3,0.1-0.5c0-0.2,0.1-0.4,0.1-0.6c0-0.2,0-0.4,0-0.6c0-0.2-0.5-0.3-0.5-0.5
				c0-0.2,0.3-0.5,0.3-0.7c0-0.2-0.5-0.3-0.5-0.5c0-0.2-0.1-0.4-0.2-0.6c-0.1-0.2-0.2-0.4-0.3-0.6c-0.1-0.2,0.3-0.5,0.2-0.7
				c-0.1-0.2-0.5-0.3-0.6-0.5c-0.1-0.2-0.2-0.4-0.3-0.5c-0.1-0.2,0-0.4,0-0.6c-0.1-0.2-0.2-0.4-0.3-0.6c-0.1-0.2,0.4-0.6,0.3-0.8
				c-0.1-0.2-0.2-0.4-0.3-0.6c-0.1-0.2-0.2-0.4-0.3-0.5c-0.1-0.2-0.6-0.2-0.7-0.4c-0.1-0.2,0.2-0.5,0.2-0.7
				c-0.1-0.2-0.1-0.4-0.2-0.6c-0.1-0.2-0.4-0.3-0.5-0.5c-0.1-0.2-0.3-0.3-0.4-0.5c-0.1-0.2,0.5-0.7,0.4-0.8
				c-0.1-0.2-0.7-0.2-0.7-0.4c-0.1-0.2-0.2-0.4-0.3-0.6c-0.1-0.2-0.2-0.4-0.3-0.5c-0.1-0.2,0.4-0.6,0.3-0.8
				c-0.1-0.2-0.8-0.1-0.9-0.3c-0.1-0.2-0.2-0.4-0.3-0.5c-0.1-0.2,0.4-0.7,0.4-0.8c-0.1-0.2-0.1-0.4-0.1-0.6c-0.1-0.2-0.8,0-0.9-0.2
				c-0.1-0.2,0.2-0.6,0.1-0.7c-0.1-0.2-0.3-0.3-0.3-0.5c-0.1-0.2,0-0.5,0-0.7c-0.1-0.2-0.4-0.2-0.5-0.4c-0.1-0.2-0.5-0.2-0.6-0.4
				c-0.1-0.2,0.3-0.6,0.2-0.8c-0.1-0.2-0.4-0.3-0.5-0.4c-0.1-0.2-0.1-0.4-0.2-0.6c-0.1-0.2-0.6-0.1-0.7-0.3c-0.1-0.2,0-0.5-0.1-0.7
				c-0.1-0.2-0.3-0.3-0.4-0.5c-0.1-0.2-0.4-0.3-0.5-0.4c-0.1-0.2,0.3-0.6,0.2-0.8c-0.1-0.2-0.3-0.3-0.4-0.5
				c-0.1-0.2-0.5-0.2-0.6-0.3c-0.1-0.2,0.2-0.6,0.1-0.8c-0.1-0.2-0.2-0.3-0.4-0.5c-0.1-0.2-0.8,0-0.9-0.1c-0.1-0.2,0-0.5-0.1-0.6
				c-0.1-0.2,0.2-0.6,0.1-0.8c-0.1-0.2-0.7,0-0.8-0.2c-0.1-0.2,0.2-0.6,0.1-0.8c-0.1-0.2-0.2-0.3-0.4-0.5c-0.1-0.2-0.3-0.3-0.4-0.5
				c-0.1-0.2-0.6-0.1-0.7-0.3c-0.1-0.2-0.2-0.4-0.3-0.5c-0.1-0.2,0.1-0.5-0.1-0.7c-0.1-0.2-0.5-0.2-0.6-0.3
				c-0.1-0.2-0.1-0.5-0.2-0.6c-0.1-0.2-0.4-0.2-0.5-0.4c-0.1-0.2-0.6-0.1-0.7-0.2c-0.1-0.2,0.1-0.6-0.1-0.7
				c-0.1-0.2-0.4-0.2-0.5-0.4c-0.1-0.2,0.2-0.7,0.1-0.8c-0.1-0.2-0.6,0-0.8-0.2c-0.1-0.2,0.1-0.6,0-0.8c-0.1-0.2-0.8,0.1-0.9,0
				c-0.1-0.2,0-0.5-0.2-0.7c-0.1-0.2-0.2-0.3-0.4-0.5c-0.1-0.2-0.2-0.4-0.3-0.5c-0.1-0.2-0.2-0.4-0.3-0.5c-0.1-0.2-0.7,0-0.8-0.1
				c-0.1-0.2,0-0.5-0.2-0.7c-0.1-0.2-0.1-0.4-0.3-0.6c-0.1-0.2-0.3-0.3-0.4-0.4c-0.1-0.2-0.6-0.1-0.7-0.2c-0.1-0.2-0.1-0.5-0.2-0.6
				c-0.1-0.2-0.2-0.3-0.4-0.5c-0.1-0.2-0.4-0.2-0.5-0.4c-0.1-0.2-0.4-0.2-0.5-0.3c-0.1-0.2-0.3-0.3-0.4-0.5
				c-0.1-0.2-0.1-0.5-0.2-0.6c-0.1-0.2-0.1-0.5-0.2-0.6c-0.1-0.2-0.5-0.1-0.7-0.2c-0.1-0.1,0.1-0.7,0-0.8c-0.1-0.1-0.5,0-0.7-0.2
				c-0.1-0.1-0.3-0.3-0.5-0.4c-0.1-0.1,0-0.5-0.2-0.7c-0.1-0.1-0.8,0.2-1,0.1c-0.1-0.1,0.3-0.9,0.1-1c-0.1-0.1-0.6,0-0.7-0.2
				c-0.1-0.1-0.5-0.1-0.6-0.2c-0.1-0.1-0.2-0.4-0.4-0.5s0-0.6-0.2-0.7c-0.1-0.1-0.5-0.1-0.7-0.2c-0.1-0.1-0.2-0.4-0.4-0.5
				c-0.1-0.1-0.4-0.2-0.5-0.3c-0.1-0.1-0.4-0.2-0.5-0.3c-0.1-0.1-0.1-0.5-0.3-0.6c-0.1-0.1-0.1-0.5-0.3-0.6
				c-0.2-0.1-0.8,0.2-0.9,0.1c-0.2-0.1-0.2-0.4-0.3-0.5c-0.2-0.1-0.5-0.1-0.6-0.2c-0.2-0.1,0.2-0.8,0-1c-0.2-0.1-0.3-0.3-0.4-0.5
				c-0.2-0.1-0.8,0.3-1,0.2c-0.2-0.1-0.2-0.4-0.3-0.5c-0.2-0.1-0.4-0.1-0.6-0.3c-0.2-0.1,0.2-0.9,0.1-1c-0.2-0.1-0.8,0.4-1,0.2
				c-0.2-0.1-0.2-0.3-0.4-0.5c-0.2-0.1-0.3-0.3-0.4-0.4c-0.2-0.1-0.4-0.2-0.5-0.3c-0.2-0.1-0.2-0.3-0.4-0.5
				c-0.2-0.1-0.4-0.2-0.5-0.3c-0.2-0.1,0-0.7-0.2-0.8c-0.2-0.1-0.7,0.2-0.8,0c-0.2-0.1-0.1-0.5-0.3-0.6c-0.2-0.1-0.5,0-0.7-0.1
				c-0.2-0.1-0.1-0.5-0.3-0.6c-0.2-0.1-0.3-0.2-0.5-0.4c-0.2-0.1-0.5-0.1-0.6-0.2c-0.2-0.1,0-0.6-0.2-0.7c-0.2-0.1-0.7,0.2-0.8,0.1
				c-0.2-0.1-0.2-0.5-0.3-0.6c-0.2-0.1-0.5-0.1-0.6-0.2c-0.2-0.1-0.3-0.3-0.5-0.4c-0.2-0.1-0.2-0.4-0.4-0.5
				c-0.2-0.1-0.4-0.1-0.6-0.2c-0.2-0.1-0.2-0.4-0.4-0.5c-0.2-0.1-0.4-0.1-0.6-0.3c-0.2-0.1,0-0.7-0.2-0.8c-0.2-0.1-0.5,0-0.7-0.1
				c-0.2-0.1-0.2-0.5-0.3-0.6c-0.2-0.1-0.3-0.3-0.5-0.4c-0.2-0.1-0.7,0.3-0.9,0.2c-0.2-0.1-0.2-0.5-0.4-0.6
				c-0.2-0.1-0.4-0.1-0.6-0.2c-0.2-0.1-0.1-0.6-0.3-0.7c-0.2-0.1-0.4-0.1-0.6-0.2c-0.2-0.1-0.5,0-0.7-0.1c-0.2-0.1-0.4-0.1-0.6-0.2
				c-0.2-0.1-0.1-0.5-0.3-0.6c-0.2-0.1-0.3-0.3-0.5-0.4c-0.2-0.1-0.3-0.4-0.4-0.5c-0.2-0.1-0.2-0.4-0.4-0.5
				c-0.2-0.1-0.6,0.3-0.8,0.1c-0.2-0.1-0.4-0.1-0.6-0.2c-0.2-0.1-0.1-0.7-0.2-0.8c-0.2-0.1-0.4-0.1-0.6-0.2
				c-0.2-0.1-0.4-0.1-0.6-0.2c-0.2-0.1-0.5,0-0.7-0.1c-0.2-0.1-0.3-0.3-0.5-0.4c-0.2-0.1-0.3-0.3-0.4-0.5c-0.2-0.1-0.5,0-0.7-0.1
				c-0.2-0.1-0.3-0.4-0.4-0.5c-0.2-0.1-0.4-0.1-0.6-0.2c-0.2-0.1-0.3-0.3-0.5-0.4c-0.2-0.1-0.3-0.3-0.5-0.4
				c-0.2-0.1-0.3-0.3-0.5-0.4c-0.2-0.1-0.6,0.3-0.8,0.2c-0.2-0.1-0.1-0.6-0.3-0.7c-0.2-0.1-0.6,0.2-0.8,0.1
				c-0.2-0.1-0.1-0.7-0.3-0.8c-0.2-0.1-0.4-0.1-0.6-0.2c-0.2-0.1-0.5,0-0.6-0.1c-0.2-0.1-0.4-0.1-0.6-0.2c-0.2-0.1-0.2-0.5-0.4-0.6
				c-0.2-0.1-0.3-0.3-0.5-0.4c-0.2-0.1-0.2-0.4-0.4-0.5c-0.2-0.1-0.4,0-0.6-0.1c-0.2-0.1-0.4-0.2-0.6-0.3c-0.2-0.1-0.3-0.3-0.5-0.4
				c-0.2-0.1-0.4-0.2-0.6-0.3c-0.2-0.1-0.7,0.5-0.9,0.4c-0.2-0.1-0.3-0.3-0.5-0.4c-0.2-0.1-0.1-0.8-0.3-0.9
				c-0.2-0.1-0.6,0.3-0.8,0.2c-0.2-0.1-0.4-0.1-0.6-0.1c-0.2-0.1-0.4-0.1-0.6-0.2c-0.2-0.1-0.4-0.1-0.6-0.2
				c-0.2-0.1-0.3-0.3-0.5-0.3c-0.2-0.1-0.1-0.7-0.3-0.8c-0.2-0.1-0.7,0.4-0.8,0.4c-0.2-0.1-0.2-0.5-0.4-0.6c-0.2-0.1-0.5,0-0.7,0
				c-0.2-0.1-0.3-0.4-0.4-0.5c-0.2-0.1-0.4-0.2-0.6-0.3c-0.2-0.1-0.5,0-0.6-0.1c-0.2-0.1-0.4-0.2-0.5-0.3c-0.2-0.1-0.2-0.6-0.4-0.7
				c-0.2-0.1-0.5,0.1-0.7,0c-0.2-0.1-0.6,0.3-0.8,0.2c-0.2-0.1-0.3-0.4-0.5-0.5c-0.2-0.1-0.4,0-0.6-0.1c-0.2-0.1-0.3-0.4-0.5-0.5
				c-0.2-0.1-0.3-0.3-0.5-0.4c-0.2-0.1-0.4-0.2-0.5-0.3c-0.2-0.1-0.5,0-0.7,0c-0.2-0.1-0.5,0.3-0.7,0.2c-0.2-0.1-0.3-0.4-0.5-0.5
				c-0.2-0.1-0.2-0.6-0.4-0.7c-0.2-0.1-0.4-0.1-0.6-0.2c-0.2-0.1-0.6,0.4-0.8,0.3c-0.2-0.1-0.3-0.4-0.5-0.4
				c-0.2-0.1-0.5,0.3-0.7,0.2c-0.2-0.1-0.2-0.6-0.4-0.7c-0.2-0.1-0.3-0.3-0.5-0.4c-0.2-0.1-0.5,0.2-0.7,0.1
				c-0.2-0.1-0.2-0.6-0.4-0.7c-0.2-0.1-0.6,0.3-0.7,0.3c-0.2-0.1-0.4,0-0.6-0.1c-0.2-0.1-0.3-0.4-0.5-0.5c-0.2-0.1-0.3-0.4-0.5-0.4
				c-0.2-0.1-0.6,0.5-0.8,0.5c-0.2-0.1-0.3-0.6-0.4-0.6c-0.2-0.1-0.4-0.1-0.6-0.2c-0.2-0.1-0.3-0.3-0.5-0.4c-0.2-0.1-0.4,0-0.6,0
				c-0.2-0.1-0.4,0.1-0.6,0c-0.2-0.1-0.5,0.2-0.7,0.1c-0.2-0.1-0.4-0.1-0.6-0.2c-0.2-0.1-0.3-0.3-0.5-0.3c-0.2-0.1-0.5,0.1-0.7,0.1
				c-0.2-0.1-0.2-0.9-0.4-0.9c-0.2-0.1-0.4-0.1-0.6-0.1c-0.2-0.1-0.5,0.4-0.7,0.4c-0.2-0.1-0.5,0.1-0.7,0.1
				c-0.2-0.1-0.2-0.8-0.4-0.8c-0.2-0.1-0.5,0.5-0.7,0.4c-0.2-0.1-0.4-0.2-0.6-0.3c-0.2-0.1-0.4-0.3-0.6-0.3
				c-0.2-0.1-0.5,0.1-0.7,0.1c-0.2,0-0.3-0.4-0.5-0.5c-0.2,0-0.5,0.3-0.7,0.3c-0.2,0-0.4-0.2-0.6-0.3c-0.2,0-0.4,0.1-0.6,0.1
				c-0.2,0-0.3-0.7-0.5-0.7c-0.2,0-0.4,0-0.6,0c-0.2,0-0.5,0.3-0.7,0.2c-0.2,0-0.3-0.4-0.5-0.4c-0.2,0-0.4-0.2-0.6-0.2
				c-0.2,0-0.4-0.1-0.6-0.1c-0.2,0-0.4-0.2-0.6-0.2c-0.2,0-0.4-0.2-0.6-0.2c-0.2,0-0.4-0.2-0.6-0.3c-0.2,0-0.5,0.5-0.7,0.5
				c-0.2,0-0.3-0.4-0.5-0.5c-0.2,0-0.4-0.3-0.6-0.4c-0.2,0-0.4,0-0.6-0.1c-0.2,0-0.5,0.6-0.7,0.6c-0.2,0-0.4-0.1-0.6-0.1
				c-0.2,0-0.4-0.1-0.6-0.2c-0.2,0-0.4-0.2-0.6-0.2c-0.2,0-0.4,0.2-0.7,0.2c-0.2,0-0.3-0.6-0.5-0.6c-0.2,0-0.5,0.4-0.7,0.4
				c-0.2,0-0.3-0.7-0.5-0.7c-0.2,0-0.5,0.4-0.7,0.4c-0.2,0-0.4-0.5-0.6-0.5c-0.2,0-0.4,0.2-0.6,0.2c-0.2,0-0.4,0.1-0.6,0.1
				c-0.2,0-0.4-0.4-0.6-0.4c-0.2,0-0.5,0.3-0.7,0.3c-0.2,0-0.4-0.1-0.6-0.2c-0.2,0-0.4-0.4-0.6-0.4c-0.2,0-0.4-0.2-0.6-0.2
				c-0.2,0-0.5,0.7-0.7,0.7c-0.2,0-0.4-0.1-0.6-0.1c-0.2,0-0.4-0.3-0.6-0.3c-0.2,0-0.4-0.1-0.6-0.2c-0.2,0-0.4,0.3-0.6,0.3
				c-0.2,0-0.4-0.7-0.6-0.7c-0.2,0-0.4,0.2-0.6,0.2c-0.2,0-0.4-0.3-0.6-0.3c-0.2,0-0.4,0.5-0.7,0.5c-0.2,0-0.4-0.2-0.6-0.2
				c-0.2,0-0.4,0.2-0.6,0.2c-0.2,0-0.4-0.6-0.6-0.7c-0.2,0-0.4-0.1-0.6-0.1c-0.2,0-0.5,0.8-0.7,0.8c-0.2,0-0.4-0.4-0.6-0.4
				c-0.2,0-0.4-0.4-0.6-0.4c-0.2,0-0.4,0.3-0.6,0.3c-0.2,0-0.4,0.4-0.6,0.4c-0.2,0-0.4-0.6-0.6-0.7c-0.2,0-0.4,0.5-0.6,0.5
				c-0.2,0-0.4-0.3-0.6-0.3c-0.2,0-0.4,0.4-0.6,0.4c-0.2,0-0.4-0.1-0.6-0.1c-0.2,0-0.4-0.2-0.6-0.2c-0.2,0-0.4,0.4-0.6,0.4
				c-0.2,0-0.4-0.8-0.6-0.8c-0.2,0-0.4,0.5-0.6,0.5c-0.2,0-0.4-0.6-0.6-0.6c-0.2,0-0.4,0.1-0.6,0.1c-0.2,0-0.4,0.1-0.6,0.1
				c-0.2,0-0.4-0.1-0.6-0.1c-0.2,0-0.4,0.6-0.6,0.6c-0.2,0-0.4-0.1-0.6-0.1c-0.2,0-0.4-0.4-0.6-0.4c-0.2,0-0.4,0.6-0.6,0.6
				c-0.2,0-0.4-0.2-0.6-0.2c-0.2,0-0.4-0.3-0.6-0.3c-0.2,0-0.4,0.7-0.6,0.7c-0.2,0-0.4-0.6-0.6-0.6c-0.2,0-0.4,0-0.6,0
				c-0.2,0-0.4,0.2-0.6,0.2c-0.2,0-0.4,0.5-0.6,0.5c-0.2,0-0.4-0.4-0.6-0.4c-0.2,0-0.4-0.1-0.6-0.1c-0.2,0-0.4,0.1-0.6,0.1
				c-0.2,0-0.4,0.3-0.6,0.3c-0.2,0-0.4,0.2-0.6,0.3c-0.2,0-0.5-0.4-0.7-0.4c-0.2,0-0.4,0.2-0.6,0.2c-0.2,0-0.4-0.3-0.6-0.3
				c-0.2,0-0.4,0.3-0.6,0.4c-0.2,0-0.4,0.2-0.6,0.2c-0.2,0-0.4,0.2-0.6,0.2c-0.2,0-0.5-0.6-0.7-0.6c-0.2,0-0.4,0.2-0.6,0.2
				c-0.2,0-0.4,0.2-0.6,0.2c-0.2,0-0.4-0.1-0.6-0.1c-0.2,0-0.4-0.1-0.6,0c-0.2,0-0.4,0-0.6,0c-0.2,0-0.4,0-0.6,0
				c-0.2,0-0.4,0.2-0.6,0.2c-0.2,0-0.3,0.5-0.5,0.5c-0.2,0-0.4,0-0.6,0c-0.2,0-0.4-0.2-0.6-0.1c-0.2,0-0.4,0.3-0.6,0.3
				c-0.2,0-0.5-0.3-0.7-0.3c-0.2,0-0.3,0.6-0.5,0.6c-0.2,0-0.4,0.1-0.6,0.1c-0.2,0-0.5-0.2-0.7-0.1c-0.2,0-0.4-0.2-0.6-0.1
				c-0.2,0-0.3,0.5-0.5,0.6c-0.2,0-0.4,0.3-0.6,0.3c-0.2,0-0.4,0.2-0.6,0.2c-0.2,0-0.5-0.4-0.7-0.4c-0.2,0-0.4-0.1-0.6-0.1
				c-0.2,0-0.4,0.1-0.6,0.1c-0.2,0-0.4,0.1-0.6,0.1c-0.2,0-0.3,0.4-0.5,0.4c-0.2,0-0.4-0.1-0.6,0c-0.2,0-0.4,0-0.6,0
				c-0.2,0.1-0.2,0.9-0.4,0.9c-0.2,0.1-0.6-0.5-0.8-0.5c-0.2,0.1-0.4,0.1-0.6,0.1c-0.2,0.1-0.2,0.8-0.4,0.9
				c-0.2,0.1-0.6-0.5-0.8-0.5c-0.2,0.1-0.3,0.6-0.5,0.7c-0.2,0.1-0.4,0.1-0.6,0.1c-0.2,0.1-0.4-0.1-0.6,0c-0.2,0.1-0.4,0-0.6,0.1
				c-0.2,0.1-0.4,0-0.6,0.1c-0.2,0.1-0.2,0.6-0.4,0.7c-0.2,0.1-0.5-0.3-0.7-0.3c-0.2,0.1-0.3,0.4-0.5,0.5c-0.2,0.1-0.5-0.1-0.7-0.1
				c-0.2,0.1-0.2,0.6-0.4,0.6c-0.2,0.1-0.4,0-0.6,0c-0.2,0.1-0.6-0.4-0.8-0.4c-0.2,0.1-0.1,0.8-0.3,0.9c-0.2,0.1-0.5,0-0.6,0
				c-0.2,0.1-0.4,0.1-0.6,0.1c-0.2,0.1-0.4,0.2-0.6,0.3c-0.2,0.1-0.4,0.1-0.6,0.2c-0.2,0.1-0.3,0.2-0.5,0.3
				c-0.2,0.1-0.3,0.3-0.5,0.4c-0.2,0.1-0.5-0.2-0.7-0.1c-0.2,0.1-0.5-0.1-0.7,0c-0.2,0.1-0.1,0.8-0.3,0.9c-0.2,0.1-0.7-0.5-0.8-0.4
				c-0.2,0.1-0.2,0.4-0.4,0.5c-0.2,0.1-0.4,0.1-0.6,0.2c-0.2,0.1-0.2,0.6-0.4,0.7c-0.2,0.1-0.3,0.2-0.5,0.3
				c-0.2,0.1-0.5-0.2-0.7-0.1c-0.2,0.1-0.3,0.3-0.5,0.4c-0.2,0.1-0.5-0.1-0.7,0c-0.2,0.1-0.1,0.6-0.3,0.7c-0.2,0.1-0.3,0.3-0.5,0.4
				c-0.2,0.1-0.6-0.3-0.8-0.2c-0.2,0.1-0.1,0.6-0.3,0.7c-0.2,0.1-0.5,0-0.7,0.1c-0.2,0.1-0.5-0.1-0.7,0c-0.2,0.1-0.1,0.7-0.3,0.8
				C75.4,31,75.2,31,75,31.1c-0.2,0.1-0.3,0.2-0.5,0.4c-0.2,0.1-0.2,0.4-0.4,0.5c-0.2,0.1-0.6-0.1-0.7,0c-0.2,0.1-0.1,0.6-0.3,0.7
				c-0.2,0.1-0.4,0.1-0.6,0.2c-0.2,0.1-0.4,0.1-0.6,0.2c-0.2,0.1,0,0.6-0.2,0.8c-0.2,0.1-0.4,0.2-0.5,0.3c-0.2,0.1-0.4,0.2-0.5,0.3
				c-0.2,0.1-0.6,0-0.7,0.1c-0.2,0.1-0.2,0.4-0.3,0.6c-0.2,0.1-0.5,0.1-0.6,0.2c-0.2,0.1-0.1,0.5-0.2,0.7c-0.2,0.1-0.2,0.4-0.3,0.5
				c-0.2,0.1-0.3,0.3-0.4,0.4c-0.1,0.1-0.7-0.2-0.9,0c-0.1,0.1-0.1,0.4-0.3,0.6c-0.1,0.1,0.1,0.6-0.1,0.8c-0.1,0.1-0.4,0.2-0.5,0.4
				c-0.1,0.2-0.8-0.1-0.9,0c-0.1,0.2,0.1,0.6,0,0.8c-0.1,0.2-0.5,0.1-0.6,0.3c-0.1,0.2,0,0.5-0.1,0.7c0,0,0,0-0.1,0c0,0-0.1,0-0.1,0
				c-0.2,0-0.5,0-0.6,0.1c-0.1,0.1-0.1,0.2-0.1,0.4c-0.1,0.1-0.2,0.2-0.3,0.3c-0.2,0.3-0.4,0.6-0.5,0.9c-0.1,0-0.1,0-0.1,0.1
				c-0.1,0.2-0.2,0.3-0.3,0.5c0,0.1,0,0.1-0.1,0.2c-0.1,0.1-0.2,0.1-0.2,0.2c-0.3,0.2-0.7,0.5-0.9,0.8c-0.1,0.2-0.2,0.4-0.3,0.6
				c0,0.1-0.1,0.3-0.1,0.4c-0.5,0.3-0.8,0.7-1,1.2c-0.2,0.3-0.3,0.7-0.3,1c-0.2,0.2-0.3,0.3-0.4,0.5c0,0,0,0,0,0
				c-0.1,0.1-0.3,0.2-0.4,0.3c-0.7,0.6-1,1.3-1.1,2.1c-0.4,0.5-0.5,1.1-0.5,1.7c-0.1,0.2-0.2,0.4-0.3,0.7c-0.1,0.1-0.3,0.3-0.4,0.4
				c-0.2,0.2-0.3,0.5-0.3,0.8c-0.4,0.4-0.7,0.9-1,1.5c-0.2,0.6-0.1,1.2,0.1,1.7c-0.3,0.5-0.4,1-0.3,1.6c-0.2,0.3-0.3,0.7-0.4,1.1
				c-0.1,0.7-0.1,1.4,0.1,2c0,0.1,0,0.1,0,0.2c0,0,0,0,0,0c-0.1,0.1-0.3,0.3-0.4,0.4c-0.5,0.5-0.5,1.5-0.2,2.1
				c-0.2,0.5-0.2,1-0.3,1.6c0,0.4-0.1,0.7-0.1,1.1c0,0.4,0.2,0.7,0.3,1c0,0.3,0,0.5,0,0.8c0,0,0,0.1,0,0.2c0,0-0.1,0.1-0.1,0.1
				c-0.6,0.7-0.5,1.9,0.2,2.6c-0.1,0.4-0.2,0.7-0.2,1.1c0,0.9,0.4,1.5,1,2.1c0,0.6,0.1,1.1,0.3,1.7c0,0.5,0.1,1,0.3,1.5
				c0,0.1-0.1,0.2-0.1,0.2c-0.2,0.8,0,1.5,0.4,2.1c0.1,0.5,0.2,1,0.4,1.5c0.1,0.2,0.3,0.4,0.4,0.6c0.1,0.1,0.1,0.2,0.1,0.3
				c0,0,0,0,0,0c0,0.8,0.5,1.5,1.1,2.2c-0.1,0.6,0,1.2,0.4,1.8c0.2,0.3,0.4,0.5,0.6,0.7c0,0.2,0.1,0.4,0.2,0.6
				c0.1,0.2,0.4,0.6,0.6,0.8c0,0,0,0,0,0c0,0,0,0,0,0.1c0,0,0,0.1,0,0.2c0.1,0.4,0.2,0.9,0.5,1.2c0.2,0.2,0.3,0.3,0.5,0.4
				c0.1,0.1,0.1,0.3,0.2,0.4c0.1,0.1,0.2,0.3,0.3,0.4c0,0.2,0.1,0.4,0.2,0.6c0.2,0.3,0.4,0.6,0.7,0.9c0,0.2,0.1,0.3,0.1,0.4
				c0.1,0.6,0.5,1,1,1.4c0.2,0.4,0.3,0.8,0.7,1c0,0,0,0,0,0c0,0.1,0.1,0.2,0.1,0.2c0.2,0.3,0.4,0.6,0.6,0.9c0.6,0.8,1.1,1.3,1.9,1.7
				c0.1,0.6,0.4,1.1,1,1.6c0.2,0.1,0.4,0.2,0.6,0.3c0.1,0.3,0.2,0.5,0.4,0.7c0.1,0.1,0.2,0.2,0.2,0.2c0,0.2,0.2,0.3,0.2,0.5
				c0.6,1.1,1.3,1.7,2.4,2.1c0.4,0.3,0.8,0.7,1.2,0.9c0.2,0.1,0.3,0.2,0.3,0.2c0,0,0.1,0.1,0.1,0.1c0.2,0.2,0.3,0.3,0.5,0.4
				c0.3,0.6,0.8,1.1,1.4,1.6c0.3,0.6,0.7,1.1,1.3,1.3c0.1,0,0.3,0.1,0.4,0.1c0.2,0.4,0.5,0.7,0.7,1c0.3,0.3,0.6,0.5,0.9,0.6
				c0.2,0.3,0.5,0.6,0.9,0.8c0.3,0.6,1,1,1.7,1.1c0.1,0,0.2,0,0.3,0c0,0,0,0,0,0c0,0,0,0,0,0c0.2,0.3,0.5,0.6,0.9,0.9
				c0.3,0.2,0.7,0.4,1,0.5c0.2,0.1,0.2,0.1,0,0c-0.2-0.1-0.2-0.1-0.1,0c0,0,0,0,0,0c0,0,0,0,0,0c0,0,0,0,0,0c0.1,0,0.3,0.3,0.3,0.3
				c0.6,0.6,1.3,1,2.1,1.2c0.2,0.4,0.5,0.7,0.9,0.9c0,0,0.1,0.1,0.1,0.1c0,0,0,0,0,0.1c0.6,0.8,1.5,1,2.4,1.2
				c0.2,0.2,0.5,0.3,0.7,0.5c0.3,0.4,0.7,0.7,1.2,0.8c0,0.1,0.1,0.1,0.1,0.2c0.5,0.6,1.3,1,2.1,1.2c0.1,0,0.2,0,0.2,0
				c0.1,0.1,0.3,0.2,0.4,0.3c0.2,0.1,0.4,0.1,0.6,0.1c0.4,0.4,0.9,0.8,1.5,1.1c0,0,0,0.1,0,0.1c0.2,0.5,0.7,0.8,1.2,1
				c0.4,0.7,1.4,1.2,2.2,1c0.1,0,0.2,0,0.3-0.1c0,0,0,0,0.1,0.1c0.1,0.1,0.2,0.1,0.3,0.2c0,0,0,0.1,0.1,0.1c0.3,0.6,1.1,1.2,1.8,1.2
				c0,0,0,0,0.1,0c0.2,0.2,0.4,0.3,0.6,0.4c0.3,0.1,0.6,0.1,0.8,0.1c0.3,0.2,0.6,0.3,1,0.3c0.7,0.7,1.4,1.2,2.3,1.4c0,0,0,0.1,0,0.1
				c0.3,0.7,1,1.2,1.8,1.2c0.3,0,0.6,0,0.8,0.1c0.2,0.4,0.6,0.7,1.1,1c0.3,0.1,0.7,0.2,1,0.3c0.3,0.3,0.7,0.6,1.2,0.6c0,0,0,0,0,0
				c0,0,0,0,0,0c0,0,0,0,0,0c0,0,0,0,0,0c0,0,0,0,0,0c0.1,0,0.1,0.1,0.2,0.1c-0.1,0-0.1-0.1-0.2-0.1c0,0,0,0,0.1,0.1
				c0.1,0.1,0.2,0.2,0.2,0.3c0.4,0.6,1.2,0.8,1.9,0.7c0.3,0.3,0.7,0.6,1.1,0.7c0.3,0.4,0.8,0.7,1.3,0.8c0.4,0.4,0.8,0.7,1.4,0.7
				c0,0,0.4,0,0.6,0c0.2,0.2,0.5,0.4,0.7,0.6c0.5,0.4,1,0.4,1.6,0.5c0.2,0.1,0.4,0.2,0.6,0.3c0.2,0.2,0.5,0.4,0.7,0.6
				c0.2,0.1,0.4,0.2,0.7,0.2c0.4,0.3,0.8,0.6,1.4,0.7c0.1,0,0.1,0,0.2,0c0.5,0.7,1.2,1,2,0.9c0.3,0.2,0.6,0.3,1,0.3
				c0.1,0,0.2,0,0.3,0c0.1,0.1,0.2,0.2,0.3,0.4c0.5,0.6,1.1,0.9,1.7,1c0.5,0.4,1.1,0.6,1.8,0.5c0.1,0,0.3-0.1,0.4-0.1
				c0,0,0.1,0,0.1,0c0.2,0.2,0.3,0.3,0.5,0.5c0.2,0.1,0.4,0.2,0.7,0.3c0.3,0.4,0.7,0.7,1.2,0.8c0.3,0.1,0.7,0.2,1,0.2
				c0.1,0,0.3,0,0.4,0c0,0,0.1,0,0.1,0c0,0,0,0,0,0c0.2,0.1,0.4,0.3,0.7,0.4c0.5,0.2,0.9,0.4,1.3,0.4c0.1,0.1,0.1,0.1,0.2,0.2
				c0.3,0.2,0.7,0.3,1,0.4c0.3,0.2,0.6,0.3,0.9,0.4c0.4,0.5,1,0.8,1.6,0.8c0,0,0.1,0,0.1,0c0.3,0.2,0.6,0.3,0.9,0.4
				c0.3,0.3,0.5,0.5,0.9,0.6c0.5,0.2,0.9,0.1,1.3,0c0.1,0.1,0.2,0.3,0.3,0.4c0.4,0.6,1.3,0.8,2,0.7c0.1,0,0.2,0,0.2,0
				c0.5,0.1,1,0.3,1.5,0.5c0.1,0,0.2,0.1,0.3,0.1c0.2,0.1,0.4,0.2,0.5,0.3c0.4,0.2,0.8,0.2,1.2,0.2c0.1,0.1,0.3,0.2,0.4,0.3
				c-0.1-0.1-0.2-0.1-0.2-0.2c0.1,0.1,0.2,0.1,0.2,0.2c0.7,0.7,1.4,0.9,2.3,0.9c0.7,0.6,1.5,0.8,2.4,0.5c0.4,0.3,0.7,0.5,1.1,0.7
				c0.6,0.2,1.1,0.3,1.7,0.3c0.5,0.5,1.2,0.8,1.9,0.6c0,0,0.1,0,0.1,0c0,0,0,0,0.1,0c0.6,0.3,1.1,0.4,1.7,0.6
				c-0.2,0-0.4-0.1,0.1,0.1c0.4,0.1,0.7,0.2,1.1,0.2c0,0,0.1,0,0.1,0c0.1,0.1,0.3,0.2,0.4,0.2c0.3,0.1,0.7,0.1,1,0.1
				c0.3,0.2,0.6,0.3,0.9,0.3c0.1,0,0.2,0,0.4,0c0.1,0,0.1,0.1,0.2,0.1c0.1,0,0.1,0.1,0.2,0.1c0.1,0.1,0.2,0.2,0.3,0.3
				c0.7,0.7,1.4,0.8,2.3,0.6c0.4,0.2,0.8,0.3,1.2,0.4c0.1,0,0.4,0,0.5,0c0,0,0,0,0,0c0.2,0.1,0.4,0.1,0.7,0.2c1,0.3,2,0.3,3,0.3
				c0.4,0.2,0.8,0.4,1.3,0.5c0.8,0.5,1.7,0.7,2.6,0.4c0.6,0.3,1.2,0.4,1.8,0.4c0.3,0.1,0.5,0.2,0.8,0.2c0.1,0.1,0.2,0.1,0.3,0.2
				c0.6,0.5,1.4,0.4,2.1,0.1c0.3,0.3,0.8,0.4,1.3,0.3c0.5,0.3,1.1,0.5,1.6,0.3c0,0,0,0,0,0c0.4,0.2,0.8,0.2,1.2,0.2
				c0.3,0.2,0.6,0.3,1,0.3c0.4,0,0.8,0,1.2-0.1c0.5,0.2,1.1,0.2,1.7,0.2c0,0,0,0,0,0c0.4,0.3,0.9,0.4,1.3,0.3c0.6,0.4,1.4,0.5,2,0.2
				c0.6,0.2,1.3,0.1,1.9-0.3c0,0,0,0,0,0c0.1,0,0.3,0,0.5,0c0,0,0.1,0,0.1,0c0.6,0.2,1.3,0.2,1.9,0.1c0.5,0.2,1,0.3,1.6,0.2
				c0.2,0,0.5-0.1,0.7-0.2c0.5,0.2,1,0.4,1.5,0.4c0.5,0,1-0.1,1.5-0.3c0.1,0,0.2,0,0.3,0c0.6,0.5,1.2,0.7,1.9,0.5
				c0.6,0.3,1.3,0.4,1.9,0c0.1-0.1,0.3-0.2,0.4-0.2c0.1,0,0.1,0.1,0.2,0.1c0.9,0.6,1.9,0.2,3,0.1c0.1,0,0.2,0,0.3,0c0,0,0,0,0.1,0
				c0.4,0.1,0.8,0,1.3,0c0.4,0,0.7-0.1,1.1-0.1c0.1,0,0.2,0.1,0.3,0.1c0.6,0.3,1.3,0.1,1.8-0.2c0.5,0.2,1.1,0.3,1.7,0.1
				c0.1,0,0.1,0,0.1-0.1c0,0,0,0,0.1,0c0.5,0,0.9,0,1.4-0.2c0.1,0,0.2-0.1,0.3-0.1c0.4,0.1,0.8,0.2,1.2,0.1c0.5-0.1,0.9-0.2,1.3-0.4
				c0.3,0,0.6,0,0.9-0.1c0.3,0,0.6-0.1,1-0.2c0.1,0,0.3-0.1,0.4-0.1c0,0,0.1,0,0.1,0c0.1,0,0.3,0,0.4,0c0.4,0,0.8-0.1,1.1-0.2
				c0.2,0,0.5,0,0.7,0c0.6,0.3,1.3,0.4,2,0.1c0.2-0.1,0.4-0.2,0.6-0.3c0.7,0.1,1.4,0.2,2.1-0.1c0.3-0.1,0.6-0.3,0.8-0.5
				c0.1,0,0.1,0.1,0.2,0.1c0.7,0.3,1.6,0.1,2.1-0.4c0.3,0,0.7,0,1-0.1c0.2,0,0.4-0.1,0.5-0.2c0.4,0.1,0.9,0.1,1.4,0
				c0.8-0.2,1.3-0.4,1.9-0.9c0.2,0,0.3-0.1,0.4-0.1c0.1,0,0.2,0,0.3,0.1c0.3,0,0.6,0,0.9,0c0.9-0.1,1.6-0.6,2.2-1.1
				c0.2,0,0.4,0,0.6,0c0.7,0,1.3-0.2,1.8-0.5c0.8,0.2,1.6,0.2,2.4-0.2c0.4-0.2,0.7-0.6,1-1c0.5-0.1,1-0.3,1.4-0.7
				c0.4,0,0.9,0,1.4-0.1c0.6-0.2,0.9-0.4,1.2-0.8c0.3-0.1,0.7-0.2,1.1-0.5c0.2-0.2,0.5-0.4,0.7-0.6c0,0,0,0,0,0
				c0.5-0.1,0.8-0.3,1.2-0.7c0,0,0.1-0.1,0.1-0.1c0.5,0,1.1-0.7,1.4-1c0,0,0.1-0.1,0.1-0.1c0,0,0,0,0,0c0,0,0,0-0.1,0.1
				c0.1,0,0.1-0.1,0.2-0.1c0.3-0.1,0.6-0.3,0.9-0.5c0.1,0,0.3,0,0.4-0.1c0.8-0.1,1.4-0.8,1.6-1.5c0.1-0.1,0.2-0.1,0.2-0.2
				c0.1-0.1,0.4-0.3,0.4-0.4c0.1,0,0.1-0.1,0.2-0.1c0.5-0.3,1-0.7,1.3-1.1c0.7-0.2,1.3-0.7,1.5-1.4c0.1-0.4,0.2-0.7,0.2-1.1
				c0.1-0.2,0.2-0.4,0.3-0.6c0-0.1,0.1-0.2,0.2-0.3c0.1-0.1,0.2-0.2,0.3-0.2c0.8-0.6,1.3-1.3,1.6-2.2c0.3-0.3,0.6-0.6,0.7-1
				c0.1-0.2,0.1-0.5,0.1-0.8c0.1-0.2,0.2-0.4,0.3-0.6c0.1-0.1,0.1-0.1,0.2-0.2c0.5-0.5,0.9-1.3,0.7-2c0.1-0.1,0.2-0.3,0.2-0.4
				c0,0,0.1-0.1,0.1-0.1c0.5-0.5,0.9-1.3,0.7-2c0-0.1,0-0.2-0.1-0.3c0-0.1,0-0.1,0.1-0.2c0.2-0.2,0.4-0.4,0.5-0.6
				c0.4-0.6,0.4-1.4,0.4-2c0-0.3,0-0.5-0.1-0.8c0,0,0,0,0,0c0,0,0,0,0,0C273,126.9,273.1,126.8,273.1,126.6z M60.9,45
				C60.9,45,60.9,44.9,60.9,45C61.1,44.5,60.9,44.8,60.9,45z M59,47.8C58.8,48.1,58.9,47.9,59,47.8L59,47.8z M55.6,77.7
				C55.6,77.7,55.6,77.7,55.6,77.7C55.7,77.7,55.7,77.7,55.6,77.7C55.6,77.8,55.6,77.8,55.6,77.7z M145.6,145.5
				c0.1,0,0.1,0.1,0.2,0.1c0,0,0,0,0,0C145.7,145.6,145.6,145.5,145.6,145.5z M145.8,145.6C145.8,145.6,145.8,145.6,145.8,145.6
				C145.8,145.6,145.8,145.6,145.8,145.6C145.8,145.6,145.8,145.6,145.8,145.6z M161.8,150.9C161.4,150.7,161.6,150.8,161.8,150.9
				L161.8,150.9z M161.9,150.9C161.9,150.9,161.9,150.9,161.9,150.9C161.9,150.9,162,150.9,161.9,150.9
				C162,150.9,161.9,150.9,161.9,150.9z M260,147.4C260,147.4,260,147.4,260,147.4C260.1,147.2,260.1,147.2,260,147.4
				C260,147.4,260,147.4,260,147.4z M267.1,140.5C267,140.6,267,140.6,267.1,140.5C267,140.6,267.1,140.6,267.1,140.5z"/>
		</defs>
		<use xlink:href="#XMLID_1_"  style="overflow:visible;fill:#005944;"/>
		<clipPath id="XMLID_28_">
			<use xlink:href="#XMLID_1_"  style="overflow:visible;"/>
		</clipPath>
	</g>
	<path class="st6" d="M83.1,113.9c0.2,0.2,0.2,0.3,0.3,0.3C83.3,114.1,83.2,114,83.1,113.9C83.1,113.9,83.1,113.9,83.1,113.9z"/>
</g>
<g>
	<path class="st10" d="M213.2,50.7C213.1,50.7,213.1,50.7,213.2,50.7C213.2,51,213.2,50.8,213.2,50.7z"/>
	<path class="st10" d="M163.3,41.4C163.3,41.5,163.3,41.5,163.3,41.4C163.3,41.5,163.3,41.5,163.3,41.4
		C163.3,41.4,163.3,41.4,163.3,41.4z"/>
	<path class="st10" d="M213,45.1C213,45.1,213,45,213,45.1C213,45,213,45,213,45.1C213,45.1,213,45.1,213,45.1z"/>
	<g>
		<defs>
			<path id="XMLID_6_" d="M213.3,50.2c0.2-0.7,0.1-1.4-0.2-2c0.1-0.4,0.2-0.8,0.1-1.4c0-0.1,0-0.2-0.1-0.3c0-0.3,0-0.7,0-0.9
				c0,0-0.1-0.4-0.1-0.5c0,0.2,0,0.6,0,0.1c0-0.1,0-0.1,0-0.2c0,0,0,0,0,0c0,0,0,0,0,0c0,0,0-0.1,0-0.1c0-0.1,0-0.2,0-0.3
				c0,0,0,0,0,0c0.1-0.2,0.2-0.4,0.2-0.5c0.3-0.7,0-1.5-0.4-2.1c0-0.1-0.1-0.1-0.1-0.2c-0.1-0.6-0.2-1.2-0.4-1.8
				c0.2-0.8,0-1.5-0.5-2.1c0-0.7-0.2-1.3-0.6-1.9c-0.1-0.5-0.2-0.9-0.5-1.3c-0.1-0.1-0.1-0.2-0.2-0.3c0-0.4,0-0.8-0.2-1.2
				c-0.1-0.2-0.3-0.5-0.4-0.7c0-0.1-0.1-0.1-0.1-0.1c-0.3-0.5-0.6-1-0.9-1.5c-0.1-0.4-0.2-0.7-0.4-1c-0.1-0.1-0.1-0.2-0.2-0.3
				c-0.1-0.6-0.3-1.3-0.9-1.6c-0.2-0.1-0.4-0.2-0.6-0.4c0,0,0,0,0-0.1c0-0.1,0-0.3,0-0.4c-0.2-0.8-0.7-1.3-1.3-1.6
				c-0.2-0.3-0.4-0.6-0.7-0.8c-0.3-0.2-0.7-0.3-1-0.4c0,0-0.1-0.1-0.1-0.1c-0.2-1.2-1.2-2.1-2.5-1.8c-0.1,0-0.1-0.1-0.2-0.1
				c-0.4-0.6-1-1.1-1.7-1.1c-0.4,0-0.7,0-1.1,0c-0.1-0.1-0.2-0.1-0.3-0.1c0,0,0,0,0,0c-0.5-1-1.8-1.5-2.8-1c-0.2,0-0.4-0.1-0.6-0.1
				c0,0-0.1,0-0.1-0.1c-0.6-0.5-1.4-0.4-2.1-0.1c-0.4-0.1-0.8-0.1-1.2,0c0,0,0,0,0,0c0,0,0,0,0,0c0,0-0.1-0.1-0.2-0.1
				c-0.1-0.1-0.2-0.1-0.4-0.2c-0.5-0.2-1.1-0.2-1.6,0.1c-0.5-0.1-1.1,0-1.6,0.3c-0.5-0.1-1-0.2-1.5,0c-0.2,0.1-0.4,0.1-0.4,0.1
				c-0.2,0-0.3,0-0.5,0c-0.4,0-0.8,0.2-1.1,0.4c-0.1,0-0.1,0-0.1,0.1c0,0,0,0,0,0c0,0,0,0,0,0c-0.1,0-0.2,0-0.3-0.1c0,0,0,0,0,0
				c-0.1,0-0.3-0.1-0.3-0.1c-0.6-0.2-1.1-0.1-1.7,0.1c-0.1,0-0.2,0.1-0.3,0.1c-0.2,0-0.3,0.1-0.5,0.1c-0.3,0.1-0.6,0.2-0.8,0.4
				c-0.5-0.2-1.1-0.2-1.8,0.1c-0.6,0.2-1,0.6-1.5,1c-0.3,0-0.6,0.1-0.9,0.2c-0.1,0-0.3,0-0.4-0.1c-0.7-0.1-1.3,0.3-1.8,0.8
				c0,0,0,0-0.1,0c-0.9,0-1.5,0.4-2,1c-0.1,0.1-0.3,0.1-0.4,0.2c-1.1,0-2,0.4-2.7,1.2c-0.2,0.1-0.5,0.2-0.7,0.4
				c-0.1,0.1-0.2,0.1-0.2,0.2c0,0,0,0,0,0c-0.6-0.1-1.1,0.6-1.5,1.1c-0.3,0.2-0.7,0.5-1,0.8c-0.1,0.1-0.2,0.2-0.3,0.2c0,0,0,0,0,0
				c-0.2,0.1-0.4,0.2-0.6,0.3c-0.4,0.3-0.9,0.7-1.3,1c-0.1,0.1-0.2,0.2-0.4,0.4c-0.6,0.2-1,0.7-1.2,1.3c-0.2,0.6-0.3,1.1-0.4,1.7
				c-0.2,0.3-0.4,0.7-0.4,1.2c0,0.1,0,0.3,0,0.4c0,0.1,0,0.1,0,0.1c0,0.1-0.1,0.2-0.1,0.3c-0.3,0.9,0,1.6,0.5,2.2
				c0.1,0.5,0.2,1,0.4,1.4c0.3,0.7,0.7,1.4,1.2,2c0.3,0.4,0.5,0.7,1,0.9c0,0,0.1,0,0.1,0c0,0-0.1-0.1-0.1-0.2c0,0,0.1,0.1,0.1,0.1
				c0,0,0,0,0,0c0,0,0,0,0,0c0,0,0,0,0,0.1c0,0,0,0-0.1-0.1c0.3,0.8,0.8,1.2,1.5,1.6c0.1,0.2,0.2,0.3,0.4,0.4
				c0.3,0.2,0.6,0.4,0.9,0.5c0.1,0.1,0.3,0.3,0.4,0.4c0.2,0.6,0.6,1.1,1.3,1.4c0.1,0,0.2,0.1,0.3,0.1c0,0.1,0,0.1,0.1,0.2
				c0.3,0.7,1.1,1.1,1.8,1.2c0,0,0.1,0,0.1,0c0.1,0,0.1,0,0.1,0c0,0,0,0,0,0c0.3,0.3,0.6,0.6,1.1,0.8c0.1,0,0.2,0.1,0.3,0.1
				c0,0,0,0,0.1,0c0.1,0.1,0.2,0.2,0.2,0.3c0.3,0.4,0.7,0.8,1.1,1.1c0.4,0.3,0.7,0.5,1.1,0.6c0.4,0.6,1.1,1,2,1
				c0.1,0,0.1,0.1,0.2,0.1c0.2,0.1,0.4,0.2,0.6,0.2c0.3,0.2,0.5,0.5,0.8,0.7c0.3,0.2,0.7,0.3,1,0.3c0.1,0.2,0.3,0.4,0.4,0.6
				c0.5,0.7,1.5,0.8,2.3,0.6c0,0,0,0,0,0c0.2,0.1,0.4,0.3,0.6,0.3c0.4,0.6,1,1,1.8,1.1c0.5,0.4,1.2,0.6,1.8,0.5c0.1,0,0.2,0,0.3-0.1
				c0,0,0.1,0,0.2,0c0,0,0,0,0,0c0,0,0,0,0,0c0.4,0.4,0.8,0.7,1.3,0.9c0.5,0.2,1,0.2,1.6,0.2c0.2,0.2,0.4,0.3,0.7,0.4
				c0.4,0.1,0.7,0.1,1.1,0.1c0.1,0.1,0.2,0.1,0.1,0.1c0.1,0.1,0.2,0.1,0.2,0.2c0.5,0.3,1,0.4,1.6,0.3c0.3,0.1,0.6,0.2,0.9,0.3
				c0.1,0,0.2,0,0.3,0c0.6,0.4,1.2,0.5,1.8,0.3c0.8,0.3,1.6,0.4,2.6,0.5c0.1,0,0.2,0,0.3,0c0.1,0,0.2,0,0.2,0c0.1,0,0.3,0.1,0.4,0.1
				c0.5,0.1,1,0.2,1.5,0.2c0.7,0.3,1.3,0.5,2.1,0.2c0.1,0,0.4-0.2,0.5-0.3c0,0,0,0,0,0c0,0,0,0-0.1,0.1c-0.4,0.3,0,0,0.1,0
				c0,0,0.1,0,0.1,0c0.7,0.1,1.4,0,2.1-0.3c0.7,0.1,1.4,0,2-0.4c0.5-0.3,0.8-0.6,1.1-1c0,0,0,0,0,0c0.4-0.1,0.7-0.2,1.1-0.4
				c0.6-0.3,0.9-0.6,1.1-1.1c0.7-0.3,1-1,1.1-1.7c0.3-0.3,0.5-0.7,0.6-1.2c0.5-0.5,0.7-1.1,0.6-1.9c0-0.2,0-0.4,0-0.5
				c0-0.2,0-0.1,0.1,0.1c0,0.2,0,0.2,0,0.1c0,0,0,0,0,0c0,0,0,0,0-0.1c0,0,0,0,0,0c0,0,0,0,0,0C213.2,50.5,213.3,50.4,213.3,50.2z
				 M213,44.6c0,0.1,0,0.2,0,0.1C213,44.7,213,44.6,213,44.6z M183.3,20.6c0,0,0,0,0.1,0C183.3,20.6,183.3,20.6,183.3,20.6z
				 M206.7,27.5c0-0.1,0-0.1-0.1-0.2C206.7,27.4,206.7,27.5,206.7,27.5z M183.5,20.5C183.5,20.5,183.5,20.5,183.5,20.5
				c0,0-0.1,0-0.2,0C183.4,20.5,183.5,20.5,183.5,20.5z M160.2,34.4c0,0,0-0.1,0-0.1C160.2,34.3,160.2,34.4,160.2,34.4z M163.4,41.5
				C163.4,41.5,163.4,41.5,163.4,41.5C163.4,41.5,163.4,41.5,163.4,41.5z"/>
		</defs>
		<use xlink:href="#XMLID_6_"  style="overflow:visible;fill:#096A52;"/>
		<clipPath id="XMLID_29_">
			<use xlink:href="#XMLID_6_"  style="overflow:visible;"/>
		</clipPath>
	</g>
</g>
<path class="st4" d="M137.4,343c0,0-2.2,1-2.3,5.4c-0.1,4.4-1.2,8,1.1,9.5s4.8,0.1,5.2-1.8c0.3-1.2,0.9-5.1,0.8-7.5
	C142.1,346,142.3,342.2,137.4,343z"/>
<path class="st11" d="M36.2,153.6c0,0,0.3,4.7-2.4,7c-2.7,2.3-1.1,5.1,0,5.8c1.1,0.7,4.7,1.3,5.5-1.7
	C40.1,161.6,39.6,156.4,36.2,153.6z"/>
<path class="st11" d="M45.9,165.8c0,0-2.2,1-2.9,3.3s0,3.4,1,3.8c1.1,0.4,2.4-0.1,2.5-1.8C46.7,168.8,44.9,169.1,45.9,165.8z"/>
<path class="st11" d="M33.7,174.1c0,0-2.2,1.3-2.9,4.3c-0.8,3,0,4.5,1,5c1.1,0.6,2.4-0.1,2.5-2.3C34.5,178,32.7,178.5,33.7,174.1z"
	/>
<path class="st11" d="M28.7,127c0,0-2.2,1.3-2.9,4.3c-0.8,3,0,4.5,1,5c1.1,0.6,2.4-0.1,2.5-2.3C29.6,130.9,27.7,131.4,28.7,127z"/>
<path class="st11" d="M40.1,123.1c0,0-6.5,4.3-6.2,12.3c0.3,8,6.8,5.7,6.8,2.1C40.7,133.9,37.7,131.4,40.1,123.1z"/>
<path class="st12" d="M39.1,100.4c0-2.1-1.5-3.9-3.6-4.8c0.4-0.4,0.7-0.8,0.7-1.2c0-1.1-1.5-2.1-3.4-2.1c-1.4-2.5-4.6-4.3-8.4-4.3
	c-5,0-9.1,3.2-9.1,7.1c0,1.1,0.3,2.1,0.9,3c-2.6,0.7-4.4,2.6-4.4,4.9c0,2.9,2.8,5.2,6.3,5.2c0.7,0,1.4-0.1,2-0.3
	c1,2.2,3.5,3.8,6.4,3.8c2.8,0,5.2-1.5,6.3-3.6c0.7,0.8,1.7,1.3,2.8,1.3c2,0,3.6-1.6,3.6-3.6c0-1-0.4-1.9-1-2.5
	C38.8,102.5,39.1,101.5,39.1,100.4z"/>
<path class="st12" d="M270.8,175.5c0-0.1,0-0.1,0-0.2c0-4.6-5.6-8.3-12.5-8.3c-2.5,0-4.8,0.5-6.7,1.3c-1.8-3.5-5.8-6-10.4-6
	c-6.3,0-11.5,4.7-11.5,10.5c0,2.5,1,4.9,2.7,6.7c-6.3,1-10.7,3.1-10.7,5.6c0,3.2,7.2,5.8,16.4,6.1c2.1,1,5.2,1.6,8.7,1.6
	c2.4,0,4.6-0.3,6.4-0.8c1.1,1.8,3.6,3.1,6.6,3.1c3.4,0,6.3-1.7,7-3.9c0.4,0,0.8,0,1.2,0c6.8,0,12.3-3.6,12.3-7.9
	C280.3,179.4,276.2,176.3,270.8,175.5z"/>
<path class="st12" d="M71.6,73c0-5.1-5.1-9.3-11.4-9.3c0,0,0,0,0,0c-0.1-4.9-3.6-8.8-7.8-8.8c-3,0-5.6,1.9-6.9,4.8
	c-1.3-0.4-2.6-0.6-4.1-0.6c-6.7,0-12.1,4.6-12.1,10.4c0,4.1,2.7,7.6,6.7,9.3c0.9,3.6,4.4,6.3,8.6,6.3c2,0,3.8-0.6,5.3-1.6
	c1.3,1.3,3.3,2.1,5.6,2.1c1.7,0,3.3-0.5,4.5-1.3c0.8,0.5,1.7,0.8,2.7,0.8c2.9,0,5.2-2.3,5.2-5.2C70.2,78.2,71.6,75.8,71.6,73z"/>
<path class="st12" d="M231.9,154.9c0-2.6-2.5-4.6-5.7-4.6c0,0,0,0,0,0c-0.1-2.4-1.8-4.4-3.9-4.4c-1.5,0-2.8,1-3.5,2.4
	c-0.6-0.2-1.3-0.3-2-0.3c-3.3,0-6,2.3-6,5.2c0,2,1.4,3.8,3.3,4.6c0.5,1.8,2.2,3.2,4.3,3.2c1,0,1.9-0.3,2.6-0.8
	c0.7,0.7,1.7,1.1,2.8,1.1c0.8,0,1.6-0.2,2.2-0.6c0.4,0.2,0.8,0.4,1.3,0.4c1.4,0,2.6-1.2,2.6-2.6
	C231.2,157.5,231.9,156.3,231.9,154.9z"/>
</svg>
