<?xml version="1.0" encoding="utf-8"?>
<!-- Generator: Adobe Illustrator 24.3.0, SVG Export Plug-In . SVG Version: 6.00 Build 0)  -->
<svg version="1.1" id="圖層_3" xmlns="http://www.w3.org/2000/svg" xmlns:xlink="http://www.w3.org/1999/xlink" x="0px" y="0px"
	 viewBox="0 0 313.7 390.8" style="enable-background:new 0 0 313.7 390.8;" xml:space="preserve">
<style type="text/css">
	.st0{fill:url(#SVGID_1_);}
	.st1{opacity:0.8;fill:#3A3A3A;}
	.st2{fill:url(#SVGID_2_);}
	.st3{fill:url(#SVGID_3_);}
	.st4{fill:#5F554E;}
	.st5{fill:#DC6897;}
	.st6{fill:#005944;}
	.st7{clip-path:url(#SVGID_5_);fill:#005944;}
	.st8{opacity:0.28;}
	.st9{fill:#463266;}
	.st10{fill:#63AD9B;}
	.st11{fill:#096A52;}
	.st12{fill:#63ACE2;}
	.st13{fill:#FFF2DE;}
</style>
<g>
	<g>
		<linearGradient id="SVGID_1_" gradientUnits="userSpaceOnUse" x1="116.651" y1="237.4245" x2="96.8852" y2="266.7325">
			<stop  offset="0" style="stop-color:#F7BDBE"/>
			<stop  offset="1" style="stop-color:#F7E7D6"/>
		</linearGradient>
		<path class="st0" d="M106.2,228.3c-8.2,2.8-13.9,11.6-15.4,19.9c-1.5,8.3,0.8,17.1,7.6,22.5c3.6,2.9,8,4.7,12.7,4.7
			c4.2,0,4.2-6.5,0-6.5c-1.6,0-2.4-0.1-4-0.6c-1.2-0.4-2.5-1-3.8-2c-0.9-0.6-2.1-1.8-3-2.9c-0.3-0.4-0.7-0.9-1.1-1.5
			c-0.4-0.7-0.8-1.4-1.2-2.2c0.1,0.3-0.2-0.4-0.2-0.5c-0.1-0.4-0.3-0.8-0.4-1.2c-0.2-0.8-0.4-1.7-0.5-2.5c-0.2-1.3-0.2-3.3,0-4.9
			c0.4-3,1.6-6.3,3.4-9.1c1.8-2.9,4.5-5.9,7.7-7c1.7-0.6,2.8-2.2,2.3-4C109.7,228.9,107.8,227.7,106.2,228.3L106.2,228.3z"/>
	</g>
</g>
<ellipse id="XMLID_27_" class="st1" cx="144.9" cy="368.7" rx="91.9" ry="11.7"/>
<g>
	<linearGradient id="SVGID_2_" gradientUnits="userSpaceOnUse" x1="190.619" y1="297.7602" x2="181.8256" y2="310.7987">
		<stop  offset="0" style="stop-color:#F7BDBE"/>
		<stop  offset="1" style="stop-color:#F7E7D6"/>
	</linearGradient>
	<path class="st2" d="M186.7,299.2c0,0-3.9,4-4.2,5.3c-0.2,0.9,0.4,1.1,1.9,0.8c-1.9,2.5-2.9,6.1-0.8,6.5c2.1,0.4,7.6-9.5,8.2-11.2
		C191.8,300.5,192.4,295.3,186.7,299.2"/>
	<linearGradient id="SVGID_3_" gradientUnits="userSpaceOnUse" x1="211.5153" y1="238.7275" x2="174.8766" y2="293.0539">
		<stop  offset="0" style="stop-color:#F7BDBE"/>
		<stop  offset="1" style="stop-color:#F7E7D6"/>
	</linearGradient>
	<path class="st3" d="M200.5,232c10.9,23.7,2.7,50.4-9.2,69.6c-1,1.6-0.7,1.5-2.2,0.8c-1.5-0.8-3.5-1.5-2.5-3
		c11.2-18,18.1-43.7,7.8-65.9C192.7,229.7,198.8,228.3,200.5,232"/>
</g>
<g>
	<defs>
		<path id="XMLID_26_" d="M181.6,276.4c0-4.4-6.8-4.3-6.8,0c1.3,3.6,18.4,53.7,1.9,64.7c-2.3,1.5-4.7,1.9-4.7,1.9
			c-1,0.3-1.7,0.2-2.4,0.3c-0.9,0.2-1.4,0.3-2.2,1.2c-0.8,0.9-1,2-1,2.4c-0.1,0.5-0.2,1.9,0.7,2.9c0.6,0.7,1.7,0.9,4.2,0.5
			c2.1-0.3,4.8-0.8,7.8-2.5c6-3.6,8.8-10.8,9.5-12.5c3.9-9.8,2.8-29.3-4.6-52.6l-2.5-6"/>
	</defs>
	<use xlink:href="#XMLID_26_"  style="overflow:visible;fill:#CB3E54;"/>
	<clipPath id="XMLID_3_">
		<use xlink:href="#XMLID_26_"  style="overflow:visible;"/>
	</clipPath>
</g>
<g>
	<defs>
		<path id="XMLID_25_" d="M122.2,275.8c0.1,31,0.2,62,0.2,93c0,4.4,6.8,4.3,6.8,0c-0.1-31-0.2-62-0.2-93
			C128.9,271.4,122.1,271.5,122.2,275.8"/>
	</defs>
	<use xlink:href="#XMLID_25_"  style="overflow:visible;fill:#CB3E54;"/>
	<clipPath id="XMLID_4_">
		<use xlink:href="#XMLID_25_"  style="overflow:visible;"/>
	</clipPath>
</g>
<g>
	<defs>
		<path id="XMLID_24_" d="M138.1,218l55.6,0.1c0,0,3.4,24.4,5.3,43.6C166,255.9,144.8,241.9,138.1,218"/>
	</defs>
	<linearGradient id="XMLID_5_" gradientUnits="userSpaceOnUse" x1="166.021" y1="219.3159" x2="169.977" y2="247.4038">
		<stop  offset="0" style="stop-color:#F7BDBE"/>
		<stop  offset="1" style="stop-color:#F7E7D6"/>
	</linearGradient>
	<use xlink:href="#XMLID_24_"  style="overflow:visible;fill:url(#XMLID_5_);"/>
	<clipPath id="XMLID_6_">
		<use xlink:href="#XMLID_24_"  style="overflow:visible;"/>
	</clipPath>
</g>
<g>
	<defs>
		<path id="XMLID_23_" d="M198.8,261.9c0,0.2,0,0.3,0.1,0.5c0,0.2,0.6,0.4,0.6,0.6c0,0.2-0.5,0.5-0.5,0.7c0,0.2,0.2,0.4,0.2,0.6
			c0,0.2-0.4,0.4-0.4,0.6c0,0.2,0.8,0.3,0.8,0.5c0,0.2-0.6,0.5-0.5,0.7c0,0.2,0.3,0.4,0.3,0.6c0,0.2,0.2,0.4,0.3,0.6
			c0,0.2,0.2,0.4,0.2,0.6c0,0.2-0.6,0.5-0.6,0.7c0,0.2,0.6,0.4,0.7,0.6c0,0.2-0.2,0.4-0.2,0.6c0,0.2-0.1,0.4-0.1,0.6
			c0,0.2-0.2,0.4-0.1,0.6c0,0.2,0.3,0.4,0.3,0.6c0,0.2,0,0.4,0,0.6c0,0.2,0.3,0.4,0.3,0.6c0,0.2-0.4,0.4-0.4,0.6
			c0,0.2-0.1,0.4-0.1,0.6c0,0.2,0.6,0.4,0.6,0.6c0,0.2-0.2,0.4-0.2,0.6c0,0.2,0,0.4,0,0.6c0,0.2-0.5,0.4-0.5,0.6
			c0,0.2,0.8,0.4,0.8,0.6c0,0.2-0.3,0.4-0.3,0.6c0,0.2-0.3,0.4-0.3,0.6c0,0.2,0.7,0.3,0.7,0.6c0,0.2-0.6,0.4-0.6,0.6
			c0,0.2,0.5,0.5,0.4,0.7c0,0.2-0.5,0.3-0.6,0.5c-0.1,0.2,0.1,0.5,0,0.7c-0.1,0.1-0.3,0.2-0.5,0.3c0,0.2-0.5,0.3-0.5,0.5
			c0,0.2,0,0.4-0.1,0.6c0,0.2-0.1,0.4-0.1,0.6c-0.1,0.2,0.5,0.6,0.4,0.8c-0.1,0.2-0.5,0.2-0.6,0.4c-0.1,0.2-0.3,0.3-0.4,0.4
			c-0.1,0.1-0.1,0.5-0.2,0.7c-0.1,0.1-0.2,0.4-0.4,0.5c-0.2,0.1-0.6-0.2-0.8,0c-0.2,0.1-0.1,0.6-0.3,0.7c-0.2,0.1-0.6-0.2-0.8-0.1
			c-0.2,0.1-0.1,0.6-0.3,0.7c-0.2,0.1-0.5,0-0.7,0.1c-0.2,0.1-0.4,0.1-0.6,0.2c-0.2,0.1-0.4,0.2-0.6,0.3c-0.2,0.1-0.1,0.6-0.3,0.7
			c-0.2,0.1-0.5-0.2-0.7-0.1c-0.2,0.1-0.4,0-0.6,0.1c-0.2,0.1-0.1,0.7-0.3,0.8c-0.2,0.1-0.5,0-0.6,0.1c-0.2,0.1-0.5-0.2-0.7-0.1
			c-0.2,0.1-0.4,0-0.6,0c-0.2,0.1-0.4,0.1-0.6,0.2c-0.2,0.1-0.3,0.5-0.5,0.6c-0.2,0.1-0.4,0-0.6,0.1c-0.2,0.1-0.4,0-0.6,0.1
			c-0.2,0.1-0.3,0.3-0.5,0.4c-0.2,0.1-0.3,0.3-0.5,0.4c-0.2,0.1-0.3,0.3-0.5,0.4c-0.2,0.1-0.5-0.4-0.7-0.3c-0.2,0.1-0.4-0.1-0.6,0
			c-0.2,0.1-0.3,0.5-0.5,0.5c-0.2,0.1-0.4,0-0.6,0c-0.2,0.1-0.4,0.2-0.6,0.2c-0.2,0-0.5-0.1-0.7-0.1c-0.2,0-0.3,0.4-0.5,0.5
			c-0.2,0-0.3,0.4-0.5,0.4c-0.2,0-0.4,0-0.6,0c-0.2,0-0.5-0.4-0.7-0.3c-0.2,0-0.4,0.2-0.6,0.3c-0.2,0-0.4,0-0.6,0.1
			c-0.2,0-0.5-0.2-0.7-0.2c-0.2,0-0.3,0.7-0.5,0.8c-0.2,0-0.4,0.1-0.6,0.1c-0.2,0-0.5-0.5-0.7-0.4c-0.2,0-0.4,0.3-0.6,0.3
			c-0.2,0-0.4,0-0.6,0c-0.2,0-0.4-0.1-0.6,0c-0.2,0-0.4,0.3-0.6,0.4c-0.2,0-0.4,0.3-0.6,0.3c-0.2,0-0.4-0.1-0.6-0.1
			c-0.2,0-0.4-0.2-0.6-0.2c-0.2,0-0.4-0.1-0.6,0c-0.2,0-0.3,0.5-0.6,0.5c-0.2,0-0.5-0.4-0.7-0.3c-0.2,0-0.4,0.2-0.6,0.2
			c-0.2,0-0.4,0.2-0.6,0.2c-0.2,0-0.4-0.2-0.6-0.2c-0.2,0-0.3,0.6-0.5,0.6c-0.2,0-0.5-0.5-0.7-0.5c-0.2,0-0.4,0.3-0.6,0.3
			c-0.2,0-0.4,0.1-0.6,0.1c-0.2,0-0.4,0.4-0.6,0.4c-0.2,0-0.4,0-0.6,0.1c-0.2,0-0.4-0.2-0.6-0.2c-0.2,0-0.4,0.1-0.6,0.1
			c-0.2,0-0.4,0.2-0.6,0.2c-0.2,0-0.5-0.6-0.7-0.6c-0.2,0-0.4,0.5-0.6,0.5c-0.2,0-0.4-0.3-0.6-0.3c-0.2,0-0.4,0.1-0.6,0.1
			c-0.2,0-0.4-0.1-0.6-0.1c-0.2,0-0.4,0.3-0.6,0.3c-0.2,0-0.4-0.3-0.6-0.2c-0.2,0-0.4,0.3-0.6,0.3c-0.2,0-0.4,0.4-0.6,0.4
			c-0.2,0-0.4,0.2-0.6,0.2c-0.2,0-0.4-0.7-0.7-0.7c-0.2,0-0.4,0.6-0.6,0.6c-0.2,0-0.4,0.1-0.6,0.1c-0.2,0-0.4-0.5-0.6-0.5
			c-0.2,0-0.4,0.1-0.6,0.1c-0.2,0-0.4,0.3-0.6,0.3c-0.2,0-0.4,0.2-0.6,0.2c-0.2,0-0.4,0-0.6,0c-0.2,0-0.4-0.7-0.6-0.7
			c-0.2,0-0.4,0.7-0.6,0.7c-0.2,0-0.4-0.5-0.6-0.6c-0.2,0-0.4-0.2-0.6-0.2c-0.2,0-0.4,0.3-0.6,0.3c-0.2,0-0.4-0.3-0.6-0.3
			c-0.2,0-0.4,0-0.6,0c-0.2,0-0.4,0.6-0.7,0.6c-0.2,0-0.4-0.7-0.6-0.7c-0.2,0-0.4,0.2-0.6,0.2c-0.2,0-0.4,0.1-0.6,0
			c-0.2,0-0.4-0.4-0.6-0.4c-0.2,0-0.4,0.5-0.7,0.5c-0.2,0-0.4-0.1-0.6-0.1c-0.2,0-0.4,0.1-0.6,0.1c-0.2,0-0.4-0.6-0.6-0.6
			c-0.2,0-0.5,0.7-0.7,0.7c-0.2,0-0.4-0.6-0.6-0.6c-0.2,0-0.5,0.5-0.7,0.5c-0.2,0-0.4-0.6-0.6-0.6c-0.2,0-0.4,0.3-0.6,0.3
			c-0.2,0-0.4,0.1-0.6,0.1c-0.2,0-0.4,0-0.6-0.1c-0.2,0-0.4-0.6-0.6-0.6c-0.2,0-0.4-0.1-0.6-0.1c-0.2,0-0.5,0.6-0.7,0.6
			c-0.2,0-0.4-0.1-0.6-0.1c-0.2,0-0.4,0-0.6,0c-0.2,0-0.4-0.4-0.6-0.4c-0.2,0-0.4-0.1-0.6-0.1c-0.2,0-0.4,0.1-0.6,0.1
			c-0.2,0-0.4-0.1-0.6-0.1c-0.2,0-0.4,0.1-0.6,0.1c-0.2,0-0.3-0.7-0.5-0.7c-0.2,0-0.5,0.6-0.7,0.6c-0.2,0-0.3-0.5-0.5-0.6
			c-0.2,0-0.5,0.3-0.7,0.2c-0.2,0-0.4-0.3-0.6-0.3c-0.2,0-0.4-0.3-0.6-0.4c-0.2,0-0.5,0.5-0.7,0.5c-0.2,0-0.4,0-0.6,0
			c-0.2,0-0.4-0.1-0.6-0.2c-0.2,0-0.3-0.6-0.5-0.7c-0.2,0-0.5,0.4-0.7,0.4c-0.2,0-0.3-0.5-0.5-0.5c-0.2,0-0.4-0.2-0.6-0.2
			c-0.2,0-0.4-0.1-0.6-0.1c-0.2,0-0.5,0.4-0.7,0.3c-0.2,0-0.3-0.6-0.5-0.6c-0.2,0-0.4,0-0.6-0.1c-0.2,0-0.4,0-0.6,0
			c-0.2,0-0.5,0.5-0.7,0.4c-0.2-0.1-0.4-0.2-0.6-0.3c-0.2-0.1-0.4-0.1-0.6-0.1c-0.2-0.1-0.3-0.6-0.5-0.7c-0.2-0.1-0.5,0.2-0.7,0.1
			c-0.2-0.1-0.5,0.2-0.7,0.1c-0.2-0.1-0.4-0.2-0.6-0.2c-0.2-0.1-0.4-0.1-0.6-0.2c-0.2-0.1-0.2-0.6-0.4-0.7c-0.2-0.1-0.3-0.2-0.5-0.3
			c-0.2-0.1-0.4,0-0.6-0.1c-0.2-0.1-0.3-0.4-0.5-0.4c-0.2-0.1-0.4,0-0.6-0.1c-0.2-0.1-0.3-0.3-0.5-0.4c-0.2-0.1-0.4-0.1-0.6-0.2
			c-0.2-0.1-0.4-0.1-0.6-0.2c-0.2-0.1-0.6,0.2-0.8,0.1c-0.2-0.1-0.1-0.7-0.3-0.8c-0.2-0.1-0.3-0.2-0.5-0.3c-0.2-0.1-0.3-0.2-0.5-0.3
			c-0.2-0.1-0.5,0.1-0.7,0c-0.2-0.1-0.2-0.5-0.3-0.6c-0.2-0.1-0.7,0.3-0.9,0.1c-0.2-0.1,0-0.7-0.1-0.8c-0.2-0.1-0.7,0.1-0.8,0
			c-0.2-0.1-0.1-0.5-0.2-0.7c-0.1-0.1-0.2-0.4-0.3-0.6c-0.1-0.2-0.3-0.3-0.4-0.4c-0.1-0.2-0.5-0.1-0.7-0.3c-0.1-0.2-0.4-0.3-0.5-0.4
			c-0.1-0.2,0.1-0.5,0-0.7c-0.1-0.2-0.3-0.3-0.3-0.5c-0.1-0.2,0.2-0.5,0.2-0.7c-0.1-0.2-0.3-0.3-0.3-0.5c0-0.2-0.3-0.3-0.3-0.5
			c0-0.2-0.3-0.3-0.3-0.5c0-0.2,0.2-0.4,0.2-0.6c-0.1-0.2-0.1-0.4-0.2-0.6c-0.1-0.2,0.1-0.4,0-0.6c0-0.2-0.1-0.4-0.1-0.6
			c0-0.2-0.1-0.4-0.1-0.6c0-0.2-0.5-0.4-0.5-0.6c0-0.2,0.1-0.5,0.1-0.6c0-0.2,0-0.4,0-0.6c0-0.2,0-0.4,0-0.6c0-0.2,0.5-0.4,0.5-0.6
			c0-0.2,0.2-0.4,0.2-0.6c0-0.2,0-0.4,0-0.6c0-0.2-0.1-0.4-0.1-0.6c0-0.2,0-0.4,0-0.6c0-0.2,0.1-0.4,0.1-0.6c0-0.2-0.5-0.4-0.5-0.6
			c0-0.2-0.1-0.4-0.1-0.6c0-0.2,0.7-0.4,0.7-0.6c0-0.2-0.4-0.4-0.4-0.6c0-0.2-0.1-0.4-0.1-0.6c0-0.2-0.1-0.4-0.1-0.6
			c0-0.2,0.1-0.4,0.1-0.6c0-0.2,0.1-0.4,0.1-0.6c0-0.2,0.5-0.4,0.5-0.6c0-0.2,0-0.4,0-0.6c0-0.2-0.1-0.4-0.1-0.6
			c0-0.2,0.1-0.4,0.1-0.6c0-0.2-0.4-0.4-0.4-0.6c0-0.2,0.2-0.4,0.2-0.6c0-0.2,0.1-0.4,0.1-0.6c0-0.2,0.3-0.4,0.3-0.6
			c0-0.2-0.2-0.4-0.2-0.6c0-0.2,0-0.4,0-0.6c0-0.2,0.4-0.4,0.4-0.6c0-0.2-0.5-0.4-0.4-0.6c0-0.2,0-0.4,0-0.6c0-0.2,0-0.4,0-0.6
			c0-0.2,0-0.4,0-0.6c0-0.2,0.3-0.4,0.3-0.6c0-0.2-0.3-0.4-0.3-0.6c0-0.2,0.8-0.4,0.8-0.6c0-0.2-0.6-0.5-0.6-0.7
			c0-0.2,0.2-0.4,0.2-0.6c0-0.2,0.4-0.4,0.4-0.6c0-0.2,0.2-0.4,0.2-0.6c0-0.2-0.2-0.4-0.1-0.6c0-0.2,0.2-0.4,0.2-0.6
			c0-0.2-0.2-0.4-0.2-0.6c0-0.2,0.4-0.4,0.4-0.6c0-0.2-0.1-0.4-0.1-0.6c0-0.2-0.5-0.5-0.5-0.7c0-0.2,0.3-0.4,0.4-0.6
			c0-0.2,0-0.4,0-0.6c0-0.2,0.3-0.4,0.4-0.6c0-0.2-0.2-0.4-0.2-0.6c0-0.2,0.4-0.4,0.4-0.6c0-0.2,0-0.4,0-0.6c0-0.2-0.4-0.5-0.4-0.7
			c0-0.2,0.3-0.4,0.3-0.6c0-0.2-0.1-0.4-0.1-0.6c0-0.2,0.3-0.4,0.3-0.6c0-0.2-0.1-0.4-0.1-0.6c0-0.2,0-0.4,0-0.6
			c0-0.2,0.5-0.3,0.5-0.5c0-0.2,0-0.4,0-0.6c0-0.2-0.1-0.4-0.1-0.6c0-0.2,0.1-0.4,0.1-0.6c0-0.2,0-0.4,0.1-0.6
			c0-0.2-0.4-0.5-0.3-0.7c0-0.2,0.7-0.3,0.7-0.5c0-0.2,0.1-0.4,0.1-0.6c0-0.2-0.1-0.4-0.1-0.6c0-0.2,0-0.4,0.1-0.6
			c0-0.2-0.4-0.5-0.3-0.7c0-0.2,0.8-0.3,0.8-0.5c0-0.2-0.6-0.5-0.6-0.7c0-0.2,0.2-0.4,0.2-0.6c0-0.2,0.1-0.4,0.1-0.6
			c0-0.2,0.3-0.4,0.4-0.6c0-0.2-0.1-0.4,0-0.6c0-0.2,0.1-0.4,0.1-0.6c0-0.2,0.1-0.4,0.2-0.6c0-0.2,0.6-0.3,0.6-0.5
			c0-0.2-0.7-0.6-0.6-0.8c0-0.2,0.8-0.2,0.9-0.4c0-0.2,0.1-0.4,0.1-0.6c0-0.2-0.2-0.5-0.2-0.7c0-0.2,0.1-0.4,0.1-0.6
			c0.1-0.2,0.3-0.3,0.4-0.5c0.1-0.2-0.3-0.5-0.3-0.7c0.1-0.2-0.1-0.4,0-0.6c0.1-0.2,0.5-0.3,0.6-0.5c0.1-0.2,0.4-0.3,0.5-0.5
			c0.1-0.2-0.4-0.6-0.4-0.7c0.1-0.2,0.4-0.3,0.5-0.5c0.1-0.2,0.3-0.3,0.4-0.5c0.1-0.2,0.2-0.4,0.3-0.6c0.1-0.2-0.5-0.6-0.5-0.8
			c0.1-0.2,0.6-0.2,0.7-0.4c0.1-0.2,0-0.4,0.1-0.6c0.1-0.2,0.3-0.3,0.4-0.5c0.1-0.2,0.2-0.4,0.3-0.5c0.2-0.4-0.4-0.6-0.1-0.7
			c0.3-0.1,0.3-0.1,0.6-0.1c0.3,0,0.3,0.1,0.6,0.1c0.3,0,0.3-0.4,0.6-0.4c0.3,0,0.3,0.6,0.6,0.6c0.3,0,0.3,0.1,0.6,0.1
			c0.3,0,0.3-0.2,0.6-0.2c0.3,0,0.3-0.3,0.6-0.3c0.3,0,0.3,0,0.6,0c0.3,0,0.3,0.7,0.6,0.7c0.3,0,0.3-0.4,0.6-0.4
			c0.3,0,0.3-0.2,0.6-0.2c0.3,0,0.3,0.5,0.6,0.5c0.3,0,0.3-0.2,0.6-0.2c0.3,0,0.3-0.5,0.6-0.5c0.3,0,0.3,0.5,0.6,0.5
			c0.3,0,0.3-0.4,0.6-0.4c0.3,0,0.3,0.6,0.6,0.6c0.3,0,0.3-0.7,0.6-0.7c0.3,0,0.3,0.3,0.6,0.3c0.3,0,0.3-0.3,0.6-0.3
			c0.3,0,0.3,0.4,0.6,0.4c0.3,0,0.3-0.1,0.6-0.1c0.3,0,0.3,0,0.6,0c0.3,0,0.3,0,0.6,0c0.3,0,0.3,0.5,0.6,0.5c0.3,0,0.3-0.3,0.6-0.3
			c0.3,0,0.3,0.3,0.6,0.3c0.3,0,0.3,0,0.6,0c0.3,0,0.3-0.6,0.6-0.6c0.3,0,0.3,0,0.6,0c0.3,0,0.3,0,0.6,0c0.3,0,0.3,0.3,0.6,0.3
			c0.3,0,0.3,0.2,0.6,0.2c0.3,0,0.3-0.2,0.6-0.2c0.3,0,0.3-0.5,0.6-0.5c0.3,0,0.3,0.4,0.6,0.4c0.3,0,0.3-0.2,0.6-0.2
			c0.3,0,0.3,0.5,0.6,0.5c0.3,0,0.3-0.5,0.6-0.5c0.3,0,0.3,0,0.6,0c0.3,0,0.3,0.3,0.6,0.3c0.3,0,0.3-0.5,0.6-0.5
			c0.3,0,0.3,0.2,0.6,0.2c0.3,0,0.4-0.1,0.7,0c0,0.2,0,0.6,0,0.8c0,0.2-0.4,0.4-0.4,0.6c0,0.2,0.3,0.4,0.3,0.6
			c0,0.2,0.2,0.4,0.2,0.6c0,0.2,0.2,0.4,0.2,0.6c0,0.2,0,0.4,0.1,0.6c0,0.2-0.5,0.5-0.5,0.7c0,0.2,0.5,0.3,0.6,0.5
			c0,0.2-0.1,0.4-0.1,0.6c0,0.2,0.5,0.3,0.5,0.5c0,0.2,0.1,0.4,0.2,0.6c0,0.2,0,0.4,0.1,0.6c0.1,0.2-0.3,0.5-0.2,0.7
			c0.1,0.2,0,0.4,0.1,0.6c0.1,0.2,0.2,0.4,0.3,0.6c0.1,0.2,0.4,0.3,0.5,0.5c0.1,0.2,0.2,0.4,0.2,0.6c0.1,0.2,0.1,0.4,0.2,0.6
			c0.1,0.2-0.3,0.6-0.2,0.7c0.1,0.2,0,0.4,0.1,0.6c0.1,0.2,0.9,0,0.9,0.2c0.1,0.2-0.3,0.6-0.2,0.8c0.1,0.2,0.2,0.4,0.3,0.5
			c0.1,0.2,0.6,0.1,0.7,0.3c0.1,0.2-0.4,0.7-0.3,0.9c0.1,0.2,0.6,0.1,0.7,0.3c0.1,0.2,0.3,0.3,0.5,0.4c0.1,0.2-0.3,0.7-0.2,0.9
			c0.1,0.2,0.9-0.1,1,0.1c0.1,0.2-0.1,0.6,0,0.8c0.1,0.2,0.5,0.1,0.7,0.3c0.1,0.2-0.3,0.8-0.2,0.9c0.1,0.2,0.5,0.2,0.6,0.3
			c0.1,0.2,0.5,0.1,0.6,0.3c0.1,0.2,0,0.6,0.1,0.7c0.1,0.2,0.4,0.2,0.5,0.4c0.1,0.2,0.6,0,0.8,0.1c0.1,0.1-0.2,0.7,0,0.9
			c0.1,0.1,0.5,0.1,0.6,0.3c0.1,0.1,0.3,0.3,0.5,0.4c0.1,0.1,0.1,0.5,0.2,0.6c0.1,0.1,0.7-0.2,0.9-0.1c0.2,0.1,0.1,0.5,0.3,0.6
			c0.2,0.1,0.5,0.1,0.6,0.2c0.2,0.1,0.1,0.5,0.3,0.6c0.2,0.1,0.5,0,0.7,0.1c0.2,0.1,0,0.6,0.2,0.7c0.2,0.1,0.2,0.4,0.4,0.5
			c0.2,0.1,0.7-0.3,0.9-0.2c0.2,0.1,0.3,0.3,0.5,0.4c0.2,0.1,0.2,0.5,0.3,0.6c0.2,0.1,0.1,0.5,0.3,0.6c0.2,0.1,0.6-0.1,0.7,0
			c0.2,0.1,0.1,0.6,0.3,0.7c0.2,0.1,0.3,0.3,0.5,0.4c0.2,0.1,0.8-0.5,1-0.3c0.2,0.1,0.1,0.6,0.3,0.7c0.2,0.1,0.5,0,0.7,0.1
			c0.2,0.1,0.1,0.6,0.3,0.7c0.2,0.1,0.5-0.1,0.7,0c0.2,0.1,0.5,0,0.7,0.1c0.2,0.1,0.4,0.2,0.5,0.3c0.2,0.1,0,0.8,0.2,0.9
			c0.2,0.1,0.6-0.2,0.8-0.1c0.2,0.1,0.5,0,0.6,0.1c0.2,0.1,0.1,0.8,0.2,0.9c0.2,0.1,0.6-0.3,0.8-0.2c0.2,0.1,0.1,0.7,0.3,0.8
			c0.2,0.1,0.5-0.1,0.7,0c0.2,0.1,0.5-0.2,0.7-0.1c0.2,0.1,0.1,0.7,0.3,0.8c0.2,0.1,0.6-0.2,0.8-0.2c0.2,0.1,0.3,0.3,0.5,0.4
			c0.2,0.1,0.2,0.6,0.4,0.7c0.2,0.1,0.4,0.2,0.5,0.3c0.2,0.1,0.7-0.5,0.9-0.4c0.2,0.1,0.1,0.7,0.3,0.8c0.2,0.1,0.6-0.3,0.8-0.2
			c0.2,0.1,0.2,0.6,0.4,0.7c0.2,0.1,0.5,0,0.6,0.1c0.2,0.1,0.6-0.3,0.8-0.2c0.2,0.1,0.4,0.2,0.6,0.2c0.2,0.1,0.4,0.2,0.5,0.3
			c0.2,0.1,0.2,0.7,0.4,0.7c0.2,0.1,0.6-0.3,0.7-0.2c0.2,0.1,0.3,0.2,0.5,0.3c0.2,0.1,0.3,0.3,0.5,0.4c0.2,0.1,0.3,0.4,0.5,0.5
			c0.2,0.1,0.5-0.3,0.7-0.2c0.2,0.1,0.5-0.1,0.7,0c0.2,0.1,0.4,0.1,0.6,0.2c0.2,0.1,0.2,0.7,0.4,0.8c0.2,0.1,0.5-0.3,0.7-0.2
			c0.2,0.1,0.3,0.3,0.5,0.4s0.4,0,0.6,0c0.2,0.1,0.2,0.6,0.4,0.7c0.2,0.1,0.5-0.1,0.7-0.1c0.2,0.1,0.4,0.1,0.6,0.2
			c0.2,0.1,0.3,0.4,0.5,0.5c0.2,0.1,0.5-0.2,0.7-0.1c0.2,0.1,0.3,0.3,0.5,0.3c0.2,0.1,0.4,0.2,0.6,0.2c0.2,0.1,0.5-0.1,0.7-0.1
			c0.2,0.1,0.3,0.6,0.5,0.6c0.2,0.1,0.4,0,0.6,0.1c0.2,0.1,0.4,0.2,0.6,0.3s0.4,0.1,0.6,0.1c0.2,0.1,0.4,0.1,0.6,0.2
			c0.2,0.1,0.4,0.1,0.6,0.2c0.2,0.1,0.6-0.6,0.8-0.5c0.2,0.1,0.3,0.5,0.5,0.5c0.2,0.1,0.4-0.1,0.6,0c0.2,0.1,0.4-0.1,0.6,0
			c0.2,0.1,0.3,0.4,0.5,0.4c0.2,0.1,0.3,0.4,0.5,0.5c0.2,0.1,0.4,0,0.6,0.1c0.2,0.1,0.5-0.2,0.7-0.1c0.2,0.1,0.4,0.2,0.6,0.3
			c0.2,0.1,0.4,0.2,0.6,0.2c0.2,0,0.3,0.5,0.5,0.5c0.2,0,0.5-0.2,0.7-0.2c0.2,0,0.5-0.2,0.7-0.1c0.2,0,0.3,0.4,0.5,0.4
			c0.2,0,0.3,0.4,0.5,0.4c0.2,0,0.4-0.1,0.7-0.1c0.2,0,0.4,0.3,0.6,0.4c0.2,0,0.5-0.5,0.7-0.4c0.2,0,0.3,0.4,0.5,0.5
			c0.2,0,0.5-0.3,0.7-0.3c0.2,0,0.4-0.1,0.6,0C198.6,261.3,198.6,261.8,198.8,261.9"/>
	</defs>
	<use xlink:href="#XMLID_23_"  style="overflow:visible;fill:#096A52;"/>
	<clipPath id="XMLID_8_">
		<use xlink:href="#XMLID_23_"  style="overflow:visible;"/>
	</clipPath>
</g>
<path class="st4" d="M128.3,366.6l-5-0.1c0,0-4.4,0.5-6.2,2c-1.8,1.6,0.8,3.6,0.8,3.6l12.1,0.2C129.9,372.4,132.7,366.7,128.3,366.6
	"/>
<g>
	<defs>
		<path id="XMLID_22_" d="M95.4,300.9c0-0.1,0.3-0.2,0.4-0.5c0.1-0.2-0.4-0.6-0.4-0.8c0.1-0.2,0.3-0.3,0.4-0.5
			c0.1-0.2,0.5-0.2,0.6-0.4c0.1-0.2,0.3-0.3,0.4-0.5c0.1-0.2,0.1-0.4,0.2-0.6c0.1-0.2-0.2-0.5-0.1-0.7c0.1-0.2,0.2-0.3,0.3-0.5
			c0.1-0.2,0.2-0.4,0.3-0.5c0.1-0.2-0.1-0.5,0-0.6c0.1-0.2,0-0.4,0-0.6c0.1-0.2-0.1-0.5,0-0.7c0.1-0.2,0.6-0.2,0.7-0.4
			c0.1-0.2,0.3-0.3,0.4-0.5c0.1-0.2-0.2-0.5-0.1-0.7c0.1-0.2,0.2-0.3,0.3-0.5c0.1-0.2,0.1-0.4,0.1-0.6c0.1-0.2,0.4-0.3,0.4-0.5
			c0.1-0.2-0.2-0.5-0.1-0.7c0.1-0.2-0.2-0.5-0.1-0.7c0.1-0.2,0.3-0.3,0.3-0.5c0.1-0.2,0.6-0.2,0.6-0.4c0.1-0.2,0-0.4,0-0.6
			c0.1-0.2,0.2-0.4,0.2-0.6c0.1-0.2,0.4-0.3,0.5-0.5c0.1-0.2-0.5-0.6-0.4-0.8c0.1-0.2,0.1-0.4,0.2-0.6c0.1-0.2,0.7-0.2,0.7-0.4
			c0.1-0.2-0.1-0.5,0-0.7c0.1-0.2,0.2-0.4,0.3-0.6c0.1-0.2,0.2-0.4,0.3-0.6c0.1-0.2-0.1-0.5-0.1-0.7c0.1-0.2-0.1-0.5-0.1-0.7
			c0.1-0.2,0.3-0.4,0.3-0.5c0.1-0.2,0.4-0.3,0.4-0.5c0.1-0.2,0.2-0.4,0.3-0.6c0-0.2-0.3-0.5-0.3-0.7c0-0.2,0.5-0.3,0.5-0.5
			c0-0.2,0-0.4,0-0.6c0-0.2-0.1-0.4-0.1-0.6c0-0.2,0.3-0.4,0.3-0.6c0-0.2-0.3-0.5-0.1-0.7c0.1-0.1,0.6,0.3,0.8,0.2
			c0.2-0.1,0.3-0.3,0.5-0.4c0.2,0,0.4-0.1,0.6-0.1c0.2,0,0.4-0.4,0.6-0.4c0.2,0,0.4,0,0.6-0.1c0.2,0,0.4,0.2,0.6,0.2
			c0.2,0,0.4-0.1,0.6-0.1c0.2,0,0.4-0.2,0.6-0.2c0.2,0,0.4,0.6,0.6,0.6c0.2,0,0.4-0.5,0.6-0.5c0.2,0,0.4,0.3,0.6,0.3
			c0.2,0,0.4-0.1,0.6-0.1c0.2,0,0.4,0.1,0.6,0.1c0.2,0,0.4-0.2,0.6-0.2c0.2,0,0.4,0.3,0.6,0.3c0.2,0,0.4-0.3,0.6-0.3
			c0.2,0,0.4-0.3,0.6-0.3c0.2,0,0.4-0.2,0.6-0.1c0.2,0,0.4,0.8,0.6,0.8c0.2,0,0.4-0.6,0.7-0.6c0.2,0,0.4-0.1,0.6-0.1
			c0.2,0,0.4,0.6,0.6,0.6c0.2,0,0.4-0.1,0.6-0.1c0.2,0,0.4-0.2,0.6-0.2c0.2,0,0.4-0.1,0.6-0.1c0.2,0,0.4,0,0.6,0.1
			c0.2,0,0.3,0.7,0.6,0.7c0.2,0,0.5-0.6,0.7-0.6c0.2,0,0.4,0.6,0.6,0.6c0.2,0,0.4,0.2,0.6,0.3c0.2,0,0.4-0.3,0.6-0.3
			c0.2,0,0.4,0.3,0.6,0.4c0.2,0,0.4,0,0.6,0.1c0.2,0,0.5-0.6,0.7-0.6c0.2,0,0.3,0.7,0.5,0.7c0.2,0,0.4-0.1,0.6-0.1
			c0.2,0,0.4,0,0.6,0c0.2,0,0.4,0.4,0.6,0.4c0.2,0,0.5-0.5,0.7-0.5c0.2,0,0.4,0.1,0.6,0.1c0.2,0,0.4-0.1,0.6,0
			c0.2,0,0.3,0.6,0.5,0.6c0.2,0,0.5-0.7,0.7-0.7c0.2,0,0.3,0.6,0.5,0.6c0.2,0,0.5-0.5,0.7-0.4c0.2,0,0.3,0.6,0.5,0.6
			c0.2,0,0.5-0.3,0.7-0.2c0.2,0,0.4-0.1,0.6-0.1c0.2,0,0.4,0.1,0.6,0.1c0.2,0,0.3,0.6,0.5,0.7c0.2,0,0.4,0.1,0.6,0.1
			c0.2,0,0.5-0.6,0.7-0.5c0.2,0,0.4,0.1,0.6,0.1c0.2,0,0.4,0,0.6,0s0.3,0.4,0.6,0.5c0.2,0,0.4,0.1,0.6,0.1c0.2,0,0.4-0.1,0.6,0
			c0.2,0,0.4,0.1,0.6,0.2c0.2,0,0.4-0.1,0.6-0.1c0.2,0,0.3,0.7,0.5,0.7c0.2,0,0.5-0.6,0.7-0.6c0.2,0,0.3,0.6,0.5,0.6
			c0.2,0,0.5-0.2,0.7-0.2c0.2,0,0.4,0.3,0.6,0.3c0.2,0,0.4,0.3,0.6,0.4c0.2,0,0.5-0.5,0.7-0.4c0.2,0,0.4,0,0.6,0
			c0.2,0,0.4,0.1,0.6,0.2c0.2,0,0.3,0.7,0.5,0.7c0.2,0,0.5-0.4,0.7-0.4c0.2,0,0.3,0.5,0.5,0.6c0.2,0,0.4,0.2,0.6,0.2
			c0.2,0,0.4,0.1,0.6,0.1c0.2,0,0.5-0.3,0.7-0.3c0.2,0,0.3,0.6,0.5,0.6c0.2,0,0.4,0,0.6,0.1c0.2,0,0.4,0,0.6,0
			c0.2,0,0.5-0.5,0.7-0.4c0.2,0.1,0.4,0.2,0.6,0.3c0.2,0.1,0.4,0.1,0.6,0.1c0.2,0.1,0.3,0.6,0.5,0.7c0.2,0.1,0.4-0.2,0.6-0.2
			c0.2,0,0.3-0.4,0.5-0.4c0.2,0,0.4,0,0.6-0.1c0.2,0,0.4-0.1,0.6-0.1c0.2,0,0.5,0.4,0.7,0.3c0.2,0,0.4,0,0.6,0
			c0.2,0,0.4-0.2,0.6-0.3c0.2,0,0.4,0.1,0.6,0.1c0.2,0,0.4-0.2,0.6-0.3c0.2,0,0.4,0.1,0.6,0c0.2,0,0.4-0.1,0.6-0.2
			c0.2,0,0.4-0.1,0.6-0.2c0.2,0,0.3-0.5,0.5-0.6s0.5,0.5,0.7,0.4c0.2,0,0.4,0,0.6-0.1c0.2,0,0.4-0.1,0.6-0.1c0.2,0,0.3-0.4,0.5-0.5
			c0.2,0,0.5,0.2,0.7,0.2c0.2,0,0.3-0.7,0.5-0.7c0.2,0,0.5,0.4,0.7,0.4c0.2,0,0.3-0.6,0.5-0.7c0.2,0,0.5,0.3,0.7,0.2
			c0.2,0,0.4,0.1,0.6,0.1c0.2,0,0.4-0.1,0.6-0.1c0.2,0,0.3-0.4,0.5-0.5c0.2,0,0.4-0.2,0.6-0.3c0.2,0,0.5,0.3,0.7,0.3
			c0.2,0,0.4-0.2,0.6-0.2c0.2,0,0.5,0.3,0.7,0.3c0.2,0,0.4-0.3,0.6-0.3c0.2,0,0.4-0.3,0.6-0.3c0.2,0,0.4-0.3,0.6-0.3
			c0.2,0,0.5,0.2,0.7,0.2c0.2,0,0.4,0,0.6,0c0.2,0,0.4,0.1,0.6,0.1c0.2,0,0.4-0.1,0.6-0.1c0.2,0,0.4-0.1,0.6-0.1
			c0.2,0,0.4-0.5,0.6-0.5c0.2,0,0.4,0.1,0.6,0c0.2,0,0.4-0.1,0.6-0.1c0.2,0,0.4,0,0.6,0c0.2,0,0.5,0.4,0.7,0.4
			c0.2,0,0.4,0.1,0.6,0.1c0.2,0,0.4-0.1,0.6-0.1c0.2,0,0.4-0.1,0.6-0.2c0.2,0,0.4-0.1,0.6-0.1c0.2,0,0.4,0.1,0.6,0
			c0.2,0,0.4-0.5,0.6-0.5c0.2,0,0.4-0.2,0.6-0.2c0.2,0,0.5,0.6,0.7,0.6c0.2,0,0.4-0.5,0.6-0.5c0.2,0,0.4-0.2,0.6-0.2
			c0.2,0,0.4-0.1,0.6-0.2c0.2,0,0.4,0,0.6,0c0.2,0,0.4,0,0.6,0c0.2,0,0.4,0.4,0.6,0.4c0.2,0,0.4-0.1,0.6-0.1c0.2,0,0.4-0.2,0.6-0.2
			c0.2,0,0.4,0.1,0.6,0c0.2,0,0.4-0.4,0.6-0.4c0.2,0,0.4,0.2,0.6,0.2c0.2,0,0.4,0.1,0.6,0.1c0.2,0,0.4,0.2,0.6,0.2
			c0.2,0,0.4-0.3,0.6-0.3c0.2,0,0.4,0,0.6,0c0.2,0,0.4,0.4,0.6,0.4c0.2,0,0.4-0.5,0.6-0.5c0.2,0,0.4-0.1,0.6-0.1
			c0.2,0,0.4-0.1,0.6-0.1c0.2,0,0.4-0.1,0.6-0.1c0.2,0,0.4,0.3,0.6,0.3c0.2,0,0.4-0.3,0.6-0.3c0.2,0,0.4,0.8,0.6,0.8
			c0.2,0,0.5-0.6,0.7-0.6c0.2,0,0.4,0.2,0.6,0.2c0.2,0,0.3,0.4,0.5,0.5c0.2,0.1,0.3,0.3,0.5,0.3c0.2,0.1,0.4,0,0.6,0.1
			c0.2,0.1,0.1,0.2,0.1,0.4c0,0.2,0.3,0.4,0.3,0.6c0,0.2-0.3,0.4-0.3,0.7c0,0.2,0.2,0.4,0.3,0.6c0,0.2,0.6,0.3,0.7,0.5
			c0,0.2-0.2,0.5-0.1,0.7c0,0.2,0.1,0.4,0.2,0.6c0,0.2-0.2,0.5-0.1,0.7c0.1,0.2,0.4,0.3,0.4,0.5c0.1,0.2-0.2,0.5-0.1,0.7
			c0.1,0.2,0.2,0.4,0.2,0.6c0.1,0.2,0.5,0.3,0.6,0.5c0.1,0.2-0.1,0.5-0.1,0.7c0.1,0.2,0.3,0.3,0.4,0.5c0.1,0.2-0.1,0.4,0,0.6
			c0.1,0.2,0.3,0.3,0.3,0.5c0.1,0.2,0.2,0.4,0.3,0.6c0.1,0.2-0.3,0.5-0.2,0.7c0.1,0.2,0.2,0.4,0.2,0.6c0.1,0.2,0.3,0.3,0.3,0.5
			c0.1,0.2,0.1,0.4,0.2,0.6c0.1,0.2,0.2,0.4,0.2,0.6c0.1,0.2,0.6,0.2,0.6,0.4s-0.5,0.6-0.4,0.8c0.1,0.2,0.1,0.4,0.2,0.6
			s0.3,0.3,0.4,0.5c0.1,0.2,0.2,0.4,0.2,0.6c0.1,0.2,0.5,0.2,0.6,0.4c0.1,0.2-0.5,0.6-0.5,0.8c0.1,0.2,0.8,0.2,0.9,0.3
			c0.1,0.2,0,0.4,0.1,0.6c0.1,0.2,0.1,0.4,0.2,0.6c0.1,0.2-0.1,0.5,0,0.7c0.1,0.2,0.3,0.3,0.3,0.5c0.1,0.2,0.2,0.4,0.2,0.6
			c0.1,0.2,0.1,0.4,0.2,0.6c0.1,0.2-0.3,0.6-0.3,0.8c0.1,0.2,0.9,0.1,0.9,0.3c0.1,0.2-0.6,0.7-0.5,0.8c0.1,0.2,0.2,0.4,0.2,0.6
			c0.1,0.2,0.5,0.3,0.5,0.5c0.1,0.3,0.2,0.5,0.2,0.6c0,0.1-0.2,0.4-0.1,0.7c0,0.2,0.5,0.3,0.6,0.5c0,0.2,0.3,0.3,0.3,0.6
			c0,0.2-0.3,0.5-0.3,0.7c0.1,0.2-0.2,0.5-0.1,0.7c0.1,0.2,0.6,0.3,0.7,0.5c0.1,0.2-0.2,0.5-0.2,0.7c0.1,0.2-0.1,0.4,0,0.6
			c0.1,0.2,0,0.4,0.1,0.6c0.1,0.2,0.8,0.2,0.8,0.4c0.1,0.2-0.4,0.5-0.3,0.7c0.1,0.2,0.2,0.4,0.3,0.6c0.1,0.2-0.1,0.5,0,0.7
			c0.1,0.2,0,0.4,0.1,0.6c0.1,0.2,0.5,0.3,0.5,0.5c0.1,0.2,0.2,0.4,0.3,0.6c0.1,0.2,0,0.4,0,0.6c0.1,0.2,0.5,0.3,0.5,0.5
			c0.1,0.2-0.4,0.6-0.4,0.7c0.1,0.2,0,0.3,0,0.5c0,0.2,0.1,0.4,0,0.6c-0.1,0.2,0,0.6-0.1,0.7c-0.1,0.1-0.4,0.3-0.6,0.4
			c-0.2,0.1-0.5-0.5-0.7-0.5c-0.2,0-0.4,0.4-0.6,0.5c-0.2,0-0.4,0.2-0.6,0.2c-0.2,0-0.4-0.5-0.6-0.5c-0.2,0-0.4,0.2-0.6,0.2
			c-0.2,0-0.4,0.5-0.6,0.5c-0.2,0-0.4-0.5-0.6-0.5c-0.2,0-0.4,0.4-0.6,0.4c-0.2,0-0.4-0.6-0.6-0.6c-0.2,0-0.4,0.7-0.6,0.7
			c-0.2,0-0.4-0.3-0.6-0.3c-0.2,0-0.4,0.2-0.6,0.2c-0.2,0-0.4-0.4-0.6-0.4c-0.2,0-0.4,0.1-0.6,0c-0.2,0-0.4,0-0.6,0
			c-0.2,0-0.4,0-0.6,0c-0.2,0-0.4-0.6-0.6-0.6c-0.2,0-0.4,0.3-0.6,0.3c-0.2,0-0.4-0.3-0.6-0.3c-0.2,0-0.4-0.1-0.6-0.1
			c-0.2,0-0.5,0.5-0.7,0.5c-0.2,0-0.4,0-0.6-0.1c-0.2,0-0.4-0.1-0.6-0.1c-0.2,0-0.4-0.3-0.6-0.4c-0.2,0-0.4-0.3-0.6-0.3
			c-0.2,0-0.4,0.1-0.6,0.1c-0.2,0-0.5,0.4-0.7,0.4c-0.2,0-0.3-0.5-0.5-0.5c-0.2,0-0.4,0.1-0.6,0.1c-0.2,0-0.3-0.6-0.5-0.7
			c-0.2-0.1-0.5,0.4-0.7,0.4c-0.2-0.1-0.4-0.1-0.6-0.2c-0.2-0.1-0.3-0.4-0.5-0.4c-0.2-0.1-0.5,0.3-0.7,0.3c-0.2-0.1-0.3-0.3-0.5-0.4
			c-0.2-0.1-0.4-0.2-0.6-0.2c-0.2-0.1-0.3-0.3-0.5-0.4c-0.2-0.1-0.2-0.5-0.4-0.6c-0.2-0.1-0.5,0.1-0.7,0.1c-0.2-0.1-0.4,0-0.6-0.1
			c-0.2-0.1-0.4,0-0.6,0c-0.2-0.1-0.4-0.1-0.6-0.2c-0.2-0.1-0.2-0.6-0.4-0.7c-0.2,0-0.5,0.4-0.7,0.3c-0.2,0-0.4-0.3-0.6-0.3
			c-0.2,0-0.5,0.3-0.7,0.3c-0.2,0-0.4,0-0.6-0.1c-0.2,0-0.4-0.1-0.6-0.2c-0.2,0-0.4-0.4-0.6-0.5c-0.2,0-0.4-0.2-0.6-0.2
			c-0.2,0-0.4,0-0.6,0c-0.2,0-0.4,0.3-0.6,0.3c-0.2,0-0.4,0-0.6,0s-0.4,0-0.6,0c-0.2,0-0.4-0.4-0.6-0.4c-0.2,0-0.4-0.1-0.6-0.1
			c-0.2,0-0.4,0.8-0.6,0.8c-0.2,0-0.4-0.5-0.6-0.5c-0.2,0-0.4,0-0.6,0c-0.2,0-0.4,0.5-0.6,0.5c-0.2,0-0.5-0.6-0.7-0.6
			c-0.2,0-0.4,0.4-0.6,0.5s-0.4,0.2-0.6,0.2c-0.2,0-0.5-0.6-0.7-0.6c-0.2,0-0.3,0.8-0.5,0.8c-0.2,0-0.5-0.4-0.7-0.4
			c-0.2,0-0.4,0.4-0.6,0.4c-0.2,0-0.5-0.7-0.7-0.6c-0.2,0-0.4,0.3-0.6,0.3c-0.2,0-0.4,0.3-0.6,0.4c-0.2,0-0.5-0.3-0.7-0.3
			c-0.2,0-0.4,0.2-0.6,0.2c-0.2,0-0.3,0.6-0.5,0.6c-0.2,0-0.5-0.5-0.7-0.5c-0.2,0-0.4,0.3-0.6,0.4c-0.2,0-0.4,0.1-0.6,0.1
			c-0.2,0-0.5-0.2-0.7-0.2c-0.2,0-0.3,0.7-0.5,0.7c-0.2,0-0.5-0.2-0.7-0.2s-0.4,0.3-0.6,0.3c-0.2,0-0.5-0.2-0.7-0.2
			c-0.2,0-0.3,0.4-0.5,0.4c-0.2,0-0.5-0.4-0.7-0.3c-0.2,0-0.4-0.1-0.6-0.1c-0.2,0-0.3,0.7-0.5,0.8c-0.2,0-0.4,0-0.6,0.1
			c-0.2,0-0.5-0.2-0.7-0.1c-0.2,0-0.5-0.3-0.7-0.2c-0.2,0-0.3,0.5-0.5,0.5c-0.2,0-0.5-0.4-0.7-0.3c-0.2,0-0.4,0-0.6,0.1
			c-0.2,0-0.3,0.9-0.5,0.9c-0.2,0-0.5-0.4-0.7-0.4c-0.2,0-0.4,0.3-0.6,0.4c-0.2,0-0.5-0.4-0.7-0.4c-0.2,0-0.4,0.4-0.6,0.4
			c-0.2,0-0.4,0.3-0.6,0.3c-0.2,0-0.4,0.1-0.6,0.1c-0.2,0-0.5-0.7-0.7-0.6c-0.2,0-0.4,0.5-0.6,0.5c-0.2,0-0.4,0.2-0.6,0.2
			c-0.2,0-0.4-0.7-0.6-0.7c-0.2,0-0.4,0.5-0.6,0.5c-0.2,0-0.4-0.6-0.6-0.6c-0.2,0-0.4,0.3-0.6,0.3c-0.2,0-0.4,0.4-0.6,0.4
			c-0.2,0-0.4-0.6-0.6-0.6c-0.2,0-0.5,0.4-0.7,0.4c-0.2,0-0.4-0.2-0.6-0.2c-0.2,0-0.4-0.5-0.6-0.5c-0.2,0-0.4-0.1-0.6-0.1
			c-0.2,0-0.5,0.7-0.7,0.6c-0.2,0-0.3-0.7-0.5-0.7c-0.2,0-0.5,0.5-0.7,0.4c-0.2,0-0.3-0.6-0.5-0.6c-0.2,0-0.4,0.1-0.6,0.1
			c-0.2,0-0.5,0.4-0.7,0.4c-0.2,0-0.4-0.1-0.6-0.1c-0.2,0-0.4-0.1-0.6-0.2c-0.2,0-0.3-0.6-0.5-0.7s-0.5,0.4-0.7,0.3
			c-0.2,0-0.4-0.2-0.6-0.2c-0.2-0.1-0.3-0.3-0.5-0.3c-0.2-0.1-0.3-0.3-0.5-0.4c-0.2-0.1-0.5,0.3-0.7,0.3c-0.2-0.1-0.5,0.1-0.6,0.1
			c-0.2-0.1-0.4-0.1-0.6-0.2c-0.2-0.1-0.2-0.7-0.4-0.7c-0.2-0.1-0.5,0.3-0.7,0.3c-0.2-0.1-0.3-0.3-0.5-0.4c-0.2-0.1-0.4,0.1-0.6,0
			c-0.2,0-0.3-0.6-0.5-0.6c-0.2,0-0.5,0.2-0.7,0.1c-0.2,0-0.4,0-0.6-0.1c-0.2,0-0.3-0.4-0.5-0.5c-0.2,0-0.5,0.2-0.7,0.2
			c-0.2,0-0.4-0.2-0.6-0.3c-0.2,0-0.4-0.1-0.6-0.2c-0.2,0-0.4,0.2-0.6,0.1c-0.2,0-0.4-0.5-0.6-0.5c-0.2,0-0.4,0-0.6,0
			c-0.2,0-0.4-0.1-0.6-0.1c-0.2,0-0.4,0-0.6,0c-0.2,0-0.4,0-0.6,0c-0.2,0-0.4,0-0.6,0c-0.2,0-0.3,0.8-0.5,0.8
			c-0.2,0-0.4-0.3-0.6-0.3c-0.2,0-0.4,0.2-0.6,0.3c-0.2,0-0.4,0.2-0.5,0.3c-0.2,0-0.4-0.2-0.6-0.1c-0.2,0.1-0.5-0.2-0.7-0.1
			c-0.2,0.1-0.4,0.2-0.5,0.3c-0.2,0.1-0.3,0.4-0.4,0.5c-0.2,0.1-0.4,0.1-0.6,0.2c-0.2,0.1-0.4,0.1-0.6,0.2c-0.2,0.1-0.5-0.2-0.7-0.1
			c-0.2,0.1-0.2,0.5-0.4,0.6c-0.2,0.1-0.3,0.4-0.5,0.5c-0.2,0.1-0.5-0.1-0.7,0c-0.2,0.1-0.5-0.1-0.7,0c-0.2,0.1-0.3,0.3-0.5,0.4
			c-0.2,0.1-0.5-0.1-0.7,0c-0.2,0.1-0.2,0.7-0.4,0.8c-0.2,0.1-0.5-0.2-0.7-0.2c-0.2,0.1-0.3,0.5-0.5,0.5c-0.2,0.1-0.4,0.3-0.6,0.3
			c-0.2,0.1-0.5-0.4-0.7-0.3c-0.2,0-0.5-0.1-0.7-0.1c-0.2,0-0.4,0.1-0.6,0.2c-0.2,0-0.3,0.6-0.5,0.7c-0.2,0-0.5-0.6-0.7-0.5
			c-0.2,0-0.3,0.8-0.5,0.8c-0.2,0-0.5-0.5-0.7-0.5c-0.2,0-0.4-0.1-0.6-0.1c-0.2,0-0.4,0.2-0.6,0.3c-0.2,0-0.4,0.6-0.6,0.6
			c-0.2,0-0.4-0.2-0.6-0.2c-0.2,0-0.4,0-0.6,0c-0.2,0-0.4-0.2-0.6-0.2c-0.2,0-0.4-0.1-0.6-0.1c-0.2,0-0.4,0.5-0.6,0.5
			c-0.2,0-0.4-0.6-0.6-0.6c-0.2,0-0.4,0.3-0.6,0.3c-0.2,0-0.4-0.5-0.6-0.5c-0.2,0-0.4,0.1-0.6,0.1c-0.2,0-0.4,0.2-0.6,0.2
			c-0.2,0-0.4-0.1-0.6-0.1c-0.2,0-0.4-0.2-0.6-0.2c-0.2,0-0.4-0.1-0.6-0.1c-0.2,0-0.4,0.1-0.6,0.1c-0.2,0-0.5,0.1-0.7,0
			c-0.2-0.1-0.2-0.4-0.4-0.5c-0.1-0.2-0.5-0.3-0.5-0.5c-0.1-0.2,0.2-0.4,0.2-0.7c0-0.2,0-0.4,0-0.6c0-0.2-0.4-0.5-0.3-0.7
			c0-0.2,0.4-0.4,0.4-0.6c0-0.2,0.3-0.4,0.3-0.6c0-0.2-0.2-0.4-0.2-0.7c0-0.2-0.1-0.4-0.1-0.6c0-0.2,0.5-0.4,0.5-0.6
			c0-0.2-0.2-0.4-0.2-0.7c0-0.2-0.2-0.5-0.2-0.7c0-0.2,0.7-0.3,0.7-0.5c0-0.2-0.3-0.5-0.3-0.7c0-0.2,0.4-0.4,0.4-0.6
			c0-0.2,0.1-0.4,0.1-0.6c0-0.2-0.4-0.5-0.3-0.7c0-0.2-0.1-0.4,0-0.6c0-0.2,0.4-0.4,0.4-0.6c0-0.2,0.1-0.4,0.2-0.6
			c0-0.2,0-0.5,0-0.6C95.4,301.2,95.4,301,95.4,300.9"/>
	</defs>
	<use xlink:href="#XMLID_22_"  style="overflow:visible;fill:#096A52;"/>
	<clipPath id="XMLID_10_">
		<use xlink:href="#XMLID_22_"  style="overflow:visible;"/>
	</clipPath>
</g>
<g>
	<path class="st5" d="M102.4,275.4c0,0,44.5,6.6,99.1-0.9l0.1,3c0,0-45.4,9.2-99.7,1.2C101.9,276.5,102.4,275.4,102.4,275.4"/>
</g>
<path class="st6" d="M129.8,221.3c6.9,7.7,32.3,33.3,69,39.2c0.1,0.9,0.3,2.9,0.4,3.8c-44.8-5.8-74.6-42.1-74.6-42.1L129.8,221.3z"
	/>
<g>
	<defs>
		<path id="SVGID_4_" d="M114.1,275.4c0.2,0,0.4,0.8,0.6,0.8c0.1,0,0.2-0.1,0.3-0.3c0.1-0.1,0.2-0.3,0.3-0.3c0.1,0,0.2,0,0.3,0
			c0.1,0,0.2,0,0.3,0c0.2,0,0.4,0.6,0.6,0.6c0.1,0,0.2,0,0.3,0c0.1,0,0.2,0,0.3,0c0.1,0,0.2,0,0.3-0.1c0.1-0.1,0.2-0.1,0.3-0.1
			c0.1,0,0.2,0,0.3,0c0.1,0,0.2-0.1,0.3,0c0.2,0,0.4,0,0.6,0.1c0.2,0,0.3,0.7,0.6,0.7c0.1,0,0.2-0.1,0.3-0.3
			c0.1-0.2,0.2-0.3,0.3-0.3c0.2,0,0.4,0.6,0.6,0.6c0.2,0,0.4,0.2,0.6,0.3c0.1,0,0.2-0.1,0.3-0.1c0.1-0.1,0.2-0.1,0.3-0.1
			c0.2,0,0.4,0.3,0.6,0.4c0.2,0,0.4,0,0.6,0.1c0.1,0,0.2-0.1,0.3-0.3c0.1-0.1,0.2-0.3,0.3-0.3c0.2,0,0.3,0.7,0.5,0.7
			c0.1,0,0.2,0,0.3-0.1c0.1,0,0.2-0.1,0.3-0.1c0.1,0,0.2,0,0.3,0c0.1,0,0.2,0,0.3,0c0.2,0,0.4,0.4,0.6,0.4c0.1,0,0.2-0.1,0.3-0.2
			c0.1-0.1,0.2-0.2,0.3-0.2c0.2,0,0.4,0.1,0.6,0.1c0.1,0,0.2,0,0.3,0c0.1,0,0.2,0,0.3,0c0.2,0,0.3,0.6,0.5,0.6
			c0.1,0,0.2-0.2,0.4-0.3c0.1-0.2,0.3-0.3,0.4-0.3c0.2,0,0.3,0.6,0.5,0.6c0.1,0,0.2-0.1,0.3-0.2c0.1-0.1,0.2-0.2,0.3-0.2
			c0.2,0,0.3,0.6,0.5,0.6c0.1,0,0.2,0,0.3-0.1c0.1-0.1,0.2-0.1,0.3-0.1c0.1,0,0.2,0,0.3,0c0.1,0,0.2,0,0.3,0c0.2,0,0.4,0.1,0.6,0.1
			s0.3,0.6,0.5,0.7c0.2,0,0.4,0.1,0.6,0.1c0.1,0,0.2-0.1,0.4-0.3c0.1-0.1,0.3-0.3,0.4-0.3c0.2,0,0.4,0.1,0.6,0.1c0.2,0,0.4,0,0.6,0
			c0.2,0,0.3,0.4,0.6,0.5c0.2,0,0.4,0.1,0.6,0.1c0.1,0,0.2,0,0.3,0c0.1,0,0.2,0,0.3,0c0.2,0,0.4,0.1,0.6,0.2c0.1,0,0.2,0,0.3,0
			c0.1,0,0.2-0.1,0.3,0c0.2,0,0.3,0.7,0.5,0.7c0.1,0,0.2-0.1,0.4-0.3c0.1-0.2,0.3-0.3,0.4-0.3c0.2,0,0.3,0.6,0.5,0.6
			c0.1,0,0.2,0,0.3-0.1c0.1-0.1,0.2-0.1,0.3-0.1c0.2,0,0.4,0.3,0.6,0.3c0.2,0,0.4,0.3,0.6,0.4c0.1,0,0.2-0.1,0.4-0.2
			c0.1-0.1,0.3-0.2,0.4-0.2c0.2,0,0.4,0,0.6,0c0.2,0,0.4,0.1,0.6,0.2c0.2,0,0.3,0.7,0.5,0.7c0.1,0,0.2-0.1,0.4-0.2
			c0.1-0.1,0.3-0.2,0.4-0.2c0.2,0,0.3,0.5,0.5,0.5c0.2,0,0.4,0.2,0.6,0.2c0.2,0,0.4,0.1,0.6,0.1c0.1,0,0.2-0.1,0.4-0.1
			c0.1-0.1,0.3-0.2,0.4-0.2c0.2,0,0.3,0.6,0.5,0.6c0.2,0,0.4,0,0.6,0.1c0.2,0,0.4,0,0.6,0.1c0.1,0,0.2-0.1,0.4-0.2
			c0.1-0.1,0.3-0.2,0.4-0.2c0.2,0.1,0.4,0.2,0.6,0.3c0.2,0.1,0.4,0.1,0.6,0.1c0.2,0.1,0.3,0.6,0.5,0.7c0.1,0,0.2,0,0.3-0.1
			c0.1-0.1,0.2-0.1,0.3-0.1c0.2,0,0.3-0.4,0.5-0.4c0.2,0,0.4,0,0.6-0.1c0.2,0,0.4-0.1,0.6-0.1c0.1,0,0.2,0.1,0.4,0.2
			c0.1,0.1,0.3,0.2,0.4,0.2c0.1,0,0.2,0,0.3,0c0.1,0,0.2,0,0.3,0c0.2,0,0.4-0.2,0.6-0.3c0.1,0,0.2,0,0.3,0c0.1,0,0.2,0.1,0.3,0
			c0.2,0,0.4-0.2,0.6-0.3c0.1,0,0.2,0,0.3,0c0.1,0,0.2,0,0.3,0c0.2,0,0.4-0.1,0.6-0.2c0.2,0,0.4-0.1,0.6-0.2c0.2,0,0.3-0.5,0.5-0.6
			c0.1,0,0.2,0.1,0.4,0.2c0.1,0.1,0.3,0.2,0.4,0.2c0.2,0,0.4,0,0.6-0.1c0.2,0,0.4-0.1,0.6-0.1c0.2,0,0.3-0.4,0.5-0.5
			c0.1,0,0.2,0,0.3,0.1c0.1,0,0.2,0.1,0.3,0.1c0.2,0,0.3-0.7,0.5-0.7c0.1,0,0.2,0.1,0.3,0.2c0.1,0.1,0.2,0.2,0.3,0.2
			c0.2,0,0.3-0.6,0.5-0.7c0.1,0,0.2,0.1,0.3,0.1c0.1,0.1,0.2,0.1,0.3,0.1c0.1,0,0.2,0,0.3,0c0.1,0,0.2,0.1,0.3,0
			c0.2,0,0.4-0.1,0.6-0.1c0.2,0,0.3-0.4,0.5-0.5c0.2,0,0.4-0.2,0.6-0.3c0.1,0,0.2,0.1,0.3,0.1c0.1,0.1,0.2,0.1,0.3,0.1
			c0.2,0,0.4-0.2,0.6-0.2c0.1,0,0.2,0.1,0.3,0.1c0.1,0.1,0.2,0.2,0.3,0.1c0.2,0,0.4-0.3,0.6-0.3c0.2,0,0.4-0.3,0.6-0.3
			c0.2,0,0.4-0.3,0.6-0.3c0.1,0,0.2,0,0.3,0.1c0.1,0.1,0.2,0.1,0.3,0.1c0.2,0,0.4,0,0.6,0c0.1,0,0.2,0,0.3,0s0.2,0,0.3,0
			c0.2,0,0.4-0.1,0.6-0.1c0.2,0,0.4-0.1,0.6-0.1c0.2,0,0.4-0.5,0.6-0.5c0.1,0,0.2,0,0.3,0c0.1,0,0.2,0,0.3,0c0.2,0,0.4-0.1,0.6-0.1
			c0.2,0,0.4,0,0.6,0c0.1,0,0.2,0.1,0.3,0.2c0.1,0.1,0.2,0.2,0.3,0.2c0.1,0,0.2,0,0.3,0.1c0.1,0,0.2,0.1,0.3,0.1
			c0.2,0,0.4-0.1,0.6-0.1c0.2,0,0.4-0.1,0.6-0.2c0.2,0,0.4-0.1,0.6-0.1c0.1,0,0.2,0,0.3,0c0.1,0,0.2,0,0.3,0c0.2,0,0.4-0.5,0.6-0.5
			c0.2,0,0.4-0.2,0.6-0.2c0.1,0,0.2,0.1,0.3,0.3c0.1,0.2,0.2,0.3,0.3,0.3c0.2,0,0.4-0.5,0.6-0.5c0.2,0,0.4-0.2,0.6-0.2
			c0.2,0,0.4-0.1,0.6-0.2c0.1,0,0.2,0,0.3,0c0.1,0,0.2,0,0.3,0c0.1,0,0.2,0,0.3,0c0.1,0,0.2,0,0.3,0c0.1,0,0.2,0.1,0.3,0.2
			c0.1,0.1,0.2,0.2,0.3,0.2c0.2,0,0.4-0.1,0.6-0.1c0.2,0,0.4-0.2,0.6-0.2c0.1,0,0.2,0,0.3,0c0.1,0,0.2,0,0.3,0
			c0.2,0,0.4-0.4,0.6-0.4c0.1,0,0.2,0,0.3,0.1c0.1,0,0.2,0.1,0.3,0.1c0.1,0,0.2,0,0.3,0c0.1,0,0.2,0,0.3,0c0.1,0,0.2,0.1,0.3,0.1
			c0.1,0.1,0.2,0.1,0.3,0.1c0.2,0,0.4-0.3,0.6-0.3c0.2,0,0.4,0,0.6,0c0.1,0,0.2,0.1,0.3,0.2c0.1,0.1,0.2,0.2,0.3,0.2
			c0.2,0,0.4-0.5,0.6-0.5c0.2,0,0.4-0.1,0.6-0.1c0.2,0,0.4-0.1,0.6-0.1c0.1,0,0.2,0,0.3,0c0.1,0,0.2,0,0.3,0c0.2,0,0.4,0.3,0.6,0.3
			c0.1,0,0.2-0.1,0.3-0.2c0.1-0.1,0.2-0.2,0.3-0.2c0.2,0,0.4,0.8,0.6,0.8c0.1,0,0.2-0.1,0.3-0.3c0.1-0.2,0.2-0.3,0.3-0.3
			c0.2,0,0.4,0.2,0.6,0.2c0.2,0,0.3,0.4,0.5,0.5c0.2,0.1,0.3,0.3,0.5,0.3c0.1,0,0.2,0,0.3,0c0.1,0,0.2,0,0.3,0
			c0.2,0.1,0.1,0.2,0.1,0.4c0,0.2,0.3,0.4,0.3,0.6c0,0.2-0.3,0.4-0.3,0.7c0,0.2,0.2,0.4,0.3,0.6c0,0.2,0.6,0.3,0.7,0.5
			c0,0.2-0.2,0.5-0.1,0.7c0,0.2,0.1,0.4,0.2,0.6c0,0.2-0.2,0.5-0.1,0.7c0.1,0.2,0.4,0.3,0.4,0.5c0.1,0.2-0.2,0.5-0.1,0.7
			c0.1,0.2,0.2,0.4,0.2,0.6c0.1,0.2,0.5,0.3,0.6,0.5c0.1,0.2-0.1,0.5-0.1,0.7c0.1,0.2,0.3,0.3,0.4,0.5s-0.1,0.4,0,0.6
			c0.1,0.2,0.3,0.3,0.3,0.5c0.1,0.2,0.2,0.4,0.3,0.6c0.1,0.2-0.3,0.5-0.2,0.7c0.1,0.2,0.2,0.4,0.2,0.6c0.1,0.2,0.3,0.3,0.3,0.5
			c0.1,0.2,0.1,0.4,0.2,0.6c0.1,0.2,0.2,0.4,0.2,0.6c0.1,0.2,0.6,0.2,0.6,0.4c0.1,0.2-0.5,0.6-0.4,0.8c0.1,0.2,0.1,0.4,0.2,0.6
			c0.1,0.2,0.3,0.3,0.4,0.5c0.1,0.2,0.2,0.4,0.2,0.6c0.1,0.2,0.5,0.2,0.6,0.4c0.1,0.2-0.5,0.6-0.5,0.8c0.1,0.2,0.8,0.2,0.9,0.3
			c0.1,0.2,0,0.4,0.1,0.6c0.1,0.2,0.1,0.4,0.2,0.6c0.1,0.2-0.1,0.5,0,0.7c0.1,0.2,0.3,0.3,0.3,0.5c0.1,0.2,0.2,0.4,0.2,0.6
			c0.1,0.2,0.1,0.4,0.2,0.6c0.1,0.2-0.3,0.6-0.3,0.8c0.1,0.2,0.9,0.1,0.9,0.3c0.1,0.2-0.6,0.7-0.5,0.8c0.1,0.2,0.2,0.4,0.2,0.6
			c0.1,0.2,0.5,0.3,0.5,0.5c0.1,0.3,0.2,0.5,0.2,0.6c0,0.1-0.2,0.4-0.1,0.7c0,0.2,0.5,0.3,0.6,0.5c0,0.2,0.3,0.3,0.3,0.6
			c0,0.2-0.3,0.5-0.3,0.7c0.1,0.2-0.2,0.5-0.2,0.7c0.1,0.2,0.6,0.3,0.7,0.5c0.1,0.2-0.2,0.5-0.2,0.7c0.1,0.2-0.1,0.4,0,0.6
			c0.1,0.2,0,0.4,0.1,0.6c0.1,0.2,0.8,0.2,0.8,0.4c0.1,0.2-0.4,0.5-0.3,0.7c0.1,0.2,0.2,0.4,0.3,0.6c0.1,0.2-0.1,0.4,0,0.7
			c0.1,0.2,0,0.4,0.1,0.6c0.1,0.2,0.5,0.3,0.5,0.5c0.1,0.2,0.2,0.4,0.3,0.6c0.1,0.2,0,0.4,0,0.6c0.1,0.2,0.5,0.3,0.5,0.5
			c0.1,0.2-0.5,0.6-0.4,0.7c0.1,0.2,0,0.3,0,0.5c0,0.2,0.1,0.4,0,0.6c-0.1,0.2,0,0.6-0.1,0.7c-0.1,0.1-0.4,0.3-0.6,0.4
			c-0.1,0-0.2-0.1-0.4-0.2c-0.1-0.1-0.3-0.3-0.4-0.3c-0.2,0-0.4,0.4-0.6,0.5c-0.2,0-0.4,0.2-0.6,0.2c-0.1,0-0.2-0.1-0.3-0.3
			c-0.1-0.1-0.2-0.3-0.3-0.3c-0.2,0-0.4,0.2-0.6,0.2c-0.2,0-0.4,0.5-0.6,0.5c-0.1,0-0.2-0.1-0.3-0.2c-0.1-0.1-0.2-0.2-0.3-0.2
			c-0.2,0-0.4,0.4-0.6,0.4c-0.2,0-0.4-0.6-0.6-0.6c-0.1,0-0.2,0.2-0.3,0.4c-0.1,0.2-0.2,0.4-0.3,0.4c-0.2,0-0.4-0.3-0.6-0.3
			c-0.1,0-0.2,0.1-0.3,0.1c-0.1,0.1-0.2,0.1-0.3,0.1c-0.2,0-0.4-0.4-0.6-0.4c-0.1,0-0.2,0-0.3,0c-0.1,0-0.2,0-0.3,0
			c-0.2,0-0.4,0-0.6,0c-0.1,0-0.2,0-0.3,0c-0.1,0-0.2,0-0.3,0c-0.2,0-0.4-0.6-0.6-0.6c-0.1,0-0.2,0.1-0.3,0.1
			c-0.1,0.1-0.2,0.1-0.3,0.1c-0.2,0-0.4-0.3-0.6-0.3c-0.2,0-0.4-0.1-0.6-0.1c-0.1,0-0.2,0.1-0.3,0.2c-0.1,0.1-0.2,0.3-0.3,0.2
			c-0.2,0-0.4,0-0.6-0.1c-0.2,0-0.4-0.1-0.6-0.1c-0.2,0-0.4-0.3-0.6-0.4c-0.2,0-0.4-0.3-0.6-0.3c-0.1,0-0.2,0-0.3,0
			c-0.1,0-0.2,0-0.3,0c-0.1,0-0.2,0.1-0.4,0.2c-0.1,0.1-0.3,0.2-0.4,0.2c-0.2,0-0.3-0.5-0.5-0.5c-0.1,0-0.2,0-0.3,0
			c-0.1,0-0.2,0.1-0.3,0c-0.2,0-0.3-0.6-0.5-0.7c-0.1,0-0.2,0.1-0.4,0.2c-0.1,0.1-0.3,0.2-0.4,0.2c-0.2-0.1-0.4-0.1-0.6-0.2
			c-0.2-0.1-0.3-0.4-0.5-0.4c-0.1,0-0.2,0.1-0.4,0.1c-0.1,0.1-0.3,0.2-0.4,0.1c-0.2-0.1-0.3-0.3-0.5-0.4c-0.2-0.1-0.4-0.2-0.6-0.2
			c-0.2-0.1-0.3-0.3-0.5-0.4c-0.2-0.1-0.2-0.5-0.4-0.6c-0.1,0-0.2,0-0.3,0c-0.1,0-0.2,0.1-0.3,0c-0.1,0-0.2,0-0.3,0
			c-0.1,0-0.2,0-0.3,0c-0.1,0-0.2,0-0.3,0c-0.1,0-0.2,0-0.3,0c-0.2-0.1-0.4-0.1-0.6-0.2c-0.2-0.1-0.2-0.6-0.4-0.7
			c-0.1,0-0.2,0.1-0.4,0.2c-0.1,0.1-0.3,0.2-0.4,0.2c-0.2,0-0.4-0.3-0.6-0.3c-0.1,0-0.2,0.1-0.3,0.1c-0.1,0.1-0.2,0.2-0.3,0.1
			c-0.2,0-0.4,0-0.6-0.1c-0.2,0-0.4-0.1-0.6-0.2c-0.2,0-0.4-0.4-0.6-0.5c-0.2,0-0.4-0.2-0.6-0.2c-0.1,0-0.2,0-0.3,0
			c-0.1,0-0.2,0-0.3,0c-0.1,0-0.2,0.1-0.3,0.1c-0.1,0.1-0.2,0.1-0.3,0.1c-0.1,0-0.2,0-0.3,0c-0.1,0-0.2,0-0.3,0c-0.2,0-0.4,0-0.6,0
			c-0.2,0-0.4-0.4-0.6-0.4c-0.1,0-0.2,0-0.3-0.1c-0.1,0-0.2-0.1-0.3-0.1c-0.2,0-0.4,0.8-0.6,0.8c-0.1,0-0.2-0.1-0.3-0.2
			c-0.1-0.1-0.2-0.2-0.3-0.2c-0.2,0-0.4,0-0.6,0c-0.2,0-0.4,0.5-0.6,0.5c-0.1,0-0.2-0.1-0.3-0.3c-0.1-0.2-0.2-0.3-0.3-0.3
			c-0.2,0-0.4,0.4-0.6,0.5c-0.2,0-0.4,0.2-0.6,0.2c-0.1,0-0.2-0.1-0.3-0.3c-0.1-0.1-0.2-0.3-0.3-0.3c-0.2,0-0.3,0.8-0.5,0.8
			c-0.1,0-0.2-0.1-0.3-0.2c-0.1-0.1-0.2-0.2-0.3-0.2c-0.2,0-0.4,0.4-0.6,0.4c-0.1,0-0.2-0.2-0.3-0.3c-0.1-0.2-0.2-0.3-0.4-0.3
			c-0.2,0-0.4,0.3-0.6,0.3c-0.2,0-0.4,0.3-0.6,0.4c-0.1,0-0.2-0.1-0.3-0.2c-0.1-0.1-0.2-0.2-0.3-0.2c-0.2,0-0.4,0.2-0.6,0.2
			c-0.2,0-0.3,0.6-0.5,0.6c-0.1,0-0.2-0.1-0.4-0.3c-0.1-0.1-0.3-0.3-0.4-0.3c-0.2,0-0.4,0.3-0.6,0.4c-0.2,0-0.4,0.1-0.6,0.1
			c-0.1,0-0.2,0-0.3-0.1c-0.1-0.1-0.2-0.1-0.3-0.1c-0.2,0-0.3,0.7-0.5,0.7c-0.1,0-0.2,0-0.3-0.1s-0.2-0.1-0.3-0.1
			c-0.2,0-0.4,0.3-0.6,0.3c-0.1,0-0.2,0-0.3-0.1c-0.1-0.1-0.2-0.1-0.3-0.1c-0.2,0-0.3,0.4-0.5,0.4c-0.1,0-0.2-0.1-0.3-0.2
			c-0.1-0.1-0.2-0.2-0.3-0.2c-0.1,0-0.2,0-0.3,0c-0.1,0-0.2,0-0.3,0c-0.2,0-0.3,0.7-0.5,0.8c-0.2,0-0.4,0-0.6,0.1
			c-0.1,0-0.2,0-0.3-0.1c-0.1,0-0.2-0.1-0.3-0.1c-0.1,0-0.2-0.1-0.3-0.1c-0.1-0.1-0.2-0.1-0.3-0.1c-0.2,0-0.3,0.5-0.5,0.5
			c-0.1,0-0.2-0.1-0.3-0.2c-0.1-0.1-0.2-0.2-0.3-0.2c-0.2,0-0.4,0-0.6,0.1c-0.2,0-0.3,0.9-0.5,0.9c-0.1,0-0.2-0.1-0.3-0.2
			s-0.2-0.2-0.3-0.2c-0.2,0-0.4,0.3-0.6,0.4c-0.1,0-0.2-0.1-0.3-0.2c-0.1-0.1-0.2-0.2-0.3-0.2c-0.2,0-0.4,0.4-0.6,0.4
			c-0.2,0-0.4,0.3-0.6,0.3c-0.2,0-0.4,0.1-0.6,0.1c-0.1,0-0.2-0.2-0.3-0.3c-0.1-0.2-0.2-0.3-0.3-0.3c-0.2,0-0.4,0.5-0.6,0.5
			c-0.2,0-0.4,0.2-0.6,0.2c-0.2,0-0.4-0.7-0.6-0.7c-0.1,0-0.2,0.1-0.3,0.3c-0.1,0.1-0.2,0.3-0.3,0.3c-0.2,0-0.4-0.6-0.6-0.6
			c-0.1,0-0.2,0.1-0.3,0.2c-0.1,0.1-0.2,0.2-0.3,0.2c-0.1,0-0.2,0.1-0.3,0.2c-0.1,0.1-0.2,0.2-0.3,0.2c-0.2,0-0.4-0.6-0.6-0.6
			c-0.1,0-0.2,0.1-0.3,0.2c-0.1,0.1-0.2,0.2-0.3,0.2c-0.2,0-0.4-0.2-0.6-0.2c-0.2,0-0.4-0.5-0.6-0.5c-0.2,0-0.4-0.1-0.6-0.1
			c-0.1,0-0.2,0.2-0.4,0.3c-0.1,0.2-0.3,0.3-0.4,0.3c-0.2,0-0.3-0.7-0.5-0.7c-0.1,0-0.2,0.1-0.3,0.2c-0.1,0.1-0.2,0.2-0.3,0.2
			c-0.2,0-0.3-0.6-0.5-0.6c-0.1,0-0.2,0-0.3,0c-0.1,0-0.2,0.1-0.3,0c-0.1,0-0.2,0.1-0.3,0.2c-0.1,0.1-0.3,0.2-0.3,0.2
			c-0.2,0-0.4-0.1-0.6-0.1c-0.2,0-0.4-0.1-0.6-0.2c-0.2,0-0.3-0.6-0.5-0.7c-0.1,0-0.2,0.1-0.4,0.2c-0.1,0.1-0.3,0.2-0.4,0.2
			c-0.2,0-0.4-0.2-0.6-0.2c-0.2,0-0.3-0.3-0.5-0.3c-0.2-0.1-0.3-0.3-0.5-0.4c-0.1,0-0.2,0.1-0.4,0.1c-0.1,0.1-0.3,0.2-0.4,0.1
			c-0.1,0-0.2,0-0.3,0c-0.1,0-0.2,0.1-0.3,0c-0.2-0.1-0.4-0.1-0.6-0.2c-0.2-0.1-0.2-0.7-0.4-0.7c-0.1,0-0.2,0.1-0.4,0.1
			c-0.1,0.1-0.3,0.2-0.4,0.1c-0.2-0.1-0.3-0.3-0.5-0.4c-0.1,0-0.2,0-0.3,0c-0.1,0-0.2,0-0.3,0c-0.2,0-0.3-0.6-0.5-0.6
			c-0.1,0-0.2,0-0.3,0.1c-0.1,0-0.2,0.1-0.3,0.1c-0.2,0-0.4,0-0.6-0.1c-0.2,0-0.3-0.4-0.5-0.5c-0.1,0-0.2,0-0.3,0.1
			c-0.1,0.1-0.2,0.1-0.3,0.1c-0.2,0-0.4-0.2-0.6-0.3c-0.2,0-0.4-0.1-0.6-0.2c-0.1,0-0.2,0-0.3,0.1c-0.1,0-0.2,0.1-0.3,0.1
			c-0.2,0-0.4-0.5-0.6-0.5c-0.1,0-0.2,0-0.3,0c-0.1,0-0.2,0-0.3,0c-0.2,0-0.4-0.1-0.6-0.1c-0.1,0-0.2,0-0.4,0c-0.1,0-0.2,0-0.3,0
			c-0.2,0-0.4,0-0.6,0c-0.2,0-0.4,0-0.6,0c-0.2,0-0.3,0.8-0.5,0.8c-0.1,0-0.2-0.1-0.3-0.2c-0.1-0.1-0.2-0.2-0.3-0.2
			c-0.2,0-0.4,0.2-0.6,0.3c-0.2,0-0.3,0.2-0.5,0.3c-0.1,0-0.2,0-0.3,0c-0.1,0-0.2-0.1-0.3,0c-0.1,0-0.2,0-0.3-0.1
			c-0.1,0-0.2-0.1-0.3-0.1c-0.2,0.1-0.4,0.2-0.5,0.3c-0.2,0.1-0.3,0.4-0.4,0.5c-0.2,0.1-0.4,0.1-0.6,0.2c-0.2,0.1-0.4,0.1-0.6,0.2
			c-0.1,0-0.2,0-0.4,0c-0.1,0-0.3-0.1-0.4,0c-0.2,0.1-0.2,0.5-0.4,0.6c-0.2,0.1-0.3,0.4-0.5,0.5c-0.1,0-0.2,0-0.3,0
			c-0.1,0-0.2-0.1-0.3,0c-0.1,0-0.2,0-0.3,0c-0.1,0-0.2-0.1-0.3,0c-0.2,0.1-0.3,0.3-0.5,0.4c-0.1,0-0.2,0-0.3,0c-0.1,0-0.2,0-0.3,0
			c-0.2,0.1-0.2,0.7-0.4,0.8c-0.1,0-0.2,0-0.4-0.1c-0.1-0.1-0.2-0.1-0.3-0.1c-0.2,0.1-0.3,0.5-0.5,0.5c-0.2,0.1-0.4,0.3-0.6,0.3
			c-0.1,0-0.2-0.1-0.4-0.2c-0.1-0.1-0.3-0.2-0.4-0.2c-0.1,0-0.2,0-0.3,0c-0.1,0-0.2-0.1-0.3,0c-0.2,0-0.4,0.1-0.6,0.2
			c-0.2,0-0.3,0.6-0.5,0.7c-0.1,0-0.2-0.1-0.4-0.3c-0.1-0.1-0.3-0.3-0.4-0.3c-0.2,0-0.3,0.8-0.5,0.8c-0.1,0-0.2-0.1-0.4-0.3
			c-0.1-0.1-0.2-0.3-0.3-0.3c-0.1,0-0.2,0-0.3-0.1c-0.1,0-0.2-0.1-0.3-0.1c-0.2,0-0.4,0.2-0.6,0.3c-0.2,0-0.4,0.6-0.6,0.6
			c-0.1,0-0.2-0.1-0.3-0.1c-0.1-0.1-0.2-0.1-0.3-0.1c-0.2,0-0.4,0-0.6,0c-0.1,0-0.2,0-0.3-0.1c-0.1-0.1-0.2-0.1-0.3-0.1
			c-0.1,0-0.2,0-0.3,0c-0.1,0-0.2,0-0.3,0c-0.2,0-0.4,0.5-0.6,0.5c-0.2,0-0.4-0.6-0.6-0.6c-0.1,0-0.2,0.1-0.3,0.2
			c-0.1,0.1-0.2,0.2-0.3,0.2c-0.2,0-0.4-0.5-0.6-0.5c-0.1,0-0.2,0-0.3,0c-0.1,0-0.2,0.1-0.3,0c-0.1,0-0.2,0-0.3,0.1
			c-0.1,0-0.2,0.1-0.3,0.1c-0.2,0-0.4-0.1-0.6-0.1c-0.2,0-0.4-0.2-0.6-0.2c-0.2,0-0.4-0.1-0.6-0.1c-0.1,0-0.2,0-0.3,0
			c-0.1,0-0.2,0-0.3,0c-0.1,0-0.2,0-0.3,0c-0.1,0-0.3,0-0.4,0c-0.2-0.1-0.2-0.4-0.4-0.5c-0.1-0.2-0.5-0.3-0.5-0.5
			c-0.1-0.2,0.2-0.4,0.2-0.7c0-0.2,0-0.4,0-0.6c0-0.2-0.4-0.5-0.3-0.7c0-0.2,0.4-0.4,0.4-0.6c0-0.2,0.3-0.4,0.3-0.6
			c0-0.2-0.2-0.4-0.2-0.7c0-0.2-0.1-0.4-0.1-0.6c0-0.2,0.5-0.4,0.5-0.6c0-0.2-0.2-0.4-0.2-0.7c0-0.2-0.2-0.5-0.2-0.7
			c0-0.2,0.7-0.3,0.7-0.5c0-0.2-0.3-0.5-0.3-0.7c0-0.2,0.4-0.4,0.4-0.6c0-0.2,0.1-0.4,0.1-0.6c0-0.2-0.4-0.5-0.3-0.7
			c0-0.2-0.1-0.4,0-0.6c0-0.2,0.4-0.4,0.4-0.6c0-0.2,0.1-0.4,0.2-0.6c0-0.2,0-0.5,0-0.6c0-0.3,0.1-0.5,0.1-0.6
			c0-0.1,0.3-0.2,0.4-0.5c0.1-0.2-0.4-0.6-0.4-0.8c0.1-0.2,0.3-0.3,0.4-0.5c0.1-0.2,0.5-0.2,0.6-0.4c0.1-0.2,0.3-0.3,0.4-0.5
			c0.1-0.2,0.1-0.4,0.2-0.6c0.1-0.2-0.2-0.5-0.1-0.7c0.1-0.2,0.2-0.3,0.3-0.5c0.1-0.2,0.2-0.4,0.3-0.5c0.1-0.2-0.1-0.5,0-0.6
			c0.1-0.2,0-0.4,0-0.6c0.1-0.2-0.1-0.5,0-0.7c0.1-0.2,0.6-0.2,0.7-0.4c0.1-0.2,0.3-0.3,0.4-0.5c0.1-0.2-0.2-0.5-0.1-0.7
			c0.1-0.2,0.2-0.3,0.3-0.5c0.1-0.2,0.1-0.4,0.1-0.6c0.1-0.2,0.4-0.3,0.4-0.5c0.1-0.2-0.2-0.5-0.1-0.7c0.1-0.2-0.2-0.5-0.1-0.7
			c0.1-0.2,0.3-0.3,0.3-0.5c0.1-0.2,0.6-0.2,0.6-0.4c0.1-0.2,0-0.4,0-0.6c0.1-0.2,0.2-0.4,0.2-0.6c0.1-0.2,0.4-0.3,0.5-0.5
			c0.1-0.2-0.5-0.6-0.4-0.8c0.1-0.2,0.1-0.4,0.2-0.6c0.1-0.2,0.7-0.2,0.7-0.4c0.1-0.2-0.1-0.5,0-0.7c0.1-0.2,0.2-0.4,0.3-0.6
			c0.1-0.2,0.2-0.4,0.3-0.6c0.1-0.2-0.1-0.5-0.1-0.7c0.1-0.2-0.1-0.5-0.1-0.7c0.1-0.2,0.3-0.4,0.3-0.5c0.1-0.2,0.4-0.3,0.4-0.5
			c0.1-0.2,0.2-0.4,0.3-0.6c0-0.2-0.3-0.5-0.3-0.7c0-0.2,0.5-0.3,0.5-0.5c0-0.2,0-0.4,0-0.6c0-0.2-0.1-0.4-0.1-0.6
			c0-0.2,0.3-0.4,0.3-0.6c0-0.2-0.3-0.5-0.1-0.7c0.1-0.1,0.2,0,0.4,0.1c0.2,0.1,0.3,0.2,0.4,0.1c0.2-0.1,0.3-0.3,0.5-0.4
			c0.2,0,0.4-0.1,0.6-0.1c0.2,0,0.4-0.4,0.6-0.4c0.2,0,0.4,0,0.6-0.1c0.1,0,0.2,0,0.3,0.1c0.1,0.1,0.2,0.1,0.3,0.1
			c0.2,0,0.4-0.1,0.6-0.1c0.2,0,0.4-0.2,0.6-0.2c0.1,0,0.2,0.2,0.3,0.3c0.1,0.2,0.2,0.3,0.3,0.3c0.2,0,0.4-0.5,0.6-0.5
			c0.2,0,0.4,0.3,0.6,0.3c0.1,0,0.2,0,0.3,0c0.1,0,0.2,0,0.3,0c0.2,0,0.4,0.1,0.6,0.1c0.1,0,0.2-0.1,0.3-0.1
			c0.1-0.1,0.2-0.1,0.3-0.1c0.2,0,0.4,0.3,0.6,0.3c0.1,0,0.2-0.1,0.3-0.1c0.1-0.1,0.2-0.1,0.3-0.1c0.1,0,0.2-0.1,0.3-0.1
			c0.1-0.1,0.2-0.2,0.3-0.2c0.1,0,0.2,0,0.3-0.1C113.9,275.4,114,275.4,114.1,275.4C114.1,275.4,114.1,275.4,114.1,275.4"/>
	</defs>
	<clipPath id="SVGID_5_">
		<use xlink:href="#SVGID_4_"  style="overflow:visible;"/>
	</clipPath>
	<path class="st7" d="M84.1,308.1c6.2-4.3,17.8,5.1,31.5-1.8c10.3-5.2,16.4,5.3,32.8,5.1c9.7-0.1,27-9.3,39.7-4.2
		c13.7,5.5,27.3-2.5,33.5,1.8v7.7c-6.2-4.3-19.7,2-33.5-3.5c-12.7-5.1-30,2.4-39.7,2.5c-16.4,0.2-22.5-8.6-32.8-3.4
		c-13.6,6.9-25.3-0.8-31.5,3.5V308.1z"/>
</g>
<g class="st8">
	<path class="st9" d="M192.8,231.6l6.3-0.7c0,0,0.3,0,0.4,1.5c-17.3,9-29.7,11.6-46.7,11.6c-17,0-34.9-5.3-45.9-13
		c0.5-1.8,0.5-1.5,0.5-1.5l2,0.7c12.9,4,26.6,7.3,41.3,7.4C165.8,237.6,179.9,235.6,192.8,231.6"/>
</g>
<g>
	<defs>
		<path id="XMLID_21_" d="M233.9,204.6c0,0,10.3-1.3,6.2,8c-4.1,9.3-14.2,8.5-17.1,5C220.1,214,233.9,204.6,233.9,204.6"/>
	</defs>
	
		<linearGradient id="XMLID_11_" gradientUnits="userSpaceOnUse" x1="250.1315" y1="192.5403" x2="242.4831" y2="203.8809" gradientTransform="matrix(0.986 0.1669 -0.1669 0.986 23.5364 -24.4512)">
		<stop  offset="0" style="stop-color:#F7BDBE"/>
		<stop  offset="1" style="stop-color:#F7E7D6"/>
	</linearGradient>
	<use xlink:href="#XMLID_21_"  style="overflow:visible;fill:url(#XMLID_11_);"/>
	<clipPath id="XMLID_12_">
		<use xlink:href="#XMLID_21_"  style="overflow:visible;"/>
	</clipPath>
</g>
<g>
	<defs>
		<path id="XMLID_20_" d="M55.8,180c0,0-9.6-4-8.2,6c1.4,10,11.4,12,15.1,9.4C66.5,192.8,55.8,180,55.8,180"/>
	</defs>
	
		<linearGradient id="XMLID_13_" gradientUnits="userSpaceOnUse" x1="59.3762" y1="197.5126" x2="71.2444" y2="209.9082" gradientTransform="matrix(0.986 0.1669 -0.1669 0.986 23.5364 -24.4512)">
		<stop  offset="0" style="stop-color:#F7BDBE"/>
		<stop  offset="1" style="stop-color:#F7E7D6"/>
	</linearGradient>
	<use xlink:href="#XMLID_20_"  style="overflow:visible;fill:url(#XMLID_13_);"/>
	<clipPath id="XMLID_14_">
		<use xlink:href="#XMLID_20_"  style="overflow:visible;"/>
	</clipPath>
</g>
<path id="XMLID_19_" class="st10" d="M161.8,78.4c-54-7.4-99.5,23.9-109.1,68.6c-2.5,11.8-2.2,22.6,0.4,32.3l2,0.6
	c0.4,0.5,1.5,5.1,2.2,6.6c1.2,2.5,2.8,6.8,4.9,11.9c15,21.5,43.9,35.1,77.6,39.7c36,5,67.5-1,87.3-20c2.8-3.3,4.9-6.8,5.9-10.3
	c0.4-1.3,1.2-2.3,1.8-2.8c0.5-0.4,1.9,0.2,2.8,0c5.3-8.7,9-19,10.7-31.2C254.5,128.7,215.8,85.9,161.8,78.4z"/>
<g id="XMLID_17_">
	<polygon class="st11" points="267.4,153.4 267.1,152.9 266.4,152.9 266,152.5 265.8,152 265.8,151.6 264.9,151.5 264.5,151.2 
		263.7,151.3 263.9,150.2 263.1,150.4 262.4,150 261.8,150.7 262.4,150 262.2,149.3 261.3,149.5 261.1,148.5 260.8,148.7 260,149.3 
		260.5,148.4 260.2,147.9 259.3,147.8 258.7,147.7 258.1,147.6 257.8,147 257.4,146.5 256.7,146.4 256.6,145.3 255.5,145.9 
		255.5,144.9 255,144.5 254.3,144.4 254,143.8 253.6,143.1 252.9,143.2 252.5,143.8 252.2,143.2 251.4,143 251.4,142.3 251.5,141.8 
		251,141.6 250.1,141.7 250.3,141.2 250,140.9 249.7,141.2 249.1,141.2 248.7,140.6 247.7,140.9 247.2,140.3 247.2,139.6 
		247.1,138.6 246.3,138.6 245.5,138.7 245.2,138.2 244.6,138 243.7,138 243.8,137 243.2,136.7 242.8,136.2 242.4,135.7 241.7,135.7 
		241.2,135.3 240.9,134.5 240.4,134.8 239.9,135 239.8,134 239,134 238.8,133.5 238.1,133.4 237.1,133.5 237.5,132.7 237.6,131.9 
		237.1,132.5 236.5,132.6 235.7,132.2 235.8,131.1 235,131.3 234.8,130.4 233.8,130.7 233.8,130.1 234,129.6 233.4,128.9 
		232.6,129.8 231.8,129.4 231.5,128.8 231.6,128.2 231.8,127.1 230.8,127.6 230.2,127.7 229.9,127.8 229.3,127.3 229,126.9 
		228.9,126.1 228.2,126 227.6,125.6 227.1,125.2 226.1,125.6 226.4,124.8 226.2,124.7 225.5,124.4 225.1,123.8 224.7,123.4 
		224.1,123 224,122.1 223,122.2 222.4,122.3 222.3,121.5 221.5,121.4 221.1,121 220.3,121.1 219.8,120.7 219.4,120.1 218.9,119.8 
		218.5,119.2 218.3,118.6 217.4,118.5 216.8,118.4 216.6,117.7 216.1,117.3 215.6,117 215.1,116.6 214.6,116.2 214.3,115.8 
		213.4,115.8 213.2,115 212.5,115.1 211.7,115 211.2,114.6 210.8,114.3 210.5,114.6 210.5,114.1 210.8,113.4 210.5,112.4 
		209.8,112.7 209.5,112.9 209.1,112.3 208.2,112.4 208.3,112 208.1,111.7 207.9,111.8 207.1,112.2 207,111.2 206.4,111.1 
		206.7,110.4 206,110.4 205.6,109.7 204.7,110 205.1,109.5 204.6,109.4 204.4,109.6 203.7,109.2 202.7,109.5 203.3,108.8 
		203.1,107.9 202.5,108.2 202,108.3 201.7,107.9 200.9,107.7 200.3,107.9 199.7,107.3 199.9,106.3 199.2,106.1 199,105.7 199,105.2 
		198.4,105 197.8,104.8 197.4,105.1 196.9,105.1 196.5,104.4 196.1,103.8 196,103.1 195,103.5 194.6,102.8 194.3,102.2 193.8,102 
		193.3,101.6 192.5,101.5 191.8,101.5 191.7,100.7 191,100.5 190.2,100.3 190.2,99.5 189.4,99.4 188.7,99.5 188.9,98.5 188.3,97.9 
		187.8,97.5 187.3,97 186.7,96.9 186.2,96.6 185.8,96 185.5,95.1 184.6,96 183.7,95.8 183.6,94.9 183.2,94.3 182.6,94.2 181.9,94 
		181.7,93.6 181.4,92.6 180.5,92.7 180.2,92.1 179.6,91.9 178.9,91.8 179,90.8 178,91.1 177.5,90.6 176.6,91 176,90.4 175.6,90 
		175,89.8 174.6,89.2 174.7,88.6 174.7,88 174.2,88.5 173.4,88.9 173.4,87.7 172.8,87.6 172.2,87.3 171.6,87.1 171.2,86.8 
		170.5,86.7 170.1,86.1 169.2,86.5 168.9,85.9 168.3,85.5 167.6,85.1 167,85.4 166.8,84.4 165.9,84.9 165.4,84.5 164.7,84.5 
		164.4,83.6 163.7,83.7 164,83 163.5,82.7 162.8,82.9 161.9,83 162,82.3 162.1,81.5 161.3,81.9 160.7,82.1 160.2,82.7 159.7,82 
		160.2,81.3 159.6,81 158.8,81.1 158.4,80.7 157.5,81.1 157.1,80.1 156.9,79.2 156.1,79.9 155.4,79.8 154.9,79.1 154.5,78.8 
		154,78.1 153.2,78.7 153,77.8 152.6,77.2 151.9,77 151.1,77.1 150.4,77.2 149.6,77.4 149.4,76.5 148.9,76.4 148.1,76.5 148.1,75.5 
		147.4,75.2 146.7,75.2 146.4,74.4 145.7,74.2 145.4,74.6 145,74.4 144.6,73.8 144.5,73.7 144.2,73.3 143.7,73.3 142.8,73.7 
		142.6,72.8 142.2,72.1 141.5,71.9 140.9,71.6 140.3,71.7 139.6,71.5 139.3,70.9 138.8,70.3 138.1,70.5 137.8,70.9 137.3,70.8 
		136.7,70.4 137,69.8 136.4,69.7 135.7,69.6 135.3,69.1 134.5,69.1 133.9,69.1 133.4,68.7 133.1,68.1 132.3,68.3 132.1,67.7 
		132.1,67.1 131.8,68 131.2,67.8 130.8,67.2 130.3,66.7 129.7,66.6 129,66.5 128.4,66.3 128.1,65.7 127.7,65.3 127.6,63.9 127,64.4 
		126.5,64.8 126,64.3 125.7,64.5 125.1,64.5 124.4,64.5 124.5,63.7 123.9,63 123.5,63 122.9,63.7 122.5,63 121.9,62.8 121.4,62.4 
		120.8,62.3 120.2,62 119.8,61.4 119.1,61.8 118.3,61.5 118.3,60.4 117.6,60.4 117.3,59.7 116.3,60.3 116,59.5 115.7,59.2 
		115.3,59.6 114.8,59.3 114,59.3 113.7,58.6 113.4,58 112.7,58 112.1,57.7 111.5,57.2 111,57.6 110.4,58.1 110.9,57.3 110.3,56.9 
		110,56.7 109.3,56.4 108.9,57.4 108.5,56.5 107.9,56.5 107.4,56 107.1,55.4 106.5,55.2 105.9,55 105.5,54.4 104.8,54.4 104.1,54.3 
		103.8,53.6 103.5,52.9 103.2,53.5 102.2,54.2 102.5,53.1 102.1,52.7 101.7,52.3 101.2,52.1 100.5,52 100.1,51.4 99.2,51.7 
		99.5,51.2 99.1,50.8 98.1,51.3 97.7,50.5 97.2,50.7 96.6,50.1 95.9,50.1 95.5,49.4 94.9,49.2 94.7,48.1 93.8,48.9 93.3,48.7 
		92.8,47.9 92.4,47.5 91.7,47.4 90.9,47.1 90.3,47.7 89.7,47.4 89.6,46.8 89.4,46.5 88.7,46.6 88.4,46.1 88.6,45.5 88.1,46.2 
		87.3,46.6 87,45.8 86.6,45.2 86.2,44.8 85.9,44.2 85.4,43.7 84.7,43.5 84.2,43.5 83.7,44 83.2,43.4 82.7,42.7 82,43.4 81.5,42.8 
		81,42.5 80.3,42.7 79.8,42.2 79.5,42.6 78.6,42.4 78.6,43.3 77.7,43.2 78.2,44 78.2,44.7 77.4,44.4 77.1,44.4 77.3,44.5 77,45.1 
		76.3,45.1 75.4,45.3 74.8,45.9 75,46.6 74.7,46.9 74,47.2 73.8,47.9 73.1,48.1 73.1,48.8 73.1,49 72.6,49.2 72,49.8 71.5,49.9 
		71.1,50.4 71.3,50.8 71.4,51.6 70.3,51.5 69.9,51.9 69.8,52.5 69,52.8 69,53.5 68.8,54.2 67.8,54 67.8,54.9 67.2,55.2 67.2,56 
		66.1,55.9 66.3,56.9 66.2,57.5 65.7,57.9 65.5,58.5 64.6,58.5 64.3,59.2 63.9,59.5 63.4,59.3 63,59.7 63,60.4 63.1,61.3 61.9,61.1 
		62.2,62.2 61.3,62.2 61.8,63.2 60.9,63.4 60.4,63.8 59.9,64.3 59.6,64.7 59.5,65.5 58.9,65.8 58.7,66.4 58.1,66.9 58.2,67.5 
		57.8,68 57.4,68.5 57.1,69 56.4,69.3 55.7,69.6 55.7,70.4 55.9,71.2 55.3,71.5 55.2,72 54.4,72.3 54.2,72.9 54.1,73.5 54.1,74.2 
		53.4,74.6 53.4,75.3 52.6,75.6 52.4,76.2 51.5,76.4 51.8,76.9 52.2,77.4 52.2,78.3 51.4,77.9 50.7,78 51.2,79 50.6,79.4 50.1,79.9 
		50.1,80.5 50.1,81.2 49.1,81.4 49.7,82.4 48.7,82.6 49.4,83.6 48.5,83.6 48.1,83.6 48.5,84.4 48,84.9 47.7,85.5 47.4,86.1 
		47.4,86.6 47.2,87.3 47.3,88.2 46.4,87.4 45.8,87.9 45.6,88.6 46.1,88.9 46.1,89.6 44.9,89.6 45.1,90.2 45.2,91.1 45.3,91.9 
		44.6,92.4 43.9,91.9 44.3,92.6 44.9,93.7 43.4,93.6 43.7,94.5 43.8,94.8 44.1,95.2 43.6,95.6 42.9,95.5 43.4,96 43.9,96.5 43,96.7 
		42.3,96.6 42,97.1 41.5,97.7 42.1,97.9 42.4,98.5 42.1,99.1 42.1,99.8 41.4,99.6 41.6,100.3 42.6,101 41.8,101.5 41.2,102.1 
		41.7,102.4 41.6,103 42.2,103.7 41.1,103.8 40.8,103.8 40.7,104.4 40.8,104.7 41.5,105.3 40.8,105.5 40.3,105.6 40.4,106.3 
		40.1,106.9 40.4,107.6 39.2,107.9 40,108.2 40.1,108.8 40.2,109.4 40.1,110.1 39.3,110.5 39.5,111.2 38.8,111.7 39.3,112.4 
		38.6,112.8 39.2,113.3 39.7,113.7 39.8,114.3 39.7,114.9 38.7,115.2 38.4,116 39.1,116 38.8,116.7 39.1,117.3 39.2,117.9 
		39.2,118.4 38.2,118.5 39,119.2 39.2,119.7 39.1,120.4 38.9,120.9 38.5,121.6 39.3,122.2 38.9,122.9 39,123.5 38.6,124 38.5,124.1 
		38.9,124.7 38,125.3 38.7,125.9 39.2,126.1 38.7,126.8 39,127.3 38.7,128 38.4,128.2 38.9,128.5 39.1,128.8 38.8,129.2 38.6,129.7 
		39.3,130.6 39,131.5 38.7,132.4 38.5,133.2 38.7,134.1 38.1,135 39,135.8 39.2,136.7 38.8,137.6 39.3,138.4 39.4,139.3 39.7,140.1 
		39.3,141 40.1,141.8 39.8,142.7 39.8,143.6 40.1,144.4 40,145.3 40.8,146 40.5,146.6 39.8,147.1 40.6,147.3 41.1,147.7 40.9,148.7 
		41.4,149.2 42.3,149.5 43,150 43.5,150.6 44.1,151.2 44.4,152 45.4,152.2 45.6,153.2 45.9,154.1 46.9,154.1 47.4,154.8 48.2,155.2 
		48.3,156.1 48.5,157.1 49.3,156.8 49.7,157 50.4,157.3 49.8,157.9 50.8,158.1 51.4,158.7 51.9,159.3 52.3,160.1 53.3,160.2 
		53.4,161.2 54.4,161.4 54.7,162.2 55.3,162.2 56,161.9 55.7,162.7 56,163.2 56.4,163.7 56.9,163.4 57.6,163.8 58.1,164.4 
		58.5,165.1 59.3,165.5 59.9,166 60.7,166.2 61.6,166.8 61.7,167.8 62.3,168.2 62.8,168.7 63.8,168.8 64.2,169.6 65.2,169.7 
		65.7,170.4 66.1,171.1 67,171.3 67.5,171.9 68.3,172.2 68.7,172.9 69.4,173.4 70,174 70.4,174.7 71.2,175 71.6,175.2 72.3,174.9 
		73,175.6 73.3,176.3 73.7,177 74.4,177.5 75.4,177.5 76.1,177.9 76.5,178.6 76.9,178.2 77.5,178.6 78,179.3 78.4,180.1 79,180.7 
		79.8,180.9 80.3,181.6 81.2,181.8 81.7,182.4 82.3,183 83.2,183 84.3,182.7 85,183.2 85.5,184 86.1,184.6 87,184.5 87.6,185.1 
		88.4,185.4 88.9,186.2 89.7,186.4 90.8,186 91.1,187.1 91.7,187.6 92.5,188 93.5,187.8 94,188.5 94.7,188.8 95.3,189.5 96.1,189.7 
		96.6,190.5 97.6,190.1 98.2,190.7 99,190.9 99.5,191.8 100.3,192 101.1,192.2 101.8,192.6 102.3,192.5 103,192 103.3,193.1 
		104.1,193.4 104.7,194.1 105.7,193.6 106.3,194.3 107.1,194.6 107.8,194.9 108.6,195.5 109.1,195.2 109.5,194.8 110.2,195.1 
		110.1,195.8 110.9,196 111.7,196.3 112.6,195.9 112.8,196.3 113.2,196.8 114.2,196.3 115.2,196.5 115.9,196.9 116.8,197.4 
		117.8,197 118.3,198 119.3,197.8 120.1,198 121,198.5 121.6,199.3 122.5,199.4 123.5,199.6 124.4,198.8 125.3,199.2 125.9,200.1 
		126.8,199.6 127.8,199.8 128,200.2 128.4,201 129.4,200.8 130.3,200.7 131.1,201.1 131.9,201.6 132.3,201.1 133,200.8 133.7,201.7 
		134.7,201 135,201.7 135.4,202.1 136.2,202.3 137.1,202.4 138,202.4 139,202.4 139.4,203.6 140.4,203 141.4,203.2 142.1,203.6 
		143.1,203.7 143.9,204.2 144.7,204.3 145.6,204.5 145.9,204 146.5,204.5 147.2,204.6 148.1,205.2 149.1,204.8 150,205.6 
		150.9,204.8 151.6,205.6 152.6,205.1 153.4,205.8 154.3,205.7 154.7,205.6 155.2,205.3 155.2,206.1 156,206.1 156.9,206.2 
		157.7,206.5 158.7,206.4 159.6,205.9 160.3,206.6 161.2,206.5 162,206.9 163,206.7 163.8,206.7 164.7,207.1 165.6,206.3 
		166.4,207.3 167.3,206.7 168.2,206.8 169.1,206.8 170,206.9 170.8,206.7 171.7,206.6 172.6,207.1 173.5,207.2 174.3,207.5 
		175.2,207.2 176.1,207 176.9,207.7 177.5,207.3 177.9,207.1 178.7,207.3 179.6,207.7 180.4,207.8 181.3,207.5 182.2,208.2 
		183.1,207.7 183.9,207.8 184.8,207.3 185.7,207.4 186.6,207.5 187.3,206.9 188.3,206.7 189.2,207 190,206.9 190.9,207 191.9,206.8 
		192.7,207 193.5,206.4 194.4,207 194.8,206.6 195.2,206.1 196.1,206.5 197,206.5 198,206.8 198.7,206.1 199.6,206 200.5,206.1 
		201.5,206.1 202.3,205.6 203.2,205.7 203.7,204.5 204.8,205 205.5,204.5 206.5,205 207.4,204.5 208,203.8 208.9,203.9 209.9,203.8 
		209.9,203.5 210.7,203.3 211.6,203.4 212.1,203.6 212.6,204.1 213.4,203.5 214.2,203 215,202.9 215.9,202.9 216.7,202.4 
		217.6,202.2 218.4,201.9 219.3,201.8 220,201.2 220.6,200.4 221.7,200.6 222.7,200.5 223.2,199.7 224.1,199.9 224.9,199.5 
		225.7,198.8 226.7,199.2 227.2,198.2 228.2,198.4 229.2,198.2 229.1,197.5 229.5,196.9 230.5,196.9 231.2,196.4 231.9,195.9 
		232.8,195.6 233.3,194.9 234.2,194.6 235,194.2 235.8,193.9 236.8,194 237.5,193.4 238.4,193.3 239.1,192.7 240.1,192.5 
		240.5,192.3 240.7,191.9 241.5,191.5 242.3,191.2 243.1,190.9 244,190.7 244.6,190 245.4,189.6 246.5,189.5 246.6,188.2 
		247.5,188.1 247.7,187.9 247.3,186.9 248.3,186.5 248.4,185.5 248.9,184.7 248.7,183.7 249.5,183 249.9,182.9 250.3,182.5 
		250.6,181.6 250.7,180.7 250.7,179.8 251.7,179.2 251.9,178.3 251.8,177.4 252.2,176.6 252.5,175.8 252.7,174.9 252.9,174 
		253,173.1 252.9,172.9 253.7,172.5 253.9,171.6 253.8,171.4 254.4,170.9 254.9,170.8 254.9,169.9 255.6,169.5 256.2,169.4 
		256.1,168.6 256.7,168.3 257.4,168.1 257.8,167.6 257.5,167 257.1,166.3 258.1,166.3 257.7,165.2 259,165.4 259.1,164.7 
		259.7,164.7 260.2,164 260.4,163.4 260.4,162.6 261.2,162.5 261.1,162 260.9,161.6 261.6,161.4 261.8,160.8 261.8,160 262.8,160 
		262.8,159.2 263.5,158.7 264.5,158.9 264.4,158 265.1,157.9 265.1,157.2 265,156.3 265.3,155.8 265.7,155.2 266.2,155 266.8,154.4 
		267.3,154.1 	"/>
</g>
<g>
	<defs>
		<polygon id="XMLID_16_" points="248.5,186.7 247.1,186.6 247,187 246.4,187.6 245.6,187.7 245.1,188.3 244.6,188.5 243.9,188.7 
			242.8,189.6 241.6,190.1 240.9,190.5 240.4,190.9 239.9,191 238.6,191.9 237.4,192.4 236.8,192.6 235,193.7 234.4,193.7 
			233.5,194 233,194.7 232.5,194.9 231.9,195 231.1,195.4 230.7,195.7 229.8,195.7 229.3,196.3 228.6,196.4 228.1,196.9 227.4,197 
			226.8,197.5 226.3,197.7 225.7,197.8 225,198.2 224.4,198.3 223,199.1 222.6,199.4 221.9,199.5 221.3,199.8 220.7,199.9 
			219.9,200.3 219.3,200.4 218.8,200.6 218,200.5 217.3,200.8 216.7,201.2 216,201.4 215.4,201.6 214.7,201.6 214.1,201.9 
			213.4,201.9 212.7,202.4 212.2,202.5 211.4,202.5 210.8,202.9 210.2,202.9 209.6,202.8 208.7,203 208.1,203.3 207.4,203.2 
			206.8,203.6 206.2,203.6 205.4,203.7 204.7,203.9 204.1,204 203.5,204.1 202.8,204.4 202.1,204.2 201.4,204.5 200.8,204.5 
			200,204.7 199.4,204.9 198.8,204.8 198.1,204.9 197.4,204.9 195.9,205 195.3,205.4 194.7,205.4 194,205.4 193.3,205.4 
			192.5,205.6 192,205.7 191.3,205.5 190.5,205.7 189.9,205.9 188.5,205.9 187.9,205.9 187.2,206.1 186.5,205.9 185.9,206.2 
			185.2,205.8 184.5,206.2 183.9,206 183.1,205.9 182.4,205.9 181.7,206 181.1,206.1 179.8,206.1 179,205.9 178.3,206.1 
			177.7,206.1 176.9,206.1 176.3,206.2 175,205.9 174.2,206.1 173.7,206 172.9,205.8 171.6,206 170.9,205.8 170.1,205.7 
			169.4,205.9 168.9,205.8 168.2,205.6 167.4,205.6 166.1,205.7 165.5,205.6 164.9,205.2 164.1,205.2 163.3,205.4 162.8,205.4 
			162.1,205.2 161.4,205.1 160.7,205.2 160,205 159.4,205 158.8,204.7 157.3,204.6 156.7,204.5 155.3,204.1 154.5,204.2 154,204.3 
			153.3,203.8 152.6,204 152,203.7 151.2,203.8 150.6,203.8 150,203.5 148.6,203.4 147.9,203.3 147.3,203 146.6,203 145.9,202.7 
			145.1,202.8 144.5,202.6 144,202.6 143.3,202.1 142.4,202.2 141.9,202.2 141.4,201.7 139.9,201.4 139.1,201.4 138.5,201.5 
			137.2,200.9 136.5,201.1 136,200.7 134.5,200.7 133.9,200.2 133.2,200.3 132.6,199.9 131.9,200 131.4,199.7 130.6,199.4 
			129.9,199.5 129.3,199.1 128.6,199 127.9,198.8 127.3,198.8 126.6,198.4 125.9,198.5 125.4,198 124.6,197.9 123.9,198 
			123.5,197.6 122.6,197.4 121.9,197.4 121.3,197.2 120.6,197 119.9,197 119.3,196.7 118.7,196.7 118.1,196.1 117.3,196.2 
			116.8,195.8 116,195.8 115.4,195.4 114.6,195.5 114,195.3 113.4,195.2 112.9,194.8 112.1,194.4 111.4,194.5 110.9,194.1 
			110.2,194 109.6,193.7 108.8,193.5 108.2,193.4 107,193 106.4,192.4 105,192.2 103.8,191.6 103.1,191.5 102.6,191.1 101.8,190.9 
			101.2,190.7 100.5,190.4 99.9,190.3 99.3,189.9 98.1,189.4 97.6,189 96.9,188.8 96.3,188.4 95.6,188.1 95,187.9 94.4,187.5 
			93.8,187.3 93.3,187 92.6,186.5 91.9,186.4 91.5,186 91,185.6 90.3,185.2 89.7,184.8 88.9,184.8 88.4,184.3 87.7,184.1 
			87.2,183.9 86.7,183.5 86.1,182.9 85.4,182.8 84.9,182.2 84.2,182 83.8,181.7 83.2,181 82.4,181 81.4,180.1 80.7,179.9 
			80.3,179.5 79.7,179 79,178.7 78.4,178.5 78,177.8 77.2,177.7 76.8,177.4 76.1,177 75.7,176.5 75,176.2 74.6,175.7 73.9,175.3 
			73.4,175 72.9,174.4 72.2,174.1 71.6,173.9 71.2,173.4 70.6,173 70.2,172.4 69.3,172.2 68.9,171.9 68.5,171.4 67.8,170.8 
			66.7,170.2 66.2,169.7 65.6,169.3 65.1,169 64.6,168.5 63.9,168.1 63.5,167.8 63.1,167.2 62.5,166.7 62,166.2 61.3,165.9 
			60.8,165.5 59.8,164.6 59.2,164.2 58.2,163.4 57.9,162.7 56.6,162 56.2,161.5 55.7,160.9 55,160.6 54.5,160.3 54.1,159.9 
			53.8,159.2 52.6,158.3 51.9,157.9 51.5,157.6 51.1,156.9 50.6,156.6 50.3,155.9 49.5,155.6 48.7,154.4 48,154.3 47.7,153.7 
			45.6,152 45.4,151.2 44.8,150.8 44.4,150.2 43.6,149.9 43.2,149.6 42.9,149.1 42.6,148.3 42,147.8 40.1,146.9 41.1,149.2 
			41.5,151.1 41.6,151.9 42,152.5 42.1,153.8 42.4,154.6 42.9,155.2 42.9,155.8 43,156.5 44,158.4 44.3,159 44.3,159.6 44.8,161 
			45,161.7 45.7,162.9 46.3,164.2 46.4,164.9 46.9,165.4 47,166.2 47.6,166.7 47.9,167.2 48.1,167.8 48.3,168.5 48.7,169.3 
			49.3,169.7 49.5,170.2 49.9,170.9 50.2,171.6 50.7,172.1 51.5,173.1 51.6,173.7 52,174.5 52.5,175.1 53.1,175.5 53.3,176.1 
			53.9,176.6 54.1,177.1 54.7,177.7 55,178.3 56.1,179.2 56.3,179.9 56.9,180.4 57.3,180.8 57.6,181.4 58.1,182 58.7,182.5 
			59.1,183.1 59.7,183.4 60,183.9 60.6,184.5 61,185 61.5,185.6 62.2,185.9 62.5,186.3 63,187 63.4,187.5 64.1,187.9 65,189 
			65.6,189.3 66.4,190.4 66.9,191 67.6,191.2 68.2,191.6 69.6,193.1 70.2,193.5 70.7,194.1 71.4,194.3 71.8,194.7 72.2,195.2 
			73.4,196.3 74.6,196.9 75,197.4 75.8,197.8 76.5,197.9 76.9,198.2 77.4,198.9 78.2,199 78.6,199.5 79.9,200.1 80.3,200.6 81,201 
			81.6,201.2 82.1,201.7 82.9,201.9 83.4,202.2 83.9,202.8 84.7,202.9 85.1,203.2 85.6,203.8 87,204.4 87.7,204.6 88.1,204.9 
			88.7,205.5 89.4,205.7 90,206.1 90.7,206.4 91.2,206.5 91.7,207 92.5,207.3 93.2,207.4 93.8,207.8 94.3,208 95.5,208.6 96,209.1 
			96.8,209.4 97.4,209.8 98.1,209.8 98.6,210.3 99.4,210.3 99.7,210.7 100.6,211.1 101.3,211.1 101.8,211.5 102.5,211.6 103,212.2 
			103.9,212.1 105,212.6 105.6,213.1 106.3,213.2 106.9,213.7 107.6,213.6 108.1,214.2 109.5,214.7 110.7,215 111.4,215.3 
			112.1,215.4 112.8,215.7 113.4,215.7 114,216.3 114.7,216.2 115.3,216.7 116,216.6 116.6,217.1 117.4,217.1 117.9,217.3 
			118.6,217.7 119.3,217.9 119.9,218 121.2,218.4 122,218.6 122.7,218.5 123.3,218.8 123.9,218.9 124.6,219.3 125.2,219.3 
			125.8,219.8 126.7,219.6 127.1,219.8 127.9,220.3 128.7,220.2 129.3,220.3 130,220.4 131.3,220.8 131.9,220.8 132.5,221.2 
			133.3,221.2 133.9,221.4 134.6,221.7 135.3,221.6 135.9,221.9 136.7,222 137.3,222 138,222.2 139.3,222.4 140,222.7 141.3,222.7 
			141.9,223.1 142.8,223.2 143.5,223.1 144,223.2 145.4,223.6 146.2,223.7 146.8,223.6 147.5,223.8 148.1,223.7 148.8,224.1 
			150.2,224 150.9,224.2 151.6,224.2 152.2,224.3 152.8,224.6 153.7,224.7 154.4,224.5 155.7,224.7 156.3,224.7 157,224.8 
			158.3,224.8 159.1,225.2 159.9,224.9 160.4,224.9 161.1,225.2 161.8,225.1 163.2,225.5 164,225.1 164.5,225.2 165.2,225.5 
			166,225.4 166.7,225.3 167.3,225.2 167.9,225.3 168.7,225.7 169.4,225.4 170.1,225.4 170.7,225.3 171.4,225.6 172.1,225.5 
			173.5,225.7 174.2,225.4 174.8,225.7 175.6,225.7 176.2,225.7 176.9,225.7 177.6,225.4 178.3,225.7 179,225.5 179.6,225.6 
			180.4,225.5 181.2,225.6 181.8,225.2 182.5,225.2 183.1,225.1 183.7,225.1 184.5,225.4 185.3,225.1 185.9,224.9 186.5,224.9 
			187.2,225 187.9,225 189.2,224.6 189.9,224.8 190.8,224.8 191.5,224.4 192,224.3 192.6,224.4 193.4,224.3 194.1,224 194.7,224.2 
			195.5,224.1 196.2,223.8 196.8,223.7 197.5,223.5 198.2,223.5 198.8,223.2 199.5,223.3 200.2,222.9 200.8,222.8 201.6,222.8 
			202.2,222.3 202.8,222.3 203.6,222.1 204.2,221.8 204.8,221.7 206.1,221.3 206.8,221.3 207.6,221 208.2,220.8 208.8,220.8 
			209.6,220.4 210.1,220.1 210.7,220 211.5,219.7 212.1,219.3 212.7,219.2 213.3,218.8 214.2,218.9 214.7,218.3 215.2,218.3 
			216.1,217.9 217.2,217.2 217.7,217 218.5,216.9 219.1,216.7 219.8,216.3 220.5,216 220.9,215.4 221.5,215.2 222.1,214.8 
			222.9,214.8 223.4,214.1 224.5,213.5 225.1,213.4 225.9,213 226.3,212.3 226.8,212 227.6,211.9 228.1,211.3 228.7,211.1 
			229.3,210.6 230.3,209.8 231,209.4 231.6,209 232.1,208.5 232.5,208.1 233.1,207.9 233.7,207.3 234.2,206.7 234.6,206.3 
			235.8,205.6 236.3,204.9 236.8,204.6 237.2,204 237.7,203.6 238.3,203 238.6,202.5 239.1,202 239.9,200.9 240.6,200.5 
			240.8,199.8 241.2,199.4 242,198.9 242.1,198 242.4,197.7 243,197.2 243.6,195.9 244,195.3 244.2,194.6 245.4,192.9 245.6,192.2 
			246,191.7 246.2,191 246.5,190.4 247,189.8 247.1,189.1 247.5,188.6 247.7,187.8 247.8,187.4 		"/>
	</defs>
	<use xlink:href="#XMLID_16_"  style="overflow:visible;fill:#005944;"/>
	<clipPath id="XMLID_15_">
		<use xlink:href="#XMLID_16_"  style="overflow:visible;"/>
	</clipPath>
</g>
<g>
	<path class="st6" d="M152.9,148.4C152.8,148.3,152.8,148.3,152.9,148.4L152.9,148.4z"/>
	<path class="st6" d="M116.9,125.1C116.9,125.1,116.9,125.1,116.9,125.1C116.9,125.2,116.9,125.2,116.9,125.1
		C116.9,125.2,116.9,125.2,116.9,125.1C116.9,125.2,116.9,125.2,116.9,125.1z"/>
	<g>
		<defs>
			<path id="XMLID_9_" d="M275.7,147.6c0.5-0.5,0.8-1.1,0.8-1.8c0.4-0.6,0.7-1.3,0.7-2.1c0,0,0-0.1,0-0.1c0.1-0.2,0.1-0.3,0.2-0.5
				c0.1-0.5,0-1-0.2-1.5c0-0.2,0-0.4,0-0.6c0.2-0.1,0.4-0.2,0.5-0.4c0-0.1-0.1-0.2-0.2-0.3c0.1-0.2,0.1-0.4,0.1-0.6
				c0.1-0.1,0.2-0.2,0.2-0.3c0-0.2,0-0.4,0-0.6c0-0.2-0.2-0.4-0.1-0.6c0-0.2,0.3-0.4,0.3-0.6c0-0.2-0.3-0.4-0.3-0.6
				c0-0.2,0.1-0.4,0.1-0.6c0-0.2,0-0.4,0-0.6c0-0.2,0.1-0.4,0.1-0.6c0-0.2,0-0.4,0-0.6c0-0.2,0.4-0.4,0.4-0.6c0-0.2-0.5-0.4-0.5-0.6
				c0,0,0-0.1,0-0.1c0,0,0,0,0-0.1c0.1-0.1,0.2-0.3,0.2-0.4c0-0.2,0.2-0.4,0.2-0.6c0-0.2,0.1-0.4,0.1-0.6c0-0.2-0.4-0.4-0.4-0.6
				c0-0.2,0.4-0.4,0.4-0.6c0-0.2-0.4-0.4-0.4-0.6c0-0.2-0.1-0.4-0.1-0.6c0-0.2-0.1-0.4-0.2-0.6c0-0.2,0.4-0.5,0.3-0.7
				c0-0.2-0.4-0.4-0.5-0.6c0-0.2-0.2-0.4-0.2-0.6c0-0.2,0.1-0.4,0.1-0.6c0-0.2-0.1-0.4-0.2-0.6c0-0.2,0.5-0.5,0.5-0.7
				c0-0.2-0.2-0.4-0.2-0.6c0-0.2-0.2-0.4-0.2-0.6c0-0.2-0.6-0.3-0.6-0.5c0-0.2,0.3-0.5,0.3-0.7c0-0.2,0-0.4-0.1-0.6
				c0-0.2-0.4-0.3-0.4-0.5c0-0.2-0.3-0.4-0.3-0.6c0-0.2,0.6-0.6,0.6-0.8c0-0.2-0.6-0.3-0.7-0.5c0-0.2-0.1-0.4-0.2-0.6
				c-0.1-0.2-0.1-0.4-0.2-0.6c-0.1-0.2,0.5-0.5,0.4-0.7c-0.1-0.2-0.8-0.2-0.9-0.4c-0.1-0.2-0.1-0.4-0.2-0.6
				c-0.1-0.2,0.5-0.6,0.5-0.8c-0.1-0.2,0-0.4,0-0.6c-0.1-0.2-0.8-0.2-0.9-0.4c-0.1-0.2,0.3-0.5,0.2-0.7c-0.1-0.2-0.2-0.4-0.3-0.6
				c-0.1-0.2,0.1-0.5,0.1-0.7c-0.1-0.2-0.4-0.3-0.4-0.5c-0.1-0.2-0.5-0.3-0.6-0.5c-0.1-0.2,0.4-0.6,0.3-0.8
				c-0.1-0.2-0.3-0.3-0.4-0.5c-0.1-0.2,0-0.4,0-0.6c-0.1-0.2-0.5-0.2-0.6-0.4c-0.1-0.2,0.1-0.5,0-0.7c-0.1-0.2-0.2-0.4-0.3-0.5
				c-0.1-0.2-0.3-0.3-0.4-0.5c-0.1-0.2,0.4-0.6,0.3-0.8c-0.1-0.2-0.3-0.3-0.4-0.5c-0.1-0.2-0.5-0.2-0.6-0.4
				c-0.1-0.2,0.3-0.6,0.2-0.8c-0.1-0.2-0.2-0.4-0.3-0.6c-0.1-0.2-0.8-0.1-0.9-0.3c-0.1-0.2,0-0.5,0-0.7c-0.1-0.2,0.3-0.6,0.2-0.8
				c-0.1-0.2-0.6-0.2-0.7-0.3c-0.1-0.2,0.3-0.6,0.2-0.8c-0.1-0.2-0.2-0.4-0.3-0.6c-0.1-0.2-0.2-0.4-0.3-0.5
				c-0.1-0.2-0.5-0.2-0.6-0.4c-0.1-0.2-0.1-0.4-0.2-0.6c-0.1-0.2,0.1-0.5,0.1-0.7c-0.1-0.2-0.5-0.2-0.5-0.4c-0.1-0.2,0-0.5-0.1-0.6
				c-0.1-0.2-0.3-0.3-0.4-0.5c-0.1-0.2-0.6-0.2-0.7-0.3c-0.1-0.2,0.1-0.5,0-0.7c-0.1-0.2-0.3-0.3-0.4-0.5c-0.1-0.2,0.3-0.6,0.2-0.8
				c-0.1-0.2-0.6-0.1-0.7-0.3c-0.1-0.2,0.2-0.6,0.1-0.8c-0.1-0.2-0.8,0-0.9-0.2c-0.1-0.2,0.1-0.5,0-0.7c-0.1-0.2-0.2-0.4-0.3-0.6
				c-0.1-0.2-0.1-0.4-0.2-0.6c-0.1-0.2-0.1-0.4-0.2-0.6c-0.1-0.2-0.7-0.1-0.8-0.3c-0.1-0.2,0-0.5-0.1-0.7c-0.1-0.2-0.1-0.4-0.2-0.6
				c-0.1-0.2-0.3-0.3-0.4-0.5c-0.1-0.2-0.5-0.2-0.6-0.3c-0.1-0.2,0-0.5-0.1-0.7c-0.1-0.2-0.2-0.4-0.3-0.5c-0.1-0.2-0.3-0.3-0.5-0.4
				c-0.1-0.2-0.4-0.3-0.5-0.4c-0.1-0.2-0.2-0.3-0.3-0.5c-0.1-0.2,0-0.5-0.1-0.7c-0.1-0.2,0-0.5-0.1-0.7c-0.1-0.2-0.5-0.2-0.6-0.3
				c-0.1-0.2,0.2-0.6,0.1-0.8c-0.1-0.2-0.5-0.1-0.6-0.3c-0.1-0.2-0.3-0.3-0.4-0.5c-0.1-0.2,0.1-0.5-0.1-0.7c-0.1-0.2-0.9,0.1-1-0.1
				c-0.1-0.2,0.4-0.8,0.3-1c-0.1-0.2-0.5-0.1-0.7-0.3c-0.1-0.2-0.5-0.2-0.6-0.3c-0.1-0.2-0.1-0.4-0.3-0.6c-0.1-0.2,0.1-0.6,0-0.7
				c-0.1-0.2-0.5-0.1-0.6-0.3c-0.1-0.2-0.1-0.4-0.3-0.6c-0.1-0.2-0.3-0.3-0.5-0.4c-0.1-0.2-0.3-0.3-0.5-0.4c-0.1-0.2,0-0.5-0.2-0.6
				c-0.1-0.2,0-0.5-0.2-0.6c-0.1-0.2-0.8,0.1-0.9,0c-0.1-0.2-0.1-0.4-0.2-0.6c-0.1-0.2-0.5-0.2-0.6-0.3c-0.1-0.2,0.3-0.8,0.2-0.9
				c-0.1-0.2-0.2-0.4-0.3-0.5c-0.1-0.2-0.9,0.2-1,0c-0.1-0.2-0.1-0.4-0.3-0.6c-0.1-0.2-0.4-0.2-0.5-0.4c-0.1-0.2,0.4-0.8,0.3-1
				c-0.1-0.2-0.9,0.2-1,0.1c-0.1-0.2-0.2-0.4-0.3-0.5c-0.1-0.2-0.2-0.4-0.3-0.5c-0.1-0.2-0.3-0.3-0.4-0.4c-0.1-0.2-0.2-0.4-0.3-0.5
				c-0.1-0.2-0.3-0.2-0.5-0.4c-0.1-0.2,0.1-0.6,0-0.8c-0.1-0.2-0.7,0.1-0.8-0.1c-0.1-0.2,0-0.5-0.2-0.7c-0.1-0.2-0.5-0.1-0.6-0.2
				c-0.1-0.2,0-0.5-0.2-0.7c-0.1-0.2-0.3-0.3-0.4-0.4c-0.1-0.2-0.4-0.2-0.6-0.3c-0.1-0.2,0.1-0.6-0.1-0.8c-0.1-0.2-0.7,0.1-0.8-0.1
				s-0.1-0.5-0.2-0.6c-0.1-0.1-0.4-0.2-0.6-0.3c-0.1-0.1-0.3-0.3-0.4-0.5c-0.1-0.1-0.1-0.4-0.3-0.6c-0.1-0.1-0.4-0.2-0.5-0.3
				c-0.1-0.1-0.1-0.4-0.3-0.6c-0.1-0.1-0.4-0.2-0.5-0.3c-0.1-0.1,0.1-0.7-0.1-0.8c-0.1-0.1-0.5-0.1-0.7-0.2
				c-0.1-0.1-0.1-0.5-0.2-0.6c-0.1-0.1-0.3-0.3-0.4-0.5c-0.1-0.1-0.7,0.2-0.9,0c-0.1-0.1-0.1-0.5-0.3-0.6c-0.1-0.1-0.4-0.2-0.5-0.3
				s0-0.6-0.1-0.7c-0.1-0.1-0.4-0.1-0.6-0.3c-0.1-0.1-0.5,0-0.7-0.2c-0.1-0.1-0.4-0.2-0.6-0.3c-0.2-0.1-0.1-0.5-0.2-0.7
				c-0.2-0.1-0.3-0.3-0.4-0.4c-0.2-0.1-0.2-0.4-0.4-0.5c-0.2-0.1-0.1-0.5-0.3-0.6c-0.2-0.1-0.7,0.1-0.8,0c-0.2-0.1-0.4-0.2-0.6-0.3
				c-0.2-0.1,0.1-0.7-0.1-0.8c-0.2-0.1-0.4-0.2-0.5-0.3c-0.2-0.1-0.4-0.2-0.6-0.3c-0.2-0.1-0.5,0-0.7-0.2c-0.2-0.1-0.3-0.3-0.4-0.5
				c-0.2-0.1-0.2-0.4-0.4-0.5c-0.2-0.1-0.5-0.1-0.6-0.2c-0.2-0.1-0.2-0.4-0.3-0.5c-0.2-0.1-0.4-0.2-0.5-0.3
				c-0.2-0.1-0.2-0.4-0.4-0.5c-0.2-0.1-0.3-0.3-0.4-0.4c-0.2-0.1-0.2-0.4-0.4-0.5c-0.2-0.1-0.7,0.2-0.8,0c-0.2-0.1,0-0.7-0.2-0.8
				c-0.2-0.1-0.6,0.1-0.8,0c-0.2-0.1,0-0.7-0.1-0.8c-0.2-0.1-0.4-0.2-0.6-0.3c-0.2-0.1-0.5-0.1-0.6-0.2c-0.2-0.1-0.4-0.2-0.6-0.3
				c-0.2-0.1-0.1-0.5-0.3-0.6c-0.2-0.1-0.3-0.3-0.4-0.4c-0.2-0.1-0.2-0.4-0.3-0.6c-0.2-0.1-0.4-0.1-0.6-0.2
				c-0.2-0.1-0.3-0.2-0.5-0.4c-0.2-0.1-0.3-0.3-0.4-0.5c-0.2-0.1-0.3-0.2-0.5-0.4c-0.2-0.1-0.8,0.4-0.9,0.2
				c-0.2-0.1-0.3-0.3-0.4-0.5c-0.2-0.1,0-0.8-0.1-0.9c-0.2-0.1-0.6,0.2-0.8,0c-0.2-0.1-0.4-0.1-0.6-0.2c-0.2-0.1-0.4-0.2-0.5-0.3
				c-0.2-0.1-0.4-0.2-0.6-0.3c-0.2-0.1-0.3-0.3-0.5-0.4c-0.2-0.1,0-0.7-0.2-0.8c-0.2-0.1-0.7,0.3-0.9,0.2c-0.2-0.1-0.1-0.6-0.3-0.7
				c-0.2-0.1-0.5,0-0.6-0.1c-0.2-0.1-0.2-0.5-0.3-0.6c-0.2-0.1-0.3-0.2-0.5-0.3c-0.2-0.1-0.4-0.1-0.6-0.2c-0.2-0.1-0.3-0.3-0.5-0.4
				c-0.2-0.1-0.1-0.6-0.3-0.7c-0.2-0.1-0.5,0-0.7-0.1c-0.2-0.1-0.6,0.2-0.8,0.1c-0.2-0.1-0.2-0.4-0.4-0.5c-0.2-0.1-0.4-0.1-0.6-0.2
				c-0.2-0.1-0.2-0.4-0.4-0.5c-0.2-0.1-0.3-0.4-0.4-0.5c-0.2-0.1-0.3-0.3-0.5-0.4c-0.2-0.1-0.5,0-0.6-0.1c-0.2-0.1-0.6,0.2-0.8,0.1
				c-0.2-0.1-0.2-0.4-0.4-0.5c-0.2-0.1-0.1-0.7-0.3-0.8c-0.2-0.1-0.4-0.2-0.6-0.3c-0.2-0.1-0.6,0.3-0.8,0.2
				c-0.2-0.1-0.2-0.4-0.4-0.5c-0.2-0.1-0.6,0.2-0.8,0.1c-0.2-0.1-0.1-0.6-0.3-0.7c-0.2-0.1-0.3-0.4-0.4-0.5c-0.2-0.1-0.5,0.1-0.7,0
				c-0.2-0.1-0.1-0.6-0.3-0.7c-0.2-0.1-0.6,0.2-0.8,0.1c-0.2-0.1-0.4-0.1-0.6-0.2c-0.2-0.1-0.2-0.5-0.4-0.6
				c-0.2-0.1-0.2-0.4-0.4-0.5c-0.2-0.1-0.7,0.4-0.9,0.3c-0.2-0.1-0.2-0.6-0.3-0.7c-0.2-0.1-0.4-0.2-0.6-0.3
				c-0.2-0.1-0.3-0.4-0.5-0.5c-0.2-0.1-0.4,0-0.6-0.1c-0.2-0.1-0.4,0-0.6-0.1c-0.2-0.1-0.5,0.1-0.7,0c-0.2-0.1-0.4-0.2-0.5-0.3
				c-0.2-0.1-0.3-0.3-0.5-0.4c-0.2-0.1-0.5,0.1-0.7,0c-0.2-0.1,0-0.9-0.2-1c-0.2-0.1-0.4-0.2-0.6-0.2c-0.2-0.1-0.6,0.3-0.8,0.2
				c-0.2-0.1-0.5,0.1-0.7,0c-0.2-0.1-0.1-0.8-0.3-0.9c-0.2-0.1-0.6,0.4-0.8,0.3c-0.2-0.1-0.3-0.3-0.5-0.4c-0.2-0.1-0.3-0.3-0.5-0.4
				c-0.2-0.1-0.5,0-0.7,0c-0.2-0.1-0.3-0.5-0.4-0.5c-0.2-0.1-0.5,0.2-0.7,0.1c-0.2-0.1-0.3-0.3-0.5-0.4c-0.2-0.1-0.5,0-0.7,0
				c-0.2-0.1-0.2-0.7-0.3-0.8s-0.4-0.1-0.6-0.1c-0.2-0.1-0.5,0.2-0.7,0.1c-0.2-0.1-0.3-0.4-0.5-0.5c-0.2-0.1-0.4-0.2-0.6-0.3
				c-0.2-0.1-0.4-0.1-0.6-0.2c-0.2-0.1-0.3-0.3-0.5-0.3c-0.2-0.1-0.3-0.2-0.5-0.3c-0.2-0.1-0.3-0.3-0.5-0.3
				c-0.2-0.1-0.6,0.4-0.8,0.3c-0.2-0.1-0.3-0.5-0.5-0.5c-0.2-0.1-0.3-0.4-0.5-0.4c-0.2-0.1-0.4-0.1-0.6-0.2
				c-0.2-0.1-0.6,0.5-0.8,0.4c-0.2-0.1-0.4-0.2-0.6-0.2c-0.2-0.1-0.4-0.2-0.6-0.3c-0.2-0.1-0.4-0.2-0.5-0.3
				c-0.2-0.1-0.5,0.1-0.7,0.1c-0.2-0.1-0.2-0.7-0.4-0.7c-0.2-0.1-0.5,0.3-0.7,0.3c-0.2-0.1-0.2-0.7-0.4-0.8
				c-0.2-0.1-0.5,0.4-0.7,0.3c-0.2-0.1-0.3-0.5-0.5-0.6c-0.2-0.1-0.5,0.1-0.7,0.1c-0.2-0.1-0.4,0-0.6,0c-0.2-0.1-0.3-0.4-0.5-0.5
				c-0.2-0.1-0.5,0.3-0.7,0.2c-0.2-0.1-0.4-0.2-0.6-0.3c-0.2-0.1-0.3-0.5-0.5-0.5c-0.2-0.1-0.4-0.3-0.6-0.3
				c-0.2-0.1-0.6,0.6-0.8,0.6c-0.2-0.1-0.4-0.1-0.6-0.2c-0.2-0.1-0.3-0.3-0.5-0.4c-0.2-0.1-0.4-0.2-0.6-0.3
				c-0.2-0.1-0.5,0.2-0.7,0.2c-0.2-0.1-0.2-0.7-0.4-0.8c-0.2-0.1-0.5,0.1-0.7,0.1c-0.2-0.1-0.3-0.3-0.5-0.4
				c-0.2-0.1-0.5,0.4-0.7,0.4c-0.2,0-0.4-0.3-0.6-0.3c-0.2,0-0.4,0.1-0.6,0.1c-0.2,0-0.3-0.7-0.5-0.7c-0.2,0-0.4-0.1-0.6-0.2
				c-0.2,0-0.6,0.7-0.8,0.7c-0.2,0-0.3-0.5-0.5-0.5c-0.2,0-0.3-0.5-0.5-0.5c-0.2,0-0.5,0.2-0.7,0.2c-0.2,0-0.5,0.3-0.7,0.3
				c-0.2,0-0.3-0.7-0.5-0.7c-0.2,0-0.5,0.4-0.7,0.3c-0.2,0-0.3-0.4-0.6-0.4c-0.2,0-0.5,0.3-0.7,0.2c-0.2,0-0.4-0.2-0.6-0.2
				c-0.2,0-0.4-0.2-0.6-0.3c-0.2,0-0.5,0.3-0.7,0.3c-0.2,0-0.3-0.8-0.5-0.9c-0.2,0-0.5,0.5-0.7,0.4c-0.2,0-0.3-0.6-0.5-0.7
				c-0.2,0-0.4,0.1-0.6,0c-0.2,0-0.4,0-0.6,0c-0.2,0-0.4-0.2-0.6-0.2c-0.2,0-0.5,0.5-0.7,0.5c-0.2,0-0.4-0.2-0.6-0.2
				c-0.2,0-0.3-0.5-0.5-0.5c-0.2,0-0.5,0.5-0.7,0.5c-0.2,0-0.4-0.3-0.6-0.3c-0.2,0-0.4-0.4-0.6-0.4c-0.2,0-0.5,0.6-0.7,0.6
				c-0.2,0-0.3-0.6-0.5-0.7c-0.2,0-0.4-0.1-0.6-0.1c-0.2,0-0.4,0.1-0.6,0.1c-0.2,0-0.5,0.4-0.7,0.4c-0.2,0-0.4-0.5-0.6-0.5
				c-0.2,0-0.4-0.2-0.6-0.2c-0.2,0-0.4,0-0.6,0c-0.2,0-0.4,0.2-0.6,0.2c-0.2,0-0.4,0.2-0.6,0.2c-0.2,0-0.4-0.5-0.6-0.5
				c-0.2,0-0.4,0.2-0.6,0.1c-0.2,0-0.4-0.3-0.6-0.4c-0.2,0-0.4,0.3-0.6,0.3c-0.2,0-0.4,0.1-0.6,0.1c-0.2,0-0.4,0.1-0.6,0.1
				c-0.2,0-0.4-0.7-0.6-0.7c-0.2,0-0.4,0.1-0.6,0.1c-0.2,0-0.4,0.1-0.6,0.1c-0.2,0-0.4-0.1-0.6-0.2c-0.2,0-0.4-0.1-0.6-0.1
				c-0.2,0-0.4-0.1-0.6-0.1c-0.2,0-0.4-0.1-0.6-0.1c-0.2,0-0.4,0.2-0.6,0.1c-0.2,0-0.4,0.4-0.6,0.4c-0.2,0-0.4-0.1-0.6-0.1
				c-0.2,0-0.4-0.2-0.6-0.2c-0.2,0-0.4,0.2-0.6,0.2c-0.2,0-0.4-0.4-0.6-0.4c-0.2,0-0.4,0.5-0.6,0.5c-0.2,0-0.4,0-0.6,0
				c-0.2,0-0.4-0.2-0.6-0.2c-0.2,0-0.4-0.2-0.6-0.2c-0.2,0-0.4,0.5-0.6,0.5c-0.2,0-0.4,0.2-0.6,0.2c-0.2,0-0.4,0.1-0.6,0.1
				c-0.2,0-0.4-0.5-0.6-0.5c-0.2,0-0.4-0.2-0.6-0.2c-0.2,0-0.4,0-0.6,0c-0.2,0-0.4,0-0.6,0c-0.2,0-0.4,0.3-0.6,0.3
				c-0.2,0-0.4-0.1-0.6-0.1c-0.2,0-0.4-0.1-0.6-0.1c-0.2,0-0.3,0.8-0.5,0.8c-0.2,0-0.5-0.6-0.7-0.6c-0.2,0-0.4,0-0.6,0
				c-0.2,0-0.3,0.8-0.5,0.8c-0.2,0-0.5-0.6-0.7-0.6c-0.2,0-0.4,0.5-0.6,0.6c-0.2,0-0.4,0-0.6,0c-0.2,0-0.4-0.1-0.6-0.1
				c-0.2,0-0.4,0-0.6,0c-0.2,0-0.4,0-0.6,0c-0.2,0-0.3,0.6-0.5,0.6c-0.2,0-0.5-0.4-0.7-0.4c-0.2,0-0.4,0.4-0.6,0.4
				c-0.2,0-0.5-0.2-0.7-0.2c-0.2,0-0.3,0.5-0.5,0.6c-0.2,0-0.4-0.1-0.6-0.1c-0.2,0-0.5-0.5-0.7-0.5c-0.2,0-0.3,0.8-0.5,0.8
				c-0.2,0-0.4-0.1-0.6-0.1c-0.2,0-0.4,0-0.6,0c-0.2,0-0.4,0.1-0.6,0.2c-0.2,0-0.4,0-0.6,0.1c-0.2,0-0.4,0.2-0.6,0.2
				c-0.2,0-0.4,0.2-0.6,0.3c-0.2,0-0.5-0.3-0.7-0.2c-0.2,0-0.5-0.1-0.7-0.1c-0.2,0.1-0.2,0.8-0.4,0.9c-0.2,0.1-0.6-0.6-0.8-0.5
				c-0.2,0.1-0.3,0.4-0.5,0.5c-0.2,0.1-0.4,0-0.6,0.1c-0.2,0.1-0.3,0.5-0.5,0.6c-0.2,0.1-0.4,0.2-0.6,0.2c-0.2,0.1-0.5-0.3-0.7-0.2
				c-0.2,0.1-0.4,0.2-0.6,0.3c-0.2,0.1-0.5-0.2-0.7-0.1c-0.2,0.1-0.2,0.6-0.4,0.7c-0.2,0.1-0.4,0.2-0.6,0.3
				c-0.2,0.1-0.6-0.4-0.8-0.3c-0.2,0.1-0.2,0.5-0.4,0.6c-0.2,0.1-0.5-0.1-0.7,0c-0.2,0.1-0.5-0.2-0.7-0.1c-0.2,0.1-0.2,0.6-0.4,0.7
				c-0.2,0.1-0.5,0-0.6,0.1c-0.2,0.1-0.4,0.2-0.6,0.3c-0.2,0.1-0.3,0.4-0.5,0.5c-0.2,0.1-0.5-0.2-0.7-0.1c-0.2,0.1-0.2,0.5-0.4,0.6
				c-0.2,0.1-0.4,0-0.6,0.1c-0.2,0.1-0.4,0-0.6,0.1c-0.2,0.1-0.1,0.6-0.3,0.7c-0.2,0.1-0.4,0.1-0.6,0.2c-0.2,0.1-0.4,0.1-0.6,0.2
				c-0.2,0.1-0.5-0.1-0.7,0c-0.2,0.1-0.2,0.4-0.4,0.5c-0.2,0.1-0.5,0-0.7,0.1c-0.2,0.1-0.2,0.5-0.3,0.6c-0.2,0.1-0.3,0.3-0.4,0.5
				c-0.2,0.1-0.3,0.2-0.5,0.3c-0.2,0.1-0.7-0.3-0.9-0.2c-0.2,0.1-0.2,0.4-0.4,0.5c-0.2,0.1,0,0.6-0.2,0.7c-0.2,0.1-0.4,0.1-0.6,0.3
				c-0.2,0.1-0.7-0.3-0.9-0.1c-0.2,0.1,0,0.7-0.1,0.8c-0.2,0.1-0.5,0-0.7,0.2c-0.2,0.1-0.1,0.5-0.2,0.7c0,0-0.1,0-0.1,0
				c0,0-0.1,0-0.1,0c-0.2,0-0.5-0.1-0.6,0c-0.1,0.1-0.1,0.2-0.1,0.3c-0.1,0.1-0.2,0.2-0.3,0.3c-0.3,0.3-0.5,0.5-0.6,0.8
				c-0.1,0-0.1,0-0.1,0.1c-0.1,0.2-0.3,0.3-0.4,0.5c0,0-0.1,0.1-0.1,0.2c-0.1,0-0.2,0.1-0.3,0.1c-0.4,0.2-0.8,0.4-1,0.7
				c-0.2,0.2-0.3,0.4-0.4,0.6c0,0-0.2,0.2-0.2,0.3c-0.5,0.2-0.9,0.6-1.2,1c-0.2,0.3-0.4,0.6-0.5,0.9c-0.2,0.1-0.4,0.3-0.5,0.4
				c0,0,0,0,0,0c-0.2,0.1-0.4,0.2-0.5,0.2c-0.7,0.4-1.2,1.1-1.5,1.9c-0.4,0.5-0.7,1-0.8,1.6c-0.1,0.2-0.3,0.4-0.4,0.6
				c-0.2,0.1-0.3,0.2-0.4,0.4c-0.2,0.2-0.3,0.5-0.4,0.7c-0.5,0.3-0.9,0.8-1.2,1.3c-0.3,0.5-0.3,1.1-0.2,1.7c-0.4,0.4-0.6,1-0.6,1.5
				c-0.2,0.3-0.4,0.6-0.6,1c-0.3,0.7-0.3,1.3-0.2,2c0,0.1-0.1,0.1-0.1,0.1c0,0,0,0,0,0c-0.2,0.1-0.3,0.3-0.5,0.4
				c-0.5,0.4-0.7,1.4-0.5,2c-0.2,0.5-0.4,0.9-0.5,1.5c-0.1,0.4-0.3,0.7-0.3,1.1c0,0.4,0,0.7,0.2,1c-0.1,0.3-0.1,0.5-0.1,0.8
				c0,0,0,0.1,0,0.2c0,0-0.1,0.1-0.1,0.1c-0.7,0.6-0.8,1.8-0.3,2.6c-0.1,0.3-0.3,0.7-0.4,1.1c-0.2,0.9,0.1,1.6,0.6,2.2
				c-0.1,0.6-0.1,1.1,0.1,1.7c-0.1,0.5-0.1,1,0.1,1.5c-0.1,0.1-0.1,0.2-0.1,0.2c-0.3,0.8-0.2,1.5,0.1,2.1c0,0.5,0,1.1,0.1,1.6
				c0.1,0.2,0.2,0.5,0.3,0.7c0,0.1,0.1,0.2,0.1,0.3c0,0,0,0,0,0c-0.1,0.8,0.3,1.6,0.7,2.3c-0.2,0.6-0.2,1.2,0.1,1.9
				c0.1,0.3,0.3,0.6,0.5,0.8c0,0.2,0,0.4,0.1,0.6c0.1,0.3,0.3,0.7,0.5,0.9c0,0,0,0,0,0c0,0,0,0,0,0.1c0,0.1,0,0.1,0,0.2
				c0,0.5,0.1,0.9,0.3,1.3c0.1,0.2,0.3,0.4,0.5,0.5c0,0.1,0.1,0.3,0.1,0.4c0.1,0.1,0.2,0.3,0.2,0.4c0,0.2,0,0.4,0.1,0.6
				c0.1,0.4,0.3,0.7,0.6,1c0,0.2,0,0.3,0,0.4c0,0.6,0.3,1.1,0.7,1.5c0.1,0.4,0.2,0.8,0.5,1.1c0,0,0,0,0,0c0,0.1,0.1,0.2,0.1,0.2
				c0.1,0.3,0.3,0.6,0.4,1c0.4,0.8,0.9,1.5,1.5,2c0,0.6,0.2,1.2,0.7,1.7c0.2,0.1,0.3,0.3,0.5,0.4c0.1,0.3,0.1,0.5,0.3,0.8
				c0.1,0.1,0.1,0.2,0.2,0.3c0,0.2,0.1,0.4,0.2,0.5c0.4,1.1,1,1.9,2,2.5c0.3,0.4,0.6,0.8,1,1.1c0.2,0.1,0.3,0.3,0.3,0.2
				c0,0,0.1,0.1,0.1,0.1c0.1,0.2,0.3,0.3,0.4,0.5c0.2,0.7,0.6,1.3,1.1,1.8c0.2,0.6,0.5,1.2,1.1,1.5c0.1,0.1,0.2,0.1,0.4,0.2
				c0.2,0.4,0.3,0.8,0.6,1.1c0.2,0.4,0.5,0.6,0.8,0.7c0.2,0.4,0.4,0.7,0.8,1c0.2,0.7,0.8,1.1,1.5,1.4c0,0,0.2,0.1,0.3,0.1
				c0,0,0,0,0,0c0,0,0,0,0,0c0.2,0.4,0.4,0.7,0.8,1c0.3,0.3,0.6,0.5,0.9,0.7c0.2,0.1,0.2,0.1,0,0c-0.2-0.2-0.2-0.2-0.1,0
				c0,0,0,0,0,0c0,0,0,0,0,0c0,0,0,0,0,0c0.1,0,0.3,0.4,0.2,0.3c0.5,0.7,1.1,1.2,1.9,1.6c0.1,0.4,0.4,0.7,0.7,1c0,0,0.1,0.1,0.1,0.1
				c0,0,0,0,0,0.1c0.4,0.9,1.3,1.2,2.2,1.5c0.2,0.2,0.4,0.4,0.6,0.6c0.3,0.4,0.6,0.8,1,1c0,0.1,0.1,0.1,0.1,0.2
				c0.4,0.7,1.1,1.2,1.8,1.5c0.1,0,0.2,0,0.2,0.1c0.1,0.1,0.3,0.3,0.4,0.3c0.2,0.1,0.4,0.2,0.6,0.2c0.4,0.5,0.8,0.9,1.3,1.3
				c0,0,0,0.1,0,0.1c0.1,0.5,0.5,0.9,1,1.2c0.3,0.8,1.2,1.4,2,1.4c0.1,0,0.2,0,0.3,0c0,0,0,0,0.1,0.1c0.1,0.1,0.2,0.2,0.3,0.3
				c0,0,0,0.1,0,0.1c0.2,0.7,0.8,1.3,1.5,1.5c0,0,0,0,0.1,0c0.2,0.2,0.3,0.4,0.6,0.5c0.3,0.1,0.5,0.2,0.8,0.3
				c0.3,0.2,0.6,0.4,0.9,0.5c0.5,0.8,1.2,1.4,2,1.8c0,0,0,0.1,0,0.1c0.2,0.7,0.8,1.3,1.5,1.5c0.3,0.1,0.5,0.1,0.8,0.2
				c0.2,0.4,0.4,0.8,0.9,1.1c0.3,0.2,0.6,0.3,1,0.4c0.3,0.4,0.6,0.7,1.1,0.8c0,0,0,0,0,0c0,0,0,0,0,0c0,0,0,0,0,0c0,0,0,0,0,0
				c0,0,0,0,0,0.1c0.1,0.1,0.1,0.1,0.2,0.1c-0.1,0-0.1-0.1-0.2-0.1c0,0,0,0.1,0,0.1c0.1,0.1,0.1,0.2,0.2,0.3c0.3,0.6,1.1,1,1.7,1
				c0.2,0.4,0.6,0.7,1,0.9c0.3,0.5,0.7,0.8,1.2,1c0.3,0.5,0.7,0.8,1.3,0.9c0,0,0.4,0.1,0.6,0.1c0.2,0.3,0.4,0.5,0.6,0.7
				c0.4,0.4,0.9,0.6,1.5,0.7c0.2,0.1,0.4,0.2,0.5,0.3c0.2,0.3,0.4,0.5,0.6,0.7c0.2,0.1,0.4,0.2,0.6,0.3c0.3,0.4,0.7,0.7,1.2,0.9
				c0.1,0,0.1,0,0.2,0.1c0.4,0.7,1.1,1.2,1.9,1.2c0.2,0.2,0.5,0.4,0.9,0.5c0.1,0,0.2,0,0.3,0.1c0.1,0.1,0.1,0.3,0.2,0.4
				c0.4,0.7,0.9,1,1.5,1.3c0.5,0.4,1,0.8,1.7,0.8c0.2,0,0.3,0,0.5-0.1c0,0,0,0,0.1,0c0.1,0.2,0.3,0.4,0.4,0.6
				c0.2,0.2,0.4,0.3,0.6,0.4c0.2,0.4,0.5,0.8,1,1c0.3,0.2,0.7,0.3,1,0.4c0.1,0,0.3,0.1,0.4,0.1c0,0,0.1,0,0.1,0.1c0,0,0,0,0,0
				c0.2,0.2,0.4,0.3,0.6,0.5c0.4,0.3,0.8,0.5,1.2,0.6c0.1,0.1,0.1,0.1,0.2,0.2c0.3,0.3,0.6,0.4,0.9,0.5c0.3,0.2,0.6,0.4,0.8,0.5
				c0.3,0.5,0.8,0.9,1.4,1.1c0,0,0.1,0,0.1,0c0.3,0.2,0.5,0.4,0.8,0.5c0.2,0.3,0.5,0.6,0.8,0.7c0.4,0.2,0.9,0.3,1.3,0.2
				c0.1,0.2,0.2,0.3,0.2,0.4c0.3,0.7,1.2,1,1.9,1c0.1,0,0.2,0,0.2,0c0.5,0.2,1,0.4,1.4,0.7c0.1,0,0.2,0.1,0.3,0.2
				c0.2,0.1,0.3,0.3,0.5,0.4c0.4,0.3,0.8,0.4,1.2,0.4c0.1,0.1,0.2,0.2,0.3,0.4c-0.1-0.1-0.2-0.2-0.2-0.2c0.1,0.1,0.1,0.2,0.2,0.2
				c0.6,0.8,1.3,1.2,2.1,1.2c0.6,0.7,1.4,1.1,2.3,0.8c0.3,0.3,0.6,0.6,1,0.9c0.5,0.3,1.1,0.5,1.6,0.6c0.4,0.6,1.1,1,1.8,0.9
				c0,0,0.1,0,0.1,0c0,0,0,0,0.1,0c0.5,0.4,1,0.6,1.6,0.9c-0.1-0.1-0.4-0.2,0.1,0.1c0.3,0.2,0.7,0.3,1,0.3c0,0,0.1,0,0.1,0
				c0.1,0.1,0.2,0.2,0.4,0.3c0.3,0.2,0.6,0.2,1,0.3c0.3,0.2,0.5,0.4,0.9,0.4c0.1,0,0.2,0,0.4,0.1c0.1,0.1,0.1,0.1,0.2,0.2
				c0.1,0.1,0.1,0.1,0.2,0.1c0.1,0.1,0.2,0.2,0.2,0.3c0.6,0.8,1.3,1.1,2.2,1c0.4,0.2,0.8,0.5,1.2,0.6c0.1,0,0.4,0.1,0.5,0.1
				c0,0,0,0,0,0c0.2,0.1,0.4,0.2,0.6,0.3c0.9,0.5,1.9,0.7,2.9,0.8c0.3,0.3,0.7,0.5,1.2,0.7c0.7,0.7,1.6,0.9,2.5,0.9
				c0.5,0.4,1.1,0.6,1.7,0.7c0.2,0.1,0.5,0.3,0.7,0.4c0.1,0.1,0.1,0.2,0.2,0.2c0.6,0.6,1.3,0.7,2.1,0.5c0.3,0.3,0.8,0.5,1.2,0.5
				c0.4,0.4,1,0.6,1.5,0.6c0,0,0,0,0,0c0.4,0.2,0.7,0.3,1.2,0.4c0.3,0.2,0.6,0.4,0.9,0.4c0.4,0.1,0.8,0.1,1.2,0.1
				c0.5,0.3,1,0.4,1.6,0.5c0,0,0,0,0,0c0.4,0.3,0.8,0.5,1.2,0.6c0.5,0.5,1.3,0.7,2,0.6c0.6,0.3,1.3,0.3,1.9,0c0,0,0,0,0,0
				c0.1,0,0.3,0.1,0.5,0.1c0,0,0.1,0,0.1,0c0.6,0.3,1.2,0.4,1.8,0.5c0.5,0.3,0.9,0.4,1.5,0.4c0.2,0,0.5,0,0.7,0
				c0.5,0.3,0.9,0.5,1.5,0.6c0.5,0.1,1,0,1.5,0c0.1,0,0.2,0,0.3,0.1c0.5,0.6,1.1,0.9,1.8,0.9c0.5,0.4,1.2,0.6,1.9,0.4
				c0.2-0.1,0.3-0.1,0.4-0.2c0.1,0.1,0.1,0.1,0.2,0.2c0.8,0.8,1.9,0.5,2.9,0.6c0.1,0,0.2,0,0.3,0c0,0,0,0,0.1,0
				c0.4,0.2,0.8,0.2,1.2,0.2c0.4,0,0.7,0,1.1,0.1c0.1,0.1,0.2,0.1,0.3,0.2c0.5,0.4,1.2,0.3,1.8,0.1c0.5,0.3,1,0.5,1.7,0.4
				c0.1,0,0.1,0,0.2,0c0,0,0,0,0.1,0c0.5,0.1,0.9,0.1,1.4,0c0.1,0,0.2-0.1,0.3-0.1c0.4,0.2,0.7,0.3,1.2,0.3c0.5,0,0.9,0,1.4-0.2
				c0.3,0,0.6,0.1,0.9,0.1c0.3,0,0.6,0,1-0.1c0.1,0,0.3,0,0.4,0c0,0,0.1,0,0.1,0c0.1,0,0.3,0.1,0.3,0.1c0.4,0.1,0.8,0.1,1.1,0
				c0.2,0.1,0.5,0.1,0.7,0.1c0.6,0.4,1.2,0.7,2,0.5c0.2-0.1,0.5-0.1,0.7-0.2c0.7,0.2,1.4,0.4,2.1,0.2c0.3-0.1,0.6-0.2,0.9-0.3
				c0.1,0,0.1,0.1,0.2,0.1c0.6,0.4,1.5,0.3,2.1,0c0.3,0.1,0.7,0.1,1,0.1c0.2,0,0.4-0.1,0.5-0.1c0.4,0.2,0.8,0.3,1.4,0.3
				c0.8,0,1.4-0.2,2-0.5c0.2,0,0.3,0,0.5,0c0.1,0.1,0.2,0.1,0.3,0.1c0.3,0.1,0.6,0.1,0.9,0.1c0.9,0.1,1.6-0.3,2.4-0.7
				c0.2,0,0.4,0.1,0.6,0.1c0.7,0.1,1.3,0,1.9-0.2c0.8,0.3,1.5,0.4,2.4,0.2c0.4-0.1,0.8-0.4,1.2-0.8c0.5,0,1-0.1,1.5-0.5
				c0.4,0.1,0.9,0.2,1.4,0.1c0.6-0.1,1-0.3,1.3-0.6c0.4,0,0.7-0.1,1.1-0.3c0.3-0.1,0.5-0.3,0.8-0.5c0,0,0,0,0,0
				c0.5,0,0.9-0.2,1.2-0.5c0,0,0.1,0,0.1-0.1c0.5,0.1,1.2-0.5,1.5-0.8c0,0,0.1-0.1,0.1-0.1c0,0,0,0,0,0c0,0,0,0-0.1,0.1
				c0.1,0,0.1-0.1,0.2-0.1c0.3-0.1,0.7-0.2,1-0.3c0.1,0,0.3,0,0.4,0c0.8,0,1.5-0.5,1.8-1.2c0.1,0,0.2-0.1,0.3-0.1
				c0.1-0.1,0.5-0.3,0.4-0.3c0.1,0,0.1,0,0.2-0.1c0.5-0.2,1.1-0.5,1.5-0.9c0.7-0.1,1.4-0.5,1.7-1.1c0.2-0.3,0.3-0.7,0.3-1
				c0.1-0.2,0.3-0.4,0.4-0.5c0.1-0.1,0.1-0.2,0.2-0.2c0.1-0.1,0.3-0.1,0.3-0.2c0.9-0.5,1.5-1.1,2-1.9c0.3-0.2,0.6-0.5,0.8-0.8
				c0.1-0.2,0.2-0.5,0.3-0.7c0.2-0.2,0.3-0.3,0.4-0.5c0.1-0.1,0.2-0.1,0.2-0.2c0.6-0.4,1.1-1.1,1-1.9c0.1-0.1,0.2-0.2,0.3-0.4
				c0.1,0,0.1-0.1,0.2-0.1c0.6-0.4,1.1-1.1,1-1.9c0-0.1,0-0.2,0-0.3c0-0.1,0.1-0.1,0.1-0.2c0.2-0.1,0.4-0.3,0.6-0.5
				c0.5-0.5,0.6-1.3,0.7-2c0-0.2,0.1-0.5,0-0.8c0,0,0,0,0,0c0,0,0,0,0,0C275.7,147.9,275.7,147.8,275.7,147.6z M80.1,31.7
				C80.1,31.7,80.1,31.7,80.1,31.7C80.4,31.3,80.2,31.6,80.1,31.7z M77.8,34.2C77.6,34.5,77.7,34.3,77.8,34.2L77.8,34.2z M69.5,63.1
				C69.5,63.1,69.5,63.1,69.5,63.1C69.5,63.1,69.5,63.2,69.5,63.1C69.5,63.2,69.5,63.2,69.5,63.1z M146.9,145c0.1,0,0.1,0.1,0.2,0.1
				c0,0,0,0,0,0C147,145.1,146.9,145,146.9,145z M147.1,145.1C147.1,145.1,147.1,145.1,147.1,145.1
				C147.1,145.1,147.1,145.1,147.1,145.1C147.1,145.1,147.1,145.1,147.1,145.1z M162,153C161.6,152.8,161.8,152.9,162,153L162,153z
				 M162.1,153C162.1,153,162.1,153,162.1,153C162.1,153.1,162.1,153.1,162.1,153C162.1,153.1,162.1,153.1,162.1,153z M259.3,165.9
				C259.3,165.9,259.3,165.9,259.3,165.9C259.5,165.8,259.5,165.8,259.3,165.9C259.3,165.9,259.3,165.9,259.3,165.9z M267.5,160.4
				C267.5,160.4,267.4,160.4,267.5,160.4C267.4,160.4,267.5,160.4,267.5,160.4z"/>
		</defs>
		<use xlink:href="#XMLID_9_"  style="overflow:visible;fill:#005944;"/>
		<clipPath id="XMLID_18_">
			<use xlink:href="#XMLID_9_"  style="overflow:visible;"/>
		</clipPath>
	</g>
	<path class="st6" d="M90.5,103.4c0.1,0.3,0.2,0.3,0.2,0.4C90.7,103.7,90.6,103.5,90.5,103.4C90.5,103.4,90.5,103.4,90.5,103.4z"/>
</g>
<g>
	<path class="st11" d="M229.3,62.8C229.3,62.8,229.3,62.8,229.3,62.8C229.3,63,229.3,62.9,229.3,62.8z"/>
	<path class="st11" d="M181.7,45.3C181.7,45.3,181.7,45.3,181.7,45.3C181.7,45.4,181.7,45.3,181.7,45.3
		C181.7,45.3,181.7,45.3,181.7,45.3z"/>
	<path class="st11" d="M230.1,57.2C230.1,57.2,230.1,57.2,230.1,57.2C230.1,57.2,230.1,57.2,230.1,57.2
		C230.1,57.2,230.1,57.2,230.1,57.2z"/>
	<g>
		<defs>
			<path id="XMLID_7_" d="M229.6,62.3c0.3-0.7,0.3-1.3,0.2-2c0.2-0.4,0.3-0.8,0.3-1.3c0-0.1,0-0.2,0-0.3c0.1-0.3,0.1-0.7,0.1-0.9
				c0,0,0-0.4-0.1-0.6c0,0.2-0.1,0.6,0,0.1c0-0.1,0-0.1,0-0.2c0,0,0,0,0,0c0,0,0,0,0,0c0,0,0-0.1,0-0.1c0-0.1,0.1-0.2,0.1-0.3
				c0,0,0,0,0,0c0.1-0.2,0.3-0.4,0.3-0.4c0.4-0.6,0.3-1.5,0-2.1c0-0.1-0.1-0.1-0.1-0.2c0-0.6,0-1.3-0.1-1.9c0.4-0.7,0.2-1.5-0.2-2.2
				c0.1-0.7,0-1.3-0.3-2c0-0.5,0-0.9-0.3-1.4c-0.1-0.1-0.1-0.2-0.2-0.3c0.1-0.4,0.2-0.8,0-1.2c-0.1-0.2-0.2-0.5-0.3-0.7
				c0-0.1,0-0.1-0.1-0.1c-0.2-0.5-0.4-1.1-0.6-1.6c0-0.4,0-0.7-0.2-1.1c0-0.1-0.1-0.2-0.2-0.3c0-0.6-0.1-1.3-0.6-1.7
				c-0.2-0.2-0.4-0.3-0.6-0.5c0,0,0,0,0-0.1c0-0.1,0-0.3,0-0.4c0-0.8-0.5-1.3-1-1.8c-0.1-0.3-0.3-0.6-0.5-0.9
				c-0.3-0.3-0.6-0.4-0.9-0.6c0,0-0.1-0.1-0.1-0.1c0-1.2-0.9-2.3-2.2-2.2c-0.1-0.1-0.1-0.1-0.2-0.1c-0.3-0.6-0.8-1.2-1.5-1.3
				c-0.4,0-0.7-0.1-1.1-0.2c-0.1-0.1-0.2-0.1-0.3-0.2c0,0,0,0,0,0c-0.3-1.1-1.6-1.8-2.6-1.4c-0.2-0.1-0.4-0.1-0.6-0.2
				c0,0,0-0.1-0.1-0.1c-0.5-0.6-1.3-0.7-2.1-0.5c-0.4-0.2-0.7-0.2-1.2-0.2c0,0,0,0,0,0c0,0,0,0,0,0c0,0-0.1-0.1-0.2-0.1
				c-0.1-0.1-0.2-0.1-0.3-0.2c-0.5-0.3-1.1-0.3-1.6-0.2c-0.5-0.2-1.1-0.2-1.6,0c-0.4-0.2-0.9-0.3-1.4-0.3c-0.2,0-0.4,0-0.4,0.1
				c-0.2,0-0.3-0.1-0.5-0.1c-0.4,0-0.8,0-1.2,0.2c-0.1,0-0.1,0-0.1,0c0,0,0,0,0,0c0,0,0,0,0,0c-0.1,0-0.2-0.1-0.3-0.1c0,0,0,0,0,0
				c-0.1-0.1-0.2-0.1-0.3-0.2c-0.6-0.3-1.1-0.3-1.7-0.2c-0.1,0-0.2,0-0.3,0.1c-0.2,0-0.3,0-0.5,0c-0.3,0-0.6,0.1-0.9,0.3
				c-0.5-0.3-1-0.4-1.8-0.2c-0.6,0.1-1.1,0.4-1.6,0.8c-0.3,0-0.6,0-0.9,0c-0.1,0-0.3-0.1-0.4-0.1c-0.7-0.2-1.4,0-1.9,0.5
				c0,0,0,0-0.1,0c-0.9-0.1-1.6,0.2-2.2,0.7c-0.1,0-0.3,0.1-0.4,0.1c-1.1-0.2-2,0.1-2.8,0.8c-0.2,0.1-0.5,0.1-0.7,0.3
				c-0.1,0-0.2,0.1-0.3,0.1c0,0,0,0,0,0c-0.6-0.2-1.2,0.4-1.6,0.9c-0.4,0.2-0.7,0.3-1.1,0.6c-0.1,0.1-0.2,0.1-0.3,0.2c0,0,0,0,0,0
				c-0.2,0.1-0.5,0.1-0.7,0.2c-0.5,0.2-1,0.5-1.4,0.8c-0.1,0.1-0.3,0.2-0.4,0.3c-0.6,0.1-1.1,0.5-1.4,1c-0.3,0.5-0.5,1-0.6,1.6
				c-0.3,0.3-0.5,0.6-0.6,1.1c0,0.1-0.1,0.2-0.1,0.4c0,0,0,0.1,0,0.1c-0.1,0.1-0.1,0.2-0.2,0.3c-0.4,0.8-0.3,1.6,0.2,2.3
				c0,0.5,0,1,0.2,1.5c0.2,0.7,0.5,1.5,0.9,2.1c0.2,0.4,0.4,0.7,0.8,1c0,0,0.1,0,0.1,0.1c0,0-0.1-0.1-0.1-0.2c0,0.1,0.1,0.1,0.1,0.2
				c0,0,0,0,0,0c0,0,0,0,0,0c0,0,0,0,0,0.1c0,0,0,0-0.1-0.1c0.1,0.8,0.6,1.4,1.2,1.8c0.1,0.2,0.2,0.3,0.3,0.5
				c0.2,0.3,0.5,0.5,0.8,0.7c0.1,0.1,0.2,0.3,0.4,0.4c0.1,0.6,0.4,1.2,1,1.6c0.1,0.1,0.2,0.1,0.3,0.2c0,0.1,0,0.1,0,0.2
				c0.1,0.8,0.9,1.2,1.5,1.5c0,0,0.1,0,0.1,0c0.1,0,0.1,0.1,0.1,0c0,0,0,0,0,0c0.3,0.4,0.5,0.7,0.9,1c0.1,0.1,0.2,0.1,0.3,0.2
				c0,0,0,0,0,0.1c0.1,0.1,0.2,0.2,0.2,0.3c0.3,0.5,0.5,0.9,0.9,1.3c0.3,0.4,0.6,0.7,1,0.8c0.3,0.7,0.9,1.2,1.8,1.3
				c0.1,0.1,0.1,0.1,0.2,0.2c0.2,0.1,0.4,0.2,0.5,0.3c0.2,0.3,0.4,0.6,0.7,0.8c0.3,0.3,0.6,0.4,0.9,0.5c0.1,0.2,0.2,0.5,0.3,0.7
				c0.4,0.8,1.3,1.1,2.1,1c0,0,0,0,0,0c0.2,0.2,0.4,0.3,0.6,0.4c0.3,0.7,0.8,1.2,1.5,1.4c0.4,0.5,1.1,0.8,1.7,0.8c0.1,0,0.2,0,0.3,0
				c0,0,0.1,0,0.2,0c0,0,0,0,0,0c0,0,0,0,0,0c0.3,0.4,0.6,0.8,1.1,1.1c0.5,0.3,1,0.4,1.5,0.5c0.2,0.2,0.4,0.4,0.6,0.5
				c0.3,0.2,0.7,0.2,1.1,0.3c0.1,0.1,0.1,0.2,0.1,0.1c0.1,0.1,0.1,0.1,0.2,0.2c0.5,0.4,1,0.5,1.5,0.6c0.3,0.2,0.5,0.3,0.8,0.4
				c0.1,0,0.2,0,0.3,0c0.5,0.5,1.1,0.7,1.8,0.6c0.7,0.5,1.5,0.7,2.5,0.9c0.1,0,0.2,0,0.3,0.1c0.1,0,0.2,0,0.2,0
				c0.1,0.1,0.2,0.1,0.3,0.2c0.5,0.2,0.9,0.4,1.4,0.5c0.6,0.4,1.2,0.7,2.1,0.5c0.1,0,0.5-0.2,0.5-0.2c0,0,0,0,0,0c0,0-0.1,0-0.1,0.1
				c-0.5,0.2,0,0,0.1,0c0,0,0.1,0,0.1,0c0.7,0.2,1.4,0.2,2.1,0.1c0.7,0.2,1.3,0.2,2.1-0.1c0.5-0.2,0.9-0.4,1.2-0.8c0,0,0,0,0,0
				c0.4,0,0.8-0.1,1.2-0.2c0.6-0.2,1-0.5,1.3-0.9c0.7-0.2,1.1-0.8,1.3-1.5c0.4-0.3,0.7-0.6,0.8-1.1c0.6-0.4,0.9-1,1-1.8
				c0-0.2,0-0.4,0.1-0.5c0-0.2,0.1-0.1,0.1,0.1c-0.1,0.2-0.1,0.2,0,0.1c0,0,0,0,0,0c0,0,0,0,0-0.1c0,0,0,0,0,0c0,0,0,0,0,0
				C229.4,62.6,229.5,62.5,229.6,62.3z M230.2,56.7c0,0.1,0,0.2-0.1,0.1C230.1,56.8,230.2,56.8,230.2,56.7z M204.9,28.1
				c0,0,0.1,0,0.1,0C204.9,28.1,204.9,28.1,204.9,28.1z M226.8,38.9c0-0.1,0-0.1,0-0.2C226.8,38.7,226.8,38.8,226.8,38.9z
				 M205.1,28.1C205.1,28.1,205.1,28.1,205.1,28.1c0,0-0.1,0-0.2-0.1C205,28,205.1,28.1,205.1,28.1z M179.8,37.9c0,0,0-0.1,0-0.1
				C179.9,37.8,179.9,37.8,179.8,37.9z M181.8,45.4C181.8,45.4,181.8,45.4,181.8,45.4C181.8,45.4,181.8,45.4,181.8,45.4z"/>
		</defs>
		<use xlink:href="#XMLID_7_"  style="overflow:visible;fill:#096A52;"/>
		<clipPath id="XMLID_28_">
			<use xlink:href="#XMLID_7_"  style="overflow:visible;"/>
		</clipPath>
	</g>
</g>
<path class="st4" d="M169.7,343c0,0,2.2,1,2.3,5.4c0.1,4.4,1.2,8-1.1,9.5c-2.3,1.5-4.8,0.1-5.2-1.8c-0.3-1.2-0.9-5.1-0.8-7.5
	C165,346,164.8,342.2,169.7,343z"/>
<path class="st12" d="M29.6,145.6c0,0-4.6,1.2-6.9,5.6c-2.3,4.3-1.1,6.8,0.8,7.9c2,1.2,4.7,0.6,5.6-2.7
	C30.3,151.7,26.5,151.9,29.6,145.6z"/>
<path class="st12" d="M37.4,108c0,0-2.3,0.9-3.6,3.8c-1.3,2.9-0.7,4.4,0.2,5.1c1,0.7,2.4,0.3,2.9-1.9
	C37.6,111.9,35.7,112.1,37.4,108z"/>
<path class="st12" d="M187.1,242.8c0,0,2.3,0.9,3.6,3.8c1.3,2.9,0.7,4.4-0.2,5.1c-1,0.7-2.4,0.3-2.9-1.9
	C186.9,246.7,188.8,246.9,187.1,242.8z"/>
<path class="st12" d="M38.9,90.9c0,0-2.5,0.1-4.6,2.5s-2,4-1.4,4.9c0.7,1,2.2,1,3.3-0.9C37.9,94.6,36,94.2,38.9,90.9z"/>
<path class="st12" d="M44.3,117.8c0,0-4.2,1.9-4.8,6.6c-0.6,4.7,3.4,4,3.8,1.9C43.6,124.3,42.1,122.5,44.3,117.8z"/>
<path class="st13" d="M61.4,108.1c0.3-1.6-0.6-3.2-2.1-4.1c0.4-0.2,0.6-0.5,0.7-0.9c0.1-0.9-0.9-1.8-2.3-2.1c-0.7-2.1-3-3.8-5.8-4.3
	c-3.8-0.6-7.3,1.2-7.8,4.2c-0.1,0.8,0,1.6,0.3,2.4c-2,0.2-3.7,1.4-4,3.2c-0.4,2.2,1.5,4.3,4.1,4.7c0.5,0.1,1,0.1,1.5,0.1
	c0.5,1.8,2.1,3.3,4.3,3.7c2.1,0.4,4.1-0.4,5.2-1.9c0.4,0.7,1.1,1.2,1.9,1.3c1.5,0.3,3-0.8,3.2-2.3c0.1-0.7-0.1-1.5-0.4-2
	C60.8,109.6,61.2,108.9,61.4,108.1z"/>
<path class="st13" d="M287.3,149.5c0,0,0-0.1,0-0.1c0.5-3-2.7-6-7.1-6.7c-1.6-0.3-3.1-0.2-4.4,0.1c-0.8-2.5-3.1-4.5-6-5
	c-4.1-0.7-7.9,1.8-8.5,5.5c-0.3,1.6,0.1,3.3,1,4.6c-4.2-0.1-7.2,0.8-7.5,2.4c-0.3,2,4,4.5,9.9,5.7c1.2,0.9,3.2,1.6,5.4,2
	c1.5,0.3,3,0.3,4.2,0.2c0.5,1.3,2,2.4,3.9,2.7c2.2,0.4,4.2-0.4,4.9-1.8c0.2,0.1,0.5,0.1,0.7,0.2c4.4,0.7,8.3-0.9,8.7-3.8
	C293,153.1,290.7,150.7,287.3,149.5z"/>
<path class="st13" d="M100,92.3c0.9-5.1-3.5-10-9.7-11.1c0,0,0,0,0,0c0.7-4.8-2.1-9.2-6.2-9.9c-2.9-0.5-5.8,1-7.6,3.6
	c-1.2-0.6-2.5-1.1-3.9-1.3C66,72.5,59.9,76.2,59,81.8c-0.7,4,1.4,7.9,5,10.2c0.3,3.7,3.3,7,7.4,7.7c2,0.3,3.9,0,5.5-0.7
	c1.1,1.5,2.9,2.7,5.1,3.1c1.7,0.3,3.3,0.1,4.6-0.5c0.7,0.6,1.5,1,2.5,1.2c2.8,0.5,5.5-1.4,6-4.3C97.7,97.2,99.6,95,100,92.3z"/>
<path class="st13" d="M263.7,178.5c1-5.6-3.9-11.1-10.7-12.3c0,0,0,0,0,0c0.8-5.3-2.3-10.3-6.9-11c-3.3-0.6-6.5,1.1-8.4,4
	c-1.3-0.7-2.8-1.2-4.4-1.4c-7.3-1.2-14.1,2.9-15.2,9.1c-0.8,4.4,1.6,8.8,5.6,11.4c0.3,4.1,3.6,7.8,8.2,8.5c2.2,0.4,4.3,0,6.1-0.8
	c1.2,1.7,3.2,3,5.7,3.4c1.9,0.3,3.7,0.1,5.1-0.6c0.8,0.7,1.7,1.1,2.8,1.3c3.2,0.5,6.1-1.6,6.7-4.7
	C261.1,183.9,263.2,181.5,263.7,178.5z"/>
</svg>
