<?xml version="1.0" encoding="utf-8"?>
<!-- Generator: Adobe Illustrator 24.3.0, SVG Export Plug-In . SVG Version: 6.00 Build 0)  -->
<svg version="1.1" id="圖層_5" xmlns="http://www.w3.org/2000/svg" xmlns:xlink="http://www.w3.org/1999/xlink" x="0px" y="0px"
	 viewBox="0 0 333 432.4" style="enable-background:new 0 0 333 432.4;" xml:space="preserve">
<style type="text/css">
	.st0{opacity:0.8;fill:#2D2D2D;}
	.st1{fill:#F8D4D9;}
	.st2{fill:#FFF0F3;}
	.st3{fill:#B7B1B6;}
	.st4{fill:#3D3A39;}
	.st5{fill:#6CB1D0;}
	.st6{fill:#FFFFFF;}
	.st7{fill:#5CB4CC;}
	.st8{clip-path:url(#SVGID_2_);fill:#6CB1D0;}
	.st9{fill:#F7E7D6;}
	.st10{fill:#FFF0E6;}
	.st11{fill:#3D3939;}
	.st12{fill:#276B82;}
</style>
<ellipse class="st0" cx="164.2" cy="396.5" rx="122" ry="17"/>
<path class="st1" d="M130.9,209l-16.7-9.5c-11.5,19-15.1,48.1-15.1,48.1c-0.4,3.4,1.6,9.2,7.1,10.2c4.9,1,9.2-3.4,11.8-14.1
	c0.1-0.5,5.6-16.2,8.2-23.4c0.4-1.1,0.5-2,0.3-2.9C129,212.4,130.9,209,130.9,209z"/>
<path class="st2" d="M191.1,316.3l17.7,64.8c1.3,4.6,8.5,2.7,7.2-2l-17.7-64.8C197.1,309.7,191.1,316.3,191.1,316.3"/>
<path class="st2" d="M137.7,316.5l-3.1,67.1c-0.2,4.8,7.2,5.1,7.5,0.3l3.1-67.1C145.3,312,137.7,316.5,137.7,316.5"/>
<g>
	<path class="st3" d="M140.6,386.7l-5.9,0.1c0,0-5.2,0.7-7.2,2.6c-2.1,1.9,1.1,4.1,1.1,4.1l14.1-0.1
		C142.6,393.4,145.7,386.6,140.6,386.7"/>
	<path class="st4" d="M128.5,393.5l0,0.8c0,0,0,0.3,0.2,0.4c0.2,0.1,14-0.1,14-0.1s0.2-0.6,0-1.2
		C141.9,393.4,128.5,393.5,128.5,393.5"/>
</g>
<g>
	<path class="st3" d="M214.9,382.2l-5.4,2.4c0,0-4.5,2.7-5.6,5.2c-1.2,2.6,2.6,3.4,2.6,3.4l13-5.7
		C219.4,387.5,219.6,380.1,214.9,382.2"/>
	<path class="st4" d="M206.5,393.2l0.3,0.8c0,0,0.1,0.3,0.3,0.3c0.2,0,12.8-5.6,12.8-5.6s0-0.6-0.5-1.1
		C218.7,387.8,206.5,393.2,206.5,393.2"/>
</g>
<path class="st5" d="M117,279.2c-4.8,23.9-5.6,46.3-5.7,73.4c0,3.3,1.6,6.4,5.1,6.9c43.1,6.1,77.6,4.1,120.6-2.2
	c3.4-0.5,5.7-3.6,5-6.8c-5-23.5-9.9-47.1-14.5-70.7C190.8,284.9,153.6,284.8,117,279.2"/>
<path class="st6" d="M220.5,217.9c0-4.9-4.4-8.9-9.9-8.9c-1.4,0-2.8,0.3-4,0.8c-6.5-4-19.3-6.8-34-6.8c-14.9,0-27.8,2.8-34.2,6.9
	c-1.3-0.6-2.8-0.9-4.4-0.9c-5.4,0-9.9,4-9.9,8.9c0,4.5,3.7,8.2,8.5,8.8c1.4,3.4,5,5.8,9.2,5.8c0.5,0,1,0,1.5-0.1
	c1.8,2,4.6,3.3,7.7,3.3c1.2,0,2.4-0.2,3.5-0.6c1.7,1.3,3.9,2.1,6.3,2.1c2,0,3.9-0.6,5.5-1.5c1.7,1.2,3.8,1.9,6.1,1.9
	c2.2,0,4.3-0.7,6-1.8c1.5,0.9,3.4,1.4,5.3,1.4c2.4,0,4.6-0.8,6.3-2.1c1.1,0.4,2.3,0.6,3.5,0.6c3.1,0,5.9-1.3,7.7-3.3
	c0.5,0.1,1,0.1,1.6,0.1c4.2,0,7.9-2.4,9.2-5.8C216.9,225.9,220.5,222.3,220.5,217.9"/>
<path class="st7" d="M328.8,134.2c0,17.4-14.1,31.6-31.6,31.6c-17.4,0-31.6-14.1-31.6-31.6c0-17.4,14.1-31.6,31.6-31.6
	C314.7,102.7,328.8,116.8,328.8,134.2"/>
<path class="st7" d="M79.1,134.2c0,17.4-14.1,31.6-31.6,31.6c-17.4,0-31.6-14.1-31.6-31.6c0-17.4,14.1-31.6,31.6-31.6
	C65,102.7,79.1,116.8,79.1,134.2"/>
<path class="st1" d="M124,193.8l-1,67.9l-13,27.9c-0.1,0.9,0.2,1.7,0.7,2.3c0.5,0.6,1.3,1,2.2,1c37.2,6.2,77,6.1,119.4,0
	c0.9,0,1.7-0.4,2.3-1c0.5-0.6,0.8-1.5,0.7-2.4l-13.1-27.8l-3.1-67.8l-47.6,0L124,193.8z"/>
<g>
	<defs>
		<path id="SVGID_1_" d="M171.6,193.8l-47.6,0l-1,67.9l-13,27.9c-0.1,0.9,0.2,1.7,0.7,2.3c0.5,0.6,1.3,1,2.2,1
			c37.2,6.2,77,6.1,119.4,0c0.9,0,1.7-0.4,2.3-1c0.5-0.6,0.8-1.5,0.7-2.4l-13.1-27.8l-3.1-67.8L171.6,193.8z"/>
	</defs>
	<clipPath id="SVGID_2_">
		<use xlink:href="#SVGID_1_"  style="overflow:visible;"/>
	</clipPath>
	<path class="st8" d="M184.3,193.2c-25.8,23.1-38.5,39.2-67.9,45.5l-0.5,11.2c29.3-6.8,46.7-22.4,68.4-45.7V193.2z"/>
</g>
<path class="st9" d="M60,162.9c0,0-12.5-3.4-9,8.7c3.5,12.1,16.1,12.9,20.2,9C75.4,176.8,60,162.9,60,162.9"/>
<path class="st9" d="M283.3,162.9c0,0,12.5-3.4,9,8.7c-3.5,12.1-16,12.9-20.2,9C267.9,176.8,283.3,162.9,283.3,162.9"/>
<path class="st9" d="M292.7,122.8c4.9,65.1-52.6,97.4-122.4,97.4c-70.4,0-122.7-30.9-122.7-97.4c0-56.9,54.9-102.9,122.6-102.9
	C237.8,19.9,288.5,66.2,292.7,122.8"/>
<path class="st5" d="M55.2,162.4h192.9l1.7-27.9l2.3,27.9h4.2l1.9-12.3l2.8,12.3h29.3c0,0,33.1-96.1-45.9-142.3
	C193.9-3.8,173.9,4.1,166.9,4c-7-0.1-46.3-10.4-88.1,33.7c-41.8,44.1-34,80.2-31.3,97c0.7,4.2,6.1,27.7,6.1,27.7H55.2z"/>
<path class="st6" d="M133.8,383.8c0.3,0,0.5,0.1,0.7,0.3c0.1-1,0.7-1.8,1.5-1.8c0.5,0,0.9,0.3,1.1,0.8c0.3-0.7,0.8-1.1,1.4-1.1
	c0.6,0,1.1,0.5,1.3,1.2c0.3-0.5,0.7-0.7,1.2-0.7c0.8,0,1.4,0.9,1.4,2c0,0,0,0,0,0c0.2-0.2,0.5-0.3,0.8-0.3c0.8,0,1.4,0.9,1.4,2
	c0,1.1-0.7,1.9-1.5,1.9c-0.5,0-0.9-0.3-1.1-0.8c-0.9,0.4-2.2,0.6-3.7,0.6c-1.4,0-2.7-0.3-3.6-0.8c-0.3,0.4-0.7,0.6-1.1,0.6
	c-0.8,0-1.4-0.9-1.4-2C132.3,384.6,133,383.8,133.8,383.8"/>
<path class="st6" d="M207.8,381.8c0.3-0.1,0.5-0.1,0.8,0c-0.3-1,0.1-1.9,0.9-2.2c0.5-0.1,0.9,0,1.3,0.4c0-0.7,0.4-1.3,1-1.5
	c0.6-0.2,1.2,0.1,1.6,0.7c0.1-0.5,0.4-0.9,0.9-1.1c0.8-0.2,1.7,0.4,2,1.4c0,0,0,0,0,0c0.2-0.3,0.4-0.5,0.7-0.6
	c0.8-0.2,1.7,0.4,2,1.4c0.3,1-0.1,2-0.9,2.3c-0.4,0.1-0.9,0-1.3-0.4c-0.7,0.7-1.9,1.3-3.3,1.7c-1.4,0.4-2.7,0.6-3.7,0.4
	c-0.1,0.5-0.4,0.8-0.9,0.9c-0.8,0.2-1.7-0.4-2-1.4C206.7,383,207.1,382,207.8,381.8"/>
<path class="st1" d="M228.3,111.9c11.5-4.3,22.5-6.9,33.6-12.3c6-2.9,12.1-8.3,18-11.3c4.5-2.3,1.6,6.1-0.9,7.4
	c-3,1.5-5.9,3-8.9,4.5c4.3,1.1,8.6,2.4,12.9,3.7c5.5,1.7,3.5,8.9-1.9,7.2c-5.4-1.7-10.9-3.3-16.4-4.5c0.4,0.1-1.5-0.2-2-0.3
	c-0.1,0-0.2,0-0.2,0c-1,0-1.9-0.3-2.8-0.9c-11,5.3-22.3,10.2-33.7,14.5C222.2,121.3,225.7,112.9,228.3,111.9"/>
<path class="st9" d="M116.8,209.2c0,0,3.2-6.2,3.1-7.8c0-1.1-0.9-1.2-2.5-0.3c1.3-3.7,1.3-8.3-1.4-8c-2.7,0.3-5.6,14-5.8,16.3
	C110.3,209.4,111.4,215.9,116.8,209.2"/>
<path class="st10" d="M228.7,205c0,0,0.8-11.9-7.8-11.2c-8.6,0.7-9.1,5.6-3.6,4.9c0,0,0.7,11.4,5.7,9.9
	C228.1,207.2,228.7,205,228.7,205z"/>
<path class="st1" d="M213.9,212.2l22.2-4.7c0,0,17.2,53.5,3.4,56.3C227.8,266.1,220,242.1,213.9,212.2z"/>
<path class="st6" d="M234.2,202.7c-0.6,0.1-1.2,0.4-1.6,0.8c-0.4-1.6-2.2-2.6-3.9-2.2c-1.1,0.2-2,0.9-2.4,1.8
	c-0.7-0.9-2.1-1.4-3.4-1.2c-1.4,0.3-2.4,1.3-2.7,2.4c-0.8-0.6-1.8-0.9-2.9-0.7c-1.9,0.4-3.1,2.1-2.7,3.7c0,0,0,0,0,0.1
	c-0.6-0.2-1.3-0.3-2-0.1c-1.9,0.4-3.1,2.1-2.7,3.7c0.3,1.7,2.1,2.7,4,2.3c1.1-0.2,1.9-0.9,2.4-1.7c2.1,0.2,5.2,0,8.6-0.7
	c3.3-0.7,6.2-1.7,8.1-2.8c0.7,0.5,1.7,0.7,2.7,0.5c1.9-0.4,3.1-2.1,2.7-3.7C237.9,203.3,236.1,202.3,234.2,202.7"/>
<path class="st10" d="M106.7,205.9c0,0,0.4-9.5,4.9-10.2c4.5-0.8,7.7-0.2,8.9,0.9c1.2,1.1-2.2,3.9-2.2,3.9s-0.5,9.3-4.8,8.9
	C109.2,209,106.7,205.9,106.7,205.9z"/>
<path class="st1" d="M120.6,211.8l-19.7-3.7c-7.7,21.6-4.4,46.2-4.4,46.2c0.6,3.4,1.6,9.7,6.2,11.5c2.7,1.1,5.5,1.1,7.6,0.1
	c3.9-1.8,4.3-10,6.7-20.8c3.3-15,6.6-32.7,6.6-32.7L120.6,211.8z"/>
<path class="st6" d="M122.1,208c-0.6-0.1-1.1-0.1-1.7,0.1c0.2-1.5-0.9-3-2.6-3.3c-1-0.2-2,0.1-2.7,0.6c-0.3-1.1-1.3-2-2.5-2.2
	c-1.3-0.2-2.5,0.2-3.2,1.1c-0.4-0.8-1.2-1.4-2.3-1.6c-1.7-0.3-3.4,0.7-3.7,2.2c0,0,0,0,0,0.1c-0.4-0.4-1-0.7-1.7-0.8
	c-1.7-0.3-3.4,0.7-3.7,2.2c-0.3,1.6,0.8,3.1,2.6,3.4c1,0.2,2-0.1,2.7-0.6c1.8,1,4.5,1.9,7.6,2.5c3.1,0.6,5.9,0.8,7.9,0.5
	c0.5,0.7,1.2,1.2,2.1,1.4c1.7,0.3,3.4-0.7,3.7-2.2C125,209.9,123.8,208.4,122.1,208"/>
<g>
	<g>
		<path class="st11" d="M109.5,189.4c3.1,0.3,6.2,0.5,9.3,0.8c0-0.3-0.1-0.7-0.1-1c-3.4,0.9-6.7,1.8-10.1,2.6
			c-0.6,0.1-0.4,1.1,0.3,1c3.4-0.8,6.7-1.7,10.1-2.6c0.6-0.2,0.4-0.9-0.1-1c-3.1-0.3-6.2-0.5-9.3-0.8
			C108.9,188.4,108.9,189.4,109.5,189.4L109.5,189.4z"/>
	</g>
</g>
<g>
	<g>
		<path class="st11" d="M219.8,188.4c3.2-0.4,6.3-0.8,9.5-1.2c0.6-0.1,0.6-1.1,0-1c-3.2,0.4-6.3,0.8-9.5,1.2
			C219.2,187.5,219.2,188.5,219.8,188.4L219.8,188.4z"/>
	</g>
</g>
<g>
	<g>
		<path class="st11" d="M220,188.6c3.7,0.8,7.4,1.7,11.1,2.7c0.6,0.2,0.9-0.8,0.3-1c-3.7-1-7.4-1.9-11.1-2.7
			C219.6,187.5,219.4,188.4,220,188.6L220,188.6z"/>
	</g>
</g>
<g>
	<g>
		<path class="st11" d="M157.1,199.5c-0.1-0.3,0.3-0.3,0.5-0.4c0.3,0,0.6,0.1,0.9,0.3c0.6,0.3,1.2,0.6,1.9,0.4
			c0.5-0.1,0.9-0.5,1.2-0.8c0.5-0.5,0.8-0.7,1.5-0.3c0.9,0.6,1.7,1,2.7,0.4c0.4-0.2,0.7-0.6,1.1-0.8c0.5-0.4,0.8-0.4,1.3,0
			c0.9,0.7,1.7,0.5,2.5-0.1c0.3-0.2,0.7-0.6,1.1-0.7c0.5-0.1,0.8,0.6,1.2,0.9c0.4,0.3,0.8,0.3,1.2,0.1c0.4-0.2,0.8-0.8,1.2-0.8
			c0.4,0,0.8,0.7,1.2,0.9c0.4,0.3,0.9,0.2,1.4,0.1c0.5-0.2,0.9-0.7,1.4-0.9c0.6-0.2,0.9,0.7,1.3,1c0.6,0.5,1.3,0.4,2,0.2
			c0.3-0.1,0.7-0.3,1-0.3c0.2,0,0.8,0,0.8,0.3c-0.1,0.6,0.9,0.9,1,0.3c0.2-1.3-1.2-1.8-2.2-1.5c-0.4,0.1-0.8,0.3-1.2,0.4
			c-0.5,0.1-0.7-0.2-1-0.5c-0.4-0.5-0.8-0.9-1.4-0.9c-0.6,0-1,0.3-1.5,0.6c-0.6,0.4-0.9,0.6-1.5,0.1c-0.4-0.4-0.8-0.8-1.4-0.7
			c-0.6,0-0.9,0.5-1.4,0.8c-0.3,0.2-0.4,0.1-0.7-0.2c-0.2-0.2-0.4-0.5-0.6-0.6c-0.4-0.3-0.9-0.2-1.4,0c-0.5,0.2-0.9,0.6-1.3,0.9
			c-0.2,0.1-0.4,0.2-0.6,0.3c-0.4,0-0.6-0.3-0.9-0.5c-1-0.7-1.9,0-2.8,0.7c-0.4,0.3-0.8,0.7-1.3,0.5c-0.6-0.2-1-0.8-1.7-0.9
			c-0.7-0.1-1.2,0.3-1.6,0.7c-0.3,0.2-0.5,0.6-0.8,0.7c-0.5,0.2-1-0.2-1.5-0.4c-0.6-0.3-1.2-0.4-1.9-0.1c-0.6,0.3-0.9,0.8-0.7,1.4
			C156.3,200.3,157.3,200.1,157.1,199.5L157.1,199.5z"/>
	</g>
</g>
<path class="st12" d="M122.9,256.8c0,0,50.1,11.3,99.3,0l1.5,7.9c0,0-37.8,13.6-102.6,0.9L122.9,256.8z"/>
</svg>
