<?xml version="1.0" encoding="utf-8"?>
<!-- Generator: Adobe Illustrator 24.3.0, SVG Export Plug-In . SVG Version: 6.00 Build 0)  -->
<svg version="1.1" id="圖層_6" xmlns="http://www.w3.org/2000/svg" xmlns:xlink="http://www.w3.org/1999/xlink" x="0px" y="0px"
	 viewBox="0 0 410.8 482.6" style="enable-background:new 0 0 410.8 482.6;" xml:space="preserve">
<style type="text/css">
	.st0{opacity:0.8;}
	.st1{fill:#FFFFFF;}
	.st2{fill:#F0867A;}
	.st3{clip-path:url(#XMLID_10_);}
	.st4{fill:#B5B5B5;}
	.st5{fill:url(#SVGID_1_);}
	.st6{fill:#EFEFEF;}
	.st7{fill:#FFFFFF;stroke:#FFFFFF;stroke-miterlimit:10;}
	.st8{clip-path:url(#SVGID_3_);fill:#E0B190;}
	.st9{clip-path:url(#SVGID_3_);fill:#D88A4B;}
	.st10{clip-path:url(#SVGID_3_);}
	.st11{clip-path:url(#SVGID_3_);fill:#E5D5C5;}
	.st12{clip-path:url(#SVGID_3_);fill:#E0A469;}
	.st13{clip-path:url(#SVGID_3_);fill:#544B47;}
	.st14{clip-path:url(#SVGID_3_);fill:#CB783C;}
	.st15{clip-path:url(#SVGID_3_);fill:#383532;}
	.st16{clip-path:url(#SVGID_3_);fill:#D0BFAD;}
	.st17{clip-path:url(#SVGID_3_);fill:#FFFFFF;}
	.st18{clip-path:url(#SVGID_3_);fill:#24211F;}
	.st19{clip-path:url(#SVGID_3_);fill:#263C5B;}
	.st20{clip-path:url(#SVGID_3_);fill:#5F554E;}
	.st21{clip-path:url(#SVGID_3_);fill:#A45E29;}
	.st22{clip-path:url(#SVGID_3_);fill:#B65E43;}
	.st23{clip-path:url(#XMLID_20_);}
	.st24{fill:#EDEDED;}
	.st25{clip-path:url(#XMLID_20_);fill:#EDEDED;}
	.st26{clip-path:url(#XMLID_21_);}
	.st27{clip-path:url(#XMLID_21_);fill:#FFC866;}
</style>
<g class="st0">
	<defs>
		
			<ellipse id="XMLID_15_" transform="matrix(0.9997 -2.478853e-02 2.478853e-02 0.9997 -10.7205 5.542)" class="st0" cx="218.2" cy="435.2" rx="176.8" ry="24.1"/>
	</defs>
	<use xlink:href="#XMLID_15_"  style="overflow:visible;fill:#707070;"/>
	<clipPath id="XMLID_7_">
		<use xlink:href="#XMLID_15_"  style="overflow:visible;"/>
	</clipPath>
</g>
<g>
	<defs>
		
			<ellipse id="XMLID_5_" transform="matrix(0.8897 -0.4566 0.4566 0.8897 -161.2958 182.4059)" cx="296.8" cy="425" rx="7" ry="11.5"/>
	</defs>
	<use xlink:href="#XMLID_5_"  style="overflow:visible;fill:#A54038;"/>
	<clipPath id="XMLID_8_">
		<use xlink:href="#XMLID_5_"  style="overflow:visible;"/>
	</clipPath>
</g>
<g>
	<defs>
		
			<ellipse id="XMLID_6_" transform="matrix(0.808 -0.5892 0.5892 0.808 -215.8311 195.1638)" cx="191.5" cy="428.7" rx="11" ry="6.8"/>
	</defs>
	<use xlink:href="#XMLID_6_"  style="overflow:visible;fill:#A54038;"/>
	<clipPath id="XMLID_9_">
		<use xlink:href="#XMLID_6_"  style="overflow:visible;"/>
	</clipPath>
</g>
<g>
	<g>
		<path class="st1" d="M148.1,381.5c13.9,14.8,27.7,29.6,41.6,44.4c3.3,3.5,8.6-1.8,5.3-5.3c-13.9-14.8-27.7-29.6-41.6-44.4
			C150.1,372.6,144.8,378,148.1,381.5L148.1,381.5z"/>
	</g>
</g>
<g>
	<g>
		<path class="st1" d="M256.6,367.7c10.7,17.5,21.6,34.9,32.6,52.2c2.6,4.1,9.1,0.3,6.5-3.8c-11-17.3-21.9-34.7-32.6-52.2
			C260.5,359.8,254,363.6,256.6,367.7L256.6,367.7z"/>
	</g>
</g>
<g>
	<g>
		<path class="st1" d="M66.5,338.2c-2.2-9.9-2.4-20.2-0.6-30.2c1-5.3,2.7-10.8,6.8-14.2c0.4-0.3,0.8-0.6,1.2-0.6
			c1-0.1,1.6,1.1,1.9,2.1c1.5,5.7,0.1,11.7-1.4,17.4c1.6-2.4,3.6-4.5,5.9-6.2c0.8-0.6,1.8-1.1,2.6-0.7c0.8,0.5,0.9,1.6,0.8,2.5
			c-0.3,4.3-1.4,8.6-3.2,12.5c1.6-3,4.2-5.6,7.2-7.2c0.8-0.4,1.7-0.8,2.5-0.3c0.9,0.5,0.9,1.7,0.8,2.7c-0.4,3.5-1.8,6.9-3.9,9.7
			c1.6-1.9,3.5-3.4,5.6-4.6c0.4-0.2,0.8-0.4,1.3-0.4c1.1,0.2,1.2,1.7,1,2.7c-0.4,1.9-1.1,3.8-2,5.5c1.2-1.6,2.7-2.9,4.4-4
			c0.9-0.6,2.2-1.1,3.1-0.3c0.4,0.3,0.5,0.9,0.7,1.4c0.3,1.6,0.3,3.3-0.1,4.8c0,0-7.1,3.7-16.9,5.7S66.5,338.2,66.5,338.2z"/>
		<g>
			<path class="st1" d="M67,338c-2-9.1-2.4-18.6-1-27.8c0.6-3.9,1.4-7.8,3.2-11.3c0.9-1.7,2-3.2,3.4-4.5c0.7-0.6,1.5-1.3,2.2-0.3
				c0.5,0.8,0.7,1.9,0.8,2.8c0.9,5.2-0.5,10.4-1.8,15.4c-0.1,0.6,0.6,0.8,0.9,0.4c1.2-1.8,2.6-3.4,4.2-4.8c0.8-0.7,1.6-1.6,2.6-1.9
				c1.1-0.4,1.6,0.5,1.6,1.5c0.1,2.1-0.4,4.4-0.9,6.4c-0.5,2.2-1.3,4.4-2.2,6.4c-0.3,0.6,0.6,1.1,0.9,0.5c1-1.8,2.3-3.5,3.9-4.8
				c0.8-0.7,1.6-1.3,2.5-1.8c0.8-0.4,2.2-1.4,2.9-0.5c0.6,0.7,0.4,1.8,0.2,2.6c-0.2,1-0.4,2.1-0.7,3.1c-0.7,2.1-1.7,4.1-3,5.9
				c-0.3,0.5,0.4,1,0.8,0.6c0.9-1.1,1.9-2.1,3.1-2.9c0.5-0.4,1.1-0.8,1.6-1.1c0.5-0.3,1.4-1,2-0.7c0.9,0.6,0.3,2.4,0.1,3.1
				c-0.4,1.5-1,2.9-1.7,4.3c-0.3,0.5,0.4,1.1,0.8,0.6c0.7-0.9,1.5-1.7,2.4-2.5c0.9-0.7,1.9-1.6,3-2c0.5-0.2,1.1-0.3,1.5,0.2
				c0.4,0.4,0.5,1.1,0.6,1.7c0.2,1.3,0.1,2.7-0.2,3.9c0.1-0.1,0.2-0.2,0.2-0.3c-3.3,1.7-6.9,3-10.5,4.1c-6.4,1.9-13,3-19.7,3.2
				c-1.4,0.1-2.8,0.1-4.2,0c-0.6,0-0.6,1,0,1c2,0.1,4.1,0,6.1-0.1c4.7-0.3,9.4-0.9,13.9-2c3.9-0.9,7.8-2.2,11.5-3.8
				c1-0.4,1.9-0.8,2.8-1.3c0.1-0.1,0.3-0.1,0.5-0.2c0.3-0.2,0.3-0.6,0.4-0.9c0.1-0.6,0.2-1.2,0.2-1.9c0-1.2,0-2.7-0.6-3.7
				c-0.6-1-1.7-1.2-2.8-0.9c-1.1,0.3-2.1,1.1-3,1.8c-1.1,0.9-2,1.8-2.9,2.9c0.3,0.2,0.5,0.4,0.8,0.6c0.9-1.6,1.5-3.4,1.9-5.2
				c0.2-1.1,0.4-2.7-0.6-3.5c-1.3-1-3.1,0.5-4.2,1.3c-1.4,1-2.7,2.2-3.8,3.5c0.3,0.2,0.5,0.4,0.8,0.6c1.2-1.6,2.1-3.4,2.8-5.2
				c0.6-1.7,1.2-3.7,1.2-5.6c0-1.6-1.1-2.9-2.8-2.6c-0.9,0.2-1.8,0.8-2.6,1.3c-0.8,0.5-1.5,1-2.2,1.6c-1.6,1.4-2.9,3.1-4,5
				c0.3,0.2,0.6,0.3,0.9,0.5c1.7-3.7,2.8-7.7,3.2-11.9c0.1-1.4,0.3-3.5-1.4-4c-1.7-0.5-3.4,1.3-4.5,2.3c-1.6,1.5-3.1,3.2-4.3,5
				c0.3,0.1,0.6,0.3,0.9,0.4c1.2-4.8,2.5-9.7,1.9-14.7c-0.1-1.1-0.3-2.3-0.7-3.4c-0.3-0.7-0.7-1.5-1.4-1.9c-0.9-0.4-1.7,0-2.4,0.6
				c-0.8,0.7-1.5,1.4-2.1,2.2c-2.5,3.2-3.8,7.2-4.6,11.1c-1,4.8-1.4,9.8-1.4,14.7c0,5.7,0.6,11.3,1.9,16.9
				C66.2,338.9,67.1,338.7,67,338z"/>
		</g>
	</g>
	<path class="st2" d="M165.2,250.9c-23.1,3.2-49,7.8-49,7.8L165.2,250.9z"/>
	<path class="st2" d="M80.8,281.2L80.8,281.2C80.9,281.1,80.8,281.1,80.8,281.2C80.8,281.1,80.8,281.1,80.8,281.2z"/>
	<path class="st2" d="M244.1,248.7c23.1,3.2,49,7.8,49,7.8L244.1,248.7z"/>
	<g>
		<defs>
			<path id="XMLID_3_" d="M33.4,340.4L32.1,353c0,0,48,33.7,180.9,28.3c143.8-5.8,174.3-36.6,174.3-36.6l-1.3-11.8l-151.2,24.4
				L110.3,352C110.3,352,61.3,333.5,33.4,340.4z"/>
		</defs>
		<use xlink:href="#XMLID_3_"  style="overflow:visible;fill:#DDDDDD;"/>
		<clipPath id="XMLID_10_">
			<use xlink:href="#XMLID_3_"  style="overflow:visible;"/>
		</clipPath>
		<g class="st3">
			<g>
				<path class="st4" d="M36.6,353.5c-1.9-1.7-3-5.2-3-7.7c0-1.2,0.2-2.8,1.4-3.4c1.8-1,4.3,0.4,4.8,2.2c0.4,1.4-0.5,2.9-0.9,4.2
					c-0.5,1.4-1.2,2.8-1.5,4.3c-0.6,2.3,0.6,4.4,2.9,5.2c5.4,1.7,5.7-6,3.7-9c-0.7-1-1.6-1.9-1.8-3.2c-0.2-1.2,0.2-2.4,1.7-2.3
					c0.9,0.1,1.9,0.7,2.5,1.4c2,2,2,5.2,1.6,7.8c-0.4,2.8-2,8,2.1,8.9c1.6,0.3,4.6,0.3,5.2-1.6c0.7-2.2-1-4.6-2.2-6.1
					c-1.2-1.6-3.2-3.6-1.8-5.6c1.8-2.6,5.1-1.4,5.9,1.3c1.1,3.7-0.8,7.5-0.1,11.2c0.4,2.2,1.7,4,3.8,4.9c1.6,0.6,4.4,1,5-1.2
					c0.5-2.2-1.3-5-2.3-6.9c-0.9-1.8-2.1-3.7-2.6-5.7c-0.4-2,1.4-2.9,3.1-3.1c3.5-0.2,6.1,3.7,5.6,6.9c-0.5,2.8-2.1,5.4-2.2,8.3
					c-0.1,2.3,0.8,5,3.5,5.2c2.1,0.2,4.6-1.4,4.9-3.6c0.4-3.4-4.7-6.7-2.6-10.1c2-3.2,8.4-1,8.9,2.4c0.4,2.9-3.2,4.9-3.4,7.8
					c-0.1,2.2,1,4.3,3,5.2c1.8,0.9,4.9,1.2,6-0.9c1-1.8-0.5-4.2-1.3-5.8c-1.4-2.7-1.9-6.9,1.9-7.9c3.6-1,6.7,2.6,6.1,6.1
					c-0.6,3.2-3.1,6.1-2.2,9.5c0.7,2.5,3.1,3.9,5.6,2.9c2-0.8,3.6-2.8,3.2-5c-0.6-3.2-5.1-6.3-2.8-9.7c1.2-1.8,3.9-2.3,5.5-0.7
					c1.4,1.4,1.6,4.1,1.7,5.9c0.2,2.4-0.1,4.8-0.6,7.1c-0.3,1.3-0.6,2.6,0.3,3.7c1.3,1.6,3.9,1.1,5.5,0.2c2.2-1.3,2.9-3.2,2.1-5.6
					c-0.5-1.5-1.5-2.8-2.1-4.3c-0.8-2.1-0.1-4,1.9-5.1c2.3-1.3,4.4,0.1,4.7,2.6c0.3,2.4,0,4.9-0.9,7.2c-0.8,2.1-2.9,5.5,0.3,6.8
					c2,0.8,4.5-0.2,5.8-1.8c2-2.3,0.1-5.3-1-7.6c-0.7-1.6-1.2-3.3-0.2-4.8c1.1-1.8,3.6-2.2,5.4-1.1c4.2,2.5,0.6,7.1,0.1,10.5
					c-0.3,2.4,1.2,4.6,3.5,5.5c2,0.8,4.9,0.2,5.8-2.1c0.9-2.3-0.5-4.7-1.7-6.6c-0.8-1.2-1.5-2.6-1.6-4c-0.1-2.8,3.1-3.6,5.2-2.6
					c5,2.4,1.4,7.1,0.6,10.8c-1,4.7,4.9,9.1,8.8,5.5c4-3.8-1.5-9.1-1.3-13.2c0.2-4.6,6.2-4.2,8.1-1c2,3.4-1.3,7.4,0.2,10.9
					c1,2.2,3.7,3.7,6.1,3.6c2.4-0.1,4.2-2,3.9-4.4c-0.4-2.7-3.2-4.9-2.9-7.8c0.3-2.5,3.3-2.9,5.2-1.8c2.4,1.4,2.5,3.7,1.7,6.1
					c-0.9,2.6-2.2,5.3-0.4,7.8c1.4,2,4.1,2.8,6.3,1.8c2-0.9,2.9-3,2.7-5.1c-0.3-3.2-4.1-6.2-3-9.5c1.2-3.4,7.7-3.6,9.5-0.7
					c2,3.1-1.5,6.7-1.3,9.9c0.1,2.1,1.4,4.3,3.4,5.1c2,0.8,4.7,0.2,5.7-1.7c1.1-1.9,0.3-4.4-0.7-6.2c-1.2-2.1-4-5.7-1.6-7.9
					c1.8-1.7,4.9-0.9,6.4,0.7c1.9,1.9,1.5,4.2,1.2,6.6c-0.4,3-0.3,5.6,2.4,7.5c2,1.5,5.3,1.9,7.2-0.1c1.6-1.6,0.9-4.1,0-5.9
					c-1.2-2.3-4.6-5-3.6-8c0.6-2,3.3-2.3,5-1.7c2.5,0.9,3.7,3.2,3.4,5.7c-0.3,2.7-1.9,6.3,0.4,8.5c1.7,1.7,4.7,2,7,1.4
					c5.8-1.8-1.9-6.6-2.8-9.1c-1.2-3.3,1.6-6.4,4.8-6.2c2.8,0.1,5.3,1.4,5.1,4.5c-0.2,2.8-3.5,6.7-1.2,9.3c1.3,1.5,4.4,1.3,6.2,0.8
					c1.7-0.5,2.1-2,1.7-3.6c-0.8-3.2-6-8.6-3.2-12c2.1-2.5,6.8-1.4,8.5,1c1.8,2.8-0.2,5.5-0.6,8.4c-0.4,2.6,0.6,4.4,3.3,5.2
					c2.2,0.6,5.1,0.2,5.9-2.2c0.9-2.6-0.8-4.8-2.3-6.7c-1.1-1.4-2.8-3.4-1.7-5.2c0.7-1.3,2.4-1.9,3.8-2.1c1.3-0.2,2.7-0.2,3.9,0.2
					c2.4,0.9,2.8,3.2,2.2,5.5c-0.7,2.7-2,5.1-0.5,7.7c2.3,4.4,9.7,2.9,8.9-2.5c-0.5-3.2-4-4.9-5.3-7.7c-0.8-1.7-0.4-3.8,1.3-4.7
					c2.2-1.2,5,0.1,6.2,2.1c1.9,3.2-1.3,7.1,0.1,10.5c1,2.5,3.8,3.6,6.4,3.2c2.1-0.4,3.7-1.6,3.2-3.9c-0.7-3.1-4.1-4.9-3.9-8.3
					c0.2-3.4,4.3-5.4,7.3-4.5c2.8,0.9,2.8,4.2,1.8,6.5c-0.9,2-2.1,4.1-1.2,6.3c0.9,2.2,3.7,2.7,5.7,1.8c2.1-0.9,3.6-3.2,3-5.5
					c-0.7-3.2-4.7-6.2-3-9.6c0.8-1.6,2.6-2.3,4.3-2.1c1.8,0.2,3,1.4,3.6,3c0.3,0.8,0.5,1.7,0.7,2.6c0.4,2.2-0.2,4.4,0.5,6.6
					c1.4,4.5,10.2,4.2,9.5-1c-0.4-3-3.1-4.6-5.1-6.6c-1.6-1.5-3.5-4.1-0.9-5.8c1.5-0.9,3.7-0.9,5.3-0.4c2,0.6,2.9,1.9,2.7,3.9
					c-0.1,1.9-0.4,3.7-0.1,5.6c0.4,2.6,2.5,4.6,5.2,4.5c2.2,0,3.9-1.6,3.7-3.8c-0.3-3.1-3.2-4.5-5.1-6.6c-3.9-4.2,4.8-8.4,6.6-3.1
					c0.9,2.6-0.3,5.4,0.7,8c0.8,2,2.6,3.9,4.9,4c2.2,0.1,4.4-1.2,4.3-3.6c-0.1-2.8-2.6-4.6-4.6-6.1c-1.3-1-3.4-2.5-3.4-4.4
					c0-2.1,2.5-2.9,4.2-2.9c2,0,3.8,1.1,4,3.2c0.2,1.6-0.4,3.1-0.6,4.7c-0.2,2.2,0.9,4.8,2.6,6.2c3.9,3.3,8.9-1.2,6.8-5.5
					c-0.8-1.5-2-2.8-2.7-4.4c-1.1-2.2,0-4.4,2.4-5c5-1.3,1.7,6.4,2.2,8.7c0.4,2.2,2,4.5,4.4,4.8c1.9,0.2,3.2-0.8,3-2.8
					c-0.2-2.1-1.6-4.1-2.4-6c-0.5-1.2-1.2-2.8-1-4.1c0.2-2,3.2-4,5.1-2.8c2,1.3,0.6,5.8,0.2,7.7c-0.3,1.7-1.3,4.5,0.5,5.7
					c1.6,1,4.3,0.3,5.3-1.2c1.8-2.5-1-5.3-1.9-7.6c-0.5-1.4-1-3.3,0-4.7c1-1.4,3.6-1.7,5.1-0.9c2,1,1.1,3.8,0.5,5.3
					c-0.5,1.4-2.1,3.2-1.9,4.7c0.2,1,1.1,2,2.1,2.3c2,0.8,4.4-0.3,5.3-2.2c0.7-1.4,0.5-2.9-0.1-4.3c-0.9-2.1-2.4-3.7-2.6-6.1
					c-0.1-1.2,0-2.3,1.2-3c0.6-0.4,1.4-0.5,2.1-0.5c0.9,0,2.1,0.1,2.8,0.9c1,1,0.5,2.8,0.1,4c-0.7,2.1-3.1,5.5-0.8,7.5
					c1.7,1.5,4.4,1.1,5.6-0.7c2-2.8,0.1-5.8-0.9-8.5c-0.6-1.6-2.5-5,0-5.8c4.5-1.5,2.5,5.2,2.7,7.3c0.2,1.9,1.4,4.1,3.6,3.9
					c2.2-0.2,2.8-2.7,2.6-4.6c-0.3-2.6-1.7-4.3-2.9-6.4c-0.6-1-1.3-2.6-0.4-3.6c0.5-0.5,1.8-1,2.5-0.9c1,0.2,1.2,1.1,1.3,2
					c0.3,2.1-0.6,4.3,0.2,6.3c0.9,2.1,3.1,3.9,5.5,3.2c2-0.6,1.8-2.6,1-4.2c-0.6-1.2-1.4-2.3-2.2-3.4c-0.8-1-2.4-2.8-1.6-4.2
					c0.6-1.1,2.7-1.3,3.5-0.3c0.5,0.7,0.7,1.7,0.9,2.5c0.3,1.7,0,7.2,2.8,6.7c6.3-0.9,0-8.5-1.9-10.5c-0.4-0.5-1.1,0.2-0.7,0.7
					c1.3,1.4,6.3,6.5,3.5,8.3c-2.3,1.6-2.3-1.6-2.5-3.1c-0.4-3-1-7.7-5.2-5.9c-5.8,2.5,4.9,9,2.7,11.9c-1.4,1.9-4.1-0.5-4.8-1.8
					c-0.6-1.3-0.4-2.6-0.3-4c0.1-1.5,0.3-4-1.3-5c-1.4-0.9-4.1,0.1-4.7,1.6c-0.9,1.9,0.7,4.1,1.7,5.6c0.8,1.2,1.4,2.4,1.7,3.8
					c0.3,1.4,0.4,4.8-2.1,4.2c-3.3-0.7-1.5-5.8-1.6-8c-0.2-2.4-2-3.8-4.3-3.1c-1.7,0.5-2.2,1.9-1.9,3.6c0.6,2.6,2.2,5,2.8,7.6
					c0.5,2-0.3,4.8-2.7,4.8c-3.5,0-2.3-3.4-1.5-5.3c0.9-2,2.1-5.4,0-7.1c-1.7-1.3-4.9-1.1-6.5,0.3c-2,1.9-0.6,5.8,0.5,7.8
					c1.2,2,2.9,4.7,0.4,6.6c-0.7,0.6-1.8,0.9-2.7,0.7c-2.2-0.5-1.7-2.3-0.9-3.9c1.3-2.6,3.4-7.7-0.8-8.9c-2.2-0.6-5.2,0-6.1,2.4
					c-0.8,2.2,0.2,4.8,1.3,6.7c1.1,1.9,2.5,4.8-0.4,5.7c-0.6,0.2-2,0.5-2.5-0.1c-0.6-0.7-0.5-1.9-0.4-2.8c0.4-2.4,1.2-4.9,1.1-7.3
					c0-1.9-0.8-3.4-2.8-3.6c-2.3-0.3-4.9,1.5-5.2,3.9c-0.3,2.3,1.2,5.1,2.1,7.2c0.3,0.8,0.8,1.5,1,2.4c0.2,0.5,0.4,1.2,0.2,1.7
					c-0.4,1.3-2.2,1-3.2,0.5c-1.3-0.7-2.1-2.3-2.3-3.7c-0.3-1.8,0.6-3.5,0.8-5.2c0.2-2.5-1-4.7-3.8-4.3c-2,0.4-4.2,2.2-4.1,4.4
					c0.2,3.4,4.4,5.5,3.8,8.9c-0.3,1.9-2.2,3.2-4.1,2.7c-1.6-0.4-2.8-2-3.4-3.5c-1.1-2.7,0.6-5.3,0-8.1c-0.9-4.6-9.6-5-10.2-0.1
					c-0.3,2.7,2.8,4.8,4.6,6.2c1.3,1,2.6,2.1,3.1,3.7c0.8,2.3-1.2,3.9-3.4,3.5c-1.8-0.3-3.1-1.8-3.7-3.4c-0.5-1.4-0.3-2.8-0.2-4.2
					c0.1-2.3-0.3-4.8-2.4-6.2c-2.3-1.5-5.4-0.6-7,1.6c-1.7,2.4-0.2,4.5,1.8,6.2c1.3,1.1,2.6,2,3.3,3.6c1,2.3-0.6,4.4-3.2,3.9
					c-5-1.1-2.9-6.7-3.1-10.2c-0.3-4.8-9-5.7-11-1.7c-1.3,2.6,1.5,5.2,3.2,6.8c2,1.7,6.5,6.4,1.6,7.9c-2.3,0.7-4.8-0.1-5.5-2.6
					c-0.5-2,0-4.2-0.4-6.3c-0.3-1.9-0.9-4-2.5-5.3c-3.9-3.3-9.8,0.8-8.2,5.6c1.1,3.2,5.6,7.3,1.5,10.2c-1.4,1-4,1.2-5-0.6
					c-0.8-1.4-0.2-3.4,0.5-4.7c1.6-3.3,2.1-8.4-2.7-9.2c-5.2-0.8-9.4,4.1-6.9,9c1.1,2.2,5.7,6.6,1.1,7.7c-2,0.5-4.4-0.2-5.5-2.1
					c-1.1-2-0.1-4.5,0.2-6.7c0.4-2.9-0.5-5.5-3.3-6.8c-2.2-1.1-5.2-0.7-6.6,1.5c-1.2,2.1-0.4,4.4,1,6.1c1.2,1.5,2.7,2.7,3.6,4.3
					c1,1.8,0.6,4.1-1.4,5.1c-3.9,1.8-6.4-2.5-5.5-5.8c0.8-2.7,2.4-6.1,0-8.5c-2.6-2.6-9.4-2.1-10.9,1.6c-1.2,3,1.9,5.5,3.3,7.7
					c0.8,1.2,1.4,2.9,0.7,4.3c-1.2,2.3-4.7,1.8-6.4,0.4c-2.6-2.3,0.7-6.4,0.7-9.1c0-2-1.2-4-2.9-5.1c-3.4-2.2-9.4-0.9-9.1,3.8
					c0.1,1.8,0.8,3.5,1.7,5.1c0.7,1.4,3.8,5.6,1.7,6.8c-1.1,0.6-3.5,0.6-4.6,0.3c-1.2-0.4-1.5-1.4-1.4-2.6c0.2-1.8,1.2-3.3,1.6-5
					c1.2-4.4-1.9-7.1-6.1-7.1c-4.6-0.1-7.5,5.3-4.7,9c0.9,1.1,5.4,4.7,3.6,6c-1.4,1-3.7,0.8-5.2,0.2c-2.4-0.9-2.8-2.7-2.4-5.1
					c0.5-3,1.5-6.1-0.9-8.6c-1.8-2-5-2.9-7.3-1.4c-5.2,3.2,2.2,9.3,2.9,12.7c0.4,2.1-1,3.6-3.2,3.8c-2.1,0.1-4.4-1.3-5.2-3.3
					c-1.4-3.4,1.4-7.2-0.6-10.5c-1.4-2.3-4.5-3.7-7.1-2.9c-2.1,0.7-3.1,2.5-2.8,4.7c0.4,2.8,2.6,4.7,3.3,7.3
					c0.4,1.4,0.4,3.1-0.8,4.1c-1.5,1.3-4,1-5.3-0.5c-2.7-2.9-0.3-6.3,0.3-9.5c0.5-2.5-0.2-4.9-2.7-6c-2.2-1-5.1-0.8-7.2,0.5
					c-2.3,1.4-2.5,3.9-1.6,6.2c1.1,2.8,4.3,6.4,1.6,9.3c-1.3,1.4-3.7,1.5-5.2,0.4c-1.7-1.2-2-3.1-1.6-5c0.7-2.8,2.8-5.8,0.8-8.6
					c-1.5-2.1-4.7-3.2-7-1.7c-2,1.3-1.8,3.7-0.9,5.6c0.5,1.3,1.5,2.4,2,3.7c0.9,2.4-0.2,4.6-3,4.5c-1.7-0.1-3.6-1.1-4.5-2.6
					c-1.2-2.1-0.1-4.7,0.2-6.9c0.4-2.6-0.3-5.1-2.7-6.6c-2-1.3-5-1.3-6.7,0.5c-1.5,1.5-1.4,3.9-0.8,5.9c0.7,2.5,2.5,4.6,2.3,7.4
					c-0.4,4.3-6.2,4.2-7.9,0.7c-1.7-3.6,2.2-7,1.7-10.7c-0.3-2.5-2.7-4.5-5.1-4.7c-2.1-0.2-4.4,0.9-4.8,3.2
					c-0.4,2.7,1.5,4.7,2.7,6.9c0.6,1.2,1.3,3.1,0.6,4.4c-1.2,2.1-4.2,1.7-5.8,0.3c-3.5-3.1,0.6-7.1,0.6-10.6c0-5.1-7.7-7.3-9.7-2.3
					c-1.2,3,0.9,5.3,1.9,8c0.7,2,0.4,3.6-1.5,4.7c-2.1,1.2-5.5,0.8-4.3-2.5c0.6-1.7,1.5-3.2,1.9-5.1c0.4-1.8,0.5-3.7,0.2-5.5
					c-0.5-2.5-2.5-4.1-5.1-3.4c-2,0.6-3.9,2.6-3.9,4.8c0.1,3,4.4,6.4,2.4,9.3c-0.8,1.2-2.7,2.2-4.2,2.1c-3.1-0.3-1.4-4.3-1.2-6.1
					c0.4-3.2,0.5-7.4-1.1-10.3c-2.7-5-10.3-1.3-8.4,3.9c1.1,3.1,5.6,7,1.4,9.7c-2,1.3-4.4,0.5-5-1.8c-0.6-2.1,0.5-4.3,1.3-6.3
					c1-2.5,1.5-4.8,0.1-7.2c-1.2-2.1-3.5-3.3-6-2.9c-2.3,0.4-3.9,2-4.3,4.3c-0.4,2.5,0.9,4.4,1.9,6.6c0.5,1.1,1.4,2.9,0.1,3.9
					c-1.6,1.3-4.4,0.4-5.7-1c-2.7-3.1,0.4-5.9,1.8-8.6c2.4-4.7-4.1-8.8-8.2-7.1c-2.5,1-3,3.5-2.1,5.9c0.7,1.7,2,3.1,2.5,4.8
					c0.6,2.3-1.7,4.5-4.1,4c-4.1-0.8-1.5-7.3-0.7-9.6c0.8-2.4,1.4-5-0.1-7.3c-1.3-2-3.3-3.6-5.7-3.4c-1.8,0.1-3.8,1-4.1,3
					c-0.2,1.3,0.5,2.5,1,3.6c0.8,1.9,1.8,3.7,2.7,5.6c0.5,1.1,1.4,2.7,1.3,3.9c-0.2,2.2-3.7,1-4.8,0.2c-3-2.2-2.1-6.5-1.7-9.6
					c0.3-2.7,0.4-6.6-2.3-8.2c-2.1-1.2-5-0.1-6,2.1c-1.2,2.9,1.8,5.2,3.2,7.4c0.6,1,1.5,2.7,1,3.9c-0.5,1.3-3.6,1.3-4.7,0.7
					c-2-1-1.3-4-1-5.7c0.7-4.1,1.2-9.9-3.6-11.8c-1.9-0.8-3.9,0-4,2.2c-0.1,2.5,2.2,4.1,2.8,6.4c0.3,1.3,0.4,2.8,0,4
					c-0.8,2.4-4,2.1-5.3,0.2c-0.9-1.4-0.2-3.2,0.4-4.6c0.5-1.4,1.1-2.8,1.6-4.2c0.6-2,0.2-4.1-1.6-5.2c-1.6-1-4-1.1-5.3,0.4
					c-1.1,1.4-1.1,3.6-0.8,5.2c0.4,2.3,1.3,5.1,3.2,6.7C36.3,354.6,37.1,353.9,36.6,353.5L36.6,353.5z"/>
			</g>
		</g>
	</g>
	<g>
		<defs>
			<path id="XMLID_1_" d="M150.8,224.7c0,0-8,60.8-7.5,70.8c0.6,10-0.6,32.2,58.1,32.3c58.7,0.1,53.5-30.8,53.5-30.8
				s0.9-35.7-6.2-72.4L150.8,224.7z"/>
		</defs>
		
			<linearGradient id="XMLID_11_" gradientUnits="userSpaceOnUse" x1="258.95" y1="311.9015" x2="256.0526" y2="417.9444" gradientTransform="matrix(0.9574 -0.2887 0.2887 0.9574 -149.6706 10.3842)">
			<stop  offset="0" style="stop-color:#FFD6BB"/>
			<stop  offset="1" style="stop-color:#F7E7D6"/>
		</linearGradient>
		<use xlink:href="#XMLID_1_"  style="overflow:visible;fill:url(#XMLID_11_);"/>
		<clipPath id="XMLID_12_">
			<use xlink:href="#XMLID_1_"  style="overflow:visible;"/>
		</clipPath>
	</g>
	<linearGradient id="SVGID_1_" gradientUnits="userSpaceOnUse" x1="204.9306" y1="342.1271" x2="199.5719" y2="249.4318">
		<stop  offset="0" style="stop-color:#C96873"/>
		<stop  offset="1" style="stop-color:#E86D64"/>
	</linearGradient>
	<path class="st5" d="M158,248.7c0,0,22.6-11.4,46.9,0c0,0,19.6-13.9,47.2-2.5l0.6,68.9l-30.8,11.2h-43.5l-27.6-9L158,248.7z"/>
	<path class="st1" d="M156.1,316.6c0,0,20.3,3.4,39.1,3c18.8-0.4,39.5-1.1,60.1-7.9l130.7,21.2c0,0-48.5,19.3-110.4,27.4
		c-85.6,11.2-128.7,3.8-165.2,0.2s-76.9-20.1-76.9-20.1L156.1,316.6z"/>
	<g>
		<path class="st2" d="M115.3,259.9c0,0,25.6-5.9,48.6-10.2l0,0c0,0-1.6-15.1-1-25.9c0,0-71.1,13-80.2,44.7
			c-1.5,5.2-2,10.5-1.6,15.5C81.6,265.2,115.3,259.9,115.3,259.9z"/>
		<path class="st2" d="M188.2,245.8c-6.5,0.8-15.2,2.2-24.3,3.9l-48.6,10.2c0,0-33.8,5.3-34.2,24.1c0,0,0,0.1,0,0.1
			c2.1,25.7,27.6,47.5,68.3,43.2C198.3,322.1,211.1,243.1,188.2,245.8z"/>
	</g>
	<g>
		<path class="st2" d="M293.1,256.5c0,0-25.9-4.6-49-7.8l0,0c0,0,0.9-15.1-0.3-26c0,0,71.7,9.5,82.3,40.7c1.7,5.1,2.5,10.3,2.3,15.4
			C327.1,260.2,293.1,256.5,293.1,256.5z"/>
		<path class="st2" d="M219.6,246c6.5,0.4,15.3,1.5,24.4,2.7l49,7.8c0,0,34,3.7,35.3,22.4c0,0,0,0.1,0,0.1
			c-0.8,25.8-25.2,48.8-66.1,46.5C213.3,322.7,196.7,244.5,219.6,246z"/>
	</g>
	<g>
		<path class="st6" d="M172.9,259.8c26.2-12.2,52.6-23.9,79.2-35.1l0.7,0.1c0.6,0.2,1.2,0.4,1.7,0.7c0,0,0.1,0.1-0.3,0.2
			c-26.2,11.5-52,23.9-77.3,37.3L172.9,259.8z"/>
		<path class="st6" d="M173.1,260.2c10.5-4.9,21-9.7,31.6-14.4c10.5-4.7,21-9.3,31.6-13.8c2.6-1.1,5.3-2.3,7.9-3.4
			c1.4-0.6,2.8-1.2,4.2-1.8c0.6-0.3,1.2-0.5,1.8-0.8c0.3-0.1,0.7-0.3,1-0.4c0.3-0.1,0.7-0.4,0.9-0.4c0.3,0,0.6,0.1,0.9,0.2
			c0.3,0.1,0.6,0.3,0.9,0.3c0.1,0,0.1,0.1,0.2,0.1c0-0.2,0-0.4,0.1-0.6c0,0-0.6,0.3-0.6,0.3c-1.3,0.6-2.6,1.1-3.9,1.7
			c-2.6,1.2-5.3,2.3-7.9,3.5c-10.3,4.7-20.6,9.5-30.8,14.5c-10.2,5-20.4,10.1-30.5,15.4c-1.3,0.7-2.5,1.3-3.8,2
			c0.2,0,0.4,0.1,0.6,0.1c-1.4-1.1-2.7-2.1-4.1-3.2c-0.5-0.4-1.2,0.3-0.7,0.7c1.4,1.1,2.7,2.1,4.1,3.2c0.2,0.1,0.4,0.2,0.6,0.1
			c10.4-5.5,20.8-10.8,31.3-15.9c10.5-5.2,21.1-10.2,31.8-15c2.7-1.2,5.3-2.4,8-3.6c1.3-0.6,2.7-1.2,4-1.8c0.7-0.3,1.3-0.6,2-0.9
			c0.3-0.1,0.8-0.3,0.8-0.8c0-0.5-0.6-0.6-0.9-0.8c-0.5-0.2-0.9-0.4-1.4-0.4c-0.4-0.1-0.6-0.1-0.9,0c-0.7,0.3-1.4,0.6-2,0.9
			c-2.7,1.1-5.4,2.3-8.2,3.4c-10.9,4.6-21.8,9.4-32.6,14.2c-10.8,4.8-21.5,9.7-32.3,14.7c-1.3,0.6-2.7,1.2-4,1.9
			C172,259.6,172.5,260.5,173.1,260.2z"/>
	</g>
	<g>
		<path class="st1" d="M172.9,258.8c26.2-12.2,52.6-23.9,79.2-35.1l0.7,0.1c0.6,0.2,1.2,0.4,1.7,0.7c0,0,0.1,0.1-0.3,0.2
			c-26.2,11.5-52,23.9-77.3,37.3L172.9,258.8z"/>
		<path class="st1" d="M173.1,259.2c10.5-4.9,21-9.7,31.6-14.4c10.5-4.7,21-9.3,31.6-13.8c2.6-1.1,5.3-2.3,7.9-3.4
			c1.4-0.6,2.8-1.2,4.2-1.8c0.6-0.3,1.2-0.5,1.8-0.8c0.3-0.1,0.7-0.3,1-0.4c0.3-0.1,0.7-0.4,0.9-0.4c0.3,0,0.6,0.1,0.9,0.2
			c0.3,0.1,0.6,0.3,0.9,0.3c0.1,0,0.1,0.1,0.2,0.1c0-0.2,0-0.4,0.1-0.6c0,0-0.6,0.3-0.6,0.3c-1.3,0.6-2.6,1.1-3.9,1.7
			c-2.6,1.2-5.3,2.3-7.9,3.5c-10.3,4.7-20.6,9.5-30.8,14.5c-10.2,5-20.4,10.1-30.5,15.4c-1.3,0.7-2.5,1.3-3.8,2
			c0.2,0,0.4,0.1,0.6,0.1c-1.4-1.1-2.7-2.1-4.1-3.2c-0.5-0.4-1.2,0.3-0.7,0.7c1.4,1.1,2.7,2.1,4.1,3.2c0.2,0.1,0.4,0.2,0.6,0.1
			c10.4-5.5,20.8-10.8,31.3-15.9c10.5-5.2,21.1-10.2,31.8-15c2.7-1.2,5.3-2.4,8-3.6c1.3-0.6,2.7-1.2,4-1.8c0.7-0.3,1.3-0.6,2-0.9
			c0.3-0.1,0.8-0.3,0.8-0.8c0-0.5-0.6-0.6-0.9-0.8c-0.5-0.2-0.9-0.4-1.4-0.4c-0.4-0.1-0.6-0.1-0.9,0c-0.7,0.3-1.4,0.6-2,0.9
			c-2.7,1.1-5.4,2.3-8.2,3.4c-10.9,4.6-21.8,9.4-32.6,14.2c-10.8,4.8-21.5,9.7-32.3,14.7c-1.3,0.6-2.7,1.2-4,1.9
			C172,258.6,172.5,259.5,173.1,259.2z"/>
	</g>
	<polygon class="st7" points="160.9,250.4 166.4,257.1 163.9,262.6 158.1,251.6 	"/>
	<g>
		<defs>
			<path id="XMLID_98_" d="M121.7,40.3c18.6,11.9,24,36.7,12.1,55.3s-52,29.9-70.6,18s-24-36.7-12.1-55.3S103.1,28.4,121.7,40.3z"/>
		</defs>
		<use xlink:href="#XMLID_98_"  style="overflow:visible;fill:#7A4623;"/>
		<clipPath id="XMLID_13_">
			<use xlink:href="#XMLID_98_"  style="overflow:visible;"/>
		</clipPath>
	</g>
	<g>
		<defs>
			<path id="XMLID_97_" d="M290.5,157.1c4.3,55.1-44.3,82.6-103.4,82.9c-59.6,0.2-104-25.8-104.2-82.1
				c-0.2-48.1,46.1-87.3,103.5-87.6C243.7,70.1,286.7,109.2,290.5,157.1"/>
		</defs>
		<use xlink:href="#XMLID_97_"  style="overflow:visible;fill:#F7E7D6;"/>
		<clipPath id="XMLID_16_">
			<use xlink:href="#XMLID_97_"  style="overflow:visible;"/>
		</clipPath>
	</g>
	<g>
		<defs>
			<path id="XMLID_95_" d="M303.3,156.7c0,0,0-0.1,0-0.1c-0.1-1.6-0.2-3.2-0.3-4.7c-0.1-1.3-0.3-2.7-0.5-4.1
				c-1.3-16.6-2.9-27.8-2.9-27.8C295.3,87,263.2,47.6,201,43.2c-51.3-3.6-69.7,17.7-74.6,25.3c-9,0.6-16.6,3.8-23,9
				c-13.8,9.1-29,27.4-31.9,63.9c-0.6,7.4-0.7,14-0.5,19.9c1.5,39.8,19.8,46.5,26.8,47.6l0,0c1.7,0.3,2.8,0.2,2.8,0.2
				s-5-22.9,2.3-41.3l0,0c42.1-0.9,82.9-39.4,82.9-39.4c2.2,9.4-6.5,17.6-6.5,17.6c22.5-3.6,31-32.5,31-32.5
				c28.9-8.3,46,15.5,46,15.5s7.7,8,13.1,26.9c0.2,0.8,0.5,1.6,0.7,2.5c0,0,7.2,28,4.3,50.1C274.3,208.6,304.2,204,303.3,156.7z"/>
		</defs>
		<use xlink:href="#XMLID_95_"  style="overflow:visible;fill:#A05C2D;"/>
		<clipPath id="XMLID_17_">
			<use xlink:href="#XMLID_95_"  style="overflow:visible;"/>
		</clipPath>
	</g>
	<g>
		<defs>
			
				<rect id="SVGID_2_" x="73.6" y="14.4" transform="matrix(0.9966 -8.198698e-02 8.198698e-02 0.9966 -10.0586 15.7854)" width="227.2" height="231.9"/>
		</defs>
		<clipPath id="SVGID_3_">
			<use xlink:href="#SVGID_2_"  style="overflow:visible;"/>
		</clipPath>
		<path class="st8" d="M275.1,189.8c-1.7-21-39.7-35.1-84.7-31.4c-45.1,3.7-80.2,23.8-78.5,44.8c1.1,13.2,16.4,23.6,38.8,28.7
			c3.6,2,11.9,6.6,14.4,8.3c3.2,2.1,2-3,7.6-3.3c5.6-0.3,5.7,4.7,5.7,4.7s3.8-4.6,7.4-5.1c3.6-0.5,6.5,6,6.5,6l4.2-7
			c0.4-0.6,1.2-0.6,1.6-0.1l5.3,6.2c0,0,1.8-6.9,5.4-7c3.7-0.1,8.2,3.8,8.2,3.8s-0.7-5,4.8-5.6c5.5-0.6,5.2,4.7,8,2
			c2.7-2.5,13-10.6,14.2-11.6C263.9,214.7,276.1,202.4,275.1,189.8"/>
		<path class="st9" d="M239.5,195.4c-19.9-0.7-43.8,3.3-46.9,3.8c-0.2,0-0.4,0.1-0.7,0.1c-3.1,0-27.4,0-46.9,3.9
			c-11.9,2.4-15.6,8.3-16.5,12.9c-0.5,2.6,2.4-1,5.5-1.7c1.5-0.3,3.3-0.5,5.3-0.4c1.8,0.1,3.1,1.1,4.1,2.4c1.5,2.1,5.3,8.1,7.4,6.2
			c1.3-1.2,2.9-2.2,5-2.7c5.8-1.5,9.3,1.1,11.4,4.7c1.4,2.3,5.3,2.6,7.4,0.6c1-0.9,2.1-1.6,3.5-1.9c4.9-1.3,10.8,3.9,14.1,7.6
			c1.4,1.6,3.8,1.4,5-0.4c2.7-4.2,7.6-10.3,12.7-9.8c1.5,0.1,2.7,0.6,3.8,1.3c2.5,1.6,6.3,0.7,7.2-1.9c1.5-3.8,4.5-7,10.5-6.5
			c2.1,0.2,3.8,0.9,5.3,1.9c2.4,1.5,4.5-4.9,5.6-7.2c0.7-1.5,1.8-2.6,3.6-3c2-0.5,3.8-0.6,5.3-0.5c3.2,0.2,7.3,3.1,6.4,0.7
			C256.2,201,251.6,195.8,239.5,195.4"/>
		<g class="st10">
			<defs>
				<path id="XMLID_93_" d="M193.1,201.3c5.5,5.9,13.2,9.4,21.5,8.7c15-1.2,26.1-15.7,24.8-32.2c-0.9-10.9-3.4-12.5-31.5-53.9
					c0.1,0.1,0.2,0.3,0.3,0.4c-0.1-0.2-0.2-0.4-0.2-0.7l-0.2,0.2c-5.4-7.1-1.5-18.3,7.2-19l13.8-1.1c11.1-0.9,21.7-9.2,27.8-25.2
					c10.9,14.4,18.1,32.2,19.7,52c0.7,8.2-0.6,17,4.6,29.9l0,0c2.3,5.9,6.3,12.4,11.5,17.4c-4.8,0.8-10,0.2-14.8-2.1
					c-1.4,9.8-0.4,20.1,3,29.4c-5.2-1.2-9.8-4-13.1-7.9c-0.8,7.1-0.3,14.3,1.2,20.9c-3.7-0.5-7.3-1.9-10.5-4.1
					c-3.1-2.1-5.8-5.1-7.5-8.6c-5.4,5.7-12.5,9.2-20.1,9.8l-72.3,5.9c-7.6,0.6-15.1-1.6-21.4-6.4c-1.2,3.8-3.3,7.1-6,9.7
					c-2.7,2.6-6.1,4.6-9.7,5.7c0.5-6.8-0.3-14-2.2-20.8c-2.6,4.4-6.7,7.9-11.6,9.9c1.8-9.7,1.1-20.1-1.9-29.5
					c-4.3,3-9.4,4.5-14.2,4.5c4.2-5.8,7.2-12.9,8.5-19.1l0,0c3.1-13.6,0.4-22.1-0.3-30.3c-1.6-19.8,2.5-38.6,11-54.5
					c8.6,14.8,20.4,21.2,31.5,20.3l13.8-1.1c8.7-0.7,14.4,9.6,10.2,17.6l-0.2-0.2c0,0.2-0.1,0.5-0.1,0.7c0.1-0.1,0.2-0.3,0.2-0.4
					c-20.9,45.4-23.2,47.4-22.3,58.3c1.4,16.5,14.7,28.9,29.7,27.7C181.5,212.7,188.6,208,193.1,201.3"/>
			</defs>
			<use xlink:href="#XMLID_93_"  style="overflow:visible;fill:#F4D5BD;"/>
			<clipPath id="XMLID_18_">
				<use xlink:href="#XMLID_93_"  style="overflow:visible;"/>
			</clipPath>
		</g>
		<path class="st11" d="M180.1,43.4c0.2,0,0.3,0,0.5,0c8-0.7,15.9-0.1,23.5,1.4c-7.5-1.5-15.4-2-23.4-1.4
			C180.5,43.4,180.3,43.4,180.1,43.4c-0.2,0.1-0.4,0.1-0.6,0.1c-8,0.7-15.7,2.4-22.8,5.2c7.2-2.8,14.9-4.6,23-5.2
			C179.7,43.4,179.9,43.4,180.1,43.4"/>
		<path class="st12" d="M193.1,201.4c6,6.4,14.6,9.7,23.2,8.3c0.6,7.6-4.5,14.2-11.4,14.8l-19.6,1.6c-6.9,0.6-13-5.1-13.7-12.7
			C180.3,213.3,188.1,208.7,193.1,201.4"/>
		<path class="st13" d="M299.9,171.7c0,0.4-0.3,0.8-0.7,0.9l-60.1,4.9c0-0.5-0.1-1.1-0.2-1.6l60.1-4.9
			C299.5,170.9,299.9,171.2,299.9,171.7"/>
		<path class="st13" d="M82.8,189.5c0,0.4,0.4,0.8,0.8,0.7l60.1-4.9c0-0.5-0.1-1.1-0.1-1.6l-60.1,4.9
			C83,188.7,82.7,189.1,82.8,189.5"/>
		<path class="st13" d="M296,182.4c0,0.4-0.3,0.8-0.7,0.9l-57,4.7c0.1-0.5,0.2-1.1,0.3-1.6l56.5-4.6C295.6,181.6,296,182,296,182.4"
			/>
		<path class="st13" d="M88.4,199.5c0,0.4,0.4,0.8,0.8,0.7l57-4.7c-0.2-0.5-0.4-1-0.6-1.6L89,198.6C88.6,198.7,88.3,199,88.4,199.5"
			/>
		<path class="st13" d="M292.1,193.1c0,0.4-0.3,0.8-0.7,0.9l-57.9,4.8c0.4-0.5,0.8-1.1,1.1-1.7l56.7-4.7
			C291.7,192.4,292.1,192.7,292.1,193.1"/>
		<path class="st13" d="M94,209.4c0,0.4,0.4,0.8,0.8,0.7l57.9-4.8c-0.5-0.5-0.9-1-1.4-1.5l-56.7,4.7C94.2,208.6,94,209,94,209.4"/>
		<g class="st10">
			<defs>
				<path id="XMLID_92_" d="M180.1,43.4c0.2,0,0.4,0,0.6-0.1c30.1-2.5,58,11.6,75.8,35.1c0,0,0,0,0,0c-6.1,16-16.6,24.3-27.8,25.2
					l-13.8,1.1c-8.7,0.7-12.6,11.9-7.2,19l0.2-0.2c0.1,0.2,0.1,0.4,0.2,0.7c-0.1-0.1-0.2-0.3-0.3-0.4c28.1,41.4,30.6,42.9,31.5,53.9
					c1.4,16.5-9.7,31-24.8,32.2c-8.2,0.7-16-2.7-21.5-8.7c-4.5,6.8-11.5,11.4-19.8,12.1c-15,1.2-28.4-11.2-29.7-27.7
					c-0.9-10.9,1.3-12.9,22.3-58.3c-0.1,0.1-0.2,0.3-0.2,0.4c0-0.2,0.1-0.5,0.1-0.7l0.2,0.2c4.2-7.9-1.5-18.3-10.2-17.6l-13.8,1.1
					c-11.1,0.9-22.9-5.6-31.5-20.3c0,0,0,0,0,0c13.8-26.1,38.9-44.5,69.1-47C179.7,43.4,179.9,43.4,180.1,43.4"/>
			</defs>
			<use xlink:href="#XMLID_92_"  style="overflow:visible;fill:#D88A4B;"/>
			<clipPath id="XMLID_19_">
				<use xlink:href="#XMLID_92_"  style="overflow:visible;"/>
			</clipPath>
		</g>
		<path class="st9" d="M245.8,66.6c0.8,0.7,1.6,1.5,2.4,2.3C247.4,68.1,246.6,67.3,245.8,66.6"/>
		<path class="st9" d="M119,77c-0.7,0.9-1.3,1.8-2,2.6C117.7,78.8,118.3,77.9,119,77"/>
		<path class="st9" d="M222.8,51l-0.2,0.2c0-0.1,0-0.2,0-0.3C222.7,51,222.8,51,222.8,51"/>
		<path class="st9" d="M139.1,57.9l0.2,0.2c0-0.1,0-0.2-0.1-0.3C139.2,57.8,139.2,57.9,139.1,57.9"/>
		<path class="st9" d="M254.7,82.6c0.4-0.8,0.8-1.6,1.1-2.5L254.7,82.6L254.7,82.6z"/>
		<path class="st9" d="M112.8,94.3c-0.5-0.7-1-1.5-1.5-2.3L112.8,94.3L112.8,94.3z"/>
		<path class="st14" d="M266.5,47.3c0.6,7.6-1.1,11.9-10,31.1c-10.1-13.3-23.4-23.6-38.5-29.5l11.2-12.7
			C241.4,21.7,264.8,26.4,266.5,47.3"/>
		<path class="st14" d="M95.4,61.4c0.6,7.6,3.1,11.6,14.9,29.1c7.8-14.8,19.3-27.1,33.2-35.4l-13.2-10.7C116,32,93.7,40.5,95.4,61.4
			"/>
		<path class="st15" d="M261.7,47.7c0.4,4.6-2.9,14-9,26c-4.8-5.5-10.2-10.4-16.1-14.6c1.5-5.4,4.9-10.1,9.3-13
			c-3.8-0.2-7.5,0.6-10.6,2.1c2.8-5.3,7.6-9.1,13-10.7c-4-1.5-8.1-1.8-11.8-1.1c2.6-1.8,5.6-2.9,8.8-3.2
			C252.5,32.6,260.8,36.9,261.7,47.7"/>
		<path class="st15" d="M100.3,61c0.4,4.6,5.2,13.3,13.2,24.1c3.8-6.2,8.4-12,13.5-17c-2.4-5.1-6.4-9.1-11.3-11.3
			c3.8-0.8,7.5-0.6,10.8,0.4c-3.7-4.8-8.9-7.8-14.6-8.4c3.7-2.2,7.7-3.1,11.4-3c-2.9-1.4-6-2-9.2-1.7C106.8,44.6,99.4,50.2,100.3,61
			"/>
		<path class="st13" d="M193,201.2c5.5,5.9,13.2,9.3,21.3,8.7c0.6-0.1,1.2-0.1,1.8-0.2c0.1,1.1-11,2.6-22.2,3.5
			c-11.2,0.9-22.4,1.3-22.5,0.1c0.6,0,1.2-0.1,1.8-0.2C181.6,212.6,188.6,208,193,201.2"/>
		<path class="st16" d="M237,111.3c0.8,10-5.9,18.7-14.9,19.4c-5.6,0.5-10.8-2.2-14.1-6.7c-1.3-3.7-0.7-7.7,1.2-10.6
			c1.5-2.5,4-4.2,7-4.5c2.6-0.2,12.6-1,12.9-1.1c0.7-0.1,1.4-0.1,2.1-0.3c1.6-0.3,3.3-0.7,4.9-1.3
			C236.5,107.9,236.9,109.6,237,111.3"/>
		<path class="st16" d="M135,119.7c0.8,10,8.9,17.5,17.9,16.7c5.6-0.5,10.3-3.9,12.9-8.9c0.7-3.8-0.6-7.7-2.9-10.3
			c-1.9-2.2-4.6-3.5-7.6-3.3c-2.6,0.2-12.6,1-12.9,1.1c-0.7,0.1-1.4,0.1-2.1,0.1c-1.6,0-3.3-0.1-5-0.4
			C134.9,116.2,134.8,118,135,119.7"/>
		<path class="st17" d="M232.1,111.7c0.6,7-4.1,13-10.4,13.6c-6.3,0.5-11.9-4.7-12.5-11.7c0-0.1,0-0.1,0-0.2c1.5-2.5,4-4.2,7-4.5
			c2.6-0.2,12.6-1,12.9-1.1c0.7-0.1,1.4-0.1,2.1-0.3C231.6,108.9,231.9,110.3,232.1,111.7"/>
		<path class="st17" d="M139.9,119.3c0.6,7,6.2,12.2,12.5,11.7c6.3-0.5,11-6.6,10.4-13.6c0-0.1,0-0.1,0-0.2
			c-1.9-2.2-4.6-3.5-7.6-3.3c-2.6,0.2-12.6,1-12.9,1.1c-0.7,0.1-1.4,0.1-2.1,0.1C139.9,116.4,139.8,117.8,139.9,119.3"/>
		<path class="st18" d="M224.4,114.5c0.2,2.3-1.3,4.3-3.4,4.5c-2.1,0.2-3.9-1.5-4.1-3.8c-0.2-2.3,1.3-4.3,3.4-4.5
			C222.3,110.5,224.2,112.2,224.4,114.5"/>
		<path class="st18" d="M148,120.8c0.2,2.3,2,4,4.1,3.8c2.1-0.2,3.6-2.2,3.4-4.5c-0.2-2.3-2-4-4.1-3.8
			C149.3,116.5,147.8,118.5,148,120.8"/>
		<path class="st19" d="M207.8,123.6c0.1,0.2,0.1,0.4,0.2,0.7c-0.1-0.1-0.2-0.3-0.3-0.4l-0.1-0.1L207.8,123.6z"/>
		<path class="st19" d="M165.8,127c0,0.2-0.1,0.5-0.1,0.7c0.1-0.1,0.2-0.3,0.2-0.4l0-0.1L165.8,127z"/>
		<path class="st19" d="M217.3,108.8l-1.2,0.1c0.2,0,0.4-0.1,0.6-0.1C216.9,108.8,217.1,108.8,217.3,108.8"/>
		<path class="st19" d="M154,114l1.2-0.1c-0.2,0-0.4,0-0.6,0C154.4,114,154.2,114,154,114"/>
		<path class="st17" d="M224.7,112.7c0.1,1-0.6,1.8-1.4,1.9c-0.9,0.1-1.6-0.6-1.7-1.6c-0.1-1,0.6-1.8,1.4-1.9
			C223.8,111,224.6,111.7,224.7,112.7"/>
		<path class="st17" d="M147.4,119c0.1,1,0.9,1.7,1.7,1.6c0.9-0.1,1.5-0.9,1.4-1.9c-0.1-1-0.9-1.7-1.7-1.6
			C147.9,117.3,147.3,118.1,147.4,119"/>
		<path class="st13" d="M192.3,191.6c0.4,0,0.8,0.3,0.8,0.7l1.4,17.6c0,0.4-0.3,0.8-0.7,0.8c-0.4,0-0.8-0.3-0.8-0.7l-1.4-17.6
			C191.6,192,191.9,191.7,192.3,191.6"/>
		<path class="st13" d="M204.3,190.9c-0.5,0-0.9-0.3-0.9-0.9c0-0.5,0.3-1,0.8-1c0.5,0,0.9,0.3,0.9,0.9
			C205.1,190.4,204.7,190.8,204.3,190.9"/>
		<path class="st13" d="M180.3,192.9c0.5,0,0.8-0.5,0.8-1c0-0.5-0.5-0.9-0.9-0.9c-0.5,0-0.8,0.5-0.8,1
			C179.4,192.5,179.8,192.9,180.3,192.9"/>
		<path class="st13" d="M214.1,190.1c-0.5,0-0.9-0.3-0.9-0.9c0-0.5,0.3-1,0.8-1c0.5,0,0.9,0.3,0.9,0.9
			C214.9,189.6,214.5,190,214.1,190.1"/>
		<path class="st13" d="M170.5,193.7c0.5,0,0.8-0.5,0.8-1c0-0.5-0.5-0.9-0.9-0.9c-0.5,0-0.8,0.5-0.8,1
			C169.6,193.3,170,193.7,170.5,193.7"/>
		<path class="st13" d="M223.9,189.3c-0.5,0-0.9-0.3-0.9-0.9c0-0.5,0.3-1,0.8-1c0.5,0,0.9,0.3,0.9,0.9
			C224.7,188.8,224.3,189.2,223.9,189.3"/>
		<path class="st13" d="M160.7,194.5c0.5,0,0.8-0.5,0.8-1c0-0.5-0.5-0.9-0.9-0.9c-0.5,0-0.8,0.5-0.8,1
			C159.8,194.1,160.2,194.5,160.7,194.5"/>
		<path class="st13" d="M233.7,188.5c-0.5,0-0.9-0.3-0.9-0.9c0-0.5,0.3-1,0.8-1c0.5,0,0.9,0.3,0.9,0.9
			C234.5,188,234.1,188.4,233.7,188.5"/>
		<path class="st13" d="M150.9,195.3c0.5,0,0.8-0.5,0.8-1c0-0.5-0.5-0.9-0.9-0.9c-0.5,0-0.8,0.5-0.8,1
			C150,194.9,150.4,195.3,150.9,195.3"/>
		<path class="st13" d="M208.3,180.1c-0.5,0-0.9-0.3-0.9-0.9c0-0.5,0.3-1,0.8-1c0.5,0,0.9,0.3,0.9,0.9
			C209.1,179.7,208.8,180.1,208.3,180.1"/>
		<path class="st13" d="M174.5,182.9c0.5,0,0.8-0.5,0.8-1c0-0.5-0.5-0.9-0.9-0.9c-0.5,0-0.8,0.5-0.8,1
			C173.7,182.6,174.1,183,174.5,182.9"/>
		<path class="st13" d="M218.1,179.3c-0.5,0-0.9-0.3-0.9-0.9c0-0.5,0.3-1,0.8-1c0.5,0,0.9,0.3,0.9,0.9
			C218.9,178.9,218.6,179.3,218.1,179.3"/>
		<path class="st13" d="M164.7,183.7c0.5,0,0.8-0.5,0.8-1c0-0.5-0.5-0.9-0.9-0.9c-0.5,0-0.8,0.5-0.8,1
			C163.9,183.4,164.3,183.8,164.7,183.7"/>
		<path class="st13" d="M227.9,178.5c-0.5,0-0.9-0.3-0.9-0.9c0-0.5,0.3-1,0.8-1c0.5,0,0.9,0.3,0.9,0.9
			C228.7,178,228.4,178.5,227.9,178.5"/>
		<path class="st13" d="M154.9,184.5c0.5,0,0.8-0.5,0.8-1c0-0.5-0.5-0.9-0.9-0.9c-0.5,0-0.8,0.5-0.8,1
			C154.1,184.2,154.5,184.6,154.9,184.5"/>
		<path class="st13" d="M207.1,201.1c-0.5,0-0.9-0.3-0.9-0.9c0-0.5,0.3-1,0.8-1c0.5,0,0.9,0.3,0.9,0.9S207.6,201,207.1,201.1"/>
		<path class="st13" d="M179.1,203.4c0.5,0,0.8-0.5,0.8-1s-0.5-0.9-0.9-0.9c-0.5,0-0.8,0.5-0.8,1S178.7,203.4,179.1,203.4"/>
		<path class="st13" d="M216.9,200.2c-0.5,0-0.9-0.3-0.9-0.9c0-0.5,0.3-1,0.8-1c0.5,0,0.9,0.3,0.9,0.9S217.4,200.2,216.9,200.2"/>
		<path class="st13" d="M169.3,204.2c0.5,0,0.8-0.5,0.8-1s-0.5-0.9-0.9-0.9c-0.5,0-0.8,0.5-0.8,1S168.9,204.2,169.3,204.2"/>
		<path class="st13" d="M226.7,199.4c-0.5,0-0.9-0.3-0.9-0.9c0-0.5,0.3-1,0.8-1c0.5,0,0.9,0.3,0.9,0.9S227.2,199.4,226.7,199.4"/>
		<path class="st13" d="M159.5,205c0.5,0,0.8-0.5,0.8-1c0-0.5-0.5-0.9-0.9-0.9c-0.5,0-0.8,0.5-0.8,1
			C158.6,204.6,159.1,205,159.5,205"/>
		<path class="st15" d="M256.5,78.5c-1.5,18.2-15.1,28.4-27.5,29.4c-0.3,0-10.3,0.8-12.9,1.1c-6.7,0.6-10.6,8.6-8.1,15.3
			c-6-7.1-2-18.8,6.8-19.5l13.8-1.1C239.8,102.7,250.4,94.4,256.5,78.5"/>
		<path class="st15" d="M110.4,90.5c4.5,17.7,19.6,25.5,32,24.5c0.3,0,10.3-0.9,12.9-1.1c6.7-0.5,11.8,6.7,10.5,13.8
			c4.7-8-1-18.8-9.9-18.1l-13.8,1.1C130.9,111.7,119,105.2,110.4,90.5"/>
		<path class="st20" d="M208,124.2c-0.9-1-1.5-2.1-2-3.3c0.5,1.1,1.2,2.2,1.9,3.1C208,124.1,208,124.2,208,124.2"/>
		<path class="st20" d="M165.7,127.7c0.7-1.2,1.1-2.4,1.4-3.6c-0.3,1.2-0.8,2.3-1.4,3.4C165.7,127.6,165.7,127.7,165.7,127.7"/>
		<path class="st21" d="M232.7,89.1c-6.7,2.6-12.6,0.2-19.1,3.3c-4.1,1.9-6.6,8.1-6.3,11.7c0.8-2.9,5.2-9.9,12.9-9.5
			c8.8,0.4,12.5-0.1,16.8-2.8c6.3-3.9,9.8-9.9,10.3-16.8C243.9,83,240.1,86.3,232.7,89.1"/>
		<path class="st21" d="M135.6,97.1c7,1.4,12.4-1.9,19.4,0.1c4.3,1.2,7.8,6.9,8.1,10.5c-1.3-2.7-6.8-8.9-14.3-7.3
			c-8.6,1.8-12.3,2-17.1,0c-6.8-2.8-11.3-8.2-12.9-14.9C123.5,92.9,127.9,95.5,135.6,97.1"/>
		<path class="st21" d="M185.4,107.8c0.3-0.7,0.5-1.5,0.9-2.2c0.3-0.8,0.7-1.6,1.2-2.5c14.9-29.1,40.9-5.6,46.8-39.6
			C229,74.9,223,78,214.7,80.1c-7.6,1.9-14.5-1-24.7,6.6c-1.3,1-2.6,2.3-3.7,4.1c0.5-3.2,1.7-6.2,3.5-8.9c-0.7,0.4-1.4,0.8-2,1.2
			c3.2-7.5,0.5-20.5-6.6-25.4c-6.3,6-6.7,19.2-2.4,26.1c-0.7-0.4-1.4-0.7-2.1-0.9c2.2,2.4,3.9,5.2,4.9,8.2c-1.4-1.7-2.9-2.7-4.4-3.5
			c-11.3-5.8-17.7-1.9-25.4-2.5c-8.5-0.7-14.9-2.7-21.9-13.1c11.4,32.5,33.2,5.1,52.6,31.4c0.6,0.7,1.1,1.5,1.5,2.2
			C184.6,106.5,185,107.1,185.4,107.8"/>
		<path class="st21" d="M193.2,80c13.1-10.3,28.5,1.1,32.5-21.7c-3.6,8-7.8,9.2-13.6,10.6c-4.1,1-8.6,0-13.8,2.2
			c-1.4-11.4-7.9-21-16.7-22.2C190.2,52.4,193.9,66,193.2,80"/>
		<path class="st21" d="M173.1,81.7c-14.6-8-28,5.7-35.6-16.1c4.9,7.3,9.2,7.8,15.2,8.2c4.2,0.3,8.5-1.4,14-0.1
			c-0.5-11.5,4.3-22,12.8-24.6C171.5,53.9,170.1,68,173.1,81.7"/>
		<path class="st21" d="M239.9,68c-0.7,8.4-6.3,15.1-13.6,16.7C235.4,87.7,243.6,77.7,239.9,68"/>
		<path class="st21" d="M125.1,77.4c2.1,8.1,8.7,13.8,16.2,14.2C132.7,96.1,123,87.6,125.1,77.4"/>
		<path class="st21" d="M191,133.5c8.6-0.2,13-11.3,7.3-18.5C199.8,122.4,196.8,129.9,191,133.5"/>
		<path class="st21" d="M184,134.1c-8.5,1.2-14.6-9.1-10.2-17.1C173.5,124.6,177.7,131.5,184,134.1"/>
		<path class="st21" d="M192.2,106.2c0.6,0.2,1.2,0.3,1.7,0.3c-6,3-8.8,11.7-4.5,18.5c-1.5-11.1,5.4-14.8,9.4-17.4
			c5.6-3.6,7.8-11,5.3-17C203.8,98.2,198.8,104.5,192.2,106.2"/>
		<path class="st21" d="M178.3,107.3c-0.6,0.3-1.1,0.5-1.7,0.6c6.4,2,10.6,10.1,7.5,17.5c-0.3-11.2-7.8-13.7-12.1-15.6
			c-6.1-2.7-9.5-9.6-8-15.9C165.6,101.4,171.5,106.7,178.3,107.3"/>
		<path class="st21" d="M202.7,64.4c6.6,1.6,14.2-1.8,17.3-9c-4,3.2-9.1,4.9-14.1,3.9c-1.3-5.6-4.7-9.9-10.8-10.6
			C200.7,52.1,202,58.7,202.7,64.4"/>
		<path class="st21" d="M161.1,67.8c-6.3,2.6-14.3,0.6-18.5-6.1c4.4,2.5,9.7,3.4,14.5,1.5c0.4-5.8,3-10.6,8.9-12.2
			C161.1,55.4,161,62.1,161.1,67.8"/>
		<path class="st20" d="M231.4,131.9c9.2-4.5,14.6-14.6,13.4-25.4C252.5,117.8,244.6,133.5,231.4,131.9"/>
		<path class="st20" d="M143.9,139.1c-9.8-3-16.8-12-17.3-22.8C120.7,128.7,131.2,142.9,143.9,139.1"/>
		<path class="st20" d="M233.5,144.2c19.8-7,22.9-20.2,20.7-38.5C265.4,124.3,255.6,146.4,233.5,144.2"/>
		<path class="st20" d="M143.9,151.6c-20.7-3.6-25.9-16.2-26.7-34.6C109.1,137.2,122.4,157.3,143.9,151.6"/>
		<path class="st20" d="M270.2,131c0-9.3-1.8-20.7-6.4-26c5.3,20.2,0.6,44.2-21.5,51.4c9.4,0.1,17.4-3.2,22.9-8.4
			c3.1,13.6,10.9,17.5,13.1,18.3C270.9,154,270.2,141.7,270.2,131"/>
		<path class="st20" d="M105.5,144.6c-1.5-9.1-1.6-20.8,2-26.7c-2,20.8,6.6,43.8,29.6,47.2c-9.2,1.7-17.7-0.3-24-4.6
			c-0.9,13.9-7.9,19.1-10,20.2C108.6,167.4,107.2,155.1,105.5,144.6"/>
		<path class="st22" d="M190.4,168.8c0.5,0.1,1.1,0.1,1.7,0c1.3-0.1,2.4-0.8,3.2-2c1.5-2.2,0.4-0.7,2.9-4.3c1.5-2.2,3.3-3.3,5.4-3.4
			c3.8-0.3,6.8-3.6,7.2-7.6c3.9,5.4,1.8,12.9-3.4,15.4c-0.3-1.4-1.5-2.3-2.8-2.2c-1.4,0.1-2.5,1.5-2.4,3.1c0.1,0.9,0.5,1.7,1.2,2.2
			c-2.6,3.9-7.6,11.2-7.6,11.2l0.7,8.6l-3.8,5.7l-4.7-5l-0.7-8.6c0,0-6.1-6.5-9.3-9.8c0.6-0.6,0.9-1.4,0.8-2.3
			c-0.1-1.6-1.4-2.8-2.9-2.7c-1.3,0.1-2.3,1.3-2.4,2.6c-5.6-1.6-8.9-8.7-5.9-14.6c1.1,3.9,4.5,6.7,8.3,6.3c2.1-0.2,4.1,0.6,5.9,2.5
			c3,3.2,1.8,1.9,3.6,3.8c0.9,1,2.2,1.5,3.5,1.4C189.3,169,189.8,169,190.4,168.8"/>
	</g>
	<g>
		<defs>
			<path id="XMLID_4_" d="M137.4,250.3c0,0-2.7-29.1,29.2-24.6c31.8,4.5,4.5,67.7-1.5,83.7c-6,16.1-2,42.1,17.4,41.8l-42.9,0.9
				c0,0-9-30.1,18-74.7s-8.3-16-8.3-16s-19.3,16.9-21.7,15.2C125.1,274.9,137.4,250.3,137.4,250.3z"/>
		</defs>
		<use xlink:href="#XMLID_4_"  style="overflow:visible;fill:#EDEDED;"/>
		<clipPath id="XMLID_20_">
			<use xlink:href="#XMLID_4_"  style="overflow:visible;"/>
		</clipPath>
		<g class="st23">
			<path class="st24" d="M153.1,248.4c-0.7,0.1-1.4-0.6-1.3-1.3c0.1-0.7,1-1.1,1.6-0.8c0.6,0.3,0.8,1.3,0.4,1.8
				c-0.5,0.5-1.4,0.5-1.9,0c-0.2-0.3-0.3-0.7-0.1-1c0.2-0.4,0.6-0.5,1-0.5c0.3,0,0.6,0.2,0.6,0.5c0,0.3-0.3,0.6-0.5,0.4
				c-0.2-0.2-0.1-0.6,0.2-0.7c0.1,0.3-0.4,0.4-0.5,0.2"/>
			<g>
				<path d="M153,247.9C153.2,247.9,153,247.9,153,247.9c-0.1,0-0.1,0-0.1,0C152.9,247.9,152.9,247.9,153,247.9
					C153,247.9,152.9,247.9,153,247.9c-0.1,0-0.2,0-0.2,0c0,0,0,0,0,0c0,0,0,0,0,0c0,0-0.1,0-0.1,0c0,0-0.1,0-0.1-0.1
					c-0.1,0,0.1,0.1,0,0c0,0,0,0,0,0c0,0-0.1-0.1-0.1-0.1c0,0,0-0.1,0,0c0,0,0,0-0.1-0.1c0,0,0-0.1-0.1-0.1c0-0.1,0,0,0,0
					c0,0,0,0,0-0.1c0,0,0-0.1,0-0.1c0-0.1,0,0.1,0,0c0,0,0-0.1,0-0.1c0,0,0,0,0-0.1c0-0.1,0,0,0,0c0,0,0-0.1,0-0.1c0,0,0,0,0,0
					c0,0.1,0,0.1,0,0c0,0,0-0.1,0.1-0.1c0,0,0.1-0.1,0,0c-0.1,0.1,0,0,0,0c0,0,0.1-0.1,0.1-0.1c0,0,0,0,0,0c0,0-0.1,0.1,0,0
					c0,0,0.1-0.1,0.1-0.1c0,0,0.1,0,0.1-0.1c-0.1,0.1-0.1,0,0,0c0,0,0,0,0.1,0c0,0,0.1,0,0.1,0c0,0,0,0,0.1,0c-0.1,0-0.1,0,0,0
					c0,0,0.1,0,0.1,0c0,0,0,0,0.1,0c0.1,0-0.1,0-0.1,0c0,0,0.1,0,0.1,0c0,0,0,0,0,0c0.1,0-0.1-0.1,0,0c0,0,0.1,0,0.1,0.1
					c0,0,0.1,0.1,0,0c-0.1-0.1,0,0,0,0c0,0,0.1,0.1,0.1,0.1c0,0,0,0.1,0,0c0,0,0,0,0,0.1c0,0,0,0.1,0.1,0.1c0,0,0,0,0,0.1
					c0,0.1,0,0,0,0c0,0.1,0.1,0.2,0.1,0.2c0,0.1,0-0.1,0,0c0,0,0,0,0,0.1c0,0,0,0.1,0,0.1c0,0,0,0,0,0.1c0,0.1,0-0.1,0-0.1
					c0,0,0,0.1,0,0.2c0,0-0.1,0.1,0,0.1c0-0.1,0,0,0,0.1c0,0-0.1,0.1-0.1,0.1c0,0,0.1-0.1,0,0c0,0,0,0-0.1,0.1c0,0,0,0,0,0
					c0,0-0.1,0,0,0c0,0-0.1,0-0.1,0.1c0,0-0.1,0-0.1,0.1c0.1-0.1,0.1,0,0,0c0,0-0.1,0-0.1,0C153.1,248,153.1,248,153,247.9
					c0,0.1,0.2,0.1,0.1,0.1C153.1,248,153.1,248,153,247.9C153,248,153,248,153,247.9c-0.1,0.1-0.3,0-0.1,0.1c-0.1,0-0.2,0-0.2-0.1
					c0,0-0.1,0,0,0c0,0,0,0,0,0c0,0-0.1,0-0.1-0.1c0,0-0.1-0.1,0,0c0,0,0,0,0,0c0,0-0.1-0.1-0.1-0.1c0,0,0,0,0,0c0.1,0.1,0,0.1,0,0
					c0,0,0,0,0-0.1c0,0,0,0,0,0c0,0,0,0,0,0c0,0,0-0.1,0-0.2c0,0,0-0.1,0,0c0,0,0,0,0-0.1c0,0,0-0.1,0-0.1c0,0,0,0.1,0,0
					c0,0,0,0,0-0.1c0,0,0,0,0-0.1c0,0.1,0,0.1,0,0c0,0,0,0,0-0.1c0-0.1-0.1,0.1,0,0c0,0,0.1-0.1,0.1-0.1c0,0,0,0-0.1,0c0,0,0,0,0,0
					c0,0,0,0,0.1,0c0,0,0.1,0,0,0c0,0,0.1,0,0.1,0c0,0,0,0,0.1,0c0.1,0,0.1,0,0,0c0,0,0.1,0,0.1,0c0,0,0,0,0.1,0c0.1,0-0.1,0,0,0
					c0.1,0,0.1,0,0.2,0c0.1,0,0,0,0,0c0,0,0.1,0,0.1,0.1c0.1,0,0,0,0,0c0,0,0,0,0.1,0.1c0.1,0.1,0,0,0,0c0,0,0,0.1,0,0.1
					c0,0,0,0,0-0.1c0,0,0,0,0,0.1c0,0,0-0.1,0-0.1c0,0,0,0,0,0.1c0,0,0-0.1,0-0.1c0,0.1,0.1-0.1,0,0c0,0-0.1,0.1,0,0c0,0,0,0,0,0
					c0,0,0,0,0,0c0,0,0,0,0,0c-0.1,0,0.1,0,0,0c0,0,0.1,0,0.1,0c0,0,0,0,0,0c0.1,0,0.1,0,0,0c0.1,0,0.1,0,0.1,0
					c0.1,0.1,0.1,0.1,0.2,0.2c0,0,0,0,0-0.1c0,0.1,0,0.1,0,0c0,0,0,0,0,0c0,0.1,0,0.1,0,0.1c0,0,0,0,0,0c0-0.1,0,0.1,0,0
					c0,0,0-0.1,0,0c0,0.1,0,0,0,0c0,0-0.1,0.1,0,0c0,0,0,0-0.1,0c0,0,0,0,0,0c-0.2-0.1-0.5-0.2-0.7-0.3c0,0.1,0,0,0-0.1
					c0,0.1,0,0,0-0.1c0,0,0,0,0-0.1c0,0,0,0,0-0.1c0,0-0.1,0.1,0,0c-0.1,0.1,0.1,0,0,0c-0.1,0-0.1,0,0,0c0,0-0.1,0,0.1,0
					c-0.1,0,0.1,0.1,0,0c0.1,0,0.1,0.1,0.1,0.1c0,0,0,0,0,0.1c-0.1-0.2-0.3-0.4-0.6-0.3c-0.2,0.1-0.4,0.4-0.3,0.6
					c0.1,0.2,0.2,0.4,0.5,0.5c0.2,0,0.3,0,0.5,0c0.4-0.1,0.7-0.5,0.5-0.9c-0.1-0.3-0.5-0.4-0.7-0.3c-0.3,0.2-0.5,0.6-0.5,0.9
					c0,0.2,0.1,0.5,0.3,0.6c0.2,0.1,0.4,0.1,0.6,0.1c0.4-0.1,0.7-0.5,0.7-0.9c0-0.4-0.3-0.7-0.6-0.9c-0.7-0.3-1.5-0.1-1.9,0.5
					c-0.2,0.3-0.3,0.7-0.2,1.1c0.1,0.4,0.3,0.7,0.6,0.9c0.4,0.3,1.1,0.4,1.6,0.2c0.3-0.1,0.6-0.3,0.8-0.6c0.2-0.2,0.2-0.5,0.3-0.8
					c0-0.6-0.3-1.2-0.8-1.5c-0.5-0.3-1.2-0.3-1.7,0c-0.3,0.1-0.5,0.4-0.6,0.6c-0.2,0.3-0.2,0.7-0.2,1c0.1,0.6,0.7,1.2,1.3,1.3
					c0.2,0,0.4,0,0.6,0c0.1,0,0.2-0.1,0.3-0.2c0.1-0.1,0.1-0.3,0.1-0.4c0-0.1-0.1-0.2-0.2-0.3C153.3,247.9,153.1,247.9,153,247.9
					L153,247.9z"/>
			</g>
		</g>
		<polygon class="st25" points="135.8,249.4 142.6,250.2 148.9,257.4 152.7,258.7 152.9,263.5 130.2,278.8 124.9,277.2 125.9,271.3 
			131.3,255.6 		"/>
		<g class="st23">
			<path class="st24" d="M136.1,247.5c2-1.2,4.7-0.4,6.6,1c1.9,1.5,3.3,3.4,5.1,4.9c1.8,1.5,4.5,2.4,6.6,1.2c0.5-0.3,1-0.7,1.6-0.9
				c0.6-0.2,1.3,0.1,1.5,0.6c0.1,0.5-0.2,0.9-0.5,1.3c-1.1,1.3-2.5,2.3-4.1,3c-0.6,0.2-1.1,0.4-1.7,0.4c-1.8,0-3.2-1.5-4.4-2.9
				c-3.2-3.6-7.3-7.1-12.2-7"/>
			<g>
				<path d="M136.3,247.9c3.3-1.9,6.7,1.4,8.8,3.6c2.1,2.3,5,4.8,8.3,4c0.8-0.2,1.4-0.6,2-1c0.3-0.2,0.7-0.4,1.1-0.3
					c0.7,0.2,0.2,0.9-0.1,1.2c-1.1,1.3-2.7,2.4-4.4,2.9c-1.8,0.6-3.2-0.6-4.4-1.8c-1.1-1.2-2.2-2.5-3.5-3.6c-2.7-2.4-6-4.3-9.7-4.3
					c-0.6,0-0.6,1,0,1c3.8,0,7.1,2.2,9.8,4.8c1.3,1.2,2.4,2.7,3.8,3.9c1.5,1.2,3.1,1.5,4.9,0.8c1.7-0.7,3.2-1.8,4.4-3.2
					c0.5-0.6,0.9-1.4,0.3-2.1c-0.4-0.5-1.1-0.7-1.7-0.6c-0.9,0.2-1.5,0.9-2.4,1.2c-0.9,0.3-1.8,0.2-2.7,0c-1.9-0.5-3.3-1.9-4.7-3.3
					c-1.5-1.5-2.9-3.2-4.8-4.1c-1.7-0.8-3.8-1.1-5.5-0.1C135.3,247.4,135.8,248.3,136.3,247.9L136.3,247.9z"/>
			</g>
		</g>
		<g class="st23">
			<path class="st24" d="M136.8,248.8c2.6,1.1,5.9,2.9,8.2,4.5c-1.8-2.7-5-4.1-8-5.4c0.8-0.5,1.8,0,2.6,0.6c1.4,1.1,2.7,2.2,4,3.5
				c-1.5-1.1-2.9-2.5-4.1-4c2.3,0.6,4.3,2.2,5.3,4.3c-2-1.6-4-3.2-5.9-5c2,0.6,3.5,2.2,4.9,3.8c1.8,2,3.4,4.1,5.1,6.3
				c-1.8-1.5-3.5-3.1-5-4.9c1.5,2.5,3.7,4.5,6.2,5.9c-1.8-2-3.6-4-5.5-6c2.4,1.2,4.3,3.2,6.1,5.1c-2.2-1.5-4.1-3.4-5.6-5.6
				c2.3,1.9,4.4,4,6.5,6.1c-0.7,0-1.4-0.2-2-0.4c0.6,0.8,1.7,1.3,2.7,1.1c0.3,0,0.6-0.1,0.7-0.4c0.1-0.3-0.2-0.7-0.5-0.9
				c-1-0.7-2.1-1.1-3.3-1.1c1.5,1,3.3,1.6,5.1,1.8c-1.3-1-2.7-1.9-4.2-2.5c1.3,0.6,2.6,1.2,3.9,1.8c-1.3-0.7-2.7-1.3-4.1-1.8
				c1.6,0.6,3.2,0.9,4.8,1.1c-0.7-0.2-1.5-0.3-2.2-0.5c0.7-0.3,1.5-0.5,2.3-0.5c-0.7,0.1-1.4,0.2-2.1,0.3c0.8-0.8,2.1-1.2,3.2-1
				c-0.2,0.9-1.4,1.5-2.2,1.1c0.3-0.4,0.6-0.8,1-1.2c0.3-0.3,0.8-0.5,1.1-0.3c0.4,0.2,0.2,0.9-0.2,0.8c-0.1-0.5,0.4-1,0.9-0.8
				c0,0.2,0,0.5,0,0.7"/>
			<g>
				<path d="M136.6,249.2c2.9,1.2,5.6,2.8,8.2,4.5c0.4,0.3,1-0.3,0.7-0.7c-2-2.8-5.1-4.2-8.2-5.5c0,0.3,0,0.6,0,0.9
					c1-0.6,2.4,0.9,3.2,1.5c1,0.8,1.9,1.7,2.8,2.6c0.2-0.3,0.4-0.5,0.6-0.8c-1.5-1.1-2.8-2.4-3.9-3.9c-0.2,0.2-0.4,0.5-0.6,0.7
					c2.2,0.6,4,2.1,5,4.1c0.3-0.2,0.5-0.4,0.8-0.6c-2-1.6-4-3.2-5.9-5c-0.2,0.3-0.3,0.6-0.5,0.8c2.1,0.6,3.6,2.4,5,4
					c1.6,1.9,3.2,3.9,4.8,5.9c0.2-0.2,0.5-0.5,0.7-0.7c-1.8-1.5-3.5-3.1-5-4.9c-0.4-0.4-1.1,0.1-0.8,0.6c1.6,2.5,3.8,4.6,6.4,6
					c0.5,0.3,1-0.4,0.6-0.8c-1.8-2-3.6-4-5.5-6c-0.2,0.3-0.4,0.5-0.6,0.8c2.4,1.2,4.2,3.1,6,5c0.2-0.3,0.4-0.5,0.6-0.8
					c-2.1-1.4-4-3.3-5.4-5.4c-0.3,0.2-0.5,0.4-0.8,0.6c2.3,1.9,4.4,4,6.5,6.1c0.1-0.3,0.2-0.6,0.4-0.9c-0.6,0-1.2-0.2-1.9-0.4
					c-0.5-0.2-0.8,0.5-0.5,0.8c0.6,0.7,1.4,1.1,2.2,1.2c0.7,0.1,1.7,0,2-0.8c0.3-0.9-0.8-1.5-1.4-1.9c-0.9-0.5-1.8-0.7-2.8-0.8
					c-0.5,0-0.7,0.7-0.3,0.9c1.7,1,3.5,1.6,5.4,1.9c0.4,0.1,0.7-0.6,0.4-0.9c-1.3-1.1-2.8-2-4.4-2.6c-0.5-0.2-0.9,0.7-0.4,0.9
					c1.3,0.6,2.6,1.2,3.9,1.8c0.6,0.3,1.1-0.6,0.5-0.9c-1.4-0.7-2.8-1.3-4.2-1.9c-0.1,0.3-0.2,0.6-0.3,1c1.6,0.6,3.3,0.9,4.9,1.2
					c0.6,0.1,0.7-0.9,0.1-1c-0.7-0.2-1.5-0.3-2.2-0.5c0,0.3,0,0.6,0,1c0.7-0.3,1.4-0.4,2.2-0.4c0-0.3-0.1-0.7-0.1-1
					c-0.7,0.1-1.4,0.2-2.1,0.3c0.2,0.3,0.3,0.6,0.5,0.8c0.7-0.7,1.7-1,2.7-0.9c-0.1-0.2-0.2-0.4-0.3-0.6c-0.2,0.7-1,1-1.6,0.7
					c0.1,0.2,0.2,0.5,0.3,0.7c0.2-0.3,0.5-0.6,0.7-0.9c0.1-0.1,0.3-0.2,0.4-0.3c0.1-0.1,0.4-0.3,0.5-0.2c0.1,0.2,0.2,0.3,0.4,0.5
					c-0.1-0.2,0-0.3,0.2-0.4c-0.1-0.2-0.2-0.3-0.4-0.5c0,0.2,0,0.5,0,0.7c0,0.6,1,0.6,1,0c0-0.2,0-0.5,0-0.7c0-0.2-0.2-0.5-0.4-0.5
					c-0.8-0.1-1.6,0.4-1.5,1.3c0,0.2,0.1,0.4,0.4,0.5c1,0.3,1.4-1.1,0.6-1.6c-1.1-0.7-2.4,0.9-2.9,1.6c-0.2,0.3,0,0.6,0.3,0.7
					c1.2,0.5,2.5-0.2,2.8-1.4c0.1-0.2-0.1-0.6-0.3-0.6c-1.4-0.2-2.7,0.2-3.7,1.1c-0.4,0.4,0,0.9,0.5,0.8c0.7-0.1,1.4-0.2,2.1-0.3
					c0.6-0.1,0.4-1-0.1-1c-0.8,0-1.6,0.2-2.4,0.5c-0.4,0.2-0.5,0.8,0,1c0.7,0.2,1.5,0.3,2.2,0.5c0-0.3,0.1-0.7,0.1-1
					c-1.6-0.2-3.2-0.6-4.7-1.1c-0.6-0.2-0.9,0.7-0.3,1c1.4,0.5,2.7,1.1,4,1.8c0.2-0.3,0.3-0.6,0.5-0.9c-1.3-0.6-2.6-1.2-3.9-1.8
					c-0.1,0.3-0.3,0.6-0.4,0.9c1.4,0.6,2.8,1.4,4,2.4c0.1-0.3,0.2-0.6,0.4-0.9c-1.7-0.2-3.4-0.8-4.9-1.7c-0.1,0.3-0.2,0.6-0.3,0.9
					c0.6,0,1.1,0.2,1.7,0.4c0.4,0.1,1.2,0.4,1.4,0.8c0.3,0.5-0.9,0.3-1.1,0.2c-0.5-0.2-0.9-0.5-1.3-0.9c-0.2,0.3-0.3,0.6-0.5,0.8
					c0.7,0.3,1.4,0.4,2.1,0.4c0.4,0,0.6-0.6,0.4-0.9c-2.1-2.2-4.2-4.2-6.5-6.1c-0.4-0.3-1.1,0.1-0.8,0.6c1.5,2.3,3.5,4.2,5.8,5.7
					c0.5,0.3,1-0.4,0.6-0.8c-1.8-2-3.7-4-6.2-5.2c-0.5-0.3-1,0.4-0.6,0.8c1.8,2,3.6,4,5.5,6c0.2-0.3,0.4-0.5,0.6-0.8
					c-2.5-1.3-4.6-3.3-6-5.7c-0.3,0.2-0.5,0.4-0.8,0.6c1.5,1.8,3.2,3.4,5,4.9c0.5,0.4,1.1-0.2,0.7-0.7c-1.7-2.1-3.4-4.2-5.1-6.3
					c-1.4-1.6-3-3.3-5.1-3.9c-0.5-0.1-0.9,0.5-0.5,0.8c1.9,1.7,3.9,3.4,5.9,5c0.4,0.3,1-0.1,0.8-0.6c-1.1-2.2-3.2-3.9-5.6-4.6
					c-0.4-0.1-0.8,0.4-0.6,0.7c1.2,1.6,2.6,3,4.2,4.2c0.5,0.3,1-0.4,0.6-0.8c-1.2-1.2-2.4-2.3-3.7-3.3c-1-0.8-2.2-1.6-3.5-0.9
					c-0.3,0.2-0.4,0.7,0,0.9c2.9,1.2,6,2.5,7.8,5.2c0.2-0.2,0.5-0.5,0.7-0.7c-2.6-1.7-5.4-3.3-8.2-4.5
					C136.5,248.1,136,249,136.6,249.2L136.6,249.2z"/>
			</g>
		</g>
	</g>
	<g>
		<defs>
			<path id="XMLID_14_" d="M134.4,250.3c0,0-2.7-29.1,29.2-24.6c31.8,4.5,4.5,67.7-1.5,83.7c-6,16.1-2,42.1,17.4,41.8l-42.9,0.9
				c0,0-9-30.1,18-74.7s-8.3-16-8.3-16s-19.3,16.9-21.7,15.2C122.1,274.9,134.4,250.3,134.4,250.3z"/>
		</defs>
		<use xlink:href="#XMLID_14_"  style="overflow:visible;fill:#FFFFFF;"/>
		<clipPath id="XMLID_21_">
			<use xlink:href="#XMLID_14_"  style="overflow:visible;"/>
		</clipPath>
		<g class="st26">
			<g>
				<path d="M150,247.9C150.2,247.9,150,247.9,150,247.9c-0.1,0-0.1,0-0.1,0C149.9,247.9,149.9,247.9,150,247.9
					C150,247.9,149.9,247.9,150,247.9c-0.1,0-0.2,0-0.2,0c0,0,0,0,0,0c0,0,0,0,0,0c0,0-0.1,0-0.1,0c0,0-0.1,0-0.1-0.1
					c-0.1,0,0.1,0.1,0,0c0,0,0,0,0,0c0,0-0.1-0.1-0.1-0.1c0,0,0-0.1,0,0c0,0,0,0-0.1-0.1c0,0,0-0.1-0.1-0.1c0-0.1,0,0,0,0
					c0,0,0,0,0-0.1c0,0,0-0.1,0-0.1c0-0.1,0,0.1,0,0c0,0,0-0.1,0-0.1c0,0,0,0,0-0.1c0-0.1,0,0,0,0c0,0,0-0.1,0-0.1c0,0,0,0,0,0
					c0,0.1,0,0.1,0,0c0,0,0-0.1,0.1-0.1c0,0,0.1-0.1,0,0c-0.1,0.1,0,0,0,0c0,0,0.1-0.1,0.1-0.1c0,0,0,0,0,0c0,0-0.1,0.1,0,0
					c0,0,0.1-0.1,0.1-0.1c0,0,0.1,0,0.1-0.1c-0.1,0.1-0.1,0,0,0c0,0,0,0,0.1,0c0,0,0.1,0,0.1,0c0,0,0,0,0.1,0c-0.1,0-0.1,0,0,0
					c0,0,0.1,0,0.1,0c0,0,0,0,0.1,0c0.1,0-0.1,0-0.1,0c0,0,0.1,0,0.1,0c0,0,0,0,0,0c0.1,0-0.1-0.1,0,0c0,0,0.1,0,0.1,0.1
					c0,0,0.1,0.1,0,0c-0.1-0.1,0,0,0,0c0,0,0.1,0.1,0.1,0.1c0,0,0,0.1,0,0c0,0,0,0,0,0.1c0,0,0,0.1,0.1,0.1c0,0,0,0,0,0.1
					c0,0.1,0,0,0,0c0,0.1,0.1,0.2,0.1,0.2c0,0.1,0-0.1,0,0c0,0,0,0,0,0.1c0,0,0,0.1,0,0.1c0,0,0,0,0,0.1c0,0.1,0-0.1,0-0.1
					c0,0,0,0.1,0,0.2c0,0-0.1,0.1,0,0.1c0-0.1,0,0,0,0.1c0,0-0.1,0.1-0.1,0.1c0,0,0.1-0.1,0,0c0,0,0,0-0.1,0.1c0,0,0,0,0,0
					c0,0-0.1,0,0,0c0,0-0.1,0-0.1,0.1c0,0-0.1,0-0.1,0.1c0.1-0.1,0.1,0,0,0c0,0-0.1,0-0.1,0C150.1,248,150.1,248,150,247.9
					c0,0.1,0.2,0.1,0.1,0.1C150.1,248,150.1,248,150,247.9C150,248,150,248,150,247.9c-0.1,0.1-0.3,0-0.1,0.1c-0.1,0-0.2,0-0.2-0.1
					c0,0-0.1,0,0,0c0,0,0,0,0,0c0,0-0.1,0-0.1-0.1c0,0-0.1-0.1,0,0c0,0,0,0,0,0c0,0-0.1-0.1-0.1-0.1c0,0,0,0,0,0c0.1,0.1,0,0.1,0,0
					c0,0,0,0,0-0.1c0,0,0,0,0,0c0,0,0,0,0,0c0,0,0-0.1,0-0.2c0,0,0-0.1,0,0c0,0,0,0,0-0.1c0,0,0-0.1,0-0.1c0,0,0,0.1,0,0
					c0,0,0,0,0-0.1c0,0,0,0,0-0.1c0,0.1,0,0.1,0,0c0,0,0,0,0-0.1c0-0.1-0.1,0.1,0,0c0,0,0.1-0.1,0.1-0.1c0,0,0,0-0.1,0c0,0,0,0,0,0
					c0,0,0,0,0.1,0c0,0,0.1,0,0,0c0,0,0.1,0,0.1,0c0,0,0,0,0.1,0c0.1,0,0.1,0,0,0c0,0,0.1,0,0.1,0c0,0,0,0,0.1,0c0.1,0-0.1,0,0,0
					c0.1,0,0.1,0,0.2,0c0.1,0,0,0,0,0c0,0,0.1,0,0.1,0.1c0.1,0,0,0,0,0c0,0,0,0,0.1,0.1c0.1,0.1,0,0,0,0c0,0,0,0.1,0,0.1
					c0,0,0,0,0-0.1c0,0,0,0,0,0.1c0,0,0-0.1,0-0.1c0,0,0,0,0,0.1c0,0,0-0.1,0-0.1c0,0.1,0.1-0.1,0,0c0,0-0.1,0.1,0,0c0,0,0,0,0,0
					c0,0,0,0,0,0c0,0,0,0,0,0c-0.1,0,0.1,0,0,0c0,0,0.1,0,0.1,0c0,0,0,0,0,0c0.1,0,0.1,0,0,0c0.1,0,0.1,0,0.1,0
					c0.1,0.1,0.1,0.1,0.2,0.2c0,0,0,0,0-0.1c0,0.1,0,0.1,0,0c0,0,0,0,0,0c0,0.1,0,0.1,0,0.1c0,0,0,0,0,0c0-0.1,0,0.1,0,0
					c0,0,0-0.1,0,0c0,0.1,0,0,0,0c0,0-0.1,0.1,0,0c0,0,0,0-0.1,0c0,0,0,0,0,0c-0.2-0.1-0.5-0.2-0.7-0.3c0,0.1,0,0,0-0.1
					c0,0.1,0,0,0-0.1c0,0,0,0,0-0.1c0,0,0,0,0-0.1c0,0-0.1,0.1,0,0c-0.1,0.1,0.1,0,0,0c-0.1,0-0.1,0,0,0c0,0-0.1,0,0.1,0
					c-0.1,0,0.1,0.1,0,0c0.1,0,0.1,0.1,0.1,0.1c0,0,0,0,0,0.1c-0.1-0.2-0.3-0.4-0.6-0.3c-0.2,0.1-0.4,0.4-0.3,0.6
					c0.1,0.2,0.2,0.4,0.5,0.5c0.2,0,0.3,0,0.5,0c0.4-0.1,0.7-0.5,0.5-0.9c-0.1-0.3-0.5-0.4-0.7-0.3c-0.3,0.2-0.5,0.6-0.5,0.9
					c0,0.2,0.1,0.5,0.3,0.6c0.2,0.1,0.4,0.1,0.6,0.1c0.4-0.1,0.7-0.5,0.7-0.9c0-0.4-0.3-0.7-0.6-0.9c-0.7-0.3-1.5-0.1-1.9,0.5
					c-0.2,0.3-0.3,0.7-0.2,1.1c0.1,0.4,0.3,0.7,0.6,0.9c0.4,0.3,1.1,0.4,1.6,0.2c0.3-0.1,0.6-0.3,0.8-0.6c0.2-0.2,0.2-0.5,0.3-0.8
					c0-0.6-0.3-1.2-0.8-1.5c-0.5-0.3-1.2-0.3-1.7,0c-0.3,0.1-0.5,0.4-0.6,0.6c-0.2,0.3-0.2,0.7-0.2,1c0.1,0.6,0.7,1.2,1.3,1.3
					c0.2,0,0.4,0,0.6,0c0.1,0,0.2-0.1,0.3-0.2c0.1-0.1,0.1-0.3,0.1-0.4c0-0.1-0.1-0.2-0.2-0.3C150.3,247.9,150.1,247.9,150,247.9
					L150,247.9z"/>
			</g>
		</g>
		<polygon class="st27" points="132.8,249.4 139.6,250.2 145.9,257.4 149.7,258.7 149.9,263.5 127.2,278.8 121.9,277.2 122.9,271.3 
			128.3,255.6 		"/>
		<g class="st26">
			<g>
				<path d="M133.3,247.9c3.3-1.9,6.7,1.4,8.8,3.6c2.1,2.3,5,4.8,8.3,4c0.8-0.2,1.4-0.6,2-1c0.3-0.2,0.7-0.4,1.1-0.3
					c0.7,0.2,0.2,0.9-0.1,1.2c-1.1,1.3-2.7,2.4-4.4,2.9c-1.8,0.6-3.2-0.6-4.4-1.8c-1.1-1.2-2.2-2.5-3.5-3.6c-2.7-2.4-6-4.3-9.7-4.3
					c-0.6,0-0.6,1,0,1c3.8,0,7.1,2.2,9.8,4.8c1.3,1.2,2.4,2.7,3.8,3.9c1.5,1.2,3.1,1.5,4.9,0.8c1.7-0.7,3.2-1.8,4.4-3.2
					c0.5-0.6,0.9-1.4,0.3-2.1c-0.4-0.5-1.1-0.7-1.7-0.6c-0.9,0.2-1.5,0.9-2.4,1.2c-0.9,0.3-1.8,0.2-2.7,0c-1.9-0.5-3.3-1.9-4.7-3.3
					c-1.5-1.5-2.9-3.2-4.8-4.1c-1.7-0.8-3.8-1.1-5.5-0.1C132.3,247.4,132.8,248.3,133.3,247.9L133.3,247.9z"/>
			</g>
		</g>
		<g class="st26">
			<g>
				<path d="M133.6,249.2c2.9,1.2,5.6,2.8,8.2,4.5c0.4,0.3,1-0.3,0.7-0.7c-2-2.8-5.1-4.2-8.2-5.5c0,0.3,0,0.6,0,0.9
					c1-0.6,2.4,0.9,3.2,1.5c1,0.8,1.9,1.7,2.8,2.6c0.2-0.3,0.4-0.5,0.6-0.8c-1.5-1.1-2.8-2.4-3.9-3.9c-0.2,0.2-0.4,0.5-0.6,0.7
					c2.2,0.6,4,2.1,5,4.1c0.3-0.2,0.5-0.4,0.8-0.6c-2-1.6-4-3.2-5.9-5c-0.2,0.3-0.3,0.6-0.5,0.8c2.1,0.6,3.6,2.4,5,4
					c1.6,1.9,3.2,3.9,4.8,5.9c0.2-0.2,0.5-0.5,0.7-0.7c-1.8-1.5-3.5-3.1-5-4.9c-0.4-0.4-1.1,0.1-0.8,0.6c1.6,2.5,3.8,4.6,6.4,6
					c0.5,0.3,1-0.4,0.6-0.8c-1.8-2-3.6-4-5.5-6c-0.2,0.3-0.4,0.5-0.6,0.8c2.4,1.2,4.2,3.1,6,5c0.2-0.3,0.4-0.5,0.6-0.8
					c-2.1-1.4-4-3.3-5.4-5.4c-0.3,0.2-0.5,0.4-0.8,0.6c2.3,1.9,4.4,4,6.5,6.1c0.1-0.3,0.2-0.6,0.4-0.9c-0.6,0-1.2-0.2-1.9-0.4
					c-0.5-0.2-0.8,0.5-0.5,0.8c0.6,0.7,1.4,1.1,2.2,1.2c0.7,0.1,1.7,0,2-0.8c0.3-0.9-0.8-1.5-1.4-1.9c-0.9-0.5-1.8-0.7-2.8-0.8
					c-0.5,0-0.7,0.7-0.3,0.9c1.7,1,3.5,1.6,5.4,1.9c0.4,0.1,0.7-0.6,0.4-0.9c-1.3-1.1-2.8-2-4.4-2.6c-0.5-0.2-0.9,0.7-0.4,0.9
					c1.3,0.6,2.6,1.2,3.9,1.8c0.6,0.3,1.1-0.6,0.5-0.9c-1.4-0.7-2.8-1.3-4.2-1.9c-0.1,0.3-0.2,0.6-0.3,1c1.6,0.6,3.3,0.9,4.9,1.2
					c0.6,0.1,0.7-0.9,0.1-1c-0.7-0.2-1.5-0.3-2.2-0.5c0,0.3,0,0.6,0,1c0.7-0.3,1.4-0.4,2.2-0.4c0-0.3-0.1-0.7-0.1-1
					c-0.7,0.1-1.4,0.2-2.1,0.3c0.2,0.3,0.3,0.6,0.5,0.8c0.7-0.7,1.7-1,2.7-0.9c-0.1-0.2-0.2-0.4-0.3-0.6c-0.2,0.7-1,1-1.6,0.7
					c0.1,0.2,0.2,0.5,0.3,0.7c0.2-0.3,0.5-0.6,0.7-0.9c0.1-0.1,0.3-0.2,0.4-0.3c0.1-0.1,0.4-0.3,0.5-0.2c0.1,0.2,0.2,0.3,0.4,0.5
					c-0.1-0.2,0-0.3,0.2-0.4c-0.1-0.2-0.2-0.3-0.4-0.5c0,0.2,0,0.5,0,0.7c0,0.6,1,0.6,1,0c0-0.2,0-0.5,0-0.7c0-0.2-0.2-0.5-0.4-0.5
					c-0.8-0.1-1.6,0.4-1.5,1.3c0,0.2,0.1,0.4,0.4,0.5c1,0.3,1.4-1.1,0.6-1.6c-1.1-0.7-2.4,0.9-2.9,1.6c-0.2,0.3,0,0.6,0.3,0.7
					c1.2,0.5,2.5-0.2,2.8-1.4c0.1-0.2-0.1-0.6-0.3-0.6c-1.4-0.2-2.7,0.2-3.7,1.1c-0.4,0.4,0,0.9,0.5,0.8c0.7-0.1,1.4-0.2,2.1-0.3
					c0.6-0.1,0.4-1-0.1-1c-0.8,0-1.6,0.2-2.4,0.5c-0.4,0.2-0.5,0.8,0,1c0.7,0.2,1.5,0.3,2.2,0.5c0-0.3,0.1-0.7,0.1-1
					c-1.6-0.2-3.2-0.6-4.7-1.1c-0.6-0.2-0.9,0.7-0.3,1c1.4,0.5,2.7,1.1,4,1.8c0.2-0.3,0.3-0.6,0.5-0.9c-1.3-0.6-2.6-1.2-3.9-1.8
					c-0.1,0.3-0.3,0.6-0.4,0.9c1.4,0.6,2.8,1.4,4,2.4c0.1-0.3,0.2-0.6,0.4-0.9c-1.7-0.2-3.4-0.8-4.9-1.7c-0.1,0.3-0.2,0.6-0.3,0.9
					c0.6,0,1.1,0.2,1.7,0.4c0.4,0.1,1.2,0.4,1.4,0.8c0.3,0.5-0.9,0.3-1.1,0.2c-0.5-0.2-0.9-0.5-1.3-0.9c-0.2,0.3-0.3,0.6-0.5,0.8
					c0.7,0.3,1.4,0.4,2.1,0.4c0.4,0,0.6-0.6,0.4-0.9c-2.1-2.2-4.2-4.2-6.5-6.1c-0.4-0.3-1.1,0.1-0.8,0.6c1.5,2.3,3.5,4.2,5.8,5.7
					c0.5,0.3,1-0.4,0.6-0.8c-1.8-2-3.7-4-6.2-5.2c-0.5-0.3-1,0.4-0.6,0.8c1.8,2,3.6,4,5.5,6c0.2-0.3,0.4-0.5,0.6-0.8
					c-2.5-1.3-4.6-3.3-6-5.7c-0.3,0.2-0.5,0.4-0.8,0.6c1.5,1.8,3.2,3.4,5,4.9c0.5,0.4,1.1-0.2,0.7-0.7c-1.7-2.1-3.4-4.2-5.1-6.3
					c-1.4-1.6-3-3.3-5.1-3.9c-0.5-0.1-0.9,0.5-0.5,0.8c1.9,1.7,3.9,3.4,5.9,5c0.4,0.3,1-0.1,0.8-0.6c-1.1-2.2-3.2-3.9-5.6-4.6
					c-0.4-0.1-0.8,0.4-0.6,0.7c1.2,1.6,2.6,3,4.2,4.2c0.5,0.3,1-0.4,0.6-0.8c-1.2-1.2-2.4-2.3-3.7-3.3c-1-0.8-2.2-1.6-3.5-0.9
					c-0.3,0.2-0.4,0.7,0,0.9c2.9,1.2,6,2.5,7.8,5.2c0.2-0.2,0.5-0.5,0.7-0.7c-2.6-1.7-5.4-3.3-8.2-4.5
					C133.5,248.1,133,249,133.6,249.2L133.6,249.2z"/>
			</g>
		</g>
	</g>
	<g>
		<path class="st6" d="M342.3,336.9c-1-1.4-3-1.7-4.8-1.6c-3.6,0.1-7.3,0.7-10.7,2c3.3-1.6,6.1-4,8.1-7c0.3-0.5,0.6-1,0.4-1.6
			c-0.3-0.8-1.3-0.9-2.2-0.8c-6.2,0.6-12.3,2.6-17.7,5.9c5.9-4.4,11.9-8.9,15.8-15.1c0.3-0.5,0.7-1.1,0.6-1.7
			c-0.1-1.5-2.2-1.8-3.7-1.6c-6.8,0.9-13.2,3.6-18.7,7.7c7-4.1,13-9.9,17.4-16.6c0.6-0.9,1.1-2.1,0.3-2.8c-0.3-0.3-0.8-0.4-1.3-0.4
			c-2.3-0.1-4.6,0.7-6.7,1.6c-5.2,2.2-10.1,5.1-14.6,8.6c5.3-4.4,10.1-9.5,14.1-15.1c1.9-2.6,3.7-5.5,3.7-8.8c0-0.6-0.1-1.3-0.5-1.7
			c-0.5-0.5-1.3-0.5-2-0.4c-3.9,0.4-7.4,2.5-10.5,4.9c-8,6.2-14.2,14.7-18.3,24s-6.2,19.4-7.1,29.5c0,0,17.8,0.4,40.4-4.5
			C347.1,336.5,342.3,336.9,342.3,336.9z"/>
	</g>
	<g>
		<path class="st1" d="M339.3,336.9c-1-1.4-3-1.7-4.8-1.6c-3.6,0.1-7.3,0.7-10.7,2c3.3-1.6,6.1-4,8.1-7c0.3-0.5,0.6-1,0.4-1.6
			c-0.3-0.8-1.3-0.9-2.2-0.8c-6.2,0.6-12.3,2.6-17.7,5.9c5.9-4.4,11.9-8.9,15.8-15.1c0.3-0.5,0.7-1.1,0.6-1.7
			c-0.1-1.5-2.2-1.8-3.7-1.6c-6.8,0.9-13.2,3.6-18.7,7.7c7-4.1,13-9.9,17.4-16.6c0.6-0.9,1.1-2.1,0.3-2.8c-0.3-0.3-0.8-0.4-1.3-0.4
			c-2.3-0.1-4.6,0.7-6.7,1.6c-5.2,2.2-10.1,5.1-14.6,8.6c5.3-4.4,10.1-9.5,14.1-15.1c1.9-2.6,3.7-5.5,3.7-8.8c0-0.6-0.1-1.3-0.5-1.7
			c-0.5-0.5-1.3-0.5-2-0.4c-3.9,0.4-7.4,2.5-10.5,4.9c-8,6.2-14.2,14.7-18.3,24s-6.2,19.4-7.1,29.5c0,0,17.8,0.4,40.4-4.5
			C344.1,336.5,339.3,336.9,339.3,336.9z"/>
		<g>
			<path class="st1" d="M339.8,336.6c-1.6-2.1-4.5-2-6.8-1.8c-3.1,0.2-6.3,0.8-9.2,1.9c0.1,0.3,0.3,0.6,0.4,0.9c2-1,3.9-2.3,5.5-3.9
				c0.8-0.8,1.5-1.6,2.2-2.5c0.6-0.8,1.4-1.8,1-2.9c-0.3-0.8-1.3-1.1-2.1-1.1c-1.1,0-2.3,0.2-3.5,0.4c-2.5,0.4-5,1.1-7.4,1.9
				c-2.6,1-5.2,2.2-7.6,3.7c0.2,0.3,0.3,0.6,0.5,0.9c5.5-4.1,11-8.3,15.1-13.9c0.8-1.1,2.2-2.7,1.4-4.1c-0.5-1-1.8-1.3-2.9-1.4
				c-1.5-0.1-3.1,0.3-4.6,0.7c-1.7,0.4-3.5,0.9-5.1,1.5c-3.7,1.4-7.1,3.3-10.3,5.6c-0.5,0.4-0.1,1.2,0.5,0.9
				c6-3.6,11.3-8.3,15.6-13.9c0.5-0.7,1.1-1.4,1.6-2.2c0.4-0.6,0.9-1.3,1.1-2c0.2-0.6,0.2-1.4-0.2-1.9c-0.4-0.6-1.1-0.7-1.8-0.7
				c-2-0.1-4,0.5-5.8,1.2c-1.8,0.7-3.5,1.5-5.2,2.3c-3.8,1.9-7.4,4.2-10.7,6.9c0.2,0.2,0.5,0.5,0.7,0.7c5.7-4.7,10.8-10.1,15-16.2
				c1-1.5,1.9-3,2.4-4.7c0.5-1.4,0.9-3.4,0.3-4.8c-0.7-1.4-2.4-1.2-3.8-1c-1.7,0.3-3.4,0.9-4.9,1.7c-3.1,1.6-5.9,3.8-8.4,6.1
				c-2.5,2.3-4.8,4.8-6.9,7.5c-4.2,5.5-7.5,11.8-9.9,18.3c-3,8.1-4.6,16.6-5.3,25.2c0,0.3,0.2,0.5,0.5,0.5c2.6,0.1,5.1,0,7.7-0.2
				c6.5-0.3,13.1-1,19.6-1.9c7.9-1.2,15.7-2.9,23.5-4.7c1.9-0.4,3.8-0.9,5.7-1.4c0.7-0.2,1.5-0.4,2.2-0.7c0.8-0.4,0.4-1.2-0.4-1.1
				c0,0,0,0,0,0c-0.6,0-0.6,1.1,0,1c0.1,0,0.2,0,0.3,0c0,0-0.1-0.1,0,0c-0.2-0.1-0.4-0.3-0.3-0.6c0-0.1,0.1-0.2,0.1-0.2
				c0,0-0.3,0.1-0.1,0c-0.7,0.3-1.4,0.5-2.1,0.7c-1.8,0.5-3.6,0.9-5.4,1.3c-7.4,1.7-14.8,3.4-22.3,4.5c-6.4,1-12.9,1.7-19.4,2
				c-2,0.1-4,0.2-6,0.2c-0.6,0-1.2,0-1.8,0c-0.3,0-0.7-0.1-1,0c0,0-0.1,0-0.1,0c0.2,0.2,0.3,0.3,0.5,0.5c1.2-14,4.9-28,12.8-39.7
				c3.6-5.3,8-10.2,13.2-14c2.7-2,5.7-3.7,9.1-4.2c0.7-0.1,1.7-0.2,2.1,0.4c0.4,0.7,0.3,1.8,0.1,2.5c-0.3,1.7-1,3.3-1.9,4.8
				c-2,3.3-4.5,6.3-7.1,9.2c-2.6,2.9-5.5,5.6-8.5,8.1c-0.5,0.4,0.2,1.1,0.7,0.7c2.7-2.1,5.6-4.1,8.6-5.7c1.5-0.8,3-1.6,4.6-2.3
				c1.6-0.7,3.3-1.4,5.1-1.8c0.9-0.2,1.7-0.3,2.6-0.2c0.4,0,0.9,0.1,1.1,0.4c0.2,0.3,0.1,0.7,0,1c-0.2,0.7-0.7,1.3-1.1,1.9
				c-0.5,0.7-1,1.4-1.5,2c-1.9,2.6-4.1,4.9-6.5,7.1c-2.7,2.5-5.6,4.6-8.7,6.5c0.2,0.3,0.3,0.6,0.5,0.9c5.2-3.8,11.2-6.4,17.5-7.5
				c1.1-0.2,2.6-0.4,3.6,0.2c1.3,0.9-0.4,2.7-1,3.6c-1.8,2.5-4,4.8-6.3,6.8c-2.7,2.4-5.5,4.5-8.4,6.7c-0.5,0.4-0.1,1.2,0.5,0.9
				c3.7-2.3,7.8-4,12.1-5c1-0.2,2.1-0.4,3.1-0.6c1-0.1,2-0.4,3-0.3c0.4,0.1,1,0.2,0.9,0.8c-0.1,0.5-0.6,1.1-0.9,1.5
				c-0.6,0.8-1.2,1.6-1.9,2.3c-1.6,1.6-3.5,2.9-5.5,3.9c-0.5,0.2-0.1,1.1,0.4,0.9c2.7-1,5.4-1.6,8.3-1.8c2-0.2,5.2-0.6,6.7,1.3
				C339.3,337.6,340.2,337.1,339.8,336.6z"/>
		</g>
	</g>
</g>
</svg>
