<?xml version="1.0" encoding="utf-8"?>
<!-- Generator: Adobe Illustrator 24.3.0, SVG Export Plug-In . SVG Version: 6.00 Build 0)  -->
<svg version="1.1" id="圖層_3" xmlns="http://www.w3.org/2000/svg" xmlns:xlink="http://www.w3.org/1999/xlink" x="0px" y="0px"
	 viewBox="0 0 332.5 394.2" style="enable-background:new 0 0 332.5 394.2;" xml:space="preserve">
<style type="text/css">
	.st0{fill:#F7E7D6;}
	.st1{opacity:0.8;}
	.st2{fill:#5F554E;}
	.st3{fill:#DC6897;}
	.st4{fill:#005944;}
	.st5{clip-path:url(#SVGID_2_);fill:#005944;}
	.st6{opacity:0.28;fill:#463266;}
	.st7{fill:#63AD9B;}
	.st8{fill:#096A52;}
	.st9{enable-background:new    ;}
	.st10{clip-path:url(#SVGID_4_);}
	.st11{fill:#365627;}
	.st12{clip-path:url(#SVGID_6_);}
	.st13{fill:#5C7C4E;}
	.st14{clip-path:url(#SVGID_8_);}
	.st15{fill:#B5D3A7;}
	.st16{fill:#C64320;}
	.st17{fill:#D8653D;}
	.st18{fill:#686868;stroke:#D8653D;stroke-width:0.5;stroke-linecap:round;stroke-miterlimit:10;}
</style>
<g>
	<g>
		<path class="st0" d="M221.6,237.8c6.7,8.7,12.5,18.3,16.5,28.6c0.9,2.3,1.8,4.7,2.5,7.1c0.9,3,0.2,4.4-1.7,6.6
			c-3.9,4.6-8.3,8.8-12.9,12.7c-4.5,3.8,2,10.2,6.4,6.4c5.4-4.6,10.6-9.6,15-15.2c3.9-5.1,3.2-9.6,1.2-15.4
			c-4.3-12.8-10.9-24.7-19.1-35.5C225.9,228.7,218,233.2,221.6,237.8L221.6,237.8z"/>
	</g>
</g>
<g>
	<g>
		<path class="st0" d="M146.7,231.8c-20.2,8.2-43.3,17.7-65.4,11.7c-9.5-2.6-17.4-8.5-20.1-18.3c-2.5-9-0.6-18.8,3.3-27
			c2.1-4.5-4.6-8.5-6.7-3.9c-9.3,19.4-7.1,44.7,14.7,54.3c24.9,11,52.9,0.3,76.3-9.2C153.3,237.4,151.3,229.9,146.7,231.8
			L146.7,231.8z"/>
	</g>
</g>
<g class="st1">
	<defs>
		<ellipse id="XMLID_48_" class="st1" cx="176.8" cy="372.3" rx="91.9" ry="11.7"/>
	</defs>
	<use xlink:href="#XMLID_48_"  style="overflow:visible;fill:#3A3A3A;"/>
	<clipPath id="XMLID_3_">
		<use xlink:href="#XMLID_48_"  style="overflow:visible;"/>
	</clipPath>
</g>
<g>
	<defs>
		<path id="XMLID_47_" d="M213.5,280.1c0-4.4-6.8-4.3-6.8,0c1.3,3.6,18.4,53.7,1.9,64.7c-2.3,1.5-4.7,1.9-4.7,1.9
			c-1,0.3-1.7,0.2-2.4,0.3c-0.9,0.2-1.4,0.3-2.2,1.2c-0.8,0.9-1,2-1,2.4c-0.1,0.5-0.2,1.9,0.7,2.9c0.6,0.7,1.7,0.9,4.2,0.5
			c2.1-0.3,4.8-0.8,7.8-2.5c6-3.6,8.8-10.8,9.5-12.5c3.9-9.8,2.8-29.3-4.6-52.6l-2.5-6"/>
	</defs>
	<use xlink:href="#XMLID_47_"  style="overflow:visible;fill:#CB3E54;"/>
	<clipPath id="XMLID_4_">
		<use xlink:href="#XMLID_47_"  style="overflow:visible;"/>
	</clipPath>
</g>
<g>
	<defs>
		<path id="XMLID_46_" d="M154.1,279.5c0.1,31,0.2,62,0.2,93c0,4.4,6.8,4.3,6.8,0c-0.1-31-0.2-62-0.2-93
			C160.8,275.1,154.1,275.1,154.1,279.5"/>
	</defs>
	<use xlink:href="#XMLID_46_"  style="overflow:visible;fill:#CB3E54;"/>
	<clipPath id="XMLID_5_">
		<use xlink:href="#XMLID_46_"  style="overflow:visible;"/>
	</clipPath>
</g>
<g>
	<defs>
		<path id="XMLID_45_" d="M170,221.7l55.6,0.1c0,0,3.4,24.4,5.3,43.6C197.9,259.5,176.7,245.5,170,221.7"/>
	</defs>
	<use xlink:href="#XMLID_45_"  style="overflow:visible;fill:#F7E7D6;"/>
	<clipPath id="XMLID_6_">
		<use xlink:href="#XMLID_45_"  style="overflow:visible;"/>
	</clipPath>
</g>
<g>
	<defs>
		<path id="XMLID_44_" d="M230.7,265.5c0,0.2,0,0.3,0.1,0.5c0,0.2,0.6,0.4,0.6,0.6c0,0.2-0.5,0.5-0.5,0.7c0,0.2,0.2,0.4,0.2,0.6
			c0,0.2-0.4,0.4-0.4,0.6c0,0.2,0.8,0.3,0.8,0.5c0,0.2-0.6,0.5-0.5,0.7c0,0.2,0.3,0.4,0.3,0.6c0,0.2,0.2,0.4,0.3,0.6
			c0,0.2,0.2,0.4,0.2,0.6c0,0.2-0.6,0.5-0.6,0.7c0,0.2,0.6,0.4,0.7,0.6c0,0.2-0.2,0.4-0.2,0.6c0,0.2-0.1,0.4-0.1,0.6
			c0,0.2-0.2,0.4-0.1,0.6c0,0.2,0.3,0.4,0.3,0.6c0,0.2,0,0.4,0,0.6c0,0.2,0.3,0.4,0.3,0.6c0,0.2-0.4,0.4-0.4,0.6
			c0,0.2-0.1,0.4-0.1,0.6c0,0.2,0.6,0.4,0.6,0.6c0,0.2-0.2,0.4-0.2,0.6c0,0.2,0,0.4,0,0.6c0,0.2-0.5,0.4-0.5,0.6
			c0,0.2,0.8,0.4,0.8,0.6c0,0.2-0.3,0.4-0.3,0.6c0,0.2-0.3,0.4-0.3,0.6c0,0.2,0.7,0.3,0.7,0.6c0,0.2-0.6,0.4-0.6,0.6
			c0,0.2,0.5,0.5,0.4,0.7c0,0.2-0.5,0.3-0.6,0.5c-0.1,0.2,0.1,0.5,0,0.7c-0.1,0.1-0.3,0.2-0.5,0.3c0,0.2-0.5,0.3-0.5,0.5
			c0,0.2,0,0.4-0.1,0.6c0,0.2-0.1,0.4-0.1,0.6c-0.1,0.2,0.5,0.6,0.4,0.8c-0.1,0.2-0.5,0.2-0.6,0.4c-0.1,0.2-0.3,0.3-0.4,0.4
			c-0.1,0.1-0.1,0.5-0.2,0.7c-0.1,0.1-0.2,0.4-0.4,0.5c-0.2,0.1-0.6-0.2-0.8,0c-0.2,0.1-0.1,0.6-0.3,0.7c-0.2,0.1-0.6-0.2-0.8-0.1
			c-0.2,0.1-0.1,0.6-0.3,0.7c-0.2,0.1-0.5,0-0.7,0.1c-0.2,0.1-0.4,0.1-0.6,0.2c-0.2,0.1-0.4,0.2-0.6,0.3c-0.2,0.1-0.1,0.6-0.3,0.7
			c-0.2,0.1-0.5-0.2-0.7-0.1c-0.2,0.1-0.4,0-0.6,0.1c-0.2,0.1-0.1,0.7-0.3,0.8c-0.2,0.1-0.5,0-0.6,0.1c-0.2,0.1-0.5-0.2-0.7-0.1
			c-0.2,0.1-0.4,0-0.6,0c-0.2,0.1-0.4,0.1-0.6,0.2c-0.2,0.1-0.3,0.5-0.5,0.6c-0.2,0.1-0.4,0-0.6,0.1c-0.2,0.1-0.4,0-0.6,0.1
			c-0.2,0.1-0.3,0.3-0.5,0.4c-0.2,0.1-0.3,0.3-0.5,0.4c-0.2,0.1-0.3,0.3-0.5,0.4c-0.2,0.1-0.5-0.4-0.7-0.3c-0.2,0.1-0.4-0.1-0.6,0
			c-0.2,0.1-0.3,0.5-0.5,0.5c-0.2,0.1-0.4,0-0.6,0c-0.2,0.1-0.4,0.2-0.6,0.2c-0.2,0-0.5-0.1-0.7-0.1c-0.2,0-0.3,0.4-0.5,0.5
			c-0.2,0-0.3,0.4-0.5,0.4c-0.2,0-0.4,0-0.6,0c-0.2,0-0.5-0.4-0.7-0.3c-0.2,0-0.4,0.2-0.6,0.3c-0.2,0-0.4,0-0.6,0.1
			c-0.2,0-0.5-0.2-0.7-0.2c-0.2,0-0.3,0.7-0.5,0.8c-0.2,0-0.4,0.1-0.6,0.1c-0.2,0-0.5-0.5-0.7-0.4c-0.2,0-0.4,0.3-0.6,0.3
			c-0.2,0-0.4,0-0.6,0c-0.2,0-0.4-0.1-0.6,0c-0.2,0-0.4,0.3-0.6,0.4c-0.2,0-0.4,0.3-0.6,0.3c-0.2,0-0.4-0.1-0.6-0.1
			c-0.2,0-0.4-0.2-0.6-0.2c-0.2,0-0.4-0.1-0.6,0c-0.2,0-0.3,0.5-0.6,0.5c-0.2,0-0.5-0.4-0.7-0.3c-0.2,0-0.4,0.2-0.6,0.2
			c-0.2,0-0.4,0.2-0.6,0.2c-0.2,0-0.4-0.2-0.6-0.2c-0.2,0-0.3,0.6-0.5,0.6c-0.2,0-0.5-0.5-0.7-0.5c-0.2,0-0.4,0.3-0.6,0.3
			c-0.2,0-0.4,0.1-0.6,0.1c-0.2,0-0.4,0.4-0.6,0.4c-0.2,0-0.4,0-0.6,0.1c-0.2,0-0.4-0.2-0.6-0.2c-0.2,0-0.4,0.1-0.6,0.1
			c-0.2,0-0.4,0.2-0.6,0.2c-0.2,0-0.5-0.6-0.7-0.6c-0.2,0-0.4,0.5-0.6,0.5c-0.2,0-0.4-0.3-0.6-0.3c-0.2,0-0.4,0.1-0.6,0.1
			c-0.2,0-0.4-0.1-0.6-0.1c-0.2,0-0.4,0.3-0.6,0.3c-0.2,0-0.4-0.3-0.6-0.2c-0.2,0-0.4,0.3-0.6,0.3c-0.2,0-0.4,0.4-0.6,0.4
			c-0.2,0-0.4,0.2-0.6,0.2s-0.4-0.7-0.7-0.7c-0.2,0-0.4,0.6-0.6,0.6c-0.2,0-0.4,0.1-0.6,0.1c-0.2,0-0.4-0.5-0.6-0.5
			c-0.2,0-0.4,0.1-0.6,0.1c-0.2,0-0.4,0.3-0.6,0.3c-0.2,0-0.4,0.2-0.6,0.2c-0.2,0-0.4,0-0.6,0c-0.2,0-0.4-0.7-0.6-0.7
			c-0.2,0-0.4,0.7-0.6,0.7c-0.2,0-0.4-0.5-0.6-0.6c-0.2,0-0.4-0.2-0.6-0.2c-0.2,0-0.4,0.3-0.6,0.3c-0.2,0-0.4-0.3-0.6-0.3
			c-0.2,0-0.4,0-0.6,0c-0.2,0-0.4,0.6-0.7,0.6c-0.2,0-0.4-0.7-0.6-0.7c-0.2,0-0.4,0.2-0.6,0.2c-0.2,0-0.4,0.1-0.6,0
			c-0.2,0-0.4-0.4-0.6-0.4c-0.2,0-0.4,0.5-0.7,0.5c-0.2,0-0.4-0.1-0.6-0.1c-0.2,0-0.4,0.1-0.6,0.1c-0.2,0-0.4-0.6-0.6-0.6
			c-0.2,0-0.5,0.7-0.7,0.7c-0.2,0-0.4-0.6-0.6-0.6c-0.2,0-0.5,0.5-0.7,0.5c-0.2,0-0.4-0.6-0.6-0.6c-0.2,0-0.4,0.3-0.6,0.3
			c-0.2,0-0.4,0.1-0.6,0.1c-0.2,0-0.4,0-0.6-0.1c-0.2,0-0.4-0.6-0.6-0.6c-0.2,0-0.4-0.1-0.6-0.1c-0.2,0-0.5,0.6-0.7,0.6
			c-0.2,0-0.4-0.1-0.6-0.1c-0.2,0-0.4,0-0.6,0c-0.2,0-0.4-0.4-0.6-0.4c-0.2,0-0.4-0.1-0.6-0.1c-0.2,0-0.4,0.1-0.6,0.1
			c-0.2,0-0.4-0.1-0.6-0.1c-0.2,0-0.4,0.1-0.6,0.1c-0.2,0-0.3-0.7-0.5-0.7c-0.2,0-0.5,0.6-0.7,0.6c-0.2,0-0.3-0.5-0.5-0.6
			c-0.2,0-0.5,0.3-0.7,0.2c-0.2,0-0.4-0.3-0.6-0.3c-0.2,0-0.4-0.3-0.6-0.4c-0.2,0-0.5,0.5-0.7,0.5c-0.2,0-0.4,0-0.6,0
			c-0.2,0-0.4-0.1-0.6-0.2c-0.2,0-0.3-0.6-0.5-0.7c-0.2,0-0.5,0.4-0.7,0.4c-0.2,0-0.3-0.5-0.5-0.5c-0.2,0-0.4-0.2-0.6-0.2
			c-0.2,0-0.4-0.1-0.6-0.1c-0.2,0-0.5,0.4-0.7,0.3c-0.2,0-0.3-0.6-0.5-0.6c-0.2,0-0.4,0-0.6-0.1c-0.2,0-0.4,0-0.6,0
			c-0.2,0-0.5,0.5-0.7,0.4c-0.2-0.1-0.4-0.2-0.6-0.3c-0.2-0.1-0.4-0.1-0.6-0.1c-0.2-0.1-0.3-0.6-0.5-0.7c-0.2-0.1-0.5,0.2-0.7,0.1
			c-0.2-0.1-0.5,0.2-0.7,0.1c-0.2-0.1-0.4-0.2-0.6-0.2c-0.2-0.1-0.4-0.1-0.6-0.2c-0.2-0.1-0.2-0.6-0.4-0.7c-0.2-0.1-0.3-0.2-0.5-0.3
			c-0.2-0.1-0.4,0-0.6-0.1c-0.2-0.1-0.3-0.4-0.5-0.4c-0.2-0.1-0.4,0-0.6-0.1c-0.2-0.1-0.3-0.3-0.5-0.4c-0.2-0.1-0.4-0.1-0.6-0.2
			c-0.2-0.1-0.4-0.1-0.6-0.2c-0.2-0.1-0.6,0.2-0.8,0.1c-0.2-0.1-0.1-0.7-0.3-0.8c-0.2-0.1-0.3-0.2-0.5-0.3c-0.2-0.1-0.3-0.2-0.5-0.3
			c-0.2-0.1-0.5,0.1-0.7,0c-0.2-0.1-0.2-0.5-0.3-0.6c-0.2-0.1-0.7,0.3-0.9,0.1c-0.2-0.1,0-0.7-0.1-0.8c-0.2-0.1-0.7,0.1-0.8,0
			c-0.2-0.1-0.1-0.5-0.2-0.7c-0.1-0.1-0.2-0.4-0.3-0.6c-0.1-0.2-0.3-0.3-0.4-0.4c-0.1-0.2-0.5-0.1-0.7-0.3c-0.1-0.2-0.4-0.3-0.5-0.4
			c-0.1-0.2,0.1-0.5,0-0.7c-0.1-0.2-0.3-0.3-0.3-0.5c-0.1-0.2,0.2-0.5,0.2-0.7c-0.1-0.2-0.3-0.3-0.3-0.5c0-0.2-0.3-0.3-0.3-0.5
			c0-0.2-0.3-0.3-0.3-0.5c0-0.2,0.2-0.4,0.2-0.6c-0.1-0.2-0.1-0.4-0.2-0.6c-0.1-0.2,0.1-0.4,0-0.6c0-0.2-0.1-0.4-0.1-0.6
			c0-0.2-0.1-0.4-0.1-0.6c0-0.2-0.5-0.4-0.5-0.6c0-0.2,0.1-0.5,0.1-0.6c0-0.2,0-0.4,0-0.6c0-0.2,0-0.4,0-0.6c0-0.2,0.5-0.4,0.5-0.6
			c0-0.2,0.2-0.4,0.2-0.6c0-0.2,0-0.4,0-0.6c0-0.2-0.1-0.4-0.1-0.6c0-0.2,0-0.4,0-0.6c0-0.2,0.1-0.4,0.1-0.6c0-0.2-0.5-0.4-0.5-0.6
			c0-0.2-0.1-0.4-0.1-0.6c0-0.2,0.7-0.4,0.7-0.6c0-0.2-0.4-0.4-0.4-0.6c0-0.2-0.1-0.4-0.1-0.6c0-0.2-0.1-0.4-0.1-0.6
			c0-0.2,0.1-0.4,0.1-0.6c0-0.2,0.1-0.4,0.1-0.6c0-0.2,0.5-0.4,0.5-0.6c0-0.2,0-0.4,0-0.6c0-0.2-0.1-0.4-0.1-0.6
			c0-0.2,0.1-0.4,0.1-0.6c0-0.2-0.4-0.4-0.4-0.6c0-0.2,0.2-0.4,0.2-0.6c0-0.2,0.1-0.4,0.1-0.6c0-0.2,0.3-0.4,0.3-0.6
			c0-0.2-0.2-0.4-0.2-0.6c0-0.2,0-0.4,0-0.6c0-0.2,0.4-0.4,0.4-0.6c0-0.2-0.5-0.4-0.4-0.6c0-0.2,0-0.4,0-0.6c0-0.2,0-0.4,0-0.6
			c0-0.2,0-0.4,0-0.6c0-0.2,0.3-0.4,0.3-0.6c0-0.2-0.3-0.4-0.3-0.6c0-0.2,0.8-0.4,0.8-0.6c0-0.2-0.6-0.5-0.6-0.7
			c0-0.2,0.2-0.4,0.2-0.6c0-0.2,0.4-0.4,0.4-0.6c0-0.2,0.2-0.4,0.2-0.6c0-0.2-0.2-0.4-0.1-0.6c0-0.2,0.2-0.4,0.2-0.6
			c0-0.2-0.2-0.4-0.2-0.6c0-0.2,0.4-0.4,0.4-0.6c0-0.2-0.1-0.4-0.1-0.6c0-0.2-0.5-0.5-0.5-0.7c0-0.2,0.3-0.4,0.4-0.6
			c0-0.2,0-0.4,0-0.6c0-0.2,0.3-0.4,0.4-0.6c0-0.2-0.2-0.4-0.2-0.6c0-0.2,0.4-0.4,0.4-0.6c0-0.2,0-0.4,0-0.6c0-0.2-0.4-0.5-0.4-0.7
			c0-0.2,0.3-0.4,0.3-0.6c0-0.2-0.1-0.4-0.1-0.6c0-0.2,0.3-0.4,0.3-0.6c0-0.2-0.1-0.4-0.1-0.6c0-0.2,0-0.4,0-0.6
			c0-0.2,0.5-0.3,0.5-0.5c0-0.2,0-0.4,0-0.6c0-0.2-0.1-0.4-0.1-0.6c0-0.2,0.1-0.4,0.1-0.6c0-0.2,0-0.4,0.1-0.6
			c0-0.2-0.4-0.5-0.3-0.7c0-0.2,0.7-0.3,0.7-0.5c0-0.2,0.1-0.4,0.1-0.6c0-0.2-0.1-0.4-0.1-0.6c0-0.2,0-0.4,0.1-0.6
			c0-0.2-0.4-0.5-0.3-0.7c0-0.2,0.8-0.3,0.8-0.5c0-0.2-0.6-0.5-0.6-0.7c0-0.2,0.2-0.4,0.2-0.6c0-0.2,0.1-0.4,0.1-0.6
			c0-0.2,0.3-0.4,0.4-0.6c0-0.2-0.1-0.4,0-0.6c0-0.2,0.1-0.4,0.1-0.6c0-0.2,0.1-0.4,0.2-0.6c0-0.2,0.6-0.3,0.6-0.5
			c0-0.2-0.7-0.6-0.6-0.8c0-0.2,0.8-0.2,0.9-0.4c0-0.2,0.1-0.4,0.1-0.6c0-0.2-0.2-0.5-0.2-0.7c0-0.2,0.1-0.4,0.1-0.6
			c0.1-0.2,0.3-0.3,0.4-0.5c0.1-0.2-0.3-0.5-0.3-0.7c0.1-0.2-0.1-0.4,0-0.6c0.1-0.2,0.5-0.3,0.6-0.5c0.1-0.2,0.4-0.3,0.5-0.5
			c0.1-0.2-0.4-0.6-0.4-0.7c0.1-0.2,0.4-0.3,0.5-0.5c0.1-0.2,0.3-0.3,0.4-0.5c0.1-0.2,0.2-0.4,0.3-0.6c0.1-0.2-0.5-0.6-0.5-0.8
			c0.1-0.2,0.6-0.2,0.7-0.4c0.1-0.2,0-0.4,0.1-0.6c0.1-0.2,0.3-0.3,0.4-0.5c0.1-0.2,0.2-0.4,0.3-0.5c0.2-0.4-0.4-0.6-0.1-0.7
			c0.3-0.1,0.3-0.1,0.6-0.1c0.3,0,0.3,0.1,0.6,0.1c0.3,0,0.3-0.4,0.6-0.4c0.3,0,0.3,0.6,0.6,0.6c0.3,0,0.3,0.1,0.6,0.1
			c0.3,0,0.3-0.2,0.6-0.2c0.3,0,0.3-0.3,0.6-0.3c0.3,0,0.3,0,0.6,0c0.3,0,0.3,0.7,0.6,0.7c0.3,0,0.3-0.4,0.6-0.4
			c0.3,0,0.3-0.2,0.6-0.2s0.3,0.5,0.6,0.5c0.3,0,0.3-0.2,0.6-0.2c0.3,0,0.3-0.5,0.6-0.5c0.3,0,0.3,0.5,0.6,0.5
			c0.3,0,0.3-0.4,0.6-0.4c0.3,0,0.3,0.6,0.6,0.6c0.3,0,0.3-0.7,0.6-0.7c0.3,0,0.3,0.3,0.6,0.3s0.3-0.3,0.6-0.3s0.3,0.4,0.6,0.4
			c0.3,0,0.3-0.1,0.6-0.1c0.3,0,0.3,0,0.6,0c0.3,0,0.3,0,0.6,0c0.3,0,0.3,0.5,0.6,0.5c0.3,0,0.3-0.3,0.6-0.3c0.3,0,0.3,0.3,0.6,0.3
			c0.3,0,0.3,0,0.6,0c0.3,0,0.3-0.6,0.6-0.6c0.3,0,0.3,0,0.6,0c0.3,0,0.3,0,0.6,0c0.3,0,0.3,0.3,0.6,0.3c0.3,0,0.3,0.2,0.6,0.2
			c0.3,0,0.3-0.2,0.6-0.2c0.3,0,0.3-0.5,0.6-0.5c0.3,0,0.3,0.4,0.6,0.4c0.3,0,0.3-0.2,0.6-0.2s0.3,0.5,0.6,0.5s0.3-0.5,0.6-0.5
			c0.3,0,0.3,0,0.6,0c0.3,0,0.3,0.3,0.6,0.3c0.3,0,0.3-0.5,0.6-0.5c0.3,0,0.3,0.2,0.6,0.2c0.3,0,0.4-0.1,0.7,0c0,0.2,0,0.6,0,0.8
			c0,0.2-0.4,0.4-0.4,0.6c0,0.2,0.3,0.4,0.3,0.6c0,0.2,0.2,0.4,0.2,0.6c0,0.2,0.2,0.4,0.2,0.6c0,0.2,0,0.4,0.1,0.6
			c0,0.2-0.5,0.5-0.5,0.7c0,0.2,0.5,0.3,0.6,0.5c0,0.2-0.1,0.4-0.1,0.6c0,0.2,0.5,0.3,0.5,0.5c0,0.2,0.1,0.4,0.2,0.6
			c0,0.2,0,0.4,0.1,0.6c0.1,0.2-0.3,0.5-0.2,0.7c0.1,0.2,0,0.4,0.1,0.6c0.1,0.2,0.2,0.4,0.3,0.6c0.1,0.2,0.4,0.3,0.5,0.5
			c0.1,0.2,0.2,0.4,0.2,0.6c0.1,0.2,0.1,0.4,0.2,0.6c0.1,0.2-0.3,0.6-0.2,0.7c0.1,0.2,0,0.4,0.1,0.6c0.1,0.2,0.9,0,0.9,0.2
			c0.1,0.2-0.3,0.6-0.2,0.8c0.1,0.2,0.2,0.4,0.3,0.5c0.1,0.2,0.6,0.1,0.7,0.3c0.1,0.2-0.4,0.7-0.3,0.9c0.1,0.2,0.6,0.1,0.7,0.3
			c0.1,0.2,0.3,0.3,0.5,0.4c0.1,0.2-0.3,0.7-0.2,0.9c0.1,0.2,0.9-0.1,1,0.1c0.1,0.2-0.1,0.6,0,0.8c0.1,0.2,0.5,0.1,0.7,0.3
			c0.1,0.2-0.3,0.8-0.2,0.9c0.1,0.2,0.5,0.2,0.6,0.3c0.1,0.2,0.5,0.1,0.6,0.3c0.1,0.2,0,0.6,0.1,0.7c0.1,0.2,0.4,0.2,0.5,0.4
			c0.1,0.2,0.6,0,0.8,0.1c0.1,0.1-0.2,0.7,0,0.9c0.1,0.1,0.5,0.1,0.6,0.3c0.1,0.1,0.3,0.3,0.5,0.4c0.1,0.1,0.1,0.5,0.2,0.6
			c0.1,0.1,0.7-0.2,0.9-0.1c0.2,0.1,0.1,0.5,0.3,0.6c0.2,0.1,0.5,0.1,0.6,0.2c0.2,0.1,0.1,0.5,0.3,0.6c0.2,0.1,0.5,0,0.7,0.1
			c0.2,0.1,0,0.6,0.2,0.7c0.2,0.1,0.2,0.4,0.4,0.5c0.2,0.1,0.7-0.3,0.9-0.2c0.2,0.1,0.3,0.3,0.5,0.4c0.2,0.1,0.2,0.5,0.3,0.6
			c0.2,0.1,0.1,0.5,0.3,0.6c0.2,0.1,0.6-0.1,0.7,0c0.2,0.1,0.1,0.6,0.3,0.7c0.2,0.1,0.3,0.3,0.5,0.4c0.2,0.1,0.8-0.5,1-0.3
			c0.2,0.1,0.1,0.6,0.3,0.7c0.2,0.1,0.5,0,0.7,0.1c0.2,0.1,0.1,0.6,0.3,0.7c0.2,0.1,0.5-0.1,0.7,0c0.2,0.1,0.5,0,0.7,0.1
			c0.2,0.1,0.4,0.2,0.5,0.3c0.2,0.1,0,0.8,0.2,0.9c0.2,0.1,0.6-0.2,0.8-0.1c0.2,0.1,0.5,0,0.6,0.1c0.2,0.1,0.1,0.8,0.2,0.9
			c0.2,0.1,0.6-0.3,0.8-0.2c0.2,0.1,0.1,0.7,0.3,0.8c0.2,0.1,0.5-0.1,0.7,0c0.2,0.1,0.5-0.2,0.7-0.1c0.2,0.1,0.1,0.7,0.3,0.8
			c0.2,0.1,0.6-0.2,0.8-0.2c0.2,0.1,0.3,0.3,0.5,0.4c0.2,0.1,0.2,0.6,0.4,0.7c0.2,0.1,0.4,0.2,0.5,0.3c0.2,0.1,0.7-0.5,0.9-0.4
			c0.2,0.1,0.1,0.7,0.3,0.8c0.2,0.1,0.6-0.3,0.8-0.2c0.2,0.1,0.2,0.6,0.4,0.7c0.2,0.1,0.5,0,0.6,0.1c0.2,0.1,0.6-0.3,0.8-0.2
			c0.2,0.1,0.4,0.2,0.6,0.2c0.2,0.1,0.4,0.2,0.5,0.3c0.2,0.1,0.2,0.7,0.4,0.7c0.2,0.1,0.6-0.3,0.7-0.2c0.2,0.1,0.3,0.2,0.5,0.3
			c0.2,0.1,0.3,0.3,0.5,0.4c0.2,0.1,0.3,0.4,0.5,0.5c0.2,0.1,0.5-0.3,0.7-0.2c0.2,0.1,0.5-0.1,0.7,0c0.2,0.1,0.4,0.1,0.6,0.2
			c0.2,0.1,0.2,0.7,0.4,0.8c0.2,0.1,0.5-0.3,0.7-0.2c0.2,0.1,0.3,0.3,0.5,0.4c0.2,0.1,0.4,0,0.6,0s0.2,0.6,0.4,0.7
			c0.2,0.1,0.5-0.1,0.7-0.1s0.4,0.1,0.6,0.2c0.2,0.1,0.3,0.4,0.5,0.5c0.2,0.1,0.5-0.2,0.7-0.1c0.2,0.1,0.3,0.3,0.5,0.3
			c0.2,0.1,0.4,0.2,0.6,0.2c0.2,0.1,0.5-0.1,0.7-0.1c0.2,0.1,0.3,0.6,0.5,0.6c0.2,0.1,0.4,0,0.6,0.1c0.2,0.1,0.4,0.2,0.6,0.3
			s0.4,0.1,0.6,0.1c0.2,0.1,0.4,0.1,0.6,0.2c0.2,0.1,0.4,0.1,0.6,0.2c0.2,0.1,0.6-0.6,0.8-0.5c0.2,0.1,0.3,0.5,0.5,0.5
			c0.2,0.1,0.4-0.1,0.6,0c0.2,0.1,0.4-0.1,0.6,0c0.2,0.1,0.3,0.4,0.5,0.4c0.2,0.1,0.3,0.4,0.5,0.5c0.2,0.1,0.4,0,0.6,0.1
			c0.2,0.1,0.5-0.2,0.7-0.1c0.2,0.1,0.4,0.2,0.6,0.3s0.4,0.2,0.6,0.2c0.2,0,0.3,0.5,0.5,0.5c0.2,0,0.5-0.2,0.7-0.2
			c0.2,0,0.5-0.2,0.7-0.1c0.2,0,0.3,0.4,0.5,0.4c0.2,0,0.3,0.4,0.5,0.4c0.2,0,0.4-0.1,0.7-0.1c0.2,0,0.4,0.3,0.6,0.4
			c0.2,0,0.5-0.5,0.7-0.4c0.2,0,0.3,0.4,0.5,0.5c0.2,0,0.5-0.3,0.7-0.3c0.2,0,0.4-0.1,0.6,0C230.5,264.9,230.5,265.5,230.7,265.5"/>
	</defs>
	<use xlink:href="#XMLID_44_"  style="overflow:visible;fill:#096A52;"/>
	<clipPath id="XMLID_7_">
		<use xlink:href="#XMLID_44_"  style="overflow:visible;"/>
	</clipPath>
</g>
<path class="st2" d="M160.2,369.9l-5-0.1c0,0-4.4,0.5-6.2,2c-1.8,1.6,0.8,3.6,0.8,3.6l12.1,0.2C161.8,375.7,164.6,369.9,160.2,369.9
	"/>
<g>
	<defs>
		<path id="XMLID_43_" d="M127.3,304.5c0-0.1,0.3-0.2,0.4-0.5c0.1-0.2-0.4-0.6-0.4-0.8c0.1-0.2,0.3-0.3,0.4-0.5
			c0.1-0.2,0.5-0.2,0.6-0.4c0.1-0.2,0.3-0.3,0.4-0.5c0.1-0.2,0.1-0.4,0.2-0.6c0.1-0.2-0.2-0.5-0.1-0.7c0.1-0.2,0.2-0.3,0.3-0.5
			c0.1-0.2,0.2-0.4,0.3-0.5c0.1-0.2-0.1-0.5,0-0.6c0.1-0.2,0-0.4,0-0.6c0.1-0.2-0.1-0.5,0-0.7c0.1-0.2,0.6-0.2,0.7-0.4
			c0.1-0.2,0.3-0.3,0.4-0.5c0.1-0.2-0.2-0.5-0.1-0.7c0.1-0.2,0.2-0.3,0.3-0.5c0.1-0.2,0.1-0.4,0.1-0.6c0.1-0.2,0.4-0.3,0.4-0.5
			s-0.2-0.5-0.1-0.7c0.1-0.2-0.2-0.5-0.1-0.7c0.1-0.2,0.3-0.3,0.3-0.5c0.1-0.2,0.6-0.2,0.6-0.4c0.1-0.2,0-0.4,0-0.6
			c0.1-0.2,0.2-0.4,0.2-0.6c0.1-0.2,0.4-0.3,0.5-0.5c0.1-0.2-0.5-0.6-0.4-0.8c0.1-0.2,0.1-0.4,0.2-0.6c0.1-0.2,0.7-0.2,0.7-0.4
			c0.1-0.2-0.1-0.5,0-0.7c0.1-0.2,0.2-0.4,0.3-0.6c0.1-0.2,0.2-0.4,0.3-0.6c0.1-0.2-0.1-0.5-0.1-0.7c0.1-0.2-0.1-0.5-0.1-0.7
			c0.1-0.2,0.3-0.4,0.3-0.5c0.1-0.2,0.4-0.3,0.4-0.5c0.1-0.2,0.2-0.4,0.3-0.6c0-0.2-0.3-0.5-0.3-0.7c0-0.2,0.5-0.3,0.5-0.5
			c0-0.2,0-0.4,0-0.6c0-0.2-0.1-0.4-0.1-0.6c0-0.2,0.3-0.4,0.3-0.6c0-0.2-0.3-0.5-0.1-0.7c0.1-0.1,0.6,0.3,0.8,0.2
			c0.2-0.1,0.3-0.3,0.5-0.4c0.2,0,0.4-0.1,0.6-0.1c0.2,0,0.4-0.4,0.6-0.4c0.2,0,0.4,0,0.6-0.1c0.2,0,0.4,0.2,0.6,0.2
			c0.2,0,0.4-0.1,0.6-0.1c0.2,0,0.4-0.2,0.6-0.2c0.2,0,0.4,0.6,0.6,0.6c0.2,0,0.4-0.5,0.6-0.5c0.2,0,0.4,0.3,0.6,0.3
			c0.2,0,0.4-0.1,0.6-0.1c0.2,0,0.4,0.1,0.6,0.1c0.2,0,0.4-0.2,0.6-0.2c0.2,0,0.4,0.3,0.6,0.3c0.2,0,0.4-0.3,0.6-0.3
			c0.2,0,0.4-0.3,0.6-0.3c0.2,0,0.4-0.2,0.6-0.1c0.2,0,0.4,0.8,0.6,0.8c0.2,0,0.4-0.6,0.7-0.6c0.2,0,0.4-0.1,0.6-0.1
			c0.2,0,0.4,0.6,0.6,0.6c0.2,0,0.4-0.1,0.6-0.1c0.2,0,0.4-0.2,0.6-0.2c0.2,0,0.4-0.1,0.6-0.1c0.2,0,0.4,0,0.6,0.1
			c0.2,0,0.3,0.7,0.6,0.7c0.2,0,0.5-0.6,0.7-0.6c0.2,0,0.4,0.6,0.6,0.6c0.2,0,0.4,0.2,0.6,0.3c0.2,0,0.4-0.3,0.6-0.3
			s0.4,0.3,0.6,0.4c0.2,0,0.4,0,0.6,0.1c0.2,0,0.5-0.6,0.7-0.6c0.2,0,0.3,0.7,0.5,0.7c0.2,0,0.4-0.1,0.6-0.1c0.2,0,0.4,0,0.6,0
			c0.2,0,0.4,0.4,0.6,0.4c0.2,0,0.5-0.5,0.7-0.5c0.2,0,0.4,0.1,0.6,0.1c0.2,0,0.4-0.1,0.6,0c0.2,0,0.3,0.6,0.5,0.6
			c0.2,0,0.5-0.7,0.7-0.7c0.2,0,0.3,0.6,0.5,0.6c0.2,0,0.5-0.5,0.7-0.4c0.2,0,0.3,0.6,0.5,0.6c0.2,0,0.5-0.3,0.7-0.2
			c0.2,0,0.4-0.1,0.6-0.1c0.2,0,0.4,0.1,0.6,0.1c0.2,0,0.3,0.6,0.5,0.7c0.2,0,0.4,0.1,0.6,0.1c0.2,0,0.5-0.6,0.7-0.5
			c0.2,0,0.4,0.1,0.6,0.1s0.4,0,0.6,0s0.3,0.4,0.6,0.5c0.2,0,0.4,0.1,0.6,0.1c0.2,0,0.4-0.1,0.6,0c0.2,0,0.4,0.1,0.6,0.2
			c0.2,0,0.4-0.1,0.6-0.1c0.2,0,0.3,0.7,0.5,0.7c0.2,0,0.5-0.6,0.7-0.6c0.2,0,0.3,0.6,0.5,0.6c0.2,0,0.5-0.2,0.7-0.2
			c0.2,0,0.4,0.3,0.6,0.3c0.2,0,0.4,0.3,0.6,0.4c0.2,0,0.5-0.5,0.7-0.4c0.2,0,0.4,0,0.6,0c0.2,0,0.4,0.1,0.6,0.2
			c0.2,0,0.3,0.7,0.5,0.7c0.2,0,0.5-0.4,0.7-0.4c0.2,0,0.3,0.5,0.5,0.6c0.2,0,0.4,0.2,0.6,0.2c0.2,0,0.4,0.1,0.6,0.1
			c0.2,0,0.5-0.3,0.7-0.3c0.2,0,0.3,0.6,0.5,0.6c0.2,0,0.4,0,0.6,0.1c0.2,0,0.4,0,0.6,0c0.2,0,0.5-0.5,0.7-0.4
			c0.2,0.1,0.4,0.2,0.6,0.3c0.2,0.1,0.4,0.1,0.6,0.1c0.2,0.1,0.3,0.6,0.5,0.7c0.2,0.1,0.4-0.2,0.6-0.2c0.2,0,0.3-0.4,0.5-0.4
			c0.2,0,0.4,0,0.6-0.1c0.2,0,0.4-0.1,0.6-0.1c0.2,0,0.5,0.4,0.7,0.3c0.2,0,0.4,0,0.6,0c0.2,0,0.4-0.2,0.6-0.3
			c0.2,0,0.4,0.1,0.6,0.1c0.2,0,0.4-0.2,0.6-0.3c0.2,0,0.4,0.1,0.6,0c0.2,0,0.4-0.1,0.6-0.2c0.2,0,0.4-0.1,0.6-0.2
			c0.2,0,0.3-0.5,0.5-0.6s0.5,0.5,0.7,0.4c0.2,0,0.4,0,0.6-0.1c0.2,0,0.4-0.1,0.6-0.1c0.2,0,0.3-0.4,0.5-0.5s0.5,0.2,0.7,0.2
			c0.2,0,0.3-0.7,0.5-0.7c0.2,0,0.5,0.4,0.7,0.4c0.2,0,0.3-0.6,0.5-0.7c0.2,0,0.5,0.3,0.7,0.2c0.2,0,0.4,0.1,0.6,0.1
			c0.2,0,0.4-0.1,0.6-0.1c0.2,0,0.3-0.4,0.5-0.5c0.2,0,0.4-0.2,0.6-0.3c0.2,0,0.5,0.3,0.7,0.3c0.2,0,0.4-0.2,0.6-0.2
			c0.2,0,0.5,0.3,0.7,0.3c0.2,0,0.4-0.3,0.6-0.3c0.2,0,0.4-0.3,0.6-0.3c0.2,0,0.4-0.3,0.6-0.3c0.2,0,0.5,0.2,0.7,0.2
			c0.2,0,0.4,0,0.6,0c0.2,0,0.4,0.1,0.6,0.1c0.2,0,0.4-0.1,0.6-0.1c0.2,0,0.4-0.1,0.6-0.1c0.2,0,0.4-0.5,0.6-0.5
			c0.2,0,0.4,0.1,0.6,0c0.2,0,0.4-0.1,0.6-0.1c0.2,0,0.4,0,0.6,0c0.2,0,0.5,0.4,0.7,0.4c0.2,0,0.4,0.1,0.6,0.1
			c0.2,0,0.4-0.1,0.6-0.1c0.2,0,0.4-0.1,0.6-0.2c0.2,0,0.4-0.1,0.6-0.1c0.2,0,0.4,0.1,0.6,0c0.2,0,0.4-0.5,0.6-0.5
			c0.2,0,0.4-0.2,0.6-0.2c0.2,0,0.5,0.6,0.7,0.6c0.2,0,0.4-0.5,0.6-0.5c0.2,0,0.4-0.2,0.6-0.2c0.2,0,0.4-0.1,0.6-0.2
			c0.2,0,0.4,0,0.6,0c0.2,0,0.4,0,0.6,0c0.2,0,0.4,0.4,0.6,0.4c0.2,0,0.4-0.1,0.6-0.1c0.2,0,0.4-0.2,0.6-0.2c0.2,0,0.4,0.1,0.6,0
			c0.2,0,0.4-0.4,0.6-0.4c0.2,0,0.4,0.2,0.6,0.2c0.2,0,0.4,0.1,0.6,0.1c0.2,0,0.4,0.2,0.6,0.2c0.2,0,0.4-0.3,0.6-0.3
			c0.2,0,0.4,0,0.6,0c0.2,0,0.4,0.4,0.6,0.4c0.2,0,0.4-0.5,0.6-0.5c0.2,0,0.4-0.1,0.6-0.1c0.2,0,0.4-0.1,0.6-0.1
			c0.2,0,0.4-0.1,0.6-0.1c0.2,0,0.4,0.3,0.6,0.3c0.2,0,0.4-0.3,0.6-0.3c0.2,0,0.4,0.8,0.6,0.8c0.2,0,0.5-0.6,0.7-0.6
			c0.2,0,0.4,0.2,0.6,0.2c0.2,0,0.3,0.4,0.5,0.5c0.2,0.1,0.3,0.3,0.5,0.3c0.2,0.1,0.4,0,0.6,0.1c0.2,0.1,0.1,0.2,0.1,0.4
			c0,0.2,0.3,0.4,0.3,0.6c0,0.2-0.3,0.4-0.3,0.7c0,0.2,0.2,0.4,0.3,0.6c0,0.2,0.6,0.3,0.7,0.5c0,0.2-0.2,0.5-0.1,0.7
			c0,0.2,0.1,0.4,0.2,0.6c0,0.2-0.2,0.5-0.1,0.7c0.1,0.2,0.4,0.3,0.4,0.5c0.1,0.2-0.2,0.5-0.1,0.7c0.1,0.2,0.2,0.4,0.2,0.6
			c0.1,0.2,0.5,0.3,0.6,0.5c0.1,0.2-0.1,0.5-0.1,0.7c0.1,0.2,0.3,0.3,0.4,0.5c0.1,0.2-0.1,0.4,0,0.6c0.1,0.2,0.3,0.3,0.3,0.5
			c0.1,0.2,0.2,0.4,0.3,0.6c0.1,0.2-0.3,0.5-0.2,0.7c0.1,0.2,0.2,0.4,0.2,0.6c0.1,0.2,0.3,0.3,0.3,0.5c0.1,0.2,0.1,0.4,0.2,0.6
			c0.1,0.2,0.2,0.4,0.2,0.6c0.1,0.2,0.6,0.2,0.6,0.4c0.1,0.2-0.5,0.6-0.4,0.8c0.1,0.2,0.1,0.4,0.2,0.6c0.1,0.2,0.3,0.3,0.4,0.5
			c0.1,0.2,0.2,0.4,0.2,0.6c0.1,0.2,0.5,0.2,0.6,0.4c0.1,0.2-0.5,0.6-0.5,0.8c0.1,0.2,0.8,0.2,0.9,0.3c0.1,0.2,0,0.4,0.1,0.6
			c0.1,0.2,0.1,0.4,0.2,0.6c0.1,0.2-0.1,0.5,0,0.7c0.1,0.2,0.3,0.3,0.3,0.5c0.1,0.2,0.2,0.4,0.2,0.6c0.1,0.2,0.1,0.4,0.2,0.6
			c0.1,0.2-0.3,0.6-0.3,0.8c0.1,0.2,0.9,0.1,0.9,0.3c0.1,0.2-0.6,0.7-0.5,0.8c0.1,0.2,0.2,0.4,0.2,0.6c0.1,0.2,0.5,0.3,0.5,0.5
			c0.1,0.3,0.2,0.5,0.2,0.6c0,0.1-0.2,0.4-0.1,0.7c0,0.2,0.5,0.3,0.6,0.5c0,0.2,0.3,0.3,0.3,0.6c0,0.2-0.3,0.5-0.3,0.7
			c0.1,0.2-0.2,0.5-0.1,0.7c0.1,0.2,0.6,0.3,0.7,0.5c0.1,0.2-0.2,0.5-0.2,0.7c0.1,0.2-0.1,0.4,0,0.6c0.1,0.2,0,0.4,0.1,0.6
			c0.1,0.2,0.8,0.2,0.8,0.4c0.1,0.2-0.4,0.5-0.3,0.7c0.1,0.2,0.2,0.4,0.3,0.6c0.1,0.2-0.1,0.5,0,0.7c0.1,0.2,0,0.4,0.1,0.6
			c0.1,0.2,0.5,0.3,0.5,0.5c0.1,0.2,0.2,0.4,0.3,0.6c0.1,0.2,0,0.4,0,0.6c0.1,0.2,0.5,0.3,0.5,0.5c0.1,0.2-0.4,0.6-0.4,0.7
			c0.1,0.2,0,0.3,0,0.5c0,0.2,0.1,0.4,0,0.6c-0.1,0.2,0,0.6-0.1,0.7c-0.1,0.1-0.4,0.3-0.6,0.4c-0.2,0.1-0.5-0.5-0.7-0.5
			c-0.2,0-0.4,0.4-0.6,0.5c-0.2,0-0.4,0.2-0.6,0.2c-0.2,0-0.4-0.5-0.6-0.5c-0.2,0-0.4,0.2-0.6,0.2c-0.2,0-0.4,0.5-0.6,0.5
			c-0.2,0-0.4-0.5-0.6-0.5c-0.2,0-0.4,0.4-0.6,0.4c-0.2,0-0.4-0.6-0.6-0.6c-0.2,0-0.4,0.7-0.6,0.7c-0.2,0-0.4-0.3-0.6-0.3
			c-0.2,0-0.4,0.2-0.6,0.2c-0.2,0-0.4-0.4-0.6-0.4c-0.2,0-0.4,0.1-0.6,0c-0.2,0-0.4,0-0.6,0c-0.2,0-0.4,0-0.6,0
			c-0.2,0-0.4-0.6-0.6-0.6c-0.2,0-0.4,0.3-0.6,0.3c-0.2,0-0.4-0.3-0.6-0.3c-0.2,0-0.4-0.1-0.6-0.1c-0.2,0-0.5,0.5-0.7,0.5
			c-0.2,0-0.4,0-0.6-0.1c-0.2,0-0.4-0.1-0.6-0.1c-0.2,0-0.4-0.3-0.6-0.4c-0.2,0-0.4-0.3-0.6-0.3c-0.2,0-0.4,0.1-0.6,0.1
			c-0.2,0-0.5,0.4-0.7,0.4c-0.2,0-0.3-0.5-0.5-0.5c-0.2,0-0.4,0.1-0.6,0.1c-0.2,0-0.3-0.6-0.5-0.7c-0.2-0.1-0.5,0.4-0.7,0.4
			c-0.2-0.1-0.4-0.1-0.6-0.2c-0.2-0.1-0.3-0.4-0.5-0.4c-0.2-0.1-0.5,0.3-0.7,0.3c-0.2-0.1-0.3-0.3-0.5-0.4c-0.2-0.1-0.4-0.2-0.6-0.2
			c-0.2-0.1-0.3-0.3-0.5-0.4c-0.2-0.1-0.2-0.5-0.4-0.6c-0.2-0.1-0.5,0.1-0.7,0.1c-0.2-0.1-0.4,0-0.6-0.1c-0.2-0.1-0.4,0-0.6,0
			c-0.2-0.1-0.4-0.1-0.6-0.2c-0.2-0.1-0.2-0.6-0.4-0.7c-0.2,0-0.5,0.4-0.7,0.3c-0.2,0-0.4-0.3-0.6-0.3c-0.2,0-0.5,0.3-0.7,0.3
			c-0.2,0-0.4,0-0.6-0.1c-0.2,0-0.4-0.1-0.6-0.2c-0.2,0-0.4-0.4-0.6-0.5c-0.2,0-0.4-0.2-0.6-0.2c-0.2,0-0.4,0-0.6,0
			c-0.2,0-0.4,0.3-0.6,0.3c-0.2,0-0.4,0-0.6,0s-0.4,0-0.6,0c-0.2,0-0.4-0.4-0.6-0.4c-0.2,0-0.4-0.1-0.6-0.1c-0.2,0-0.4,0.8-0.6,0.8
			c-0.2,0-0.4-0.5-0.6-0.5c-0.2,0-0.4,0-0.6,0c-0.2,0-0.4,0.5-0.6,0.5c-0.2,0-0.5-0.6-0.7-0.6c-0.2,0-0.4,0.4-0.6,0.5
			c-0.2,0-0.4,0.2-0.6,0.2c-0.2,0-0.5-0.6-0.7-0.6c-0.2,0-0.3,0.8-0.5,0.8s-0.5-0.4-0.7-0.4c-0.2,0-0.4,0.4-0.6,0.4
			c-0.2,0-0.5-0.7-0.7-0.6c-0.2,0-0.4,0.3-0.6,0.3c-0.2,0-0.4,0.3-0.6,0.4c-0.2,0-0.5-0.3-0.7-0.3c-0.2,0-0.4,0.2-0.6,0.2
			c-0.2,0-0.3,0.6-0.5,0.6c-0.2,0-0.5-0.5-0.7-0.5c-0.2,0-0.4,0.3-0.6,0.4c-0.2,0-0.4,0.1-0.6,0.1c-0.2,0-0.5-0.2-0.7-0.2
			c-0.2,0-0.3,0.7-0.5,0.7c-0.2,0-0.5-0.2-0.7-0.2c-0.2,0-0.4,0.3-0.6,0.3c-0.2,0-0.5-0.2-0.7-0.2c-0.2,0-0.3,0.4-0.5,0.4
			c-0.2,0-0.5-0.4-0.7-0.3c-0.2,0-0.4-0.1-0.6-0.1c-0.2,0-0.3,0.7-0.5,0.8c-0.2,0-0.4,0-0.6,0.1c-0.2,0-0.5-0.2-0.7-0.1
			c-0.2,0-0.5-0.3-0.7-0.2c-0.2,0-0.3,0.5-0.5,0.5c-0.2,0-0.5-0.4-0.7-0.3c-0.2,0-0.4,0-0.6,0.1c-0.2,0-0.3,0.9-0.5,0.9
			c-0.2,0-0.5-0.4-0.7-0.4c-0.2,0-0.4,0.3-0.6,0.4c-0.2,0-0.5-0.4-0.7-0.4c-0.2,0-0.4,0.4-0.6,0.4c-0.2,0-0.4,0.3-0.6,0.3
			c-0.2,0-0.4,0.1-0.6,0.1c-0.2,0-0.5-0.7-0.7-0.6c-0.2,0-0.4,0.5-0.6,0.5c-0.2,0-0.4,0.2-0.6,0.2c-0.2,0-0.4-0.7-0.6-0.7
			c-0.2,0-0.4,0.5-0.6,0.5c-0.2,0-0.4-0.6-0.6-0.6c-0.2,0-0.4,0.3-0.6,0.3c-0.2,0-0.4,0.4-0.6,0.4c-0.2,0-0.4-0.6-0.6-0.6
			c-0.2,0-0.5,0.4-0.7,0.4c-0.2,0-0.4-0.2-0.6-0.2c-0.2,0-0.4-0.5-0.6-0.5c-0.2,0-0.4-0.1-0.6-0.1c-0.2,0-0.5,0.7-0.7,0.6
			c-0.2,0-0.3-0.7-0.5-0.7c-0.2,0-0.5,0.5-0.7,0.4c-0.2,0-0.3-0.6-0.5-0.6c-0.2,0-0.4,0.1-0.6,0.1c-0.2,0-0.5,0.4-0.7,0.4
			c-0.2,0-0.4-0.1-0.6-0.1c-0.2,0-0.4-0.1-0.6-0.2c-0.2,0-0.3-0.6-0.5-0.7c-0.2,0-0.5,0.4-0.7,0.3c-0.2,0-0.4-0.2-0.6-0.2
			c-0.2-0.1-0.3-0.3-0.5-0.3c-0.2-0.1-0.3-0.3-0.5-0.4c-0.2-0.1-0.5,0.3-0.7,0.3c-0.2-0.1-0.5,0.1-0.6,0.1c-0.2-0.1-0.4-0.1-0.6-0.2
			c-0.2-0.1-0.2-0.7-0.4-0.7c-0.2-0.1-0.5,0.3-0.7,0.3c-0.2-0.1-0.3-0.3-0.5-0.4c-0.2-0.1-0.4,0.1-0.6,0c-0.2,0-0.3-0.6-0.5-0.6
			c-0.2,0-0.5,0.2-0.7,0.1c-0.2,0-0.4,0-0.6-0.1c-0.2,0-0.3-0.4-0.5-0.5c-0.2,0-0.5,0.2-0.7,0.2c-0.2,0-0.4-0.2-0.6-0.3
			c-0.2,0-0.4-0.1-0.6-0.2c-0.2,0-0.4,0.2-0.6,0.1c-0.2,0-0.4-0.5-0.6-0.5c-0.2,0-0.4,0-0.6,0c-0.2,0-0.4-0.1-0.6-0.1
			c-0.2,0-0.4,0-0.6,0c-0.2,0-0.4,0-0.6,0c-0.2,0-0.4,0-0.6,0c-0.2,0-0.3,0.8-0.5,0.8c-0.2,0-0.4-0.3-0.6-0.3
			c-0.2,0-0.4,0.2-0.6,0.3s-0.4,0.2-0.5,0.3c-0.2,0-0.4-0.2-0.6-0.1c-0.2,0.1-0.5-0.2-0.7-0.1c-0.2,0.1-0.4,0.2-0.5,0.3
			c-0.2,0.1-0.3,0.4-0.4,0.5c-0.2,0.1-0.4,0.1-0.6,0.2c-0.2,0.1-0.4,0.1-0.6,0.2c-0.2,0.1-0.5-0.2-0.7-0.1c-0.2,0.1-0.2,0.5-0.4,0.6
			c-0.2,0.1-0.3,0.4-0.5,0.5c-0.2,0.1-0.5-0.1-0.7,0c-0.2,0.1-0.5-0.1-0.7,0c-0.2,0.1-0.3,0.3-0.5,0.4c-0.2,0.1-0.5-0.1-0.7,0
			c-0.2,0.1-0.2,0.7-0.4,0.8c-0.2,0.1-0.5-0.2-0.7-0.2c-0.2,0.1-0.3,0.5-0.5,0.5c-0.2,0.1-0.4,0.3-0.6,0.3c-0.2,0.1-0.5-0.4-0.7-0.3
			c-0.2,0-0.5-0.1-0.7-0.1c-0.2,0-0.4,0.1-0.6,0.2c-0.2,0-0.3,0.6-0.5,0.7c-0.2,0-0.5-0.6-0.7-0.5c-0.2,0-0.3,0.8-0.5,0.8
			c-0.2,0-0.5-0.5-0.7-0.5c-0.2,0-0.4-0.1-0.6-0.1c-0.2,0-0.4,0.2-0.6,0.3c-0.2,0-0.4,0.6-0.6,0.6c-0.2,0-0.4-0.2-0.6-0.2
			c-0.2,0-0.4,0-0.6,0c-0.2,0-0.4-0.2-0.6-0.2c-0.2,0-0.4-0.1-0.6-0.1c-0.2,0-0.4,0.5-0.6,0.5c-0.2,0-0.4-0.6-0.6-0.6
			c-0.2,0-0.4,0.3-0.6,0.3c-0.2,0-0.4-0.5-0.6-0.5c-0.2,0-0.4,0.1-0.6,0.1c-0.2,0-0.4,0.2-0.6,0.2c-0.2,0-0.4-0.1-0.6-0.1
			c-0.2,0-0.4-0.2-0.6-0.2c-0.2,0-0.4-0.1-0.6-0.1c-0.2,0-0.4,0.1-0.6,0.1c-0.2,0-0.5,0.1-0.7,0c-0.2-0.1-0.2-0.4-0.4-0.5
			c-0.1-0.2-0.5-0.3-0.5-0.5c-0.1-0.2,0.2-0.4,0.2-0.7c0-0.2,0-0.4,0-0.6c0-0.2-0.4-0.5-0.3-0.7c0-0.2,0.4-0.4,0.4-0.6
			c0-0.2,0.3-0.4,0.3-0.6c0-0.2-0.2-0.4-0.2-0.7c0-0.2-0.1-0.4-0.1-0.6c0-0.2,0.5-0.4,0.5-0.6c0-0.2-0.2-0.4-0.2-0.7
			c0-0.2-0.2-0.5-0.2-0.7s0.7-0.3,0.7-0.5c0-0.2-0.3-0.5-0.3-0.7c0-0.2,0.4-0.4,0.4-0.6c0-0.2,0.1-0.4,0.1-0.6
			c0-0.2-0.4-0.5-0.3-0.7c0-0.2-0.1-0.4,0-0.6c0-0.2,0.4-0.4,0.4-0.6c0-0.2,0.1-0.4,0.2-0.6c0-0.2,0-0.5,0-0.6
			C127.3,304.8,127.3,304.6,127.3,304.5"/>
	</defs>
	<use xlink:href="#XMLID_43_"  style="overflow:visible;fill:#096A52;"/>
	<clipPath id="XMLID_8_">
		<use xlink:href="#XMLID_43_"  style="overflow:visible;"/>
	</clipPath>
</g>
<g>
	<path class="st3" d="M134.3,279.1c0,0,44.5,6.6,99.1-0.9l0.1,3c0,0-45.4,9.2-99.7,1.2C133.8,280.2,134.3,279.1,134.3,279.1"/>
</g>
<path class="st4" d="M161.7,225c6.9,7.7,32.3,33.3,69,39.2c0.1,0.9,0.3,2.9,0.4,3.8c-44.8-5.8-74.6-42.1-74.6-42.1L161.7,225z"/>
<g>
	<defs>
		<path id="SVGID_1_" d="M146,279c0.2,0,0.4,0.8,0.6,0.8c0.1,0,0.2-0.1,0.3-0.3c0.1-0.1,0.2-0.3,0.3-0.3c0.1,0,0.2,0,0.3,0
			c0.1,0,0.2,0,0.3,0c0.2,0,0.4,0.6,0.6,0.6c0.1,0,0.2,0,0.3,0c0.1,0,0.2,0,0.3,0c0.1,0,0.2,0,0.3-0.1c0.1-0.1,0.2-0.1,0.3-0.1
			c0.1,0,0.2,0,0.3,0c0.1,0,0.2-0.1,0.3,0c0.2,0,0.4,0,0.6,0.1c0.2,0,0.3,0.7,0.6,0.7c0.1,0,0.2-0.1,0.3-0.3
			c0.1-0.2,0.2-0.3,0.3-0.3c0.2,0,0.4,0.6,0.6,0.6c0.2,0,0.4,0.2,0.6,0.3c0.1,0,0.2-0.1,0.3-0.1c0.1-0.1,0.2-0.1,0.3-0.1
			c0.2,0,0.4,0.3,0.6,0.4c0.2,0,0.4,0,0.6,0.1c0.1,0,0.2-0.1,0.3-0.3c0.1-0.1,0.2-0.3,0.3-0.3c0.2,0,0.3,0.7,0.5,0.7
			c0.1,0,0.2,0,0.3-0.1c0.1,0,0.2-0.1,0.3-0.1c0.1,0,0.2,0,0.3,0c0.1,0,0.2,0,0.3,0c0.2,0,0.4,0.4,0.6,0.4c0.1,0,0.2-0.1,0.3-0.2
			c0.1-0.1,0.2-0.2,0.3-0.2c0.2,0,0.4,0.1,0.6,0.1c0.1,0,0.2,0,0.3,0c0.1,0,0.2,0,0.3,0c0.2,0,0.3,0.6,0.5,0.6
			c0.1,0,0.2-0.2,0.4-0.3c0.1-0.2,0.3-0.3,0.4-0.3c0.2,0,0.3,0.6,0.5,0.6c0.1,0,0.2-0.1,0.3-0.2c0.1-0.1,0.2-0.2,0.3-0.2
			c0.2,0,0.3,0.6,0.5,0.6c0.1,0,0.2,0,0.3-0.1c0.1-0.1,0.2-0.1,0.3-0.1c0.1,0,0.2,0,0.3,0c0.1,0,0.2,0,0.3,0c0.2,0,0.4,0.1,0.6,0.1
			s0.3,0.6,0.5,0.7c0.2,0,0.4,0.1,0.6,0.1c0.1,0,0.2-0.1,0.4-0.3c0.1-0.1,0.3-0.3,0.4-0.3c0.2,0,0.4,0.1,0.6,0.1c0.2,0,0.4,0,0.6,0
			c0.2,0,0.3,0.4,0.6,0.5c0.2,0,0.4,0.1,0.6,0.1c0.1,0,0.2,0,0.3,0c0.1,0,0.2,0,0.3,0c0.2,0,0.4,0.1,0.6,0.2c0.1,0,0.2,0,0.3,0
			c0.1,0,0.2-0.1,0.3,0c0.2,0,0.3,0.7,0.5,0.7c0.1,0,0.2-0.1,0.4-0.3c0.1-0.2,0.3-0.3,0.4-0.3c0.2,0,0.3,0.6,0.5,0.6
			c0.1,0,0.2,0,0.3-0.1s0.2-0.1,0.3-0.1c0.2,0,0.4,0.3,0.6,0.3c0.2,0,0.4,0.3,0.6,0.4c0.1,0,0.2-0.1,0.4-0.2
			c0.1-0.1,0.3-0.2,0.4-0.2c0.2,0,0.4,0,0.6,0c0.2,0,0.4,0.1,0.6,0.2c0.2,0,0.3,0.7,0.5,0.7c0.1,0,0.2-0.1,0.4-0.2
			c0.1-0.1,0.3-0.2,0.4-0.2c0.2,0,0.3,0.5,0.5,0.5c0.2,0,0.4,0.2,0.6,0.2c0.2,0,0.4,0.1,0.6,0.1c0.1,0,0.2-0.1,0.4-0.1
			c0.1-0.1,0.3-0.2,0.4-0.2c0.2,0,0.3,0.6,0.5,0.6c0.2,0,0.4,0,0.6,0.1c0.2,0,0.4,0,0.6,0.1c0.1,0,0.2-0.1,0.4-0.2
			c0.1-0.1,0.3-0.2,0.4-0.2c0.2,0.1,0.4,0.2,0.6,0.3c0.2,0.1,0.4,0.1,0.6,0.1c0.2,0.1,0.3,0.6,0.5,0.7c0.1,0,0.2,0,0.3-0.1
			c0.1-0.1,0.2-0.1,0.3-0.1c0.2,0,0.3-0.4,0.5-0.4c0.2,0,0.4,0,0.6-0.1c0.2,0,0.4-0.1,0.6-0.1c0.1,0,0.2,0.1,0.4,0.2
			c0.1,0.1,0.3,0.2,0.4,0.2c0.1,0,0.2,0,0.3,0c0.1,0,0.2,0,0.3,0c0.2,0,0.4-0.2,0.6-0.3c0.1,0,0.2,0,0.3,0c0.1,0,0.2,0.1,0.3,0
			c0.2,0,0.4-0.2,0.6-0.3c0.1,0,0.2,0,0.3,0c0.1,0,0.2,0,0.3,0c0.2,0,0.4-0.1,0.6-0.2c0.2,0,0.4-0.1,0.6-0.2c0.2,0,0.3-0.5,0.5-0.6
			c0.1,0,0.2,0.1,0.4,0.2c0.1,0.1,0.3,0.2,0.4,0.2c0.2,0,0.4,0,0.6-0.1c0.2,0,0.4-0.1,0.6-0.1c0.2,0,0.3-0.4,0.5-0.5
			c0.1,0,0.2,0,0.3,0.1c0.1,0,0.2,0.1,0.3,0.1c0.2,0,0.3-0.7,0.5-0.7c0.1,0,0.2,0.1,0.3,0.2c0.1,0.1,0.2,0.2,0.3,0.2
			c0.2,0,0.3-0.6,0.5-0.7c0.1,0,0.2,0.1,0.3,0.1c0.1,0.1,0.2,0.1,0.3,0.1c0.1,0,0.2,0,0.3,0c0.1,0,0.2,0.1,0.3,0
			c0.2,0,0.4-0.1,0.6-0.1c0.2,0,0.3-0.4,0.5-0.5c0.2,0,0.4-0.2,0.6-0.3c0.1,0,0.2,0.1,0.3,0.1c0.1,0.1,0.2,0.1,0.3,0.1
			c0.2,0,0.4-0.2,0.6-0.2c0.1,0,0.2,0.1,0.3,0.1c0.1,0.1,0.2,0.2,0.3,0.1c0.2,0,0.4-0.3,0.6-0.3c0.2,0,0.4-0.3,0.6-0.3
			c0.2,0,0.4-0.3,0.6-0.3c0.1,0,0.2,0,0.3,0.1c0.1,0.1,0.2,0.1,0.3,0.1c0.2,0,0.4,0,0.6,0c0.1,0,0.2,0,0.3,0s0.2,0,0.3,0
			c0.2,0,0.4-0.1,0.6-0.1c0.2,0,0.4-0.1,0.6-0.1c0.2,0,0.4-0.5,0.6-0.5c0.1,0,0.2,0,0.3,0c0.1,0,0.2,0,0.3,0c0.2,0,0.4-0.1,0.6-0.1
			c0.2,0,0.4,0,0.6,0c0.1,0,0.2,0.1,0.3,0.2c0.1,0.1,0.2,0.2,0.3,0.2c0.1,0,0.2,0,0.3,0.1c0.1,0,0.2,0.1,0.3,0.1
			c0.2,0,0.4-0.1,0.6-0.1c0.2,0,0.4-0.1,0.6-0.2c0.2,0,0.4-0.1,0.6-0.1c0.1,0,0.2,0,0.3,0c0.1,0,0.2,0,0.3,0c0.2,0,0.4-0.5,0.6-0.5
			c0.2,0,0.4-0.2,0.6-0.2c0.1,0,0.2,0.1,0.3,0.3c0.1,0.2,0.2,0.3,0.3,0.3c0.2,0,0.4-0.5,0.6-0.5c0.2,0,0.4-0.2,0.6-0.2
			c0.2,0,0.4-0.1,0.6-0.2c0.1,0,0.2,0,0.3,0c0.1,0,0.2,0,0.3,0c0.1,0,0.2,0,0.3,0c0.1,0,0.2,0,0.3,0c0.1,0,0.2,0.1,0.3,0.2
			c0.1,0.1,0.2,0.2,0.3,0.2c0.2,0,0.4-0.1,0.6-0.1c0.2,0,0.4-0.2,0.6-0.2c0.1,0,0.2,0,0.3,0c0.1,0,0.2,0,0.3,0
			c0.2,0,0.4-0.4,0.6-0.4c0.1,0,0.2,0,0.3,0.1c0.1,0,0.2,0.1,0.3,0.1c0.1,0,0.2,0,0.3,0c0.1,0,0.2,0,0.3,0c0.1,0,0.2,0.1,0.3,0.1
			c0.1,0.1,0.2,0.1,0.3,0.1c0.2,0,0.4-0.3,0.6-0.3c0.2,0,0.4,0,0.6,0c0.1,0,0.2,0.1,0.3,0.2c0.1,0.1,0.2,0.2,0.3,0.2
			c0.2,0,0.4-0.5,0.6-0.5c0.2,0,0.4-0.1,0.6-0.1c0.2,0,0.4-0.1,0.6-0.1c0.1,0,0.2,0,0.3,0c0.1,0,0.2,0,0.3,0c0.2,0,0.4,0.3,0.6,0.3
			c0.1,0,0.2-0.1,0.3-0.2c0.1-0.1,0.2-0.2,0.3-0.2c0.2,0,0.4,0.8,0.6,0.8c0.1,0,0.2-0.1,0.3-0.3c0.1-0.2,0.2-0.3,0.3-0.3
			c0.2,0,0.4,0.2,0.6,0.2c0.2,0,0.3,0.4,0.5,0.5c0.2,0.1,0.3,0.3,0.5,0.3c0.1,0,0.2,0,0.3,0c0.1,0,0.2,0,0.3,0
			c0.2,0.1,0.1,0.2,0.1,0.4c0,0.2,0.3,0.4,0.3,0.6c0,0.2-0.3,0.4-0.3,0.7c0,0.2,0.2,0.4,0.3,0.6c0,0.2,0.6,0.3,0.7,0.5
			c0,0.2-0.2,0.5-0.1,0.7c0,0.2,0.1,0.4,0.2,0.6c0,0.2-0.2,0.5-0.1,0.7c0.1,0.2,0.4,0.3,0.4,0.5c0.1,0.2-0.2,0.5-0.1,0.7
			c0.1,0.2,0.2,0.4,0.2,0.6c0.1,0.2,0.5,0.3,0.6,0.5c0.1,0.2-0.1,0.5-0.1,0.7c0.1,0.2,0.3,0.3,0.4,0.5s-0.1,0.4,0,0.6
			c0.1,0.2,0.3,0.3,0.3,0.5c0.1,0.2,0.2,0.4,0.3,0.6c0.1,0.2-0.3,0.5-0.2,0.7c0.1,0.2,0.2,0.4,0.2,0.6c0.1,0.2,0.3,0.3,0.3,0.5
			c0.1,0.2,0.1,0.4,0.2,0.6c0.1,0.2,0.2,0.4,0.2,0.6c0.1,0.2,0.6,0.2,0.6,0.4c0.1,0.2-0.5,0.6-0.4,0.8c0.1,0.2,0.1,0.4,0.2,0.6
			c0.1,0.2,0.3,0.3,0.4,0.5c0.1,0.2,0.2,0.4,0.2,0.6c0.1,0.2,0.5,0.2,0.6,0.4c0.1,0.2-0.5,0.6-0.5,0.8c0.1,0.2,0.8,0.2,0.9,0.3
			c0.1,0.2,0,0.4,0.1,0.6c0.1,0.2,0.1,0.4,0.2,0.6c0.1,0.2-0.1,0.5,0,0.7c0.1,0.2,0.3,0.3,0.3,0.5c0.1,0.2,0.2,0.4,0.2,0.6
			c0.1,0.2,0.1,0.4,0.2,0.6c0.1,0.2-0.3,0.6-0.3,0.8c0.1,0.2,0.9,0.1,0.9,0.3c0.1,0.2-0.6,0.7-0.5,0.8c0.1,0.2,0.2,0.4,0.2,0.6
			c0.1,0.2,0.5,0.3,0.5,0.5c0.1,0.3,0.2,0.5,0.2,0.6c0,0.1-0.2,0.4-0.1,0.7c0,0.2,0.5,0.3,0.6,0.5c0,0.2,0.3,0.3,0.3,0.6
			c0,0.2-0.3,0.5-0.3,0.7c0.1,0.2-0.2,0.5-0.2,0.7c0.1,0.2,0.6,0.3,0.7,0.5c0.1,0.2-0.2,0.5-0.2,0.7c0.1,0.2-0.1,0.4,0,0.6
			c0.1,0.2,0,0.4,0.1,0.6c0.1,0.2,0.8,0.2,0.8,0.4c0.1,0.2-0.4,0.5-0.3,0.7c0.1,0.2,0.2,0.4,0.3,0.6c0.1,0.2-0.1,0.4,0,0.7
			c0.1,0.2,0,0.4,0.1,0.6c0.1,0.2,0.5,0.3,0.5,0.5c0.1,0.2,0.2,0.4,0.3,0.6c0.1,0.2,0,0.4,0,0.6c0.1,0.2,0.5,0.3,0.5,0.5
			c0.1,0.2-0.5,0.6-0.4,0.7c0.1,0.2,0,0.3,0,0.5c0,0.2,0.1,0.4,0,0.6c-0.1,0.2,0,0.6-0.1,0.7c-0.1,0.1-0.4,0.3-0.6,0.4
			c-0.1,0-0.2-0.1-0.4-0.2c-0.1-0.1-0.3-0.3-0.4-0.3c-0.2,0-0.4,0.4-0.6,0.5c-0.2,0-0.4,0.2-0.6,0.2c-0.1,0-0.2-0.1-0.3-0.3
			c-0.1-0.1-0.2-0.3-0.3-0.3c-0.2,0-0.4,0.2-0.6,0.2c-0.2,0-0.4,0.5-0.6,0.5c-0.1,0-0.2-0.1-0.3-0.2c-0.1-0.1-0.2-0.2-0.3-0.2
			c-0.2,0-0.4,0.4-0.6,0.4c-0.2,0-0.4-0.6-0.6-0.6c-0.1,0-0.2,0.2-0.3,0.4s-0.2,0.4-0.3,0.4c-0.2,0-0.4-0.3-0.6-0.3
			c-0.1,0-0.2,0.1-0.3,0.1c-0.1,0.1-0.2,0.1-0.3,0.1c-0.2,0-0.4-0.4-0.6-0.4c-0.1,0-0.2,0-0.3,0c-0.1,0-0.2,0-0.3,0
			c-0.2,0-0.4,0-0.6,0c-0.1,0-0.2,0-0.3,0c-0.1,0-0.2,0-0.3,0c-0.2,0-0.4-0.6-0.6-0.6c-0.1,0-0.2,0.1-0.3,0.1
			c-0.1,0.1-0.2,0.1-0.3,0.1c-0.2,0-0.4-0.3-0.6-0.3c-0.2,0-0.4-0.1-0.6-0.1c-0.1,0-0.2,0.1-0.3,0.2c-0.1,0.1-0.2,0.3-0.3,0.2
			c-0.2,0-0.4,0-0.6-0.1c-0.2,0-0.4-0.1-0.6-0.1c-0.2,0-0.4-0.3-0.6-0.4c-0.2,0-0.4-0.3-0.6-0.3c-0.1,0-0.2,0-0.3,0
			c-0.1,0-0.2,0-0.3,0c-0.1,0-0.2,0.1-0.4,0.2c-0.1,0.1-0.3,0.2-0.4,0.2c-0.2,0-0.3-0.5-0.5-0.5c-0.1,0-0.2,0-0.3,0
			c-0.1,0-0.2,0.1-0.3,0c-0.2,0-0.3-0.6-0.5-0.7c-0.1,0-0.2,0.1-0.4,0.2c-0.1,0.1-0.3,0.2-0.4,0.2c-0.2-0.1-0.4-0.1-0.6-0.2
			c-0.2-0.1-0.3-0.4-0.5-0.4c-0.1,0-0.2,0.1-0.4,0.1c-0.1,0.1-0.3,0.2-0.4,0.1c-0.2-0.1-0.3-0.3-0.5-0.4c-0.2-0.1-0.4-0.2-0.6-0.2
			c-0.2-0.1-0.3-0.3-0.5-0.4c-0.2-0.1-0.2-0.5-0.4-0.6c-0.1,0-0.2,0-0.3,0c-0.1,0-0.2,0.1-0.3,0c-0.1,0-0.2,0-0.3,0
			c-0.1,0-0.2,0-0.3,0c-0.1,0-0.2,0-0.3,0c-0.1,0-0.2,0-0.3,0c-0.2-0.1-0.4-0.1-0.6-0.2c-0.2-0.1-0.2-0.6-0.4-0.7
			c-0.1,0-0.2,0.1-0.4,0.2c-0.1,0.1-0.3,0.2-0.4,0.2c-0.2,0-0.4-0.3-0.6-0.3c-0.1,0-0.2,0.1-0.3,0.1s-0.2,0.2-0.3,0.1
			c-0.2,0-0.4,0-0.6-0.1c-0.2,0-0.4-0.1-0.6-0.2c-0.2,0-0.4-0.4-0.6-0.5c-0.2,0-0.4-0.2-0.6-0.2c-0.1,0-0.2,0-0.3,0
			c-0.1,0-0.2,0-0.3,0c-0.1,0-0.2,0.1-0.3,0.1c-0.1,0.1-0.2,0.1-0.3,0.1c-0.1,0-0.2,0-0.3,0c-0.1,0-0.2,0-0.3,0c-0.2,0-0.4,0-0.6,0
			c-0.2,0-0.4-0.4-0.6-0.4c-0.1,0-0.2,0-0.3-0.1c-0.1,0-0.2-0.1-0.3-0.1c-0.2,0-0.4,0.8-0.6,0.8c-0.1,0-0.2-0.1-0.3-0.2
			c-0.1-0.1-0.2-0.2-0.3-0.2c-0.2,0-0.4,0-0.6,0c-0.2,0-0.4,0.5-0.6,0.5c-0.1,0-0.2-0.1-0.3-0.3c-0.1-0.2-0.2-0.3-0.3-0.3
			c-0.2,0-0.4,0.4-0.6,0.5c-0.2,0-0.4,0.2-0.6,0.2c-0.1,0-0.2-0.1-0.3-0.3c-0.1-0.1-0.2-0.3-0.3-0.3c-0.2,0-0.3,0.8-0.5,0.8
			c-0.1,0-0.2-0.1-0.3-0.2c-0.1-0.1-0.2-0.2-0.3-0.2c-0.2,0-0.4,0.4-0.6,0.4c-0.1,0-0.2-0.2-0.3-0.3c-0.1-0.2-0.2-0.3-0.4-0.3
			c-0.2,0-0.4,0.3-0.6,0.3c-0.2,0-0.4,0.3-0.6,0.4c-0.1,0-0.2-0.1-0.3-0.2c-0.1-0.1-0.2-0.2-0.3-0.2c-0.2,0-0.4,0.2-0.6,0.2
			c-0.2,0-0.3,0.6-0.5,0.6c-0.1,0-0.2-0.1-0.4-0.3c-0.1-0.1-0.3-0.3-0.4-0.3c-0.2,0-0.4,0.3-0.6,0.4c-0.2,0-0.4,0.1-0.6,0.1
			c-0.1,0-0.2,0-0.3-0.1c-0.1-0.1-0.2-0.1-0.3-0.1c-0.2,0-0.3,0.7-0.5,0.7c-0.1,0-0.2,0-0.3-0.1s-0.2-0.1-0.3-0.1
			c-0.2,0-0.4,0.3-0.6,0.3c-0.1,0-0.2,0-0.3-0.1c-0.1-0.1-0.2-0.1-0.3-0.1c-0.2,0-0.3,0.4-0.5,0.4c-0.1,0-0.2-0.1-0.3-0.2
			c-0.1-0.1-0.2-0.2-0.3-0.2c-0.1,0-0.2,0-0.3,0c-0.1,0-0.2,0-0.3,0c-0.2,0-0.3,0.7-0.5,0.8c-0.2,0-0.4,0-0.6,0.1
			c-0.1,0-0.2,0-0.3-0.1c-0.1,0-0.2-0.1-0.3-0.1c-0.1,0-0.2-0.1-0.3-0.1c-0.1-0.1-0.2-0.1-0.3-0.1c-0.2,0-0.3,0.5-0.5,0.5
			c-0.1,0-0.2-0.1-0.3-0.2c-0.1-0.1-0.2-0.2-0.3-0.2c-0.2,0-0.4,0-0.6,0.1c-0.2,0-0.3,0.9-0.5,0.9c-0.1,0-0.2-0.1-0.3-0.2
			s-0.2-0.2-0.3-0.2c-0.2,0-0.4,0.3-0.6,0.4c-0.1,0-0.2-0.1-0.3-0.2s-0.2-0.2-0.3-0.2c-0.2,0-0.4,0.4-0.6,0.4
			c-0.2,0-0.4,0.3-0.6,0.3c-0.2,0-0.4,0.1-0.6,0.1c-0.1,0-0.2-0.2-0.3-0.3c-0.1-0.2-0.2-0.3-0.3-0.3c-0.2,0-0.4,0.5-0.6,0.5
			c-0.2,0-0.4,0.2-0.6,0.2c-0.2,0-0.4-0.7-0.6-0.7c-0.1,0-0.2,0.1-0.3,0.3c-0.1,0.1-0.2,0.3-0.3,0.3c-0.2,0-0.4-0.6-0.6-0.6
			c-0.1,0-0.2,0.1-0.3,0.2c-0.1,0.1-0.2,0.2-0.3,0.2c-0.1,0-0.2,0.1-0.3,0.2c-0.1,0.1-0.2,0.2-0.3,0.2c-0.2,0-0.4-0.6-0.6-0.6
			c-0.1,0-0.2,0.1-0.3,0.2c-0.1,0.1-0.2,0.2-0.3,0.2c-0.2,0-0.4-0.2-0.6-0.2c-0.2,0-0.4-0.5-0.6-0.5c-0.2,0-0.4-0.1-0.6-0.1
			c-0.1,0-0.2,0.2-0.4,0.3c-0.1,0.2-0.3,0.3-0.4,0.3c-0.2,0-0.3-0.7-0.5-0.7c-0.1,0-0.2,0.1-0.3,0.2c-0.1,0.1-0.2,0.2-0.3,0.2
			c-0.2,0-0.3-0.6-0.5-0.6c-0.1,0-0.2,0-0.3,0c-0.1,0-0.2,0.1-0.3,0c-0.1,0-0.2,0.1-0.3,0.2c-0.1,0.1-0.3,0.2-0.3,0.2
			c-0.2,0-0.4-0.1-0.6-0.1c-0.2,0-0.4-0.1-0.6-0.2c-0.2,0-0.3-0.6-0.5-0.7c-0.1,0-0.2,0.1-0.4,0.2c-0.1,0.1-0.3,0.2-0.4,0.2
			c-0.2,0-0.4-0.2-0.6-0.2c-0.2,0-0.3-0.3-0.5-0.3c-0.2-0.1-0.3-0.3-0.5-0.4c-0.1,0-0.2,0.1-0.4,0.1c-0.1,0.1-0.3,0.2-0.4,0.1
			c-0.1,0-0.2,0-0.3,0c-0.1,0-0.2,0.1-0.3,0c-0.2-0.1-0.4-0.1-0.6-0.2c-0.2-0.1-0.2-0.7-0.4-0.7c-0.1,0-0.2,0.1-0.4,0.1
			c-0.1,0.1-0.3,0.2-0.4,0.1c-0.2-0.1-0.3-0.3-0.5-0.4c-0.1,0-0.2,0-0.3,0c-0.1,0-0.2,0-0.3,0c-0.2,0-0.3-0.6-0.5-0.6
			c-0.1,0-0.2,0-0.3,0.1c-0.1,0-0.2,0.1-0.3,0.1c-0.2,0-0.4,0-0.6-0.1c-0.2,0-0.3-0.4-0.5-0.5c-0.1,0-0.2,0-0.3,0.1
			c-0.1,0.1-0.2,0.1-0.3,0.1c-0.2,0-0.4-0.2-0.6-0.3c-0.2,0-0.4-0.1-0.6-0.2c-0.1,0-0.2,0-0.3,0.1c-0.1,0-0.2,0.1-0.3,0.1
			c-0.2,0-0.4-0.5-0.6-0.5c-0.1,0-0.2,0-0.3,0c-0.1,0-0.2,0-0.3,0c-0.2,0-0.4-0.1-0.6-0.1c-0.1,0-0.2,0-0.4,0c-0.1,0-0.2,0-0.3,0
			c-0.2,0-0.4,0-0.6,0c-0.2,0-0.4,0-0.6,0c-0.2,0-0.3,0.8-0.5,0.8c-0.1,0-0.2-0.1-0.3-0.2c-0.1-0.1-0.2-0.2-0.3-0.2
			c-0.2,0-0.4,0.2-0.6,0.3c-0.2,0-0.3,0.2-0.5,0.3c-0.1,0-0.2,0-0.3,0c-0.1,0-0.2-0.1-0.3,0c-0.1,0-0.2,0-0.3-0.1
			c-0.1,0-0.2-0.1-0.3-0.1c-0.2,0.1-0.4,0.2-0.5,0.3c-0.2,0.1-0.3,0.4-0.4,0.5c-0.2,0.1-0.4,0.1-0.6,0.2c-0.2,0.1-0.4,0.1-0.6,0.2
			c-0.1,0-0.2,0-0.4,0c-0.1,0-0.3-0.1-0.4,0c-0.2,0.1-0.2,0.5-0.4,0.6c-0.2,0.1-0.3,0.4-0.5,0.5c-0.1,0-0.2,0-0.3,0
			c-0.1,0-0.2-0.1-0.3,0c-0.1,0-0.2,0-0.3,0c-0.1,0-0.2-0.1-0.3,0c-0.2,0.1-0.3,0.3-0.5,0.4c-0.1,0-0.2,0-0.3,0c-0.1,0-0.2,0-0.3,0
			c-0.2,0.1-0.2,0.7-0.4,0.8c-0.1,0-0.2,0-0.4-0.1c-0.1-0.1-0.2-0.1-0.3-0.1c-0.2,0.1-0.3,0.5-0.5,0.5c-0.2,0.1-0.4,0.3-0.6,0.3
			c-0.1,0-0.2-0.1-0.4-0.2c-0.1-0.1-0.3-0.2-0.4-0.2c-0.1,0-0.2,0-0.3,0c-0.1,0-0.2-0.1-0.3,0c-0.2,0-0.4,0.1-0.6,0.2
			c-0.2,0-0.3,0.6-0.5,0.7c-0.1,0-0.2-0.1-0.4-0.3c-0.1-0.1-0.3-0.3-0.4-0.3c-0.2,0-0.3,0.8-0.5,0.8c-0.1,0-0.2-0.1-0.4-0.3
			c-0.1-0.1-0.2-0.3-0.3-0.3c-0.1,0-0.2,0-0.3-0.1c-0.1,0-0.2-0.1-0.3-0.1c-0.2,0-0.4,0.2-0.6,0.3c-0.2,0-0.4,0.6-0.6,0.6
			c-0.1,0-0.2-0.1-0.3-0.1c-0.1-0.1-0.2-0.1-0.3-0.1c-0.2,0-0.4,0-0.6,0c-0.1,0-0.2,0-0.3-0.1c-0.1-0.1-0.2-0.1-0.3-0.1
			c-0.1,0-0.2,0-0.3,0c-0.1,0-0.2,0-0.3,0c-0.2,0-0.4,0.5-0.6,0.5c-0.2,0-0.4-0.6-0.6-0.6c-0.1,0-0.2,0.1-0.3,0.2
			c-0.1,0.1-0.2,0.2-0.3,0.2c-0.2,0-0.4-0.5-0.6-0.5c-0.1,0-0.2,0-0.3,0c-0.1,0-0.2,0.1-0.3,0c-0.1,0-0.2,0-0.3,0.1
			c-0.1,0-0.2,0.1-0.3,0.1c-0.2,0-0.4-0.1-0.6-0.1c-0.2,0-0.4-0.2-0.6-0.2c-0.2,0-0.4-0.1-0.6-0.1c-0.1,0-0.2,0-0.3,0
			c-0.1,0-0.2,0-0.3,0c-0.1,0-0.2,0-0.3,0c-0.1,0-0.3,0-0.4,0c-0.2-0.1-0.2-0.4-0.4-0.5c-0.1-0.2-0.5-0.3-0.5-0.5
			c-0.1-0.2,0.2-0.4,0.2-0.7c0-0.2,0-0.4,0-0.6c0-0.2-0.4-0.5-0.3-0.7c0-0.2,0.4-0.4,0.4-0.6c0-0.2,0.3-0.4,0.3-0.6
			c0-0.2-0.2-0.4-0.2-0.7c0-0.2-0.1-0.4-0.1-0.6c0-0.2,0.5-0.4,0.5-0.6c0-0.2-0.2-0.4-0.2-0.7c0-0.2-0.2-0.5-0.2-0.7
			c0-0.2,0.7-0.3,0.7-0.5c0-0.2-0.3-0.5-0.3-0.7c0-0.2,0.4-0.4,0.4-0.6c0-0.2,0.1-0.4,0.1-0.6c0-0.2-0.4-0.5-0.3-0.7
			c0-0.2-0.1-0.4,0-0.6c0-0.2,0.4-0.4,0.4-0.6c0-0.2,0.1-0.4,0.2-0.6c0-0.2,0-0.5,0-0.6c0-0.3,0.1-0.5,0.1-0.6
			c0-0.1,0.3-0.2,0.4-0.5c0.1-0.2-0.4-0.6-0.4-0.8c0.1-0.2,0.3-0.3,0.4-0.5c0.1-0.2,0.5-0.2,0.6-0.4c0.1-0.2,0.3-0.3,0.4-0.5
			c0.1-0.2,0.1-0.4,0.2-0.6c0.1-0.2-0.2-0.5-0.1-0.7c0.1-0.2,0.2-0.3,0.3-0.5c0.1-0.2,0.2-0.4,0.3-0.5c0.1-0.2-0.1-0.5,0-0.6
			c0.1-0.2,0-0.4,0-0.6c0.1-0.2-0.1-0.5,0-0.7c0.1-0.2,0.6-0.2,0.7-0.4c0.1-0.2,0.3-0.3,0.4-0.5c0.1-0.2-0.2-0.5-0.1-0.7
			c0.1-0.2,0.2-0.3,0.3-0.5c0.1-0.2,0.1-0.4,0.1-0.6c0.1-0.2,0.4-0.3,0.4-0.5c0.1-0.2-0.2-0.5-0.1-0.7c0.1-0.2-0.2-0.5-0.1-0.7
			c0.1-0.2,0.3-0.3,0.3-0.5c0.1-0.2,0.6-0.2,0.6-0.4c0.1-0.2,0-0.4,0-0.6c0.1-0.2,0.2-0.4,0.2-0.6c0.1-0.2,0.4-0.3,0.5-0.5
			c0.1-0.2-0.5-0.6-0.4-0.8c0.1-0.2,0.1-0.4,0.2-0.6c0.1-0.2,0.7-0.2,0.7-0.4c0.1-0.2-0.1-0.5,0-0.7c0.1-0.2,0.2-0.4,0.3-0.6
			c0.1-0.2,0.2-0.4,0.3-0.6c0.1-0.2-0.1-0.5-0.1-0.7c0.1-0.2-0.1-0.5-0.1-0.7c0.1-0.2,0.3-0.4,0.3-0.5c0.1-0.2,0.4-0.3,0.4-0.5
			c0.1-0.2,0.2-0.4,0.3-0.6c0-0.2-0.3-0.5-0.3-0.7c0-0.2,0.5-0.3,0.5-0.5c0-0.2,0-0.4,0-0.6c0-0.2-0.1-0.4-0.1-0.6
			c0-0.2,0.3-0.4,0.3-0.6c0-0.2-0.3-0.5-0.1-0.7c0.1-0.1,0.2,0,0.4,0.1c0.2,0.1,0.3,0.2,0.4,0.1c0.2-0.1,0.3-0.3,0.5-0.4
			c0.2,0,0.4-0.1,0.6-0.1c0.2,0,0.4-0.4,0.6-0.4c0.2,0,0.4,0,0.6-0.1c0.1,0,0.2,0,0.3,0.1c0.1,0.1,0.2,0.1,0.3,0.1
			c0.2,0,0.4-0.1,0.6-0.1c0.2,0,0.4-0.2,0.6-0.2c0.1,0,0.2,0.2,0.3,0.3c0.1,0.2,0.2,0.3,0.3,0.3c0.2,0,0.4-0.5,0.6-0.5
			c0.2,0,0.4,0.3,0.6,0.3c0.1,0,0.2,0,0.3,0c0.1,0,0.2,0,0.3,0c0.2,0,0.4,0.1,0.6,0.1c0.1,0,0.2-0.1,0.3-0.1
			c0.1-0.1,0.2-0.1,0.3-0.1c0.2,0,0.4,0.3,0.6,0.3c0.1,0,0.2-0.1,0.3-0.1c0.1-0.1,0.2-0.1,0.3-0.1c0.1,0,0.2-0.1,0.3-0.1
			c0.1-0.1,0.2-0.2,0.3-0.2c0.1,0,0.2,0,0.3-0.1C145.8,279.1,145.9,279,146,279C146,279,146,279,146,279"/>
	</defs>
	<clipPath id="SVGID_2_">
		<use xlink:href="#SVGID_1_"  style="overflow:visible;"/>
	</clipPath>
	<path class="st5" d="M116,311.7c6.2-4.3,17.8,5.1,31.5-1.8c10.3-5.2,16.4,5.3,32.8,5.1c9.7-0.1,27-9.3,39.7-4.2
		c13.7,5.5,27.3-2.5,33.5,1.8v7.7c-6.2-4.3-19.7,2-33.5-3.5c-12.7-5.1-30,2.4-39.7,2.5c-16.4,0.2-22.5-8.6-32.8-3.4
		c-13.6,6.9-25.3-0.8-31.5,3.5V311.7z"/>
</g>
<path class="st6" d="M223.9,234.8l3.2,0.5c0,0,0.3,0,0.4,1.5c-17.3,9-29.4,10.3-46.4,10.3c-17,0-32.3-4.6-43.3-12.2
	c0.5-1.8,0-0.3,0-0.3l2.4,0c12.9,4,26.9,6.1,41.6,6.2C197,240.7,211.1,238.8,223.9,234.8"/>
<g>
	<defs>
		<path id="XMLID_42_" d="M273.2,193.4c0,0,10-3,7.5,6.8c-2.5,9.8-12.6,10.8-16.1,7.8C261.2,205,273.2,193.4,273.2,193.4"/>
	</defs>
	<use xlink:href="#XMLID_42_"  style="overflow:visible;fill:#F7E7D6;"/>
	<clipPath id="XMLID_9_">
		<use xlink:href="#XMLID_42_"  style="overflow:visible;"/>
	</clipPath>
</g>
<g>
	<defs>
		<path id="XMLID_41_" d="M93.5,198.9c0,0-10.1-2.4-7,7.3c3.1,9.6,13.2,10,16.5,6.8C106.3,209.7,93.5,198.9,93.5,198.9"/>
	</defs>
	<use xlink:href="#XMLID_41_"  style="overflow:visible;fill:#F7E7D6;"/>
	<clipPath id="XMLID_10_">
		<use xlink:href="#XMLID_41_"  style="overflow:visible;"/>
	</clipPath>
</g>
<path class="st0" d="M274.2,193.8c-0.6,0.6-1.1,1.8-1.3,3.1c-0.5,3.6-1.9,7.4-4.2,11.1c3.3-4.4,6.1-9.3,8.2-14.7
	C276.1,193.7,274.6,193.3,274.2,193.8z"/>
<path class="st0" d="M92.8,199l-2-0.2c3,6.5,7.1,12.3,12,17.3c-2.9-4.7-5.2-8.7-6.8-11C95.1,203.8,93.3,199.4,92.8,199z"/>
<path id="XMLID_40_" class="st7" d="M181.1,81.1C126.6,82.8,87,121.2,85,167c-0.5,12.1,1.6,22.7,5.8,31.8l2,0.2
	c0.5,0.4,2.3,4.8,3.2,6.1c1.6,2.3,3.9,6.3,6.8,11c18.4,18.7,49.1,27.3,83.2,26.2c36.3-1.1,66.4-12.3,82.8-34.3
	c2.2-3.7,3.7-7.5,4.2-11.1c0.2-1.4,0.8-2.5,1.3-3.1c0.4-0.5,1.9-0.1,2.8-0.4c3.8-9.4,5.7-20.2,5.3-32.5
	C280.9,115.1,235.5,79.4,181.1,81.1z"/>
<g>
	<g id="XMLID_39_">
		<polygon class="st8" points="297.7,137.4 297.4,136.9 296.6,137 296.2,136.7 295.9,136.2 295.9,135.9 295,135.9 294.6,135.6 
			293.7,135.9 293.7,134.8 293,135.1 292.2,134.9 291.7,135.6 292.2,134.8 291.9,134.2 291,134.6 290.7,133.6 290.4,133.8 
			289.7,134.5 290.1,133.6 289.7,133.1 288.8,133.2 288.2,133.2 287.5,133.2 287.2,132.6 286.7,132.2 286,132.2 285.7,131.2 
			284.8,131.9 284.6,130.9 284,130.7 283.3,130.7 282.9,130.1 282.4,129.5 281.8,129.8 281.4,130.4 281,129.8 280.3,129.8 
			280.1,129.1 280.1,128.5 279.6,128.4 278.7,128.7 278.8,128.2 278.5,127.9 278.3,128.3 277.6,128.4 277.1,127.8 276.3,128.4 
			275.6,127.8 275.5,127.1 275.3,126.1 274.5,126.3 273.7,126.5 273.3,126 272.6,125.9 271.8,126.1 271.7,125.1 271.1,124.9 
			270.6,124.5 270.1,124.1 269.4,124.2 268.9,123.8 268.4,123.2 268.1,123.5 267.5,123.8 267.3,122.9 266.5,123 266.2,122.5 
			265.5,122.5 264.5,122.8 264.8,121.9 264.7,121.1 264.4,121.7 263.8,122 263,121.7 262.9,120.7 262.1,120.9 261.7,120.1 
			260.9,120.6 260.7,120 260.8,119.5 260.2,118.9 259.5,119.9 258.6,119.6 258.3,119 258.3,118.5 258.3,117.3 257.3,118 
			256.8,118.2 256.5,118.4 255.9,117.9 255.4,117.6 255.2,116.8 254.5,116.8 253.9,116.6 253.3,116.2 252.4,116.8 252.5,116 
			252.3,115.9 251.6,115.8 251.1,115.2 250.7,114.8 250,114.6 249.7,113.8 248.8,114 248.2,114.2 247.9,113.4 247.2,113.4 
			246.6,113.1 245.9,113.4 245.4,113 244.8,112.6 244.3,112.3 243.8,111.7 243.5,111.2 242.6,111.3 242,111.3 241.7,110.6 
			241.2,110.3 240.6,110.1 240,109.7 239.5,109.5 239.1,109.2 238.2,109.3 237.9,108.5 237.2,108.7 236.4,108.8 235.9,108.5 
			235.5,108.2 235.1,108.6 235.1,108.1 235.2,107.3 234.8,106.5 234.2,106.9 233.9,107 233.4,106.6 232.6,106.8 232.5,106.4 
			232.3,106.2 232.1,106.3 231.4,106.8 231.2,105.8 230.6,105.8 230.7,105.1 230,105.2 229.5,104.6 228.7,105 229,104.5 
			228.4,104.5 228.3,104.7 227.6,104.4 226.7,104.9 227.1,104 226.8,103.3 226.2,103.6 225.8,103.8 225.3,103.5 224.6,103.4 
			223.9,103.6 223.3,103.2 223.4,102.1 222.6,102.1 222.3,101.7 222.3,101.2 221.6,101.2 221,101 220.7,101.4 220.2,101.5 
			219.6,100.9 219.2,100.3 218.9,99.7 218,100.3 217.5,99.6 217.1,99.1 216.6,98.9 216,98.6 215.2,98.7 214.6,98.8 214.3,98 
			213.6,98 212.8,97.9 212.6,97.1 211.8,97.1 211.2,97.3 211.2,96.3 210.5,95.8 209.9,95.5 209.4,95.1 208.8,95.1 208.2,94.9 
			207.7,94.4 207.3,93.6 206.6,94.5 205.6,94.5 205.4,93.6 204.9,93.1 204.2,93.1 203.5,93.1 203.3,92.7 202.8,91.7 201.9,92 
			201.5,91.5 200.9,91.4 200.2,91.4 200.1,90.4 199.2,90.8 198.6,90.4 197.8,90.9 197.1,90.5 196.7,90.2 196,90.1 195.5,89.6 
			195.6,89 195.4,88.3 195,88.9 194.3,89.5 194.1,88.3 193.5,88.3 192.8,88 192.2,87.9 191.7,87.7 191.1,87.7 190.5,87.2 
			189.7,87.7 189.4,87.2 188.7,86.9 188,86.6 187.4,87.1 187.1,86.1 186.3,86.8 185.6,86.4 184.9,86.5 184.6,85.7 183.9,85.9 
			184,85.2 183.5,85 182.8,85.3 182,85.6 181.9,84.9 182,84 181.2,84.6 180.7,84.8 180.2,85.6 179.6,84.9 180,84.2 179.3,83.9 
			178.6,84.2 178.2,83.9 177.3,84.4 176.8,83.5 176.4,82.6 175.7,83.4 175,83.4 174.4,82.9 174,82.6 173.4,82 172.7,82.8 
			172.4,81.9 171.9,81.4 171.1,81.3 170.3,81.5 169.7,81.7 168.9,82.1 168.6,81.2 168,81.2 167.3,81.5 167.1,80.4 166.3,80.3 
			165.7,80.3 165.3,79.6 164.6,79.6 164.3,80 163.9,79.9 163.4,79.4 163.2,79.3 162.9,78.9 162.4,79 161.6,79.6 161.2,78.8 
			160.7,78.1 160,78 159.4,77.8 158.8,78 158,77.9 157.6,77.4 157.1,76.9 156.5,77.2 156.1,77.6 155.6,77.6 155,77.3 155.3,76.7 
			154.6,76.7 153.9,76.7 153.4,76.3 152.7,76.4 152.1,76.5 151.5,76.2 151.1,75.7 150.3,76 150,75.5 149.9,74.9 149.7,75.7 
			149.1,75.7 148.6,75.2 148.1,74.7 147.5,74.8 146.8,74.7 146.2,74.7 145.8,74.2 145.2,73.8 145,72.5 144.4,73 144,73.5 
			143.5,73.1 143.2,73.4 142.6,73.5 141.9,73.6 141.9,72.7 141.1,72.2 140.7,72.3 140.3,73 139.8,72.4 139.1,72.3 138.6,72 138,72 
			137.3,71.8 136.9,71.2 136.2,71.8 135.4,71.6 135.3,70.5 134.5,70.7 134.1,70 133.3,70.7 132.8,70 132.5,69.8 132.1,70.2 
			131.6,70 130.8,70.1 130.3,69.5 129.9,69 129.2,69.1 128.7,68.9 128,68.5 127.6,69 127.1,69.6 127.4,68.8 126.8,68.4 126.4,68.3 
			125.6,68.1 125.4,69.1 124.9,68.3 124.3,68.4 123.7,68 123.3,67.4 122.7,67.4 122.1,67.3 121.5,66.7 120.9,66.9 120.2,66.9 
			119.8,66.2 119.4,65.6 119.1,66.2 118.3,67.1 118.4,66 118,65.6 117.5,65.3 116.9,65.2 116.2,65.2 115.7,64.7 115,65.2 
			115.1,64.6 114.7,64.3 113.8,65 113.3,64.2 112.8,64.5 112.1,63.9 111.4,64.1 110.9,63.5 110.3,63.4 109.9,62.4 109.1,63.3 
			108.6,63.1 108,62.5 107.5,62.1 106.8,62.1 106,62 105.5,62.6 104.8,62.5 104.7,61.9 104.4,61.6 103.7,61.9 103.3,61.4 
			103.4,60.8 103.1,61.5 102.3,62.1 101.9,61.3 101.5,60.8 101,60.5 100.5,60 100,59.5 99.3,59.5 98.8,59.5 98.4,60.1 97.8,59.6 
			97.2,59 96.6,59.8 96,59.3 95.5,59.1 94.8,59.5 94.2,59 94,59.4 93,59.4 93.2,60.3 92.3,60.3 92.9,61 93,61.7 92.2,61.6 
			91.9,61.6 92.1,61.7 91.9,62.4 91.2,62.5 90.4,62.8 89.9,63.5 90.2,64.2 89.9,64.5 89.3,64.9 89.2,65.6 88.6,65.9 88.7,66.6 
			88.8,66.9 88.3,67.1 87.8,67.8 87.3,68 87,68.6 87.3,68.9 87.5,69.7 86.4,69.7 86,70.2 86,70.9 85.4,71.2 85.5,71.9 85.4,72.7 
			84.4,72.6 84.5,73.5 83.9,73.9 84,74.7 82.9,74.8 83.4,75.7 83.3,76.3 82.9,76.8 82.9,77.5 81.9,77.7 81.8,78.3 81.4,78.7 
			80.9,78.6 80.6,79 80.7,79.7 80.9,80.6 79.7,80.7 80.2,81.7 79.3,81.9 79.9,82.7 79.1,83.1 78.7,83.6 78.3,84.1 78,84.6 
			78.1,85.4 77.6,85.8 77.5,86.4 76.9,87 77.2,87.6 76.8,88.2 76.5,88.6 76.3,89.2 75.7,89.6 75,90 75.2,90.9 75.5,91.6 75,92 
			74.9,92.5 74.2,93 74.1,93.6 74.1,94.2 74.2,94.9 73.6,95.4 73.7,96.1 73,96.5 72.8,97.1 72,97.5 72.4,97.9 72.9,98.3 73,99.2 
			72.2,98.9 71.5,99.2 72.1,100 71.7,100.5 71.3,101.1 71.3,101.8 71.4,102.4 70.4,102.8 71.2,103.6 70.3,104.1 71.1,104.9 
			70.3,105 69.9,105.1 70.4,105.8 69.9,106.5 69.8,107.1 69.6,107.7 69.7,108.2 69.6,108.9 69.8,109.8 68.8,109.2 68.3,109.8 
			68.3,110.5 68.8,110.7 68.9,111.3 67.7,111.6 68,112.1 68.2,113 68.5,113.7 67.9,114.3 67.1,114 67.6,114.6 68.3,115.6 
			66.9,115.8 67.3,116.6 67.5,116.9 67.8,117.2 67.5,117.7 66.7,117.7 67.3,118.2 67.8,118.5 67,118.9 66.3,118.9 66.1,119.5 
			65.7,120.2 66.3,120.2 66.7,120.8 66.5,121.4 66.6,122.1 66,122 66.2,122.6 67.4,123.2 66.6,123.8 66.1,124.5 66.6,124.7 
			66.7,125.4 67.4,125.9 66.4,126.2 66,126.2 66,126.9 66.2,127.2 67,127.7 66.3,127.9 65.8,128.1 66.1,128.8 65.9,129.4 
			66.3,130.1 65.2,130.6 66,130.7 66.2,131.3 66.3,131.9 66.4,132.6 65.7,133.1 66,133.8 65.4,134.4 66,135 65.4,135.5 66.1,135.8 
			66.6,136.2 66.8,136.8 66.8,137.4 65.9,137.8 65.7,138.7 66.4,138.6 66.3,139.3 66.6,139.8 66.8,140.4 66.9,141 66,141.2 
			66.8,141.8 67.1,142.2 67.1,142.9 67,143.5 66.8,144.2 67.7,144.6 67.3,145.4 67.6,145.9 67.2,146.6 67.1,146.6 67.6,147.2 
			66.9,147.9 67.6,148.4 68.1,148.5 67.8,149.3 68.2,149.7 68,150.4 67.8,150.7 68.3,150.9 68.5,151.2 68.3,151.6 68.2,152.2 
			69,152.9 68.8,153.9 68.7,154.8 68.7,155.6 69,156.5 68.6,157.5 69.6,158.1 69.9,158.9 69.7,159.9 70.4,160.6 70.6,161.5 
			71,162.3 70.8,163.2 71.7,163.8 71.6,164.8 71.7,165.6 72.1,166.4 72.2,167.3 73.1,167.9 72.9,168.5 72.2,169.1 73.1,169.2 
			73.7,169.5 73.7,170.5 74.2,171 75.1,171.1 75.9,171.4 76.6,171.9 77.2,172.4 77.6,173.2 78.7,173.2 79,174.2 79.4,175 
			80.4,174.9 81.1,175.4 81.9,175.7 82.1,176.6 82.5,177.5 83.3,177 83.7,177.2 84.5,177.4 83.9,178.1 84.9,178.1 85.6,178.6 
			86.3,179.1 86.7,179.9 87.7,179.8 88.1,180.7 89,180.8 89.5,181.6 90.1,181.4 90.8,181 90.6,181.9 91,182.3 91.4,182.7 
			91.8,182.3 92.6,182.7 93.2,183.1 93.8,183.8 94.5,184 95.2,184.4 96.1,184.5 97,184.9 97.3,185.9 98,186.1 98.6,186.6 
			99.6,186.5 100.1,187.2 101.1,187.2 101.7,187.8 102.2,188.4 103.1,188.4 103.7,189 104.6,189.1 105.1,189.7 105.9,190.1 
			106.6,190.5 107,191.3 107.9,191.4 108.3,191.5 108.9,191.1 109.7,191.6 110.2,192.3 110.7,192.9 111.4,193.3 112.4,193.1 
			113.2,193.5 113.7,194.1 114.1,193.6 114.7,193.9 115.3,194.4 115.9,195.2 116.5,195.7 117.4,195.8 118,196.3 118.9,196.4 
			119.5,197 120.2,197.4 121.1,197.3 122.1,196.8 122.9,197.2 123.5,197.8 124.2,198.4 125,198.1 125.7,198.6 126.6,198.8 
			127.2,199.4 128,199.5 129,199 129.5,200 130.2,200.4 131,200.6 132,200.3 132.6,200.9 133.4,201.1 134,201.7 134.9,201.8 
			135.5,202.4 136.5,201.9 137.2,202.4 138,202.4 138.5,203.2 139.4,203.3 140.3,203.3 141,203.6 141.4,203.4 142.1,202.8 
			142.6,203.8 143.4,204 144.2,204.6 145,204 145.7,204.6 146.5,204.8 147.3,204.9 148.2,205.3 148.7,204.9 149,204.6 149.7,204.7 
			149.7,205.4 150.5,205.5 151.4,205.7 152.2,205.1 152.5,205.4 153,205.9 153.9,205.2 154.8,205.2 155.6,205.5 156.6,205.9 
			157.5,205.3 158.2,206.2 159.1,205.9 160,205.9 160.9,206.3 161.7,206.9 162.6,206.9 163.5,206.9 164.3,206 165.3,206.2 166,207 
			166.9,206.4 167.9,206.4 168.1,206.8 168.6,207.5 169.6,207.1 170.4,206.9 171.3,207.1 172.2,207.5 172.5,206.9 173.1,206.5 
			173.9,207.3 174.9,206.4 175.3,207.1 175.7,207.4 176.5,207.5 177.4,207.4 178.3,207.3 179.3,207 179.9,208.2 180.8,207.4 
			181.8,207.5 182.6,207.8 183.6,207.7 184.4,208 185.3,208 186.2,208 186.4,207.5 187.1,207.9 187.8,207.9 188.8,208.3 
			189.7,207.8 190.6,208.4 191.4,207.5 192.3,208.2 193.2,207.5 194,208 194.9,207.8 195.4,207.6 195.8,207.2 195.9,208 
			196.7,207.9 197.6,207.8 198.5,208 199.4,207.7 200.2,207.1 201,207.7 201.9,207.4 202.8,207.7 203.7,207.3 204.5,207.2 
			205.4,207.4 206.2,206.5 207.1,207.3 208,206.6 208.9,206.6 209.7,206.4 210.6,206.3 211.4,206 212.3,205.8 213.2,206.1 
			214.1,206.1 215,206.3 215.8,205.7 216.7,205.4 217.6,205.9 218.1,205.5 218.4,205.2 219.3,205.3 220.2,205.5 221.1,205.5 
			221.9,205.1 222.9,205.6 223.7,205 224.5,204.9 225.2,204.3 226.2,204.3 227.1,204.2 227.7,203.5 228.6,203.1 229.6,203.2 
			230.4,203 231.3,202.9 232.2,202.6 233,202.7 233.7,201.9 234.7,202.3 235,201.9 235.4,201.4 236.3,201.6 237.2,201.5 
			238.2,201.6 238.8,200.7 239.6,200.5 240.6,200.4 241.5,200.3 242.2,199.7 243.1,199.7 243.4,198.4 244.6,198.6 245.3,198.1 
			246.3,198.4 247.1,197.8 247.6,196.9 248.5,196.9 249.5,196.6 249.4,196.3 250.1,196.1 251,195.9 251.6,196.1 252.2,196.5 
			252.9,195.8 253.5,195.2 254.3,194.9 255.2,194.8 255.9,194.1 256.8,193.8 257.5,193.3 258.4,193.1 259,192.4 259.5,191.5 
			260.5,191.5 261.5,191.3 261.9,190.4 262.8,190.4 263.6,189.9 264.2,189.1 265.3,189.3 265.5,188.2 266.6,188.2 267.5,187.9 
			267.3,187.2 267.6,186.5 268.6,186.4 269.2,185.8 269.8,185.2 270.6,184.8 271.1,183.9 271.9,183.5 272.6,183 273.3,182.5 
			274.3,182.4 274.9,181.8 275.8,181.5 276.4,180.9 277.3,180.5 277.7,180.2 277.9,179.8 278.5,179.2 279.3,178.8 280,178.3 
			280.9,178.1 281.4,177.2 282.1,176.7 283.2,176.4 283.1,175.2 283.9,174.9 284.1,174.6 283.5,173.8 284.4,173.1 284.4,172.2 
			284.8,171.3 284.4,170.4 285,169.5 285.4,169.3 285.7,168.9 285.8,168 285.8,167.1 285.7,166.1 286.6,165.4 286.6,164.4 
			286.4,163.6 286.6,162.7 286.8,161.9 286.8,161 286.9,160.1 286.8,159.2 286.7,158.9 287.4,158.4 287.5,157.6 287.4,157.4 
			287.8,156.8 288.3,156.6 288.2,155.7 288.8,155.2 289.4,155 289.1,154.2 289.6,153.8 290.3,153.5 290.6,152.9 290.3,152.4 
			289.8,151.8 290.7,151.6 290.2,150.6 291.4,150.6 291.4,149.9 292,149.7 292.4,149 292.5,148.4 292.4,147.6 293.2,147.4 
			293,146.9 292.7,146.5 293.3,146.2 293.4,145.6 293.3,144.8 294.3,144.6 294.1,143.8 294.7,143.2 295.8,143.3 295.5,142.4 
			296.3,142.2 296.1,141.5 295.8,140.6 296.1,140.1 296.4,139.4 296.8,139.1 297.3,138.5 297.7,138.1 		"/>
	</g>
	<g>
		<defs>
			<polygon id="XMLID_38_" points="284.7,173.3 283.3,173.4 283.2,173.9 282.7,174.6 282,174.8 281.6,175.5 281.1,175.8 
				280.4,176.1 279.5,177.2 278.4,177.8 277.8,178.4 277.4,178.8 276.9,179 275.7,180.1 274.7,180.8 274.1,181.1 272.5,182.4 
				271.9,182.6 271,183 270.7,183.8 270.3,184.1 269.7,184.3 269,184.8 268.6,185.2 267.8,185.3 267.3,186 266.7,186.2 266.3,186.8 
				265.6,187 265.1,187.6 264.6,187.9 264,188.1 263.4,188.6 262.8,188.8 261.6,189.8 261.2,190.2 260.5,190.4 260,190.8 259.4,191 
				258.8,191.5 258.2,191.8 257.7,192 256.9,192 256.2,192.5 255.7,193 255.1,193.2 254.5,193.5 253.8,193.7 253.3,194.1 
				252.5,194.2 252,194.8 251.5,195 250.7,195.1 250.1,195.6 249.6,195.7 249,195.7 248.2,196 247.6,196.5 246.9,196.4 246.3,197 
				245.8,197 245,197.3 244.3,197.6 243.8,197.8 243.2,198 242.5,198.4 241.8,198.4 241.2,198.7 240.6,198.8 239.8,199.2 
				239.3,199.4 238.7,199.5 238,199.7 237.3,199.8 235.9,200.2 235.3,200.7 234.7,200.7 234,200.8 233.3,201 232.6,201.3 
				232.1,201.5 231.4,201.4 230.6,201.7 230.1,202.1 228.7,202.2 228.1,202.4 227.5,202.7 226.8,202.6 226.2,203 225.4,202.7 
				224.8,203.2 224.2,203.2 223.4,203.2 222.7,203.3 222,203.5 221.4,203.7 220.1,203.9 219.4,203.9 218.7,204.2 218.1,204.3 
				217.3,204.4 216.7,204.6 215.4,204.5 214.7,204.8 214.1,204.8 213.3,204.7 212,205.2 211.4,205.1 210.6,205.1 209.9,205.5 
				209.4,205.5 208.7,205.4 207.9,205.5 206.6,205.8 206,205.8 205.3,205.6 204.5,205.7 203.8,206 203.3,206.1 202.5,206 201.8,206 
				201.1,206.2 200.5,206.2 199.9,206.2 199.2,206 197.8,206.2 197.1,206.2 195.7,206.1 194.9,206.2 194.4,206.4 193.7,206.1 
				193,206.4 192.3,206.2 191.5,206.5 191,206.5 190.3,206.3 188.9,206.5 188.3,206.5 187.6,206.3 186.9,206.4 186.2,206.2 
				185.4,206.5 184.8,206.4 184.2,206.4 183.5,206 182.7,206.3 182.2,206.4 181.5,206 180,206 179.2,206.1 178.7,206.3 177.3,205.9 
				176.6,206.2 176,205.9 174.6,206.1 174,205.8 173.2,206 172.6,205.7 171.9,206 171.4,205.7 170.5,205.5 169.9,205.7 169.2,205.4 
				168.5,205.5 167.8,205.4 167.1,205.5 166.4,205.2 165.8,205.4 165.2,205.1 164.4,205.1 163.7,205.2 163.2,205 162.3,204.8 
				161.6,205 161,204.9 160.3,204.8 159.6,204.9 159,204.8 158.3,204.8 157.7,204.4 156.9,204.6 156.3,204.3 155.6,204.4 
				154.9,204.1 154.1,204.3 153.5,204.2 152.9,204.2 152.3,203.9 151.5,203.6 150.8,203.9 150.2,203.6 149.5,203.6 148.9,203.4 
				148.1,203.3 147.4,203.3 146.2,203.1 145.5,202.7 144.1,202.7 142.8,202.3 142.1,202.4 141.6,202.1 140.7,201.9 140.1,201.9 
				139.4,201.7 138.7,201.6 138.1,201.4 136.9,201.1 136.2,200.8 135.5,200.7 134.9,200.4 134.1,200.2 133.5,200.1 132.8,199.9 
				132.2,199.8 131.7,199.5 130.9,199.1 130.2,199.2 129.7,198.8 129.1,198.5 128.4,198.3 127.7,197.9 127,198 126.4,197.7 
				125.7,197.6 125.1,197.5 124.6,197.2 123.9,196.7 123.2,196.7 122.6,196.2 121.9,196.1 121.4,195.8 120.7,195.3 119.9,195.4 
				118.8,194.7 118.1,194.7 117.6,194.3 117,193.9 116.2,193.8 115.6,193.7 115.1,193 114.2,193.1 113.8,192.8 113.1,192.5 
				112.5,192.1 111.9,191.9 111.4,191.5 110.6,191.3 110.1,191 109.5,190.5 108.7,190.4 108.1,190.2 107.6,189.8 107,189.5 
				106.4,189 105.6,188.9 105.1,188.7 104.6,188.3 103.9,187.9 102.6,187.5 102.1,186.9 101.4,186.7 100.9,186.4 100.3,186 
				99.6,185.8 99.1,185.5 98.6,185 97.9,184.6 97.4,184.3 96.6,184.1 96.1,183.8 95,183 94.3,182.7 93.2,182.1 92.7,181.5 91.3,181 
				90.9,180.6 90.3,180.1 89.5,179.9 89,179.6 88.5,179.3 88.1,178.7 86.8,178 86.1,177.8 85.6,177.5 85.1,176.9 84.5,176.7 
				84.1,176 83.3,175.9 82.3,174.9 81.6,174.8 81.2,174.3 78.9,173 78.5,172.2 77.8,171.9 77.3,171.4 76.5,171.3 76,171 75.7,170.6 
				75.2,169.8 74.5,169.5 72.6,168.8 73.9,171 74.7,172.8 74.9,173.6 75.4,174.1 75.7,175.4 76.1,176.1 76.7,176.6 76.8,177.2 
				77,177.8 78.3,179.6 78.7,180.1 78.8,180.7 79.5,182 79.8,182.6 80.7,183.8 81.5,184.9 81.8,185.6 82.3,186 82.5,186.7 
				83.3,187.2 83.6,187.6 83.9,188.1 84.2,188.8 84.8,189.5 85.4,189.8 85.7,190.3 86.2,190.9 86.6,191.5 87.2,191.9 88.1,192.8 
				88.4,193.4 88.9,194.1 89.4,194.6 90.1,194.9 90.4,195.5 91.1,195.8 91.4,196.3 92,196.8 92.5,197.3 93.7,198 94,198.7 94.7,199 
				95.1,199.4 95.6,200 96.2,200.5 96.8,200.8 97.3,201.4 98,201.6 98.3,202 99,202.6 99.5,202.9 100.1,203.5 100.8,203.6 
				101.2,204 101.8,204.5 102.3,205 103,205.3 104.1,206.2 104.8,206.4 105.7,207.3 106.4,207.8 107.1,208 107.7,208.3 109.3,209.5 
				110,209.7 110.6,210.3 111.3,210.4 111.8,210.7 112.2,211.2 113.6,212 114.9,212.4 115.4,212.8 116.2,213.1 116.9,213.1 
				117.4,213.3 118,213.9 118.8,213.9 119.3,214.3 120.6,214.7 121.1,215.1 121.9,215.4 122.6,215.4 123.1,215.9 123.9,216 
				124.5,216.1 125.1,216.7 125.9,216.7 126.3,216.9 126.9,217.4 128.4,217.8 129.1,217.8 129.5,218 130.2,218.5 131,218.6 
				131.6,218.9 132.3,219.1 132.9,219.1 133.5,219.6 134.3,219.7 135,219.7 135.6,219.9 136.2,220 137.4,220.5 138,220.9 138.8,221 
				139.5,221.3 140.2,221.2 140.8,221.6 141.5,221.5 142,221.8 142.9,222.1 143.6,221.9 144.2,222.3 144.8,222.3 145.5,222.8 
				146.3,222.6 147.5,222.8 148.2,223.2 148.9,223.2 149.6,223.5 150.2,223.4 150.8,223.9 152.3,224.1 153.6,224.2 154.3,224.4 
				154.9,224.4 155.7,224.6 156.3,224.5 157,225 157.7,224.8 158.3,225.2 159,224.9 159.6,225.3 160.4,225.2 161,225.3 161.8,225.5 
				162.5,225.6 163.1,225.6 164.5,225.9 165.3,225.9 165.9,225.7 166.6,225.8 167.2,225.9 167.9,226.2 168.6,226 169.3,226.5 
				170,226.1 170.5,226.2 171.3,226.6 172.1,226.3 172.8,226.3 173.4,226.3 174.8,226.5 175.4,226.4 176.1,226.7 176.8,226.6 
				177.4,226.7 178.2,226.8 178.9,226.6 179.5,226.9 180.3,226.8 181,226.7 181.7,226.8 183,226.8 183.7,226.9 185,226.7 185.7,227 
				186.5,226.9 187.2,226.7 187.7,226.8 189.2,227 190,226.8 190.6,226.6 191.2,226.7 191.9,226.6 192.6,226.8 194,226.5 
				194.7,226.6 195.4,226.5 196,226.4 196.7,226.6 197.5,226.6 198.2,226.3 199.5,226.3 200.1,226.2 200.8,226.2 202.1,225.9 
				202.9,226.2 203.7,225.8 204.2,225.7 204.9,225.9 205.6,225.6 207.1,225.8 207.7,225.3 208.2,225.3 209,225.5 209.8,225.3 
				210.4,225 211,224.9 211.6,224.8 212.4,225.1 213.2,224.7 213.8,224.5 214.4,224.4 215.1,224.6 215.8,224.3 217.3,224.3 
				217.8,223.9 218.5,224.1 219.3,224 219.9,223.8 220.6,223.7 221.2,223.4 221.9,223.5 222.6,223.2 223.2,223.2 224,223 
				224.7,222.9 225.3,222.4 226,222.3 226.6,222.1 227.2,222 228,222.2 228.7,221.7 229.3,221.4 229.9,221.3 230.6,221.3 
				231.3,221.2 232.6,220.6 233.3,220.7 234.1,220.5 234.7,220 235.2,219.8 235.9,219.8 236.6,219.6 237.2,219.2 237.8,219.3 
				238.6,219 239.2,218.6 239.8,218.5 240.5,218.1 241.2,218 241.8,217.6 242.5,217.6 243.1,217.1 243.6,216.9 244.5,216.8 
				245,216.2 245.5,216.1 246.3,215.7 246.8,215.3 247.4,215.1 248.6,214.5 249.3,214.4 250.1,214 250.6,213.7 251.2,213.6 
				252,213.1 252.4,212.6 253,212.5 253.7,212 254.2,211.5 254.8,211.3 255.3,210.9 256.2,210.8 256.6,210.1 257.1,210 257.9,209.6 
				258.9,208.6 259.4,208.4 260.1,208.1 260.7,207.8 261.3,207.3 262,206.9 262.3,206.2 262.8,206 263.3,205.5 264.1,205.3 
				264.5,204.5 265.4,203.8 266.1,203.6 266.7,203 267.1,202.2 267.5,201.9 268.2,201.7 268.7,201 269.2,200.7 269.7,200.1 
				270.6,199.2 271.2,198.7 271.7,198.1 272.1,197.6 272.5,197.1 273,196.8 273.5,196.1 273.9,195.5 274.3,194.9 275.3,194.1 
				275.6,193.3 276.1,192.9 276.4,192.2 276.9,191.8 277.3,191.1 277.5,190.5 278,189.9 278.6,188.8 279.2,188.2 279.3,187.5 
				279.6,187.1 280.2,186.4 280.2,185.6 280.5,185.2 281,184.6 281.4,183.2 281.7,182.6 281.8,181.8 282.6,180 282.7,179.3 
				283,178.7 283.1,178 283.3,177.4 283.7,176.6 283.6,175.9 284,175.4 284.1,174.5 284.1,174.2 			"/>
		</defs>
		<use xlink:href="#XMLID_38_"  style="overflow:visible;fill:#005944;"/>
		<clipPath id="XMLID_11_">
			<use xlink:href="#XMLID_38_"  style="overflow:visible;"/>
		</clipPath>
	</g>
	<g>
		<path class="st4" d="M184,151.5C183.9,151.4,183.9,151.4,184,151.5L184,151.5z"/>
		<path class="st4" d="M144.6,134.6C144.6,134.6,144.6,134.6,144.6,134.6C144.6,134.6,144.7,134.6,144.6,134.6
			C144.7,134.7,144.7,134.7,144.6,134.6C144.7,134.6,144.6,134.6,144.6,134.6z"/>
		<g>
			<defs>
				<path id="XMLID_37_" d="M305,130.3c0.4-0.6,0.6-1.2,0.5-1.9c0.3-0.7,0.5-1.4,0.4-2.2c0,0,0-0.1,0-0.1c0.1-0.2,0.1-0.4,0.1-0.5
					c0-0.5-0.2-1-0.4-1.4c0-0.2,0-0.4-0.1-0.6c0.1-0.1,0.4-0.3,0.4-0.4c0-0.1-0.1-0.2-0.2-0.3c0-0.2,0-0.4,0-0.6
					c0.1-0.1,0.2-0.2,0.2-0.3c0-0.2-0.1-0.4-0.1-0.6c0-0.2-0.2-0.4-0.2-0.6c0-0.2,0.2-0.4,0.2-0.6c0-0.2-0.4-0.4-0.4-0.6
					c0-0.2,0-0.4,0-0.6c0-0.2-0.1-0.4-0.1-0.6c0-0.2,0-0.4,0-0.6c0-0.2,0-0.4-0.1-0.6c0-0.2,0.3-0.5,0.3-0.7c0-0.2-0.5-0.3-0.6-0.5
					c0,0,0-0.1,0-0.1c0,0,0-0.1,0-0.1c0.1-0.2,0.2-0.3,0.1-0.5c0-0.2,0.1-0.4,0.1-0.6c0-0.2,0-0.4,0-0.6c0-0.2-0.5-0.3-0.5-0.5
					c0-0.2,0.3-0.5,0.3-0.7c0-0.2-0.5-0.3-0.5-0.5c0-0.2-0.1-0.4-0.2-0.6c-0.1-0.2-0.2-0.4-0.3-0.6c-0.1-0.2,0.3-0.5,0.2-0.7
					c-0.1-0.2-0.5-0.3-0.6-0.5c-0.1-0.2-0.2-0.4-0.3-0.5c-0.1-0.2,0-0.4,0-0.6c-0.1-0.2-0.2-0.4-0.3-0.6c-0.1-0.2,0.4-0.6,0.3-0.8
					c-0.1-0.2-0.2-0.4-0.3-0.6c-0.1-0.2-0.2-0.4-0.3-0.5c-0.1-0.2-0.6-0.2-0.7-0.4c-0.1-0.2,0.2-0.5,0.2-0.7
					c-0.1-0.2-0.1-0.4-0.2-0.6c-0.1-0.2-0.4-0.3-0.5-0.5c-0.1-0.2-0.3-0.3-0.4-0.5c-0.1-0.2,0.5-0.7,0.4-0.8
					c-0.1-0.2-0.7-0.2-0.7-0.4c-0.1-0.2-0.2-0.4-0.3-0.6c-0.1-0.2-0.2-0.4-0.3-0.5c-0.1-0.2,0.4-0.6,0.3-0.8
					c-0.1-0.2-0.8-0.1-0.9-0.3c-0.1-0.2-0.2-0.4-0.3-0.5c-0.1-0.2,0.4-0.7,0.4-0.8c-0.1-0.2-0.1-0.4-0.1-0.6c-0.1-0.2-0.8,0-0.9-0.2
					c-0.1-0.2,0.2-0.6,0.1-0.7c-0.1-0.2-0.3-0.3-0.3-0.5c-0.1-0.2,0-0.5,0-0.7c-0.1-0.2-0.4-0.2-0.5-0.4c-0.1-0.2-0.5-0.2-0.6-0.4
					c-0.1-0.2,0.3-0.6,0.2-0.8c-0.1-0.2-0.4-0.3-0.5-0.4c-0.1-0.2-0.1-0.4-0.2-0.6c-0.1-0.2-0.6-0.1-0.7-0.3c-0.1-0.2,0-0.5-0.1-0.7
					c-0.1-0.2-0.3-0.3-0.4-0.5c-0.1-0.2-0.4-0.3-0.5-0.4c-0.1-0.2,0.3-0.6,0.2-0.8c-0.1-0.2-0.3-0.3-0.4-0.5
					c-0.1-0.2-0.5-0.2-0.6-0.3c-0.1-0.2,0.2-0.6,0.1-0.8c-0.1-0.2-0.2-0.3-0.4-0.5c-0.1-0.2-0.8,0-0.9-0.1c-0.1-0.2,0-0.5-0.1-0.6
					c-0.1-0.2,0.2-0.6,0.1-0.8c-0.1-0.2-0.7,0-0.8-0.2c-0.1-0.2,0.2-0.6,0.1-0.8c-0.1-0.2-0.2-0.3-0.4-0.5c-0.1-0.2-0.3-0.3-0.4-0.5
					c-0.1-0.2-0.6-0.1-0.7-0.3c-0.1-0.2-0.2-0.4-0.3-0.5c-0.1-0.2,0.1-0.5-0.1-0.7c-0.1-0.2-0.5-0.2-0.6-0.3
					c-0.1-0.2-0.1-0.5-0.2-0.6c-0.1-0.2-0.4-0.2-0.5-0.4c-0.1-0.2-0.6-0.1-0.7-0.2c-0.1-0.2,0.1-0.6-0.1-0.7
					c-0.1-0.2-0.4-0.2-0.5-0.4c-0.1-0.2,0.2-0.7,0.1-0.8c-0.1-0.2-0.6,0-0.8-0.2c-0.1-0.2,0.1-0.6,0-0.8c-0.1-0.2-0.8,0.1-0.9,0
					c-0.1-0.2,0-0.5-0.2-0.7c-0.1-0.2-0.2-0.3-0.4-0.5c-0.1-0.2-0.2-0.4-0.3-0.5c-0.1-0.2-0.2-0.4-0.3-0.5c-0.1-0.2-0.7,0-0.8-0.1
					c-0.1-0.2,0-0.5-0.2-0.7c-0.1-0.2-0.1-0.4-0.3-0.6c-0.1-0.2-0.3-0.3-0.4-0.4c-0.1-0.2-0.6-0.1-0.7-0.2c-0.1-0.2-0.1-0.5-0.2-0.6
					c-0.1-0.2-0.2-0.3-0.4-0.5c-0.1-0.2-0.4-0.2-0.5-0.4c-0.1-0.2-0.4-0.2-0.5-0.3c-0.1-0.2-0.3-0.3-0.4-0.5
					c-0.1-0.2-0.1-0.5-0.2-0.6c-0.1-0.2-0.1-0.5-0.2-0.6c-0.1-0.2-0.5-0.1-0.7-0.2c-0.1-0.1,0.1-0.7,0-0.8c-0.1-0.1-0.5,0-0.7-0.2
					c-0.1-0.1-0.3-0.3-0.5-0.4c-0.1-0.1,0-0.5-0.2-0.7c-0.1-0.1-0.8,0.2-1,0.1c-0.1-0.1,0.3-0.9,0.1-1c-0.1-0.1-0.6,0-0.7-0.2
					c-0.1-0.1-0.5-0.1-0.6-0.2c-0.1-0.1-0.2-0.4-0.4-0.5c-0.1-0.1,0-0.6-0.2-0.7c-0.1-0.1-0.5-0.1-0.7-0.2c-0.1-0.1-0.2-0.4-0.4-0.5
					c-0.1-0.1-0.4-0.2-0.5-0.3c-0.1-0.1-0.4-0.2-0.5-0.3c-0.1-0.1-0.1-0.5-0.3-0.6c-0.1-0.1-0.1-0.5-0.3-0.6
					c-0.2-0.1-0.8,0.2-0.9,0.1c-0.2-0.1-0.2-0.4-0.3-0.5c-0.2-0.1-0.5-0.1-0.6-0.2c-0.2-0.1,0.2-0.8,0-1c-0.2-0.1-0.3-0.3-0.4-0.5
					c-0.2-0.1-0.8,0.3-1,0.2c-0.2-0.1-0.2-0.4-0.3-0.5c-0.2-0.1-0.4-0.1-0.6-0.3c-0.2-0.1,0.2-0.9,0.1-1c-0.2-0.1-0.8,0.4-1,0.2
					c-0.2-0.1-0.2-0.3-0.4-0.5c-0.2-0.1-0.3-0.3-0.4-0.4c-0.2-0.1-0.4-0.2-0.5-0.3c-0.2-0.1-0.2-0.3-0.4-0.5
					c-0.2-0.1-0.4-0.2-0.5-0.3c-0.2-0.1,0-0.7-0.2-0.8c-0.2-0.1-0.7,0.2-0.8,0c-0.2-0.1-0.1-0.5-0.3-0.6c-0.2-0.1-0.5,0-0.7-0.1
					c-0.2-0.1-0.1-0.5-0.3-0.6c-0.2-0.1-0.3-0.2-0.5-0.4c-0.2-0.1-0.5-0.1-0.6-0.2c-0.2-0.1,0-0.6-0.2-0.7c-0.2-0.1-0.7,0.2-0.8,0.1
					c-0.2-0.1-0.2-0.5-0.3-0.6c-0.2-0.1-0.5-0.1-0.6-0.2c-0.2-0.1-0.3-0.3-0.5-0.4c-0.2-0.1-0.2-0.4-0.4-0.5
					c-0.2-0.1-0.4-0.1-0.6-0.2c-0.2-0.1-0.2-0.4-0.4-0.5c-0.2-0.1-0.4-0.1-0.6-0.3c-0.2-0.1,0-0.7-0.2-0.8c-0.2-0.1-0.5,0-0.7-0.1
					c-0.2-0.1-0.2-0.5-0.3-0.6c-0.2-0.1-0.3-0.3-0.5-0.4c-0.2-0.1-0.7,0.3-0.9,0.2c-0.2-0.1-0.2-0.5-0.4-0.6
					c-0.2-0.1-0.4-0.1-0.6-0.2c-0.2-0.1-0.1-0.6-0.3-0.7c-0.2-0.1-0.4-0.1-0.6-0.2c-0.2-0.1-0.5,0-0.7-0.1c-0.2-0.1-0.4-0.1-0.6-0.2
					c-0.2-0.1-0.1-0.5-0.3-0.6c-0.2-0.1-0.3-0.3-0.5-0.4c-0.2-0.1-0.3-0.4-0.4-0.5c-0.2-0.1-0.2-0.4-0.4-0.5
					c-0.2-0.1-0.6,0.3-0.8,0.1c-0.2-0.1-0.4-0.1-0.6-0.2c-0.2-0.1-0.1-0.7-0.2-0.8c-0.2-0.1-0.4-0.1-0.6-0.2
					c-0.2-0.1-0.4-0.1-0.6-0.2c-0.2-0.1-0.5,0-0.7-0.1c-0.2-0.1-0.3-0.3-0.5-0.4c-0.2-0.1-0.3-0.3-0.4-0.5c-0.2-0.1-0.5,0-0.7-0.1
					c-0.2-0.1-0.3-0.4-0.4-0.5c-0.2-0.1-0.4-0.1-0.6-0.2c-0.2-0.1-0.3-0.3-0.5-0.4c-0.2-0.1-0.3-0.3-0.5-0.4
					c-0.2-0.1-0.3-0.3-0.5-0.4c-0.2-0.1-0.6,0.3-0.8,0.2c-0.2-0.1-0.1-0.6-0.3-0.7c-0.2-0.1-0.6,0.2-0.8,0.1
					c-0.2-0.1-0.1-0.7-0.3-0.8c-0.2-0.1-0.4-0.1-0.6-0.2c-0.2-0.1-0.5,0-0.6-0.1c-0.2-0.1-0.4-0.1-0.6-0.2c-0.2-0.1-0.2-0.5-0.4-0.6
					c-0.2-0.1-0.3-0.3-0.5-0.4c-0.2-0.1-0.2-0.4-0.4-0.5c-0.2-0.1-0.4,0-0.6-0.1c-0.2-0.1-0.4-0.2-0.6-0.3c-0.2-0.1-0.3-0.3-0.5-0.4
					c-0.2-0.1-0.4-0.2-0.6-0.3c-0.2-0.1-0.7,0.5-0.9,0.4c-0.2-0.1-0.3-0.3-0.5-0.4c-0.2-0.1-0.1-0.8-0.3-0.9
					c-0.2-0.1-0.6,0.3-0.8,0.2c-0.2-0.1-0.4-0.1-0.6-0.1c-0.2-0.1-0.4-0.1-0.6-0.2c-0.2-0.1-0.4-0.1-0.6-0.2
					c-0.2-0.1-0.3-0.3-0.5-0.3c-0.2-0.1-0.1-0.7-0.3-0.8c-0.2-0.1-0.7,0.4-0.8,0.4c-0.2-0.1-0.2-0.5-0.4-0.6c-0.2-0.1-0.5,0-0.7,0
					c-0.2-0.1-0.3-0.4-0.4-0.5c-0.2-0.1-0.4-0.2-0.6-0.3c-0.2-0.1-0.5,0-0.6-0.1c-0.2-0.1-0.4-0.2-0.5-0.3c-0.2-0.1-0.2-0.6-0.4-0.7
					c-0.2-0.1-0.5,0.1-0.7,0c-0.2-0.1-0.6,0.3-0.8,0.2c-0.2-0.1-0.3-0.4-0.5-0.5c-0.2-0.1-0.4,0-0.6-0.1c-0.2-0.1-0.3-0.4-0.5-0.5
					c-0.2-0.1-0.3-0.3-0.5-0.4c-0.2-0.1-0.4-0.2-0.5-0.3c-0.2-0.1-0.5,0-0.7,0c-0.2-0.1-0.5,0.3-0.7,0.2c-0.2-0.1-0.3-0.4-0.5-0.5
					c-0.2-0.1-0.2-0.6-0.4-0.7c-0.2-0.1-0.4-0.1-0.6-0.2c-0.2-0.1-0.6,0.4-0.8,0.3c-0.2-0.1-0.3-0.4-0.5-0.4
					c-0.2-0.1-0.5,0.3-0.7,0.2c-0.2-0.1-0.2-0.6-0.4-0.7c-0.2-0.1-0.3-0.3-0.5-0.4c-0.2-0.1-0.5,0.2-0.7,0.1
					c-0.2-0.1-0.2-0.6-0.4-0.7c-0.2-0.1-0.6,0.3-0.7,0.3c-0.2-0.1-0.4,0-0.6-0.1s-0.3-0.4-0.5-0.5c-0.2-0.1-0.3-0.4-0.5-0.4
					c-0.2-0.1-0.6,0.5-0.8,0.5c-0.2-0.1-0.3-0.6-0.4-0.6c-0.2-0.1-0.4-0.1-0.6-0.2c-0.2-0.1-0.3-0.3-0.5-0.4c-0.2-0.1-0.4,0-0.6,0
					c-0.2-0.1-0.4,0.1-0.6,0c-0.2-0.1-0.5,0.2-0.7,0.1c-0.2-0.1-0.4-0.1-0.6-0.2c-0.2-0.1-0.3-0.3-0.5-0.3c-0.2-0.1-0.5,0.1-0.7,0.1
					c-0.2-0.1-0.2-0.9-0.4-0.9c-0.2-0.1-0.4-0.1-0.6-0.1c-0.2-0.1-0.5,0.4-0.7,0.4c-0.2-0.1-0.5,0.1-0.7,0.1
					c-0.2-0.1-0.2-0.8-0.4-0.8c-0.2-0.1-0.5,0.5-0.7,0.4c-0.2-0.1-0.4-0.2-0.6-0.3c-0.2-0.1-0.4-0.3-0.6-0.3
					c-0.2-0.1-0.5,0.1-0.7,0.1c-0.2,0-0.3-0.4-0.5-0.5c-0.2,0-0.5,0.3-0.7,0.3c-0.2,0-0.4-0.2-0.6-0.3c-0.2,0-0.4,0.1-0.6,0.1
					c-0.2,0-0.3-0.7-0.5-0.7c-0.2,0-0.4,0-0.6,0c-0.2,0-0.5,0.3-0.7,0.2c-0.2,0-0.3-0.4-0.5-0.4c-0.2,0-0.4-0.2-0.6-0.2
					c-0.2,0-0.4-0.1-0.6-0.1c-0.2,0-0.4-0.2-0.6-0.2c-0.2,0-0.4-0.2-0.6-0.2c-0.2,0-0.4-0.2-0.6-0.3c-0.2,0-0.5,0.5-0.7,0.5
					c-0.2,0-0.3-0.4-0.5-0.5c-0.2,0-0.4-0.3-0.6-0.4c-0.2,0-0.4,0-0.6-0.1c-0.2,0-0.5,0.6-0.7,0.6c-0.2,0-0.4-0.1-0.6-0.1
					c-0.2,0-0.4-0.1-0.6-0.2c-0.2,0-0.4-0.2-0.6-0.2c-0.2,0-0.4,0.2-0.7,0.2c-0.2,0-0.3-0.6-0.5-0.6c-0.2,0-0.5,0.4-0.7,0.4
					c-0.2,0-0.3-0.7-0.5-0.7c-0.2,0-0.5,0.4-0.7,0.4c-0.2,0-0.4-0.5-0.6-0.5c-0.2,0-0.4,0.2-0.6,0.2c-0.2,0-0.4,0.1-0.6,0.1
					c-0.2,0-0.4-0.4-0.6-0.4c-0.2,0-0.5,0.3-0.7,0.3c-0.2,0-0.4-0.1-0.6-0.2c-0.2,0-0.4-0.4-0.6-0.4c-0.2,0-0.4-0.2-0.6-0.2
					c-0.2,0-0.5,0.7-0.7,0.7c-0.2,0-0.4-0.1-0.6-0.1c-0.2,0-0.4-0.3-0.6-0.3c-0.2,0-0.4-0.1-0.6-0.2c-0.2,0-0.4,0.3-0.6,0.3
					s-0.4-0.7-0.6-0.7c-0.2,0-0.4,0.2-0.6,0.2c-0.2,0-0.4-0.3-0.6-0.3c-0.2,0-0.4,0.5-0.7,0.5c-0.2,0-0.4-0.2-0.6-0.2
					c-0.2,0-0.4,0.2-0.6,0.2c-0.2,0-0.4-0.6-0.6-0.7c-0.2,0-0.4-0.1-0.6-0.1c-0.2,0-0.5,0.8-0.7,0.8c-0.2,0-0.4-0.4-0.6-0.4
					c-0.2,0-0.4-0.4-0.6-0.4c-0.2,0-0.4,0.3-0.6,0.3c-0.2,0-0.4,0.4-0.6,0.4c-0.2,0-0.4-0.6-0.6-0.7c-0.2,0-0.4,0.5-0.6,0.5
					c-0.2,0-0.4-0.3-0.6-0.3c-0.2,0-0.4,0.4-0.6,0.4c-0.2,0-0.4-0.1-0.6-0.1c-0.2,0-0.4-0.2-0.6-0.2c-0.2,0-0.4,0.4-0.6,0.4
					c-0.2,0-0.4-0.8-0.6-0.8c-0.2,0-0.4,0.5-0.6,0.5c-0.2,0-0.4-0.6-0.6-0.6c-0.2,0-0.4,0.1-0.6,0.1c-0.2,0-0.4,0.1-0.6,0.1
					c-0.2,0-0.4-0.1-0.6-0.1c-0.2,0-0.4,0.6-0.6,0.6c-0.2,0-0.4-0.1-0.6-0.1c-0.2,0-0.4-0.4-0.6-0.4c-0.2,0-0.4,0.6-0.6,0.6
					c-0.2,0-0.4-0.2-0.6-0.2c-0.2,0-0.4-0.3-0.6-0.3c-0.2,0-0.4,0.7-0.6,0.7c-0.2,0-0.4-0.6-0.6-0.6c-0.2,0-0.4,0-0.6,0
					c-0.2,0-0.4,0.2-0.6,0.2c-0.2,0-0.4,0.5-0.6,0.5c-0.2,0-0.4-0.4-0.6-0.4c-0.2,0-0.4-0.1-0.6-0.1c-0.2,0-0.4,0.1-0.6,0.1
					c-0.2,0-0.4,0.3-0.6,0.3c-0.2,0-0.4,0.2-0.6,0.3c-0.2,0-0.5-0.4-0.7-0.4c-0.2,0-0.4,0.2-0.6,0.2c-0.2,0-0.4-0.3-0.6-0.3
					c-0.2,0-0.4,0.3-0.6,0.4c-0.2,0-0.4,0.2-0.6,0.2c-0.2,0-0.4,0.2-0.6,0.2c-0.2,0-0.5-0.6-0.7-0.6c-0.2,0-0.4,0.2-0.6,0.2
					c-0.2,0-0.4,0.2-0.6,0.2c-0.2,0-0.4-0.1-0.6-0.1c-0.2,0-0.4-0.1-0.6,0c-0.2,0-0.4,0-0.6,0c-0.2,0-0.4,0-0.6,0
					c-0.2,0-0.4,0.2-0.6,0.2c-0.2,0-0.3,0.5-0.5,0.5c-0.2,0-0.4,0-0.6,0c-0.2,0-0.4-0.2-0.6-0.1c-0.2,0-0.4,0.3-0.6,0.3
					c-0.2,0-0.5-0.3-0.7-0.3c-0.2,0-0.3,0.6-0.5,0.6c-0.2,0-0.4,0.1-0.6,0.1c-0.2,0-0.5-0.2-0.7-0.1c-0.2,0-0.4-0.2-0.6-0.1
					c-0.2,0-0.3,0.5-0.5,0.6c-0.2,0-0.4,0.3-0.6,0.3c-0.2,0-0.4,0.2-0.6,0.2c-0.2,0-0.5-0.4-0.7-0.4c-0.2,0-0.4-0.1-0.6-0.1
					c-0.2,0-0.4,0.1-0.6,0.1c-0.2,0-0.4,0.1-0.6,0.1c-0.2,0-0.3,0.4-0.5,0.4c-0.2,0-0.4-0.1-0.6,0c-0.2,0-0.4,0-0.6,0
					c-0.2,0.1-0.2,0.9-0.4,0.9c-0.2,0.1-0.6-0.5-0.8-0.5c-0.2,0.1-0.4,0.1-0.6,0.1c-0.2,0.1-0.2,0.8-0.4,0.9
					c-0.2,0.1-0.6-0.5-0.8-0.5c-0.2,0.1-0.3,0.6-0.5,0.7c-0.2,0.1-0.4,0.1-0.6,0.1c-0.2,0.1-0.4-0.1-0.6,0c-0.2,0.1-0.4,0-0.6,0.1
					c-0.2,0.1-0.4,0-0.6,0.1c-0.2,0.1-0.2,0.6-0.4,0.7c-0.2,0.1-0.5-0.3-0.7-0.3c-0.2,0.1-0.3,0.4-0.5,0.5c-0.2,0.1-0.5-0.1-0.7-0.1
					c-0.2,0.1-0.2,0.6-0.4,0.6c-0.2,0.1-0.4,0-0.6,0c-0.2,0.1-0.6-0.4-0.8-0.4c-0.2,0.1-0.1,0.8-0.3,0.9c-0.2,0.1-0.5,0-0.6,0
					c-0.2,0.1-0.4,0.1-0.6,0.1c-0.2,0.1-0.4,0.2-0.6,0.3c-0.2,0.1-0.4,0.1-0.6,0.2c-0.2,0.1-0.3,0.2-0.5,0.3
					c-0.2,0.1-0.3,0.3-0.5,0.4c-0.2,0.1-0.5-0.2-0.7-0.1c-0.2,0.1-0.5-0.1-0.7,0c-0.2,0.1-0.1,0.8-0.3,0.9c-0.2,0.1-0.7-0.5-0.8-0.4
					c-0.2,0.1-0.2,0.4-0.4,0.5c-0.2,0.1-0.4,0.1-0.6,0.2c-0.2,0.1-0.2,0.6-0.4,0.7c-0.2,0.1-0.3,0.2-0.5,0.3
					c-0.2,0.1-0.5-0.2-0.7-0.1c-0.2,0.1-0.3,0.3-0.5,0.4c-0.2,0.1-0.5-0.1-0.7,0c-0.2,0.1-0.1,0.6-0.3,0.7c-0.2,0.1-0.3,0.3-0.5,0.4
					c-0.2,0.1-0.6-0.3-0.8-0.2c-0.2,0.1-0.1,0.6-0.3,0.7c-0.2,0.1-0.5,0-0.7,0.1c-0.2,0.1-0.5-0.1-0.7,0c-0.2,0.1-0.1,0.7-0.3,0.8
					c-0.2,0.1-0.5,0.1-0.6,0.2c-0.2,0.1-0.3,0.2-0.5,0.4c-0.2,0.1-0.2,0.4-0.4,0.5c-0.2,0.1-0.6-0.1-0.7,0c-0.2,0.1-0.1,0.6-0.3,0.7
					c-0.2,0.1-0.4,0.1-0.6,0.2c-0.2,0.1-0.4,0.1-0.6,0.2c-0.2,0.1,0,0.6-0.2,0.8c-0.2,0.1-0.4,0.2-0.5,0.3c-0.2,0.1-0.4,0.2-0.5,0.3
					c-0.2,0.1-0.6,0-0.7,0.1c-0.2,0.1-0.2,0.4-0.3,0.6c-0.2,0.1-0.5,0.1-0.6,0.2c-0.2,0.1-0.1,0.5-0.2,0.7c-0.2,0.1-0.2,0.4-0.3,0.5
					c-0.2,0.1-0.3,0.3-0.4,0.4c-0.1,0.1-0.7-0.2-0.9,0c-0.1,0.1-0.1,0.4-0.3,0.6c-0.1,0.1,0.1,0.6-0.1,0.8c-0.1,0.1-0.4,0.2-0.5,0.4
					c-0.1,0.2-0.8-0.1-0.9,0c-0.1,0.2,0.1,0.6,0,0.8c-0.1,0.2-0.5,0.1-0.6,0.3c-0.1,0.2,0,0.5-0.1,0.7c0,0,0,0-0.1,0
					c0,0-0.1,0-0.1,0c-0.2,0-0.5,0-0.6,0.1c-0.1,0.1-0.1,0.2-0.1,0.4c-0.1,0.1-0.2,0.2-0.3,0.3c-0.2,0.3-0.4,0.6-0.5,0.9
					c-0.1,0-0.1,0-0.1,0.1c-0.1,0.2-0.2,0.3-0.3,0.5c0,0.1,0,0.1-0.1,0.2c-0.1,0.1-0.2,0.1-0.2,0.2c-0.3,0.2-0.7,0.5-0.9,0.8
					c-0.1,0.2-0.2,0.4-0.3,0.6c0,0.1-0.1,0.3-0.1,0.4c-0.5,0.3-0.8,0.7-1,1.2c-0.2,0.3-0.3,0.7-0.3,1c-0.2,0.2-0.3,0.3-0.4,0.5
					c0,0,0,0,0,0c-0.1,0.1-0.3,0.2-0.4,0.3c-0.7,0.6-1,1.3-1.1,2.1c-0.4,0.5-0.5,1.1-0.5,1.7c-0.1,0.2-0.2,0.4-0.3,0.7
					c-0.1,0.1-0.3,0.3-0.4,0.4c-0.2,0.2-0.3,0.5-0.3,0.8c-0.4,0.4-0.7,0.9-1,1.5c-0.2,0.6-0.1,1.2,0.1,1.7c-0.3,0.5-0.4,1-0.3,1.6
					c-0.2,0.3-0.3,0.7-0.4,1.1c-0.1,0.7-0.1,1.4,0.1,2c0,0.1,0,0.1,0,0.2c0,0,0,0,0,0c-0.1,0.1-0.3,0.3-0.4,0.4
					c-0.5,0.5-0.5,1.5-0.2,2.1c-0.2,0.5-0.2,1-0.3,1.6c0,0.4-0.1,0.7-0.1,1.1c0,0.4,0.2,0.7,0.3,1c0,0.3,0,0.5,0,0.8
					c0,0,0,0.1,0,0.2c0,0-0.1,0.1-0.1,0.1c-0.6,0.7-0.5,1.9,0.2,2.6c-0.1,0.4-0.2,0.7-0.2,1.1c0,0.9,0.4,1.5,1,2.1
					c0,0.6,0.1,1.1,0.3,1.7c0,0.5,0.1,1,0.3,1.5c0,0.1-0.1,0.2-0.1,0.2c-0.2,0.8,0,1.5,0.4,2.1c0.1,0.5,0.2,1,0.4,1.5
					c0.1,0.2,0.3,0.4,0.4,0.6c0.1,0.1,0.1,0.2,0.1,0.3c0,0,0,0,0,0c0,0.8,0.5,1.5,1.1,2.2c-0.1,0.6,0,1.2,0.4,1.8
					c0.2,0.3,0.4,0.5,0.6,0.7c0,0.2,0.1,0.4,0.2,0.6c0.1,0.2,0.4,0.6,0.6,0.8c0,0,0,0,0,0c0,0,0,0,0,0.1c0,0,0,0.1,0,0.2
					c0.1,0.4,0.2,0.9,0.5,1.2c0.2,0.2,0.3,0.3,0.5,0.4c0.1,0.1,0.1,0.3,0.2,0.4c0.1,0.1,0.2,0.3,0.3,0.4c0,0.2,0.1,0.4,0.2,0.6
					c0.2,0.3,0.4,0.6,0.7,0.9c0,0.2,0.1,0.3,0.1,0.4c0.1,0.6,0.5,1,1,1.4c0.2,0.4,0.3,0.8,0.7,1c0,0,0,0,0,0c0,0.1,0.1,0.2,0.1,0.2
					c0.2,0.3,0.4,0.6,0.6,0.9c0.6,0.8,1.1,1.3,1.9,1.7c0.1,0.6,0.4,1.1,1,1.6c0.2,0.1,0.4,0.2,0.6,0.3c0.1,0.3,0.2,0.5,0.4,0.7
					c0.1,0.1,0.2,0.2,0.2,0.2c0,0.2,0.2,0.3,0.2,0.5c0.6,1.1,1.3,1.7,2.4,2.1c0.4,0.3,0.8,0.7,1.2,0.9c0.2,0.1,0.3,0.2,0.3,0.2
					c0,0,0.1,0.1,0.1,0.1c0.2,0.2,0.3,0.3,0.5,0.4c0.3,0.6,0.8,1.1,1.4,1.6c0.3,0.6,0.7,1.1,1.3,1.3c0.1,0,0.3,0.1,0.4,0.1
					c0.2,0.4,0.5,0.7,0.7,1c0.3,0.3,0.6,0.5,0.9,0.6c0.2,0.3,0.5,0.6,0.9,0.8c0.3,0.6,1,1,1.7,1.1c0.1,0,0.2,0,0.3,0c0,0,0,0,0,0
					c0,0,0,0,0,0c0.2,0.3,0.5,0.6,0.9,0.9c0.3,0.2,0.7,0.4,1,0.5c0.2,0.1,0.2,0.1,0,0c-0.2-0.1-0.2-0.1-0.1,0c0,0,0,0,0,0
					c0,0,0,0,0,0c0,0,0,0,0,0c0.1,0,0.3,0.3,0.3,0.3c0.6,0.6,1.3,1,2.1,1.2c0.2,0.4,0.5,0.7,0.9,0.9c0,0,0.1,0.1,0.1,0.1
					c0,0,0,0,0,0.1c0.6,0.8,1.5,1,2.4,1.2c0.2,0.2,0.5,0.3,0.7,0.5c0.3,0.4,0.7,0.7,1.2,0.8c0,0.1,0.1,0.1,0.1,0.2
					c0.5,0.6,1.3,1,2.1,1.2c0.1,0,0.2,0,0.2,0c0.1,0.1,0.3,0.2,0.4,0.3c0.2,0.1,0.4,0.1,0.6,0.1c0.4,0.4,0.9,0.8,1.5,1.1
					c0,0,0,0.1,0,0.1c0.2,0.5,0.7,0.8,1.2,1c0.4,0.7,1.4,1.2,2.2,1c0.1,0,0.2,0,0.3-0.1c0,0,0,0,0.1,0.1c0.1,0.1,0.2,0.1,0.3,0.2
					c0,0,0,0.1,0.1,0.1c0.3,0.6,1.1,1.2,1.8,1.2c0,0,0,0,0.1,0c0.2,0.2,0.4,0.3,0.6,0.4c0.3,0.1,0.6,0.1,0.8,0.1
					c0.3,0.2,0.6,0.3,1,0.3c0.7,0.7,1.4,1.2,2.3,1.4c0,0,0,0.1,0,0.1c0.3,0.7,1,1.2,1.8,1.2c0.3,0,0.6,0,0.8,0.1
					c0.2,0.4,0.6,0.7,1.1,1c0.3,0.1,0.7,0.2,1,0.3c0.3,0.3,0.7,0.6,1.2,0.6c0,0,0,0,0,0c0,0,0,0,0,0c0,0,0,0,0,0c0,0,0,0,0,0
					c0,0,0,0,0,0c0.1,0,0.1,0.1,0.2,0.1c-0.1,0-0.1-0.1-0.2-0.1c0,0,0,0,0.1,0.1c0.1,0.1,0.2,0.2,0.2,0.3c0.4,0.6,1.2,0.8,1.9,0.7
					c0.3,0.3,0.7,0.6,1.1,0.7c0.3,0.4,0.8,0.7,1.3,0.8c0.4,0.4,0.8,0.7,1.4,0.7c0,0,0.4,0,0.6,0c0.2,0.2,0.5,0.4,0.7,0.6
					c0.5,0.4,1,0.4,1.6,0.5c0.2,0.1,0.4,0.2,0.6,0.3c0.2,0.2,0.5,0.4,0.7,0.6c0.2,0.1,0.4,0.2,0.7,0.2c0.4,0.3,0.8,0.6,1.4,0.7
					c0.1,0,0.1,0,0.2,0c0.5,0.7,1.2,1,2,0.9c0.3,0.2,0.6,0.3,1,0.3c0.1,0,0.2,0,0.3,0c0.1,0.1,0.2,0.2,0.3,0.4
					c0.5,0.6,1.1,0.9,1.7,1c0.5,0.4,1.1,0.6,1.8,0.5c0.1,0,0.3-0.1,0.4-0.1c0,0,0.1,0,0.1,0c0.2,0.2,0.3,0.3,0.5,0.5
					c0.2,0.1,0.4,0.2,0.7,0.3c0.3,0.4,0.7,0.7,1.2,0.8c0.3,0.1,0.7,0.2,1,0.2c0.1,0,0.3,0,0.4,0c0,0,0.1,0,0.1,0c0,0,0,0,0,0
					c0.2,0.1,0.4,0.3,0.7,0.4c0.5,0.2,0.9,0.4,1.3,0.4c0.1,0.1,0.1,0.1,0.2,0.2c0.3,0.2,0.7,0.3,1,0.4c0.3,0.2,0.6,0.3,0.9,0.4
					c0.4,0.5,1,0.8,1.6,0.8c0,0,0.1,0,0.1,0c0.3,0.2,0.6,0.3,0.9,0.4c0.3,0.3,0.5,0.5,0.9,0.6c0.5,0.2,0.9,0.1,1.3,0
					c0.1,0.1,0.2,0.3,0.3,0.4c0.4,0.6,1.3,0.8,2,0.7c0.1,0,0.2,0,0.2,0c0.5,0.1,1,0.3,1.5,0.5c0.1,0,0.2,0.1,0.3,0.1
					c0.2,0.1,0.4,0.2,0.5,0.3c0.4,0.2,0.8,0.2,1.2,0.2c0.1,0.1,0.3,0.2,0.4,0.3c-0.1-0.1-0.2-0.1-0.2-0.2c0.1,0.1,0.2,0.1,0.2,0.2
					c0.7,0.7,1.4,0.9,2.3,0.9c0.7,0.6,1.5,0.8,2.4,0.5c0.4,0.3,0.7,0.5,1.1,0.7c0.6,0.2,1.1,0.3,1.7,0.3c0.5,0.5,1.2,0.8,1.9,0.6
					c0,0,0.1,0,0.1,0c0,0,0,0,0.1,0c0.6,0.3,1.1,0.4,1.7,0.6c-0.2,0-0.4-0.1,0.1,0.1c0.4,0.1,0.7,0.2,1.1,0.2c0,0,0.1,0,0.1,0
					c0.1,0.1,0.3,0.2,0.4,0.2c0.3,0.1,0.7,0.1,1,0.1c0.3,0.2,0.6,0.3,0.9,0.3c0.1,0,0.2,0,0.4,0c0.1,0,0.1,0.1,0.2,0.1
					c0.1,0,0.1,0.1,0.2,0.1c0.1,0.1,0.2,0.2,0.3,0.3c0.7,0.7,1.4,0.8,2.3,0.6c0.4,0.2,0.8,0.3,1.2,0.4c0.1,0,0.4,0,0.5,0
					c0,0,0,0,0,0c0.2,0.1,0.4,0.1,0.7,0.2c1,0.3,2,0.3,3,0.3c0.4,0.2,0.8,0.4,1.3,0.5c0.8,0.5,1.7,0.7,2.6,0.4
					c0.6,0.3,1.2,0.4,1.8,0.4c0.3,0.1,0.5,0.2,0.8,0.2c0.1,0.1,0.2,0.1,0.3,0.2c0.6,0.5,1.4,0.4,2.1,0.1c0.3,0.3,0.8,0.4,1.3,0.3
					c0.5,0.3,1.1,0.5,1.6,0.3c0,0,0,0,0,0c0.4,0.2,0.8,0.2,1.2,0.2c0.3,0.2,0.6,0.3,1,0.3c0.4,0,0.8,0,1.2-0.1
					c0.5,0.2,1.1,0.2,1.7,0.2c0,0,0,0,0,0c0.4,0.3,0.9,0.4,1.3,0.3c0.6,0.4,1.4,0.5,2,0.2c0.6,0.2,1.3,0.1,1.9-0.3c0,0,0,0,0,0
					c0.1,0,0.3,0,0.5,0c0,0,0.1,0,0.1,0c0.6,0.2,1.3,0.2,1.9,0.1c0.5,0.2,1,0.3,1.6,0.2c0.2,0,0.5-0.1,0.7-0.2
					c0.5,0.2,1,0.4,1.5,0.4c0.5,0,1-0.1,1.5-0.3c0.1,0,0.2,0,0.3,0c0.6,0.5,1.2,0.7,1.9,0.5c0.6,0.3,1.3,0.4,1.9,0
					c0.1-0.1,0.3-0.2,0.4-0.2c0.1,0,0.1,0.1,0.2,0.1c0.9,0.6,1.9,0.2,3,0.1c0.1,0,0.2,0,0.3,0c0,0,0,0,0.1,0c0.4,0.1,0.8,0,1.3,0
					c0.4,0,0.7-0.1,1.1-0.1c0.1,0,0.2,0.1,0.3,0.1c0.6,0.3,1.3,0.1,1.8-0.2c0.5,0.2,1.1,0.3,1.7,0.1c0.1,0,0.1,0,0.1-0.1
					c0,0,0,0,0.1,0c0.5,0,0.9,0,1.4-0.2c0.1,0,0.2-0.1,0.3-0.1c0.4,0.1,0.8,0.2,1.2,0.1c0.5-0.1,0.9-0.2,1.3-0.4
					c0.3,0,0.6,0,0.9-0.1c0.3,0,0.6-0.1,1-0.2c0.1,0,0.3-0.1,0.4-0.1c0,0,0.1,0,0.1,0c0.1,0,0.3,0,0.4,0c0.4,0,0.8-0.1,1.1-0.2
					c0.2,0,0.5,0,0.7,0c0.6,0.3,1.3,0.4,2,0.1c0.2-0.1,0.4-0.2,0.6-0.3c0.7,0.1,1.4,0.2,2.1-0.1c0.3-0.1,0.6-0.3,0.8-0.5
					c0.1,0,0.1,0.1,0.2,0.1c0.7,0.3,1.6,0.1,2.1-0.4c0.3,0,0.7,0,1-0.1c0.2,0,0.4-0.1,0.5-0.2c0.4,0.1,0.9,0.1,1.4,0
					c0.8-0.2,1.3-0.4,1.9-0.9c0.2,0,0.3-0.1,0.4-0.1c0.1,0,0.2,0,0.3,0.1c0.3,0,0.6,0,0.9,0c0.9-0.1,1.6-0.6,2.2-1.1
					c0.2,0,0.4,0,0.6,0c0.7,0,1.3-0.2,1.8-0.5c0.8,0.2,1.6,0.2,2.4-0.2c0.4-0.2,0.7-0.6,1-1c0.5-0.1,1-0.3,1.4-0.7
					c0.4,0,0.9,0,1.4-0.1c0.6-0.2,0.9-0.4,1.2-0.8c0.3-0.1,0.7-0.2,1.1-0.5c0.2-0.2,0.5-0.4,0.7-0.6c0,0,0,0,0,0
					c0.5-0.1,0.8-0.3,1.2-0.7c0,0,0.1-0.1,0.1-0.1c0.5,0,1.1-0.7,1.4-1c0,0,0.1-0.1,0.1-0.1c0,0,0,0,0,0c0,0,0,0-0.1,0.1
					c0.1,0,0.1-0.1,0.2-0.1c0.3-0.1,0.6-0.3,0.9-0.5c0.1,0,0.3,0,0.4-0.1c0.8-0.1,1.4-0.8,1.6-1.5c0.1-0.1,0.2-0.1,0.2-0.2
					c0.1-0.1,0.4-0.3,0.4-0.4c0.1,0,0.1-0.1,0.2-0.1c0.5-0.3,1-0.7,1.3-1.1c0.7-0.2,1.3-0.7,1.5-1.4c0.1-0.4,0.2-0.7,0.2-1.1
					c0.1-0.2,0.2-0.4,0.3-0.6c0-0.1,0.1-0.2,0.2-0.3c0.1-0.1,0.2-0.2,0.3-0.2c0.8-0.6,1.3-1.3,1.6-2.2c0.3-0.3,0.6-0.6,0.7-1
					c0.1-0.2,0.1-0.5,0.1-0.8c0.1-0.2,0.2-0.4,0.3-0.6c0.1-0.1,0.1-0.1,0.2-0.2c0.5-0.5,0.9-1.3,0.7-2c0.1-0.1,0.2-0.3,0.2-0.4
					c0,0,0.1-0.1,0.1-0.1c0.5-0.5,0.9-1.3,0.7-2c0-0.1,0-0.2-0.1-0.3c0-0.1,0-0.1,0.1-0.2c0.2-0.2,0.4-0.4,0.5-0.6
					c0.4-0.6,0.4-1.4,0.4-2c0-0.3,0-0.5-0.1-0.8c0,0,0,0,0,0c0,0,0,0,0,0C305,130.5,305,130.4,305,130.3z M92.8,48.6
					C92.8,48.6,92.8,48.6,92.8,48.6C93,48.2,92.9,48.5,92.8,48.6z M91,51.5C90.7,51.8,90.8,51.6,91,51.5L91,51.5z M87.5,81.4
					C87.5,81.4,87.5,81.3,87.5,81.4C87.6,81.4,87.6,81.4,87.5,81.4C87.5,81.4,87.5,81.4,87.5,81.4z M177.5,149.2
					c0.1,0,0.1,0.1,0.2,0.1c0,0,0,0,0,0C177.6,149.2,177.5,149.2,177.5,149.2z M177.7,149.3C177.7,149.3,177.7,149.3,177.7,149.3
					C177.7,149.3,177.7,149.3,177.7,149.3C177.7,149.3,177.7,149.3,177.7,149.3z M193.7,154.5C193.4,154.4,193.5,154.4,193.7,154.5
					L193.7,154.5z M193.8,154.6C193.8,154.6,193.8,154.6,193.8,154.6C193.8,154.6,193.9,154.6,193.8,154.6
					C193.9,154.6,193.8,154.6,193.8,154.6z M291.9,151C291.9,151,291.9,151,291.9,151C292,150.8,292,150.9,291.9,151
					C291.9,151,291.9,151,291.9,151z M299,144.2C299,144.2,298.9,144.2,299,144.2C298.9,144.2,299,144.2,299,144.2z"/>
			</defs>
			<use xlink:href="#XMLID_37_"  style="overflow:visible;fill:#005944;"/>
			<clipPath id="XMLID_12_">
				<use xlink:href="#XMLID_37_"  style="overflow:visible;"/>
			</clipPath>
		</g>
		<path class="st4" d="M115,117.6c0.2,0.2,0.2,0.3,0.3,0.3C115.2,117.8,115.1,117.7,115,117.6C115,117.6,115,117.6,115,117.6z"/>
	</g>
	<g>
		<path class="st8" d="M245.1,54.4C245.1,54.4,245.1,54.4,245.1,54.4C245.1,54.6,245.1,54.5,245.1,54.4z"/>
		<path class="st8" d="M195.2,45.1C195.2,45.1,195.2,45.1,195.2,45.1C195.2,45.1,195.2,45.1,195.2,45.1
			C195.2,45.1,195.2,45.1,195.2,45.1z"/>
		<path class="st8" d="M244.9,48.7C244.9,48.7,244.9,48.7,244.9,48.7C244.9,48.7,244.9,48.7,244.9,48.7
			C244.9,48.7,244.9,48.7,244.9,48.7z"/>
		<g>
			<defs>
				<path id="XMLID_36_" d="M245.2,53.9c0.2-0.7,0.1-1.4-0.2-2c0.1-0.4,0.2-0.8,0.1-1.4c0-0.1,0-0.2-0.1-0.3c0-0.3,0-0.7,0-0.9
					c0,0-0.1-0.4-0.1-0.5c0,0.2,0,0.6,0,0.1c0-0.1,0-0.1,0-0.2c0,0,0,0,0,0c0,0,0,0,0,0c0,0,0-0.1,0-0.1c0-0.1,0-0.2,0-0.3
					c0,0,0,0,0,0c0.1-0.2,0.2-0.4,0.2-0.5c0.3-0.7,0-1.5-0.4-2.1c0-0.1-0.1-0.1-0.1-0.2c-0.1-0.6-0.2-1.2-0.4-1.8
					c0.2-0.8,0-1.5-0.5-2.1c0-0.7-0.2-1.3-0.6-1.9c-0.1-0.5-0.2-0.9-0.5-1.3c-0.1-0.1-0.1-0.2-0.2-0.3c0-0.4,0-0.8-0.2-1.2
					c-0.1-0.2-0.3-0.5-0.4-0.7c0-0.1-0.1-0.1-0.1-0.1c-0.3-0.5-0.6-1-0.9-1.5c-0.1-0.4-0.2-0.7-0.4-1c-0.1-0.1-0.1-0.2-0.2-0.3
					c-0.1-0.6-0.3-1.3-0.9-1.6c-0.2-0.1-0.4-0.2-0.6-0.4c0,0,0,0,0-0.1c0-0.1,0-0.3,0-0.4c-0.2-0.8-0.7-1.3-1.3-1.6
					c-0.2-0.3-0.4-0.6-0.7-0.8c-0.3-0.2-0.7-0.3-1-0.4c0,0-0.1-0.1-0.1-0.1c-0.2-1.2-1.2-2.1-2.5-1.8c-0.1,0-0.1-0.1-0.2-0.1
					c-0.4-0.6-1-1.1-1.7-1.1c-0.4,0-0.7,0-1.1,0c-0.1-0.1-0.2-0.1-0.3-0.1c0,0,0,0,0,0c-0.5-1-1.8-1.5-2.8-1c-0.2,0-0.4-0.1-0.6-0.1
					c0,0-0.1,0-0.1-0.1c-0.6-0.5-1.4-0.4-2.1-0.1c-0.4-0.1-0.8-0.1-1.2,0c0,0,0,0,0,0c0,0,0,0,0,0c0,0-0.1-0.1-0.2-0.1
					c-0.1-0.1-0.2-0.1-0.4-0.2c-0.5-0.2-1.1-0.2-1.6,0.1c-0.5-0.1-1.1,0-1.6,0.3c-0.5-0.1-1-0.2-1.5,0c-0.2,0.1-0.4,0.1-0.4,0.1
					c-0.2,0-0.3,0-0.5,0c-0.4,0-0.8,0.2-1.1,0.4c-0.1,0-0.1,0-0.1,0.1c0,0,0,0,0,0c0,0,0,0,0,0c-0.1,0-0.2,0-0.3-0.1c0,0,0,0,0,0
					c-0.1,0-0.3-0.1-0.3-0.1c-0.6-0.2-1.1-0.1-1.7,0.1c-0.1,0-0.2,0.1-0.3,0.1c-0.2,0-0.3,0.1-0.5,0.1c-0.3,0.1-0.6,0.2-0.8,0.4
					c-0.5-0.2-1.1-0.2-1.8,0.1c-0.6,0.2-1,0.6-1.5,1c-0.3,0-0.6,0.1-0.9,0.2c-0.1,0-0.3,0-0.4-0.1c-0.7-0.1-1.3,0.3-1.8,0.8
					c0,0,0,0-0.1,0c-0.9,0-1.5,0.4-2,1c-0.1,0.1-0.3,0.1-0.4,0.2c-1.1,0-2,0.4-2.7,1.2c-0.2,0.1-0.5,0.2-0.7,0.4
					c-0.1,0.1-0.2,0.1-0.2,0.2c0,0,0,0,0,0c-0.6-0.1-1.1,0.6-1.5,1.1c-0.3,0.2-0.7,0.5-1,0.8c-0.1,0.1-0.2,0.2-0.3,0.2c0,0,0,0,0,0
					c-0.2,0.1-0.4,0.2-0.6,0.3c-0.4,0.3-0.9,0.7-1.3,1c-0.1,0.1-0.2,0.2-0.4,0.4c-0.6,0.2-1,0.7-1.2,1.3c-0.2,0.6-0.3,1.1-0.4,1.7
					c-0.2,0.3-0.4,0.7-0.4,1.2c0,0.1,0,0.3,0,0.4c0,0.1,0,0.1,0,0.1c0,0.1-0.1,0.2-0.1,0.3c-0.3,0.9,0,1.6,0.5,2.2
					c0.1,0.5,0.2,1,0.4,1.4c0.3,0.7,0.7,1.4,1.2,2c0.3,0.4,0.5,0.7,1,0.9c0,0,0.1,0,0.1,0c0,0-0.1-0.1-0.1-0.2c0,0,0.1,0.1,0.1,0.1
					c0,0,0,0,0,0c0,0,0,0,0,0c0,0,0,0,0,0.1c0,0,0,0-0.1-0.1c0.3,0.8,0.8,1.2,1.5,1.6c0.1,0.2,0.2,0.3,0.4,0.4
					c0.3,0.2,0.6,0.4,0.9,0.5c0.1,0.1,0.3,0.3,0.4,0.4c0.2,0.6,0.6,1.1,1.3,1.4c0.1,0,0.2,0.1,0.3,0.1c0,0.1,0,0.1,0.1,0.2
					c0.3,0.7,1.1,1.1,1.8,1.2c0,0,0.1,0,0.1,0c0.1,0,0.1,0,0.1,0c0,0,0,0,0,0c0.3,0.3,0.6,0.6,1.1,0.8c0.1,0,0.2,0.1,0.3,0.1
					c0,0,0,0,0.1,0c0.1,0.1,0.2,0.2,0.2,0.3c0.3,0.4,0.7,0.8,1.1,1.1c0.4,0.3,0.7,0.5,1.1,0.6c0.4,0.6,1.1,1,2,1
					c0.1,0,0.1,0.1,0.2,0.1c0.2,0.1,0.4,0.2,0.6,0.2c0.3,0.2,0.5,0.5,0.8,0.7c0.3,0.2,0.7,0.3,1,0.3c0.1,0.2,0.3,0.4,0.4,0.6
					c0.5,0.7,1.5,0.8,2.3,0.6c0,0,0,0,0,0c0.2,0.1,0.4,0.3,0.6,0.3c0.4,0.6,1,1,1.8,1.1c0.5,0.4,1.2,0.6,1.8,0.5
					c0.1,0,0.2,0,0.3-0.1c0,0,0.1,0,0.2,0c0,0,0,0,0,0c0,0,0,0,0,0c0.4,0.4,0.8,0.7,1.3,0.9c0.5,0.2,1,0.2,1.6,0.2
					c0.2,0.2,0.4,0.3,0.7,0.4c0.4,0.1,0.7,0.1,1.1,0.1c0.1,0.1,0.2,0.1,0.1,0.1c0.1,0.1,0.2,0.1,0.2,0.2c0.5,0.3,1,0.4,1.6,0.3
					c0.3,0.1,0.6,0.2,0.9,0.3c0.1,0,0.2,0,0.3,0c0.6,0.4,1.2,0.5,1.8,0.3c0.8,0.3,1.6,0.4,2.6,0.5c0.1,0,0.2,0,0.3,0
					c0.1,0,0.2,0,0.2,0c0.1,0,0.3,0.1,0.4,0.1c0.5,0.1,1,0.2,1.5,0.2c0.7,0.3,1.3,0.5,2.1,0.2c0.1,0,0.4-0.2,0.5-0.3c0,0,0,0,0,0
					c0,0,0,0-0.1,0.1c-0.4,0.3,0,0,0.1,0c0,0,0.1,0,0.1,0c0.7,0.1,1.4,0,2.1-0.3c0.7,0.1,1.4,0,2-0.4c0.5-0.3,0.8-0.6,1.1-1
					c0,0,0,0,0,0c0.4-0.1,0.7-0.2,1.1-0.4c0.6-0.3,0.9-0.6,1.1-1.1c0.7-0.3,1-1,1.1-1.7c0.3-0.3,0.5-0.7,0.6-1.2
					c0.5-0.5,0.7-1.1,0.6-1.9c0-0.2,0-0.4,0-0.5c0-0.2,0-0.1,0.1,0.1c0,0.2,0,0.2,0,0.1c0,0,0,0,0,0c0,0,0,0,0-0.1c0,0,0,0,0,0
					c0,0,0,0,0,0C245.1,54.2,245.2,54,245.2,53.9z M244.9,48.2c0,0.1,0,0.2,0,0.1C244.9,48.3,244.9,48.3,244.9,48.2z M215.2,24.3
					c0,0,0,0,0.1,0C215.2,24.2,215.2,24.3,215.2,24.3z M238.6,31.2c0-0.1,0-0.1-0.1-0.2C238.6,31.1,238.6,31.1,238.6,31.2z
					 M215.4,24.2C215.4,24.2,215.4,24.2,215.4,24.2c0,0-0.1,0-0.2,0C215.3,24.2,215.4,24.2,215.4,24.2z M192.1,38.1c0,0,0-0.1,0-0.1
					C192.1,38,192.1,38,192.1,38.1z M195.3,45.2C195.3,45.2,195.3,45.2,195.3,45.2C195.3,45.2,195.3,45.2,195.3,45.2z"/>
			</defs>
			<use xlink:href="#XMLID_36_"  style="overflow:visible;fill:#096A52;"/>
			<clipPath id="XMLID_13_">
				<use xlink:href="#XMLID_36_"  style="overflow:visible;"/>
			</clipPath>
		</g>
	</g>
</g>
<path class="st2" d="M201.6,346.6c0,0,2.2,1,2.3,5.4c0.1,4.4,1.2,8-1.1,9.5c-2.3,1.5-4.8,0.1-5.2-1.8c-0.3-1.2-0.9-5.1-0.8-7.5
	C196.9,349.6,196.7,345.9,201.6,346.6z"/>
<g>
	<g>
		<path class="st0" d="M62.6,196c0.2-0.8,0.4-1.6,0.6-2.4c0.1-0.2,0.1-0.4,0.2-0.6c0-0.1,0.3-0.7,0.1-0.3c-0.1,0.3,0.1-0.2,0.2-0.3
			c0.1-0.2,0.2-0.4,0.3-0.6c0.2-0.4,0.4-0.7,0.6-1c0.1-0.2,0.2-0.3,0.3-0.5c0.1-0.1,0.1-0.2,0.2-0.2c0-0.1,0.3-0.4,0.1-0.1
			c-0.2,0.3,0,0.1,0,0c0,0-0.4,0.2-0.2,0.1c0.3-0.1-0.3,0.1-0.2,0.1c0,0,0.2-0.1,0.2-0.1c0.2-0.1-0.2,0-0.3,0c0,0,0.2,0,0.3,0
			c0.1,0,0.2,0,0.3,0c0.4,0,0,0-0.2,0c0.3,0.2,0.8,0.2,1.1,0.2c0.4,0.1,0.9,0.2,1.3,0.4c0.4,0.1,0.9,0.3,1.3,0.4
			c0.2,0.1,0.4,0.2,0.6,0.2c0,0,0.4,0.1,0.1,0c-0.3-0.1,0.1,0,0.1,0.1c0.1,0,0.1,0.1,0.2,0.1c-0.1-0.4-0.3-0.7-0.4-1.1
			c-0.2-1.1-0.3-1.4-0.5-1c0,0.3,0.1-0.1,0.1-0.2c0,0.1-0.1,0.2-0.1,0.3c-0.2,0.4-0.4,0.8-0.6,1.3c-0.4,0.8-0.8,1.6-1.2,2.3
			c0,0.1-0.1,0.1-0.1,0.2c0.2-0.2,0.4-0.4,0.6-0.6c0.3-0.1,0.6-0.2,0.8-0.2c-0.1,0-0.4,0,0,0c0.4,0.1-0.1,0-0.2,0
			c-0.5-0.1-1-0.2-1.6-0.3c-0.5-0.1-1-0.2-1.6-0.3c-0.3,0-0.5-0.1-0.8-0.1c-0.1,0-0.2,0-0.3-0.1c-0.8-0.1,0.5-0.1,0.9,0.8
			c0.1,0.4,0.2,0.9,0.4,1.3c-0.3,0.9-0.4,1.1-0.1,0.7c-0.1,0.1-0.1,0.1-0.2,0.2c0.1-0.2,0.2-0.3,0.4-0.4c0.3-0.3,0.6-0.6,0.9-0.9
			c0.1-0.1,0.3-0.3,0.4-0.4c0.1-0.1,0.1-0.1,0.2-0.2c-0.3,0.2-0.3,0.2-0.1,0.1c0.2-0.1,0.3-0.2,0.5-0.3c0.1-0.1,0.2-0.1,0.2-0.2
			c0.3-0.2,0.2-0.1-0.1,0c-0.5,0-0.9,0-1.4,0c0,0,0.1,0,0.1,0c-0.4-0.2-0.8-0.4-1.1-0.7c-0.1-0.1-0.6-1.2-0.4-0.5
			c0.1,0.3,0-0.6,0,0.1c0,0.4,0,0.7,0,1.1c-0.1,1.4,1.3,2.7,2.6,2.6c1.5-0.1,2.5-1.1,2.6-2.6c0.1-0.9,0-1.9-0.2-2.8
			C69,188,67,187,65.2,188c-1.3,0.7-2.6,1.8-3.6,3c-0.7,0.9-1.6,1.8-1.5,3c0.1,1.5,1.2,2.6,2.7,2.9c1.8,0.3,3.6,0.7,5.4,0.9
			c1.3,0.1,2.5-0.5,3.2-1.6c0.5-0.6,0.8-1.4,1.1-2.1c0.9-1.8,2.3-4,1.1-5.9c-0.6-1-1.7-1.4-2.8-1.8c-0.7-0.3-1.4-0.5-2.2-0.8
			c-1.7-0.5-3.6-1-5.3-0.5c-2,0.6-3.1,2.6-4,4.3c-0.8,1.7-1.5,3.4-1.8,5.3c-0.3,1.3,0.4,2.9,1.8,3.2C60.7,198.2,62.3,197.5,62.6,196
			L62.6,196z"/>
	</g>
</g>
<g>
	<g>
		<path class="st0" d="M66.7,190.3c0.2,0,0.5,0.1,0.7,0.1c-0.4-0.1-0.5-0.1-0.2,0c0.1,0,0.2,0,0.3,0.1c0.4,0.1,0.8,0.2,1.1,0.3
			c0.2,0.1,0.4,0.1,0.6,0.2c0.1,0,0.5,0.3,0.6,0.2c-0.4-0.2-0.4-0.2-0.2-0.1c0.1,0,0.1,0.1,0.2,0.1c0.2,0.1,0.3,0.2,0.5,0.3
			c0.4,0.2,0.8,0.4,1.1,0.7c0.1,0.1,0.3,0.2,0.4,0.3c-0.6-0.4,0,0,0.1,0.1c0.1,0.1,0.4,0.5,0.4,0.5c-0.2-0.3-0.3-0.4-0.1-0.2
			c0,0.1,0.1,0.1,0.1,0.2c0.3,0.6-0.2-0.5,0,0c0.1,0.3,0,0.2,0-0.3c0,0.1,0,0.2,0,0.3c0.1-0.5,0.1-0.5,0-0.3c-0.1,0.3,0,0.2,0.1-0.2
			c-0.1,0.1-0.2,0.3-0.2,0.4c-0.2,0.2-0.1,0.2,0.1-0.2c-0.1,0.1-0.1,0.1-0.2,0.2c-0.2,0.2-0.1,0.1,0.2-0.1c-0.1,0.1-0.2,0.1-0.2,0.2
			c-0.1,0.1-0.2,0.1-0.3,0.1c0.4-0.1,0.4-0.2,0.1-0.1c-0.2,0-0.3,0.1-0.5,0.1c-0.1,0-0.2,0-0.3,0.1c0.4,0,0.5-0.1,0.2,0
			c-0.2,0-0.5,0-0.7,0c-0.4,0-0.8,0-1.2,0c-0.5,0-1,0-1.5-0.1c0.7,0.2,0.1,0-0.1,0c-0.2,0-0.5-0.1-0.7-0.1c-0.5-0.1-1-0.2-1.5-0.3
			c-1.3-0.3-2.9,0.4-3.2,1.8c-0.3,1.3,0.4,2.9,1.8,3.2c1.9,0.5,3.8,0.7,5.7,0.8c2.1,0.1,4.3-0.4,5.8-1.9c1.7-1.6,2.1-4.1,1-6.2
			c-0.5-0.9-1.3-1.6-2.1-2.2c-0.7-0.5-1.4-1-2.1-1.4c-1.9-1-4-1.5-6.1-1.7c-1.4-0.1-2.7,1.3-2.6,2.6
			C64.2,189.2,65.3,190.2,66.7,190.3L66.7,190.3z"/>
	</g>
</g>
<g>
	<g>
		<path class="st0" d="M63,200.9c1.1,0.5,2.2,1,3.4,0.9c0.8-0.1,1.5-0.2,2.2-0.6c0.7-0.4,1.2-1,1.6-1.7c0.6-0.9,1-1.8,1.3-2.8
			c0.3-0.8,0.5-1.7,0.6-2.5c0.1-0.3,0.1-0.7,0-1c0-0.3-0.1-0.7-0.3-1c-0.3-0.5-0.9-1.1-1.6-1.2c-0.7-0.2-1.4-0.1-2,0.3
			c-0.5,0.3-1.1,0.9-1.2,1.6c-0.1,1-0.4,2.1-0.8,3.1c0.1-0.2,0.2-0.4,0.3-0.6c-0.3,0.7-0.6,1.3-1,1.9c0.1-0.2,0.3-0.4,0.4-0.5
			c-0.1,0.2-0.3,0.3-0.4,0.4c0.2-0.1,0.4-0.3,0.5-0.4c-0.1,0.1-0.2,0.1-0.4,0.2c0.2-0.1,0.4-0.2,0.6-0.3c-0.1,0-0.3,0.1-0.4,0.1
			c0.2,0,0.5-0.1,0.7-0.1c-0.2,0-0.4,0-0.7,0c0.2,0,0.5,0.1,0.7,0.1c-0.5-0.1-1-0.2-1.4-0.4c0.2,0.1,0.4,0.2,0.6,0.3
			c-0.1,0-0.1,0-0.2-0.1c-0.3-0.2-0.6-0.3-1-0.3c-0.3-0.1-0.7-0.1-1,0c-0.6,0.2-1.3,0.6-1.6,1.2c-0.3,0.6-0.5,1.3-0.3,2
			C62,200,62.4,200.6,63,200.9L63,200.9z"/>
	</g>
</g>
<g>
	<g>
		<g class="st9">
			<defs>
				<polygon id="SVGID_3_" class="st9" points="41.4,212.1 48.8,192.4 68,197.1 60.6,216.7 				"/>
			</defs>
			<clipPath id="SVGID_4_">
				<use xlink:href="#SVGID_3_"  style="overflow:visible;"/>
			</clipPath>
			<g class="st10">
				<g>
					<g>
						<g>
							<path class="st11" d="M58.5,194.8c-0.7-0.2-1.4-0.3-2.1-0.3c-5.6-0.2-10.9,4.2-11.8,9.8c-0.8,4.9,2,9,6.5,10.1
								c0.7,0.2,1.4,0.3,2.1,0.3c5.6,0.2,10.9-4.2,11.9-9.8C65.8,200,63,195.9,58.5,194.8"/>
						</g>
					</g>
				</g>
			</g>
		</g>
	</g>
</g>
<g>
	<g>
		<g class="st9">
			<defs>
				<polygon id="SVGID_5_" class="st9" points="39.2,210.6 46.7,191 65.8,195.7 58.4,215.3 				"/>
			</defs>
			<clipPath id="SVGID_6_">
				<use xlink:href="#SVGID_5_"  style="overflow:visible;"/>
			</clipPath>
			<g class="st12">
				<g>
					<g>
						<g>
							<path class="st13" d="M56.3,193.4c-0.7-0.2-1.4-0.3-2.1-0.3c-5.6-0.2-10.9,4.2-11.8,9.8c-0.8,4.9,2,9,6.5,10.1
								c0.7,0.2,1.4,0.3,2.1,0.3c5.6,0.2,10.9-4.2,11.9-9.8C63.6,198.6,60.8,194.5,56.3,193.4"/>
						</g>
					</g>
				</g>
			</g>
		</g>
	</g>
</g>
<g>
	<g>
		<g class="st9">
			<defs>
				<polygon id="SVGID_7_" class="st9" points="41.7,209.2 47.8,193.3 63.3,197.1 57.3,213.1 				"/>
			</defs>
			<clipPath id="SVGID_8_">
				<use xlink:href="#SVGID_7_"  style="overflow:visible;"/>
			</clipPath>
			<g class="st14">
				<g>
					<g>
						<g>
							<path class="st15" d="M55.6,195.2c-0.5-0.1-1.1-0.2-1.7-0.2c-4.6-0.1-8.9,3.4-9.7,8c-0.6,4,1.7,7.3,5.3,8.2
								c0.5,0.1,1.1,0.2,1.7,0.2c4.6,0.1,8.9-3.4,9.6-8C61.6,199.5,59.3,196.1,55.6,195.2"/>
						</g>
					</g>
				</g>
			</g>
		</g>
	</g>
</g>
<polygon class="st16" points="49.6,211.1 52.7,205.3 48.2,197 "/>
<polygon class="st17" points="48.2,197 52.7,205.3 60.5,203.4 "/>
<line class="st18" x1="45.9" y1="208.1" x2="46.8" y2="207.3"/>
<line class="st18" x1="58" y1="198.4" x2="58.9" y2="197.7"/>
<line class="st18" x1="55.5" y1="208.4" x2="56.1" y2="209.4"/>
</svg>
