<?xml version="1.0" encoding="utf-8"?>
<!-- Generator: Adobe Illustrator 24.3.0, SVG Export Plug-In . SVG Version: 6.00 Build 0)  -->
<svg version="1.1" id="bg_1_" xmlns="http://www.w3.org/2000/svg" xmlns:xlink="http://www.w3.org/1999/xlink" x="0px" y="0px"
	 viewBox="0 0 1000 670" style="enable-background:new 0 0 1000 670;" xml:space="preserve">
<style type="text/css">
	.st0{clip-path:url(#SVGID_2_);}
	.st1{fill:#3D251D;}
	.st2{clip-path:url(#XMLID_2_);fill:url(#天空_2_);}
	.st3{clip-path:url(#XMLID_2_);fill:url(#右_前山_1_);}
	.st4{clip-path:url(#XMLID_2_);fill:url(#左_前山_1_);}
	.st5{clip-path:url(#XMLID_2_);}
	.st6{fill:url(#SVGID_3_);}
	.st7{fill:#9D9C2D;}
	.st8{fill:url(#SVGID_4_);}
	.st9{fill:#49B584;}
	.st10{fill:#D1AC49;}
	.st11{fill:none;stroke:#C48737;stroke-width:3.9215;stroke-miterlimit:10;}
	.st12{clip-path:url(#XMLID_2_);fill:#DBD2C5;}
	.st13{fill:#322F30;}
	.st14{fill:#847F45;}
	.st15{fill:#424242;}
	.st16{fill:url(#地板_1_);}
	.st17{fill:url(#SVGID_5_);}
	.st18{fill:url(#SVGID_6_);}
	.st19{fill:#8F2007;}
	.st20{fill:url(#SVGID_7_);}
	.st21{clip-path:url(#XMLID_6_);fill:#9B2007;}
	.st22{opacity:0.8;clip-path:url(#XMLID_6_);}
	.st23{fill:url(#SVGID_8_);}
	.st24{fill:none;stroke:#A62D19;stroke-width:2.9411;stroke-linecap:round;stroke-linejoin:round;stroke-miterlimit:10;}
	.st25{fill:#1F1B1C;}
	.st26{fill:#A62D19;stroke:#A62D19;stroke-width:0.9804;stroke-miterlimit:10;}
	.st27{fill:none;stroke:#FFBA00;stroke-width:0.4902;stroke-linecap:round;stroke-linejoin:round;stroke-miterlimit:10;}
	.st28{fill:none;stroke:#0E191F;stroke-width:1.9608;stroke-linecap:round;stroke-linejoin:round;stroke-miterlimit:10;}
	.st29{fill:#CCCCFF;}
</style>
<g>
	<defs>
		<rect id="SVGID_1_" width="1000" height="670"/>
	</defs>
	<clipPath id="SVGID_2_">
		<use xlink:href="#SVGID_1_"  style="overflow:visible;"/>
	</clipPath>
	<g id="牆壁_1_" class="st0">
		<rect id="天空_1_" x="-2" y="-1.9" class="st1" width="1003.9" height="425.7"/>
	</g>
	<g id="門口外" class="st0">
		<defs>
			<path id="XMLID_18_" d="M258.1,353.9H-8.6c-5.4,0-9.8-5-9.8-11.2V-26.1c0-6.2,4.4-11.2,9.8-11.2h266.7c5.4,0,9.8,5,9.8,11.2
				v368.9C267.9,348.9,263.6,353.9,258.1,353.9z M793.2-37.3H334.3c-5.4,0-9.8,4.4-9.8,9.8v371.6c0,5.4,4.4,9.8,9.8,9.8h458.9
				c5.4,0,9.8-4.4,9.8-9.8V-27.5C803-32.9,798.6-37.3,793.2-37.3z M1087-37.3H869.3c-5.4,0-9.8,5-9.8,11.2v368.9
				c0,6.2,4.4,11.2,9.8,11.2H1087c5.4,0,9.8-5,9.8-11.2V-26.1C1096.8-32.3,1092.4-37.3,1087-37.3z"/>
		</defs>
		<clipPath id="XMLID_2_">
			<use xlink:href="#XMLID_18_"  style="overflow:visible;"/>
		</clipPath>
		<linearGradient id="天空_2_" gradientUnits="userSpaceOnUse" x1="500" y1="-1.8648" x2="500" y2="423.8596">
			<stop  offset="0" style="stop-color:#3BDBBB"/>
			<stop  offset="8.952320e-03" style="stop-color:#3FDBBB"/>
			<stop  offset="0.1273" style="stop-color:#6BDBBB"/>
			<stop  offset="0.2511" style="stop-color:#90DBBB"/>
			<stop  offset="0.379" style="stop-color:#AFDBBB"/>
			<stop  offset="0.5124" style="stop-color:#C7DBBB"/>
			<stop  offset="0.6536" style="stop-color:#D8DBBB"/>
			<stop  offset="0.8079" style="stop-color:#E2DBBB"/>
			<stop  offset="1" style="stop-color:#E5DBBB"/>
		</linearGradient>
		<rect id="天空_3_" x="-2" y="-1.9" class="st2" width="1003.9" height="425.7"/>
		
			<linearGradient id="右_前山_1_" gradientUnits="userSpaceOnUse" x1="932.3674" y1="199.5484" x2="938.2469" y2="355.8066" gradientTransform="matrix(-1 0 0 1 1089.2761 0)">
			<stop  offset="0" style="stop-color:#49C484"/>
			<stop  offset="0.1451" style="stop-color:#4DC18D"/>
			<stop  offset="0.3818" style="stop-color:#58B9A5"/>
			<stop  offset="0.6804" style="stop-color:#69ACCD"/>
			<stop  offset="1" style="stop-color:#7F9CFF"/>
		</linearGradient>
		<path id="右_前山" class="st3" d="M-166.6,359.7c55.9-61.4,83.9-156.6,159.2-157.6c96.7-1.4,63.6,118.9,184.2,105.4
			c89.4-10,86.5,39.7,144.3,20.9c68.2-22.2,94.3,8.2,147.3,31.3H-166.6z"/>
		
			<linearGradient id="左_前山_1_" gradientUnits="userSpaceOnUse" x1="81.5696" y1="277.9133" x2="204.8241" y2="385.3455" gradientTransform="matrix(-1 0 0 1 1089.2761 0)">
			<stop  offset="0" style="stop-color:#49C484"/>
			<stop  offset="0.1451" style="stop-color:#4DC18D"/>
			<stop  offset="0.3818" style="stop-color:#58B9A5"/>
			<stop  offset="0.6804" style="stop-color:#69ACCD"/>
			<stop  offset="1" style="stop-color:#7F9CFF"/>
		</linearGradient>
		<path id="左_前山" class="st4" d="M630.7,359.7c21.7-14.4,88-64.4,151.1-44.4c73.3,23.3,79.1-58.7,125.8-67.1
			c103.1-18.7,104.1,96.1,203.8,66.7c65.6-19.4,80.8,2.9,85.7,44.8H630.7z"/>
		<g id="草_10_" class="st5">
			<g>
				
					<linearGradient id="SVGID_3_" gradientUnits="userSpaceOnUse" x1="276.7258" y1="318.0522" x2="276.7258" y2="368.8329" gradientTransform="matrix(0.9825 -8.904727e-03 0 1 1.4109 -3.5479)">
					<stop  offset="0" style="stop-color:#247746"/>
					<stop  offset="0.4328" style="stop-color:#267846"/>
					<stop  offset="0.5888" style="stop-color:#2D7A44"/>
					<stop  offset="0.6999" style="stop-color:#387D42"/>
					<stop  offset="0.7898" style="stop-color:#49823E"/>
					<stop  offset="0.8667" style="stop-color:#5F893A"/>
					<stop  offset="0.9337" style="stop-color:#7A9134"/>
					<stop  offset="0.9939" style="stop-color:#999B2E"/>
					<stop  offset="1" style="stop-color:#9D9C2D"/>
				</linearGradient>
				<path class="st6" d="M217.3,362.4l115.8-0.1c5.7-4,2.8-37.2-38.6-48.5c-13.1-3.6-46.6-2.9-68.2,11.7
					c-14.6,9.9-20.3,24.1-9.1,36.6C217.2,362.3,217.3,362.3,217.3,362.4z"/>
			</g>
			<g>
				<g>
					<polygon class="st7" points="270.5,361.8 272.4,361.8 272.4,318 270.5,318.1 					"/>
				</g>
				<g>
					<path class="st7" d="M304.1,324.2c0.2,0.1,0.5,0.3,0.8,0.4l-33.1,19.2l-0.6-0.5L304.1,324.2z"/>
				</g>
				<g>
					<path class="st7" d="M315.1,333.6c0.2,0.2,0.4,0.3,0.7,0.5l-44,24.6l-0.6-0.5L315.1,333.6z"/>
				</g>
				<g>
					<path class="st7" d="M321.2,346.2c0.2,0.2,0.3,0.4,0.4,0.6l-26.8,15.1l-0.6-0.5L321.2,346.2z"/>
				</g>
				<g>
					<polygon class="st7" points="250.4,362.1 251.1,361.6 219.8,343.6 219.1,344.1 					"/>
				</g>
				<g>
					<polygon class="st7" points="271.8,329.9 287.3,320.2 286.7,319.8 271.1,329.4 					"/>
				</g>
				<g>
					<polygon class="st7" points="271.1,343.8 271.8,343.3 237.9,324.5 237.2,325 					"/>
				</g>
				<g>
					<polygon class="st7" points="271.1,358.6 271.8,358.2 226.7,333 226.1,333.5 					"/>
				</g>
				<g>
					<polygon class="st7" points="271.1,329.9 271.8,329.4 254.8,319.3 254.2,319.8 					"/>
				</g>
			</g>
		</g>
		<g id="草_9_" class="st5">
			<g>
				
					<linearGradient id="SVGID_4_" gradientUnits="userSpaceOnUse" x1="71.1138" y1="306.4693" x2="71.1138" y2="361.8272" gradientTransform="matrix(-0.9953 1.117798e-02 -3.383480e-02 1.0159 878.0621 3.7316)">
					<stop  offset="0" style="stop-color:#247746"/>
					<stop  offset="0.3896" style="stop-color:#267846"/>
					<stop  offset="0.5299" style="stop-color:#2D7A44"/>
					<stop  offset="0.6299" style="stop-color:#387D42"/>
					<stop  offset="0.7108" style="stop-color:#49823E"/>
					<stop  offset="0.7801" style="stop-color:#5F893A"/>
					<stop  offset="0.8403" style="stop-color:#7A9134"/>
					<stop  offset="0.8945" style="stop-color:#999B2E"/>
					<stop  offset="0.9" style="stop-color:#9D9C2D"/>
				</linearGradient>
				<path class="st8" d="M867,363.7l-144.8-2c-7.5-10.7,4.3-23.3,21-27.6c22.5-5.9,20.4-24.7,49.4-35.5c12.7-4.7,39.1-8.9,62,9.2
					c15.1,11.9,22.3,40.6,12.6,55.7C867.1,363.5,867.1,363.6,867,363.7z"/>
			</g>
			<g>
				<g>
					<polygon class="st7" points="813.7,361.3 814.9,361.3 815.6,303.9 814.4,303.9 					"/>
				</g>
				<g>
					<polygon class="st7" points="814.8,338 846.1,315.6 845.7,315.1 814.4,337.6 					"/>
				</g>
				<g>
					<polygon class="st7" points="814.6,357.2 856.4,327.5 856,327.1 814.1,356.8 					"/>
				</g>
				<g>
					<polygon class="st7" points="837.3,361.9 862.7,343.8 862.3,343.4 836.9,361.4 					"/>
				</g>
				<g>
					<polygon class="st7" points="767.4,360.4 774.5,355.4 774.1,355 767,360 					"/>
				</g>
				<g>
					<polygon class="st7" points="736.2,360 736.6,359.6 729.7,354.4 729.3,354.8 					"/>
				</g>
				<g>
					<polygon class="st7" points="793.6,361.3 794,360.8 776.9,348 776.5,348.4 					"/>
				</g>
				<g>
					<polygon class="st7" points="815,320 832.7,306.2 832.3,305.8 814.6,319.6 					"/>
				</g>
				<g>
					<polygon class="st7" points="814.4,338 814.8,337.6 784,314.3 783.6,314.7 					"/>
				</g>
				<g>
					<polygon class="st7" points="814.1,357.2 814.6,356.8 773.5,325.9 773.1,326.3 					"/>
				</g>
				<g>
					<polygon class="st7" points="751.8,349.9 752.2,349.5 740.3,340.6 739.9,341 					"/>
				</g>
				<g>
					<polygon class="st7" points="751.6,360.7 752,360.3 734.9,347.4 734.5,347.8 					"/>
				</g>
				<g>
					<polygon class="st7" points="752,349.9 764.1,341.3 763.7,340.9 751.6,349.5 					"/>
				</g>
				<g>
					<polygon class="st7" points="751.9,360.7 769.3,348.3 768.9,347.9 751.5,360.3 					"/>
				</g>
				<g>
					<polygon class="st7" points="814.6,320 815,319.6 797.7,305.3 797.2,305.7 					"/>
				</g>
				<g>
					<polygon class="st7" points="751.2,361.6 752.5,361.6 752.8,336.9 751.5,336.9 					"/>
				</g>
			</g>
		</g>
		<g id="屋簷" class="st5">
			<path class="st9" d="M1047.5,29.1c-21.4,0-42.8-2.5-42.8-7.4c0,8.9-93.2,8.9-93.2,0c0,8.9-93.2,8.9-93.2,0c0,8.9-77.6,8.9-77.6,0
				c0,8.9-77.5,8.9-77.5,0c0,8.8-77.5,8.8-77.5,0c0,8.9-74.4,8.9-74.4,0c0,8.9-77.5,8.9-77.5,0c0,8.9-77.8,8.9-77.8,0
				c0,8.9-78.1,8.9-78.1,0c0,7.7-78.4,7.7-78.4,0c0,8.8-88.9,8.8-88.9,0c0,8.8-89.2,8.8-89.2,0c0,4.8-27.2,7.3-55.3,7.4
				c-9.7,6.4-37,39.3-58.4,50.4c-0.1,0.1-0.2,0.3-0.3,0.4c-1.6,2.6-2.5,4.1-2.5,4.1c0-0.3,0.3-0.6,0.6-0.6c0,9.9,115.8,9.9,115.8,0
				c0,8.8,89.2,8.8,89.2,0c0,8.8,88.9,8.8,88.9,0c0,7.7,78.4,7.7,78.4,0c0,8.9,78.1,8.9,78.1,0c0,8.9,77.8,8.9,77.8,0
				c0,8.9,77.5,8.9,77.5,0c0,8.9,74.4,8.9,74.4,0c0,8.8,77.5,8.8,77.5,0c0,8.9,77.5,8.9,77.5,0c0,8.9,77.6,8.9,77.6,0
				c0,8.9,93.2,8.9,93.2,0c0,8.9,93.2,8.9,93.2,0c0,9.9,85.7,9.9,85.7,0"/>
			<path class="st10" d="M1047.5-20.2c-21.4,0-42.8-4-42.8-11.9c0,14.3-93.2,14.3-93.2,0c0,14.3-93.2,14.3-93.2,0
				c0,14.3-77.6,14.3-77.6,0c0,14.3-77.5,14.3-77.5,0c0,14-77.5,14-77.5,0c0,14.2-74.4,14.2-74.4,0c0,14.3-77.5,14.3-77.5,0
				c0,14.2-77.8,14.2-77.8,0c0,14.3-78.1,14.3-78.1,0c0,12.4-78.4,12.4-78.4,0c0,14-88.9,14-88.9,0c0,14-89.2,14-89.2,0
				c0,7.7-27.2,11.7-55.3,11.9c-9.7,10.3-37,63.1-58.4,80.8c-0.1,0.2-0.2,0.5-0.3,0.7C-94.2,65.5-95,68-95,68c0-0.5,0.3-0.9,0.6-0.9
				c0,15.9,115.8,15.9,115.8,0c0,14,89.2,14,89.2,0c0,14,88.9,14,88.9,0c0,12.4,78.4,12.4,78.4,0c0,14.3,78.1,14.3,78.1,0
				c0,14.2,77.8,14.2,77.8,0c0,14.3,77.5,14.3,77.5,0c0,14.2,74.4,14.2,74.4,0c0,14,77.5,14,77.5,0c0,14.3,77.5,14.3,77.5,0
				c0,14.3,77.6,14.3,77.6,0c0,14.3,93.2,14.3,93.2,0c0,14.3,93.2,14.3,93.2,0c0,15.9,85.7,15.9,85.7,0"/>
			<line class="st11" x1="21.4" y1="78.5" x2="112.6" y2="-56.5"/>
			<line class="st11" x1="110.6" y1="78.5" x2="186.2" y2="-56.5"/>
			<line class="st11" x1="199.5" y1="78.5" x2="260" y2="-57.2"/>
			<line class="st11" x1="277.9" y1="78.5" x2="322.7" y2="-56.5"/>
			<line class="st11" x1="355.9" y1="78.5" x2="385.9" y2="-57.2"/>
			<line class="st11" x1="433.7" y1="78.5" x2="448.6" y2="-57.2"/>
			<line class="st11" x1="511.3" y1="77.1" x2="511.3" y2="-57.2"/>
			<line class="st11" x1="51.3" y1="-44.8" x2="984.4" y2="-44.8"/>
			<line class="st11" x1="1004.6" y1="78.5" x2="909.1" y2="-63.5"/>
			<line class="st11" x1="911.4" y1="78.5" x2="831.9" y2="-64"/>
			<line class="st11" x1="818.2" y1="78.5" x2="754.6" y2="-64.7"/>
			<line class="st11" x1="740.6" y1="78.5" x2="692.9" y2="-65.5"/>
			<line class="st11" x1="663.1" y1="78.5" x2="631.2" y2="-66.3"/>
			<line class="st11" x1="585.6" y1="78.5" x2="570.8" y2="-56.5"/>
		</g>
		<rect id="牆壁" x="826.7" y="-17.1" class="st12" width="417.9" height="384.5"/>
		<g id="window" class="st5">
			<path class="st13" d="M1040.5,200.8h-105c-5.4,0-9.8-4.4-9.8-9.8V-41.1c0-5.4,4.4-9.8,9.8-9.8h105c5.4,0,9.8,4.4,9.8,9.8V191
				C1050.3,196.4,1045.9,200.8,1040.5,200.8z"/>
			<g>
				<g>
					<rect x="946.4" y="93.2" class="st14" width="5.2" height="79.3"/>
					<path class="st14" d="M951.1,93.6V172h-4.2V93.6H951.1 M952.1,92.7h-6.2V173h6.2V92.7L952.1,92.7z"/>
				</g>
				<g>
					<rect x="962" y="93.2" class="st14" width="5.2" height="79.3"/>
					<path class="st14" d="M966.7,93.6V172h-4.2V93.6H966.7 M967.6,92.7h-6.2V173h6.2V92.7L967.6,92.7z"/>
				</g>
				<g>
					<rect x="977.5" y="93.2" class="st14" width="5.2" height="79.3"/>
					<path class="st14" d="M982.2,93.6V172H978V93.6H982.2 M983.2,92.7H977V173h6.2V92.7L983.2,92.7z"/>
				</g>
				<g>
					<rect x="993.1" y="93.2" class="st14" width="5.2" height="79.3"/>
					<path class="st14" d="M997.8,93.6V172h-4.2V93.6H997.8 M998.8,92.7h-6.2V173h6.2V92.7L998.8,92.7z"/>
				</g>
				<g>
					<rect x="1008.6" y="93.2" class="st14" width="5.2" height="79.3"/>
					<path class="st14" d="M1013.3,93.6V172h-4.2V93.6H1013.3 M1014.3,92.7h-6.2V173h6.2V92.7L1014.3,92.7z"/>
				</g>
				<g>
					<rect x="1024.2" y="93.2" class="st14" width="5.2" height="79.3"/>
					<path class="st14" d="M1028.9,93.6V172h-4.2V93.6H1028.9 M1029.9,92.7h-6.2V173h6.2V92.7L1029.9,92.7z"/>
				</g>
			</g>
			<g>
				<g>
					<rect x="946.4" y="-24.8" class="st14" width="83" height="99.3"/>
					<path class="st14" d="M1028.9-24.3V74h-82v-98.3H1028.9 M1029.9-25.3h-84V74.9h84V-25.3L1029.9-25.3z"/>
				</g>
			</g>
		</g>
	</g>
	<g id="地板_2_" class="st0">
		<rect x="-25.9" y="377.2" class="st15" width="1049.6" height="55.6"/>
		<linearGradient id="地板_1_" gradientUnits="userSpaceOnUse" x1="500" y1="423.8596" x2="500" y2="669.4052">
			<stop  offset="0" style="stop-color:#64655C"/>
			<stop  offset="1.223176e-02" style="stop-color:#64655D"/>
			<stop  offset="0.1217" style="stop-color:#656564"/>
			<stop  offset="0.426" style="stop-color:#656566"/>
		</linearGradient>
		<rect id="地板" x="-2" y="423.9" class="st16" width="1003.9" height="245.5"/>
		<linearGradient id="SVGID_5_" gradientUnits="userSpaceOnUse" x1="40.6835" y1="782.1044" x2="40.6835" y2="421.8988">
			<stop  offset="0" style="stop-color:#424242"/>
			<stop  offset="0.5519" style="stop-color:#3F3F3F"/>
			<stop  offset="0.8834" style="stop-color:#373737"/>
			<stop  offset="1" style="stop-color:#323232"/>
		</linearGradient>
		<path class="st17" d="M-100,782.1l98-360.2l186.3,2C138.7,414.6-134.2,741.2-100,782.1z"/>
		<linearGradient id="SVGID_6_" gradientUnits="userSpaceOnUse" x1="958.3469" y1="782.1044" x2="958.3469" y2="421.8988">
			<stop  offset="0" style="stop-color:#424242"/>
			<stop  offset="0.5519" style="stop-color:#3F3F3F"/>
			<stop  offset="0.8834" style="stop-color:#373737"/>
			<stop  offset="1" style="stop-color:#323232"/>
		</linearGradient>
		<path class="st18" d="M1100,782.1l-98-360.2l-186.3,2C855.7,421.8,1119.4,753.4,1100,782.1z"/>
	</g>
	<g id="酒甕1_1_" class="st0">
		<path class="st19" d="M84.5,255.3c-19.3-2-36.9-1.4-55.2-0.7c-8.1,0.3-8-0.3-8,9.3c0,5.8,4.7,5.9,9.6,5.4
			c17.2-1.8,34.6-1.6,51.7,0.6c0.3,0,0.7,0.1,1,0.1c4.5,0,8.8,0.3,8.8-5.2C92.4,255.8,92.4,256.1,84.5,255.3z"/>
		<g>
			<defs>
				<path id="XMLID_7_" d="M158.4,377.6c-8.1,33.4-11.2,43.4-28,61.8c-15.7,18.7-42.8,25.3-74,25.2c-31.2,0.1-58.3-6.4-74-25.1
					c-16.7-18.5-20-29.4-28-61.8c-4.9-21.1-11.7-41.3-1.1-64c10.2-21.3,40.3-48,103-49.2c70.2,2,98,31.6,106.2,52.7
					C171,340.1,162.4,358.8,158.4,377.6z"/>
			</defs>
			<linearGradient id="XMLID_3_" gradientUnits="userSpaceOnUse" x1="56.9297" y1="264.5262" x2="56.9297" y2="464.624">
				<stop  offset="0.45" style="stop-color:#382B13"/>
				<stop  offset="1" style="stop-color:#241610"/>
			</linearGradient>
			<use xlink:href="#XMLID_7_"  style="overflow:visible;fill:url(#XMLID_3_);"/>
			<clipPath id="XMLID_4_">
				<use xlink:href="#XMLID_7_"  style="overflow:visible;"/>
			</clipPath>
		</g>
		<linearGradient id="SVGID_7_" gradientUnits="userSpaceOnUse" x1="111.8445" y1="276.3274" x2="0.4779" y2="351.1637">
			<stop  offset="0" style="stop-color:#B24107"/>
			<stop  offset="8.840211e-02" style="stop-color:#A93407"/>
			<stop  offset="0.2267" style="stop-color:#A12907"/>
			<stop  offset="0.4213" style="stop-color:#9C2207"/>
			<stop  offset="0.9618" style="stop-color:#9B2007"/>
		</linearGradient>
		<path class="st20" d="M-46.3,308.4c-2,0.1-3.4-1.9-2.3-3.6c6.6-11,11.9-15.9,23.8-23.6c23.3-15,48.9-19.2,81.4-19.2
			c32.5,0,69,9.3,90.8,30.7c3.1,3.1,18.7,13.5,30,26.5c0,0-34.2-6.4-62.4,7.3c-1.3,0.6-17.3,0.3-25.6-1.9
			c-21.8-5.9-44.6-21.6-56.6-39c-0.9-0.5-1.6-0.2-2.7,0.3c0,0-12.7,5.6-30.7,12.8C-15.2,304.5-29,307.6-46.3,308.4z"/>
	</g>
	<g id="酒甕2" class="st0">
		<path class="st19" d="M-96.8,315c23.5-2.5,45-1.7,67.2-0.8c9.8,0.4,9.8-0.3,9.8,11.4c0,7.1-5.8,7.1-11.7,6.5
			c-20.9-2.2-42.1-2-62.9,0.8c-0.4,0.1-0.8,0.1-1.2,0.1c-5.4,0-10.7,0.3-10.7-6.3C-106.4,315.6-106.4,316-96.8,315z"/>
		<g>
			<defs>
				<path id="XMLID_11_" d="M-186.7,463.7c9.9,40.6,13.6,52.7,34,75.2c19,22.8,52.1,30.8,90,30.7c37.9,0.1,71-7.8,90-30.6
					c20.4-22.5,24.4-35.8,34.1-75.2c6-25.7,14.2-50.2,1.3-77.8c-12.4-25.9-49-58.4-125.3-59.9c-85.4,2.4-119.2,38.4-129.2,64.1
					C-202,418.1-191.5,441-186.7,463.7z"/>
			</defs>
			
				<linearGradient id="XMLID_5_" gradientUnits="userSpaceOnUse" x1="19.2585" y1="326.2324" x2="19.2585" y2="569.6613" gradientTransform="matrix(-1 0 0 1 -44 0)">
				<stop  offset="0.45" style="stop-color:#4A3921"/>
				<stop  offset="1" style="stop-color:#241B10"/>
			</linearGradient>
			<use xlink:href="#XMLID_11_"  style="overflow:visible;fill:url(#XMLID_5_);"/>
			<clipPath id="XMLID_6_">
				<use xlink:href="#XMLID_11_"  style="overflow:visible;"/>
			</clipPath>
			<path class="st21" d="M1.1,492.9c21.5-15.2,32.2-31.3,47.4-50.7c-9.8-16.7-24.2-34.1-46.9-50.8c-18.7,9.5-39.4,23-54.9,45.8
				C-33.8,461.2-15.4,484.2,1.1,492.9z"/>
			<g class="st22">
				<path d="M18.4,464.4c-1.8,2.5-2.7,3.3-2.7,2.4c0.1-1,0.1-1.9-0.2-2.7c-0.7-2.9-1.7-6.3-2.1-9.6c-0.4-3.1-0.6-6.9-0.5-11
					c0.6-2.5,0.9-2.7,1.1-0.7c0.5,4.6,1.3,8.9,2.5,12.5c1.3,3.6,2.5,4.7,4.4,3.9c1.3-0.9,2.8-3.5,3.1-8c0.3-4.5-1.3-7.8-4.2-10.1
					c-1.7-1.2-2.2-2.3-1.3-3.1c1-0.8,2-1.4,3-1.9c1.1-0.4,2.5,1.4,3.6,5.1c2,4.5,1.8,8.2,0.2,12.1C23.6,457.3,21,461,18.4,464.4z
					 M18.8,429.4c-0.8-0.2-2-0.5-3.3-0.6c-1.2-0.1-2.2-0.6-3-1.6c-0.5-0.9-0.7-1.4-0.5-1.7c0.5-0.7,1-1.5,1.7-2.1
					c0.7-0.6,1.1-1.6,1.4-2.6c0.3-1.1,0.5-1.7,0.8-1.7c0.8-0.6,2.1,0.8,3.9,3.8c1.1,2,1.4,3.9,0.6,6.2
					C20.4,429.7,19.8,429.8,18.8,429.4z M5,466c-0.5-1-1.7-2-3.9-3.2c-2.1-1.2-5.8-2.7-11-5.3c-0.9-0.2-1.2-1-0.8-2.4
					c0.6-1.3,1.1-2,1.6-1.7c1.2,0.8,3,1.7,5.5,2.6c2.6,0.9,4.6,1.8,6.2,2.6c1.8,0.9,2.7,0.7,2.8-0.5c0.5-2.6,0.7-5.5,0.7-8.7
					c-2.3-0.3-4.7-2.1-7.2-5.2c-0.6-0.6-0.8-1.6-0.5-2.8c0.5-1.1,0.5-2.7,0.1-4.6c-0.1-0.8-0.2-1.6-0.3-2.4c-1-0.4-2.2-1-3.4-1.4
					c-0.2,2.2-0.7,4.8-1.3,7.6c-0.4,1.6-1.6,2.4-3.5,2.3c-0.8,0.2-1.7,0.1-2.5-0.2c-1-0.2-1.6-1-1.5-2.4c0.1-1.2,0.7-1.9,1.7-1.8
					c0.4,0,0.7,0.1,1.2,0.1c0.6,0.2,0.9,0.1,1-0.2c1.2-0.4,1.8-2.6,2.1-6.5c-2.8-0.7-4.4-0.5-4.9,0.3c-0.6,0.5-2,4.8-2.4,12.6
					c-0.2,7.8,1.1,11.8,2,12.6c0.6,0.7,2.3,1.6,4.9,2.1c1.7,0.1,1.8,0.6,0.5,1.5c-2.3,1.2-4.5,1.6-6.6,1.1c-2-0.4-3.2-1.3-3.3-1.9
					c-4-10.8-2.8-17.8-2.7-20c0.4-2.1,0.8-4,0.9-5.5c0.2-1.4,0.2-2.7-0.3-3.6c-0.5-0.9,1.2-2,5.3-2.9c2-0.4,4.2-0.4,6.7,0.2
					c0.2-2.8-0.2-5.3-1.1-7.3c-3.4,0-6.4,1-9.3,2.6c-1,0.8-1.2,0.4-0.5-1c0.7-1.4,1.4-2.4,2-2.9c0.7-0.5,1.3-1.2,1.8-2.1
					c0.6-0.9,1-1.3,1.3-1.3c0.3,0,1.2-0.3,3.1-0.7c1.8-0.2,3.9-0.1,6,0.4c4.7,1.5,9.4,4.1,13.5,6.5c2.3,0.3,2.9,1.2,1.8,2.6
					c-1,1.7-1.9,2.3-2.6,1.7c-3-2-7.2-4.2-12.1-5.3c-0.6,1.3-1,3.3-0.9,5.8c0.2,0.5,0.2,1.1,0.1,1.6c0.7,0.2,1.4,0.5,2,0.8
					c0.5,0.2,0.9,0.3,1.2,0.4c0.1-1.3,0.1-2.5-0.1-3.5c-0.1-1.2,0.7-1.9,2.4-1.8c1.8,0.3,2.4,0.9,1.8,2c-0.5,1.4-1,2.8-1.2,4.6
					c2.9,1.4,5,2.5,6.2,3.4c0.6,0.5,1.1,0.7,1.4,0.8c0.5,0.1,0.6,0.7,0.6,1.8c1.3,14.5-0.2,23.1-1.9,26.5C6.2,467.3,5.4,467.9,5,466
					z M0.9,435.7c0.1,1.7,0.4,3.7,0.7,5.7c0.6,1.3,2,3.3,4.3,5.9c0.1-2.4-0.1-5.1-0.6-8C4.8,438,3.3,436.7,0.9,435.7z M2.5,454.9
					c-3.8-1.5-8.1-3.5-12.7-5.3c-0.6-0.1-0.9-0.9-0.9-2.5c0.2-1.4,0.8-2,1.8-1.6c3.5,1.4,7.8,3.2,12.9,5.3c1,0.3,1.1,1.2,0.6,2.6
					C3.7,455,3.2,455.5,2.5,454.9z"/>
			</g>
		</g>
		
			<linearGradient id="SVGID_8_" gradientUnits="userSpaceOnUse" x1="65.8491" y1="450.5244" x2="-15.7663" y2="309.1624" gradientTransform="matrix(-1 0 0 1 -44 0)">
			<stop  offset="0" style="stop-color:#B23107"/>
			<stop  offset="0.6042" style="stop-color:#B03007"/>
			<stop  offset="0.8216" style="stop-color:#A92B07"/>
			<stop  offset="0.9763" style="stop-color:#9E2207"/>
			<stop  offset="1" style="stop-color:#9B2007"/>
		</linearGradient>
		<path class="st23" d="M62.4,379.6c2.4,0.1,4.1-2.3,2.9-4.3c-8-13.4-14.5-19.4-29-28.7C8,328.3-23.3,323.2-62.8,323.2
			c-39.5,0-84,11.3-110.5,37.4c-3.8,3.7-22.8,16.4-36.5,32.3c0,0,41.6-7.8,75.9,8.8c1.5,0.7,21.1,0.4,31.1-2.4
			c26.5-7.2,54.3-26.2,68.9-47.5c1.1-0.6,2-0.3,3.3,0.4c0,0,15.5,6.8,37.3,15.5C24.4,374.9,41.2,378.6,62.4,379.6z"/>
	</g>
	<g id="燈籠_1_" class="st0">
		<g>
			<g>
				<g>
					<line class="st24" x1="868.8" y1="185.9" x2="868.8" y2="227.4"/>
					<line class="st24" x1="874.4" y1="185.9" x2="874.4" y2="227.4"/>
					<line class="st24" x1="880" y1="185.9" x2="880" y2="227.4"/>
					<line class="st24" x1="863.2" y1="185.9" x2="863.2" y2="227.4"/>
					<line class="st24" x1="857.6" y1="185.9" x2="857.6" y2="227.4"/>
				</g>
				<path class="st25" d="M862.3,111.6c0,3.6,2.9,6.6,6.5,6.6c3.6,0,6.6-2.9,6.6-6.6c0-3.6-6.6-6.6-6.6-6.6S862.3,108,862.3,111.6z"
					/>
				<path class="st26" d="M826.4,149.7c0-15.3,10.6-28.4,25.7-34h33.4c15.1,5.7,25.7,18.8,25.7,34c0,15.3-10.6,28.4-25.7,34h-33.4
					C837,178.1,826.4,165,826.4,149.7z"/>
				<path class="st27" d="M857.8,183.8c-10-5.7-17-18.8-17-34c0-15.3,7-28.4,17-34"/>
				<path class="st27" d="M879.9,115.7c10,5.7,17,18.8,17,34c0,15.3-7,28.4-17,34"/>
				<path class="st27" d="M864.6,183.8c-3.8-5.7-6.5-18.8-6.5-34c0-15.3,2.7-28.4,6.5-34"/>
				<path class="st27" d="M873.1,115.7c3.8,5.7,6.5,18.8,6.5,34c0,15.3-2.7,28.4-6.5,34"/>
				<path class="st25" d="M853.1,115.7h31.4c1.1,0,2-0.8,2-1.9v-2c0-1-0.9-1.9-2-1.9h-31.4c-1.1,0-2,0.8-2,1.9v2
					C851.1,114.9,852,115.7,853.1,115.7z"/>
				<path class="st25" d="M854,189.4h29.6c1,0,1.9-0.8,1.9-1.9v-1.9c0-1-0.8-1.9-1.9-1.9H854c-1,0-1.9,0.8-1.9,1.9v1.9
					C852.1,188.6,853,189.4,854,189.4z"/>
				<line class="st28" x1="868.8" y1="107.7" x2="868.8" y2="95.4"/>
			</g>
		</g>
		<g>
			<g>
				<path class="st25" d="M862.3,21.3c0,3.6,2.9,6.6,6.5,6.6c3.6,0,6.6-2.9,6.6-6.6c0-3.6-6.6-6.6-6.6-6.6S862.3,17.7,862.3,21.3z"
					/>
				<path class="st26" d="M826.4,59.5c0-15.3,10.6-28.4,25.7-34h33.4c15.1,5.7,25.7,18.8,25.7,34c0,15.3-10.6,28.4-25.7,34h-33.4
					C837,87.9,826.4,74.8,826.4,59.5z"/>
				<path class="st27" d="M857.8,93.5c-10-5.7-17-18.8-17-34c0-15.3,7-28.4,17-34"/>
				<path class="st27" d="M879.9,25.5c10,5.7,17,18.8,17,34c0,15.3-7,28.4-17,34"/>
				<path class="st27" d="M864.6,93.5c-3.8-5.7-6.5-18.8-6.5-34c0-15.3,2.7-28.4,6.5-34"/>
				<path class="st27" d="M873.1,25.5c3.8,5.7,6.5,18.8,6.5,34c0,15.3-2.7,28.4-6.5,34"/>
				<path class="st25" d="M853.1,25.5h31.4c1.1,0,2-0.8,2-1.9v-2c0-1-0.9-1.9-2-1.9h-31.4c-1.1,0-2,0.8-2,1.9v2
					C851.1,24.6,852,25.5,853.1,25.5z"/>
				<path class="st25" d="M854,99.2h29.6c1,0,1.9-0.8,1.9-1.9v-1.9c0-1-0.8-1.9-1.9-1.9H854c-1,0-1.9,0.8-1.9,1.9v1.9
					C852.1,98.4,853,99.2,854,99.2z"/>
				<line class="st28" x1="868.8" y1="14.8" x2="868.8" y2="-24.2"/>
			</g>
		</g>
	</g>
	<g id="bird" class="st0">
		<path class="st29" d="M701.9,294.8c4-24.5,9.9-33.7,21.2-40.4c-19.4,6.8-24.3,11.9-27.8,29.6c-16.4-1.8-26.9,1.1-42.9,13
			C666,292.2,684.2,287.3,701.9,294.8z"/>
		<path class="st29" d="M698.6,246.2c-9.2-3.6-16.2-5.6-23.5-0.5c9.6-10.2,12.8-8.9,18.6-6.7c1.9-8.9,5.6-10.7,14.5-14.4
			C701.4,231.8,697.9,236,698.6,246.2z"/>
	</g>
</g>
</svg>
