<?xml version="1.0" encoding="utf-8"?>
<!-- Generator: Adobe Illustrator 24.3.0, SVG Export Plug-In . SVG Version: 6.00 Build 0)  -->
<svg version="1.1" id="圖層_5" xmlns="http://www.w3.org/2000/svg" xmlns:xlink="http://www.w3.org/1999/xlink" x="0px" y="0px"
	 viewBox="0 0 410.8 482.6" style="enable-background:new 0 0 410.8 482.6;" xml:space="preserve">
<style type="text/css">
	.st0{opacity:0.8;}
	.st1{fill:#FFFFFF;}
	.st2{fill:#F0867A;}
	.st3{clip-path:url(#XMLID_5_);}
	.st4{fill:#B5B5B5;}
	.st5{fill:url(#SVGID_1_);}
	.st6{fill:#FFFFFF;stroke:#FFFFFF;stroke-miterlimit:10;}
	.st7{clip-path:url(#SVGID_3_);fill:#E0B190;}
	.st8{clip-path:url(#SVGID_3_);fill:#D88A4B;}
	.st9{clip-path:url(#SVGID_3_);}
	.st10{clip-path:url(#SVGID_3_);fill:#E5D5C5;}
	.st11{clip-path:url(#SVGID_3_);fill:#E0A469;}
	.st12{clip-path:url(#SVGID_3_);fill:#544B47;}
	.st13{clip-path:url(#SVGID_3_);fill:#CB783C;}
	.st14{clip-path:url(#SVGID_3_);fill:#383532;}
	.st15{clip-path:url(#SVGID_3_);fill:#D0BFAD;}
	.st16{clip-path:url(#SVGID_3_);fill:#FFFFFF;}
	.st17{clip-path:url(#SVGID_3_);fill:#24211F;}
	.st18{clip-path:url(#SVGID_3_);fill:#263C5B;}
	.st19{clip-path:url(#SVGID_3_);fill:#5F554E;}
	.st20{clip-path:url(#SVGID_3_);fill:#A45E29;}
	.st21{clip-path:url(#SVGID_3_);fill:#B65E43;}
	.st22{clip-path:url(#XMLID_16_);}
	.st23{fill:#EDEDED;}
	.st24{clip-path:url(#XMLID_16_);fill:#EDEDED;}
	.st25{clip-path:url(#XMLID_22_);}
	.st26{clip-path:url(#XMLID_22_);fill:#FFC866;}
	.st27{fill:#EFEFEF;}
</style>
<g class="st0">
	<defs>
		
			<ellipse id="XMLID_21_" transform="matrix(0.9997 -2.478853e-02 2.478853e-02 0.9997 -10.6153 5.516)" class="st0" cx="217.2" cy="430.9" rx="157.3" ry="20.9"/>
	</defs>
	<use xlink:href="#XMLID_21_"  style="overflow:visible;fill:#707070;"/>
	<clipPath id="XMLID_2_">
		<use xlink:href="#XMLID_21_"  style="overflow:visible;"/>
	</clipPath>
</g>
<g>
	<g>
		<path class="st1" d="M166.7,360.8c-3.5,10.9-4,23-0.6,34.1c3,10,9.2,18.8,17.7,25c4.5,3.2,9.6,5.6,15,6.8c1.5,0.3,3.3-0.5,3.7-2.1
			c0.3-1.5-0.5-3.3-2.1-3.7c-1.2-0.3-2.3-0.6-3.4-0.9c-0.5-0.2-1.1-0.4-1.6-0.6c-0.2-0.1-0.5-0.2-0.7-0.3c-0.1,0-0.2-0.1-0.3-0.1
			c-0.6-0.2,0.6,0.3,0,0c-2.1-0.9-4.1-2-6-3.3c-0.5-0.3-0.9-0.6-1.4-1c-0.3-0.2-0.5-0.4-0.8-0.6c-0.1-0.1-0.2-0.2-0.3-0.2
			c0.1,0.1,0.2,0.2,0.3,0.2c-0.1-0.1-0.2-0.2-0.3-0.2c-0.9-0.7-1.7-1.4-2.5-2.2c-1.7-1.6-3.3-3.3-4.7-5.2c-0.2-0.3,0.4,0.5,0.1,0.2
			c-0.1-0.1-0.2-0.2-0.3-0.4c-0.1-0.2-0.3-0.4-0.4-0.6c-0.4-0.5-0.7-1-1.1-1.5c-0.6-1-1.2-2-1.8-3c-0.6-1-1.1-2-1.5-3.1
			c-0.1-0.1-0.1-0.2-0.2-0.4c0,0-0.3-0.7-0.1-0.2c0.2,0.4,0,0-0.1-0.1c-0.1-0.2-0.1-0.3-0.2-0.5c-0.3-0.6-0.5-1.3-0.7-1.9
			c-0.9-2.5-1.5-5.1-2-7.8c-0.1-0.3-0.1-0.6-0.2-1c0-0.1-0.1-0.3-0.1-0.4c0,0.7,0,0.3,0,0c-0.1-0.7-0.2-1.4-0.2-2.1
			c-0.1-1.3-0.2-2.7-0.2-4c0-1.5,0-3,0.1-4.5c0.1-0.8,0.1-1.6,0.2-2.4c0-0.4,0.1-0.7,0.1-1.1c0,0.1-0.1,0.7,0,0.1
			c0-0.2,0.1-0.4,0.1-0.6c0.5-3,1.2-6,2.1-8.9c0.5-1.5-0.6-3.3-2.1-3.7C168.7,358.4,167.2,359.2,166.7,360.8L166.7,360.8z"/>
	</g>
</g>
<g>
	<g>
		<path class="st1" d="M254.8,361.5c0.4,1.4,0.7,2.9,1,4.4c0.1,0.7,0.3,1.5,0.4,2.2c0,0.1,0,0.3,0.1,0.4c-0.2-0.9,0-0.2,0,0
			c0.1,0.4,0.1,0.8,0.1,1.2c0.3,3,0.4,5.9,0.2,8.9c0,0.7-0.1,1.4-0.2,2.1c0,0.3-0.1,0.7-0.1,1c0,0.2,0,0.4-0.1,0.6
			c-0.1,0.7,0.1-0.7,0,0c-0.2,1.5-0.5,3-0.8,4.4c-0.3,1.5-0.7,2.9-1.2,4.3c-0.2,0.6-0.4,1.3-0.7,1.9c-0.1,0.3-0.3,0.7-0.4,1
			c-0.1,0.2-0.1,0.3-0.2,0.5c-0.1,0.1-0.1,0.3-0.2,0.4c0.2-0.4,0.2-0.5,0.1-0.2c-1.2,2.7-2.6,5.2-4.2,7.7c-0.4,0.6-0.8,1.2-1.2,1.7
			c-0.1,0.1-0.2,0.2-0.2,0.3c0.5-0.7,0.1-0.1,0,0c-0.2,0.3-0.5,0.6-0.7,0.9c-0.9,1.1-1.9,2.1-2.9,3.1c-1,1-2,1.9-3.1,2.8
			c-0.1,0.1-0.7,0.7-0.8,0.7c0,0,0.5-0.4,0.1-0.1c-0.2,0.1-0.3,0.2-0.5,0.3c-0.6,0.4-1.1,0.8-1.7,1.2c-1.2,0.8-2.4,1.5-3.6,2.2
			c-0.6,0.3-1.2,0.7-1.9,1c-0.3,0.1-0.6,0.3-0.9,0.4c-0.3,0.1-0.8,0.3-1.1,0.5c0.5-0.4,0.4-0.2,0.1,0c-0.2,0.1-0.4,0.2-0.6,0.2
			c-0.4,0.1-0.7,0.3-1.1,0.4c-0.7,0.3-1.4,0.5-2.2,0.7c-1.5,0.5-3.1,0.8-4.6,1.1c-0.4,0.1-0.8,0.1-1.1,0.2c-0.1,0-0.3,0-0.4,0.1
			c0.9-0.2,0.1,0-0.1,0c-0.8,0.1-1.5,0.1-2.3,0.2c-1.6,0.1-3.2,0.1-4.8,0c-1.6-0.1-3.1,1.5-3,3c0.1,1.7,1.3,2.9,3,3
			c12.1,0.9,24.2-4,33.2-12c9.5-8.5,14.8-20.6,16.1-33.2c0.7-7,0.1-14.3-1.8-21.1c-0.4-1.5-2.2-2.6-3.7-2.1
			C255.4,358.3,254.4,359.9,254.8,361.5L254.8,361.5z"/>
	</g>
</g>
<g>
	<defs>
		
			<ellipse id="XMLID_13_" transform="matrix(0.9992 -3.995413e-02 3.995413e-02 0.9992 -17 8.8581)" cx="213.1" cy="429.7" rx="7" ry="11.5"/>
	</defs>
	<use xlink:href="#XMLID_13_"  style="overflow:visible;fill:#A54038;"/>
	<clipPath id="XMLID_3_">
		<use xlink:href="#XMLID_13_"  style="overflow:visible;"/>
	</clipPath>
</g>
<g>
	<defs>
		
			<ellipse id="XMLID_8_" transform="matrix(0.1247 -0.9922 0.9922 0.1247 -251.2677 573.6924)" cx="199.5" cy="429.3" rx="11.5" ry="7.1"/>
	</defs>
	<use xlink:href="#XMLID_8_"  style="overflow:visible;fill:#A54038;"/>
	<clipPath id="XMLID_4_">
		<use xlink:href="#XMLID_8_"  style="overflow:visible;"/>
	</clipPath>
</g>
<g>
	<g>
		<path class="st1" d="M67.9,321.4c-2.2-9.9-2.4-20.2-0.6-30.2c1-5.3,2.7-10.8,6.8-14.2c0.4-0.3,0.8-0.6,1.2-0.6
			c1-0.1,1.6,1.1,1.9,2.1c1.5,5.7,0.1,11.7-1.4,17.4c1.6-2.4,3.6-4.5,5.9-6.2c0.8-0.6,1.8-1.1,2.6-0.7c0.8,0.5,0.9,1.6,0.8,2.5
			c-0.3,4.3-1.4,8.6-3.2,12.5c1.6-3,4.2-5.6,7.2-7.2c0.8-0.4,1.7-0.8,2.5-0.3c0.9,0.5,0.9,1.7,0.8,2.7c-0.4,3.5-1.8,6.9-3.9,9.7
			c1.6-1.9,3.5-3.4,5.6-4.6c0.4-0.2,0.8-0.4,1.3-0.4c1.1,0.2,1.2,1.7,1,2.7c-0.4,1.9-1.1,3.8-2,5.5c1.2-1.6,2.7-2.9,4.4-4
			c0.9-0.6,2.2-1.1,3.1-0.3c0.4,0.3,0.5,0.9,0.7,1.4c0.3,1.6,0.3,3.3-0.1,4.8c0,0-7.1,3.7-16.9,5.7
			C75.9,321.8,67.9,321.4,67.9,321.4z"/>
		<g>
			<path class="st1" d="M68.4,321.3c-2-9.1-2.4-18.6-1-27.8c0.6-3.9,1.4-7.8,3.2-11.3c0.9-1.7,2-3.2,3.4-4.5
				c0.7-0.6,1.5-1.3,2.2-0.3c0.5,0.8,0.7,1.9,0.8,2.8c0.9,5.2-0.5,10.4-1.8,15.4c-0.1,0.6,0.6,0.8,0.9,0.4c1.2-1.8,2.6-3.4,4.2-4.8
				c0.8-0.7,1.6-1.6,2.6-1.9c1.1-0.4,1.6,0.5,1.6,1.5c0.1,2.1-0.4,4.4-0.9,6.4c-0.5,2.2-1.3,4.4-2.2,6.4c-0.3,0.6,0.6,1.1,0.9,0.5
				c1-1.8,2.3-3.5,3.9-4.8c0.8-0.7,1.6-1.3,2.5-1.8c0.8-0.4,2.2-1.4,2.9-0.5c0.6,0.7,0.4,1.8,0.2,2.6c-0.2,1-0.4,2.1-0.7,3.1
				c-0.7,2.1-1.7,4.1-3,5.9c-0.3,0.5,0.4,1,0.8,0.6c0.9-1.1,1.9-2.1,3.1-2.9c0.5-0.4,1.1-0.8,1.6-1.1c0.5-0.3,1.4-1,2-0.7
				c0.9,0.6,0.3,2.4,0.1,3.1c-0.4,1.5-1,2.9-1.7,4.3c-0.3,0.5,0.4,1.1,0.8,0.6c0.7-0.9,1.5-1.7,2.4-2.5c0.9-0.7,1.9-1.6,3-2
				c0.5-0.2,1.1-0.3,1.5,0.2c0.4,0.4,0.5,1.1,0.6,1.7c0.2,1.3,0.1,2.7-0.2,3.9c0.1-0.1,0.2-0.2,0.2-0.3c-3.3,1.7-6.9,3-10.5,4.1
				c-6.4,1.9-13,3-19.7,3.2c-1.4,0.1-2.8,0.1-4.2,0c-0.6,0-0.6,1,0,1c2,0.1,4.1,0,6.1-0.1c4.7-0.3,9.4-0.9,13.9-2
				c3.9-0.9,7.8-2.2,11.5-3.8c1-0.4,1.9-0.8,2.8-1.3c0.1-0.1,0.3-0.1,0.5-0.2c0.3-0.2,0.3-0.6,0.4-0.9c0.1-0.6,0.2-1.2,0.2-1.9
				c0-1.2,0-2.7-0.6-3.7c-0.6-1-1.7-1.2-2.8-0.9c-1.1,0.3-2.1,1.1-3,1.8c-1.1,0.9-2,1.8-2.9,2.9c0.3,0.2,0.5,0.4,0.8,0.6
				c0.9-1.6,1.5-3.4,1.9-5.2c0.2-1.1,0.4-2.7-0.6-3.5c-1.3-1-3.1,0.5-4.2,1.3c-1.4,1-2.7,2.2-3.8,3.5c0.3,0.2,0.5,0.4,0.8,0.6
				c1.2-1.6,2.1-3.4,2.8-5.2c0.6-1.7,1.2-3.7,1.2-5.6c0-1.6-1.1-2.9-2.8-2.6c-0.9,0.2-1.8,0.8-2.6,1.3c-0.8,0.5-1.5,1-2.2,1.6
				c-1.6,1.4-2.9,3.1-4,5c0.3,0.2,0.6,0.3,0.9,0.5c1.7-3.7,2.8-7.7,3.2-11.9c0.1-1.4,0.3-3.5-1.4-4c-1.7-0.5-3.4,1.3-4.5,2.3
				c-1.6,1.5-3.1,3.2-4.3,5c0.3,0.1,0.6,0.3,0.9,0.4c1.2-4.8,2.5-9.7,1.9-14.7c-0.1-1.1-0.3-2.3-0.7-3.4c-0.3-0.7-0.7-1.5-1.4-1.9
				c-0.9-0.4-1.7,0-2.4,0.6c-0.8,0.7-1.5,1.4-2.1,2.2c-2.5,3.2-3.8,7.2-4.6,11.1c-1,4.8-1.4,9.8-1.4,14.7c0,5.7,0.6,11.3,1.9,16.9
				C67.6,322.2,68.5,321.9,68.4,321.3z"/>
		</g>
	</g>
	<path class="st2" d="M166.6,234.1c-23.1,3.2-49,7.8-49,7.8L166.6,234.1z"/>
	<path class="st2" d="M82.2,264.4L82.2,264.4C82.2,264.4,82.2,264.3,82.2,264.4C82.2,264.3,82.2,264.4,82.2,264.4z"/>
	<path class="st2" d="M245.5,231.9c23.1,3.2,49,7.8,49,7.8L245.5,231.9z"/>
	<g>
		<defs>
			<path id="XMLID_41_" d="M34.8,323.6l-1.3,12.6c0,0,48,33.7,180.9,28.3c143.8-5.8,174.3-36.6,174.3-36.6l-1.3-11.8l-151.2,24.4
				l-124.4-5.3C111.7,335.2,62.7,316.7,34.8,323.6z"/>
		</defs>
		<use xlink:href="#XMLID_41_"  style="overflow:visible;fill:#DDDDDD;"/>
		<clipPath id="XMLID_5_">
			<use xlink:href="#XMLID_41_"  style="overflow:visible;"/>
		</clipPath>
		<g class="st3">
			<g>
				<path class="st4" d="M37.9,336.7c-1.9-1.7-3-5.2-3-7.7c0-1.2,0.2-2.8,1.4-3.4c1.8-1,4.3,0.4,4.8,2.2c0.4,1.4-0.5,2.9-0.9,4.2
					c-0.5,1.4-1.2,2.8-1.5,4.3c-0.6,2.3,0.6,4.4,2.9,5.2c5.4,1.7,5.7-6,3.7-9c-0.7-1-1.6-1.9-1.8-3.2c-0.2-1.2,0.2-2.4,1.7-2.3
					c0.9,0.1,1.9,0.8,2.5,1.4c2,2,2,5.2,1.6,7.8c-0.4,2.8-2,8,2.1,8.9c1.6,0.3,4.6,0.3,5.2-1.6c0.7-2.2-1-4.6-2.2-6.1
					c-1.2-1.6-3.2-3.6-1.8-5.6c1.8-2.6,5.1-1.4,5.9,1.3c1.1,3.7-0.8,7.5-0.1,11.2c0.4,2.2,1.7,4,3.8,4.9c1.6,0.6,4.4,1,5-1.2
					c0.5-2.2-1.3-5-2.3-6.9c-0.9-1.8-2.1-3.7-2.6-5.7c-0.4-2,1.4-2.9,3.1-3.1c3.5-0.2,6.1,3.7,5.6,6.9c-0.5,2.8-2.1,5.4-2.2,8.3
					c-0.1,2.3,0.8,5,3.5,5.2c2.1,0.2,4.6-1.4,4.9-3.6c0.4-3.4-4.7-6.7-2.6-10.1c2-3.2,8.4-1,8.9,2.4c0.4,2.9-3.2,4.9-3.4,7.8
					c-0.1,2.2,1,4.3,3,5.2c1.8,0.9,4.9,1.2,6-0.9c1-1.8-0.5-4.2-1.3-5.8c-1.4-2.7-1.9-6.9,1.9-7.9c3.6-1,6.7,2.6,6.1,6.1
					c-0.6,3.2-3.1,6.1-2.2,9.5c0.7,2.5,3.1,3.9,5.6,2.9c2-0.8,3.6-2.8,3.2-5c-0.6-3.2-5.1-6.3-2.8-9.7c1.2-1.8,3.9-2.3,5.5-0.7
					c1.4,1.4,1.6,4.1,1.7,5.9c0.2,2.4-0.1,4.8-0.6,7.1c-0.3,1.3-0.6,2.6,0.3,3.7c1.3,1.6,3.9,1.1,5.5,0.2c2.2-1.3,2.9-3.2,2.1-5.6
					c-0.5-1.5-1.5-2.8-2.1-4.3c-0.8-2.1-0.1-4,1.9-5.1c2.3-1.3,4.4,0.1,4.7,2.6c0.3,2.4,0,4.9-0.9,7.2c-0.8,2.1-2.9,5.5,0.3,6.8
					c2,0.8,4.5-0.2,5.8-1.8c2-2.3,0.1-5.3-1-7.6c-0.7-1.6-1.2-3.3-0.2-4.8c1.1-1.8,3.6-2.2,5.4-1.1c4.2,2.5,0.6,7.1,0.1,10.5
					c-0.3,2.4,1.2,4.6,3.5,5.5c2,0.8,4.9,0.2,5.8-2.1c0.9-2.3-0.5-4.7-1.7-6.6c-0.8-1.2-1.5-2.6-1.6-4c-0.1-2.8,3.1-3.6,5.2-2.6
					c5,2.4,1.4,7.1,0.6,10.8c-1,4.7,4.9,9.1,8.8,5.5c4-3.8-1.5-9.1-1.3-13.2c0.2-4.6,6.2-4.2,8.1-1c2,3.4-1.3,7.4,0.2,10.9
					c1,2.2,3.7,3.7,6.1,3.6c2.4-0.1,4.2-2,3.9-4.4c-0.4-2.7-3.2-4.9-2.9-7.8c0.3-2.5,3.3-2.9,5.2-1.8c2.4,1.4,2.5,3.7,1.7,6.1
					c-0.9,2.6-2.2,5.3-0.4,7.8c1.4,2,4.1,2.8,6.3,1.8c2-0.9,2.9-3,2.7-5.1c-0.3-3.2-4.1-6.2-3-9.5c1.2-3.4,7.7-3.6,9.5-0.7
					c2,3.1-1.5,6.7-1.3,9.9c0.1,2.1,1.4,4.3,3.4,5.1c2,0.8,4.7,0.2,5.7-1.7c1.1-1.9,0.3-4.4-0.7-6.2c-1.2-2.1-4-5.7-1.6-7.9
					c1.8-1.7,4.9-0.9,6.4,0.7c1.9,1.9,1.5,4.2,1.2,6.6c-0.4,3-0.3,5.6,2.4,7.5c2,1.5,5.3,1.9,7.2-0.1c1.6-1.6,0.9-4.1,0-5.9
					c-1.2-2.3-4.6-5-3.6-8c0.6-2,3.3-2.3,5-1.7c2.5,0.9,3.7,3.2,3.4,5.7c-0.3,2.7-1.9,6.3,0.4,8.5c1.7,1.7,4.7,2,7,1.4
					c5.8-1.8-1.9-6.6-2.8-9.1c-1.2-3.3,1.6-6.4,4.8-6.2c2.8,0.1,5.3,1.4,5.1,4.5c-0.2,2.8-3.5,6.7-1.2,9.3c1.3,1.5,4.4,1.3,6.2,0.8
					c1.7-0.5,2.1-2,1.7-3.6c-0.8-3.2-6-8.6-3.2-12c2.1-2.5,6.8-1.4,8.5,1c1.8,2.8-0.2,5.5-0.6,8.4c-0.4,2.6,0.6,4.4,3.3,5.2
					c2.2,0.6,5.1,0.2,5.9-2.2c0.9-2.6-0.8-4.8-2.3-6.7c-1.1-1.4-2.8-3.4-1.7-5.2c0.7-1.3,2.4-1.9,3.8-2.1c1.3-0.2,2.7-0.2,3.9,0.2
					c2.4,0.9,2.8,3.2,2.2,5.5c-0.7,2.7-2,5.1-0.5,7.7c2.3,4.4,9.7,2.9,8.9-2.5c-0.5-3.2-4-4.9-5.3-7.7c-0.8-1.7-0.4-3.8,1.3-4.7
					c2.2-1.2,5,0.1,6.2,2.1c1.9,3.2-1.3,7.1,0.1,10.5c1,2.5,3.8,3.6,6.4,3.2c2.1-0.4,3.7-1.6,3.2-3.9c-0.7-3.1-4.1-4.9-3.9-8.3
					c0.2-3.4,4.3-5.4,7.3-4.5c2.8,0.9,2.8,4.2,1.8,6.5c-0.9,2-2.1,4.1-1.2,6.3c0.9,2.2,3.7,2.7,5.7,1.8c2.1-0.9,3.6-3.2,3-5.5
					c-0.7-3.2-4.7-6.2-3-9.6c0.8-1.6,2.6-2.3,4.3-2.1c1.8,0.2,3,1.4,3.6,3c0.3,0.8,0.5,1.7,0.7,2.6c0.4,2.2-0.2,4.4,0.5,6.6
					c1.4,4.5,10.2,4.2,9.5-1c-0.4-3-3.1-4.6-5.1-6.6c-1.6-1.5-3.5-4.1-0.9-5.8c1.5-0.9,3.7-0.9,5.3-0.4c2,0.6,2.9,1.9,2.7,3.9
					c-0.1,1.9-0.4,3.7-0.1,5.6c0.4,2.6,2.5,4.6,5.2,4.5c2.2,0,3.9-1.6,3.7-3.8c-0.3-3.1-3.2-4.5-5.1-6.6c-3.9-4.2,4.8-8.4,6.6-3.1
					c0.9,2.6-0.3,5.4,0.7,8c0.8,2,2.6,3.9,4.9,4c2.2,0.1,4.4-1.2,4.3-3.6c-0.1-2.8-2.6-4.6-4.6-6.1c-1.3-1-3.4-2.5-3.4-4.4
					c0-2.1,2.5-2.9,4.2-2.9c2,0,3.8,1.1,4,3.2c0.2,1.6-0.4,3.1-0.6,4.7c-0.2,2.2,0.9,4.8,2.6,6.2c3.9,3.3,8.9-1.2,6.8-5.5
					c-0.8-1.5-2-2.8-2.7-4.4c-1.1-2.2,0-4.4,2.4-5c5-1.3,1.7,6.4,2.2,8.7c0.4,2.2,2,4.5,4.4,4.8c1.9,0.2,3.2-0.8,3-2.8
					c-0.2-2.1-1.6-4.1-2.4-6c-0.5-1.2-1.2-2.8-1-4.1c0.2-2,3.2-4,5.1-2.8c2,1.3,0.6,5.8,0.2,7.7c-0.3,1.7-1.3,4.5,0.5,5.7
					c1.6,1,4.3,0.3,5.3-1.2c1.8-2.5-1-5.3-1.9-7.6c-0.5-1.4-1-3.3,0-4.7c1-1.4,3.6-1.7,5.1-0.9c2,1,1.1,3.8,0.5,5.3
					c-0.5,1.4-2.1,3.2-1.9,4.7c0.2,1,1.1,2,2.1,2.3c2,0.8,4.4-0.3,5.3-2.2c0.7-1.4,0.5-2.9-0.1-4.3c-0.9-2.1-2.4-3.7-2.6-6.1
					c-0.1-1.2,0-2.3,1.2-3c0.6-0.4,1.4-0.5,2.1-0.5c0.9,0,2.1,0.1,2.8,0.9c1,1,0.5,2.8,0.1,4c-0.7,2.1-3.1,5.5-0.8,7.5
					c1.7,1.5,4.4,1.1,5.6-0.7c2-2.8,0.1-5.8-0.9-8.5c-0.6-1.6-2.5-5,0-5.8c4.5-1.5,2.5,5.2,2.7,7.3c0.2,1.9,1.4,4.1,3.6,3.9
					c2.2-0.2,2.8-2.7,2.6-4.6c-0.3-2.6-1.7-4.3-2.9-6.4c-0.6-1-1.3-2.6-0.4-3.6c0.5-0.5,1.8-1,2.5-0.9c1,0.2,1.2,1.1,1.3,2
					c0.3,2.1-0.6,4.3,0.2,6.3c0.9,2.1,3.1,3.9,5.5,3.2c2-0.6,1.8-2.6,1-4.2c-0.6-1.2-1.4-2.3-2.2-3.4c-0.8-1-2.4-2.8-1.6-4.2
					c0.6-1.1,2.7-1.3,3.5-0.3c0.5,0.7,0.7,1.7,0.9,2.5c0.3,1.7,0,7.2,2.8,6.7c6.3-0.9,0-8.5-1.9-10.5c-0.4-0.5-1.1,0.2-0.7,0.7
					c1.3,1.4,6.3,6.5,3.5,8.3c-2.3,1.6-2.3-1.6-2.5-3.1c-0.4-3-1-7.7-5.2-5.9c-5.8,2.5,4.9,9,2.7,11.9c-1.4,1.9-4.1-0.5-4.8-1.8
					c-0.6-1.3-0.4-2.6-0.3-4c0.1-1.5,0.3-4-1.3-5c-1.4-0.9-4.1,0.1-4.7,1.6c-0.9,1.9,0.7,4.1,1.7,5.6c0.8,1.2,1.4,2.4,1.7,3.8
					c0.3,1.4,0.4,4.8-2.1,4.2c-3.3-0.7-1.5-5.8-1.6-8c-0.2-2.4-2-3.8-4.3-3.1c-1.7,0.5-2.2,1.9-1.9,3.6c0.6,2.6,2.2,5,2.8,7.6
					c0.5,2-0.3,4.8-2.7,4.8c-3.5,0-2.3-3.4-1.5-5.3c0.9-2,2.1-5.4,0-7.1c-1.7-1.3-4.9-1.1-6.5,0.3c-2,1.9-0.6,5.8,0.5,7.8
					c1.2,2,2.9,4.7,0.4,6.6c-0.7,0.6-1.8,0.9-2.7,0.7c-2.2-0.5-1.7-2.3-0.9-3.9c1.3-2.6,3.4-7.7-0.8-8.9c-2.2-0.6-5.2,0-6.1,2.4
					c-0.8,2.2,0.2,4.8,1.3,6.7c1.1,1.9,2.5,4.8-0.4,5.7c-0.6,0.2-2,0.5-2.5-0.1c-0.6-0.7-0.5-1.9-0.4-2.8c0.4-2.4,1.2-4.9,1.1-7.3
					c0-1.9-0.8-3.4-2.8-3.6c-2.3-0.3-4.9,1.5-5.2,3.9c-0.3,2.3,1.2,5.1,2.1,7.2c0.3,0.8,0.8,1.5,1,2.4c0.2,0.5,0.4,1.2,0.2,1.7
					c-0.4,1.3-2.2,1-3.2,0.5c-1.3-0.7-2.1-2.3-2.3-3.7c-0.3-1.8,0.6-3.5,0.8-5.2c0.2-2.5-1-4.7-3.8-4.3c-2,0.4-4.2,2.2-4.1,4.4
					c0.2,3.4,4.4,5.5,3.8,8.9c-0.3,1.9-2.2,3.2-4.1,2.7c-1.6-0.4-2.8-2-3.4-3.5c-1.1-2.7,0.6-5.3,0-8.1c-0.9-4.6-9.6-5-10.2-0.1
					c-0.3,2.7,2.8,4.8,4.6,6.2c1.3,1,2.6,2.1,3.1,3.7c0.8,2.3-1.2,3.9-3.4,3.5c-1.8-0.3-3.1-1.8-3.7-3.4c-0.5-1.4-0.3-2.8-0.2-4.2
					c0.1-2.3-0.3-4.8-2.4-6.2c-2.3-1.5-5.4-0.6-7,1.6c-1.7,2.4-0.2,4.5,1.8,6.2c1.3,1.1,2.6,2,3.3,3.6c1,2.3-0.6,4.4-3.2,3.9
					c-5-1.1-2.9-6.7-3.1-10.2c-0.3-4.8-9-5.7-11-1.7c-1.3,2.6,1.5,5.2,3.2,6.8c2,1.7,6.5,6.4,1.6,7.9c-2.3,0.7-4.8-0.1-5.5-2.6
					c-0.5-2,0-4.2-0.4-6.3c-0.3-1.9-0.9-4-2.5-5.3c-3.9-3.3-9.8,0.8-8.2,5.6c1.1,3.2,5.6,7.3,1.5,10.2c-1.4,1-4,1.2-5-0.6
					c-0.8-1.4-0.2-3.4,0.5-4.7c1.6-3.3,2.1-8.4-2.7-9.2c-5.2-0.8-9.4,4.1-6.9,9c1.1,2.2,5.7,6.6,1.1,7.7c-2,0.5-4.4-0.2-5.5-2.1
					c-1.1-2-0.1-4.5,0.2-6.7c0.4-2.9-0.5-5.5-3.3-6.8c-2.2-1.1-5.2-0.7-6.6,1.5c-1.2,2.1-0.4,4.4,1,6.1c1.2,1.5,2.7,2.7,3.6,4.3
					c1,1.8,0.6,4.1-1.4,5.1c-3.9,1.8-6.4-2.5-5.5-5.8c0.8-2.7,2.4-6.1,0-8.5c-2.6-2.6-9.4-2.1-10.9,1.6c-1.2,3,1.9,5.5,3.3,7.7
					c0.8,1.2,1.4,2.9,0.7,4.3c-1.2,2.3-4.7,1.8-6.4,0.4c-2.6-2.3,0.7-6.4,0.7-9.1c0-2-1.2-4-2.9-5.1c-3.4-2.2-9.4-0.9-9.1,3.8
					c0.1,1.8,0.8,3.5,1.7,5.1c0.7,1.4,3.8,5.6,1.7,6.8c-1.1,0.6-3.5,0.6-4.6,0.3c-1.2-0.4-1.5-1.4-1.4-2.6c0.2-1.8,1.2-3.3,1.6-5
					c1.2-4.4-1.9-7.1-6.1-7.1c-4.6-0.1-7.5,5.3-4.7,9c0.9,1.1,5.4,4.7,3.6,6c-1.4,1-3.7,0.8-5.2,0.2c-2.4-0.9-2.8-2.7-2.4-5.1
					c0.5-3,1.5-6.1-0.9-8.6c-1.8-2-5-2.9-7.3-1.4c-5.2,3.2,2.2,9.3,2.9,12.7c0.4,2.1-1,3.6-3.2,3.8c-2.1,0.1-4.4-1.3-5.2-3.3
					c-1.4-3.4,1.4-7.2-0.6-10.5c-1.4-2.3-4.5-3.7-7.1-2.9c-2.1,0.7-3.1,2.5-2.8,4.7c0.4,2.8,2.6,4.7,3.3,7.3
					c0.4,1.4,0.4,3.1-0.8,4.1c-1.5,1.3-4,1-5.3-0.5c-2.7-2.9-0.3-6.3,0.3-9.5c0.5-2.5-0.2-4.9-2.7-6c-2.2-1-5.1-0.8-7.2,0.5
					c-2.3,1.4-2.5,3.9-1.6,6.2c1.1,2.8,4.3,6.4,1.6,9.3c-1.3,1.4-3.7,1.5-5.2,0.4c-1.7-1.2-2-3.1-1.6-5c0.7-2.8,2.8-5.8,0.8-8.6
					c-1.5-2.1-4.7-3.2-7-1.7c-2,1.3-1.8,3.7-0.9,5.6c0.5,1.3,1.5,2.4,2,3.7c0.9,2.4-0.2,4.6-3,4.5c-1.7-0.1-3.6-1.1-4.5-2.6
					c-1.2-2.1-0.1-4.7,0.2-6.9c0.4-2.6-0.3-5.1-2.7-6.6c-2-1.3-5-1.3-6.7,0.5c-1.5,1.5-1.4,3.9-0.8,5.9c0.7,2.5,2.5,4.6,2.3,7.4
					c-0.4,4.3-6.2,4.2-7.9,0.7c-1.7-3.6,2.2-7,1.7-10.7c-0.3-2.5-2.7-4.5-5.1-4.7c-2.1-0.2-4.4,0.9-4.8,3.2
					c-0.4,2.7,1.5,4.7,2.7,6.9c0.6,1.2,1.3,3.1,0.6,4.4c-1.2,2.1-4.2,1.7-5.8,0.3c-3.5-3.1,0.6-7.1,0.6-10.6c0-5.1-7.7-7.3-9.7-2.3
					c-1.2,3,0.9,5.3,1.9,8c0.7,2,0.4,3.6-1.5,4.7c-2.1,1.2-5.5,0.8-4.3-2.5c0.6-1.7,1.5-3.2,1.9-5.1c0.4-1.8,0.5-3.7,0.2-5.5
					c-0.5-2.5-2.5-4.1-5.1-3.4c-2,0.6-3.9,2.6-3.9,4.8c0.1,3,4.4,6.4,2.4,9.3c-0.8,1.2-2.7,2.2-4.2,2.1c-3.1-0.3-1.4-4.3-1.2-6.1
					c0.4-3.2,0.5-7.4-1.1-10.3c-2.7-5-10.3-1.3-8.4,3.9c1.1,3.1,5.6,7,1.4,9.7c-2,1.3-4.4,0.5-5-1.8c-0.6-2.1,0.5-4.3,1.3-6.3
					c1-2.5,1.5-4.8,0.1-7.2c-1.2-2.1-3.5-3.3-6-2.9c-2.3,0.4-3.9,2-4.3,4.3c-0.4,2.5,0.9,4.4,1.9,6.6c0.5,1.1,1.4,2.9,0.1,3.9
					c-1.6,1.3-4.4,0.4-5.7-1c-2.7-3.1,0.4-5.9,1.8-8.6c2.4-4.7-4.1-8.8-8.2-7.1c-2.5,1-3,3.5-2.1,5.9c0.7,1.7,2,3.1,2.5,4.8
					c0.6,2.3-1.7,4.5-4.1,4c-4.1-0.8-1.5-7.3-0.7-9.6c0.8-2.4,1.4-5-0.1-7.3c-1.3-2-3.3-3.6-5.7-3.4c-1.8,0.1-3.8,1-4.1,3
					c-0.2,1.3,0.5,2.5,1,3.6c0.8,1.9,1.8,3.7,2.7,5.6c0.5,1.1,1.4,2.7,1.3,3.9c-0.2,2.2-3.7,1-4.8,0.2c-3-2.2-2.1-6.5-1.7-9.6
					c0.3-2.7,0.4-6.6-2.3-8.2c-2.1-1.2-5-0.1-6,2.1c-1.2,2.9,1.8,5.2,3.2,7.4c0.6,1,1.5,2.7,1,3.9c-0.5,1.3-3.6,1.3-4.7,0.7
					c-2-1-1.3-4-1-5.7c0.7-4.1,1.2-9.9-3.6-11.8c-1.9-0.8-3.9,0-4,2.2c-0.1,2.5,2.2,4.1,2.8,6.4c0.3,1.3,0.4,2.8,0,4
					c-0.8,2.4-4,2.1-5.3,0.2c-0.9-1.4-0.2-3.2,0.4-4.6c0.5-1.4,1.1-2.8,1.6-4.2c0.6-2,0.2-4.1-1.6-5.2c-1.6-1-4-1.1-5.3,0.4
					c-1.1,1.4-1.1,3.6-0.8,5.2c0.4,2.3,1.3,5.1,3.2,6.7C37.7,337.9,38.4,337.2,37.9,336.7L37.9,336.7z"/>
			</g>
		</g>
	</g>
	<g>
		<defs>
			<path id="XMLID_39_" d="M152.2,207.9c0,0-8,60.8-7.5,70.8c0.6,10-0.6,32.2,58.1,32.3s53.5-30.8,53.5-30.8s0.9-35.7-6.2-72.4
				L152.2,207.9z"/>
		</defs>
		
			<linearGradient id="XMLID_6_" gradientUnits="userSpaceOnUse" x1="265.1209" y1="296.2276" x2="262.2235" y2="402.2705" gradientTransform="matrix(0.9574 -0.2887 0.2887 0.9574 -149.6706 10.3842)">
			<stop  offset="0" style="stop-color:#FFD6BB"/>
			<stop  offset="1" style="stop-color:#F7E7D6"/>
		</linearGradient>
		<use xlink:href="#XMLID_39_"  style="overflow:visible;fill:url(#XMLID_6_);"/>
		<clipPath id="XMLID_7_">
			<use xlink:href="#XMLID_39_"  style="overflow:visible;"/>
		</clipPath>
	</g>
	<linearGradient id="SVGID_1_" gradientUnits="userSpaceOnUse" x1="206.3136" y1="325.3391" x2="200.9549" y2="232.6438">
		<stop  offset="0" style="stop-color:#C96873"/>
		<stop  offset="1" style="stop-color:#E86D64"/>
	</linearGradient>
	<path class="st5" d="M159.3,231.9c0,0,22.6-11.4,46.9,0c0,0,19.6-13.9,47.2-2.5l0.6,68.9l-30.8,11.2h-43.5l-27.6-9L159.3,231.9z"/>
	<path class="st1" d="M157.5,299.8c0,0,20.3,3.4,39.1,3c18.8-0.4,39.5-1.1,60.1-7.9l130.7,21.2c0,0-48.5,19.3-110.4,27.4
		c-85.6,11.2-128.7,3.8-165.2,0.2c-36.5-3.6-76.9-20.1-76.9-20.1L157.5,299.8z"/>
	<g>
		<path class="st2" d="M116.7,243.1c0,0,25.6-5.9,48.6-10.2l0,0c0,0-1.6-15.1-1-25.9c0,0-71.1,13-80.2,44.7
			c-1.5,5.2-2,10.5-1.6,15.5C83,248.4,116.7,243.1,116.7,243.1z"/>
		<path class="st2" d="M189.6,229c-6.5,0.8-15.2,2.2-24.3,3.9l-48.6,10.2c0,0-33.8,5.3-34.2,24.1c0,0,0,0.1,0,0.1
			c2.1,25.7,27.6,47.5,68.3,43.2C199.7,305.3,212.4,226.4,189.6,229z"/>
	</g>
	<g>
		<path class="st2" d="M294.5,239.7c0,0-25.9-4.6-49-7.8l0,0c0,0,0.9-15.1-0.3-26c0,0,71.7,9.5,82.3,40.7c1.7,5.1,2.5,10.3,2.3,15.4
			C328.4,243.4,294.5,239.7,294.5,239.7z"/>
		<path class="st2" d="M221,229.2c6.5,0.4,15.3,1.5,24.4,2.7l49,7.8c0,0,34,3.7,35.3,22.4c0,0,0,0.1,0,0.1
			c-0.8,25.8-25.2,48.8-66.1,46.5C214.7,305.9,198,227.7,221,229.2z"/>
	</g>
	<g>
		<path class="st1" d="M174.2,242c26.2-12.2,52.6-23.9,79.2-35.1l0.7,0.1c0.6,0.2,1.2,0.4,1.7,0.7c0,0,0.1,0.1-0.3,0.2
			c-26.2,11.5-52,23.9-77.3,37.3L174.2,242z"/>
		<g>
			<path class="st1" d="M174.5,242.4c10.5-4.9,21-9.7,31.6-14.4c10.5-4.7,21-9.3,31.6-13.8c2.6-1.1,5.3-2.3,7.9-3.4
				c1.4-0.6,2.8-1.2,4.2-1.8c0.6-0.3,1.2-0.5,1.8-0.8c0.3-0.1,0.7-0.3,1-0.4c0.3-0.1,0.7-0.4,0.9-0.4c0.3,0,0.6,0.1,0.9,0.2
				c0.3,0.1,0.6,0.3,0.9,0.3c0.1,0,0.1,0.1,0.2,0.1c0-0.2,0-0.4,0.1-0.6c0,0-0.6,0.3-0.6,0.3c-1.3,0.6-2.6,1.1-3.9,1.7
				c-2.6,1.2-5.3,2.3-7.9,3.5c-10.3,4.7-20.6,9.5-30.8,14.5c-10.2,5-20.4,10.1-30.5,15.4c-1.3,0.7-2.5,1.3-3.8,2
				c0.2,0,0.4,0.1,0.6,0.1c-1.4-1.1-2.7-2.1-4.1-3.2c-0.5-0.4-1.2,0.3-0.7,0.7c1.4,1.1,2.7,2.1,4.1,3.2c0.2,0.1,0.4,0.2,0.6,0.1
				c10.4-5.5,20.8-10.8,31.3-15.9c10.5-5.2,21.1-10.2,31.8-15c2.7-1.2,5.3-2.4,8-3.6c1.3-0.6,2.7-1.2,4-1.8c0.7-0.3,1.3-0.6,2-0.9
				c0.3-0.1,0.8-0.3,0.8-0.8c0-0.5-0.6-0.6-0.9-0.8c-0.5-0.2-0.9-0.4-1.4-0.4c-0.4-0.1-0.6-0.1-0.9,0c-0.7,0.3-1.4,0.6-2,0.9
				c-2.7,1.1-5.4,2.3-8.2,3.4c-10.9,4.6-21.8,9.4-32.6,14.2c-10.8,4.8-21.5,9.7-32.3,14.7c-1.3,0.6-2.7,1.2-4,1.9
				C173.4,241.8,173.9,242.7,174.5,242.4z"/>
		</g>
	</g>
	<polygon class="st6" points="162.2,233.7 167.7,240.3 165.3,245.8 159.5,234.8 	"/>
	<g>
		<defs>
			<path id="XMLID_38_" d="M123.1,23.5c18.6,11.9,24,36.7,12.1,55.3s-52,29.9-70.6,18s-24-36.7-12.1-55.3S104.5,11.6,123.1,23.5z"/>
		</defs>
		<use xlink:href="#XMLID_38_"  style="overflow:visible;fill:#7A4623;"/>
		<clipPath id="XMLID_9_">
			<use xlink:href="#XMLID_38_"  style="overflow:visible;"/>
		</clipPath>
	</g>
	<g>
		<defs>
			<path id="XMLID_37_" d="M291.9,140.4c4.3,55.1-44.3,82.6-103.4,82.9c-59.6,0.2-104-25.8-104.2-82.1
				C84.1,93,130.4,53.8,187.7,53.6C245.1,53.4,288.1,92.4,291.9,140.4"/>
		</defs>
		<use xlink:href="#XMLID_37_"  style="overflow:visible;fill:#F7E7D6;"/>
		<clipPath id="XMLID_10_">
			<use xlink:href="#XMLID_37_"  style="overflow:visible;"/>
		</clipPath>
	</g>
	<g>
		<defs>
			<path id="XMLID_36_" d="M304.7,139.9c0,0,0-0.1,0-0.1c-0.1-1.6-0.2-3.2-0.3-4.7c-0.1-1.3-0.3-2.7-0.5-4.1
				c-1.3-16.6-2.9-27.8-2.9-27.8c-4.4-32.9-36.4-72.3-98.6-76.7c-51.3-3.6-69.7,17.7-74.6,25.3c-9,0.6-16.6,3.8-23,9
				C91,69.8,75.8,88,72.9,124.6c-0.6,7.4-0.7,14-0.5,19.9c1.5,39.8,19.8,46.5,26.8,47.6l0,0c1.7,0.3,2.8,0.2,2.8,0.2
				s-5-22.9,2.3-41.3l0,0c42.1-0.9,82.9-39.4,82.9-39.4c2.2,9.4-6.5,17.6-6.5,17.6c22.5-3.6,31-32.5,31-32.5
				c28.9-8.3,46,15.5,46,15.5s7.7,8,13.1,26.9c0.2,0.8,0.5,1.6,0.7,2.5c0,0,7.2,28,4.3,50.1C275.7,191.8,305.6,187.2,304.7,139.9z"
				/>
		</defs>
		<use xlink:href="#XMLID_36_"  style="overflow:visible;fill:#A05C2D;"/>
		<clipPath id="XMLID_11_">
			<use xlink:href="#XMLID_36_"  style="overflow:visible;"/>
		</clipPath>
	</g>
	<g>
		<defs>
			
				<rect id="SVGID_2_" x="75" y="-2.4" transform="matrix(0.9966 -8.198698e-02 8.198698e-02 0.9966 -8.6775 15.8423)" width="227.2" height="231.9"/>
		</defs>
		<clipPath id="SVGID_3_">
			<use xlink:href="#SVGID_2_"  style="overflow:visible;"/>
		</clipPath>
		<path class="st7" d="M276.5,173c-1.7-21-39.7-35.1-84.7-31.4c-45.1,3.7-80.2,23.8-78.5,44.8c1.1,13.2,16.4,23.6,38.8,28.7
			c3.6,2,11.9,6.6,14.4,8.3c3.2,2.1,2-3,7.6-3.3c5.6-0.3,5.7,4.7,5.7,4.7s3.8-4.6,7.4-5.1c3.6-0.5,6.5,6,6.5,6l4.2-7
			c0.4-0.6,1.2-0.6,1.6-0.1l5.3,6.2c0,0,1.8-6.9,5.4-7c3.7-0.1,8.2,3.8,8.2,3.8s-0.7-5,4.8-5.6c5.5-0.6,5.2,4.7,8,2
			c2.7-2.5,13-10.6,14.2-11.6C265.3,197.9,277.5,185.6,276.5,173"/>
		<path class="st8" d="M240.8,178.6c-19.9-0.7-43.8,3.3-46.9,3.8c-0.2,0-0.4,0.1-0.7,0.1c-3.1,0-27.4,0-46.9,3.9
			c-11.9,2.4-15.6,8.3-16.5,12.9c-0.5,2.6,2.4-1,5.5-1.7c1.5-0.3,3.3-0.5,5.3-0.4c1.8,0.1,3.1,1.1,4.1,2.4c1.5,2.1,5.3,8.1,7.4,6.2
			c1.3-1.2,2.9-2.2,5-2.7c5.8-1.5,9.3,1.1,11.4,4.7c1.4,2.3,5.3,2.6,7.4,0.6c1-0.9,2.1-1.6,3.5-1.9c4.9-1.3,10.8,3.9,14.1,7.6
			c1.4,1.6,3.8,1.4,5-0.4c2.7-4.2,7.6-10.3,12.7-9.8c1.5,0.1,2.7,0.6,3.8,1.3c2.5,1.6,6.3,0.7,7.2-1.9c1.5-3.8,4.5-7,10.5-6.5
			c2.1,0.2,3.8,0.9,5.3,1.9c2.4,1.5,4.5-4.9,5.6-7.2c0.7-1.5,1.8-2.6,3.6-3c2-0.5,3.8-0.6,5.3-0.5c3.2,0.2,7.3,3.1,6.4,0.7
			C257.6,184.2,253,179,240.8,178.6"/>
		<g class="st9">
			<defs>
				<path id="XMLID_20_" d="M194.4,184.5c5.5,5.9,13.2,9.4,21.5,8.7c15-1.2,26.1-15.7,24.8-32.2c-0.9-10.9-3.4-12.5-31.5-53.9
					c0.1,0.1,0.2,0.3,0.3,0.4c-0.1-0.2-0.2-0.4-0.2-0.7l-0.2,0.2c-5.4-7.1-1.5-18.3,7.2-19l13.8-1.1c11.1-0.9,21.7-9.2,27.8-25.2
					c10.9,14.4,18.1,32.2,19.7,52c0.7,8.2-0.6,17,4.6,29.9l0,0c2.3,5.9,6.3,12.4,11.5,17.4c-4.8,0.8-10,0.2-14.8-2.1
					c-1.4,9.8-0.4,20.1,3,29.4c-5.2-1.2-9.8-4-13.1-7.9c-0.8,7.1-0.3,14.3,1.2,20.9c-3.7-0.5-7.3-1.9-10.5-4.1
					c-3.1-2.1-5.8-5.1-7.5-8.6c-5.4,5.7-12.5,9.2-20.1,9.8l-72.3,5.9c-7.6,0.6-15.1-1.6-21.4-6.4c-1.2,3.8-3.3,7.1-6,9.7
					c-2.7,2.6-6.1,4.6-9.7,5.7c0.5-6.8-0.3-14-2.2-20.8c-2.6,4.4-6.7,7.9-11.6,9.9c1.8-9.7,1.1-20.1-1.9-29.5
					c-4.3,3-9.4,4.5-14.2,4.5c4.2-5.8,7.2-12.9,8.5-19.1l0,0c3.1-13.6,0.4-22.1-0.3-30.3c-1.6-19.8,2.5-38.6,11-54.5
					c8.6,14.8,20.4,21.2,31.5,20.3l13.8-1.1c8.7-0.7,14.4,9.6,10.2,17.6l-0.2-0.2c0,0.2-0.1,0.5-0.1,0.7c0.1-0.1,0.2-0.3,0.2-0.4
					c-20.9,45.4-23.2,47.4-22.3,58.3c1.4,16.5,14.7,28.9,29.7,27.7C182.9,195.9,190,191.3,194.4,184.5"/>
			</defs>
			<use xlink:href="#XMLID_20_"  style="overflow:visible;fill:#F4D5BD;"/>
			<clipPath id="XMLID_12_">
				<use xlink:href="#XMLID_20_"  style="overflow:visible;"/>
			</clipPath>
		</g>
		<path class="st10" d="M181.4,26.6c0.2,0,0.3,0,0.5,0c8-0.7,15.9-0.1,23.5,1.4c-7.5-1.5-15.4-2-23.4-1.4
			C181.8,26.6,181.6,26.6,181.4,26.6c-0.2,0.1-0.4,0.1-0.6,0.1c-8,0.7-15.7,2.4-22.8,5.2c7.2-2.8,14.9-4.6,23-5.2
			C181.1,26.6,181.3,26.6,181.4,26.6"/>
		<path class="st11" d="M194.4,184.6c6,6.4,14.6,9.7,23.2,8.3c0.6,7.6-4.5,14.2-11.4,14.8l-19.6,1.6c-6.9,0.6-13-5.1-13.7-12.7
			C181.6,196.6,189.5,191.9,194.4,184.6"/>
		<path class="st12" d="M301.3,154.9c0,0.4-0.3,0.8-0.7,0.9l-60.1,4.9c0-0.5-0.1-1.1-0.2-1.6l60.1-4.9
			C300.9,154.1,301.3,154.4,301.3,154.9"/>
		<path class="st12" d="M84.1,172.7c0,0.4,0.4,0.8,0.8,0.7l60.1-4.9c0-0.5-0.1-1.1-0.1-1.6l-60.1,4.9
			C84.4,171.9,84.1,172.3,84.1,172.7"/>
		<path class="st12" d="M297.4,165.6c0,0.4-0.3,0.8-0.7,0.9l-57,4.7c0.1-0.5,0.2-1.1,0.3-1.6l56.5-4.6
			C297,164.8,297.4,165.2,297.4,165.6"/>
		<path class="st12" d="M89.8,182.7c0,0.4,0.4,0.8,0.8,0.7l57-4.7c-0.2-0.5-0.4-1-0.6-1.6l-56.5,4.6C90,181.9,89.7,182.3,89.8,182.7
			"/>
		<path class="st12" d="M293.5,176.3c0,0.4-0.3,0.8-0.7,0.9l-57.9,4.8c0.4-0.5,0.8-1.1,1.1-1.7l56.7-4.7
			C293.1,175.6,293.5,175.9,293.5,176.3"/>
		<path class="st12" d="M95.4,192.6c0,0.4,0.4,0.8,0.8,0.7l57.9-4.8c-0.5-0.5-0.9-1-1.4-1.5L96,191.8
			C95.6,191.8,95.3,192.2,95.4,192.6"/>
		<g class="st9">
			<defs>
				<path id="XMLID_19_" d="M181.4,26.6c0.2,0,0.4,0,0.6-0.1c30.1-2.5,58,11.6,75.8,35.1c0,0,0,0,0,0c-6.1,16-16.6,24.3-27.8,25.2
					L216.4,88c-8.7,0.7-12.6,11.9-7.2,19l0.2-0.2c0.1,0.2,0.1,0.4,0.2,0.7c-0.1-0.1-0.2-0.3-0.3-0.4c28.1,41.4,30.6,42.9,31.5,53.9
					c1.4,16.5-9.7,31-24.8,32.2c-8.2,0.7-16-2.7-21.5-8.7c-4.5,6.8-11.5,11.4-19.8,12.1c-15,1.2-28.4-11.2-29.7-27.7
					c-0.9-10.9,1.3-12.9,22.3-58.3c-0.1,0.1-0.2,0.3-0.2,0.4c0-0.2,0.1-0.5,0.1-0.7l0.2,0.2c4.2-7.9-1.5-18.3-10.2-17.6L143.3,94
					c-11.1,0.9-22.9-5.6-31.5-20.3c0,0,0,0,0,0c13.8-26.1,38.9-44.5,69.1-47C181,26.6,181.2,26.6,181.4,26.6"/>
			</defs>
			<use xlink:href="#XMLID_19_"  style="overflow:visible;fill:#D88A4B;"/>
			<clipPath id="XMLID_14_">
				<use xlink:href="#XMLID_19_"  style="overflow:visible;"/>
			</clipPath>
		</g>
		<path class="st8" d="M247.2,49.8c0.8,0.7,1.6,1.5,2.4,2.3C248.8,51.3,248,50.6,247.2,49.8"/>
		<path class="st8" d="M120.4,60.2c-0.7,0.9-1.3,1.8-2,2.6C119.1,62,119.7,61.1,120.4,60.2"/>
		<path class="st8" d="M224.2,34.2l-0.2,0.2c0-0.1,0-0.2,0-0.3C224.1,34.2,224.2,34.2,224.2,34.2"/>
		<path class="st8" d="M140.5,41.1l0.2,0.2c0-0.1,0-0.2-0.1-0.3C140.6,41,140.5,41.1,140.5,41.1"/>
		<path class="st8" d="M256.1,65.8c0.4-0.8,0.8-1.6,1.1-2.5L256.1,65.8L256.1,65.8z"/>
		<path class="st8" d="M114.2,77.5c-0.5-0.7-1-1.5-1.5-2.3L114.2,77.5L114.2,77.5z"/>
		<path class="st13" d="M267.9,30.5c0.6,7.6-1.1,11.9-10,31.1c-10.1-13.3-23.4-23.6-38.5-29.5l11.2-12.7
			C242.8,4.9,266.1,9.6,267.9,30.5"/>
		<path class="st13" d="M96.8,44.6c0.6,7.6,3.1,11.6,14.9,29.1c7.8-14.8,19.3-27.1,33.2-35.4l-13.2-10.7
			C117.4,15.2,95.1,23.7,96.8,44.6"/>
		<path class="st14" d="M263,30.9c0.4,4.6-2.9,14-9,26c-4.8-5.5-10.2-10.4-16.1-14.6c1.5-5.4,4.9-10.1,9.3-13
			c-3.8-0.2-7.5,0.6-10.6,2.1c2.8-5.3,7.6-9.1,13-10.7c-4-1.5-8.1-1.8-11.8-1.1c2.6-1.8,5.6-2.9,8.8-3.2
			C253.9,15.8,262.1,20.1,263,30.9"/>
		<path class="st14" d="M101.7,44.2c0.4,4.6,5.2,13.3,13.2,24.1c3.8-6.2,8.4-12,13.5-17c-2.4-5.1-6.4-9.1-11.3-11.3
			c3.8-0.8,7.5-0.6,10.8,0.4c-3.7-4.8-8.9-7.8-14.6-8.4c3.7-2.2,7.7-3.1,11.4-3c-2.9-1.4-6-2-9.2-1.7
			C108.2,27.8,100.8,33.4,101.7,44.2"/>
		<path class="st12" d="M194.4,184.5c5.5,5.9,13.2,9.3,21.3,8.7c0.6-0.1,1.2-0.1,1.8-0.2c0.1,1.1-11,2.6-22.2,3.5
			c-11.2,0.9-22.4,1.3-22.5,0.1c0.6,0,1.2-0.1,1.8-0.2C183,195.8,190,191.2,194.4,184.5"/>
		<path class="st15" d="M238.4,94.5c0.8,10-5.9,18.7-14.9,19.4c-5.6,0.5-10.8-2.2-14.1-6.7c-1.3-3.7-0.7-7.7,1.2-10.6
			c1.5-2.5,4-4.2,7-4.5c2.6-0.2,12.6-1,12.9-1.1c0.7-0.1,1.4-0.1,2.1-0.3c1.6-0.3,3.3-0.7,4.9-1.3C237.9,91.1,238.2,92.8,238.4,94.5
			"/>
		<path class="st15" d="M136.4,102.9c0.8,10,8.9,17.5,17.9,16.7c5.6-0.5,10.3-3.9,12.9-8.9c0.7-3.8-0.6-7.7-2.9-10.3
			c-1.9-2.2-4.6-3.5-7.6-3.3c-2.6,0.2-12.6,1-12.9,1.1c-0.7,0.1-1.4,0.1-2.1,0.1c-1.6,0-3.3-0.1-5-0.4
			C136.3,99.5,136.2,101.2,136.4,102.9"/>
		<path class="st16" d="M233.5,94.9c0.6,7-4.1,13-10.4,13.6c-6.3,0.5-11.9-4.7-12.5-11.7c0-0.1,0-0.1,0-0.2c1.5-2.5,4-4.2,7-4.5
			c2.6-0.2,12.6-1,12.9-1.1c0.7-0.1,1.4-0.1,2.1-0.3C233,92.1,233.3,93.5,233.5,94.9"/>
		<path class="st16" d="M141.3,102.5c0.6,7,6.2,12.2,12.5,11.7c6.3-0.5,11-6.6,10.4-13.6c0-0.1,0-0.1,0-0.2
			c-1.9-2.2-4.6-3.5-7.6-3.3c-2.6,0.2-12.6,1-12.9,1.1c-0.7,0.1-1.4,0.1-2.1,0.1C141.3,99.6,141.2,101,141.3,102.5"/>
		<path class="st17" d="M225.7,97.7c0.2,2.3-1.3,4.3-3.4,4.5c-2.1,0.2-3.9-1.5-4.1-3.8c-0.2-2.3,1.3-4.3,3.4-4.5
			C223.7,93.7,225.6,95.4,225.7,97.7"/>
		<path class="st17" d="M149.4,104c0.2,2.3,2,4,4.1,3.8c2.1-0.2,3.6-2.2,3.4-4.5c-0.2-2.3-2-4-4.1-3.8
			C150.7,99.7,149.2,101.7,149.4,104"/>
		<path class="st18" d="M209.2,106.8c0.1,0.2,0.1,0.4,0.2,0.7c-0.1-0.1-0.2-0.3-0.3-0.4L209,107L209.2,106.8z"/>
		<path class="st18" d="M167.2,110.3c0,0.2-0.1,0.5-0.1,0.7c0.1-0.1,0.2-0.3,0.2-0.4l0-0.1L167.2,110.3z"/>
		<path class="st18" d="M218.7,92l-1.2,0.1c0.2,0,0.4-0.1,0.6-0.1C218.3,92,218.5,92,218.7,92"/>
		<path class="st18" d="M155.4,97.2l1.2-0.1c-0.2,0-0.4,0-0.6,0C155.8,97.2,155.6,97.2,155.4,97.2"/>
		<path class="st16" d="M226.1,95.9c0.1,1-0.6,1.8-1.4,1.9c-0.9,0.1-1.6-0.6-1.7-1.6c-0.1-1,0.6-1.8,1.4-1.9
			C225.2,94.2,226,94.9,226.1,95.9"/>
		<path class="st16" d="M148.8,102.3c0.1,1,0.9,1.7,1.7,1.6c0.9-0.1,1.5-0.9,1.4-1.9c-0.1-1-0.9-1.7-1.7-1.6
			C149.3,100.5,148.7,101.3,148.8,102.3"/>
		<path class="st12" d="M193.6,174.9c0.4,0,0.8,0.3,0.8,0.7l1.4,17.6c0,0.4-0.3,0.8-0.7,0.8c-0.4,0-0.8-0.3-0.8-0.7l-1.4-17.6
			C192.9,175.2,193.2,174.9,193.6,174.9"/>
		<path class="st12" d="M205.6,174.1c-0.5,0-0.9-0.3-0.9-0.9c0-0.5,0.3-1,0.8-1c0.5,0,0.9,0.3,0.9,0.9
			C206.4,173.6,206.1,174.1,205.6,174.1"/>
		<path class="st12" d="M181.7,176.1c0.5,0,0.8-0.5,0.8-1c0-0.5-0.5-0.9-0.9-0.9c-0.5,0-0.8,0.5-0.8,1
			C180.8,175.7,181.2,176.1,181.7,176.1"/>
		<path class="st12" d="M215.4,173.3c-0.5,0-0.9-0.3-0.9-0.9c0-0.5,0.3-1,0.8-1c0.5,0,0.9,0.3,0.9,0.9
			C216.3,172.8,215.9,173.3,215.4,173.3"/>
		<path class="st12" d="M171.9,176.9c0.5,0,0.8-0.5,0.8-1c0-0.5-0.5-0.9-0.9-0.9c-0.5,0-0.8,0.5-0.8,1
			C171,176.5,171.4,176.9,171.9,176.9"/>
		<path class="st12" d="M225.2,172.5c-0.5,0-0.9-0.3-0.9-0.9c0-0.5,0.3-1,0.8-1c0.5,0,0.9,0.3,0.9,0.9
			C226.1,172,225.7,172.4,225.2,172.5"/>
		<path class="st12" d="M162.1,177.7c0.5,0,0.8-0.5,0.8-1c0-0.5-0.5-0.9-0.9-0.9c-0.5,0-0.8,0.5-0.8,1
			C161.2,177.3,161.6,177.7,162.1,177.7"/>
		<path class="st12" d="M235,171.7c-0.5,0-0.9-0.3-0.9-0.9c0-0.5,0.3-1,0.8-1c0.5,0,0.9,0.3,0.9,0.9
			C235.8,171.2,235.5,171.6,235,171.7"/>
		<path class="st12" d="M152.3,178.5c0.5,0,0.8-0.5,0.8-1c0-0.5-0.5-0.9-0.9-0.9c-0.5,0-0.8,0.5-0.8,1
			C151.4,178.1,151.8,178.5,152.3,178.5"/>
		<path class="st12" d="M209.7,163.4c-0.5,0-0.9-0.3-0.9-0.9c0-0.5,0.3-1,0.8-1c0.5,0,0.9,0.3,0.9,0.9
			C210.5,162.9,210.2,163.3,209.7,163.4"/>
		<path class="st12" d="M175.9,166.1c0.5,0,0.8-0.5,0.8-1c0-0.5-0.5-0.9-0.9-0.9c-0.5,0-0.8,0.5-0.8,1
			C175,165.8,175.5,166.2,175.9,166.1"/>
		<path class="st12" d="M219.5,162.5c-0.5,0-0.9-0.3-0.9-0.9c0-0.5,0.3-1,0.8-1c0.5,0,0.9,0.3,0.9,0.9
			C220.3,162.1,220,162.5,219.5,162.5"/>
		<path class="st12" d="M166.1,166.9c0.5,0,0.8-0.5,0.8-1c0-0.5-0.5-0.9-0.9-0.9c-0.5,0-0.8,0.5-0.8,1
			C165.2,166.6,165.7,167,166.1,166.9"/>
		<path class="st12" d="M229.3,161.7c-0.5,0-0.9-0.3-0.9-0.9c0-0.5,0.3-1,0.8-1c0.5,0,0.9,0.3,0.9,0.9
			C230.1,161.3,229.8,161.7,229.3,161.7"/>
		<path class="st12" d="M156.3,167.7c0.5,0,0.8-0.5,0.8-1c0-0.5-0.5-0.9-0.9-0.9c-0.5,0-0.8,0.5-0.8,1
			C155.5,167.4,155.9,167.8,156.3,167.7"/>
		<path class="st12" d="M208.5,184.3c-0.5,0-0.9-0.3-0.9-0.9c0-0.5,0.3-1,0.8-1c0.5,0,0.9,0.3,0.9,0.9S209,184.2,208.5,184.3"/>
		<path class="st12" d="M180.5,186.6c0.5,0,0.8-0.5,0.8-1s-0.5-0.9-0.9-0.9c-0.5,0-0.8,0.5-0.8,1S180,186.6,180.5,186.6"/>
		<path class="st12" d="M218.3,183.5c-0.5,0-0.9-0.3-0.9-0.9c0-0.5,0.3-1,0.8-1c0.5,0,0.9,0.3,0.9,0.9S218.8,183.4,218.3,183.5"/>
		<path class="st12" d="M170.7,187.4c0.5,0,0.8-0.5,0.8-1s-0.5-0.9-0.9-0.9c-0.5,0-0.8,0.5-0.8,1S170.2,187.4,170.7,187.4"/>
		<path class="st12" d="M228.1,182.7c-0.5,0-0.9-0.3-0.9-0.9c0-0.5,0.3-1,0.8-1c0.5,0,0.9,0.3,0.9,0.9S228.6,182.6,228.1,182.7"/>
		<path class="st12" d="M160.9,188.2c0.5,0,0.8-0.5,0.8-1c0-0.5-0.5-0.9-0.9-0.9c-0.5,0-0.8,0.5-0.8,1
			C160,187.8,160.4,188.2,160.9,188.2"/>
		<path class="st14" d="M257.9,61.7c-1.5,18.2-15.1,28.4-27.5,29.4c-0.3,0-10.3,0.8-12.9,1.1c-6.7,0.6-10.6,8.6-8.1,15.3
			c-6-7.1-2-18.8,6.8-19.5l13.8-1.1C241.1,85.9,251.8,77.6,257.9,61.7"/>
		<path class="st14" d="M111.8,73.7c4.5,17.7,19.6,25.5,32,24.5c0.3,0,10.3-0.9,12.9-1.1c6.7-0.5,11.8,6.7,10.5,13.8
			c4.7-8-1-18.8-9.9-18.1L143.4,94C132.2,94.9,120.4,88.4,111.8,73.7"/>
		<path class="st19" d="M209.4,107.5c-0.9-1-1.5-2.1-2-3.3c0.5,1.1,1.2,2.2,1.9,3.1C209.3,107.3,209.4,107.4,209.4,107.5"/>
		<path class="st19" d="M167.1,110.9c0.7-1.2,1.1-2.4,1.4-3.6c-0.3,1.2-0.8,2.3-1.4,3.4C167.1,110.8,167.1,110.9,167.1,110.9"/>
		<path class="st20" d="M234.1,72.4c-6.7,2.6-12.6,0.2-19.1,3.3c-4.1,1.9-6.6,8.1-6.3,11.7c0.8-2.9,5.2-9.9,12.9-9.5
			c8.8,0.4,12.5-0.1,16.8-2.8c6.3-3.9,9.8-9.9,10.3-16.8C245.3,66.2,241.5,69.5,234.1,72.4"/>
		<path class="st20" d="M137,80.3c7,1.4,12.4-1.9,19.4,0.1c4.3,1.2,7.8,6.9,8.1,10.5c-1.3-2.7-6.8-8.9-14.3-7.3
			c-8.6,1.8-12.3,2-17.1,0c-6.8-2.8-11.3-8.2-12.9-14.9C124.9,76.1,129.3,78.8,137,80.3"/>
		<path class="st20" d="M186.7,91c0.3-0.7,0.5-1.5,0.9-2.2c0.3-0.8,0.7-1.6,1.2-2.5c14.9-29.1,40.9-5.6,46.8-39.6
			c-5.2,11.4-11.1,14.5-19.4,16.5c-7.6,1.9-14.5-1-24.7,6.6c-1.3,1-2.6,2.3-3.7,4.1c0.5-3.2,1.7-6.2,3.5-8.9c-0.7,0.4-1.4,0.8-2,1.2
			c3.2-7.5,0.5-20.5-6.6-25.4c-6.3,6-6.7,19.2-2.4,26.1c-0.7-0.4-1.4-0.7-2.1-0.9c2.2,2.4,3.9,5.2,4.9,8.2c-1.4-1.7-2.9-2.7-4.4-3.5
			c-11.3-5.8-17.7-1.9-25.4-2.5c-8.5-0.7-14.9-2.7-21.9-13.1c11.4,32.5,33.2,5.1,52.6,31.4c0.6,0.7,1.1,1.5,1.5,2.2
			C186,89.7,186.4,90.4,186.7,91"/>
		<path class="st20" d="M194.5,63.2c13.1-10.3,28.5,1.1,32.5-21.7c-3.6,8-7.8,9.2-13.6,10.6c-4.1,1-8.6,0-13.8,2.2
			c-1.4-11.4-7.9-21-16.7-22.2C191.6,35.6,195.3,49.2,194.5,63.2"/>
		<path class="st20" d="M174.5,64.9c-14.6-8-28,5.7-35.6-16.1c4.9,7.3,9.2,7.8,15.2,8.2c4.2,0.3,8.5-1.4,14-0.1
			c-0.5-11.5,4.3-22,12.8-24.6C172.9,37.2,171.5,51.2,174.5,64.9"/>
		<path class="st20" d="M241.3,51.2c-0.7,8.4-6.3,15.1-13.6,16.7C236.8,70.9,245,60.9,241.3,51.2"/>
		<path class="st20" d="M126.4,60.6c2.1,8.1,8.7,13.8,16.2,14.2C134.1,79.3,124.4,70.8,126.4,60.6"/>
		<path class="st20" d="M192.4,116.8c8.6-0.2,13-11.3,7.3-18.5C201.2,105.6,198.2,113.1,192.4,116.8"/>
		<path class="st20" d="M185.4,117.3c-8.5,1.2-14.6-9.1-10.2-17.1C174.9,107.8,179.1,114.7,185.4,117.3"/>
		<path class="st20" d="M193.6,89.4c0.6,0.2,1.2,0.3,1.7,0.3c-6,3-8.8,11.7-4.5,18.5c-1.5-11.1,5.4-14.8,9.4-17.4
			c5.6-3.6,7.8-11,5.3-17C205.1,81.4,200.2,87.7,193.6,89.4"/>
		<path class="st20" d="M179.7,90.5c-0.6,0.3-1.1,0.5-1.7,0.6c6.4,2,10.6,10.1,7.5,17.5c-0.3-11.2-7.8-13.7-12.1-15.6
			c-6.1-2.7-9.5-9.6-8-15.9C167,84.6,172.9,89.9,179.7,90.5"/>
		<path class="st20" d="M204.1,47.6c6.6,1.6,14.2-1.8,17.3-9c-4,3.2-9.1,4.9-14.1,3.9c-1.3-5.6-4.7-9.9-10.8-10.6
			C202.1,35.3,203.3,42,204.1,47.6"/>
		<path class="st20" d="M162.5,51c-6.3,2.6-14.3,0.6-18.5-6.1c4.4,2.5,9.7,3.4,14.5,1.5c0.4-5.8,3-10.6,8.9-12.2
			C162.5,38.6,162.4,45.3,162.5,51"/>
		<path class="st19" d="M232.8,115.1c9.2-4.5,14.6-14.6,13.4-25.4C253.9,101,245.9,116.7,232.8,115.1"/>
		<path class="st19" d="M145.3,122.3c-9.8-3-16.8-12-17.3-22.8C122.1,111.9,132.5,126.1,145.3,122.3"/>
		<path class="st19" d="M234.8,127.4c19.8-7,22.9-20.2,20.7-38.5C266.8,107.6,257,129.6,234.8,127.4"/>
		<path class="st19" d="M145.3,134.8c-20.7-3.6-25.9-16.2-26.7-34.6C110.5,120.4,123.8,140.5,145.3,134.8"/>
		<path class="st19" d="M271.6,114.2c0-9.3-1.8-20.7-6.4-26c5.3,20.2,0.6,44.2-21.5,51.4c9.4,0.1,17.4-3.2,22.9-8.4
			c3.1,13.6,10.9,17.5,13.1,18.3C272.2,137.3,271.6,124.9,271.6,114.2"/>
		<path class="st19" d="M106.9,127.8c-1.5-9.1-1.6-20.8,2-26.7c-2,20.8,6.6,43.8,29.6,47.2c-9.2,1.7-17.7-0.3-24-4.6
			c-0.9,13.9-7.9,19.1-10,20.2C110,150.6,108.6,138.3,106.9,127.8"/>
		<path class="st21" d="M191.8,152c0.5,0.1,1.1,0.1,1.7,0c1.3-0.1,2.4-0.8,3.2-2c1.5-2.2,0.4-0.7,2.9-4.3c1.5-2.2,3.3-3.3,5.4-3.4
			c3.8-0.3,6.8-3.6,7.2-7.6c3.9,5.4,1.8,12.9-3.4,15.4c-0.3-1.4-1.5-2.3-2.8-2.2c-1.4,0.1-2.5,1.5-2.4,3.1c0.1,0.9,0.5,1.7,1.2,2.2
			c-2.6,3.9-7.6,11.2-7.6,11.2l0.7,8.6l-3.8,5.7l-4.7-5l-0.7-8.6c0,0-6.1-6.5-9.3-9.8c0.6-0.6,0.9-1.4,0.8-2.3
			c-0.1-1.6-1.4-2.8-2.9-2.7c-1.3,0.1-2.3,1.3-2.4,2.6c-5.6-1.6-8.9-8.7-5.9-14.6c1.1,3.9,4.5,6.7,8.3,6.3c2.1-0.2,4.1,0.6,5.9,2.5
			c3,3.2,1.8,1.9,3.6,3.8c0.9,1,2.2,1.5,3.5,1.4C190.7,152.3,191.2,152.2,191.8,152"/>
	</g>
	<g>
		<defs>
			<path id="XMLID_18_" d="M138.8,233.5c0,0-2.7-29.1,29.2-24.6c31.8,4.5,4.5,67.7-1.5,83.7c-6,16.1-2,42.1,17.4,41.8l-42.9,0.9
				c0,0-9-30.1,18-74.7s-8.3-16-8.3-16s-19.3,16.9-21.7,15.2S138.8,233.5,138.8,233.5z"/>
		</defs>
		<use xlink:href="#XMLID_18_"  style="overflow:visible;fill:#EDEDED;"/>
		<clipPath id="XMLID_16_">
			<use xlink:href="#XMLID_18_"  style="overflow:visible;"/>
		</clipPath>
		<g class="st22">
			<path class="st23" d="M154.5,231.6c-0.7,0.1-1.4-0.6-1.3-1.3c0.1-0.7,1-1.1,1.6-0.8c0.6,0.3,0.8,1.3,0.4,1.8
				c-0.5,0.5-1.4,0.5-1.9,0c-0.2-0.3-0.3-0.7-0.1-1c0.2-0.4,0.6-0.5,1-0.5c0.3,0,0.6,0.2,0.6,0.5c0,0.3-0.3,0.6-0.5,0.4
				c-0.2-0.2-0.1-0.6,0.2-0.7c0.1,0.3-0.4,0.4-0.5,0.2"/>
			<g>
				<path d="M154.4,231.1C154.5,231.1,154.4,231.1,154.4,231.1c-0.1,0-0.1,0-0.1,0C154.3,231.1,154.3,231.1,154.4,231.1
					C154.3,231.1,154.3,231.1,154.4,231.1c-0.1,0-0.2,0-0.2,0c0,0,0,0,0,0c0,0,0,0,0,0c0,0-0.1,0-0.1,0c0,0-0.1,0-0.1-0.1
					c-0.1,0,0.1,0.1,0,0c0,0,0,0,0,0c0,0-0.1-0.1-0.1-0.1c0,0,0-0.1,0,0c0,0,0,0-0.1-0.1c0,0,0-0.1-0.1-0.1c0-0.1,0,0,0,0
					c0,0,0,0,0-0.1c0,0,0-0.1,0-0.1c0-0.1,0,0.1,0,0c0,0,0-0.1,0-0.1c0,0,0,0,0-0.1c0-0.1,0,0,0,0c0,0,0-0.1,0-0.1c0,0,0,0,0,0
					c0,0.1,0,0.1,0,0c0,0,0-0.1,0.1-0.1c0,0,0.1-0.1,0,0c-0.1,0.1,0,0,0,0c0,0,0.1-0.1,0.1-0.1c0,0,0,0,0,0c0,0-0.1,0.1,0,0
					c0,0,0.1-0.1,0.1-0.1c0,0,0.1,0,0.1-0.1c-0.1,0.1-0.1,0,0,0c0,0,0,0,0.1,0c0,0,0.1,0,0.1,0c0,0,0,0,0.1,0c-0.1,0-0.1,0,0,0
					c0,0,0.1,0,0.1,0c0,0,0,0,0.1,0c0.1,0-0.1,0-0.1,0c0,0,0.1,0,0.1,0c0,0,0,0,0,0c0.1,0-0.1-0.1,0,0c0,0,0.1,0,0.1,0.1
					c0,0,0.1,0.1,0,0c-0.1-0.1,0,0,0,0c0,0,0.1,0.1,0.1,0.1c0,0,0,0.1,0,0c0,0,0,0,0,0.1c0,0,0,0.1,0.1,0.1c0,0,0,0,0,0.1
					c0,0.1,0,0,0,0c0,0.1,0.1,0.2,0.1,0.2c0,0.1,0-0.1,0,0c0,0,0,0,0,0.1c0,0,0,0.1,0,0.1c0,0,0,0,0,0.1c0,0.1,0-0.1,0-0.1
					c0,0,0,0.1,0,0.2c0,0-0.1,0.1,0,0.1c0-0.1,0,0,0,0.1c0,0-0.1,0.1-0.1,0.1c0,0,0.1-0.1,0,0c0,0,0,0-0.1,0.1c0,0,0,0,0,0
					c0,0-0.1,0,0,0c0,0-0.1,0-0.1,0.1c0,0-0.1,0-0.1,0.1c0.1-0.1,0.1,0,0,0c0,0-0.1,0-0.1,0C154.5,231.2,154.5,231.2,154.4,231.1
					c0,0.1,0.2,0.1,0.1,0.1C154.5,231.2,154.4,231.2,154.4,231.1C154.4,231.2,154.3,231.2,154.4,231.1c-0.1,0.1-0.3,0-0.1,0.1
					c-0.1,0-0.2,0-0.2-0.1c0,0-0.1,0,0,0c0,0,0,0,0,0c0,0-0.1,0-0.1-0.1c0,0-0.1-0.1,0,0c0,0,0,0,0,0c0,0-0.1-0.1-0.1-0.1
					c0,0,0,0,0,0c0.1,0.1,0,0.1,0,0c0,0,0,0,0-0.1c0,0,0,0,0,0c0,0,0,0,0,0c0,0,0-0.1,0-0.2c0,0,0-0.1,0,0c0,0,0,0,0-0.1
					c0,0,0-0.1,0-0.1c0,0,0,0.1,0,0c0,0,0,0,0-0.1c0,0,0,0,0-0.1c0,0.1,0,0.1,0,0c0,0,0,0,0-0.1c0-0.1-0.1,0.1,0,0
					c0,0,0.1-0.1,0.1-0.1c0,0,0,0-0.1,0c0,0,0,0,0,0c0,0,0,0,0.1,0c0,0,0.1,0,0,0c0,0,0.1,0,0.1,0c0,0,0,0,0.1,0c0.1,0,0.1,0,0,0
					c0,0,0.1,0,0.1,0c0,0,0,0,0.1,0c0.1,0-0.1,0,0,0c0.1,0,0.1,0,0.2,0c0.1,0,0,0,0,0c0,0,0.1,0,0.1,0.1c0.1,0,0,0,0,0
					c0,0,0,0,0.1,0.1c0.1,0.1,0,0,0,0c0,0,0,0.1,0,0.1c0,0,0,0,0-0.1c0,0,0,0,0,0.1c0,0,0-0.1,0-0.1c0,0,0,0,0,0.1c0,0,0-0.1,0-0.1
					c0,0.1,0.1-0.1,0,0c0,0-0.1,0.1,0,0c0,0,0,0,0,0c0,0,0,0,0,0c0,0,0,0,0,0c-0.1,0,0.1,0,0,0c0,0,0.1,0,0.1,0c0,0,0,0,0,0
					c0.1,0,0.1,0,0,0c0.1,0,0.1,0,0.1,0c0.1,0.1,0.1,0.1,0.2,0.2c0,0,0,0,0-0.1c0,0.1,0,0.1,0,0c0,0,0,0,0,0c0,0.1,0,0.1,0,0.1
					c0,0,0,0,0,0c0-0.1,0,0.1,0,0c0,0,0-0.1,0,0c0,0.1,0,0,0,0c0,0-0.1,0.1,0,0c0,0,0,0-0.1,0c0,0,0,0,0,0c-0.2-0.1-0.5-0.2-0.7-0.3
					c0,0.1,0,0,0-0.1c0,0.1,0,0,0-0.1c0,0,0,0,0-0.1c0,0,0,0,0-0.1c0,0-0.1,0.1,0,0c-0.1,0.1,0.1,0,0,0c-0.1,0-0.1,0,0,0
					c0,0-0.1,0,0.1,0c-0.1,0,0.1,0.1,0,0c0.1,0,0.1,0.1,0.1,0.1c0,0,0,0,0,0.1c-0.1-0.2-0.3-0.4-0.6-0.3c-0.2,0.1-0.4,0.4-0.3,0.6
					c0.1,0.2,0.2,0.4,0.5,0.5c0.2,0,0.3,0,0.5,0c0.4-0.1,0.7-0.5,0.5-0.9c-0.1-0.3-0.5-0.4-0.7-0.3c-0.3,0.2-0.5,0.6-0.5,0.9
					c0,0.2,0.1,0.5,0.3,0.6c0.2,0.1,0.4,0.1,0.6,0.1c0.4-0.1,0.7-0.5,0.7-0.9c0-0.4-0.3-0.7-0.6-0.9c-0.7-0.3-1.5-0.1-1.9,0.5
					c-0.2,0.3-0.3,0.7-0.2,1.1c0.1,0.4,0.3,0.7,0.6,0.9c0.4,0.3,1.1,0.4,1.6,0.2c0.3-0.1,0.6-0.3,0.8-0.6c0.2-0.2,0.2-0.5,0.3-0.8
					c0-0.6-0.3-1.2-0.8-1.5c-0.5-0.3-1.2-0.3-1.7,0c-0.3,0.1-0.5,0.4-0.6,0.6c-0.2,0.3-0.2,0.7-0.2,1c0.1,0.6,0.7,1.2,1.3,1.3
					c0.2,0,0.4,0,0.6,0c0.1,0,0.2-0.1,0.3-0.2c0.1-0.1,0.1-0.3,0.1-0.4c0-0.1-0.1-0.2-0.2-0.3C154.6,231.1,154.5,231.1,154.4,231.1
					L154.4,231.1z"/>
			</g>
		</g>
		<polygon class="st24" points="137.2,232.6 143.9,233.4 150.3,240.6 154.1,242 154.3,246.7 131.6,262 126.3,260.4 127.3,254.5 
			132.6,238.8 		"/>
		<g class="st22">
			<path class="st23" d="M137.4,230.7c2-1.2,4.7-0.4,6.6,1c1.9,1.5,3.3,3.4,5.1,4.9c1.8,1.5,4.5,2.4,6.6,1.2c0.5-0.3,1-0.7,1.6-0.9
				c0.6-0.2,1.3,0.1,1.5,0.6c0.1,0.5-0.2,0.9-0.5,1.3c-1.1,1.3-2.5,2.3-4.1,3c-0.6,0.2-1.1,0.4-1.7,0.4c-1.8,0-3.2-1.5-4.4-2.9
				c-3.2-3.6-7.3-7.1-12.2-7"/>
			<g>
				<path d="M137.7,231.1c3.3-1.9,6.7,1.4,8.8,3.6c2.1,2.3,5,4.8,8.3,4c0.8-0.2,1.4-0.6,2-1c0.3-0.2,0.7-0.4,1.1-0.3
					c0.7,0.2,0.2,0.9-0.1,1.2c-1.1,1.3-2.7,2.4-4.4,2.9c-1.8,0.6-3.2-0.6-4.4-1.8c-1.1-1.2-2.2-2.5-3.5-3.6c-2.7-2.4-6-4.3-9.7-4.3
					c-0.6,0-0.6,1,0,1c3.8,0,7.1,2.2,9.8,4.8c1.3,1.2,2.4,2.7,3.8,3.9c1.5,1.2,3.1,1.5,4.9,0.8c1.7-0.7,3.2-1.8,4.4-3.2
					c0.5-0.6,0.9-1.4,0.3-2.1c-0.4-0.5-1.1-0.7-1.7-0.6c-0.9,0.2-1.5,0.9-2.4,1.2c-0.9,0.3-1.8,0.2-2.7,0c-1.9-0.5-3.3-1.9-4.7-3.3
					c-1.5-1.5-2.9-3.2-4.8-4.1c-1.7-0.8-3.8-1.1-5.5-0.1C136.6,230.6,137.1,231.5,137.7,231.1L137.7,231.1z"/>
			</g>
		</g>
		<g class="st22">
			<path class="st23" d="M138.2,232c2.6,1.1,5.9,2.9,8.2,4.5c-1.8-2.7-5-4.1-8-5.4c0.8-0.5,1.8,0,2.6,0.6c1.4,1.1,2.7,2.2,4,3.5
				c-1.5-1.1-2.9-2.5-4.1-4c2.3,0.6,4.3,2.2,5.3,4.3c-2-1.6-4-3.2-5.9-5c2,0.6,3.5,2.2,4.9,3.8c1.8,2,3.4,4.1,5.1,6.3
				c-1.8-1.5-3.5-3.1-5-4.9c1.5,2.5,3.7,4.5,6.2,5.9c-1.8-2-3.6-4-5.5-6c2.4,1.2,4.3,3.2,6.1,5.1c-2.2-1.5-4.1-3.4-5.6-5.6
				c2.3,1.9,4.4,4,6.5,6.1c-0.7,0-1.4-0.2-2-0.4c0.6,0.8,1.7,1.3,2.7,1.1c0.3,0,0.6-0.1,0.7-0.4c0.1-0.3-0.2-0.7-0.5-0.9
				c-1-0.7-2.1-1.1-3.3-1.1c1.5,1,3.3,1.6,5.1,1.8c-1.3-1-2.7-1.9-4.2-2.5c1.3,0.6,2.6,1.2,3.9,1.8c-1.3-0.7-2.7-1.3-4.1-1.8
				c1.6,0.6,3.2,0.9,4.8,1.1c-0.7-0.2-1.5-0.3-2.2-0.5c0.7-0.3,1.5-0.5,2.3-0.5c-0.7,0.1-1.4,0.2-2.1,0.3c0.8-0.8,2.1-1.2,3.2-1
				c-0.2,0.9-1.4,1.5-2.2,1.1c0.3-0.4,0.6-0.8,1-1.2c0.3-0.3,0.8-0.5,1.1-0.3c0.4,0.2,0.2,0.9-0.2,0.8c-0.1-0.5,0.4-1,0.9-0.8
				c0,0.2,0,0.5,0,0.7"/>
			<g>
				<path d="M137.9,232.5c2.9,1.2,5.6,2.8,8.2,4.5c0.4,0.3,1-0.3,0.7-0.7c-2-2.8-5.1-4.2-8.2-5.5c0,0.3,0,0.6,0,0.9
					c1-0.6,2.4,0.9,3.2,1.5c1,0.8,1.9,1.7,2.8,2.6c0.2-0.3,0.4-0.5,0.6-0.8c-1.5-1.1-2.8-2.4-3.9-3.9c-0.2,0.2-0.4,0.5-0.6,0.7
					c2.2,0.6,4,2.1,5,4.1c0.3-0.2,0.5-0.4,0.8-0.6c-2-1.6-4-3.2-5.9-5c-0.2,0.3-0.3,0.6-0.5,0.8c2.1,0.6,3.6,2.4,5,4
					c1.6,1.9,3.2,3.9,4.8,5.9c0.2-0.2,0.5-0.5,0.7-0.7c-1.8-1.5-3.5-3.1-5-4.9c-0.4-0.4-1.1,0.1-0.8,0.6c1.6,2.5,3.8,4.6,6.4,6
					c0.5,0.3,1-0.4,0.6-0.8c-1.8-2-3.6-4-5.5-6c-0.2,0.3-0.4,0.5-0.6,0.8c2.4,1.2,4.2,3.1,6,5c0.2-0.3,0.4-0.5,0.6-0.8
					c-2.1-1.4-4-3.3-5.4-5.4c-0.3,0.2-0.5,0.4-0.8,0.6c2.3,1.9,4.4,4,6.5,6.1c0.1-0.3,0.2-0.6,0.4-0.9c-0.6,0-1.2-0.2-1.9-0.4
					c-0.5-0.2-0.8,0.5-0.5,0.8c0.6,0.7,1.4,1.1,2.2,1.2c0.7,0.1,1.7,0,2-0.8c0.3-0.9-0.8-1.5-1.4-1.9c-0.9-0.5-1.8-0.7-2.8-0.8
					c-0.5,0-0.7,0.7-0.3,0.9c1.7,1,3.5,1.6,5.4,1.9c0.4,0.1,0.7-0.6,0.4-0.9c-1.3-1.1-2.8-2-4.4-2.6c-0.5-0.2-0.9,0.7-0.4,0.9
					c1.3,0.6,2.6,1.2,3.9,1.8c0.6,0.3,1.1-0.6,0.5-0.9c-1.4-0.7-2.8-1.3-4.2-1.9c-0.1,0.3-0.2,0.6-0.3,1c1.6,0.6,3.3,0.9,4.9,1.2
					c0.6,0.1,0.7-0.9,0.1-1c-0.7-0.2-1.5-0.3-2.2-0.5c0,0.3,0,0.6,0,1c0.7-0.3,1.4-0.4,2.2-0.4c0-0.3-0.1-0.7-0.1-1
					c-0.7,0.1-1.4,0.2-2.1,0.3c0.2,0.3,0.3,0.6,0.5,0.8c0.7-0.7,1.7-1,2.7-0.9c-0.1-0.2-0.2-0.4-0.3-0.6c-0.2,0.7-1,1-1.6,0.7
					c0.1,0.2,0.2,0.5,0.3,0.7c0.2-0.3,0.5-0.6,0.7-0.9c0.1-0.1,0.3-0.2,0.4-0.3c0.1-0.1,0.4-0.3,0.5-0.2c0.1,0.2,0.2,0.3,0.4,0.5
					c-0.1-0.2,0-0.3,0.2-0.4c-0.1-0.2-0.2-0.3-0.4-0.5c0,0.2,0,0.5,0,0.7c0,0.6,1,0.6,1,0c0-0.2,0-0.5,0-0.7c0-0.2-0.2-0.5-0.4-0.5
					c-0.8-0.1-1.6,0.4-1.5,1.3c0,0.2,0.1,0.4,0.4,0.5c1,0.3,1.4-1.1,0.6-1.6c-1.1-0.7-2.4,0.9-2.9,1.6c-0.2,0.3,0,0.6,0.3,0.7
					c1.2,0.5,2.5-0.2,2.8-1.4c0.1-0.2-0.1-0.6-0.3-0.6c-1.4-0.2-2.7,0.2-3.7,1.1c-0.4,0.4,0,0.9,0.5,0.8c0.7-0.1,1.4-0.2,2.1-0.3
					c0.6-0.1,0.4-1-0.1-1c-0.8,0-1.6,0.2-2.4,0.5c-0.4,0.2-0.5,0.8,0,1c0.7,0.2,1.5,0.3,2.2,0.5c0-0.3,0.1-0.7,0.1-1
					c-1.6-0.2-3.2-0.6-4.7-1.1c-0.6-0.2-0.9,0.7-0.3,1c1.4,0.5,2.7,1.1,4,1.8c0.2-0.3,0.3-0.6,0.5-0.9c-1.3-0.6-2.6-1.2-3.9-1.8
					c-0.1,0.3-0.3,0.6-0.4,0.9c1.4,0.6,2.8,1.4,4,2.4c0.1-0.3,0.2-0.6,0.4-0.9c-1.7-0.2-3.4-0.8-4.9-1.7c-0.1,0.3-0.2,0.6-0.3,0.9
					c0.6,0,1.1,0.2,1.7,0.4c0.4,0.1,1.2,0.4,1.4,0.8c0.3,0.5-0.9,0.3-1.1,0.2c-0.5-0.2-0.9-0.5-1.3-0.9c-0.2,0.3-0.3,0.6-0.5,0.8
					c0.7,0.3,1.4,0.4,2.1,0.4c0.4,0,0.6-0.6,0.4-0.9c-2.1-2.2-4.2-4.2-6.5-6.1c-0.4-0.3-1.1,0.1-0.8,0.6c1.5,2.3,3.5,4.2,5.8,5.7
					c0.5,0.3,1-0.4,0.6-0.8c-1.8-2-3.7-4-6.2-5.2c-0.5-0.3-1,0.4-0.6,0.8c1.8,2,3.6,4,5.5,6c0.2-0.3,0.4-0.5,0.6-0.8
					c-2.5-1.3-4.6-3.3-6-5.7c-0.3,0.2-0.5,0.4-0.8,0.6c1.5,1.8,3.2,3.4,5,4.9c0.5,0.4,1.1-0.2,0.7-0.7c-1.7-2.1-3.4-4.2-5.1-6.3
					c-1.4-1.6-3-3.3-5.1-3.9c-0.5-0.1-0.9,0.5-0.5,0.8c1.9,1.7,3.9,3.4,5.9,5c0.4,0.3,1-0.1,0.8-0.6c-1.1-2.2-3.2-3.9-5.6-4.6
					c-0.4-0.1-0.8,0.4-0.6,0.7c1.2,1.6,2.6,3,4.2,4.2c0.5,0.3,1-0.4,0.6-0.8c-1.2-1.2-2.4-2.3-3.7-3.3c-1-0.8-2.2-1.6-3.5-0.9
					c-0.3,0.2-0.4,0.7,0,0.9c2.9,1.2,6,2.5,7.8,5.2c0.2-0.2,0.5-0.5,0.7-0.7c-2.6-1.7-5.4-3.3-8.2-4.5
					C137.9,231.3,137.4,232.2,137.9,232.5L137.9,232.5z"/>
			</g>
		</g>
	</g>
	<g>
		<defs>
			<path id="XMLID_17_" d="M135.8,233.5c0,0-2.7-29.1,29.2-24.6c31.8,4.5,4.5,67.7-1.5,83.7c-6,16.1-2,42.1,17.4,41.8l-42.9,0.9
				c0,0-9-30.1,18-74.7s-8.3-16-8.3-16s-19.3,16.9-21.7,15.2S135.8,233.5,135.8,233.5z"/>
		</defs>
		<use xlink:href="#XMLID_17_"  style="overflow:visible;fill:#FFFFFF;"/>
		<clipPath id="XMLID_22_">
			<use xlink:href="#XMLID_17_"  style="overflow:visible;"/>
		</clipPath>
		<g class="st25">
			<g>
				<path d="M151.4,231.1C151.5,231.1,151.4,231.1,151.4,231.1c-0.1,0-0.1,0-0.1,0C151.3,231.1,151.3,231.1,151.4,231.1
					C151.3,231.1,151.3,231.1,151.4,231.1c-0.1,0-0.2,0-0.2,0c0,0,0,0,0,0c0,0,0,0,0,0c0,0-0.1,0-0.1,0c0,0-0.1,0-0.1-0.1
					c-0.1,0,0.1,0.1,0,0c0,0,0,0,0,0c0,0-0.1-0.1-0.1-0.1c0,0,0-0.1,0,0c0,0,0,0-0.1-0.1c0,0,0-0.1-0.1-0.1c0-0.1,0,0,0,0
					c0,0,0,0,0-0.1c0,0,0-0.1,0-0.1c0-0.1,0,0.1,0,0c0,0,0-0.1,0-0.1c0,0,0,0,0-0.1c0-0.1,0,0,0,0c0,0,0-0.1,0-0.1c0,0,0,0,0,0
					c0,0.1,0,0.1,0,0c0,0,0-0.1,0.1-0.1c0,0,0.1-0.1,0,0c-0.1,0.1,0,0,0,0c0,0,0.1-0.1,0.1-0.1c0,0,0,0,0,0c0,0-0.1,0.1,0,0
					c0,0,0.1-0.1,0.1-0.1c0,0,0.1,0,0.1-0.1c-0.1,0.1-0.1,0,0,0c0,0,0,0,0.1,0c0,0,0.1,0,0.1,0c0,0,0,0,0.1,0c-0.1,0-0.1,0,0,0
					c0,0,0.1,0,0.1,0c0,0,0,0,0.1,0c0.1,0-0.1,0-0.1,0c0,0,0.1,0,0.1,0c0,0,0,0,0,0c0.1,0-0.1-0.1,0,0c0,0,0.1,0,0.1,0.1
					c0,0,0.1,0.1,0,0c-0.1-0.1,0,0,0,0c0,0,0.1,0.1,0.1,0.1c0,0,0,0.1,0,0c0,0,0,0,0,0.1c0,0,0,0.1,0.1,0.1c0,0,0,0,0,0.1
					c0,0.1,0,0,0,0c0,0.1,0.1,0.2,0.1,0.2c0,0.1,0-0.1,0,0c0,0,0,0,0,0.1c0,0,0,0.1,0,0.1c0,0,0,0,0,0.1c0,0.1,0-0.1,0-0.1
					c0,0,0,0.1,0,0.2c0,0-0.1,0.1,0,0.1c0-0.1,0,0,0,0.1c0,0-0.1,0.1-0.1,0.1c0,0,0.1-0.1,0,0c0,0,0,0-0.1,0.1c0,0,0,0,0,0
					c0,0-0.1,0,0,0c0,0-0.1,0-0.1,0.1c0,0-0.1,0-0.1,0.1c0.1-0.1,0.1,0,0,0c0,0-0.1,0-0.1,0C151.5,231.2,151.5,231.2,151.4,231.1
					c0,0.1,0.2,0.1,0.1,0.1C151.5,231.2,151.4,231.2,151.4,231.1C151.4,231.2,151.3,231.2,151.4,231.1c-0.1,0.1-0.3,0-0.1,0.1
					c-0.1,0-0.2,0-0.2-0.1c0,0-0.1,0,0,0c0,0,0,0,0,0c0,0-0.1,0-0.1-0.1c0,0-0.1-0.1,0,0c0,0,0,0,0,0c0,0-0.1-0.1-0.1-0.1
					c0,0,0,0,0,0c0.1,0.1,0,0.1,0,0c0,0,0,0,0-0.1c0,0,0,0,0,0c0,0,0,0,0,0c0,0,0-0.1,0-0.2c0,0,0-0.1,0,0c0,0,0,0,0-0.1
					c0,0,0-0.1,0-0.1c0,0,0,0.1,0,0c0,0,0,0,0-0.1c0,0,0,0,0-0.1c0,0.1,0,0.1,0,0c0,0,0,0,0-0.1c0-0.1-0.1,0.1,0,0
					c0,0,0.1-0.1,0.1-0.1c0,0,0,0-0.1,0c0,0,0,0,0,0c0,0,0,0,0.1,0c0,0,0.1,0,0,0c0,0,0.1,0,0.1,0c0,0,0,0,0.1,0c0.1,0,0.1,0,0,0
					c0,0,0.1,0,0.1,0c0,0,0,0,0.1,0c0.1,0-0.1,0,0,0c0.1,0,0.1,0,0.2,0c0.1,0,0,0,0,0c0,0,0.1,0,0.1,0.1c0.1,0,0,0,0,0
					c0,0,0,0,0.1,0.1c0.1,0.1,0,0,0,0c0,0,0,0.1,0,0.1c0,0,0,0,0-0.1c0,0,0,0,0,0.1c0,0,0-0.1,0-0.1c0,0,0,0,0,0.1c0,0,0-0.1,0-0.1
					c0,0.1,0.1-0.1,0,0c0,0-0.1,0.1,0,0c0,0,0,0,0,0c0,0,0,0,0,0c0,0,0,0,0,0c-0.1,0,0.1,0,0,0c0,0,0.1,0,0.1,0c0,0,0,0,0,0
					c0.1,0,0.1,0,0,0c0.1,0,0.1,0,0.1,0c0.1,0.1,0.1,0.1,0.2,0.2c0,0,0,0,0-0.1c0,0.1,0,0.1,0,0c0,0,0,0,0,0c0,0.1,0,0.1,0,0.1
					c0,0,0,0,0,0c0-0.1,0,0.1,0,0c0,0,0-0.1,0,0c0,0.1,0,0,0,0c0,0-0.1,0.1,0,0c0,0,0,0-0.1,0c0,0,0,0,0,0c-0.2-0.1-0.5-0.2-0.7-0.3
					c0,0.1,0,0,0-0.1c0,0.1,0,0,0-0.1c0,0,0,0,0-0.1c0,0,0,0,0-0.1c0,0-0.1,0.1,0,0c-0.1,0.1,0.1,0,0,0c-0.1,0-0.1,0,0,0
					c0,0-0.1,0,0.1,0c-0.1,0,0.1,0.1,0,0c0.1,0,0.1,0.1,0.1,0.1c0,0,0,0,0,0.1c-0.1-0.2-0.3-0.4-0.6-0.3c-0.2,0.1-0.4,0.4-0.3,0.6
					c0.1,0.2,0.2,0.4,0.5,0.5c0.2,0,0.3,0,0.5,0c0.4-0.1,0.7-0.5,0.5-0.9c-0.1-0.3-0.5-0.4-0.7-0.3c-0.3,0.2-0.5,0.6-0.5,0.9
					c0,0.2,0.1,0.5,0.3,0.6c0.2,0.1,0.4,0.1,0.6,0.1c0.4-0.1,0.7-0.5,0.7-0.9c0-0.4-0.3-0.7-0.6-0.9c-0.7-0.3-1.5-0.1-1.9,0.5
					c-0.2,0.3-0.3,0.7-0.2,1.1c0.1,0.4,0.3,0.7,0.6,0.9c0.4,0.3,1.1,0.4,1.6,0.2c0.3-0.1,0.6-0.3,0.8-0.6c0.2-0.2,0.2-0.5,0.3-0.8
					c0-0.6-0.3-1.2-0.8-1.5c-0.5-0.3-1.2-0.3-1.7,0c-0.3,0.1-0.5,0.4-0.6,0.6c-0.2,0.3-0.2,0.7-0.2,1c0.1,0.6,0.7,1.2,1.3,1.3
					c0.2,0,0.4,0,0.6,0c0.1,0,0.2-0.1,0.3-0.2c0.1-0.1,0.1-0.3,0.1-0.4c0-0.1-0.1-0.2-0.2-0.3C151.6,231.1,151.5,231.1,151.4,231.1
					L151.4,231.1z"/>
			</g>
		</g>
		<polygon class="st26" points="134.2,232.6 140.9,233.4 147.3,240.6 151.1,242 151.3,246.7 128.6,262 123.3,260.4 124.3,254.5 
			129.6,238.8 		"/>
		<g class="st25">
			<g>
				<path d="M134.7,231.1c3.3-1.9,6.7,1.4,8.8,3.6c2.1,2.3,5,4.8,8.3,4c0.8-0.2,1.4-0.6,2-1c0.3-0.2,0.7-0.4,1.1-0.3
					c0.7,0.2,0.2,0.9-0.1,1.2c-1.1,1.3-2.7,2.4-4.4,2.9c-1.8,0.6-3.2-0.6-4.4-1.8c-1.1-1.2-2.2-2.5-3.5-3.6c-2.7-2.4-6-4.3-9.7-4.3
					c-0.6,0-0.6,1,0,1c3.8,0,7.1,2.2,9.8,4.8c1.3,1.2,2.4,2.7,3.8,3.9c1.5,1.2,3.1,1.5,4.9,0.8c1.7-0.7,3.2-1.8,4.4-3.2
					c0.5-0.6,0.9-1.4,0.3-2.1c-0.4-0.5-1.1-0.7-1.7-0.6c-0.9,0.2-1.5,0.9-2.4,1.2c-0.9,0.3-1.8,0.2-2.7,0c-1.9-0.5-3.3-1.9-4.7-3.3
					c-1.5-1.5-2.9-3.2-4.8-4.1c-1.7-0.8-3.8-1.1-5.5-0.1C133.6,230.6,134.1,231.5,134.7,231.1L134.7,231.1z"/>
			</g>
		</g>
		<g class="st25">
			<g>
				<path d="M134.9,232.5c2.9,1.2,5.6,2.8,8.2,4.5c0.4,0.3,1-0.3,0.7-0.7c-2-2.8-5.1-4.2-8.2-5.5c0,0.3,0,0.6,0,0.9
					c1-0.6,2.4,0.9,3.2,1.5c1,0.8,1.9,1.7,2.8,2.6c0.2-0.3,0.4-0.5,0.6-0.8c-1.5-1.1-2.8-2.4-3.9-3.9c-0.2,0.2-0.4,0.5-0.6,0.7
					c2.2,0.6,4,2.1,5,4.1c0.3-0.2,0.5-0.4,0.8-0.6c-2-1.6-4-3.2-5.9-5c-0.2,0.3-0.3,0.6-0.5,0.8c2.1,0.6,3.6,2.4,5,4
					c1.6,1.9,3.2,3.9,4.8,5.9c0.2-0.2,0.5-0.5,0.7-0.7c-1.8-1.5-3.5-3.1-5-4.9c-0.4-0.4-1.1,0.1-0.8,0.6c1.6,2.5,3.8,4.6,6.4,6
					c0.5,0.3,1-0.4,0.6-0.8c-1.8-2-3.6-4-5.5-6c-0.2,0.3-0.4,0.5-0.6,0.8c2.4,1.2,4.2,3.1,6,5c0.2-0.3,0.4-0.5,0.6-0.8
					c-2.1-1.4-4-3.3-5.4-5.4c-0.3,0.2-0.5,0.4-0.8,0.6c2.3,1.9,4.4,4,6.5,6.1c0.1-0.3,0.2-0.6,0.4-0.9c-0.6,0-1.2-0.2-1.9-0.4
					c-0.5-0.2-0.8,0.5-0.5,0.8c0.6,0.7,1.4,1.1,2.2,1.2c0.7,0.1,1.7,0,2-0.8c0.3-0.9-0.8-1.5-1.4-1.9c-0.9-0.5-1.8-0.7-2.8-0.8
					c-0.5,0-0.7,0.7-0.3,0.9c1.7,1,3.5,1.6,5.4,1.9c0.4,0.1,0.7-0.6,0.4-0.9c-1.3-1.1-2.8-2-4.4-2.6c-0.5-0.2-0.9,0.7-0.4,0.9
					c1.3,0.6,2.6,1.2,3.9,1.8c0.6,0.3,1.1-0.6,0.5-0.9c-1.4-0.7-2.8-1.3-4.2-1.9c-0.1,0.3-0.2,0.6-0.3,1c1.6,0.6,3.3,0.9,4.9,1.2
					c0.6,0.1,0.7-0.9,0.1-1c-0.7-0.2-1.5-0.3-2.2-0.5c0,0.3,0,0.6,0,1c0.7-0.3,1.4-0.4,2.2-0.4c0-0.3-0.1-0.7-0.1-1
					c-0.7,0.1-1.4,0.2-2.1,0.3c0.2,0.3,0.3,0.6,0.5,0.8c0.7-0.7,1.7-1,2.7-0.9c-0.1-0.2-0.2-0.4-0.3-0.6c-0.2,0.7-1,1-1.6,0.7
					c0.1,0.2,0.2,0.5,0.3,0.7c0.2-0.3,0.5-0.6,0.7-0.9c0.1-0.1,0.3-0.2,0.4-0.3c0.1-0.1,0.4-0.3,0.5-0.2c0.1,0.2,0.2,0.3,0.4,0.5
					c-0.1-0.2,0-0.3,0.2-0.4c-0.1-0.2-0.2-0.3-0.4-0.5c0,0.2,0,0.5,0,0.7c0,0.6,1,0.6,1,0c0-0.2,0-0.5,0-0.7c0-0.2-0.2-0.5-0.4-0.5
					c-0.8-0.1-1.6,0.4-1.5,1.3c0,0.2,0.1,0.4,0.4,0.5c1,0.3,1.4-1.1,0.6-1.6c-1.1-0.7-2.4,0.9-2.9,1.6c-0.2,0.3,0,0.6,0.3,0.7
					c1.2,0.5,2.5-0.2,2.8-1.4c0.1-0.2-0.1-0.6-0.3-0.6c-1.4-0.2-2.7,0.2-3.7,1.1c-0.4,0.4,0,0.9,0.5,0.8c0.7-0.1,1.4-0.2,2.1-0.3
					c0.6-0.1,0.4-1-0.1-1c-0.8,0-1.6,0.2-2.4,0.5c-0.4,0.2-0.5,0.8,0,1c0.7,0.2,1.5,0.3,2.2,0.5c0-0.3,0.1-0.7,0.1-1
					c-1.6-0.2-3.2-0.6-4.7-1.1c-0.6-0.2-0.9,0.7-0.3,1c1.4,0.5,2.7,1.1,4,1.8c0.2-0.3,0.3-0.6,0.5-0.9c-1.3-0.6-2.6-1.2-3.9-1.8
					c-0.1,0.3-0.3,0.6-0.4,0.9c1.4,0.6,2.8,1.4,4,2.4c0.1-0.3,0.2-0.6,0.4-0.9c-1.7-0.2-3.4-0.8-4.9-1.7c-0.1,0.3-0.2,0.6-0.3,0.9
					c0.6,0,1.1,0.2,1.7,0.4c0.4,0.1,1.2,0.4,1.4,0.8c0.3,0.5-0.9,0.3-1.1,0.2c-0.5-0.2-0.9-0.5-1.3-0.9c-0.2,0.3-0.3,0.6-0.5,0.8
					c0.7,0.3,1.4,0.4,2.1,0.4c0.4,0,0.6-0.6,0.4-0.9c-2.1-2.2-4.2-4.2-6.5-6.1c-0.4-0.3-1.1,0.1-0.8,0.6c1.5,2.3,3.5,4.2,5.8,5.7
					c0.5,0.3,1-0.4,0.6-0.8c-1.8-2-3.7-4-6.2-5.2c-0.5-0.3-1,0.4-0.6,0.8c1.8,2,3.6,4,5.5,6c0.2-0.3,0.4-0.5,0.6-0.8
					c-2.5-1.3-4.6-3.3-6-5.7c-0.3,0.2-0.5,0.4-0.8,0.6c1.5,1.8,3.2,3.4,5,4.9c0.5,0.4,1.1-0.2,0.7-0.7c-1.7-2.1-3.4-4.2-5.1-6.3
					c-1.4-1.6-3-3.3-5.1-3.9c-0.5-0.1-0.9,0.5-0.5,0.8c1.9,1.7,3.9,3.4,5.9,5c0.4,0.3,1-0.1,0.8-0.6c-1.1-2.2-3.2-3.9-5.6-4.6
					c-0.4-0.1-0.8,0.4-0.6,0.7c1.2,1.6,2.6,3,4.2,4.2c0.5,0.3,1-0.4,0.6-0.8c-1.2-1.2-2.4-2.3-3.7-3.3c-1-0.8-2.2-1.6-3.5-0.9
					c-0.3,0.2-0.4,0.7,0,0.9c2.9,1.2,6,2.5,7.8,5.2c0.2-0.2,0.5-0.5,0.7-0.7c-2.6-1.7-5.4-3.3-8.2-4.5
					C134.9,231.3,134.4,232.2,134.9,232.5L134.9,232.5z"/>
			</g>
		</g>
	</g>
	<g>
		<path class="st27" d="M343.7,320.1c-1-1.4-3-1.7-4.8-1.6c-3.6,0.1-7.3,0.7-10.7,2c3.3-1.6,6.1-4,8.1-7c0.3-0.5,0.6-1,0.4-1.6
			c-0.3-0.8-1.3-0.9-2.2-0.8c-6.2,0.6-12.3,2.6-17.7,5.9c5.9-4.4,11.9-8.9,15.8-15.1c0.3-0.5,0.7-1.1,0.6-1.7
			c-0.1-1.5-2.2-1.8-3.7-1.6c-6.8,0.9-13.2,3.6-18.7,7.7c7-4.1,13-9.9,17.4-16.6c0.6-0.9,1.1-2.1,0.3-2.8c-0.3-0.3-0.8-0.4-1.3-0.4
			c-2.3-0.1-4.6,0.7-6.7,1.6c-5.2,2.2-10.1,5.1-14.6,8.6c5.3-4.4,10.1-9.5,14.1-15.1c1.9-2.6,3.7-5.5,3.7-8.8c0-0.6-0.1-1.3-0.5-1.7
			c-0.5-0.5-1.3-0.5-2-0.4c-3.9,0.4-7.4,2.5-10.5,4.9c-8,6.2-14.2,14.7-18.3,24s-6.2,19.4-7.1,29.5c0,0,17.8,0.4,40.4-4.5
			C348.5,319.7,343.7,320.1,343.7,320.1z"/>
	</g>
	<g>
		<path class="st1" d="M340.7,320.1c-1-1.4-3-1.7-4.8-1.6c-3.6,0.1-7.3,0.7-10.7,2c3.3-1.6,6.1-4,8.1-7c0.3-0.5,0.6-1,0.4-1.6
			c-0.3-0.8-1.3-0.9-2.2-0.8c-6.2,0.6-12.3,2.6-17.7,5.9c5.9-4.4,11.9-8.9,15.8-15.1c0.3-0.5,0.7-1.1,0.6-1.7
			c-0.1-1.5-2.2-1.8-3.7-1.6c-6.8,0.9-13.2,3.6-18.7,7.7c7-4.1,13-9.9,17.4-16.6c0.6-0.9,1.1-2.1,0.3-2.8c-0.3-0.3-0.8-0.4-1.3-0.4
			c-2.3-0.1-4.6,0.7-6.7,1.6c-5.2,2.2-10.1,5.1-14.6,8.6c5.3-4.4,10.1-9.5,14.1-15.1c1.9-2.6,3.7-5.5,3.7-8.8c0-0.6-0.1-1.3-0.5-1.7
			c-0.5-0.5-1.3-0.5-2-0.4c-3.9,0.4-7.4,2.5-10.5,4.9c-8,6.2-14.2,14.7-18.3,24s-6.2,19.4-7.1,29.5c0,0,17.8,0.4,40.4-4.5
			C345.5,319.7,340.7,320.1,340.7,320.1z"/>
		<g>
			<path class="st1" d="M341.1,319.8c-1.6-2.1-4.5-2-6.8-1.8c-3.1,0.2-6.3,0.8-9.2,1.9c0.1,0.3,0.3,0.6,0.4,0.9c2-1,3.9-2.3,5.5-3.9
				c0.8-0.8,1.5-1.6,2.2-2.5c0.6-0.8,1.4-1.8,1-2.9c-0.3-0.8-1.3-1.1-2.1-1.1c-1.1,0-2.3,0.2-3.5,0.4c-2.5,0.4-5,1.1-7.4,1.9
				c-2.6,1-5.2,2.2-7.6,3.7c0.2,0.3,0.3,0.6,0.5,0.9c5.5-4.1,11-8.3,15.1-13.9c0.8-1.1,2.2-2.7,1.4-4.1c-0.5-1-1.8-1.3-2.9-1.4
				c-1.5-0.1-3.1,0.3-4.6,0.7c-1.7,0.4-3.5,0.9-5.1,1.5c-3.7,1.4-7.1,3.3-10.3,5.6c-0.5,0.4-0.1,1.2,0.5,0.9
				c6-3.6,11.3-8.3,15.6-13.9c0.5-0.7,1.1-1.4,1.6-2.2c0.4-0.6,0.9-1.3,1.1-2c0.2-0.6,0.2-1.4-0.2-1.9c-0.4-0.6-1.1-0.7-1.8-0.7
				c-2-0.1-4,0.5-5.8,1.2c-1.8,0.7-3.5,1.5-5.2,2.3c-3.8,1.9-7.4,4.2-10.7,6.9c0.2,0.2,0.5,0.5,0.7,0.7c5.7-4.7,10.8-10.1,15-16.2
				c1-1.5,1.9-3,2.4-4.7c0.5-1.4,0.9-3.4,0.3-4.8c-0.7-1.4-2.4-1.2-3.8-1c-1.7,0.3-3.4,0.9-4.9,1.7c-3.1,1.6-5.9,3.8-8.4,6.1
				c-2.5,2.3-4.8,4.8-6.9,7.5c-4.2,5.5-7.5,11.8-9.9,18.3c-3,8.1-4.6,16.6-5.3,25.2c0,0.3,0.2,0.5,0.5,0.5c2.6,0.1,5.1,0,7.7-0.2
				c6.5-0.3,13.1-1,19.6-1.9c7.9-1.2,15.7-2.9,23.5-4.7c1.9-0.4,3.8-0.9,5.7-1.4c0.7-0.2,1.5-0.4,2.2-0.7c0.8-0.4,0.4-1.2-0.4-1.1
				c0,0,0,0,0,0c-0.6,0-0.6,1.1,0,1c0.1,0,0.2,0,0.3,0c0,0-0.1-0.1,0,0c-0.2-0.1-0.4-0.3-0.3-0.6c0-0.1,0.1-0.2,0.1-0.2
				c0,0-0.3,0.1-0.1,0c-0.7,0.3-1.4,0.5-2.1,0.7c-1.8,0.5-3.6,0.9-5.4,1.3c-7.4,1.7-14.8,3.4-22.3,4.5c-6.4,1-12.9,1.7-19.4,2
				c-2,0.1-4,0.2-6,0.2c-0.6,0-1.2,0-1.8,0c-0.3,0-0.7-0.1-1,0c0,0-0.1,0-0.1,0c0.2,0.2,0.3,0.3,0.5,0.5c1.2-14,4.9-28,12.8-39.7
				c3.6-5.3,8-10.2,13.2-14c2.7-2,5.7-3.7,9.1-4.2c0.7-0.1,1.7-0.2,2.1,0.4c0.4,0.7,0.3,1.8,0.1,2.5c-0.3,1.7-1,3.3-1.9,4.8
				c-2,3.3-4.5,6.3-7.1,9.2c-2.6,2.9-5.5,5.6-8.5,8.1c-0.5,0.4,0.2,1.1,0.7,0.7c2.7-2.1,5.6-4.1,8.6-5.7c1.5-0.8,3-1.6,4.6-2.3
				c1.6-0.7,3.3-1.4,5.1-1.8c0.9-0.2,1.7-0.3,2.6-0.2c0.4,0,0.9,0.1,1.1,0.4c0.2,0.3,0.1,0.7,0,1c-0.2,0.7-0.7,1.3-1.1,1.9
				c-0.5,0.7-1,1.4-1.5,2c-1.9,2.6-4.1,4.9-6.5,7.1c-2.7,2.5-5.6,4.6-8.7,6.5c0.2,0.3,0.3,0.6,0.5,0.9c5.2-3.8,11.2-6.4,17.5-7.5
				c1.1-0.2,2.6-0.4,3.6,0.2c1.3,0.9-0.4,2.7-1,3.6c-1.8,2.5-4,4.8-6.3,6.8c-2.7,2.4-5.5,4.5-8.4,6.7c-0.5,0.4-0.1,1.2,0.5,0.9
				c3.7-2.3,7.8-4,12.1-5c1-0.2,2.1-0.4,3.1-0.6c1-0.1,2-0.4,3-0.3c0.4,0.1,1,0.2,0.9,0.8c-0.1,0.5-0.6,1.1-0.9,1.5
				c-0.6,0.8-1.2,1.6-1.9,2.3c-1.6,1.6-3.5,2.9-5.5,3.9c-0.5,0.2-0.1,1.1,0.4,0.9c2.7-1,5.4-1.6,8.3-1.8c2-0.2,5.2-0.6,6.7,1.3
				C340.7,320.8,341.5,320.3,341.1,319.8z"/>
		</g>
	</g>
</g>
</svg>
