<?xml version="1.0" encoding="utf-8"?>
<!-- Generator: Adobe Illustrator 24.3.0, SVG Export Plug-In . SVG Version: 6.00 Build 0)  -->
<svg version="1.1" id="圖層_3" xmlns="http://www.w3.org/2000/svg" xmlns:xlink="http://www.w3.org/1999/xlink" x="0px" y="0px"
	 viewBox="0 0 271.8 432.4" style="enable-background:new 0 0 271.8 432.4;" xml:space="preserve">
<style type="text/css">
	.st0{opacity:0.8;fill:#2D2D2D;}
	.st1{fill:#D3BBA9;}
	.st2{fill:#FFFFFF;}
	.st3{fill:#BFDDC0;}
	.st4{fill:#9FBF7D;}
	.st5{fill:#9EBF7D;}
	.st6{fill:none;stroke:#688723;stroke-width:2;stroke-linecap:round;stroke-miterlimit:10;}
	.st7{fill:#67A85A;}
	.st8{fill:none;}
	.st9{fill:#4F4539;}
	.st10{opacity:0.26;fill:#463266;}
	.st11{fill:#F4DAC3;}
	.st12{fill:#E8B7CF;}
	.st13{fill:#5F554E;}
	.st14{fill:#7C9361;}
	.st15{fill:url(#SVGID_1_);}
	.st16{fill:url(#SVGID_2_);}
	.st17{fill:#3D3A39;}
	.st18{fill:none;stroke:#3D3939;stroke-miterlimit:10;}
	.st19{fill:none;stroke:#3D3939;stroke-linecap:round;stroke-miterlimit:10;}
	.st20{fill:#F0867A;}
	.st21{fill:#6CB1D0;}
</style>
<ellipse class="st0" cx="139.9" cy="403.9" rx="105.7" ry="14.7"/>
<path class="st1" d="M42.9,243.4c0,0-2.8-4.4-1.4-8.1c1.3-3.7-2.5-3.4-2.8-2c-0.4,1.4-0.6,4-0.6,4s-3.9-6.6-9-2.6s-4.4,7.6-2.3,9.3
	s3.2-1.9,3.2-1.9s0.7,8.5,7.1,7.6S42.9,243.4,42.9,243.4z"/>
<path class="st2" d="M171.6,286.9c0,35.6,0,71.2,0,106.8c0,5,7.8,5,7.8,0c0-35.6,0-71.2,0-106.8
	C179.3,281.9,171.6,281.9,171.6,286.9"/>
<path class="st2" d="M103.8,286.9c0,35.6,0,71.2,0,106.8c0,5,7.8,5,7.8,0c0-35.6,0-71.2,0-106.8
	C111.6,281.9,103.8,281.9,103.8,286.9"/>
<path class="st3" d="M193.5,293.7h-41.4h-19.6H91.2c-2.2,9.4-17.3,60.3-10,73.3c7.8,13.8,39.9,18.2,53,0c2.5-3.5,5.1-16.3,7.5-26.3
	c0.2-1,1.7-1,1.9,0c2.4,9.8,4.8,22.6,7,26.3c10.4,17.9,42.7,15.6,53,0C211.8,354.6,195.7,303.1,193.5,293.7"/>
<path class="st3" d="M87.6,278.9l109.6,0.2c0,0,1.4,13.7-0.6,19.3c-3.5,8.9-19.9,14.2-53,15.8c-35.2-0.8-53.9-9.3-55.8-14.3
	C86.2,295.6,87.6,278.9,87.6,278.9"/>
<path class="st4" d="M205.2,309.2c-38.9,10.8-86.1,10.2-126-0.6c1.3-5.6,5.2-9.1,6.5-14.6c37.5,0,73.4-0.9,113.2-0.9
	C200.2,298.7,203.9,303.7,205.2,309.2"/>
<path class="st5" d="M82.7,231.4c0,0-11.5,15.9-14.6,35.1c0,0-11.3-27.8-22.6-24.1s-15.2,13.7-14.5,17.7s2.4,7.1,6.5,11.8
	s22.1,25,35.6,20.4c13.5-4.6,19.5-23.5,22.1-48C97.3,225.4,86,227.5,82.7,231.4z"/>
<path class="st5" d="M93.8,220.6c0,0-5.7,38.1-6.2,58.3c0,0.9-3.9,11.9-1.5,16.2c1.3,2.3,6.5,4.4,7.2,4.6c24.2-5,39.9-5.4,100.2-2.1
	c0.5-0.2,3.2-1.1,4.4-2.5c2.6-3.2-0.1-13.3-0.1-14.5c0.3-52.1-8.9-60-8.9-60L93.8,220.6z"/>
<path class="st6" d="M103.8,264.9c-0.4,12.1,0,25.2,2.9,33.6"/>
<line class="st6" x1="109.5" y1="273.1" x2="97.7" y2="276.7"/>
<line class="st6" x1="110.5" y1="282.1" x2="98.7" y2="285.7"/>
<path class="st7" d="M169.1,221c-27.2,21.3-54.2,36.6-80.9,45.5l-0.5,6.2c26.9-8.9,54-24.2,81.4-45.7V221z"/>
<path class="st8" d="M93.8,220.6c0,0-5.7,38.1-6.2,58.3c0,0.9-3.9,11.9-1.5,16.2c1.3,2.3,6.5,4.4,7.2,4.6c24.2-5,39.9-5.4,100.2-2.1
	c0.5-0.2,3.2-1.1,4.4-2.5c2.6-3.2-0.1-13.3-0.1-14.5c0.3-52.1-8.9-60-8.9-60L93.8,220.6z"/>
<path class="st9" d="M199.1,291.1c0,0-51.3,8.6-113.7-0.1c-0.9,1.5,0.3,3,0.3,3s61.4,16.7,113.2-0.9
	C199.2,292.3,199.1,291.1,199.1,291.1"/>
<path class="st10" d="M93.4,233.7l-7.3-0.8c0,0-0.3-0.1-0.5,1.7c20.2,10.6,34.8,13.5,54.7,13.5c19.9,0,41.1-5.5,54-14.4
	c-0.6-2.1-0.2-2.3-0.2-2.3l-2.7,1.9c-15.1,4.7-31.5,7.2-48.7,7.2C125,240.6,108.4,238.3,93.4,233.7"/>
<path class="st11" d="M38.5,199.1c0,0-11.8-2.2-7.7,8.7c4.1,10.9,15.8,10.7,19.3,6.8C53.7,210.8,38.5,199.1,38.5,199.1"/>
<path class="st11" d="M244.4,182.4c0,0,11.3-4,9,7.4c-2.3,11.4-13.8,13.1-18,9.8C231.3,196.4,244.4,182.4,244.4,182.4"/>
<path class="st11" d="M250.1,144.8c9.4,59.7-41.2,93.8-105.6,99C79.5,249.1,29,224.5,24,163.2C19.7,110.7,66.9,64.1,129.3,59
	C191.7,53.9,241.9,92.8,250.1,144.8"/>
<path class="st12" d="M96.4,22.4c-104.7,64.8-71,167.2-70.8,170.9c0.2,3.7,7.5,4.3,7.5,4.3S77.7,165,131,160.7l5-19.8l8.2,19.3
	c49.7-4,98.5,21.1,103.1,20.8c4.4-0.4,6.3-1.3,9-7.7C279.4,111.4,162.7-18.7,96.4,22.4"/>
<path class="st13" d="M178.4,392.2l-5.9-0.1c0,0-5.2,0.5-7.3,2.4c-2.1,1.8,0.9,4.2,0.9,4.2l14.1,0.3
	C180.3,398.9,183.6,392.2,178.4,392.2"/>
<path class="st13" d="M110.4,392.2l-5.9-0.1c0,0-5.2,0.5-7.3,2.4c-2.1,1.8,0.9,4.2,0.9,4.2l14.1,0.3
	C112.3,398.9,115.6,392.2,110.4,392.2"/>
<path class="st1" d="M150.6,238.9c0,0-2.4-2.7-5.8-0.6c-3.4,2.1-6.3,5.6-4,9c2.3,3.4,3.9-1.1,3.9-1.1s0.6,2.7,1.5,3.9
	c0.9,1.3-1.5-1.6-2.9-0.6c-1.3,1-1.1,2.5,0.4,3.2c1.5,0.7,4.1,0.6,6,3.3c0,0,3.1-0.2,5.3-3.2C157.1,250,155.6,243.2,150.6,238.9z"/>
<path class="st14" d="M191.6,238.1c0,0-8.2,11.9-6.4,28.9c0,0-20.7-24.6-30.5-17.5c-9.8,7.1-11,15.4-8,23c3,7.6,29.9,27.7,45.5,21.1
	s14.7-40.1,11.9-48.2C201.3,237.3,194.5,232.6,191.6,238.1z"/>
<path class="st5" d="M192.6,236.1c0,0-8.2,11.9-6.4,28.9c0,0-20.7-24.6-30.5-17.5c-9.8,7.1-11,15.4-8,23c3,7.6,29.9,27.7,45.5,21.1
	s14.7-40.1,11.9-48.2C202.3,235.3,195.5,230.6,192.6,236.1z"/>
<radialGradient id="SVGID_1_" cx="78.9041" cy="240.0967" r="11.5548" gradientTransform="matrix(0.9967 -8.095974e-02 8.095974e-02 0.9967 -12.9763 -11.0703)" gradientUnits="userSpaceOnUse">
	<stop  offset="0.1131" style="stop-color:#F0867A"/>
	<stop  offset="0.1884" style="stop-color:#F08A7E"/>
	<stop  offset="0.2678" style="stop-color:#F1978A"/>
	<stop  offset="0.3492" style="stop-color:#F3AC9E"/>
	<stop  offset="0.4313" style="stop-color:#F5C9BA"/>
	<stop  offset="0.4982" style="stop-color:#F7E7D6"/>
</radialGradient>
<circle class="st15" cx="85.1" cy="221.9" r="5.9"/>
<radialGradient id="SVGID_2_" cx="197.0579" cy="240.0967" r="12.3507" gradientTransform="matrix(0.9967 -8.095974e-02 8.095974e-02 0.9967 -12.9763 -11.0703)" gradientUnits="userSpaceOnUse">
	<stop  offset="8.441373e-02" style="stop-color:#F0867A"/>
	<stop  offset="0.1535" style="stop-color:#F08B7F"/>
	<stop  offset="0.2391" style="stop-color:#F19B8D"/>
	<stop  offset="0.3334" style="stop-color:#F3B4A5"/>
	<stop  offset="0.4332" style="stop-color:#F6D6C6"/>
	<stop  offset="0.4741" style="stop-color:#F7E7D6"/>
</radialGradient>
<circle class="st16" cx="202.9" cy="212.3" r="5.9"/>
<g>
	<path class="st17" d="M203.5,204.1c0.1,1.4-0.9,2.6-2.3,2.7c-1.4,0.1-2.6-0.9-2.7-2.3c-0.1-1.4,0.9-2.6,2.3-2.7
		C202.2,201.7,203.4,202.7,203.5,204.1"/>
	<path class="st18" d="M203.5,204.1c0.1,1.4-0.9,2.6-2.3,2.7c-1.4,0.1-2.6-0.9-2.7-2.3c-0.1-1.4,0.9-2.6,2.3-2.7
		C202.2,201.7,203.4,202.7,203.5,204.1z"/>
	<path class="st19" d="M199.5,207.9c0,0,2.2-2.1,4.7-0.8"/>
	<line class="st19" x1="196.8" y1="202.2" x2="212" y2="200.9"/>
</g>
<g>
	<g>
		<path class="st18" d="M86.1,213.6c0.1,1.4-0.9,2.6-2.3,2.7c-1.4,0.1-2.6-0.9-2.7-2.3c-0.1-1.4,0.9-2.6,2.3-2.7
			C84.8,211.3,86,212.3,86.1,213.6z"/>
		<path class="st19" d="M81.5,217.8c0,0,2.9-2.7,6.2-1.1"/>
		<line class="st19" x1="79.2" y1="211.7" x2="94.4" y2="210.5"/>
	</g>
	<path class="st17" d="M86.1,213.6c0.1,1.4-0.9,2.6-2.3,2.7c-1.4,0.1-2.6-0.9-2.7-2.3c-0.1-1.4,0.9-2.6,2.3-2.7
		C84.8,211.3,86,212.3,86.1,213.6"/>
</g>
<g>
	<g>
		<path class="st20" d="M145.2,219.8c0.1,0.1,0.2,0.1,0.3,0.2C145.4,220,145.3,219.9,145.2,219.8c0.1,0,0.2,0.1,0.3,0.2
			C145.4,220,145.3,219.9,145.2,219.8c0.2,0.1,0.3,0.3,0.4,0.5c-0.1-0.1-0.1-0.2-0.2-0.4c0.2,0.5,0.3,1.1,0.4,1.6
			c0.2,1,0.8,1.9,1.8,2.3c1,0.4,2.1-0.1,2.7-1c0.4-0.6,0.5-1.3,0.6-2c0.1-1.4-0.2-3.1-1.4-4.1c-1.1-1-2.9-1.4-4.2-0.5
			c-0.6,0.4-1.1,1-1.1,1.8c0,0.8,0.5,1.4,1.1,1.8c0.6,0.4,1.2,0.6,1.8,1c-0.1-0.1-0.2-0.2-0.3-0.2c0.2,0.1,0.3,0.2,0.4,0.4
			c-0.1-0.1-0.2-0.2-0.2-0.3c0.1,0.1,0.2,0.2,0.2,0.4c-0.1-0.1-0.1-0.2-0.2-0.4c0,0.1,0.1,0.2,0.1,0.3c0-0.1,0-0.3-0.1-0.4
			c0,0,0,0,0,0.1c0.1,0.4,0.1,0.8,0.4,1.1c0.3,0.3,0.7,0.5,1.1,0.4c0.4,0,0.8-0.1,1.1-0.4c0.2-0.3,0.5-0.7,0.4-1.1
			c-0.1-0.5-0.2-1-0.5-1.4c-0.3-0.4-0.6-0.7-1.1-1c-0.5-0.4-1.1-0.5-1.7-0.9c0.1,0.1,0.2,0.2,0.3,0.2c-0.1-0.1-0.2-0.2-0.3-0.3
			c0.1,0.1,0.2,0.2,0.2,0.3c0,0,0,0,0-0.1c0.1,0.1,0.1,0.2,0.2,0.4c0,0,0,0,0-0.1c0,0.1,0,0.3,0.1,0.4c0,0,0-0.1,0-0.1
			c0,0.1,0,0.3-0.1,0.4c0,0,0,0,0-0.1c-0.1,0.1-0.1,0.2-0.2,0.4c0-0.1,0.1-0.1,0.1-0.2c-0.1,0.1-0.2,0.2-0.2,0.3
			c0.1-0.1,0.1-0.1,0.2-0.2c-0.1,0.1-0.2,0.2-0.3,0.2c0.1-0.1,0.2-0.2,0.4-0.2c-0.1,0.1-0.2,0.1-0.4,0.2c0.1-0.1,0.3-0.1,0.4-0.1
			c-0.1,0-0.3,0-0.4,0.1c0.2,0,0.3,0,0.5,0c-0.1,0-0.3,0-0.4-0.1c0.2,0,0.4,0.1,0.6,0.2c-0.1-0.1-0.2-0.1-0.4-0.2
			c0.2,0.1,0.3,0.2,0.5,0.3c-0.1-0.1-0.2-0.2-0.3-0.2c0.1,0.1,0.3,0.2,0.4,0.4c-0.1-0.1-0.2-0.2-0.2-0.3c0.2,0.2,0.3,0.4,0.4,0.6
			c-0.1-0.1-0.1-0.2-0.2-0.4c0.1,0.3,0.2,0.7,0.3,1c0-0.1,0-0.3-0.1-0.4c0.1,0.5,0.1,1,0,1.5c0-0.1,0-0.3,0.1-0.4
			c0,0.2-0.1,0.4-0.2,0.6c0.1-0.1,0.1-0.2,0.2-0.4c-0.1,0.1-0.1,0.2-0.2,0.4c0.1-0.1,0.2-0.2,0.2-0.3c0,0.1-0.1,0.1-0.2,0.2
			c0.1-0.1,0.2-0.2,0.3-0.2c-0.1,0-0.1,0.1-0.2,0.1c0.1-0.1,0.2-0.1,0.4-0.2c-0.1,0-0.1,0-0.2,0.1c0.1,0,0.3,0,0.4-0.1
			c0,0-0.1,0-0.1,0c0.1,0,0.3,0,0.4,0.1c-0.1,0-0.2,0-0.3-0.1c0.1,0.1,0.2,0.1,0.4,0.2c-0.1,0-0.1-0.1-0.2-0.1
			c0.1,0.1,0.2,0.2,0.3,0.2c-0.1-0.1-0.2-0.2-0.3-0.3c0.1,0.1,0.2,0.2,0.2,0.3c-0.1-0.1-0.1-0.2-0.2-0.3c0.1,0.1,0.1,0.2,0.2,0.4
			c-0.2-0.7-0.3-1.4-0.5-2c-0.3-0.9-0.8-1.7-1.7-2.1c-0.4-0.2-0.7-0.3-1.2-0.2c-0.3,0.1-0.7,0.4-0.9,0.7
			C144.3,218.5,144.4,219.5,145.2,219.8L145.2,219.8z"/>
	</g>
</g>
<g>
	<path class="st21" d="M153.2,223.3c2,0.3,3.5,1.7,3.8,3.4c0.1,0.5,0,1.3-0.6,1.5c-0.3,0.1-0.6,0.1-0.9,0c-0.9-0.3-1.3-1.1-1.5-1.9
		C153.9,225.5,153.7,224,153.2,223.3"/>
</g>
<g>
	<path class="st21" d="M153.5,229.3c1.1,0.2,2,1,2.2,1.9c0.1,0.3,0,0.7-0.4,0.9c-0.2,0.1-0.4,0-0.5,0c-0.5-0.2-0.7-0.6-0.8-1.1
		C153.9,230.6,153.7,229.7,153.5,229.3"/>
</g>
</svg>
