<?xml version="1.0" encoding="utf-8"?>
<!-- Generator: Adobe Illustrator 24.3.0, SVG Export Plug-In . SVG Version: 6.00 Build 0)  -->
<svg version="1.1" id="圖層_4" xmlns="http://www.w3.org/2000/svg" xmlns:xlink="http://www.w3.org/1999/xlink" x="0px" y="0px"
	 viewBox="0 0 410.8 482.6" style="enable-background:new 0 0 410.8 482.6;" xml:space="preserve">
<style type="text/css">
	.st0{opacity:0.8;}
	.st1{fill:#FFFFFF;}
	.st2{fill:#F0867A;}
	.st3{clip-path:url(#XMLID_5_);}
	.st4{fill:#B5B5B5;}
	.st5{fill:url(#SVGID_1_);}
	.st6{fill:#FFFFFF;stroke:#FFFFFF;stroke-miterlimit:10;}
	.st7{clip-path:url(#SVGID_3_);fill:#E0B190;}
	.st8{clip-path:url(#SVGID_3_);fill:#D88A4B;}
	.st9{clip-path:url(#SVGID_3_);}
	.st10{clip-path:url(#SVGID_3_);fill:#E5D5C5;}
	.st11{clip-path:url(#SVGID_3_);fill:#E0A469;}
	.st12{clip-path:url(#SVGID_3_);fill:#544B47;}
	.st13{clip-path:url(#SVGID_3_);fill:#CB783C;}
	.st14{clip-path:url(#SVGID_3_);fill:#383532;}
	.st15{clip-path:url(#SVGID_3_);fill:#D0BFAD;}
	.st16{clip-path:url(#SVGID_3_);fill:#FFFFFF;}
	.st17{clip-path:url(#SVGID_3_);fill:#24211F;}
	.st18{clip-path:url(#SVGID_3_);fill:#263C5B;}
	.st19{clip-path:url(#SVGID_3_);fill:#5F554E;}
	.st20{clip-path:url(#SVGID_3_);fill:#A45E29;}
	.st21{clip-path:url(#SVGID_3_);fill:#B65E43;}
	.st22{clip-path:url(#XMLID_15_);}
	.st23{fill:#EFEFEF;}
	.st24{clip-path:url(#XMLID_15_);fill:#EFEFEF;}
	.st25{clip-path:url(#XMLID_17_);}
	.st26{clip-path:url(#XMLID_17_);fill:#FFC866;}
</style>
<g class="st0">
	<defs>
		
			<ellipse id="XMLID_12_" transform="matrix(0.9997 -2.478854e-02 2.478854e-02 0.9997 -10.7267 5.3354)" class="st0" cx="209.8" cy="435.3" rx="162.4" ry="22.8"/>
	</defs>
	<use xlink:href="#XMLID_12_"  style="overflow:visible;fill:#707070;"/>
	<clipPath id="XMLID_2_">
		<use xlink:href="#XMLID_12_"  style="overflow:visible;"/>
	</clipPath>
</g>
<g>
	<defs>
		
			<ellipse id="XMLID_42_" transform="matrix(0.8683 -0.496 0.496 0.8683 -182.9337 175.3828)" cx="238.8" cy="432.2" rx="11.5" ry="7"/>
	</defs>
	<use xlink:href="#XMLID_42_"  style="overflow:visible;fill:#A54038;"/>
	<clipPath id="XMLID_3_">
		<use xlink:href="#XMLID_42_"  style="overflow:visible;"/>
	</clipPath>
</g>
<g>
	<defs>
		
			<ellipse id="XMLID_40_" transform="matrix(0.7351 -0.6779 0.6779 0.7351 -243.1926 238.4029)" cx="183.5" cy="430.4" rx="6.8" ry="11"/>
	</defs>
	<use xlink:href="#XMLID_40_"  style="overflow:visible;fill:#A54038;"/>
	<clipPath id="XMLID_4_">
		<use xlink:href="#XMLID_40_"  style="overflow:visible;"/>
	</clipPath>
</g>
<g>
	<g>
		<path class="st1" d="M171.4,386.5c6.7,9.2,14.7,17.3,23.8,24.2c8.9,6.7,18.7,12.1,29.1,16.1c5.7,2.2,11.6,3.9,17.5,5.1
			c1.8,0.4,3.9-0.5,4.3-2.4c0.4-1.7-0.5-3.9-2.4-4.3c-5.3-1.1-10.5-2.5-15.5-4.4c-1.3-0.5-2.5-0.9-3.8-1.4c-0.3-0.1-0.5-0.2-0.8-0.3
			c-0.2-0.1-1.3-0.6-0.3-0.1c-0.7-0.3-1.3-0.6-2-0.9c-2.5-1.1-4.9-2.3-7.2-3.5c-4.7-2.5-9.2-5.3-13.5-8.5c-0.5-0.4-1.1-0.8-1.6-1.2
			c-0.3-0.2-0.5-0.4-0.8-0.6c-0.6-0.4,0.5,0.4,0.2,0.1c-0.2-0.1-0.4-0.3-0.5-0.4c-1-0.8-2-1.6-3-2.5c-2.1-1.7-4-3.5-6-5.4
			c-2.2-2.1-4.2-4.3-6.2-6.6c-1-1.1-2-2.3-2.9-3.5c-0.2-0.3-0.4-0.5-0.6-0.8c-0.1-0.2-0.2-0.3-0.4-0.5c-0.4-0.6,0.5,0.7,0.1,0.1
			c-0.5-0.6-0.9-1.3-1.4-1.9c-0.6-0.8-1.2-1.3-2.1-1.6c-0.8-0.2-2-0.1-2.7,0.4C171.2,382.6,170.2,384.9,171.4,386.5L171.4,386.5z"/>
	</g>
</g>
<g>
	<g>
		<path class="st1" d="M230,381.3c-0.4,2.1-0.9,4.1-1.5,6.1c-0.3,1-0.7,2-1,3c-0.2,0.5-0.4,0.9-0.5,1.4c-0.1,0.2-0.3,0.6,0.1-0.3
			c-0.1,0.1-0.1,0.2-0.2,0.4c-0.1,0.2-0.2,0.5-0.3,0.7c-0.9,1.9-1.8,3.8-2.9,5.5c-0.5,0.9-1.1,1.8-1.7,2.7c-0.3,0.4-0.6,0.8-0.9,1.2
			c-0.1,0.2-0.3,0.4-0.4,0.6c-0.1,0.1-0.2,0.2-0.2,0.3c-0.3,0.4,0,0,0.1-0.2c-2.6,3.3-5.5,6.3-8.8,8.9c-0.1,0.1-0.2,0.2-0.3,0.3
			c0,0,0.7-0.5,0.2-0.2c-0.2,0.1-0.4,0.3-0.6,0.4c-0.5,0.4-1,0.7-1.5,1c-0.9,0.6-1.8,1.2-2.7,1.8c-1.9,1.1-3.8,2.1-5.9,3
			c-0.1,0.1-0.3,0.1-0.4,0.2c-0.6,0.3,0.6-0.2,0.2-0.1c-0.3,0.1-0.6,0.2-0.9,0.4c-0.6,0.2-1.1,0.4-1.7,0.6c-1.2,0.4-2.3,0.8-3.5,1.1
			c-2.4,0.7-4.9,1.2-7.4,1.5c0.3,0,0.6-0.1,0.9-0.1c-3,0.4-6,0.6-9,0.4c-1.8-0.1-3.6,1.7-3.5,3.5c0.1,2,1.5,3.4,3.5,3.5
			c10.7,0.4,21.5-2.4,30.7-7.8c8.8-5.2,16.2-12.9,21-22c2.7-5,4.6-10.5,5.7-16.1c0.2-0.9,0.1-1.8-0.4-2.7c-0.4-0.7-1.3-1.4-2.1-1.6
			C232.6,378.4,230.4,379.4,230,381.3L230,381.3z"/>
	</g>
</g>
<g>
	<path class="st1" d="M80.9,336.3c-0.5-10.1,1-20.3,4.4-29.9c1.8-5.1,4.4-10.2,9.1-12.9c0.4-0.2,0.8-0.5,1.3-0.4
		c1,0.1,1.4,1.3,1.5,2.3c0.6,5.9-1.9,11.5-4.3,16.9c2-2.1,4.3-3.8,6.9-5.2c0.8-0.4,1.9-0.8,2.7-0.2c0.7,0.6,0.6,1.7,0.4,2.6
		c-1,4.2-2.8,8.2-5.2,11.8c2.1-2.7,5.1-4.8,8.3-5.9c0.8-0.3,1.8-0.5,2.5,0.1c0.8,0.7,0.6,1.9,0.3,2.8c-1,3.4-2.9,6.5-5.5,8.9
		c1.8-1.6,4-2.8,6.3-3.6c0.4-0.1,0.9-0.3,1.3-0.1c1,0.4,0.9,1.8,0.5,2.9c-0.7,1.8-1.7,3.6-2.9,5.1c1.5-1.3,3.2-2.4,5-3.2
		c1-0.4,2.4-0.7,3.1,0.2c0.3,0.4,0.4,0.9,0.4,1.5c0.1,1.6-0.2,3.3-0.9,4.7c0,0-7.6,2.5-17.6,2.8S80.9,336.3,80.9,336.3z"/>
	<g>
		<path class="st1" d="M81.4,336.3c-0.5-9.3,0.7-18.6,3.6-27.4c1.2-3.8,2.7-7.6,5.1-10.8c1.1-1.5,2.5-2.9,4.1-3.9
			c0.4-0.2,0.9-0.6,1.4-0.6c0.4,0,0.7,0.4,0.9,0.8c0.4,0.9,0.3,1.9,0.3,2.9c0,5.2-2.2,10.1-4.3,14.8c-0.2,0.5,0.4,1,0.8,0.6
			c1.5-1.6,3.2-3,5.1-4.1c0.8-0.5,1.8-1.2,2.8-1.4c1.3-0.2,1.4,1,1.2,2c-0.8,4.3-2.8,8.4-5.2,11.9c-0.3,0.5,0.4,1.1,0.8,0.6
			c1.3-1.6,2.8-3.1,4.6-4.1c0.9-0.5,1.8-1,2.7-1.3c0.8-0.3,2.3-1,3-0.1c0.6,0.8,0.1,2-0.2,2.8c-0.3,1-0.8,2-1.2,2.9
			c-1,1.9-2.3,3.7-3.9,5.2c-0.5,0.5,0.2,1.1,0.7,0.7c1.1-0.9,2.3-1.7,3.5-2.4c0.6-0.3,1.3-0.6,1.9-0.9c0.5-0.2,1.6-0.7,2-0.1
			c0.5,0.9-0.3,2.4-0.7,3.3c-0.6,1.3-1.4,2.6-2.3,3.7c-0.4,0.5,0.4,1,0.8,0.6c0.9-0.8,1.9-1.5,2.9-2.1c0.9-0.6,2-1.2,3.1-1.3
			c0.5-0.1,1,0,1.3,0.4c0.4,0.5,0.3,1.2,0.3,1.8c0,1.3-0.3,2.6-0.8,3.8c0.1-0.1,0.2-0.2,0.3-0.2c-3.6,1.2-7.4,1.8-11.1,2.3
			c-6.6,0.8-13.3,0.7-19.9-0.1c-1.4-0.2-2.7-0.4-4.1-0.7c-0.6-0.1-0.9,0.8-0.3,1c2,0.4,4,0.7,6,0.9c4.7,0.5,9.5,0.7,14.3,0.3
			c4.1-0.3,8.1-0.9,12.1-1.9c1-0.2,1.9-0.5,2.9-0.8c0.1,0,0.4-0.1,0.5-0.2c0.3-0.2,0.5-0.9,0.6-1.2c0.2-0.6,0.3-1.2,0.4-1.8
			c0.2-1.1,0.4-2.6-0.3-3.7c-0.5-0.9-1.6-1.1-2.5-0.9c-1.2,0.2-2.3,0.8-3.3,1.4c-1.2,0.7-2.2,1.5-3.2,2.3c0.3,0.2,0.5,0.4,0.8,0.6
			c1.1-1.4,2-3,2.7-4.6c0.4-1.1,1-2.7,0-3.7c-1.1-1.2-3.2,0-4.4,0.6c-1.6,0.8-3.1,1.7-4.4,2.9c0.2,0.2,0.5,0.5,0.7,0.7
			c1.4-1.4,2.6-2.9,3.6-4.6c0.9-1.6,1.8-3.4,2.2-5.3c0.1-0.8,0.2-1.6-0.3-2.2c-0.5-0.7-1.3-1-2.1-0.9c-1.8,0.1-3.6,1.1-5.1,2
			c-1.8,1.1-3.4,2.6-4.7,4.2c0.3,0.2,0.5,0.4,0.8,0.6c2.3-3.3,4-7,5-10.9c0.4-1.4,1-3.5-0.6-4.4c-1.5-0.8-3.6,0.7-4.8,1.4
			c-1.9,1.2-3.6,2.6-5.1,4.2c0.3,0.2,0.5,0.4,0.8,0.6c2-4.5,4-9.1,4.4-14c0.1-1.1,0.1-2.3-0.1-3.5c-0.1-0.8-0.4-1.6-1-2.1
			c-0.7-0.6-1.7-0.4-2.5,0c-0.9,0.5-1.7,1.1-2.4,1.7c-3.1,2.7-5,6.5-6.5,10.3c-1.8,4.6-3.1,9.5-3.9,14.4c-0.9,5.6-1.3,11.2-1,16.9
			C80.5,336.9,81.5,336.9,81.4,336.3z"/>
	</g>
</g>
<path class="st2" d="M76.7,284.8L76.7,284.8C76.8,284.8,76.8,284.8,76.7,284.8C76.8,284.8,76.7,284.8,76.7,284.8z"/>
<g>
	<defs>
		<path id="XMLID_32_" d="M29.3,344.1L28,356.7c0,0,48,33.7,180.9,28.3c143.8-5.8,174.3-36.6,174.3-36.6l-1.3-11.8L230.7,361
			l-124.4-5.3C106.2,355.6,57.2,337.1,29.3,344.1z"/>
	</defs>
	<use xlink:href="#XMLID_32_"  style="overflow:visible;fill:#DDDDDD;"/>
	<clipPath id="XMLID_5_">
		<use xlink:href="#XMLID_32_"  style="overflow:visible;"/>
	</clipPath>
	<g class="st3">
		<g>
			<path class="st4" d="M32.5,357.2c-1.9-1.7-3-5.2-3-7.7c0-1.2,0.2-2.8,1.4-3.4c1.8-1,4.3,0.4,4.8,2.2c0.4,1.4-0.5,2.9-0.9,4.2
				c-0.5,1.4-1.2,2.8-1.5,4.3c-0.6,2.3,0.6,4.4,2.9,5.2c5.4,1.7,5.7-6,3.7-9c-0.7-1-1.6-1.9-1.8-3.2c-0.2-1.2,0.2-2.4,1.7-2.3
				c0.9,0.1,1.9,0.7,2.5,1.4c2,2,2,5.2,1.6,7.8c-0.4,2.8-2,8,2.1,8.9c1.6,0.3,4.6,0.3,5.2-1.6c0.7-2.2-1-4.6-2.2-6.1
				c-1.2-1.6-3.2-3.6-1.8-5.6c1.8-2.6,5.1-1.4,5.9,1.3c1.1,3.7-0.8,7.5-0.1,11.2c0.4,2.2,1.7,4,3.8,4.9c1.6,0.6,4.4,1,5-1.2
				c0.5-2.2-1.3-5-2.3-6.9c-0.9-1.8-2.1-3.7-2.6-5.7c-0.4-2,1.4-2.9,3.1-3.1c3.5-0.2,6.1,3.7,5.6,6.9c-0.5,2.8-2.1,5.4-2.2,8.3
				c-0.1,2.3,0.8,5,3.5,5.2c2.1,0.2,4.6-1.4,4.9-3.6c0.4-3.4-4.7-6.7-2.6-10.1c2-3.2,8.4-1,8.9,2.4c0.4,2.9-3.2,4.9-3.4,7.8
				c-0.1,2.2,1,4.3,3,5.2c1.8,0.9,4.9,1.2,6-0.9c1-1.8-0.5-4.2-1.3-5.8c-1.4-2.7-1.9-6.9,1.9-7.9c3.6-1,6.7,2.6,6.1,6.1
				c-0.6,3.2-3.1,6.1-2.2,9.5c0.7,2.5,3.1,3.9,5.6,2.9c2-0.8,3.6-2.8,3.2-5c-0.6-3.2-5.1-6.3-2.8-9.7c1.2-1.8,3.9-2.3,5.5-0.7
				c1.4,1.4,1.6,4.1,1.7,5.9c0.2,2.4-0.1,4.8-0.6,7.1c-0.3,1.3-0.6,2.6,0.3,3.7c1.3,1.6,3.9,1.1,5.5,0.2c2.2-1.3,2.9-3.2,2.1-5.6
				c-0.5-1.5-1.5-2.8-2.1-4.3c-0.8-2.1-0.1-4,1.9-5.1c2.3-1.3,4.4,0.1,4.7,2.6c0.3,2.4,0,4.9-0.9,7.2c-0.8,2.1-2.9,5.5,0.3,6.8
				c2,0.8,4.5-0.2,5.8-1.8c2-2.3,0.1-5.3-1-7.6c-0.7-1.6-1.2-3.3-0.2-4.8c1.1-1.8,3.6-2.2,5.4-1.1c4.2,2.5,0.6,7.1,0.1,10.5
				c-0.3,2.4,1.2,4.6,3.5,5.5c2,0.8,4.9,0.2,5.8-2.1c0.9-2.3-0.5-4.7-1.7-6.6c-0.8-1.2-1.5-2.6-1.6-4c-0.1-2.8,3.1-3.6,5.2-2.6
				c5,2.4,1.4,7.1,0.6,10.8c-1,4.7,4.9,9.1,8.8,5.5c4-3.8-1.5-9.1-1.3-13.2c0.2-4.6,6.2-4.2,8.1-1c2,3.4-1.3,7.4,0.2,10.9
				c1,2.2,3.7,3.7,6.1,3.6c2.4-0.1,4.2-2,3.9-4.4c-0.4-2.7-3.2-4.9-2.9-7.8c0.3-2.5,3.3-2.9,5.2-1.8c2.4,1.4,2.5,3.7,1.7,6.1
				c-0.9,2.6-2.2,5.3-0.4,7.8c1.4,2,4.1,2.8,6.3,1.8c2-0.9,2.9-3,2.7-5.1c-0.3-3.2-4.1-6.2-3-9.5c1.2-3.4,7.7-3.6,9.5-0.7
				c2,3.1-1.5,6.7-1.3,9.9c0.1,2.1,1.4,4.3,3.4,5.1c2,0.8,4.7,0.2,5.7-1.7c1.1-1.9,0.3-4.4-0.7-6.2c-1.2-2.1-4-5.7-1.6-7.9
				c1.8-1.7,4.9-0.9,6.4,0.7c1.9,1.9,1.5,4.2,1.2,6.6c-0.4,3-0.3,5.6,2.4,7.5c2,1.5,5.3,1.9,7.2-0.1c1.6-1.6,0.9-4.1,0-5.9
				c-1.2-2.3-4.6-5-3.6-8c0.6-2,3.3-2.3,5-1.7c2.5,0.9,3.7,3.2,3.4,5.7c-0.3,2.7-1.9,6.3,0.4,8.5c1.7,1.7,4.7,2,7,1.4
				c5.8-1.8-1.9-6.6-2.8-9.1c-1.2-3.3,1.6-6.4,4.8-6.2c2.8,0.1,5.3,1.4,5.1,4.5c-0.2,2.8-3.5,6.7-1.2,9.3c1.3,1.5,4.4,1.3,6.2,0.8
				c1.7-0.5,2.1-2,1.7-3.6c-0.8-3.2-6-8.6-3.2-12c2.1-2.5,6.8-1.4,8.5,1c1.8,2.8-0.2,5.5-0.6,8.4c-0.4,2.6,0.6,4.4,3.3,5.2
				c2.2,0.6,5.1,0.2,5.9-2.2c0.9-2.6-0.8-4.8-2.3-6.7c-1.1-1.4-2.8-3.4-1.7-5.2c0.7-1.3,2.4-1.9,3.8-2.1c1.3-0.2,2.7-0.2,3.9,0.2
				c2.4,0.9,2.8,3.2,2.2,5.5c-0.7,2.7-2,5.1-0.5,7.7c2.3,4.4,9.7,2.9,8.9-2.5c-0.5-3.2-4-4.9-5.3-7.7c-0.8-1.7-0.4-3.8,1.3-4.7
				c2.2-1.2,5,0.1,6.2,2.1c1.9,3.2-1.3,7.1,0.1,10.5c1,2.5,3.8,3.6,6.4,3.2c2.1-0.4,3.7-1.6,3.2-3.9c-0.7-3.1-4.1-4.9-3.9-8.3
				c0.2-3.4,4.3-5.4,7.3-4.5c2.8,0.9,2.8,4.2,1.8,6.5c-0.9,2-2.1,4.1-1.2,6.3c0.9,2.2,3.7,2.7,5.7,1.8c2.1-0.9,3.6-3.2,3-5.5
				c-0.7-3.2-4.7-6.2-3-9.6c0.8-1.6,2.6-2.3,4.3-2.1c1.8,0.2,3,1.4,3.6,3c0.3,0.8,0.5,1.7,0.7,2.6c0.4,2.2-0.2,4.4,0.5,6.6
				c1.4,4.5,10.2,4.2,9.5-1c-0.4-3-3.1-4.6-5.1-6.6c-1.6-1.5-3.5-4.1-0.9-5.8c1.5-0.9,3.7-0.9,5.3-0.4c2,0.6,2.9,1.9,2.7,3.9
				c-0.1,1.9-0.4,3.7-0.1,5.6c0.4,2.6,2.5,4.6,5.2,4.5c2.2,0,3.9-1.6,3.7-3.8c-0.3-3.1-3.2-4.5-5.1-6.6c-3.9-4.2,4.8-8.4,6.6-3.1
				c0.9,2.6-0.3,5.4,0.7,8c0.8,2,2.6,3.9,4.9,4c2.2,0.1,4.4-1.2,4.3-3.6c-0.1-2.8-2.6-4.6-4.6-6.1c-1.3-1-3.4-2.5-3.4-4.4
				c0-2.1,2.5-2.9,4.2-2.9c2,0,3.8,1.1,4,3.2c0.2,1.6-0.4,3.1-0.6,4.7c-0.2,2.2,0.9,4.8,2.6,6.2c3.9,3.3,8.9-1.2,6.8-5.5
				c-0.8-1.5-2-2.8-2.7-4.4c-1.1-2.2,0-4.4,2.4-5c5-1.3,1.7,6.4,2.2,8.7c0.4,2.2,2,4.5,4.4,4.8c1.9,0.2,3.2-0.8,3-2.8
				c-0.2-2.1-1.6-4.1-2.4-6c-0.5-1.2-1.2-2.8-1-4.1c0.2-2,3.2-4,5.1-2.8c2,1.3,0.6,5.8,0.2,7.7c-0.3,1.7-1.3,4.5,0.5,5.7
				c1.6,1,4.3,0.3,5.3-1.2c1.8-2.5-1-5.3-1.9-7.6c-0.5-1.4-1-3.3,0-4.7c1-1.4,3.6-1.7,5.1-0.9c2,1,1.1,3.8,0.5,5.3
				c-0.5,1.4-2.1,3.2-1.9,4.7c0.2,1,1.1,2,2.1,2.3c2,0.8,4.4-0.3,5.3-2.2c0.7-1.4,0.5-2.9-0.1-4.3c-0.9-2.1-2.4-3.7-2.6-6.1
				c-0.1-1.2,0-2.3,1.2-3c0.6-0.4,1.4-0.5,2.1-0.5c0.9,0,2.1,0.1,2.8,0.9c1,1,0.5,2.8,0.1,4c-0.7,2.1-3.1,5.5-0.8,7.5
				c1.7,1.5,4.4,1.1,5.6-0.7c2-2.8,0.1-5.8-0.9-8.5c-0.6-1.6-2.5-5,0-5.8c4.5-1.5,2.5,5.2,2.7,7.3c0.2,1.9,1.4,4.1,3.6,3.9
				c2.2-0.2,2.8-2.7,2.6-4.6c-0.3-2.6-1.7-4.3-2.9-6.4c-0.6-1-1.3-2.6-0.4-3.6c0.5-0.5,1.8-1,2.5-0.9c1,0.2,1.2,1.1,1.3,2
				c0.3,2.1-0.6,4.3,0.2,6.3c0.9,2.1,3.1,3.9,5.5,3.2c2-0.6,1.8-2.6,1-4.2c-0.6-1.2-1.4-2.3-2.2-3.4c-0.8-1-2.4-2.8-1.6-4.2
				c0.6-1.1,2.7-1.3,3.5-0.3c0.5,0.7,0.7,1.7,0.9,2.5c0.3,1.7,0,7.2,2.8,6.7c6.3-0.9,0-8.5-1.9-10.5c-0.4-0.5-1.1,0.2-0.7,0.7
				c1.3,1.4,6.3,6.5,3.5,8.3c-2.3,1.6-2.3-1.6-2.5-3.1c-0.4-3-1-7.7-5.2-5.9c-5.8,2.5,4.9,9,2.7,11.9c-1.4,1.9-4.1-0.5-4.8-1.8
				c-0.6-1.3-0.4-2.6-0.3-4c0.1-1.5,0.3-4-1.3-5c-1.4-0.9-4.1,0.1-4.7,1.6c-0.9,1.9,0.7,4.1,1.7,5.6c0.8,1.2,1.4,2.4,1.7,3.8
				c0.3,1.4,0.4,4.8-2.1,4.2c-3.3-0.7-1.5-5.8-1.6-8c-0.2-2.4-2-3.8-4.3-3.1c-1.7,0.5-2.2,1.9-1.9,3.6c0.6,2.6,2.2,5,2.8,7.6
				c0.5,2-0.3,4.8-2.7,4.8c-3.5,0-2.3-3.4-1.5-5.3c0.9-2,2.1-5.4,0-7.1c-1.7-1.3-4.9-1.1-6.5,0.3c-2,1.9-0.6,5.8,0.5,7.8
				c1.2,2,2.9,4.7,0.4,6.6c-0.7,0.6-1.8,0.9-2.7,0.7c-2.2-0.5-1.7-2.3-0.9-3.9c1.3-2.6,3.4-7.7-0.8-8.9c-2.2-0.6-5.2,0-6.1,2.4
				c-0.8,2.2,0.2,4.8,1.3,6.7c1.1,1.9,2.5,4.8-0.4,5.7c-0.6,0.2-2,0.5-2.5-0.1c-0.6-0.7-0.5-1.9-0.4-2.8c0.4-2.4,1.2-4.9,1.1-7.3
				c0-1.9-0.8-3.4-2.8-3.6c-2.3-0.3-4.9,1.5-5.2,3.9c-0.3,2.3,1.2,5.1,2.1,7.2c0.3,0.8,0.8,1.5,1,2.4c0.2,0.5,0.4,1.2,0.2,1.7
				c-0.4,1.3-2.2,1-3.2,0.5c-1.3-0.7-2.1-2.3-2.3-3.7c-0.3-1.8,0.6-3.5,0.8-5.2c0.2-2.5-1-4.7-3.8-4.3c-2,0.4-4.2,2.2-4.1,4.4
				c0.2,3.4,4.4,5.5,3.8,8.9c-0.3,1.9-2.2,3.2-4.1,2.7c-1.6-0.4-2.8-2-3.4-3.5c-1.1-2.7,0.6-5.3,0-8.1c-0.9-4.6-9.6-5-10.2-0.1
				c-0.3,2.7,2.8,4.8,4.6,6.2c1.3,1,2.6,2.1,3.1,3.7c0.8,2.3-1.2,3.9-3.4,3.5c-1.8-0.3-3.1-1.8-3.7-3.4c-0.5-1.4-0.3-2.8-0.2-4.2
				c0.1-2.3-0.3-4.8-2.4-6.2c-2.3-1.5-5.4-0.6-7,1.6c-1.7,2.4-0.2,4.5,1.8,6.2c1.3,1.1,2.6,2,3.3,3.6c1,2.3-0.6,4.4-3.2,3.9
				c-5-1.1-2.9-6.7-3.1-10.2c-0.3-4.8-9-5.7-11-1.7c-1.3,2.6,1.5,5.2,3.2,6.8c2,1.7,6.5,6.4,1.6,7.9c-2.3,0.7-4.8-0.1-5.5-2.6
				c-0.5-2,0-4.2-0.4-6.3c-0.3-1.9-0.9-4-2.5-5.3c-3.9-3.3-9.8,0.8-8.2,5.6c1.1,3.2,5.6,7.3,1.5,10.2c-1.4,1-4,1.2-5-0.6
				c-0.8-1.4-0.2-3.4,0.5-4.7c1.6-3.3,2.1-8.4-2.7-9.2c-5.2-0.8-9.4,4.1-6.9,9c1.1,2.2,5.7,6.6,1.1,7.7c-2,0.5-4.4-0.2-5.5-2.1
				c-1.1-2-0.1-4.5,0.2-6.7c0.4-2.9-0.5-5.5-3.3-6.8c-2.2-1.1-5.2-0.7-6.6,1.5c-1.2,2.1-0.4,4.4,1,6.1c1.2,1.5,2.7,2.7,3.6,4.3
				c1,1.8,0.6,4.1-1.4,5.1c-3.9,1.8-6.4-2.5-5.5-5.8c0.8-2.7,2.4-6.1,0-8.5c-2.6-2.6-9.4-2.1-10.9,1.6c-1.2,3,1.9,5.5,3.3,7.7
				c0.8,1.2,1.4,2.9,0.7,4.3c-1.2,2.3-4.7,1.8-6.4,0.4c-2.6-2.3,0.7-6.4,0.7-9.1c0-2-1.2-4-2.9-5.1c-3.4-2.2-9.4-0.9-9.1,3.8
				c0.1,1.8,0.8,3.5,1.7,5.1c0.7,1.4,3.8,5.6,1.7,6.8c-1.1,0.6-3.5,0.6-4.6,0.3c-1.2-0.4-1.5-1.4-1.4-2.6c0.2-1.8,1.2-3.3,1.6-5
				c1.2-4.4-1.9-7.1-6.1-7.1c-4.6-0.1-7.5,5.3-4.7,9c0.9,1.1,5.4,4.7,3.6,6c-1.4,1-3.7,0.8-5.2,0.2c-2.4-0.9-2.8-2.7-2.4-5.1
				c0.5-3,1.5-6.1-0.9-8.6c-1.8-2-5-2.9-7.3-1.4c-5.2,3.2,2.2,9.3,2.9,12.7c0.4,2.1-1,3.6-3.2,3.8c-2.1,0.1-4.4-1.3-5.2-3.3
				c-1.4-3.4,1.4-7.2-0.6-10.5c-1.4-2.3-4.5-3.7-7.1-2.9c-2.1,0.7-3.1,2.5-2.8,4.7c0.4,2.8,2.6,4.7,3.3,7.3c0.4,1.4,0.4,3.1-0.8,4.1
				c-1.5,1.3-4,1-5.3-0.5c-2.7-2.9-0.3-6.3,0.3-9.5c0.5-2.5-0.2-4.9-2.7-6c-2.2-1-5.1-0.8-7.2,0.5c-2.3,1.4-2.5,3.9-1.6,6.2
				c1.1,2.8,4.3,6.4,1.6,9.3c-1.3,1.4-3.7,1.5-5.2,0.4c-1.7-1.2-2-3.1-1.6-5c0.7-2.8,2.8-5.8,0.8-8.6c-1.5-2.1-4.7-3.2-7-1.7
				c-2,1.3-1.8,3.7-0.9,5.6c0.5,1.3,1.5,2.4,2,3.7c0.9,2.4-0.2,4.6-3,4.5c-1.7-0.1-3.6-1.1-4.5-2.6c-1.2-2.1-0.1-4.7,0.2-6.9
				c0.4-2.6-0.3-5.1-2.7-6.6c-2-1.3-5-1.3-6.7,0.5c-1.5,1.5-1.4,3.9-0.8,5.9c0.7,2.5,2.5,4.6,2.3,7.4c-0.4,4.3-6.2,4.2-7.9,0.7
				c-1.7-3.6,2.2-7,1.7-10.7c-0.3-2.5-2.7-4.5-5.1-4.7c-2.1-0.2-4.4,0.9-4.8,3.2c-0.4,2.7,1.5,4.7,2.7,6.9c0.6,1.2,1.3,3.1,0.6,4.4
				c-1.2,2.1-4.2,1.7-5.8,0.3c-3.5-3.1,0.6-7.1,0.6-10.6c0-5.1-7.7-7.3-9.7-2.3c-1.2,3,0.9,5.3,1.9,8c0.7,2,0.4,3.6-1.5,4.7
				c-2.1,1.2-5.5,0.8-4.3-2.5c0.6-1.7,1.5-3.2,1.9-5.1c0.4-1.8,0.5-3.7,0.2-5.5c-0.5-2.5-2.5-4.1-5.1-3.4c-2,0.6-3.9,2.6-3.9,4.8
				c0.1,3,4.4,6.4,2.4,9.3c-0.8,1.2-2.7,2.2-4.2,2.1c-3.1-0.3-1.4-4.3-1.2-6.1c0.4-3.2,0.5-7.4-1.1-10.3c-2.7-5-10.3-1.3-8.4,3.9
				c1.1,3.1,5.6,7,1.4,9.7c-2,1.3-4.4,0.5-5-1.8c-0.6-2.1,0.5-4.3,1.3-6.3c1-2.5,1.5-4.8,0.1-7.2c-1.2-2.1-3.5-3.3-6-2.9
				c-2.3,0.4-3.9,2-4.3,4.3c-0.4,2.5,0.9,4.4,1.9,6.6c0.5,1.1,1.4,2.9,0.1,3.9c-1.6,1.3-4.4,0.4-5.7-1c-2.7-3.1,0.4-5.9,1.8-8.6
				c2.4-4.7-4.1-8.8-8.2-7.1c-2.5,1-3,3.5-2.1,5.9c0.7,1.7,2,3.1,2.5,4.8c0.6,2.3-1.7,4.5-4.1,4c-4.1-0.8-1.5-7.3-0.7-9.6
				c0.8-2.4,1.4-5-0.1-7.3c-1.3-2-3.3-3.6-5.7-3.4c-1.8,0.1-3.8,1-4.1,3c-0.2,1.3,0.5,2.5,1,3.6c0.8,1.9,1.8,3.7,2.7,5.6
				c0.5,1.1,1.4,2.7,1.3,3.9c-0.2,2.2-3.7,1-4.8,0.2c-3-2.2-2.1-6.5-1.7-9.6c0.3-2.7,0.4-6.6-2.3-8.2c-2.1-1.2-5-0.1-6,2.1
				c-1.2,2.9,1.8,5.2,3.2,7.4c0.6,1,1.5,2.7,1,3.9c-0.5,1.3-3.6,1.3-4.7,0.7c-2-1-1.3-4-1-5.7c0.7-4.1,1.2-9.9-3.6-11.8
				c-1.9-0.8-3.9,0-4,2.2c-0.1,2.5,2.2,4.1,2.8,6.4c0.3,1.3,0.4,2.8,0,4c-0.8,2.4-4,2.1-5.3,0.2c-0.9-1.4-0.2-3.2,0.4-4.6
				c0.5-1.4,1.1-2.8,1.6-4.2c0.6-2,0.2-4.1-1.6-5.2c-1.6-1-4-1.1-5.3,0.4c-1.1,1.4-1.1,3.6-0.8,5.2c0.4,2.3,1.3,5.1,3.2,6.7
				C32.3,358.3,33,357.6,32.5,357.2L32.5,357.2z"/>
		</g>
	</g>
</g>
<g>
	<defs>
		<path id="XMLID_11_" d="M146.7,228.4c0,0-8,60.8-7.5,70.8c0.6,10-0.6,32.2,58.1,32.3c58.7,0.1,53.5-30.8,53.5-30.8
			s0.9-35.7-6.2-72.4L146.7,228.4z"/>
	</defs>
	
		<linearGradient id="XMLID_6_" gradientUnits="userSpaceOnUse" x1="253.9769" y1="314.2088" x2="251.0796" y2="420.2517" gradientTransform="matrix(0.9574 -0.2887 0.2887 0.9574 -149.6706 10.3842)">
		<stop  offset="0" style="stop-color:#FFD6BB"/>
		<stop  offset="1" style="stop-color:#F7E7D6"/>
	</linearGradient>
	<use xlink:href="#XMLID_11_"  style="overflow:visible;fill:url(#XMLID_6_);"/>
	<clipPath id="XMLID_7_">
		<use xlink:href="#XMLID_11_"  style="overflow:visible;"/>
	</clipPath>
</g>
<linearGradient id="SVGID_1_" gradientUnits="userSpaceOnUse" x1="200.8355" y1="345.7719" x2="195.4767" y2="253.0766">
	<stop  offset="0" style="stop-color:#C96873"/>
	<stop  offset="1" style="stop-color:#E86D64"/>
</linearGradient>
<path class="st5" d="M153.9,252.4c0,0,22.6-11.4,46.9,0c0,0,19.6-13.9,47.2-2.5l0.6,68.9L217.8,330h-43.5l-27.6-9L153.9,252.4z"/>
<path class="st1" d="M152,320.3c0,0,20.3,3.4,39.1,3c18.8-0.4,39.5-1.1,60.1-7.9l130.7,21.2c0,0-48.5,19.3-110.4,27.4
	c-85.6,11.2-128.7,3.8-165.2,0.2c-36.5-3.6-76.9-20.1-76.9-20.1L152,320.3z"/>
<g>
	<path class="st1" d="M168.8,262.4c26.2-12.2,52.6-23.9,79.2-35.1l0.7,0.1c0.6,0.2,1.2,0.4,1.7,0.7c0,0,0.1,0.1-0.3,0.2
		c-26.2,11.5-52,23.9-77.3,37.3L168.8,262.4z"/>
	<g>
		<path class="st1" d="M169,262.9c10.5-4.9,21-9.7,31.6-14.4c10.5-4.7,21-9.3,31.6-13.8c2.6-1.1,5.3-2.3,7.9-3.4
			c1.4-0.6,2.8-1.2,4.2-1.8c0.6-0.3,1.2-0.5,1.8-0.8c0.3-0.1,0.7-0.3,1-0.4c0.3-0.1,0.7-0.4,0.9-0.4c0.3,0,0.6,0.1,0.9,0.2
			c0.3,0.1,0.6,0.3,0.9,0.3c0.1,0,0.1,0.1,0.2,0.1c0-0.2,0-0.4,0.1-0.6c0,0-0.6,0.3-0.6,0.3c-1.3,0.6-2.6,1.1-3.9,1.7
			c-2.6,1.2-5.3,2.3-7.9,3.5c-10.3,4.7-20.6,9.5-30.8,14.5c-10.2,5-20.4,10.1-30.5,15.4c-1.3,0.7-2.5,1.3-3.8,2
			c0.2,0,0.4,0.1,0.6,0.1c-1.4-1.1-2.7-2.1-4.1-3.2c-0.5-0.4-1.2,0.3-0.7,0.7c1.4,1.1,2.7,2.1,4.1,3.2c0.2,0.1,0.4,0.2,0.6,0.1
			c10.4-5.5,20.8-10.8,31.3-15.9c10.5-5.2,21.1-10.2,31.8-15c2.7-1.2,5.3-2.4,8-3.6c1.3-0.6,2.7-1.2,4-1.8c0.7-0.3,1.3-0.6,2-0.9
			c0.3-0.1,0.8-0.3,0.8-0.8c0-0.5-0.6-0.6-0.9-0.8c-0.5-0.2-0.9-0.4-1.4-0.4c-0.4-0.1-0.6-0.1-0.9,0c-0.7,0.3-1.4,0.6-2,0.9
			c-2.7,1.1-5.4,2.3-8.2,3.4c-10.9,4.6-21.8,9.4-32.6,14.2c-10.8,4.8-21.5,9.7-32.3,14.7c-1.3,0.6-2.7,1.2-4,1.9
			C167.9,262.3,168.4,263.1,169,262.9z"/>
	</g>
</g>
<polygon class="st6" points="156.8,254.1 162.3,260.8 159.8,266.3 154,255.3 "/>
<path class="st2" d="M134.8,236.8c0,0-90.2,6.5-105.5,25.5s28.5,74.4,52.7,63.8c24.2-10.5,58.7-48.6,58.7-48.6s-16.6,35.1,8.2,42.6
	l9.1-21.5l4.1-59.1L134.8,236.8"/>
<path class="st2" d="M225.9,238.5c0,0,17.6,45.3,5.2,81.8c0,0,11.1-1.7,20-4.9c8.9-3.2,14.2-16.1,1.3-46.2c0,0,38.5,37.6,65.8,34.8
	c27.3-2.8,38.4-46.7,37.2-63.3c-1.2-16.6-26.1-24.5-117.1-9.5"/>
<polygon class="st6" points="154.5,258 160,264.7 159.1,273.1 151.7,259.1 "/>
<g>
	<defs>
		<path id="XMLID_30_" d="M147.4,32.2c16.1,15.2,16.8,40.6,1.6,56.6s-56.7,19.7-72.8,4.5s-16.8-40.6-1.6-56.6S131.3,17,147.4,32.2z"
			/>
	</defs>
	<use xlink:href="#XMLID_30_"  style="overflow:visible;fill:#7A4623;"/>
	<clipPath id="XMLID_8_">
		<use xlink:href="#XMLID_30_"  style="overflow:visible;"/>
	</clipPath>
</g>
<g>
	<defs>
		<path id="XMLID_29_" d="M291.4,178.4c-6,55-58.9,73-117,62.2c-58.6-10.9-97.4-44.7-87.1-100c8.8-47.3,61.6-77.2,117.9-66.8
			C261.6,84.2,296.7,130.5,291.4,178.4"/>
	</defs>
	<use xlink:href="#XMLID_29_"  style="overflow:visible;fill:#F7E7D6;"/>
	<clipPath id="XMLID_9_">
		<use xlink:href="#XMLID_29_"  style="overflow:visible;"/>
	</clipPath>
</g>
<g>
	<defs>
		<path id="XMLID_27_" d="M304.1,180.3c0,0,0-0.1,0-0.1c0.2-1.6,0.4-3.1,0.6-4.7c0.1-1.3,0.2-2.7,0.3-4.1
			c1.8-16.6,2.4-27.9,2.4-27.9c1.8-33.2-22.3-77.9-82.6-93.7c-49.8-13.1-71.8,4.4-78,11c-8.9-1.1-17,0.7-24.3,4.5
			c-15.2,6.4-33.5,21.5-43.2,56.9c-2,7.2-3.3,13.6-4.2,19.5c-5.9,39.4,10.8,49.4,17.5,51.8l0,0c1.6,0.6,2.7,0.7,2.7,0.7
			s-0.7-23.4,10-40.2l0,0c41.5,7,88.8-23.2,88.8-23.2c0.4,9.6-9.7,16.1-9.7,16.1c22.8,0.7,36.5-26.1,36.5-26.1
			c30-2.7,42.3,23.8,42.3,23.8s6.1,9.3,7.8,28.9c0.1,0.8,0.1,1.7,0.2,2.6c0,0,1.9,28.8-5.1,50C266,225.9,296.2,227,304.1,180.3z"/>
	</defs>
	<use xlink:href="#XMLID_27_"  style="overflow:visible;fill:#A05C2D;"/>
	<clipPath id="XMLID_10_">
		<use xlink:href="#XMLID_27_"  style="overflow:visible;"/>
	</clipPath>
</g>
<g>
	<defs>
		
			<rect id="SVGID_2_" x="81.3" y="16.9" transform="matrix(0.9945 0.1048 -0.1048 0.9945 14.999 -19.6991)" width="227.2" height="231.9"/>
	</defs>
	<clipPath id="SVGID_3_">
		<use xlink:href="#SVGID_2_"  style="overflow:visible;"/>
	</clipPath>
	<path class="st7" d="M270.2,207.6c2.2-21-32.4-41.8-77.4-46.6c-45-4.7-83.2,8.4-85.4,29.4c-1.4,13.2,11.7,26.3,32.8,35.4
		c3.1,2.6,10.5,8.7,12.6,10.8c2.8,2.7,2.6-2.6,8.1-1.8c5.5,0.7,4.7,5.7,4.7,5.7s4.6-3.8,8.2-3.6c3.7,0.2,5.3,7.1,5.3,7.1l5.5-6.1
		c0.5-0.5,1.3-0.4,1.6,0.2l4.1,7.1c0,0,3-6.5,6.6-5.9c3.6,0.6,7.3,5.3,7.3,5.3s0.2-5,5.8-4.6c5.5,0.4,4.2,5.5,7.5,3.5
		c3.1-1.9,14.7-8,16.1-8.7C254.6,229.9,268.9,220.2,270.2,207.6"/>
	<path class="st8" d="M234.2,206.4c-19.4-4.4-43.6-4.9-46.8-5c-0.2,0-0.4,0-0.7-0.1c-3.1-0.6-26.9-5.1-46.8-4.9
		c-12.2,0.1-16.8,5.2-18.6,9.6c-1,2.4,2.5-0.5,5.7-0.6c1.5,0,3.3,0.1,5.3,0.6c1.8,0.5,2.9,1.6,3.6,3.1c1.1,2.4,3.7,8.9,6.1,7.4
		c1.5-0.9,3.3-1.6,5.4-1.7c6-0.4,9,2.8,10.4,6.7c0.9,2.5,4.7,3.6,7.2,2c1.1-0.7,2.4-1.1,3.8-1.2c5.1-0.4,9.8,5.9,12.5,10.1
		c1.1,1.8,3.5,2.1,5,0.5c3.5-3.6,9.4-8.7,14.3-7.3c1.4,0.4,2.6,1.1,3.5,2c2.1,2,6,1.8,7.4-0.5c2.2-3.5,5.7-6.1,11.5-4.4
		c2,0.6,3.6,1.6,4.9,2.8c2,1.9,5.3-3.9,6.9-6c1-1.3,2.3-2.3,4.1-2.3c2-0.1,3.8,0.2,5.3,0.5c3.1,0.8,6.6,4.4,6.1,1.9
		C249.6,215.1,246.1,209.1,234.2,206.4"/>
	<g class="st9">
		<defs>
			<path id="XMLID_25_" d="M187.5,203.6c4.3,6.9,11.3,11.7,19.5,12.5c15,1.6,28.6-10.5,30.3-27c1.2-10.9-1-12.9-20.9-58.8
				c0.1,0.1,0.2,0.3,0.2,0.4c0-0.2-0.1-0.5-0.1-0.7l-0.2,0.2c-4-8,1.9-18.3,10.6-17.3l13.7,1.4c11.1,1.2,23-5,32-19.6
				c8.1,16.1,11.8,35,9.7,54.8c-0.9,8.2-3.8,16.6-1,30.3l0,0c1.2,6.2,3.9,13.3,8,19.2c-4.9-0.1-9.9-1.7-14.1-4.8
				c-3.2,9.3-4.1,19.7-2.6,29.4c-4.9-2.1-8.9-5.7-11.4-10.2c-2.1,6.8-3,14-2.7,20.8c-3.6-1.2-6.8-3.3-9.5-6c-2.7-2.7-4.7-6-5.8-9.9
				c-6.4,4.6-14,6.7-21.5,5.9l-72.1-7.6c-7.6-0.8-14.5-4.4-19.8-10.3c-1.9,3.5-4.6,6.4-7.7,8.4c-3.2,2.1-6.8,3.4-10.6,3.8
				c1.7-6.6,2.4-13.8,1.7-20.9c-3.4,3.8-8,6.5-13.3,7.6c3.6-9.2,4.9-19.5,3.6-29.3c-4.8,2.2-10,2.7-14.8,1.8
				c5.3-4.9,9.4-11.3,11.9-17.1l0,0c5.6-12.8,4.5-21.6,5.3-29.8c2.1-19.7,9.7-37.4,20.9-51.5c5.7,16.1,16.1,24.7,27.2,25.8l13.7,1.4
				c8.7,0.9,12.4,12.2,6.8,19.2l-0.1-0.2c-0.1,0.2-0.1,0.4-0.2,0.7c0.1-0.1,0.2-0.2,0.3-0.4c-29,40.7-31.6,42.2-32.7,53.1
				c-1.7,16.5,9,31.2,24,32.8C174.1,212.7,181.8,209.4,187.5,203.6"/>
		</defs>
		<use xlink:href="#XMLID_25_"  style="overflow:visible;fill:#F4D5BD;"/>
		<clipPath id="XMLID_13_">
			<use xlink:href="#XMLID_25_"  style="overflow:visible;"/>
		</clipPath>
	</g>
	<path class="st10" d="M204.1,46c0.2,0,0.3,0,0.5,0c8,0.8,15.7,2.8,22.8,5.8c-7.1-2.9-14.7-4.9-22.7-5.7
		C204.5,46.1,204.3,46.1,204.1,46c-0.2,0-0.4,0-0.6,0c-8-0.8-15.8-0.5-23.4,0.9c7.6-1.4,15.5-1.7,23.5-0.9
		C203.8,46,203.9,46,204.1,46"/>
	<path class="st11" d="M187.5,203.7c4.7,7.4,12.5,12.2,21.2,12.5c-0.8,7.6-7.1,13.1-14,12.4l-19.6-2.1c-6.9-0.7-11.9-7.5-11.1-15.1
		C172.7,213.1,181.3,210,187.5,203.7"/>
	<path class="st12" d="M298,194.4c0,0.4-0.4,0.8-0.8,0.7l-60-6.3c0.1-0.5,0.1-1.1,0.1-1.6l60,6.3C297.8,193.6,298.1,194,298,194.4"
		/>
	<path class="st12" d="M81.3,171.6c0,0.4,0.2,0.8,0.6,0.9l60,6.3c0.1-0.5,0.1-1.1,0.2-1.6l-60-6.3C81.7,170.8,81.4,171.1,81.3,171.6
		"/>
	<path class="st12" d="M292.2,204.2c0,0.4-0.4,0.8-0.8,0.7l-56.9-6c0.2-0.5,0.4-1,0.6-1.5l56.4,5.9
		C291.9,203.4,292.2,203.8,292.2,204.2"/>
	<path class="st12" d="M85,182.4c0,0.4,0.2,0.8,0.6,0.9l56.9,6c-0.1-0.5-0.2-1.1-0.3-1.6l-56.4-5.9C85.4,181.6,85,181.9,85,182.4"/>
	<path class="st12" d="M286.3,214c0,0.4-0.4,0.8-0.8,0.7l-57.8-6.1c0.5-0.5,1-1,1.4-1.5l56.5,6C286.1,213.2,286.4,213.6,286.3,214"
		/>
	<path class="st12" d="M88.6,193.2c0,0.4,0.2,0.8,0.6,0.9l57.8,6.1c-0.4-0.6-0.7-1.1-1.1-1.7l-56.5-6
		C89,192.4,88.7,192.8,88.6,193.2"/>
	<g class="st9">
		<defs>
			<path id="XMLID_24_" d="M204.1,46.1c0.2,0,0.4,0,0.6,0.1c30.1,3.2,54.8,22.2,68,48.6c0,0,0,0,0,0c-8.9,14.6-20.9,20.8-32,19.6
				l-13.7-1.4c-8.7-0.9-14.6,9.3-10.6,17.3l0.2-0.2c0,0.2,0.1,0.5,0.1,0.7c-0.1-0.1-0.2-0.3-0.2-0.4c19.9,45.9,22.1,47.9,20.9,58.8
				c-1.7,16.5-15.3,28.6-30.3,27c-8.2-0.9-15.2-5.7-19.5-12.5c-5.7,5.8-13.4,9.1-21.7,8.2c-15-1.6-25.8-16.2-24-32.8
				c1.2-10.9,3.7-12.4,32.7-53.1c-0.1,0.1-0.2,0.3-0.3,0.4c0.1-0.2,0.2-0.4,0.2-0.7l0.1,0.2c5.6-7,1.9-18.3-6.8-19.2l-13.7-1.4
				c-11.1-1.2-21.5-9.7-27.2-25.8c0,0,0,0,0,0c18.4-23.1,46.6-36.5,76.6-33.3C203.7,46,203.9,46.1,204.1,46.1"/>
		</defs>
		<use xlink:href="#XMLID_24_"  style="overflow:visible;fill:#D88A4B;"/>
		<clipPath id="XMLID_14_">
			<use xlink:href="#XMLID_24_"  style="overflow:visible;"/>
		</clipPath>
	</g>
	<path class="st8" d="M264.4,81.1c0.7,0.9,1.3,1.8,1.9,2.7C265.7,82.9,265,82,264.4,81.1"/>
	<path class="st8" d="M137.8,67.7c-0.8,0.7-1.6,1.5-2.4,2.2C136.2,69.2,137,68.5,137.8,67.7"/>
	<path class="st8" d="M244.7,61.5l-0.2,0.2c0-0.1,0-0.2,0.1-0.3C244.6,61.4,244.7,61.5,244.7,61.5"/>
	<path class="st8" d="M161.2,52.7l0.2,0.2c0-0.1,0-0.2,0-0.3C161.3,52.6,161.2,52.7,161.2,52.7"/>
	<path class="st8" d="M270.2,98.5c0.5-0.7,1-1.5,1.6-2.3L270.2,98.5L270.2,98.5z"/>
	<path class="st8" d="M128.5,83.6c-0.4-0.8-0.7-1.7-1.1-2.5L128.5,83.6L128.5,83.6z"/>
	<path class="st13" d="M288.3,66c-0.8,7.5-3.3,11.5-15.6,28.7c-7.5-14.9-18.6-27.5-32.4-36.2l13.4-10.4
		C268.4,36.2,290.5,45.1,288.3,66"/>
	<path class="st13" d="M117.6,48c-0.8,7.5,0.8,11.9,9.3,31.4c10.4-13.1,24-23,39.2-28.6l-10.9-13C143.3,23,119.8,27.1,117.6,48"/>
	<path class="st14" d="M283.5,65.5c-0.5,4.6-5.5,13.2-13.7,23.8c-3.7-6.3-8.1-12.2-13.1-17.4c2.5-5.1,6.7-9,11.6-11
		c-3.7-0.9-7.5-0.8-10.8,0.1c3.8-4.7,9.1-7.6,14.8-8.1c-3.6-2.3-7.6-3.3-11.3-3.3c2.9-1.3,6.1-1.8,9.2-1.5
		C277.3,48.9,284.6,54.7,283.5,65.5"/>
	<path class="st14" d="M122.4,48.5c-0.5,4.6,2.6,14.1,8.4,26.2c4.9-5.4,10.4-10.2,16.4-14.2c-1.4-5.5-4.6-10.2-9-13.2
		c3.8-0.1,7.5,0.8,10.6,2.4c-2.7-5.4-7.3-9.3-12.8-11c4-1.4,8.1-1.6,11.8-0.8c-2.6-1.9-5.5-3.1-8.7-3.4
		C131.9,33.6,123.6,37.7,122.4,48.5"/>
	<path class="st12" d="M187.5,203.6c4.3,6.9,11.2,11.6,19.4,12.5c0.6,0.1,1.2,0.2,1.8,0.2c-0.1,1.1-11.3,0.5-22.5-0.7
		c-11.2-1.2-22.2-2.9-22.1-4c0.6,0.1,1.2,0.1,1.8,0.2C174.1,212.6,181.8,209.4,187.5,203.6"/>
	<path class="st15" d="M247.4,123.4c-1,9.9-9.3,17.2-18.3,16.3c-5.6-0.6-10.2-4.2-12.6-9.2c-0.6-3.8,0.7-7.7,3.1-10.2
		c2-2.1,4.7-3.4,7.7-3.1c2.6,0.2,12.6,1.3,12.8,1.4c0.7,0.1,1.4,0.1,2.1,0.1c1.6,0,3.3-0.1,5-0.3
		C247.6,119.9,247.6,121.6,247.4,123.4"/>
	<path class="st15" d="M145.6,112.7c-1,9.9,5.5,18.8,14.5,19.7c5.6,0.6,10.8-2,14.3-6.3c1.4-3.6,0.9-7.6-0.9-10.6
		c-1.5-2.5-3.9-4.3-6.9-4.7c-2.6-0.3-12.6-1.3-12.8-1.4c-0.7-0.1-1.4-0.2-2.1-0.3c-1.6-0.3-3.2-0.8-4.8-1.4
		C146.2,109.3,145.8,110.9,145.6,112.7"/>
	<path class="st16" d="M242.5,122.9c-0.7,7-6.5,12.1-12.8,11.4c-6.3-0.7-10.9-6.8-10.1-13.8c0-0.1,0-0.1,0-0.2
		c2-2.1,4.7-3.4,7.7-3.1c2.6,0.2,12.6,1.3,12.8,1.4c0.7,0.1,1.4,0.1,2.1,0.1C242.6,120,242.6,121.4,242.5,122.9"/>
	<path class="st16" d="M150.5,113.2c-0.7,7,3.8,13.1,10.1,13.8c6.3,0.7,12.1-4.4,12.8-11.4c0-0.1,0-0.1,0-0.2
		c-1.5-2.5-3.9-4.3-6.9-4.7c-2.6-0.3-12.6-1.3-12.8-1.4c-0.7-0.1-1.4-0.2-2.1-0.3C151.1,110.3,150.7,111.7,150.5,113.2"/>
	<path class="st17" d="M234.4,124.1c-0.2,2.3-2.1,4-4.2,3.7c-2.1-0.2-3.6-2.3-3.3-4.5c0.2-2.3,2.1-4,4.2-3.7
		C233.2,119.8,234.6,121.8,234.4,124.1"/>
	<path class="st17" d="M158.2,116.1c-0.2,2.3,1.3,4.3,3.3,4.5c2.1,0.2,4-1.5,4.2-3.7c0.2-2.3-1.3-4.3-3.3-4.5
		C160.3,112.1,158.4,113.8,158.2,116.1"/>
	<path class="st18" d="M216.4,130c0,0.2,0.1,0.5,0.1,0.7c-0.1-0.1-0.2-0.3-0.2-0.4l0-0.1L216.4,130z"/>
	<path class="st18" d="M174.5,125.6c-0.1,0.2-0.1,0.4-0.2,0.7c0.1-0.1,0.2-0.2,0.3-0.4l0.1-0.1L174.5,125.6z"/>
	<path class="st18" d="M228.5,117.3l-1.2-0.1c0.2,0,0.4,0,0.6,0C228.1,117.2,228.3,117.2,228.5,117.3"/>
	<path class="st18" d="M165.4,110.6l1.2,0.1c-0.2,0-0.4-0.1-0.6-0.1C165.8,110.6,165.6,110.6,165.4,110.6"/>
	<path class="st16" d="M235,122.5c-0.1,1-0.9,1.7-1.8,1.6c-0.9-0.1-1.5-0.9-1.4-1.9c0.1-1,0.9-1.7,1.8-1.6
		C234.5,120.6,235.1,121.5,235,122.5"/>
	<path class="st16" d="M157.9,114.3c-0.1,1,0.5,1.8,1.4,1.9c0.9,0.1,1.7-0.6,1.8-1.6c0.1-1-0.5-1.8-1.4-1.9
		C158.8,112.7,158,113.4,157.9,114.3"/>
	<path class="st12" d="M188.5,194c0.4,0,0.7,0.4,0.6,0.8l-1.8,17.5c0,0.4-0.4,0.7-0.8,0.7c-0.4,0-0.7-0.4-0.6-0.8l1.8-17.5
		C187.7,194.3,188.1,194,188.5,194"/>
	<path class="st12" d="M200.4,195.5c-0.5,0-0.8-0.5-0.7-1c0.1-0.5,0.5-0.9,0.9-0.8c0.5,0,0.8,0.5,0.7,1
		C201.3,195.2,200.9,195.5,200.4,195.5"/>
	<path class="st12" d="M176.5,193c0.5,0,0.9-0.3,0.9-0.8c0.1-0.5-0.3-1-0.7-1c-0.5,0-0.9,0.3-0.9,0.8
		C175.7,192.5,176.1,192.9,176.5,193"/>
	<path class="st12" d="M210.2,196.5c-0.5,0-0.8-0.5-0.7-1c0.1-0.5,0.5-0.9,0.9-0.8c0.5,0,0.8,0.5,0.7,1
		C211.1,196.2,210.7,196.6,210.2,196.5"/>
	<path class="st12" d="M166.7,191.9c0.5,0,0.9-0.3,0.9-0.8c0.1-0.5-0.3-1-0.7-1c-0.5,0-0.9,0.3-0.9,0.8
		C165.9,191.4,166.3,191.9,166.7,191.9"/>
	<path class="st12" d="M220,197.5c-0.5,0-0.8-0.5-0.7-1c0.1-0.5,0.5-0.9,0.9-0.8c0.5,0,0.8,0.5,0.7,1
		C220.9,197.2,220.5,197.6,220,197.5"/>
	<path class="st12" d="M157,190.9c0.5,0,0.9-0.3,0.9-0.8c0.1-0.5-0.3-1-0.7-1c-0.5,0-0.9,0.3-0.9,0.8
		C156.2,190.4,156.5,190.9,157,190.9"/>
	<path class="st12" d="M229.8,198.6c-0.5,0-0.8-0.5-0.7-1c0.1-0.5,0.5-0.9,0.9-0.8c0.5,0,0.8,0.5,0.7,1
		C230.7,198.2,230.2,198.6,229.8,198.6"/>
	<path class="st12" d="M147.2,189.9c0.5,0,0.9-0.3,0.9-0.8c0.1-0.5-0.3-1-0.7-1c-0.5,0-0.9,0.3-0.9,0.8
		C146.4,189.4,146.7,189.8,147.2,189.9"/>
	<path class="st12" d="M206.4,185.7c-0.5,0-0.8-0.5-0.7-1c0.1-0.5,0.5-0.9,0.9-0.8c0.5,0,0.8,0.5,0.7,1
		C207.3,185.4,206.9,185.7,206.4,185.7"/>
	<path class="st12" d="M172.7,182.1c0.5,0,0.9-0.3,0.9-0.8c0.1-0.5-0.3-1-0.7-1c-0.5,0-0.9,0.3-0.9,0.8
		C171.9,181.6,172.3,182.1,172.7,182.1"/>
	<path class="st12" d="M216.2,186.7c-0.5,0-0.8-0.5-0.7-1c0.1-0.5,0.5-0.9,0.9-0.8c0.5,0,0.8,0.5,0.7,1
		C217.1,186.4,216.7,186.8,216.2,186.7"/>
	<path class="st12" d="M162.9,181.1c0.5,0,0.9-0.3,0.9-0.8c0.1-0.5-0.3-1-0.7-1c-0.5,0-0.9,0.3-0.9,0.8
		C162.1,180.6,162.5,181.1,162.9,181.1"/>
	<path class="st12" d="M226,187.7c-0.5,0-0.8-0.5-0.7-1c0.1-0.5,0.5-0.9,0.9-0.8c0.5,0,0.8,0.5,0.7,1
		C226.9,187.4,226.4,187.8,226,187.7"/>
	<path class="st12" d="M153.2,180.1c0.5,0,0.9-0.3,0.9-0.8c0.1-0.5-0.3-1-0.7-1c-0.5,0-0.9,0.3-0.9,0.8
		C152.4,179.6,152.7,180,153.2,180.1"/>
	<path class="st12" d="M201.4,206c-0.5,0-0.8-0.5-0.7-1c0.1-0.5,0.5-0.9,0.9-0.8c0.5,0,0.8,0.5,0.7,1
		C202.3,205.7,201.8,206.1,201.4,206"/>
	<path class="st12" d="M173.4,203.1c0.5,0,0.9-0.3,0.9-0.8c0.1-0.5-0.3-1-0.7-1c-0.5,0-0.9,0.3-0.9,0.8S173,203,173.4,203.1"/>
	<path class="st12" d="M211.1,207c-0.5,0-0.8-0.5-0.7-1c0.1-0.5,0.5-0.9,0.9-0.8c0.5,0,0.8,0.5,0.7,1
		C212,206.7,211.6,207.1,211.1,207"/>
	<path class="st12" d="M163.6,202c0.5,0,0.9-0.3,0.9-0.8c0.1-0.5-0.3-1-0.7-1c-0.5,0-0.9,0.3-0.9,0.8
		C162.8,201.5,163.2,202,163.6,202"/>
	<path class="st12" d="M220.9,208.1c-0.5,0-0.8-0.5-0.7-1c0.1-0.5,0.5-0.9,0.9-0.8c0.5,0,0.8,0.5,0.7,1
		C221.8,207.7,221.4,208.1,220.9,208.1"/>
	<path class="st12" d="M153.9,201c0.5,0,0.9-0.3,0.9-0.8c0.1-0.5-0.3-1-0.7-1c-0.5,0-0.9,0.3-0.9,0.8S153.4,201,153.9,201"/>
	<path class="st14" d="M272.7,94.7c-4.9,17.6-20.2,25.1-32.5,23.8c-0.3,0-10.3-1.1-12.8-1.4c-6.7-0.6-12,6.5-10.8,13.6
		c-4.5-8.1,1.5-18.8,10.3-17.9l13.7,1.4C251.7,115.4,263.7,109.3,272.7,94.7"/>
	<path class="st14" d="M126.9,79.4c1.1,18.3,14.5,28.7,26.9,30c0.3,0,10.3,1.1,12.8,1.4c6.7,0.8,10.4,8.8,7.7,15.5
		c6.1-7,2.5-18.7-6.4-19.6l-13.7-1.4C143.1,104,132.6,95.5,126.9,79.4"/>
	<path class="st19" d="M216.5,130.7c-0.7-1.2-1.1-2.4-1.3-3.6c0.3,1.2,0.8,2.3,1.3,3.4C216.5,130.6,216.5,130.6,216.5,130.7"/>
	<path class="st19" d="M174.3,126.3c0.9-1,1.6-2.1,2.1-3.3c-0.6,1.1-1.2,2.1-2,3.1C174.4,126.1,174.3,126.2,174.3,126.3"/>
	<path class="st20" d="M247.3,100.8c-7.1,1.3-12.4-2.2-19.4-0.3c-4.3,1.2-8,6.7-8.4,10.3c1.3-2.7,7-8.7,14.5-6.9
		c8.6,2,12.3,2.2,17.1,0.4c6.9-2.6,11.5-7.9,13.2-14.6C259.5,96.8,255.1,99.4,247.3,100.8"/>
	<path class="st20" d="M150.4,90.6c6.6,2.7,12.6,0.5,19,3.8c4,2,6.4,8.3,6,11.9c-0.7-2.9-5-10-12.7-9.8c-8.8,0.2-12.5-0.4-16.8-3.2
		c-6.2-4-9.6-10.1-9.9-17C139.3,84.2,143.1,87.6,150.4,90.6"/>
	<path class="st20" d="M197.3,110.4c0.4-0.7,0.8-1.4,1.3-2c0.5-0.7,1-1.5,1.6-2.2c20.1-25.8,41.2,2.1,53.3-30.2
		c-7.2,10.2-13.6,12.2-22.2,12.6c-7.8,0.4-14.1-3.7-25.5,1.9c-1.5,0.7-3,1.7-4.4,3.4c1.1-3,2.8-5.8,5.1-8.1
		c-0.8,0.2-1.5,0.5-2.2,0.9c4.5-6.8,4.3-20-1.8-26.2c-7.3,4.7-10.2,17.6-7.2,25.2c-0.6-0.5-1.2-0.9-1.9-1.3c1.7,2.7,2.8,5.8,3.3,9
		c-1.1-1.9-2.3-3.2-3.6-4.2c-10-7.8-17-5.1-24.5-7.1c-8.3-2.2-14.1-5.4-19-17c5.1,34.1,31.6,11.2,45.9,40.7c0.4,0.8,0.8,1.7,1.1,2.5
		C196.8,108.9,197.1,109.6,197.3,110.4"/>
	<path class="st20" d="M210.1,84.5c14.8-7.6,27.8,6.3,36-15.2c-5.1,7.2-9.4,7.6-15.4,7.9c-4.2,0.2-8.4-1.6-13.9-0.4
		c0.8-11.5-3.8-22.1-12.3-24.9C212.4,56.8,213.5,70.9,210.1,84.5"/>
	<path class="st20" d="M190.2,82.4c-12.9-10.6-28.6,0.4-32-22.4c3.5,8.1,7.6,9.4,13.4,10.9c4.1,1.1,8.6,0.2,13.7,2.5
		c1.6-11.4,8.4-20.8,17.2-21.8C193.7,54.8,189.7,68.4,190.2,82.4"/>
	<path class="st20" d="M258.3,81.3c-2.2,8.1-9,13.6-16.5,13.9C250.2,99.9,260.1,91.6,258.3,81.3"/>
	<path class="st20" d="M143.7,69.3c0.5,8.4,6,15.2,13.3,17C147.8,89.1,139.8,78.9,143.7,69.3"/>
	<path class="st20" d="M198.1,136.7c8.5,1.4,14.8-8.7,10.6-16.9C208.8,127.4,204.4,134.2,198.1,136.7"/>
	<path class="st20" d="M191.1,135.9c-8.6-0.4-12.7-11.6-6.9-18.7C182.5,124.6,185.4,132.2,191.1,135.9"/>
	<path class="st20" d="M204.4,110c0.5,0.3,1.1,0.5,1.6,0.7c-6.5,1.8-10.9,9.9-7.9,17.4c0.6-11.1,8.1-13.5,12.4-15.3
		c6.1-2.5,9.7-9.4,8.4-15.7C217.2,104.3,211.2,109.6,204.4,110"/>
	<path class="st20" d="M190.5,108.5c-0.6,0.2-1.2,0.3-1.7,0.3c6,3.1,8.6,11.9,4.1,18.6c1.8-11-5.1-14.9-9-17.6
		c-5.5-3.8-7.6-11.2-4.9-17.2C179.1,100.3,183.9,106.7,190.5,108.5"/>
	<path class="st20" d="M222.5,70.9c6.2,2.8,14.3,0.9,18.7-5.6c-4.5,2.4-9.8,3.1-14.5,1.2c-0.3-5.8-2.7-10.6-8.7-12.4
		C222.8,58.5,222.8,65.2,222.5,70.9"/>
	<path class="st20" d="M181,66.5c-6.7,1.4-14.1-2.1-17.1-9.4c3.9,3.3,9,5.1,14,4.2c1.5-5.6,4.9-9.8,11-10.3
		C183.2,54.3,181.9,60.9,181,66.5"/>
	<path class="st19" d="M238,142.6c9.9-2.7,17.1-11.6,17.8-22.4C261.5,132.7,250.7,146.6,238,142.6"/>
	<path class="st19" d="M150.8,133.4c-9.1-4.7-14.3-14.9-12.8-25.7C129.9,118.8,137.5,134.7,150.8,133.4"/>
	<path class="st19" d="M237.8,155.1c20.8-3.1,26.2-15.6,27.5-34C272.9,141.5,259.2,161.3,237.8,155.1"/>
	<path class="st19" d="M148.4,145.6c-19.7-7.4-22.4-20.7-19.8-39C116.9,125,126.2,147.3,148.4,145.6"/>
	<path class="st19" d="M276.3,148.9c1.7-9.1,2.1-20.7-1.4-26.8c1.5,20.9-7.6,43.6-30.7,46.5c9.2,1.9,17.7,0.1,24.1-4
		c0.6,13.9,7.4,19.2,9.5,20.4C272.7,171.7,274.4,159.4,276.3,148.9"/>
	<path class="st19" d="M112,131.6c0.2-9.3,2.3-20.7,7-25.9c-5.8,20.1-1.7,44.2,20.3,51.9c-9.4-0.1-17.3-3.6-22.8-9
		c-3.5,13.5-11.3,17.3-13.6,18C110.8,154.6,111.7,142.3,112,131.6"/>
	<path class="st21" d="M190.9,171.2c0.5,0.2,1.1,0.3,1.6,0.3c1.3,0.1,2.5-0.4,3.5-1.3c1.8-1.8,0.6-0.6,3.6-3.7
		c1.9-1.9,3.8-2.6,5.9-2.4c3.8,0.4,7.3-2.3,8.5-6.2c2.8,6-0.6,13.1-6.2,14.5c0-1.4-1-2.6-2.3-2.7c-1.4-0.2-2.7,1-2.9,2.6
		c-0.1,0.9,0.2,1.7,0.7,2.3c-3.3,3.3-9.5,9.6-9.5,9.6l-0.9,8.5l-4.8,4.8l-3.7-5.7l0.9-8.5c0,0-4.8-7.5-7.3-11.4
		c0.7-0.5,1.1-1.2,1.2-2.1c0.2-1.6-0.9-3-2.3-3.1c-1.3-0.1-2.5,0.8-2.8,2.2c-5.2-2.6-7.1-10.2-3.1-15.5c0.3,4,3.2,7.4,7,7.8
		c2.1,0.2,3.9,1.3,5.3,3.5c2.4,3.7,1.4,2.2,2.8,4.3c0.7,1.1,1.9,1.9,3.1,2C189.8,171.2,190.4,171.3,190.9,171.2"/>
</g>
<g>
	<defs>
		<path id="XMLID_16_" d="M130.8,260.6c0,0-8.3-28,23.8-29.8s17.5,65.5,14.7,82.4c-2.8,16.9,6.2,41.7,25.2,37.6l-41.9,9.2
			c0,0-14.7-27.8,3.2-76.8s-11.3-14.1-11.3-14.1s-15.7,20.4-18.3,19.2C123.6,287.1,130.8,260.6,130.8,260.6z"/>
	</defs>
	<use xlink:href="#XMLID_16_"  style="overflow:visible;fill:#EFEFEF;"/>
	<clipPath id="XMLID_15_">
		<use xlink:href="#XMLID_16_"  style="overflow:visible;"/>
	</clipPath>
	<g class="st22">
		<path class="st23" d="M145.9,255.7c-0.7,0.2-1.5-0.3-1.5-1c0-0.7,0.8-1.3,1.4-1.1c0.7,0.2,1,1.1,0.7,1.7c-0.3,0.6-1.3,0.8-1.8,0.3
			c-0.3-0.2-0.4-0.6-0.3-0.9c0.1-0.4,0.5-0.6,0.9-0.7c0.3,0,0.6,0.1,0.7,0.4c0.1,0.3-0.2,0.6-0.4,0.5c-0.2-0.2-0.2-0.5,0-0.7
			c0.1,0.2-0.3,0.5-0.5,0.3"/>
		<g>
			<path d="M145.8,255.2c0,0-0.1,0-0.1,0C145.6,255.2,145.6,255.2,145.8,255.2c-0.1,0-0.1,0-0.2,0c0,0-0.1,0-0.1,0c-0.1,0,0,0,0.1,0
				c0,0-0.1,0-0.1,0c0,0-0.1,0-0.1,0c-0.1,0,0,0,0,0c0,0,0,0-0.1,0c0,0-0.1,0-0.1-0.1c0,0,0,0,0,0c-0.1-0.1,0.1,0.1,0,0
				c0,0-0.1-0.1-0.1-0.1c0,0,0,0,0,0c-0.1-0.1,0.1,0.1,0,0c0,0,0-0.1-0.1-0.1c0,0,0,0,0,0c0,0,0,0,0,0c0,0.1,0,0.1,0,0.1
				c0,0,0-0.1,0-0.1c0,0,0,0,0-0.1c0,0.1,0,0.1,0,0c0,0,0-0.1,0-0.1c0-0.1,0,0.1,0,0c0,0,0-0.1,0-0.1c0,0,0-0.1,0-0.1
				c0,0.1,0,0.1,0,0c0,0,0-0.1,0-0.1c0,0,0.1-0.1,0.1-0.1c0,0.1-0.1,0.1,0,0c0,0,0,0,0.1-0.1c0,0,0.1-0.1,0.1-0.1
				c-0.1,0.1-0.1,0,0,0c0,0,0,0,0.1,0c0,0,0.1,0,0.1-0.1c0,0,0.1,0,0,0c-0.1,0,0,0,0,0c0,0,0.1,0,0.1,0c0,0,0.1,0,0,0
				c-0.1,0,0,0,0,0c0,0,0.1,0,0.1,0c0,0,0.1,0,0,0c-0.1,0,0,0,0,0c0,0,0.1,0,0.1,0c-0.1,0-0.1,0,0,0c0,0,0,0,0.1,0
				c0,0,0.1,0,0.1,0.1c-0.1,0-0.1,0,0,0c0,0,0,0,0.1,0.1c0,0,0,0.1,0.1,0.1c-0.1-0.1-0.1-0.1,0,0c0,0,0,0,0,0.1c0,0,0,0.1,0.1,0.1
				c0,0,0,0,0,0.1c0,0,0-0.1,0,0c0,0.1,0,0.2,0.1,0.2c0-0.1,0,0,0,0c0,0,0,0.1,0,0.1c0,0,0,0.1,0-0.1c0,0,0,0,0,0.1c0,0,0,0.1,0,0.1
				c0,0.1,0,0,0,0c0,0,0,0,0,0.1c0,0-0.1,0.1-0.1,0.1c0-0.1,0.1-0.1,0,0c0,0,0,0,0,0c0,0-0.1,0.1-0.1,0.1c-0.1,0.1,0,0,0,0
				c0,0,0,0-0.1,0C145.9,255.2,145.9,255.2,145.8,255.2C145.8,255.3,145.8,255.3,145.8,255.2C145.9,255.2,145.9,255.2,145.8,255.2
				c0,0.1,0,0.1-0.1,0.1c0,0-0.1,0-0.1,0c0,0,0.1,0,0.1,0c0,0-0.1,0-0.1,0c0,0-0.1,0-0.1,0c0,0,0,0-0.1,0c0,0,0.1,0,0.1,0
				c0,0-0.1,0-0.1,0c0,0,0,0,0,0c-0.1,0-0.1-0.1,0,0c0,0-0.1,0-0.1-0.1c0,0,0,0-0.1,0c-0.1,0,0,0,0,0c0,0-0.1-0.1-0.1-0.1
				c0,0,0,0,0,0c0,0.1,0,0.1,0,0c0,0,0,0,0,0c0,0,0,0,0-0.1c0,0,0,0,0,0c0,0,0,0,0,0c0,0,0-0.1,0-0.1c0,0,0,0,0,0c0,0,0,0,0,0
				c0,0,0,0,0,0c0,0,0,0,0-0.1c0,0,0,0,0-0.1c0,0.1,0,0.1,0,0.1c0,0,0,0,0,0c0,0,0,0,0-0.1c0,0-0.1,0.1,0,0c0,0,0-0.1,0-0.1
				c0,0-0.1,0.1,0,0c0,0,0,0,0,0c0,0,0,0,0,0c0,0,0,0,0,0c0,0,0.1-0.1,0.1-0.1c0.1,0,0.1,0,0,0c0,0,0.1,0,0.1,0c0,0,0.1,0,0.1,0
				c-0.1,0-0.1,0,0,0c0,0,0.1,0,0.1,0c0,0,0.1,0,0.1,0c0,0,0,0-0.1,0c0,0,0,0,0.1,0c0,0,0,0,0.1,0c0,0,0,0,0.1,0c0,0,0,0-0.1,0
				c0,0,0,0,0.1,0c0,0,0.1,0.1,0,0c-0.1,0,0,0,0,0c0.1,0.1-0.1-0.1,0,0c0,0.1,0,0,0,0c0,0,0,0,0,0.1c0,0,0-0.1,0-0.1c0,0,0,0.1,0,0
				c0-0.1,0,0,0,0c0,0.1,0.1-0.1,0,0c0,0.1,0.1-0.1,0,0c0,0,0,0,0,0c0.1-0.1,0.1-0.1,0,0c0,0,0,0,0.1,0c0,0-0.1,0,0,0
				c0,0,0.2,0,0.1,0c0.1,0,0.1,0.1,0.2,0.1c-0.1-0.1,0,0,0,0c0,0,0,0,0,0c0,0,0,0,0,0.1c0,0,0-0.1,0-0.1c0,0.1,0,0.1,0,0.1
				c0,0,0,0,0,0c0-0.1,0,0.1,0,0c0,0,0,0,0,0c0,0,0,0,0,0c0,0,0.1-0.1,0,0c-0.1,0.1,0,0,0,0c-0.3,0-0.5-0.1-0.8-0.1
				c0-0.1-0.1-0.1,0-0.3c0,0.1,0.1-0.1,0,0c0,0.1,0.1-0.1,0,0c-0.1,0.1,0.1-0.1,0,0c-0.1,0.1,0.1,0,0,0c-0.1,0,0.1,0,0.1,0
				c-0.1,0,0.1,0,0.1,0c0.1,0,0.2,0.1,0.2,0.1c-0.1-0.2-0.5-0.3-0.7-0.2c-0.2,0.1-0.3,0.4-0.2,0.7c0.2,0.4,0.7,0.4,1,0.2
				c0.1-0.1,0.3-0.2,0.3-0.3c0.1-0.2,0.1-0.5,0-0.7c-0.1-0.1-0.2-0.2-0.4-0.2c-0.2,0-0.3,0-0.4,0.1c-0.3,0.2-0.4,0.7-0.3,1
				c0.1,0.2,0.2,0.5,0.5,0.5c0.2,0.1,0.4,0,0.6-0.1c0.3-0.2,0.5-0.6,0.4-1c-0.1-0.4-0.4-0.6-0.8-0.7c-0.6-0.2-1.5,0.1-1.8,0.7
				c-0.2,0.4-0.2,0.8,0,1.2c0.1,0.3,0.4,0.6,0.7,0.7c0.5,0.3,1.2,0.2,1.7-0.1c0.5-0.3,0.8-0.9,0.8-1.5c-0.1-0.6-0.4-1.2-1-1.4
				c-0.6-0.3-1.3-0.1-1.8,0.4c-0.2,0.2-0.4,0.5-0.4,0.8c-0.1,0.4,0,0.7,0.1,1c0.3,0.5,0.9,0.9,1.5,0.9c0.2,0,0.3,0,0.5-0.1
				c0.2-0.1,0.4-0.3,0.3-0.6C146.3,255.3,146.1,255.1,145.8,255.2L145.8,255.2z"/>
		</g>
	</g>
	<polygon class="st24" points="129.1,260 135.9,259.5 143.6,265.3 147.6,265.9 148.7,270.5 129.4,290 123.8,289.4 123.7,283.4 
		125.9,267 	"/>
	<g class="st22">
		<path class="st23" d="M129,258.1c1.7-1.6,4.5-1.3,6.7-0.3c2.1,1.1,3.9,2.7,6,3.8c2.1,1.1,4.9,1.5,6.7,0c0.5-0.4,0.8-0.9,1.4-1.1
			c0.5-0.3,1.3-0.2,1.6,0.3c0.2,0.4,0,0.9-0.2,1.4c-0.8,1.5-2,2.8-3.5,3.7c-0.5,0.3-1,0.6-1.6,0.8c-1.8,0.4-3.4-0.9-4.9-1.9
			c-3.8-2.9-8.6-5.6-13.3-4.5"/>
		<g>
			<path d="M129.4,258.5c2.7-2.4,6.5-0.1,8.9,1.6c2.5,1.8,5.4,3.8,8.7,2.9c0.6-0.2,1.2-0.4,1.6-0.8c0.5-0.4,1.3-1.6,2-1.2
				c1.2,0.5-2.2,3.8-2.8,4.2c-0.6,0.5-1.3,0.9-2,1.1c-1,0.2-1.9-0.2-2.7-0.7c-1.6-0.9-2.9-2.2-4.4-3.1c-3.3-2.1-7.1-3.5-11-2.7
				c-0.6,0.1-0.4,1.1,0.3,1c4-0.8,8,1,11.2,3.3c1.6,1.1,3,2.5,4.9,3.1c1.8,0.6,3.3-0.3,4.7-1.4c0.7-0.6,1.4-1.3,1.9-2
				c0.5-0.6,1.1-1.5,1.2-2.3c0-0.7-0.4-1.3-1.1-1.4c-0.8-0.2-1.5,0.2-2,0.7c-0.7,0.6-1.2,1.2-2.1,1.4c-0.8,0.2-1.7,0.2-2.5,0
				c-1.9-0.4-3.4-1.5-4.9-2.6c-1.7-1.2-3.4-2.4-5.4-2.8c-1.8-0.4-3.7-0.1-5.1,1.1C128.2,258.2,128.9,258.9,129.4,258.5L129.4,258.5z
				"/>
		</g>
	</g>
	<g class="st22">
		<path class="st23" d="M130,259.2c2.8,0.6,6.3,1.7,9,2.8c-2.3-2.3-5.7-3.1-8.9-3.7c0.7-0.7,1.8-0.3,2.7,0.1
			c1.6,0.8,3.1,1.7,4.6,2.6c-1.7-0.8-3.3-1.9-4.8-3.2c2.3,0.1,4.6,1.3,6,3.2c-2.3-1.2-4.6-2.4-6.8-3.7c2.1,0.2,3.9,1.5,5.5,2.8
			c2.1,1.7,4.2,3.4,6.2,5.1c-2-1.1-4-2.4-5.9-3.8c1.9,2.1,4.5,3.7,7.2,4.5c-2.2-1.6-4.4-3.2-6.5-4.8c2.6,0.7,4.8,2.3,6.9,3.8
			c-2.5-1-4.7-2.5-6.6-4.4c2.6,1.4,5.1,3,7.6,4.8c-0.7,0.1-1.4,0.1-2,0c0.8,0.7,1.9,0.9,2.9,0.6c0.3-0.1,0.5-0.3,0.6-0.5
			c0.1-0.4-0.3-0.6-0.7-0.8c-1.1-0.5-2.3-0.6-3.4-0.5c1.7,0.6,3.5,0.9,5.4,0.8c-1.4-0.8-3-1.3-4.6-1.6c1.4,0.3,2.8,0.7,4.2,1
			c-1.4-0.4-2.9-0.8-4.4-1c1.6,0.2,3.3,0.3,4.9,0.2c-0.8,0-1.5,0-2.3-0.1c0.6-0.4,1.4-0.8,2.2-0.9c-0.7,0.2-1.3,0.5-2,0.7
			c0.6-1,1.8-1.6,3-1.6c0,0.9-1.1,1.7-2,1.5c0.2-0.5,0.5-0.9,0.8-1.4c0.3-0.3,0.6-0.6,1-0.5c0.4,0.1,0.3,0.9-0.1,0.8
			c-0.2-0.4,0.2-1,0.7-1c0,0.2,0.1,0.5,0.1,0.7"/>
		<g>
			<path d="M129.9,259.7c3.1,0.7,6.1,1.6,9,2.8c0.5,0.2,0.8-0.5,0.5-0.8c-2.5-2.4-5.8-3.2-9.1-3.8c0.1,0.3,0.1,0.6,0.2,0.8
				c0.9-0.8,2.5,0.4,3.3,0.8c1.1,0.6,2.3,1.3,3.3,2c0.2-0.3,0.3-0.6,0.5-0.9c-1.7-0.8-3.3-1.9-4.7-3.1c-0.1,0.3-0.2,0.6-0.4,0.9
				c2.2,0.1,4.3,1.2,5.6,3c0.2-0.2,0.5-0.5,0.7-0.7c-2.3-1.2-4.6-2.4-6.8-3.7c-0.1,0.3-0.2,0.6-0.3,0.9c2.2,0.2,4.1,1.7,5.7,3.1
				c1.9,1.5,3.8,3.1,5.7,4.7c0.2-0.3,0.4-0.5,0.6-0.8c-2-1.1-3.9-2.4-5.8-3.8c-0.5-0.4-1.2,0.2-0.7,0.7c2,2.2,4.6,3.8,7.5,4.7
				c0.6,0.2,0.8-0.6,0.4-0.9c-2.2-1.6-4.4-3.2-6.5-4.8c-0.1,0.3-0.3,0.6-0.4,0.9c2.5,0.7,4.7,2.2,6.8,3.8c0.1-0.3,0.3-0.6,0.4-0.9
				c-2.4-1-4.5-2.4-6.4-4.2c-0.2,0.3-0.4,0.5-0.6,0.8c2.6,1.5,5.1,3,7.6,4.8c0-0.3,0.1-0.6,0.1-0.9c-0.6,0.1-1.2,0.1-1.8,0
				c-0.4-0.1-0.9,0.5-0.5,0.8c0.7,0.6,1.6,0.9,2.5,0.9c0.7,0,1.7-0.3,1.8-1.1c0.1-0.8-0.8-1.3-1.4-1.5c-1-0.4-2.1-0.5-3.2-0.3
				c-0.6,0.1-0.7,0.8-0.1,1c1.8,0.6,3.6,0.9,5.5,0.8c0.5,0,0.7-0.7,0.3-0.9c-1.5-0.8-3.1-1.4-4.7-1.7c-0.6-0.1-0.9,0.8-0.3,1
				c1.4,0.3,2.8,0.7,4.2,1c0.6,0.2,0.9-0.8,0.3-1c-1.4-0.4-2.9-0.8-4.4-1c-0.1,0.3-0.2,0.6-0.3,1c1.7,0.2,3.4,0.3,5.1,0.2
				c0.6,0,0.6-1,0-1c-0.8,0-1.5,0-2.3-0.1c0.1,0.3,0.2,0.6,0.3,0.9c0.6-0.4,1.3-0.7,2-0.8c-0.1-0.3-0.2-0.6-0.3-1
				c-0.7,0.2-1.3,0.5-2,0.7c0.2,0.2,0.4,0.5,0.6,0.7c0.6-0.8,1.5-1.3,2.5-1.4c-0.2-0.2-0.3-0.3-0.5-0.5c-0.1,0.6-0.7,1.1-1.4,1
				c0.1,0.2,0.2,0.4,0.3,0.6c0.1-0.3,0.3-0.6,0.5-0.9c0.1-0.2,0.6-0.8,0.8-0.8c0.2,0.1,0.3,0.2,0.5,0.4c-0.1-0.2,0-0.4,0.2-0.4
				c-0.2-0.1-0.3-0.2-0.5-0.4c0,0.2,0.1,0.5,0.1,0.7c0.1,0.6,1.1,0.4,1-0.3c0-0.2-0.1-0.5-0.1-0.7c0-0.2-0.3-0.4-0.5-0.4
				c-0.8,0-1.4,0.8-1.2,1.6c0.1,0.2,0.3,0.4,0.5,0.4c1,0.1,1.1-1.4,0.3-1.8c-1.2-0.5-2.1,1.3-2.5,2.2c-0.1,0.2,0.1,0.6,0.3,0.6
				c1.3,0.3,2.5-0.6,2.6-2c0-0.3-0.3-0.5-0.5-0.5c-1.4,0-2.6,0.7-3.4,1.9c-0.2,0.4,0.2,0.9,0.6,0.7c0.7-0.2,1.3-0.5,2-0.7
				c0.6-0.2,0.4-1.1-0.3-1c-0.8,0.2-1.6,0.5-2.3,0.9c-0.4,0.3-0.3,0.9,0.3,0.9c0.8,0,1.5,0,2.3,0.1c0-0.3,0-0.7,0-1
				c-1.6,0.1-3.2,0.1-4.8-0.2c-0.6-0.1-0.9,0.9-0.3,1c1.5,0.3,2.9,0.6,4.4,1c0.1-0.3,0.2-0.6,0.3-1c-1.4-0.3-2.8-0.7-4.2-1
				c-0.1,0.3-0.2,0.6-0.3,1c1.6,0.3,3.1,0.8,4.5,1.6c0.1-0.3,0.2-0.6,0.3-0.9c-1.8,0.1-3.5-0.1-5.2-0.8c0,0.3-0.1,0.7-0.1,1
				c1.1-0.1,2.2,0,3.2,0.4c0.7,0.3-0.4,0.5-0.7,0.5c-0.6,0-1.1-0.2-1.5-0.6c-0.2,0.3-0.3,0.6-0.5,0.8c0.8,0.1,1.5,0.1,2.3,0
				c0.5-0.1,0.4-0.7,0.1-0.9c-2.4-1.7-5-3.3-7.6-4.8c-0.5-0.3-1,0.4-0.6,0.8c2,1.9,4.3,3.4,6.8,4.5c0.6,0.2,0.8-0.6,0.4-0.9
				c-2.2-1.6-4.4-3.2-7.1-3.9c-0.6-0.2-0.8,0.6-0.4,0.9c2.2,1.6,4.4,3.2,6.5,4.8c0.1-0.3,0.3-0.6,0.4-0.9c-2.7-0.8-5.1-2.3-7-4.4
				c-0.2,0.2-0.5,0.5-0.7,0.7c1.9,1.5,3.9,2.8,6,3.9c0.5,0.3,1.1-0.4,0.6-0.8c-2.1-1.7-4.1-3.5-6.2-5.1c-1.8-1.4-3.6-2.7-5.9-2.9
				c-0.5-0.1-0.6,0.7-0.3,0.9c2.2,1.3,4.5,2.6,6.8,3.7c0.4,0.2,1-0.3,0.7-0.7c-1.6-2-3.9-3.3-6.4-3.5c-0.4,0-0.7,0.6-0.4,0.9
				c1.5,1.3,3.1,2.4,4.9,3.2c0.6,0.3,1-0.5,0.5-0.9c-1.4-0.9-2.8-1.8-4.4-2.5c-1.1-0.5-2.4-1-3.5-0.1c-0.3,0.2-0.1,0.8,0.2,0.8
				c3.1,0.6,6.3,1.3,8.6,3.6c0.2-0.3,0.3-0.6,0.5-0.8c-2.9-1.2-5.9-2.1-9-2.8C129.5,258.6,129.2,259.6,129.9,259.7L129.9,259.7z"/>
		</g>
	</g>
</g>
<g>
	<defs>
		<path id="XMLID_28_" d="M128.8,261.6c0,0-8.3-28,23.8-29.8s17.5,65.5,14.7,82.4c-2.8,16.9,6.2,41.7,25.2,37.6l-41.9,9.2
			c0,0-14.7-27.8,3.2-76.8s-11.3-14.1-11.3-14.1s-15.7,20.4-18.3,19.2C121.6,288.1,128.8,261.6,128.8,261.6z"/>
	</defs>
	<use xlink:href="#XMLID_28_"  style="overflow:visible;fill:#FFFFFF;"/>
	<clipPath id="XMLID_17_">
		<use xlink:href="#XMLID_28_"  style="overflow:visible;"/>
	</clipPath>
	<g class="st25">
		<g>
			<path d="M143.8,256.2c0,0-0.1,0-0.1,0C143.6,256.2,143.6,256.2,143.8,256.2c-0.1,0-0.1,0-0.2,0c0,0-0.1,0-0.1,0c-0.1,0,0,0,0.1,0
				c0,0-0.1,0-0.1,0c0,0-0.1,0-0.1,0c-0.1,0,0,0,0,0c0,0,0,0-0.1,0c0,0-0.1,0-0.1-0.1c0,0,0,0,0,0c-0.1-0.1,0.1,0.1,0,0
				c0,0-0.1-0.1-0.1-0.1c0,0,0,0,0,0c-0.1-0.1,0.1,0.1,0,0c0,0,0-0.1-0.1-0.1c0,0,0,0,0,0c0,0,0,0,0,0c0,0.1,0,0.1,0,0.1
				c0,0,0-0.1,0-0.1c0,0,0,0,0-0.1c0,0.1,0,0.1,0,0c0,0,0-0.1,0-0.1c0-0.1,0,0.1,0,0c0,0,0-0.1,0-0.1c0,0,0-0.1,0-0.1
				c0,0.1,0,0.1,0,0c0,0,0-0.1,0-0.1c0,0,0.1-0.1,0.1-0.1c0,0.1-0.1,0.1,0,0c0,0,0,0,0.1-0.1c0,0,0.1-0.1,0.1-0.1
				c-0.1,0.1-0.1,0,0,0c0,0,0,0,0.1,0c0,0,0.1,0,0.1-0.1c0,0,0.1,0,0,0c-0.1,0,0,0,0,0c0,0,0.1,0,0.1,0c0,0,0.1,0,0,0
				c-0.1,0,0,0,0,0c0,0,0.1,0,0.1,0c0,0,0.1,0,0,0c-0.1,0,0,0,0,0c0,0,0.1,0,0.1,0c-0.1,0-0.1,0,0,0c0,0,0,0,0.1,0
				c0,0,0.1,0,0.1,0.1c-0.1,0-0.1,0,0,0c0,0,0,0,0.1,0.1c0,0,0,0.1,0.1,0.1c-0.1-0.1-0.1-0.1,0,0c0,0,0,0,0,0.1c0,0,0,0.1,0.1,0.1
				c0,0,0,0,0,0.1c0,0,0-0.1,0,0c0,0.1,0,0.2,0.1,0.2c0-0.1,0,0,0,0c0,0,0,0.1,0,0.1c0,0,0,0.1,0-0.1c0,0,0,0,0,0.1c0,0,0,0.1,0,0.1
				c0,0.1,0,0,0,0c0,0,0,0,0,0.1c0,0-0.1,0.1-0.1,0.1c0-0.1,0.1-0.1,0,0c0,0,0,0,0,0c0,0-0.1,0.1-0.1,0.1c-0.1,0.1,0,0,0,0
				c0,0,0,0-0.1,0C143.9,256.2,143.9,256.2,143.8,256.2C143.8,256.3,143.8,256.3,143.8,256.2C143.9,256.2,143.9,256.2,143.8,256.2
				c0,0.1,0,0.1-0.1,0.1c0,0-0.1,0-0.1,0c0,0,0.1,0,0.1,0c0,0-0.1,0-0.1,0c0,0-0.1,0-0.1,0c0,0,0,0-0.1,0c0,0,0.1,0,0.1,0
				c0,0-0.1,0-0.1,0c0,0,0,0,0,0c-0.1,0-0.1-0.1,0,0c0,0-0.1,0-0.1-0.1c0,0,0,0-0.1,0c-0.1,0,0,0,0,0c0,0-0.1-0.1-0.1-0.1
				c0,0,0,0,0,0c0,0.1,0,0.1,0,0c0,0,0,0,0,0c0,0,0,0,0-0.1c0,0,0,0,0,0c0,0,0,0,0,0c0,0,0-0.1,0-0.1c0,0,0,0,0,0c0,0,0,0,0,0
				c0,0,0,0,0,0c0,0,0,0,0-0.1c0,0,0,0,0-0.1c0,0.1,0,0.1,0,0.1c0,0,0,0,0,0c0,0,0,0,0-0.1c0,0-0.1,0.1,0,0c0,0,0-0.1,0-0.1
				c0,0-0.1,0.1,0,0c0,0,0,0,0,0c0,0,0,0,0,0c0,0,0,0,0,0c0,0,0.1-0.1,0.1-0.1c0.1,0,0.1,0,0,0c0,0,0.1,0,0.1,0c0,0,0.1,0,0.1,0
				c-0.1,0-0.1,0,0,0c0,0,0.1,0,0.1,0c0,0,0.1,0,0.1,0c0,0,0,0-0.1,0c0,0,0,0,0.1,0c0,0,0,0,0.1,0c0,0,0,0,0.1,0c0,0,0,0-0.1,0
				c0,0,0,0,0.1,0c0,0,0.1,0.1,0,0c-0.1,0,0,0,0,0c0.1,0.1-0.1-0.1,0,0c0,0.1,0,0,0,0c0,0,0,0,0,0.1c0,0,0-0.1,0-0.1c0,0,0,0.1,0,0
				c0-0.1,0,0,0,0c0,0.1,0.1-0.1,0,0c0,0.1,0.1-0.1,0,0c0,0,0,0,0,0c0.1-0.1,0.1-0.1,0,0c0,0,0,0,0.1,0c0,0-0.1,0,0,0
				c0,0,0.2,0,0.1,0c0.1,0,0.1,0.1,0.2,0.1c-0.1-0.1,0,0,0,0c0,0,0,0,0,0c0,0,0,0,0,0.1c0,0,0-0.1,0-0.1c0,0.1,0,0.1,0,0.1
				c0,0,0,0,0,0c0-0.1,0,0.1,0,0c0,0,0,0,0,0c0,0,0,0,0,0c0,0,0.1-0.1,0,0c-0.1,0.1,0,0,0,0c-0.3,0-0.5-0.1-0.8-0.1
				c0-0.1-0.1-0.1,0-0.3c0,0.1,0.1-0.1,0,0c0,0.1,0.1-0.1,0,0c-0.1,0.1,0.1-0.1,0,0c-0.1,0.1,0.1,0,0,0c-0.1,0,0.1,0,0.1,0
				c-0.1,0,0.1,0,0.1,0c0.1,0,0.2,0.1,0.2,0.1c-0.1-0.2-0.5-0.3-0.7-0.2c-0.2,0.1-0.3,0.4-0.2,0.7c0.2,0.4,0.7,0.4,1,0.2
				c0.1-0.1,0.3-0.2,0.3-0.3c0.1-0.2,0.1-0.5,0-0.7c-0.1-0.1-0.2-0.2-0.4-0.2c-0.2,0-0.3,0-0.4,0.1c-0.3,0.2-0.4,0.7-0.3,1
				c0.1,0.2,0.2,0.5,0.5,0.5c0.2,0.1,0.4,0,0.6-0.1c0.3-0.2,0.5-0.6,0.4-1c-0.1-0.4-0.4-0.6-0.8-0.7c-0.6-0.2-1.5,0.1-1.8,0.7
				c-0.2,0.4-0.2,0.8,0,1.2c0.1,0.3,0.4,0.6,0.7,0.7c0.5,0.3,1.2,0.2,1.7-0.1c0.5-0.3,0.8-0.9,0.8-1.5c-0.1-0.6-0.4-1.2-1-1.4
				c-0.6-0.3-1.3-0.1-1.8,0.4c-0.2,0.2-0.4,0.5-0.4,0.8c-0.1,0.4,0,0.7,0.1,1c0.3,0.5,0.9,0.9,1.5,0.9c0.2,0,0.3,0,0.5-0.1
				c0.2-0.1,0.4-0.3,0.3-0.6C144.3,256.3,144.1,256.1,143.8,256.2L143.8,256.2z"/>
		</g>
	</g>
	<polygon class="st26" points="127.1,261 133.9,260.5 141.6,266.3 145.6,266.9 146.7,271.5 127.4,291 121.8,290.4 121.7,284.4 
		123.9,268 	"/>
	<g class="st25">
		<g>
			<path d="M127.4,259.5c2.7-2.4,6.5-0.1,8.9,1.6c2.5,1.8,5.4,3.8,8.7,2.9c0.6-0.2,1.2-0.4,1.6-0.8c0.5-0.4,1.3-1.6,2-1.2
				c1.2,0.5-2.2,3.8-2.8,4.2c-0.6,0.5-1.3,0.9-2,1.1c-1,0.2-1.9-0.2-2.7-0.7c-1.6-0.9-2.9-2.2-4.4-3.1c-3.3-2.1-7.1-3.5-11-2.7
				c-0.6,0.1-0.4,1.1,0.3,1c4-0.8,8,1,11.2,3.3c1.6,1.1,3,2.5,4.9,3.1c1.8,0.6,3.3-0.3,4.7-1.4c0.7-0.6,1.4-1.3,1.9-2
				c0.5-0.6,1.1-1.5,1.2-2.3c0-0.7-0.4-1.3-1.1-1.4c-0.8-0.2-1.5,0.2-2,0.7c-0.7,0.6-1.2,1.2-2.1,1.4c-0.8,0.2-1.7,0.2-2.5,0
				c-1.9-0.4-3.4-1.5-4.9-2.6c-1.7-1.2-3.4-2.4-5.4-2.8c-1.8-0.4-3.7-0.1-5.1,1.1C126.2,259.2,126.9,259.9,127.4,259.5L127.4,259.5z
				"/>
		</g>
	</g>
	<g class="st25">
		<g>
			<path d="M127.9,260.7c3.1,0.7,6.1,1.6,9,2.8c0.5,0.2,0.8-0.5,0.5-0.8c-2.5-2.4-5.8-3.2-9.1-3.8c0.1,0.3,0.1,0.6,0.2,0.8
				c0.9-0.8,2.5,0.4,3.3,0.8c1.1,0.6,2.3,1.3,3.3,2c0.2-0.3,0.3-0.6,0.5-0.9c-1.7-0.8-3.3-1.9-4.7-3.1c-0.1,0.3-0.2,0.6-0.4,0.9
				c2.2,0.1,4.3,1.2,5.6,3c0.2-0.2,0.5-0.5,0.7-0.7c-2.3-1.2-4.6-2.4-6.8-3.7c-0.1,0.3-0.2,0.6-0.3,0.9c2.2,0.2,4.1,1.7,5.7,3.1
				c1.9,1.5,3.8,3.1,5.7,4.7c0.2-0.3,0.4-0.5,0.6-0.8c-2-1.1-3.9-2.4-5.8-3.8c-0.5-0.4-1.2,0.2-0.7,0.7c2,2.2,4.6,3.8,7.5,4.7
				c0.6,0.2,0.8-0.6,0.4-0.9c-2.2-1.6-4.4-3.2-6.5-4.8c-0.1,0.3-0.3,0.6-0.4,0.9c2.5,0.7,4.7,2.2,6.8,3.8c0.1-0.3,0.3-0.6,0.4-0.9
				c-2.4-1-4.5-2.4-6.4-4.2c-0.2,0.3-0.4,0.5-0.6,0.8c2.6,1.5,5.1,3,7.6,4.8c0-0.3,0.1-0.6,0.1-0.9c-0.6,0.1-1.2,0.1-1.8,0
				c-0.4-0.1-0.9,0.5-0.5,0.8c0.7,0.6,1.6,0.9,2.5,0.9c0.7,0,1.7-0.3,1.8-1.1c0.1-0.8-0.8-1.3-1.4-1.5c-1-0.4-2.1-0.5-3.2-0.3
				c-0.6,0.1-0.7,0.8-0.1,1c1.8,0.6,3.6,0.9,5.5,0.8c0.5,0,0.7-0.7,0.3-0.9c-1.5-0.8-3.1-1.4-4.7-1.7c-0.6-0.1-0.9,0.8-0.3,1
				c1.4,0.3,2.8,0.7,4.2,1c0.6,0.2,0.9-0.8,0.3-1c-1.4-0.4-2.9-0.8-4.4-1c-0.1,0.3-0.2,0.6-0.3,1c1.7,0.2,3.4,0.3,5.1,0.2
				c0.6,0,0.6-1,0-1c-0.8,0-1.5,0-2.3-0.1c0.1,0.3,0.2,0.6,0.3,0.9c0.6-0.4,1.3-0.7,2-0.8c-0.1-0.3-0.2-0.6-0.3-1
				c-0.7,0.2-1.3,0.5-2,0.7c0.2,0.2,0.4,0.5,0.6,0.7c0.6-0.8,1.5-1.3,2.5-1.4c-0.2-0.2-0.3-0.3-0.5-0.5c-0.1,0.6-0.7,1.1-1.4,1
				c0.1,0.2,0.2,0.4,0.3,0.6c0.1-0.3,0.3-0.6,0.5-0.9c0.1-0.2,0.6-0.8,0.8-0.8c0.2,0.1,0.3,0.2,0.5,0.4c-0.1-0.2,0-0.4,0.2-0.4
				c-0.2-0.1-0.3-0.2-0.5-0.4c0,0.2,0.1,0.5,0.1,0.7c0.1,0.6,1.1,0.4,1-0.3c0-0.2-0.1-0.5-0.1-0.7c0-0.2-0.3-0.4-0.5-0.4
				c-0.8,0-1.4,0.8-1.2,1.6c0.1,0.2,0.3,0.4,0.5,0.4c1,0.1,1.1-1.4,0.3-1.8c-1.2-0.5-2.1,1.3-2.5,2.2c-0.1,0.2,0.1,0.6,0.3,0.6
				c1.3,0.3,2.5-0.6,2.6-2c0-0.3-0.3-0.5-0.5-0.5c-1.4,0-2.6,0.7-3.4,1.9c-0.2,0.4,0.2,0.9,0.6,0.7c0.7-0.2,1.3-0.5,2-0.7
				c0.6-0.2,0.4-1.1-0.3-1c-0.8,0.2-1.6,0.5-2.3,0.9c-0.4,0.3-0.3,0.9,0.3,0.9c0.8,0,1.5,0,2.3,0.1c0-0.3,0-0.7,0-1
				c-1.6,0.1-3.2,0.1-4.8-0.2c-0.6-0.1-0.9,0.9-0.3,1c1.5,0.3,2.9,0.6,4.4,1c0.1-0.3,0.2-0.6,0.3-1c-1.4-0.3-2.8-0.7-4.2-1
				c-0.1,0.3-0.2,0.6-0.3,1c1.6,0.3,3.1,0.8,4.5,1.6c0.1-0.3,0.2-0.6,0.3-0.9c-1.8,0.1-3.5-0.1-5.2-0.8c0,0.3-0.1,0.7-0.1,1
				c1.1-0.1,2.2,0,3.2,0.4c0.7,0.3-0.4,0.5-0.7,0.5c-0.6,0-1.1-0.2-1.5-0.6c-0.2,0.3-0.3,0.6-0.5,0.8c0.8,0.1,1.5,0.1,2.3,0
				c0.5-0.1,0.4-0.7,0.1-0.9c-2.4-1.7-5-3.3-7.6-4.8c-0.5-0.3-1,0.4-0.6,0.8c2,1.9,4.3,3.4,6.8,4.5c0.6,0.2,0.8-0.6,0.4-0.9
				c-2.2-1.6-4.4-3.2-7.1-3.9c-0.6-0.2-0.8,0.6-0.4,0.9c2.2,1.6,4.4,3.2,6.5,4.8c0.1-0.3,0.3-0.6,0.4-0.9c-2.7-0.8-5.1-2.3-7-4.4
				c-0.2,0.2-0.5,0.5-0.7,0.7c1.9,1.5,3.9,2.8,6,3.9c0.5,0.3,1.1-0.4,0.6-0.8c-2.1-1.7-4.1-3.5-6.2-5.1c-1.8-1.4-3.6-2.7-5.9-2.9
				c-0.5-0.1-0.6,0.7-0.3,0.9c2.2,1.3,4.5,2.6,6.8,3.7c0.4,0.2,1-0.3,0.7-0.7c-1.6-2-3.9-3.3-6.4-3.5c-0.4,0-0.7,0.6-0.4,0.9
				c1.5,1.3,3.1,2.4,4.9,3.2c0.6,0.3,1-0.5,0.5-0.9c-1.4-0.9-2.8-1.8-4.4-2.5c-1.1-0.5-2.4-1-3.5-0.1c-0.3,0.2-0.1,0.8,0.2,0.8
				c3.1,0.6,6.3,1.3,8.6,3.6c0.2-0.3,0.3-0.6,0.5-0.8c-2.9-1.2-5.9-2.1-9-2.8C127.5,259.6,127.2,260.6,127.9,260.7L127.9,260.7z"/>
		</g>
	</g>
</g>
<g>
	<path class="st23" d="M332.7,341.7c-0.7-1.6-2.6-2.3-4.3-2.6c-3.6-0.8-7.3-0.9-10.9-0.4c3.5-0.8,6.8-2.6,9.5-5.1
		c0.4-0.4,0.8-0.9,0.8-1.4c-0.1-0.8-1.1-1.2-1.9-1.3c-6.2-0.8-12.6-0.2-18.5,1.9c6.7-3,13.5-6.1,18.7-11.2c0.4-0.4,0.9-0.9,1-1.5
		c0.2-1.5-1.7-2.2-3.2-2.4c-6.8-0.6-13.7,0.6-19.9,3.4c7.7-2.5,14.8-6.8,20.6-12.4c0.7-0.7,1.5-1.8,0.9-2.7
		c-0.3-0.4-0.7-0.6-1.2-0.7c-2.2-0.6-4.6-0.3-6.9,0.1c-5.6,1-11,2.8-16.1,5.2c6.2-3.1,11.9-7,17.1-11.6c2.4-2.1,4.8-4.6,5.5-7.8
		c0.1-0.6,0.2-1.3-0.1-1.8c-0.4-0.6-1.2-0.8-1.9-0.9c-3.9-0.4-7.8,0.9-11.3,2.5c-9.2,4.3-17.1,11.3-23.1,19.4
		c-6,8.2-10.3,17.5-13.4,27.2c0,0,17.3,4.3,40.4,4.5C337.5,342.4,332.7,341.7,332.7,341.7z"/>
</g>
<g>
	<path class="st1" d="M330.7,341.7c-0.7-1.6-2.6-2.3-4.3-2.6c-3.6-0.8-7.3-0.9-10.9-0.4c3.5-0.8,6.8-2.6,9.5-5.1
		c0.4-0.4,0.8-0.9,0.8-1.4c-0.1-0.8-1.1-1.2-1.9-1.3c-6.2-0.8-12.6-0.2-18.5,1.9c6.7-3,13.5-6.1,18.7-11.2c0.4-0.4,0.9-0.9,1-1.5
		c0.2-1.5-1.7-2.2-3.2-2.4c-6.8-0.6-13.7,0.6-19.9,3.4c7.7-2.5,14.8-6.8,20.6-12.4c0.7-0.7,1.5-1.8,0.9-2.7
		c-0.3-0.4-0.7-0.6-1.2-0.7c-2.2-0.6-4.6-0.3-6.9,0.1c-5.6,1-11,2.8-16.1,5.2c6.2-3.1,11.9-7,17.1-11.6c2.4-2.1,4.8-4.6,5.5-7.8
		c0.1-0.6,0.2-1.3-0.1-1.8c-0.4-0.6-1.2-0.8-1.9-0.9c-3.9-0.4-7.8,0.9-11.3,2.5c-9.2,4.3-17.1,11.3-23.1,19.4
		c-6,8.2-10.3,17.5-13.4,27.2c0,0,17.3,4.3,40.4,4.5C335.5,342.4,330.7,341.7,330.7,341.7z"/>
	<g>
		<path class="st1" d="M331.2,341.5c-1.1-2.3-4-2.8-6.2-3.2c-3.1-0.5-6.3-0.5-9.4-0.2c0,0.3,0.1,0.7,0.1,1c2.2-0.5,4.3-1.4,6.3-2.6
			c1-0.6,1.9-1.3,2.8-2.1c0.7-0.6,1.6-1.3,1.5-2.3c-0.1-0.9-0.9-1.4-1.7-1.6c-1.1-0.3-2.3-0.3-3.4-0.4c-2.5-0.2-5.1-0.1-7.6,0.2
			c-2.9,0.4-5.6,1-8.4,2c0.1,0.3,0.3,0.6,0.4,0.9c6.1-2.7,12.3-5.6,17.4-10c1-0.9,2.7-2,2.5-3.6c-0.1-1.2-1.3-1.9-2.4-2.2
			c-1.5-0.5-3.2-0.4-4.8-0.4c-1.7,0-3.5,0.1-5.2,0.3c-4,0.5-7.9,1.6-11.6,3.3c-0.5,0.2-0.1,1.1,0.4,0.9c6.6-2.2,12.8-5.6,18.2-10.1
			c0.7-0.6,1.3-1.2,2-1.8c0.6-0.5,1.2-1.1,1.6-1.8c0.3-0.6,0.5-1.3,0.2-2c-0.3-0.6-1-0.9-1.7-1.1c-1.8-0.5-3.7-0.4-5.6-0.1
			c-1.9,0.3-3.8,0.7-5.7,1.1c-4.2,1-8.2,2.5-12.1,4.4c0.2,0.3,0.3,0.6,0.5,0.9c6.6-3.3,12.8-7.5,18.2-12.6c1.2-1.1,2.4-2.4,3.2-3.8
			c0.8-1.2,1.6-2.9,1.5-4.5c-0.1-1.8-1.9-2.1-3.3-2.2c-1.9-0.1-3.8,0.2-5.6,0.6c-3.5,0.9-6.8,2.6-9.9,4.4c-3,1.7-5.8,3.8-8.4,6
			c-5.3,4.6-9.9,10-13.6,15.9c-3.9,6.2-7,13-9.4,20c-0.3,0.9-0.6,1.7-0.9,2.6c-0.1,0.3,0.1,0.6,0.3,0.6c2.4,0.6,4.9,1.1,7.4,1.5
			c6.4,1.1,12.8,1.9,19.2,2.4c8,0.6,16.1,0.7,24.1,0.6c2,0,4,0,6-0.1c0.8,0,1.6,0,2.4-0.2c0.5-0.1,1-0.7,0.4-1.1
			c-0.1-0.1-0.3-0.1-0.5-0.1c0,0,0,0,0,0c-0.6-0.1-0.9,0.9-0.3,1c0.1,0,0.2,0.1,0.3,0.1c0.1,0-0.1-0.1,0,0c-0.2-0.2-0.3-0.4-0.1-0.7
			c0-0.1,0.2-0.1,0.1-0.1c-0.1,0-0.1,0-0.2,0c0,0-0.1,0-0.1,0c0.1,0,0,0-0.1,0c-0.2,0-0.3,0-0.5,0c-0.5,0-1,0.1-1.5,0.1
			c-1.9,0.1-3.9,0.1-5.8,0.1c-7.7,0.1-15.3,0-23-0.5c-6.4-0.5-12.8-1.2-19.1-2.3c-1.9-0.3-3.8-0.7-5.8-1.1c-0.6-0.1-1.2-0.2-1.8-0.4
			c-0.3-0.1-0.6-0.2-0.9-0.2c0,0-0.1,0-0.1,0c0.1,0.2,0.2,0.4,0.3,0.6c4.2-13.1,10.6-25.7,20.6-35.4c4.6-4.5,10-8.3,15.9-11.1
			c3.3-1.5,6.9-2.7,10.6-2.4c0.8,0.1,1.8,0.2,1.9,1.2c0.1,0.8-0.3,1.7-0.6,2.4c-0.7,1.5-1.7,2.8-2.8,4c-2.7,2.8-5.8,5.2-8.9,7.4
			c-3.2,2.3-6.6,4.3-10.1,6.1c-0.6,0.3-0.1,1.1,0.5,0.9c3.1-1.5,6.4-2.7,9.7-3.7c1.7-0.5,3.4-0.9,5.1-1.2c1.7-0.3,3.4-0.6,5.2-0.6
			c0.9,0,1.8,0.1,2.6,0.3c0.3,0.1,0.7,0.2,0.9,0.5c0.2,0.4,0,0.9-0.2,1.2c-0.4,0.6-1,1.1-1.5,1.6c-0.6,0.5-1.2,1.1-1.8,1.6
			c-2.4,2.1-5.1,3.9-7.9,5.5c-3.1,1.8-6.5,3.3-9.9,4.4c0.1,0.3,0.3,0.6,0.4,0.9c6-2.7,12.7-3.9,19.2-3.4c1,0.1,2.5,0.3,3.1,1.2
			c0.4,0.7-0.2,1.4-0.7,1.8c-0.6,0.6-1.1,1.1-1.7,1.6c-2.3,2-4.9,3.6-7.6,5.1c-3,1.7-6.2,3.1-9.4,4.5c-0.5,0.2-0.1,1.1,0.4,0.9
			c4.2-1.5,8.6-2.2,13.1-2.3c1.1,0,2.2,0,3.2,0.1c0.9,0.1,2,0.1,2.9,0.4c1.3,0.5,0.1,1.6-0.5,2.1c-0.8,0.7-1.6,1.3-2.4,1.8
			c-1.9,1.2-4.1,2.1-6.3,2.6c-0.5,0.1-0.4,1.1,0.1,1c2.9-0.4,5.8-0.4,8.6,0.1c2.1,0.3,5.1,0.6,6.1,2.8
			C330.6,342.6,331.4,342.1,331.2,341.5z"/>
	</g>
</g>
</svg>
