<?xml version="1.0" encoding="utf-8"?>
<!-- Generator: Adobe Illustrator 24.3.0, SVG Export Plug-In . SVG Version: 6.00 Build 0)  -->
<svg version="1.1" id="_x32_" xmlns="http://www.w3.org/2000/svg" xmlns:xlink="http://www.w3.org/1999/xlink" x="0px" y="0px"
	 viewBox="0 0 638 430" style="enable-background:new 0 0 638 430;" xml:space="preserve">
<style type="text/css">
	.st0{opacity:0.8;fill:#4C4C4C;}
	.st1{fill:url(#SVGID_1_);}
	.st2{fill:url(#SVGID_2_);}
	.st3{opacity:0.8;fill:#2D2D2D;}
	.st4{fill:#5F554E;}
	.st5{fill:#F7E7D6;}
	.st6{fill:url(#SVGID_3_);}
	.st7{fill:#DD8A3E;}
	.st8{fill:#EDDDCE;}
	.st9{fill:#FFFFFF;}
	.st10{clip-path:url(#XMLID_3_);fill:url(#SVGID_4_);}
	.st11{clip-path:url(#XMLID_3_);fill:url(#SVGID_5_);}
	.st12{fill:#FCD98B;}
	.st13{fill:#F0867A;}
	.st14{fill:#3D3939;}
	.st15{fill:#E0D2C6;}
	.st16{fill:#81C5E2;}
	.st17{fill:url(#SVGID_6_);}
	.st18{fill:url(#SVGID_7_);}
	.st19{fill:#9B655C;}
	.st20{fill:#72483F;}
	.st21{fill:#281C13;}
	.st22{fill:#D0EAEF;}
	.st23{fill:#704A3B;}
	.st24{fill:#7C633D;}
	.st25{fill:#4D1904;}
	.st26{fill:#B17F48;}
	.st27{fill:#3D3332;}
	.st28{fill:url(#SVGID_8_);}
	.st29{fill:url(#SVGID_9_);}
	.st30{fill:url(#SVGID_10_);}
	.st31{fill:url(#SVGID_11_);}
	.st32{fill:url(#SVGID_12_);}
</style>
<g>
	<ellipse class="st0" cx="253.6" cy="401.2" rx="118.9" ry="13.3"/>
	
		<linearGradient id="SVGID_1_" gradientUnits="userSpaceOnUse" x1="144.2277" y1="206.6413" x2="144.2277" y2="316.0034" gradientTransform="matrix(0.7071 -0.7071 0.7071 0.7071 -135.7421 279.2339)">
		<stop  offset="0" style="stop-color:#6A3906"/>
		<stop  offset="1" style="stop-color:#9B655C"/>
	</linearGradient>
	<path class="st1" d="M109,326.7l75.9,75.9c0.8,0.8,2.9-0.1,4.8-1.9s2.7-4,1.9-4.8L115.7,320L109,326.7z"/>
	
		<linearGradient id="SVGID_2_" gradientUnits="userSpaceOnUse" x1="376.6322" y1="206.6413" x2="376.6322" y2="316.0034" gradientTransform="matrix(0.7071 -0.7071 0.7071 0.7071 -135.7421 279.2339)">
		<stop  offset="0" style="stop-color:#6A3906"/>
		<stop  offset="1" style="stop-color:#9B655C"/>
	</linearGradient>
	<path class="st2" d="M273.3,162.4l75.9,75.9c0.8,0.8,2.9-0.1,4.8-1.9c1.9-1.9,2.7-4,1.9-4.8l-75.9-75.9L273.3,162.4z"/>
	<ellipse class="st3" cx="509.3" cy="397.5" rx="94.9" ry="13.2"/>
	<g>
		<g>
			<path class="st4" d="M467.1,390.3c1.2-2.2,2.8-4.1,4.9-5.6c0.5-0.4,1.1-0.7,1.6-1c0.2-0.1,0.4-0.2,0.7-0.3
				c0.8-0.3,0.6-0.8-0.8-1.5c-0.2,0-2.5,2.9-2.9,3.3c-1.1,1-2.2,1.9-3.4,2.7c-0.3,0.2-1.3,0.6-1.5,0.8c0.5,1.9,0.9,2.4,1.2,1.5
				c0.1-0.2,0.2-0.4,0.3-0.6c1.2-2.2,3.3-3.8,5.3-5.2c3.2-2.2,0.2-7.4-3-5.2c-3.6,2.5-10,7.3-8.6,12.5c2,7.3,11.1,0.3,13.9-2.3
				c2.1-1.9,4.7-4.5,4.7-7.5c0.1-2.7-2.2-5.1-5-4.8c-5.3,0.4-10.3,5.9-12.6,10.2C460.1,390.6,465.3,393.7,467.1,390.3L467.1,390.3z"
				/>
		</g>
	</g>
	<g>
		<g>
			<path class="st4" d="M554.6,379.6c-1.8,4-4.1,11.3-1,15.2c1.5,1.9,4,2.2,6.1,1.2c2.2-1.1,3.3-3.6,4.1-5.8
				c1.3-3.8,2.3-11.4-1.7-14.1c-5.2-3.5-8.3,4.2-8.9,8c-0.5,3.8,5.2,5.4,5.8,1.6c0.3-1.7,0.3-4,2.1-4.8c-0.8,0.1-1.5,0.2-2.3,0.3
				c-0.9-0.2-0.1,1-0.1,1.6c0.1,0.7,0.1,1.4,0,2.1c-0.1,0.9-0.2,1.8-0.5,2.7c-0.2,0.7-1.1,1.9-1,2.5c-0.4,0.4-0.2,0.6,0.4,0.7
				c0.6,0.5,0.8,0.5,0.6-0.2c0.3-0.6-0.1-1.9,0-2.6c0.2-1.9,0.7-3.7,1.4-5.4C561.3,379.1,556.1,376.1,554.6,379.6L554.6,379.6z"/>
		</g>
	</g>
	<g>
		<g>
			<path class="st5" d="M467.6,299.7c-7.2,14.5-14.7,29.8-15.1,46.3c-0.4,13.7,4.4,27.9,15.4,36.6c4,3.1,9.7-2.5,5.7-5.7
				c-23.9-18.7-9.8-51.5,0.9-73.2C476.7,299.2,469.8,295.1,467.6,299.7L467.6,299.7z"/>
		</g>
	</g>
	<g>
		<g>
			<path class="st5" d="M531.7,311.1c7.7,23.3,15.4,46.7,23,70c1.6,4.9,9.3,2.8,7.7-2.1c-7.7-23.3-15.4-46.7-23-70
				C537.8,304.1,530.1,306.2,531.7,311.1L531.7,311.1z"/>
		</g>
	</g>
	<linearGradient id="SVGID_3_" gradientUnits="userSpaceOnUse" x1="482.5173" y1="227.5437" x2="500.7823" y2="273.0904">
		<stop  offset="0" style="stop-color:#FFCA94"/>
		<stop  offset="0.1714" style="stop-color:#FDD1A5"/>
		<stop  offset="0.4909" style="stop-color:#FADDBF"/>
		<stop  offset="0.7771" style="stop-color:#F8E4CF"/>
		<stop  offset="1" style="stop-color:#F7E6D5"/>
	</linearGradient>
	<path class="st6" d="M448,224c0,0-6.3,45.8-6.5,53.6c-0.3,7.9-3.3,15.8,6.3,21.3c9.6,5.6,35,10.5,56.3,9.7
		c21.3-0.8,27.6-3.7,36.7-6.3c9.1-2.6,14.9-8.1,14.2-25.4c-0.8-17.3-2.5-34.6-5.9-46.9c0,0-2-8.3-2.6-9.6L448,224z"/>
	<path class="st7" d="M438.1,279.9c0,0-14.1,42.4,9.8,52.6c12.3,5.2,33.3,4.5,42-4.5c6.5-6.7,10.7-21.4,12.2-41.1
		C502.1,286.9,471.3,270.7,438.1,279.9z"/>
	<path class="st7" d="M558.7,279.8c0,0,14,41.3-9.8,51.2c-12.2,5.1-33.1,4.4-41.8-4.4c-6.5-6.5-10.6-20.8-12.1-40
		C495,286.7,525.6,270.8,558.7,279.8z"/>
	<path class="st8" d="M447.2,235.2c-27.8,6.5-55.6-7.5-73.5-24.5c0,0,0,0,0,0c0,0-3.7-5.4-5-6.1c-0.9-0.5-1.4,0.2-1.4,2
		c-2.5-2.7-6.3-4.8-7.2-2.4c-0.8,2.1,6.6,8.8,9.8,11.3c0,0,0,0,0,0c19.2,18.2,47.9,34.1,77.6,27.1
		C452.1,241.5,451.9,234.1,447.2,235.2z"/>
	<path class="st9" d="M486.4,286.7c0,0,8.3-47.9,43.7-65.9l8.6,0c0,0,15.3,13.8,12.1,61C550.8,281.8,508.3,287.1,486.4,286.7z"/>
	<path class="st7" d="M494.3,286.7c0,0,8.3-47.9,43.7-65.9l8.6-0.3c0,0,15.3,14.1,12.2,61.3C558.7,281.8,516.2,287.1,494.3,286.7z"
		/>
	<path class="st9" d="M500.5,286.7c0,0-7.2-47.9-37.9-65.9l-7.5,0c0,0-13.3,13.8-10.5,61C444.6,281.8,481.5,287.1,500.5,286.7z"/>
	<path class="st7" d="M493.7,286.7c0,0-7.2-47.9-37.9-65.9l-7.4-0.3c0,0-13.3,14.1-10.6,61.3C437.7,281.8,474.7,287.1,493.7,286.7z"
		/>
	<g>
		<path class="st5" d="M389.6,157.7c0,0-10.9-5.4-9.9,6.4c1,11.8,12.5,14.8,17.1,12C401.3,173.4,389.6,157.7,389.6,157.7"/>
		<path class="st5" d="M596.1,198.2c0,0,12.2-0.8,6.8,9.7c-5.4,10.5-17.2,9-20.3,4.7C579.3,208.2,596.1,198.2,596.1,198.2"/>
		<g>
			<defs>
				<path id="XMLID_1_" d="M613.4,163.1c-7.3,61.1-66.3,80.5-130.9,67.9c-65.1-12.8-107.9-50.8-95.8-112.3
					c10.3-52.6,69.4-85.2,132-73C581.3,58,619.7,110,613.4,163.1"/>
			</defs>
			<use xlink:href="#XMLID_1_"  style="overflow:visible;fill:#F7E7D6;"/>
			<clipPath id="XMLID_3_">
				<use xlink:href="#XMLID_1_"  style="overflow:visible;"/>
			</clipPath>
			
				<radialGradient id="SVGID_4_" cx="427.227" cy="175.6748" r="36.6846" gradientTransform="matrix(0.9808 0.1949 -0.1949 0.9808 35.8527 -79.8194)" gradientUnits="userSpaceOnUse">
				<stop  offset="0" style="stop-color:#F0867A"/>
				<stop  offset="0.2381" style="stop-color:#F0897D"/>
				<stop  offset="0.4293" style="stop-color:#F19387"/>
				<stop  offset="0.6042" style="stop-color:#F2A497"/>
				<stop  offset="0.7695" style="stop-color:#F4BCAD"/>
				<stop  offset="0.9265" style="stop-color:#F6DACA"/>
				<stop  offset="0.9777" style="stop-color:#F7E6D5"/>
			</radialGradient>
			<circle class="st10" cx="417.5" cy="175.2" r="38.5"/>
			
				<radialGradient id="SVGID_5_" cx="572.8094" cy="172.5944" r="36.6846" gradientTransform="matrix(0.9808 0.1949 -0.1949 0.9808 35.8527 -79.8194)" gradientUnits="userSpaceOnUse">
				<stop  offset="0" style="stop-color:#F0867A"/>
				<stop  offset="0.2381" style="stop-color:#F0897D"/>
				<stop  offset="0.4293" style="stop-color:#F19387"/>
				<stop  offset="0.6042" style="stop-color:#F2A497"/>
				<stop  offset="0.7695" style="stop-color:#F4BCAD"/>
				<stop  offset="0.9265" style="stop-color:#F6DACA"/>
				<stop  offset="0.9777" style="stop-color:#F7E6D5"/>
			</radialGradient>
			<circle class="st11" cx="560.9" cy="200.5" r="38.5"/>
		</g>
		<path class="st12" d="M365,118.5c0,0,34.3,26.4,142.7,41.5l24.2-21l-7.9,25.8c0,0,27.3,12.3,95.6,4.8c0,0,34.5-121.5-90.7-142.8
			c0,0-27.4-13.8-59.6-11.9c-25.1,1.5-70.3,6-83.4,53.4C381,85.6,387.4,95.8,365,118.5z"/>
		<g>
			<path class="st13" d="M482.1,198.4c2.9-5.7,11.4-7.4,16.5-3.5c1.1,0.9,2.2,2,2.5,3.4c0.3,1.4-0.2,3.1-1.4,3.8
				c-2.4,1.3-5.3-1.3-7.9-0.7c-1.7,0.4-2.8,2-4.4,2.6c-1.9,0.7-4.2-0.2-5.1-2c-0.9-1.8-0.3-4.2,1.3-5.3"/>
			<g>
				<path class="st13" d="M483.4,199.1c2.5-4.8,9.3-6.3,13.8-3.4c1.2,0.7,2.5,2,2.4,3.5c-0.1,1.5-1.3,1.8-2.5,1.5
					c-1.6-0.4-3.2-1.1-4.9-1c-1.8,0.1-3.1,1.2-4.5,2.2c-1.2,0.8-2.9,1-3.9-0.3c-0.9-1.1-0.7-2.9,0.5-3.8c0.7-0.5,1-1.3,0.5-2.1
					c-0.4-0.6-1.4-1-2.1-0.5c-3.8,2.8-3.1,8.7,1.6,10.1c2.3,0.7,4.2-0.3,6-1.7c0.7-0.5,1.5-1,2.4-1c1,0.1,2,0.5,3,0.8
					c2.1,0.6,4.5,0.6,5.9-1.4c1.3-1.8,1.2-4.3,0-6.2c-2.2-3.3-6.5-4.9-10.4-4.6c-4.3,0.3-8.4,2.5-10.5,6.3
					C479.9,199.3,482.5,200.8,483.4,199.1L483.4,199.1z"/>
			</g>
		</g>
		<g>
			<g>
				<path class="st14" d="M444.1,178.9c3.7,1.3,7.4,2.5,11.1,3.8c1.2,0.4,1.7-1.5,0.5-1.9c-3.7-1.3-7.4-2.5-11.1-3.8
					C443.4,176.6,442.9,178.5,444.1,178.9L444.1,178.9z"/>
			</g>
		</g>
		<g>
			<g>
				<path class="st14" d="M527.6,195.2c3.9-0.2,7.8-0.4,11.7-0.6c1.3-0.1,1.3-2.1,0-2c-3.9,0.2-7.8,0.4-11.7,0.6
					C526.3,193.3,526.3,195.3,527.6,195.2L527.6,195.2z"/>
			</g>
		</g>
	</g>
	<path class="st15" d="M546.1,230.1c-27.3-8.3-44.4-34.3-51.4-58c0,0,0,0,0,0c0,0-0.5-6.5-1.3-7.8c-0.6-0.9-1.3-0.5-2.2,1
		c-0.8-3.6-3.1-7.3-5-5.7c-1.7,1.4,1.3,11,2.8,14.7c0,0,0,0,0,0c7.5,25.4,24.5,53.4,53.7,62.3C547.2,238,550.6,231.5,546.1,230.1z"
		/>
	<path class="st8" d="M549.1,232.1c-27.3-8.3-44.4-34.3-51.4-58c0,0,0,0,0,0c0,0-0.5-6.5-1.3-7.8c-0.6-0.9-1.3-0.5-2.2,1
		c-0.8-3.6-3.1-7.3-5-5.7c-1.7,1.4,1.3,11,2.8,14.7c0,0,0,0,0,0c7.5,25.4,24.5,53.4,53.7,62.3C550.2,240,553.6,233.5,549.1,232.1z"
		/>
	<path class="st9" d="M437.5,277.1c0,0,51.8,15.8,121.5-1.5l0.9,7.5c0,0-36.2,6.3-62.2,7.3c-29.6,1.2-60.9-5.8-60.9-5.8L437.5,277.1
		z"/>
	<g>
		<g>
			<path class="st16" d="M455.8,208.5c1.9-0.7,3.9-1.4,5.8-2.1c0.7-0.3,1.3-1,1-1.8c-0.2-0.7-1.1-1.3-1.8-1
				c-1.9,0.7-3.9,1.4-5.8,2.1c-0.7,0.3-1.3,1-1,1.8C454.2,208.2,455,208.8,455.8,208.5L455.8,208.5z"/>
		</g>
	</g>
	<g>
		<g>
			<path class="st16" d="M461.2,216c0.7-0.7,1.4-1.4,2.1-2.1c0.3-0.3,0.4-0.7,0.4-1.1c0-0.2,0-0.4-0.1-0.6c-0.1-0.2-0.2-0.3-0.3-0.5
				c-0.3-0.3-0.7-0.5-1.1-0.4c-0.4,0-0.8,0.2-1.1,0.4c-0.7,0.7-1.4,1.4-2.1,2.1c-0.3,0.3-0.4,0.7-0.4,1.1c0,0.2,0,0.4,0.1,0.6
				c0.1,0.2,0.2,0.3,0.3,0.5c0.3,0.3,0.7,0.5,1.1,0.4C460.5,216.4,460.9,216.3,461.2,216L461.2,216z"/>
		</g>
	</g>
	<g>
		<g>
			<path class="st16" d="M441.2,225.6c1.2-1.4,2.5-2.8,3.7-4.2c0.3-0.3,0.4-0.6,0.4-1.1c0-0.4-0.2-0.8-0.4-1.1
				c-0.6-0.5-1.6-0.6-2.1,0c-1.2,1.4-2.5,2.8-3.7,4.2c-0.3,0.3-0.4,0.6-0.4,1.1c0,0.4,0.2,0.8,0.4,1.1
				C439.6,226.1,440.6,226.2,441.2,225.6L441.2,225.6z"/>
		</g>
	</g>
	<g>
		<g>
			<path class="st16" d="M434.5,202.5c1.6-0.7,3.1-1.5,4.7-2.2c0.3-0.2,0.6-0.6,0.7-0.9c0.1-0.4,0.1-0.8-0.2-1.2
				c-0.2-0.3-0.5-0.6-0.9-0.7c-0.4-0.1-0.8,0-1.2,0.2c-1.6,0.7-3.1,1.5-4.7,2.2c-0.3,0.2-0.6,0.6-0.7,0.9c-0.1,0.4-0.1,0.8,0.2,1.2
				c0.2,0.3,0.5,0.6,0.9,0.7C433.8,202.8,434.2,202.7,434.5,202.5L434.5,202.5z"/>
		</g>
	</g>
	<g>
		<g>
			<path class="st16" d="M481,219.5c1.2-1.6,2.4-3.2,3.6-4.8c0.2-0.3,0.2-0.8,0.2-1.2c-0.1-0.3-0.4-0.7-0.7-0.9
				c-0.3-0.2-0.8-0.3-1.2-0.2c-0.4,0.1-0.6,0.4-0.9,0.7c-1.2,1.6-2.4,3.2-3.6,4.8c-0.2,0.3-0.2,0.8-0.2,1.2c0.1,0.3,0.4,0.7,0.7,0.9
				c0.3,0.2,0.8,0.3,1.2,0.2C480.5,220.1,480.8,219.8,481,219.5L481,219.5z"/>
		</g>
	</g>
	
		<linearGradient id="SVGID_6_" gradientUnits="userSpaceOnUse" x1="345.5113" y1="206.6413" x2="345.5113" y2="316.0034" gradientTransform="matrix(0.7071 -0.7071 0.7071 0.7071 -135.7421 279.2339)">
		<stop  offset="0" style="stop-color:#6A3906"/>
		<stop  offset="1" style="stop-color:#9B655C"/>
	</linearGradient>
	<path class="st17" d="M251.3,184.4l75.9,75.9c0.8,0.8,2.9-0.1,4.8-1.9s2.7-4,1.9-4.8L258,177.7L251.3,184.4z"/>
	
		<linearGradient id="SVGID_7_" gradientUnits="userSpaceOnUse" x1="175.3485" y1="206.6413" x2="175.3485" y2="316.0034" gradientTransform="matrix(0.7071 -0.7071 0.7071 0.7071 -135.7421 279.2339)">
		<stop  offset="0" style="stop-color:#6A3906"/>
		<stop  offset="1" style="stop-color:#9B655C"/>
	</linearGradient>
	<path class="st18" d="M131,304.7l75.9,75.9c0.8,0.8,2.9-0.1,4.8-1.9c1.9-1.9,2.7-4,1.9-4.8L137.7,298L131,304.7z"/>
	<path class="st19" d="M197.9,245.4c-53.8,53.8-103.4,91.5-110.7,84.1l5.8,5.8c7.3,7.3,56.9-30.3,110.7-84.1s91.5-103.4,84.1-110.7
		l-5.8-5.8C289.4,142,251.7,191.6,197.9,245.4z"/>
	
		<ellipse transform="matrix(0.7071 -0.7071 0.7071 0.7071 -110.0372 198.506)" class="st20" cx="184.6" cy="232.1" rx="137.8" ry="18.8"/>
	
		<ellipse transform="matrix(0.7071 -0.7071 0.7071 0.7071 -108.4699 197.8568)" class="st21" cx="184.6" cy="229.9" rx="20.2" ry="1.9"/>
	
		<ellipse transform="matrix(0.7071 -0.7071 0.7071 0.7071 -112.1098 198.4856)" class="st22" cx="183.5" cy="234.6" rx="10.4" ry="2"/>
	
		<ellipse transform="matrix(0.7071 -0.7071 0.7071 0.7071 -102.1395 201.7991)" class="st22" cx="192.5" cy="224.2" rx="3.7" ry="0.7"/>
	
		<ellipse transform="matrix(0.7071 -0.7071 0.7071 0.7071 -188.0532 159.3107)" class="st22" cx="98.3" cy="306.7" rx="2.4" ry="0.5"/>
	
		<ellipse transform="matrix(0.7071 -0.7071 0.7071 0.7071 -67.3186 217.6171)" class="st22" cx="229" cy="190.1" rx="3.7" ry="0.7"/>
	<path class="st22" d="M221.7,187.5c-0.6-0.6-3.2,0.9-6.3,3.7c-1.1-0.5-4.1,1.9-7.6,5.7c0-0.1-0.1-0.2-0.2-0.2
		c-1.3-1-6.6,3.8-11.9,10.7c-5.2,6.9-8.4,13.3-7.1,14.3c1,0.7,4.1-1.6,7.7-5.7c0,0.1,0.1,0.2,0.2,0.2c1.3,1,6.6-3.8,11.9-10.7
		c1.8-2.3,3.3-4.6,4.5-6.6c0.9-0.8,1.9-1.7,2.9-2.7c1.1-1.1,2-2.1,2.9-3.1c0.4-0.1,1.1-0.6,1.8-1.4c0.9-0.9,1.5-1.8,1.4-2
		c-0.1-0.1-0.5,0.1-0.9,0.4C221.7,188.8,222.1,187.8,221.7,187.5z"/>
	<g>
		
			<ellipse transform="matrix(0.8937 -0.4486 0.4486 0.8937 -63.9951 98.258)" class="st23" cx="175.4" cy="184.2" rx="23.7" ry="3.3"/>
		<path class="st24" d="M197.9,173c0-0.2,0-0.3,0-0.4c-0.9-1.7-11.7,1.9-24.2,8.2c-12.5,6.3-21.9,12.8-21,14.5
			c0.1,0.1,0.2,0.2,0.3,0.3c1.1,0.9,4.8,3.7,10,5.4c5-0.8,20.1-4.1,33.4-16.7C197.5,181.1,198.3,177.2,197.9,173z"/>
		<path class="st25" d="M163,201c2.5,0.8,5.2,1.3,8.3,1.3c0,0,0.1,0,0.1,0c0,0,0.1,0,0.1,0l0,0c0.8,0,2.5-0.4,4.6-1.2l0.7,0.8
			c0.5,1,4,0.2,7.8-1.7c3.6-1.8,6.2-4,6.1-5.1l0,0l-0.4-1.5c1.5-1.1,2.5-2.1,2.9-2.6c0,0,1.8-2.7,3.2-6.8
			C183.1,196.9,168,200.2,163,201z"/>
		
			<ellipse transform="matrix(0.8937 -0.4486 0.4486 0.8937 -63.9951 98.258)" class="st26" cx="175.4" cy="184.2" rx="22.6" ry="2.6"/>
	</g>
	
		<ellipse transform="matrix(0.7071 -0.7071 0.7071 0.7071 -183.2963 164.5958)" class="st21" cx="107" cy="303.6" rx="22.3" ry="2.1"/>
	<path class="st22" d="M124.4,280.5c-3.9,3.9-6.9,7.8-8,10.1c0,0,0,0,0,0c-4.1,4.1-6.7,8-6,8.8c0.3,0.3,1.1,0.1,2.1-0.5
		c-1,1.5-1.4,2.6-1.1,3c0.8,0.8,4.7-1.9,8.8-6c4.1-4.1,6.7-8,6-8.8c-0.2-0.2-0.4-0.2-0.8-0.1c0.9-0.8,1.9-1.7,2.8-2.7
		c5.6-5.6,9.3-11,8.2-12.1C135.4,271.3,130,274.9,124.4,280.5z"/>
	
		<ellipse transform="matrix(0.7071 -0.7071 0.7071 0.7071 -130.8528 186.3186)" class="st22" cx="159.5" cy="251.1" rx="3.7" ry="0.7"/>
	<path class="st22" d="M48.6,245.6c-1.3,0.3-18.2,2.8-25.4,15.1c-4.5,7.7,5,10.1,6.7,3.7c1.7-6.4,5.6-3.8,3.8,0
		c-1.8,3.8-2.7,11.9-1.8,15.8c0.6,2.8,3.2,4.4,6.3,3.3c3.2-1.1,2.1-4.9,1.4-9.8c-0.3-2.1-1.2-11,2.8-16.6s6.8-7.6,10.7-9.2l0.9-2.3
		C54,245.6,50.5,245.2,48.6,245.6z"/>
	<g>
		<path class="st27" d="M65.7,234.1c0,0-0.6,2-3.6,1.3c-3.5-0.8-2.9-2.7-2.9-2.7s1.2-4.3-1.9-5c-2.6-0.5-3,2-3,2l-1.3,6l-1,4.5
			l-1,4.5l-1.3,6c0,0-0.7,2.4,1.9,3c3.1,0.7,3.8-3.7,3.8-3.7s0.3-2,3.8-1.3c3,0.7,2.7,2.7,2.7,2.7s-2.5,24.6,20.5,31
			c19.5,5.4,29.4-5.2,33.6-14.2l1.9,0.4c0,0,1,0.3,1.1-0.5c0.2-0.8,2.8-12.8,2.8-12.8s2.6-12,2.8-12.8c0.2-0.8-0.8-0.9-0.8-0.9
			l-1.9-0.4c-0.1-10-4.7-23.7-24.7-26.9C73.6,210.6,65.7,234.1,65.7,234.1z"/>
		
			<linearGradient id="SVGID_8_" gradientUnits="userSpaceOnUse" x1="221.1838" y1="109.8093" x2="194.4146" y2="109.8093" gradientTransform="matrix(0.2119 -0.9773 0.9773 0.2119 -70.5917 413.0335)">
			<stop  offset="0" style="stop-color:#5D514E;stop-opacity:0.2"/>
			<stop  offset="9.077388e-02" style="stop-color:#554946;stop-opacity:0.2272"/>
			<stop  offset="0.452" style="stop-color:#3A2F29;stop-opacity:0.3356"/>
			<stop  offset="0.7673" style="stop-color:#2A2018;stop-opacity:0.4302"/>
			<stop  offset="1" style="stop-color:#241A12;stop-opacity:0.5"/>
		</linearGradient>
		<path class="st28" d="M85,222.6l-4.9,22.4c-0.2,1-1.2,1.7-2.3,1.5h0c-1-0.2-1.7-1.2-1.5-2.3l4.9-22.4c0.2-1,1.2-1.7,2.3-1.5h0
			C84.6,220.6,85.2,221.6,85,222.6z"/>
		
			<linearGradient id="SVGID_9_" gradientUnits="userSpaceOnUse" x1="221.1838" y1="116.7983" x2="194.4146" y2="116.7983" gradientTransform="matrix(0.2119 -0.9773 0.9773 0.2119 -70.5917 413.0335)">
			<stop  offset="0" style="stop-color:#5D514E;stop-opacity:0.2"/>
			<stop  offset="9.077388e-02" style="stop-color:#554946;stop-opacity:0.2272"/>
			<stop  offset="0.452" style="stop-color:#3A2F29;stop-opacity:0.3356"/>
			<stop  offset="0.7673" style="stop-color:#2A2018;stop-opacity:0.4302"/>
			<stop  offset="1" style="stop-color:#241A12;stop-opacity:0.5"/>
		</linearGradient>
		<path class="st29" d="M91.8,224.1L87,246.6c-0.2,1-1.2,1.7-2.3,1.5l0,0c-1-0.2-1.7-1.2-1.5-2.3l4.9-22.4c0.2-1,1.2-1.7,2.3-1.5h0
			C91.4,222.1,92.1,223.1,91.8,224.1z"/>
		
			<linearGradient id="SVGID_10_" gradientUnits="userSpaceOnUse" x1="221.3816" y1="123.7873" x2="194.6124" y2="123.7873" gradientTransform="matrix(0.2119 -0.9773 0.9773 0.2119 -70.5917 413.0335)">
			<stop  offset="0" style="stop-color:#5D514E;stop-opacity:0.2"/>
			<stop  offset="9.077388e-02" style="stop-color:#554946;stop-opacity:0.2272"/>
			<stop  offset="0.452" style="stop-color:#3A2F29;stop-opacity:0.3356"/>
			<stop  offset="0.7673" style="stop-color:#2A2018;stop-opacity:0.4302"/>
			<stop  offset="1" style="stop-color:#241A12;stop-opacity:0.5"/>
		</linearGradient>
		<path class="st30" d="M98.7,225.6L93.8,248c-0.2,1-1.2,1.7-2.3,1.5l0,0c-1-0.2-1.7-1.2-1.5-2.3l4.9-22.4c0.2-1,1.2-1.7,2.3-1.5
			l0,0C98.2,223.6,98.9,224.6,98.7,225.6z"/>
		
			<linearGradient id="SVGID_11_" gradientUnits="userSpaceOnUse" x1="221.3816" y1="130.9082" x2="194.6124" y2="130.9082" gradientTransform="matrix(0.2119 -0.9773 0.9773 0.2119 -70.5917 413.0335)">
			<stop  offset="0" style="stop-color:#5D514E;stop-opacity:0.2"/>
			<stop  offset="9.077388e-02" style="stop-color:#554946;stop-opacity:0.2272"/>
			<stop  offset="0.452" style="stop-color:#3A2F29;stop-opacity:0.3356"/>
			<stop  offset="0.7673" style="stop-color:#2A2018;stop-opacity:0.4302"/>
			<stop  offset="1" style="stop-color:#241A12;stop-opacity:0.5"/>
		</linearGradient>
		<path class="st31" d="M105.6,227.1l-4.9,22.4c-0.2,1-1.2,1.7-2.3,1.5l0,0c-1-0.2-1.7-1.2-1.5-2.3l4.9-22.4c0.2-1,1.2-1.7,2.3-1.5
			h0C105.2,225.1,105.9,226.1,105.6,227.1z"/>
		
			<linearGradient id="SVGID_12_" gradientUnits="userSpaceOnUse" x1="221.4805" y1="138.0126" x2="194.7113" y2="138.0126" gradientTransform="matrix(0.2119 -0.9773 0.9773 0.2119 -70.5917 413.0335)">
			<stop  offset="0" style="stop-color:#5D514E;stop-opacity:0.2"/>
			<stop  offset="9.077388e-02" style="stop-color:#554946;stop-opacity:0.2272"/>
			<stop  offset="0.452" style="stop-color:#3A2F29;stop-opacity:0.3356"/>
			<stop  offset="0.7673" style="stop-color:#2A2018;stop-opacity:0.4302"/>
			<stop  offset="1" style="stop-color:#241A12;stop-opacity:0.5"/>
		</linearGradient>
		<path class="st32" d="M112.6,228.6l-4.9,22.4c-0.2,1-1.2,1.7-2.3,1.5l0,0c-1-0.2-1.7-1.2-1.5-2.3l4.9-22.4c0.2-1,1.2-1.7,2.3-1.5
			h0C112.1,226.6,112.8,227.6,112.6,228.6z"/>
	</g>
	<path class="st22" d="M41.9,242.3c0,0-7.8-4-16,0c-2.5,1.1-2.2,3.5-1.3,4.7c0.9,1.2,3.4,1.7,5.5,0
		C32.2,245.3,36.9,241.4,41.9,242.3z"/>
</g>
</svg>
