<?xml version="1.0" encoding="utf-8"?>
<!-- Generator: Adobe Illustrator 24.3.0, SVG Export Plug-In . SVG Version: 6.00 Build 0)  -->
<svg version="1.1" id="bg" xmlns="http://www.w3.org/2000/svg" xmlns:xlink="http://www.w3.org/1999/xlink" x="0px" y="0px"
	 viewBox="0 0 1000 670" style="enable-background:new 0 0 1000 670;" xml:space="preserve">
<style type="text/css">
	.st0{clip-path:url(#SVGID_2_);fill:url(#天空_1_);}
	.st1{clip-path:url(#SVGID_2_);}
	.st2{fill:url(#SVGID_3_);}
	.st3{fill:url(#SVGID_4_);}
	.st4{fill:#5A7DE0;}
	.st5{clip-path:url(#XMLID_5_);}
	.st6{fill:url(#SVGID_5_);}
	.st7{fill:url(#SVGID_6_);}
	.st8{fill:url(#SVGID_7_);}
	.st9{fill:url(#SVGID_8_);}
	.st10{fill:url(#SVGID_9_);}
	.st11{fill:url(#SVGID_10_);}
	.st12{fill:url(#SVGID_11_);}
	.st13{fill:url(#SVGID_12_);}
	.st14{fill:url(#SVGID_13_);}
	.st15{fill:url(#SVGID_14_);}
	.st16{fill:#BCCC56;}
	.st17{clip-path:url(#SVGID_2_);fill-rule:evenodd;clip-rule:evenodd;fill:url(#雲_6_);}
	.st18{fill:#49404D;}
	.st19{fill:#5A7D4E;}
	.st20{fill:url(#後_2_);}
	.st21{fill:url(#右_前山_1_);}
	.st22{fill:url(#後_3_);}
	.st23{fill:url(#左_前山_1_);}
	.st24{clip-path:url(#SVGID_2_);fill:url(#樹叢_1_);}
	.st25{fill:none;stroke:#49404D;stroke-width:2.3001;stroke-miterlimit:10;}
	.st26{fill:#506E52;}
	.st27{fill:url(#XMLID_7_);}
	.st28{opacity:0.6;clip-path:url(#SVGID_2_);fill-rule:evenodd;clip-rule:evenodd;fill:url(#雲_7_);}
	.st29{clip-path:url(#SVGID_2_);fill-rule:evenodd;clip-rule:evenodd;fill:url(#雲_8_);}
	.st30{clip-path:url(#SVGID_2_);fill:url(#地板_1_);}
	.st31{clip-path:url(#SVGID_2_);fill-rule:evenodd;clip-rule:evenodd;fill:url(#雲_9_);}
	.st32{clip-path:url(#SVGID_2_);fill-rule:evenodd;clip-rule:evenodd;fill:url(#雲_10_);}
	.st33{clip-path:url(#SVGID_2_);fill-rule:evenodd;clip-rule:evenodd;fill:url(#雲_11_);}
	.st34{fill:#CCCCFF;}
</style>
<g>
	<defs>
		<rect id="SVGID_1_" y="0.3" width="1000" height="669.4"/>
	</defs>
	<clipPath id="SVGID_2_">
		<use xlink:href="#SVGID_1_"  style="overflow:visible;"/>
	</clipPath>
	<linearGradient id="天空_1_" gradientUnits="userSpaceOnUse" x1="499.0999" y1="-196.5179" x2="499.0999" y2="492.3544">
		<stop  offset="0" style="stop-color:#3BDBBB"/>
		<stop  offset="8.952320e-03" style="stop-color:#3FDBBB"/>
		<stop  offset="0.1273" style="stop-color:#6BDBBB"/>
		<stop  offset="0.2511" style="stop-color:#90DBBB"/>
		<stop  offset="0.379" style="stop-color:#AFDBBB"/>
		<stop  offset="0.5124" style="stop-color:#C7DBBB"/>
		<stop  offset="0.6536" style="stop-color:#D8DBBB"/>
		<stop  offset="0.8079" style="stop-color:#E2DBBB"/>
		<stop  offset="1" style="stop-color:#E5DBBB"/>
	</linearGradient>
	<rect id="天空" x="-5.3" y="-196.5" class="st0" width="1008.8" height="688.9"/>
	<g id="石頭" class="st1">
		
			<linearGradient id="SVGID_3_" gradientUnits="userSpaceOnUse" x1="578.8278" y1="353.3568" x2="578.8278" y2="493.7321" gradientTransform="matrix(1 0 0 1 -68.2324 0)">
			<stop  offset="0" style="stop-color:#3D3939"/>
			<stop  offset="0.999" style="stop-color:#6A6551"/>
		</linearGradient>
		<path class="st2" d="M541.2,493.7c-0.3-96.5-4.3-140.4-27.1-140.4c-22.6,0-21.3,46.9-34.2,140.4H541.2z"/>
		<g id="山_3_">
			
				<linearGradient id="SVGID_4_" gradientUnits="userSpaceOnUse" x1="427.7839" y1="390.9113" x2="427.7839" y2="448.5613" gradientTransform="matrix(1 0 0 1 -68.2324 0)">
				<stop  offset="0" style="stop-color:#474242"/>
				<stop  offset="0.999" style="stop-color:#6A6551"/>
			</linearGradient>
			<path class="st3" d="M409.4,448.6c11.9-26.7-30.4-57.6-59.3-57.6c-28,0-49.2,28.5-40.6,57.6H409.4z"/>
			<g>
				<polygon class="st4" points="355.6,448.6 314.5,418.2 314.1,418.5 354.8,448.6 				"/>
			</g>
			<g>
				<polygon class="st4" points="349.2,448.6 311.8,438.3 311.7,438.8 347.4,448.6 				"/>
			</g>
			<g>
				<polygon class="st4" points="360.9,448.6 381.5,406.5 381,406.3 360.3,448.6 				"/>
			</g>
			<g>
				<polygon class="st4" points="363,448.6 399.1,417.7 398.7,417.4 362.3,448.6 				"/>
			</g>
			<g>
				<polygon class="st4" points="368.5,448.6 408.5,434.7 408.2,434.3 367.1,448.6 				"/>
			</g>
		</g>
	</g>
	<g id="山_2_" class="st1">
		<g>
			<defs>
				<path id="XMLID_2_" d="M562.1,506.8c0.8-28.3-2.1-53.6-5.8-87.1c-9.7-87.1-46,81.2-46-31.8c0-180.2-4.4-424.1-31.8-424.1
					C414-36.2,430.3,341,416.8,341c-12.7,0-45.1-301.9-52.4,165.8H562.1z"/>
			</defs>
			<linearGradient id="XMLID_4_" gradientUnits="userSpaceOnUse" x1="463.3266" y1="-36.169" x2="463.3266" y2="506.7893">
				<stop  offset="0" style="stop-color:#49B584"/>
				<stop  offset="0.1451" style="stop-color:#4DB38D"/>
				<stop  offset="0.3818" style="stop-color:#58AEA5"/>
				<stop  offset="0.6804" style="stop-color:#69A6CD"/>
				<stop  offset="1" style="stop-color:#7F9CFF"/>
			</linearGradient>
			<use xlink:href="#XMLID_2_"  style="overflow:visible;fill:url(#XMLID_4_);"/>
			<clipPath id="XMLID_5_">
				<use xlink:href="#XMLID_2_"  style="overflow:visible;"/>
			</clipPath>
			<g class="st5">
				
					<linearGradient id="SVGID_5_" gradientUnits="userSpaceOnUse" x1="525.1268" y1="390.0383" x2="525.2866" y2="390.0383" gradientTransform="matrix(0.8967 0.4425 -0.4425 0.8967 76.6463 -164.9259)">
					<stop  offset="0" style="stop-color:#3D3939"/>
					<stop  offset="0.999" style="stop-color:#6A6551"/>
				</linearGradient>
				<polygon class="st6" points="375.1,417.1 375.1,417.2 375,417.4 374.9,417.4 				"/>
				
					<linearGradient id="SVGID_6_" gradientUnits="userSpaceOnUse" x1="523.092" y1="393.0997" x2="524.001" y2="393.0997" gradientTransform="matrix(0.8967 0.4425 -0.4425 0.8967 76.6463 -164.9259)">
					<stop  offset="0" style="stop-color:#3D3939"/>
					<stop  offset="0.999" style="stop-color:#6A6551"/>
				</linearGradient>
				<path class="st7" d="M371.8,419.9l-0.3-0.2c0.1-0.7,0.8-0.9,1.4-0.8C372.6,419.1,372.4,419.9,371.8,419.9z"/>
				
					<linearGradient id="SVGID_7_" gradientUnits="userSpaceOnUse" x1="518.4593" y1="369.1594" x2="519.5933" y2="369.1594" gradientTransform="matrix(0.8967 0.4425 -0.4425 0.8967 76.6463 -164.9259)">
					<stop  offset="0" style="stop-color:#3D3939"/>
					<stop  offset="0.999" style="stop-color:#6A6551"/>
				</linearGradient>
				<path class="st8" d="M378.8,396.6c-0.1,0-0.3,0.1-0.4,0.1c-0.2-0.1-0.5-0.3-0.4-0.7l0.7-0.9c0.1,0,0.1,0.1,0.1,0.2l0.5-0.2
					C379.7,395.6,379.1,396.1,378.8,396.6z"/>
				
					<linearGradient id="SVGID_8_" gradientUnits="userSpaceOnUse" x1="515.9644" y1="379.4031" x2="517.6599" y2="379.4031" gradientTransform="matrix(0.8967 0.4425 -0.4425 0.8967 76.6463 -164.9259)">
					<stop  offset="0" style="stop-color:#3D3939"/>
					<stop  offset="0.999" style="stop-color:#6A6551"/>
				</linearGradient>
				<path class="st9" d="M372.7,403.2l0.1,0.2c0.2,0,0.2-0.2,0.3-0.2c0.2,0.6-0.2,1-0.3,1.6c-0.4,0.2-0.8,0.5-1.2,0.2
					c-0.4-0.2-0.2-0.6-0.3-0.9c0.1-0.5,0.8-0.4,0.8-1l0,0.1l1-0.3C372.9,403.1,372.9,403.3,372.7,403.2z"/>
				
					<linearGradient id="SVGID_9_" gradientUnits="userSpaceOnUse" x1="511.4362" y1="384.8071" x2="512.642" y2="384.8071" gradientTransform="matrix(0.8967 0.4425 -0.4425 0.8967 76.6463 -164.9259)">
					<stop  offset="0" style="stop-color:#3D3939"/>
					<stop  offset="0.999" style="stop-color:#6A6551"/>
				</linearGradient>
				<path class="st10" d="M366.2,406.8c-0.3,0.3-0.5,0.8-1,0.7c-0.5-0.2-0.2-0.5-0.2-0.8c0.1-0.3,0.5-0.5,0.7-0.7
					c0.1,0.1,0.2,0.2,0.3,0.1C366.1,406.4,366.2,406.3,366.2,406.8z"/>
				
					<linearGradient id="SVGID_10_" gradientUnits="userSpaceOnUse" x1="509.9769" y1="385.5151" x2="510.4466" y2="385.5151" gradientTransform="matrix(0.8967 0.4425 -0.4425 0.8967 76.6463 -164.9259)">
					<stop  offset="0" style="stop-color:#3D3939"/>
					<stop  offset="0.999" style="stop-color:#6A6551"/>
				</linearGradient>
				<path class="st11" d="M363.4,406.6c0,0.3,0.4,0.1,0.4,0.2c0,0.1-0.3,0.1-0.3,0.1l-0.1,0c-0.1-0.3,0.2-0.7,0.5-0.6
					C363.7,406.4,363.4,406.3,363.4,406.6z"/>
				
					<linearGradient id="SVGID_11_" gradientUnits="userSpaceOnUse" x1="537.9479" y1="400.8564" x2="538.2579" y2="400.8564" gradientTransform="matrix(0.8967 0.4425 -0.4425 0.8967 76.6463 -164.9259)">
					<stop  offset="0" style="stop-color:#3D3939"/>
					<stop  offset="0.999" style="stop-color:#6A6551"/>
				</linearGradient>
				<path class="st12" d="M381.9,432.6l0,0.1L381.9,432.6l-0.2,0.2l-0.1-0.2l0.4-0.1C382,432.6,381.9,432.5,381.9,432.6z"/>
				
					<linearGradient id="SVGID_12_" gradientUnits="userSpaceOnUse" x1="537.5601" y1="401.6897" x2="538.5444" y2="401.6897" gradientTransform="matrix(0.8967 0.4425 -0.4425 0.8967 76.6463 -164.9259)">
					<stop  offset="0" style="stop-color:#3D3939"/>
					<stop  offset="0.999" style="stop-color:#6A6551"/>
				</linearGradient>
				<path class="st13" d="M380.9,434.1c-0.3-0.2,0-0.5,0-0.6l0.6-0.6l0.1,0.3c-0.3-0.4-0.5,0.1-0.6,0.1c0.1,0.1,0.1,0.3,0.2,0.4
					c0.5,0.1,0.5-0.5,0.6-0.6l0,0.1l0.4-0.3C381.9,433.4,381.7,434.2,380.9,434.1z"/>
			</g>
		</g>
		<g>
			<polygon class="st4" points="449.9,506.8 446.5,259 445.2,259 449.3,506.8 			"/>
		</g>
		<g>
			<polygon class="st4" points="446.2,506.8 382.7,334.4 382.3,336.1 445.3,506.8 			"/>
		</g>
		<g>
			<polygon class="st4" points="451.2,506.8 478.5,137.7 477.3,136.8 450.6,506.8 			"/>
		</g>
		<g>
			<polygon class="st4" points="453.2,506.8 544.9,443.9 544.5,443.1 452.5,506.8 			"/>
		</g>
	</g>
	<g id="山_1_" class="st1">
		
			<linearGradient id="SVGID_13_" gradientUnits="userSpaceOnUse" x1="875.0118" y1="311.4445" x2="875.0118" y2="493.7321" gradientTransform="matrix(1 0 0 1 -68.2324 0)">
			<stop  offset="0" style="stop-color:#49B584"/>
			<stop  offset="0.1451" style="stop-color:#4DB38D"/>
			<stop  offset="0.3818" style="stop-color:#58AEA5"/>
			<stop  offset="0.6804" style="stop-color:#69A6CD"/>
			<stop  offset="1" style="stop-color:#7F9CFF"/>
		</linearGradient>
		<path class="st14" d="M877,493.7c16.7-84.5-42.8-182.3-83.5-182.3c-39.5,0-69.3,90-57.1,182.3H877z"/>
		<g>
			<rect x="805.9" y="325" class="st4" width="0.8" height="168.7"/>
		</g>
		<g>
			<polygon class="st4" points="804.6,493.7 769.8,346.3 769.1,346.9 803.7,493.7 			"/>
		</g>
		<g>
			<polygon class="st4" points="801.2,493.7 743.3,397.6 742.7,398.7 800,493.7 			"/>
		</g>
		<g>
			<polygon class="st4" points="792.2,493.7 739.6,461.4 739.3,462.8 789.7,493.7 			"/>
		</g>
		<g>
			<polygon class="st4" points="808.7,493.7 837.7,360.8 837,360.2 807.9,493.7 			"/>
		</g>
		<g>
			<polygon class="st4" points="811.7,493.7 862.5,396.1 861.9,395 810.6,493.7 			"/>
		</g>
		<g>
			<polygon class="st4" points="819.4,493.7 875.7,450 875.4,448.7 817.3,493.7 			"/>
		</g>
	</g>
	<g id="草2" class="st1">
		<g>
			
				<linearGradient id="SVGID_14_" gradientUnits="userSpaceOnUse" x1="144.4148" y1="419.3181" x2="144.4148" y2="444.6607" gradientTransform="matrix(1.1195 -0.1699 0.1643 1.0048 247.1758 74.8704)">
				<stop  offset="0" style="stop-color:#C2AC3C"/>
				<stop  offset="0.3587" style="stop-color:#C0AC3F"/>
				<stop  offset="0.5744" style="stop-color:#B8AA47"/>
				<stop  offset="0.7518" style="stop-color:#ACA755"/>
				<stop  offset="0.9" style="stop-color:#9BA468"/>
			</linearGradient>
			<path class="st15" d="M462.3,496.6l84.4-14.6c3.3-5.5-10-29-25.2-13.6c-27.8,28.4-28.4-21.1-56.1,13.4
				c-9.9,12.3-9.9-10.7-15.9-12.6c-6.5-2-14.2-3-27.2,4.1c-10.6,5.7-11.3,23.6-5.5,29.7C416.9,503.1,462.2,496.6,462.3,496.6z"/>
		</g>
		<g>
			<g>
				<g>
					<polygon class="st16" points="539.3,478.3 542.7,476.2 542.5,476 539.1,478.1 					"/>
				</g>
				<g>
					<polygon class="st16" points="524.1,477.9 524.3,477.7 520.8,475.4 520.6,475.6 					"/>
				</g>
				<g>
					<polygon class="st16" points="531.6,473.7 531.8,473.5 525.9,469.6 525.7,469.7 					"/>
				</g>
				<g>
					<polygon class="st16" points="531.6,478.3 531.8,478.1 523.3,472.5 523.1,472.6 					"/>
				</g>
				<g>
					<polygon class="st16" points="531.7,473.7 537.5,470 537.3,469.9 531.5,473.5 					"/>
				</g>
				<g>
					<polygon class="st16" points="531.8,478.3 540.1,473.1 539.9,472.9 531.5,478.1 					"/>
				</g>
				<g>
					<polygon class="st16" points="531.4,478.7 532,478.7 531.9,468.1 531.3,468 					"/>
				</g>
			</g>
		</g>
	</g>
	<linearGradient id="雲_6_" gradientUnits="userSpaceOnUse" x1="841.3502" y1="374.8585" x2="416.4516" y2="374.8585">
		<stop  offset="0" style="stop-color:#FFFFFF;stop-opacity:0.7"/>
		<stop  offset="0.7512" style="stop-color:#FFFFFF;stop-opacity:0.1024"/>
		<stop  offset="0.88" style="stop-color:#FFFFFF;stop-opacity:0"/>
	</linearGradient>
	<path id="雲_1_" class="st17" d="M840.3,397.4c2.3,2.5,0.5,6.4-2.8,6.4H417.4c-0.5,0-1.2-0.9-0.8-0.9c75.7-1,59.8-22.5,103.1-17.7
		c30.1,3.4,34.3-18.4,55.7-21.2c32.1-4.3,42.3,7.5,58.2,2.7c21.4-6.3,33.9-18.3,50.3-20.4C722.6,341.3,825.4,381.4,840.3,397.4z"/>
	<g id="樹_4_" class="st1">
		<path class="st18" d="M774.6,325.1c-2,1.3-4,2.6-6,3.8c-2,1.2-4.1,2.4-6.2,3.5c-2.1,1.1-4.2,2.2-6.4,3.3l-3.2,1.6l-1.6,0.8
			l-0.8,0.4l-0.4,0.2c0,0,0,0-0.1,0c-0.1,0.1-0.5,0.1-0.9,0.1c-0.4,0-0.9-0.1-1.4-0.3c-1-0.3-2-0.7-2.8-1.2
			c-0.1-0.1-0.2-0.1-0.3-0.2c-0.1,0-0.1-0.1-0.1-0.1c0-0.1-0.1-0.1-0.1-0.2c-0.1-0.2-0.3-0.3-0.5-0.5c-0.4-0.2-0.8-0.3-1-0.3
			c-0.1,0-0.2,0-0.3,0c-0.1,0-0.1,0-0.2,0c-0.1,0-0.2,0-0.3,0.1c-0.3,0.1-0.4,0.2-0.5,0.2c-0.1,0.1-0.2,0.1-0.3,0.2
			c-0.3,0.2-0.6,0.4-0.8,0.6l-0.7,0.6c-0.9,0.7-1.8,1.5-2.7,2c-0.2,0.1-0.4,0.2-0.6,0.3c-0.2,0.1-0.3,0.1-0.4,0.1l-0.8-0.4
			c-1.1-0.5-2.2-1-3.4-1.4c-2.2-0.9-4.5-1.8-6.7-2.8c-9-3.6-17.9-7.2-26.8-11c-4.4-1.9-8.8-3.9-13.1-6.1c-2.1-1.1-4.3-2.2-6.3-3.5
			c-1-0.6-2-1.3-3-2.1c-0.5-0.4-0.9-0.8-1.3-1.2c-0.4-0.4-0.8-0.9-1-1.5c0.2,0.6,0.6,1.1,1,1.5c0.4,0.5,0.8,0.9,1.3,1.3
			c0.9,0.8,1.9,1.5,2.9,2.2c2,1.4,4.1,2.6,6.2,3.8c4.2,2.4,8.5,4.6,12.9,6.8c8.7,4.3,17.5,8.3,26.3,12.3c2.2,1,4.4,2,6.5,3.1
			c1.1,0.5,2.2,1,3.2,1.6l0.8,0.4l0.1,0.1l0.1,0l0.1,0.1c0.2,0.1,0.4,0.1,0.5,0.2c0.4,0.1,0.7,0.1,0.9,0c0.5-0.1,1-0.2,1.3-0.3
			c0.4-0.1,0.7-0.3,1-0.5c1.2-0.7,2.3-1.4,3.3-2.1l0.6-0.4c0,0,0.1,0,0.1,0.1c0.6,0.5,1.2,0.8,1.8,1.2c0.6,0.3,1.2,0.6,1.9,0.9
			c0.6,0.3,1.3,0.5,2.1,0.7c0.8,0.2,1.6,0.3,2.7,0.1c0.3,0,0.6-0.1,0.8-0.2l0.4-0.1l0.9-0.3l1.7-0.6l3.5-1.2
			c2.3-0.8,4.6-1.7,6.9-2.6c2.3-0.9,4.6-1.9,6.8-2.9c2.3-1,4.5-2.1,6.7-3.2L774.6,325.1z M736,340.3L736,340.3
			C736,340.3,736,340.3,736,340.3C736,340.3,736,340.3,736,340.3C736,340.3,736,340.3,736,340.3z M741.1,338.9
			c0-0.1-0.1-0.2-0.1-0.2C741,338.8,741.1,338.8,741.1,338.9z M743.2,339.7C743.2,339.7,743.3,339.7,743.2,339.7
			C743.3,339.7,743.3,339.7,743.2,339.7z M744.4,337c0,0,0,0.1,0.1,0.1c0,0,0,0.1,0,0.1C744.4,337.1,744.4,337,744.4,337
			C744.3,336.9,744.4,337,744.4,337z"/>
		<path class="st18" d="M719.1,339.1c0,0,4.4-2.2,7.8-2.1l1,2.9c-5.7-0.1-4.4-0.6-8.4,0.3L719.1,339.1z"/>
		<path class="st18" d="M733.2,272l29.5-4.8c-4.7,11.7-7.4,17.7-5.4,28.5c1.2,6.2,12.5,11.9,12.5,11.9s6.2,9.6,10.1,11.9
			c1.9,1.2,13.3,1.1,17.9-0.2c8.7-2.6,30.8-25.3,54.1-24.9c0.6,0-3.7,33.4-8.1,26.6c-5-7.6-27.7,10.4-38,15.4
			c-14.1,6.9-39.1-9.6-41-10.9c-3.8-2.6-0.6-8-2.8-10.9c-4.3-5.8-19.3-10-19.7-16.4C741.8,287,727.2,283.9,733.2,272z"/>
		<path id="XMLID_6_" class="st19" d="M629.3,327.2c-1.5-21.8,43.5-29.1,65.6-31.4c16.7-1.8,32,1.4,37,15.9
			c8.3,24.3-39.1,21.4-53.7,21.7C663.5,333.8,630.5,343.5,629.3,327.2z"/>
	</g>
	<g id="山" class="st1">
		
			<linearGradient id="後_2_" gradientUnits="userSpaceOnUse" x1="755.4219" y1="262.1963" x2="925.0299" y2="432.4963" gradientTransform="matrix(1 0 0 1 -68.2324 0)">
			<stop  offset="0.3" style="stop-color:#FFD746"/>
			<stop  offset="0.3248" style="stop-color:#F3D04A"/>
			<stop  offset="0.3994" style="stop-color:#D3BD53"/>
			<stop  offset="0.4806" style="stop-color:#B9AE5B"/>
			<stop  offset="0.5694" style="stop-color:#A4A361"/>
			<stop  offset="0.6699" style="stop-color:#969A65"/>
			<stop  offset="0.7917" style="stop-color:#8E9567"/>
			<stop  offset="0.9943" style="stop-color:#8B9468"/>
		</linearGradient>
		<path id="後" class="st20" d="M1136.5,486.7c-44.4-99.5-143.5-108.5-164.2-173.2C878.6,20.3,816.5,479.7,779.4,423
			c-55.4-84.6-101.4-2.6-147.8,63.7H1136.5z"/>
		
			<linearGradient id="右_前山_1_" gradientUnits="userSpaceOnUse" x1="819.9015" y1="392.7544" x2="851.5429" y2="507.0244" gradientTransform="matrix(1 0 0 1 -68.2324 0)">
			<stop  offset="0" style="stop-color:#49C484"/>
			<stop  offset="0.1451" style="stop-color:#4DC18D"/>
			<stop  offset="0.3818" style="stop-color:#58B9A5"/>
			<stop  offset="0.6804" style="stop-color:#69ACCD"/>
			<stop  offset="1" style="stop-color:#7F9CFF"/>
		</linearGradient>
		<path id="右_前山" class="st21" d="M1060.4,500.5c-43.7-39-65.6-115.3-124.5-115.3c-64.7,0-64.6,50.5-136.4,48.2
			c-70-2.2-77.9,51.1-120.5,31.9c-68.6-30.9-135.3-1.4-176.5,35.2H1060.4z"/>
		
			<linearGradient id="後_3_" gradientUnits="userSpaceOnUse" x1="327.9328" y1="124.3257" x2="538.9643" y2="647.5911" gradientTransform="matrix(1 0 0 1 -68.2324 0)">
			<stop  offset="0.3" style="stop-color:#FFD746"/>
			<stop  offset="0.3251" style="stop-color:#F3D04A"/>
			<stop  offset="0.4002" style="stop-color:#D3BD53"/>
			<stop  offset="0.4821" style="stop-color:#B9AE5B"/>
			<stop  offset="0.5717" style="stop-color:#A4A361"/>
			<stop  offset="0.6729" style="stop-color:#969A65"/>
			<stop  offset="0.7958" style="stop-color:#8E9567"/>
			<stop  offset="1" style="stop-color:#8B9468"/>
		</linearGradient>
		<path id="後_1_" class="st22" d="M891.8,492.4c-65.2-34.2-141.3-45.7-307.4-16.3c-104.1,18.4-255.1-55.2-290.8-80.3
			c-72.6-51-99.3,57.5-150.3,44c-84.7-22.4-79,15.7-115.2,52.7l79.4,453.9h785.1L891.8,492.4z"/>
		
			<linearGradient id="左_前山_1_" gradientUnits="userSpaceOnUse" x1="171.4247" y1="437.3145" x2="258.0525" y2="512.8218" gradientTransform="matrix(1 0 0 1 -68.2324 0)">
			<stop  offset="0" style="stop-color:#49C484"/>
			<stop  offset="0.1451" style="stop-color:#4DC18D"/>
			<stop  offset="0.3818" style="stop-color:#58B9A5"/>
			<stop  offset="0.6804" style="stop-color:#69ACCD"/>
			<stop  offset="1" style="stop-color:#7F9CFF"/>
		</linearGradient>
		<path id="左_前山" class="st23" d="M367.9,495.1c-17-6.8-45.7-25.2-72.2-20.9c-54.6,9-74-44.2-109.8-50
			C135.4,416,115.7,490.9,38,451c-46.3-23.8-63.2,24.4-67,44.1H367.9z"/>
	</g>
	
		<linearGradient id="樹叢_1_" gradientUnits="userSpaceOnUse" x1="133.3805" y1="191.6124" x2="277.5144" y2="187.1216" gradientTransform="matrix(-1 2.787715e-04 3.040617e-04 1.0909 915.5123 46.9893)">
		<stop  offset="9.741710e-03" style="stop-color:#809C49"/>
		<stop  offset="0.55" style="stop-color:#829D49"/>
		<stop  offset="0.7792" style="stop-color:#899E48"/>
		<stop  offset="0.9493" style="stop-color:#96A247"/>
		<stop  offset="1" style="stop-color:#9BA346"/>
	</linearGradient>
	<path id="樹叢" class="st24" d="M605.7,267.1c-0.3-26.4,102.8-34.7,151-59.5c51.7-26.6,111.6-0.7,117.5,39.9
		c6.2,42.4-86.9,68.2-141,67C686.4,313.3,606.1,306.5,605.7,267.1z"/>
	<g id="樹" class="st1">
		<g id="樹枝">
			<g>
				<path class="st25" d="M139.8,411.8c0.1-0.2,0.4-0.4,0.5-0.6c0.1-0.2,0.5-0.3,0.6-0.5c0.1-0.2,0.3-0.4,0.4-0.6
					c0.1-0.2-0.2-0.7-0.1-0.9c0.1-0.2,0.3-0.4,0.4-0.6c0.1-0.2,0.6-0.2,0.7-0.4c0.1-0.2,0.1-0.5,0.2-0.7c0.1-0.2-0.2-0.6-0.1-0.9
					c0.1-0.2,0.6-0.3,0.7-0.5c0.1-0.2,0.3-0.4,0.4-0.6c0.1-0.2,0-0.6,0.1-0.8c0.1-0.2,0.5-0.2,0.7-0.5c0.1-0.2,0.3-0.4,0.4-0.6
					c0.1-0.2-0.2-0.7-0.1-0.9c0.1-0.2,0.7-0.1,0.8-0.3c0.1-0.2,0.1-0.5,0.3-0.7c0.1-0.2,0.4-0.3,0.5-0.5c0.1-0.2-0.3-0.8-0.2-1
					c0.1-0.2,0.5-0.3,0.6-0.5c0.1-0.2,0.5-0.2,0.7-0.4c0.1-0.2-0.2-0.7,0-0.9c0.1-0.2,0.3-0.4,0.4-0.6c0.1-0.2,0.7-0.1,0.8-0.3
					c0.1-0.2-0.3-0.8-0.2-1c0.1-0.2,0.7-0.1,0.9-0.3c0.1-0.2-0.1-0.7,0-0.9c0.1-0.2,0.6-0.1,0.8-0.3c0.1-0.2,0.2-0.4,0.4-0.6
					c0.1-0.2,0.5-0.2,0.6-0.4c0.1-0.2,0-0.6,0.2-0.8c0.1-0.2,0.4-0.3,0.5-0.5c0.1-0.2,0.2-0.5,0.3-0.7c0.1-0.2,0-0.5,0.2-0.7
					c0.1-0.2,0.7-0.1,0.8-0.3c0.1-0.2,0-0.6,0.1-0.8c0.1-0.2,0.4-0.3,0.5-0.5c0.1-0.2,0.4-0.3,0.5-0.5c0.1-0.2,0.1-0.5,0.3-0.7"/>
			</g>
			<path class="st18" d="M154.5,430.7c0,0-0.3,1.5-0.3,2.8c-5.2-0.7-6.6-5.2-7.3-5.3c-13-1.8-16.1,3-23.8-5l2.6-4.5
				c6.1,6.3,12.4,2.2,21.9,5.5C151.2,425.4,149.8,430,154.5,430.7z"/>
			<path class="st18" d="M149.6,390c-5,3.6-5.1,14.2-8.4,19.9c-1.7,2.8-7.1,0.2-8.1,3.7c-0.5,1.8-15,22.6-17.5,24.7
				c-1.2,1-13.4,0.3-14.8,1.1c0,0-32.8-10.7-45.7-12.8c-3.2-0.5-51.7,31.1-51.8,30.9c0,0-6.5-21.1-6.4-26.3
				c1.3-0.5,56.6-27.1,58.5-26.9c13.3,1.9,39.3,20,39.8,19.8c1.4-0.6,13.5,0.3,14.7-0.5c2.5-1.7,16.8-14.3,17.4-16.1
				c1.2-3.6,5.4-3.1,7.3-5.9c3.9-5.5,4.7-15.5,10.1-18.7C154.2,377.6,158.4,383.9,149.6,390z"/>
		</g>
		<path id="XMLID_1_" class="st26" d="M34.2,353.3c9.7,11.9,22,2.7,47.4,13.8c54.1,23.7,105.3-11.3,80.6-26.8
			c-48.9-30.8-89.9-32-119.5-23C25.4,322.5,23.1,339.6,34.2,353.3z"/>
		
			<linearGradient id="XMLID_7_" gradientUnits="userSpaceOnUse" x1="692.9316" y1="242.2166" x2="692.9316" y2="175.942" gradientTransform="matrix(-0.9984 -5.637091e-02 -5.637091e-02 0.9984 842.4184 216.9082)">
			<stop  offset="0" style="stop-color:#31625B"/>
			<stop  offset="0.2244" style="stop-color:#4C715F"/>
			<stop  offset="0.5514" style="stop-color:#6E8464"/>
			<stop  offset="0.8217" style="stop-color:#839067"/>
			<stop  offset="1" style="stop-color:#8B9468"/>
		</linearGradient>
		<path id="XMLID_11_" class="st27" d="M61.4,370.7c0.9-19.7,25.8-17.4,89-16.5c22.8,0.3,30.2,6.6,58.7,32.2
			c26.8,24.1-26.8,44.5-75.5,30.1C84.4,401.9,60.1,400.1,61.4,370.7z"/>
	</g>
	
		<linearGradient id="雲_7_" gradientUnits="userSpaceOnUse" x1="799.4344" y1="474.8855" x2="1088.1165" y2="474.8855" gradientTransform="matrix(-1 0 0 1 1719.6539 0)">
		<stop  offset="0" style="stop-color:#FFFFFF"/>
		<stop  offset="0.7512" style="stop-color:#FFFFFF;stop-opacity:0.1463"/>
		<stop  offset="0.88" style="stop-color:#FFFFFF;stop-opacity:0"/>
	</linearGradient>
	<path id="雲_4_" class="st28" d="M632.2,491.2c-1.5,1.2-0.4,3.2,1.9,3.2h285.4c0.3,0,0.8-0.4,0.5-0.5c-51.4-0.5-40.6-11.3-70-8.8
		c-20.4,1.7-23.3-9.2-37.9-10.6c-21.8-2.1-28.7,3.7-39.6,1.4c-14.5-3.2-23.4-14.7-34.2-17.9C694.9,445.3,642.4,483.1,632.2,491.2z"
		/>
	<linearGradient id="雲_8_" gradientUnits="userSpaceOnUse" x1="93.4305" y1="475.3243" x2="388.4284" y2="475.3243">
		<stop  offset="0" style="stop-color:#FFFFFF;stop-opacity:0.7"/>
		<stop  offset="0.6829" style="stop-color:#FFFFFF;stop-opacity:0.1024"/>
		<stop  offset="0.8" style="stop-color:#FFFFFF;stop-opacity:0"/>
	</linearGradient>
	<path id="雲_5_" class="st29" d="M387.7,490.4c1.5,1.6,0.4,4.3-1.9,4.3H93.8c-3.1,0,14.2-6.3,17.7-7.3c4.8-1.3,38-7.4,45.9-8.3
		c11.1-1.3,22.4-3.3,27.3-5.7c11.8-5.8,11.3-8.6,25.6-10.5c21.5-2.9,28.3,10.1,39,7c14.3-4.2,22.7-12.2,33.7-13.7
		C308.9,452.9,377.8,479.7,387.7,490.4z"/>
	<linearGradient id="地板_1_" gradientUnits="userSpaceOnUse" x1="503.4762" y1="946.2053" x2="503.4762" y2="492.3544">
		<stop  offset="0" style="stop-color:#7A8A2D"/>
		<stop  offset="0.4291" style="stop-color:#7D8B2D"/>
		<stop  offset="0.6871" style="stop-color:#85902D"/>
		<stop  offset="0.8991" style="stop-color:#93972D"/>
		<stop  offset="1" style="stop-color:#9D9C2D"/>
	</linearGradient>
	<rect id="地板" x="0.7" y="492.4" class="st30" width="1005.6" height="453.9"/>
	<linearGradient id="雲_9_" gradientUnits="userSpaceOnUse" x1="50.6846" y1="263.2852" x2="491.429" y2="263.2852">
		<stop  offset="0" style="stop-color:#FFFFFF;stop-opacity:0.7"/>
		<stop  offset="0.6829" style="stop-color:#FFFFFF;stop-opacity:0.1024"/>
		<stop  offset="0.8" style="stop-color:#FFFFFF;stop-opacity:0"/>
	</linearGradient>
	<path id="雲" class="st31" d="M490.4,285.8c2.3,2.5,0.5,6.4-2.8,6.4l-436.3,0c-4.7,0,21.2-9.4,26.5-10.9
		c7.1-2,56.8-11.1,68.6-12.5c16.7-1.9,33.5-4.9,40.8-8.5c17.7-8.7,16.9-12.8,38.3-15.6c32.1-4.3,42.3,15.1,58.2,10.4
		c21.4-6.3,33.9-18.3,50.3-20.4C372.6,229.7,475.5,269.8,490.4,285.8z"/>
	
		<linearGradient id="雲_10_" gradientUnits="userSpaceOnUse" x1="804.2494" y1="781.287" x2="686.9442" y2="652.2432" gradientTransform="matrix(0.9172 0.7333 0.2044 0.9789 19.8389 -673.3965)">
		<stop  offset="0" style="stop-color:#FFFFFF;stop-opacity:0.7"/>
		<stop  offset="0.7512" style="stop-color:#FFFFFF;stop-opacity:0.1024"/>
		<stop  offset="0.88" style="stop-color:#FFFFFF;stop-opacity:0"/>
	</linearGradient>
	<path id="雲_2_" class="st32" d="M1017.1,681.2c1.7,2.7,21.7,24-0.8,2.8c-96-90.2-233.7-155.6-358-186.7c3.5-2.4,93-4.3,124.2,14
		c42.1,24.7,125.6-0.7,176.2,28.1C1020.3,574.3,1006,663.9,1017.1,681.2z"/>
	
		<linearGradient id="雲_11_" gradientUnits="userSpaceOnUse" x1="310.2296" y1="1250.1829" x2="189.6403" y2="1117.5262" gradientTransform="matrix(-0.8777 0.7801 -0.1531 0.9882 514.564 -773.7707)">
		<stop  offset="0" style="stop-color:#FFFFFF;stop-opacity:0.7"/>
		<stop  offset="0.7512" style="stop-color:#FFFFFF;stop-opacity:0.1024"/>
		<stop  offset="0.88" style="stop-color:#FFFFFF;stop-opacity:0"/>
	</linearGradient>
	<path id="雲_3_" class="st33" d="M-13.2,715.7c-1.6,2.7-20.5,25.1,1,2.7C78.9,623.3,187.1,519.2,306.4,501
		c-3.6-2.3-72.5,1.5-115.2,15.2c-51.5,16.4-138.6,1.2-187.7,32.5C-56.3,586.9-3.1,697.7-13.2,715.7z"/>
	<g id="bird" class="st1">
		<path class="st34" d="M312.3,342.4c1.9-21.8,6.5-30.2,15.9-36.9c-16.6,7.2-20.6,12.1-22.5,27.8c-14.5-0.5-23.5,2.7-36.9,14.2
			C280.6,342.3,296.2,336.9,312.3,342.4z"/>
		<path class="st34" d="M306.2,299.8c-8.3-2.6-14.6-3.9-20.7,1.1c7.8-9.6,10.6-8.7,15.9-7.1c1.1-7.9,4.3-9.8,11.8-13.6
			C307.7,287,304.9,290.9,306.2,299.8z"/>
	</g>
</g>
</svg>
