<?xml version="1.0" encoding="utf-8"?>
<!-- Generator: Adobe Illustrator 24.3.0, SVG Export Plug-In . SVG Version: 6.00 Build 0)  -->
<svg version="1.1" id="圖層_6" xmlns="http://www.w3.org/2000/svg" xmlns:xlink="http://www.w3.org/1999/xlink" x="0px" y="0px"
	 viewBox="0 0 333 432.4" style="enable-background:new 0 0 333 432.4;" xml:space="preserve">
<style type="text/css">
	.st0{opacity:0.8;fill:#2D2D2D;}
	.st1{fill:#F8D4D9;}
	.st2{fill:#FFF0F3;}
	.st3{fill:#B7B1B6;}
	.st4{fill:#3D3A39;}
	.st5{fill:#6CB1D0;}
	.st6{fill:#FFFFFF;}
	.st7{fill:#67B3CE;}
	.st8{fill:#5CB4CC;}
	.st9{clip-path:url(#SVGID_2_);fill:#6CB1D0;}
	.st10{fill:#F7E7D6;}
	.st11{fill:#FFF0E6;}
	.st12{fill:#3D3939;}
	.st13{fill:#276B82;}
	.st14{fill:#F0867A;}
</style>
<ellipse class="st0" cx="163.9" cy="396.1" rx="122" ry="17"/>
<path class="st1" d="M126.6,208.6l-16.7-9.5c-11.5,19-15.1,48.1-15.1,48.1c-0.4,3.4,1.6,9.2,7.1,10.2c4.9,1,9.2-3.4,11.8-14.1
	c0.1-0.5,5.6-16.2,8.2-23.4c0.4-1.1,0.5-2,0.3-2.9C124.6,212,126.6,208.6,126.6,208.6z"/>
<path class="st2" d="M194.7,316.5l5.7,66.9c0.4,4.8,7.8,4.2,7.4-0.6l-5.7-66.9C201.7,311.1,194.7,316.5,194.7,316.5"/>
<path class="st2" d="M137.2,316.3l-9.8,66.4c-0.7,4.8,6.7,5.8,7.4,1.1l9.8-66.4C145.3,312.6,137.2,316.3,137.2,316.3"/>
<g>
	<path class="st3" d="M133.1,386.4l-5.9-0.5c0,0-5.2,0.2-7.4,1.8c-2.3,1.7,0.6,4.2,0.6,4.2l14.1,1.3
		C134.4,393.3,138.2,386.9,133.1,386.4"/>
	<path class="st4" d="M120.3,392l-0.1,0.8c0,0,0,0.3,0.2,0.4c0.2,0.1,13.9,1.3,13.9,1.3s0.3-0.6,0.1-1.2
		C133.7,393.2,120.3,392,120.3,392"/>
</g>
<g>
	<path class="st3" d="M206.1,385.6l-5.7,1.4c0,0-4.9,1.8-6.5,4.1c-1.6,2.3,1.9,3.8,1.9,3.8l13.8-3.3
		C209.6,391.7,211.1,384.4,206.1,385.6"/>
	<path class="st4" d="M195.9,395l0.2,0.8c0,0,0.1,0.3,0.3,0.3c0.2,0,13.6-3.2,13.6-3.2s0.1-0.6-0.3-1.2
		C208.9,391.9,195.9,395,195.9,395"/>
</g>
<path class="st5" d="M223,278.8c4.8,23.9,5.6,46.3,5.7,73.4c0,3.3-1.6,6.4-5.1,6.9c-43.1,6.1-77.6,4.1-120.6-2.2
	c-3.4-0.5-5.7-3.7-5-6.8c5-23.5,9.9-47.1,14.5-70.7C149.2,284.5,186.4,284.4,223,278.8"/>
<path class="st6" d="M216.1,217.4c0-4.9-4.4-8.9-9.9-8.9c-1.4,0-2.8,0.3-4,0.8c-6.5-4-19.3-6.8-34-6.8c-14.9,0-27.8,2.8-34.2,6.9
	c-1.3-0.6-2.8-0.9-4.4-0.9c-5.4,0-9.9,4-9.9,8.9c0,4.5,3.7,8.2,8.5,8.8c1.4,3.4,5,5.8,9.2,5.8c0.5,0,1,0,1.5-0.1
	c1.8,2,4.6,3.3,7.7,3.3c1.2,0,2.4-0.2,3.5-0.6c1.7,1.3,3.9,2.1,6.3,2.1c2,0,3.9-0.6,5.5-1.5c1.7,1.2,3.8,1.9,6.1,1.9
	c2.2,0,4.3-0.7,6-1.8c1.5,0.9,3.4,1.4,5.3,1.4c2.4,0,4.6-0.8,6.3-2.1c1.1,0.4,2.3,0.6,3.5,0.6c3.1,0,5.9-1.3,7.7-3.3
	c0.5,0.1,1,0.1,1.6,0.1c4.2,0,7.9-2.4,9.2-5.8C212.5,225.5,216.1,221.9,216.1,217.4"/>
<path class="st7" d="M324.5,133.8c0,17.4-14.1,31.6-31.6,31.6c-17.4,0-31.6-14.1-31.6-31.6c0-17.4,14.1-31.6,31.6-31.6
	C310.3,102.3,324.5,116.4,324.5,133.8"/>
<path class="st8" d="M74.8,133.8c0,17.4-14.1,31.6-31.6,31.6c-17.4,0-31.6-14.1-31.6-31.6c0-17.4,14.1-31.6,31.6-31.6
	C60.7,102.3,74.8,116.4,74.8,133.8"/>
<path class="st1" d="M119.6,193.3l-1,67.9l-13,27.9c-0.1,0.9,0.2,1.7,0.7,2.3c0.5,0.6,1.3,1,2.2,1c37.2,6.2,77,6.1,119.4,0
	c0.9,0,1.7-0.4,2.3-1c0.5-0.6,0.8-1.5,0.7-2.4l-13.1-27.8l-3.1-67.8l-47.6,0L119.6,193.3z"/>
<g>
	<defs>
		<path id="SVGID_1_" d="M167.2,193.3l-47.6,0l-1,67.9l-13,27.9c-0.1,0.9,0.2,1.7,0.7,2.3c0.5,0.6,1.3,1,2.2,1
			c37.2,6.2,77,6.1,119.4,0c0.9,0,1.7-0.4,2.3-1c0.5-0.6,0.8-1.5,0.7-2.4l-13.1-27.8l-3.1-67.8L167.2,193.3z"/>
	</defs>
	<clipPath id="SVGID_2_">
		<use xlink:href="#SVGID_1_"  style="overflow:visible;"/>
	</clipPath>
	<path class="st9" d="M179.9,192.8c-25.8,23.1-38.5,39.2-67.9,45.5l-0.5,11.2c29.3-6.8,46.7-22.4,68.4-45.7V192.8z"/>
</g>
<path class="st10" d="M55.7,162.5c0,0-12.5-3.4-9,8.7c3.5,12.1,16.1,12.9,20.2,9C71.1,176.4,55.7,162.5,55.7,162.5"/>
<path class="st10" d="M279,162.5c0,0,12.5-3.4,9,8.7c-3.5,12.1-16,12.9-20.2,9C263.6,176.4,279,162.5,279,162.5"/>
<path class="st10" d="M288.4,122.4c4.9,65.1-52.6,97.4-122.4,97.4c-70.4,0-122.7-30.9-122.7-97.4c0-56.9,54.9-102.9,122.6-102.9
	C233.5,19.5,284.1,65.7,288.4,122.4"/>
<path class="st5" d="M50.8,162h192.9l1.7-27.9l2.3,27.9h4.2l1.9-12.3l2.8,12.3H286c0,0,33.1-96.1-45.9-142.3
	c-50.5-23.9-70.6-16-77.6-16.1c-7-0.1-46.3-10.4-88.1,33.7c-41.8,44.1-34,80.2-31.3,97c0.7,4.2,6.1,27.7,6.1,27.7H50.8z"/>
<path class="st6" d="M126.6,382.9c0.3,0,0.5,0.2,0.7,0.4c0.2-1,0.9-1.7,1.7-1.6c0.5,0.1,0.9,0.4,1.1,0.9c0.3-0.6,0.9-1,1.5-0.9
	c0.6,0.1,1,0.6,1.2,1.3c0.3-0.4,0.8-0.7,1.3-0.6c0.8,0.1,1.3,1,1.2,2.1c0,0,0,0,0,0c0.3-0.2,0.6-0.3,0.9-0.2c0.8,0.1,1.3,1,1.2,2.1
	c-0.1,1-0.9,1.8-1.7,1.7c-0.5-0.1-0.8-0.4-1-0.9c-0.9,0.3-2.3,0.4-3.7,0.2c-1.4-0.2-2.7-0.6-3.5-1.1c-0.3,0.4-0.7,0.5-1.2,0.5
	c-0.8-0.1-1.3-1-1.2-2.1C125,383.5,125.8,382.8,126.6,382.9"/>
<path class="st6" d="M199.3,383.9c0.3,0,0.5,0,0.8,0.2c-0.1-1,0.5-1.9,1.3-2c0.5-0.1,0.9,0.2,1.3,0.6c0.2-0.7,0.6-1.2,1.2-1.3
	c0.6-0.1,1.2,0.3,1.5,1c0.2-0.5,0.6-0.8,1.1-0.9c0.8-0.1,1.6,0.7,1.7,1.7c0,0,0,0,0,0c0.2-0.2,0.5-0.4,0.8-0.4
	c0.8-0.1,1.6,0.7,1.7,1.7c0.1,1.1-0.4,2-1.2,2.1c-0.5,0.1-0.9-0.2-1.2-0.6c-0.8,0.5-2.1,0.9-3.6,1.1c-1.4,0.2-2.8,0.1-3.7-0.2
	c-0.2,0.4-0.6,0.7-1,0.8c-0.8,0.1-1.6-0.7-1.7-1.7C197.9,385,198.5,384,199.3,383.9"/>
<path class="st1" d="M223.9,111.5c11.5-4.3,22.5-6.9,33.6-12.3c6-2.9,12.1-8.3,18-11.3c4.5-2.3,1.6,6.1-0.9,7.4
	c-3,1.5-5.9,3-8.9,4.5c4.3,1.1,8.6,2.4,12.9,3.7c5.5,1.7,3.5,8.9-1.9,7.2c-5.4-1.7-10.9-3.3-16.4-4.5c0.4,0.1-1.5-0.2-2-0.3
	c-0.1,0-0.2,0-0.2,0c-1,0-1.9-0.3-2.8-0.9c-11,5.3-22.3,10.2-33.7,14.5C217.9,120.9,221.3,112.5,223.9,111.5"/>
<path class="st10" d="M112.5,208.8c0,0,3.2-6.2,3.1-7.8c0-1.1-0.9-1.2-2.5-0.3c1.3-3.7,1.3-8.3-1.4-8c-2.7,0.3-5.6,14-5.8,16.3
	C106,209,107.1,215.5,112.5,208.8"/>
<path class="st11" d="M224.3,204.6c0,0,0.8-11.9-7.8-11.2c-8.6,0.7-9.1,5.6-3.6,4.9c0,0,0.7,11.4,5.7,9.9
	C223.7,206.8,224.3,204.6,224.3,204.6z"/>
<path class="st1" d="M209.6,211.7l22.2-4.7c0,0,17.2,53.5,3.4,56.3C223.5,265.6,215.7,241.7,209.6,211.7z"/>
<path class="st6" d="M229.9,202.3c-0.6,0.1-1.2,0.4-1.6,0.8c-0.4-1.6-2.2-2.6-3.9-2.2c-1.1,0.2-2,0.9-2.4,1.8
	c-0.7-0.9-2.1-1.4-3.4-1.2c-1.4,0.3-2.4,1.3-2.7,2.4c-0.8-0.6-1.8-0.9-2.9-0.7c-1.9,0.4-3.1,2.1-2.7,3.7c0,0,0,0,0,0.1
	c-0.6-0.2-1.3-0.3-2-0.1c-1.9,0.4-3.1,2.1-2.7,3.7c0.3,1.7,2.1,2.7,4,2.3c1.1-0.2,1.9-0.9,2.4-1.7c2.1,0.2,5.2,0,8.6-0.7
	c3.3-0.7,6.2-1.7,8.1-2.8c0.7,0.5,1.7,0.7,2.7,0.5c1.9-0.4,3.1-2.1,2.7-3.7C233.5,202.9,231.8,201.9,229.9,202.3"/>
<path class="st11" d="M102.4,205.5c0,0,0.4-9.5,4.9-10.2c4.5-0.8,7.7-0.2,8.9,0.9c1.2,1.1-2.2,3.9-2.2,3.9s-0.5,9.3-4.8,8.9
	C104.8,208.6,102.4,205.5,102.4,205.5z"/>
<path class="st1" d="M116.3,211.4l-19.7-3.7c-7.7,21.6-4.4,46.2-4.4,46.2c0.6,3.4,1.6,9.7,6.2,11.5c2.7,1.1,5.5,1.1,7.6,0.1
	c3.9-1.8,4.3-10,6.7-20.8c3.3-15,6.6-32.7,6.6-32.7L116.3,211.4z"/>
<path class="st6" d="M117.8,207.6c-0.6-0.1-1.1-0.1-1.7,0.1c0.2-1.5-0.9-3-2.6-3.3c-1-0.2-2,0.1-2.7,0.6c-0.3-1.1-1.3-2-2.5-2.2
	c-1.3-0.2-2.5,0.2-3.2,1.1c-0.4-0.8-1.2-1.4-2.3-1.6c-1.7-0.3-3.4,0.7-3.7,2.2c0,0,0,0,0,0.1c-0.4-0.4-1-0.7-1.7-0.8
	c-1.7-0.3-3.4,0.7-3.7,2.2c-0.3,1.6,0.8,3.1,2.6,3.4c1,0.2,2-0.1,2.7-0.6c1.8,1,4.5,1.9,7.6,2.5c3.1,0.6,5.9,0.8,7.9,0.5
	c0.5,0.7,1.2,1.2,2.1,1.4c1.7,0.3,3.4-0.7,3.7-2.2C120.7,209.5,119.5,207.9,117.8,207.6"/>
<g>
	<g>
		<path class="st12" d="M106.6,189c3.1,0.3,6.2,0.5,9.3,0.8c0-0.3-0.1-0.7-0.1-1c-3.4,0.9-6.7,1.8-10.1,2.6c-0.6,0.1-0.4,1.1,0.3,1
			c3.4-0.8,6.7-1.7,10.1-2.6c0.6-0.2,0.4-0.9-0.1-1c-3.1-0.3-6.2-0.5-9.3-0.8C105.9,188,105.9,189,106.6,189L106.6,189z"/>
	</g>
</g>
<g>
	<g>
		<path class="st12" d="M218.3,189c3.2-0.4,6.3-0.8,9.5-1.2c0.6-0.1,0.6-1.1,0-1c-3.2,0.4-6.3,0.8-9.5,1.2
			C217.6,188.1,217.6,189.1,218.3,189L218.3,189z"/>
	</g>
</g>
<g>
	<g>
		<path class="st12" d="M218.5,189.1c3.7,0.8,7.4,1.7,11.1,2.7c0.6,0.2,0.9-0.8,0.3-1c-3.7-1-7.4-1.9-11.1-2.7
			C218.1,188,217.8,189,218.5,189.1L218.5,189.1z"/>
	</g>
</g>
<path class="st13" d="M118.6,256.1c0,0,50.1,11.3,99.3,0l1.5,7.9c0,0-37.8,13.6-102.6,0.9L118.6,256.1z"/>
<g>
	<path class="st14" d="M169.5,192.6c-2,0.2-2.9,0.7-4.1,1.7c-0.6,0.5-1.1,1-1.4,1.7c-0.2,0.7-0.1,1.6,0.4,2c0.8,0.7,2.2,0.3,3.1-0.3
		s1.8-1.5,2.9-1.5c0.9,0,1.6,0.4,2.4,0.7s1.8,0.5,2.5,0c0.8-0.6,0.8-2,0.1-2.8c-0.6-0.8-1.7-1.2-2.7-1.4c-1.5-0.3-1.9-0.5-4.1,0"/>
	<g>
		<path class="st14" d="M169.5,192.1c-2.2,0.3-4.4,1.2-5.6,3.1c-0.6,0.9-0.7,2.3,0.1,3.1c0.8,0.8,2,0.8,3,0.3
			c1.1-0.5,1.9-1.5,3.1-1.8c1.3-0.3,2.5,0.8,3.8,0.9c1.1,0.1,2.2-0.4,2.5-1.5c0.3-1-0.1-2.1-0.9-2.8c-1-0.8-2.3-1.1-3.5-1.3
			c-1.2-0.2-2.2-0.1-3.4,0.1c-0.6,0.1-0.4,1.1,0.3,1c0.8-0.2,1.6-0.3,2.5-0.2c0.8,0.1,1.5,0.3,2.3,0.5c0.9,0.3,1.8,0.9,1.9,1.9
			c0.1,1.1-0.8,1.5-1.8,1.3c-1-0.2-1.9-0.8-3-0.9c-0.9-0.1-1.8,0.4-2.5,0.9c-0.8,0.5-1.5,1.2-2.5,1.3c-1,0.1-1.5-0.9-1.2-1.8
			c0.3-1,1.4-1.7,2.2-2.2c0.9-0.5,1.8-0.7,2.8-0.9C170.1,193,170.1,192,169.5,192.1L169.5,192.1z"/>
	</g>
</g>
<path class="st5" d="M234,189.5c0,0,3.6-0.6,5.6,0.9c2,1.5,1.5,3,0.9,3.4c-1.1,1-2.9,0.4-3.8-1.4C235.8,190.7,234,189.5,234,189.5z"
	/>
<path class="st5" d="M102.2,192.9c0,0-2.5-0.4-3.9,0.6c-1.4,1-1,2.1-0.6,2.4c0.8,0.7,2,0.3,2.6-0.9S102.2,192.9,102.2,192.9z"/>
</svg>
