<?xml version="1.0" encoding="utf-8"?>
<!-- Generator: Adobe Illustrator 24.3.0, SVG Export Plug-In . SVG Version: 6.00 Build 0)  -->
<svg version="1.1" id="_x31_" xmlns="http://www.w3.org/2000/svg" xmlns:xlink="http://www.w3.org/1999/xlink" x="0px" y="0px"
	 viewBox="0 0 253.4 400.5" style="enable-background:new 0 0 253.4 400.5;" xml:space="preserve">
<style type="text/css">
	.st0{fill:#F7E7D6;}
	.st1{opacity:0.6;}
	.st2{fill:#5F554E;}
	.st3{fill:#DC6897;}
	.st4{fill:#005944;}
	.st5{clip-path:url(#SVGID_2_);fill:#005944;}
	.st6{opacity:0.21;fill:#463266;}
	.st7{fill:#096A52;}
</style>
<g>
	<g>
		<defs>
			<path id="XMLID_28_" d="M162.9,232.9c5.6,3.6,9.7,9.8,12.6,15c9,16,11.3,33.7,11.9,51.3c0.7,3.2,1.9,12.6,0.2,13.6
				c-2,1.1-3.4-2.5-3.4-5.8c-1,1.2-1.7,1.3-2.1,0.5c-0.5-1.1,0-5.6,0.1-6.7c0-0.1,0-0.1,0-0.2c-0.5-17.8-3.5-34.2-13-50.2
				c-2.7-4.6-6.1-9.9-11.1-13.2C154.5,234.9,159.4,230.6,162.9,232.9z"/>
		</defs>
		<use xlink:href="#XMLID_28_"  style="overflow:visible;fill:#F7E7D6;"/>
		<clipPath id="XMLID_3_">
			<use xlink:href="#XMLID_28_"  style="overflow:visible;"/>
		</clipPath>
	</g>
	<g>
		<path class="st0" d="M74.9,302.5c0,0,3.4,4.7,3.6,6c0.1,0.9-0.6,1.1-2,0.6c1.5,2.9,2.1,6.7-0.1,6.7c-2.2,0.1-6.4-10.8-6.8-12.7
			C69.5,303.1,69.6,297.6,74.9,302.5"/>
		<path class="st0" d="M70.5,231.7c-14.6,22.6-10.1,51.1-0.7,72.5c0.8,1.7,0.5,1.7,2.1,1.1c1.7-0.6,3.8-1,3-2.7
			c-8.8-20-12.2-47.3,1.6-68.5C78.8,230.6,72.8,228.2,70.5,231.7"/>
	</g>
	<g class="st1">
		<defs>
			<ellipse id="XMLID_30_" class="st1" cx="113.2" cy="374.1" rx="94.9" ry="12.1"/>
		</defs>
		<use xlink:href="#XMLID_30_"  style="overflow:visible;fill:#3A3A3A;"/>
		<clipPath id="XMLID_4_">
			<use xlink:href="#XMLID_30_"  style="overflow:visible;"/>
		</clipPath>
	</g>
	<g>
		<defs>
			<path id="XMLID_27_" d="M145.3,281.9c0-4.5-7-4.5-7,0c1.3,3.8,19,55.4,1.9,66.8c-2.3,1.5-4.9,1.9-4.9,1.9c-1,0.3-1.7,0.2-2.4,0.3
				c-1,0.2-1.4,0.3-2.3,1.2c-0.9,0.9-1,2.1-1,2.4c-0.1,0.5-0.2,2,0.7,3c0.7,0.7,1.8,0.9,4.4,0.5c2.2-0.4,5-0.8,8-2.6
				c6.2-3.7,9.1-11.1,9.8-12.9c4-10.2,2.9-30.3-4.7-54.3l-2.6-6.2"/>
		</defs>
		<use xlink:href="#XMLID_27_"  style="overflow:visible;fill:#CB3E54;"/>
		<clipPath id="XMLID_5_">
			<use xlink:href="#XMLID_27_"  style="overflow:visible;"/>
		</clipPath>
	</g>
	<g>
		<defs>
			<path id="XMLID_26_" d="M84,281.3c0.1,32,0.2,64,0.3,96c0,4.5,7,4.5,7,0c-0.1-32-0.2-64-0.3-96C91,276.8,84,276.8,84,281.3"/>
		</defs>
		<use xlink:href="#XMLID_26_"  style="overflow:visible;fill:#CB3E54;"/>
		<clipPath id="XMLID_6_">
			<use xlink:href="#XMLID_26_"  style="overflow:visible;"/>
		</clipPath>
	</g>
	<path class="st2" d="M90.3,374.7l-5.2-0.1c0,0-4.6,0.5-6.4,2.1c-1.9,1.6,0.8,3.7,0.8,3.7l12.5,0.2C92,380.6,94.8,374.7,90.3,374.7"
		/>
	<path class="st2" d="M133.1,350.6c0,0,2.2,1,2.4,5.6c0.1,4.5,1.2,8.3-1.2,9.8c-2.4,1.5-4.9,0.1-5.3-1.9c-0.3-1.3-0.9-5.2-0.8-7.8
		C128.2,353.7,128.1,349.8,133.1,350.6z"/>
	<g>
		<g>
			<defs>
				<path id="XMLID_25_" d="M101.5,223l60.6,0.2c0,0,3.7,25.2,5.8,45C131.9,262.1,108.8,247.6,101.5,223"/>
			</defs>
			<use xlink:href="#XMLID_25_"  style="overflow:visible;fill:#F7E7D6;"/>
			<clipPath id="XMLID_7_">
				<use xlink:href="#XMLID_25_"  style="overflow:visible;"/>
			</clipPath>
		</g>
		<g>
			<defs>
				<path id="XMLID_24_" d="M167.7,268.3c0,0.2,0,0.3,0.1,0.5c0,0.2,0.6,0.4,0.6,0.6c0,0.2-0.5,0.5-0.5,0.7c0,0.2,0.2,0.4,0.2,0.6
					c0,0.2-0.4,0.5-0.4,0.7c0,0.2,0.8,0.4,0.8,0.6c0,0.2-0.6,0.5-0.6,0.7c0,0.2,0.3,0.4,0.3,0.6c0,0.2,0.3,0.4,0.3,0.6
					c0,0.2,0.2,0.4,0.2,0.6c0,0.2-0.6,0.5-0.6,0.7c0,0.2,0.7,0.4,0.7,0.6c0,0.2-0.3,0.4-0.2,0.7c0,0.2-0.1,0.4-0.1,0.6
					c0,0.2-0.2,0.4-0.1,0.6c0,0.2,0.3,0.4,0.4,0.6c0,0.2,0,0.4,0,0.6c0,0.2,0.3,0.4,0.3,0.6c0,0.2-0.4,0.4-0.4,0.7
					c0,0.2-0.1,0.4-0.1,0.6c0,0.2,0.6,0.4,0.6,0.6c0,0.2-0.2,0.4-0.2,0.6c0,0.2,0,0.4,0,0.6c0,0.2-0.5,0.4-0.5,0.6
					c0,0.2,0.8,0.4,0.8,0.6c0,0.2-0.3,0.4-0.3,0.6c0,0.2-0.3,0.4-0.3,0.6c0,0.2,0.7,0.4,0.7,0.6c0,0.2-0.6,0.4-0.6,0.6
					c0,0.2,0.5,0.5,0.5,0.7c0,0.2-0.5,0.3-0.6,0.5c-0.1,0.2,0.1,0.6,0,0.7c-0.1,0.2-0.3,0.2-0.5,0.3c0,0.2-0.5,0.3-0.5,0.5
					c0,0.2,0,0.4-0.1,0.6c0,0.2-0.1,0.4-0.1,0.6c-0.1,0.2,0.5,0.6,0.4,0.8c-0.1,0.2-0.5,0.3-0.6,0.4c-0.1,0.2-0.3,0.3-0.5,0.5
					c-0.1,0.1-0.1,0.5-0.2,0.7c-0.1,0.1-0.3,0.4-0.4,0.5c-0.2,0.1-0.7-0.2-0.8,0c-0.2,0.1-0.1,0.6-0.3,0.7c-0.2,0.1-0.6-0.2-0.8-0.1
					c-0.2,0.1-0.1,0.6-0.3,0.8c-0.2,0.1-0.5,0-0.7,0.1c-0.2,0.1-0.4,0.1-0.6,0.2c-0.2,0.1-0.4,0.2-0.6,0.3c-0.2,0.1-0.1,0.7-0.3,0.7
					c-0.2,0.1-0.6-0.2-0.7-0.1c-0.2,0.1-0.5,0-0.7,0.1c-0.2,0.1-0.1,0.7-0.3,0.8c-0.2,0.1-0.5,0-0.7,0.1c-0.2,0.1-0.5-0.2-0.7-0.1
					c-0.2,0.1-0.5,0-0.7,0c-0.2,0.1-0.4,0.1-0.6,0.2c-0.2,0.1-0.3,0.5-0.5,0.6c-0.2,0.1-0.4,0-0.6,0.1c-0.2,0.1-0.4,0.1-0.6,0.1
					c-0.2,0.1-0.3,0.3-0.5,0.4c-0.2,0.1-0.3,0.3-0.6,0.4c-0.2,0.1-0.3,0.3-0.5,0.4c-0.2,0.1-0.6-0.4-0.8-0.3c-0.2,0.1-0.5-0.1-0.7,0
					c-0.2,0.1-0.3,0.5-0.5,0.5c-0.2,0.1-0.4,0-0.6,0c-0.2,0.1-0.4,0.2-0.6,0.2c-0.2,0.1-0.5-0.1-0.7-0.1c-0.2,0-0.3,0.5-0.5,0.5
					c-0.2,0-0.3,0.4-0.5,0.4c-0.2,0-0.4-0.1-0.7,0c-0.2,0-0.5-0.4-0.7-0.3c-0.2,0-0.4,0.3-0.6,0.3c-0.2,0-0.4,0-0.6,0.1
					c-0.2,0-0.5-0.2-0.7-0.2c-0.2,0-0.3,0.7-0.5,0.8c-0.2,0-0.4,0.1-0.6,0.2c-0.2,0-0.5-0.5-0.7-0.5c-0.2,0-0.4,0.3-0.6,0.3
					c-0.2,0-0.4,0-0.6,0c-0.2,0-0.4-0.1-0.6,0c-0.2,0-0.4,0.3-0.6,0.4c-0.2,0-0.4,0.3-0.6,0.3c-0.2,0-0.4-0.1-0.7-0.1
					c-0.2,0-0.5-0.2-0.7-0.2c-0.2,0-0.4-0.1-0.6,0c-0.2,0-0.4,0.5-0.6,0.5c-0.2,0-0.5-0.4-0.7-0.3c-0.2,0-0.4,0.2-0.6,0.2
					c-0.2,0-0.4,0.2-0.6,0.2c-0.2,0-0.5-0.2-0.7-0.2c-0.2,0-0.4,0.6-0.6,0.6c-0.2,0-0.5-0.5-0.7-0.5c-0.2,0-0.4,0.3-0.6,0.3
					c-0.2,0-0.4,0.1-0.6,0.1c-0.2,0-0.4,0.4-0.6,0.4c-0.2,0-0.4,0-0.6,0.1c-0.2,0-0.4-0.2-0.7-0.2c-0.2,0-0.4,0.1-0.6,0.1
					c-0.2,0-0.4,0.2-0.6,0.3c-0.2,0-0.5-0.6-0.7-0.6c-0.2,0-0.4,0.5-0.6,0.5c-0.2,0-0.4-0.3-0.7-0.3c-0.2,0-0.4,0.1-0.6,0.1
					c-0.2,0-0.4-0.1-0.6-0.1c-0.2,0-0.4,0.3-0.6,0.3c-0.2,0-0.4-0.3-0.7-0.3c-0.2,0-0.4,0.3-0.6,0.3c-0.2,0-0.4,0.4-0.6,0.4
					c-0.2,0-0.4,0.2-0.6,0.2c-0.2,0-0.5-0.8-0.7-0.7c-0.2,0-0.4,0.6-0.6,0.6c-0.2,0-0.4,0.1-0.6,0.1c-0.2,0-0.4-0.5-0.7-0.5
					c-0.2,0-0.4,0.1-0.6,0.2c-0.2,0-0.4,0.3-0.6,0.3c-0.2,0-0.4,0.2-0.6,0.2c-0.2,0-0.4,0-0.6,0c-0.2,0-0.4-0.7-0.7-0.7
					c-0.2,0-0.4,0.7-0.6,0.7c-0.2,0-0.4-0.6-0.6-0.6c-0.2,0-0.4-0.2-0.6-0.2c-0.2,0-0.4,0.3-0.7,0.3c-0.2,0-0.4-0.3-0.6-0.3
					c-0.2,0-0.4,0-0.6,0c-0.2,0-0.5,0.6-0.7,0.6c-0.2,0-0.4-0.7-0.6-0.7c-0.2,0-0.4,0.2-0.6,0.2c-0.2,0-0.4,0.1-0.6,0
					c-0.2,0-0.4-0.4-0.6-0.4c-0.2,0-0.5,0.5-0.7,0.5c-0.2,0-0.4-0.1-0.6-0.1c-0.2,0-0.4,0.1-0.6,0.1c-0.2,0-0.4-0.6-0.6-0.6
					c-0.2,0-0.5,0.7-0.7,0.7c-0.2,0-0.4-0.6-0.6-0.6c-0.2,0-0.5,0.5-0.7,0.5c-0.2,0-0.4-0.6-0.6-0.6c-0.2,0-0.5,0.3-0.7,0.3
					c-0.2,0-0.4,0.1-0.6,0.1c-0.2,0-0.4,0-0.6-0.1c-0.2,0-0.4-0.6-0.6-0.6c-0.2,0-0.4-0.1-0.6-0.1c-0.2,0-0.5,0.6-0.7,0.6
					c-0.2,0-0.4-0.1-0.6-0.1c-0.2,0-0.4,0-0.6,0c-0.2,0-0.4-0.4-0.6-0.5c-0.2,0-0.4-0.1-0.6-0.1c-0.2,0-0.4,0.1-0.6,0.1
					c-0.2,0-0.4-0.1-0.6-0.2c-0.2,0-0.4,0.1-0.7,0.1c-0.2,0-0.3-0.7-0.5-0.7c-0.2,0-0.5,0.6-0.7,0.6c-0.2,0-0.4-0.6-0.6-0.6
					c-0.2,0-0.5,0.3-0.7,0.2c-0.2,0-0.4-0.3-0.6-0.3c-0.2,0-0.4-0.3-0.6-0.4c-0.2,0-0.5,0.5-0.7,0.5c-0.2,0-0.4,0-0.6,0
					c-0.2,0-0.4-0.1-0.6-0.2c-0.2,0-0.3-0.7-0.5-0.7c-0.2,0-0.5,0.5-0.7,0.4c-0.2,0-0.3-0.5-0.5-0.6c-0.2,0-0.4-0.2-0.6-0.2
					c-0.2,0-0.4-0.1-0.6-0.1c-0.2,0-0.5,0.4-0.7,0.3c-0.2,0-0.3-0.6-0.5-0.6c-0.2,0-0.4,0-0.6-0.1c-0.2,0-0.4,0-0.6,0
					c-0.2-0.1-0.6,0.5-0.8,0.4c-0.2-0.1-0.4-0.2-0.6-0.3c-0.2-0.1-0.4-0.1-0.6-0.1c-0.2-0.1-0.3-0.6-0.5-0.7
					c-0.2-0.1-0.5,0.2-0.7,0.2c-0.2-0.1-0.5,0.2-0.7,0.1c-0.2-0.1-0.4-0.2-0.6-0.2c-0.2-0.1-0.4-0.1-0.6-0.2
					c-0.2-0.1-0.2-0.6-0.4-0.7c-0.2-0.1-0.4-0.2-0.6-0.3c-0.2-0.1-0.4,0-0.6-0.1c-0.2-0.1-0.3-0.4-0.5-0.5c-0.2-0.1-0.4,0-0.6-0.1
					c-0.2-0.1-0.3-0.3-0.5-0.4c-0.2-0.1-0.4-0.1-0.6-0.2c-0.2-0.1-0.4-0.1-0.6-0.2c-0.2-0.1-0.6,0.2-0.8,0.1
					c-0.2-0.1-0.1-0.7-0.3-0.8c-0.2-0.1-0.3-0.2-0.5-0.3c-0.2-0.1-0.3-0.2-0.5-0.3c-0.2-0.1-0.6,0.1-0.7,0c-0.2-0.1-0.2-0.5-0.3-0.6
					c-0.2-0.1-0.7,0.3-0.9,0.1c-0.2-0.1,0-0.7-0.2-0.8c-0.2-0.1-0.7,0.2-0.9,0c-0.2-0.1-0.1-0.6-0.2-0.7c-0.1-0.2-0.2-0.4-0.3-0.6
					c-0.1-0.2-0.3-0.3-0.4-0.4c-0.1-0.2-0.6-0.1-0.7-0.3c-0.1-0.2-0.4-0.3-0.5-0.5c-0.1-0.2,0.1-0.6,0-0.7c-0.1-0.2-0.3-0.3-0.4-0.5
					c-0.1-0.2,0.2-0.5,0.2-0.7c-0.1-0.2-0.3-0.3-0.4-0.5c0-0.2-0.3-0.3-0.3-0.5c0-0.2-0.3-0.3-0.3-0.5c0-0.2,0.2-0.4,0.2-0.6
					c-0.1-0.2-0.1-0.4-0.2-0.6c-0.1-0.2,0.1-0.4,0-0.6c0-0.2-0.1-0.4-0.2-0.6c0-0.2-0.1-0.4-0.1-0.6c0-0.2-0.5-0.4-0.5-0.6
					c0-0.2,0.1-0.5,0.1-0.6c0-0.2,0-0.4,0-0.6c0-0.2,0-0.4,0-0.6c0-0.2,0.5-0.4,0.5-0.6c0-0.2,0.2-0.4,0.2-0.6c0-0.2,0-0.4,0-0.6
					c0-0.2-0.1-0.4-0.1-0.6c0-0.2,0-0.4,0-0.6c0-0.2,0.1-0.4,0.1-0.6c0-0.2-0.5-0.4-0.5-0.6c0-0.2-0.1-0.4-0.1-0.6
					c0-0.2,0.7-0.4,0.7-0.6c0-0.2-0.4-0.4-0.4-0.6c0-0.2-0.2-0.4-0.1-0.6c0-0.2-0.1-0.4-0.1-0.6c0-0.2,0.1-0.4,0.1-0.6
					c0-0.2,0.1-0.4,0.1-0.6c0-0.2,0.5-0.4,0.5-0.6c0-0.2,0-0.4,0-0.6c0-0.2-0.1-0.4-0.1-0.6c0-0.2,0.1-0.4,0.1-0.6
					c0-0.2-0.4-0.4-0.4-0.7c0-0.2,0.2-0.4,0.2-0.6c0-0.2,0.1-0.4,0.1-0.6c0-0.2,0.3-0.4,0.3-0.6c0-0.2-0.2-0.4-0.2-0.6
					c0-0.2,0-0.4,0-0.6c0-0.2,0.4-0.4,0.4-0.6c0-0.2-0.5-0.5-0.5-0.7c0-0.2,0-0.4,0-0.6c0-0.2-0.1-0.4,0-0.6c0-0.2,0-0.4,0-0.6
					c0-0.2,0.3-0.4,0.3-0.6c0-0.2-0.3-0.4-0.3-0.7c0-0.2,0.8-0.4,0.8-0.6c0-0.2-0.7-0.5-0.7-0.7c0-0.2,0.2-0.4,0.2-0.6
					c0-0.2,0.4-0.4,0.4-0.6c0-0.2,0.2-0.4,0.2-0.6c0-0.2-0.2-0.4-0.1-0.6c0-0.2,0.2-0.4,0.2-0.6c0-0.2-0.2-0.4-0.2-0.7
					c0-0.2,0.4-0.4,0.4-0.6c0-0.2-0.1-0.4-0.1-0.6c0-0.2-0.6-0.5-0.5-0.7c0-0.2,0.3-0.4,0.4-0.6c0-0.2,0-0.4,0-0.6
					c0-0.2,0.4-0.4,0.4-0.6c0-0.2-0.2-0.5-0.2-0.7c0-0.2,0.4-0.4,0.4-0.6c0-0.2,0-0.4,0-0.6c0-0.2-0.4-0.5-0.4-0.7
					c0-0.2,0.3-0.4,0.4-0.6c0-0.2-0.1-0.4-0.1-0.7c0-0.2,0.3-0.4,0.3-0.6c0-0.2-0.1-0.4-0.1-0.6c0-0.2,0-0.4,0-0.6
					c0-0.2,0.5-0.4,0.6-0.6c0-0.2,0-0.4,0-0.6c0-0.2-0.1-0.4-0.1-0.6c0-0.2,0.1-0.4,0.1-0.6c0-0.2,0-0.4,0.1-0.6
					c0-0.2-0.4-0.5-0.4-0.7c0-0.2,0.7-0.3,0.7-0.5c0-0.2,0.1-0.4,0.2-0.6c0-0.2-0.1-0.5-0.1-0.7c0-0.2,0-0.4,0.1-0.6
					c0-0.2-0.4-0.5-0.3-0.7c0-0.2,0.8-0.3,0.8-0.5c0-0.2-0.6-0.5-0.6-0.8c0-0.2,0.2-0.4,0.2-0.6c0-0.2,0.1-0.4,0.1-0.6
					c0-0.2,0.3-0.4,0.4-0.6c0-0.2-0.1-0.4,0-0.6c0-0.2,0.1-0.4,0.1-0.6c0-0.2,0.1-0.4,0.2-0.6c0-0.2,0.6-0.3,0.7-0.5
					c0-0.2-0.7-0.6-0.6-0.8c0-0.2,0.9-0.2,0.9-0.4c0-0.2,0.1-0.4,0.1-0.6c0.1-0.2-0.2-0.5-0.2-0.7c0.1-0.2,0.1-0.4,0.1-0.6
					c0.1-0.2,0.4-0.3,0.4-0.5c0.1-0.2-0.4-0.5-0.3-0.7c0.1-0.2-0.1-0.5,0-0.7c0.1-0.2,0.5-0.3,0.6-0.5c0.1-0.2,0.4-0.3,0.5-0.5
					c0.1-0.2-0.4-0.6-0.4-0.8c0.1-0.2,0.5-0.3,0.5-0.5c0.1-0.2,0.3-0.3,0.4-0.5c0.1-0.2,0.2-0.4,0.3-0.6c0.1-0.2-0.5-0.6-0.5-0.8
					c0.1-0.2,0.6-0.2,0.7-0.4c0.1-0.2,0-0.4,0.1-0.6c0.1-0.2,0.3-0.3,0.4-0.5c0.1-0.2,0.2-0.4,0.3-0.5c0.2-0.4-0.4-0.6-0.1-0.7
					c0.3-0.1,0.3-0.1,0.6-0.1c0.3,0,0.3,0.1,0.6,0.1c0.3,0,0.3-0.4,0.6-0.4c0.3,0,0.3,0.6,0.6,0.6c0.3,0,0.3,0.1,0.6,0.1
					c0.3,0,0.3-0.2,0.6-0.2c0.3,0,0.3-0.3,0.6-0.3c0.3,0,0.3,0,0.6,0c0.3,0,0.3,0.7,0.6,0.7c0.3,0,0.3-0.4,0.6-0.4
					c0.3,0,0.3-0.2,0.6-0.2s0.3,0.6,0.6,0.6c0.3,0,0.3-0.2,0.6-0.2c0.3,0,0.3-0.5,0.6-0.5c0.3,0,0.3,0.5,0.6,0.5
					c0.3,0,0.3-0.4,0.6-0.4c0.3,0,0.3,0.6,0.6,0.6c0.3,0,0.3-0.7,0.6-0.7c0.3,0,0.3,0.3,0.6,0.3c0.3,0,0.3-0.3,0.6-0.3
					c0.3,0,0.3,0.4,0.6,0.4c0.3,0,0.3-0.1,0.6-0.1c0.3,0,0.3,0,0.6,0c0.3,0,0.3,0,0.6,0c0.3,0,0.3,0.5,0.6,0.5
					c0.3,0,0.3-0.3,0.6-0.3c0.3,0,0.3,0.3,0.6,0.3c0.3,0,0.3,0,0.6,0c0.3,0,0.3-0.6,0.6-0.6c0.3,0,0.3,0,0.6,0c0.3,0,0.3,0,0.6,0
					c0.3,0,0.3,0.3,0.6,0.3c0.3,0,0.3,0.2,0.6,0.2c0.3,0,0.3-0.2,0.6-0.2c0.3,0,0.3-0.5,0.6-0.5c0.3,0,0.3,0.4,0.6,0.4
					c0.3,0,0.3-0.2,0.6-0.2c0.3,0,0.3,0.5,0.6,0.5c0.3,0,0.3-0.6,0.6-0.6s0.3,0,0.6,0c0.3,0,0.3,0.3,0.6,0.3c0.3,0,0.3-0.5,0.6-0.5
					c0.3,0,0.3,0.2,0.6,0.2c0.3,0,0.4-0.1,0.7,0c0,0.2,0,0.6,0,0.8c0,0.2-0.4,0.4-0.4,0.7c0,0.2,0.3,0.4,0.4,0.6
					c0,0.2,0.2,0.4,0.2,0.6c0,0.2,0.2,0.4,0.3,0.6c0,0.2,0,0.4,0.1,0.6c0,0.2-0.5,0.5-0.5,0.7c0,0.2,0.5,0.3,0.6,0.6
					c0,0.2-0.1,0.5-0.1,0.7c0,0.2,0.5,0.3,0.5,0.5c0,0.2,0.1,0.4,0.2,0.6c0,0.2,0,0.4,0.1,0.6c0.1,0.2-0.3,0.5-0.2,0.7
					c0.1,0.2,0,0.4,0.1,0.7c0.1,0.2,0.2,0.4,0.3,0.6c0.1,0.2,0.4,0.3,0.5,0.5c0.1,0.2,0.2,0.4,0.2,0.6c0.1,0.2,0.1,0.4,0.2,0.6
					c0.1,0.2-0.3,0.6-0.2,0.8c0.1,0.2,0,0.5,0.1,0.7c0.1,0.2,0.9,0,1,0.2c0.1,0.2-0.3,0.6-0.2,0.8c0.1,0.2,0.2,0.4,0.3,0.6
					c0.1,0.2,0.7,0.1,0.8,0.3c0.1,0.2-0.4,0.7-0.3,0.9c0.1,0.2,0.6,0.1,0.7,0.3c0.1,0.2,0.3,0.3,0.5,0.5c0.1,0.2-0.3,0.7-0.2,0.9
					c0.1,0.2,0.9-0.1,1,0.1c0.1,0.2-0.1,0.6,0,0.8c0.1,0.2,0.6,0.1,0.7,0.3c0.1,0.2-0.3,0.8-0.2,1c0.1,0.2,0.5,0.2,0.6,0.3
					c0.1,0.2,0.5,0.1,0.6,0.3c0.1,0.2,0,0.6,0.1,0.8c0.1,0.2,0.4,0.2,0.5,0.4c0.1,0.2,0.7,0,0.8,0.1c0.1,0.2-0.2,0.7,0,0.9
					c0.1,0.2,0.5,0.1,0.6,0.3c0.1,0.1,0.3,0.3,0.5,0.4c0.2,0.1,0.1,0.5,0.3,0.7c0.2,0.1,0.8-0.2,0.9-0.1c0.2,0.1,0.1,0.5,0.3,0.6
					c0.2,0.1,0.5,0.1,0.6,0.2c0.2,0.1,0.1,0.5,0.3,0.6c0.2,0.1,0.5,0,0.7,0.1c0.2,0.1,0,0.6,0.2,0.8c0.2,0.1,0.2,0.4,0.4,0.5
					c0.2,0.1,0.8-0.3,0.9-0.2c0.2,0.1,0.3,0.3,0.5,0.4c0.2,0.1,0.2,0.5,0.4,0.6c0.2,0.1,0.1,0.5,0.3,0.7c0.2,0.1,0.6-0.1,0.8,0
					c0.2,0.1,0.1,0.6,0.3,0.7c0.2,0.1,0.3,0.3,0.5,0.4c0.2,0.1,0.8-0.5,1-0.4c0.2,0.1,0.1,0.7,0.3,0.8c0.2,0.1,0.5,0,0.7,0.1
					c0.2,0.1,0.1,0.7,0.3,0.8c0.2,0.1,0.5-0.1,0.7,0c0.2,0.1,0.5,0,0.7,0.1c0.2,0.1,0.4,0.2,0.6,0.3c0.2,0.1,0,0.8,0.2,0.9
					c0.2,0.1,0.6-0.2,0.8-0.1c0.2,0.1,0.5,0,0.7,0.1c0.2,0.1,0.1,0.8,0.2,0.9c0.2,0.1,0.6-0.3,0.8-0.2c0.2,0.1,0.1,0.7,0.3,0.8
					c0.2,0.1,0.5-0.1,0.7,0c0.2,0.1,0.6-0.2,0.8-0.1c0.2,0.1,0.1,0.7,0.3,0.8c0.2,0.1,0.6-0.2,0.8-0.2c0.2,0.1,0.3,0.3,0.5,0.4
					c0.2,0.1,0.2,0.6,0.4,0.7c0.2,0.1,0.4,0.2,0.6,0.3c0.2,0.1,0.7-0.5,0.9-0.4c0.2,0.1,0.1,0.8,0.3,0.8c0.2,0.1,0.6-0.3,0.8-0.2
					c0.2,0.1,0.2,0.7,0.4,0.7c0.2,0.1,0.5,0,0.7,0.1c0.2,0.1,0.6-0.3,0.8-0.2c0.2,0.1,0.4,0.2,0.6,0.2c0.2,0.1,0.4,0.2,0.6,0.3
					c0.2,0.1,0.2,0.7,0.4,0.8c0.2,0.1,0.6-0.3,0.8-0.2c0.2,0.1,0.4,0.2,0.6,0.3c0.2,0.1,0.3,0.3,0.5,0.4c0.2,0.1,0.3,0.4,0.5,0.5
					c0.2,0.1,0.6-0.3,0.8-0.2c0.2,0.1,0.5-0.1,0.7,0c0.2,0.1,0.4,0.1,0.6,0.2c0.2,0.1,0.2,0.7,0.4,0.8c0.2,0.1,0.6-0.3,0.8-0.2
					c0.2,0.1,0.3,0.3,0.5,0.4c0.2,0.1,0.5,0,0.7,0c0.2,0.1,0.2,0.6,0.4,0.7c0.2,0.1,0.5-0.1,0.7-0.1c0.2,0.1,0.4,0.1,0.6,0.2
					c0.2,0.1,0.3,0.5,0.5,0.5c0.2,0.1,0.5-0.2,0.7-0.1c0.2,0.1,0.4,0.3,0.6,0.3c0.2,0.1,0.4,0.2,0.6,0.3c0.2,0.1,0.5-0.1,0.7-0.1
					c0.2,0.1,0.3,0.6,0.5,0.6c0.2,0.1,0.4,0,0.6,0.1c0.2,0.1,0.4,0.2,0.6,0.3c0.2,0.1,0.4,0.1,0.6,0.2c0.2,0.1,0.4,0.1,0.6,0.2
					c0.2,0.1,0.4,0.1,0.6,0.2c0.2,0.1,0.6-0.6,0.8-0.6c0.2,0.1,0.3,0.5,0.5,0.6c0.2,0.1,0.5-0.1,0.7,0c0.2,0.1,0.5-0.1,0.7,0
					c0.2,0.1,0.3,0.4,0.5,0.4c0.2,0.1,0.3,0.4,0.5,0.5c0.2,0.1,0.4,0,0.6,0.1c0.2,0.1,0.5-0.2,0.7-0.1c0.2,0.1,0.4,0.2,0.6,0.3
					c0.2,0.1,0.4,0.2,0.6,0.2c0.2,0.1,0.3,0.5,0.5,0.5c0.2,0.1,0.5-0.2,0.7-0.2c0.2,0.1,0.5-0.2,0.7-0.1c0.2,0.1,0.3,0.4,0.6,0.4
					c0.2,0.1,0.4,0.4,0.6,0.4c0.2,0,0.5-0.1,0.7-0.1c0.2,0,0.4,0.3,0.6,0.4c0.2,0,0.6-0.5,0.8-0.5c0.2,0,0.3,0.5,0.5,0.5
					c0.2,0,0.5-0.3,0.7-0.3c0.2,0,0.5-0.1,0.7,0C167.5,267.7,167.5,268.3,167.7,268.3"/>
			</defs>
			<use xlink:href="#XMLID_24_"  style="overflow:visible;fill:#096A52;"/>
			<clipPath id="XMLID_8_">
				<use xlink:href="#XMLID_24_"  style="overflow:visible;"/>
			</clipPath>
		</g>
		<g>
			<defs>
				<path id="XMLID_23_" d="M61,308.6c0-0.1,0.3-0.2,0.4-0.5c0.1-0.2-0.4-0.6-0.4-0.8c0.1-0.2,0.3-0.3,0.4-0.5
					c0.1-0.2,0.5-0.2,0.6-0.5c0.1-0.2,0.3-0.3,0.4-0.5c0.1-0.2,0.1-0.4,0.2-0.6c0.1-0.2-0.2-0.5-0.1-0.7c0.1-0.2,0.3-0.4,0.3-0.6
					c0.1-0.2,0.2-0.4,0.3-0.6c0.1-0.2-0.1-0.5,0-0.7c0.1-0.2,0-0.5,0-0.7c0.1-0.2-0.1-0.5,0-0.7c0.1-0.2,0.6-0.2,0.7-0.4
					c0.1-0.2,0.3-0.3,0.4-0.5c0.1-0.2-0.2-0.5-0.1-0.7c0.1-0.2,0.3-0.4,0.3-0.6c0.1-0.2,0.1-0.4,0.1-0.6c0.1-0.2,0.4-0.3,0.4-0.5
					s-0.2-0.5-0.2-0.7c0.1-0.2-0.2-0.5-0.1-0.7c0.1-0.2,0.3-0.4,0.3-0.6c0.1-0.2,0.6-0.3,0.7-0.5c0.1-0.2,0-0.5,0-0.7
					c0.1-0.2,0.2-0.4,0.2-0.6c0.1-0.2,0.4-0.3,0.5-0.5c0.1-0.2-0.5-0.6-0.4-0.8c0.1-0.2,0.1-0.4,0.2-0.6c0.1-0.2,0.7-0.2,0.7-0.4
					c0.1-0.2-0.1-0.5,0-0.7c0.1-0.2,0.2-0.4,0.3-0.6c0.1-0.2,0.3-0.4,0.3-0.6c0.1-0.2-0.1-0.5-0.1-0.7c0.1-0.2-0.1-0.5-0.1-0.7
					c0.1-0.2,0.3-0.4,0.3-0.6c0.1-0.2,0.4-0.3,0.4-0.5c0.1-0.2,0.2-0.4,0.3-0.6c0.1-0.2-0.3-0.5-0.3-0.7c0-0.2,0.5-0.3,0.6-0.5
					c0-0.2,0-0.5,0-0.6c0-0.2-0.1-0.5-0.1-0.6c0-0.2,0.3-0.4,0.3-0.6c0-0.2-0.3-0.6-0.1-0.7c0.1-0.1,0.6,0.3,0.8,0.2
					c0.2-0.1,0.3-0.3,0.5-0.4c0.2,0,0.4-0.1,0.6-0.1c0.2,0,0.4-0.4,0.6-0.4c0.2,0,0.4,0,0.6-0.1c0.2,0,0.4,0.2,0.7,0.2
					c0.2,0,0.4-0.1,0.6-0.1c0.2,0,0.4-0.2,0.6-0.2c0.2,0,0.4,0.6,0.6,0.6c0.2,0,0.4-0.5,0.6-0.5c0.2,0,0.4,0.4,0.6,0.4
					c0.2,0,0.4-0.1,0.6-0.1c0.2,0,0.4,0.1,0.6,0.1c0.2,0,0.4-0.2,0.6-0.2c0.2,0,0.4,0.3,0.6,0.3c0.2,0,0.4-0.3,0.6-0.3
					c0.2,0,0.4-0.3,0.6-0.3c0.2,0,0.4-0.2,0.6-0.1c0.2,0,0.4,0.8,0.6,0.8c0.2,0,0.5-0.6,0.7-0.6c0.2,0,0.4-0.1,0.6-0.1
					c0.2,0,0.4,0.6,0.6,0.6c0.2,0,0.4-0.1,0.6-0.1c0.2,0,0.4-0.2,0.7-0.2c0.2,0,0.4-0.1,0.6-0.1c0.2,0,0.4,0,0.6,0.1
					c0.2,0,0.4,0.7,0.6,0.8c0.2,0,0.5-0.6,0.7-0.6c0.2,0,0.4,0.6,0.6,0.6c0.2,0,0.4,0.2,0.6,0.3c0.2,0,0.5-0.3,0.7-0.3
					c0.2,0,0.4,0.3,0.6,0.4c0.2,0,0.4,0,0.6,0.1c0.2,0,0.5-0.6,0.7-0.6c0.2,0,0.3,0.7,0.6,0.7c0.2,0,0.4-0.1,0.7-0.1
					c0.2,0,0.4,0,0.6,0c0.2,0,0.4,0.4,0.6,0.5c0.2,0,0.5-0.5,0.7-0.5c0.2,0,0.4,0.1,0.6,0.1c0.2,0,0.4-0.1,0.6,0
					c0.2,0,0.3,0.6,0.6,0.6c0.2,0,0.5-0.7,0.7-0.7c0.2,0,0.3,0.6,0.6,0.6c0.2,0,0.5-0.5,0.7-0.4c0.2,0,0.3,0.6,0.5,0.7
					c0.2,0,0.5-0.3,0.7-0.2c0.2,0,0.4-0.1,0.7-0.1c0.2,0,0.4,0.1,0.6,0.1c0.2,0,0.3,0.6,0.5,0.7c0.2,0,0.4,0.1,0.6,0.1
					c0.2,0,0.5-0.6,0.7-0.5c0.2,0,0.4,0.1,0.6,0.1c0.2,0,0.4,0,0.6,0c0.2,0,0.4,0.4,0.6,0.5c0.2,0,0.4,0.1,0.6,0.1
					c0.2,0,0.4-0.1,0.7,0c0.2,0,0.4,0.1,0.6,0.2c0.2,0,0.5-0.1,0.7-0.1c0.2,0,0.3,0.7,0.5,0.8c0.2,0,0.5-0.6,0.8-0.6
					c0.2,0,0.3,0.6,0.5,0.6c0.2,0,0.5-0.3,0.7-0.2c0.2,0,0.4,0.3,0.6,0.3c0.2,0,0.4,0.4,0.6,0.4c0.2,0,0.5-0.5,0.7-0.5
					c0.2,0,0.4,0,0.6,0c0.2,0,0.4,0.1,0.6,0.2c0.2,0,0.3,0.7,0.5,0.7c0.2,0,0.5-0.4,0.7-0.4c0.2,0,0.3,0.5,0.5,0.6
					c0.2,0,0.4,0.2,0.6,0.2c0.2,0,0.4,0.1,0.6,0.1c0.2,0,0.5-0.4,0.7-0.3c0.2,0,0.3,0.6,0.5,0.6c0.2,0,0.4,0,0.6,0.1
					c0.2,0,0.4,0,0.6,0.1c0.2,0.1,0.6-0.5,0.8-0.4c0.2,0.1,0.4,0.2,0.6,0.3c0.2,0.1,0.4,0.1,0.6,0.1c0.2,0.1,0.3,0.6,0.5,0.7
					c0.2,0.1,0.5-0.2,0.7-0.2c0.2-0.1,0.3-0.4,0.5-0.4c0.2-0.1,0.4,0,0.6-0.1c0.2,0,0.4-0.1,0.6-0.1c0.2,0,0.5,0.4,0.7,0.4
					c0.2,0,0.4,0,0.6,0c0.2,0,0.4-0.2,0.6-0.3c0.2,0,0.5,0.1,0.7,0.1c0.2,0,0.4-0.2,0.6-0.3c0.2,0,0.4,0.1,0.7,0
					c0.2,0,0.4-0.1,0.6-0.2c0.2,0,0.4-0.1,0.6-0.2c0.2,0,0.3-0.5,0.5-0.6c0.2,0,0.5,0.5,0.7,0.4c0.2,0,0.4,0,0.6-0.1
					c0.2,0,0.4-0.1,0.6-0.1c0.2,0,0.3-0.5,0.6-0.5s0.5,0.2,0.7,0.2c0.2,0,0.3-0.7,0.5-0.8c0.2,0,0.5,0.4,0.7,0.4
					c0.2,0,0.3-0.6,0.5-0.7c0.2,0,0.5,0.3,0.7,0.2c0.2,0,0.4,0.1,0.7,0.1c0.2,0,0.4-0.1,0.6-0.2c0.2,0,0.4-0.4,0.6-0.5
					c0.2,0,0.4-0.2,0.6-0.3c0.2,0,0.5,0.3,0.7,0.3c0.2,0,0.4-0.2,0.6-0.2c0.2,0,0.5,0.3,0.7,0.3c0.2,0,0.4-0.3,0.6-0.3
					c0.2,0,0.4-0.3,0.6-0.3c0.2,0,0.4-0.3,0.6-0.3c0.2,0,0.5,0.2,0.7,0.2c0.2,0,0.4,0,0.6,0c0.2,0,0.4,0.1,0.7,0.1
					c0.2,0,0.4-0.1,0.6-0.1s0.4-0.1,0.6-0.1c0.2,0,0.4-0.5,0.6-0.5c0.2,0,0.4,0.1,0.7,0c0.2,0,0.4-0.1,0.6-0.1c0.2,0,0.4,0,0.6,0
					c0.2,0,0.5,0.4,0.7,0.4c0.2,0,0.4,0.1,0.7,0.1c0.2,0,0.4-0.1,0.6-0.1c0.2,0,0.4-0.1,0.6-0.2c0.2,0,0.4-0.1,0.6-0.1
					c0.2,0,0.4,0.1,0.6,0c0.2,0,0.4-0.5,0.6-0.6c0.2,0,0.4-0.2,0.6-0.2c0.2,0,0.5,0.6,0.7,0.6c0.2,0,0.4-0.5,0.6-0.5
					c0.2,0,0.4-0.2,0.6-0.2c0.2,0,0.4-0.1,0.6-0.2c0.2,0,0.4,0,0.6,0c0.2,0,0.4,0,0.6,0c0.2,0,0.5,0.4,0.7,0.4
					c0.2,0,0.4-0.1,0.6-0.1c0.2,0,0.4-0.2,0.6-0.2c0.2,0,0.4,0.1,0.6,0c0.2,0,0.4-0.4,0.6-0.5c0.2,0,0.4,0.2,0.7,0.2
					c0.2,0,0.4,0.1,0.6,0.1c0.2,0,0.4,0.2,0.6,0.2c0.2,0,0.4-0.3,0.6-0.3c0.2,0,0.4,0,0.6,0c0.2,0,0.4,0.4,0.6,0.4
					c0.2,0,0.4-0.5,0.6-0.5c0.2,0,0.4-0.1,0.6-0.1c0.2,0,0.4-0.1,0.6-0.1c0.2,0,0.4-0.1,0.6-0.1c0.2,0,0.4,0.3,0.6,0.3
					c0.2,0,0.5-0.3,0.7-0.3c0.2,0,0.4,0.8,0.6,0.8c0.2,0,0.5-0.7,0.7-0.6c0.2,0,0.4,0.2,0.6,0.2c0.2,0,0.4,0.5,0.5,0.5
					c0.2,0.1,0.3,0.3,0.5,0.3c0.2,0.1,0.4,0,0.6,0.1c0.2,0.2,0.1,0.2,0.1,0.4c0,0.2,0.3,0.4,0.3,0.6c0,0.2-0.3,0.5-0.3,0.7
					c0,0.2,0.2,0.4,0.3,0.6c0,0.2,0.7,0.3,0.7,0.5c0,0.2-0.2,0.5-0.2,0.7c0,0.2,0.1,0.4,0.2,0.6c0.1,0.2-0.2,0.5-0.1,0.7
					c0.1,0.2,0.4,0.3,0.4,0.5c0.1,0.2-0.2,0.5-0.1,0.7c0.1,0.2,0.2,0.4,0.2,0.6c0.1,0.2,0.6,0.3,0.6,0.5c0.1,0.2-0.1,0.5-0.1,0.7
					c0.1,0.2,0.3,0.3,0.4,0.5c0.1,0.2-0.1,0.5,0,0.7c0.1,0.2,0.3,0.4,0.3,0.6c0.1,0.2,0.2,0.4,0.3,0.6c0.1,0.2-0.3,0.5-0.2,0.7
					c0.1,0.2,0.2,0.4,0.3,0.6c0.1,0.2,0.3,0.4,0.3,0.6c0.1,0.2,0.1,0.4,0.2,0.6c0.1,0.2,0.2,0.4,0.2,0.6c0.1,0.2,0.6,0.3,0.6,0.5
					c0.1,0.2-0.5,0.6-0.4,0.8c0.1,0.2,0.1,0.4,0.2,0.6c0.1,0.2,0.3,0.3,0.4,0.5c0.1,0.2,0.2,0.4,0.2,0.6c0.1,0.2,0.6,0.3,0.6,0.4
					c0.1,0.2-0.5,0.6-0.5,0.8c0.1,0.2,0.8,0.2,0.9,0.4c0.1,0.2,0,0.4,0.1,0.6c0.1,0.2,0.1,0.4,0.2,0.6c0.1,0.2-0.1,0.5,0,0.7
					c0.1,0.2,0.3,0.4,0.4,0.5c0.1,0.2,0.2,0.4,0.2,0.6c0.1,0.2,0.1,0.4,0.2,0.6c0.1,0.2-0.4,0.6-0.3,0.8c0.1,0.2,0.9,0.1,1,0.3
					c0.1,0.2-0.6,0.7-0.5,0.9c0.1,0.2,0.2,0.4,0.2,0.6c0.1,0.2,0.5,0.3,0.5,0.5c0.1,0.3,0.2,0.5,0.2,0.6c0,0.1-0.2,0.4-0.1,0.7
					c0,0.2,0.6,0.3,0.6,0.5c0.1,0.2,0.3,0.4,0.3,0.6c0.1,0.2-0.3,0.5-0.3,0.7c0.1,0.2-0.2,0.5-0.2,0.7c0.1,0.2,0.7,0.3,0.7,0.5
					c0.1,0.2-0.2,0.5-0.2,0.7c0.1,0.2-0.1,0.5,0,0.7c0.1,0.2,0,0.4,0.1,0.6c0.1,0.2,0.8,0.2,0.9,0.4c0.1,0.2-0.4,0.5-0.3,0.8
					c0.1,0.2,0.2,0.4,0.3,0.6c0.1,0.2-0.1,0.5,0,0.7c0.1,0.2,0,0.4,0.1,0.7c0.1,0.2,0.5,0.3,0.5,0.5c0.1,0.2,0.2,0.4,0.3,0.6
					c0.1,0.2,0,0.5,0,0.7c0.1,0.2,0.5,0.3,0.5,0.5c0.1,0.2-0.5,0.6-0.4,0.8c0.1,0.2,0,0.3,0,0.5c0,0.2,0.1,0.4,0,0.6
					c-0.1,0.2,0,0.6-0.1,0.7c-0.1,0.1-0.4,0.3-0.6,0.4c-0.2,0.1-0.5-0.5-0.7-0.5c-0.2,0-0.4,0.5-0.6,0.5c-0.2,0-0.4,0.2-0.6,0.3
					c-0.2,0-0.4-0.5-0.7-0.5c-0.2,0-0.4,0.2-0.6,0.2c-0.2,0-0.4,0.6-0.6,0.6c-0.2,0-0.4-0.5-0.6-0.5c-0.2,0-0.4,0.4-0.6,0.4
					c-0.2,0-0.4-0.6-0.6-0.6c-0.2,0-0.4,0.7-0.6,0.7c-0.2,0-0.4-0.3-0.6-0.3c-0.2,0-0.4,0.3-0.6,0.2c-0.2,0-0.4-0.4-0.6-0.4
					c-0.2,0-0.4,0.1-0.6,0c-0.2,0-0.4,0-0.6,0c-0.2,0-0.4,0-0.6,0c-0.2,0-0.4-0.6-0.6-0.6c-0.2,0-0.5,0.3-0.7,0.3
					c-0.2,0-0.4-0.3-0.6-0.4c-0.2,0-0.4-0.1-0.6-0.1c-0.2,0-0.5,0.5-0.7,0.5c-0.2,0-0.4,0-0.6-0.1c-0.2,0-0.4-0.1-0.6-0.1
					c-0.2,0-0.4-0.3-0.6-0.4c-0.2,0-0.4-0.3-0.6-0.3c-0.2,0-0.4,0.1-0.7,0.1c-0.2,0-0.5,0.4-0.7,0.4c-0.2,0-0.3-0.5-0.5-0.5
					c-0.2,0-0.5,0.1-0.7,0.1s-0.3-0.6-0.5-0.7c-0.2-0.1-0.6,0.4-0.8,0.4c-0.2-0.1-0.4-0.1-0.6-0.2c-0.2-0.1-0.3-0.4-0.5-0.4
					c-0.2-0.1-0.6,0.4-0.8,0.3c-0.2-0.1-0.3-0.3-0.6-0.4c-0.2-0.1-0.4-0.2-0.6-0.2c-0.2-0.1-0.4-0.3-0.6-0.4
					c-0.2-0.1-0.2-0.6-0.4-0.6c-0.2-0.1-0.5,0.2-0.7,0.1c-0.2-0.1-0.4,0-0.6-0.1c-0.2-0.1-0.5,0-0.7,0c-0.2-0.1-0.4-0.1-0.6-0.2
					c-0.2-0.1-0.3-0.7-0.5-0.7c-0.2-0.1-0.5,0.4-0.7,0.3c-0.2,0-0.4-0.3-0.6-0.3c-0.2,0-0.5,0.3-0.7,0.3c-0.2,0-0.4,0-0.6-0.1
					c-0.2,0-0.4-0.1-0.6-0.2c-0.2,0-0.4-0.4-0.6-0.5c-0.2,0-0.4-0.2-0.6-0.2c-0.2,0-0.4,0-0.6,0c-0.2,0-0.4,0.3-0.6,0.3
					c-0.2,0-0.4,0-0.6,0c-0.2,0-0.4,0-0.6,0c-0.2,0-0.4-0.5-0.6-0.5c-0.2,0-0.4-0.1-0.6-0.1c-0.2,0-0.4,0.8-0.6,0.8
					c-0.2,0-0.4-0.5-0.7-0.5c-0.2,0-0.4,0-0.6,0.1c-0.2,0-0.4,0.5-0.6,0.5c-0.2,0-0.5-0.7-0.7-0.6c-0.2,0-0.4,0.5-0.6,0.5
					c-0.2,0-0.4,0.2-0.6,0.2c-0.2,0-0.5-0.6-0.7-0.6c-0.2,0-0.3,0.8-0.5,0.8c-0.2,0-0.5-0.4-0.7-0.4c-0.2,0-0.4,0.4-0.6,0.4
					c-0.2,0-0.5-0.7-0.7-0.7c-0.2,0-0.4,0.3-0.6,0.3c-0.2,0-0.4,0.3-0.6,0.4c-0.2,0-0.5-0.4-0.7-0.3c-0.2,0-0.4,0.2-0.6,0.2
					c-0.2,0-0.3,0.6-0.6,0.6c-0.2,0-0.5-0.6-0.7-0.5c-0.2,0-0.4,0.3-0.6,0.4c-0.2,0-0.4,0.1-0.6,0.1c-0.2,0-0.5-0.2-0.7-0.2
					c-0.2,0-0.3,0.7-0.5,0.8c-0.2,0-0.5-0.2-0.7-0.2c-0.2,0-0.4,0.3-0.6,0.3c-0.2,0-0.5-0.2-0.7-0.2c-0.2,0-0.4,0.4-0.6,0.4
					c-0.2,0-0.5-0.4-0.7-0.3c-0.2,0-0.5-0.1-0.7-0.1c-0.2,0-0.3,0.8-0.5,0.8c-0.2,0-0.4,0-0.6,0.1c-0.2,0-0.5-0.2-0.7-0.2
					c-0.2,0-0.5-0.3-0.7-0.2c-0.2,0-0.3,0.5-0.6,0.5c-0.2,0-0.5-0.4-0.7-0.4c-0.2,0-0.4,0-0.6,0.1c-0.2,0-0.3,0.9-0.5,0.9
					c-0.2,0-0.5-0.4-0.7-0.4c-0.2,0-0.4,0.3-0.6,0.4c-0.2,0-0.5-0.5-0.7-0.4c-0.2,0-0.4,0.4-0.6,0.4c-0.2,0-0.4,0.3-0.6,0.3
					c-0.2,0-0.4,0.1-0.6,0.1c-0.2,0-0.5-0.7-0.7-0.7c-0.2,0-0.4,0.5-0.6,0.5c-0.2,0-0.4,0.2-0.6,0.2c-0.2,0-0.4-0.7-0.6-0.7
					c-0.2,0-0.4,0.6-0.6,0.6c-0.2,0-0.4-0.6-0.6-0.6c-0.2,0-0.4,0.3-0.6,0.3c-0.2,0-0.4,0.4-0.7,0.4c-0.2,0-0.4-0.6-0.6-0.6
					c-0.2,0-0.5,0.4-0.7,0.4c-0.2,0-0.4-0.2-0.6-0.2c-0.2,0-0.4-0.5-0.6-0.5c-0.2,0-0.4-0.1-0.6-0.1c-0.2,0-0.5,0.7-0.7,0.7
					c-0.2,0-0.3-0.7-0.5-0.7c-0.2,0-0.5,0.5-0.7,0.4c-0.2,0-0.3-0.6-0.5-0.6c-0.2,0-0.5,0.1-0.7,0.1c-0.2,0-0.5,0.4-0.7,0.4
					c-0.2,0-0.4-0.1-0.6-0.1c-0.2,0-0.4-0.2-0.6-0.2c-0.2,0-0.3-0.7-0.5-0.7c-0.2,0-0.5,0.4-0.7,0.3c-0.2,0-0.4-0.2-0.6-0.3
					c-0.2-0.1-0.4-0.3-0.6-0.4c-0.2-0.1-0.3-0.4-0.5-0.4c-0.2-0.1-0.5,0.4-0.7,0.3c-0.2-0.1-0.5,0.1-0.7,0.1
					c-0.2-0.1-0.4-0.1-0.6-0.2c-0.2-0.1-0.2-0.7-0.4-0.8c-0.2-0.1-0.5,0.3-0.7,0.3c-0.2-0.1-0.4-0.3-0.6-0.4c-0.2-0.1-0.4,0.1-0.7,0
					c-0.2-0.1-0.3-0.6-0.5-0.6c-0.2-0.1-0.5,0.2-0.7,0.1c-0.2,0-0.4-0.1-0.6-0.1c-0.2,0-0.3-0.4-0.5-0.5c-0.2,0-0.5,0.3-0.7,0.2
					c-0.2,0-0.4-0.2-0.6-0.3c-0.2,0-0.4-0.1-0.6-0.2c-0.2,0-0.5,0.2-0.7,0.2c-0.2,0-0.4-0.5-0.6-0.5c-0.2,0-0.4,0-0.6,0
					c-0.2,0-0.4-0.1-0.6-0.2c-0.2,0-0.4,0-0.6,0c-0.2,0-0.4,0-0.6,0c-0.2,0-0.4,0-0.6,0c-0.2,0-0.4,0.8-0.6,0.8
					c-0.2,0-0.5-0.4-0.7-0.3c-0.2,0-0.4,0.2-0.6,0.3c-0.2,0-0.4,0.2-0.6,0.3c-0.2,0-0.5-0.2-0.7-0.1c-0.2,0.1-0.5-0.2-0.7-0.1
					c-0.2,0.1-0.4,0.2-0.6,0.3c-0.2,0.1-0.3,0.4-0.5,0.5c-0.2,0.1-0.4,0.1-0.6,0.2c-0.2,0.1-0.4,0.1-0.6,0.2
					c-0.2,0.1-0.6-0.2-0.7-0.1c-0.2,0.1-0.2,0.5-0.4,0.6c-0.2,0.1-0.3,0.4-0.5,0.5c-0.2,0.1-0.5-0.1-0.7,0c-0.2,0.1-0.5-0.1-0.7,0
					c-0.2,0.1-0.3,0.3-0.5,0.4c-0.2,0.1-0.5-0.1-0.7,0c-0.2,0.1-0.2,0.7-0.4,0.8c-0.2,0.1-0.5-0.2-0.7-0.2c-0.2,0.1-0.3,0.5-0.5,0.6
					c-0.2,0.1-0.4,0.3-0.6,0.3c-0.2,0.1-0.5-0.4-0.7-0.3c-0.2,0-0.5-0.1-0.7-0.1c-0.2,0-0.4,0.1-0.6,0.2c-0.2,0-0.3,0.7-0.5,0.7
					c-0.2,0-0.5-0.6-0.7-0.6c-0.2,0-0.3,0.8-0.5,0.8c-0.2,0-0.5-0.6-0.7-0.5c-0.2,0-0.4-0.1-0.7-0.1c-0.2,0-0.4,0.3-0.6,0.3
					c-0.2,0-0.4,0.7-0.6,0.7c-0.2,0-0.4-0.3-0.7-0.2c-0.2,0-0.4,0-0.6,0c-0.2,0-0.4-0.2-0.6-0.2c-0.2,0-0.4-0.1-0.6-0.1
					c-0.2,0-0.4,0.5-0.6,0.5c-0.2,0-0.4-0.6-0.6-0.6c-0.2,0-0.4,0.3-0.6,0.3c-0.2,0-0.4-0.5-0.6-0.5c-0.2,0-0.4,0.1-0.6,0.1
					c-0.2,0-0.4,0.2-0.6,0.2c-0.2,0-0.4-0.1-0.6-0.1c-0.2,0-0.4-0.2-0.6-0.2c-0.2,0-0.4-0.1-0.6-0.1c-0.2,0-0.4,0.1-0.6,0.1
					c-0.2,0-0.5,0.1-0.7,0c-0.2-0.1-0.2-0.4-0.4-0.6c-0.1-0.2-0.5-0.3-0.5-0.5c-0.1-0.2,0.2-0.5,0.2-0.7c0-0.2,0-0.4,0-0.7
					c0-0.2-0.4-0.5-0.4-0.7c0-0.2,0.4-0.4,0.4-0.6c0-0.2,0.3-0.4,0.3-0.6c0-0.2-0.2-0.5-0.2-0.7c0-0.2-0.1-0.4-0.1-0.7
					c0-0.2,0.5-0.4,0.5-0.6c0-0.2-0.2-0.5-0.2-0.7c0-0.2-0.2-0.5-0.2-0.7c0-0.2,0.7-0.3,0.8-0.6c0-0.2-0.3-0.5-0.3-0.7
					c0-0.2,0.4-0.4,0.4-0.6c0-0.2,0.1-0.4,0.1-0.6c0-0.2-0.4-0.5-0.4-0.7c0-0.2-0.1-0.5,0-0.7c0-0.2,0.4-0.4,0.4-0.6
					c0-0.2,0.1-0.4,0.2-0.6c0-0.2,0-0.5,0-0.6C60.9,308.9,60.9,308.7,61,308.6"/>
			</defs>
			<use xlink:href="#XMLID_23_"  style="overflow:visible;fill:#096A52;"/>
			<clipPath id="XMLID_9_">
				<use xlink:href="#XMLID_23_"  style="overflow:visible;"/>
			</clipPath>
		</g>
		<g>
			<path class="st3" d="M68.2,282.3c0,0,45.9,6.8,102.3-0.9l0.2,3.1c0,0-46.8,9.5-103,1.2C67.6,283.4,68.2,282.3,68.2,282.3"/>
		</g>
		<path class="st4" d="M96.4,226.5c7.1,7.9,33.4,34.4,71.2,40.4c0.1,0.9,0.3,3,0.4,3.9c-46.2-6-77-43.4-77-43.4L96.4,226.5z"/>
		<g>
			<defs>
				<path id="SVGID_1_" d="M80.2,282.2c0.2,0,0.4,0.8,0.6,0.8c0.1,0,0.2-0.1,0.3-0.3c0.1-0.1,0.2-0.3,0.3-0.3c0.1,0,0.2,0,0.3,0
					c0.1,0,0.2,0,0.3,0c0.2,0,0.4,0.6,0.6,0.6c0.1,0,0.2,0,0.3,0c0.1,0,0.2,0,0.3,0c0.1,0,0.2-0.1,0.3-0.1c0.1-0.1,0.2-0.1,0.3-0.1
					c0.1,0,0.2,0,0.3,0c0.1,0,0.2-0.1,0.3,0c0.2,0,0.4,0,0.6,0.1c0.2,0,0.4,0.7,0.6,0.8c0.1,0,0.2-0.2,0.3-0.3
					c0.1-0.2,0.2-0.3,0.4-0.3c0.2,0,0.4,0.6,0.6,0.6c0.2,0,0.4,0.2,0.6,0.3c0.1,0,0.2-0.1,0.3-0.1c0.1-0.1,0.2-0.1,0.3-0.1
					c0.2,0,0.4,0.3,0.6,0.4c0.2,0,0.4,0,0.6,0.1c0.1,0,0.2-0.1,0.4-0.3c0.1-0.2,0.2-0.3,0.4-0.3c0.2,0,0.3,0.7,0.6,0.7
					c0.1,0,0.2,0,0.3-0.1c0.1,0,0.2-0.1,0.3-0.1c0.1,0,0.2,0,0.3,0c0.1,0,0.2,0,0.3,0c0.2,0,0.4,0.4,0.6,0.5c0.1,0,0.2-0.1,0.3-0.2
					c0.1-0.1,0.2-0.2,0.4-0.2c0.2,0,0.4,0.1,0.6,0.1c0.1,0,0.2,0,0.3,0c0.1,0,0.2,0,0.3,0c0.2,0,0.3,0.6,0.6,0.6
					c0.1,0,0.2-0.2,0.4-0.3c0.1-0.2,0.3-0.4,0.4-0.3c0.2,0,0.3,0.6,0.6,0.6c0.1,0,0.2-0.1,0.4-0.2c0.1-0.1,0.2-0.2,0.4-0.2
					c0.2,0,0.3,0.6,0.5,0.7c0.1,0,0.2-0.1,0.3-0.1c0.1-0.1,0.2-0.1,0.3-0.1c0.1,0,0.2,0,0.3,0c0.1,0,0.2-0.1,0.3,0
					c0.2,0,0.4,0.1,0.6,0.1c0.2,0,0.3,0.6,0.5,0.7c0.2,0,0.4,0.1,0.6,0.1c0.1,0,0.2-0.1,0.4-0.3c0.1-0.1,0.3-0.3,0.4-0.3
					c0.2,0,0.4,0.1,0.6,0.1c0.2,0,0.4,0,0.6,0c0.2,0,0.4,0.4,0.6,0.5c0.2,0,0.4,0.1,0.6,0.1c0.1,0,0.2,0,0.3,0c0.1,0,0.2,0,0.3,0
					c0.2,0,0.4,0.1,0.6,0.2c0.1,0,0.2,0,0.3,0c0.1,0,0.2-0.1,0.3,0c0.2,0,0.3,0.7,0.5,0.8c0.1,0,0.2-0.1,0.4-0.3
					c0.1-0.2,0.3-0.3,0.4-0.3c0.2,0,0.3,0.6,0.5,0.6c0.1,0,0.2,0,0.3-0.1c0.1-0.1,0.2-0.1,0.3-0.1c0.2,0,0.4,0.3,0.6,0.3
					c0.2,0,0.4,0.4,0.6,0.4c0.1,0,0.2-0.1,0.4-0.2c0.1-0.1,0.3-0.2,0.4-0.2c0.2,0,0.4,0,0.6,0c0.2,0,0.4,0.1,0.6,0.2
					c0.2,0,0.3,0.7,0.5,0.7c0.1,0,0.2-0.1,0.4-0.2c0.1-0.1,0.3-0.2,0.4-0.2c0.2,0,0.3,0.5,0.5,0.6c0.2,0,0.4,0.2,0.6,0.2
					c0.2,0,0.4,0.1,0.6,0.1c0.1,0,0.2-0.1,0.4-0.2c0.1-0.1,0.3-0.2,0.4-0.2c0.2,0,0.3,0.6,0.5,0.6c0.2,0,0.4,0,0.6,0.1
					c0.2,0.1,0.4,0,0.6,0.1c0.1,0,0.2-0.1,0.4-0.2c0.1-0.1,0.3-0.2,0.4-0.2c0.2,0.1,0.4,0.2,0.6,0.3c0.2,0.1,0.4,0.1,0.6,0.1
					c0.2,0.1,0.3,0.6,0.5,0.7c0.1,0,0.2,0,0.3-0.1c0.1-0.1,0.2-0.1,0.3-0.1c0.2-0.1,0.3-0.4,0.5-0.4c0.2-0.1,0.4,0,0.6-0.1
					c0.2,0,0.4-0.1,0.6-0.1c0.1,0,0.2,0.1,0.4,0.2c0.1,0.1,0.3,0.2,0.4,0.2c0.1,0,0.2,0,0.3,0c0.1,0,0.2,0,0.3,0
					c0.2,0,0.4-0.2,0.6-0.3c0.1,0,0.2,0,0.3,0.1c0.1,0,0.2,0.1,0.3,0.1c0.2,0,0.4-0.2,0.6-0.3c0.1,0,0.2,0,0.3,0c0.1,0,0.2,0,0.3,0
					c0.2,0,0.4-0.1,0.6-0.2c0.2,0,0.4-0.1,0.6-0.2c0.2,0,0.3-0.5,0.5-0.6c0.1,0,0.2,0.1,0.4,0.2c0.1,0.1,0.3,0.2,0.4,0.2
					c0.2,0,0.4,0,0.6-0.1c0.2,0,0.4-0.1,0.6-0.1c0.2,0,0.3-0.5,0.6-0.5c0.1,0,0.2,0,0.3,0.1c0.1,0.1,0.2,0.1,0.3,0.1
					c0.2,0,0.3-0.7,0.5-0.8c0.1,0,0.2,0.1,0.4,0.2c0.1,0.1,0.3,0.2,0.4,0.2c0.2,0,0.3-0.6,0.5-0.7c0.1,0,0.2,0.1,0.3,0.1
					c0.1,0.1,0.2,0.1,0.3,0.1c0.1,0,0.2,0,0.3,0c0.1,0,0.2,0.1,0.3,0c0.2,0,0.4-0.1,0.6-0.2c0.2,0,0.4-0.4,0.6-0.5
					c0.2,0,0.4-0.2,0.6-0.3c0.1,0,0.2,0.1,0.3,0.1c0.1,0.1,0.2,0.2,0.3,0.1c0.2,0,0.4-0.2,0.6-0.2c0.1,0,0.2,0.1,0.3,0.1
					c0.1,0.1,0.2,0.2,0.3,0.1c0.2,0,0.4-0.3,0.6-0.3c0.2,0,0.4-0.3,0.6-0.3c0.2,0,0.4-0.3,0.6-0.3c0.1,0,0.2,0,0.3,0.1
					c0.1,0.1,0.2,0.1,0.3,0.1c0.2,0,0.4,0,0.6,0c0.1,0,0.2,0,0.3,0c0.1,0,0.2,0,0.3,0c0.2,0,0.4-0.1,0.6-0.1c0.2,0,0.4-0.1,0.6-0.1
					c0.2,0,0.4-0.5,0.6-0.5c0.1,0,0.2,0,0.3,0c0.1,0,0.2,0,0.3,0c0.2,0,0.4-0.1,0.6-0.1c0.2,0,0.4,0,0.6-0.1c0.1,0,0.2,0.1,0.3,0.2
					c0.1,0.1,0.2,0.2,0.3,0.2c0.1,0,0.2,0,0.3,0.1c0.1,0,0.2,0.1,0.3,0.1c0.2,0,0.4-0.1,0.6-0.1c0.2,0,0.4-0.1,0.6-0.2
					c0.2,0,0.4-0.1,0.6-0.1c0.1,0,0.2,0,0.3,0c0.1,0,0.2,0,0.3,0c0.2,0,0.4-0.5,0.6-0.6c0.2,0,0.4-0.2,0.6-0.2
					c0.1,0,0.2,0.1,0.4,0.3c0.1,0.2,0.2,0.3,0.3,0.3c0.2,0,0.4-0.5,0.6-0.5c0.2,0,0.4-0.2,0.6-0.2c0.2,0,0.4-0.1,0.6-0.2
					c0.1,0,0.2,0,0.3,0c0.1,0,0.2,0,0.3,0c0.1,0,0.2,0,0.3,0c0.1,0,0.2,0,0.3,0c0.1,0,0.2,0.1,0.3,0.2c0.1,0.1,0.2,0.2,0.3,0.2
					c0.2,0,0.4-0.1,0.6-0.1c0.2,0,0.4-0.2,0.6-0.2c0.1,0,0.2,0,0.3,0c0.1,0,0.2,0,0.3,0c0.2,0,0.4-0.4,0.6-0.5c0.1,0,0.2,0,0.3,0.1
					c0.1,0,0.2,0.1,0.3,0.1c0.1,0,0.2,0,0.3,0c0.1,0,0.2,0,0.3,0c0.1,0,0.2,0.1,0.3,0.1c0.1,0.1,0.2,0.1,0.3,0.1
					c0.2,0,0.4-0.3,0.6-0.3c0.2,0,0.4,0,0.6,0c0.1,0,0.2,0.1,0.3,0.2c0.1,0.1,0.2,0.2,0.3,0.2c0.2,0,0.4-0.5,0.6-0.5
					c0.2,0,0.4-0.1,0.6-0.1c0.2,0,0.4-0.1,0.6-0.1c0.1,0,0.2,0,0.3,0c0.1,0,0.2,0,0.3,0c0.2,0,0.4,0.3,0.6,0.3
					c0.1,0,0.2-0.1,0.3-0.2c0.1-0.1,0.2-0.2,0.3-0.2c0.2,0,0.4,0.8,0.6,0.8c0.1,0,0.2-0.2,0.4-0.3c0.1-0.2,0.2-0.3,0.3-0.3
					c0.2,0,0.4,0.2,0.6,0.2c0.2,0,0.4,0.5,0.5,0.5c0.2,0.1,0.3,0.3,0.5,0.3c0.1,0,0.2,0,0.3,0c0.1,0,0.2,0,0.3,0
					c0.2,0.2,0.1,0.2,0.1,0.4c0,0.2,0.3,0.4,0.3,0.6c0,0.2-0.3,0.5-0.3,0.7c0,0.2,0.2,0.4,0.3,0.6c0,0.2,0.7,0.3,0.7,0.5
					c0,0.2-0.2,0.5-0.2,0.7c0,0.2,0.1,0.4,0.2,0.6c0.1,0.2-0.2,0.5-0.1,0.7c0.1,0.2,0.4,0.3,0.4,0.5c0.1,0.2-0.2,0.5-0.1,0.7
					c0.1,0.2,0.2,0.4,0.2,0.6c0.1,0.2,0.6,0.3,0.6,0.5c0.1,0.2-0.1,0.5-0.1,0.7c0.1,0.2,0.3,0.3,0.4,0.5c0.1,0.2-0.1,0.5,0,0.7
					c0.1,0.2,0.3,0.4,0.3,0.6c0.1,0.2,0.2,0.4,0.3,0.6c0.1,0.2-0.3,0.5-0.2,0.7c0.1,0.2,0.2,0.4,0.3,0.6c0.1,0.2,0.3,0.4,0.3,0.6
					c0.1,0.2,0.1,0.4,0.2,0.6c0.1,0.2,0.2,0.4,0.2,0.6c0.1,0.2,0.6,0.3,0.6,0.5c0.1,0.2-0.5,0.6-0.4,0.8c0.1,0.2,0.1,0.4,0.2,0.6
					c0.1,0.2,0.3,0.3,0.4,0.5c0.1,0.2,0.2,0.4,0.2,0.6c0.1,0.2,0.6,0.3,0.6,0.4c0.1,0.2-0.5,0.6-0.5,0.8c0.1,0.2,0.8,0.2,0.9,0.4
					c0.1,0.2,0,0.4,0.1,0.6c0.1,0.2,0.1,0.4,0.2,0.6c0.1,0.2-0.1,0.5,0,0.7c0.1,0.2,0.3,0.4,0.4,0.5c0.1,0.2,0.2,0.4,0.2,0.6
					c0.1,0.2,0.1,0.4,0.2,0.6c0.1,0.2-0.4,0.6-0.3,0.8c0.1,0.2,0.9,0.1,1,0.3c0.1,0.2-0.6,0.7-0.5,0.9c0.1,0.2,0.2,0.4,0.2,0.6
					c0.1,0.2,0.5,0.3,0.5,0.5c0.1,0.3,0.2,0.5,0.3,0.6c0,0.1-0.2,0.4-0.1,0.7c0,0.2,0.6,0.3,0.6,0.5c0.1,0.2,0.3,0.4,0.3,0.6
					c0.1,0.2-0.3,0.5-0.3,0.7c0.1,0.2-0.2,0.5-0.2,0.7c0.1,0.2,0.7,0.3,0.7,0.5c0.1,0.2-0.2,0.5-0.2,0.7c0.1,0.2-0.1,0.5,0,0.7
					c0.1,0.2,0,0.4,0.1,0.6c0.1,0.2,0.8,0.2,0.9,0.4c0.1,0.2-0.4,0.5-0.3,0.8c0.1,0.2,0.2,0.4,0.3,0.6c0.1,0.2-0.1,0.5,0,0.7
					c0.1,0.2,0,0.4,0.1,0.7c0.1,0.2,0.5,0.3,0.5,0.5c0.1,0.2,0.2,0.4,0.3,0.6c0.1,0.2,0,0.5,0,0.7c0.1,0.2,0.5,0.3,0.5,0.5
					c0.1,0.2-0.5,0.6-0.4,0.8c0.1,0.2,0,0.3,0,0.5c0,0.2,0.1,0.4,0,0.6c-0.1,0.2,0,0.6-0.1,0.7c-0.1,0.1-0.4,0.3-0.6,0.4
					c-0.1,0-0.2-0.1-0.4-0.3c-0.1-0.1-0.3-0.3-0.4-0.3c-0.2,0-0.4,0.5-0.6,0.5c-0.2,0-0.4,0.2-0.6,0.3c-0.1,0-0.2-0.1-0.3-0.3
					c-0.1-0.1-0.2-0.3-0.3-0.3c-0.2,0-0.4,0.2-0.6,0.2c-0.2,0-0.4,0.6-0.6,0.6c-0.1,0-0.2-0.1-0.3-0.3c-0.1-0.1-0.2-0.3-0.3-0.3
					c-0.2,0-0.4,0.4-0.6,0.4c-0.2,0-0.4-0.6-0.6-0.6c-0.1,0-0.2,0.2-0.3,0.4c-0.1,0.2-0.2,0.4-0.3,0.4c-0.2,0-0.4-0.3-0.6-0.3
					c-0.1,0-0.2,0.1-0.3,0.1c-0.1,0.1-0.2,0.1-0.3,0.1c-0.2,0-0.4-0.4-0.6-0.4c-0.1,0-0.2,0-0.3,0c-0.1,0-0.2,0-0.3,0
					c-0.2,0-0.4,0-0.6,0c-0.1,0-0.2,0-0.3,0c-0.1,0-0.2,0-0.3,0c-0.2,0-0.4-0.6-0.6-0.6c-0.1,0-0.2,0.1-0.3,0.1
					c-0.1,0.1-0.2,0.1-0.3,0.1c-0.2,0-0.4-0.3-0.6-0.4c-0.2,0-0.4-0.1-0.6-0.1c-0.1,0-0.2,0.1-0.3,0.2c-0.1,0.1-0.2,0.3-0.4,0.2
					c-0.2,0-0.4,0-0.6-0.1c-0.2,0-0.4-0.1-0.6-0.1c-0.2,0-0.4-0.3-0.6-0.4c-0.2,0-0.4-0.3-0.6-0.3c-0.1,0-0.2,0-0.3,0
					c-0.1,0-0.2,0-0.3,0c-0.1,0-0.2,0.1-0.4,0.2c-0.1,0.1-0.3,0.2-0.4,0.2c-0.2,0-0.3-0.5-0.5-0.5c-0.1,0-0.2,0-0.3,0
					c-0.1,0-0.2,0.1-0.3,0c-0.2,0-0.3-0.6-0.5-0.7c-0.1,0-0.2,0.1-0.4,0.2c-0.1,0.1-0.3,0.2-0.4,0.2c-0.2-0.1-0.4-0.1-0.6-0.2
					c-0.2-0.1-0.3-0.4-0.5-0.4c-0.1,0-0.2,0.1-0.4,0.1c-0.1,0.1-0.3,0.2-0.4,0.1c-0.2-0.1-0.3-0.3-0.6-0.4c-0.2-0.1-0.4-0.2-0.6-0.2
					c-0.2-0.1-0.4-0.3-0.5-0.4c-0.2-0.1-0.2-0.6-0.4-0.6c-0.1,0-0.2,0-0.4,0c-0.1,0-0.3,0.1-0.4,0c-0.1,0-0.2,0-0.3,0
					c-0.1,0-0.2,0-0.3,0c-0.1,0-0.2,0-0.3,0c-0.1,0-0.2,0-0.3,0c-0.2-0.1-0.4-0.1-0.6-0.2c-0.2-0.1-0.3-0.7-0.5-0.7
					c-0.1,0-0.2,0.1-0.4,0.2c-0.1,0.1-0.3,0.2-0.4,0.2c-0.2,0-0.4-0.3-0.6-0.3c-0.1,0-0.2,0.1-0.3,0.2c-0.1,0.1-0.2,0.2-0.3,0.2
					c-0.2,0-0.4,0-0.6-0.1c-0.2,0-0.4-0.1-0.6-0.2c-0.2,0-0.4-0.4-0.6-0.5c-0.2,0-0.4-0.2-0.6-0.2c-0.1,0-0.2,0-0.3,0
					c-0.1,0-0.2,0-0.3,0c-0.1,0-0.2,0.1-0.3,0.1c-0.1,0.1-0.2,0.1-0.3,0.1c-0.1,0-0.2,0-0.3,0c-0.1,0-0.2,0-0.3,0
					c-0.2,0-0.4,0-0.6,0c-0.2,0-0.4-0.5-0.6-0.5c-0.1,0-0.2,0-0.3-0.1c-0.1,0-0.2-0.1-0.3-0.1c-0.2,0-0.4,0.8-0.6,0.8
					c-0.1,0-0.2-0.1-0.3-0.2c-0.1-0.1-0.2-0.2-0.3-0.2c-0.2,0-0.4,0-0.6,0.1c-0.2,0-0.4,0.5-0.6,0.5c-0.1,0-0.2-0.2-0.3-0.3
					c-0.1-0.2-0.2-0.3-0.3-0.3c-0.2,0-0.4,0.5-0.6,0.5c-0.2,0-0.4,0.2-0.6,0.2c-0.1,0-0.2-0.1-0.3-0.3c-0.1-0.1-0.2-0.3-0.3-0.3
					c-0.2,0-0.3,0.8-0.5,0.8c-0.1,0-0.2-0.1-0.3-0.2c-0.1-0.1-0.2-0.2-0.3-0.2c-0.2,0-0.4,0.4-0.6,0.4c-0.1,0-0.2-0.2-0.4-0.3
					c-0.1-0.2-0.3-0.3-0.4-0.3c-0.2,0-0.4,0.3-0.6,0.3c-0.2,0-0.4,0.3-0.6,0.4c-0.1,0-0.2-0.1-0.3-0.2c-0.1-0.1-0.2-0.2-0.3-0.2
					c-0.2,0-0.4,0.2-0.6,0.2c-0.2,0-0.3,0.6-0.6,0.6c-0.1,0-0.2-0.1-0.4-0.3c-0.1-0.1-0.3-0.3-0.4-0.3c-0.2,0-0.4,0.3-0.6,0.4
					c-0.2,0-0.4,0.1-0.6,0.1c-0.1,0-0.2,0-0.3-0.1c-0.1-0.1-0.2-0.1-0.3-0.1c-0.2,0-0.3,0.7-0.5,0.8c-0.1,0-0.2,0-0.3-0.1
					c-0.1-0.1-0.2-0.1-0.3-0.1c-0.2,0-0.4,0.3-0.6,0.3c-0.1,0-0.2,0-0.3-0.1c-0.1-0.1-0.2-0.1-0.3-0.1c-0.2,0-0.4,0.4-0.6,0.4
					c-0.1,0-0.2-0.1-0.4-0.2c-0.1-0.1-0.3-0.2-0.4-0.2c-0.1,0-0.2,0-0.3,0c-0.1,0-0.2,0-0.3,0c-0.2,0-0.3,0.8-0.5,0.8
					c-0.2,0-0.4,0-0.6,0.1c-0.1,0-0.2,0-0.3-0.1c-0.1,0-0.2-0.1-0.3-0.1c-0.1,0-0.2-0.1-0.3-0.1c-0.1-0.1-0.2-0.1-0.3-0.1
					c-0.2,0-0.3,0.5-0.6,0.5c-0.1,0-0.2-0.1-0.4-0.2c-0.1-0.1-0.2-0.2-0.4-0.2c-0.2,0-0.4,0-0.6,0.1c-0.2,0-0.3,0.9-0.5,0.9
					c-0.1,0-0.2-0.1-0.4-0.2c-0.1-0.1-0.2-0.2-0.3-0.2c-0.2,0-0.4,0.3-0.6,0.4c-0.1,0-0.2-0.1-0.3-0.2c-0.1-0.1-0.2-0.2-0.3-0.2
					c-0.2,0-0.4,0.4-0.6,0.4c-0.2,0-0.4,0.3-0.6,0.3c-0.2,0-0.4,0.1-0.6,0.1c-0.1,0-0.2-0.2-0.3-0.3c-0.1-0.2-0.2-0.3-0.3-0.3
					c-0.2,0-0.4,0.5-0.6,0.5c-0.2,0-0.4,0.2-0.6,0.2c-0.2,0-0.4-0.7-0.6-0.7c-0.1,0-0.2,0.1-0.3,0.3c-0.1,0.1-0.2,0.3-0.3,0.3
					c-0.2,0-0.4-0.6-0.6-0.6c-0.1,0-0.2,0.1-0.3,0.2c-0.1,0.1-0.2,0.2-0.3,0.2c-0.1,0-0.2,0.1-0.3,0.2c-0.1,0.1-0.2,0.2-0.3,0.2
					c-0.2,0-0.4-0.6-0.6-0.6c-0.1,0-0.2,0.1-0.3,0.2c-0.1,0.1-0.2,0.2-0.3,0.2c-0.2,0-0.4-0.2-0.6-0.2c-0.2,0-0.4-0.5-0.6-0.5
					c-0.2,0-0.4-0.1-0.6-0.1c-0.1,0-0.2,0.2-0.4,0.3c-0.1,0.2-0.3,0.3-0.4,0.3c-0.2,0-0.3-0.7-0.5-0.7c-0.1,0-0.2,0.1-0.4,0.2
					c-0.1,0.1-0.3,0.2-0.4,0.2c-0.2,0-0.3-0.6-0.5-0.6c-0.1,0-0.2,0-0.3,0c-0.1,0-0.2,0.1-0.3,0c-0.1,0-0.2,0.1-0.4,0.2
					c-0.1,0.1-0.3,0.2-0.4,0.2c-0.2,0-0.4-0.1-0.6-0.1c-0.2,0-0.4-0.2-0.6-0.2c-0.2,0-0.3-0.7-0.5-0.7c-0.1,0-0.2,0.1-0.4,0.2
					c-0.1,0.1-0.3,0.2-0.4,0.2c-0.2,0-0.4-0.2-0.6-0.3c-0.2-0.1-0.4-0.3-0.6-0.4c-0.2-0.1-0.3-0.4-0.5-0.4c-0.1,0-0.2,0.1-0.4,0.2
					c-0.1,0.1-0.3,0.2-0.4,0.2c-0.1,0-0.2,0-0.3,0c-0.1,0-0.2,0.1-0.3,0c-0.2-0.1-0.4-0.1-0.6-0.2c-0.2-0.1-0.2-0.7-0.4-0.8
					c-0.1,0-0.2,0.1-0.4,0.1c-0.1,0.1-0.3,0.2-0.4,0.1c-0.2-0.1-0.4-0.3-0.6-0.4c-0.1,0-0.2,0-0.3,0c-0.1,0-0.2,0-0.3,0
					c-0.2-0.1-0.3-0.6-0.5-0.6c-0.1,0-0.2,0-0.3,0.1c-0.1,0-0.2,0.1-0.3,0.1c-0.2,0-0.4-0.1-0.6-0.1c-0.2,0-0.3-0.4-0.5-0.5
					c-0.1,0-0.2,0-0.3,0.1c-0.1,0.1-0.2,0.1-0.3,0.1c-0.2,0-0.4-0.2-0.6-0.3c-0.2,0-0.4-0.1-0.6-0.2c-0.1,0-0.2,0-0.3,0.1
					c-0.1,0-0.2,0.1-0.3,0.1c-0.2,0-0.4-0.5-0.6-0.5c-0.1,0-0.2,0-0.3,0c-0.1,0-0.2,0-0.3,0c-0.2,0-0.4-0.1-0.6-0.2
					c-0.1,0-0.2,0-0.4,0c-0.1,0-0.2,0-0.3,0c-0.2,0-0.4,0-0.6,0c-0.2,0-0.4,0-0.6,0c-0.2,0-0.4,0.8-0.6,0.8c-0.1,0-0.2-0.1-0.3-0.2
					c-0.1-0.1-0.2-0.2-0.3-0.2c-0.2,0-0.4,0.2-0.6,0.3c-0.2,0-0.4,0.2-0.6,0.3c-0.1,0-0.2,0-0.3-0.1c-0.1,0-0.2-0.1-0.3,0
					c-0.1,0-0.2,0-0.3-0.1c-0.1,0-0.3-0.1-0.4-0.1c-0.2,0.1-0.4,0.2-0.6,0.3c-0.2,0.1-0.3,0.4-0.5,0.5c-0.2,0.1-0.4,0.1-0.6,0.2
					c-0.2,0.1-0.4,0.1-0.6,0.2c-0.1,0-0.2,0-0.4,0c-0.1,0-0.3-0.1-0.4,0c-0.2,0.1-0.2,0.5-0.4,0.6c-0.2,0.1-0.3,0.4-0.5,0.5
					c-0.1,0-0.2,0-0.4,0c-0.1,0-0.2-0.1-0.3,0c-0.1,0-0.2,0-0.4,0c-0.1,0-0.2-0.1-0.3,0c-0.2,0.1-0.3,0.3-0.5,0.4
					c-0.1,0-0.2,0-0.3,0c-0.1,0-0.2,0-0.3,0c-0.2,0.1-0.2,0.7-0.4,0.8c-0.1,0-0.2,0-0.4-0.1c-0.1-0.1-0.3-0.1-0.4-0.1
					c-0.2,0.1-0.3,0.5-0.5,0.6c-0.2,0.1-0.4,0.3-0.6,0.3c-0.1,0-0.2-0.1-0.4-0.2c-0.1-0.1-0.3-0.2-0.4-0.2c-0.1,0-0.2,0-0.3-0.1
					c-0.1,0-0.2-0.1-0.3-0.1c-0.2,0-0.4,0.1-0.6,0.2c-0.2,0-0.3,0.7-0.5,0.7c-0.1,0-0.2-0.1-0.4-0.3c-0.1-0.1-0.3-0.3-0.4-0.3
					c-0.2,0-0.3,0.8-0.5,0.8c-0.1,0-0.2-0.1-0.4-0.3c-0.1-0.1-0.3-0.3-0.4-0.3c-0.1,0-0.2,0-0.3-0.1c-0.1,0-0.2-0.1-0.3-0.1
					c-0.2,0-0.4,0.3-0.6,0.3c-0.2,0-0.4,0.7-0.6,0.7c-0.1,0-0.2-0.1-0.3-0.1c-0.1-0.1-0.2-0.1-0.3-0.1c-0.2,0-0.4,0-0.6,0
					c-0.1,0-0.2,0-0.3-0.1c-0.1-0.1-0.2-0.1-0.3-0.1c-0.1,0-0.2,0-0.3,0c-0.1,0-0.2,0-0.3,0c-0.2,0-0.4,0.5-0.6,0.5
					c-0.2,0-0.4-0.6-0.6-0.6c-0.1,0-0.2,0.1-0.3,0.2c-0.1,0.1-0.2,0.2-0.3,0.2c-0.2,0-0.4-0.5-0.6-0.5c-0.1,0-0.2,0-0.3,0
					c-0.1,0-0.2,0.1-0.3,0c-0.1,0-0.2,0-0.3,0.1c-0.1,0.1-0.2,0.1-0.3,0.1c-0.2,0-0.4-0.1-0.6-0.1c-0.2,0-0.4-0.2-0.6-0.2
					c-0.2,0-0.4-0.1-0.6-0.1c-0.1,0-0.2,0-0.3,0c-0.1,0-0.2,0-0.3,0c-0.1,0-0.2,0-0.3,0c-0.1,0-0.3,0-0.4,0
					c-0.2-0.1-0.2-0.4-0.4-0.6c-0.1-0.2-0.5-0.3-0.5-0.5c-0.1-0.2,0.2-0.5,0.2-0.7c0-0.2,0-0.4,0-0.7c0-0.2-0.4-0.5-0.4-0.7
					c0-0.2,0.4-0.4,0.4-0.6c0-0.2,0.3-0.4,0.3-0.6c0-0.2-0.2-0.5-0.2-0.7c0-0.2-0.1-0.4-0.1-0.7c0-0.2,0.5-0.4,0.5-0.6
					c0-0.2-0.2-0.5-0.2-0.7c0-0.2-0.2-0.5-0.2-0.7c0-0.2,0.7-0.3,0.8-0.6c0-0.2-0.3-0.5-0.3-0.7c0-0.2,0.4-0.4,0.4-0.6
					c0-0.2,0.1-0.4,0.1-0.6c0-0.2-0.4-0.5-0.4-0.7c0-0.2-0.1-0.5,0-0.7c0-0.2,0.4-0.4,0.4-0.6c0-0.2,0.1-0.4,0.2-0.6
					c0-0.2,0-0.5,0-0.6c0.1-0.3,0.1-0.5,0.1-0.6c0-0.1,0.3-0.2,0.4-0.5c0.1-0.2-0.4-0.6-0.4-0.8c0.1-0.2,0.3-0.3,0.4-0.5
					c0.1-0.2,0.5-0.2,0.6-0.5c0.1-0.2,0.3-0.3,0.4-0.5c0.1-0.2,0.1-0.4,0.2-0.6c0.1-0.2-0.2-0.5-0.1-0.7c0.1-0.2,0.3-0.3,0.3-0.6
					c0.1-0.2,0.2-0.4,0.3-0.6c0.1-0.2-0.1-0.5,0-0.7c0.1-0.2,0-0.5,0-0.7c0.1-0.2-0.1-0.5,0-0.7c0.1-0.2,0.6-0.2,0.7-0.4
					c0.1-0.2,0.3-0.3,0.4-0.5c0.1-0.2-0.2-0.5-0.1-0.7c0.1-0.2,0.3-0.4,0.3-0.6c0.1-0.2,0.1-0.4,0.1-0.6c0.1-0.2,0.4-0.3,0.4-0.5
					c0.1-0.2-0.2-0.5-0.2-0.7c0.1-0.2-0.2-0.5-0.1-0.7c0.1-0.2,0.3-0.4,0.3-0.6c0.1-0.2,0.6-0.2,0.7-0.5c0.1-0.2,0-0.5,0-0.7
					c0.1-0.2,0.2-0.4,0.2-0.6c0.1-0.2,0.4-0.3,0.5-0.5c0.1-0.2-0.5-0.6-0.4-0.8c0.1-0.2,0.1-0.4,0.2-0.6c0.1-0.2,0.7-0.2,0.7-0.4
					c0.1-0.2-0.1-0.5,0-0.7c0.1-0.2,0.2-0.4,0.3-0.6c0.1-0.2,0.3-0.4,0.3-0.6c0.1-0.2-0.1-0.5-0.1-0.7c0.1-0.2-0.1-0.5-0.1-0.7
					c0.1-0.2,0.3-0.4,0.3-0.6c0.1-0.2,0.4-0.3,0.4-0.5c0.1-0.2,0.2-0.4,0.3-0.6c0.1-0.2-0.3-0.5-0.3-0.7c0-0.2,0.5-0.3,0.6-0.5
					c0-0.2,0-0.5,0-0.6c0-0.2-0.1-0.5-0.1-0.6c0-0.2,0.3-0.4,0.3-0.6c0-0.2-0.3-0.6-0.1-0.7c0.1-0.1,0.2,0,0.4,0.1
					c0.2,0.1,0.3,0.2,0.4,0.1c0.2-0.1,0.3-0.3,0.5-0.4c0.2,0,0.4-0.1,0.6-0.1c0.2,0,0.4-0.4,0.6-0.4c0.2,0,0.4,0,0.6-0.1
					c0.1,0,0.2,0,0.3,0.1c0.1,0.1,0.2,0.1,0.3,0.1c0.2,0,0.4-0.1,0.6-0.1c0.2,0,0.4-0.2,0.6-0.2c0.1,0,0.2,0.2,0.3,0.3
					c0.1,0.2,0.2,0.3,0.3,0.3c0.2,0,0.4-0.5,0.6-0.5c0.2,0,0.4,0.4,0.6,0.4c0.1,0,0.2,0,0.3,0c0.1,0,0.2,0,0.3,0
					c0.2,0,0.4,0.1,0.6,0.1c0.1,0,0.2-0.1,0.3-0.1c0.1-0.1,0.2-0.1,0.3-0.1c0.2,0,0.4,0.3,0.6,0.3c0.1,0,0.2-0.1,0.3-0.1
					c0.1-0.1,0.2-0.1,0.3-0.1c0.1,0,0.2-0.1,0.3-0.2c0.1-0.1,0.2-0.2,0.3-0.2c0.1,0,0.2,0,0.3-0.1C80,282.3,80.1,282.2,80.2,282.2
					C80.2,282.2,80.2,282.2,80.2,282.2"/>
			</defs>
			<clipPath id="SVGID_2_">
				<use xlink:href="#SVGID_1_"  style="overflow:visible;"/>
			</clipPath>
			<path class="st5" d="M49.3,316c6.4-4.4,18.4,5.3,32.5-1.9c10.6-5.4,16.9,5.4,33.9,5.3c10-0.1,27.9-9.5,41-4.3
				c14.2,5.7,28.2-2.5,34.5,1.9v8c-6.4-4.4-20.4,2-34.5-3.6c-13.1-5.2-30.9,2.5-41,2.5c-16.9,0.2-23.2-8.9-33.9-3.5
				c-14.1,7.1-26.1-0.8-32.5,3.6V316z"/>
		</g>
	</g>
	<path class="st6" d="M77.1,232.7l-5.8-1.8c0,0-0.6,0.3-1.8,2.5c17.8,9.3,31.3,12.1,48.9,12.1c17.6,0,31.7-1.8,45.8-6.9
		c1.8-0.7,1.7-6.1,1.7-6.1l-2.5,0c-13.3,4.2-27.8,6.3-43,6.4C104.9,238.8,90.3,236.8,77.1,232.7"/>
	<g>
		<defs>
			<path id="XMLID_38_" d="M211.6,201.1c0,0,10.6-1.9,6.9,7.9c-3.7,9.8-14.2,9.6-17.4,6.1C197.9,211.5,211.6,201.1,211.6,201.1"/>
		</defs>
		<use xlink:href="#XMLID_38_"  style="overflow:visible;fill:#F7E7D6;"/>
		<clipPath id="XMLID_10_">
			<use xlink:href="#XMLID_38_"  style="overflow:visible;"/>
		</clipPath>
	</g>
	<g>
		<defs>
			<path id="XMLID_37_" d="M26.6,185.7c0,0-10.1-3.6-8.1,6.6c2,10.2,12.4,11.8,16.1,8.9C38.4,198.3,26.6,185.7,26.6,185.7"/>
		</defs>
		<use xlink:href="#XMLID_37_"  style="overflow:visible;fill:#F7E7D6;"/>
		<clipPath id="XMLID_11_">
			<use xlink:href="#XMLID_37_"  style="overflow:visible;"/>
		</clipPath>
	</g>
	<g>
		<defs>
			<path id="XMLID_36_" d="M130.2,75.1C74.1,70.4,29,105.2,21.6,151.9c-2,12.3-1.1,23.4,2.2,33.3l2.1,0.5c0.5,0.5,1.8,5.2,2.6,6.7
				c1.3,2.5,3.2,6.9,5.7,12c16.7,21.3,47.2,33.7,82.2,36.6c37.4,3.1,69.5-4.8,88.9-25.4c2.7-3.6,4.6-7.2,5.6-10.9
				c0.3-1.4,1.1-2.4,1.7-3c0.5-0.4,2,0.1,2.9-0.1c5-9.2,8.2-20.1,9.2-32.7C228.6,121.7,186.3,79.7,130.2,75.1z"/>
		</defs>
		<use xlink:href="#XMLID_36_"  style="overflow:visible;fill:#63AD9B;"/>
		<clipPath id="XMLID_12_">
			<use xlink:href="#XMLID_36_"  style="overflow:visible;"/>
		</clipPath>
	</g>
	<g id="XMLID_34_">
		<polygon class="st7" points="243.3,146.7 242.9,145.9 242.2,145.9 241.8,145.6 241.6,145.1 241.5,144.7 240.9,144.5 240.6,144.9 
			240,144.6 239.6,144.2 238.9,143.7 238.7,142.9 238.2,143.7 237.3,144 237.9,143.2 237.7,142.5 236.8,142.8 236.4,142.1 
			236.7,141.7 236.2,141.7 235.7,142.1 235.7,141.5 235.5,141 235.2,141.5 234.4,141.7 233.9,141.4 233,141.3 233.7,140.4 
			233.2,140.1 232.5,139.9 232.2,139.2 231.3,139.4 230.9,138.9 230.7,138.1 230,137.9 229.4,137.7 228.9,137.4 228.5,136.8 
			228.1,137.3 227.4,137.3 226.9,136.9 226.4,136.6 226.5,135.9 226.2,135.4 226.1,135.6 225.4,135.8 225.2,134.9 224.6,134.7 
			224,134.9 223,134.7 222.4,134.5 221.9,134.1 221.5,133.4 221.6,132.6 220.9,132.3 219.9,132.7 219.6,131.8 218.8,131.9 
			218.6,131 217.7,131.3 217.3,130.6 216.8,130.4 216.4,129.7 215.9,129.5 215.2,129.2 214.9,128.5 214.2,128.5 213.9,127.7 
			213,128.3 212.3,127.9 211.8,127.4 211.5,126.9 210.9,126.7 210.3,126.4 209.5,126.4 209.2,125.7 208.6,125.5 208.3,124.7 
			207.5,124.9 207.9,124.4 207.4,123.8 206.8,123.4 206.1,123.9 205.1,123.8 205.5,123.1 205.1,122.4 204.9,121.6 204,122 
			203.1,122.2 203.3,121.5 203.1,121.4 202.2,121.4 201.9,120.6 200.9,120.9 200.8,119.9 200.2,119.5 199.3,120 199.1,119.2 
			199.2,118.9 198.7,118.5 198.3,118 197.5,117.6 196.7,118.1 196.7,117.1 196,116.7 195.3,116.6 194.8,116.1 193.9,116.5 
			193.8,116 193.6,115.7 193.1,115.3 192.3,115.4 192.2,114.4 191.3,114.8 191.1,113.8 190.7,113 189.9,113.6 189.3,113.1 
			188.8,112.7 188.7,111.6 188.1,112.2 187.4,112.6 187.3,111.8 187.4,111.3 186.9,110.8 186.2,110.9 185.4,110.9 184.9,110.4 
			184.4,110 184.1,109.5 183.6,108.9 183.2,109.2 182.6,109.4 182.8,109.1 182.8,108.1 182,108.1 181.2,108 180.8,107.5 
			179.9,107.8 179.7,107 179.9,106.6 179.3,106.5 178.7,107.3 178.6,106.5 178.3,105.6 177.6,105.3 176.9,105.3 176.5,104.9 
			175.8,104.8 175.6,104.5 174.9,104.9 174.5,104.3 174.6,103.9 174.6,103.1 174,103.8 173.3,103.9 173,103.5 173.2,103 172.4,103 
			171.7,103 171.2,102.6 170.8,102.2 170.5,101.3 170,100.9 169.3,100.8 168.9,100.2 168,100.4 167.6,100 167.1,99.2 166.7,98.9 
			166.1,98.6 165.7,98.2 165.2,98.4 164.7,98.4 164.9,98 164.3,97.7 164.1,97 163.3,96.9 162.7,96.8 162.1,96.4 161.3,96.8 
			160.9,96.2 160.6,95.4 159.9,95.3 159.6,94.6 159,94.3 158.7,93.5 158.1,93.2 157.5,93.1 157.2,93.6 157.3,93.1 157.5,92 
			156.9,92.6 156.3,92.9 156.1,92.2 156,91.9 155.5,91.3 154.7,91.4 154.2,91.2 154,90.4 153.3,90.1 152.4,90.1 151.6,90.5 
			151.3,89.8 151.1,88.8 150.3,88.9 149.9,88.3 149.6,87.6 148.9,87.9 148.8,88 147.8,87.9 147.9,87.1 148,86.6 147.3,87 
			146.7,87.4 146.1,87.1 145.6,86.8 145.2,86.3 144.9,86 145.3,84.9 144.2,85.2 143.8,84.6 143.2,84.3 142.6,84.1 142.2,83.5 
			141.6,83.7 141.4,83.7 140.9,83.1 139.9,84 139.9,82.7 139.1,83.2 138.2,83.3 137.7,82.5 137.4,82 136.7,81.7 136,82 135.5,81.5 
			134.9,81.4 134.4,80.9 133.7,80.8 133.4,79.9 133,80.2 132.4,80.7 132,79.9 131.4,79.8 131.2,78.9 130.5,78.7 129.9,78.7 
			129,79.3 128.2,78.7 128.3,77.7 127.5,77.5 126.7,77.6 126.2,77.6 125.5,77.4 125.1,76.7 124.3,77 123.5,77.1 123.7,76.1 
			123.6,75.5 122.8,75.6 122.3,75.1 121.4,75.7 121,74.9 120.5,74.8 119.9,74.5 119.2,74.3 118.4,74.6 118,74.4 118.1,73.9 
			117.5,73.6 116.7,74 116.2,73.6 116.4,73.2 115.9,72.7 115,73 114.6,72.2 114,72.5 113.5,71.9 112.9,71.5 112.4,71.3 112,70.5 
			111.2,70.7 110.6,71 109.9,70.5 109.9,70.1 109.7,69.3 108.8,69.3 108.3,69.3 107.7,69.2 107.5,69.2 106.6,69.8 107,68.8 
			106.5,68.5 105.9,68 105.6,68.6 105.2,68.6 104.4,68.8 103.7,68.1 104.3,67.4 103.5,67.6 102.8,67.6 102.5,66.9 101.8,66.7 
			101,66.9 100.6,66.3 100,66 99.5,65.8 98.8,65.8 97.9,66 98.1,64.9 97.3,64.2 96.8,64.7 96.3,65.1 95.6,65 95.9,64.3 95.3,64.1 
			94.9,63.6 94.3,63.2 93.6,63.3 92.9,63.2 92.7,62.8 92.7,62.1 92.2,62.8 91.6,63.5 91,62.7 90.5,62.3 90.1,61.7 89.3,62.1 
			89,61.1 88.4,61 87.8,60.7 87.3,60.2 86.7,60.2 86.1,59.9 85.4,59.7 84.7,59.6 84.1,59.7 83.6,59.2 83.3,58.3 82.4,58.8 
			81.9,58.3 81.4,57.9 80.9,57.4 80.7,57.8 80,58 79.8,57.6 79.6,57.2 79.1,56.9 78.5,56.5 78,56.5 77.2,56.7 76.5,56.4 75.8,56.1 
			76.4,55.7 75.7,55.1 75.3,55.9 74.6,55.9 74.2,55.1 73.6,55.1 73.1,54.8 72.3,54.9 71.9,54.3 71.2,54.2 70.6,53.7 70.4,53 
			69.6,52.9 68.8,53.3 69,52.4 68.6,52.3 68,52.1 67.4,51.9 66.5,52.1 66.2,51.4 65.6,51.5 65.1,50.8 64.2,51.1 63.9,50.1 
			63.7,50.5 63.3,50.3 63.3,49.9 62.9,49.3 62.1,49.1 61.4,49.6 60.9,49.3 60.7,48.4 60,48.1 59.3,47.9 58.9,48.3 58.4,48.4 
			57.7,48.7 57.1,48 56.8,47.3 56,47.6 55.6,47 54.8,47.4 54.2,47.1 54.3,46.4 54.1,45.7 53.3,45.9 52.9,45.3 52.3,45.8 52,45.4 
			51.3,45.8 50.9,45.1 50.4,44.7 49.7,44.4 49,44.3 48.7,43.6 47.8,44.1 47.5,43.2 46.8,43.3 46.4,42.6 45.7,42.4 44.9,42.5 
			44.3,42.5 43.8,42.6 43.5,42.7 43.1,43 42.8,43.8 41.7,43.4 41.5,44.3 42.1,44.8 41.6,44.2 40.9,44.5 40.2,44.9 40.4,45.7 
			39.6,45.9 39.1,46.2 39.3,47 38.6,47.5 39.2,48 38.5,47.7 37.9,47.8 37.7,48.5 37.2,48.7 37.2,49.1 37.1,49.6 37.1,50.3 
			36.3,50.3 35.5,50.7 35.4,51.3 35.3,52.1 34.5,52.4 34.1,52.8 34,53.5 33.2,53.7 32.7,54.3 33.2,55.3 32,55.2 32.2,56.1 
			32.1,56.9 31.3,56.8 30.5,57.2 30.3,58.1 30.2,58.6 30.4,59.4 29.8,59.8 29,60 28.4,60.4 28.6,61.3 27.6,61.4 27.1,61.9 
			27.2,62.6 26.5,63 26.3,63.5 26,64 26,64.9 25.2,65.1 24.5,65.5 24.6,66.4 24.6,67 23.9,67.3 23.9,68 23.6,68.6 22.7,68.7 
			22.3,69.3 22.5,70 22.4,70.8 21.6,70.9 21,71.2 20.7,71.9 20.7,72.8 20.6,73.4 20.6,74 19.9,74.5 19.6,74.5 19,74.7 19.2,75.5 
			18.7,76.1 19.2,76.9 18.9,77.7 18.2,76.9 17.8,77.7 17.9,78.4 17.4,78.8 16.6,79.1 17,79.7 17.2,80.1 16.6,80.5 16,81 15.8,81.6 
			16.2,82.5 15.5,82.9 15.6,83.5 15.2,84.1 14.7,84.5 14.5,85.2 14.5,85.9 14.2,86.6 13.4,86.7 13.5,87.6 13.3,88.1 12.7,88.6 
			13.1,89.4 12.6,90 12,90.4 12.3,91.2 11.7,91.6 11.5,91.5 11.5,92.1 11.3,92.6 11.7,92.9 11.2,93.7 10.6,93.3 10.5,94 10.6,94.5 
			11,95.2 10.4,95.9 9.6,95.1 10.1,95.8 10.4,96.5 9.5,96.9 9.6,97.6 9.4,98 8.4,98 9.4,98.4 9.6,98.9 9.1,99.4 9.1,100 8.4,100.6 
			8.2,101.2 7.9,101.7 8.5,102.4 8.4,103.2 7.5,103.6 8.4,104.4 7.6,105 8,105.6 7.6,106.2 7.8,106.9 8,107.8 6.8,107.9 7,108.6 
			7.6,109.4 7,110.1 6.2,110.5 6.9,111.3 6.1,111.8 6,112.5 6.5,112.6 6.5,113.1 6.4,113.5 5.9,113.7 6.5,114.4 6,114.9 5.7,115.6 
			6.3,116.3 5.4,116.7 5.5,117.5 5.8,118.3 6.5,118.6 6.8,119.6 5.9,119.5 5.6,120 5.3,120.7 5.9,121.4 6.1,122 5.8,122.5 
			5.8,123.1 6.2,123.8 5.9,124.4 5.9,125.1 6,125.8 5.4,126.4 5.2,127.1 5.7,127.7 6.7,128.2 6.2,129 6.6,128.9 5.6,129.4 
			5.8,130.2 5.7,130.9 6,131.2 6.7,131.7 5.9,132.1 6.3,132.7 6.3,133.1 6,133.9 6,134.9 6.5,135.8 6.3,136.6 6.4,137.5 6.9,137.7 
			6.9,138.4 6.8,138.9 6.6,139.3 6.6,140.2 6.7,141 6.8,141.5 6.6,142 7.2,142.8 7.1,143.7 7.2,144.6 7.6,145.4 7.8,146.3 
			8.2,147.2 8.3,148.1 7.5,149.1 8.5,149.2 8.4,149.9 9,150.7 8.5,151.7 8.7,152.3 9.3,152.4 9.9,153.2 9.4,154.2 10.3,154.5 
			11,155.1 11.6,155.6 12.1,156.3 12.8,156.8 13.2,157.5 13.9,158 14.9,158.2 15.4,158.9 16.1,159.5 16.4,160.4 17.4,160.4 
			17.8,161.3 18.1,162.1 19.1,162.2 19.1,162.8 19.4,163.1 19.9,163.4 20.6,163 20.7,164.2 21.5,164.5 22,165.3 22.5,165 
			22.9,165.2 23,165.8 23.2,166.4 23.8,166.5 24.3,166.3 24.9,167 25.5,167.5 26,168.1 26.6,168.7 27.2,169.3 28.2,169.3 
			28.9,169.9 29.3,170.7 30,171.2 30.5,171.8 31.6,171.8 32.1,172.4 33,172.6 33.6,173.3 34.3,173.7 34.9,174.3 35.3,175.2 
			36.3,175.2 36.9,175.8 37.7,176.2 38,177.1 38.8,177.4 39.6,177.7 40.5,177.8 41.1,178.3 41.9,178.7 42.7,179 43.1,180 
			43.5,180.7 44.4,180.9 45.1,181.2 45.9,181.7 46.8,181.9 47.2,182.6 48.3,182.5 48.5,183.7 49.1,184.4 50.1,184.2 51,184.3 
			51.3,185 51.3,185.5 52.1,186 52.9,186.1 53.7,186.3 54.4,186.9 55.1,187.2 55.8,187.7 56.7,187.7 57.6,187.6 58.3,188.3 
			58.9,188.8 59.7,189.3 60.7,189.2 61,189.6 61.1,190.1 61.8,190.4 62.6,190.6 63.5,190.7 64.2,191.4 65.1,191.2 65.7,191.9 
			66.6,192.1 67.2,192.7 67.9,193.1 68.6,193.8 69.4,193.8 70.2,194.2 71.1,194.2 71.7,194.8 72.4,195.3 73.4,194.8 73.7,195.5 
			73.8,196.2 74.7,196.3 75.6,196.1 76.3,196.7 77.2,196.6 77.9,197.1 78.8,197.2 79.6,197.5 80.3,197.8 81.2,197.9 81.9,198.2 
			82.6,198.5 83.5,199.1 84.4,198.4 85.2,199 86,199.1 86.8,199.4 87.6,199.4 88.3,199.7 89.1,199.7 90,199.6 90.7,200.1 91.6,200 
			92.1,201.1 93,200.8 93.8,200.9 94.6,201.2 95.4,201.4 96.2,201.5 97,201.4 97.2,201.7 97.7,202.4 98.5,201.3 99.4,201.8 
			100.1,202.1 101,202.2 101.8,202.1 102.5,202.7 103.4,202.2 104,202.9 104.9,202.8 105.7,203.3 106.6,202.9 107.1,203 
			107.3,203.5 108,203.7 108.8,204.1 109.5,204.1 110,203.8 110.5,203.3 111,204.3 112,204.2 112.8,204.5 113.6,204.8 114.4,204.5 
			114.6,204.9 115,205.7 115.8,204.7 116.7,204.9 117.6,205 118.2,205.7 119,205.8 119.8,205.7 120.1,205.3 120.2,205.5 
			120.7,205.8 121.5,205.8 122.2,206.2 123.1,206.1 124,205.2 124.1,206.1 124.6,206.9 125.5,206.3 126.3,206.6 127.1,206.6 
			127.9,206.6 128.6,206.7 129.5,206.5 130.1,207.1 131.1,207 132,207.1 132.8,206.7 133.5,206.5 134.3,206.9 135.1,206.5 
			135.9,207 136.7,206.5 137.5,206.9 138.3,206.3 139.2,206.7 139.8,207.8 140.8,207.6 141.5,207.1 142.3,207 143.1,207 
			143.9,206.8 144.7,207 145.5,206.9 146.3,207.1 146.6,207.2 147.2,207.7 148,207.1 148.7,207 149.5,207.3 150.3,206.9 
			151.2,207.2 152,207.3 152.8,206.9 153.5,207.4 154.2,206.5 155.1,206.7 156,207 156.8,207 157.5,207.1 158.4,207 159.2,207.1 
			160,206.7 160.9,206.7 161.5,206.6 162.4,206.2 163.2,207.2 163.9,206.1 164.7,206.3 165.5,205.9 166.4,206.4 167.1,205.9 
			167.9,205.9 168.7,205.7 169.5,205.8 170.3,205.6 171.2,205.7 171.9,205.3 172.7,205.1 173.4,204.8 174.3,204.8 175.2,205.2 
			175.8,204.5 176.6,204 177.5,204.8 178.2,204.2 178.9,203.6 179.7,203.6 180.5,203.5 181.3,203.3 182.1,203.4 182.9,203.1 
			183.7,202.9 184.5,202.5 185.1,201.8 185.9,202 186.6,201.6 187.4,200.9 187.8,201.6 188.4,201.9 188.4,201.2 188.9,200.5 
			189.8,201.2 190.6,200.7 191.4,201 192.1,200.3 192.8,199.8 193.7,199.9 194.2,199.1 195.2,199.5 195.9,198.8 196.4,198.1 
			197.3,198 198.1,198.1 198.5,197.1 199.5,197 200.3,196.9 201,196.7 201.8,196.5 202.6,196.4 203.2,195.7 204.1,195.7 
			204.5,194.8 205.5,195 206.4,194.8 206.6,193.7 207.5,193.4 208.2,193.2 209,192.9 209.5,192.2 210.5,192.3 211.4,191.9 
			211.2,190.6 212.2,190.4 213,190.3 213.7,189.6 214.7,190 215.3,189.2 215.8,188.4 216.8,188.7 217.5,188.4 218.3,188 
			218.6,187.2 219.2,186.6 220,186.2 220.8,186 221.7,186 222.1,185.1 222.6,184.3 223.8,184.8 224.4,184.1 225.2,183.6 
			224.3,183.1 224.8,182.4 224.7,181.5 225.6,180.9 225.7,180.1 226.3,179.4 226.5,178.7 226.7,177.8 227.1,177.1 227.3,176.4 
			227.3,175.5 227.5,174.6 227.5,173.8 228.1,173.6 228.5,173.2 228.7,172.7 228.4,172.3 228.6,171.6 228.4,170.6 229.3,170.1 
			229.5,169.3 229.3,168.4 229.7,167.6 229.9,167.6 230,166.7 230.5,166.2 230.8,165.8 230.2,164.9 231,165 231.5,165.1 
			231.5,164.6 231,164 231.8,163.6 232.4,163.8 233,163.8 232.6,163.4 232.4,162.7 232.7,162.1 233.2,162.6 233.9,162.3 
			234.2,161.6 233.7,161.2 233.4,160.4 234,159.9 234.6,159.6 234.9,159.6 235.6,159.5 235.4,158.7 235.1,158.5 235.2,157.8 
			236.3,157.8 236.4,157 236.7,156.3 237.6,156.4 237.7,155.7 237.6,154.9 238.3,154.5 238.6,154 238.4,153.5 238.2,152.9 
			239.1,152.8 239.6,152.4 239.7,151.9 239.4,150.8 240.3,151.3 241.1,151.1 240.5,150.1 240.7,149.2 241.7,149.3 241.8,148.7 
			241.7,147.8 242.6,147.6 243.5,147.3 243.4,147.1 		"/>
	</g>
	<g>
		<defs>
			<polygon id="XMLID_33_" points="225.7,181.8 224.2,181.8 224.1,182.2 223.5,182.9 222.8,183.1 222.2,183.7 221.8,184 221,184.1 
				219.9,185.2 218.7,185.7 218,186.2 217.6,186.6 217,186.8 215.7,187.7 214.5,188.3 213.9,188.5 212.1,189.8 211.5,189.8 
				210.5,190.2 210.1,190.9 209.6,191.2 209,191.4 208.2,191.8 207.8,192.1 206.9,192.1 206.4,192.8 205.7,192.9 205.2,193.5 
				204.5,193.6 203.9,194.2 203.4,194.4 202.7,194.6 202.1,195 201.5,195.1 200.1,196 199.6,196.4 198.9,196.5 198.3,196.9 
				197.7,197 197,197.4 196.3,197.6 195.8,197.9 195,197.8 194.2,198.1 193.6,198.6 193,198.8 192.4,199 191.6,199.1 191,199.5 
				190.3,199.5 189.6,200 189.1,200.2 188.3,200.1 187.6,200.6 187.1,200.7 186.4,200.6 185.6,200.8 185,201.2 184.2,201.1 
				183.6,201.6 183,201.6 182.2,201.8 181.5,202 180.8,202.2 180.2,202.2 179.5,202.6 178.8,202.5 178.1,202.8 177.5,202.8 
				176.6,203.1 176.1,203.3 175.4,203.3 174.7,203.4 173.9,203.4 172.4,203.7 171.8,204.1 171.2,204.1 170.5,204.1 169.7,204.2 
				169,204.4 168.5,204.6 167.8,204.4 166.9,204.6 166.3,204.9 164.9,204.9 164.2,205 163.6,205.3 162.8,205.1 162.2,205.4 
				161.4,205 160.7,205.5 160.1,205.3 159.3,205.3 158.6,205.3 157.9,205.4 157.2,205.6 155.9,205.7 155.1,205.5 154.4,205.8 
				153.7,205.7 153,205.8 152.3,205.9 151,205.7 150.2,205.9 149.6,205.9 148.8,205.7 147.4,206 146.8,205.8 145.9,205.7 145.2,206 
				144.7,206 144,205.8 143.1,205.8 141.8,206 141.2,205.9 140.5,205.6 139.7,205.6 138.9,205.9 138.4,205.9 137.6,205.7 
				136.9,205.6 136.1,205.8 135.4,205.7 134.8,205.7 134.2,205.4 132.7,205.4 132,205.3 130.6,205 129.7,205.1 129.2,205.2 
				128.5,204.8 127.8,205 127.1,204.7 126.3,204.9 125.7,204.9 125,204.6 123.6,204.7 122.9,204.6 122.2,204.3 121.5,204.3 
				120.8,204 120,204.2 119.4,204.1 118.8,204 118.1,203.5 117.2,203.7 116.6,203.8 116.1,203.3 114.5,203.1 113.7,203.1 
				113.1,203.2 111.7,202.6 111,202.9 110.4,202.5 109,202.6 108.3,202.2 107.6,202.3 106.9,201.9 106.2,202.1 105.7,201.8 
				104.8,201.5 104.1,201.6 103.5,201.2 102.8,201.2 102,201 101.4,201 100.7,200.7 100,200.8 99.4,200.4 98.6,200.3 97.9,200.4 
				97.4,200.1 96.5,199.8 95.8,199.9 95.1,199.7 94.4,199.6 93.7,199.6 93.1,199.4 92.4,199.3 91.8,198.8 91,198.9 90.4,198.5 
				89.6,198.6 89,198.2 88.1,198.3 87.5,198.2 86.9,198.1 86.3,197.7 85.5,197.3 84.8,197.5 84.2,197.1 83.5,197.1 82.9,196.8 
				82,196.6 81.4,196.5 80.1,196.2 79.5,195.7 78,195.5 76.7,194.9 76,194.9 75.6,194.5 74.7,194.3 74,194.2 73.3,193.9 72.7,193.8 
				72.1,193.5 70.8,193 70.2,192.6 69.5,192.4 68.9,192 68.1,191.7 67.5,191.6 66.8,191.3 66.2,191.1 65.7,190.8 65,190.3 
				64.2,190.3 63.8,189.9 63.2,189.4 62.5,189.1 61.8,188.7 61,188.7 60.5,188.3 59.8,188.1 59.2,187.9 58.7,187.5 58,187 
				57.3,186.9 56.8,186.3 56.1,186.1 55.6,185.8 54.9,185.2 54.1,185.2 53,184.3 52.3,184.2 51.8,183.8 51.3,183.3 50.4,183.1 
				49.9,182.9 49.4,182.1 48.5,182.1 48.1,181.8 47.4,181.4 46.9,180.9 46.2,180.6 45.8,180.2 45.1,179.8 44.5,179.5 44,178.9 
				43.2,178.7 42.6,178.5 42.2,178 41.5,177.7 41,177 40.2,176.8 39.7,176.6 39.3,176.1 38.5,175.5 37.3,175 36.8,174.4 36.1,174.1 
				35.6,173.8 35.1,173.3 34.4,172.9 33.9,172.6 33.5,172.1 32.8,171.6 32.3,171.1 31.5,170.8 31,170.5 30,169.5 29.3,169.2 
				28.2,168.4 27.8,167.7 26.5,167.1 26.1,166.5 25.5,166 24.8,165.7 24.3,165.4 23.8,165 23.4,164.3 22.2,163.4 21.4,163.1 
				21,162.8 20.6,162.1 19.9,161.8 19.6,161.1 18.8,160.8 17.9,159.7 17.2,159.6 16.9,159 14.6,157.3 14.4,156.6 13.7,156.2 
				13.2,155.5 12.4,155.3 12,155 11.6,154.5 11.3,153.7 10.6,153.3 8.7,152.4 9.8,154.7 10.3,156.7 10.5,157.5 10.9,158.1 
				11.1,159.4 11.4,160.2 12,160.8 12,161.4 12.1,162.1 13.3,164.1 13.6,164.6 13.7,165.3 14.3,166.7 14.4,167.4 15.3,168.6 
				15.9,169.9 16.2,170.6 16.7,171.1 16.8,171.9 17.5,172.4 17.8,172.9 18.1,173.5 18.3,174.2 18.7,175 19.4,175.4 19.6,175.9 
				20.1,176.6 20.4,177.3 21,177.8 21.8,178.8 22,179.4 22.5,180.2 22.9,180.7 23.6,181.1 23.9,181.8 24.5,182.2 24.8,182.8 
				25.3,183.4 25.7,183.9 26.9,184.8 27.2,185.5 27.8,186 28.2,186.4 28.6,187 29.1,187.6 29.8,188 30.2,188.7 30.9,188.9 
				31.2,189.4 31.8,190.1 32.3,190.5 32.8,191.1 33.6,191.4 33.9,191.8 34.4,192.4 34.9,192.9 35.6,193.3 36.6,194.4 37.3,194.7 
				38.2,195.7 38.7,196.3 39.5,196.6 40.1,196.9 41.6,198.4 42.3,198.7 42.8,199.3 43.5,199.6 44,199.9 44.4,200.5 45.7,201.4 
				46.9,202.1 47.4,202.5 48.2,202.9 49,203 49.4,203.3 50,204 50.8,204 51.2,204.5 52.6,205 53,205.5 53.8,205.9 54.5,206 
				55,206.6 55.8,206.7 56.3,207 56.9,207.6 57.7,207.7 58.2,207.9 58.7,208.5 60.2,209.1 60.9,209.2 61.3,209.5 61.9,210.1 
				62.7,210.3 63.3,210.6 64.1,210.9 64.6,211 65.2,211.5 66,211.7 66.7,211.9 67.3,212.2 67.9,212.4 69.1,213 69.7,213.4 
				70.5,213.7 71.2,214 71.9,214 72.5,214.5 73.2,214.4 73.7,214.8 74.6,215.2 75.3,215.2 75.8,215.6 76.5,215.6 77.1,216.2 
				78,216.1 79.2,216.5 79.8,217 80.6,217.1 81.2,217.5 81.9,217.4 82.4,218 83.9,218.4 85.2,218.7 85.9,219 86.6,219.1 87.4,219.3 
				88,219.3 88.6,219.8 89.4,219.7 90,220.2 90.8,220 91.3,220.5 92.2,220.5 92.7,220.7 93.5,221 94.2,221.1 94.8,221.2 96.2,221.6 
				97,221.8 97.8,221.7 98.4,221.9 99,222 99.7,222.4 100.4,222.3 101.1,222.8 101.9,222.5 102.4,222.7 103.2,223.2 104,223 
				104.7,223.1 105.3,223.1 106.7,223.5 107.4,223.5 108,223.8 108.8,223.9 109.4,224 110.2,224.2 110.9,224.1 111.5,224.4 
				112.4,224.5 113,224.4 113.7,224.6 115.1,224.7 115.8,225 117.2,224.9 117.8,225.3 118.7,225.3 119.4,225.2 120,225.3 
				121.4,225.7 122.3,225.6 122.9,225.5 123.6,225.7 124.3,225.6 124.9,225.9 126.4,225.8 127.1,226 127.8,225.9 128.5,225.9 
				129.2,226.2 130,226.3 130.7,226 132.1,226.1 132.7,226.1 133.4,226.2 134.8,226.1 135.6,226.5 136.4,226.1 137,226.1 
				137.7,226.4 138.5,226.2 139.9,226.5 140.7,226.2 141.2,226.2 142,226.5 142.8,226.3 143.5,226.2 144.1,226.1 144.7,226.1 
				145.5,226.5 146.3,226.2 147,226 147.6,226 148.3,226.2 149.1,226 150.6,226.2 151.2,225.9 151.8,226.1 152.7,226.1 153.3,226 
				154,226 154.7,225.7 155.4,225.9 156.2,225.7 156.8,225.8 157.6,225.6 158.4,225.6 159.1,225.2 159.7,225.2 160.4,225.1 161,225 
				161.8,225.3 162.6,224.9 163.2,224.7 163.8,224.6 164.6,224.7 165.3,224.7 166.7,224.2 167.4,224.4 168.3,224.3 168.9,223.9 
				169.5,223.7 170.1,223.8 171,223.7 171.6,223.4 172.2,223.4 173.1,223.3 173.8,222.9 174.4,222.9 175.1,222.6 175.9,222.6 
				176.5,222.2 177.2,222.2 177.9,221.8 178.5,221.7 179.3,221.7 179.9,221.1 180.5,221.1 181.4,220.8 181.9,220.5 182.6,220.3 
				183.9,219.9 184.6,219.8 185.4,219.5 186,219.2 186.6,219.2 187.5,218.7 188,218.4 188.6,218.3 189.4,217.9 189.9,217.4 
				190.6,217.3 191.2,216.9 192,217 192.5,216.3 193.1,216.3 194,215.8 195.1,215 195.6,214.8 196.4,214.6 197,214.4 197.7,213.9 
				198.4,213.6 198.8,212.9 199.4,212.7 200,212.3 200.8,212.2 201.3,211.4 202.4,210.8 203,210.7 203.8,210.2 204.2,209.4 
				204.7,209.2 205.5,209 206,208.4 206.6,208.1 207.2,207.5 208.2,206.7 208.9,206.3 209.4,205.8 209.9,205.3 210.4,204.8 
				211,204.5 211.6,203.8 212.1,203.3 212.4,202.8 213.6,202 214,201.3 214.5,200.9 215,200.3 215.5,199.8 216,199.2 216.3,198.6 
				216.9,198.1 217.6,197 218.3,196.5 218.5,195.7 218.9,195.3 219.6,194.7 219.7,193.9 220,193.5 220.6,192.9 221.1,191.6 
				221.5,191 221.7,190.2 222.8,188.4 223,187.7 223.3,187.2 223.5,186.4 223.8,185.8 224.2,185.1 224.3,184.4 224.7,183.8 
				224.9,183 225,182.6 			"/>
		</defs>
		<use xlink:href="#XMLID_33_"  style="overflow:visible;fill:#005944;"/>
		<clipPath id="XMLID_13_">
			<use xlink:href="#XMLID_33_"  style="overflow:visible;"/>
		</clipPath>
	</g>
	<g>
		<path class="st4" d="M112.9,150C112.8,149.9,112.8,149.9,112.9,150L112.9,150z"/>
		<path class="st4" d="M77.3,123.7C77.3,123.7,77.3,123.7,77.3,123.7C77.3,123.7,77.4,123.7,77.3,123.7
			C77.4,123.8,77.4,123.8,77.3,123.7C77.4,123.7,77.3,123.7,77.3,123.7z"/>
		<g>
			<defs>
				<path id="XMLID_32_" d="M239.5,157.3c0.6-0.5,0.8-1.1,0.9-1.8c0.5-0.6,0.8-1.3,0.9-2.1c0,0,0-0.1,0-0.1c0.1-0.2,0.2-0.3,0.2-0.5
					c0.2-0.5,0.1-1-0.1-1.5c0-0.2,0.1-0.4,0.1-0.6c0.2-0.1,0.5-0.2,0.5-0.4c0-0.1-0.1-0.2-0.1-0.4c0.1-0.2,0.1-0.4,0.1-0.6
					c0.1-0.1,0.2-0.2,0.2-0.3c0-0.2,0-0.4,0.1-0.6c0-0.2-0.1-0.5-0.1-0.7c0-0.2,0.3-0.4,0.3-0.6c0-0.2-0.3-0.5-0.3-0.7
					c0-0.2,0.1-0.4,0.2-0.6c0-0.2,0-0.4,0-0.6c0-0.2,0.1-0.4,0.1-0.6c0-0.2,0.1-0.4,0.1-0.6c0-0.2,0.4-0.4,0.4-0.6
					c0-0.2-0.5-0.5-0.4-0.7c0,0,0-0.1,0-0.1c0,0,0,0,0-0.1c0.1-0.1,0.2-0.3,0.2-0.4c0-0.2,0.2-0.4,0.2-0.6c0-0.2,0.1-0.4,0.1-0.6
					c0-0.2-0.4-0.4-0.4-0.6c0-0.2,0.4-0.4,0.4-0.6c0-0.2-0.4-0.4-0.4-0.6c0-0.2,0-0.4-0.1-0.6c0-0.2-0.1-0.4-0.1-0.6
					c0-0.2,0.4-0.4,0.4-0.7c0-0.2-0.4-0.4-0.4-0.6c0-0.2-0.2-0.4-0.2-0.6c0-0.2,0.1-0.4,0.1-0.6c0-0.2-0.1-0.4-0.1-0.6
					c0-0.2,0.5-0.5,0.5-0.7c0-0.2-0.1-0.4-0.2-0.6c0-0.2-0.1-0.4-0.2-0.6c0-0.2-0.6-0.4-0.6-0.6c0-0.2,0.3-0.5,0.3-0.7
					c0-0.2,0-0.4,0-0.6c0-0.2-0.4-0.4-0.4-0.6c0-0.2-0.3-0.4-0.3-0.6c0-0.2,0.7-0.5,0.6-0.7c0-0.2-0.6-0.3-0.7-0.5
					c0-0.2-0.1-0.4-0.1-0.6c0-0.2-0.1-0.4-0.1-0.6c0-0.2,0.5-0.5,0.5-0.7c0-0.2-0.8-0.3-0.9-0.5c0-0.2-0.1-0.4-0.2-0.6
					c0-0.2,0.6-0.6,0.6-0.8c0-0.2,0-0.4,0-0.7c0-0.2-0.8-0.2-0.9-0.4c0-0.2,0.3-0.5,0.3-0.7c0-0.2-0.2-0.4-0.2-0.6
					c-0.1-0.2,0.2-0.5,0.1-0.7c-0.1-0.2-0.4-0.3-0.4-0.6c-0.1-0.2-0.5-0.3-0.5-0.5c-0.1-0.2,0.4-0.6,0.4-0.8
					c-0.1-0.2-0.3-0.3-0.4-0.5c-0.1-0.2,0.1-0.5,0-0.7c-0.1-0.2-0.5-0.3-0.6-0.5c-0.1-0.2,0.1-0.5,0.1-0.7c-0.1-0.2-0.2-0.4-0.3-0.6
					c-0.1-0.2-0.3-0.3-0.4-0.5c-0.1-0.2,0.4-0.6,0.4-0.8c-0.1-0.2-0.3-0.4-0.3-0.6c-0.1-0.2-0.5-0.3-0.6-0.5
					c-0.1-0.2,0.4-0.6,0.3-0.8c-0.1-0.2-0.2-0.4-0.2-0.6c-0.1-0.2-0.8-0.1-0.9-0.3c-0.1-0.2,0.1-0.5,0-0.7c-0.1-0.2,0.3-0.6,0.3-0.8
					c-0.1-0.2-0.7-0.2-0.7-0.4c-0.1-0.2,0.4-0.6,0.3-0.8c-0.1-0.2-0.2-0.4-0.2-0.6c-0.1-0.2-0.2-0.4-0.3-0.6
					c-0.1-0.2-0.5-0.2-0.6-0.4c-0.1-0.2-0.1-0.4-0.2-0.6c-0.1-0.2,0.2-0.5,0.1-0.7c-0.1-0.2-0.4-0.3-0.5-0.5c-0.1-0.2,0-0.5,0-0.7
					c-0.1-0.2-0.3-0.3-0.4-0.5c-0.1-0.2-0.6-0.2-0.7-0.4c-0.1-0.2,0.2-0.5,0.1-0.7c-0.1-0.2-0.3-0.3-0.4-0.5
					c-0.1-0.2,0.4-0.6,0.3-0.8c-0.1-0.2-0.6-0.2-0.7-0.4c-0.1-0.2,0.3-0.6,0.2-0.8c-0.1-0.2-0.9-0.1-0.9-0.3c-0.1-0.2,0.1-0.5,0-0.7
					c-0.1-0.2-0.1-0.4-0.2-0.6c-0.1-0.2-0.1-0.4-0.2-0.6c-0.1-0.2-0.1-0.4-0.2-0.6c-0.1-0.2-0.7-0.1-0.8-0.3c-0.1-0.2,0.1-0.5,0-0.7
					c-0.1-0.2-0.1-0.5-0.1-0.6c-0.1-0.2-0.2-0.3-0.3-0.5c-0.1-0.2-0.5-0.2-0.6-0.4c-0.1-0.2,0-0.5-0.1-0.7c-0.1-0.2-0.2-0.4-0.3-0.6
					c-0.1-0.2-0.3-0.3-0.4-0.5c-0.1-0.2-0.3-0.3-0.5-0.5c-0.1-0.2-0.2-0.4-0.3-0.6c-0.1-0.2,0-0.5-0.1-0.7c-0.1-0.2,0-0.5-0.1-0.7
					c-0.1-0.2-0.5-0.2-0.6-0.4c-0.1-0.2,0.3-0.6,0.2-0.8c-0.1-0.2-0.5-0.2-0.6-0.4c-0.1-0.2-0.2-0.3-0.4-0.5c-0.1-0.2,0.1-0.6,0-0.7
					c-0.1-0.2-0.9,0-1-0.1c-0.1-0.2,0.5-0.8,0.4-1c-0.1-0.2-0.5-0.2-0.7-0.3c-0.1-0.2-0.5-0.2-0.6-0.4c-0.1-0.2-0.1-0.4-0.2-0.6
					c-0.1-0.2,0.1-0.6,0-0.8c-0.1-0.2-0.5-0.2-0.6-0.4c-0.1-0.2-0.1-0.4-0.2-0.6c-0.1-0.2-0.3-0.3-0.5-0.5c-0.1-0.2-0.3-0.3-0.4-0.5
					c-0.1-0.2,0-0.5-0.1-0.7c-0.1-0.2,0-0.5-0.1-0.7c-0.1-0.2-0.9,0.1-1-0.1c-0.1-0.2-0.1-0.5-0.2-0.6c-0.1-0.2-0.5-0.2-0.6-0.4
					c-0.1-0.2,0.4-0.8,0.3-1c-0.1-0.2-0.2-0.4-0.3-0.6c-0.1-0.2-0.9,0.1-1,0c-0.1-0.2-0.1-0.4-0.2-0.6c-0.1-0.2-0.4-0.2-0.5-0.4
					c-0.1-0.2,0.5-0.8,0.3-1c-0.1-0.2-0.9,0.2-1.1,0c-0.1-0.2-0.2-0.4-0.3-0.6c-0.1-0.2-0.2-0.4-0.3-0.6c-0.1-0.2-0.3-0.3-0.4-0.5
					c-0.1-0.2-0.2-0.4-0.3-0.6c-0.1-0.2-0.3-0.3-0.5-0.4c-0.1-0.2,0.2-0.7,0-0.8c-0.1-0.2-0.7,0-0.8-0.1c-0.1-0.2,0-0.5-0.1-0.7
					c-0.1-0.2-0.5-0.1-0.6-0.3c-0.1-0.2,0-0.5-0.1-0.7c-0.1-0.2-0.3-0.3-0.4-0.5c-0.1-0.2-0.4-0.2-0.6-0.4c-0.1-0.2,0.1-0.6,0-0.8
					c-0.1-0.2-0.7,0-0.8-0.1c-0.1-0.2-0.1-0.5-0.2-0.7c-0.1-0.2-0.4-0.2-0.6-0.3c-0.1-0.2-0.2-0.4-0.4-0.5c-0.1-0.2-0.1-0.5-0.3-0.6
					c-0.1-0.2-0.4-0.2-0.5-0.4c-0.1-0.2-0.1-0.5-0.3-0.6c-0.1-0.2-0.4-0.2-0.5-0.4c-0.1-0.2,0.1-0.7,0-0.8c-0.1-0.2-0.5-0.1-0.7-0.3
					c-0.1-0.2-0.1-0.5-0.2-0.7c-0.1-0.2-0.3-0.3-0.4-0.5c-0.1-0.2-0.8,0.1-0.9,0c-0.1-0.2-0.1-0.5-0.2-0.7c-0.1-0.2-0.4-0.2-0.5-0.4
					c-0.1-0.2,0-0.6-0.1-0.8c-0.1-0.2-0.4-0.2-0.6-0.3c-0.1-0.2-0.5-0.1-0.7-0.2c-0.1-0.2-0.4-0.2-0.5-0.4c-0.1-0.2,0-0.6-0.2-0.7
					c-0.1-0.2-0.3-0.3-0.4-0.5c-0.1-0.2-0.2-0.4-0.3-0.6c-0.1-0.2-0.1-0.5-0.3-0.6c-0.1-0.2-0.7,0.1-0.9,0c-0.1-0.2-0.4-0.2-0.6-0.3
					c-0.1-0.2,0.1-0.7,0-0.9c-0.1-0.2-0.4-0.2-0.5-0.4c-0.1-0.1-0.4-0.2-0.6-0.3c-0.1-0.1-0.5-0.1-0.7-0.2c-0.2-0.1-0.2-0.4-0.4-0.5
					c-0.2-0.1-0.2-0.4-0.3-0.6c-0.2-0.1-0.5-0.1-0.7-0.2c-0.2-0.1-0.2-0.4-0.3-0.6c-0.2-0.1-0.4-0.2-0.5-0.4
					c-0.2-0.1-0.2-0.4-0.3-0.6c-0.2-0.1-0.3-0.3-0.4-0.5c-0.2-0.1-0.2-0.4-0.3-0.6c-0.2-0.1-0.7,0.1-0.9,0c-0.2-0.1,0-0.7-0.1-0.8
					c-0.2-0.1-0.6,0-0.8-0.1c-0.2-0.1,0.1-0.7-0.1-0.9c-0.2-0.1-0.4-0.2-0.6-0.3c-0.2-0.1-0.5-0.1-0.6-0.3c-0.2-0.1-0.4-0.2-0.6-0.3
					c-0.2-0.1-0.1-0.5-0.3-0.7c-0.2-0.1-0.3-0.3-0.4-0.5c-0.2-0.1-0.2-0.5-0.3-0.6c-0.2-0.1-0.4-0.2-0.6-0.3
					c-0.2-0.1-0.3-0.3-0.5-0.4c-0.2-0.1-0.3-0.4-0.4-0.5c-0.2-0.1-0.3-0.3-0.5-0.4c-0.2-0.1-0.8,0.3-1,0.2c-0.2-0.1-0.2-0.4-0.4-0.5
					c-0.2-0.1,0.1-0.8-0.1-0.9c-0.2-0.1-0.7,0.1-0.8,0c-0.2-0.1-0.4-0.2-0.6-0.3c-0.2-0.1-0.4-0.2-0.5-0.3c-0.2-0.1-0.4-0.2-0.6-0.3
					c-0.2-0.1-0.3-0.3-0.4-0.5c-0.2-0.1,0-0.7-0.1-0.9c-0.2-0.1-0.8,0.3-0.9,0.2c-0.2-0.1-0.1-0.6-0.2-0.7c-0.2-0.1-0.5-0.1-0.7-0.2
					c-0.2-0.1-0.1-0.5-0.3-0.6c-0.2-0.1-0.3-0.3-0.5-0.4c-0.2-0.1-0.5-0.1-0.6-0.2c-0.2-0.1-0.3-0.3-0.5-0.4
					c-0.2-0.1-0.1-0.6-0.2-0.8c-0.2-0.1-0.5,0-0.7-0.1c-0.2-0.1-0.6,0.1-0.8,0c-0.2-0.1-0.2-0.4-0.4-0.6c-0.2-0.1-0.4-0.1-0.6-0.3
					c-0.2-0.1-0.2-0.5-0.4-0.6c-0.2-0.1-0.3-0.4-0.4-0.5c-0.2-0.1-0.3-0.3-0.5-0.4c-0.2-0.1-0.5-0.1-0.7-0.2c-0.2-0.1-0.6,0.1-0.8,0
					c-0.2-0.1-0.2-0.5-0.4-0.6c-0.2-0.1,0-0.7-0.2-0.8c-0.2-0.1-0.4-0.2-0.6-0.3c-0.2-0.1-0.7,0.2-0.8,0.1c-0.2-0.1-0.2-0.4-0.4-0.6
					c-0.2-0.1-0.6,0.1-0.8,0c-0.2-0.1-0.1-0.6-0.3-0.8c-0.2-0.1-0.2-0.4-0.4-0.5c-0.2-0.1-0.6,0.1-0.7,0c-0.2-0.1-0.1-0.6-0.3-0.8
					c-0.2-0.1-0.6,0.2-0.8,0.1c-0.2-0.1-0.4-0.1-0.6-0.3c-0.2-0.1-0.2-0.5-0.4-0.6c-0.2-0.1-0.2-0.4-0.4-0.6
					c-0.2-0.1-0.7,0.4-0.9,0.3c-0.2-0.1-0.1-0.6-0.3-0.7c-0.2-0.1-0.4-0.2-0.6-0.3c-0.2-0.1-0.3-0.4-0.4-0.5
					c-0.2-0.1-0.5-0.1-0.6-0.2c-0.2-0.1-0.5-0.1-0.6-0.2c-0.2-0.1-0.5,0.1-0.7,0c-0.2-0.1-0.4-0.2-0.5-0.3c-0.2-0.1-0.3-0.4-0.5-0.5
					c-0.2-0.1-0.5,0-0.7-0.1c-0.2-0.1,0-0.9-0.2-1c-0.2-0.1-0.4-0.2-0.6-0.3c-0.2-0.1-0.6,0.3-0.8,0.2c-0.2-0.1-0.5,0-0.7-0.1
					c-0.2-0.1,0-0.8-0.2-0.9c-0.2-0.1-0.7,0.3-0.8,0.2c-0.2-0.1-0.3-0.3-0.5-0.4c-0.2-0.1-0.3-0.4-0.5-0.5c-0.2-0.1-0.5,0-0.7-0.1
					c-0.2-0.1-0.2-0.5-0.4-0.6c-0.2-0.1-0.6,0.2-0.8,0.1c-0.2-0.1-0.3-0.3-0.5-0.4c-0.2-0.1-0.5,0-0.7-0.1c-0.2-0.1-0.1-0.7-0.3-0.8
					c-0.2-0.1-0.4-0.1-0.6-0.2c-0.2-0.1-0.6,0.2-0.7,0.1c-0.2-0.1-0.2-0.5-0.4-0.6c-0.2-0.1-0.4-0.2-0.5-0.3
					c-0.2-0.1-0.4-0.2-0.6-0.2c-0.2-0.1-0.3-0.3-0.5-0.4c-0.2-0.1-0.3-0.3-0.5-0.4c-0.2-0.1-0.3-0.3-0.5-0.4
					c-0.2-0.1-0.6,0.4-0.8,0.3c-0.2-0.1-0.2-0.5-0.4-0.6c-0.2-0.1-0.3-0.4-0.5-0.5c-0.2-0.1-0.4-0.1-0.6-0.2
					c-0.2-0.1-0.7,0.5-0.9,0.4c-0.2-0.1-0.4-0.2-0.6-0.3c-0.2-0.1-0.4-0.2-0.6-0.3c-0.2-0.1-0.3-0.3-0.5-0.3c-0.2-0.1-0.5,0.1-0.7,0
					c-0.2-0.1-0.2-0.7-0.4-0.8c-0.2-0.1-0.6,0.3-0.8,0.2c-0.2-0.1-0.1-0.8-0.3-0.9c-0.2-0.1-0.6,0.3-0.8,0.3
					c-0.2-0.1-0.2-0.5-0.4-0.6c-0.2-0.1-0.5,0.1-0.7,0c-0.2-0.1-0.5,0-0.6-0.1c-0.2-0.1-0.3-0.5-0.5-0.5c-0.2-0.1-0.5,0.2-0.7,0.2
					c-0.2-0.1-0.4-0.2-0.6-0.3c-0.2-0.1-0.3-0.5-0.5-0.6c-0.2-0.1-0.4-0.3-0.6-0.4c-0.2-0.1-0.7,0.6-0.9,0.5
					c-0.2-0.1-0.4-0.2-0.6-0.2c-0.2-0.1-0.3-0.4-0.5-0.4c-0.2-0.1-0.4-0.2-0.6-0.3c-0.2-0.1-0.5,0.2-0.7,0.1
					c-0.2-0.1-0.2-0.8-0.4-0.8c-0.2-0.1-0.5,0.1-0.7,0c-0.2-0.1-0.3-0.4-0.5-0.4c-0.2-0.1-0.6,0.4-0.8,0.3c-0.2-0.1-0.4-0.3-0.6-0.3
					c-0.2-0.1-0.5,0.1-0.7,0c-0.2-0.1-0.2-0.7-0.4-0.8c-0.2-0.1-0.4-0.1-0.6-0.2c-0.2-0.1-0.6,0.7-0.8,0.6c-0.2-0.1-0.3-0.5-0.5-0.6
					c-0.2-0.1-0.3-0.5-0.5-0.6c-0.2-0.1-0.5,0.2-0.7,0.1c-0.2-0.1-0.5,0.3-0.7,0.2c-0.2-0.1-0.2-0.7-0.4-0.8
					c-0.2-0.1-0.5,0.4-0.7,0.3c-0.2-0.1-0.3-0.4-0.5-0.4c-0.2-0.1-0.5,0.3-0.7,0.2c-0.2-0.1-0.4-0.2-0.6-0.2
					c-0.2-0.1-0.4-0.3-0.6-0.3c-0.2-0.1-0.5,0.3-0.7,0.3c-0.2-0.1-0.2-0.9-0.4-0.9c-0.2,0-0.5,0.4-0.7,0.4c-0.2,0-0.3-0.7-0.5-0.7
					c-0.2,0-0.4,0.1-0.7,0c-0.2,0-0.4,0-0.6,0c-0.2,0-0.4-0.2-0.6-0.3c-0.2,0-0.5,0.5-0.8,0.5c-0.2,0-0.4-0.2-0.6-0.3
					c-0.2,0-0.3-0.5-0.5-0.6c-0.2,0-0.5,0.5-0.7,0.4c-0.2,0-0.4-0.3-0.6-0.3c-0.2,0-0.3-0.5-0.6-0.5c-0.2,0-0.5,0.6-0.7,0.5
					c-0.2,0-0.3-0.7-0.5-0.7c-0.2,0-0.4-0.1-0.6-0.2c-0.2,0-0.4,0.1-0.7,0.1c-0.2,0-0.5,0.4-0.7,0.4c-0.2,0-0.3-0.5-0.6-0.6
					c-0.2,0-0.4-0.2-0.6-0.2c-0.2,0-0.4,0-0.6,0c-0.2,0-0.5,0.2-0.7,0.1c-0.2,0-0.5,0.2-0.7,0.1c-0.2,0-0.4-0.5-0.6-0.6
					c-0.2,0-0.4,0.1-0.7,0.1c-0.2,0-0.4-0.4-0.6-0.4c-0.2,0-0.5,0.2-0.7,0.2c-0.2,0-0.4,0.1-0.6,0c-0.2,0-0.4,0.1-0.6,0.1
					c-0.2,0-0.3-0.7-0.5-0.8c-0.2,0-0.4,0.1-0.7,0.1c-0.2,0-0.4,0.1-0.6,0.1c-0.2,0-0.4-0.2-0.6-0.2c-0.2,0-0.4-0.2-0.6-0.2
					c-0.2,0-0.4-0.1-0.6-0.1c-0.2,0-0.4-0.1-0.6-0.1c-0.2,0-0.4,0.1-0.6,0.1c-0.2,0-0.5,0.4-0.7,0.4c-0.2,0-0.4-0.1-0.6-0.2
					c-0.2,0-0.4-0.3-0.6-0.3c-0.2,0-0.4,0.2-0.6,0.2c-0.2,0-0.4-0.5-0.6-0.5c-0.2,0-0.5,0.5-0.7,0.5c-0.2,0-0.4,0-0.6,0
					c-0.2,0-0.4-0.3-0.6-0.3c-0.2,0-0.4-0.3-0.6-0.3c-0.2,0-0.4,0.5-0.7,0.5c-0.2,0-0.4,0.2-0.6,0.2c-0.2,0-0.4,0.1-0.6,0.1
					c-0.2,0-0.4-0.5-0.6-0.5c-0.2,0-0.4-0.2-0.6-0.2c-0.2,0-0.4,0-0.6,0c-0.2,0-0.4,0-0.6,0c-0.2,0-0.4,0.3-0.6,0.3
					c-0.2,0-0.4-0.2-0.6-0.2c-0.2,0-0.4-0.1-0.6-0.1c-0.2,0-0.4,0.8-0.6,0.8c-0.2,0-0.4-0.7-0.6-0.7c-0.2,0-0.4,0-0.6,0
					c-0.2,0-0.4,0.8-0.6,0.8c-0.2,0-0.5-0.6-0.7-0.6c-0.2,0-0.4,0.5-0.6,0.5c-0.2,0-0.4,0-0.6,0c-0.2,0-0.4-0.2-0.6-0.2
					c-0.2,0-0.4-0.1-0.6,0c-0.2,0-0.4-0.1-0.6-0.1c-0.2,0-0.4,0.6-0.6,0.6c-0.2,0-0.5-0.5-0.7-0.4c-0.2,0-0.4,0.4-0.6,0.4
					c-0.2,0-0.5-0.3-0.7-0.2c-0.2,0-0.4,0.5-0.6,0.6c-0.2,0-0.4-0.1-0.6-0.1c-0.2,0-0.5-0.6-0.7-0.6c-0.2,0-0.3,0.8-0.5,0.8
					c-0.2,0-0.4-0.1-0.7-0.1c-0.2,0-0.4,0-0.6,0c-0.2,0-0.4,0.1-0.6,0.1c-0.2,0-0.4,0-0.6,0.1c-0.2,0-0.4,0.2-0.6,0.2
					c-0.2,0-0.4,0.2-0.6,0.2c-0.2,0-0.5-0.3-0.7-0.3c-0.2,0-0.5-0.2-0.7-0.1c-0.2,0-0.3,0.8-0.5,0.9c-0.2,0-0.6-0.6-0.8-0.6
					c-0.2,0-0.4,0.4-0.6,0.4c-0.2,0-0.4,0-0.6,0c-0.2,0-0.3,0.5-0.5,0.6c-0.2,0-0.4,0.1-0.6,0.2c-0.2,0-0.5-0.3-0.7-0.3
					c-0.2,0.1-0.4,0.2-0.6,0.3c-0.2,0.1-0.5-0.2-0.7-0.2c-0.2,0.1-0.3,0.6-0.5,0.6c-0.2,0.1-0.4,0.2-0.6,0.2
					c-0.2,0.1-0.6-0.4-0.8-0.4c-0.2,0.1-0.3,0.5-0.5,0.6c-0.2,0.1-0.5-0.1-0.7-0.1c-0.2,0.1-0.5-0.2-0.7-0.1
					c-0.2,0.1-0.2,0.6-0.4,0.7c-0.2,0.1-0.5-0.1-0.7,0c-0.2,0.1-0.4,0.2-0.6,0.2c-0.2,0.1-0.3,0.4-0.5,0.5c-0.2,0.1-0.5-0.2-0.7-0.1
					c-0.2,0.1-0.2,0.5-0.4,0.6c-0.2,0.1-0.5,0-0.7,0.1c-0.2,0.1-0.5,0-0.6,0.1c-0.2,0.1-0.2,0.6-0.4,0.7c-0.2,0.1-0.4,0.1-0.6,0.2
					c-0.2,0.1-0.4,0.1-0.6,0.2c-0.2,0.1-0.6-0.2-0.7-0.1c-0.2,0.1-0.3,0.4-0.5,0.5c-0.2,0.1-0.5,0-0.7,0.1c-0.2,0.1-0.2,0.5-0.4,0.6
					c-0.2,0.1-0.3,0.3-0.5,0.4c-0.2,0.1-0.4,0.2-0.5,0.3c-0.2,0.1-0.7-0.4-0.9-0.3c-0.2,0.1-0.2,0.4-0.4,0.5
					c-0.2,0.1-0.1,0.6-0.3,0.8c-0.2,0.1-0.4,0.1-0.6,0.2c-0.2,0.1-0.7-0.3-0.9-0.2c-0.2,0.1,0,0.7-0.2,0.8c-0.2,0.1-0.5,0-0.7,0.1
					c-0.2,0.1-0.1,0.5-0.3,0.7c0,0-0.1,0-0.1,0c0,0-0.1,0-0.1,0c-0.2,0-0.5-0.1-0.6,0c-0.1,0.1-0.1,0.2-0.2,0.3
					c-0.1,0.1-0.2,0.1-0.3,0.2c-0.3,0.2-0.5,0.5-0.7,0.8c-0.1,0-0.1,0-0.1,0.1c-0.2,0.1-0.3,0.3-0.5,0.4c0,0-0.1,0.1-0.1,0.2
					c-0.1,0-0.2,0.1-0.3,0.1c-0.4,0.2-0.8,0.3-1.1,0.6c-0.2,0.2-0.3,0.4-0.5,0.6c0,0-0.2,0.2-0.2,0.3c-0.5,0.2-0.9,0.6-1.3,1
					c-0.2,0.3-0.4,0.6-0.6,0.9c-0.2,0.1-0.4,0.3-0.6,0.4c0,0,0,0,0,0c-0.2,0-0.4,0.2-0.5,0.2c-0.8,0.4-1.3,1.1-1.6,1.8
					c-0.5,0.4-0.7,0.9-0.9,1.5c-0.2,0.2-0.3,0.4-0.5,0.6c-0.2,0.1-0.3,0.2-0.5,0.3c-0.2,0.2-0.4,0.5-0.5,0.7
					c-0.5,0.3-0.9,0.7-1.4,1.3c-0.4,0.5-0.4,1.1-0.3,1.7c-0.4,0.4-0.7,1-0.7,1.6c-0.3,0.3-0.5,0.6-0.7,1c-0.3,0.7-0.4,1.3-0.3,2
					c0,0.1-0.1,0.1-0.1,0.1c0,0,0,0,0,0c-0.2,0.1-0.4,0.3-0.5,0.4c-0.6,0.4-0.8,1.4-0.7,2c-0.3,0.5-0.5,0.9-0.7,1.5
					c-0.1,0.4-0.3,0.7-0.4,1.1c-0.1,0.4,0,0.7,0.1,1.1C33,46.8,33,47.1,33,47.4c0,0,0,0.1,0,0.2c0,0-0.1,0.1-0.1,0.1
					c-0.7,0.6-0.9,1.8-0.5,2.7c-0.2,0.3-0.3,0.7-0.4,1.1c-0.2,0.9,0,1.6,0.5,2.4c-0.2,0.6-0.2,1.1-0.1,1.8c-0.1,0.5-0.1,1,0,1.5
					c-0.1,0.1-0.1,0.2-0.1,0.2c-0.4,0.8-0.3,1.5-0.1,2.2c-0.1,0.5-0.1,1.1,0,1.6c0.1,0.2,0.2,0.5,0.2,0.7c0,0.1,0,0.2,0.1,0.3
					c0,0,0,0,0,0c-0.1,0.8,0.2,1.7,0.6,2.4c-0.3,0.6-0.3,1.2,0,1.9c0.1,0.3,0.3,0.6,0.4,0.9c0,0.2,0,0.4,0,0.6
					c0.1,0.3,0.2,0.7,0.4,0.9c0,0,0,0,0,0c0,0,0,0,0,0.1c0,0.1,0,0.1,0,0.2c0,0.5,0,0.9,0.2,1.4c0.1,0.2,0.3,0.4,0.4,0.6
					c0,0.2,0.1,0.3,0.1,0.5c0.1,0.2,0.1,0.3,0.2,0.5c0,0.2,0,0.4,0,0.6c0.1,0.4,0.3,0.7,0.5,1c0,0.2,0,0.4,0,0.4
					c0,0.7,0.3,1.2,0.6,1.6c0.1,0.4,0.2,0.8,0.4,1.2c0,0,0,0,0,0c0,0.1,0.1,0.2,0.1,0.3c0.1,0.4,0.3,0.7,0.4,1
					c0.4,0.9,0.8,1.6,1.5,2.2c0,0.6,0.1,1.2,0.6,1.8c0.2,0.2,0.3,0.3,0.5,0.5c0,0.3,0.1,0.5,0.2,0.8c0,0.1,0.1,0.2,0.2,0.3
					c0,0.2,0.1,0.4,0.1,0.5c0.3,1.2,0.9,2,1.9,2.7c0.3,0.4,0.6,0.8,1,1.2c0.1,0.1,0.3,0.3,0.3,0.3c0,0,0,0.1,0.1,0.1
					c0.1,0.2,0.2,0.4,0.4,0.6c0.2,0.7,0.5,1.3,1,1.9c0.2,0.6,0.4,1.2,1,1.6c0.1,0.1,0.2,0.1,0.4,0.2c0.1,0.4,0.3,0.8,0.5,1.2
					c0.2,0.4,0.5,0.6,0.8,0.8c0.1,0.4,0.4,0.8,0.7,1c0.2,0.7,0.7,1.2,1.5,1.5c0,0,0.2,0.1,0.3,0.1c0,0,0,0,0,0c0,0,0,0,0,0
					c0.2,0.4,0.4,0.7,0.7,1.1c0.3,0.3,0.6,0.5,0.9,0.8c0.2,0.2,0.2,0.2,0,0c-0.2-0.2-0.2-0.2-0.1,0c0,0,0,0,0,0c0,0,0,0,0,0
					c0,0,0,0,0,0c0.1,0.1,0.2,0.4,0.2,0.4c0.4,0.7,1.1,1.3,1.9,1.8c0.1,0.4,0.4,0.8,0.7,1.1c0,0,0.1,0.1,0.1,0.1c0,0,0,0,0,0.1
					c0.4,1,1.2,1.4,2.1,1.7c0.2,0.2,0.4,0.4,0.6,0.6c0.2,0.5,0.5,0.9,1,1.1c0,0.1,0,0.2,0.1,0.2c0.4,0.7,1,1.3,1.8,1.7
					c0.1,0,0.2,0.1,0.2,0.1c0.1,0.1,0.3,0.3,0.4,0.4c0.2,0.1,0.4,0.2,0.6,0.3c0.3,0.5,0.8,1,1.3,1.4c0,0,0,0.1,0,0.1
					c0.1,0.6,0.5,1,0.9,1.3c0.2,0.9,1.1,1.5,2,1.5c0.1,0,0.2,0,0.3,0c0,0,0,0,0.1,0.1c0.1,0.1,0.2,0.2,0.3,0.3c0,0.1,0,0.1,0,0.2
					c0.1,0.7,0.8,1.4,1.5,1.6c0,0,0,0,0.1,0c0.2,0.2,0.3,0.4,0.6,0.5c0.3,0.2,0.5,0.3,0.8,0.3c0.3,0.2,0.6,0.4,0.9,0.5
					c0.5,0.8,1.1,1.5,2,1.9c0,0,0,0.1,0,0.1c0.1,0.7,0.8,1.4,1.5,1.6c0.3,0.1,0.6,0.2,0.8,0.3c0.1,0.5,0.4,0.9,0.9,1.2
					c0.3,0.2,0.6,0.4,1,0.5c0.3,0.4,0.6,0.8,1.1,0.9c0,0,0,0,0,0c0,0,0,0,0,0c0,0,0,0,0,0c0,0,0,0,0,0c0,0,0,0,0,0.1
					c0.1,0.1,0.1,0.1,0.2,0.1c-0.1-0.1-0.1-0.1-0.2-0.1c0,0,0,0.1,0,0.1c0,0.1,0.1,0.2,0.2,0.4c0.3,0.7,1,1.1,1.7,1.2
					c0.2,0.4,0.5,0.7,0.9,1c0.2,0.5,0.6,0.9,1.1,1.1c0.3,0.5,0.7,0.9,1.2,1.1c0,0,0.4,0.1,0.6,0.2c0.2,0.3,0.4,0.5,0.6,0.8
					c0.4,0.5,0.9,0.7,1.5,0.8c0.2,0.1,0.4,0.3,0.5,0.4c0.2,0.3,0.4,0.5,0.6,0.7c0.2,0.2,0.4,0.3,0.6,0.4c0.3,0.4,0.7,0.7,1.2,1
					c0.1,0,0.1,0.1,0.2,0.1c0.4,0.8,1,1.3,1.9,1.4c0.2,0.2,0.5,0.4,0.9,0.6c0.1,0,0.2,0.1,0.3,0.1c0.1,0.1,0.1,0.3,0.2,0.4
					c0.4,0.7,0.9,1.1,1.5,1.4c0.5,0.5,1,0.9,1.7,0.9c0.2,0,0.3,0,0.5,0c0,0,0,0,0.1,0c0.1,0.2,0.2,0.4,0.4,0.6
					c0.2,0.2,0.4,0.3,0.6,0.5c0.2,0.4,0.5,0.8,1,1.1c0.3,0.2,0.7,0.4,1,0.5c0.1,0,0.3,0.1,0.4,0.1c0,0,0.1,0.1,0.1,0.1c0,0,0,0,0,0
					c0.2,0.2,0.4,0.4,0.6,0.6c0.4,0.4,0.8,0.6,1.2,0.7c0.1,0.1,0.1,0.2,0.2,0.2c0.3,0.3,0.6,0.5,0.9,0.6c0.3,0.3,0.5,0.5,0.8,0.6
					c0.2,0.6,0.8,1,1.4,1.2c0,0,0.1,0,0.1,0c0.3,0.2,0.5,0.4,0.8,0.6c0.2,0.3,0.4,0.6,0.8,0.8c0.4,0.3,0.9,0.3,1.3,0.3
					c0.1,0.2,0.1,0.3,0.2,0.5c0.3,0.7,1.1,1.1,1.9,1.2c0.1,0,0.2,0,0.3,0c0.5,0.3,0.9,0.5,1.4,0.8c0.1,0.1,0.2,0.1,0.3,0.2
					c0.2,0.2,0.3,0.3,0.5,0.4c0.4,0.3,0.8,0.4,1.2,0.5c0.1,0.1,0.2,0.3,0.3,0.4c-0.1-0.1-0.2-0.2-0.2-0.2c0.1,0.1,0.1,0.2,0.2,0.3
					c0.6,0.9,1.2,1.3,2.1,1.4c0.5,0.7,1.3,1.2,2.3,1c0.3,0.4,0.6,0.7,1,0.9c0.5,0.4,1.1,0.6,1.6,0.7c0.4,0.6,1.1,1.1,1.8,1.1
					c0,0,0.1,0,0.1,0c0,0,0,0,0.1,0c0.5,0.5,1,0.7,1.6,1c-0.1-0.1-0.4-0.2,0.1,0.1c0.3,0.2,0.7,0.4,1,0.4c0,0,0.1,0,0.1,0
					c0.1,0.1,0.2,0.2,0.4,0.3c0.3,0.2,0.6,0.3,1,0.3c0.2,0.2,0.5,0.4,0.8,0.5c0.1,0,0.2,0.1,0.4,0.1c0.1,0.1,0.1,0.1,0.2,0.2
					c0.1,0.1,0.1,0.1,0.2,0.1c0.1,0.1,0.2,0.2,0.2,0.3c0.6,0.8,1.2,1.2,2.2,1.1c0.4,0.3,0.8,0.5,1.2,0.7c0.1,0,0.4,0.1,0.5,0.1
					c0,0,0,0,0,0c0.2,0.1,0.4,0.2,0.6,0.4c0.9,0.6,1.9,0.8,2.9,1c0.3,0.3,0.7,0.6,1.1,0.8c0.7,0.7,1.5,1.1,2.5,1
					c0.5,0.4,1.1,0.7,1.7,0.8c0.2,0.2,0.5,0.3,0.7,0.4c0.1,0.1,0.1,0.2,0.2,0.3c0.5,0.7,1.3,0.8,2.1,0.6c0.3,0.4,0.7,0.6,1.2,0.6
					c0.4,0.4,1,0.7,1.5,0.7c0,0,0,0,0,0c0.4,0.2,0.7,0.4,1.2,0.5c0.3,0.2,0.6,0.4,0.9,0.5c0.4,0.1,0.8,0.2,1.2,0.2
					c0.5,0.3,1,0.5,1.6,0.6c0,0,0,0,0,0c0.4,0.4,0.8,0.6,1.2,0.7c0.5,0.5,1.3,0.8,2,0.7c0.6,0.3,1.3,0.4,2,0.1c0,0,0,0,0,0
					c0.1,0,0.3,0.1,0.5,0.1c0,0,0.1,0,0.1,0c0.6,0.3,1.2,0.5,1.9,0.6c0.5,0.3,0.9,0.5,1.5,0.5c0.3,0,0.5,0,0.8,0
					c0.5,0.3,0.9,0.6,1.5,0.7c0.5,0.1,1.1,0.1,1.6,0.1c0.1,0,0.2,0.1,0.3,0.1c0.5,0.6,1.1,1,1.8,1c0.5,0.4,1.2,0.7,1.9,0.5
					c0.2,0,0.3-0.1,0.5-0.2c0,0.1,0.1,0.1,0.1,0.2c0.8,0.9,1.9,0.7,2.9,0.8c0.1,0,0.2,0,0.3,0c0,0,0,0,0.1,0
					c0.4,0.2,0.8,0.2,1.3,0.3c0.4,0,0.7,0.1,1.1,0.1c0.1,0.1,0.2,0.1,0.3,0.2c0.5,0.4,1.3,0.4,1.9,0.2c0.5,0.3,1,0.6,1.7,0.5
					c0.1,0,0.1,0,0.2,0c0,0,0,0,0.1,0c0.5,0.1,0.9,0.2,1.4,0.1c0.1,0,0.2,0,0.4-0.1c0.4,0.2,0.7,0.4,1.2,0.4c0.5,0.1,0.9,0,1.4-0.1
					c0.3,0.1,0.6,0.1,0.9,0.1c0.4,0,0.7,0,1,0c0.1,0,0.3,0,0.5,0c0,0,0.1,0,0.1,0c0.1,0.1,0.3,0.1,0.3,0.1c0.4,0.1,0.8,0.1,1.2,0
					c0.2,0.1,0.5,0.2,0.7,0.2c0.6,0.4,1.2,0.7,2,0.6c0.2,0,0.5-0.1,0.7-0.2c0.7,0.3,1.4,0.5,2.1,0.3c0.3-0.1,0.6-0.2,0.9-0.3
					c0.1,0,0.1,0.1,0.2,0.1c0.6,0.5,1.6,0.5,2.2,0.1c0.3,0.1,0.7,0.1,1,0.1c0.2,0,0.4,0,0.6-0.1c0.4,0.2,0.8,0.3,1.4,0.4
					c0.8,0,1.5-0.1,2.1-0.4c0.2,0,0.3,0,0.5,0c0.1,0.1,0.2,0.1,0.3,0.1c0.3,0.1,0.6,0.1,0.9,0.2c1,0.2,1.7-0.2,2.5-0.6
					c0.2,0.1,0.4,0.1,0.6,0.2c0.7,0.2,1.3,0.1,1.9-0.1c0.8,0.3,1.6,0.6,2.4,0.4c0.5-0.1,0.9-0.4,1.3-0.7c0.5,0.1,1.1-0.1,1.5-0.4
					c0.4,0.2,0.9,0.2,1.4,0.2c0.6-0.1,1-0.2,1.4-0.5c0.4,0,0.7,0,1.2-0.2c0.3-0.1,0.6-0.3,0.8-0.5c0,0,0,0,0,0
					c0.5,0,0.9-0.1,1.3-0.4c0,0,0.1,0,0.1-0.1c0.5,0.1,1.2-0.4,1.6-0.7c0,0,0.1-0.1,0.1-0.1c0,0,0,0,0,0c0,0,0,0-0.1,0.1
					c0.1,0,0.1,0,0.2-0.1c0.4-0.1,0.7-0.1,1-0.3c0.1,0,0.3,0,0.4,0c0.8,0.1,1.6-0.5,2-1.1c0.1,0,0.2-0.1,0.3-0.1
					c0.2-0.1,0.5-0.3,0.5-0.3c0.1,0,0.1,0,0.2-0.1c0.5-0.2,1.1-0.4,1.6-0.8c0.7,0,1.5-0.4,1.8-1c0.2-0.3,0.3-0.7,0.4-1
					c0.2-0.2,0.3-0.3,0.5-0.5c0.1-0.1,0.2-0.2,0.2-0.2c0.1,0,0.3-0.1,0.3-0.2c1-0.4,1.6-1,2.1-1.8c0.4-0.2,0.7-0.5,0.9-0.8
					c0.1-0.2,0.2-0.5,0.3-0.7c0.2-0.2,0.3-0.3,0.5-0.5c0.1,0,0.2-0.1,0.3-0.1c0.6-0.4,1.2-1.1,1.2-1.9c0.1-0.1,0.2-0.2,0.3-0.4
					c0.1,0,0.1-0.1,0.2-0.1c0.7-0.4,1.2-1.1,1.2-1.9c0-0.1,0-0.2,0-0.3c0-0.1,0.1-0.1,0.1-0.2c0.2-0.1,0.5-0.3,0.7-0.4
					c0.6-0.5,0.7-1.3,0.9-2c0-0.3,0.1-0.5,0.1-0.8c0,0,0,0,0,0c0,0,0,0,0,0C239.4,157.5,239.4,157.4,239.5,157.3z M45.6,25
					C45.6,25,45.6,25,45.6,25C45.9,24.6,45.7,24.9,45.6,25z M43.1,27.5C42.8,27.7,42.9,27.5,43.1,27.5L43.1,27.5z M32.5,56.7
					C32.6,56.7,32.6,56.7,32.5,56.7C32.6,56.7,32.6,56.7,32.5,56.7C32.6,56.8,32.6,56.7,32.5,56.7z M106.9,146.1
					c0.1,0,0.1,0.1,0.2,0.1c0,0,0,0,0,0C107,146.2,106.9,146.1,106.9,146.1z M107.1,146.3C107.1,146.3,107.1,146.3,107.1,146.3
					C107.1,146.3,107.1,146.3,107.1,146.3C107.1,146.3,107.1,146.3,107.1,146.3z M121.9,155.3C121.6,155.1,121.8,155.2,121.9,155.3
					L121.9,155.3z M122,155.4C122,155.4,122,155.4,122,155.4C122.1,155.4,122.1,155.4,122,155.4C122.1,155.4,122.1,155.4,122,155.4z
					 M221.4,175C221.4,175,221.4,175,221.4,175C221.6,174.9,221.6,174.9,221.4,175C221.4,175,221.4,175,221.4,175z M230.1,169.8
					C230.1,169.9,230.1,169.9,230.1,169.8C230.1,169.9,230.1,169.9,230.1,169.8z"/>
			</defs>
			<use xlink:href="#XMLID_32_"  style="overflow:visible;fill:#005944;"/>
			<clipPath id="XMLID_14_">
				<use xlink:href="#XMLID_32_"  style="overflow:visible;"/>
			</clipPath>
		</g>
		<path class="st4" d="M51.6,99.6c0.1,0.3,0.2,0.4,0.2,0.4C51.7,99.8,51.6,99.7,51.6,99.6C51.6,99.6,51.6,99.6,51.6,99.6z"/>
	</g>
	<g>
		<path class="st7" d="M197.2,66.8C197.2,66.9,197.2,66.9,197.2,66.8C197.2,67.1,197.2,67,197.2,66.8z"/>
		<path class="st7" d="M149.3,45.7C149.3,45.7,149.3,45.7,149.3,45.7C149.3,45.7,149.3,45.7,149.3,45.7
			C149.3,45.7,149.3,45.7,149.3,45.7z"/>
		<path class="st7" d="M198.4,61.2C198.4,61.1,198.4,61.1,198.4,61.2C198.4,61.1,198.4,61.1,198.4,61.2
			C198.4,61.1,198.4,61.1,198.4,61.2z"/>
		<g>
			<defs>
				<path id="XMLID_31_" d="M197.5,66.4c0.4-0.7,0.4-1.4,0.3-2.1c0.2-0.4,0.4-0.8,0.4-1.3c0-0.1,0-0.2,0-0.3
					c0.1-0.3,0.2-0.7,0.2-0.9c0,0,0-0.4,0-0.6c0,0.2-0.2,0.6,0,0.1c0-0.1,0-0.1,0-0.2c0,0,0,0,0,0c0,0,0,0,0,0c0-0.1,0-0.1,0-0.1
					c0-0.1,0.1-0.2,0.1-0.3c0,0,0,0,0,0c0.1-0.2,0.3-0.4,0.4-0.4c0.5-0.6,0.4-1.5,0.1-2.2c0-0.1-0.1-0.1-0.1-0.2
					c0-0.7,0.1-1.3,0-1.9c0.4-0.7,0.3-1.5-0.1-2.2c0.1-0.7,0.1-1.4-0.2-2.1c0-0.5,0-0.9-0.2-1.5c0-0.1-0.1-0.2-0.1-0.3
					c0.1-0.4,0.2-0.8,0.1-1.2c0-0.2-0.2-0.5-0.3-0.8c0-0.1,0-0.1-0.1-0.1c-0.2-0.6-0.3-1.1-0.5-1.7c0-0.4,0-0.7-0.1-1.1
					c0-0.1-0.1-0.2-0.2-0.3c0.1-0.6,0-1.4-0.5-1.8c-0.2-0.2-0.4-0.3-0.6-0.5c0,0,0,0,0-0.1c0-0.1,0.1-0.3,0.1-0.4
					c0-0.9-0.4-1.4-0.9-1.9c-0.1-0.3-0.3-0.7-0.5-0.9c-0.3-0.3-0.6-0.5-0.9-0.6c0,0-0.1-0.1-0.1-0.1c0.1-1.2-0.7-2.4-2.1-2.4
					c-0.1-0.1-0.1-0.1-0.2-0.2c-0.2-0.6-0.7-1.3-1.4-1.5c-0.4-0.1-0.8-0.2-1.1-0.2c-0.1-0.1-0.2-0.1-0.3-0.2c0,0,0,0,0,0
					c-0.2-1.1-1.5-1.9-2.6-1.7c-0.2-0.1-0.4-0.2-0.6-0.2c0,0,0-0.1-0.1-0.1c-0.5-0.6-1.3-0.8-2.1-0.6c-0.4-0.2-0.8-0.3-1.2-0.3
					c0,0,0,0,0,0c0,0,0,0,0,0c0,0-0.1-0.1-0.2-0.1c-0.1-0.1-0.2-0.2-0.3-0.3c-0.5-0.4-1.1-0.4-1.6-0.3c-0.5-0.2-1.1-0.3-1.7-0.1
					c-0.4-0.2-0.9-0.4-1.5-0.4c-0.2,0-0.4,0-0.4,0.1c-0.2,0-0.3-0.1-0.5-0.1c-0.4,0-0.8,0-1.2,0.1c-0.1,0-0.1,0-0.1,0c0,0,0,0,0,0
					c0,0,0,0,0,0c-0.1-0.1-0.2-0.1-0.3-0.1c0,0,0,0,0,0c-0.1-0.1-0.2-0.2-0.3-0.2c-0.6-0.3-1.1-0.4-1.7-0.3c-0.1,0-0.2,0-0.3,0.1
					c-0.2,0-0.4,0-0.5,0c-0.4,0-0.7,0.1-0.9,0.2c-0.5-0.3-1-0.5-1.8-0.4c-0.7,0.1-1.2,0.3-1.7,0.7c-0.3,0-0.6-0.1-0.9,0
					c-0.1-0.1-0.3-0.1-0.4-0.2c-0.7-0.2-1.4-0.1-2,0.4c0,0,0,0-0.1,0c-1-0.2-1.6,0.1-2.3,0.6c-0.1,0-0.3,0.1-0.4,0.1
					c-1.1-0.2-2.1-0.1-3,0.6c-0.3,0-0.5,0.1-0.8,0.2c-0.1,0-0.2,0.1-0.3,0.1c0,0,0,0,0,0c-0.6-0.2-1.3,0.3-1.7,0.8
					c-0.4,0.1-0.8,0.3-1.2,0.5c-0.1,0.1-0.2,0.1-0.3,0.2c0,0,0,0,0,0c-0.2,0-0.5,0.1-0.7,0.2c-0.5,0.2-1,0.5-1.5,0.7
					c-0.1,0.1-0.3,0.2-0.4,0.3c-0.6,0.1-1.2,0.5-1.5,1c-0.4,0.5-0.6,1-0.8,1.6c-0.3,0.3-0.5,0.6-0.7,1.1c0,0.1-0.1,0.3-0.1,0.4
					c0,0.1,0,0.1,0,0.1c-0.1,0.1-0.2,0.2-0.2,0.3c-0.5,0.8-0.4,1.6,0,2.4c0,0.5,0,1,0.1,1.5c0.2,0.8,0.4,1.5,0.7,2.2
					c0.2,0.4,0.4,0.8,0.8,1.1c0,0,0.1,0,0.1,0.1c0-0.1-0.1-0.1-0.1-0.2c0,0.1,0.1,0.1,0.1,0.2c0,0,0,0,0,0c0,0,0,0,0,0
					c0,0,0,0,0,0.1c0,0,0,0-0.1-0.1c0.1,0.8,0.5,1.4,1.1,1.9c0.1,0.2,0.2,0.4,0.3,0.5c0.2,0.3,0.5,0.5,0.8,0.8
					c0.1,0.2,0.2,0.3,0.4,0.5c0.1,0.6,0.3,1.2,1,1.7c0.1,0.1,0.2,0.1,0.3,0.2c0,0.1,0,0.1,0,0.2c0.1,0.8,0.8,1.3,1.5,1.6
					c0,0,0.1,0,0.1,0.1c0.1,0,0.1,0.1,0.1,0c0,0,0,0,0,0c0.3,0.4,0.5,0.8,0.9,1.1c0.1,0.1,0.2,0.1,0.3,0.2c0,0,0,0,0,0.1
					c0,0.1,0.1,0.3,0.2,0.3c0.2,0.5,0.5,1,0.8,1.4c0.3,0.4,0.6,0.7,1,0.9c0.3,0.8,0.9,1.3,1.7,1.4c0.1,0.1,0.1,0.1,0.2,0.2
					c0.2,0.1,0.4,0.2,0.5,0.3c0.2,0.3,0.4,0.6,0.7,0.9c0.3,0.3,0.6,0.5,0.9,0.6c0.1,0.2,0.2,0.5,0.3,0.7c0.3,0.9,1.3,1.2,2.1,1.2
					c0,0,0,0,0,0c0.2,0.2,0.3,0.4,0.5,0.5c0.3,0.7,0.8,1.3,1.5,1.5c0.4,0.5,1.1,0.9,1.7,0.9c0.1,0,0.2,0,0.4,0c0,0,0.1,0,0.2,0.1
					c0,0,0,0,0,0c0,0,0,0,0,0c0.3,0.5,0.6,0.8,1.1,1.2c0.5,0.3,1,0.5,1.5,0.6c0.2,0.2,0.4,0.4,0.6,0.6c0.3,0.2,0.7,0.3,1.1,0.4
					c0.1,0.1,0.1,0.2,0.1,0.1c0.1,0.1,0.1,0.2,0.2,0.2c0.4,0.4,0.9,0.6,1.5,0.7c0.3,0.2,0.5,0.4,0.8,0.5c0.1,0,0.2,0,0.3,0.1
					c0.5,0.5,1.1,0.8,1.8,0.8c0.7,0.5,1.5,0.8,2.5,1.1c0.1,0,0.2,0.1,0.3,0.1c0.1,0,0.2,0,0.3,0c0.1,0.1,0.2,0.2,0.3,0.2
					c0.5,0.2,0.9,0.4,1.4,0.6c0.6,0.5,1.2,0.8,2.1,0.7c0.1,0,0.5-0.1,0.5-0.1c0,0,0,0,0,0c0,0-0.1,0-0.1,0c-0.5,0.2,0,0,0.1,0
					c0,0,0.1,0,0.1,0c0.7,0.2,1.4,0.3,2.2,0.2c0.7,0.2,1.4,0.3,2.2,0c0.5-0.2,0.9-0.4,1.3-0.8c0,0,0,0,0,0c0.4,0,0.8,0,1.2-0.1
					c0.6-0.1,1.1-0.4,1.4-0.9c0.8-0.2,1.2-0.8,1.5-1.5c0.4-0.3,0.7-0.6,0.9-1.1c0.6-0.4,1-1,1.1-1.8c0-0.2,0.1-0.4,0.1-0.6
					c0.1-0.2,0.1-0.1,0.1,0.1c-0.1,0.2-0.1,0.2,0,0.1c0,0,0,0,0,0c0,0,0,0,0-0.1c0,0,0,0,0,0c0,0,0,0,0,0
					C197.4,66.7,197.4,66.5,197.5,66.4z M198.6,60.6c0,0.1-0.1,0.2-0.1,0.1C198.5,60.7,198.5,60.7,198.6,60.6z M174.3,29.5
					c0,0,0.1,0,0.1,0C174.4,29.5,174.3,29.5,174.3,29.5z M196.3,42c0-0.1,0-0.2,0-0.2C196.2,41.9,196.3,42,196.3,42z M174.6,29.5
					C174.6,29.5,174.6,29.5,174.6,29.5c0,0-0.1,0-0.2-0.1C174.5,29.4,174.6,29.5,174.6,29.5z M147.9,37.9c0,0,0-0.1,0-0.1
					C147.9,37.8,147.9,37.9,147.9,37.9z M149.4,45.8C149.4,45.8,149.4,45.8,149.4,45.8C149.4,45.8,149.4,45.8,149.4,45.8z"/>
			</defs>
			<use xlink:href="#XMLID_31_"  style="overflow:visible;fill:#096A52;"/>
			<clipPath id="XMLID_15_">
				<use xlink:href="#XMLID_31_"  style="overflow:visible;"/>
			</clipPath>
		</g>
	</g>
</g>
</svg>
