<?xml version="1.0" encoding="utf-8"?>
<!-- Generator: Adobe Illustrator 24.3.0, SVG Export Plug-In . SVG Version: 6.00 Build 0)  -->
<svg version="1.1" id="_x32_" xmlns="http://www.w3.org/2000/svg" xmlns:xlink="http://www.w3.org/1999/xlink" x="0px" y="0px"
	 viewBox="0 0 523.2 577.1" style="enable-background:new 0 0 523.2 577.1;" xml:space="preserve">
<style type="text/css">
	.st0{opacity:0.8;}
	.st1{fill:#F0867A;}
	.st2{fill:#747474;}
	.st3{fill:#C7C7C7;}
	.st4{fill:#818181;}
	.st5{fill:#F7E7D6;}
	.st6{fill:#A54038;}
	.st7{fill:#4C4C4C;}
	.st8{fill:#FFCD85;}
	.st9{fill:#DD544A;}
	.st10{opacity:0.35;fill:#FFFFFF;}
	.st11{opacity:0.8;fill:#FFFFFF;}
	.st12{opacity:0.7;fill:#FFFFFF;}
	.st13{fill:#606060;}
	.st14{clip-path:url(#SVGID_2_);fill:#E0B190;}
	.st15{clip-path:url(#SVGID_2_);fill:#D88A4B;}
	.st16{clip-path:url(#SVGID_2_);}
	.st17{clip-path:url(#SVGID_2_);fill:#E5D5C5;}
	.st18{clip-path:url(#SVGID_2_);fill:#E0A469;}
	.st19{clip-path:url(#SVGID_2_);fill:#544B47;}
	.st20{clip-path:url(#SVGID_2_);fill:#CB783C;}
	.st21{clip-path:url(#SVGID_2_);fill:#383532;}
	.st22{clip-path:url(#SVGID_2_);fill:#D0BFAD;}
	.st23{clip-path:url(#SVGID_2_);fill:#FFFFFF;}
	.st24{clip-path:url(#SVGID_2_);fill:#24211F;}
	.st25{clip-path:url(#SVGID_2_);fill:#263C5B;}
	.st26{clip-path:url(#SVGID_2_);fill:#5F554E;}
	.st27{clip-path:url(#SVGID_2_);fill:#A45E29;}
	.st28{clip-path:url(#SVGID_2_);fill:#B65E43;}
</style>
<g class="st0">
	<defs>
		
			<ellipse id="XMLID_1_" transform="matrix(0.9997 -2.478853e-02 2.478853e-02 0.9997 -12.8328 7.5558)" class="st0" cx="298.3" cy="521.4" rx="183.8" ry="24.3"/>
	</defs>
	<use xlink:href="#XMLID_1_"  style="overflow:visible;fill:#707070;"/>
	<clipPath id="XMLID_9_">
		<use xlink:href="#XMLID_1_"  style="overflow:visible;"/>
	</clipPath>
</g>
<path class="st1" d="M284.5,269.3c0,0,123.6-18,135.7,0s14.8,59.7-6,92.9c-20.8,33.2-135.3-9.9-143.4-40S284.5,269.3,284.5,269.3z"
	/>
<g>
	<polygon class="st2" points="385.8,483.6 450.3,458.9 375.8,503.2 309.3,528.8 	"/>
	<polygon class="st3" points="450.3,458.9 456,468.9 380.8,512.8 375.8,503.2 	"/>
	<polygon class="st4" points="375.8,503.2 380.8,512.8 313,540.1 309.3,528.8 	"/>
</g>
<path class="st1" d="M325.3,371.6"/>
<path class="st1" d="M295.5,267.8"/>
<g>
	<g>
		<path class="st5" d="M217.2,361.9c3.4,50.8,6.4,101.6,8.8,152.5c0.4,7.7,12.4,7.7,12,0c-2.4-50.8-5.4-101.7-8.8-152.5
			C228.7,354.2,216.7,354.2,217.2,361.9L217.2,361.9z"/>
	</g>
</g>
<path class="st6" d="M228.8,516.4l10.4-0.1c0,0,9.1,1,12.9,4.2c3.8,3.2-1.7,7.4-1.7,7.4l-25,0.5
	C225.5,528.4,219.8,516.5,228.8,516.4"/>
<path class="st1" d="M337.2,356.5c-6.9-9.7-13.2-27.6-20-53.5c-6.9-25.9-26.1-37.7-26.1-37.7l-10.2,6.2L302.9,373l19.9,106.4
	c30-1.1,51.1-10.5,53.8-36.9C382.2,387.3,344.1,366.2,337.2,356.5z"/>
<g>
	<defs>
		<path id="XMLID_12_" d="M171.9,290.4c0,0,1.8,69.7,4.2,80.8c2.4,11.1,5.1,36.3,71,25.9c65.9-10.4,58.1-35.3,58.1-35.3
			c-0.4-51.6-3.8-70.6-19.3-91.4L171.9,290.4z"/>
	</defs>
	
		<linearGradient id="XMLID_10_" gradientUnits="userSpaceOnUse" x1="222.9236" y1="385.5037" x2="219.5982" y2="507.2118" gradientTransform="matrix(0.9002 -0.4354 0.4354 0.9002 -149.6024 43.2067)">
		<stop  offset="0" style="stop-color:#FFD6BB"/>
		<stop  offset="1" style="stop-color:#F7E7D6"/>
	</linearGradient>
	<use xlink:href="#XMLID_12_"  style="overflow:visible;fill:url(#XMLID_10_);"/>
	<clipPath id="XMLID_11_">
		<use xlink:href="#XMLID_12_"  style="overflow:visible;"/>
	</clipPath>
</g>
<g>
	<g>
		<path class="st7" d="M401.6,335.4c0.6,16,1.2,31.9,1.8,47.9c0.1,1.9,3.1,1.9,3,0c-0.6-16-1.2-31.9-1.8-47.9
			C404.5,333.5,401.5,333.5,401.6,335.4L401.6,335.4z"/>
	</g>
</g>
<g>
	<g>
		<path class="st7" d="M410.9,341.6c-2.1,9.4-4.2,18.8-6.3,28.1c-0.4,1.9,2.5,2.7,2.9,0.8c2.1-9.4,4.2-18.8,6.3-28.1
			C414.2,340.5,411.3,339.7,410.9,341.6L410.9,341.6z"/>
	</g>
</g>
<g>
	<g>
		<path class="st7" d="M396,348.5c-1.2,10.4-2.4,20.7-3.6,31.1c-0.2,1.9,2.8,1.9,3,0c1.2-10.4,2.4-20.7,3.6-31.1
			C399.3,346.6,396.3,346.6,396,348.5L396,348.5z"/>
	</g>
</g>
<g>
	<g>
		<path class="st7" d="M411.4,347.5c0.3,8.5,1,16.9,2,25.3c0.2,1.9,3.2,1.9,3,0c-1-8.4-1.7-16.9-2-25.3
			C414.3,345.6,411.3,345.6,411.4,347.5L411.4,347.5z"/>
	</g>
</g>
<g>
	<g>
		<path class="st7" d="M431.5,332.9c-4.1,18.2-5.8,37-4.9,55.7c0.4,8.2,0.6,17.3,5.8,24.2c1.2,1.6,2.5,3.1,3.3,4.9
			c0.9,2,1,4.1,1,6.3c-0.1,4.7-0.5,9.4-0.7,14.1c-0.6,11-1.2,21.9-1.8,32.9c-0.1,1.9,2.9,1.9,3,0c0.5-9.6,1-19.3,1.6-28.9
			c0.3-4.8,0.5-9.6,0.8-14.5c0.2-4.2,0.5-8.6-1.7-12.3c-1-1.7-2.3-3.2-3.4-4.8c-1.2-1.7-2-3.5-2.6-5.4c-1.3-4-1.6-8.2-1.9-12.3
			c-0.6-9.2-0.6-18.5,0-27.7c0.7-10.5,2.2-21,4.6-31.3C434.8,331.8,431.9,331,431.5,332.9L431.5,332.9z"/>
	</g>
</g>
<g>
	<g>
		<path class="st7" d="M409.7,487.2c0.6-11.5,1.9-22.9,4.1-34.2c0.4-1.9-2.5-2.7-2.9-0.8c-2.2,11.6-3.6,23.3-4.2,35
			C406.6,489.1,409.6,489.1,409.7,487.2L409.7,487.2z"/>
	</g>
</g>
<g>
	<g>
		<path class="st7" d="M402.1,491c0.4-13.2,2.8-26.2,7-38.7c0.6-1.8-2.3-2.6-2.9-0.8c-4.2,12.8-6.7,26.1-7.1,39.5
			C399.1,492.9,402.1,492.9,402.1,491L402.1,491z"/>
	</g>
</g>
<g>
	<g>
		<path class="st7" d="M414.8,483.2c-4.4-6.3-7.8-13.2-9.7-20.7c-0.5-1.9-3.4-1.1-2.9,0.8c1.9,7.7,5.4,15,10,21.5
			C413.3,486.2,415.9,484.7,414.8,483.2L414.8,483.2z"/>
	</g>
</g>
<g>
	<g>
		<path class="st7" d="M464,311.1c0.6,12.1,10.7,20.6,15,31.3c0.7,1.8,3.6,1,2.9-0.8c-2.2-5.4-5.6-10.2-8.7-15.1
			c-3-4.7-5.9-9.7-6.2-15.3C466.9,309.1,463.9,309.1,464,311.1L464,311.1z"/>
	</g>
</g>
<g>
	<g>
		<path class="st7" d="M453.5,464.6c1.1-9,6.3-16.8,12.5-23c1.4-1.4-0.7-3.5-2.1-2.1c-6.9,6.8-12.3,15.3-13.4,25.1
			C450.3,466.5,453.3,466.5,453.5,464.6L453.5,464.6z"/>
	</g>
</g>
<g>
	<g>
		<path class="st7" d="M449.7,463.4c1.2-6.4,3.2-12.7,5.9-18.7c0.3-0.7,0.2-1.6-0.5-2.1c-0.6-0.4-1.7-0.2-2.1,0.5
			c-2.7,6.2-4.9,12.7-6.2,19.4C446.4,464.5,449.3,465.3,449.7,463.4L449.7,463.4z"/>
	</g>
</g>
<g>
	<g>
		<path class="st8" d="M466.3,365.5c-1.3,1.8-2.6,3.5-3.9,5.3c-1,1.4-2.8,3.2-1.9,5c0.8,1.7,2.8,1.7,4.4,1.9
			c2.2,0.2,4.4,0.4,6.6,0.6c-0.4-0.9-0.7-1.7-1.1-2.6c-3.1,3.7-6.4,7.2-9.9,10.5c-1.4,1.3,0.7,3.4,2.1,2.1c3.5-3.3,6.8-6.8,9.9-10.5
			c0.9-1,0.3-2.4-1.1-2.6c-1.7-0.2-3.3-0.3-5-0.5c-0.8-0.1-1.5-0.1-2.3-0.2c-0.2,0-0.7-0.2-0.9-0.1c-0.1,0-0.2,0-0.3-0.1
			c0,0.4,0.1,0.5,0.2,0.3c0.2-0.1,0.4-0.5,0.5-0.7c0.2-0.3,0.5-0.7,0.7-1c0.5-0.7,1-1.3,1.4-2c1-1.3,1.9-2.7,2.9-4
			c0.5-0.7,0.1-1.7-0.5-2.1C467.6,364.5,466.8,364.8,466.3,365.5L466.3,365.5z"/>
	</g>
</g>
<g>
	<g>
		<path class="st8" d="M379.1,402.3c0.5,1.3,0.9,2.6,1.4,3.8c0.4,1.2,0.8,2.4,1.3,3.5c1.1,2.2,3.6,3,5.5,1.3c0.4-0.3,0.7-0.7,1-1.1
			c0.2-0.2,0.4-0.3,0.5-0.5c0.1-0.2,0.4-0.1,0.1-0.2c0.3,0.1,0.5,1.3,0.6,1.5c0.2,0.6,0.5,1.2,0.7,1.9c0.9,2.5,1.7,5.1,2.3,7.7
			c0.5,1.9,3.4,1.1,2.9-0.8c-0.7-2.6-1.4-5.1-2.3-7.7c-0.7-2.1-1.4-5.8-4.3-5.5c-1.2,0.1-2.2,1-2.9,1.9c-0.4,0.5-0.8,1.2-1.2,0.5
			c-0.6-0.9-0.9-2.1-1.2-3.1c-0.5-1.3-1-2.7-1.4-4C381.3,399.7,378.4,400.4,379.1,402.3L379.1,402.3z"/>
	</g>
</g>
<g>
	<g>
		<path class="st8" d="M347.4,350c0.3,1.8,0.7,3.5,1,5.3c0.3,1.5,0.6,4,2.7,3.5c0.8-0.2,1.4-0.7,2-1.2c0.7-0.5,1.4-1,2-1.6
			c1.4-1.1,2.9-2.2,4.3-3.3c-0.8-0.4-1.5-0.9-2.3-1.3c0.6,4.9,1,9.9,1,14.9c0,1.9,3,1.9,3,0c0-5-0.3-9.9-1-14.9
			c-0.1-1-1.2-2.1-2.3-1.3c-1.3,1-2.6,2-4,3c-0.6,0.5-1.3,1-1.9,1.5c-0.3,0.3-0.7,0.5-1,0.8c-0.2,0.2-0.5,0.5-0.7,0.5
			c0.3,0,0.5,0,0.8,0c0,0,0,0,0,0c0.2,0.2,0.4,0.4,0.5,0.5c-0.2-0.3-0.2-1-0.3-1.4c-0.1-0.6-0.2-1.3-0.4-1.9
			c-0.2-1.3-0.5-2.6-0.7-3.9c-0.2-0.8-1.1-1.2-1.8-1C347.6,348.4,347.3,349.2,347.4,350L347.4,350z"/>
	</g>
</g>
<g>
	<g>
		<path class="st8" d="M494.8,280.7c-4.4,5.3-8,11.1-10.7,17.5c-0.3,0.8,0.4,1.6,1,1.8c2.8,1,5.4-0.3,8.2-0.7c0.3,0,0.7,0,1-0.1
			c0.1,0,0.3,0,0.4,0c-0.3-0.5-0.5-0.5-0.6-0.2c-0.2,0.2-0.4,0.8-0.5,1.1c-0.2,0.5-0.4,0.9-0.6,1.4c-0.7,1.7-1.5,3.3-2.2,5
			c-0.8,1.7,1.8,3.3,2.6,1.5c0.9-2.1,1.9-4.2,2.8-6.3c0.7-1.5,1.9-3.6,0.1-4.9c-1.4-1-3.6-0.4-5.2-0.1c-1.7,0.4-3.5,1.1-5.2,0.4
			c0.3,0.6,0.7,1.2,1,1.8c2.4-5.9,5.8-11.3,9.9-16.2C498.1,281.3,496,279.2,494.8,280.7L494.8,280.7z"/>
	</g>
</g>
<g>
	<g>
		<path class="st5" d="M271.2,381.1c14,0.8,27.8,3.6,41,8.4c12.5,4.5,24.3,10.2,30.3,22.7c5.9,12.4,4.9,27.1,2.6,40.2
			c-2.5,14.3-6.8,28.3-11.1,42.1c-2.3,7.4,9.3,10.6,11.6,3.2c8.8-28.6,21.7-64.4,6.6-93.1c-7.2-13.7-20.2-20.5-34.1-25.8
			c-15-5.7-30.8-8.9-46.8-9.8C263.5,368.7,263.5,380.7,271.2,381.1L271.2,381.1z"/>
	</g>
</g>
<path class="st6" d="M334.1,493.9l10.2-2.4c0,0,9.1-1.1,13.5,1.3c4.4,2.4,0,7.5,0,7.5l-24.3,5.9
	C333.4,506.2,325.2,495.9,334.1,493.9"/>
<path class="st9" d="M187.8,317.1c0,0,34.9-16.4,67.6-10c0,0,21.6-19.6,45.9-13.3c0,0,13.3,37,7.7,64.7c-5,25,38.6,10.9,46,31
	c7.4,20,9.5,44.3,0,78.1c0,0-23.2,17.4-62.8,17.4s-73.8,15.3-87.6,23.7c0,0,14.8-64.6-5.3-109.8L187.8,317.1z"/>
<path class="st1" d="M207.7,409.5c0,0,15.5,66,3.4,101.9c0,0-6.4,10.5-35.3,1.8c-28.9-8.7-0.4-54.6,0.1-64.5
	c0.6-9.9-5.5-40.6-5.5-40.6S205.5,398.5,207.7,409.5"/>
<g>
	<polygon class="st4" points="367.3,257.9 357.2,258 450.2,201.9 460.3,201.9 	"/>
</g>
<g>
	<polygon class="st2" points="382.2,369.6 372.1,369.6 357.2,258 367.3,257.9 	"/>
</g>
<path class="st3" d="M460.3,201.9l-93,56.1l14.8,111.7l91.4-60L460.3,201.9z M443,284.4c-0.5,2.1-3.4,2.5-5.1,2.5
	c-0.5,0-1-0.1-1.4-0.2c0.4,0.6,0.7,1.3,1,2c0.6,1.6,1.5,4.5,0.3,6c-1.5,2-3.7-0.7-4.7-1.8c-0.6-0.7-1.1-1.4-1.6-2.1
	c-0.4,3.6-1.9,7-4.4,9.6c-0.6,0.6-1.4,0.2-1.7-0.4c-0.6-1.4-0.9-2.9-1.1-4.4c-0.5,0.9-1,1.7-1.7,2.5c-1.5,1.9-4.3,5.3-7.2,4.3
	c-2.8-0.9-2.2-4.7-1.5-6.9c-0.2,0.1-0.5,0.3-0.7,0.4c-2.4,1.2-6.7,2.2-8.6-0.5c-1.7-2.5,0.8-5.7,2.7-7.4c1-0.9,2.2-1.7,3.4-2.4
	c-1.2,0-2.4-0.1-3.6-0.4c-1.8-0.3-4.8-1.2-4.4-3.6c0.4-2.5,4.1-2.3,5.9-2.5c2.2-0.2,4.3-0.2,6.5-0.1c-1.4-1.1-2.6-2.4-3.6-3.9
	c-1.1-1.7-2.8-5.6-0.2-6.9c1.2-0.6,2.6-0.2,3.8,0.2c1.3,0.4,2.6,0.9,3.7,1.6c1.7,1,3.3,2.2,4.5,3.8c0.3-1.2,0.8-2.3,1.4-3.3
	c0.8-1.5,2.3-3.7,4.1-4c3.4-0.5,3.2,4.7,2.8,8c3.1-1.7,6.6-2.6,10.2-2.5c0.9,0,1.3,1.1,0.7,1.7c-1.9,1.9-3.9,3.5-6.2,4.9
	c1.1,0.2,2.2,0.6,3.2,1.2C441,280.6,443.5,282.3,443,284.4z"/>
<path class="st5" d="M444.1,277.2c-0.2-1.6-0.2-3.3-0.7-4.8c-0.9-3-3.5-4.1-6.4-4.2c-3.2,0-6.4,0.3-9.6,0.6c-3.4,0.4-7.3,0.5-9,3.9
	c-1.6,3.2-2.3,7-2.5,10.6c0,1.2,0.9,1.9,1.8,1.9c0.4,1.1,0.8,2.2,1.5,3c2.1,2.5,6,1.1,8.7,0.7c3.3-0.6,6.6-1.3,9.9-2.1
	c1.5-0.4,3.1-0.7,4.5-1.4c1.5-0.7,2.1-2,2.1-3.7C444.4,280.3,444.2,278.7,444.1,277.2z M428,273C427.6,272.8,428,272.8,428,273
	L428,273z"/>
<path class="st5" d="M432.2,285.1c-0.6,0.6-0.9,0.8-1.4,1.2c-0.7,0.5-1.4,0.9-2.2,1.3c-1.4,0.8-2.6,1.3-4.2,1.7
	c-0.2,0.1-0.4,0.1-0.6,0.1c0.2,0-0.4,0-0.2,0c0,0,0.2,0.2,0,0c-0.1-0.1-0.1,0-0.2-0.2c-0.2-0.3-0.4-0.7-0.6-1
	c0.1-0.3,0.2-0.5,0.2-0.8c0-0.5-0.2-1-0.6-1.4c-0.9-0.9-1.9-1.9-2.8-2.8c-0.3-0.3-0.7-0.5-1.1-0.6c-0.1,0-0.3-0.1-0.4-0.1
	c-0.5,0-1.1,0.2-1.4,0.6c-0.1,0.1-0.2,0.3-0.3,0.5c0,0,0,0.1-0.1,0.1c0,0,0,0.1,0,0.1c-0.2,0.4-0.2,0.9,0,1.5c0,0,0,0.1,0,0.1
	c0,0.1,0,0.1,0.1,0.2c0,0,0,0,0,0.1c0,0,0,0,0,0.1c0.8,1.3,1.7,2.6,2.5,3.9c0.6,0.9,1.1,2,1.9,2.8c1.1,1,2.5,1.2,3.9,0.9
	c1.9-0.3,3.8-1.2,5.5-2.1c1.7-0.9,3.4-1.9,4.7-3.3C436.8,286.1,434,283.3,432.2,285.1z"/>
<path class="st10" d="M375.3,309c0-4.2-2.8-7.7-6.7-8.7c0.4-1.3,0.6-2.8,0.6-4.2c0-7.9-6.4-14.3-14.3-14.3
	c-7.9,0-14.3,6.4-14.3,14.3c0,1.7,0.3,3.4,0.9,4.9c-8.6,2.6-14.8,10.5-14.8,19.9c0,1.6,0.2,3.1,0.5,4.6c-4.5,1.8-7.5,5-7.3,8.6
	c0.3,5.1,6.8,8.9,14.5,8.5c2.7-0.1,5.2-0.8,7.2-1.8c1.8,0.5,3.8,0.8,5.8,0.8c0.3,0,0.7,0,1,0c1.4,0.2,2.8,0.3,4.2,0.3
	c10.3,0,18.7-5.1,18.7-11.3c0-2.4-1.3-4.7-3.5-6.5c0.2-1,0.3-2.1,0.3-3.2c0-1-0.1-2-0.2-3C372.2,317,375.3,313.3,375.3,309z"/>
<path class="st11" d="M393.5,334.1c-1.3-0.2-2.9-0.4-4.7-0.6c0.1-0.2,0.1-0.5,0.1-0.7c0-3.1-6.6-5.5-14.8-5.5s-14.8,2.5-14.8,5.5
	c0,0.5,0.2,0.9,0.5,1.4c-2.8,0.5-4.4,1.1-4.4,1.7c0,0.4,0.6,0.8,1.7,1.1c-3.5,0.3-5.5,0.6-5.5,1c0,0.6,5.3,1.1,13.1,1.4
	c-0.2,0.2-0.2,0.5-0.2,0.7c0,1.9,5.4,3.4,12.1,3.4s12.1-1.5,12.1-3.4c0-0.3-0.1-0.5-0.3-0.8c5.6-0.2,9.5-0.6,10.5-1.1
	c1.8-0.4,2.9-1.1,2.9-1.8C401.6,335.3,398.1,334.3,393.5,334.1z"/>
<path class="st12" d="M520.6,367.2c0-0.2,0-0.4,0-0.5c0-2-1.5-3.8-3.8-4.8c0.4-1.3,0.6-2.6,0.6-4c0-8.3-7.7-15-17.2-15
	c-7.8,0-14.3,4.5-16.5,10.6c-4,0.8-7.2,4.1-7.8,8.2c-7.9,0.6-14.1,2-16.7,3.7c-12.3,0.5-21.2,2-21.2,3.7c0,0.7,1.4,1.3,3.8,1.9
	c-12.5,0-22.4,0.5-22.4,1c0,0.6,11,1,24.7,1c5.6,0,10.7-0.1,14.8-0.2c3.1,0.1,6.4,0.2,9.8,0.2c3.7,0,7.2-0.1,10.4-0.2
	c1.7,0.1,3.5,0.1,5.3,0.1c0.3,0,0.6,0,1,0c0,0,0.1,0,0.1,0c0,0,0.1,0,0.1,0c3.5,0,6.9-0.2,10-0.5c1.4,0.3,2.9,0.5,4.5,0.5
	c2.1,0,4.1-0.3,6-1c2.5,0.6,6.2,0.9,10.2,0.9c7.6,0,13.8-1.3,13.8-2.9C530.3,368.7,526.2,367.6,520.6,367.2z"/>
<path class="st11" d="M485.1,380.5c0.6-0.5,1-1.1,1-1.8c0-0.6-0.3-1.1-0.7-1.5c0.5-0.9,0.7-1.9,0.7-2.9c0-4-3.9-7.3-8.7-7.3
	c-3.4,0-6.3,1.6-7.7,4c-3.3,0.1-5.9,2.3-5.9,5.1c0,0.6,0.1,1.3,0.4,1.8c-2.2,0.4-3.6,0.9-3.6,1.6c0,0.1,0,0.1,0.1,0.2
	c-4.3,0.1-7.7,0.4-7.7,0.8c0,0.4,4,0.8,8.9,0.8c1.2,0,2.4,0,3.4-0.1c1.6,0.2,3.5,0.3,5.5,0.3c1.6,0,3.2-0.1,4.5-0.2
	c0.7,0.1,1.4,0.2,2.1,0.2c0.6,0,1.2-0.1,1.8-0.2c1.2,0.1,2.8,0.2,4.6,0.2c3.5,0,6.4-0.2,6.4-0.5C490.2,380.7,488,380.5,485.1,380.5z
	"/>
<g>
	<path class="st1" d="M132.8,338.1c0,0,31.3-10.8,59.4-19.3l0,0c0,0-4.1-18.6-4.8-32.3c0,0-87.3,26-94.3,66.8
		c-1.2,6.7-1.1,13.4,0.1,19.7C91.2,349.4,132.8,338.1,132.8,338.1z"/>
	<path class="st1" d="M222.1,310.6c-8,1.8-18.7,4.8-29.9,8.2l-59.4,19.3c0,0-41.6,11.3-39.5,34.8c0,0,0,0.1,0,0.1
		c6.1,31.9,41,55.8,91.4,44.8C245.1,404.7,250.4,304.2,222.1,310.6z"/>
</g>
<rect x="316.3" y="527.9" transform="matrix(0.9307 -0.3657 0.3657 0.9307 -170.7911 155.5126)" class="st13" width="17.8" height="1.6"/>
<rect x="338.1" y="521.2" transform="matrix(0.9307 -0.3657 0.3657 0.9307 -167.3276 161.0182)" class="st13" width="6.7" height="2.1"/>
<rect x="345.4" y="518.3" transform="matrix(0.9307 -0.3657 0.3657 0.9307 -165.7749 163.4865)" class="st13" width="6.7" height="2.1"/>
<rect x="352.6" y="515.5" transform="matrix(0.9307 -0.3657 0.3657 0.9307 -164.2416 165.9238)" class="st13" width="6.7" height="2.1"/>
<g>
	<defs>
		<path id="XMLID_5_" d="M114.7,76c23.1,11.2,32.6,39.1,21.4,62.1s-55.9,41.5-79,30.3c-23.1-11.2-32.6-39.1-21.4-62.1
			S91.7,64.7,114.7,76z"/>
	</defs>
	<use xlink:href="#XMLID_5_"  style="overflow:visible;fill:#A05C2D;"/>
	<clipPath id="XMLID_13_">
		<use xlink:href="#XMLID_5_"  style="overflow:visible;"/>
	</clipPath>
</g>
<g>
	<defs>
		<path id="XMLID_4_" d="M325,187.7c12.4,62.9-39.8,101.2-107.9,109.5c-68.6,8.3-123.3-15.6-131.2-80.5
			c-6.7-55.4,41.3-106.9,107.3-114.9C259.3,93.8,314.1,132.9,325,187.7"/>
	</defs>
	<use xlink:href="#XMLID_4_"  style="overflow:visible;fill:#F7E7D6;"/>
	<clipPath id="XMLID_14_">
		<use xlink:href="#XMLID_4_"  style="overflow:visible;"/>
	</clipPath>
</g>
<g>
	<defs>
		<path id="XMLID_2_" d="M339.7,185.5c0,0,0-0.1,0-0.1c-0.3-1.8-0.6-3.6-1-5.4c-0.3-1.5-0.7-3.1-1.1-4.7c-3.7-19-7.1-31.7-7.1-31.7
			c-9.5-37.4-51.8-78.4-124-75c-59.6,2.8-77.9,29.9-82.5,39.2c-10.3,1.9-18.6,6.6-25.3,13.4c-14.6,12.4-29.7,35.5-28.1,78
			c0.3,8.6,1,16.3,2.1,23c7.1,45.6,29.1,50.9,37.4,51.2l0,0c2,0.1,3.2-0.1,3.2-0.1s-8.9-25.7-2.9-47.9l0,0
			c48.4-6.7,90.2-56.6,90.2-56.6c3.8,10.5-5.1,21.2-5.1,21.2c25.5-7.2,31.3-41.6,31.3-41.6c32.2-13.4,55.1,11.6,55.1,11.6
			s10,8.2,18.7,29.2c0.4,0.9,0.8,1.8,1.1,2.8c0,0,12.1,31.2,11.7,57.1C313.4,249.2,347.2,239.9,339.7,185.5z"/>
	</defs>
	<use xlink:href="#XMLID_2_"  style="overflow:visible;fill:#A05C2D;"/>
	<clipPath id="XMLID_15_">
		<use xlink:href="#XMLID_2_"  style="overflow:visible;"/>
	</clipPath>
</g>
<g>
	<defs>
		
			<rect id="SVGID_1_" x="69.1" y="22" transform="matrix(0.9699 -0.2434 0.2434 0.9699 -33.9515 55.9717)" width="280.9" height="286.6"/>
	</defs>
	<clipPath id="SVGID_2_">
		<use xlink:href="#SVGID_1_"  style="overflow:visible;"/>
	</clipPath>
	<path class="st14" d="M328.7,220.1c-6.4-25.3-55.4-34.8-109.7-21.2c-54.2,13.6-93,45.2-86.7,70.5c4,15.9,24.8,25.5,53.2,27.1
		c4.7,1.7,15.9,5.7,19.3,7.2c4.4,1.9,1.9-4.1,8.6-5.6c6.7-1.5,7.9,4.6,7.9,4.6s3.7-6.3,8-7.7c4.3-1.4,9.1,6,9.1,6l3.8-9.4
		c0.3-0.8,1.3-1,1.9-0.5l7.8,6.5c0,0,0.8-8.8,5.2-9.6c4.5-0.8,10.7,3,10.7,3s-1.8-5.9,4.8-7.8c6.6-1.9,7.3,4.6,10.2,0.9
		c2.7-3.5,13.7-15.5,15-17C320.1,252.7,332.5,235.3,328.7,220.1"/>
	<path class="st15" d="M286.4,234.1c-24.3,3.2-52.7,12.8-56.4,14.1c-0.3,0.1-0.5,0.2-0.8,0.2c-3.8,0.6-33.4,5.5-56.4,14.2
		c-14.1,5.3-17.3,13.2-17.5,19c-0.1,3.2,2.7-1.7,6.4-3.2c1.8-0.7,3.9-1.3,6.4-1.6c2.3-0.2,4.1,0.7,5.5,2.1c2.3,2.3,8.1,8.8,10.2,6
		c1.4-1.7,3.1-3.3,5.5-4.3c6.8-3,11.6-0.5,14.9,3.4c2.1,2.5,6.9,2.1,9.2-0.7c1-1.3,2.3-2.3,3.9-3.1c5.7-2.6,13.9,2.6,18.8,6.4
		c2.1,1.6,5,0.9,6-1.5c2.5-5.7,7.2-14.1,13.5-14.5c1.8-0.1,3.5,0.2,4.9,0.9c3.3,1.5,7.8-0.5,8.4-3.7c1-5,4.1-9.5,11.5-10
		c2.6-0.2,4.9,0.3,6.9,1.2c3.2,1.4,4.5-6.8,5.4-9.9c0.6-1.9,1.7-3.6,3.8-4.5c2.3-1,4.5-1.4,6.4-1.6c3.9-0.4,9.5,2.4,7.9-0.4
		C307.9,237.6,301.3,232.1,286.4,234.1"/>
	<g class="st16">
		<defs>
			<path id="XMLID_8_" d="M230.9,250.7c7.9,6.1,18,8.7,27.9,6.3c18.1-4.5,28.7-24.4,23.7-44.3c-3.3-13.2-6.7-14.5-49.3-59.4
				c0.2,0.1,0.3,0.3,0.5,0.4c-0.1-0.2-0.3-0.5-0.4-0.8l-0.2,0.3c-8-7.6-5.5-22,5-24.7l16.6-4.2c13.4-3.4,24.6-15.7,28.8-36.3
				c16.2,15.3,28.6,35.7,34.5,59.4c2.5,9.9,2.7,20.9,11.7,35.6l0,0c4,6.7,10.2,13.8,17.5,18.9c-5.7,1.9-12.2,2.2-18.5,0.4
				c0.2,12.2,3.5,24.6,9.5,35.3c-6.6-0.4-12.8-2.9-17.6-7c0.4,8.8,2.5,17.5,5.7,25.3c-4.6,0.1-9.3-0.9-13.6-2.9c-4.2-2-8.1-5-10.9-9
				c-5.5,8.1-13.4,13.7-22.5,16L192.6,282c-9.1,2.3-18.7,1.1-27.4-3.5c-0.7,4.9-2.6,9.3-5.4,13.1c-2.8,3.8-6.5,6.8-10.6,8.9
				c-0.8-8.4-3.1-17-6.9-25c-2.3,5.9-6.6,11-12.2,14.4c0.3-12.2-2.7-24.7-8.2-35.6c-4.6,4.6-10.5,7.4-16.5,8.4
				c4-7.9,6.2-17.2,6.5-24.9l0,0c1-17.2-4-27-6.5-36.9c-6-23.8-4.7-47.6,2.4-68.7c13.5,16.3,29.1,21.8,42.5,18.4l16.6-4.2
				c10.5-2.6,19.5,8.9,16,19.4l-0.3-0.2c0,0.3,0,0.6,0,0.9c0.1-0.2,0.1-0.4,0.2-0.6c-16.4,59.6-18.7,62.4-15.4,75.6
				c5,19.9,23.7,32.4,41.8,27.8C219.2,266.9,226.9,259.8,230.9,250.7"/>
		</defs>
		<use xlink:href="#XMLID_8_"  style="overflow:visible;fill:#F4D5BD;"/>
		<clipPath id="XMLID_16_">
			<use xlink:href="#XMLID_8_"  style="overflow:visible;"/>
		</clipPath>
	</g>
	<path class="st17" d="M183.3,60.7c0.2,0,0.4-0.1,0.6-0.1c9.7-2.4,19.4-3.4,29-3c-9.5-0.4-19.2,0.6-28.8,3
		C183.8,60.6,183.5,60.7,183.3,60.7c-0.2,0.1-0.5,0.2-0.7,0.2c-9.6,2.4-18.6,6.1-26.8,10.9c8.3-4.8,17.3-8.6,26.9-11
		C182.9,60.8,183.1,60.7,183.3,60.7"/>
	<path class="st18" d="M231,250.8c8.7,6.6,19.7,8.9,29.9,5.5c2.3,9.1-2.6,18.3-10.9,20.3l-23.6,5.9c-8.3,2.1-16.9-3.6-19.2-12.8
		C217.8,267.9,226.5,260.7,231,250.8"/>
	<path class="st19" d="M355.3,193c0.1,0.5-0.1,1.1-0.6,1.2l-72.3,18.1c-0.2-0.6-0.3-1.3-0.5-1.9l72.4-18.2
		C354.7,192.1,355.2,192.5,355.3,193"/>
	<path class="st19" d="M94.1,258.6c0.1,0.5,0.6,0.9,1.1,0.7l72.3-18.1c-0.2-0.6-0.3-1.3-0.4-1.9l-72.4,18.2
		C94.2,257.5,93.9,258,94.1,258.6"/>
	<path class="st19" d="M352.7,206.9c0.1,0.5-0.1,1.1-0.6,1.2l-68.5,17.2c0-0.7,0.1-1.4,0.1-2.1l68-17.1
		C352.1,206,352.6,206.3,352.7,206.9"/>
	<path class="st19" d="M102.9,269.6c0.1,0.5,0.6,0.9,1.1,0.7l68.5-17.2c-0.4-0.6-0.7-1.2-1.1-1.8l-68,17.1
		C103.1,268.5,102.8,269,102.9,269.6"/>
	<path class="st19" d="M350.1,220.7c0.1,0.5-0.1,1.1-0.6,1.2l-69.7,17.5c0.4-0.7,0.7-1.5,1-2.3L349,220
		C349.5,219.9,350,220.2,350.1,220.7"/>
	<path class="st19" d="M111.8,280.6c0.1,0.5,0.6,0.9,1.1,0.7l69.7-17.5c-0.7-0.5-1.3-1-2-1.5l-68.2,17.1
		C111.9,279.5,111.6,280,111.8,280.6"/>
	<g class="st16">
		<defs>
			<path id="XMLID_6_" d="M183.3,60.7c0.2-0.1,0.5-0.1,0.7-0.2c36.3-9.1,73,2.4,99.6,27.5c0,0,0,0,0,0c-4.2,20.7-15.4,33-28.8,36.3
				l-16.6,4.2c-10.5,2.6-13,17-5,24.7l0.2-0.3c0.1,0.3,0.3,0.5,0.4,0.8c-0.2-0.1-0.3-0.3-0.5-0.4c42.6,44.8,46,46.2,49.3,59.4
				c5,19.9-5.6,39.7-23.7,44.3c-9.9,2.5-20-0.1-27.9-6.3c-4.1,9.2-11.8,16.2-21.7,18.7c-18.1,4.5-36.8-7.9-41.8-27.8
				c-3.3-13.2-1-16,15.4-75.6c-0.1,0.2-0.1,0.4-0.2,0.6c0-0.3,0-0.6,0-0.9l0.3,0.2c3.5-10.5-5.6-22-16-19.4l-16.6,4.2
				c-13.4,3.4-29.1-2.2-42.5-18.4c0,0,0,0,0,0c11.6-34.6,38.5-62.2,74.8-71.3C182.8,60.8,183,60.8,183.3,60.7"/>
		</defs>
		<use xlink:href="#XMLID_6_"  style="overflow:visible;fill:#D88A4B;"/>
		<clipPath id="XMLID_17_">
			<use xlink:href="#XMLID_6_"  style="overflow:visible;"/>
		</clipPath>
	</g>
	<path class="st15" d="M268.1,75.7c1.1,0.8,2.3,1.5,3.4,2.3C270.4,77.3,269.3,76.5,268.1,75.7"/>
	<path class="st15" d="M115.6,114c-0.6,1.2-1.3,2.4-1.9,3.6C114.3,116.4,114.9,115.2,115.6,114"/>
	<path class="st15" d="M237,61.4l-0.2,0.3c0-0.1,0-0.2,0-0.3C236.8,61.3,236.9,61.3,237,61.4"/>
	<path class="st15" d="M136.2,86.6l0.3,0.2c0-0.1-0.1-0.2-0.1-0.3C136.3,86.5,136.3,86.6,136.2,86.6"/>
	<path class="st15" d="M282.2,93.5c0.3-1.1,0.6-2.2,0.8-3.3l-0.7,3.3L282.2,93.5z"/>
	<path class="st15" d="M111.5,136.4c-0.8-0.8-1.5-1.6-2.3-2.5l2.2,2.6L111.5,136.4z"/>
	<path class="st20" d="M289.5,48.1c2.3,9.1,1,14.8-5.9,40c-15-14.2-33.3-24-53-28.3L241.8,42C253.7,21.9,283.1,22.9,289.5,48.1"/>
	<path class="st20" d="M83.7,99.7c2.3,9.1,6.1,13.5,24.1,32.5c6.5-19.6,18-36.9,33.3-49.9l-18.2-10.4
		C102.9,59.8,77.4,74.5,83.7,99.7"/>
	<path class="st21" d="M283.7,49.5c1.4,5.5-0.7,17.7-5.8,33.5c-7-5.8-14.5-10.7-22.5-14.6c0.8-6.9,3.9-13.3,8.8-17.7
		c-4.7,0.5-9,2.2-12.5,4.7c2.4-7.1,7.4-12.7,13.7-15.6c-5.2-1.1-10.2-0.6-14.6,1c2.8-2.8,6.2-4.7,10-5.7
		C269.5,32.9,280.4,36.5,283.7,49.5"/>
	<path class="st21" d="M89.5,98.2c1.4,5.5,9,15.2,20.9,26.8c3.4-8.4,7.8-16.3,13-23.5c-3.9-5.8-9.7-9.8-16.1-11.5
		c4.4-1.8,9-2.3,13.3-1.7c-5.4-5.1-12.5-7.7-19.5-7.3c4.1-3.4,8.7-5.4,13.3-6c-3.8-1.1-7.7-1.2-11.5-0.3
		C94.1,76.9,86.2,85.2,89.5,98.2"/>
	<path class="st19" d="M230.9,250.6c7.9,6.1,17.9,8.7,27.8,6.3c0.7-0.2,1.5-0.3,2.2-0.6c0.3,1.4-12.9,5.4-26.4,8.8
		c-13.5,3.4-27.1,6.1-27.4,4.7c0.7-0.1,1.5-0.4,2.2-0.6C219.2,266.8,226.8,259.8,230.9,250.6"/>
	<path class="st22" d="M266.4,132c3,12-3.4,23.9-14.3,26.7c-6.7,1.7-13.6-0.5-18.6-5.3c-2.3-4.2-2.4-9.2-0.7-13.2
		c1.4-3.3,4-6,7.6-6.9c3.1-0.8,15.1-3.8,15.5-3.9c0.8-0.2,1.7-0.5,2.5-0.8c1.9-0.6,3.8-1.5,5.7-2.5C265.1,128,265.9,130,266.4,132"
		/>
	<path class="st22" d="M143.7,162.9c3,12,14.3,19.5,25.2,16.8c6.7-1.7,11.7-6.9,13.9-13.4c0-4.8-2.2-9.2-5.6-12
		c-2.8-2.3-6.3-3.4-10-2.5c-3.1,0.8-15.1,3.8-15.5,3.9c-0.8,0.2-1.7,0.4-2.6,0.5c-2,0.3-4.1,0.5-6.2,0.5
		C142.9,158.7,143.1,160.8,143.7,162.9"/>
	<path class="st23" d="M260.5,133.5c2.1,8.4-2.4,16.7-10,18.7c-7.6,1.9-15.5-3.3-17.6-11.7c0-0.1,0-0.1,0-0.2c1.4-3.3,4-6,7.6-6.9
		c3.1-0.8,15.1-3.8,15.5-3.9c0.8-0.2,1.7-0.5,2.5-0.8C259.3,130.2,260,131.8,260.5,133.5"/>
	<path class="st23" d="M149.6,161.4c2.1,8.4,10,13.6,17.6,11.7s12.1-10.3,10-18.7c0-0.1,0-0.1-0.1-0.2c-2.8-2.3-6.3-3.4-10-2.5
		c-3.1,0.8-15.1,3.8-15.5,3.9c-0.8,0.2-1.7,0.4-2.6,0.5C149,157.9,149.2,159.6,149.6,161.4"/>
	<path class="st24" d="M251.6,138.5c0.7,2.8-0.8,5.5-3.3,6.1s-5.1-1.1-5.8-3.9c-0.7-2.8,0.8-5.5,3.3-6.1S250.9,135.7,251.6,138.5"/>
	<path class="st24" d="M159.7,161.5c0.7,2.8,3.3,4.5,5.8,3.9c2.5-0.6,4-3.4,3.3-6.1c-0.7-2.8-3.3-4.5-5.8-3.9
		C160.5,156,159,158.8,159.7,161.5"/>
	<path class="st25" d="M233.3,152.9c0.1,0.3,0.3,0.5,0.4,0.8c-0.2-0.1-0.3-0.3-0.5-0.4l-0.1-0.1L233.3,152.9z"/>
	<path class="st25" d="M182.8,165.6c0,0.3,0,0.6,0,0.9c0.1-0.2,0.1-0.4,0.2-0.6l0-0.1L182.8,165.6z"/>
	<path class="st25" d="M241.8,133l-1.4,0.4c0.2-0.1,0.5-0.1,0.7-0.2C241.4,133.1,241.6,133,241.8,133"/>
	<path class="st25" d="M165.8,152.1l1.4-0.4c-0.2,0-0.5,0.1-0.7,0.2C166.2,152,166,152,165.8,152.1"/>
	<path class="st23" d="M251.7,136.2c0.3,1.2-0.3,2.3-1.4,2.6c-1.1,0.3-2.1-0.5-2.4-1.6c-0.3-1.2,0.3-2.3,1.4-2.6
		C250.3,134.4,251.4,135.1,251.7,136.2"/>
	<path class="st23" d="M158.6,159.6c0.3,1.2,1.4,1.9,2.4,1.6c1.1-0.3,1.7-1.4,1.4-2.6c-0.3-1.2-1.4-1.9-2.4-1.6
		C159,157.3,158.4,158.4,158.6,159.6"/>
	<path class="st19" d="M228,239.1c0.5-0.1,1,0.2,1.1,0.7l5.3,21.2c0.1,0.5-0.2,1-0.6,1.1c-0.5,0.1-1-0.2-1.1-0.7l-5.3-21.2
		C227.3,239.7,227.6,239.2,228,239.1"/>
	<path class="st19" d="M242.5,235.7c-0.6,0.1-1.1-0.2-1.3-0.9c-0.2-0.6,0.2-1.2,0.7-1.4c0.6-0.1,1.1,0.2,1.3,0.9
		C243.4,235,243.1,235.6,242.5,235.7"/>
	<path class="st19" d="M213.7,242.9c0.6-0.1,0.9-0.8,0.7-1.4c-0.2-0.6-0.7-1-1.3-0.9c-0.6,0.1-0.9,0.8-0.7,1.4
		C212.5,242.7,213.1,243.1,213.7,242.9"/>
	<path class="st19" d="M254.3,232.8c-0.6,0.1-1.1-0.2-1.3-0.9c-0.2-0.6,0.2-1.2,0.7-1.4c0.6-0.1,1.1,0.2,1.3,0.9
		C255.2,232,254.9,232.6,254.3,232.8"/>
	<path class="st19" d="M201.9,245.9c0.6-0.1,0.9-0.8,0.7-1.4c-0.2-0.6-0.7-1-1.3-0.9c-0.6,0.1-0.9,0.8-0.7,1.4
		C200.8,245.7,201.3,246,201.9,245.9"/>
	<path class="st19" d="M266.1,229.8c-0.6,0.1-1.1-0.2-1.3-0.9c-0.2-0.6,0.2-1.2,0.7-1.4c0.6-0.1,1.1,0.2,1.3,0.9
		C267,229,266.7,229.7,266.1,229.8"/>
	<path class="st19" d="M190.1,248.9c0.6-0.1,0.9-0.8,0.7-1.4c-0.2-0.6-0.7-1-1.3-0.9c-0.6,0.1-0.9,0.8-0.7,1.4
		C189,248.6,189.5,249,190.1,248.9"/>
	<path class="st19" d="M277.9,226.8c-0.6,0.1-1.1-0.2-1.3-0.9c-0.2-0.6,0.2-1.2,0.7-1.4c0.6-0.1,1.1,0.2,1.3,0.9
		C278.8,226.1,278.4,226.7,277.9,226.8"/>
	<path class="st19" d="M178.3,251.8c0.6-0.1,0.9-0.8,0.7-1.4c-0.2-0.6-0.7-1-1.3-0.9c-0.6,0.1-0.9,0.8-0.7,1.4
		C177.2,251.6,177.8,252,178.3,251.8"/>
	<path class="st19" d="M245.3,221.8c-0.6,0.1-1.1-0.2-1.3-0.9c-0.2-0.6,0.2-1.2,0.7-1.4c0.6-0.1,1.1,0.2,1.3,0.9
		C246.2,221,245.8,221.7,245.3,221.8"/>
	<path class="st19" d="M204.7,232c0.6-0.1,0.9-0.8,0.7-1.4c-0.2-0.6-0.7-1-1.3-0.9c-0.6,0.1-0.9,0.8-0.7,1.4
		C203.5,231.7,204.1,232.1,204.7,232"/>
	<path class="st19" d="M257.1,218.8c-0.6,0.1-1.1-0.2-1.3-0.9c-0.2-0.6,0.2-1.2,0.7-1.4c0.6-0.1,1.1,0.2,1.3,0.9
		C258,218.1,257.6,218.7,257.1,218.8"/>
	<path class="st19" d="M192.9,235c0.6-0.1,0.9-0.8,0.7-1.4c-0.2-0.6-0.7-1-1.3-0.9c-0.6,0.1-0.9,0.8-0.7,1.4
		C191.7,234.7,192.3,235.1,192.9,235"/>
	<path class="st19" d="M268.9,215.9c-0.6,0.1-1.1-0.2-1.3-0.9c-0.2-0.6,0.2-1.2,0.7-1.4c0.6-0.1,1.1,0.2,1.3,0.9
		C269.8,215.1,269.4,215.7,268.9,215.9"/>
	<path class="st19" d="M181.1,237.9c0.6-0.1,0.9-0.8,0.7-1.4c-0.2-0.6-0.7-1-1.3-0.9c-0.6,0.1-0.9,0.8-0.7,1.4
		C179.9,237.7,180.5,238.1,181.1,237.9"/>
	<path class="st19" d="M248.1,247.5c-0.6,0.1-1.1-0.2-1.3-0.9c-0.2-0.6,0.2-1.2,0.7-1.4c0.6-0.1,1.1,0.2,1.3,0.9
		C249,246.8,248.6,247.4,248.1,247.5"/>
	<path class="st19" d="M214.4,256c0.6-0.1,0.9-0.8,0.7-1.4c-0.2-0.6-0.7-1-1.3-0.9c-0.6,0.1-0.9,0.8-0.7,1.4S213.8,256.1,214.4,256"
		/>
	<path class="st19" d="M259.9,244.6c-0.6,0.1-1.1-0.2-1.3-0.9c-0.2-0.6,0.2-1.2,0.7-1.4c0.6-0.1,1.1,0.2,1.3,0.9
		C260.7,243.8,260.4,244.4,259.9,244.6"/>
	<path class="st19" d="M202.6,259c0.6-0.1,0.9-0.8,0.7-1.4c-0.2-0.6-0.7-1-1.3-0.9c-0.6,0.1-0.9,0.8-0.7,1.4
		C201.4,258.7,202,259.1,202.6,259"/>
	<path class="st19" d="M271.6,241.6c-0.6,0.1-1.1-0.2-1.3-0.9c-0.2-0.6,0.2-1.2,0.7-1.4c0.6-0.1,1.1,0.2,1.3,0.9
		C272.5,240.9,272.2,241.5,271.6,241.6"/>
	<path class="st19" d="M190.8,261.9c0.6-0.1,0.9-0.8,0.7-1.4c-0.2-0.6-0.7-1-1.3-0.9c-0.6,0.1-0.9,0.8-0.7,1.4
		S190.2,262.1,190.8,261.9"/>
	<path class="st21" d="M283.6,88.1c1.8,22.5-12.8,37.7-27.7,41.4c-0.3,0.1-12.4,3.1-15.5,3.9c-8,2.1-11.2,12.6-6.8,20.3
		c-8.7-7.5-6.3-22.5,4.4-25.2l16.6-4.2C268,121,279.4,108.8,283.6,88.1"/>
	<path class="st21" d="M107.8,132.2c9,20.7,29,27.2,43.9,23.4c0.3-0.1,12.4-3.1,15.5-3.9c8.1-2,15.8,5.8,15.6,14.7
		c4.1-10.7-5.1-22.8-15.8-20.1l-16.6,4.2C137,153.9,121.2,148.4,107.8,132.2"/>
	<path class="st26" d="M233.7,153.7c-1.3-1.1-2.3-2.3-3.1-3.7c0.9,1.3,1.9,2.4,3,3.4C233.6,153.5,233.6,153.6,233.7,153.7"/>
	<path class="st26" d="M182.8,166.5c0.6-1.5,0.9-3.1,1-4.7c-0.2,1.5-0.5,3-1,4.4C182.8,166.3,182.8,166.4,182.8,166.5"/>
	<path class="st27" d="M256.7,105.9c-7.7,4.5-15.3,2.8-22.6,7.9c-4.6,3.2-6.4,11.2-5.3,15.6c0.4-3.7,4.4-13.1,13.9-14.2
		c10.8-1.3,15.2-2.6,20-6.8c6.9-6,9.9-14.1,9.1-22.6C269.1,96.1,265.1,101,256.7,105.9"/>
	<path class="st27" d="M139.9,135.2c8.9,0.3,14.8-4.8,23.7-3.7c5.5,0.7,11,6.9,12.1,11.2c-2.1-3.1-10-9.5-18.9-6
		c-10.2,4-14.6,4.9-20.8,3.5c-8.9-2-15.4-7.7-18.7-15.6C124.3,132.5,130.1,134.8,139.9,135.2"/>
	<path class="st27" d="M202.7,138.2c0.2-0.9,0.4-1.9,0.6-2.9c0.3-1.1,0.6-2.2,0.9-3.2c12.3-38.5,48.7-15.1,49.1-57.7
		c-4,15-10.6,19.9-20.4,24.1c-8.8,3.8-17.9,1.7-28.8,13c-1.4,1.5-2.8,3.3-3.7,5.8c0-4,0.8-7.9,2.5-11.6c-0.8,0.6-1.5,1.2-2.1,1.9
		c2.3-9.8-3.5-25.1-13.2-29.6c-6.4,8.6-4.4,24.8,2.3,32.3c-0.9-0.3-1.8-0.5-2.8-0.7c3.2,2.4,5.8,5.5,7.6,9c-2-1.7-4.1-2.7-6-3.3
		c-14.9-4.8-21.9,1.3-31.5,2.1c-10.5,0.9-18.7-0.3-29.3-11.6c20.4,37.4,41.5-0.4,70.5,27.7c0.8,0.8,1.6,1.6,2.3,2.4
		C201.5,136.7,202.1,137.5,202.7,138.2"/>
	<path class="st27" d="M206.6,102.8c13.9-15.2,35-4.5,35.3-33c-2.8,10.5-7.7,12.8-14.5,15.7c-4.8,2.1-10.4,1.8-16.4,5.4
		c-4-13.7-13.8-24-24.8-23.7C197.5,69.6,204.7,85.5,206.6,102.8"/>
	<path class="st27" d="M182.5,108.8c-19.4-6.8-33,12.6-46.7-12.4c7.4,7.9,12.8,7.6,20.2,7c5.2-0.4,10-3.4,17-2.9
		c-3-13.9,0.9-27.7,10.7-32.6C174.9,75.3,176.1,92.7,182.5,108.8"/>
	<path class="st27" d="M261.2,78.6c0.8,10.3-4.7,19.7-13.3,23.1C259.7,103.6,267.7,89.8,261.2,78.6"/>
	<path class="st27" d="M123.1,113.3c4.2,9.5,13.4,15.1,22.6,14.1C136.1,134.6,122.6,126.2,123.1,113.3"/>
	<path class="st27" d="M214.8,168.5c10.4-2,13.5-16.4,5.2-24.1C223.3,153.1,221.1,162.8,214.8,168.5"/>
	<path class="st27" d="M206.4,170.6c-10.1,3.1-19.7-8.1-15.9-18.8C191.6,161.1,198.1,168.6,206.4,170.6"/>
	<path class="st27" d="M210.8,134.8c0.8,0.1,1.5,0.1,2.2,0.1c-6.7,4.9-8.4,16-1.7,23.5c-4.1-13.2,3.6-19.1,7.9-23.1
		c6.1-5.6,7.3-15,3.1-21.8C223.2,122.8,218.5,131.4,210.8,134.8"/>
	<path class="st27" d="M194,139c-0.6,0.4-1.3,0.8-1.9,1.1c8.2,1.1,15,10.2,12.6,19.9c-2.6-13.5-12.2-15.1-17.9-16.6
		c-8-2-13.5-9.8-13-17.8C177.4,134.3,185.6,139.7,194,139"/>
	<path class="st27" d="M215.1,81.8c8.4,0.6,16.9-5,19.3-14.5c-4.2,4.7-10.1,7.8-16.4,7.5c-2.8-6.6-7.7-11.2-15.3-10.7
		C210.2,67.2,213.1,75,215.1,81.8"/>
	<path class="st27" d="M165.1,94.3c-7.1,4.5-17.3,3.6-23.8-3.7c5.9,2.2,12.6,2.1,18-1.1c-0.7-7.1,1.5-13.5,8.4-16.7
		C162.6,79.2,163.8,87.4,165.1,94.3"/>
	<path class="st26" d="M263.7,158.3c10.3-7.4,14.9-20.8,11.2-33.6C286.7,136.9,280.1,157.6,263.7,158.3"/>
	<path class="st26" d="M158.5,184.8c-12.6-1.6-22.9-11.3-25.7-24.4C128.1,176.7,143.7,191.9,158.5,184.8"/>
	<path class="st26" d="M268.7,172.9c22.8-12.5,23.8-29.2,17.5-51.2C303.7,142.2,296.1,171.1,268.7,172.9"/>
	<path class="st26" d="M160.9,200c-26-0.2-34.8-14.5-39.5-36.9C115.6,189.4,135.9,211.3,160.9,200"/>
	<path class="st26" d="M310.8,149.4c-1.9-11.3-6.4-24.9-13-30.5c10.6,23.6,9.7,53.8-15.9,67c11.4-1.7,20.5-7.4,26.3-14.9
		c6.6,15.9,16.8,19.2,19.7,19.6C316.3,177.4,313,162.4,310.8,149.4"/>
	<path class="st26" d="M112.7,199.1c-3.7-10.9-6.1-25-2.9-33c1.8,25.8,16.9,52,45.7,51.6c-10.9,3.9-21.6,3.1-30.2-0.7
		c1.7,17.1-5.7,24.8-8.1,26.6C121.1,226.4,116.9,211.6,112.7,199.1"/>
	<path class="st28" d="M221.1,211.6c0.7,0,1.4-0.2,2-0.3c1.5-0.4,2.8-1.5,3.5-3c1.3-2.9,0.4-0.9,2.7-5.8c1.4-3,3.3-4.6,5.9-5.3
		c4.6-1.2,7.6-5.7,7.2-10.7c5.8,5.8,4.8,15.4-1.1,19.5c-0.6-1.6-2.3-2.5-3.8-2.1c-1.7,0.4-2.8,2.3-2.3,4.2c0.3,1.1,1,1.9,1.9,2.4
		c-2.4,5.2-7,15.2-7,15.2l2.6,10.3l-3.5,7.7l-6.7-5.1l-2.6-10.3c0,0-8.7-6.6-13.3-10.1c0.6-0.8,0.8-1.9,0.5-3
		c-0.5-1.9-2.3-3.1-4-2.7c-1.6,0.4-2.6,2-2.4,3.7c-7.1-0.8-12.6-8.8-10.2-16.7c2.1,4.6,6.8,7.2,11.4,6.1c2.5-0.6,5.1-0.1,7.7,1.9
		c4.3,3.3,2.5,1.9,5.1,3.9c1.3,1,3,1.4,4.5,1C219.9,212.1,220.5,211.9,221.1,211.6"/>
</g>
</svg>
