<?xml version="1.0" encoding="utf-8"?>
<!-- Generator: Adobe Illustrator 24.3.0, SVG Export Plug-In . SVG Version: 6.00 Build 0)  -->
<svg version="1.1" id="bg_1_" xmlns="http://www.w3.org/2000/svg" xmlns:xlink="http://www.w3.org/1999/xlink" x="0px" y="0px"
	 viewBox="0 0 1000 670" style="enable-background:new 0 0 1000 670;" xml:space="preserve">
<style type="text/css">
	.st0{clip-path:url(#SVGID_2_);}
	.st1{fill:#271B2B;}
	.st2{clip-path:url(#SVGID_3_);}
	.st3{clip-path:url(#SVGID_4_);}
	.st4{clip-path:url(#SVGID_5_);}
	.st5{clip-path:url(#SVGID_6_);}
	.st6{clip-path:url(#SVGID_14_);}
	.st7{clip-path:url(#SVGID_15_);}
	.st8{clip-path:url(#SVGID_16_);fill:url(#螢幕_1_);}
	
		.st9{clip-path:url(#SVGID_16_);fill:none;stroke:url(#亮邊_1_);stroke-width:20;stroke-linecap:round;stroke-linejoin:round;stroke-miterlimit:10;}
	.st10{opacity:0.3;fill:url(#地板_4_);}
	.st11{fill:url(#地板_x2B__1_);}
	.st12{fill:#4A0B35;}
	.st13{clip-path:url(#XMLID_6_);fill:#583270;}
	.st14{clip-path:url(#XMLID_7_);fill:#9F747A;}
	.st15{clip-path:url(#XMLID_8_);fill:#E5B483;}
	.st16{fill:#111111;}
	.st17{fill:url(#SVGID_17_);}
	.st18{enable-background:new    ;}
	.st19{clip-path:url(#SVGID_18_);}
	.st20{fill:#FFB67B;}
	.st21{clip-path:url(#SVGID_19_);}
	.st22{clip-path:url(#SVGID_20_);}
	.st23{fill:url(#SVGID_21_);}
	.st24{clip-path:url(#SVGID_23_);}
	.st25{clip-path:url(#SVGID_25_);}
	.st26{clip-path:url(#SVGID_27_);}
	.st27{fill:url(#SVGID_28_);}
	.st28{fill:#34183D;}
	.st29{fill:url(#SVGID_30_);}
	.st30{fill:#583270;}
	.st31{fill:url(#SVGID_32_);}
	.st32{fill:url(#SVGID_34_);}
	.st33{fill:url(#SVGID_35_);}
	.st34{fill:url(#SVGID_36_);}
	.st35{fill:url(#SVGID_37_);}
	.st36{fill:url(#SVGID_38_);}
	.st37{opacity:0.6;clip-path:url(#SVGID_2_);}
	.st38{fill:url(#SVGID_39_);}
</style>
<g>
	<defs>
		<rect id="SVGID_1_" width="1000" height="670"/>
	</defs>
	<clipPath id="SVGID_2_">
		<use xlink:href="#SVGID_1_"  style="overflow:visible;"/>
	</clipPath>
	<g id="牆壁_1_" class="st0">
		<rect id="天空_1_" x="-10" y="0.7" class="st1" width="1024" height="325.6"/>
	</g>
	<g id="門口外" class="st0">
		<defs>
			<path id="SVGID_7_" d="M283.5,233.9h-65.2c-1.3,0-2.4-1.6-2.4-3.5v-54.8c0-1.9,1.1-3.5,2.4-3h65.2c1.3-0.5,2.4,1.1,2.4,3v54.8
				C285.9,232.3,284.8,233.9,283.5,233.9z"/>
		</defs>
		<defs>
			<path id="SVGID_8_" d="M677.8-0.6H326.3c-5.5,0-10,4-10,8.9v216.4c0,4.2,4.5,7.7,10,8.4h351.5c5.5-0.8,10-4.2,10-8.4V8.3
				C687.8,3.4,683.3-0.6,677.8-0.6z"/>
		</defs>
		<defs>
			<path id="SVGID_9_" d="M784.7,172.6h-64.2c-1.6-0.5-2.9,1.1-2.9,3v54.8c0,1.9,1.3,3.5,2.9,3.5h64.2c1.6,0,2.9-1.6,2.9-3.5v-54.8
				C787.6,173.7,786.3,172.1,784.7,172.6z"/>
		</defs>
		<defs>
			<path id="SVGID_10_" d="M283.5,156.4h-65.2c-1.3,0-2.4-1.6-2.4-3.5V98.1c0-1.9,1.1-3.5,2.4-3h65.2c1.3-0.5,2.4,1.1,2.4,3v54.8
				C285.9,154.8,284.8,156.4,283.5,156.4z"/>
		</defs>
		<defs>
			<path id="SVGID_11_" d="M784.7,95.1h-64.2c-1.6-0.5-2.9,1.1-2.9,3v54.8c0,1.9,1.3,3.5,2.9,3.5h64.2c1.6,0,2.9-1.6,2.9-3.5V98.1
				C787.6,96.2,786.3,94.6,784.7,95.1z"/>
		</defs>
		<defs>
			<path id="SVGID_12_" d="M283.5,78.9h-65.2c-1.3,0-2.4-1.6-2.4-3.5V20.6c0-1.9,1.1-3.5,2.4-3h65.2c1.3-0.5,2.4,1.1,2.4,3v54.8
				C285.9,77.4,284.8,78.9,283.5,78.9z"/>
		</defs>
		<defs>
			<path id="SVGID_13_" d="M784.7,17.6h-64.2c-1.6-0.5-2.9,1.1-2.9,3v54.8c0,1.9,1.3,3.5,2.9,3.5h64.2c1.6,0,2.9-1.6,2.9-3.5V20.6
				C787.6,18.7,786.3,17.2,784.7,17.6z"/>
		</defs>
		<clipPath id="SVGID_3_">
			<use xlink:href="#SVGID_7_"  style="overflow:visible;"/>
		</clipPath>
		<clipPath id="SVGID_4_" class="st2">
			<use xlink:href="#SVGID_8_"  style="overflow:visible;"/>
		</clipPath>
		<clipPath id="SVGID_5_" class="st3">
			<use xlink:href="#SVGID_9_"  style="overflow:visible;"/>
		</clipPath>
		<clipPath id="SVGID_6_" class="st4">
			<use xlink:href="#SVGID_10_"  style="overflow:visible;"/>
		</clipPath>
		<clipPath id="SVGID_14_" class="st5">
			<use xlink:href="#SVGID_11_"  style="overflow:visible;"/>
		</clipPath>
		<clipPath id="SVGID_15_" class="st6">
			<use xlink:href="#SVGID_12_"  style="overflow:visible;"/>
		</clipPath>
		<clipPath id="SVGID_16_" class="st7">
			<use xlink:href="#SVGID_13_"  style="overflow:visible;"/>
		</clipPath>
		<linearGradient id="螢幕_1_" gradientUnits="userSpaceOnUse" x1="502.0366" y1="-107.9169" x2="502.0366" y2="326.3267">
			<stop  offset="0" style="stop-color:#B33BDB"/>
			<stop  offset="0.1392" style="stop-color:#C260C0"/>
			<stop  offset="0.285" style="stop-color:#CF7EAA"/>
			<stop  offset="0.4386" style="stop-color:#D99699"/>
			<stop  offset="0.6011" style="stop-color:#E0A78D"/>
			<stop  offset="0.7788" style="stop-color:#E4B185"/>
			<stop  offset="1" style="stop-color:#E5B483"/>
		</linearGradient>
		<rect id="螢幕" x="-10" y="-107.9" class="st8" width="1024" height="434.2"/>
		<linearGradient id="亮邊_1_" gradientUnits="userSpaceOnUse" x1="502.0366" y1="231.985" x2="502.0366" y2="-40.4847">
			<stop  offset="0" style="stop-color:#B33BDB;stop-opacity:0"/>
			<stop  offset="5.788147e-03" style="stop-color:#B43ED9;stop-opacity:5.788147e-03"/>
			<stop  offset="8.728069e-02" style="stop-color:#C66AC3;stop-opacity:8.728069e-02"/>
			<stop  offset="0.1745" style="stop-color:#D590B0;stop-opacity:0.1745"/>
			<stop  offset="0.2676" style="stop-color:#E2B09F;stop-opacity:0.2676"/>
			<stop  offset="0.3676" style="stop-color:#EDCA92;stop-opacity:0.3676"/>
			<stop  offset="0.477" style="stop-color:#F5DF88;stop-opacity:0.477"/>
			<stop  offset="0.6007" style="stop-color:#FBED81;stop-opacity:0.6007"/>
			<stop  offset="0.7507" style="stop-color:#FEF57C;stop-opacity:0.7507"/>
			<stop  offset="1" style="stop-color:#FFF87B"/>
		</linearGradient>
		<path id="亮邊" class="st9" d="M687.8,222V-21.9c0-4.7-4.5-8.6-10-8.6H326.3c-5.5,0-10,3.8-10,8.6V222"/>
	</g>
	<g id="地板_2_" class="st0">
		<g id="地板_3_">
			<rect id="地板" x="-10" y="327.3" class="st1" width="1024" height="344.2"/>
			<linearGradient id="地板_4_" gradientUnits="userSpaceOnUse" x1="502.0366" y1="327.3267" x2="502.0366" y2="671.5368">
				<stop  offset="0" style="stop-color:#B33BDB"/>
				<stop  offset="0.1392" style="stop-color:#C260C0"/>
				<stop  offset="0.285" style="stop-color:#CF7EAA"/>
				<stop  offset="0.4386" style="stop-color:#D99699"/>
				<stop  offset="0.6011" style="stop-color:#E0A78D"/>
				<stop  offset="0.7788" style="stop-color:#E4B185"/>
				<stop  offset="1" style="stop-color:#E5B483"/>
			</linearGradient>
			<rect id="地板_1_" x="-10" y="327.3" class="st10" width="1024" height="344.2"/>
		</g>
		<linearGradient id="地板_x2B__1_" gradientUnits="userSpaceOnUse" x1="502.0366" y1="919.2822" x2="502.0366" y2="327.3267">
			<stop  offset="0" style="stop-color:#B33BDB;stop-opacity:0"/>
			<stop  offset="0.1868" style="stop-color:#B43ED9;stop-opacity:0.1494"/>
			<stop  offset="0.3346" style="stop-color:#B848D4;stop-opacity:0.2677"/>
			<stop  offset="0.4691" style="stop-color:#BF59CC;stop-opacity:0.3753"/>
			<stop  offset="0.5958" style="stop-color:#C870C0;stop-opacity:0.4766"/>
			<stop  offset="0.717" style="stop-color:#D58FB0;stop-opacity:0.5736"/>
			<stop  offset="0.8339" style="stop-color:#E4B49D;stop-opacity:0.6671"/>
			<stop  offset="0.9454" style="stop-color:#F5E087;stop-opacity:0.7563"/>
			<stop  offset="1" style="stop-color:#FFF87B;stop-opacity:0.8"/>
		</linearGradient>
		<rect id="地板_x2B_" x="-10" y="327.3" class="st11" width="1024" height="592"/>
		<path class="st12" d="M-109,691.7L-9,324.3l190,2C134.5,316.8-143.9,650-109,691.7z"/>
		<path class="st12" d="M1115,691.7l-100-367.4l-190,2C865.8,324.3,1134.8,662.5,1115,691.7z"/>
		<g id="階梯">
			<g id="stair_2_">
				<defs>
					<rect id="XMLID_3_" x="-33" y="303.3" width="1070" height="25"/>
				</defs>
				<use xlink:href="#XMLID_3_"  style="overflow:visible;fill:#331D3B;"/>
				<clipPath id="XMLID_6_">
					<use xlink:href="#XMLID_3_"  style="overflow:visible;"/>
				</clipPath>
				<rect x="-33" y="303.3" class="st13" width="1070" height="7.5"/>
			</g>
			<g id="stair_1_">
				<defs>
					<rect id="XMLID_2_" x="67" y="278.3" width="870" height="25"/>
				</defs>
				<use xlink:href="#XMLID_2_"  style="overflow:visible;fill:#331D3B;"/>
				<clipPath id="XMLID_7_">
					<use xlink:href="#XMLID_2_"  style="overflow:visible;"/>
				</clipPath>
				<rect x="67" y="278.3" class="st14" width="870" height="7.5"/>
			</g>
			<g id="stair">
				<defs>
					<rect id="XMLID_1_" x="167" y="253.3" width="670" height="25"/>
				</defs>
				<use xlink:href="#XMLID_1_"  style="overflow:visible;fill:#331D3B;"/>
				<clipPath id="XMLID_8_">
					<use xlink:href="#XMLID_1_"  style="overflow:visible;"/>
				</clipPath>
				<rect x="167" y="253.3" class="st15" width="670" height="7.5"/>
			</g>
		</g>
		<g id="音響">
			<g>
				<path class="st16" d="M332.7,253.3h-15l4.3-114.8l23.8,4c5.1,0,8.9,4.7,7.8,9.7L332.7,253.3z"/>
				<linearGradient id="SVGID_17_" gradientUnits="userSpaceOnUse" x1="291.1218" y1="253.2742" x2="291.1218" y2="138.4882">
					<stop  offset="0" style="stop-color:#594342"/>
					<stop  offset="0.3287" style="stop-color:#271B2B"/>
					<stop  offset="0.5267" style="stop-color:#281B2E"/>
					<stop  offset="0.6459" style="stop-color:#2D1A36"/>
					<stop  offset="0.7441" style="stop-color:#351A44"/>
					<stop  offset="0.831" style="stop-color:#401958"/>
					<stop  offset="0.9103" style="stop-color:#4E1773"/>
					<stop  offset="0.9832" style="stop-color:#5F1593"/>
					<stop  offset="1" style="stop-color:#64159B"/>
				</linearGradient>
				<path class="st17" d="M260.3,138.5c-5.4,0-9.6,4.7-8.9,10.1l13,104.7h53.4l13.1-105.8c0.6-4.8-3.1-9-7.9-9H260.3z"/>
				<g>
					<g>
						<g class="st18">
							<defs>
								<rect id="SVGID_22_" x="271" y="150.5" class="st18" width="40.2" height="46.4"/>
							</defs>
							<clipPath id="SVGID_18_">
								<use xlink:href="#SVGID_22_"  style="overflow:visible;"/>
							</clipPath>
							<g class="st19">
								<g>
									<g>
										<g>
											<path class="st20" d="M291.1,190.9c-8.2,0-14.9-7.7-14.9-17.2s6.7-17.2,14.9-17.2c8.2,0,14.9,7.7,14.9,17.2
												S299.3,190.9,291.1,190.9 M291.1,150.5c-11.1,0-20.1,10.4-20.1,23.2s9,23.2,20.1,23.2c11.1,0,20.1-10.4,20.1-23.2
												S302.1,150.5,291.1,150.5"/>
										</g>
									</g>
								</g>
							</g>
						</g>
					</g>
				</g>
				<g>
					<g>
						<g class="st18">
							<defs>
								<rect id="SVGID_24_" x="285.4" y="167.2" class="st18" width="11.3" height="13"/>
							</defs>
							<clipPath id="SVGID_19_">
								<use xlink:href="#SVGID_24_"  style="overflow:visible;"/>
							</clipPath>
							<g class="st21">
								<g>
									<g>
										<g>
											<path class="st20" d="M291.1,167.2c-3.1,0-5.6,2.9-5.6,6.5s2.5,6.5,5.6,6.5c3.1,0,5.6-2.9,5.6-6.5
												S294.2,167.2,291.1,167.2"/>
										</g>
									</g>
								</g>
							</g>
						</g>
					</g>
				</g>
				<g>
					<g>
						<g class="st18">
							<defs>
								<rect id="SVGID_26_" x="279.8" y="210.8" class="st18" width="22.5" height="26"/>
							</defs>
							<clipPath id="SVGID_20_">
								<use xlink:href="#SVGID_26_"  style="overflow:visible;"/>
							</clipPath>
							<g class="st22">
								<g>
									<g>
										<g>
											<path class="st20" d="M291.1,230.8c-3.3,0-6.1-3.1-6.1-7s2.7-7,6.1-7c3.3,0,6.1,3.1,6.1,7S294.4,230.8,291.1,230.8
												 M291.1,210.8c-6.2,0-11.3,5.8-11.3,13s5,13,11.3,13c6.2,0,11.3-5.8,11.3-13S297.3,210.8,291.1,210.8"/>
										</g>
									</g>
								</g>
							</g>
						</g>
					</g>
				</g>
			</g>
			<g>
				<path class="st16" d="M671.4,253.3h15l-4.3-114.8l-23.8,4c-5.1,0-8.9,4.7-7.8,9.7L671.4,253.3z"/>
				
					<linearGradient id="SVGID_21_" gradientUnits="userSpaceOnUse" x1="286.342" y1="253.2742" x2="286.342" y2="138.4882" gradientTransform="matrix(-1 0 0 1 999.2934 0)">
					<stop  offset="0" style="stop-color:#594342"/>
					<stop  offset="0.3287" style="stop-color:#271B2B"/>
					<stop  offset="0.5267" style="stop-color:#281B2E"/>
					<stop  offset="0.6459" style="stop-color:#2D1A36"/>
					<stop  offset="0.7441" style="stop-color:#351A44"/>
					<stop  offset="0.831" style="stop-color:#401958"/>
					<stop  offset="0.9103" style="stop-color:#4E1773"/>
					<stop  offset="0.9832" style="stop-color:#5F1593"/>
					<stop  offset="1" style="stop-color:#64159B"/>
				</linearGradient>
				<path class="st23" d="M743.8,138.5c5.4,0,9.6,4.7,8.9,10.1l-13,104.7h-53.4l-13.1-105.8c-0.6-4.8,3.1-9,7.9-9H743.8z"/>
				<g>
					<g>
						<g class="st18">
							<defs>
								<rect id="SVGID_29_" x="692.9" y="150.5" class="st18" width="40.2" height="46.4"/>
							</defs>
							<clipPath id="SVGID_23_">
								<use xlink:href="#SVGID_29_"  style="overflow:visible;"/>
							</clipPath>
							<g class="st24">
								<g>
									<g>
										<g>
											<path class="st20" d="M713,190.9c-8.2,0-14.9-7.7-14.9-17.2s6.7-17.2,14.9-17.2s14.9,7.7,14.9,17.2
												S721.2,190.9,713,190.9 M713,150.5c-11.1,0-20.1,10.4-20.1,23.2s9,23.2,20.1,23.2c11.1,0,20.1-10.4,20.1-23.2
												S724.1,150.5,713,150.5"/>
										</g>
									</g>
								</g>
							</g>
						</g>
					</g>
				</g>
				<g>
					<g>
						<g class="st18">
							<defs>
								<rect id="SVGID_31_" x="707.4" y="167.2" class="st18" width="11.3" height="13"/>
							</defs>
							<clipPath id="SVGID_25_">
								<use xlink:href="#SVGID_31_"  style="overflow:visible;"/>
							</clipPath>
							<g class="st25">
								<g>
									<g>
										<g>
											<path class="st20" d="M713,167.2c-3.1,0-5.6,2.9-5.6,6.5s2.5,6.5,5.6,6.5c3.1,0,5.6-2.9,5.6-6.5S716.1,167.2,713,167.2"
												/>
										</g>
									</g>
								</g>
							</g>
						</g>
					</g>
				</g>
				<g>
					<g>
						<g class="st18">
							<defs>
								<rect id="SVGID_33_" x="701.8" y="210.8" class="st18" width="22.5" height="26"/>
							</defs>
							<clipPath id="SVGID_27_">
								<use xlink:href="#SVGID_33_"  style="overflow:visible;"/>
							</clipPath>
							<g class="st26">
								<g>
									<g>
										<g>
											<path class="st20" d="M713,230.8c-3.3,0-6.1-3.1-6.1-7s2.7-7,6.1-7c3.3,0,6.1,3.1,6.1,7S716.4,230.8,713,230.8
												 M713,210.8c-6.2,0-11.3,5.8-11.3,13s5,13,11.3,13c6.2,0,11.3-5.8,11.3-13S719.2,210.8,713,210.8"/>
										</g>
									</g>
								</g>
							</g>
						</g>
					</g>
				</g>
			</g>
		</g>
	</g>
	<g id="後桌子_xFF0B_椅子" class="st0">
		<g>
			<path class="st1" d="M908.3,555.9c0,8.2-19.9,14.8-44.5,14.8s-44.5-6.6-44.5-14.8c0-1.2,0-7.3,0-7.3h88.9
				C908.3,548.6,908.3,554.8,908.3,555.9z"/>
			<linearGradient id="SVGID_28_" gradientUnits="userSpaceOnUse" x1="819.3516" y1="548.6274" x2="908.2802" y2="548.6274">
				<stop  offset="0" style="stop-color:#594342"/>
				<stop  offset="0.3287" style="stop-color:#271B2B"/>
				<stop  offset="0.5267" style="stop-color:#281B2E"/>
				<stop  offset="0.6459" style="stop-color:#2D1A36"/>
				<stop  offset="0.7441" style="stop-color:#351A44"/>
				<stop  offset="0.831" style="stop-color:#401958"/>
				<stop  offset="0.9103" style="stop-color:#4E1773"/>
				<stop  offset="0.9832" style="stop-color:#5F1593"/>
				<stop  offset="1" style="stop-color:#64159B"/>
			</linearGradient>
			<ellipse class="st27" cx="863.8" cy="548.6" rx="44.5" ry="14.8"/>
		</g>
		<path class="st28" d="M863.8,361.5c-5.6,0-10.1,4.5-10.1,10.1v171.8c0,5.6,4.5,7.1,10.1,7.1s10.1-1.5,10.1-7.1V371.6
			C873.9,366,869.4,361.5,863.8,361.5z"/>
		<g>
			<linearGradient id="SVGID_30_" gradientUnits="userSpaceOnUse" x1="757.6006" y1="408.0868" x2="970.0311" y2="408.0868">
				<stop  offset="0" style="stop-color:#594342"/>
				<stop  offset="0.3287" style="stop-color:#271B2B"/>
				<stop  offset="0.5267" style="stop-color:#281B2E"/>
				<stop  offset="0.6459" style="stop-color:#2D1A36"/>
				<stop  offset="0.7441" style="stop-color:#351A44"/>
				<stop  offset="0.831" style="stop-color:#401958"/>
				<stop  offset="0.9103" style="stop-color:#4E1773"/>
				<stop  offset="0.9832" style="stop-color:#5F1593"/>
				<stop  offset="1" style="stop-color:#64159B"/>
			</linearGradient>
			<path class="st29" d="M970,395.4c0,19.6-47.6,35.4-106.2,35.4S757.6,415,757.6,395.4c0-3,0-10.1,0-10.1H970
				C970,385.3,970,392.8,970,395.4z"/>
			<ellipse class="st30" cx="863.8" cy="385.3" rx="106.2" ry="35.4"/>
		</g>
		<g id="椅子">
			<path class="st28" d="M971.2,472.8l-3.4,86.9c-0.2,2.7-6.2,2.7-6.4,0l-3.4-86.7c-0.2-3.6,2.3-6.9,5.9-7.3c3.7-0.4,7,2.4,7.2,6.1
				C971.3,472.2,971.3,472.5,971.2,472.8z"/>
			<linearGradient id="SVGID_32_" gradientUnits="userSpaceOnUse" x1="986.4628" y1="558.7392" x2="986.4628" y2="464.0647">
				<stop  offset="0" style="stop-color:#34183D"/>
				<stop  offset="0.4987" style="stop-color:#2D1434"/>
				<stop  offset="1" style="stop-color:#210F26"/>
			</linearGradient>
			<path class="st31" d="M986.6,469.9l12.8,86.4c0.3,2.7-5.6,3.4-6.3,0.8l-19.3-84.6c-0.9-3.5,1.1-7.2,4.5-8.2
				c3.6-1,7.3,1.2,8.1,4.8C986.5,469.3,986.6,469.7,986.6,469.9z"/>
			<linearGradient id="SVGID_34_" gradientUnits="userSpaceOnUse" x1="929.9542" y1="511.4029" x2="955.8586" y2="511.4029">
				<stop  offset="0" style="stop-color:#34183D"/>
				<stop  offset="0.4987" style="stop-color:#2D1434"/>
				<stop  offset="1" style="stop-color:#210F26"/>
			</linearGradient>
			<path class="st32" d="M955.7,472.2l-19.4,84.9c-0.7,2.6-6.6,2-6.3-0.8l12.8-86.1c0.4-3.6,3.5-6.4,7.1-6.1c3.7,0.3,6.4,3.6,6,7.3
				C955.8,471.6,955.7,471.9,955.7,472.2z"/>
			<g>
				<linearGradient id="SVGID_35_" gradientUnits="userSpaceOnUse" x1="923.5394" y1="465.8061" x2="1006.2307" y2="465.8061">
					<stop  offset="0" style="stop-color:#594342"/>
					<stop  offset="0.3287" style="stop-color:#271B2B"/>
					<stop  offset="0.5267" style="stop-color:#281B2E"/>
					<stop  offset="0.6459" style="stop-color:#2D1A36"/>
					<stop  offset="0.7441" style="stop-color:#351A44"/>
					<stop  offset="0.831" style="stop-color:#401958"/>
					<stop  offset="0.9103" style="stop-color:#4E1773"/>
					<stop  offset="0.9832" style="stop-color:#5F1593"/>
					<stop  offset="1" style="stop-color:#64159B"/>
				</linearGradient>
				<path class="st33" d="M1006.2,462.5c0,7.6-18.5,13.8-41.3,13.8s-41.3-6.2-41.3-13.8c0-1.2,0-7.2,0-7.2h82.7
					C1006.2,455.3,1006.2,461.5,1006.2,462.5z"/>
				<linearGradient id="SVGID_36_" gradientUnits="userSpaceOnUse" x1="923.5394" y1="455.3101" x2="1006.2307" y2="455.3101">
					<stop  offset="0" style="stop-color:#583270"/>
					<stop  offset="1" style="stop-color:#3E294B"/>
				</linearGradient>
				<ellipse class="st34" cx="964.9" cy="455.3" rx="41.3" ry="13.8"/>
			</g>
		</g>
	</g>
	<g id="前桌子" class="st0">
		<g>
			<path class="st1" d="M113.9,750.3c0,11.9-28.9,21.6-64.6,21.6s-64.6-9.7-64.6-21.6c0-1.8,0-10.5,0-10.5h129.3
				C113.9,739.8,113.9,748.7,113.9,750.3z"/>
			<linearGradient id="SVGID_37_" gradientUnits="userSpaceOnUse" x1="-15.3872" y1="739.8" x2="113.902" y2="739.8">
				<stop  offset="0" style="stop-color:#594342"/>
				<stop  offset="0.3287" style="stop-color:#271B2B"/>
				<stop  offset="0.5267" style="stop-color:#281B2E"/>
				<stop  offset="0.6459" style="stop-color:#2D1A36"/>
				<stop  offset="0.7441" style="stop-color:#351A44"/>
				<stop  offset="0.831" style="stop-color:#401958"/>
				<stop  offset="0.9103" style="stop-color:#4E1773"/>
				<stop  offset="0.9832" style="stop-color:#5F1593"/>
				<stop  offset="1" style="stop-color:#64159B"/>
			</linearGradient>
			<ellipse class="st35" cx="49.3" cy="739.8" rx="64.6" ry="21.6"/>
		</g>
		<path class="st28" d="M49.3,467.8c-8.1,0-14.7,6.6-14.7,14.7v249.8c0,8.1,6.6,10.3,14.7,10.3s14.7-2.2,14.7-10.3V482.5
			C63.9,474.3,57.4,467.8,49.3,467.8z"/>
		<g>
			<linearGradient id="SVGID_38_" gradientUnits="userSpaceOnUse" x1="-105.1642" y1="535.4744" x2="203.679" y2="535.4744">
				<stop  offset="0" style="stop-color:#594342"/>
				<stop  offset="0.3287" style="stop-color:#271B2B"/>
				<stop  offset="0.5267" style="stop-color:#281B2E"/>
				<stop  offset="0.6459" style="stop-color:#2D1A36"/>
				<stop  offset="0.7441" style="stop-color:#351A44"/>
				<stop  offset="0.831" style="stop-color:#401958"/>
				<stop  offset="0.9103" style="stop-color:#4E1773"/>
				<stop  offset="0.9832" style="stop-color:#5F1593"/>
				<stop  offset="1" style="stop-color:#64159B"/>
			</linearGradient>
			<path class="st36" d="M203.7,517.1c0,28.4-69.1,51.5-154.4,51.5s-154.4-23.1-154.4-51.5c0-4.3,0-14.7,0-14.7h308.8
				C203.7,502.4,203.7,513.2,203.7,517.1z"/>
			<ellipse class="st30" cx="49.3" cy="502.4" rx="154.4" ry="51.5"/>
		</g>
	</g>
	<g id="聚光燈" class="st37">
		<linearGradient id="SVGID_39_" gradientUnits="userSpaceOnUse" x1="511.6764" y1="273.3692" x2="511.6764" y2="1.4842">
			<stop  offset="0" style="stop-color:#B33BDB;stop-opacity:0"/>
			<stop  offset="0.1111" style="stop-color:#CA57BB;stop-opacity:0.1111"/>
			<stop  offset="0.2314" style="stop-color:#DD6EA1;stop-opacity:0.2314"/>
			<stop  offset="0.3643" style="stop-color:#EC808D;stop-opacity:0.3643"/>
			<stop  offset="0.5146" style="stop-color:#F78D7F;stop-opacity:0.5146"/>
			<stop  offset="0.6969" style="stop-color:#FD9577;stop-opacity:0.6969"/>
			<stop  offset="1" style="stop-color:#FF9774"/>
		</linearGradient>
		<path class="st38" d="M917,261.3c0,16-810.6,16-810.6,0L348.7,1.5h324.7L917,261.3z"/>
	</g>
</g>
</svg>
