<?xml version="1.0" encoding="utf-8"?>
<!-- Generator: Adobe Illustrator 24.3.0, SVG Export Plug-In . SVG Version: 6.00 Build 0)  -->
<svg version="1.1" id="圖層_2" xmlns="http://www.w3.org/2000/svg" xmlns:xlink="http://www.w3.org/1999/xlink" x="0px" y="0px"
	 viewBox="0 0 332.5 394.2" style="enable-background:new 0 0 332.5 394.2;" xml:space="preserve">
<style type="text/css">
	.st0{fill:#F7E7D6;}
	.st1{opacity:0.8;}
	.st2{fill:#5F554E;}
	.st3{fill:#DC6897;}
	.st4{fill:#005944;}
	.st5{clip-path:url(#SVGID_2_);fill:#005944;}
	.st6{opacity:0.28;fill:#463266;}
	.st7{fill:#63AD9B;}
	.st8{fill:#096A52;}
	.st9{enable-background:new    ;}
	.st10{clip-path:url(#SVGID_4_);}
	.st11{fill:#365627;}
	.st12{clip-path:url(#SVGID_6_);}
	.st13{fill:#5C7C4E;}
	.st14{clip-path:url(#SVGID_8_);}
	.st15{fill:#B5D3A7;}
	.st16{fill:#C64320;}
	.st17{fill:#D8653D;}
	.st18{fill:#686868;stroke:#D8653D;stroke-width:0.5;stroke-linecap:round;stroke-miterlimit:10;}
	.st19{fill:#FFDA88;}
</style>
<g>
	<g>
		<path class="st0" d="M221.7,239c9.6,6,18.2,13.1,25.7,21.5c1.8,2,3.6,4.1,5.2,6.3c2.1,2.9,1.7,4.8,0.7,8.1
			c-1.7,6-3.8,11.9-6.4,17.5c-2.4,5.3,5.5,9.9,7.9,4.6c3.1-6.9,5.9-14.1,7.8-21.5c1.7-6.8-0.1-11-4.4-16.3
			c-8.9-11.2-19.8-20.6-32-28.2C221.3,228.1,216.7,235.9,221.7,239L221.7,239z"/>
	</g>
</g>
<g>
	<g>
		<path class="st0" d="M135,234.6c-20.9,3.7-44.7,8-64.7-1.8c-8.8-4.3-15.8-11.6-16.7-21.7c-0.9-9.9,3.4-19.5,9.3-27.2
			c3-4-3.7-7.9-6.7-3.9c-6.7,8.8-11.2,20-10.3,31.2c0.9,11.2,7.1,20.2,16.5,26.2c22.1,14,50.6,9.2,74.8,4.9
			C142,241.2,139.9,233.7,135,234.6L135,234.6z"/>
	</g>
</g>
<g class="st1">
	<defs>
		<ellipse id="XMLID_30_" class="st1" cx="176.8" cy="372.3" rx="91.9" ry="11.7"/>
	</defs>
	<use xlink:href="#XMLID_30_"  style="overflow:visible;fill:#3A3A3A;"/>
	<clipPath id="XMLID_3_">
		<use xlink:href="#XMLID_30_"  style="overflow:visible;"/>
	</clipPath>
</g>
<g>
	<defs>
		<path id="XMLID_28_" d="M157.4,280.1c0-4.4,6.8-4.3,6.8,0c-1.3,3.6-18.4,53.7-1.9,64.7c2.3,1.5,4.7,1.9,4.7,1.9
			c1,0.3,1.7,0.2,2.4,0.3c0.9,0.2,1.4,0.3,2.2,1.2c0.8,0.9,1,2,1,2.4c0.1,0.5,0.2,1.9-0.7,2.9c-0.6,0.7-1.7,0.9-4.2,0.5
			c-2.1-0.3-4.8-0.8-7.8-2.5c-6-3.6-8.8-10.8-9.5-12.5c-3.9-9.8-2.8-29.3,4.6-52.6l2.5-6"/>
	</defs>
	<use xlink:href="#XMLID_28_"  style="overflow:visible;fill:#CB3E54;"/>
	<clipPath id="XMLID_4_">
		<use xlink:href="#XMLID_28_"  style="overflow:visible;"/>
	</clipPath>
</g>
<g>
	<defs>
		<path id="XMLID_27_" d="M216.8,279.5c-0.1,31-0.2,62-0.2,93c0,4.4-6.8,4.3-6.8,0c0.1-31,0.2-62,0.2-93
			C210.1,275.1,216.9,275.1,216.8,279.5"/>
	</defs>
	<use xlink:href="#XMLID_27_"  style="overflow:visible;fill:#CB3E54;"/>
	<clipPath id="XMLID_5_">
		<use xlink:href="#XMLID_27_"  style="overflow:visible;"/>
	</clipPath>
</g>
<g>
	<defs>
		<path id="XMLID_26_" d="M170,221.7l55.6,0.1c0,0,3.4,24.4,5.3,43.6C197.9,259.5,176.7,245.5,170,221.7"/>
	</defs>
	<use xlink:href="#XMLID_26_"  style="overflow:visible;fill:#F7E7D6;"/>
	<clipPath id="XMLID_6_">
		<use xlink:href="#XMLID_26_"  style="overflow:visible;"/>
	</clipPath>
</g>
<g>
	<defs>
		<path id="XMLID_25_" d="M230.7,265.5c0,0.2,0,0.3,0.1,0.5c0,0.2,0.6,0.4,0.6,0.6c0,0.2-0.5,0.5-0.5,0.7c0,0.2,0.2,0.4,0.2,0.6
			c0,0.2-0.4,0.4-0.4,0.6c0,0.2,0.8,0.3,0.8,0.5c0,0.2-0.6,0.5-0.5,0.7c0,0.2,0.3,0.4,0.3,0.6c0,0.2,0.2,0.4,0.3,0.6
			c0,0.2,0.2,0.4,0.2,0.6c0,0.2-0.6,0.5-0.6,0.7c0,0.2,0.6,0.4,0.7,0.6c0,0.2-0.2,0.4-0.2,0.6c0,0.2-0.1,0.4-0.1,0.6
			c0,0.2-0.2,0.4-0.1,0.6c0,0.2,0.3,0.4,0.3,0.6c0,0.2,0,0.4,0,0.6c0,0.2,0.3,0.4,0.3,0.6c0,0.2-0.4,0.4-0.4,0.6
			c0,0.2-0.1,0.4-0.1,0.6c0,0.2,0.6,0.4,0.6,0.6c0,0.2-0.2,0.4-0.2,0.6c0,0.2,0,0.4,0,0.6c0,0.2-0.5,0.4-0.5,0.6
			c0,0.2,0.8,0.4,0.8,0.6c0,0.2-0.3,0.4-0.3,0.6c0,0.2-0.3,0.4-0.3,0.6c0,0.2,0.7,0.3,0.7,0.6c0,0.2-0.6,0.4-0.6,0.6
			c0,0.2,0.5,0.5,0.4,0.7c0,0.2-0.5,0.3-0.6,0.5c-0.1,0.2,0.1,0.5,0,0.7c-0.1,0.1-0.3,0.2-0.5,0.3c0,0.2-0.5,0.3-0.5,0.5
			c0,0.2,0,0.4-0.1,0.6c0,0.2-0.1,0.4-0.1,0.6c-0.1,0.2,0.5,0.6,0.4,0.8c-0.1,0.2-0.5,0.2-0.6,0.4c-0.1,0.2-0.3,0.3-0.4,0.4
			c-0.1,0.1-0.1,0.5-0.2,0.7c-0.1,0.1-0.2,0.4-0.4,0.5c-0.2,0.1-0.6-0.2-0.8,0c-0.2,0.1-0.1,0.6-0.3,0.7c-0.2,0.1-0.6-0.2-0.8-0.1
			c-0.2,0.1-0.1,0.6-0.3,0.7c-0.2,0.1-0.5,0-0.7,0.1c-0.2,0.1-0.4,0.1-0.6,0.2c-0.2,0.1-0.4,0.2-0.6,0.3c-0.2,0.1-0.1,0.6-0.3,0.7
			c-0.2,0.1-0.5-0.2-0.7-0.1c-0.2,0.1-0.4,0-0.6,0.1c-0.2,0.1-0.1,0.7-0.3,0.8c-0.2,0.1-0.5,0-0.6,0.1c-0.2,0.1-0.5-0.2-0.7-0.1
			c-0.2,0.1-0.4,0-0.6,0c-0.2,0.1-0.4,0.1-0.6,0.2c-0.2,0.1-0.3,0.5-0.5,0.6c-0.2,0.1-0.4,0-0.6,0.1c-0.2,0.1-0.4,0-0.6,0.1
			c-0.2,0.1-0.3,0.3-0.5,0.4c-0.2,0.1-0.3,0.3-0.5,0.4c-0.2,0.1-0.3,0.3-0.5,0.4c-0.2,0.1-0.5-0.4-0.7-0.3c-0.2,0.1-0.4-0.1-0.6,0
			c-0.2,0.1-0.3,0.5-0.5,0.5c-0.2,0.1-0.4,0-0.6,0c-0.2,0.1-0.4,0.2-0.6,0.2c-0.2,0-0.5-0.1-0.7-0.1c-0.2,0-0.3,0.4-0.5,0.5
			c-0.2,0-0.3,0.4-0.5,0.4c-0.2,0-0.4,0-0.6,0c-0.2,0-0.5-0.4-0.7-0.3c-0.2,0-0.4,0.2-0.6,0.3c-0.2,0-0.4,0-0.6,0.1
			c-0.2,0-0.5-0.2-0.7-0.2c-0.2,0-0.3,0.7-0.5,0.8c-0.2,0-0.4,0.1-0.6,0.1c-0.2,0-0.5-0.5-0.7-0.4c-0.2,0-0.4,0.3-0.6,0.3
			c-0.2,0-0.4,0-0.6,0c-0.2,0-0.4-0.1-0.6,0c-0.2,0-0.4,0.3-0.6,0.4c-0.2,0-0.4,0.3-0.6,0.3c-0.2,0-0.4-0.1-0.6-0.1
			c-0.2,0-0.4-0.2-0.6-0.2c-0.2,0-0.4-0.1-0.6,0c-0.2,0-0.3,0.5-0.6,0.5c-0.2,0-0.5-0.4-0.7-0.3c-0.2,0-0.4,0.2-0.6,0.2
			c-0.2,0-0.4,0.2-0.6,0.2c-0.2,0-0.4-0.2-0.6-0.2c-0.2,0-0.3,0.6-0.5,0.6c-0.2,0-0.5-0.5-0.7-0.5c-0.2,0-0.4,0.3-0.6,0.3
			c-0.2,0-0.4,0.1-0.6,0.1c-0.2,0-0.4,0.4-0.6,0.4c-0.2,0-0.4,0-0.6,0.1c-0.2,0-0.4-0.2-0.6-0.2c-0.2,0-0.4,0.1-0.6,0.1
			c-0.2,0-0.4,0.2-0.6,0.2c-0.2,0-0.5-0.6-0.7-0.6c-0.2,0-0.4,0.5-0.6,0.5c-0.2,0-0.4-0.3-0.6-0.3c-0.2,0-0.4,0.1-0.6,0.1
			c-0.2,0-0.4-0.1-0.6-0.1c-0.2,0-0.4,0.3-0.6,0.3c-0.2,0-0.4-0.3-0.6-0.2c-0.2,0-0.4,0.3-0.6,0.3c-0.2,0-0.4,0.4-0.6,0.4
			c-0.2,0-0.4,0.2-0.6,0.2s-0.4-0.7-0.7-0.7c-0.2,0-0.4,0.6-0.6,0.6c-0.2,0-0.4,0.1-0.6,0.1c-0.2,0-0.4-0.5-0.6-0.5
			c-0.2,0-0.4,0.1-0.6,0.1c-0.2,0-0.4,0.3-0.6,0.3c-0.2,0-0.4,0.2-0.6,0.2c-0.2,0-0.4,0-0.6,0c-0.2,0-0.4-0.7-0.6-0.7
			c-0.2,0-0.4,0.7-0.6,0.7c-0.2,0-0.4-0.5-0.6-0.6c-0.2,0-0.4-0.2-0.6-0.2c-0.2,0-0.4,0.3-0.6,0.3c-0.2,0-0.4-0.3-0.6-0.3
			c-0.2,0-0.4,0-0.6,0c-0.2,0-0.4,0.6-0.7,0.6c-0.2,0-0.4-0.7-0.6-0.7c-0.2,0-0.4,0.2-0.6,0.2c-0.2,0-0.4,0.1-0.6,0
			c-0.2,0-0.4-0.4-0.6-0.4c-0.2,0-0.4,0.5-0.7,0.5c-0.2,0-0.4-0.1-0.6-0.1c-0.2,0-0.4,0.1-0.6,0.1c-0.2,0-0.4-0.6-0.6-0.6
			c-0.2,0-0.5,0.7-0.7,0.7c-0.2,0-0.4-0.6-0.6-0.6c-0.2,0-0.5,0.5-0.7,0.5c-0.2,0-0.4-0.6-0.6-0.6c-0.2,0-0.4,0.3-0.6,0.3
			c-0.2,0-0.4,0.1-0.6,0.1c-0.2,0-0.4,0-0.6-0.1c-0.2,0-0.4-0.6-0.6-0.6c-0.2,0-0.4-0.1-0.6-0.1c-0.2,0-0.5,0.6-0.7,0.6
			c-0.2,0-0.4-0.1-0.6-0.1c-0.2,0-0.4,0-0.6,0c-0.2,0-0.4-0.4-0.6-0.4c-0.2,0-0.4-0.1-0.6-0.1c-0.2,0-0.4,0.1-0.6,0.1
			c-0.2,0-0.4-0.1-0.6-0.1c-0.2,0-0.4,0.1-0.6,0.1c-0.2,0-0.3-0.7-0.5-0.7c-0.2,0-0.5,0.6-0.7,0.6c-0.2,0-0.3-0.5-0.5-0.6
			c-0.2,0-0.5,0.3-0.7,0.2c-0.2,0-0.4-0.3-0.6-0.3c-0.2,0-0.4-0.3-0.6-0.4c-0.2,0-0.5,0.5-0.7,0.5c-0.2,0-0.4,0-0.6,0
			c-0.2,0-0.4-0.1-0.6-0.2c-0.2,0-0.3-0.6-0.5-0.7c-0.2,0-0.5,0.4-0.7,0.4c-0.2,0-0.3-0.5-0.5-0.5c-0.2,0-0.4-0.2-0.6-0.2
			c-0.2,0-0.4-0.1-0.6-0.1c-0.2,0-0.5,0.4-0.7,0.3c-0.2,0-0.3-0.6-0.5-0.6c-0.2,0-0.4,0-0.6-0.1c-0.2,0-0.4,0-0.6,0
			c-0.2,0-0.5,0.5-0.7,0.4c-0.2-0.1-0.4-0.2-0.6-0.3c-0.2-0.1-0.4-0.1-0.6-0.1c-0.2-0.1-0.3-0.6-0.5-0.7c-0.2-0.1-0.5,0.2-0.7,0.1
			c-0.2-0.1-0.5,0.2-0.7,0.1c-0.2-0.1-0.4-0.2-0.6-0.2c-0.2-0.1-0.4-0.1-0.6-0.2c-0.2-0.1-0.2-0.6-0.4-0.7c-0.2-0.1-0.3-0.2-0.5-0.3
			c-0.2-0.1-0.4,0-0.6-0.1c-0.2-0.1-0.3-0.4-0.5-0.4c-0.2-0.1-0.4,0-0.6-0.1c-0.2-0.1-0.3-0.3-0.5-0.4c-0.2-0.1-0.4-0.1-0.6-0.2
			c-0.2-0.1-0.4-0.1-0.6-0.2c-0.2-0.1-0.6,0.2-0.8,0.1c-0.2-0.1-0.1-0.7-0.3-0.8c-0.2-0.1-0.3-0.2-0.5-0.3c-0.2-0.1-0.3-0.2-0.5-0.3
			c-0.2-0.1-0.5,0.1-0.7,0c-0.2-0.1-0.2-0.5-0.3-0.6c-0.2-0.1-0.7,0.3-0.9,0.1c-0.2-0.1,0-0.7-0.1-0.8c-0.2-0.1-0.7,0.1-0.8,0
			c-0.2-0.1-0.1-0.5-0.2-0.7c-0.1-0.1-0.2-0.4-0.3-0.6c-0.1-0.2-0.3-0.3-0.4-0.4c-0.1-0.2-0.5-0.1-0.7-0.3c-0.1-0.2-0.4-0.3-0.5-0.4
			c-0.1-0.2,0.1-0.5,0-0.7c-0.1-0.2-0.3-0.3-0.3-0.5c-0.1-0.2,0.2-0.5,0.2-0.7c-0.1-0.2-0.3-0.3-0.3-0.5c0-0.2-0.3-0.3-0.3-0.5
			c0-0.2-0.3-0.3-0.3-0.5c0-0.2,0.2-0.4,0.2-0.6c-0.1-0.2-0.1-0.4-0.2-0.6c-0.1-0.2,0.1-0.4,0-0.6c0-0.2-0.1-0.4-0.1-0.6
			c0-0.2-0.1-0.4-0.1-0.6c0-0.2-0.5-0.4-0.5-0.6c0-0.2,0.1-0.5,0.1-0.6c0-0.2,0-0.4,0-0.6c0-0.2,0-0.4,0-0.6c0-0.2,0.5-0.4,0.5-0.6
			c0-0.2,0.2-0.4,0.2-0.6c0-0.2,0-0.4,0-0.6c0-0.2-0.1-0.4-0.1-0.6c0-0.2,0-0.4,0-0.6c0-0.2,0.1-0.4,0.1-0.6c0-0.2-0.5-0.4-0.5-0.6
			c0-0.2-0.1-0.4-0.1-0.6c0-0.2,0.7-0.4,0.7-0.6c0-0.2-0.4-0.4-0.4-0.6c0-0.2-0.1-0.4-0.1-0.6c0-0.2-0.1-0.4-0.1-0.6
			c0-0.2,0.1-0.4,0.1-0.6c0-0.2,0.1-0.4,0.1-0.6c0-0.2,0.5-0.4,0.5-0.6c0-0.2,0-0.4,0-0.6c0-0.2-0.1-0.4-0.1-0.6
			c0-0.2,0.1-0.4,0.1-0.6c0-0.2-0.4-0.4-0.4-0.6c0-0.2,0.2-0.4,0.2-0.6c0-0.2,0.1-0.4,0.1-0.6c0-0.2,0.3-0.4,0.3-0.6
			c0-0.2-0.2-0.4-0.2-0.6c0-0.2,0-0.4,0-0.6c0-0.2,0.4-0.4,0.4-0.6c0-0.2-0.5-0.4-0.4-0.6c0-0.2,0-0.4,0-0.6c0-0.2,0-0.4,0-0.6
			c0-0.2,0-0.4,0-0.6c0-0.2,0.3-0.4,0.3-0.6c0-0.2-0.3-0.4-0.3-0.6c0-0.2,0.8-0.4,0.8-0.6c0-0.2-0.6-0.5-0.6-0.7
			c0-0.2,0.2-0.4,0.2-0.6c0-0.2,0.4-0.4,0.4-0.6c0-0.2,0.2-0.4,0.2-0.6c0-0.2-0.2-0.4-0.1-0.6c0-0.2,0.2-0.4,0.2-0.6
			c0-0.2-0.2-0.4-0.2-0.6c0-0.2,0.4-0.4,0.4-0.6c0-0.2-0.1-0.4-0.1-0.6c0-0.2-0.5-0.5-0.5-0.7c0-0.2,0.3-0.4,0.4-0.6
			c0-0.2,0-0.4,0-0.6c0-0.2,0.3-0.4,0.4-0.6c0-0.2-0.2-0.4-0.2-0.6c0-0.2,0.4-0.4,0.4-0.6c0-0.2,0-0.4,0-0.6c0-0.2-0.4-0.5-0.4-0.7
			c0-0.2,0.3-0.4,0.3-0.6c0-0.2-0.1-0.4-0.1-0.6c0-0.2,0.3-0.4,0.3-0.6c0-0.2-0.1-0.4-0.1-0.6c0-0.2,0-0.4,0-0.6
			c0-0.2,0.5-0.3,0.5-0.5c0-0.2,0-0.4,0-0.6c0-0.2-0.1-0.4-0.1-0.6c0-0.2,0.1-0.4,0.1-0.6c0-0.2,0-0.4,0.1-0.6
			c0-0.2-0.4-0.5-0.3-0.7c0-0.2,0.7-0.3,0.7-0.5c0-0.2,0.1-0.4,0.1-0.6c0-0.2-0.1-0.4-0.1-0.6c0-0.2,0-0.4,0.1-0.6
			c0-0.2-0.4-0.5-0.3-0.7c0-0.2,0.8-0.3,0.8-0.5c0-0.2-0.6-0.5-0.6-0.7c0-0.2,0.2-0.4,0.2-0.6c0-0.2,0.1-0.4,0.1-0.6
			c0-0.2,0.3-0.4,0.4-0.6c0-0.2-0.1-0.4,0-0.6c0-0.2,0.1-0.4,0.1-0.6c0-0.2,0.1-0.4,0.2-0.6c0-0.2,0.6-0.3,0.6-0.5
			c0-0.2-0.7-0.6-0.6-0.8c0-0.2,0.8-0.2,0.9-0.4c0-0.2,0.1-0.4,0.1-0.6c0-0.2-0.2-0.5-0.2-0.7c0-0.2,0.1-0.4,0.1-0.6
			c0.1-0.2,0.3-0.3,0.4-0.5c0.1-0.2-0.3-0.5-0.3-0.7c0.1-0.2-0.1-0.4,0-0.6c0.1-0.2,0.5-0.3,0.6-0.5c0.1-0.2,0.4-0.3,0.5-0.5
			c0.1-0.2-0.4-0.6-0.4-0.7c0.1-0.2,0.4-0.3,0.5-0.5c0.1-0.2,0.3-0.3,0.4-0.5c0.1-0.2,0.2-0.4,0.3-0.6c0.1-0.2-0.5-0.6-0.5-0.8
			c0.1-0.2,0.6-0.2,0.7-0.4c0.1-0.2,0-0.4,0.1-0.6c0.1-0.2,0.3-0.3,0.4-0.5c0.1-0.2,0.2-0.4,0.3-0.5c0.2-0.4-0.4-0.6-0.1-0.7
			c0.3-0.1,0.3-0.1,0.6-0.1c0.3,0,0.3,0.1,0.6,0.1c0.3,0,0.3-0.4,0.6-0.4c0.3,0,0.3,0.6,0.6,0.6c0.3,0,0.3,0.1,0.6,0.1
			c0.3,0,0.3-0.2,0.6-0.2c0.3,0,0.3-0.3,0.6-0.3c0.3,0,0.3,0,0.6,0c0.3,0,0.3,0.7,0.6,0.7c0.3,0,0.3-0.4,0.6-0.4
			c0.3,0,0.3-0.2,0.6-0.2s0.3,0.5,0.6,0.5c0.3,0,0.3-0.2,0.6-0.2c0.3,0,0.3-0.5,0.6-0.5c0.3,0,0.3,0.5,0.6,0.5
			c0.3,0,0.3-0.4,0.6-0.4c0.3,0,0.3,0.6,0.6,0.6c0.3,0,0.3-0.7,0.6-0.7c0.3,0,0.3,0.3,0.6,0.3s0.3-0.3,0.6-0.3s0.3,0.4,0.6,0.4
			c0.3,0,0.3-0.1,0.6-0.1c0.3,0,0.3,0,0.6,0c0.3,0,0.3,0,0.6,0c0.3,0,0.3,0.5,0.6,0.5c0.3,0,0.3-0.3,0.6-0.3c0.3,0,0.3,0.3,0.6,0.3
			c0.3,0,0.3,0,0.6,0c0.3,0,0.3-0.6,0.6-0.6c0.3,0,0.3,0,0.6,0c0.3,0,0.3,0,0.6,0c0.3,0,0.3,0.3,0.6,0.3c0.3,0,0.3,0.2,0.6,0.2
			c0.3,0,0.3-0.2,0.6-0.2c0.3,0,0.3-0.5,0.6-0.5c0.3,0,0.3,0.4,0.6,0.4c0.3,0,0.3-0.2,0.6-0.2s0.3,0.5,0.6,0.5s0.3-0.5,0.6-0.5
			c0.3,0,0.3,0,0.6,0c0.3,0,0.3,0.3,0.6,0.3c0.3,0,0.3-0.5,0.6-0.5c0.3,0,0.3,0.2,0.6,0.2c0.3,0,0.4-0.1,0.7,0c0,0.2,0,0.6,0,0.8
			c0,0.2-0.4,0.4-0.4,0.6c0,0.2,0.3,0.4,0.3,0.6c0,0.2,0.2,0.4,0.2,0.6c0,0.2,0.2,0.4,0.2,0.6c0,0.2,0,0.4,0.1,0.6
			c0,0.2-0.5,0.5-0.5,0.7c0,0.2,0.5,0.3,0.6,0.5c0,0.2-0.1,0.4-0.1,0.6c0,0.2,0.5,0.3,0.5,0.5c0,0.2,0.1,0.4,0.2,0.6
			c0,0.2,0,0.4,0.1,0.6c0.1,0.2-0.3,0.5-0.2,0.7c0.1,0.2,0,0.4,0.1,0.6c0.1,0.2,0.2,0.4,0.3,0.6c0.1,0.2,0.4,0.3,0.5,0.5
			c0.1,0.2,0.2,0.4,0.2,0.6c0.1,0.2,0.1,0.4,0.2,0.6c0.1,0.2-0.3,0.6-0.2,0.7c0.1,0.2,0,0.4,0.1,0.6c0.1,0.2,0.9,0,0.9,0.2
			c0.1,0.2-0.3,0.6-0.2,0.8c0.1,0.2,0.2,0.4,0.3,0.5c0.1,0.2,0.6,0.1,0.7,0.3c0.1,0.2-0.4,0.7-0.3,0.9c0.1,0.2,0.6,0.1,0.7,0.3
			c0.1,0.2,0.3,0.3,0.5,0.4c0.1,0.2-0.3,0.7-0.2,0.9c0.1,0.2,0.9-0.1,1,0.1c0.1,0.2-0.1,0.6,0,0.8c0.1,0.2,0.5,0.1,0.7,0.3
			c0.1,0.2-0.3,0.8-0.2,0.9c0.1,0.2,0.5,0.2,0.6,0.3c0.1,0.2,0.5,0.1,0.6,0.3c0.1,0.2,0,0.6,0.1,0.7c0.1,0.2,0.4,0.2,0.5,0.4
			c0.1,0.2,0.6,0,0.8,0.1c0.1,0.1-0.2,0.7,0,0.9c0.1,0.1,0.5,0.1,0.6,0.3c0.1,0.1,0.3,0.3,0.5,0.4c0.1,0.1,0.1,0.5,0.2,0.6
			c0.1,0.1,0.7-0.2,0.9-0.1c0.2,0.1,0.1,0.5,0.3,0.6c0.2,0.1,0.5,0.1,0.6,0.2c0.2,0.1,0.1,0.5,0.3,0.6c0.2,0.1,0.5,0,0.7,0.1
			c0.2,0.1,0,0.6,0.2,0.7c0.2,0.1,0.2,0.4,0.4,0.5c0.2,0.1,0.7-0.3,0.9-0.2c0.2,0.1,0.3,0.3,0.5,0.4c0.2,0.1,0.2,0.5,0.3,0.6
			c0.2,0.1,0.1,0.5,0.3,0.6c0.2,0.1,0.6-0.1,0.7,0c0.2,0.1,0.1,0.6,0.3,0.7c0.2,0.1,0.3,0.3,0.5,0.4c0.2,0.1,0.8-0.5,1-0.3
			c0.2,0.1,0.1,0.6,0.3,0.7c0.2,0.1,0.5,0,0.7,0.1c0.2,0.1,0.1,0.6,0.3,0.7c0.2,0.1,0.5-0.1,0.7,0c0.2,0.1,0.5,0,0.7,0.1
			c0.2,0.1,0.4,0.2,0.5,0.3c0.2,0.1,0,0.8,0.2,0.9c0.2,0.1,0.6-0.2,0.8-0.1c0.2,0.1,0.5,0,0.6,0.1c0.2,0.1,0.1,0.8,0.2,0.9
			c0.2,0.1,0.6-0.3,0.8-0.2c0.2,0.1,0.1,0.7,0.3,0.8c0.2,0.1,0.5-0.1,0.7,0c0.2,0.1,0.5-0.2,0.7-0.1c0.2,0.1,0.1,0.7,0.3,0.8
			c0.2,0.1,0.6-0.2,0.8-0.2c0.2,0.1,0.3,0.3,0.5,0.4c0.2,0.1,0.2,0.6,0.4,0.7c0.2,0.1,0.4,0.2,0.5,0.3c0.2,0.1,0.7-0.5,0.9-0.4
			c0.2,0.1,0.1,0.7,0.3,0.8c0.2,0.1,0.6-0.3,0.8-0.2c0.2,0.1,0.2,0.6,0.4,0.7c0.2,0.1,0.5,0,0.6,0.1c0.2,0.1,0.6-0.3,0.8-0.2
			c0.2,0.1,0.4,0.2,0.6,0.2c0.2,0.1,0.4,0.2,0.5,0.3c0.2,0.1,0.2,0.7,0.4,0.7c0.2,0.1,0.6-0.3,0.7-0.2c0.2,0.1,0.3,0.2,0.5,0.3
			c0.2,0.1,0.3,0.3,0.5,0.4c0.2,0.1,0.3,0.4,0.5,0.5c0.2,0.1,0.5-0.3,0.7-0.2c0.2,0.1,0.5-0.1,0.7,0c0.2,0.1,0.4,0.1,0.6,0.2
			c0.2,0.1,0.2,0.7,0.4,0.8c0.2,0.1,0.5-0.3,0.7-0.2c0.2,0.1,0.3,0.3,0.5,0.4c0.2,0.1,0.4,0,0.6,0s0.2,0.6,0.4,0.7
			c0.2,0.1,0.5-0.1,0.7-0.1s0.4,0.1,0.6,0.2c0.2,0.1,0.3,0.4,0.5,0.5c0.2,0.1,0.5-0.2,0.7-0.1c0.2,0.1,0.3,0.3,0.5,0.3
			c0.2,0.1,0.4,0.2,0.6,0.2c0.2,0.1,0.5-0.1,0.7-0.1c0.2,0.1,0.3,0.6,0.5,0.6c0.2,0.1,0.4,0,0.6,0.1c0.2,0.1,0.4,0.2,0.6,0.3
			s0.4,0.1,0.6,0.1c0.2,0.1,0.4,0.1,0.6,0.2c0.2,0.1,0.4,0.1,0.6,0.2c0.2,0.1,0.6-0.6,0.8-0.5c0.2,0.1,0.3,0.5,0.5,0.5
			c0.2,0.1,0.4-0.1,0.6,0c0.2,0.1,0.4-0.1,0.6,0c0.2,0.1,0.3,0.4,0.5,0.4c0.2,0.1,0.3,0.4,0.5,0.5c0.2,0.1,0.4,0,0.6,0.1
			c0.2,0.1,0.5-0.2,0.7-0.1c0.2,0.1,0.4,0.2,0.6,0.3s0.4,0.2,0.6,0.2c0.2,0,0.3,0.5,0.5,0.5c0.2,0,0.5-0.2,0.7-0.2
			c0.2,0,0.5-0.2,0.7-0.1c0.2,0,0.3,0.4,0.5,0.4c0.2,0,0.3,0.4,0.5,0.4c0.2,0,0.4-0.1,0.7-0.1c0.2,0,0.4,0.3,0.6,0.4
			c0.2,0,0.5-0.5,0.7-0.4c0.2,0,0.3,0.4,0.5,0.5c0.2,0,0.5-0.3,0.7-0.3c0.2,0,0.4-0.1,0.6,0C230.5,264.9,230.5,265.5,230.7,265.5"/>
	</defs>
	<use xlink:href="#XMLID_25_"  style="overflow:visible;fill:#096A52;"/>
	<clipPath id="XMLID_7_">
		<use xlink:href="#XMLID_25_"  style="overflow:visible;"/>
	</clipPath>
</g>
<path class="st2" d="M210.7,369.9l5-0.1c0,0,4.4,0.5,6.2,2c1.8,1.6-0.8,3.6-0.8,3.6l-12.1,0.2C209.1,375.7,206.3,369.9,210.7,369.9"
	/>
<g>
	<defs>
		<path id="XMLID_24_" d="M127.3,304.5c0-0.1,0.3-0.2,0.4-0.5c0.1-0.2-0.4-0.6-0.4-0.8c0.1-0.2,0.3-0.3,0.4-0.5
			c0.1-0.2,0.5-0.2,0.6-0.4c0.1-0.2,0.3-0.3,0.4-0.5c0.1-0.2,0.1-0.4,0.2-0.6c0.1-0.2-0.2-0.5-0.1-0.7c0.1-0.2,0.2-0.3,0.3-0.5
			c0.1-0.2,0.2-0.4,0.3-0.5c0.1-0.2-0.1-0.5,0-0.6c0.1-0.2,0-0.4,0-0.6c0.1-0.2-0.1-0.5,0-0.7c0.1-0.2,0.6-0.2,0.7-0.4
			c0.1-0.2,0.3-0.3,0.4-0.5c0.1-0.2-0.2-0.5-0.1-0.7c0.1-0.2,0.2-0.3,0.3-0.5c0.1-0.2,0.1-0.4,0.1-0.6c0.1-0.2,0.4-0.3,0.4-0.5
			s-0.2-0.5-0.1-0.7c0.1-0.2-0.2-0.5-0.1-0.7c0.1-0.2,0.3-0.3,0.3-0.5c0.1-0.2,0.6-0.2,0.6-0.4c0.1-0.2,0-0.4,0-0.6
			c0.1-0.2,0.2-0.4,0.2-0.6c0.1-0.2,0.4-0.3,0.5-0.5c0.1-0.2-0.5-0.6-0.4-0.8c0.1-0.2,0.1-0.4,0.2-0.6c0.1-0.2,0.7-0.2,0.7-0.4
			c0.1-0.2-0.1-0.5,0-0.7c0.1-0.2,0.2-0.4,0.3-0.6c0.1-0.2,0.2-0.4,0.3-0.6c0.1-0.2-0.1-0.5-0.1-0.7c0.1-0.2-0.1-0.5-0.1-0.7
			c0.1-0.2,0.3-0.4,0.3-0.5c0.1-0.2,0.4-0.3,0.4-0.5c0.1-0.2,0.2-0.4,0.3-0.6c0-0.2-0.3-0.5-0.3-0.7c0-0.2,0.5-0.3,0.5-0.5
			c0-0.2,0-0.4,0-0.6c0-0.2-0.1-0.4-0.1-0.6c0-0.2,0.3-0.4,0.3-0.6c0-0.2-0.3-0.5-0.1-0.7c0.1-0.1,0.6,0.3,0.8,0.2
			c0.2-0.1,0.3-0.3,0.5-0.4c0.2,0,0.4-0.1,0.6-0.1c0.2,0,0.4-0.4,0.6-0.4c0.2,0,0.4,0,0.6-0.1c0.2,0,0.4,0.2,0.6,0.2
			c0.2,0,0.4-0.1,0.6-0.1c0.2,0,0.4-0.2,0.6-0.2c0.2,0,0.4,0.6,0.6,0.6c0.2,0,0.4-0.5,0.6-0.5c0.2,0,0.4,0.3,0.6,0.3
			c0.2,0,0.4-0.1,0.6-0.1c0.2,0,0.4,0.1,0.6,0.1c0.2,0,0.4-0.2,0.6-0.2c0.2,0,0.4,0.3,0.6,0.3c0.2,0,0.4-0.3,0.6-0.3
			c0.2,0,0.4-0.3,0.6-0.3c0.2,0,0.4-0.2,0.6-0.1c0.2,0,0.4,0.8,0.6,0.8c0.2,0,0.4-0.6,0.7-0.6c0.2,0,0.4-0.1,0.6-0.1
			c0.2,0,0.4,0.6,0.6,0.6c0.2,0,0.4-0.1,0.6-0.1c0.2,0,0.4-0.2,0.6-0.2c0.2,0,0.4-0.1,0.6-0.1c0.2,0,0.4,0,0.6,0.1
			c0.2,0,0.3,0.7,0.6,0.7c0.2,0,0.5-0.6,0.7-0.6c0.2,0,0.4,0.6,0.6,0.6c0.2,0,0.4,0.2,0.6,0.3c0.2,0,0.4-0.3,0.6-0.3
			s0.4,0.3,0.6,0.4c0.2,0,0.4,0,0.6,0.1c0.2,0,0.5-0.6,0.7-0.6c0.2,0,0.3,0.7,0.5,0.7c0.2,0,0.4-0.1,0.6-0.1c0.2,0,0.4,0,0.6,0
			c0.2,0,0.4,0.4,0.6,0.4c0.2,0,0.5-0.5,0.7-0.5c0.2,0,0.4,0.1,0.6,0.1c0.2,0,0.4-0.1,0.6,0c0.2,0,0.3,0.6,0.5,0.6
			c0.2,0,0.5-0.7,0.7-0.7c0.2,0,0.3,0.6,0.5,0.6c0.2,0,0.5-0.5,0.7-0.4c0.2,0,0.3,0.6,0.5,0.6c0.2,0,0.5-0.3,0.7-0.2
			c0.2,0,0.4-0.1,0.6-0.1c0.2,0,0.4,0.1,0.6,0.1c0.2,0,0.3,0.6,0.5,0.7c0.2,0,0.4,0.1,0.6,0.1c0.2,0,0.5-0.6,0.7-0.5
			c0.2,0,0.4,0.1,0.6,0.1s0.4,0,0.6,0s0.3,0.4,0.6,0.5c0.2,0,0.4,0.1,0.6,0.1c0.2,0,0.4-0.1,0.6,0c0.2,0,0.4,0.1,0.6,0.2
			c0.2,0,0.4-0.1,0.6-0.1c0.2,0,0.3,0.7,0.5,0.7c0.2,0,0.5-0.6,0.7-0.6c0.2,0,0.3,0.6,0.5,0.6c0.2,0,0.5-0.2,0.7-0.2
			c0.2,0,0.4,0.3,0.6,0.3c0.2,0,0.4,0.3,0.6,0.4c0.2,0,0.5-0.5,0.7-0.4c0.2,0,0.4,0,0.6,0c0.2,0,0.4,0.1,0.6,0.2
			c0.2,0,0.3,0.7,0.5,0.7c0.2,0,0.5-0.4,0.7-0.4c0.2,0,0.3,0.5,0.5,0.6c0.2,0,0.4,0.2,0.6,0.2c0.2,0,0.4,0.1,0.6,0.1
			c0.2,0,0.5-0.3,0.7-0.3c0.2,0,0.3,0.6,0.5,0.6c0.2,0,0.4,0,0.6,0.1c0.2,0,0.4,0,0.6,0c0.2,0,0.5-0.5,0.7-0.4
			c0.2,0.1,0.4,0.2,0.6,0.3c0.2,0.1,0.4,0.1,0.6,0.1c0.2,0.1,0.3,0.6,0.5,0.7c0.2,0.1,0.4-0.2,0.6-0.2c0.2,0,0.3-0.4,0.5-0.4
			c0.2,0,0.4,0,0.6-0.1c0.2,0,0.4-0.1,0.6-0.1c0.2,0,0.5,0.4,0.7,0.3c0.2,0,0.4,0,0.6,0c0.2,0,0.4-0.2,0.6-0.3
			c0.2,0,0.4,0.1,0.6,0.1c0.2,0,0.4-0.2,0.6-0.3c0.2,0,0.4,0.1,0.6,0c0.2,0,0.4-0.1,0.6-0.2c0.2,0,0.4-0.1,0.6-0.2
			c0.2,0,0.3-0.5,0.5-0.6s0.5,0.5,0.7,0.4c0.2,0,0.4,0,0.6-0.1c0.2,0,0.4-0.1,0.6-0.1c0.2,0,0.3-0.4,0.5-0.5s0.5,0.2,0.7,0.2
			c0.2,0,0.3-0.7,0.5-0.7c0.2,0,0.5,0.4,0.7,0.4c0.2,0,0.3-0.6,0.5-0.7c0.2,0,0.5,0.3,0.7,0.2c0.2,0,0.4,0.1,0.6,0.1
			c0.2,0,0.4-0.1,0.6-0.1c0.2,0,0.3-0.4,0.5-0.5c0.2,0,0.4-0.2,0.6-0.3c0.2,0,0.5,0.3,0.7,0.3c0.2,0,0.4-0.2,0.6-0.2
			c0.2,0,0.5,0.3,0.7,0.3c0.2,0,0.4-0.3,0.6-0.3c0.2,0,0.4-0.3,0.6-0.3c0.2,0,0.4-0.3,0.6-0.3c0.2,0,0.5,0.2,0.7,0.2
			c0.2,0,0.4,0,0.6,0c0.2,0,0.4,0.1,0.6,0.1c0.2,0,0.4-0.1,0.6-0.1c0.2,0,0.4-0.1,0.6-0.1c0.2,0,0.4-0.5,0.6-0.5
			c0.2,0,0.4,0.1,0.6,0c0.2,0,0.4-0.1,0.6-0.1c0.2,0,0.4,0,0.6,0c0.2,0,0.5,0.4,0.7,0.4c0.2,0,0.4,0.1,0.6,0.1
			c0.2,0,0.4-0.1,0.6-0.1c0.2,0,0.4-0.1,0.6-0.2c0.2,0,0.4-0.1,0.6-0.1c0.2,0,0.4,0.1,0.6,0c0.2,0,0.4-0.5,0.6-0.5
			c0.2,0,0.4-0.2,0.6-0.2c0.2,0,0.5,0.6,0.7,0.6c0.2,0,0.4-0.5,0.6-0.5c0.2,0,0.4-0.2,0.6-0.2c0.2,0,0.4-0.1,0.6-0.2
			c0.2,0,0.4,0,0.6,0c0.2,0,0.4,0,0.6,0c0.2,0,0.4,0.4,0.6,0.4c0.2,0,0.4-0.1,0.6-0.1c0.2,0,0.4-0.2,0.6-0.2c0.2,0,0.4,0.1,0.6,0
			c0.2,0,0.4-0.4,0.6-0.4c0.2,0,0.4,0.2,0.6,0.2c0.2,0,0.4,0.1,0.6,0.1c0.2,0,0.4,0.2,0.6,0.2c0.2,0,0.4-0.3,0.6-0.3
			c0.2,0,0.4,0,0.6,0c0.2,0,0.4,0.4,0.6,0.4c0.2,0,0.4-0.5,0.6-0.5c0.2,0,0.4-0.1,0.6-0.1c0.2,0,0.4-0.1,0.6-0.1
			c0.2,0,0.4-0.1,0.6-0.1c0.2,0,0.4,0.3,0.6,0.3c0.2,0,0.4-0.3,0.6-0.3c0.2,0,0.4,0.8,0.6,0.8c0.2,0,0.5-0.6,0.7-0.6
			c0.2,0,0.4,0.2,0.6,0.2c0.2,0,0.3,0.4,0.5,0.5c0.2,0.1,0.3,0.3,0.5,0.3c0.2,0.1,0.4,0,0.6,0.1c0.2,0.1,0.1,0.2,0.1,0.4
			c0,0.2,0.3,0.4,0.3,0.6c0,0.2-0.3,0.4-0.3,0.7c0,0.2,0.2,0.4,0.3,0.6c0,0.2,0.6,0.3,0.7,0.5c0,0.2-0.2,0.5-0.1,0.7
			c0,0.2,0.1,0.4,0.2,0.6c0,0.2-0.2,0.5-0.1,0.7c0.1,0.2,0.4,0.3,0.4,0.5c0.1,0.2-0.2,0.5-0.1,0.7c0.1,0.2,0.2,0.4,0.2,0.6
			c0.1,0.2,0.5,0.3,0.6,0.5c0.1,0.2-0.1,0.5-0.1,0.7c0.1,0.2,0.3,0.3,0.4,0.5c0.1,0.2-0.1,0.4,0,0.6c0.1,0.2,0.3,0.3,0.3,0.5
			c0.1,0.2,0.2,0.4,0.3,0.6c0.1,0.2-0.3,0.5-0.2,0.7c0.1,0.2,0.2,0.4,0.2,0.6c0.1,0.2,0.3,0.3,0.3,0.5c0.1,0.2,0.1,0.4,0.2,0.6
			c0.1,0.2,0.2,0.4,0.2,0.6c0.1,0.2,0.6,0.2,0.6,0.4c0.1,0.2-0.5,0.6-0.4,0.8c0.1,0.2,0.1,0.4,0.2,0.6c0.1,0.2,0.3,0.3,0.4,0.5
			c0.1,0.2,0.2,0.4,0.2,0.6c0.1,0.2,0.5,0.2,0.6,0.4c0.1,0.2-0.5,0.6-0.5,0.8c0.1,0.2,0.8,0.2,0.9,0.3c0.1,0.2,0,0.4,0.1,0.6
			c0.1,0.2,0.1,0.4,0.2,0.6c0.1,0.2-0.1,0.5,0,0.7c0.1,0.2,0.3,0.3,0.3,0.5c0.1,0.2,0.2,0.4,0.2,0.6c0.1,0.2,0.1,0.4,0.2,0.6
			c0.1,0.2-0.3,0.6-0.3,0.8c0.1,0.2,0.9,0.1,0.9,0.3c0.1,0.2-0.6,0.7-0.5,0.8c0.1,0.2,0.2,0.4,0.2,0.6c0.1,0.2,0.5,0.3,0.5,0.5
			c0.1,0.3,0.2,0.5,0.2,0.6c0,0.1-0.2,0.4-0.1,0.7c0,0.2,0.5,0.3,0.6,0.5c0,0.2,0.3,0.3,0.3,0.6c0,0.2-0.3,0.5-0.3,0.7
			c0.1,0.2-0.2,0.5-0.1,0.7c0.1,0.2,0.6,0.3,0.7,0.5c0.1,0.2-0.2,0.5-0.2,0.7c0.1,0.2-0.1,0.4,0,0.6c0.1,0.2,0,0.4,0.1,0.6
			c0.1,0.2,0.8,0.2,0.8,0.4c0.1,0.2-0.4,0.5-0.3,0.7c0.1,0.2,0.2,0.4,0.3,0.6c0.1,0.2-0.1,0.5,0,0.7c0.1,0.2,0,0.4,0.1,0.6
			c0.1,0.2,0.5,0.3,0.5,0.5c0.1,0.2,0.2,0.4,0.3,0.6c0.1,0.2,0,0.4,0,0.6c0.1,0.2,0.5,0.3,0.5,0.5c0.1,0.2-0.4,0.6-0.4,0.7
			c0.1,0.2,0,0.3,0,0.5c0,0.2,0.1,0.4,0,0.6c-0.1,0.2,0,0.6-0.1,0.7c-0.1,0.1-0.4,0.3-0.6,0.4c-0.2,0.1-0.5-0.5-0.7-0.5
			c-0.2,0-0.4,0.4-0.6,0.5c-0.2,0-0.4,0.2-0.6,0.2c-0.2,0-0.4-0.5-0.6-0.5c-0.2,0-0.4,0.2-0.6,0.2c-0.2,0-0.4,0.5-0.6,0.5
			c-0.2,0-0.4-0.5-0.6-0.5c-0.2,0-0.4,0.4-0.6,0.4c-0.2,0-0.4-0.6-0.6-0.6c-0.2,0-0.4,0.7-0.6,0.7c-0.2,0-0.4-0.3-0.6-0.3
			c-0.2,0-0.4,0.2-0.6,0.2c-0.2,0-0.4-0.4-0.6-0.4c-0.2,0-0.4,0.1-0.6,0c-0.2,0-0.4,0-0.6,0c-0.2,0-0.4,0-0.6,0
			c-0.2,0-0.4-0.6-0.6-0.6c-0.2,0-0.4,0.3-0.6,0.3c-0.2,0-0.4-0.3-0.6-0.3c-0.2,0-0.4-0.1-0.6-0.1c-0.2,0-0.5,0.5-0.7,0.5
			c-0.2,0-0.4,0-0.6-0.1c-0.2,0-0.4-0.1-0.6-0.1c-0.2,0-0.4-0.3-0.6-0.4c-0.2,0-0.4-0.3-0.6-0.3c-0.2,0-0.4,0.1-0.6,0.1
			c-0.2,0-0.5,0.4-0.7,0.4c-0.2,0-0.3-0.5-0.5-0.5c-0.2,0-0.4,0.1-0.6,0.1c-0.2,0-0.3-0.6-0.5-0.7c-0.2-0.1-0.5,0.4-0.7,0.4
			c-0.2-0.1-0.4-0.1-0.6-0.2c-0.2-0.1-0.3-0.4-0.5-0.4c-0.2-0.1-0.5,0.3-0.7,0.3c-0.2-0.1-0.3-0.3-0.5-0.4c-0.2-0.1-0.4-0.2-0.6-0.2
			c-0.2-0.1-0.3-0.3-0.5-0.4c-0.2-0.1-0.2-0.5-0.4-0.6c-0.2-0.1-0.5,0.1-0.7,0.1c-0.2-0.1-0.4,0-0.6-0.1c-0.2-0.1-0.4,0-0.6,0
			c-0.2-0.1-0.4-0.1-0.6-0.2c-0.2-0.1-0.2-0.6-0.4-0.7c-0.2,0-0.5,0.4-0.7,0.3c-0.2,0-0.4-0.3-0.6-0.3c-0.2,0-0.5,0.3-0.7,0.3
			c-0.2,0-0.4,0-0.6-0.1c-0.2,0-0.4-0.1-0.6-0.2c-0.2,0-0.4-0.4-0.6-0.5c-0.2,0-0.4-0.2-0.6-0.2c-0.2,0-0.4,0-0.6,0
			c-0.2,0-0.4,0.3-0.6,0.3c-0.2,0-0.4,0-0.6,0s-0.4,0-0.6,0c-0.2,0-0.4-0.4-0.6-0.4c-0.2,0-0.4-0.1-0.6-0.1c-0.2,0-0.4,0.8-0.6,0.8
			c-0.2,0-0.4-0.5-0.6-0.5c-0.2,0-0.4,0-0.6,0c-0.2,0-0.4,0.5-0.6,0.5c-0.2,0-0.5-0.6-0.7-0.6c-0.2,0-0.4,0.4-0.6,0.5
			c-0.2,0-0.4,0.2-0.6,0.2c-0.2,0-0.5-0.6-0.7-0.6c-0.2,0-0.3,0.8-0.5,0.8s-0.5-0.4-0.7-0.4c-0.2,0-0.4,0.4-0.6,0.4
			c-0.2,0-0.5-0.7-0.7-0.6c-0.2,0-0.4,0.3-0.6,0.3c-0.2,0-0.4,0.3-0.6,0.4c-0.2,0-0.5-0.3-0.7-0.3c-0.2,0-0.4,0.2-0.6,0.2
			c-0.2,0-0.3,0.6-0.5,0.6c-0.2,0-0.5-0.5-0.7-0.5c-0.2,0-0.4,0.3-0.6,0.4c-0.2,0-0.4,0.1-0.6,0.1c-0.2,0-0.5-0.2-0.7-0.2
			c-0.2,0-0.3,0.7-0.5,0.7c-0.2,0-0.5-0.2-0.7-0.2c-0.2,0-0.4,0.3-0.6,0.3c-0.2,0-0.5-0.2-0.7-0.2c-0.2,0-0.3,0.4-0.5,0.4
			c-0.2,0-0.5-0.4-0.7-0.3c-0.2,0-0.4-0.1-0.6-0.1c-0.2,0-0.3,0.7-0.5,0.8c-0.2,0-0.4,0-0.6,0.1c-0.2,0-0.5-0.2-0.7-0.1
			c-0.2,0-0.5-0.3-0.7-0.2c-0.2,0-0.3,0.5-0.5,0.5c-0.2,0-0.5-0.4-0.7-0.3c-0.2,0-0.4,0-0.6,0.1c-0.2,0-0.3,0.9-0.5,0.9
			c-0.2,0-0.5-0.4-0.7-0.4c-0.2,0-0.4,0.3-0.6,0.4c-0.2,0-0.5-0.4-0.7-0.4c-0.2,0-0.4,0.4-0.6,0.4c-0.2,0-0.4,0.3-0.6,0.3
			c-0.2,0-0.4,0.1-0.6,0.1c-0.2,0-0.5-0.7-0.7-0.6c-0.2,0-0.4,0.5-0.6,0.5c-0.2,0-0.4,0.2-0.6,0.2c-0.2,0-0.4-0.7-0.6-0.7
			c-0.2,0-0.4,0.5-0.6,0.5c-0.2,0-0.4-0.6-0.6-0.6c-0.2,0-0.4,0.3-0.6,0.3c-0.2,0-0.4,0.4-0.6,0.4c-0.2,0-0.4-0.6-0.6-0.6
			c-0.2,0-0.5,0.4-0.7,0.4c-0.2,0-0.4-0.2-0.6-0.2c-0.2,0-0.4-0.5-0.6-0.5c-0.2,0-0.4-0.1-0.6-0.1c-0.2,0-0.5,0.7-0.7,0.6
			c-0.2,0-0.3-0.7-0.5-0.7c-0.2,0-0.5,0.5-0.7,0.4c-0.2,0-0.3-0.6-0.5-0.6c-0.2,0-0.4,0.1-0.6,0.1c-0.2,0-0.5,0.4-0.7,0.4
			c-0.2,0-0.4-0.1-0.6-0.1c-0.2,0-0.4-0.1-0.6-0.2c-0.2,0-0.3-0.6-0.5-0.7c-0.2,0-0.5,0.4-0.7,0.3c-0.2,0-0.4-0.2-0.6-0.2
			c-0.2-0.1-0.3-0.3-0.5-0.3c-0.2-0.1-0.3-0.3-0.5-0.4c-0.2-0.1-0.5,0.3-0.7,0.3c-0.2-0.1-0.5,0.1-0.6,0.1c-0.2-0.1-0.4-0.1-0.6-0.2
			c-0.2-0.1-0.2-0.7-0.4-0.7c-0.2-0.1-0.5,0.3-0.7,0.3c-0.2-0.1-0.3-0.3-0.5-0.4c-0.2-0.1-0.4,0.1-0.6,0c-0.2,0-0.3-0.6-0.5-0.6
			c-0.2,0-0.5,0.2-0.7,0.1c-0.2,0-0.4,0-0.6-0.1c-0.2,0-0.3-0.4-0.5-0.5c-0.2,0-0.5,0.2-0.7,0.2c-0.2,0-0.4-0.2-0.6-0.3
			c-0.2,0-0.4-0.1-0.6-0.2c-0.2,0-0.4,0.2-0.6,0.1c-0.2,0-0.4-0.5-0.6-0.5c-0.2,0-0.4,0-0.6,0c-0.2,0-0.4-0.1-0.6-0.1
			c-0.2,0-0.4,0-0.6,0c-0.2,0-0.4,0-0.6,0c-0.2,0-0.4,0-0.6,0c-0.2,0-0.3,0.8-0.5,0.8c-0.2,0-0.4-0.3-0.6-0.3
			c-0.2,0-0.4,0.2-0.6,0.3s-0.4,0.2-0.5,0.3c-0.2,0-0.4-0.2-0.6-0.1c-0.2,0.1-0.5-0.2-0.7-0.1c-0.2,0.1-0.4,0.2-0.5,0.3
			c-0.2,0.1-0.3,0.4-0.4,0.5c-0.2,0.1-0.4,0.1-0.6,0.2c-0.2,0.1-0.4,0.1-0.6,0.2c-0.2,0.1-0.5-0.2-0.7-0.1c-0.2,0.1-0.2,0.5-0.4,0.6
			c-0.2,0.1-0.3,0.4-0.5,0.5c-0.2,0.1-0.5-0.1-0.7,0c-0.2,0.1-0.5-0.1-0.7,0c-0.2,0.1-0.3,0.3-0.5,0.4c-0.2,0.1-0.5-0.1-0.7,0
			c-0.2,0.1-0.2,0.7-0.4,0.8c-0.2,0.1-0.5-0.2-0.7-0.2c-0.2,0.1-0.3,0.5-0.5,0.5c-0.2,0.1-0.4,0.3-0.6,0.3c-0.2,0.1-0.5-0.4-0.7-0.3
			c-0.2,0-0.5-0.1-0.7-0.1c-0.2,0-0.4,0.1-0.6,0.2c-0.2,0-0.3,0.6-0.5,0.7c-0.2,0-0.5-0.6-0.7-0.5c-0.2,0-0.3,0.8-0.5,0.8
			c-0.2,0-0.5-0.5-0.7-0.5c-0.2,0-0.4-0.1-0.6-0.1c-0.2,0-0.4,0.2-0.6,0.3c-0.2,0-0.4,0.6-0.6,0.6c-0.2,0-0.4-0.2-0.6-0.2
			c-0.2,0-0.4,0-0.6,0c-0.2,0-0.4-0.2-0.6-0.2c-0.2,0-0.4-0.1-0.6-0.1c-0.2,0-0.4,0.5-0.6,0.5c-0.2,0-0.4-0.6-0.6-0.6
			c-0.2,0-0.4,0.3-0.6,0.3c-0.2,0-0.4-0.5-0.6-0.5c-0.2,0-0.4,0.1-0.6,0.1c-0.2,0-0.4,0.2-0.6,0.2c-0.2,0-0.4-0.1-0.6-0.1
			c-0.2,0-0.4-0.2-0.6-0.2c-0.2,0-0.4-0.1-0.6-0.1c-0.2,0-0.4,0.1-0.6,0.1c-0.2,0-0.5,0.1-0.7,0c-0.2-0.1-0.2-0.4-0.4-0.5
			c-0.1-0.2-0.5-0.3-0.5-0.5c-0.1-0.2,0.2-0.4,0.2-0.7c0-0.2,0-0.4,0-0.6c0-0.2-0.4-0.5-0.3-0.7c0-0.2,0.4-0.4,0.4-0.6
			c0-0.2,0.3-0.4,0.3-0.6c0-0.2-0.2-0.4-0.2-0.7c0-0.2-0.1-0.4-0.1-0.6c0-0.2,0.5-0.4,0.5-0.6c0-0.2-0.2-0.4-0.2-0.7
			c0-0.2-0.2-0.5-0.2-0.7s0.7-0.3,0.7-0.5c0-0.2-0.3-0.5-0.3-0.7c0-0.2,0.4-0.4,0.4-0.6c0-0.2,0.1-0.4,0.1-0.6
			c0-0.2-0.4-0.5-0.3-0.7c0-0.2-0.1-0.4,0-0.6c0-0.2,0.4-0.4,0.4-0.6c0-0.2,0.1-0.4,0.2-0.6c0-0.2,0-0.5,0-0.6
			C127.3,304.8,127.3,304.6,127.3,304.5"/>
	</defs>
	<use xlink:href="#XMLID_24_"  style="overflow:visible;fill:#096A52;"/>
	<clipPath id="XMLID_8_">
		<use xlink:href="#XMLID_24_"  style="overflow:visible;"/>
	</clipPath>
</g>
<g>
	<path class="st3" d="M134.3,279.1c0,0,44.5,6.6,99.1-0.9l0.1,3c0,0-45.4,9.2-99.7,1.2C133.8,280.2,134.3,279.1,134.3,279.1"/>
</g>
<path class="st4" d="M161.7,225c6.9,7.7,32.3,33.3,69,39.2c0.1,0.9,0.3,2.9,0.4,3.8c-44.8-5.8-74.6-42.1-74.6-42.1L161.7,225z"/>
<g>
	<defs>
		<path id="SVGID_1_" d="M146,279c0.2,0,0.4,0.8,0.6,0.8c0.1,0,0.2-0.1,0.3-0.3c0.1-0.1,0.2-0.3,0.3-0.3c0.1,0,0.2,0,0.3,0
			c0.1,0,0.2,0,0.3,0c0.2,0,0.4,0.6,0.6,0.6c0.1,0,0.2,0,0.3,0c0.1,0,0.2,0,0.3,0c0.1,0,0.2,0,0.3-0.1c0.1-0.1,0.2-0.1,0.3-0.1
			c0.1,0,0.2,0,0.3,0c0.1,0,0.2-0.1,0.3,0c0.2,0,0.4,0,0.6,0.1c0.2,0,0.3,0.7,0.6,0.7c0.1,0,0.2-0.1,0.3-0.3
			c0.1-0.2,0.2-0.3,0.3-0.3c0.2,0,0.4,0.6,0.6,0.6c0.2,0,0.4,0.2,0.6,0.3c0.1,0,0.2-0.1,0.3-0.1c0.1-0.1,0.2-0.1,0.3-0.1
			c0.2,0,0.4,0.3,0.6,0.4c0.2,0,0.4,0,0.6,0.1c0.1,0,0.2-0.1,0.3-0.3c0.1-0.1,0.2-0.3,0.3-0.3c0.2,0,0.3,0.7,0.5,0.7
			c0.1,0,0.2,0,0.3-0.1c0.1,0,0.2-0.1,0.3-0.1c0.1,0,0.2,0,0.3,0c0.1,0,0.2,0,0.3,0c0.2,0,0.4,0.4,0.6,0.4c0.1,0,0.2-0.1,0.3-0.2
			c0.1-0.1,0.2-0.2,0.3-0.2c0.2,0,0.4,0.1,0.6,0.1c0.1,0,0.2,0,0.3,0c0.1,0,0.2,0,0.3,0c0.2,0,0.3,0.6,0.5,0.6
			c0.1,0,0.2-0.2,0.4-0.3c0.1-0.2,0.3-0.3,0.4-0.3c0.2,0,0.3,0.6,0.5,0.6c0.1,0,0.2-0.1,0.3-0.2c0.1-0.1,0.2-0.2,0.3-0.2
			c0.2,0,0.3,0.6,0.5,0.6c0.1,0,0.2,0,0.3-0.1c0.1-0.1,0.2-0.1,0.3-0.1c0.1,0,0.2,0,0.3,0c0.1,0,0.2,0,0.3,0c0.2,0,0.4,0.1,0.6,0.1
			s0.3,0.6,0.5,0.7c0.2,0,0.4,0.1,0.6,0.1c0.1,0,0.2-0.1,0.4-0.3c0.1-0.1,0.3-0.3,0.4-0.3c0.2,0,0.4,0.1,0.6,0.1c0.2,0,0.4,0,0.6,0
			c0.2,0,0.3,0.4,0.6,0.5c0.2,0,0.4,0.1,0.6,0.1c0.1,0,0.2,0,0.3,0c0.1,0,0.2,0,0.3,0c0.2,0,0.4,0.1,0.6,0.2c0.1,0,0.2,0,0.3,0
			c0.1,0,0.2-0.1,0.3,0c0.2,0,0.3,0.7,0.5,0.7c0.1,0,0.2-0.1,0.4-0.3c0.1-0.2,0.3-0.3,0.4-0.3c0.2,0,0.3,0.6,0.5,0.6
			c0.1,0,0.2,0,0.3-0.1s0.2-0.1,0.3-0.1c0.2,0,0.4,0.3,0.6,0.3c0.2,0,0.4,0.3,0.6,0.4c0.1,0,0.2-0.1,0.4-0.2
			c0.1-0.1,0.3-0.2,0.4-0.2c0.2,0,0.4,0,0.6,0c0.2,0,0.4,0.1,0.6,0.2c0.2,0,0.3,0.7,0.5,0.7c0.1,0,0.2-0.1,0.4-0.2
			c0.1-0.1,0.3-0.2,0.4-0.2c0.2,0,0.3,0.5,0.5,0.5c0.2,0,0.4,0.2,0.6,0.2c0.2,0,0.4,0.1,0.6,0.1c0.1,0,0.2-0.1,0.4-0.1
			c0.1-0.1,0.3-0.2,0.4-0.2c0.2,0,0.3,0.6,0.5,0.6c0.2,0,0.4,0,0.6,0.1c0.2,0,0.4,0,0.6,0.1c0.1,0,0.2-0.1,0.4-0.2
			c0.1-0.1,0.3-0.2,0.4-0.2c0.2,0.1,0.4,0.2,0.6,0.3c0.2,0.1,0.4,0.1,0.6,0.1c0.2,0.1,0.3,0.6,0.5,0.7c0.1,0,0.2,0,0.3-0.1
			c0.1-0.1,0.2-0.1,0.3-0.1c0.2,0,0.3-0.4,0.5-0.4c0.2,0,0.4,0,0.6-0.1c0.2,0,0.4-0.1,0.6-0.1c0.1,0,0.2,0.1,0.4,0.2
			c0.1,0.1,0.3,0.2,0.4,0.2c0.1,0,0.2,0,0.3,0c0.1,0,0.2,0,0.3,0c0.2,0,0.4-0.2,0.6-0.3c0.1,0,0.2,0,0.3,0c0.1,0,0.2,0.1,0.3,0
			c0.2,0,0.4-0.2,0.6-0.3c0.1,0,0.2,0,0.3,0c0.1,0,0.2,0,0.3,0c0.2,0,0.4-0.1,0.6-0.2c0.2,0,0.4-0.1,0.6-0.2c0.2,0,0.3-0.5,0.5-0.6
			c0.1,0,0.2,0.1,0.4,0.2c0.1,0.1,0.3,0.2,0.4,0.2c0.2,0,0.4,0,0.6-0.1c0.2,0,0.4-0.1,0.6-0.1c0.2,0,0.3-0.4,0.5-0.5
			c0.1,0,0.2,0,0.3,0.1c0.1,0,0.2,0.1,0.3,0.1c0.2,0,0.3-0.7,0.5-0.7c0.1,0,0.2,0.1,0.3,0.2c0.1,0.1,0.2,0.2,0.3,0.2
			c0.2,0,0.3-0.6,0.5-0.7c0.1,0,0.2,0.1,0.3,0.1c0.1,0.1,0.2,0.1,0.3,0.1c0.1,0,0.2,0,0.3,0c0.1,0,0.2,0.1,0.3,0
			c0.2,0,0.4-0.1,0.6-0.1c0.2,0,0.3-0.4,0.5-0.5c0.2,0,0.4-0.2,0.6-0.3c0.1,0,0.2,0.1,0.3,0.1c0.1,0.1,0.2,0.1,0.3,0.1
			c0.2,0,0.4-0.2,0.6-0.2c0.1,0,0.2,0.1,0.3,0.1c0.1,0.1,0.2,0.2,0.3,0.1c0.2,0,0.4-0.3,0.6-0.3c0.2,0,0.4-0.3,0.6-0.3
			c0.2,0,0.4-0.3,0.6-0.3c0.1,0,0.2,0,0.3,0.1c0.1,0.1,0.2,0.1,0.3,0.1c0.2,0,0.4,0,0.6,0c0.1,0,0.2,0,0.3,0s0.2,0,0.3,0
			c0.2,0,0.4-0.1,0.6-0.1c0.2,0,0.4-0.1,0.6-0.1c0.2,0,0.4-0.5,0.6-0.5c0.1,0,0.2,0,0.3,0c0.1,0,0.2,0,0.3,0c0.2,0,0.4-0.1,0.6-0.1
			c0.2,0,0.4,0,0.6,0c0.1,0,0.2,0.1,0.3,0.2c0.1,0.1,0.2,0.2,0.3,0.2c0.1,0,0.2,0,0.3,0.1c0.1,0,0.2,0.1,0.3,0.1
			c0.2,0,0.4-0.1,0.6-0.1c0.2,0,0.4-0.1,0.6-0.2c0.2,0,0.4-0.1,0.6-0.1c0.1,0,0.2,0,0.3,0c0.1,0,0.2,0,0.3,0c0.2,0,0.4-0.5,0.6-0.5
			c0.2,0,0.4-0.2,0.6-0.2c0.1,0,0.2,0.1,0.3,0.3c0.1,0.2,0.2,0.3,0.3,0.3c0.2,0,0.4-0.5,0.6-0.5c0.2,0,0.4-0.2,0.6-0.2
			c0.2,0,0.4-0.1,0.6-0.2c0.1,0,0.2,0,0.3,0c0.1,0,0.2,0,0.3,0c0.1,0,0.2,0,0.3,0c0.1,0,0.2,0,0.3,0c0.1,0,0.2,0.1,0.3,0.2
			c0.1,0.1,0.2,0.2,0.3,0.2c0.2,0,0.4-0.1,0.6-0.1c0.2,0,0.4-0.2,0.6-0.2c0.1,0,0.2,0,0.3,0c0.1,0,0.2,0,0.3,0
			c0.2,0,0.4-0.4,0.6-0.4c0.1,0,0.2,0,0.3,0.1c0.1,0,0.2,0.1,0.3,0.1c0.1,0,0.2,0,0.3,0c0.1,0,0.2,0,0.3,0c0.1,0,0.2,0.1,0.3,0.1
			c0.1,0.1,0.2,0.1,0.3,0.1c0.2,0,0.4-0.3,0.6-0.3c0.2,0,0.4,0,0.6,0c0.1,0,0.2,0.1,0.3,0.2c0.1,0.1,0.2,0.2,0.3,0.2
			c0.2,0,0.4-0.5,0.6-0.5c0.2,0,0.4-0.1,0.6-0.1c0.2,0,0.4-0.1,0.6-0.1c0.1,0,0.2,0,0.3,0c0.1,0,0.2,0,0.3,0c0.2,0,0.4,0.3,0.6,0.3
			c0.1,0,0.2-0.1,0.3-0.2c0.1-0.1,0.2-0.2,0.3-0.2c0.2,0,0.4,0.8,0.6,0.8c0.1,0,0.2-0.1,0.3-0.3c0.1-0.2,0.2-0.3,0.3-0.3
			c0.2,0,0.4,0.2,0.6,0.2c0.2,0,0.3,0.4,0.5,0.5c0.2,0.1,0.3,0.3,0.5,0.3c0.1,0,0.2,0,0.3,0c0.1,0,0.2,0,0.3,0
			c0.2,0.1,0.1,0.2,0.1,0.4c0,0.2,0.3,0.4,0.3,0.6c0,0.2-0.3,0.4-0.3,0.7c0,0.2,0.2,0.4,0.3,0.6c0,0.2,0.6,0.3,0.7,0.5
			c0,0.2-0.2,0.5-0.1,0.7c0,0.2,0.1,0.4,0.2,0.6c0,0.2-0.2,0.5-0.1,0.7c0.1,0.2,0.4,0.3,0.4,0.5c0.1,0.2-0.2,0.5-0.1,0.7
			c0.1,0.2,0.2,0.4,0.2,0.6c0.1,0.2,0.5,0.3,0.6,0.5c0.1,0.2-0.1,0.5-0.1,0.7c0.1,0.2,0.3,0.3,0.4,0.5s-0.1,0.4,0,0.6
			c0.1,0.2,0.3,0.3,0.3,0.5c0.1,0.2,0.2,0.4,0.3,0.6c0.1,0.2-0.3,0.5-0.2,0.7c0.1,0.2,0.2,0.4,0.2,0.6c0.1,0.2,0.3,0.3,0.3,0.5
			c0.1,0.2,0.1,0.4,0.2,0.6c0.1,0.2,0.2,0.4,0.2,0.6c0.1,0.2,0.6,0.2,0.6,0.4c0.1,0.2-0.5,0.6-0.4,0.8c0.1,0.2,0.1,0.4,0.2,0.6
			c0.1,0.2,0.3,0.3,0.4,0.5c0.1,0.2,0.2,0.4,0.2,0.6c0.1,0.2,0.5,0.2,0.6,0.4c0.1,0.2-0.5,0.6-0.5,0.8c0.1,0.2,0.8,0.2,0.9,0.3
			c0.1,0.2,0,0.4,0.1,0.6c0.1,0.2,0.1,0.4,0.2,0.6c0.1,0.2-0.1,0.5,0,0.7c0.1,0.2,0.3,0.3,0.3,0.5c0.1,0.2,0.2,0.4,0.2,0.6
			c0.1,0.2,0.1,0.4,0.2,0.6c0.1,0.2-0.3,0.6-0.3,0.8c0.1,0.2,0.9,0.1,0.9,0.3c0.1,0.2-0.6,0.7-0.5,0.8c0.1,0.2,0.2,0.4,0.2,0.6
			c0.1,0.2,0.5,0.3,0.5,0.5c0.1,0.3,0.2,0.5,0.2,0.6c0,0.1-0.2,0.4-0.1,0.7c0,0.2,0.5,0.3,0.6,0.5c0,0.2,0.3,0.3,0.3,0.6
			c0,0.2-0.3,0.5-0.3,0.7c0.1,0.2-0.2,0.5-0.2,0.7c0.1,0.2,0.6,0.3,0.7,0.5c0.1,0.2-0.2,0.5-0.2,0.7c0.1,0.2-0.1,0.4,0,0.6
			c0.1,0.2,0,0.4,0.1,0.6c0.1,0.2,0.8,0.2,0.8,0.4c0.1,0.2-0.4,0.5-0.3,0.7c0.1,0.2,0.2,0.4,0.3,0.6c0.1,0.2-0.1,0.4,0,0.7
			c0.1,0.2,0,0.4,0.1,0.6c0.1,0.2,0.5,0.3,0.5,0.5c0.1,0.2,0.2,0.4,0.3,0.6c0.1,0.2,0,0.4,0,0.6c0.1,0.2,0.5,0.3,0.5,0.5
			c0.1,0.2-0.5,0.6-0.4,0.7c0.1,0.2,0,0.3,0,0.5c0,0.2,0.1,0.4,0,0.6c-0.1,0.2,0,0.6-0.1,0.7c-0.1,0.1-0.4,0.3-0.6,0.4
			c-0.1,0-0.2-0.1-0.4-0.2c-0.1-0.1-0.3-0.3-0.4-0.3c-0.2,0-0.4,0.4-0.6,0.5c-0.2,0-0.4,0.2-0.6,0.2c-0.1,0-0.2-0.1-0.3-0.3
			c-0.1-0.1-0.2-0.3-0.3-0.3c-0.2,0-0.4,0.2-0.6,0.2c-0.2,0-0.4,0.5-0.6,0.5c-0.1,0-0.2-0.1-0.3-0.2c-0.1-0.1-0.2-0.2-0.3-0.2
			c-0.2,0-0.4,0.4-0.6,0.4c-0.2,0-0.4-0.6-0.6-0.6c-0.1,0-0.2,0.2-0.3,0.4s-0.2,0.4-0.3,0.4c-0.2,0-0.4-0.3-0.6-0.3
			c-0.1,0-0.2,0.1-0.3,0.1c-0.1,0.1-0.2,0.1-0.3,0.1c-0.2,0-0.4-0.4-0.6-0.4c-0.1,0-0.2,0-0.3,0c-0.1,0-0.2,0-0.3,0
			c-0.2,0-0.4,0-0.6,0c-0.1,0-0.2,0-0.3,0c-0.1,0-0.2,0-0.3,0c-0.2,0-0.4-0.6-0.6-0.6c-0.1,0-0.2,0.1-0.3,0.1
			c-0.1,0.1-0.2,0.1-0.3,0.1c-0.2,0-0.4-0.3-0.6-0.3c-0.2,0-0.4-0.1-0.6-0.1c-0.1,0-0.2,0.1-0.3,0.2c-0.1,0.1-0.2,0.3-0.3,0.2
			c-0.2,0-0.4,0-0.6-0.1c-0.2,0-0.4-0.1-0.6-0.1c-0.2,0-0.4-0.3-0.6-0.4c-0.2,0-0.4-0.3-0.6-0.3c-0.1,0-0.2,0-0.3,0
			c-0.1,0-0.2,0-0.3,0c-0.1,0-0.2,0.1-0.4,0.2c-0.1,0.1-0.3,0.2-0.4,0.2c-0.2,0-0.3-0.5-0.5-0.5c-0.1,0-0.2,0-0.3,0
			c-0.1,0-0.2,0.1-0.3,0c-0.2,0-0.3-0.6-0.5-0.7c-0.1,0-0.2,0.1-0.4,0.2c-0.1,0.1-0.3,0.2-0.4,0.2c-0.2-0.1-0.4-0.1-0.6-0.2
			c-0.2-0.1-0.3-0.4-0.5-0.4c-0.1,0-0.2,0.1-0.4,0.1c-0.1,0.1-0.3,0.2-0.4,0.1c-0.2-0.1-0.3-0.3-0.5-0.4c-0.2-0.1-0.4-0.2-0.6-0.2
			c-0.2-0.1-0.3-0.3-0.5-0.4c-0.2-0.1-0.2-0.5-0.4-0.6c-0.1,0-0.2,0-0.3,0c-0.1,0-0.2,0.1-0.3,0c-0.1,0-0.2,0-0.3,0
			c-0.1,0-0.2,0-0.3,0c-0.1,0-0.2,0-0.3,0c-0.1,0-0.2,0-0.3,0c-0.2-0.1-0.4-0.1-0.6-0.2c-0.2-0.1-0.2-0.6-0.4-0.7
			c-0.1,0-0.2,0.1-0.4,0.2c-0.1,0.1-0.3,0.2-0.4,0.2c-0.2,0-0.4-0.3-0.6-0.3c-0.1,0-0.2,0.1-0.3,0.1s-0.2,0.2-0.3,0.1
			c-0.2,0-0.4,0-0.6-0.1c-0.2,0-0.4-0.1-0.6-0.2c-0.2,0-0.4-0.4-0.6-0.5c-0.2,0-0.4-0.2-0.6-0.2c-0.1,0-0.2,0-0.3,0
			c-0.1,0-0.2,0-0.3,0c-0.1,0-0.2,0.1-0.3,0.1c-0.1,0.1-0.2,0.1-0.3,0.1c-0.1,0-0.2,0-0.3,0c-0.1,0-0.2,0-0.3,0c-0.2,0-0.4,0-0.6,0
			c-0.2,0-0.4-0.4-0.6-0.4c-0.1,0-0.2,0-0.3-0.1c-0.1,0-0.2-0.1-0.3-0.1c-0.2,0-0.4,0.8-0.6,0.8c-0.1,0-0.2-0.1-0.3-0.2
			c-0.1-0.1-0.2-0.2-0.3-0.2c-0.2,0-0.4,0-0.6,0c-0.2,0-0.4,0.5-0.6,0.5c-0.1,0-0.2-0.1-0.3-0.3c-0.1-0.2-0.2-0.3-0.3-0.3
			c-0.2,0-0.4,0.4-0.6,0.5c-0.2,0-0.4,0.2-0.6,0.2c-0.1,0-0.2-0.1-0.3-0.3c-0.1-0.1-0.2-0.3-0.3-0.3c-0.2,0-0.3,0.8-0.5,0.8
			c-0.1,0-0.2-0.1-0.3-0.2c-0.1-0.1-0.2-0.2-0.3-0.2c-0.2,0-0.4,0.4-0.6,0.4c-0.1,0-0.2-0.2-0.3-0.3c-0.1-0.2-0.2-0.3-0.4-0.3
			c-0.2,0-0.4,0.3-0.6,0.3c-0.2,0-0.4,0.3-0.6,0.4c-0.1,0-0.2-0.1-0.3-0.2c-0.1-0.1-0.2-0.2-0.3-0.2c-0.2,0-0.4,0.2-0.6,0.2
			c-0.2,0-0.3,0.6-0.5,0.6c-0.1,0-0.2-0.1-0.4-0.3c-0.1-0.1-0.3-0.3-0.4-0.3c-0.2,0-0.4,0.3-0.6,0.4c-0.2,0-0.4,0.1-0.6,0.1
			c-0.1,0-0.2,0-0.3-0.1c-0.1-0.1-0.2-0.1-0.3-0.1c-0.2,0-0.3,0.7-0.5,0.7c-0.1,0-0.2,0-0.3-0.1s-0.2-0.1-0.3-0.1
			c-0.2,0-0.4,0.3-0.6,0.3c-0.1,0-0.2,0-0.3-0.1c-0.1-0.1-0.2-0.1-0.3-0.1c-0.2,0-0.3,0.4-0.5,0.4c-0.1,0-0.2-0.1-0.3-0.2
			c-0.1-0.1-0.2-0.2-0.3-0.2c-0.1,0-0.2,0-0.3,0c-0.1,0-0.2,0-0.3,0c-0.2,0-0.3,0.7-0.5,0.8c-0.2,0-0.4,0-0.6,0.1
			c-0.1,0-0.2,0-0.3-0.1c-0.1,0-0.2-0.1-0.3-0.1c-0.1,0-0.2-0.1-0.3-0.1c-0.1-0.1-0.2-0.1-0.3-0.1c-0.2,0-0.3,0.5-0.5,0.5
			c-0.1,0-0.2-0.1-0.3-0.2c-0.1-0.1-0.2-0.2-0.3-0.2c-0.2,0-0.4,0-0.6,0.1c-0.2,0-0.3,0.9-0.5,0.9c-0.1,0-0.2-0.1-0.3-0.2
			s-0.2-0.2-0.3-0.2c-0.2,0-0.4,0.3-0.6,0.4c-0.1,0-0.2-0.1-0.3-0.2s-0.2-0.2-0.3-0.2c-0.2,0-0.4,0.4-0.6,0.4
			c-0.2,0-0.4,0.3-0.6,0.3c-0.2,0-0.4,0.1-0.6,0.1c-0.1,0-0.2-0.2-0.3-0.3c-0.1-0.2-0.2-0.3-0.3-0.3c-0.2,0-0.4,0.5-0.6,0.5
			c-0.2,0-0.4,0.2-0.6,0.2c-0.2,0-0.4-0.7-0.6-0.7c-0.1,0-0.2,0.1-0.3,0.3c-0.1,0.1-0.2,0.3-0.3,0.3c-0.2,0-0.4-0.6-0.6-0.6
			c-0.1,0-0.2,0.1-0.3,0.2c-0.1,0.1-0.2,0.2-0.3,0.2c-0.1,0-0.2,0.1-0.3,0.2c-0.1,0.1-0.2,0.2-0.3,0.2c-0.2,0-0.4-0.6-0.6-0.6
			c-0.1,0-0.2,0.1-0.3,0.2c-0.1,0.1-0.2,0.2-0.3,0.2c-0.2,0-0.4-0.2-0.6-0.2c-0.2,0-0.4-0.5-0.6-0.5c-0.2,0-0.4-0.1-0.6-0.1
			c-0.1,0-0.2,0.2-0.4,0.3c-0.1,0.2-0.3,0.3-0.4,0.3c-0.2,0-0.3-0.7-0.5-0.7c-0.1,0-0.2,0.1-0.3,0.2c-0.1,0.1-0.2,0.2-0.3,0.2
			c-0.2,0-0.3-0.6-0.5-0.6c-0.1,0-0.2,0-0.3,0c-0.1,0-0.2,0.1-0.3,0c-0.1,0-0.2,0.1-0.3,0.2c-0.1,0.1-0.3,0.2-0.3,0.2
			c-0.2,0-0.4-0.1-0.6-0.1c-0.2,0-0.4-0.1-0.6-0.2c-0.2,0-0.3-0.6-0.5-0.7c-0.1,0-0.2,0.1-0.4,0.2c-0.1,0.1-0.3,0.2-0.4,0.2
			c-0.2,0-0.4-0.2-0.6-0.2c-0.2,0-0.3-0.3-0.5-0.3c-0.2-0.1-0.3-0.3-0.5-0.4c-0.1,0-0.2,0.1-0.4,0.1c-0.1,0.1-0.3,0.2-0.4,0.1
			c-0.1,0-0.2,0-0.3,0c-0.1,0-0.2,0.1-0.3,0c-0.2-0.1-0.4-0.1-0.6-0.2c-0.2-0.1-0.2-0.7-0.4-0.7c-0.1,0-0.2,0.1-0.4,0.1
			c-0.1,0.1-0.3,0.2-0.4,0.1c-0.2-0.1-0.3-0.3-0.5-0.4c-0.1,0-0.2,0-0.3,0c-0.1,0-0.2,0-0.3,0c-0.2,0-0.3-0.6-0.5-0.6
			c-0.1,0-0.2,0-0.3,0.1c-0.1,0-0.2,0.1-0.3,0.1c-0.2,0-0.4,0-0.6-0.1c-0.2,0-0.3-0.4-0.5-0.5c-0.1,0-0.2,0-0.3,0.1
			c-0.1,0.1-0.2,0.1-0.3,0.1c-0.2,0-0.4-0.2-0.6-0.3c-0.2,0-0.4-0.1-0.6-0.2c-0.1,0-0.2,0-0.3,0.1c-0.1,0-0.2,0.1-0.3,0.1
			c-0.2,0-0.4-0.5-0.6-0.5c-0.1,0-0.2,0-0.3,0c-0.1,0-0.2,0-0.3,0c-0.2,0-0.4-0.1-0.6-0.1c-0.1,0-0.2,0-0.4,0c-0.1,0-0.2,0-0.3,0
			c-0.2,0-0.4,0-0.6,0c-0.2,0-0.4,0-0.6,0c-0.2,0-0.3,0.8-0.5,0.8c-0.1,0-0.2-0.1-0.3-0.2c-0.1-0.1-0.2-0.2-0.3-0.2
			c-0.2,0-0.4,0.2-0.6,0.3c-0.2,0-0.3,0.2-0.5,0.3c-0.1,0-0.2,0-0.3,0c-0.1,0-0.2-0.1-0.3,0c-0.1,0-0.2,0-0.3-0.1
			c-0.1,0-0.2-0.1-0.3-0.1c-0.2,0.1-0.4,0.2-0.5,0.3c-0.2,0.1-0.3,0.4-0.4,0.5c-0.2,0.1-0.4,0.1-0.6,0.2c-0.2,0.1-0.4,0.1-0.6,0.2
			c-0.1,0-0.2,0-0.4,0c-0.1,0-0.3-0.1-0.4,0c-0.2,0.1-0.2,0.5-0.4,0.6c-0.2,0.1-0.3,0.4-0.5,0.5c-0.1,0-0.2,0-0.3,0
			c-0.1,0-0.2-0.1-0.3,0c-0.1,0-0.2,0-0.3,0c-0.1,0-0.2-0.1-0.3,0c-0.2,0.1-0.3,0.3-0.5,0.4c-0.1,0-0.2,0-0.3,0c-0.1,0-0.2,0-0.3,0
			c-0.2,0.1-0.2,0.7-0.4,0.8c-0.1,0-0.2,0-0.4-0.1c-0.1-0.1-0.2-0.1-0.3-0.1c-0.2,0.1-0.3,0.5-0.5,0.5c-0.2,0.1-0.4,0.3-0.6,0.3
			c-0.1,0-0.2-0.1-0.4-0.2c-0.1-0.1-0.3-0.2-0.4-0.2c-0.1,0-0.2,0-0.3,0c-0.1,0-0.2-0.1-0.3,0c-0.2,0-0.4,0.1-0.6,0.2
			c-0.2,0-0.3,0.6-0.5,0.7c-0.1,0-0.2-0.1-0.4-0.3c-0.1-0.1-0.3-0.3-0.4-0.3c-0.2,0-0.3,0.8-0.5,0.8c-0.1,0-0.2-0.1-0.4-0.3
			c-0.1-0.1-0.2-0.3-0.3-0.3c-0.1,0-0.2,0-0.3-0.1c-0.1,0-0.2-0.1-0.3-0.1c-0.2,0-0.4,0.2-0.6,0.3c-0.2,0-0.4,0.6-0.6,0.6
			c-0.1,0-0.2-0.1-0.3-0.1c-0.1-0.1-0.2-0.1-0.3-0.1c-0.2,0-0.4,0-0.6,0c-0.1,0-0.2,0-0.3-0.1c-0.1-0.1-0.2-0.1-0.3-0.1
			c-0.1,0-0.2,0-0.3,0c-0.1,0-0.2,0-0.3,0c-0.2,0-0.4,0.5-0.6,0.5c-0.2,0-0.4-0.6-0.6-0.6c-0.1,0-0.2,0.1-0.3,0.2
			c-0.1,0.1-0.2,0.2-0.3,0.2c-0.2,0-0.4-0.5-0.6-0.5c-0.1,0-0.2,0-0.3,0c-0.1,0-0.2,0.1-0.3,0c-0.1,0-0.2,0-0.3,0.1
			c-0.1,0-0.2,0.1-0.3,0.1c-0.2,0-0.4-0.1-0.6-0.1c-0.2,0-0.4-0.2-0.6-0.2c-0.2,0-0.4-0.1-0.6-0.1c-0.1,0-0.2,0-0.3,0
			c-0.1,0-0.2,0-0.3,0c-0.1,0-0.2,0-0.3,0c-0.1,0-0.3,0-0.4,0c-0.2-0.1-0.2-0.4-0.4-0.5c-0.1-0.2-0.5-0.3-0.5-0.5
			c-0.1-0.2,0.2-0.4,0.2-0.7c0-0.2,0-0.4,0-0.6c0-0.2-0.4-0.5-0.3-0.7c0-0.2,0.4-0.4,0.4-0.6c0-0.2,0.3-0.4,0.3-0.6
			c0-0.2-0.2-0.4-0.2-0.7c0-0.2-0.1-0.4-0.1-0.6c0-0.2,0.5-0.4,0.5-0.6c0-0.2-0.2-0.4-0.2-0.7c0-0.2-0.2-0.5-0.2-0.7
			c0-0.2,0.7-0.3,0.7-0.5c0-0.2-0.3-0.5-0.3-0.7c0-0.2,0.4-0.4,0.4-0.6c0-0.2,0.1-0.4,0.1-0.6c0-0.2-0.4-0.5-0.3-0.7
			c0-0.2-0.1-0.4,0-0.6c0-0.2,0.4-0.4,0.4-0.6c0-0.2,0.1-0.4,0.2-0.6c0-0.2,0-0.5,0-0.6c0-0.3,0.1-0.5,0.1-0.6
			c0-0.1,0.3-0.2,0.4-0.5c0.1-0.2-0.4-0.6-0.4-0.8c0.1-0.2,0.3-0.3,0.4-0.5c0.1-0.2,0.5-0.2,0.6-0.4c0.1-0.2,0.3-0.3,0.4-0.5
			c0.1-0.2,0.1-0.4,0.2-0.6c0.1-0.2-0.2-0.5-0.1-0.7c0.1-0.2,0.2-0.3,0.3-0.5c0.1-0.2,0.2-0.4,0.3-0.5c0.1-0.2-0.1-0.5,0-0.6
			c0.1-0.2,0-0.4,0-0.6c0.1-0.2-0.1-0.5,0-0.7c0.1-0.2,0.6-0.2,0.7-0.4c0.1-0.2,0.3-0.3,0.4-0.5c0.1-0.2-0.2-0.5-0.1-0.7
			c0.1-0.2,0.2-0.3,0.3-0.5c0.1-0.2,0.1-0.4,0.1-0.6c0.1-0.2,0.4-0.3,0.4-0.5c0.1-0.2-0.2-0.5-0.1-0.7c0.1-0.2-0.2-0.5-0.1-0.7
			c0.1-0.2,0.3-0.3,0.3-0.5c0.1-0.2,0.6-0.2,0.6-0.4c0.1-0.2,0-0.4,0-0.6c0.1-0.2,0.2-0.4,0.2-0.6c0.1-0.2,0.4-0.3,0.5-0.5
			c0.1-0.2-0.5-0.6-0.4-0.8c0.1-0.2,0.1-0.4,0.2-0.6c0.1-0.2,0.7-0.2,0.7-0.4c0.1-0.2-0.1-0.5,0-0.7c0.1-0.2,0.2-0.4,0.3-0.6
			c0.1-0.2,0.2-0.4,0.3-0.6c0.1-0.2-0.1-0.5-0.1-0.7c0.1-0.2-0.1-0.5-0.1-0.7c0.1-0.2,0.3-0.4,0.3-0.5c0.1-0.2,0.4-0.3,0.4-0.5
			c0.1-0.2,0.2-0.4,0.3-0.6c0-0.2-0.3-0.5-0.3-0.7c0-0.2,0.5-0.3,0.5-0.5c0-0.2,0-0.4,0-0.6c0-0.2-0.1-0.4-0.1-0.6
			c0-0.2,0.3-0.4,0.3-0.6c0-0.2-0.3-0.5-0.1-0.7c0.1-0.1,0.2,0,0.4,0.1c0.2,0.1,0.3,0.2,0.4,0.1c0.2-0.1,0.3-0.3,0.5-0.4
			c0.2,0,0.4-0.1,0.6-0.1c0.2,0,0.4-0.4,0.6-0.4c0.2,0,0.4,0,0.6-0.1c0.1,0,0.2,0,0.3,0.1c0.1,0.1,0.2,0.1,0.3,0.1
			c0.2,0,0.4-0.1,0.6-0.1c0.2,0,0.4-0.2,0.6-0.2c0.1,0,0.2,0.2,0.3,0.3c0.1,0.2,0.2,0.3,0.3,0.3c0.2,0,0.4-0.5,0.6-0.5
			c0.2,0,0.4,0.3,0.6,0.3c0.1,0,0.2,0,0.3,0c0.1,0,0.2,0,0.3,0c0.2,0,0.4,0.1,0.6,0.1c0.1,0,0.2-0.1,0.3-0.1
			c0.1-0.1,0.2-0.1,0.3-0.1c0.2,0,0.4,0.3,0.6,0.3c0.1,0,0.2-0.1,0.3-0.1c0.1-0.1,0.2-0.1,0.3-0.1c0.1,0,0.2-0.1,0.3-0.1
			c0.1-0.1,0.2-0.2,0.3-0.2c0.1,0,0.2,0,0.3-0.1C145.8,279.1,145.9,279,146,279C146,279,146,279,146,279"/>
	</defs>
	<clipPath id="SVGID_2_">
		<use xlink:href="#SVGID_1_"  style="overflow:visible;"/>
	</clipPath>
	<path class="st5" d="M116,311.7c6.2-4.3,17.8,5.1,31.5-1.8c10.3-5.2,16.4,5.3,32.8,5.1c9.7-0.1,27-9.3,39.7-4.2
		c13.7,5.5,27.3-2.5,33.5,1.8v7.7c-6.2-4.3-19.7,2-33.5-3.5c-12.7-5.1-30,2.4-39.7,2.5c-16.4,0.2-22.5-8.6-32.8-3.4
		c-13.6,6.9-25.3-0.8-31.5,3.5V311.7z"/>
</g>
<path class="st6" d="M223.9,234.8l3.2,0.5c0,0,0.3,0,0.4,1.5c-17.3,9-29.4,10.3-46.4,10.3c-17,0-31.4-4.1-42.4-11.8
	c0.5-1.8,0.5-2.2,0.5-2.2l1.6,0.9c12.9,4,26.3,6.7,41,6.7C197,240.7,211.1,238.8,223.9,234.8"/>
<g>
	<defs>
		<path id="XMLID_23_" d="M270.7,206.7c0,0,10.3-1.5,6.4,7.8c-3.9,9.3-14,8.8-17,5.4C257.1,216.4,270.7,206.7,270.7,206.7"/>
	</defs>
	<use xlink:href="#XMLID_23_"  style="overflow:visible;fill:#F7E7D6;"/>
	<clipPath id="XMLID_10_">
		<use xlink:href="#XMLID_23_"  style="overflow:visible;"/>
	</clipPath>
</g>
<g>
	<defs>
		<path id="XMLID_22_" d="M92.1,186.1c0,0-9.7-3.8-8,6.2c1.6,10,11.6,11.8,15.4,9.1C103.2,198.7,92.1,186.1,92.1,186.1"/>
	</defs>
	<use xlink:href="#XMLID_22_"  style="overflow:visible;fill:#F7E7D6;"/>
	<clipPath id="XMLID_11_">
		<use xlink:href="#XMLID_22_"  style="overflow:visible;"/>
	</clipPath>
</g>
<path class="st0" d="M271.6,207.2c-0.7,0.6-1.4,1.6-1.8,2.9c-1,3.5-3,7-5.7,10.4c3.9-3.9,7.4-8.4,10.3-13.3
	C273.6,207.4,272.1,206.8,271.6,207.2z"/>
<path class="st0" d="M91.4,186.1l-2-0.5c2,6.9,5.2,13.2,9.4,18.9c-2.2-5.1-3.9-9.3-5.1-11.8C93,191.1,91.8,186.5,91.4,186.1z"/>
<path id="XMLID_21_" class="st7" d="M195.8,82.2c-54.1-6.2-98.9,26.1-107.5,71c-2.3,11.9-1.7,22.7,1.1,32.3l2,0.5
	c0.5,0.5,1.6,5.1,2.3,6.5c1.2,2.5,2.9,6.8,5.1,11.8c15.5,21.1,44.6,34.1,78.5,38c36.1,4.2,67.4-2.5,86.9-21.9
	c2.7-3.4,4.7-6.9,5.7-10.4c0.4-1.3,1.1-2.3,1.8-2.9c0.5-0.4,1.9,0.1,2.8,0c5.1-8.8,8.6-19.2,10-31.4
	C289.6,130.3,250,88.4,195.8,82.2z"/>
<g>
	<g id="XMLID_19_">
		<polygon class="st8" points="303.1,154.8 302.8,154.3 302.1,154.2 301.7,153.9 301.5,153.4 301.5,153 300.6,153 300.2,152.6 
			299.4,152.7 299.5,151.6 298.8,151.9 298,151.5 297.4,152.2 298,151.4 297.8,150.8 296.9,151 296.7,150.1 296.4,150.2 
			295.6,150.8 296.1,150 295.8,149.4 294.8,149.3 294.3,149.3 293.6,149.1 293.3,148.6 292.9,148.1 292.2,148 292.1,146.9 
			291.1,147.5 291.1,146.5 290.5,146.2 289.8,146.1 289.5,145.4 289.1,144.8 288.4,144.9 288,145.5 287.7,144.9 286.9,144.7 
			286.9,144 287,143.5 286.5,143.3 285.6,143.4 285.7,143 285.4,142.7 285.2,143 284.5,143 284.1,142.4 283.2,142.8 282.6,142.2 
			282.6,141.5 282.5,140.4 281.7,140.5 280.9,140.6 280.6,140 279.9,139.8 279.1,139.9 279.2,138.9 278.6,138.6 278.2,138.1 
			277.7,137.6 277,137.7 276.5,137.2 276.2,136.5 275.8,136.8 275.2,137 275.1,136 274.3,136 274,135.5 273.4,135.4 272.4,135.6 
			272.8,134.7 272.8,133.9 272.4,134.5 271.7,134.6 271,134.3 271,133.2 270.2,133.4 270,132.5 269.1,132.8 269,132.3 269.2,131.7 
			268.6,131.1 267.8,131.9 267,131.5 266.7,130.9 266.8,130.4 267,129.3 265.9,129.8 265.4,129.9 265,130 264.5,129.5 264.1,129.1 
			264,128.3 263.3,128.2 262.7,127.8 262.2,127.4 261.2,127.9 261.5,127.1 261.2,127 260.6,126.7 260.2,126.1 259.8,125.7 
			259.2,125.3 259,124.5 258.1,124.6 257.5,124.7 257.3,123.9 256.5,123.8 256.1,123.4 255.3,123.5 254.8,123.1 254.4,122.6 
			253.9,122.3 253.5,121.6 253.2,121.1 252.4,121 251.7,120.9 251.6,120.2 251,119.9 250.5,119.5 250,119.1 249.5,118.8 
			249.2,118.4 248.3,118.4 248.1,117.6 247.3,117.7 246.6,117.7 246.1,117.2 245.7,116.9 245.4,117.2 245.4,116.7 245.6,116 
			245.3,115.1 244.6,115.4 244.3,115.5 243.9,115 243.1,115.1 243.1,114.7 242.9,114.4 242.7,114.5 241.9,114.9 241.8,113.9 
			241.2,113.8 241.5,113.2 240.7,113.1 240.4,112.4 239.5,112.8 239.9,112.3 239.3,112.2 239.2,112.4 238.5,112 237.5,112.3 
			238,111.6 237.9,110.8 237.2,111 236.8,111.2 236.4,110.8 235.7,110.6 235,110.7 234.4,110.2 234.6,109.2 233.9,109 233.6,108.6 
			233.7,108.1 233.1,108 232.5,107.7 232.1,108 231.6,108 231.1,107.4 230.7,106.7 230.6,106.1 229.6,106.5 229.2,105.8 
			228.9,105.2 228.4,105 227.9,104.6 227.1,104.6 226.4,104.6 226.2,103.8 225.5,103.6 224.8,103.4 224.7,102.6 223.9,102.5 
			223.2,102.6 223.4,101.6 222.8,101 222.3,100.6 221.8,100.2 221.2,100.1 220.7,99.8 220.2,99.2 220,98.3 219.1,99.2 218.2,99 
			218,98.1 217.7,97.5 217,97.4 216.3,97.3 216.1,96.9 215.8,95.9 214.9,96.1 214.6,95.5 214,95.2 213.3,95.2 213.3,94.1 
			212.3,94.5 211.8,94 210.9,94.4 210.3,93.9 210,93.4 209.3,93.3 208.9,92.7 209,92.1 208.9,91.4 208.5,92 207.7,92.4 207.7,91.2 
			207.1,91.1 206.4,90.8 205.9,90.6 205.4,90.3 204.8,90.2 204.3,89.7 203.4,90 203.2,89.4 202.6,89.1 201.9,88.7 201.3,89 201,88 
			200.2,88.6 199.6,88.1 198.9,88.1 198.6,87.3 197.9,87.4 198.1,86.7 197.6,86.4 196.9,86.6 196.1,86.8 196.2,86.1 196.3,85.2 
			195.5,85.7 194.9,85.8 194.4,86.5 193.8,85.8 194.4,85.1 193.7,84.8 192.9,84.9 192.6,84.5 191.6,85 191.2,84 191,83 190.2,83.7 
			189.5,83.6 189,83 188.6,82.7 188.1,82 187.3,82.6 187.1,81.7 186.7,81.2 186,81 185.1,81 184.5,81.2 183.6,81.4 183.5,80.5 
			182.9,80.4 182.1,80.6 182.1,79.5 181.4,79.3 180.7,79.2 180.4,78.4 179.7,78.3 179.4,78.7 179,78.5 178.6,77.9 178.5,77.8 
			178.1,77.4 177.6,77.4 176.8,77.9 176.6,77 176.1,76.3 175.4,76.1 174.8,75.8 174.2,75.9 173.5,75.7 173.2,75.2 172.7,74.5 
			172,74.8 171.7,75.2 171.2,75 170.6,74.7 170.9,74.1 170.3,74 169.6,73.9 169.2,73.4 168.4,73.5 167.8,73.4 167.2,73.1 
			166.9,72.5 166.1,72.7 165.9,72.1 165.9,71.5 165.6,72.4 165,72.2 164.6,71.7 164.1,71.1 163.5,71.1 162.9,70.9 162.2,70.8 
			161.9,70.2 161.5,69.8 161.4,68.4 160.7,68.9 160.3,69.4 159.8,68.8 159.5,69.1 158.9,69.1 158.2,69.1 158.3,68.2 157.6,67.6 
			157.2,67.6 156.6,68.3 156.3,67.6 155.6,67.4 155.2,67 154.5,66.9 153.9,66.6 153.6,66 152.8,66.5 152,66.2 152,65.1 151.3,65.2 
			151,64.4 150,65 149.7,64.2 149.4,64 149,64.4 148.5,64 147.7,64.1 147.3,63.4 147,62.8 146.3,62.8 145.7,62.5 145.2,62.1 
			144.7,62.5 144.1,63 144.5,62.2 144,61.7 143.6,61.6 142.9,61.3 142.5,62.3 142.1,61.4 141.5,61.4 141,60.9 140.7,60.3 140,60.2 
			139.5,60 139,59.4 138.4,59.4 137.7,59.4 137.4,58.6 137,57.9 136.7,58.5 135.8,59.2 136,58.2 135.7,57.8 135.2,57.3 134.7,57.2 
			134,57.1 133.6,56.5 132.7,56.9 133,56.3 132.6,55.9 131.6,56.5 131.2,55.6 130.7,55.9 130.1,55.2 129.4,55.3 129,54.6 
			128.4,54.4 128.1,53.4 127.3,54.2 126.7,53.9 126.2,53.2 125.8,52.8 125.1,52.7 124.3,52.5 123.7,53 123.1,52.7 123,52.1 
			122.8,51.8 122.1,52 121.8,51.5 121.9,50.9 121.5,51.5 120.7,52 120.3,51.2 120,50.6 119.6,50.2 119.2,49.6 118.7,49.1 118,49 
			117.6,49 117.1,49.5 116.6,48.8 116,48.2 115.3,48.9 114.8,48.3 114.3,48 113.6,48.3 113.1,47.7 112.8,48.1 111.9,48 111.9,48.8 
			111,48.8 111.5,49.6 111.5,50.3 110.8,50 110.4,50 110.6,50.1 110.4,50.7 109.7,50.7 108.8,50.9 108.2,51.5 108.4,52.3 
			108.1,52.6 107.4,52.9 107.2,53.6 106.5,53.8 106.6,54.5 106.6,54.7 106,54.9 105.5,55.5 105,55.7 104.6,56.2 104.8,56.5 
			104.9,57.4 103.8,57.2 103.4,57.7 103.3,58.3 102.6,58.6 102.6,59.3 102.3,60 101.4,59.8 101.4,60.7 100.7,61 100.8,61.8 
			99.7,61.7 100,62.7 99.8,63.3 99.3,63.8 99.2,64.4 98.2,64.4 98,65.1 97.5,65.4 97.1,65.2 96.7,65.6 96.7,66.3 96.8,67.2 
			95.6,67.1 96,68.1 95,68.2 95.5,69.2 94.7,69.4 94.1,69.8 93.7,70.3 93.4,70.7 93.4,71.5 92.7,71.8 92.5,72.4 92,72.9 92.1,73.6 
			91.6,74.1 91.3,74.5 91,75.1 90.3,75.4 89.6,75.7 89.6,76.5 89.9,77.3 89.3,77.6 89.1,78.1 88.4,78.4 88.2,79.1 88.1,79.7 
			88.1,80.4 87.4,80.7 87.4,81.4 86.7,81.8 86.4,82.3 85.5,82.6 85.8,83.1 86.3,83.5 86.3,84.4 85.5,84.1 84.8,84.2 85.3,85.2 
			84.8,85.6 84.3,86.1 84.2,86.7 84.3,87.4 83.2,87.6 83.9,88.6 82.9,88.9 83.6,89.8 82.7,89.8 82.4,89.8 82.7,90.6 82.2,91.2 
			81.9,91.8 81.7,92.3 81.7,92.9 81.5,93.6 81.6,94.4 80.7,93.7 80.1,94.2 80,94.9 80.4,95.2 80.4,95.9 79.3,95.9 79.5,96.5 
			79.6,97.5 79.7,98.2 79.1,98.7 78.3,98.3 78.7,99 79.3,100 77.9,100 78.2,100.8 78.3,101.1 78.5,101.5 78.1,101.9 77.4,101.8 
			77.9,102.4 78.4,102.8 77.5,103 76.8,103 76.5,103.5 76,104.1 76.6,104.3 76.9,104.9 76.6,105.5 76.7,106.2 76,106 76.2,106.7 
			77.3,107.3 76.4,107.9 75.8,108.5 76.3,108.8 76.2,109.4 76.8,110.1 75.8,110.2 75.5,110.2 75.3,110.8 75.5,111.2 76.3,111.7 
			75.5,111.9 75,112 75.2,112.8 74.9,113.3 75.2,114.1 74,114.4 74.8,114.6 74.9,115.2 75,115.8 74.9,116.6 74.2,116.9 74.4,117.6 
			73.6,118.2 74.2,118.8 73.5,119.3 74.1,119.7 74.5,120.1 74.7,120.7 74.7,121.4 73.7,121.6 73.3,122.4 74,122.5 73.8,123.2 
			74.1,123.7 74.2,124.3 74.2,124.9 73.2,125 74,125.7 74.2,126.2 74.1,126.8 73.9,127.4 73.6,128 74.4,128.6 74,129.3 74.2,129.9 
			73.7,130.5 73.6,130.5 74,131.2 73.2,131.8 73.8,132.4 74.3,132.5 73.9,133.3 74.2,133.7 73.9,134.4 73.7,134.7 74.2,135 
			74.3,135.3 74,135.7 73.8,136.2 74.6,137 74.2,138 74,138.8 73.9,139.7 74,140.5 73.5,141.5 74.4,142.2 74.6,143.1 74.3,144 
			74.8,144.8 74.9,145.7 75.2,146.6 74.8,147.5 75.6,148.2 75.4,149.2 75.3,150 75.7,150.8 75.6,151.7 76.4,152.4 76.2,153 
			75.4,153.5 76.3,153.7 76.7,154.1 76.6,155.1 77.1,155.6 77.9,155.9 78.7,156.3 79.3,156.9 79.8,157.5 80.1,158.4 81.2,158.5 
			81.3,159.5 81.6,160.4 82.6,160.4 83.2,161 84,161.4 84.1,162.3 84.3,163.3 85.2,163 85.6,163.2 86.3,163.5 85.7,164.1 
			86.6,164.2 87.3,164.8 87.8,165.4 88.2,166.3 89.2,166.3 89.4,167.3 90.3,167.5 90.6,168.3 91.2,168.3 92,168 91.7,168.8 
			92,169.3 92.4,169.7 92.9,169.4 93.6,169.9 94.1,170.4 94.6,171.1 95.3,171.5 95.9,172 96.8,172.2 97.6,172.7 97.7,173.7 
			98.4,174.1 98.9,174.6 99.9,174.7 100.3,175.5 101.3,175.5 101.8,176.3 102.2,177 103.2,177.1 103.6,177.7 104.5,178 104.9,178.7 
			105.6,179.1 106.3,179.7 106.6,180.5 107.4,180.7 107.9,180.9 108.5,180.6 109.2,181.2 109.5,182 110,182.6 110.7,183.1 
			111.7,183.1 112.4,183.6 112.8,184.2 113.2,183.8 113.8,184.2 114.4,184.8 114.8,185.6 115.4,186.2 116.2,186.4 116.7,187.1 
			117.6,187.3 118.1,187.9 118.7,188.5 119.7,188.5 120.7,188.2 121.4,188.6 121.9,189.4 122.5,190 123.4,189.9 124,190.5 
			124.8,190.8 125.3,191.5 126.2,191.7 127.3,191.3 127.6,192.4 128.2,192.9 129,193.2 130,193 130.5,193.7 131.2,194 131.8,194.7 
			132.6,194.9 133.2,195.6 134.2,195.3 134.8,195.9 135.6,196 136.1,196.9 136.9,197.1 137.7,197.2 138.4,197.6 138.9,197.5 
			139.6,197 140,198.1 140.7,198.4 141.4,199.1 142.3,198.6 142.9,199.3 143.7,199.5 144.5,199.8 145.3,200.4 145.8,200 
			146.2,199.7 146.9,200 146.8,200.7 147.6,200.8 148.4,201.2 149.3,200.7 149.5,201.1 149.9,201.6 150.9,201 151.9,201.2 
			152.6,201.6 153.5,202.1 154.5,201.7 155.1,202.6 156,202.5 156.9,202.7 157.8,203.1 158.4,203.9 159.3,204 160.3,204.1 
			161.2,203.3 162.1,203.7 162.7,204.6 163.6,204.1 164.6,204.2 164.8,204.7 165.2,205.4 166.2,205.2 167.1,205.1 167.9,205.5 
			168.7,206 169.1,205.4 169.8,205.1 170.5,206 171.5,205.3 171.9,206 172.2,206.4 173,206.6 173.9,206.7 174.8,206.6 175.8,206.6 
			176.3,207.8 177.2,207.2 178.2,207.4 179,207.8 180,207.8 180.7,208.3 181.6,208.3 182.5,208.5 182.8,208.1 183.4,208.5 
			184.1,208.7 185,209.2 186,208.8 186.9,209.5 187.7,208.8 188.5,209.6 189.5,209 190.3,209.7 191.2,209.6 191.7,209.5 
			192.1,209.1 192.1,209.9 192.9,209.9 193.8,210 194.6,210.3 195.6,210.1 196.5,209.7 197.2,210.4 198.2,210.2 199,210.6 
			199.9,210.4 200.8,210.4 201.6,210.7 202.5,209.9 203.3,210.9 204.3,210.3 205.2,210.4 206,210.3 206.9,210.4 207.7,210.2 
			208.7,210.1 209.5,210.6 210.4,210.6 211.2,211 212.1,210.6 213,210.4 213.8,211 214.4,210.7 214.8,210.4 215.7,210.6 216.5,211 
			217.4,211.1 218.3,210.8 219.1,211.5 220,211 220.9,211 221.7,210.5 222.6,210.6 223.5,210.7 224.2,210 225.2,209.8 226.2,210.1 
			227,210 227.8,210 228.8,209.8 229.6,210 230.4,209.4 231.3,209.9 231.7,209.5 232.1,209.1 233,209.5 233.9,209.4 234.9,209.7 
			235.6,209 236.5,208.9 237.4,208.9 238.4,208.9 239.1,208.4 240.1,208.5 240.5,207.3 241.6,207.7 242.4,207.3 243.4,207.7 
			244.2,207.2 244.9,206.4 245.8,206.6 246.8,206.4 246.8,206.2 247.5,206 248.4,206 248.9,206.2 249.5,206.7 250.2,206.1 
			251,205.6 251.8,205.4 252.7,205.4 253.5,204.9 254.4,204.7 255.2,204.3 256.1,204.2 256.8,203.7 257.4,202.8 258.4,203 
			259.4,202.9 259.9,202.1 260.9,202.2 261.7,201.8 262.4,201.1 263.4,201.5 263.9,200.5 264.9,200.6 265.9,200.4 265.8,199.7 
			266.2,199.1 267.2,199.1 267.8,198.6 268.6,198.1 269.4,197.8 270,197 270.8,196.7 271.6,196.3 272.4,195.9 273.4,196 
			274.1,195.4 275,195.3 275.7,194.7 276.6,194.5 277,194.3 277.3,193.9 278,193.4 278.8,193.1 279.6,192.8 280.6,192.6 
			281.2,191.9 281.9,191.4 283,191.3 283.1,190.1 284,189.9 284.2,189.7 283.8,188.8 284.8,188.2 284.8,187.3 285.4,186.5 
			285.1,185.5 285.9,184.8 286.2,184.6 286.6,184.2 286.9,183.4 287,182.5 287,181.5 288,180.9 288.2,180 288.1,179.1 288.4,178.3 
			288.8,177.5 288.9,176.6 289.1,175.7 289.2,174.8 289.1,174.5 289.8,174.2 290,173.3 289.9,173.1 290.5,172.6 291,172.5 
			291,171.6 291.7,171.1 292.3,171 292.2,170.2 292.7,169.9 293.4,169.7 293.8,169.2 293.5,168.6 293.1,167.9 294.1,167.8 
			293.7,166.8 295,167 295,166.2 295.7,166.2 296.2,165.5 296.3,164.9 296.3,164.1 297.1,164 297,163.5 296.8,163.1 297.5,162.9 
			297.7,162.3 297.7,161.5 298.7,161.4 298.6,160.7 299.3,160.2 300.4,160.4 300.2,159.5 301,159.3 300.9,158.6 300.8,157.7 
			301.1,157.2 301.5,156.6 302,156.4 302.6,155.8 303,155.5 		"/>
	</g>
	<g>
		<defs>
			<polygon id="XMLID_17_" points="285,188.5 283.6,188.4 283.5,188.8 282.8,189.4 282.1,189.6 281.6,190.2 281.1,190.4 
				280.4,190.6 279.3,191.5 278.1,192 277.4,192.5 277,192.9 276.4,193 275.2,193.9 274,194.4 273.4,194.6 271.6,195.7 271,195.8 
				270.1,196.1 269.6,196.8 269.2,197 268.5,197.2 267.8,197.6 267.3,197.9 266.5,197.9 266,198.5 265.3,198.6 264.8,199.1 
				264.1,199.2 263.5,199.7 263,200 262.4,200.1 261.7,200.5 261.1,200.6 259.7,201.4 259.3,201.8 258.6,201.8 258,202.2 
				257.4,202.3 256.7,202.7 256.1,202.9 255.5,203.1 254.8,203 254,203.3 253.4,203.7 252.8,203.9 252.2,204.1 251.5,204.1 
				250.9,204.5 250.2,204.5 249.5,204.9 249,205.1 248.2,205.1 247.6,205.5 247.1,205.6 246.4,205.5 245.6,205.6 245,206 
				244.2,205.9 243.6,206.3 243.1,206.3 242.3,206.5 241.5,206.6 240.9,206.8 240.3,206.9 239.7,207.2 239,207 238.3,207.3 
				237.7,207.3 236.8,207.5 236.3,207.7 235.7,207.7 235,207.8 234.2,207.8 232.8,208 232.2,208.4 231.6,208.3 230.9,208.3 
				230.1,208.4 229.4,208.6 228.9,208.8 228.2,208.5 227.4,208.7 226.8,209 225.4,209 224.8,209.1 224.1,209.3 223.4,209.1 
				222.8,209.3 222.1,209 221.4,209.4 220.8,209.2 220,209.2 219.3,209.2 218.6,209.3 218,209.4 216.7,209.4 215.9,209.3 
				215.2,209.5 214.6,209.4 213.9,209.5 213.2,209.5 211.9,209.3 211.1,209.5 210.6,209.4 209.8,209.2 208.5,209.4 207.8,209.3 
				207,209.2 206.3,209.4 205.8,209.4 205.1,209.1 204.3,209.2 203,209.3 202.4,209.2 201.7,208.9 201,208.9 200.2,209.1 
				199.7,209.1 199,208.9 198.3,208.8 197.6,208.9 196.9,208.8 196.3,208.8 195.6,208.4 194.2,208.4 193.6,208.3 192.2,208 
				191.4,208 190.8,208.1 190.2,207.7 189.5,207.9 188.8,207.6 188,207.8 187.5,207.8 186.8,207.4 185.4,207.4 184.8,207.3 
				184.1,207 183.4,207.1 182.8,206.7 182,206.9 181.4,206.7 180.8,206.7 180.1,206.2 179.3,206.3 178.7,206.4 178.2,205.9 
				176.7,205.6 175.9,205.6 175.3,205.7 174,205.1 173.3,205.3 172.8,204.9 171.3,205 170.7,204.6 170,204.6 169.3,204.3 
				168.6,204.4 168.2,204.1 167.3,203.8 166.7,203.9 166.1,203.5 165.4,203.4 164.7,203.3 164,203.2 163.4,202.9 162.7,203 
				162.2,202.6 161.4,202.4 160.7,202.5 160.2,202.2 159.3,201.9 158.6,202 158,201.8 157.4,201.6 156.7,201.6 156,201.4 
				155.4,201.3 154.8,200.8 154,200.9 153.4,200.5 152.7,200.5 152.1,200.1 151.3,200.2 150.7,200 150.1,199.9 149.5,199.6 
				148.8,199.2 148.1,199.3 147.5,198.9 146.8,198.9 146.3,198.6 145.5,198.4 144.8,198.3 143.6,197.9 143.1,197.4 141.6,197.2 
				140.4,196.6 139.7,196.5 139.2,196.2 138.4,195.9 137.8,195.8 137.1,195.5 136.5,195.3 135.9,195 134.7,194.5 134.1,194.2 
				133.4,193.9 132.8,193.5 132.1,193.2 131.5,193.1 130.9,192.8 130.3,192.6 129.8,192.2 129.1,191.7 128.4,191.7 128,191.3 
				127.4,190.8 126.7,190.5 126.1,190.1 125.4,190.1 124.9,189.6 124.2,189.5 123.6,189.2 123.1,188.9 122.5,188.3 121.8,188.2 
				121.3,187.6 120.6,187.4 120.2,187.1 119.6,186.5 118.8,186.5 117.7,185.6 117,185.4 116.6,185 116.1,184.6 115.3,184.3 
				114.8,184.1 114.3,183.4 113.5,183.3 113,182.9 112.4,182.6 111.9,182.1 111.3,181.8 110.9,181.4 110.2,181 109.6,180.7 
				109.1,180.1 108.4,179.8 107.8,179.6 107.4,179.1 106.8,178.8 106.3,178.1 105.5,177.9 105.1,177.7 104.7,177.2 104,176.6 
				102.8,176.1 102.4,175.5 101.7,175.2 101.2,174.8 100.7,174.3 100,174 99.6,173.6 99.2,173.1 98.6,172.6 98.1,172.2 97.3,171.8 
				96.8,171.5 95.9,170.6 95.2,170.2 94.2,169.4 93.9,168.7 92.6,168.1 92.2,167.5 91.7,167 90.9,166.7 90.5,166.4 90,166 
				89.7,165.3 88.5,164.4 87.8,164.1 87.4,163.7 87,163.1 86.4,162.8 86.1,162.1 85.4,161.8 84.5,160.7 83.8,160.5 83.5,159.9 
				81.4,158.3 81.1,157.5 80.5,157.1 80.1,156.5 79.3,156.2 78.9,155.9 78.6,155.4 78.2,154.7 77.6,154.2 75.8,153.3 76.8,155.6 
				77.3,157.5 77.4,158.3 77.8,158.9 77.9,160.2 78.2,161 78.7,161.5 78.7,162.1 78.8,162.8 79.9,164.7 80.1,165.3 80.2,166 
				80.7,167.3 80.9,168 81.7,169.2 82.3,170.4 82.5,171.2 82.9,171.7 83,172.5 83.7,173 84,173.5 84.2,174 84.4,174.7 84.8,175.5 
				85.5,175.9 85.6,176.4 86.1,177.1 86.3,177.8 86.9,178.3 87.7,179.3 87.8,179.9 88.3,180.7 88.7,181.2 89.3,181.6 89.6,182.2 
				90.1,182.7 90.4,183.2 91,183.8 91.3,184.3 92.4,185.3 92.7,186 93.3,186.4 93.7,186.8 94,187.4 94.5,188 95.1,188.5 95.5,189.1 
				96.2,189.4 96.4,189.9 97,190.5 97.5,190.9 98,191.5 98.7,191.8 99,192.2 99.5,192.9 100,193.4 100.6,193.7 101.5,194.8 
				102.2,195.1 103,196.2 103.5,196.8 104.2,197 104.8,197.4 106.2,198.8 106.9,199.2 107.3,199.8 108.1,200 108.5,200.4 
				108.9,200.9 110.1,201.9 111.3,202.6 111.8,203 112.5,203.4 113.2,203.5 113.7,203.8 114.2,204.5 115,204.6 115.4,205.1 
				116.7,205.6 117.1,206.1 117.8,206.5 118.5,206.6 118.9,207.2 119.7,207.4 120.2,207.6 120.8,208.2 121.6,208.3 122,208.6 
				122.5,209.2 123.9,209.8 124.6,209.9 125,210.2 125.6,210.8 126.3,211 126.9,211.4 127.6,211.7 128.2,211.8 128.7,212.3 
				129.5,212.5 130.1,212.7 130.7,213 131.3,213.2 132.4,213.8 133,214.3 133.8,214.5 134.4,214.9 135.1,214.9 135.6,215.4 
				136.4,215.4 136.8,215.8 137.6,216.2 138.3,216.1 138.9,216.5 139.5,216.6 140.1,217.2 141,217.1 142.1,217.5 142.7,218 
				143.4,218.1 144,218.6 144.7,218.5 145.2,219.1 146.6,219.5 147.9,219.8 148.5,220.1 149.2,220.2 149.9,220.5 150.5,220.5 
				151.1,221.1 151.9,221 152.5,221.4 153.2,221.3 153.7,221.8 154.5,221.8 155.1,222 155.8,222.3 156.5,222.5 157.1,222.6 
				158.4,223 159.2,223.2 159.9,223.1 160.5,223.3 161.1,223.5 161.8,223.8 162.4,223.8 163.1,224.3 163.9,224.1 164.3,224.3 
				165.1,224.8 165.9,224.6 166.6,224.7 167.2,224.8 168.5,225.2 169.2,225.2 169.8,225.5 170.5,225.6 171.1,225.7 171.9,226 
				172.6,225.9 173.1,226.2 174,226.3 174.6,226.3 175.3,226.5 176.6,226.6 177.3,226.9 178.6,226.9 179.2,227.3 180.1,227.3 
				180.7,227.2 181.3,227.3 182.7,227.7 183.5,227.7 184.1,227.6 184.8,227.8 185.4,227.7 186.1,228 187.5,228 188.2,228.2 
				188.9,228.2 189.5,228.2 190.2,228.4 191,228.6 191.7,228.3 193,228.5 193.6,228.5 194.3,228.6 195.7,228.6 196.4,229 
				197.2,228.6 197.7,228.6 198.5,228.9 199.2,228.8 200.6,229.1 201.3,228.8 201.8,228.8 202.5,229.2 203.4,229 204,228.9 
				204.6,228.8 205.2,228.8 206,229.2 206.8,229 207.4,228.9 208,228.8 208.7,229.1 209.5,228.9 210.9,229.1 211.5,228.8 
				212.1,229.1 212.9,229.1 213.6,229 214.3,229.1 215,228.8 215.6,229 216.3,228.8 216.9,228.9 217.7,228.8 218.5,228.8 
				219.2,228.4 219.8,228.4 220.4,228.3 221,228.3 221.8,228.6 222.6,228.3 223.2,228.1 223.8,228 224.5,228.1 225.2,228.1 
				226.6,227.7 227.2,227.9 228.1,227.8 228.8,227.5 229.3,227.3 229.9,227.4 230.7,227.3 231.4,227 232,227.1 232.8,227 
				233.5,226.7 234.1,226.6 234.8,226.4 235.5,226.4 236.1,226 236.8,226.1 237.5,225.7 238.1,225.6 238.9,225.6 239.5,225.1 
				240,225.1 240.9,224.8 241.5,224.5 242.1,224.4 243.3,224 244,224 244.8,223.7 245.4,223.5 246,223.4 246.8,223 247.4,222.7 
				248,222.6 248.7,222.3 249.2,221.8 249.9,221.8 250.5,221.4 251.3,221.5 251.8,220.8 252.4,220.8 253.2,220.4 254.3,219.7 
				254.9,219.5 255.6,219.3 256.3,219.1 256.9,218.7 257.6,218.4 258,217.8 258.6,217.6 259.1,217.2 260,217.1 260.5,216.4 
				261.5,215.8 262.2,215.7 262.9,215.2 263.4,214.5 263.8,214.3 264.6,214.1 265.1,213.6 265.7,213.3 266.3,212.8 267.3,212 
				268,211.6 268.5,211.1 269,210.7 269.5,210.3 270.1,210 270.6,209.4 271.1,208.8 271.5,208.4 272.7,207.6 273.1,207 273.6,206.6 
				274.1,206 274.6,205.6 275.1,205 275.4,204.5 275.9,203.9 276.7,202.9 277.3,202.4 277.6,201.7 278,201.3 278.7,200.8 278.8,200 
				279.1,199.6 279.7,199.1 280.3,197.8 280.7,197.2 280.9,196.4 282,194.8 282.2,194.1 282.6,193.6 282.8,192.8 283,192.3 
				283.5,191.6 283.6,190.9 284,190.4 284.2,189.6 284.3,189.2 			"/>
		</defs>
		<use xlink:href="#XMLID_17_"  style="overflow:visible;fill:#005944;"/>
		<clipPath id="XMLID_12_">
			<use xlink:href="#XMLID_17_"  style="overflow:visible;"/>
		</clipPath>
	</g>
	<g>
		<path class="st4" d="M188.5,152.3C188.4,152.2,188.4,152.2,188.5,152.3L188.5,152.3z"/>
		<path class="st4" d="M152,129.9C152,129.9,152,129.9,152,129.9C152,129.9,152,129.9,152,129.9C152.1,129.9,152.1,129.9,152,129.9
			C152,129.9,152,129.9,152,129.9z"/>
		<g>
			<defs>
				<path id="XMLID_16_" d="M311.3,148.8c0.5-0.5,0.7-1.1,0.8-1.8c0.4-0.6,0.7-1.3,0.7-2.1c0,0,0-0.1,0-0.1c0.1-0.2,0.1-0.4,0.2-0.5
					c0.1-0.5,0-1-0.2-1.4c0-0.2,0-0.4,0-0.6c0.2-0.1,0.4-0.2,0.5-0.4c0-0.1-0.1-0.2-0.2-0.3c0-0.2,0.1-0.4,0-0.6
					c0.1-0.1,0.2-0.2,0.2-0.3c0-0.2,0-0.4,0-0.6c0-0.2-0.2-0.4-0.2-0.6c0-0.2,0.2-0.4,0.3-0.6c0-0.2-0.3-0.4-0.3-0.6
					c0-0.2,0.1-0.4,0.1-0.6c0-0.2,0-0.4,0-0.6c0-0.2,0.1-0.4,0.1-0.6c0-0.2,0-0.4,0-0.6c0-0.2,0.4-0.4,0.4-0.6
					c0-0.2-0.5-0.4-0.5-0.6c0,0,0-0.1,0-0.1c0,0,0,0,0-0.1c0.1-0.1,0.2-0.3,0.2-0.4c0-0.2,0.2-0.4,0.2-0.6c0-0.2,0.1-0.4,0.1-0.6
					c0-0.2-0.4-0.4-0.4-0.6c0-0.2,0.4-0.4,0.3-0.6c0-0.2-0.4-0.4-0.4-0.6c0-0.2-0.1-0.4-0.1-0.6c0-0.2-0.1-0.4-0.2-0.6
					c0-0.2,0.4-0.5,0.3-0.7c0-0.2-0.5-0.3-0.5-0.6c0-0.2-0.2-0.4-0.2-0.6c0-0.2,0.1-0.4,0.1-0.6c0-0.2-0.1-0.4-0.2-0.6
					c0-0.2,0.5-0.5,0.4-0.7c0-0.2-0.2-0.4-0.2-0.6c0-0.2-0.2-0.4-0.2-0.6c0-0.2-0.6-0.3-0.6-0.5c0-0.2,0.3-0.5,0.3-0.7
					c0-0.2,0-0.4-0.1-0.6c0-0.2-0.4-0.3-0.4-0.5c0-0.2-0.3-0.3-0.3-0.5c0-0.2,0.6-0.6,0.5-0.8c-0.1-0.2-0.6-0.3-0.7-0.5
					c-0.1-0.2-0.1-0.4-0.2-0.6c-0.1-0.2-0.1-0.4-0.2-0.6c-0.1-0.2,0.5-0.6,0.4-0.8c-0.1-0.2-0.8-0.2-0.9-0.4
					c-0.1-0.2-0.1-0.4-0.2-0.6c-0.1-0.2,0.5-0.6,0.5-0.8c-0.1-0.2,0-0.4-0.1-0.6c-0.1-0.2-0.8-0.2-0.9-0.4c-0.1-0.2,0.3-0.5,0.2-0.7
					c-0.1-0.2-0.2-0.4-0.3-0.6c-0.1-0.2,0.1-0.5,0-0.7c-0.1-0.2-0.4-0.3-0.4-0.5c-0.1-0.2-0.5-0.3-0.6-0.4c-0.1-0.2,0.4-0.6,0.3-0.8
					c-0.1-0.2-0.4-0.3-0.4-0.5c-0.1-0.2,0-0.4-0.1-0.6c-0.1-0.2-0.5-0.2-0.6-0.4c-0.1-0.2,0.1-0.5,0-0.7c-0.1-0.2-0.2-0.4-0.3-0.5
					c-0.1-0.2-0.3-0.3-0.4-0.5c-0.1-0.2,0.4-0.6,0.3-0.8c-0.1-0.2-0.3-0.3-0.4-0.5c-0.1-0.2-0.5-0.2-0.6-0.4
					c-0.1-0.2,0.3-0.6,0.2-0.8c-0.1-0.2-0.2-0.4-0.3-0.6c-0.1-0.2-0.8-0.1-0.9-0.3c-0.1-0.2,0-0.5-0.1-0.7c-0.1-0.2,0.3-0.6,0.2-0.8
					c-0.1-0.2-0.7-0.1-0.7-0.3c-0.1-0.2,0.3-0.6,0.2-0.8c-0.1-0.2-0.2-0.4-0.3-0.6c-0.1-0.2-0.2-0.4-0.3-0.5
					c-0.1-0.2-0.5-0.2-0.6-0.4c-0.1-0.2-0.2-0.4-0.2-0.6c-0.1-0.2,0.1-0.5,0-0.7c-0.1-0.2-0.5-0.2-0.6-0.4c-0.1-0.2,0-0.5-0.1-0.6
					c-0.1-0.2-0.3-0.3-0.4-0.5c-0.1-0.2-0.6-0.1-0.7-0.3c-0.1-0.2,0.1-0.5,0-0.7c-0.1-0.2-0.3-0.3-0.4-0.5c-0.1-0.2,0.3-0.6,0.2-0.8
					c-0.1-0.2-0.6-0.1-0.7-0.3c-0.1-0.2,0.2-0.6,0.1-0.8c-0.1-0.2-0.8,0-0.9-0.2c-0.1-0.2,0-0.5-0.1-0.7c-0.1-0.2-0.2-0.4-0.3-0.5
					c-0.1-0.2-0.1-0.4-0.2-0.6c-0.1-0.2-0.1-0.4-0.2-0.6c-0.1-0.2-0.7-0.1-0.8-0.2c-0.1-0.2,0-0.5-0.1-0.7c-0.1-0.2-0.1-0.4-0.2-0.6
					c-0.1-0.2-0.3-0.3-0.4-0.5c-0.1-0.2-0.5-0.1-0.7-0.3c-0.1-0.2,0-0.5-0.1-0.7c-0.1-0.2-0.2-0.4-0.3-0.5c-0.1-0.2-0.3-0.3-0.5-0.4
					c-0.1-0.2-0.4-0.3-0.5-0.4c-0.1-0.2-0.2-0.3-0.3-0.5c-0.1-0.2,0-0.5-0.1-0.7c-0.1-0.2,0-0.5-0.1-0.7c-0.1-0.2-0.5-0.2-0.6-0.3
					c-0.1-0.2,0.2-0.6,0.1-0.8c-0.1-0.2-0.5-0.1-0.7-0.3c-0.1-0.2-0.3-0.3-0.4-0.5c-0.1-0.2,0.1-0.5-0.1-0.7c-0.1-0.2-0.9,0.1-1,0
					c-0.1-0.2,0.4-0.8,0.3-1c-0.1-0.2-0.5-0.1-0.7-0.3c-0.1-0.2-0.5-0.2-0.6-0.3c-0.1-0.2-0.1-0.4-0.3-0.6c-0.1-0.2,0.1-0.6-0.1-0.7
					c-0.1-0.2-0.5-0.1-0.6-0.3c-0.1-0.2-0.1-0.4-0.3-0.6c-0.1-0.2-0.4-0.2-0.5-0.4c-0.1-0.2-0.3-0.3-0.5-0.4
					c-0.1-0.2-0.1-0.5-0.2-0.6c-0.1-0.2-0.1-0.5-0.2-0.6c-0.1-0.2-0.8,0.1-0.9,0c-0.1-0.2-0.1-0.4-0.3-0.6c-0.1-0.2-0.5-0.2-0.6-0.3
					c-0.1-0.2,0.3-0.8,0.2-0.9c-0.1-0.2-0.2-0.4-0.3-0.5c-0.1-0.2-0.9,0.2-1,0.1c-0.1-0.2-0.1-0.4-0.3-0.6c-0.1-0.2-0.4-0.2-0.5-0.4
					c-0.1-0.2,0.4-0.9,0.2-1c-0.1-0.2-0.9,0.2-1,0.1c-0.1-0.2-0.2-0.4-0.3-0.5c-0.1-0.2-0.2-0.4-0.4-0.5c-0.1-0.2-0.3-0.3-0.5-0.4
					c-0.1-0.2-0.2-0.4-0.3-0.5c-0.1-0.2-0.3-0.2-0.5-0.4c-0.1-0.2,0.1-0.6,0-0.8c-0.1-0.2-0.7,0.1-0.8-0.1c-0.1-0.2,0-0.5-0.2-0.7
					c-0.1-0.1-0.5-0.1-0.7-0.2c-0.1-0.1,0-0.5-0.2-0.7c-0.1-0.1-0.3-0.3-0.4-0.4c-0.1-0.1-0.4-0.1-0.6-0.3c-0.1-0.1,0-0.6-0.1-0.8
					c-0.1-0.1-0.7,0.1-0.8-0.1c-0.1-0.1-0.1-0.5-0.2-0.6c-0.1-0.1-0.4-0.1-0.6-0.3c-0.1-0.1-0.3-0.3-0.4-0.5
					c-0.1-0.1-0.1-0.4-0.3-0.6c-0.1-0.1-0.4-0.2-0.6-0.3c-0.1-0.1-0.1-0.4-0.3-0.6c-0.1-0.1-0.4-0.2-0.5-0.3
					c-0.1-0.1,0.1-0.7-0.1-0.8c-0.1-0.1-0.5,0-0.7-0.2c-0.1-0.1-0.1-0.5-0.2-0.6c-0.1-0.1-0.3-0.3-0.4-0.5c-0.1-0.1-0.7,0.2-0.9,0.1
					c-0.1-0.1-0.1-0.5-0.3-0.6c-0.2-0.1-0.4-0.2-0.6-0.3c-0.2-0.1,0-0.6-0.2-0.7c-0.2-0.1-0.4-0.1-0.6-0.3c-0.2-0.1-0.5,0-0.7-0.2
					c-0.2-0.1-0.4-0.2-0.6-0.3c-0.2-0.1-0.1-0.5-0.2-0.7c-0.2-0.1-0.3-0.3-0.4-0.4c-0.2-0.1-0.2-0.4-0.4-0.5
					c-0.2-0.1-0.2-0.4-0.3-0.6c-0.2-0.1-0.7,0.2-0.8,0c-0.2-0.1-0.4-0.1-0.6-0.3c-0.2-0.1,0-0.7-0.1-0.8c-0.2-0.1-0.4-0.2-0.5-0.3
					c-0.2-0.1-0.4-0.1-0.6-0.3c-0.2-0.1-0.5,0-0.7-0.2c-0.2-0.1-0.3-0.3-0.4-0.4c-0.2-0.1-0.2-0.4-0.4-0.5c-0.2-0.1-0.5,0-0.6-0.2
					c-0.2-0.1-0.2-0.4-0.4-0.5c-0.2-0.1-0.4-0.2-0.5-0.3c-0.2-0.1-0.2-0.4-0.4-0.5c-0.2-0.1-0.3-0.3-0.4-0.4
					c-0.2-0.1-0.2-0.4-0.4-0.5c-0.2-0.1-0.7,0.2-0.8,0.1c-0.2-0.1,0-0.7-0.2-0.8c-0.2-0.1-0.6,0.1-0.8,0c-0.2-0.1,0-0.7-0.2-0.8
					c-0.2-0.1-0.4-0.1-0.6-0.3c-0.2-0.1-0.5-0.1-0.6-0.2c-0.2-0.1-0.4-0.2-0.6-0.3c-0.2-0.1-0.1-0.5-0.3-0.6
					c-0.2-0.1-0.3-0.3-0.5-0.4c-0.2-0.1-0.2-0.4-0.4-0.6c-0.2-0.1-0.4-0.1-0.6-0.2c-0.2-0.1-0.3-0.2-0.5-0.4
					c-0.2-0.1-0.3-0.3-0.4-0.4c-0.2-0.1-0.3-0.2-0.5-0.3c-0.2-0.1-0.8,0.4-0.9,0.3c-0.2-0.1-0.3-0.3-0.4-0.5c-0.2-0.1,0-0.8-0.1-0.9
					c-0.2-0.1-0.6,0.2-0.8,0.1c-0.2-0.1-0.4-0.1-0.6-0.2c-0.2-0.1-0.4-0.2-0.6-0.3c-0.2-0.1-0.4-0.2-0.6-0.3
					c-0.2-0.1-0.3-0.3-0.5-0.4c-0.2-0.1,0-0.7-0.2-0.8c-0.2-0.1-0.7,0.3-0.9,0.2c-0.2-0.1-0.1-0.6-0.3-0.7c-0.2-0.1-0.5,0-0.6-0.1
					c-0.2-0.1-0.2-0.5-0.4-0.6c-0.2-0.1-0.3-0.2-0.5-0.3c-0.2-0.1-0.5-0.1-0.6-0.2c-0.2-0.1-0.3-0.3-0.5-0.4
					c-0.2-0.1-0.1-0.6-0.3-0.7c-0.2-0.1-0.5,0-0.7-0.1c-0.2-0.1-0.6,0.2-0.8,0.1c-0.2-0.1-0.2-0.4-0.4-0.5c-0.2-0.1-0.4-0.1-0.6-0.2
					c-0.2-0.1-0.2-0.4-0.4-0.5c-0.2-0.1-0.3-0.3-0.5-0.4c-0.2-0.1-0.3-0.3-0.5-0.4c-0.2-0.1-0.5,0-0.6-0.1c-0.2-0.1-0.6,0.2-0.8,0.1
					c-0.2-0.1-0.2-0.4-0.4-0.5c-0.2-0.1-0.1-0.7-0.3-0.8c-0.2-0.1-0.4-0.1-0.6-0.2c-0.2-0.1-0.6,0.3-0.8,0.2
					c-0.2-0.1-0.2-0.4-0.4-0.5c-0.2-0.1-0.6,0.2-0.7,0.1c-0.2-0.1-0.1-0.6-0.3-0.7c-0.2-0.1-0.3-0.4-0.4-0.5c-0.2-0.1-0.5,0.1-0.7,0
					c-0.2-0.1-0.1-0.6-0.3-0.7c-0.2-0.1-0.6,0.3-0.8,0.2c-0.2-0.1-0.4-0.1-0.6-0.2c-0.2-0.1-0.2-0.5-0.4-0.5
					c-0.2-0.1-0.3-0.4-0.4-0.5c-0.2-0.1-0.7,0.4-0.9,0.3c-0.2-0.1-0.2-0.6-0.4-0.7c-0.2-0.1-0.4-0.2-0.6-0.2
					c-0.2-0.1-0.3-0.4-0.5-0.5c-0.2-0.1-0.4,0-0.6-0.1c-0.2-0.1-0.4,0-0.6-0.1c-0.2-0.1-0.5,0.1-0.7,0c-0.2-0.1-0.4-0.2-0.5-0.3
					c-0.2-0.1-0.3-0.3-0.5-0.4c-0.2-0.1-0.5,0.1-0.7,0c-0.2-0.1-0.1-0.9-0.2-1c-0.2-0.1-0.4-0.1-0.6-0.2c-0.2-0.1-0.6,0.3-0.8,0.2
					c-0.2-0.1-0.5,0.1-0.7,0c-0.2-0.1-0.1-0.8-0.3-0.9c-0.2-0.1-0.6,0.4-0.8,0.3c-0.2-0.1-0.3-0.3-0.5-0.4c-0.2-0.1-0.3-0.3-0.5-0.4
					c-0.2-0.1-0.5,0-0.7,0c-0.2-0.1-0.3-0.5-0.5-0.5c-0.2-0.1-0.5,0.2-0.7,0.2c-0.2-0.1-0.3-0.3-0.5-0.4c-0.2-0.1-0.5,0.1-0.7,0
					c-0.2-0.1-0.2-0.7-0.4-0.8c-0.2-0.1-0.4,0-0.6-0.1c-0.2-0.1-0.5,0.2-0.7,0.1c-0.2-0.1-0.3-0.4-0.5-0.5c-0.2-0.1-0.4-0.2-0.6-0.3
					c-0.2-0.1-0.4-0.1-0.6-0.2c-0.2-0.1-0.3-0.3-0.5-0.3c-0.2-0.1-0.4-0.2-0.5-0.3c-0.2-0.1-0.3-0.3-0.5-0.3
					c-0.2-0.1-0.6,0.4-0.8,0.4c-0.2-0.1-0.3-0.5-0.5-0.5c-0.2-0.1-0.3-0.4-0.5-0.4c-0.2-0.1-0.4-0.1-0.6-0.2
					c-0.2-0.1-0.6,0.5-0.8,0.5c-0.2-0.1-0.4-0.2-0.6-0.2c-0.2-0.1-0.4-0.2-0.6-0.2c-0.2-0.1-0.4-0.2-0.6-0.3
					c-0.2-0.1-0.5,0.1-0.7,0.1c-0.2-0.1-0.2-0.7-0.4-0.7c-0.2-0.1-0.5,0.4-0.7,0.3c-0.2-0.1-0.2-0.7-0.4-0.8
					c-0.2-0.1-0.5,0.4-0.7,0.3c-0.2-0.1-0.3-0.5-0.5-0.6c-0.2-0.1-0.5,0.1-0.7,0.1c-0.2-0.1-0.4,0-0.6,0c-0.2-0.1-0.3-0.4-0.5-0.5
					c-0.2-0.1-0.5,0.3-0.7,0.2c-0.2-0.1-0.4-0.2-0.6-0.2c-0.2-0.1-0.3-0.5-0.5-0.5c-0.2-0.1-0.4-0.2-0.6-0.3
					c-0.2-0.1-0.6,0.6-0.8,0.6c-0.2-0.1-0.4-0.1-0.6-0.2c-0.2,0-0.3-0.3-0.5-0.4c-0.2,0-0.4-0.2-0.6-0.2c-0.2,0-0.5,0.2-0.7,0.2
					c-0.2,0-0.3-0.7-0.5-0.8c-0.2,0-0.5,0.1-0.7,0.1c-0.2,0-0.3-0.3-0.5-0.4c-0.2,0-0.5,0.4-0.7,0.4c-0.2,0-0.4-0.2-0.6-0.3
					c-0.2,0-0.4,0.1-0.6,0.1c-0.2,0-0.3-0.7-0.5-0.7c-0.2,0-0.4-0.1-0.6-0.2c-0.2,0-0.6,0.7-0.8,0.7c-0.2,0-0.3-0.5-0.5-0.5
					c-0.2,0-0.3-0.5-0.5-0.5c-0.2,0-0.5,0.2-0.7,0.2c-0.2,0-0.5,0.3-0.7,0.3c-0.2,0-0.3-0.7-0.5-0.7c-0.2,0-0.5,0.4-0.7,0.4
					c-0.2,0-0.4-0.3-0.6-0.4c-0.2,0-0.5,0.3-0.7,0.3c-0.2,0-0.4-0.1-0.6-0.2c-0.2,0-0.4-0.2-0.6-0.3c-0.2,0-0.5,0.3-0.7,0.3
					c-0.2,0-0.3-0.8-0.5-0.8c-0.2,0-0.5,0.5-0.7,0.4c-0.2,0-0.3-0.6-0.5-0.7c-0.2,0-0.4,0.1-0.6,0.1c-0.2,0-0.4,0-0.6,0
					c-0.2,0-0.4-0.2-0.6-0.2c-0.2,0-0.5,0.5-0.7,0.5c-0.2,0-0.4-0.2-0.6-0.2c-0.2,0-0.4-0.5-0.6-0.5c-0.2,0-0.5,0.5-0.7,0.5
					c-0.2,0-0.4-0.2-0.6-0.3c-0.2,0-0.4-0.4-0.6-0.4c-0.2,0-0.5,0.6-0.7,0.6c-0.2,0-0.4-0.6-0.6-0.7c-0.2,0-0.4-0.1-0.6-0.1
					c-0.2,0-0.4,0.1-0.6,0.1c-0.2,0-0.4,0.5-0.7,0.4c-0.2,0-0.4-0.5-0.6-0.5c-0.2,0-0.4-0.1-0.6-0.2c-0.2,0-0.4,0-0.6,0
					c-0.2,0-0.4,0.2-0.6,0.2c-0.2,0-0.4,0.2-0.6,0.2c-0.2,0-0.4-0.5-0.6-0.5c-0.2,0-0.4,0.2-0.6,0.2c-0.2,0-0.4-0.3-0.6-0.3
					c-0.2,0-0.4,0.3-0.6,0.3c-0.2,0-0.4,0.1-0.6,0.1c-0.2,0-0.4,0.1-0.6,0.1c-0.2,0-0.4-0.7-0.6-0.7c-0.2,0-0.4,0.2-0.6,0.2
					c-0.2,0-0.4,0.2-0.6,0.2c-0.2,0-0.4-0.1-0.6-0.1c-0.2,0-0.4-0.1-0.6-0.1c-0.2,0-0.4,0-0.6,0c-0.2,0-0.4-0.1-0.6-0.1
					c-0.2,0-0.4,0.2-0.6,0.2c-0.2,0-0.4,0.4-0.6,0.4c-0.2,0-0.4-0.1-0.6-0.1c-0.2,0-0.4-0.2-0.6-0.2c-0.2,0-0.4,0.2-0.6,0.2
					c-0.2,0-0.4-0.4-0.6-0.4c-0.2,0-0.4,0.5-0.6,0.5c-0.2,0-0.4,0-0.6,0c-0.2,0-0.4-0.2-0.6-0.2c-0.2,0-0.4-0.2-0.6-0.2
					c-0.2,0-0.4,0.5-0.6,0.5c-0.2,0-0.4,0.2-0.6,0.2c-0.2,0-0.4,0.1-0.6,0.2c-0.2,0-0.4-0.5-0.6-0.5c-0.2,0-0.4-0.2-0.6-0.2
					c-0.2,0-0.4,0-0.6,0c-0.2,0-0.4,0-0.6,0c-0.2,0-0.4,0.3-0.6,0.3c-0.2,0-0.4-0.1-0.6-0.1c-0.2,0-0.4-0.1-0.6-0.1
					c-0.2,0-0.3,0.8-0.5,0.9c-0.2,0-0.5-0.6-0.7-0.6c-0.2,0-0.4,0-0.6,0c-0.2,0-0.3,0.8-0.5,0.8c-0.2,0-0.5-0.6-0.7-0.6
					c-0.2,0-0.3,0.5-0.5,0.6c-0.2,0-0.4,0-0.6,0c-0.2,0-0.4-0.1-0.6-0.1c-0.2,0-0.4,0-0.6,0c-0.2,0-0.4,0-0.6,0
					c-0.2,0-0.3,0.6-0.5,0.6c-0.2,0-0.5-0.4-0.7-0.4c-0.2,0-0.3,0.4-0.5,0.4c-0.2,0-0.5-0.2-0.7-0.2c-0.2,0-0.3,0.5-0.5,0.6
					c-0.2,0-0.4-0.1-0.6,0c-0.2,0-0.5-0.5-0.7-0.5c-0.2,0-0.2,0.8-0.4,0.9c-0.2,0-0.4-0.1-0.6-0.1c-0.2,0-0.4,0-0.6,0.1
					c-0.2,0-0.4,0.1-0.6,0.2c-0.2,0-0.4,0.1-0.6,0.1c-0.2,0-0.4,0.2-0.6,0.2c-0.2,0-0.4,0.2-0.6,0.3c-0.2,0.1-0.5-0.3-0.7-0.2
					c-0.2,0.1-0.5-0.1-0.7-0.1c-0.2,0.1-0.2,0.8-0.4,0.9c-0.2,0.1-0.6-0.6-0.8-0.5c-0.2,0.1-0.3,0.4-0.5,0.5c-0.2,0.1-0.4,0-0.6,0.1
					c-0.2,0.1-0.3,0.5-0.5,0.6c-0.2,0.1-0.4,0.2-0.6,0.2c-0.2,0.1-0.5-0.3-0.7-0.2c-0.2,0.1-0.4,0.2-0.5,0.3
					c-0.2,0.1-0.5-0.2-0.7-0.1c-0.2,0.1-0.2,0.6-0.4,0.7c-0.2,0.1-0.4,0.2-0.5,0.3c-0.2,0.1-0.6-0.4-0.8-0.3
					c-0.2,0.1-0.2,0.5-0.4,0.6c-0.2,0.1-0.5-0.1-0.7,0c-0.2,0.1-0.5-0.2-0.7-0.1c-0.2,0.1-0.2,0.6-0.4,0.7c-0.2,0.1-0.5,0-0.6,0.1
					c-0.2,0.1-0.4,0.2-0.5,0.3c-0.2,0.1-0.3,0.4-0.5,0.5c-0.2,0.1-0.5-0.2-0.7-0.1c-0.2,0.1-0.2,0.5-0.4,0.6c-0.2,0.1-0.4,0-0.6,0.1
					c-0.2,0.1-0.4,0.1-0.6,0.1c-0.2,0.1-0.1,0.6-0.3,0.7c-0.2,0.1-0.4,0.1-0.6,0.2c-0.2,0.1-0.4,0.2-0.6,0.3c-0.2,0.1-0.6-0.1-0.7,0
					c-0.2,0.1-0.2,0.4-0.4,0.5c-0.2,0.1-0.5,0-0.6,0.1c-0.2,0.1-0.1,0.5-0.3,0.6c-0.2,0.1-0.3,0.4-0.4,0.5c-0.2,0.1-0.3,0.2-0.5,0.3
					c-0.2,0.1-0.7-0.3-0.9-0.2c-0.2,0.1-0.2,0.4-0.4,0.5c-0.2,0.1,0,0.6-0.2,0.7c-0.2,0.1-0.4,0.2-0.6,0.3c-0.2,0.1-0.7-0.3-0.9-0.1
					c-0.2,0.1,0,0.7-0.1,0.8c-0.2,0.1-0.5,0-0.7,0.2c-0.2,0.1-0.1,0.5-0.2,0.7c0,0-0.1,0-0.1,0c0,0-0.1,0-0.1,0
					c-0.2,0-0.5-0.1-0.6,0c-0.1,0.1-0.1,0.2-0.1,0.3c-0.1,0.1-0.2,0.2-0.3,0.3c-0.3,0.3-0.4,0.5-0.6,0.8c-0.1,0-0.1,0-0.1,0.1
					c-0.1,0.2-0.3,0.3-0.4,0.5c0,0.1-0.1,0.1-0.1,0.2c-0.1,0-0.2,0.1-0.3,0.1c-0.4,0.2-0.8,0.4-1,0.7c-0.2,0.2-0.3,0.4-0.4,0.6
					c0,0-0.1,0.2-0.2,0.3c-0.5,0.2-0.9,0.6-1.1,1c-0.2,0.3-0.3,0.6-0.5,1c-0.2,0.1-0.3,0.3-0.5,0.4c0,0,0,0,0,0
					c-0.2,0.1-0.4,0.2-0.5,0.3c-0.7,0.5-1.2,1.1-1.4,1.9c-0.4,0.5-0.6,1-0.7,1.6c-0.1,0.2-0.3,0.4-0.4,0.6c-0.2,0.1-0.3,0.2-0.4,0.4
					c-0.2,0.2-0.3,0.5-0.4,0.7c-0.5,0.4-0.8,0.8-1.2,1.4c-0.3,0.5-0.3,1.1-0.1,1.7c-0.4,0.4-0.6,1-0.5,1.6c-0.2,0.3-0.4,0.6-0.6,1
					c-0.2,0.7-0.3,1.3-0.2,2c0,0.1,0,0.1-0.1,0.2c0,0,0,0,0,0c-0.2,0.1-0.3,0.3-0.5,0.4c-0.5,0.4-0.7,1.4-0.5,2
					c-0.2,0.5-0.4,0.9-0.5,1.5c-0.1,0.4-0.2,0.7-0.3,1.1c0,0.4,0,0.7,0.2,1c-0.1,0.3-0.1,0.5-0.1,0.8c0,0,0,0.1,0,0.2
					c0,0-0.1,0.1-0.1,0.1c-0.7,0.7-0.7,1.8-0.2,2.6c-0.1,0.4-0.3,0.7-0.3,1.1c-0.2,0.9,0.2,1.6,0.6,2.2c-0.1,0.6-0.1,1.1,0.1,1.7
					c-0.1,0.5,0,1,0.1,1.5c0,0.1-0.1,0.2-0.1,0.2c-0.3,0.8-0.2,1.5,0.1,2.1c0,0.5,0,1.1,0.2,1.6c0.1,0.2,0.2,0.4,0.3,0.7
					c0,0.1,0.1,0.2,0.1,0.3c0,0,0,0,0,0c-0.1,0.8,0.3,1.6,0.8,2.3c-0.2,0.6-0.2,1.2,0.2,1.9c0.1,0.3,0.3,0.6,0.5,0.8
					c0,0.2,0,0.4,0.1,0.6c0.1,0.3,0.3,0.7,0.5,0.9c0,0,0,0,0,0c0,0,0,0,0,0.1c0,0.1,0,0.1,0,0.2c0,0.5,0.1,0.9,0.4,1.3
					c0.1,0.2,0.3,0.4,0.5,0.5c0,0.1,0.1,0.3,0.1,0.4c0.1,0.1,0.2,0.3,0.3,0.4c0,0.2,0,0.4,0.1,0.6c0.1,0.4,0.4,0.7,0.6,1
					c0,0.2,0,0.3,0,0.4c0,0.6,0.3,1.1,0.7,1.5c0.1,0.4,0.2,0.8,0.5,1.1c0,0,0,0,0,0c0,0.1,0.1,0.2,0.1,0.2c0.1,0.3,0.3,0.6,0.5,1
					c0.4,0.8,0.9,1.5,1.6,2c0,0.6,0.2,1.2,0.8,1.7c0.2,0.1,0.3,0.3,0.5,0.4c0.1,0.3,0.1,0.5,0.3,0.8c0.1,0.1,0.1,0.2,0.2,0.3
					c0,0.2,0.1,0.4,0.2,0.5c0.4,1.1,1.1,1.9,2,2.5c0.3,0.4,0.7,0.8,1.1,1.1c0.2,0.1,0.3,0.3,0.3,0.2c0,0,0.1,0.1,0.1,0.1
					c0.1,0.2,0.3,0.3,0.4,0.5c0.3,0.7,0.6,1.2,1.1,1.8c0.2,0.6,0.5,1.1,1.1,1.5c0.1,0.1,0.2,0.1,0.4,0.2c0.2,0.4,0.4,0.8,0.6,1.1
					c0.2,0.4,0.5,0.6,0.8,0.7c0.2,0.4,0.5,0.7,0.8,0.9c0.2,0.7,0.8,1.1,1.5,1.4c0,0,0.2,0,0.3,0.1c0,0,0,0,0,0c0,0,0,0,0,0
					c0.2,0.4,0.4,0.7,0.8,1c0.3,0.3,0.6,0.5,0.9,0.7c0.2,0.1,0.2,0.1,0,0c-0.2-0.2-0.2-0.1-0.1,0c0,0,0,0,0,0c0,0,0,0,0,0
					c0,0,0,0,0,0c0.1,0,0.3,0.4,0.2,0.3c0.5,0.7,1.2,1.2,1.9,1.5c0.1,0.4,0.4,0.7,0.8,1c0,0,0.1,0.1,0.1,0.1c0,0,0,0,0,0.1
					c0.4,0.9,1.3,1.2,2.2,1.5c0.2,0.2,0.4,0.4,0.6,0.6c0.3,0.4,0.6,0.8,1,1c0,0.1,0.1,0.1,0.1,0.2c0.4,0.7,1.1,1.2,1.9,1.5
					c0.1,0,0.2,0,0.2,0.1c0.1,0.1,0.3,0.3,0.4,0.3c0.2,0.1,0.4,0.2,0.6,0.2c0.4,0.5,0.8,0.9,1.3,1.3c0,0,0,0.1,0,0.1
					c0.1,0.5,0.5,0.9,1,1.2c0.3,0.8,1.2,1.4,2.1,1.3c0.1,0,0.2,0,0.3,0c0,0,0,0,0.1,0.1c0.1,0.1,0.2,0.2,0.3,0.3c0,0,0,0.1,0,0.1
					c0.2,0.7,0.9,1.3,1.6,1.4c0,0,0,0,0.1,0c0.2,0.2,0.4,0.4,0.6,0.5c0.3,0.1,0.5,0.2,0.8,0.2c0.3,0.2,0.6,0.3,0.9,0.5
					c0.6,0.8,1.2,1.4,2.1,1.7c0,0,0,0.1,0,0.1c0.2,0.7,0.9,1.3,1.6,1.4c0.3,0.1,0.6,0.1,0.8,0.2c0.2,0.4,0.5,0.8,1,1.1
					c0.3,0.2,0.7,0.3,1,0.4c0.3,0.4,0.6,0.7,1.1,0.8c0,0,0,0,0,0c0,0,0,0,0,0c0,0,0,0,0,0c0,0,0,0,0,0c0,0,0,0,0,0.1
					c0.1,0,0.1,0.1,0.2,0.1c-0.1,0-0.1-0.1-0.2-0.1c0,0,0,0.1,0,0.1c0.1,0.1,0.1,0.2,0.2,0.3c0.3,0.6,1.1,0.9,1.8,1
					c0.2,0.4,0.6,0.7,1,0.8c0.3,0.5,0.7,0.8,1.2,1c0.3,0.5,0.7,0.8,1.3,0.9c0,0,0.4,0.1,0.6,0.1c0.2,0.2,0.4,0.5,0.6,0.7
					c0.4,0.4,0.9,0.6,1.5,0.7c0.2,0.1,0.4,0.2,0.5,0.3c0.2,0.2,0.4,0.5,0.6,0.7c0.2,0.1,0.4,0.2,0.6,0.3c0.3,0.4,0.7,0.7,1.3,0.9
					c0.1,0,0.1,0,0.2,0.1c0.4,0.7,1.1,1.2,1.9,1.2c0.2,0.2,0.5,0.4,0.9,0.5c0.1,0,0.2,0,0.3,0.1c0.1,0.1,0.1,0.3,0.2,0.4
					c0.4,0.7,0.9,1,1.6,1.2c0.5,0.4,1,0.8,1.7,0.7c0.2,0,0.3,0,0.5-0.1c0,0,0,0,0.1,0c0.1,0.2,0.3,0.4,0.4,0.5
					c0.2,0.2,0.4,0.3,0.6,0.4c0.2,0.4,0.6,0.7,1,1c0.3,0.2,0.7,0.3,1,0.4c0.1,0,0.3,0.1,0.4,0.1c0,0,0.1,0,0.1,0.1c0,0,0,0,0,0
					c0.2,0.2,0.4,0.3,0.6,0.5c0.4,0.3,0.8,0.5,1.2,0.6c0.1,0.1,0.1,0.1,0.2,0.2c0.3,0.2,0.6,0.4,1,0.5c0.3,0.2,0.6,0.4,0.8,0.5
					c0.3,0.5,0.9,0.9,1.4,1.1c0,0,0.1,0,0.1,0c0.3,0.2,0.6,0.4,0.9,0.5c0.2,0.3,0.5,0.6,0.8,0.7c0.4,0.2,0.9,0.2,1.3,0.2
					c0.1,0.2,0.2,0.3,0.2,0.4c0.4,0.7,1.2,1,1.9,1c0.1,0,0.2,0,0.2,0c0.5,0.2,1,0.4,1.4,0.7c0.1,0,0.2,0.1,0.3,0.2
					c0.2,0.1,0.3,0.3,0.5,0.4c0.4,0.3,0.8,0.3,1.2,0.4c0.1,0.1,0.2,0.2,0.3,0.3c-0.1-0.1-0.2-0.2-0.2-0.2c0.1,0.1,0.1,0.2,0.2,0.2
					c0.6,0.8,1.3,1.1,2.1,1.2c0.6,0.7,1.4,1,2.3,0.8c0.3,0.3,0.7,0.6,1,0.8c0.5,0.3,1.1,0.5,1.6,0.5c0.4,0.6,1.1,0.9,1.8,0.9
					c0,0,0.1,0,0.1,0c0,0,0,0,0.1,0c0.5,0.4,1,0.6,1.6,0.8c-0.1-0.1-0.4-0.2,0.1,0.1c0.3,0.2,0.7,0.3,1,0.3c0,0,0.1,0,0.1,0
					c0.1,0.1,0.2,0.2,0.4,0.3c0.3,0.2,0.6,0.2,1,0.2c0.3,0.2,0.5,0.4,0.9,0.4c0.1,0,0.2,0,0.4,0c0.1,0.1,0.1,0.1,0.2,0.2
					c0.1,0.1,0.1,0.1,0.2,0.1c0.1,0.1,0.2,0.2,0.3,0.3c0.6,0.8,1.3,1,2.2,0.9c0.4,0.2,0.8,0.4,1.2,0.5c0.1,0,0.4,0.1,0.5,0
					c0,0,0,0,0,0c0.2,0.1,0.4,0.2,0.6,0.3c0.9,0.5,1.9,0.6,2.9,0.7c0.3,0.3,0.7,0.5,1.2,0.6c0.8,0.7,1.6,0.9,2.5,0.8
					c0.5,0.3,1.1,0.5,1.7,0.6c0.2,0.1,0.5,0.3,0.8,0.4c0.1,0.1,0.1,0.2,0.2,0.2c0.6,0.6,1.3,0.6,2.1,0.4c0.3,0.3,0.8,0.5,1.2,0.5
					c0.4,0.4,1,0.6,1.6,0.6c0,0,0,0,0,0c0.4,0.2,0.8,0.3,1.2,0.4c0.3,0.2,0.6,0.3,1,0.4c0.4,0.1,0.8,0.1,1.2,0.1
					c0.5,0.3,1,0.4,1.6,0.5c0,0,0,0,0,0c0.4,0.3,0.8,0.5,1.2,0.5c0.5,0.5,1.3,0.7,2,0.5c0.6,0.3,1.3,0.3,1.9,0c0,0,0,0,0,0
					c0.1,0,0.3,0.1,0.5,0.1c0,0,0.1,0,0.1,0c0.6,0.3,1.2,0.4,1.9,0.4c0.5,0.2,0.9,0.4,1.5,0.4c0.2,0,0.5,0,0.7,0
					c0.5,0.2,0.9,0.5,1.5,0.6c0.5,0.1,1,0,1.5-0.1c0.1,0,0.2,0,0.3,0.1c0.5,0.6,1.1,0.9,1.8,0.8c0.5,0.4,1.2,0.6,1.9,0.3
					c0.2-0.1,0.3-0.1,0.4-0.2c0.1,0.1,0.1,0.1,0.2,0.2c0.8,0.8,1.9,0.5,2.9,0.5c0.1,0,0.2,0,0.3,0c0,0,0,0,0.1,0
					c0.4,0.2,0.8,0.1,1.2,0.2c0.4,0,0.7,0,1.1,0c0.1,0.1,0.2,0.1,0.3,0.2c0.6,0.4,1.2,0.3,1.8,0c0.5,0.3,1.1,0.4,1.7,0.3
					c0.1,0,0.1,0,0.2,0c0,0,0,0,0.1,0c0.5,0.1,0.9,0.1,1.4,0c0.1,0,0.2-0.1,0.3-0.1c0.4,0.2,0.7,0.3,1.2,0.3c0.5,0,0.9-0.1,1.4-0.2
					c0.3,0,0.6,0.1,0.9,0.1c0.3,0,0.6,0,1-0.1c0.1,0,0.3,0,0.4-0.1c0,0,0.1,0,0.1,0c0.1,0,0.3,0.1,0.3,0.1c0.4,0.1,0.8,0,1.1-0.1
					c0.2,0.1,0.5,0.1,0.7,0.1c0.6,0.4,1.2,0.6,2,0.4c0.2-0.1,0.5-0.1,0.7-0.2c0.7,0.2,1.4,0.4,2.1,0.2c0.3-0.1,0.6-0.2,0.9-0.3
					c0.1,0,0.1,0.1,0.2,0.1c0.6,0.4,1.5,0.3,2.1-0.1c0.3,0,0.7,0.1,1,0.1c0.2,0,0.4-0.1,0.5-0.1c0.4,0.2,0.8,0.3,1.4,0.2
					c0.8,0,1.4-0.2,2-0.6c0.2,0,0.3,0,0.5,0c0.1,0.1,0.2,0.1,0.3,0.1c0.3,0.1,0.6,0.1,0.9,0.1c0.9,0.1,1.6-0.3,2.4-0.8
					c0.2,0,0.4,0.1,0.6,0.1c0.7,0.1,1.3,0,1.9-0.2c0.8,0.3,1.6,0.4,2.4,0.2c0.4-0.1,0.8-0.5,1.2-0.8c0.5,0,1-0.2,1.5-0.5
					c0.4,0.1,0.9,0.2,1.4,0.1c0.6-0.1,1-0.3,1.3-0.6c0.4,0,0.7-0.1,1.1-0.3c0.3-0.2,0.5-0.3,0.7-0.5c0,0,0,0,0,0
					c0.5,0,0.9-0.2,1.2-0.5c0,0,0.1,0,0.1-0.1c0.5,0.1,1.2-0.5,1.5-0.8c0,0,0.1-0.1,0.1-0.1c0,0,0,0,0,0c0,0,0,0-0.1,0.1
					c0.1,0,0.1-0.1,0.2-0.1c0.3-0.1,0.7-0.2,1-0.3c0.1,0,0.3,0,0.4,0c0.8,0,1.5-0.6,1.8-1.3c0.1,0,0.2-0.1,0.3-0.1
					c0.1-0.1,0.5-0.3,0.4-0.3c0.1,0,0.1,0,0.2-0.1c0.5-0.2,1.1-0.5,1.4-0.9c0.7-0.1,1.4-0.5,1.7-1.1c0.2-0.3,0.3-0.7,0.3-1
					c0.1-0.2,0.3-0.4,0.4-0.5c0.1-0.1,0.1-0.2,0.2-0.2c0.1-0.1,0.3-0.2,0.3-0.2c0.9-0.5,1.4-1.1,1.9-1.9c0.3-0.2,0.6-0.5,0.8-0.9
					c0.1-0.2,0.2-0.5,0.2-0.7c0.2-0.2,0.3-0.4,0.4-0.5c0.1-0.1,0.2-0.1,0.2-0.2c0.6-0.4,1.1-1.1,1-1.9c0.1-0.1,0.2-0.2,0.3-0.4
					c0.1,0,0.1-0.1,0.2-0.1c0.6-0.4,1.1-1.1,1-1.9c0-0.1,0-0.2,0-0.3c0-0.1,0.1-0.1,0.1-0.2c0.2-0.1,0.4-0.3,0.6-0.5
					c0.5-0.5,0.6-1.3,0.7-2c0-0.2,0-0.5,0-0.8c0,0,0,0,0,0c0,0,0,0,0,0C311.2,149.1,311.3,149,311.3,148.8z M113.2,37.3
					C113.2,37.3,113.2,37.3,113.2,37.3C113.5,36.8,113.3,37.1,113.2,37.3z M111,39.8C110.7,40.1,110.8,39.9,111,39.8L111,39.8z
					 M103.2,68.9C103.2,68.9,103.3,68.9,103.2,68.9C103.3,68.9,103.3,68.9,103.2,68.9C103.2,69,103.2,69,103.2,68.9z M182.4,149
					c0.1,0,0.1,0.1,0.2,0.1c0,0,0,0,0,0C182.5,149.1,182.5,149.1,182.4,149z M182.6,149.2C182.6,149.2,182.6,149.2,182.6,149.2
					C182.6,149.2,182.6,149.2,182.6,149.2C182.6,149.2,182.6,149.2,182.6,149.2z M197.7,156.7C197.4,156.5,197.5,156.6,197.7,156.7
					L197.7,156.7z M197.8,156.8C197.8,156.8,197.8,156.8,197.8,156.8C197.8,156.8,197.8,156.8,197.8,156.8
					C197.8,156.8,197.8,156.8,197.8,156.8z M295.3,167.5C295.3,167.5,295.3,167.5,295.3,167.5C295.5,167.3,295.5,167.3,295.3,167.5
					C295.3,167.5,295.3,167.5,295.3,167.5z M303.3,161.7C303.3,161.8,303.3,161.8,303.3,161.7C303.3,161.8,303.3,161.8,303.3,161.7z
					"/>
			</defs>
			<use xlink:href="#XMLID_16_"  style="overflow:visible;fill:#005944;"/>
			<clipPath id="XMLID_13_">
				<use xlink:href="#XMLID_16_"  style="overflow:visible;"/>
			</clipPath>
		</g>
		<path class="st4" d="M125.2,108.7c0.1,0.3,0.2,0.3,0.2,0.4C125.3,109,125.2,108.9,125.2,108.7
			C125.2,108.7,125.2,108.7,125.2,108.7z"/>
	</g>
	<g>
		<path class="st8" d="M263,65C263,65.1,263,65.1,263,65C263,65.3,263,65.2,263,65z"/>
		<path class="st8" d="M215,48.6C215,48.6,215,48.6,215,48.6C215,48.7,215,48.6,215,48.6C215,48.6,215,48.6,215,48.6z"/>
		<path class="st8" d="M263.7,59.5C263.7,59.4,263.7,59.4,263.7,59.5C263.7,59.4,263.7,59.4,263.7,59.5
			C263.7,59.4,263.7,59.4,263.7,59.5z"/>
		<g>
			<defs>
				<path id="XMLID_9_" d="M263.3,64.6c0.3-0.7,0.3-1.3,0.1-2c0.2-0.4,0.3-0.8,0.3-1.3c0-0.1,0-0.2,0-0.3c0.1-0.3,0.1-0.7,0.1-0.9
					c0,0,0-0.4-0.1-0.6c0,0.2-0.1,0.6,0,0.1c0-0.1,0-0.1,0-0.2c0,0,0,0,0,0c0,0,0,0,0,0c0,0,0-0.1,0-0.1c0-0.1,0.1-0.2,0.1-0.3
					c0,0,0,0,0,0c0.1-0.2,0.3-0.4,0.3-0.4c0.4-0.7,0.3-1.5-0.1-2.1c0-0.1-0.1-0.1-0.1-0.2c0-0.6,0-1.3-0.1-1.9
					c0.4-0.8,0.2-1.5-0.2-2.2c0.1-0.7,0-1.3-0.3-2c0-0.5-0.1-0.9-0.3-1.4c-0.1-0.1-0.1-0.2-0.2-0.3c0.1-0.4,0.1-0.8,0-1.2
					c-0.1-0.2-0.2-0.5-0.3-0.7c0-0.1,0-0.1-0.1-0.1c-0.2-0.5-0.4-1.1-0.7-1.6c0-0.4-0.1-0.7-0.2-1.1c0-0.1-0.1-0.2-0.2-0.3
					c0-0.6-0.1-1.3-0.7-1.7c-0.2-0.1-0.4-0.3-0.6-0.5c0,0,0,0,0-0.1c0-0.1,0-0.3,0-0.4c0-0.8-0.5-1.3-1.1-1.8
					c-0.1-0.3-0.3-0.6-0.6-0.8c-0.3-0.3-0.6-0.4-0.9-0.5c0,0-0.1-0.1-0.1-0.1c0-1.2-0.9-2.2-2.2-2.2c-0.1-0.1-0.1-0.1-0.2-0.1
					c-0.3-0.6-0.8-1.2-1.5-1.3c-0.4,0-0.7-0.1-1.1-0.1c-0.1-0.1-0.2-0.1-0.3-0.2c0,0,0,0,0,0c-0.3-1.1-1.6-1.7-2.7-1.4
					c-0.2-0.1-0.4-0.1-0.6-0.2c0,0,0-0.1-0.1-0.1c-0.5-0.6-1.4-0.7-2.1-0.4c-0.4-0.2-0.8-0.2-1.2-0.2c0,0,0,0,0,0c0,0,0,0,0,0
					c0,0-0.1-0.1-0.2-0.1c-0.1-0.1-0.2-0.1-0.3-0.2c-0.5-0.3-1.1-0.3-1.6-0.1c-0.5-0.2-1.1-0.2-1.6,0.1c-0.4-0.2-0.9-0.3-1.4-0.3
					c-0.2,0-0.4,0.1-0.4,0.1c-0.2,0-0.3,0-0.5-0.1c-0.4,0-0.8,0-1.2,0.2c-0.1,0-0.1,0-0.1,0c0,0,0,0,0,0c0,0,0,0,0,0
					c-0.1,0-0.2-0.1-0.3-0.1c0,0,0,0,0,0c-0.1-0.1-0.2-0.1-0.3-0.1c-0.6-0.2-1.1-0.3-1.7-0.1c-0.1,0-0.2,0-0.3,0.1
					c-0.2,0-0.3,0-0.5,0c-0.3,0-0.6,0.2-0.9,0.3c-0.5-0.3-1-0.4-1.8-0.2c-0.6,0.1-1.1,0.4-1.6,0.8c-0.3,0-0.6,0-0.9,0
					c-0.1,0-0.3-0.1-0.4-0.1c-0.7-0.2-1.4,0.1-1.9,0.5c0,0,0,0-0.1,0c-0.9-0.1-1.6,0.2-2.2,0.7c-0.1,0-0.3,0.1-0.4,0.2
					c-1.1-0.1-2,0.1-2.8,0.8c-0.2,0.1-0.5,0.1-0.7,0.3c-0.1,0-0.2,0.1-0.3,0.1c0,0,0,0,0,0c-0.6-0.1-1.2,0.4-1.6,0.9
					c-0.4,0.2-0.7,0.4-1.1,0.6c-0.1,0.1-0.2,0.1-0.3,0.2c0,0,0,0,0,0c-0.2,0.1-0.5,0.1-0.7,0.2c-0.5,0.2-1,0.5-1.4,0.8
					c-0.1,0.1-0.3,0.2-0.4,0.3c-0.6,0.1-1.1,0.6-1.4,1.1c-0.3,0.5-0.5,1-0.6,1.6c-0.2,0.3-0.5,0.6-0.6,1.1c0,0.1-0.1,0.2-0.1,0.4
					c0,0,0,0.1,0,0.1c-0.1,0.1-0.1,0.2-0.2,0.3c-0.4,0.8-0.3,1.6,0.2,2.3c0,0.5,0.1,1,0.2,1.5c0.2,0.7,0.5,1.4,0.9,2.1
					c0.2,0.4,0.4,0.7,0.8,1c0,0,0.1,0,0.1,0.1c0,0-0.1-0.1-0.1-0.2c0,0.1,0.1,0.1,0.1,0.2c0,0,0,0,0,0c0,0,0,0,0,0c0,0,0,0,0,0.1
					c0,0,0,0-0.1-0.1c0.1,0.8,0.6,1.3,1.3,1.8c0.1,0.2,0.2,0.3,0.3,0.5c0.2,0.3,0.5,0.5,0.9,0.7c0.1,0.1,0.3,0.3,0.4,0.4
					c0.2,0.6,0.4,1.2,1.1,1.5c0.1,0.1,0.2,0.1,0.3,0.2c0,0.1,0,0.1,0,0.2c0.1,0.8,0.9,1.2,1.6,1.4c0,0,0.1,0,0.1,0
					c0.1,0,0.1,0.1,0.1,0c0,0,0,0,0,0c0.3,0.4,0.5,0.7,1,1c0.1,0.1,0.2,0.1,0.3,0.2c0,0,0,0,0,0.1c0.1,0.1,0.2,0.2,0.2,0.3
					c0.3,0.5,0.6,0.9,0.9,1.3c0.3,0.4,0.6,0.6,1,0.8c0.3,0.7,1,1.2,1.8,1.2c0.1,0.1,0.1,0.1,0.2,0.1c0.2,0.1,0.4,0.2,0.6,0.3
					c0.2,0.3,0.4,0.5,0.7,0.8c0.3,0.2,0.6,0.4,0.9,0.5c0.1,0.2,0.2,0.5,0.3,0.7c0.4,0.8,1.3,1,2.2,0.9c0,0,0,0,0,0
					c0.2,0.2,0.4,0.3,0.6,0.4c0.3,0.7,0.9,1.2,1.6,1.3c0.4,0.5,1.1,0.8,1.7,0.7c0.1,0,0.2,0,0.3,0c0,0,0.1,0,0.2,0c0,0,0,0,0,0
					c0,0,0,0,0,0c0.3,0.4,0.6,0.8,1.1,1.1c0.5,0.3,1,0.4,1.5,0.5c0.2,0.2,0.4,0.4,0.6,0.5c0.3,0.2,0.7,0.2,1.1,0.2
					c0.1,0.1,0.1,0.2,0.1,0.1c0.1,0.1,0.1,0.1,0.2,0.2c0.5,0.4,1,0.5,1.5,0.6c0.3,0.2,0.5,0.3,0.8,0.4c0.1,0,0.2,0,0.3,0
					c0.5,0.5,1.1,0.7,1.8,0.6c0.8,0.4,1.6,0.7,2.5,0.9c0.1,0,0.2,0,0.3,0.1c0.1,0,0.2,0,0.2,0c0.1,0.1,0.2,0.1,0.3,0.2
					c0.5,0.2,0.9,0.3,1.4,0.4c0.6,0.4,1.2,0.7,2.1,0.5c0.1,0,0.5-0.2,0.5-0.2c0,0,0,0,0,0c0,0,0,0-0.1,0.1c-0.5,0.2,0,0,0.1,0
					c0,0,0.1,0,0.1,0c0.7,0.2,1.4,0.2,2.1,0c0.7,0.2,1.4,0.2,2.1-0.1c0.5-0.2,0.9-0.5,1.2-0.9c0,0,0,0,0,0c0.4,0,0.8-0.1,1.1-0.2
					c0.6-0.2,1-0.5,1.3-0.9c0.7-0.2,1.1-0.8,1.3-1.5c0.4-0.3,0.6-0.7,0.8-1.1c0.6-0.4,0.9-1,0.9-1.8c0-0.2,0-0.4,0-0.5
					c0-0.2,0.1-0.1,0.1,0.1c-0.1,0.2-0.1,0.2,0,0.1c0,0,0,0,0,0c0,0,0,0,0-0.1c0,0,0,0,0,0c0,0,0,0,0,0
					C263.1,64.9,263.2,64.7,263.3,64.6z M263.8,58.9c0,0.1,0,0.2-0.1,0.1C263.7,59,263.7,59,263.8,58.9z M237.8,30.9c0,0,0,0,0.1,0
					C237.9,30.9,237.8,30.9,237.8,30.9z M260,41.2c0-0.1,0-0.1-0.1-0.2C260,41,260,41.1,260,41.2z M238.1,30.9
					C238.1,30.9,238.1,30.9,238.1,30.9c0,0-0.1,0-0.2-0.1C237.9,30.8,238,30.9,238.1,30.9z M213,41.2c0,0,0-0.1,0-0.1
					C213,41.1,213,41.2,213,41.2z M215.1,48.7C215.1,48.7,215.1,48.7,215.1,48.7C215.1,48.7,215.1,48.7,215.1,48.7z"/>
			</defs>
			<use xlink:href="#XMLID_9_"  style="overflow:visible;fill:#096A52;"/>
			<clipPath id="XMLID_14_">
				<use xlink:href="#XMLID_9_"  style="overflow:visible;"/>
			</clipPath>
		</g>
	</g>
</g>
<path class="st2" d="M169.3,346.6c0,0-2.2,1-2.3,5.4c-0.1,4.4-1.2,8,1.1,9.5c2.3,1.5,4.8,0.1,5.2-1.8c0.3-1.2,0.9-5.1,0.8-7.5
	S174.2,345.9,169.3,346.6z"/>
<g>
	<g>
		<path class="st0" d="M60.9,182.2c0.5-1.1,1.1-2.2,1.8-3.3c0.1-0.1,0.2-0.2,0.2-0.3c0-0.1,0.4-0.5,0.2-0.2
			c-0.2,0.3,0.1-0.1,0.1-0.1c0.1-0.1,0.2-0.3,0.3-0.4c0.2-0.2,0.4-0.5,0.6-0.7c0.1-0.1,0.5-0.6,0.7-0.6c-0.1,0-0.4,0.2,0,0.1
			c-0.1,0-0.4,0.1-0.5,0.1c0.1-0.1,0.6,0.1,0.3,0c-0.3-0.1,0.1,0.1,0.2,0.1c0.2,0.1,0.3,0.1,0.5,0.2c-0.2-0.1-0.3-0.1,0,0
			c0.3,0.1,0.6,0.3,0.9,0.4c0.6,0.3,1.2,0.6,1.7,1c0.3,0.2,0.6,0.4,0.8,0.5c0.1,0.1,0.2,0.2,0.4,0.3c0.5,0.3-0.3-0.2-0.3-0.3
			c-0.1-0.4-0.2-0.9-0.4-1.3c0-0.2,0.1-0.4,0.2-0.7c0,0-0.1,0.1-0.1,0.1c-0.1,0.2-0.3,0.4-0.4,0.6c-0.3,0.4-0.6,0.8-0.8,1.1
			c0.3-0.4-0.1,0.1-0.2,0.2c-0.1,0.2-0.2,0.3-0.4,0.5c-0.1,0.2-0.3,0.4-0.4,0.5c-0.1,0.1-0.1,0.2-0.2,0.2c0.2-0.2,0.5-0.3,0.8-0.2
			c1-0.2,0.6-0.1,0.2-0.2c-0.2-0.1-0.4-0.2-0.7-0.3c-0.4-0.2-0.9-0.4-1.3-0.5c-0.4-0.2-0.9-0.4-1.3-0.5c-0.2-0.1-0.4-0.1-0.6-0.2
			c-0.1,0-0.2-0.1-0.3-0.1c0.6,0.2,0.9,0.6,1.1,1.3c0,0.5,0,0.9,0,1.4c-0.5,0.7-0.6,1-0.4,0.7c0.1-0.1,0.2-0.1,0.2-0.2
			c0.1-0.1,0.5-0.5,0.1-0.1c0.2-0.3,0.7-0.5,0.9-0.6c0.3-0.2,0.7-0.4,1-0.5c0.1-0.1,0.6-0.4,0.1-0.1c0.2-0.1,0.7-0.1,0-0.1
			c-0.4-0.1-0.9-0.2-1.3-0.4c-0.1-0.1-0.2-0.2-0.3-0.2c-0.2-0.4-0.4-0.8-0.7-1.1c0.2,0.4,0.1-0.5,0-0.1c0,0.1,0,0.4,0,0.5
			c0.1-0.1,0.1-0.4,0-0.1c-0.1,0.2-0.1,0.4-0.2,0.6c-0.4,1.3,0.5,2.9,1.8,3.2c1.4,0.3,2.8-0.4,3.2-1.8c0.2-0.8,0.4-1.7,0.4-2.6
			c0-1.6-1.2-3.2-2.9-3.2c-1,0-1.9,0.5-2.8,0.9c-0.7,0.3-1.3,0.7-2,1.2c-0.8,0.5-1.6,1.1-2.1,2c-0.9,1.5-0.2,3.3,1.2,4.1
			c0.8,0.4,1.7,0.7,2.5,1c0.8,0.3,1.6,0.6,2.4,1c1.1,0.4,2.3,0.5,3.4-0.1c0.8-0.5,1.4-1.3,2-2.1c0.6-0.7,1.1-1.5,1.7-2.2
			c0.7-1,1.3-2.1,0.9-3.4c-0.3-1.1-1.2-1.8-2.2-2.4c-0.7-0.5-1.4-0.9-2.1-1.3c-1.5-0.8-3.4-1.8-5.2-1.6c-2.1,0.2-3.6,1.8-4.9,3.4
			c-1.1,1.4-2.1,2.9-2.8,4.6c-0.5,1.2-0.4,2.8,0.9,3.6C58.5,183.7,60.3,183.5,60.9,182.2L60.9,182.2z"/>
	</g>
</g>
<g>
	<g>
		<path class="st0" d="M66,177.3c0.2,0.1,0.4,0.1,0.6,0.2c0.1,0,0.6,0.3,0.6,0.2c-0.3-0.1-0.4-0.2-0.2-0.1c0.1,0,0.2,0.1,0.2,0.1
			c0.2,0.1,0.4,0.2,0.6,0.3c0.3,0.2,0.7,0.4,1,0.6c0,0,0.5,0.4,0.5,0.4c-0.3-0.2-0.4-0.3-0.1-0.1c0,0,0.1,0.1,0.1,0.1
			c0.3,0.3,0.7,0.6,1,0.9c0.1,0.1,0.2,0.2,0.3,0.4c0.1,0.1,0.1,0.2,0.2,0.3c0.2,0.2,0.1,0.2-0.1-0.1c0.1,0,0.3,0.5,0.4,0.6
			c0,0,0.1,0.1,0.1,0.1c0.1,0.3,0.1,0.2-0.1-0.2c0,0.1,0.1,0.2,0.1,0.3c0.1,0.3,0,0.2,0-0.2c0,0.5,0.2-0.6,0,0c-0.2,0.6,0.3-0.5,0,0
			c-0.1,0.2-0.1,0.2,0.2-0.2c-0.1,0.1-0.1,0.1-0.2,0.2c-0.1,0.1-0.1,0.1-0.2,0.1c-0.2,0.1-0.1,0.1,0.2-0.2c-0.1,0-0.5,0.2-0.5,0.3
			c0.4-0.2,0.5-0.2,0.2-0.1c-0.1,0-0.2,0.1-0.3,0.1c-0.5,0.1,0.5,0-0.1,0c-0.3,0-0.5,0-0.8,0c-0.5,0,0.5,0.1-0.2,0
			c-0.9-0.2-1.8-0.5-2.6-0.8c-0.4-0.1-0.8-0.3-1.2-0.5c-0.3-0.1-0.2-0.1,0.1,0c-0.1,0-0.2-0.1-0.3-0.2c-0.2-0.1-0.5-0.2-0.7-0.3
			c-1.2-0.6-2.9-0.4-3.6,0.9c-0.6,1.2-0.4,2.9,0.9,3.6c1.7,0.8,3.5,1.5,5.4,2c2,0.5,4.4,0.7,6.2-0.5c1.9-1.3,3.1-3.6,2.4-5.9
			c-0.6-1.8-1.9-3.3-3.4-4.5c-1.6-1.3-3.4-2.3-5.5-2.9c-1.3-0.4-2.9,0.5-3.2,1.8C63.9,175.5,64.6,176.9,66,177.3L66,177.3z"/>
	</g>
</g>
<g>
	<g>
		<path class="st0" d="M60.7,187.2c1,0.7,2.1,1.2,3.3,1.3c1.4,0.1,2.7-0.6,3.7-1.7c1.4-1.5,2.4-3.3,3.1-5.2c0.2-0.6,0.1-1.5-0.3-2
			c-0.3-0.5-0.9-1.1-1.6-1.2c-0.7-0.2-1.4-0.1-2,0.3c-0.6,0.4-1,0.9-1.2,1.6c-0.1,0.2-0.2,0.4-0.2,0.6c0.1-0.2,0.2-0.4,0.3-0.6
			c-0.4,1-0.9,1.8-1.6,2.7c0.1-0.2,0.3-0.4,0.4-0.5c-0.4,0.5-0.8,1-1.2,1.3c0.2-0.1,0.4-0.3,0.5-0.4c-0.1,0.1-0.3,0.2-0.5,0.3
			c0.2-0.1,0.4-0.2,0.6-0.3c-0.1,0-0.3,0.1-0.4,0.1c0.2,0,0.5-0.1,0.7-0.1c-0.2,0-0.3,0-0.5,0c0.2,0,0.5,0.1,0.7,0.1
			c-0.2,0-0.5-0.1-0.7-0.2c0.2,0.1,0.4,0.2,0.6,0.3c-0.4-0.2-0.8-0.5-1.2-0.7c-0.5-0.4-1.4-0.4-2-0.3c-0.6,0.2-1.3,0.6-1.6,1.2
			c-0.3,0.6-0.5,1.3-0.3,2C59.8,186.3,60.2,186.8,60.7,187.2L60.7,187.2z"/>
	</g>
</g>
<g>
	<g>
		<g class="st9">
			<defs>
				<polygon id="SVGID_3_" class="st9" points="38.2,196.3 45.6,176.6 64.9,181.4 57.5,201 				"/>
			</defs>
			<clipPath id="SVGID_4_">
				<use xlink:href="#SVGID_3_"  style="overflow:visible;"/>
			</clipPath>
			<g class="st10">
				<g>
					<g>
						<g>
							<path class="st11" d="M55.3,179c-5.3-1.3-11.3,2-13.4,7.4c-2.1,5.4,0.6,10.9,5.9,12.2c5.3,1.3,11.3-2,13.4-7.5
								C63.3,185.7,60.6,180.3,55.3,179"/>
						</g>
					</g>
				</g>
			</g>
		</g>
	</g>
</g>
<g>
	<g>
		<g class="st9">
			<defs>
				<polygon id="SVGID_5_" class="st9" points="36.3,194.4 43.8,174.8 63.1,179.5 55.6,199.1 				"/>
			</defs>
			<clipPath id="SVGID_6_">
				<use xlink:href="#SVGID_5_"  style="overflow:visible;"/>
			</clipPath>
			<g class="st12">
				<g>
					<g>
						<g>
							<path class="st13" d="M53.4,177.1c-5.3-1.3-11.3,2-13.4,7.4c-2.1,5.4,0.6,10.9,5.9,12.2c5.3,1.3,11.3-2,13.4-7.5
								C61.4,183.9,58.8,178.5,53.4,177.1"/>
						</g>
					</g>
				</g>
			</g>
		</g>
	</g>
</g>
<g>
	<g>
		<g class="st9">
			<defs>
				<polygon id="SVGID_7_" class="st9" points="38.8,193 44.9,177 60.6,180.9 54.5,196.9 				"/>
			</defs>
			<clipPath id="SVGID_8_">
				<use xlink:href="#SVGID_7_"  style="overflow:visible;"/>
			</clipPath>
			<g class="st14">
				<g>
					<g>
						<g>
							<path class="st15" d="M52.7,179c-4.3-1.1-9.2,1.7-10.9,6.1c-1.7,4.4,0.5,8.9,4.8,9.9s9.2-1.7,10.9-6.1
								C59.2,184.5,57.1,180,52.7,179"/>
						</g>
					</g>
				</g>
			</g>
		</g>
	</g>
</g>
<polygon class="st16" points="45.1,194.1 49.3,189.1 46.7,180 "/>
<polygon class="st17" points="46.7,180 49.3,189.1 57.4,188.8 "/>
<line class="st18" x1="42.2" y1="190.4" x2="43.2" y2="189.8"/>
<line class="st18" x1="56" y1="183.4" x2="57" y2="182.9"/>
<line class="st18" x1="51.4" y1="192.7" x2="51.8" y2="193.8"/>
<g>
	<g>
		<path class="st19" d="M21.1,174.1c2.3,1.3,4.6,2.6,6.9,3.9c0.5,0.3,1.1,0.1,1.4-0.4c0.3-0.5,0.1-1.1-0.4-1.4
			c-2.3-1.3-4.6-2.6-6.9-3.9c-0.5-0.3-1.1-0.1-1.4,0.4C20.4,173.2,20.6,173.8,21.1,174.1L21.1,174.1z"/>
	</g>
</g>
<g>
	<g>
		<path class="st19" d="M26.7,167.3c1.9,1.5,3.8,3,5.7,4.6c0.4,0.3,1,0.4,1.4,0c0.3-0.4,0.4-1.1,0-1.4c-1.9-1.5-3.8-3-5.7-4.6
			c-0.4-0.3-1-0.4-1.4,0C26.3,166.3,26.2,167,26.7,167.3L26.7,167.3z"/>
	</g>
</g>
<g>
	<g>
		<path class="st19" d="M37.4,159.2c0.9,2,1.8,4,2.6,6.1c0.2,0.5,1,0.6,1.4,0.4c0.5-0.3,0.6-0.9,0.4-1.4c-0.9-2-1.8-4-2.6-6.1
			c-0.2-0.5-1-0.6-1.4-0.4C37.2,158.2,37.1,158.7,37.4,159.2L37.4,159.2z"/>
	</g>
</g>
<g>
	<g>
		<path class="st0" d="M248,293.8c-1-1.9-2.6-3.7-4.9-3.3c-2.3,0.4-2.8,3-3,4.9c-0.2,2.2,0.7,4,2.5,5.2c0.8,0.5,1.7,0.9,2.6,1.3
			c0.9,0.4,1.8,0.7,2.8,0.9c2.1,0.4,4.3,0,5.5-1.9c1-1.6,1.5-5-1-5.5c-0.5-0.1-1,0-1.5,0c-0.4,0-0.8,0-1.1-0.1
			c-0.9-0.2-1.5-0.4-2.2-0.8c-0.7-0.4-1.1-0.9-1.7-1.6c-0.9-0.9-2.3-1.2-3.3-0.3c-0.9,0.9-0.6,2.4-0.4,3.6c0.2,1,0.7,2,1.5,2.7
			c1.9,1.6,4.9,1.2,7.1,0.5c1.1-0.3,1.5-1.7,0.7-2.5c-1.4-1.4-3.2-2.4-5.2-2.5c-1.3-0.1-2.4,0.8-2.5,2.1c0,1.2,0.8,2,1.7,2.6
			c1.6,1.1,3.6,1.7,5.5,1.5c1.2-0.1,2.3-0.7,2.6-2c0.3-1.1-0.1-2.2-0.6-3.2c-0.4-0.7-1.4-0.9-2.1-0.5c-0.7,0.4-0.9,1.3-0.5,2.1
			c0.1,0.2,0.2,0.4,0.3,0.6c0,0.1,0.1,0.4,0.1,0.2c0-0.2,0.1,0,0,0.1c0,0,0.3-0.3,0.3-0.2c0,0-0.5,0-0.7,0c-1,0-2-0.3-2.8-0.8
			c-0.2-0.1-0.4-0.3-0.5-0.3c0,0-0.2-0.2-0.3-0.2c0.1,0,0.1,0.4,0.1,0.3c0.1,0.2,0,0.4-0.3,0.5c-0.1,0.1-0.2,0.2-0.3,0.3
			c0,0-0.1,0-0.1,0c0.1,0,0.1,0,0.2,0c0.3,0,0.5,0.1,0.8,0.2c0.9,0.3,1.7,0.8,2.4,1.5c0.2-0.8,0.4-1.7,0.7-2.5
			c-0.8,0.2-1.5,0.4-2.3,0.5c-0.4,0-0.8,0-1.1,0c-0.2,0-0.5-0.1-0.7-0.2c-0.1,0-0.1-0.1-0.2-0.1c0.1,0.1,0.1,0.1,0,0
			c-0.1-0.1-0.1-0.1-0.2-0.2c0.1,0.1,0.1,0.1,0-0.1c-0.1-0.1-0.2-0.3-0.2-0.4c0.1,0.2-0.1-0.2-0.1-0.2c-0.1-0.3-0.2-0.6-0.2-0.9
			c0,0.3,0-0.2,0-0.2c0-0.1,0-0.2,0-0.3c0-0.2,0-0.2,0-0.1c-0.1,0.2-0.3,0.4-0.4,0.7c-0.3,0.3-0.5,0-0.8,0.2c-0.1,0-0.1-0.2-0.1,0
			c0.1,0.2,0.4,0.4,0.5,0.5c0.4,0.4,0.9,0.8,1.4,1.2c0.9,0.6,1.9,1.1,2.9,1.3c0.5,0.1,1.1,0.2,1.6,0.3c0.3,0,0.6,0,0.8,0
			c0.2,0,0.7,0,0.8-0.1c0,0,0,0,0,0c-0.3-0.1-0.5-0.3-0.6-0.5c0,0,0-0.2,0,0.1c0,0.1,0,0.2,0,0.3c0,0.5,0-0.1,0,0.2
			c0,0.2-0.1,0.5-0.2,0.7c0-0.1,0.1-0.2,0,0.1c-0.1,0.1-0.1,0.3-0.2,0.4c0.1-0.2,0,0-0.1,0.1c-0.1,0.1-0.1,0.1-0.2,0.2
			c0.2-0.1-0.1,0.1-0.2,0.1c-0.2,0.1,0.2,0-0.2,0.1c-0.3,0.1-0.8,0.1-1.1,0.1c-1.1-0.1-2.1-0.6-3.1-1c-0.5-0.2-0.9-0.4-1.3-0.6
			c-0.5-0.3-0.7-0.4-1.1-0.8c-0.2-0.2-0.4-0.5-0.5-0.8c-0.1-0.4-0.1-1,0-1.3c0.1-0.6,0.2-1.2,0.4-1.7c0.1-0.3,0.1-0.1,0-0.1
			c0,0,0.2-0.3,0.1-0.2c-0.1,0.1,0,0,0.1,0c-0.3,0.1,0.2-0.1,0,0c0.1,0,0.2,0,0.1,0c0,0,0.5,0.1,0.2,0c0.3,0.1,0.3,0.1,0.5,0.4
			c0.4,0.4,0.7,0.9,1,1.5c0.4,0.7,1.4,0.9,2.1,0.5C248.1,295.4,248.3,294.5,248,293.8L248,293.8z"/>
	</g>
</g>
<g>
	<g>
		<path class="st0" d="M247.5,292.4c-0.1-0.2-0.1-0.4-0.1-0.6c0,0.1,0,0.3,0.1,0.4c0-0.2,0-0.4,0-0.6c0,0.1,0,0.3-0.1,0.4
			c0-0.1,0.1-0.3,0.1-0.4c-0.1,0.1-0.1,0.2-0.2,0.4c0.1-0.1,0.1-0.2,0.2-0.3c-0.1,0.1-0.2,0.2-0.2,0.3c0.1-0.1,0.2-0.2,0.2-0.2
			c-0.1,0.1-0.2,0.2-0.3,0.2c0.1-0.1,0.2-0.1,0.3-0.2c-0.1,0.1-0.2,0.1-0.4,0.2c0.1,0,0.2-0.1,0.3-0.1c-0.1,0-0.3,0-0.4,0.1
			c0.1,0,0.2,0,0.3,0c-0.1,0-0.3,0-0.4-0.1c0.1,0,0.2,0.1,0.3,0.1c-0.1-0.1-0.2-0.1-0.4-0.2c0.1,0.1,0.2,0.1,0.4,0.2
			c-0.1-0.1-0.2-0.2-0.3-0.2c0.1,0.1,0.2,0.2,0.3,0.3c-0.1-0.1-0.2-0.2-0.2-0.3c0.2,0.3,0.3,0.5,0.5,0.8c-0.1-0.1-0.1-0.2-0.2-0.4
			c0.1,0.1,0.1,0.2,0.1,0.4c0,0.2,0.1,0.4,0.3,0.5c0.1,0.2,0.2,0.3,0.4,0.4c0.3,0.2,0.8,0.3,1.2,0.2c0.4-0.1,0.7-0.3,0.9-0.7
			c0.2-0.3,0.3-0.8,0.2-1.2c-0.2-0.5-0.4-1.1-0.7-1.5c-0.2-0.3-0.5-0.6-0.8-0.8c-0.3-0.2-0.6-0.4-1-0.5c-0.3-0.1-0.6-0.1-0.9-0.1
			c-0.4,0-0.8,0.1-1.2,0.4c-0.6,0.4-1.1,1-1.3,1.7c-0.2,0.8-0.1,1.6,0.1,2.3c0.1,0.4,0.4,0.7,0.7,0.9c0.3,0.2,0.8,0.3,1.2,0.2
			c0.4-0.1,0.7-0.3,0.9-0.7C247.6,293.2,247.6,292.8,247.5,292.4L247.5,292.4z"/>
	</g>
</g>
</svg>
