<?xml version="1.0" encoding="utf-8"?>
<!-- Generator: Adobe Illustrator 25.0.0, SVG Export Plug-In . SVG Version: 6.00 Build 0)  -->
<svg version="1.1" id="人物" xmlns="http://www.w3.org/2000/svg" xmlns:xlink="http://www.w3.org/1999/xlink" x="0px" y="0px"
	 viewBox="0 0 44 44" style="enable-background:new 0 0 44 44;" xml:space="preserve">
<style type="text/css">
	.st0{fill:#8C8C8C;}
	.st1{fill:#D88A4B;}
	.st2{fill:#A45E29;}
	.st3{fill:#D0BFAD;}
	.st4{fill:#F2E7DD;}
	.st5{fill:#544B47;}
	.st6{fill:#E5D5C5;}
	.st7{fill:#E0A469;}
	.st8{fill:#CB783C;}
	.st9{fill:#383532;}
	.st10{fill:#FFFFFF;}
	.st11{fill:#24211F;}
	.st12{fill:#263C5B;}
	.st13{fill:#5F554E;}
	.st14{fill:#B65E43;}
	.st15{fill:#CB3E54;}
	.st16{fill:#096A52;}
	.st17{fill:#F7E7D6;}
	.st18{fill:#005944;}
	.st19{opacity:0.72;fill:#323333;}
	.st20{fill:#DC6897;}
	.st21{fill:#63AD9B;}
	.st22{fill:#595757;}
	.st23{fill:#004B37;}
	.st24{fill:#DD6860;}
	.st25{fill:#AA9ABF;}
	.st26{fill:#F0C9BE;}
	.st27{fill:#F6F6F6;}
	.st28{fill:#717071;}
	.st29{fill:#595757;stroke:#3E3A39;stroke-width:0.75;stroke-miterlimit:10;}
	.st30{fill:#3D3A39;stroke:#3E3A39;stroke-width:0.75;stroke-miterlimit:10;}
	.st31{fill:#A9C5BF;}
	.st32{fill:#E5A190;}
	.st33{fill:#F6E272;}
	.st34{fill:#595757;stroke:#3D3A39;stroke-width:0.75;stroke-miterlimit:10;}
	.st35{fill:#3D3A39;stroke:#3D3939;stroke-miterlimit:10;}
	.st36{opacity:0.8;fill:#463266;}
	.st37{fill:none;stroke:#F0867A;stroke-linecap:round;stroke-miterlimit:10;}
	.st38{fill:#FFF0F3;}
	.st39{fill:#B7B1B6;}
	.st40{fill:#3D3A39;}
	.st41{fill:#6CB1D0;}
	.st42{fill:#F8D4D9;}
	.st43{clip-path:url(#XMLID_3_);fill:#6CB1D0;}
	.st44{fill:#BFDDC0;}
	.st45{fill:#9FBF7D;}
	.st46{fill:#9EBF7D;}
	.st47{clip-path:url(#XMLID_4_);fill:none;stroke:#688723;stroke-width:2;stroke-linecap:round;stroke-miterlimit:10;}
	.st48{clip-path:url(#XMLID_4_);fill:#67A85A;}
	.st49{fill:#4F4539;}
	.st50{fill:none;stroke:#688723;stroke-linecap:round;stroke-miterlimit:10;}
	.st51{fill:#E8B7CF;}
	.st52{opacity:0.8;fill:#BDFF9F;}
	.st53{opacity:0.3;}
	.st54{fill:#3D3A39;stroke:#3D3939;stroke-width:0.1253;stroke-miterlimit:10;}
	.st55{fill:none;stroke:#F0867A;stroke-width:0.1253;stroke-linecap:round;stroke-miterlimit:10;}
</style>
<g>
	<path class="st52" d="M22.4,44c-5.8,0-10.8-1.8-14.2-5c-2.1-0.8-3.6-2.5-4.2-4.7c-0.2-0.9-0.3-1.8-0.2-2.6
		c-0.1-0.2-0.1-0.4-0.2-0.6c-0.4-1.1-0.6-2.3-0.8-3l-0.4-0.8c-0.8-0.7-1.5-1.7-1.9-2.8c-2-5.3,1.3-13,8-18.4
		c0.1-0.5,0.3-0.9,0.5-1.4c1.3-2.9,3.7-4.4,6.6-4.4c1.2,0,2.3,0.2,3.3,0.5C21.1,0.3,23.2,0,25.3,0c6.9,0,12.5,2.9,14.2,7.4
		c0.2,0.6,0.4,1.3,0.5,2c2.1,3.4,5.1,9.5,3.7,15.8c-0.1,1.5-0.7,3-1,3.9c-0.3,1.1-0.7,2.1-1.2,3.1c0,0.6-0.1,1.3-0.2,2
		c-0.6,2.4-2.3,4.2-4.5,4.8C33.3,42.2,28.3,44,22.4,44L22.4,44L22.4,44z"/>
	<path class="st53" d="M35.3,10.7c0.1-0.5,0.1-1.1-0.1-1.6c-1.7-4.5-10.5-5.4-16.8-3.3c-0.3-0.4-1-0.9-2.7-0.9
		c-1.1,0-1.9,0.5-2.5,1.8c0,0.1-0.5,1.2-0.4,1.9c-6.3,4.4-9.2,11-8,14.3c0.3,0.7,0.7,1.1,1.2,1.4l1.2,2.4l0,0.2
		c0,0.1,0.3,1.7,0.7,2.8c0.2,0.7,0.4,1.3,0.6,2c-0.2,0.2-0.4,0.7-0.2,1.4c0.3,1.2,1.3,1.7,2.1,1.7c2.5,3,6.6,4.6,11.8,4.6
		c0,0,0.1,0,0.1,0c5.2,0,9.6-1.7,12-4.7c0.4,0.1,0.8,0,1.2-0.2c0.4-0.2,0.9-0.6,1.1-1.5c0.1-0.6,0.1-1-0.1-1.3
		c0-0.1-0.1-0.1-0.1-0.2c0-0.1,0.1-0.1,0.1-0.1c0.8-1.1,1.3-2.4,1.6-3.7l0,0c0-0.1,0.8-1.9,0.8-3.2C40.6,18.7,36.5,12.3,35.3,10.7z"
		/>
	<g id="武松頭">
		<g>
			<path class="st17" d="M10,31.9c0,0-1.4-0.4-1,1.1c0.4,1.5,1.8,1.6,2.3,1.1C11.7,33.6,10,31.9,10,31.9z"/>
			<path class="st17" d="M35.3,31.8c0,0,1.4-0.4,1,1.1c-0.4,1.5-1.8,1.6-2.3,1.1C33.6,33.6,35.3,31.8,35.3,31.8z"/>
			<path class="st17" d="M36.4,26.9c0.6,8-6,12-13.9,12c-8,0-13.9-3.7-14-11.9c0-7,6.2-12.7,13.9-12.7C30.1,14.3,35.9,20,36.4,26.9z
				"/>
		</g>
		<g>
			<path class="st21" d="M15.7,14.9c0,0-2.3-2.7-1.8-5.1C12.3,11.2,12,13.9,15.7,14.9z"/>
			<path class="st21" d="M35.5,32.2c-0.1,0.1-0.5,0.3-0.8,0.3c-1.6,0-3.3-0.7-7.7-4.7c-3.9,4.2-14.7,4.7-17,4.7
				c-0.2,0-0.5-0.1-0.6-0.2c-0.1-0.1-0.2-0.4-0.2-0.5C7.3,26.6,6.1,17,15,14.3c14.3-10.2,28.2,7,21.3,16.8
				C36.1,31.3,35.6,32,35.5,32.2z"/>
			<path class="st21" d="M27,27.2c0-0.1-0.1-0.2-0.1-0.2l-0.1,0c0,0,0,0,0,0l0,0v0v0l0,0c0,0,0,0.1,0.1,0.2L27,27.2l-0.1,0.4
				l-1.2,2.3c0,0,0,0-0.1,0.1l0,0v0l0,0l0,0c0.7-0.5,1-1.4,1.2-2l0.1,2.4c0,0,0,0.1,0,0.1l0,0v0c0,0,0,0,0,0l0,0
				c0.4-0.8,0.2-2.1,0-2.9l1,2.2c0,0,0,0,0,0.1l0,0l0,0l0,0l0,0C28.4,29.3,27.4,27.7,27,27.2z"/>
		</g>
		<ellipse class="st54" cx="15.6" cy="34.2" rx="0.4" ry="0.4"/>
		<ellipse class="st54" cx="29.6" cy="34.2" rx="0.4" ry="0.4"/>
		<path class="st55" d="M20.6,35.4c1.3,0.5,3,0.5,4.5,0"/>
		<g>
			<path class="st18" d="M34.7,9.2c-1.4-3.7-9.9-6-18.2-2.1S3.9,19.1,5.3,22.7s6.8-1.1,15.1-5S36.2,12.9,34.7,9.2z"/>
			<path class="st16" d="M7.9,26.8l-1.7-3.2l14.2-7.9l14.1-5.1c0,0,5.7,7.3,4,14C33.1,22.6,15.1,21.1,7.9,26.8z"/>
			<g>
				<path class="st18" d="M7.8,26.8c0,0,5.1-6,14.1-6.7c9-0.7,15.1,2.3,16.7,4.3c0,1.2-0.8,3.1-0.8,3.1s-14.3-9-29.3,2.1
					C8.1,28.4,7.8,26.8,7.8,26.8z"/>
			</g>
			<path class="st16" d="M18.1,6.4c0,0.9-3.6,2.1-4.4,2.3c-0.6,0.2-0.4-1.1,0-1.8c0.5-1.2,1.2-1.5,2-1.5S18.1,5.5,18.1,6.4z"/>
			<path class="st23" d="M26.1,17.3c0,0,1.4,4.3,1.3,6.8s-1,0.7-1,0.7l-0.8,0.6c0,0-0.5,0.3-0.3-1.6C25.7,21.8,26.1,17.7,26.1,17.3z
				"/>
			<ellipse class="st10" cx="26.4" cy="23.1" rx="0.4" ry="0.4"/>
		</g>
	</g>
</g>
</svg>
