<?xml version="1.0" encoding="utf-8"?>
<!-- Generator: Adobe Illustrator 24.3.0, SVG Export Plug-In . SVG Version: 6.00 Build 0)  -->
<svg version="1.1" id="bg" xmlns="http://www.w3.org/2000/svg" xmlns:xlink="http://www.w3.org/1999/xlink" x="0px" y="0px"
	 viewBox="0 0 1000 1024" style="enable-background:new 0 0 1000 1024;" xml:space="preserve">
<style type="text/css">
	.st0{clip-path:url(#SVGID_2_);}
	.st1{fill:#E6E3DA;}
	.st2{clip-path:url(#XMLID_5_);fill:url(#天空_1_);}
	.st3{opacity:0.4;clip-path:url(#XMLID_5_);}
	.st4{fill:#6CD0DD;}
	.st5{fill:#54B2DD;}
	.st6{fill:#0098DD;}
	.st7{fill:#C8FF7A;}
	.st8{fill:#0090DD;}
	.st9{fill:#007BB3;}
	.st10{fill:#2BACD8;}
	.st11{clip-path:url(#XMLID_5_);}
	.st12{opacity:0.3;fill:url(#SVGID_3_);}
	.st13{opacity:0.3;fill:url(#SVGID_4_);}
	.st14{opacity:0.2;fill:url(#SVGID_5_);}
	.st15{opacity:0.6;fill:url(#SVGID_6_);}
	.st16{opacity:0.4;fill:url(#SVGID_7_);}
	.st17{fill:url(#地板_2_);}
	.st18{fill:url(#SVGID_8_);}
	.st19{fill:url(#SVGID_9_);}
	.st20{fill:#231A17;}
	.st21{fill:#616161;}
	.st22{fill:#212121;}
	.st23{opacity:0.3;fill:#7A51BC;}
	.st24{fill:#FFF8E6;}
	.st25{fill:#C94926;}
	.st26{opacity:0.2;fill:#7A51BC;}
	.st27{fill:#9BC781;}
	.st28{opacity:0.4;fill:url(#SVGID_10_);}
	.st29{opacity:0.4;fill:url(#SVGID_11_);}
	.st30{opacity:0.3;}
	.st31{fill:url(#SVGID_12_);}
	.st32{fill:#ED8E00;}
	.st33{fill:#DE6D21;}
	.st34{fill:#827063;}
	.st35{fill:#4C3E36;}
	.st36{fill:#C75232;}
	.st37{opacity:0.4;fill:#7A51BC;}
</style>
<g>
	<defs>
		<rect id="SVGID_1_" width="1000" height="1024"/>
	</defs>
	<clipPath id="SVGID_2_">
		<use xlink:href="#SVGID_1_"  style="overflow:visible;"/>
	</clipPath>
	<g id="牆壁" class="st0">
		<rect id="天空" x="-12" y="-2.2" class="st1" width="1024" height="434.2"/>
	</g>
	<g id="窗外天空" class="st0">
		<defs>
			<path id="XMLID_2_" d="M173.3,354.6H-58.7c-5.5,0-10-4.7-10-10.5V-3.8c0-5.8,4.5-10.5,10-10.5h232.1c5.5,0,10,4.7,10,10.5V344
				C183.3,349.9,178.8,354.6,173.3,354.6z M759-14.3H241c-5.5,0-10,4.5-10,10v348.9c0,5.5,4.5,10,10,10H759c5.5,0,10-4.5,10-10V-4.3
				C769-9.8,764.5-14.3,759-14.3z M1058.7-14.3H826.7c-5.5,0-10,4.7-10,10.5V344c0,5.8,4.5,10.5,10,10.5h232.1c5.5,0,10-4.7,10-10.5
				V-3.8C1068.7-9.6,1064.3-14.3,1058.7-14.3z"/>
		</defs>
		<clipPath id="XMLID_5_">
			<use xlink:href="#XMLID_2_"  style="overflow:visible;"/>
		</clipPath>
		<linearGradient id="天空_1_" gradientUnits="userSpaceOnUse" x1="500" y1="-17.6957" x2="500" y2="423.2383">
			<stop  offset="0" style="stop-color:#0098DD"/>
			<stop  offset="0.1129" style="stop-color:#099CDB"/>
			<stop  offset="0.2971" style="stop-color:#21A6D4"/>
			<stop  offset="0.5296" style="stop-color:#49B7CA"/>
			<stop  offset="0.7986" style="stop-color:#80CFBB"/>
			<stop  offset="1" style="stop-color:#ADE2AF"/>
		</linearGradient>
		<rect id="天空_2_" x="-12" y="-17.7" class="st2" width="1024" height="440.9"/>
		<g id="樓" class="st3">
			<g>
				<g>
					<polygon class="st4" points="280.6,170.2 372.8,170.2 400.2,136.1 307.9,136.1 					"/>
					<rect x="280.6" y="170.2" class="st5" width="92.3" height="323.3"/>
					<polygon class="st6" points="372.8,170.2 372.8,493.5 426.9,493.5 426.9,170.2 400.2,136.1 					"/>
				</g>
				<g>
					<rect x="395.2" y="169.6" class="st7" width="12" height="28.3"/>
					<rect x="395.2" y="227.3" class="st7" width="12" height="28.3"/>
					<rect x="395.2" y="284.9" class="st7" width="12" height="28.4"/>
					<rect x="395.2" y="342.5" class="st7" width="12" height="28.3"/>
					<rect x="395.2" y="400.2" class="st7" width="12" height="28.3"/>
					<rect x="395.2" y="457.8" class="st7" width="12" height="28.3"/>
				</g>
			</g>
			<g>
				<g>
					<polygon class="st5" points="719.4,227.7 719.4,493.5 808.9,493.5 808.9,227.7 786.9,222 					"/>
					<polygon class="st6" points="808.9,227.7 808.9,493.5 865.7,493.5 865.7,227.7 837.7,200.1 					"/>
					<polygon class="st8" points="719.4,227.7 728.2,227.7 808.9,227.7 837.7,200.1 748.5,200.1 					"/>
				</g>
				<g>
					<rect x="827.2" y="243" class="st7" width="22.7" height="29.4"/>
					<rect x="827.2" y="291.9" class="st7" width="22.7" height="29.4"/>
					<rect x="827.2" y="340.7" class="st7" width="22.7" height="29.4"/>
					<rect x="827.2" y="389.6" class="st7" width="22.7" height="29.4"/>
					<rect x="827.2" y="438.5" class="st7" width="22.7" height="29.4"/>
				</g>
				<g>
					<rect x="772.3" y="243" class="st6" width="22.7" height="29.4"/>
					<rect x="772.3" y="291.9" class="st6" width="22.7" height="29.4"/>
					<rect x="772.3" y="340.7" class="st6" width="22.7" height="29.4"/>
					<rect x="772.3" y="389.6" class="st6" width="22.7" height="29.4"/>
					<rect x="772.3" y="438.5" class="st6" width="22.7" height="29.4"/>
				</g>
				<g>
					<g>
						<rect x="732.7" y="243" class="st7" width="22.7" height="29.4"/>
					</g>
					<g>
						<rect x="732.7" y="291.9" class="st7" width="22.7" height="29.4"/>
					</g>
					<g>
						<rect x="732.7" y="340.7" class="st7" width="22.7" height="29.4"/>
					</g>
					<g>
						<rect x="732.7" y="389.6" class="st6" width="22.7" height="29.4"/>
					</g>
					<g>
						<rect x="732.7" y="438.5" class="st6" width="22.7" height="29.4"/>
					</g>
				</g>
			</g>
			<g>
				<g>
					<rect x="468.3" y="225.5" class="st6" width="104.9" height="268"/>
					<rect x="426.9" y="225.5" class="st9" width="104.9" height="268"/>
				</g>
				<g>
					<rect x="440.4" y="246.9" class="st6" width="32.8" height="9"/>
					<rect x="488" y="246.9" class="st6" width="32.8" height="9"/>
					<rect x="440.4" y="258.8" class="st6" width="32.8" height="9"/>
					<rect x="488" y="258.8" class="st6" width="32.8" height="9"/>
					<rect x="440.4" y="270.7" class="st6" width="32.8" height="9"/>
					<rect x="488" y="270.7" class="st6" width="32.8" height="9"/>
					<rect x="440.4" y="282.5" class="st6" width="32.8" height="9"/>
					<rect x="488" y="282.5" class="st6" width="32.8" height="9"/>
					<rect x="440.4" y="294.4" class="st6" width="32.8" height="9"/>
					<rect x="488" y="294.4" class="st6" width="32.8" height="9"/>
					<polygon class="st6" points="464.4,306.3 440.5,306.3 440.5,315.2 464.4,315.2 468.1,315.2 473.2,315.2 473.2,306.3 
						468.1,306.3 					"/>
					<polygon class="st6" points="512.2,306.3 488,306.3 488,315.2 512.2,315.2 516.6,315.2 520.9,315.2 520.9,306.3 516.6,306.3 
											"/>
					<polygon class="st6" points="464.4,318.1 440.5,318.1 440.5,327.1 464.4,327.1 468.1,327.1 473.2,327.1 473.2,318.1 
						468.1,318.1 					"/>
					<polygon class="st6" points="512.2,318.1 488,318.1 488,327.1 512.2,327.1 516.6,327.1 520.9,327.1 520.9,318.1 516.6,318.1 
											"/>
					<polygon class="st6" points="464.4,330 440.5,330 440.5,339 464.4,339 468.1,339 473.2,339 473.2,330 468.1,330 					"/>
					<polygon class="st6" points="512.2,330 488,330 488,339 512.2,339 516.6,339 520.9,339 520.9,330 516.6,330 					"/>
					<polygon class="st6" points="464.4,341.9 440.5,341.9 440.5,350.8 464.4,350.8 468.1,350.8 473.2,350.8 473.2,341.9 
						468.1,341.9 					"/>
					<polygon class="st6" points="512.2,341.9 488,341.9 488,350.8 512.2,350.8 516.6,350.8 520.9,350.8 520.9,341.9 516.6,341.9 
											"/>
					<polygon class="st6" points="464.4,353.7 440.5,353.7 440.5,362.7 464.4,362.7 468.1,362.7 473.2,362.7 473.2,353.7 
						468.1,353.7 					"/>
					<polygon class="st6" points="512.2,353.7 488,353.7 488,362.7 512.2,362.7 516.6,362.7 520.9,362.7 520.9,353.7 516.6,353.7 
											"/>
					<polygon class="st6" points="464.4,365.6 440.5,365.6 440.5,374.6 464.4,374.6 468.1,374.6 473.2,374.6 473.2,365.6 
						468.1,365.6 					"/>
					<polygon class="st6" points="512.2,365.6 488,365.6 488,374.6 512.2,374.6 516.6,374.6 520.9,374.6 520.9,365.6 516.6,365.6 
											"/>
					<polygon class="st6" points="464.4,377.5 440.5,377.5 440.5,386.4 464.4,386.4 468.1,386.4 473.2,386.4 473.2,377.5 
						468.1,377.5 					"/>
					<polygon class="st6" points="512.2,377.5 488,377.5 488,386.4 512.2,386.4 516.6,386.4 520.9,386.4 520.9,377.5 516.6,377.5 
											"/>
					<polygon class="st6" points="464.4,389.3 440.5,389.3 440.5,398.3 464.4,398.3 468.1,398.3 473.2,398.3 473.2,389.3 
						468.1,389.3 					"/>
					<polygon class="st6" points="512.2,389.3 488,389.3 488,398.3 512.2,398.3 516.6,398.3 520.9,398.3 520.9,389.3 516.6,389.3 
											"/>
					<polygon class="st6" points="464.4,401.2 440.5,401.2 440.5,410.2 464.4,410.2 468.1,410.2 473.2,410.2 473.2,401.2 
						468.1,401.2 					"/>
					<polygon class="st6" points="512.2,401.2 488,401.2 488,410.2 512.2,410.2 516.6,410.2 520.9,410.2 520.9,401.2 516.6,401.2 
											"/>
					<polygon class="st6" points="464.4,413.1 440.5,413.1 440.5,422 464.4,422 468.1,422 473.2,422 473.2,413.1 468.1,413.1 					
						"/>
					<polygon class="st6" points="512.2,413.1 488,413.1 488,422 512.2,422 516.6,422 520.9,422 520.9,413.1 516.6,413.1 					"/>
					<polygon class="st6" points="464.4,424.9 440.5,424.9 440.5,433.9 464.4,433.9 468.1,433.9 473.2,433.9 473.2,424.9 
						468.1,424.9 					"/>
					<polygon class="st6" points="512.2,424.9 488,424.9 488,433.9 512.2,433.9 516.6,433.9 520.9,433.9 520.9,424.9 516.6,424.9 
											"/>
					<polygon class="st6" points="464.4,436.8 440.5,436.8 440.5,445.8 464.4,445.8 468.1,445.8 473.2,445.8 473.2,436.8 
						468.1,436.8 					"/>
					<polygon class="st6" points="512.2,436.8 488,436.8 488,445.8 512.2,445.8 516.6,445.8 520.9,445.8 520.9,436.8 516.6,436.8 
											"/>
					<polygon class="st6" points="464.4,448.7 440.5,448.7 440.5,457.6 464.4,457.6 468.1,457.6 473.2,457.6 473.2,448.7 
						468.1,448.7 					"/>
					<polygon class="st6" points="512.2,448.7 488,448.7 488,457.6 512.2,457.6 516.6,457.6 520.9,457.6 520.9,448.7 516.6,448.7 
											"/>
				</g>
				<g>
					<rect x="539.8" y="246.9" class="st6" width="20.6" height="9"/>
					<rect x="539.8" y="258.8" class="st6" width="20.6" height="9"/>
					<rect x="539.8" y="270.7" class="st6" width="20.6" height="9"/>
					<rect x="539.8" y="282.5" class="st6" width="20.6" height="9"/>
					<rect x="539.8" y="294.4" class="st6" width="20.6" height="9"/>
					<rect x="539.8" y="306.3" class="st6" width="20.6" height="9"/>
					<rect x="539.8" y="318.1" class="st6" width="20.6" height="9"/>
					<rect x="539.8" y="330" class="st6" width="20.6" height="9"/>
					<rect x="539.8" y="341.9" class="st6" width="20.6" height="9"/>
					<rect x="539.8" y="353.7" class="st6" width="20.6" height="9"/>
					<rect x="539.8" y="365.6" class="st6" width="20.6" height="9"/>
					<rect x="539.8" y="377.5" class="st6" width="20.6" height="9"/>
					<rect x="539.8" y="389.3" class="st6" width="20.6" height="9"/>
					<rect x="539.8" y="401.2" class="st6" width="20.6" height="9"/>
					<rect x="539.8" y="413.1" class="st6" width="20.6" height="9"/>
					<rect x="539.8" y="424.9" class="st6" width="20.6" height="9"/>
					<rect x="539.8" y="436.8" class="st6" width="20.6" height="9"/>
					<rect x="539.8" y="448.7" class="st6" width="20.6" height="9"/>
				</g>
			</g>
			<g>
				<g>
					<rect x="220.8" y="90" class="st6" width="46.5" height="242.3"/>
					<rect x="147.6" y="90" class="st9" width="73.2" height="242.3"/>
					<g>
						<rect x="147.6" y="100" class="st6" width="73.2" height="11.1"/>
						<rect x="147.6" y="118.8" class="st6" width="73.2" height="11.1"/>
						<rect x="147.6" y="137.6" class="st6" width="73.2" height="11.1"/>
						<rect x="147.6" y="156.5" class="st6" width="73.2" height="11.1"/>
						<rect x="147.6" y="175.3" class="st6" width="73.2" height="11.1"/>
						<rect x="147.6" y="194.2" class="st6" width="73.2" height="11.1"/>
						<rect x="147.6" y="213" class="st6" width="73.2" height="11.1"/>
						<rect x="147.6" y="231.9" class="st6" width="73.2" height="11.1"/>
						<rect x="147.6" y="250.7" class="st6" width="73.2" height="11.1"/>
						<rect x="147.6" y="269.5" class="st6" width="73.2" height="11.1"/>
						<rect x="147.6" y="288.4" class="st6" width="73.2" height="11.1"/>
						<rect x="147.6" y="307.2" class="st6" width="73.2" height="11.1"/>
					</g>
					<g>
						<rect x="220.8" y="100" class="st10" width="46.5" height="11.1"/>
						<rect x="220.8" y="118.8" class="st10" width="46.5" height="11.1"/>
						<rect x="220.8" y="137.6" class="st10" width="46.5" height="11.1"/>
						<rect x="220.8" y="156.5" class="st10" width="46.5" height="11.1"/>
						<rect x="220.8" y="175.3" class="st10" width="46.5" height="11.1"/>
						<rect x="220.8" y="194.2" class="st10" width="46.5" height="11.1"/>
						<rect x="220.8" y="213" class="st10" width="46.5" height="11.1"/>
						<rect x="220.8" y="231.9" class="st10" width="46.5" height="11.1"/>
						<rect x="220.8" y="250.7" class="st10" width="46.5" height="11.1"/>
						<rect x="220.8" y="269.5" class="st10" width="46.5" height="11.1"/>
						<rect x="220.8" y="288.4" class="st10" width="46.5" height="11.1"/>
						<rect x="220.8" y="307.2" class="st10" width="46.5" height="11.1"/>
					</g>
				</g>
				<rect x="223.8" y="260.9" class="st6" width="56.8" height="232.6"/>
				<rect x="134.3" y="260.9" class="st9" width="89.5" height="232.6"/>
				<g>
					<rect x="134.3" y="270.5" class="st6" width="89.5" height="10.7"/>
					<rect x="134.3" y="288.6" class="st6" width="89.5" height="10.7"/>
					<rect x="134.3" y="306.7" class="st6" width="89.5" height="10.7"/>
					<rect x="134.3" y="324.8" class="st6" width="89.5" height="10.7"/>
					<rect x="134.3" y="342.9" class="st6" width="89.5" height="10.7"/>
					<rect x="134.3" y="360.9" class="st6" width="89.5" height="10.7"/>
					<rect x="134.3" y="379" class="st6" width="89.5" height="10.7"/>
					<rect x="134.3" y="397.1" class="st6" width="89.5" height="10.7"/>
					<rect x="134.3" y="415.2" class="st6" width="89.5" height="10.7"/>
					<rect x="134.3" y="433.3" class="st6" width="89.5" height="10.7"/>
					<rect x="134.3" y="451.4" class="st6" width="89.5" height="10.7"/>
					<rect x="134.3" y="469.5" class="st6" width="89.5" height="10.7"/>
				</g>
				<g>
					<rect x="223.8" y="270.5" class="st10" width="56.8" height="10.7"/>
					<rect x="223.8" y="288.6" class="st10" width="56.8" height="10.7"/>
					<rect x="223.8" y="306.7" class="st10" width="56.8" height="10.7"/>
					<rect x="223.8" y="324.8" class="st10" width="56.8" height="10.7"/>
					<rect x="223.8" y="342.9" class="st10" width="56.8" height="10.7"/>
					<rect x="223.8" y="360.9" class="st10" width="56.8" height="10.7"/>
					<rect x="223.8" y="379" class="st10" width="56.8" height="10.7"/>
					<rect x="223.8" y="397.1" class="st10" width="56.8" height="10.7"/>
					<rect x="223.8" y="415.2" class="st10" width="56.8" height="10.7"/>
					<rect x="223.8" y="433.3" class="st10" width="56.8" height="10.7"/>
					<rect x="223.8" y="451.4" class="st10" width="56.8" height="10.7"/>
					<rect x="223.8" y="469.5" class="st10" width="56.8" height="10.7"/>
				</g>
				<g>
					<polygon class="st4" points="186.9,56.7 218.9,90.1 267.3,90.1 231.7,56.7 					"/>
					<g>
						<polygon class="st9" points="147.6,90.1 220.9,90.1 186.9,56.7 						"/>
					</g>
				</g>
			</g>
			<g>
				<g>
					<rect x="659.7" y="117.1" class="st6" width="46.5" height="265.9"/>
					<rect x="586.4" y="117.1" class="st5" width="73.2" height="265.9"/>
					<g>
						<rect x="593.1" y="128.1" class="st6" width="58" height="12.2"/>
						<rect x="593.1" y="148.7" class="st6" width="58" height="12.2"/>
						<rect x="593.1" y="169.4" class="st6" width="58" height="12.2"/>
						<rect x="593.1" y="190.1" class="st6" width="58" height="12.2"/>
						<rect x="593.1" y="210.8" class="st6" width="58" height="12.2"/>
						<rect x="593.1" y="231.4" class="st6" width="58" height="12.2"/>
						<rect x="593.1" y="252.1" class="st6" width="58" height="12.2"/>
						<rect x="593.1" y="272.8" class="st6" width="58" height="12.2"/>
						<rect x="593.1" y="293.5" class="st6" width="58" height="12.2"/>
						<rect x="593.1" y="314.2" class="st6" width="58" height="12.2"/>
						<rect x="593.1" y="334.8" class="st6" width="58" height="12.2"/>
						<rect x="593.1" y="355.5" class="st6" width="58" height="12.2"/>
					</g>
					<g>
						<rect x="667.8" y="128.1" class="st6" width="30.3" height="12.2"/>
						<rect x="667.8" y="148.7" class="st6" width="30.3" height="12.2"/>
						<rect x="667.8" y="169.4" class="st6" width="30.3" height="12.2"/>
						<rect x="667.8" y="190.1" class="st6" width="30.3" height="12.2"/>
						<rect x="667.8" y="210.8" class="st6" width="30.3" height="12.2"/>
						<rect x="667.8" y="231.4" class="st6" width="30.3" height="12.2"/>
						<rect x="667.8" y="252.1" class="st6" width="30.3" height="12.2"/>
						<rect x="667.8" y="272.8" class="st6" width="30.3" height="12.2"/>
						<rect x="667.8" y="293.5" class="st6" width="30.3" height="12.2"/>
						<rect x="667.8" y="314.2" class="st6" width="30.3" height="12.2"/>
						<rect x="667.8" y="334.8" class="st6" width="30.3" height="12.2"/>
						<rect x="667.8" y="355.5" class="st6" width="30.3" height="12.2"/>
					</g>
				</g>
				<rect x="662.6" y="238.3" class="st6" width="56.8" height="255.2"/>
				<rect x="573.1" y="238.3" class="st5" width="89.5" height="255.2"/>
				<g>
					<rect x="580.1" y="248.8" class="st6" width="75.5" height="11.7"/>
					<rect x="580.1" y="268.6" class="st6" width="75.5" height="11.7"/>
					<rect x="580.1" y="288.5" class="st6" width="75.5" height="11.7"/>
					<rect x="580.1" y="308.3" class="st6" width="75.5" height="11.7"/>
					<rect x="580.1" y="328.2" class="st6" width="75.5" height="11.7"/>
					<rect x="580.1" y="348" class="st6" width="75.5" height="11.7"/>
					<rect x="580.1" y="367.9" class="st6" width="75.5" height="11.7"/>
					<rect x="580.1" y="387.7" class="st6" width="75.5" height="11.7"/>
					<rect x="580.1" y="407.6" class="st6" width="75.5" height="11.7"/>
					<rect x="580.1" y="427.4" class="st6" width="75.5" height="11.7"/>
					<rect x="580.1" y="447.3" class="st6" width="75.5" height="11.7"/>
					<rect x="580.1" y="467.1" class="st6" width="75.5" height="11.7"/>
				</g>
				<g>
					<rect x="671.1" y="248.8" class="st6" width="42.3" height="11.7"/>
					<rect x="671.1" y="268.6" class="st6" width="42.3" height="11.7"/>
					<rect x="671.1" y="288.5" class="st6" width="42.3" height="11.7"/>
					<rect x="671.1" y="308.3" class="st6" width="42.3" height="11.7"/>
					<rect x="671.1" y="328.2" class="st6" width="42.3" height="11.7"/>
					<rect x="671.1" y="348" class="st6" width="42.3" height="11.7"/>
					<rect x="671.1" y="367.9" class="st6" width="42.3" height="11.7"/>
					<rect x="671.1" y="387.7" class="st6" width="42.3" height="11.7"/>
					<rect x="671.1" y="407.6" class="st6" width="42.3" height="11.7"/>
					<rect x="671.1" y="427.4" class="st6" width="42.3" height="11.7"/>
					<rect x="671.1" y="447.3" class="st6" width="42.3" height="11.7"/>
					<rect x="671.1" y="467.1" class="st6" width="42.3" height="11.7"/>
				</g>
			</g>
			<g>
				<g>
					<polygon class="st10" points="-12,253.1 -12,493.5 77.5,493.5 77.5,253.1 55.4,247.9 					"/>
					<polygon class="st6" points="77.5,253.1 77.5,493.5 134.3,493.5 134.3,253.1 106.2,228.1 					"/>
					<polygon class="st4" points="-12,253.1 -3.2,253.1 77.5,253.1 106.2,228.1 17.1,228.1 					"/>
				</g>
				<g>
					<rect x="95.8" y="266.9" class="st7" width="22.7" height="26.6"/>
					<rect x="95.8" y="311.1" class="st7" width="22.7" height="26.6"/>
					<rect x="95.8" y="355.4" class="st5" width="22.7" height="26.6"/>
					<rect x="95.8" y="399.6" class="st5" width="22.7" height="26.6"/>
					<rect x="95.8" y="443.8" class="st5" width="22.7" height="26.6"/>
				</g>
				<g>
					<g>
						<rect x="40.9" y="266.9" class="st7" width="22.7" height="26.6"/>
					</g>
					<g>
						<rect x="40.9" y="311.1" class="st7" width="22.7" height="26.6"/>
					</g>
					<g>
						<rect x="40.9" y="355.4" class="st7" width="22.7" height="26.6"/>
					</g>
					<g>
						<rect x="40.9" y="399.6" class="st7" width="22.7" height="26.6"/>
					</g>
					<g>
						<rect x="40.9" y="443.8" class="st7" width="22.7" height="26.6"/>
					</g>
				</g>
				<g>
					<g>
						<rect x="1.3" y="266.9" class="st7" width="22.7" height="26.6"/>
					</g>
					<g>
						<rect x="1.3" y="311.1" class="st7" width="22.7" height="26.6"/>
					</g>
					<g>
						<rect x="1.3" y="355.4" class="st7" width="22.7" height="26.6"/>
					</g>
					<g>
						<rect x="1.3" y="399.6" class="st7" width="22.7" height="26.6"/>
					</g>
					<g>
						<rect x="1.3" y="443.8" class="st7" width="22.7" height="26.6"/>
					</g>
				</g>
			</g>
			<g>
				<rect x="938.3" y="359.7" class="st6" width="73.7" height="133.8"/>
				<polygon class="st10" points="902.1,325.4 865.9,359.7 865.7,359.7 865.7,493.5 940.9,493.5 940.9,359.7 938.4,359.7 				"/>
				<polygon class="st9" points="889.9,452.8 889.9,482.1 889.9,493.5 920.8,493.5 920.8,482.1 920.8,452.8 920.8,441.5 
					889.9,441.5 				"/>
				<g>
					<g>
						<rect x="978.1" y="387.6" class="st6" width="14.4" height="27"/>
						<rect x="959.9" y="387.6" class="st6" width="14.4" height="27"/>
					</g>
				</g>
				<g>
					<g>
						<rect x="907.3" y="387.6" class="st6" width="14.4" height="27"/>
						<rect x="889" y="387.6" class="st6" width="14.4" height="27"/>
					</g>
				</g>
				<g>
					<g>
						<rect x="978.1" y="441.5" class="st6" width="14.4" height="27"/>
						<rect x="959.9" y="441.5" class="st6" width="14.4" height="27"/>
					</g>
				</g>
				<polygon class="st7" points="902.7,320.3 944.9,364.5 1012,364.5 1012,356.6 973.6,320.3 				"/>
				<polygon class="st7" points="865.7,355.3 865.7,359.8 902.1,325.4 943.5,364.5 949.4,364.5 902.7,320.3 				"/>
			</g>
		</g>
		<g id="玻璃" class="st11">
			<linearGradient id="SVGID_3_" gradientUnits="userSpaceOnUse" x1="768.1691" y1="-52.028" x2="288.1883" y2="427.9528">
				<stop  offset="0" style="stop-color:#F4FFDB"/>
				<stop  offset="1" style="stop-color:#F4FFDB;stop-opacity:0.1"/>
			</linearGradient>
			<polygon class="st12" points="326.5,457.1 259.1,389.6 735.3,-86.6 802.8,-19.1 			"/>
			<linearGradient id="SVGID_4_" gradientUnits="userSpaceOnUse" x1="1220.4445" y1="-23.3034" x2="769.4666" y2="427.6745">
				<stop  offset="0" style="stop-color:#F4FFDB"/>
				<stop  offset="1" style="stop-color:#F4FFDB;stop-opacity:0.1"/>
			</linearGradient>
			<polygon class="st13" points="807.5,457.1 740.1,389.6 1187.5,-57.8 1255,9.6 			"/>
			<linearGradient id="SVGID_5_" gradientUnits="userSpaceOnUse" x1="795.1321" y1="37.1941" x2="362.2325" y2="470.0937">
				<stop  offset="0" style="stop-color:#F4FFDB"/>
				<stop  offset="1" style="stop-color:#F4FFDB;stop-opacity:0.1"/>
			</linearGradient>
			<polygon class="st14" points="377.5,477.1 357,455.2 784.8,25.3 805.3,47.2 			"/>
			<linearGradient id="SVGID_6_" gradientUnits="userSpaceOnUse" x1="103.4445" y1="-83.3034" x2="-347.5335" y2="367.6745">
				<stop  offset="0" style="stop-color:#F4FFDB"/>
				<stop  offset="1" style="stop-color:#F4FFDB;stop-opacity:0.1"/>
			</linearGradient>
			<polygon class="st15" points="-309.5,397.1 -376.9,329.6 70.5,-117.8 138,-50.4 			"/>
			<linearGradient id="SVGID_7_" gradientUnits="userSpaceOnUse" x1="178.2682" y1="-40.8673" x2="-273.4103" y2="410.8111">
				<stop  offset="0" style="stop-color:#F4FFDB"/>
				<stop  offset="1" style="stop-color:#F4FFDB;stop-opacity:0.1"/>
			</linearGradient>
			<polygon class="st16" points="-258.5,417.1 -279,395.2 168.5,-52.3 189,-30.4 			"/>
		</g>
	</g>
	<g id="地板_1_" class="st0">
		<linearGradient id="地板_2_" gradientUnits="userSpaceOnUse" x1="500" y1="1024" x2="500" y2="432.0445">
			<stop  offset="0.8921" style="stop-color:#D9BE93"/>
			<stop  offset="1" style="stop-color:#CBD1CA"/>
		</linearGradient>
		<rect id="地板" x="-12" y="432" class="st17" width="1024" height="592"/>
		<linearGradient id="SVGID_8_" gradientUnits="userSpaceOnUse" x1="-65.6095" y1="653.7514" x2="178" y2="653.7514">
			<stop  offset="0" style="stop-color:#E8B25D"/>
			<stop  offset="0.461" style="stop-color:#E7B25A"/>
			<stop  offset="0.7378" style="stop-color:#E2B252"/>
			<stop  offset="0.9658" style="stop-color:#DBB244"/>
			<stop  offset="1" style="stop-color:#D9B241"/>
		</linearGradient>
		<path class="st18" d="M-62,877.5L-12,430l190,2C131.5,422.6-96.9,835.8-62,877.5z"/>
		<linearGradient id="SVGID_9_" gradientUnits="userSpaceOnUse" x1="822" y1="653.7514" x2="1063.2605" y2="653.7514">
			<stop  offset="0" style="stop-color:#E8B25D"/>
			<stop  offset="0.461" style="stop-color:#E7B25A"/>
			<stop  offset="0.7378" style="stop-color:#E2B252"/>
			<stop  offset="0.9658" style="stop-color:#DBB244"/>
			<stop  offset="1" style="stop-color:#D9B241"/>
		</linearGradient>
		<path class="st19" d="M1062,877.5L1012,430l-190,2C862.8,430,1081.8,848.2,1062,877.5z"/>
	</g>
	<g id="吊環" class="st0">
		<g>
			<path class="st20" d="M76.5,181.8c-26.2,0-47.5-21.3-47.5-47.5s21.3-47.5,47.5-47.5s47.5,21.3,47.5,47.5S102.7,181.8,76.5,181.8z
				 M76.5,101.8c-17.9,0-32.5,14.6-32.5,32.5s14.6,32.5,32.5,32.5s32.5-14.6,32.5-32.5S94.4,101.8,76.5,101.8z"/>
		</g>
		<g>
			<path class="st21" d="M76.5,112.5L76.5,112.5c-4.1,0-7.5-3.4-7.5-7.5V-16.8c0-4.1,3.4-7.5,7.5-7.5h0c4.1,0,7.5,3.4,7.5,7.5V105
				C84,109.1,80.6,112.5,76.5,112.5z"/>
		</g>
		<g>
			<path class="st22" d="M184.5,181.8c-26.2,0-47.5-21.3-47.5-47.5s21.3-47.5,47.5-47.5s47.5,21.3,47.5,47.5
				S210.7,181.8,184.5,181.8z M184.5,101.8c-17.9,0-32.5,14.6-32.5,32.5s14.6,32.5,32.5,32.5s32.5-14.6,32.5-32.5
				S202.4,101.8,184.5,101.8z"/>
		</g>
		<g>
			<path class="st21" d="M184.5,112.5L184.5,112.5c-4.1,0-7.5-3.4-7.5-7.5V-16.8c0-4.1,3.4-7.5,7.5-7.5l0,0c4.1,0,7.5,3.4,7.5,7.5
				V105C192,109.1,188.6,112.5,184.5,112.5z"/>
		</g>
	</g>
	<g id="繩子" class="st0">
		<g id="陰影">
			<path class="st23" d="M120,610c-0.1-0.8-0.8-3.3-1.2-4c-0.4-0.7-1.9-2.6-2.6-3.1c-0.6-0.5-2.8-1.7-3.5-1.9
				c-0.8-0.2-11.4,4-11.4,4s-10.3-7.2-19-7.1c-8.7,0-17.5,3.7-26.2,3c-8.6-0.7-16.7-5.6-25.2-6.9c-8.5-1.3-17.7,1.2-26.1-0.6
				c-8.4-1.7-15.9-7.6-24.2-9.7c-8.3-2.1-17.7-0.5-25.9-2.8c-8.2-2.3-15.3-8.6-23.5-11.1c-8.2-2.5-23,23.3-17.8,24.9
				c5.1,1.6,11.3-0.7,16.5,0.8c5.2,1.6,9.4,7,14.7,8.5c5.3,1.5,11.6-0.9,17,0.6c5.4,1.4,9.8,6.7,15.3,8.1c5.4,1.3,11.8-1.3,17.3-0.1
				c5.5,1.2,10.6,4.3,16.2,5.3c5.6,1,11.5,0,17.2,0.8c3.4,0.5,6.7,2,10.2,2.4c3.4,0.4,6.8-0.2,10.3,0.1c3.4,0.3,6.9,2.6,10.3,2.9
				c3.5,0.2,6.8-1.6,10.3-1.5c3.5,0.1,7.2,2.2,10.7,2.3c3.5,0,6.7-2,10.2-2.1c3.5-0.1,11.7-5.5,11.7-5.5s5.7,4.5,9.2,4.2
				c0.8-0.1,3.3-0.8,4-1.2c0.7-0.4,2.6-1.9,3.1-2.6c0.5-0.6,1.7-2.8,1.9-3.5C119.8,613.4,120.1,610.9,120,610z"/>
			<path class="st23" d="M195.9,575c-0.3,0.8-1.7,2.9-2.3,3.5c-0.6,0.6-2.6,1.9-3.3,2.2c-0.7,0.3-3.1,0.8-3.9,0.8
				c-0.8,0-9.8-7.1-9.8-7.1s-11.9,3.9-20.2,1.4c-8.3-2.5-15.7-8.6-24.2-10.4c-8.4-1.8-17.6,0.6-26.1-0.7c-8.5-1.2-16.6-6.2-25.1-7
				c-8.6-0.8-17.4,2.7-26,2.3c-8.6-0.4-17.1-4.6-25.7-4.8c-8.6-0.1-17.2,3.9-25.7,3.9c-8.6,0-17.2-3.9-25.7-3.8
				c-8.9,0.1-8.8-20.9-0.2-21c5.3-0.1,10.6-4.1,16-4.1c5.3,0,10.7,3.9,16,3.9c5.5,0,11-4,16.5-3.9c5.5,0.1,10.9,4.2,16.4,4.3
				c5.6,0.2,11.4-3.6,17-3.3c5.6,0.3,10.9,4.6,16.5,5.1c5.7,0.4,11.4-1,17.1-0.4c5.6,0.6,11.1,3.3,16.7,4.2c3.4,0.5,7,0.1,10.4,0.6
				c3.4,0.6,6.5,2.2,9.9,2.8c3.4,0.7,7.3-0.5,10.7,0.2c3.4,0.8,6.1,3.5,9.5,4.4c3.4,0.9,7.5-0.1,10.9,0.9c3.3,1,5.8,3.9,9.1,4.9
				c3.3,1.1,9.7,8.6,9.7,8.6s6.8-2.7,10-1.4c0.8,0.3,2.9,1.7,3.5,2.3c0.6,0.6,1.9,2.6,2.2,3.3c0.3,0.7,0.8,3.1,0.8,3.9
				C196.7,571.7,196.2,574.2,195.9,575z"/>
		</g>
		<g id="下">
			<path class="st24" d="M138.3,602.9l-0.6-1.1c-0.2-0.3-0.4-0.4-0.8-0.4l-8.3,0.6c-0.9,0.1-1.2-1.1-0.4-1.5l6-3.2
				c0.4-0.2,0.5-0.7,0.3-1.1l-2.4-4.3c-0.2-0.3-0.5-0.5-0.8-0.4l-6,1.1c-0.8,0.2-1.3-0.9-0.6-1.4l4.4-3.1c0.3-0.2,0.4-0.7,0.2-1
				l-1-1.8c-0.2-0.4-0.7-0.5-1-0.3l-6,2.8c-0.8,0.4-1.5-0.6-0.9-1.3l5-5.5c0.2-0.3,0.3-0.6,0.1-0.9l-0.1-0.2
				c-0.3-0.5-0.9-0.5-1.3-0.2L112.6,591c-0.1,0.1-0.2,0.3-0.2,0.6c-3.2,1-9.7,3.6-9.7,3.6s-10.3-7.2-19-7.1c-8.7,0-17.5,3.7-26.2,3
				c-8.6-0.7-16.7-5.6-25.2-6.9c-8.5-1.3-17.7,1.2-26.1-0.6c-8.4-1.7-15.9-7.6-24.2-9.7s-17.7-0.5-25.9-2.8
				c-8.2-2.3-15.3-8.6-23.5-11.1c-8.2-2.5-23,23.3-17.8,24.9c5.1,1.6,11.3-0.7,16.5,0.8c5.2,1.6,9.4,7,14.7,8.5
				c5.3,1.5,11.6-0.9,17,0.6c5.4,1.4,9.8,6.7,15.3,8.1c5.4,1.3,11.8-1.3,17.3-0.1c5.5,1.2,10.6,4.3,16.2,5.3c5.6,1,11.5,0,17.2,0.8
				c3.4,0.5,6.7,2,10.2,2.4c3.4,0.4,6.8-0.2,10.3,0.1c3.4,0.3,6.9,2.6,10.3,2.9c3.5,0.2,6.8-1.6,10.3-1.5c3.5,0.1,7.2,2.2,10.7,2.3
				c3.5,0,6.7-2,10.2-2.1c3.5-0.1,11.7-5.5,11.7-5.5s3.7,3.5,7.2,3.2c0.8-0.1,3.3-0.8,4-1.2c0.3-0.2,3,0.4,3.6-0.1
				c0.1,0,0.2,0,0.2,0l19.8-5.2C138.2,604.1,138.6,603.4,138.3,602.9z"/>
			<g>
				<path class="st25" d="M102.3,610.9c0.6-5.8,0-16-1-17.8l6.1-3.5c2.6,4.5,2.3,18.6,2,22L102.3,610.9z"/>
			</g>
		</g>
		<g id="上">
			<path class="st24" d="M210.5,558.4l-16.9-5.8c-0.8-0.5-1.6-1-2.1-1.2c-3.3-1.3-10,1.4-10,1.4s-6.3-7.5-9.7-8.6
				c-3.3-1.1-5.8-4-9.1-4.9c-3.4-1-7.5,0-10.9-0.9c-3.4-0.9-6.1-3.6-9.5-4.4c-3.4-0.8-7.3,0.4-10.7-0.2c-3.4-0.7-6.5-2.3-9.9-2.8
				c-3.4-0.6-7-0.1-10.4-0.6c-5.6-0.8-11.1-3.5-16.7-4.2c-5.7-0.6-11.4,0.9-17.1,0.4c-5.6-0.4-11-4.8-16.5-5.1
				c-5.6-0.3-11.4,3.5-17,3.3c-5.5-0.2-10.9-4.3-16.4-4.3c-5.5-0.1-11.1,3.9-16.5,3.9c-5.4,0-10.7-4-16-3.9c-5.4,0-10.7,4.1-16,4.1
				c-8.6,0.1-8.7,21.1,0.2,21c8.5-0.1,17.1,3.8,25.7,3.8c8.5,0,17.1-4,25.7-3.9c8.6,0.1,17.1,4.4,25.7,4.8s17.4-3,26-2.3
				c8.6,0.8,16.6,5.7,25.1,7c8.5,1.2,17.7-1.2,26.1,0.7c8.5,1.8,15.9,7.9,24.2,10.4c8.2,2.5,20.2-1.4,20.2-1.4s3.7,3,6.6,5.1
				c0,0,0,0,0,0l10.5,12.2c0.3,0.4,1,0.4,1.3-0.1l0.1-0.2c0.2-0.3,0.2-0.7,0-0.9l-4.5-5.9c-0.5-0.7,0.3-1.6,1-1.2l5.8,3.3
				c0.4,0.2,0.8,0.1,1.1-0.3l1.2-1.7c0.2-0.3,0.2-0.8-0.2-1.1l-4.2-3.4c-0.7-0.5-0.1-1.6,0.7-1.4l5.9,1.5c0.3,0.1,0.7,0,0.9-0.3
				l2.8-4.1c0.2-0.4,0.1-0.9-0.2-1.1l-5.8-3.6c-0.7-0.5-0.3-1.6,0.5-1.5l8.2,1.2c0.3,0,0.6-0.1,0.8-0.3l0.7-1
				C211.4,559.2,211.1,558.5,210.5,558.4z"/>
			<g>
				<path class="st25" d="M181.6,570.7l-5.5-4.3c1.3-1.7,3.3-11.7,3.6-17.5l7,0.3C186.5,552.5,184.8,566.5,181.6,570.7z"/>
			</g>
		</g>
	</g>
	<g id="舉重_1_" class="st0">
		<path id="地墊陰影" class="st26" d="M1028.4,586.1H476.8c-19.3,0-32.9-19.6-27.1-38.8c7.3-24.5,17.2-48.9,29.2-73
			c1.7-3.4,5.2-5.6,9-5.6l540.5,0V586.1z"/>
		<path id="地墊" class="st27" d="M1029.4,578.1H477.8c-19.3,0-32.9-19.6-27.1-38.8c7.3-24.5,17.2-48.9,29.2-73
			c1.7-3.4,5.2-5.6,9-5.6l540.5,0V578.1z"/>
		<g id="陰影_1_">
			<linearGradient id="SVGID_10_" gradientUnits="userSpaceOnUse" x1="881.0884" y1="558.3599" x2="881.0884" y2="525.4688">
				<stop  offset="0" style="stop-color:#7A51BC;stop-opacity:0"/>
				<stop  offset="1" style="stop-color:#7A51BC"/>
			</linearGradient>
			<polygon class="st28" points="906.6,558.4 874.5,558.4 855.5,525.5 876.6,525.5 			"/>
			<linearGradient id="SVGID_11_" gradientUnits="userSpaceOnUse" x1="561.1287" y1="558.3599" x2="561.1287" y2="525.4688">
				<stop  offset="0" style="stop-color:#7A51BC;stop-opacity:0"/>
				<stop  offset="1" style="stop-color:#7A51BC"/>
			</linearGradient>
			<polygon class="st29" points="586.7,558.4 554.6,558.4 535.6,525.5 556.7,525.5 			"/>
			<g class="st30">
				<linearGradient id="SVGID_12_" gradientUnits="userSpaceOnUse" x1="726.2209" y1="566.8498" x2="726.2209" y2="514.8856">
					<stop  offset="0" style="stop-color:#7A51BC;stop-opacity:0"/>
					<stop  offset="1" style="stop-color:#7A51BC"/>
				</linearGradient>
				<path class="st31" d="M683.7,566.4c-0.3-0.2-0.5-0.2-0.6-0.6c-0.1-0.3,0.1-0.4,0-0.8c-0.1-0.3-0.2-0.3-0.3-0.6
					c-0.1-0.3-0.1-0.3-0.3-0.7c-0.1-0.3-0.4-0.2-0.5-0.6c-0.1-0.3,0.2-0.5,0.1-0.8c-0.1-0.3,0.2-0.5,0.1-0.8c-0.1-0.3-0.9,0-1.1-0.3
					c-0.1-0.3,0.6-0.6,0.5-1c-0.1-0.3-0.1-0.3-0.3-0.7c-0.1-0.3,0-0.4-0.2-0.7c-0.1-0.3-0.6-0.2-0.7-0.5c-0.1-0.3-0.4-0.2-0.6-0.5
					c-0.1-0.3,0.2-0.5,0.1-0.8c-0.1-0.3-0.1-0.4-0.2-0.7c-0.1-0.3-0.6-0.1-0.7-0.5c-0.1-0.3,0.6-0.6,0.4-1c-0.1-0.3-0.2-0.3-0.4-0.6
					c-0.1-0.3-0.6-0.1-0.8-0.5c-0.1-0.3-0.1-0.4-0.2-0.7c-0.1-0.3-0.2-0.3-0.3-0.6c-0.1-0.3,0.2-0.5,0.1-0.8c-0.1-0.3,0.1-0.4,0-0.8
					c-0.1-0.3-0.6-0.1-0.7-0.5c-0.1-0.3-0.2-0.3-0.4-0.6c-0.1-0.3-0.3-0.3-0.4-0.6c-0.1-0.3,0.6-0.6,0.5-1c-0.1-0.3-1,0-1.2-0.3
					c-0.1-0.3,0.1-0.4-0.1-0.7c-0.1-0.3,0.5-0.6,0.4-0.9c-0.1-0.3-0.9,0-1-0.3c-0.1-0.3,0.6-0.7,0.5-1c-0.1-0.3-0.7-0.1-0.8-0.4
					c-0.1-0.3,0-0.4-0.1-0.7c-0.1-0.3,0.2-0.5,0.1-0.8c-0.1-0.3-0.8-0.1-0.9-0.4c-0.1-0.3,0.1-0.5,0-0.8c-0.1-0.3,0.2-0.5,0.1-0.8
					c-0.1-0.3-0.7-0.1-0.8-0.4c-0.1-0.3-0.2-0.3-0.4-0.6c-0.1-0.3,0.1-0.4,0-0.8c-0.1-0.3-0.1-0.4-0.2-0.7c-0.1-0.3-0.2-0.3-0.3-0.6
					c-0.1-0.3,0.2-0.5,0.1-0.8c-0.1-0.3-0.2-0.3-0.4-0.6c-0.1-0.3-0.7-0.1-0.8-0.4c-0.1-0.3-0.2-0.3-0.3-0.6
					c-0.1-0.3-0.1-0.4-0.2-0.7c-0.1-0.3,0.1-0.4-0.1-0.8c-0.1-0.3,0.2-0.5,0.1-0.8c-0.1-0.3-0.4-0.2-0.5-0.6
					c-0.1-0.3-0.3-0.3-0.5-0.6c-0.1-0.3,0.3-0.5,0.1-0.8s-0.5-0.2-0.6-0.5c-0.1-0.3-0.2-0.3-0.3-0.6c-0.1-0.3-0.4-0.2-0.6-0.5
					c-0.1-0.3-0.1-0.4-0.2-0.7c-0.1-0.3,0.1-0.4-0.1-0.8c-0.1-0.3-0.4-0.2-0.5-0.6c-0.1-0.3,0.2-0.5,0.1-0.8
					c-0.1-0.3-0.5-0.2-0.7-0.5c-0.1-0.3,0.5-0.6,0.3-0.9c-0.1-0.3-0.4-0.2-0.5-0.6c-0.1-0.3,0.1-0.4,0-0.8c-0.1-0.3,0-0.4-0.1-0.7
					c-0.1-0.3-0.2-0.3-0.3-0.7c-0.1-0.3-0.2-0.3-0.4-0.6c-0.1-0.3-0.3-0.3-0.4-0.6c-0.1-0.3-0.8-0.1-0.9-0.4
					c-0.1-0.3,0.4-0.6,0.3-0.9c-0.1-0.3-0.4-0.2-0.6-0.5c-0.1-0.3,0.1-0.4,0-0.8c0-0.2,0-0.4,0.1-0.7c0.1-0.2,0.5-0.3,0.6-0.5
					c0.1-0.2,0.2-0.3,0.3-0.5c0.1-0.2,0-0.5,0.2-0.7c0.2-0.1,0.1-0.7,0.3-0.8c0.2-0.1,0.6,0.3,0.9,0.3c0.2-0.1,0.4-0.1,0.6-0.1
					c0.4,0,0.4-0.3,0.7-0.3c0.4,0,0.4,0.7,0.7,0.7c0.4,0,0.4-0.8,0.7-0.8c0.4,0,0.4,0.3,0.7,0.3s0.4-0.2,0.7-0.2s0.4-0.2,0.7-0.2
					c0.4,0,0.4,1,0.7,1s0.4-0.5,0.7-0.5c0.4,0,0.4,0.5,0.7,0.5s0.4-0.4,0.7-0.4c0.4,0,0.4-0.3,0.7-0.3c0.4,0,0.4,0,0.7,0
					c0.4,0,0.4,0.7,0.7,0.7c0.4,0,0.4-0.9,0.7-0.9c0.4,0,0.4,0,0.7,0c0.4,0,0.4,0.1,0.7,0.1c0.4,0,0.4,0.4,0.7,0.4
					c0.4,0,0.4-0.4,0.7-0.4c0.4,0,0.4,0.6,0.7,0.6c0.4,0,0.4,0,0.7,0c0.4,0,0.4,0.1,0.7,0.1c0.4,0,0.4-0.1,0.7-0.1
					c0.4,0,0.4-0.6,0.7-0.6c0.4,0,0.4,0.9,0.7,0.9c0.4,0,0.4-0.8,0.7-0.8c0.4,0,0.4,0.9,0.7,0.9c0.4,0,0.4-0.3,0.7-0.3
					s0.4-0.5,0.7-0.5s0.4-0.2,0.7-0.2c0.4,0,0.4,0.4,0.7,0.4c0.4,0,0.4,0.1,0.7,0.1s0.4-0.2,0.7-0.2c0.4,0,0.4,0.5,0.7,0.5
					c0.4,0,0.4-0.7,0.7-0.7c0.4,0,0.4,0.6,0.7,0.6c0.4,0,0.4-0.2,0.7-0.2c0.4,0,0.4,0.4,0.7,0.4c0.4,0,0.4-0.4,0.7-0.4
					c0.4,0,0.4-0.1,0.7-0.1c0.4,0,0.4-0.3,0.7-0.3c0.4,0,0.4,0.5,0.7,0.5c0.4,0,0.4-0.2,0.7-0.2c0.4,0,0.4,0.2,0.7,0.2
					c0.4,0,0.4-0.2,0.7-0.2c0.4,0,0.4,0.2,0.7,0.2c0.4,0,0.4,0.3,0.7,0.3c0.4,0,0.4-0.4,0.7-0.4c0.4,0,0.4,0,0.7,0
					c0.4,0,0.4,0.1,0.7,0.1c0.4,0,0.4,0.4,0.7,0.4c0.4,0,0.4-0.3,0.7-0.3c0.4,0,0.4-0.6,0.7-0.6c0.4,0,0.4,0.2,0.7,0.2
					c0.4,0,0.4,0.3,0.7,0.3c0.4,0,0.4,0.5,0.7,0.5c0.4,0,0.4,0,0.7,0c0.4,0,0.4-0.1,0.7-0.1c0.4,0,0.4-0.1,0.7-0.1
					c0.4,0,0.4-0.7,0.7-0.7c0.4,0,0.4,0.7,0.7,0.7s0.4-0.2,0.7-0.2s0.4-0.5,0.7-0.5c0.4,0,0.4,0.2,0.7,0.2c0.4,0,0.4,0.4,0.7,0.4
					c0.4,0,0.4-0.6,0.7-0.6c0.4,0,0.4,0.3,0.7,0.3c0.4,0,0.4,0.5,0.7,0.5c0.4,0,0.4-0.9,0.7-0.9c0.4,0,0.4,0.4,0.7,0.4
					c0.4,0,0.4-0.1,0.7-0.1c0.4,0,0.4,0.6,0.7,0.6c0.4,0,0.4-0.6,0.7-0.6c0.4,0,0.4,0,0.7,0c0.4,0,0.4,0.5,0.7,0.5s0.4-0.6,0.7-0.6
					c0.4,0,0.4,0.4,0.7,0.4c0.4,0,0.4-0.4,0.7-0.4c0.4,0,0.4,0.7,0.7,0.7c0.4,0,0.4-0.4,0.7-0.4c0.4,0,0.4,0.3,0.7,0.3
					c0.4,0,0.4-0.7,0.7-0.7c0.4,0,0.4,0.5,0.7,0.5c0.4,0,0.4-0.3,0.7-0.3c0.4,0,0.4-0.1,0.7-0.1c0.4,0,0.4,0.8,0.7,0.8
					c0.4,0,0.4-0.2,0.7-0.2c0.4,0,0.4-0.6,0.7-0.6c0.4,0,0.4-0.1,0.7-0.1c0.4,0,0.4,0.6,0.7,0.6c0.4,0,0.4-0.7,0.7-0.7
					c0.4,0,0.4,0.2,0.7,0.2c0.4,0,0.4,0.8,0.7,0.8c0.4,0,0.4-0.8,0.7-0.8c0.4,0,0.4,0.1,0.7,0.1c0.4,0,0.4,0.4,0.7,0.4
					c0.4,0,0.4-0.2,0.7-0.2c0.4,0,0.4-0.2,0.7-0.2c0.4,0,0.4,0.1,0.7,0.1c0.4,0,0.4-0.3,0.7-0.3c0.4,0,0.4-0.1,0.7-0.1
					s0.4,0.4,0.7,0.4c0.4,0,0.4,0.4,0.7,0.4c0.4,0,0.4-0.2,0.7-0.2c0.4,0,0.4-0.2,0.7-0.2c0.4,0,0.4-0.1,0.7-0.1
					c0.4,0,0.4,0.2,0.7,0.2c0.4,0,0.4-0.5,0.7-0.5c0.4,0,0.4,0.2,0.7,0.2c0.4,0,0.4,0.4,0.7,0.4c0.2,0,0.4,0.1,0.6,0.1
					c0.2,0.1,0.4,0.1,0.6,0.2c0.2,0.1,0.8-0.4,1-0.2c0.2,0.1,0.4,0.4,0.5,0.6c0.1,0.2-0.4,0.8-0.3,1c0.1,0.2,0.8,0.2,0.8,0.4
					c0.1,0.2-0.5,0.7-0.5,0.9c0.2,0.3,0.8-0.1,1,0.2c0.2,0.3,0.2,0.3,0.4,0.6c0.2,0.3,0,0.5,0.2,0.8c0.2,0.3,0.4,0.1,0.6,0.4
					c0.2,0.3,0.3,0.2,0.5,0.5c0.2,0.3,0,0.5,0.2,0.7c0.2,0.3,0.4,0.1,0.6,0.4c0.2,0.3-0.1,0.6,0.1,0.8c0.2,0.3,0.7-0.1,0.9,0.2
					c0.2,0.3-0.1,0.6,0.1,0.8c0.2,0.3,0.2,0.3,0.5,0.5c0.2,0.3,0.2,0.3,0.4,0.6c0.2,0.3,0.3,0.2,0.5,0.5c0.2,0.3,0.7-0.1,0.9,0.2
					c0.2,0.3,0,0.4,0.2,0.7c0.2,0.3-0.1,0.6,0.1,0.8s0.5,0,0.7,0.3c0.2,0.3,0,0.4,0.3,0.7c0.2,0.3,0.2,0.3,0.4,0.6
					c0.2,0.3,0.3,0.2,0.5,0.5c0.2,0.3,0.6,0,0.8,0.2c0.2,0.3-0.4,0.8-0.2,1.1c0.2,0.3,0.7-0.1,0.9,0.2c0.2,0.3,0.4,0.1,0.6,0.4
					c0.2,0.3-0.3,0.7-0.1,1c0.2,0.3,0.1,0.4,0.3,0.7c0.2,0.3,0.6-0.1,0.9,0.2c0.2,0.3,0.2,0.3,0.5,0.5c0.2,0.3,0,0.4,0.3,0.7
					c0.2,0.3,0.7-0.1,0.9,0.2c0.2,0.3,0,0.5,0.2,0.7c0.2,0.3-0.1,0.6,0.1,0.9c0.2,0.3,0.5,0.1,0.7,0.4c0.2,0.3,0.5,0,0.7,0.3
					c0.2,0.3,0.3,0.2,0.5,0.5c0.2,0.3-0.4,0.8-0.1,1c0.2,0.3,0.9-0.2,1.1,0c0.2,0.3,0,0.4,0.3,0.7c0.2,0.3-0.1,0.5,0.2,0.8
					c0.2,0.3,0.1,0.4,0.3,0.7c0.2,0.3,0.8-0.2,1.1,0c0.2,0.3,0.3,0.2,0.5,0.5c0.2,0.3-0.4,0.8-0.2,1.1c0.2,0.3,0.6,0,0.8,0.3
					c0.2,0.3,0.1,0.4,0.3,0.7c0.2,0.3,0.5,0.1,0.7,0.4c0.2,0.3,0.2,0.3,0.4,0.6c0.2,0.3,0.4,0.1,0.7,0.4c0.2,0.3-0.4,0.8-0.1,1.1
					c0.2,0.3,0.5,0.1,0.7,0.3c0.2,0.3,0,0.5,0.2,0.8c0.2,0.3,0.9-0.3,1.2,0s0.2,0.3,0.4,0.6c0.2,0.3,0,0.4,0.3,0.7
					c0.2,0.3,0.5,0,0.7,0.3c0.2,0.3-0.5,0.8-0.2,1.1c0.2,0.3,0.9-0.3,1.1,0c0.2,0.3,0.1,0.4,0.4,0.6c0.2,0.3,0.1,0.4,0.4,0.6
					c0.2,0.3,0.4,0.1,0.6,0.4c0.2,0.3-0.2,0.6,0,0.9c0.2,0.3,0.5,0,0.8,0.3c0.2,0.3-0.2,0.7,0,0.9c0.2,0.3,0.4,0.1,0.6,0.4
					c0.2,0.3,0.6,0,0.8,0.2c0.2,0.3,0,0.4,0.3,0.7c0.2,0.3-0.2,0.6,0.1,0.9c0.2,0.3,0.8-0.2,1,0.1c0.2,0.3,0,0.5,0.2,0.7
					c0.2,0.3,0.4,0.1,0.7,0.4c0.2,0.3-0.3,0.8-0.1,1c0.2,0.3,0.4,0.2,0.6,0.4c0.2,0.3,0.2,0.3,0.4,0.6c0.2,0.3,0.2,0.3,0.4,0.6
					c0.2,0.3,0.6-0.1,0.9,0.2c0.2,0.3-0.2,0.6,0,0.9c0.2,0.3,0.8-0.2,1.1,0.1c0.2,0.3,0.3,0.2,0.5,0.5c0.2,0.3-0.2,0.7,0,0.9
					c0.2,0.3,0.1,0.4,0.4,0.6c0.2,0.3,0.8-0.2,1,0.1c0.2,0.3,0.3,0.3,0.5,0.5c0.2,0.3,0,0.5,0.3,0.7c0.2,0.3,0.4,0.1,0.7,0.4
					c0.2,0.3,0,0.5,0.2,0.8c0.2,0.3,0.5,0.1,0.7,0.3c0.2,0.3,0.4,0.6,0.3,0.9c-0.1,0.3-0.5-0.2-0.9-0.2c-0.4,0-0.4,0-0.7,0
					s-0.4,0.1-0.7,0.1s-0.4,0.2-0.7,0.2s-0.4-0.1-0.7-0.1s-0.4,0-0.7,0s-0.4,0.3-0.7,0.3s-0.4-0.1-0.7-0.1c-0.4,0-0.4,0.2-0.7,0.2
					s-0.4,0-0.7,0s-0.4-0.8-0.7-0.8s-0.4,0.8-0.7,0.8s-0.4-0.7-0.7-0.7c-0.4,0-0.4,0.2-0.7,0.2s-0.4-0.4-0.7-0.4
					c-0.4,0-0.4,0.7-0.7,0.7c-0.4,0-0.4-0.2-0.7-0.2c-0.4,0-0.4-0.2-0.7-0.2c-0.4,0-0.4,0.4-0.7,0.4c-0.4,0-0.4,0-0.7,0
					c-0.4,0-0.4-0.6-0.7-0.6c-0.4,0-0.4,0.2-0.7,0.2c-0.4,0-0.4,0.1-0.7,0.1c-0.4,0-0.4,0.1-0.7,0.1c-0.4,0-0.4,0-0.7,0
					c-0.4,0-0.4-0.2-0.7-0.2c-0.4,0-0.4,0.5-0.7,0.5c-0.4,0-0.4-0.2-0.7-0.2c-0.4,0-0.4-0.4-0.7-0.4c-0.4,0-0.4,0.4-0.7,0.4
					c-0.4,0-0.4-0.2-0.7-0.2s-0.4-0.1-0.7-0.1c-0.4,0-0.4,0.1-0.7,0.1c-0.4,0-0.4-0.3-0.7-0.3c-0.4,0-0.4,0.2-0.7,0.2
					c-0.4,0-0.4,0.1-0.7,0.1c-0.4,0-0.4,0.5-0.7,0.5c-0.4,0-0.4-0.4-0.7-0.4c-0.4,0-0.4-0.3-0.7-0.3c-0.4,0-0.4,0.9-0.7,0.9
					c-0.4,0-0.4-0.1-0.7-0.1c-0.4,0-0.4,0-0.7,0s-0.4-0.3-0.7-0.3s-0.4-0.4-0.7-0.4s-0.4,0.2-0.7,0.2s-0.4,0.1-0.7,0.1
					s-0.4,0.1-0.7,0.1s-0.4-0.2-0.7-0.2c-0.4,0-0.4-0.3-0.7-0.3c-0.4,0-0.4,0.6-0.7,0.6c-0.4,0-0.4-0.2-0.7-0.2
					c-0.4,0-0.4-0.3-0.7-0.3c-0.4,0-0.4,0.7-0.7,0.7c-0.4,0-0.4-0.6-0.7-0.6c-0.4,0-0.4,0.3-0.7,0.3c-0.4,0-0.4,0.3-0.7,0.3
					c-0.4,0-0.4-0.8-0.7-0.8c-0.4,0-0.4,0.8-0.7,0.8c-0.4,0-0.4,0-0.7,0c-0.4,0-0.4-0.1-0.7-0.1c-0.4,0-0.4,0.2-0.7,0.2
					c-0.4,0-0.4-1-0.7-1c-0.4,0-0.4,0.8-0.7,0.8c-0.4,0-0.4-0.4-0.7-0.4c-0.4,0-0.4,0.3-0.7,0.3c-0.4,0-0.4-0.6-0.7-0.6
					s-0.4,0.9-0.7,0.9c-0.4,0-0.4-0.6-0.7-0.6s-0.4,0.2-0.7,0.2c-0.4,0-0.4-0.1-0.7-0.1c-0.4,0-0.4,0.1-0.7,0.1
					c-0.4,0-0.4,0.2-0.7,0.2c-0.4,0-0.4-0.2-0.7-0.2c-0.4,0-0.4-0.1-0.7-0.1c-0.4,0-0.4,0.2-0.7,0.2c-0.4,0-0.4-0.5-0.7-0.5
					c-0.4,0-0.4,0.9-0.7,0.9c-0.4,0-0.4-0.3-0.7-0.3c-0.4,0-0.4-0.2-0.7-0.2c-0.4,0-0.4,0-0.7,0c-0.4,0-0.4-0.2-0.7-0.2
					c-0.4,0-0.4,0.1-0.7,0.1c-0.4,0-0.4,0.2-0.7,0.2c-0.4,0-0.4,0.4-0.7,0.4c-0.4,0-0.4-0.5-0.7-0.5c-0.4,0-0.4,0.2-0.7,0.2
					c-0.4,0-0.4-0.5-0.7-0.5c-0.4,0-0.4,0.6-0.7,0.6c-0.4,0-0.4-0.3-0.7-0.3c-0.4,0-0.4,0.4-0.7,0.4c-0.4,0-0.4,0-0.7,0
					c-0.4,0-0.4-0.4-0.7-0.4c-0.4,0-0.4,0.4-0.7,0.4c-0.4,0-0.4,0.1-0.7,0.1c-0.4,0-0.4-0.1-0.7-0.1c-0.4,0-0.4-0.3-0.7-0.3
					c-0.4,0-0.4-0.1-0.7-0.1c-0.4,0-0.4-0.1-0.7-0.1c-0.4,0-0.4-0.3-0.7-0.3c-0.4,0-0.4,0.4-0.7,0.4c-0.4,0-0.4,0.4-0.7,0.4
					c-0.4,0-0.4-0.2-0.7-0.2c-0.4,0-0.4-0.3-0.7-0.3c-0.4,0-0.4,0.3-0.7,0.3c-0.4,0-0.4,0.2-0.7,0.2c-0.4,0-0.4-0.2-0.7-0.2
					c-0.4,0-0.4,0.3-0.7,0.3c-0.4,0-0.4-0.4-0.7-0.4c-0.4,0-0.4-0.6-0.7-0.6c-0.4,0-0.4,0.4-0.7,0.4c-0.4,0-0.4-0.3-0.7-0.3
					s-0.4,0.9-0.7,0.9c-0.4,0-0.4-0.3-0.7-0.3c-0.4,0-0.4,0.2-0.7,0.2c-0.4,0-0.4-0.5-0.7-0.5c-0.4,0-0.4,0-0.7,0
					c-0.4,0-0.4,0-0.7,0c-0.4,0-0.4-0.2-0.7-0.2c-0.4,0-0.4,0.3-0.7,0.3c-0.4,0-0.4,0.1-0.7,0.1c-0.4,0-0.4-0.2-0.7-0.2
					c-0.4,0-0.4-0.2-0.7-0.2c-0.4,0-0.4,0.7-0.7,0.7c-0.4,0-0.4-0.4-0.7-0.4c-0.4,0-0.4,0.2-0.7,0.2c-0.4,0-0.4-0.7-0.7-0.7
					c-0.4,0-0.4,0.5-0.7,0.5c-0.4,0-0.4-0.3-0.7-0.3c-0.4,0-0.4-0.1-0.7-0.1c-0.4,0-0.4,0.5-0.7,0.5c-0.4,0-0.4,0-0.7,0
					c-0.4,0-0.4-0.1-0.7-0.1c-0.4,0-0.4-0.1-0.7-0.1c-0.4,0-0.4-0.3-0.7-0.3c-0.4,0-0.4,0.7-0.7,0.7c-0.4,0-0.4-0.2-0.7-0.2
					c-0.4,0-0.4,0.3-0.7,0.3c-0.4,0-0.4-0.2-0.7-0.2c-0.4,0-0.4-0.3-0.7-0.3c-0.4,0-0.4-0.4-0.7-0.4c-0.4,0-0.4,0.7-0.7,0.7
					c-0.4,0-0.4-0.7-0.7-0.7c-0.4,0-0.4,0.6-0.7,0.6c-0.4,0-0.4-0.4-0.7-0.4c-0.4,0-0.4,0.2-0.7,0.3
					C684.1,566.5,684,566.6,683.7,566.4z"/>
			</g>
		</g>
		<g id="舉重">
			<g>
				<rect x="516" y="285.6" class="st22" width="378.3" height="15"/>
			</g>
			<g>
				<g>
					<defs>
						<path id="XMLID_1_" d="M511.8,240.7c-5,0-9.1,4-9.1,8.8v86.4c0,4.9,4.1,8.8,9.1,8.8c5,0,9.1-4,9.1-8.8v-86.4
							C521,244.6,516.9,240.7,511.8,240.7z"/>
					</defs>
					<use xlink:href="#XMLID_1_"  style="overflow:visible;fill:#C75232;"/>
					<clipPath id="XMLID_7_">
						<use xlink:href="#XMLID_1_"  style="overflow:visible;"/>
					</clipPath>
				</g>
				<g>
					<defs>
						<path id="XMLID_4_" d="M493.6,240.7c-5,0-9.1,4.3-9.1,9.5v85c0,5.3,4.1,9.5,9.1,9.5s9.1-4.3,9.1-9.5v-85
							C502.7,245,498.6,240.7,493.6,240.7z"/>
					</defs>
					<use xlink:href="#XMLID_4_"  style="overflow:visible;fill:#E06400;"/>
					<clipPath id="XMLID_9_">
						<use xlink:href="#XMLID_4_"  style="overflow:visible;"/>
					</clipPath>
				</g>
				<path class="st32" d="M475.4,248.3c-5,0-9.1,4.3-9.1,9.5v69.7c0,5.3,4.1,9.5,9.1,9.5s9.1-4.3,9.1-9.5v-69.7
					C484.5,252.6,480.4,248.3,475.4,248.3z"/>
			</g>
			<g>
				<path class="st33" d="M900.4,240.7c5,0,9.1,4,9.1,8.8v86.4c0,4.9-4.1,8.8-9.1,8.8c-5,0-9.1-4-9.1-8.8v-86.4
					C891.3,244.6,895.3,240.7,900.4,240.7z"/>
				<g>
					<defs>
						<path id="XMLID_6_" d="M917.6,240.7c5,0,9.1,4.3,9.1,9.5v85c0,5.3-4.1,9.5-9.1,9.5c-5,0-9.1-4.3-9.1-9.5v-85
							C908.5,245,912.6,240.7,917.6,240.7z"/>
					</defs>
					<use xlink:href="#XMLID_6_"  style="overflow:visible;fill:#E06400;"/>
					<clipPath id="XMLID_11_">
						<use xlink:href="#XMLID_6_"  style="overflow:visible;"/>
					</clipPath>
				</g>
				<path class="st32" d="M935.8,248.3c5,0,9.1,4.3,9.1,9.5v69.7c0,5.3-4.1,9.5-9.1,9.5c-5,0-9.1-4.3-9.1-9.5v-69.7
					C926.7,252.6,930.8,248.3,935.8,248.3z"/>
			</g>
		</g>
		<g>
			<path id="XMLID_8_" class="st34" d="M556.7,526c0,2-21.1,2-21.1,0V271.1c0-6.1,4.7-11,10.6-11l0,0c5.8,0,10.6,4.9,10.6,11V526z"
				/>
			<path id="XMLID_10_" class="st34" d="M876.6,526c0,1.5-21.1,1.5-21.1,0V271.1c0-6.1,4.7-11,10.6-11h0c5.8,0,10.6,4.9,10.6,11V526
				z"/>
		</g>
		<g>
			<path class="st35" d="M714.3,518.3c0,1.6-16.4,1.6-16.4,0v-48c0-4.7,3.7-8.6,8.2-8.6h0c4.5,0,8.2,3.8,8.2,8.6V518.3z"/>
			<path class="st36" d="M755.5,488.7h-98.7c-3.4,0-5.9-2.7-5.1-5.4v-12c0,0,10.4-17,12.8-17h83.1c2.4,0,12.8,17,12.8,17v12
				C761.3,486,758.9,488.7,755.5,488.7z"/>
			<path class="st33" d="M755.5,476.7h-98.7c-3.4,0-5.9-2.7-5.1-5.4l7.8-25.7c0.6-1.9,2.7-3.3,5.1-3.3h83.1c2.4,0,4.5,1.4,5.1,3.3
				l7.8,25.7C761.3,474,758.9,476.7,755.5,476.7z"/>
			<path class="st35" d="M745.4,523.5h-78.5c-1.7,0-3.1-1.4-3.1-3.1v-7.9c0-1.7,1.4-3.1,3.1-3.1h78.5c1.7,0,3.1,1.4,3.1,3.1v7.9
				C748.5,522.1,747.1,523.5,745.4,523.5z"/>
		</g>
	</g>
	<g id="球" class="st0">
		<path id="陰影_2_" class="st37" d="M-47.5,920.3c0,21.7,44.7,43.6,97.1,19.5c2.6-1.2,5.6-1.2,8.3,0
			c58.3,26.4,110.6,2.7,116.5-23.5c5.3-23.9-65.7-30.6-110.7-10.5c-2.7,1.2-5.7,1.2-8.4-0.1C22,890.2-47.5,890.5-47.5,920.3z"/>
		<g id="小">
			<g>
				<defs>
					<path id="XMLID_14_" d="M43.2,927.5c-13.8,18.5-38.3,19.9-56.8,6.1c-18.5-13.8-23.9-37.7-10.1-56.2s40-22.2,58.5-8.4
						C53.2,882.9,57,909.1,43.2,927.5z"/>
				</defs>
				
					<radialGradient id="XMLID_13_" cx="2.7679" cy="893.3807" r="41.6629" fx="-19.7703" fy="876.5115" gradientTransform="matrix(0.7889 0.5914 -0.5914 0.7889 536.7318 194.9276)" gradientUnits="userSpaceOnUse">
					<stop  offset="0" style="stop-color:#564222"/>
					<stop  offset="6.853080e-02" style="stop-color:#463822"/>
					<stop  offset="0.1739" style="stop-color:#352E21"/>
					<stop  offset="0.305" style="stop-color:#2A2621"/>
					<stop  offset="0.4891" style="stop-color:#232221"/>
					<stop  offset="1" style="stop-color:#212121"/>
				</radialGradient>
				<use xlink:href="#XMLID_14_"  style="overflow:visible;fill:url(#XMLID_13_);"/>
				<clipPath id="XMLID_15_">
					<use xlink:href="#XMLID_14_"  style="overflow:visible;"/>
				</clipPath>
			</g>
			<path class="st22" d="M59.6,865.6l-28.5-21.4c-3.5-2.6-8.4-1.9-11,1.6L7.9,862.1c-1.4,1.9-1,4.6,0.9,6s4.6,1,6-0.9l11.8-15.7
				l27.4,20.5l-11.8,15.7c-1.4,1.9-1,4.6,0.9,6c1.9,1.4,4.6,1,6-0.9l12.2-16.3C63.8,873.2,63.1,868.2,59.6,865.6z"/>
		</g>
		<g id="大">
			<g>
				<defs>
					<path id="XMLID_12_" d="M168.5,892.3c0,29.8-24.1,50.2-53.9,50.2s-53.9-20.4-53.9-50.2c0-29.8,24.1-53.9,53.9-53.9
						S168.5,862.6,168.5,892.3z"/>
				</defs>
				
					<radialGradient id="XMLID_16_" cx="110.161" cy="891.6121" r="53.7341" fx="81.0927" fy="869.8553" gradientTransform="matrix(0.9859 0 0 0.9859 6.0183 11.4093)" gradientUnits="userSpaceOnUse">
					<stop  offset="0" style="stop-color:#564222"/>
					<stop  offset="6.853080e-02" style="stop-color:#463822"/>
					<stop  offset="0.1739" style="stop-color:#352E21"/>
					<stop  offset="0.305" style="stop-color:#2A2621"/>
					<stop  offset="0.4891" style="stop-color:#232221"/>
					<stop  offset="1" style="stop-color:#212121"/>
				</radialGradient>
				<use xlink:href="#XMLID_12_"  style="overflow:visible;fill:url(#XMLID_16_);"/>
				<clipPath id="XMLID_17_">
					<use xlink:href="#XMLID_12_"  style="overflow:visible;"/>
				</clipPath>
			</g>
			<path class="st22" d="M137.6,815.7h-46c-5.6,0-10.1,4.5-10.1,10.1v26.3c0,3,2.5,5.5,5.5,5.5c3,0,5.5-2.5,5.5-5.5v-25.3h44.2v25.3
				c0,3,2.5,5.5,5.5,5.5s5.5-2.5,5.5-5.5v-26.3C147.8,820.2,143.2,815.7,137.6,815.7z"/>
		</g>
	</g>
</g>
</svg>
