<?xml version="1.0" encoding="utf-8"?>
<!-- Generator: Adobe Illustrator 24.3.0, SVG Export Plug-In . SVG Version: 6.00 Build 0)  -->
<svg version="1.1" id="_x31_" xmlns="http://www.w3.org/2000/svg" xmlns:xlink="http://www.w3.org/1999/xlink" x="0px" y="0px"
	 viewBox="0 0 638 430" style="enable-background:new 0 0 638 430;" xml:space="preserve">
<style type="text/css">
	.st0{opacity:0.8;fill:#4C4C4C;}
	.st1{fill:url(#SVGID_1_);}
	.st2{fill:url(#SVGID_2_);}
	.st3{fill:url(#SVGID_3_);}
	.st4{fill:url(#SVGID_4_);}
	.st5{opacity:0.8;fill:#2D2D2D;}
	.st6{fill:#5F554E;}
	.st7{fill:#F7E7D6;}
	.st8{fill:url(#SVGID_5_);}
	.st9{fill:#DD8A3E;}
	.st10{fill:#FFFFFF;}
	.st11{clip-path:url(#XMLID_3_);fill:url(#SVGID_6_);}
	.st12{clip-path:url(#XMLID_3_);fill:url(#SVGID_7_);}
	.st13{fill:#FCD98B;}
	.st14{fill:#3D3939;}
	.st15{fill:#F0867A;}
	.st16{fill:#81C5E2;}
	.st17{fill:#9B655C;}
	.st18{fill:#72483F;}
	.st19{fill:#281C13;}
	.st20{fill:#D0EAEF;}
	.st21{fill:#704A3B;}
	.st22{fill:#7C633D;}
	.st23{fill:#4D1904;}
	.st24{fill:#B17F48;}
	.st25{fill:#3D3332;}
	.st26{fill:url(#SVGID_8_);}
	.st27{fill:url(#SVGID_9_);}
	.st28{fill:url(#SVGID_10_);}
	.st29{fill:url(#SVGID_11_);}
	.st30{fill:url(#SVGID_12_);}
</style>
<g>
	<ellipse class="st0" cx="233.6" cy="410.9" rx="134.4" ry="15"/>
	<linearGradient id="SVGID_1_" gradientUnits="userSpaceOnUse" x1="319.2557" y1="301.5239" x2="319.2557" y2="410.886">
		<stop  offset="0" style="stop-color:#6A3906"/>
		<stop  offset="1" style="stop-color:#9B655C"/>
	</linearGradient>
	<path class="st1" d="M314.5,301.5v107.3c0,1.1,2.1,2,4.7,2s4.7-0.9,4.7-2V301.5H314.5z"/>
	<linearGradient id="SVGID_2_" gradientUnits="userSpaceOnUse" x1="149.0929" y1="301.5239" x2="149.0929" y2="410.886">
		<stop  offset="0" style="stop-color:#6A3906"/>
		<stop  offset="1" style="stop-color:#9B655C"/>
	</linearGradient>
	<path class="st2" d="M144.3,301.5v107.3c0,1.1,2.1,2,4.7,2s4.7-0.9,4.7-2V301.5H144.3z"/>
	<linearGradient id="SVGID_3_" gradientUnits="userSpaceOnUse" x1="117.972" y1="301.5239" x2="117.972" y2="408.8649">
		<stop  offset="0" style="stop-color:#6A3906"/>
		<stop  offset="0.157" style="stop-color:#794620"/>
		<stop  offset="0.3557" style="stop-color:#88543A"/>
		<stop  offset="0.56" style="stop-color:#935D4D"/>
		<stop  offset="0.7712" style="stop-color:#996358"/>
		<stop  offset="1" style="stop-color:#9B655C"/>
	</linearGradient>
	<rect x="113.2" y="301.5" class="st3" width="9.5" height="107.3"/>
	<linearGradient id="SVGID_4_" gradientUnits="userSpaceOnUse" x1="350.3766" y1="301.5239" x2="350.3766" y2="408.8649">
		<stop  offset="0" style="stop-color:#6A3906"/>
		<stop  offset="0.157" style="stop-color:#794620"/>
		<stop  offset="0.3557" style="stop-color:#88543A"/>
		<stop  offset="0.56" style="stop-color:#935D4D"/>
		<stop  offset="0.7712" style="stop-color:#996358"/>
		<stop  offset="1" style="stop-color:#9B655C"/>
	</linearGradient>
	<rect x="345.6" y="301.5" class="st4" width="9.5" height="107.3"/>
	<ellipse class="st5" cx="473.1" cy="405.5" rx="94.9" ry="13.2"/>
	<g>
		<g>
			<path class="st6" d="M526.9,385.9c-1.8,4-4.1,11.3-1,15.2c1.5,1.9,4,2.2,6.1,1.2c2.2-1.1,3.3-3.6,4.1-5.8
				c1.3-3.8,2.3-11.4-1.7-14.1c-5.2-3.5-8.3,4.2-8.9,8c-0.5,3.8,5.2,5.4,5.8,1.6c0.3-1.7,0.3-4,2.1-4.8c-0.8,0.1-1.5,0.2-2.3,0.3
				c-0.9-0.2-0.1,1-0.1,1.6c0.1,0.7,0.1,1.4,0,2.1c-0.1,0.9-0.2,1.8-0.5,2.7c-0.2,0.7-1.1,1.9-1,2.5c-0.4,0.4-0.2,0.6,0.4,0.7
				c0.6,0.5,0.8,0.5,0.6-0.2c0.3-0.6-0.1-1.9,0-2.6c0.2-1.9,0.7-3.7,1.4-5.4C533.7,385.5,528.5,382.4,526.9,385.9L526.9,385.9z"/>
		</g>
	</g>
	<g>
		<g>
			<path class="st7" d="M502.4,335c-1.2,21.4,10.1,40.3,25.7,54c3.9,3.4,9.5-2.3,5.7-5.7c-14.2-12.4-24.5-28.9-23.4-48.3
				C510.7,329.9,502.7,329.9,502.4,335L502.4,335z"/>
		</g>
	</g>
	<g>
		<g>
			<path class="st6" d="M438.1,398.2c1.2-2.2,2.8-4.1,4.9-5.6c0.5-0.4,1.1-0.7,1.6-1c0.2-0.1,0.4-0.2,0.7-0.3
				c0.8-0.3,0.6-0.8-0.8-1.5c-0.2,0-2.5,2.9-2.9,3.3c-1.1,1-2.2,1.9-3.4,2.7c-0.3,0.2-1.3,0.6-1.5,0.8c0.5,1.9,0.9,2.4,1.2,1.5
				c0.1-0.2,0.2-0.4,0.3-0.6c1.2-2.2,3.3-3.8,5.3-5.2c3.2-2.2,0.2-7.4-3-5.2c-3.6,2.5-10,7.3-8.6,12.5c2,7.3,11.1,0.3,13.9-2.3
				c2.1-1.9,4.7-4.5,4.7-7.5c0.1-2.7-2.2-5.1-5-4.8c-5.3,0.4-10.3,5.9-12.6,10.2C431.1,398.6,436.2,401.6,438.1,398.2L438.1,398.2z"
				/>
		</g>
	</g>
	<g>
		<g>
			<path class="st7" d="M438.5,307.7c-7.2,14.5-14.7,29.8-15.1,46.3c-0.4,13.7,4.4,27.9,15.4,36.6c4,3.1,9.7-2.5,5.7-5.7
				c-23.9-18.7-9.8-51.5,0.9-73.2C447.7,307.1,440.8,303.1,438.5,307.7L438.5,307.7z"/>
		</g>
	</g>
	<linearGradient id="SVGID_5_" gradientUnits="userSpaceOnUse" x1="453.5047" y1="235.5119" x2="471.7697" y2="281.0586">
		<stop  offset="0" style="stop-color:#FFCA94"/>
		<stop  offset="0.1714" style="stop-color:#FDD1A5"/>
		<stop  offset="0.4909" style="stop-color:#FADDBF"/>
		<stop  offset="0.7771" style="stop-color:#F8E4CF"/>
		<stop  offset="1" style="stop-color:#F7E6D5"/>
	</linearGradient>
	<path class="st8" d="M419,231.9c0,0-6.3,45.8-6.5,53.6c-0.3,7.9-3.3,15.8,6.3,21.3s35,10.5,56.3,9.7s27.6-3.7,36.7-6.3
		c9.1-2.6,14.9-8.1,14.2-25.4c-0.8-17.3-2.5-34.6-5.9-46.9c0,0-2-8.3-2.6-9.6L419,231.9z"/>
	<path class="st9" d="M409.1,287.9c0,0-14.1,42.4,9.8,52.6c12.3,5.2,33.3,4.5,42-4.5c6.5-6.7,10.7-21.4,12.2-41.1
		C473.1,294.9,442.3,278.6,409.1,287.9z"/>
	<path class="st9" d="M529.7,287.8c0,0,14,41.3-9.8,51.2c-12.2,5.1-33.1,4.4-41.8-4.4c-6.5-6.5-10.6-20.8-12.1-40
		C466,294.6,496.6,278.8,529.7,287.8z"/>
	<path class="st7" d="M413.1,241.4c-6.6,27.8-31.4,46.4-54.6,55c0,0,0,0,0,0c0,0-6.5,0.9-7.7,1.8c-0.8,0.6-0.5,1.3,1.1,2.1
		c-3.5,1-7.1,3.5-5.4,5.4c1.5,1.6,10.9-2,14.5-3.8c0,0,0,0,0,0c24.9-9.1,51.8-27.8,58.8-57.5C420.8,239.8,414.2,236.8,413.1,241.4z"
		/>
	<path class="st10" d="M457.4,294.6c0,0,8.3-47.9,43.7-65.9l8.6,0c0,0,15.3,13.8,12.1,61C521.8,289.7,479.3,295,457.4,294.6z"/>
	<path class="st9" d="M465.3,294.6c0,0,8.3-47.9,43.7-65.9l8.6-0.3c0,0,15.3,14.1,12.2,61.3C529.7,289.7,487.1,295,465.3,294.6z"/>
	<path class="st10" d="M471.5,294.6c0,0-7.2-47.9-37.9-65.9l-7.5,0c0,0-13.3,13.8-10.5,61C415.5,289.7,452.5,295,471.5,294.6z"/>
	<path class="st9" d="M464.7,294.6c0,0-7.2-47.9-37.9-65.9l-7.4-0.3c0,0-13.3,14.1-10.6,61.3C408.7,289.7,445.7,295,464.7,294.6z"/>
	<g>
		<path class="st7" d="M359.1,195.5c0,0-12-2.3-7.9,8.8c4,11.1,15.9,11.1,19.6,7.2C374.5,207.5,359.1,195.5,359.1,195.5"/>
		<path class="st7" d="M569,180.9c0,0,11.5-4,9.1,7.6c-2.5,11.6-14.2,13.2-18.4,9.8C555.4,195,569,180.9,569,180.9"/>
		<g>
			<defs>
				<path id="XMLID_2_" d="M576.6,142.6c8.8,60.9-43.1,95-108.7,99.5c-66.2,4.6-117.4-21-121.7-83.6
					c-3.7-53.4,44.9-100.3,108.5-104.8C518.3,49.4,569,89.6,576.6,142.6"/>
			</defs>
			<use xlink:href="#XMLID_2_"  style="overflow:visible;fill:#F7E7D6;"/>
			<clipPath id="XMLID_3_">
				<use xlink:href="#XMLID_2_"  style="overflow:visible;"/>
			</clipPath>
			
				<radialGradient id="SVGID_6_" cx="393.0901" cy="281.7574" r="36.6846" gradientTransform="matrix(0.9978 -6.657337e-02 6.657337e-02 0.9978 -17.1884 -50.1157)" gradientUnits="userSpaceOnUse">
				<stop  offset="0" style="stop-color:#F0867A"/>
				<stop  offset="0.2381" style="stop-color:#F0897D"/>
				<stop  offset="0.4293" style="stop-color:#F19387"/>
				<stop  offset="0.6042" style="stop-color:#F2A497"/>
				<stop  offset="0.7695" style="stop-color:#F4BCAD"/>
				<stop  offset="0.9265" style="stop-color:#F6DACA"/>
				<stop  offset="0.9777" style="stop-color:#F7E6D5"/>
			</radialGradient>
			<circle class="st11" cx="390.6" cy="205.1" r="38.5"/>
			
				<radialGradient id="SVGID_7_" cx="538.6725" cy="278.6771" r="36.6846" gradientTransform="matrix(0.9978 -6.657337e-02 6.657337e-02 0.9978 -17.1884 -50.1157)" gradientUnits="userSpaceOnUse">
				<stop  offset="0" style="stop-color:#F0867A"/>
				<stop  offset="0.2381" style="stop-color:#F0897D"/>
				<stop  offset="0.4293" style="stop-color:#F19387"/>
				<stop  offset="0.6042" style="stop-color:#F2A497"/>
				<stop  offset="0.7695" style="stop-color:#F4BCAD"/>
				<stop  offset="0.9265" style="stop-color:#F6DACA"/>
				<stop  offset="0.9777" style="stop-color:#F7E6D5"/>
			</radialGradient>
			<circle class="st12" cx="535.7" cy="192.3" r="38.5"/>
		</g>
		<path class="st13" d="M338.5,166.7c0,0,73.2,13.4,145.2-1l8-25.2l11.5,24.3c0,0,67-11,81.1-17.5c0,0,1.7-126.3-124.7-114.4
			c0,0-37.9-6.5-68.5,3.7S322.3,89.8,338.5,166.7z"/>
		<g>
			<g>
				<path class="st14" d="M417.3,201.8c3.9,0.2,7.8,0.5,11.7,0.7c1.3,0.1,1.3-1.9,0-2c-3.9-0.2-7.8-0.5-11.7-0.7
					C416,199.7,416,201.7,417.3,201.8L417.3,201.8z"/>
			</g>
		</g>
		<g>
			<g>
				<path class="st14" d="M502.1,195.8c3.7-1.2,7.4-2.4,11.1-3.6c1.2-0.4,0.7-2.3-0.5-1.9c-3.7,1.2-7.4,2.4-11.1,3.6
					C500.4,194.3,500.9,196.2,502.1,195.8L502.1,195.8z"/>
			</g>
		</g>
		<g>
			<g>
				<path class="st15" d="M461.3,211c0.6-0.6,1.3-1.1,2.3-1.5c0.7-0.4,1.8-0.7,2.8-0.9c0.9-0.2,1.6-0.3,2.7-0.2c0.3,0,0.2,0,0.6,0.1
					c0.2,0.1,0.1,0.1,0-0.1c0-0.1,0-0.3,0-0.1c0,0.2,0-0.1,0-0.1c-0.2,0.2-0.1,0.3-0.4,0.5c-0.7,0.7-2,1.1-3,1.5
					c-1.2,0.4-2.4,0.8-3.7,1c-0.2,0-0.3,0.1-0.5,0.1c-0.1,0-0.4,0-0.1,0c-0.2,0-0.4,0-0.6,0c0,0-0.5,0-0.2,0c0.2,0-0.2-0.1-0.2-0.1
					c-0.2,0,0,0,0,0c-0.1-0.1-0.1-0.1-0.1,0c0.1,0.1,0.1,0.1,0,0c0.1,0,0.1,0.2,0,0c0,0.1,0,0.2,0.1,0.3c0,0.1,0.1-0.2,0,0
					c0,0,0.2-0.2,0.1-0.1C461.1,211.2,461.1,211.2,461.3,211c0.1,0,0.2-0.1,0.3-0.2c0.3-0.1-0.1,0,0.2-0.1c1.1-0.4,2.2-0.6,3.2-0.7
					c0.6-0.1,1.2-0.1,1.9,0c0.6,0,1.1,0.1,1.5,0.1c-0.1-0.9-0.2-1.8-0.4-2.7c-1.9,1.4-4.2,2.1-6.5,2.7c-1.9,0.5-1.1,3.4,0.8,2.9
					c2.5-0.7,5.2-1.5,7.3-3c0.5-0.4,0.8-0.8,0.7-1.5c-0.1-0.5-0.5-1.1-1.1-1.2c-2.9-0.5-6.1-0.3-8.9,0.9c-1.5,0.7-2.9,2.1-2.5,3.8
					c0.3,1.6,1.9,2.3,3.4,2.4c1.6,0,3.2-0.5,4.7-1c0.9-0.3,1.7-0.6,2.6-1c0.7-0.3,1.5-0.6,2.1-1.1c1.4-1,2.5-2.8,1.5-4.5
					c-0.9-1.4-2.7-1.6-4.2-1.5c-3.1,0.2-6.5,1.3-8.8,3.5C457.8,210.3,459.9,212.4,461.3,211L461.3,211z"/>
			</g>
		</g>
		<g>
			<path class="st14" d="M420.3,201.6c-0.4,1.6,0.4,3.3,1.7,4.2c1.3,0.9,3.2,0.9,4.6,0.1s2.3-2.8,2.4-4.4"/>
			<g>
				<path class="st14" d="M419.4,201.3c-0.5,2.4,0.8,4.9,3.1,5.8c1.1,0.4,2.5,0.5,3.6,0.1c1.1-0.4,2-1.1,2.7-2.1
					c0.7-1.1,1.1-2.3,1.2-3.6c0-0.5-0.5-1-1-1c-0.6,0-1,0.5-1,1c0,0.4-0.2,0.9-0.3,1.4c-0.2,0.5-0.4,0.9-0.7,1.3
					c-0.5,0.7-1.4,1.1-2.3,1.2c-1,0.1-2-0.3-2.6-1c-0.6-0.7-0.9-1.7-0.7-2.5c0.1-0.5-0.2-1.1-0.7-1.2
					C420.1,200.5,419.5,200.8,419.4,201.3L419.4,201.3z"/>
			</g>
		</g>
		<g>
			<path class="st14" d="M501.5,195c0.3,0.7,0.7,1.7,1.2,2.3c1.4,1.6,4.1,1.9,5.9,0.6s2.5-3.7,1.9-5.8"/>
			<g>
				<path class="st14" d="M500.6,195.2c0.4,1.1,0.9,2.3,1.8,3.1c1,0.8,2.1,1.3,3.4,1.3c2.5,0.1,4.7-1.5,5.6-3.8
					c0.5-1.3,0.5-2.7,0.1-4c-0.4-1.2-2.3-0.7-1.9,0.5c0.6,1.9-0.2,4.5-2.3,5.1c-1,0.3-2,0.2-2.9-0.2c-1-0.5-1.4-1.5-1.8-2.5
					c-0.2-0.5-0.7-0.9-1.2-0.7C500.8,194.1,500.4,194.7,500.6,195.2L500.6,195.2z"/>
			</g>
		</g>
	</g>
	<path class="st7" d="M514,235.9c-12.5,25.7-40.8,38.5-65.3,41.7c0,0,0,0,0,0c0,0-6.5-0.6-7.9,0.1c-0.9,0.4-0.7,1.2,0.6,2.3
		c-3.7,0.2-7.7,1.9-6.4,4.1c1.1,1.9,11,0.4,15-0.5c0,0,0,0,0,0c26.2-3.4,56.6-15.8,69.9-43.3C521.9,236,516.1,231.6,514,235.9z"/>
	<path class="st10" d="M408.5,285c0,0,51.8,15.8,121.5-1.5l0.9,7.5c0,0-36.2,6.3-62.2,7.3c-29.6,1.2-60.9-5.8-60.9-5.8L408.5,285z"
		/>
	<g>
		<g>
			<path class="st16" d="M471.8,214.9c0.2,1.3,0.4,2.7,0.8,4c0.1,0.4,0.3,0.7,0.7,0.9c0.3,0.2,0.8,0.3,1.2,0.2
				c0.4-0.1,0.7-0.3,0.9-0.7c0.2-0.3,0.3-0.8,0.2-1.2c-0.3-1-0.6-2.1-0.7-3.2c0,0.1,0,0.3,0.1,0.4c0-0.1,0-0.3,0-0.4
				c0-0.4-0.1-0.8-0.4-1.1c-0.3-0.3-0.7-0.5-1.1-0.4c-0.4,0-0.8,0.1-1.1,0.4C472,214.1,471.8,214.5,471.8,214.9L471.8,214.9z"/>
		</g>
	</g>
	<g>
		<g>
			<path class="st16" d="M473.8,226.7c0,0.1,0,0.3,0,0.4c0,0.2,0,0.4,0.1,0.6c0.1,0.2,0.2,0.3,0.3,0.5c0.1,0.1,0.3,0.2,0.5,0.3
				c0.2,0.1,0.4,0.1,0.6,0.1c0.1,0,0.3,0,0.4-0.1c0.3-0.1,0.5-0.2,0.7-0.4c0.1-0.1,0.2-0.2,0.2-0.3c0.1-0.2,0.2-0.5,0.2-0.8
				c0-0.1,0-0.3,0-0.4c0-0.2,0-0.4-0.1-0.6c-0.1-0.2-0.2-0.3-0.3-0.5c-0.1-0.1-0.3-0.2-0.5-0.3c-0.2-0.1-0.4-0.1-0.6-0.1
				c-0.1,0-0.3,0-0.4,0.1c-0.3,0.1-0.5,0.2-0.7,0.4c-0.1,0.1-0.2,0.2-0.2,0.3C473.8,226.2,473.8,226.5,473.8,226.7L473.8,226.7z"/>
		</g>
	</g>
	<path class="st17" d="M233.6,306.9c-76.1,0-137.8-8.4-137.8-18.8v8.1c0,10.4,61.7,18.8,137.8,18.8s137.8-8.4,137.8-18.8v-8.1
		C371.4,298.4,309.7,306.9,233.6,306.9z"/>
	<ellipse class="st18" cx="233.6" cy="288.1" rx="137.8" ry="18.8"/>
	<ellipse class="st19" cx="271.4" cy="289.8" rx="20.2" ry="1.9"/>
	<ellipse class="st17" cx="118" cy="408.9" rx="4.7" ry="2"/>
	<ellipse class="st17" cx="350.4" cy="408.9" rx="4.7" ry="2"/>
	<ellipse class="st20" cx="243.1" cy="286.1" rx="10.4" ry="2"/>
	<ellipse class="st20" cx="253.5" cy="289.1" rx="3.7" ry="0.7"/>
	<ellipse class="st20" cx="146.8" cy="281.6" rx="2.4" ry="0.5"/>
	<ellipse class="st20" cx="294.7" cy="289.8" rx="3.7" ry="0.7"/>
	<path class="st20" d="M312.5,285.4c0-0.9-3-1.6-7.1-1.9c-0.4-1.1-4.2-1.6-9.4-1.3c0-0.1,0-0.2,0-0.3c-0.2-1.6-7.4-2-15.9-0.8
		c-8.6,1.2-15.4,3.4-15.1,5.1c0.2,1.2,4,1.7,9.5,1.5c0,0.1,0,0.2,0,0.3c0.2,1.6,7.4,2,15.9,0.8c2.9-0.4,5.5-0.9,7.8-1.5
		c1.2,0.1,2.5,0.1,3.9,0.1c1.5,0,2.9-0.1,4.2-0.2c0.3,0.2,1.2,0.3,2.2,0.3c1.3,0,2.4-0.2,2.4-0.5c0-0.1-0.4-0.3-0.9-0.4
		C311.5,286.3,312.5,285.9,312.5,285.4z"/>
	<g>
		<ellipse class="st21" cx="271" cy="272.6" rx="23.7" ry="3.3"/>
		<path class="st22" d="M296.2,272.7c0.1-0.1,0.1-0.3,0.1-0.4c0-2-11.3-3.5-25.3-3.5c-14,0-25.3,1.6-25.3,3.5c0,0.1,0.1,0.3,0.2,0.4
			c0.6,1.3,2.6,5.5,6.5,9.3c4.9,1.6,19.8,5.4,37.4,0.1C292.1,279.8,294.7,276.7,296.2,272.7z"/>
		<path class="st23" d="M252.4,282.1c1.8,1.8,4.1,3.5,6.8,4.9c0,0,0,0,0.1,0c0,0,0.1,0,0.1,0l0,0c0.7,0.3,2.4,0.7,4.7,1l0.3,1
			c0,1.1,3.5,2,7.8,2c4.1,0,7.4-0.8,7.7-1.8l0,0l0.3-1.5c1.9-0.3,3.2-0.7,3.7-1c0,0,2.8-1.6,5.9-4.6
			C272.2,287.4,257.2,283.6,252.4,282.1z"/>
		<ellipse class="st24" cx="271" cy="272.6" rx="22.6" ry="2.6"/>
	</g>
	<ellipse class="st19" cx="188" cy="283.6" rx="27" ry="2.5"/>
	<path class="st20" d="M177.1,278.1c-5.6,0-10.4,0.6-12.8,1.5c0,0,0,0,0,0c-5.8,0-10.4,0.9-10.4,2c0,0.4,0.7,0.8,1.9,1.1
		c-1.8,0.4-2.9,0.8-2.9,1.4c0,1.1,4.7,2,10.4,2s10.4-0.9,10.4-2c0-0.2-0.2-0.4-0.5-0.6c1.2,0.1,2.6,0.1,3.9,0.1
		c7.9,0,14.3-1.2,14.3-2.7C191.4,279.3,185,278.1,177.1,278.1z"/>
	<g>
		<path class="st25" d="M197.6,224.1c0,0-2-0.2-2-3.2c0-3.6,2-3.4,2-3.4s4.5,0.3,4.4-2.9c-0.1-2.7-2.6-2.5-2.6-2.5h-6.1l-4.6,0
			l-4.6,0H178c0,0-2.5-0.2-2.6,2.5c-0.1,3.2,4.4,2.9,4.4,2.9s2-0.2,2,3.4c0,3.1-2,3.2-2,3.2s-24.6,2.7-26,26.6
			c-1.2,20.2,11.3,27.7,21,29.9v1.9c0,0-0.1,1,0.7,1c0.8,0,13.1,0,13.1,0s12.3,0,13.1,0c0.8,0,0.7-1,0.7-1v-1.9
			c9.7-2.2,22.2-9.6,21-29.9C222.2,226.9,197.6,224.1,197.6,224.1z"/>
		<linearGradient id="SVGID_8_" gradientUnits="userSpaceOnUse" x1="214.994" y1="238.6772" x2="188.2248" y2="238.6772">
			<stop  offset="0" style="stop-color:#5D514E;stop-opacity:0.2"/>
			<stop  offset="9.077388e-02" style="stop-color:#554946;stop-opacity:0.2272"/>
			<stop  offset="0.452" style="stop-color:#3A2F29;stop-opacity:0.3356"/>
			<stop  offset="0.7673" style="stop-color:#2A2018;stop-opacity:0.4302"/>
			<stop  offset="1" style="stop-color:#241A12;stop-opacity:0.5"/>
		</linearGradient>
		<path class="st26" d="M212.9,240.6h-22.9c-1.1,0-1.9-0.9-1.9-1.9l0,0c0-1.1,0.9-1.9,1.9-1.9h22.9c1.1,0,1.9,0.9,1.9,1.9l0,0
			C214.8,239.7,213.9,240.6,212.9,240.6z"/>
		<linearGradient id="SVGID_9_" gradientUnits="userSpaceOnUse" x1="214.994" y1="245.6662" x2="188.2248" y2="245.6662">
			<stop  offset="0" style="stop-color:#5D514E;stop-opacity:0.2"/>
			<stop  offset="9.077388e-02" style="stop-color:#554946;stop-opacity:0.2272"/>
			<stop  offset="0.452" style="stop-color:#3A2F29;stop-opacity:0.3356"/>
			<stop  offset="0.7673" style="stop-color:#2A2018;stop-opacity:0.4302"/>
			<stop  offset="1" style="stop-color:#241A12;stop-opacity:0.5"/>
		</linearGradient>
		<path class="st27" d="M212.9,247.6h-22.9c-1.1,0-1.9-0.9-1.9-1.9l0,0c0-1.1,0.9-1.9,1.9-1.9h22.9c1.1,0,1.9,0.9,1.9,1.9l0,0
			C214.8,246.7,213.9,247.6,212.9,247.6z"/>
		<linearGradient id="SVGID_10_" gradientUnits="userSpaceOnUse" x1="215.1918" y1="252.6552" x2="188.4226" y2="252.6552">
			<stop  offset="0" style="stop-color:#5D514E;stop-opacity:0.2"/>
			<stop  offset="9.077388e-02" style="stop-color:#554946;stop-opacity:0.2272"/>
			<stop  offset="0.452" style="stop-color:#3A2F29;stop-opacity:0.3356"/>
			<stop  offset="0.7673" style="stop-color:#2A2018;stop-opacity:0.4302"/>
			<stop  offset="1" style="stop-color:#241A12;stop-opacity:0.5"/>
		</linearGradient>
		<path class="st28" d="M212.9,254.6h-22.9c-1.1,0-1.9-0.9-1.9-1.9v0c0-1.1,0.9-1.9,1.9-1.9h22.9c1.1,0,1.9,0.9,1.9,1.9v0
			C214.8,253.7,213.9,254.6,212.9,254.6z"/>
		<linearGradient id="SVGID_11_" gradientUnits="userSpaceOnUse" x1="215.1918" y1="259.7761" x2="188.4226" y2="259.7761">
			<stop  offset="0" style="stop-color:#5D514E;stop-opacity:0.2"/>
			<stop  offset="9.077388e-02" style="stop-color:#554946;stop-opacity:0.2272"/>
			<stop  offset="0.452" style="stop-color:#3A2F29;stop-opacity:0.3356"/>
			<stop  offset="0.7673" style="stop-color:#2A2018;stop-opacity:0.4302"/>
			<stop  offset="1" style="stop-color:#241A12;stop-opacity:0.5"/>
		</linearGradient>
		<path class="st29" d="M212.9,261.7h-22.9c-1.1,0-1.9-0.9-1.9-1.9l0,0c0-1.1,0.9-1.9,1.9-1.9h22.9c1.1,0,1.9,0.9,1.9,1.9l0,0
			C214.8,260.8,213.9,261.7,212.9,261.7z"/>
		<linearGradient id="SVGID_12_" gradientUnits="userSpaceOnUse" x1="215.2907" y1="266.8805" x2="188.5215" y2="266.8805">
			<stop  offset="0" style="stop-color:#5D514E;stop-opacity:0.2"/>
			<stop  offset="9.077388e-02" style="stop-color:#554946;stop-opacity:0.2272"/>
			<stop  offset="0.452" style="stop-color:#3A2F29;stop-opacity:0.3356"/>
			<stop  offset="0.7673" style="stop-color:#2A2018;stop-opacity:0.4302"/>
			<stop  offset="1" style="stop-color:#241A12;stop-opacity:0.5"/>
		</linearGradient>
		<path class="st30" d="M212.9,268.8h-22.9c-1.1,0-1.9-0.9-1.9-1.9l0,0c0-1.1,0.9-1.9,1.9-1.9h22.9c1.1,0,1.9,0.9,1.9,1.9l0,0
			C214.8,267.9,213.9,268.8,212.9,268.8z"/>
	</g>
	<ellipse class="st20" cx="212.2" cy="282.1" rx="3.7" ry="0.7"/>
</g>
</svg>
