<?xml version="1.0" encoding="utf-8"?>
<!-- Generator: Adobe Illustrator 24.3.0, SVG Export Plug-In . SVG Version: 6.00 Build 0)  -->
<svg version="1.1" id="圖層_3" xmlns="http://www.w3.org/2000/svg" xmlns:xlink="http://www.w3.org/1999/xlink" x="0px" y="0px"
	 viewBox="0 0 652.9 385.5" style="enable-background:new 0 0 652.9 385.5;" xml:space="preserve">
<style type="text/css">
	.st0{opacity:0.8;}
	.st1{fill:#F7E7D6;}
	.st2{fill:#096A52;}
	.st3{fill:#005944;}
	.st4{fill:#F0867A;}
	.st5{fill:#FFFFFF;}
	.st6{fill:#3D3A39;}
	.st7{fill:#E86D64;}
	.st8{clip-path:url(#SVGID_2_);fill:#E0B190;}
	.st9{clip-path:url(#SVGID_2_);fill:#D88A4B;}
	.st10{clip-path:url(#SVGID_2_);}
	.st11{clip-path:url(#SVGID_2_);fill:#E5D5C5;}
	.st12{clip-path:url(#SVGID_2_);fill:#E0A469;}
	.st13{clip-path:url(#SVGID_2_);fill:#544B47;}
	.st14{clip-path:url(#SVGID_2_);fill:#CB783C;}
	.st15{clip-path:url(#SVGID_2_);fill:#383532;}
	.st16{clip-path:url(#SVGID_2_);fill:#D0BFAD;}
	.st17{clip-path:url(#SVGID_2_);fill:#FFFFFF;}
	.st18{clip-path:url(#SVGID_2_);fill:#24211F;}
	.st19{clip-path:url(#SVGID_2_);fill:#263C5B;}
	.st20{clip-path:url(#SVGID_2_);fill:#5F554E;}
	.st21{clip-path:url(#SVGID_2_);fill:#A45E29;}
	.st22{clip-path:url(#SVGID_2_);fill:#B65E43;}
	.st23{fill:#E8E8E8;}
</style>
<g class="st0">
	<defs>
		<ellipse id="XMLID_1_" class="st0" cx="373.5" cy="329.4" rx="253.8" ry="38.6"/>
	</defs>
	<use xlink:href="#XMLID_1_"  style="overflow:visible;fill:#707070;"/>
	<clipPath id="XMLID_4_">
		<use xlink:href="#XMLID_1_"  style="overflow:visible;"/>
	</clipPath>
</g>
<path class="st1" d="M211.4,306.5c-15.7,2.2-31.4,4.4-47.2,6.6c-0.3-0.1-0.5-0.1-0.8,0c-7.2,1.3-15.8,0.5-21.3,6.3
	c-1.3,1.3-2,3-1.4,4.9c0.6,1.8,2.2,2.9,3.9,3.5c3.7,1.2,8,1,11.8,0.3c1.2-0.2,2.3-0.5,3.5-0.8c-0.3,1.3-0.3,2.6,0.3,3.8
	c0.6,1.1,1.7,1.8,3,1.7c1.4-0.2,2.2-1.2,2.9-2.3c1.4-1.9,2.5-4,3.4-6.2c15-2.1,30-4.2,45-6.3C222.2,317,219,305.5,211.4,306.5z
	 M159.7,317.6C159.7,317.6,159.7,317.6,159.7,317.6C159.7,317.6,159.7,317.6,159.7,317.6C159.7,317.6,159.7,317.6,159.7,317.6z
	 M163.8,329.2C163.8,329.2,163.8,329.2,163.8,329.2L163.8,329.2z"/>
<g>
	<g>
		<defs>
			<path id="XMLID_58_" d="M539,301.9c-0.2-0.3-0.5-0.5-0.9-0.5c-24.2,1.4-48.4,2.8-72.6,4.1c-6.8,0.4-13.6,0.8-20.4,1.2
				c-1.3,0.1-1,2,0.3,2c0.4,0,0.9,0,1.3-0.1c0,0.2,0.1,0.4,0.3,0.5c-0.5,0.4-0.3,1.3,0.3,1.6c0,0.1,0,0.3,0.1,0.4
				c-0.3,0.4-0.3,0.9,0,1.3c-0.4,0-0.8,0-1.2,0.1c-1.3,0.1-1,2,0.3,2c24.2-1.4,48.4-2.8,72.6-4.1c6.8-0.4,13.6-0.8,20.4-1.2
				c0.6,0,0.9-0.6,0.8-1c0.3-0.1,0.5-0.4,0.5-0.8c0-0.6,0-1.1-0.1-1.6c-0.1-1-0.2-2-0.4-3.1C540.1,302,539.5,301.8,539,301.9z
				 M508.1,305.7C508,305.7,508,305.7,508.1,305.7C508,305.7,508.1,305.7,508.1,305.7C508.1,305.7,508.1,305.7,508.1,305.7z
				 M531.2,303.9c-0.2,0-0.3,0-0.5,0c0,0,0-0.1,0-0.1c0.3,0,0.6,0,0.9-0.1C531.5,303.8,531.4,303.9,531.2,303.9z M456.3,311.9
				c0.4,0,0.9,0,1.3,0c-0.6,0-1.1,0.1-1.7,0.1C456.1,311.9,456.2,311.9,456.3,311.9z M537.8,307.2
				C537.8,307.3,537.8,307.3,537.8,307.2c0,0-0.1,0-0.1,0C537.7,307.3,537.7,307.3,537.8,307.2z"/>
		</defs>
		<use xlink:href="#XMLID_58_"  style="overflow:visible;fill:#CB3E54;"/>
		<clipPath id="XMLID_5_">
			<use xlink:href="#XMLID_58_"  style="overflow:visible;"/>
		</clipPath>
	</g>
	<g>
		<defs>
			<path id="XMLID_57_" d="M549.1,315.6c-0.1-0.3-0.4-0.6-0.8-0.6c-24.1-2.2-48.3-4.4-72.4-6.6c-6.8-0.6-13.6-1.2-20.3-1.9
				c-1.3-0.1-1.3,1.9,0,2c0.4,0,0.9,0.1,1.3,0.1c0,0.2,0.1,0.4,0.2,0.6c-0.5,0.3-0.5,1.2,0,1.6c0,0.1,0,0.3,0,0.4
				c-0.3,0.3-0.4,0.9-0.2,1.3c-0.4,0-0.8-0.1-1.2-0.1c-1.3-0.1-1.3,1.9,0,2c24.1,2.2,48.3,4.4,72.4,6.6c6.8,0.6,13.6,1.2,20.3,1.9
				c0.6,0.1,1-0.4,1-0.9c0.3-0.1,0.6-0.3,0.7-0.7c0.1-0.6,0.1-1.1,0.1-1.6c0-1,0.1-2.1,0.1-3.1C550.2,315.9,549.7,315.6,549.1,315.6
				z M518,314.8C518,314.8,518,314.8,518,314.8C518,314.8,518,314.8,518,314.8C518,314.8,518,314.8,518,314.8z M541.2,316.5
				c-0.2,0-0.3-0.1-0.5-0.1c0,0,0-0.1,0-0.1c0.3,0,0.6,0.1,0.9,0.1C541.5,316.4,541.3,316.4,541.2,316.5z M465.9,313.3
				c0.4,0.1,0.9,0.1,1.3,0.2c-0.6-0.1-1.1-0.1-1.7-0.2C465.7,313.3,465.8,313.3,465.9,313.3z M547.2,320.7
				C547.2,320.7,547.2,320.7,547.2,320.7c0,0-0.1,0-0.1,0C547.1,320.7,547.2,320.7,547.2,320.7z"/>
		</defs>
		<use xlink:href="#XMLID_57_"  style="overflow:visible;fill:#CB3E54;"/>
		<clipPath id="XMLID_6_">
			<use xlink:href="#XMLID_57_"  style="overflow:visible;"/>
		</clipPath>
	</g>
	<g>
		<defs>
			<path id="XMLID_3_" d="M292.8,329.9l177.9,2.8c0,0,29.7-29.8,26.6-59.6S476.5,223,476.5,223l-69.9,5.3L292.8,329.9"/>
		</defs>
		<use xlink:href="#XMLID_3_"  style="overflow:visible;fill:#096A52;"/>
		<clipPath id="XMLID_7_">
			<use xlink:href="#XMLID_3_"  style="overflow:visible;"/>
		</clipPath>
	</g>
	<g>
		<g>
			<path class="st2" d="M335.2,303.1c9,0,9-14,0-14C326.2,289.1,326.2,303.1,335.2,303.1L335.2,303.1z"/>
		</g>
	</g>
	<g>
		<defs>
			<path id="XMLID_52_" d="M352.3,330.9c0,0-23.9-5.8-22.1-39.4l0,0l-42.9,38.3L352.3,330.9z"/>
		</defs>
		<use xlink:href="#XMLID_52_"  style="overflow:visible;fill:#D3C5B8;"/>
		<clipPath id="XMLID_8_">
			<use xlink:href="#XMLID_52_"  style="overflow:visible;"/>
		</clipPath>
	</g>
	<path class="st3" d="M358.1,330.9c0,0-23.9-5.8-22.1-39.4l0,0l-5.9,5.3c0.9,28.8,22.2,34,22.2,34L358.1,330.9z"/>
	<g>
		<defs>
			<path id="XMLID_54_" d="M379.6,282.3c0,0-2.1,11.1,7.6,21.8c5.8,6.4,22.4,9.6,35.9,0.9c7.2-4.7,14.4-13.6,14-24.3
				c-0.3-10.7-7.5-24.8-22.3-25.2C400.1,255.2,379.6,270.3,379.6,282.3z"/>
		</defs>
		<clipPath id="XMLID_9_">
			<use xlink:href="#XMLID_54_"  style="overflow:visible;"/>
		</clipPath>
	</g>
	<g>
		<defs>
			<path id="XMLID_59_" d="M551.8,313.8c-1.2-1.1-2.9-1.5-4.4-0.7c-1,0.5-1.6,1.5-1.7,2.5c0,0,0,0,0,0.1c0,0.1,0,0.1,0,0.2
				c0,0.1,0,0.2,0,0.2c-0.1,1.4-0.1,2.8-0.1,4.2c-0.1,2.2-0.1,4.3,0.2,6.5c0.2,1.6,0.6,3.3,1.7,4.5c1,1,2.4,1.6,3.8,1.1
				c3.5-1.1,3-5.6,2.8-8.4c-0.1-2-0.1-4-0.3-6C553.5,316.5,553,314.9,551.8,313.8z"/>
		</defs>
		<use xlink:href="#XMLID_59_"  style="overflow:visible;fill:#5F554E;"/>
		<clipPath id="XMLID_10_">
			<use xlink:href="#XMLID_59_"  style="overflow:visible;"/>
		</clipPath>
	</g>
	<g>
		<defs>
			<path id="XMLID_56_" d="M452.9,224.1l-4.5,0.3c11.3,18.8,14.6,39.7,10.3,61.7c-0.1,0-0.1,0-0.2,0c-1.4-2.6-4.2-6.7-6.9-4.7
				c-1.9,1.4-0.7,4.2,0.9,6.7c-2.8,1.3-5.3,3.2-4.7,5.9c1,4.3,6.7,1.2,9.1-0.4c-5.5,20.4-23.2,39.1-23.2,39.1l5.3,0.1
				c15.3-17.8,25.1-33.6,26.5-61.9C466.8,242.5,452.9,224.1,452.9,224.1z M452,293.6c0,0-4.4,0.7-2-1.9c1.2-1.3,2.4-2.1,3.3-2.6
				c0.5,0.7,1,1.3,1.5,1.8c0.2,0.5,0.5,1,0.9,1.3L452,293.6z M452.3,284.1c-0.7-3.1,2.6-0.1,2.6-0.1l1.8,2.3
				c-0.3,0.1-0.6,0.3-0.9,0.6c-0.7,0.2-1.4,0.5-2.1,0.7C453.1,286.8,452.6,285.7,452.3,284.1z M454.5,289c0,0-0.1-0.1-0.2-0.3
				c0.2-0.1,0.4-0.1,0.4-0.2c0,0,0,0,0,0.1c0,0.2-0.1,0.3-0.1,0.5L454.5,289z"/>
		</defs>
		<use xlink:href="#XMLID_56_"  style="overflow:visible;fill:#DC6897;"/>
		<clipPath id="XMLID_11_">
			<use xlink:href="#XMLID_56_"  style="overflow:visible;"/>
		</clipPath>
	</g>
</g>
<g>
	<defs>
		<path id="XMLID_45_" d="M373.7,291.5c0,0-2.1,11.1,7.6,21.8c5.8,6.4,22.4,9.6,35.9,0.9c7.2-4.7,14.4-13.6,14-24.3
			c-0.3-10.7-7.5-24.8-22.3-25.2C394.2,264.4,373.6,279.5,373.7,291.5z"/>
	</defs>
	<use xlink:href="#XMLID_45_"  style="overflow:visible;fill:#EAC2A6;"/>
	<clipPath id="XMLID_12_">
		<use xlink:href="#XMLID_45_"  style="overflow:visible;"/>
	</clipPath>
</g>
<path class="st4" d="M417.9,185.3l10.5,17.6l4.9-65.9c-25-19.7-67.2-4-67.2-4l-34.5,34.4l5.8,62.8l60.3-3.4
	C397.8,226.8,394.6,206.1,417.9,185.3z"/>
<g>
	<defs>
		<path id="XMLID_60_" d="M566.6,245.1c-1.5-0.6-3.3-0.4-4.4,0.8c-0.8,0.8-1,1.9-0.8,2.9c0,0,0,0.1,0,0.1c0,0.1,0,0.1,0.1,0.2
			c0,0.1,0,0.2,0.1,0.2c0.4,1.3,0.8,2.7,1.3,4c0.6,2.1,1.3,4.1,2.4,6.1c0.7,1.4,1.6,2.9,3.2,3.7c1.2,0.6,2.8,0.7,3.9-0.2
			c3-2.2,0.9-6.2-0.2-8.9c-0.8-1.8-1.4-3.7-2.3-5.5C569.1,247.1,568.1,245.7,566.6,245.1z"/>
	</defs>
	<use xlink:href="#XMLID_60_"  style="overflow:visible;fill:#5F554E;"/>
	<clipPath id="XMLID_13_">
		<use xlink:href="#XMLID_60_"  style="overflow:visible;"/>
	</clipPath>
</g>
<g>
	<defs>
		<path id="XMLID_30_" d="M486.9,63.7c15.1,16.1,14.3,41.5-1.8,56.6s-57.8,16.3-72.9,0.2c-15.1-16.1-14.3-41.5,1.8-56.6
			C430.1,48.8,471.8,47.6,486.9,63.7z"/>
	</defs>
	<use xlink:href="#XMLID_30_"  style="overflow:visible;fill:#A05C2D;"/>
	<clipPath id="XMLID_14_">
		<use xlink:href="#XMLID_30_"  style="overflow:visible;"/>
	</clipPath>
</g>
<path class="st4" d="M517.6,269.9c0,0-18.1,2-13.1,22.4c5,20.4,28.3,44.8,53.7,33.1c25.4-11.7,32.3-38.5,27.1-66.2
	C585.3,259.3,562.4,282,517.6,269.9z"/>
<path class="st4" d="M458.3,243.7l-29.9-40.8l-10.5-17.6c-23.3,20.9-20.1,41.5-20.1,41.5s-4.5,116.2,47.1,115.3
	c51.5-0.9,68.6-31.1,69.7-43.7S458.3,243.7,458.3,243.7z"/>
<path id="XMLID_29_" class="st1" d="M622.1,218.2c-9.3,54.5-63.1,69.4-120.5,55.2c-57.9-14.3-94.6-50.4-81-105
	c11.6-46.7,66.1-73.4,121.7-59.7C597.9,122.4,630.1,170.7,622.1,218.2"/>
<g>
	<defs>
		<path id="XMLID_27_" d="M634.6,220.9c0,0,0-0.1,0-0.1c0.3-1.6,0.6-3.1,0.9-4.6c0.2-1.3,0.4-2.7,0.5-4.1c2.8-16.4,4-27.7,4-27.7
			c3.8-33-17.7-79-76.9-98.5c-48.9-16-71.9,0.2-78.5,6.3c-8.9-1.6-17-0.3-24.5,3.1c-15.6,5.5-34.8,19.5-46.5,54.2
			c-2.4,7.1-4.1,13.4-5.4,19.2c-8.2,38.9,7.8,49.9,14.4,52.7l0,0c1.6,0.7,2.6,0.9,2.6,0.9s0.7-23.4,12.3-39.5l0,0
			c41.1,9.4,90-17.9,90-17.9c-0.1,9.6-10.6,15.5-10.6,15.5c22.7,2,38-23.9,38-23.9c30.1-1,40.8,26.2,40.8,26.2s5.5,9.6,6.1,29.3
			c0,0.8,0,1.7,0.1,2.6c0,0,0.2,28.9-8.1,49.6C593.9,264.1,624,267,634.6,220.9z"/>
	</defs>
	<use xlink:href="#XMLID_27_"  style="overflow:visible;fill:#A05C2D;"/>
	<clipPath id="XMLID_15_">
		<use xlink:href="#XMLID_27_"  style="overflow:visible;"/>
	</clipPath>
</g>
<g>
	<g>
		<defs>
			<path id="XMLID_50_" d="M166.8,277.1c0,0-11.7-3.4-8.7,8c3,11.5,14.9,12.5,18.9,8.9C181,290.5,166.8,277.1,166.8,277.1"/>
		</defs>
		<use xlink:href="#XMLID_50_"  style="overflow:visible;fill:#F7E7D6;"/>
		<clipPath id="XMLID_16_">
			<use xlink:href="#XMLID_50_"  style="overflow:visible;"/>
		</clipPath>
	</g>
	<g>
		<defs>
			<path id="XMLID_51_" d="M377.1,281.7c0,0,11.8-2.9,8.3,8.4c-3.5,11.3-15.4,11.8-19.2,8.1C362.4,294.4,377.1,281.7,377.1,281.7"/>
		</defs>
		<use xlink:href="#XMLID_51_"  style="overflow:visible;fill:#F7E7D6;"/>
		<clipPath id="XMLID_17_">
			<use xlink:href="#XMLID_51_"  style="overflow:visible;"/>
		</clipPath>
	</g>
	<g>
		<defs>
			<path id="XMLID_49_" d="M386.8,244.1c3.2,61.5-51.6,90.7-117.3,89.2c-66.3-1.4-115-31.6-113.6-94.3
				c1.2-53.6,53.8-95.8,117.6-94.5C337.2,146,384,190.6,386.8,244.1"/>
		</defs>
		<use xlink:href="#XMLID_49_"  style="overflow:visible;fill:#F7E7D6;"/>
		<clipPath id="XMLID_18_">
			<use xlink:href="#XMLID_49_"  style="overflow:visible;"/>
		</clipPath>
	</g>
	<g>
		<defs>
			<path id="XMLID_48_" d="M378.2,284.3c-0.6,0.5-4.4,2-6.3,1.9c-13.6-0.4-26.9-5.8-63.2-37.6c-33.2,31.1-122.8,33.3-141.5,32.6
				c-1.6-0.1-4.1-0.7-4.7-1.5c-0.6-0.7-1.4-2.8-1.9-4c-15.1-40-22.8-114.1,51-132.8c120.5-75.7,232.2,59.3,173.3,133.5
				C383.8,278,379.6,283.2,378.2,284.3"/>
		</defs>
		<use xlink:href="#XMLID_48_"  style="overflow:visible;fill:#63AD9B;"/>
		<clipPath id="XMLID_19_">
			<use xlink:href="#XMLID_48_"  style="overflow:visible;"/>
		</clipPath>
	</g>
	<g>
		<defs>
			<path id="XMLID_68_" d="M308.5,244.1c-0.2-0.9-0.4-1.5-0.5-1.6l-0.6,0.2c-0.1-0.2-0.2-0.3-0.2-0.3l-0.3,0.2l-0.3,0.2
				c0,0,0.4,0.5,1,1.3l0.2,0.4l0.1,2.9l-10.1,17.6c-0.2,0.1-0.4,0.3-0.6,0.4l0.2,0.3l0.2,0.3c5.8-3.5,8.9-10.2,10.4-15l0.6,18.8
				c-0.1,0.2-0.2,0.4-0.3,0.7l0.3,0.2l0.3,0.2c3.2-6.2,2-15.8,0.7-22.1l7.7,17.3c0,0.1-0.1,0.3-0.1,0.4l0.4,0.1l0.4,0.1
				C320,260.6,311.8,248.5,308.5,244.1"/>
		</defs>
		<use xlink:href="#XMLID_68_"  style="overflow:visible;fill:#63AD9B;"/>
		<clipPath id="XMLID_20_">
			<use xlink:href="#XMLID_68_"  style="overflow:visible;"/>
		</clipPath>
	</g>
	<g>
		<defs>
			<path id="XMLID_44_" d="M339.6,100.9c-0.1-0.2-0.2-0.4-0.4-0.6c-0.1-0.2-0.3-0.4-0.4-0.5c-0.2-0.2-0.3-0.4-0.5-0.5
				c-0.2-0.2-0.2-0.4-0.4-0.6c-0.2-0.2,0.1-0.7-0.1-0.9c-0.2-0.2-0.7,0-0.8-0.1c-0.2-0.2-0.2-0.5-0.3-0.7c-0.2-0.1-0.4-0.3-0.5-0.4
				c-0.2-0.1-0.7,0.1-0.9,0c-0.2-0.1-0.2-0.6-0.3-0.7c-0.2-0.1-0.2-0.5-0.4-0.6c-0.2-0.1-0.7,0.2-0.9,0.1c-0.2-0.1-0.2-0.6-0.4-0.7
				c-0.2-0.1-0.6,0-0.8-0.1c-0.2-0.1-0.1-0.7-0.3-0.9c-0.2-0.1-0.8,0.4-1,0.3c-0.2-0.1-0.5-0.1-0.7-0.2c-0.2-0.1-0.1-0.7-0.4-0.8
				c-0.2-0.1-0.3-0.4-0.5-0.5c-0.2-0.1-0.7,0.5-0.9,0.4c-0.2-0.1-0.4-0.2-0.6-0.3c-0.2-0.1-0.3-0.3-0.6-0.4
				c-0.2-0.1-0.3-0.6-0.5-0.6c-0.2-0.1-0.5,0.1-0.7,0c-0.2-0.1-0.3-0.4-0.5-0.5c-0.2-0.1-0.6,0.2-0.8,0.2c-0.2-0.1-0.5-0.1-0.7-0.2
				c-0.2-0.1-0.5-0.1-0.7-0.2c-0.2-0.1-0.3-0.7-0.5-0.8c-0.2-0.1-0.5,0-0.7,0c-0.2-0.1-0.5,0-0.7,0c-0.2-0.1-0.3-0.6-0.5-0.6
				c-0.2-0.1-0.6,0.3-0.8,0.2c-0.2-0.1-0.4-0.4-0.6-0.5c-0.2-0.1-0.4-0.1-0.7-0.2c-0.2-0.1-0.5,0.1-0.7,0c-0.2-0.1-0.3-0.7-0.5-0.7
				c-0.2-0.1-0.5,0.3-0.8,0.2c-0.2-0.1-0.5,0.2-0.7,0.1c-0.2,0-0.4-0.6-0.6-0.6c-0.2,0-0.6,0.5-0.8,0.5c-0.2,0-0.4-0.2-0.7-0.2
				c-0.2,0-0.4-0.6-0.6-0.7c-0.2,0-0.5,0.3-0.8,0.2c-0.2,0-0.4-0.2-0.7-0.2c-0.2,0-0.5,0.4-0.8,0.3c-0.2,0-0.4-0.1-0.7-0.1
				c-0.2,0-0.4-0.5-0.6-0.6c-0.2,0-0.5,0-0.7,0c-0.2,0-0.4-0.4-0.7-0.4c-0.2,0-0.6,0.7-0.8,0.7c-0.2,0-0.4-0.9-0.6-0.9
				c-0.2,0-0.5,0.2-0.7,0.2c-0.2,0-0.5,0.4-0.7,0.4c-0.2,0-0.4-0.2-0.7-0.2c-0.2,0-0.5-0.1-0.7-0.2c-0.2,0-0.5,0-0.7,0
				c-0.2,0-0.5-0.1-0.7-0.1c-0.2,0-0.5,0.1-0.7,0.1c-0.2,0-0.5,0.2-0.7,0.2c-0.2,0-0.4-0.9-0.7-0.9c-0.2,0-0.5,0.7-0.7,0.7
				c-0.2,0-0.5,0.2-0.7,0.2c-0.2,0-0.5-0.5-0.7-0.5c-0.2,0-0.5,0.3-0.7,0.3c-0.2,0-0.5-0.4-0.7-0.4c-0.2,0-0.5,0.5-0.7,0.5
				c-0.2,0-0.5-0.6-0.7-0.6c-0.2,0-0.5,0.1-0.7,0.1c-0.2,0-0.5,0.1-0.7,0.1c-0.2,0-0.5,0.2-0.7,0.2c-0.2,0-0.5,0.1-0.7,0.1
				c-0.2,0-0.5-0.5-0.7-0.5c-0.2,0-0.4,0.7-0.7,0.8c-0.2,0-0.5-0.8-0.7-0.8c-0.2,0-0.5,0-0.7,0.1c-0.2,0-0.4,0.8-0.7,0.8
				c-0.2,0-0.5-0.9-0.7-0.9c-0.2,0-0.5,0.2-0.7,0.2c-0.2,0-0.5,0.2-0.7,0.2c-0.2,0-0.5-0.3-0.7-0.3c-0.2,0-0.5,0.1-0.7,0.1
				c-0.2,0-0.5,0.1-0.7,0.1c-0.2,0-0.4,0.3-0.7,0.3c-0.2,0-0.4,0.6-0.6,0.6c-0.2,0-0.5-0.1-0.7-0.1c-0.2,0-0.5-0.2-0.7-0.1
				c-0.2,0-0.5-0.5-0.8-0.4c-0.2,0-0.4,0.3-0.7,0.3c-0.2,0-0.4,0.3-0.7,0.4c-0.2,0-0.5,0.1-0.7,0.1c-0.2,0-0.5-0.5-0.8-0.5
				c-0.2,0-0.4,0.5-0.6,0.6c-0.2,0-0.5-0.1-0.7-0.1c-0.2,0-0.4,0.3-0.7,0.3c-0.2,0-0.4,0.2-0.7,0.2c-0.2,0-0.5-0.4-0.8-0.3
				c-0.2,0-0.5-0.1-0.7-0.1c-0.2,0-0.4,0.2-0.7,0.2c-0.2,0-0.5,0.1-0.7,0.2c-0.2,0-0.4,0.2-0.7,0.3c-0.2,0-0.4,0.2-0.7,0.3
				c-0.2,0-0.5-0.1-0.7-0.1c-0.2,0-0.5-0.1-0.7-0.1c-0.2,0-0.3,0.8-0.5,0.9c-0.2,0-0.5,0-0.7,0c-0.2,0-0.5,0-0.7,0s-0.5-0.2-0.8-0.2
				c-0.2,0-0.4,0.4-0.6,0.5c-0.2,0-0.5-0.1-0.7-0.1c-0.2,0.1-0.3,0.6-0.6,0.7c-0.2,0.1-0.5-0.1-0.7-0.1c-0.2,0.1-0.5-0.1-0.7-0.1
				c-0.2,0.1-0.5,0-0.7,0.1c-0.2,0.1-0.4,0.2-0.6,0.3c-0.2,0.1-0.3,0.6-0.6,0.7c-0.2,0.1-0.6-0.4-0.8-0.4c-0.2,0.1-0.5-0.1-0.7,0
				c-0.2,0.1-0.4,0.2-0.7,0.2c-0.2,0.1-0.3,0.8-0.5,0.8c-0.2,0.1-0.6-0.6-0.9-0.5c-0.2,0.1-0.3,0.5-0.6,0.6
				c-0.2,0.1-0.4,0.3-0.6,0.4s-0.6-0.5-0.8-0.4c-0.2,0.1-0.3,0.6-0.5,0.7c-0.2,0.1-0.4,0.3-0.6,0.3s-0.6-0.5-0.9-0.4
				c-0.2,0.1-0.4,0.3-0.6,0.3c-0.2,0.1-0.5,0-0.7,0.1c-0.2,0.1-0.5,0-0.7,0.1c-0.2,0.1-0.2,0.8-0.5,0.8c-0.2,0.1-0.6-0.4-0.9-0.4
				c-0.2,0.1-0.2,1-0.4,1c-0.2,0.1-0.6-0.3-0.8-0.2c-0.2,0.1-0.4,0.3-0.6,0.4c-0.2,0.1-0.4,0.2-0.6,0.3c-0.2,0.1-0.6-0.2-0.8-0.2
				c-0.2,0.1-0.3,0.5-0.6,0.5c-0.2,0.1-0.6-0.3-0.8-0.3c-0.2,0.1-0.2,0.8-0.4,0.9c-0.2,0.1-0.6-0.3-0.8-0.2
				c-0.2,0.1-0.6-0.2-0.8-0.1c-0.2,0.1-0.3,0.6-0.5,0.7c-0.2,0.1-0.3,0.6-0.5,0.7c-0.2,0.1-0.8-0.7-1-0.6c-0.2,0.1-0.4,0.2-0.6,0.3
				c-0.2,0.1-0.2,0.8-0.4,0.9c-0.2,0.1-0.5,0-0.7,0c-0.2,0.1-0.4,0.3-0.6,0.4c-0.2,0.1-0.7-0.4-0.9-0.3c-0.2,0.1-0.3,0.4-0.5,0.5
				c-0.2,0.1-0.5,0-0.7,0c-0.2,0.1-0.1,0.8-0.4,0.9c-0.2,0.1-0.6-0.2-0.8-0.1c-0.2,0.1-0.4,0.3-0.6,0.4c-0.2,0.1-0.3,0.4-0.5,0.5
				c-0.2,0.1-0.4,0.2-0.6,0.3c-0.2,0.1-0.8-0.6-1-0.5c-0.2,0.1-0.4,0.3-0.6,0.4c-0.2,0.1-0.2,0.6-0.5,0.7c-0.2,0.1-0.4,0.3-0.6,0.4
				c-0.2,0.1-0.6-0.2-0.8-0.1c-0.2,0.1-0.3,0.5-0.5,0.6c-0.2,0.1-0.5,0-0.7,0.1c-0.2,0.1-0.5-0.1-0.8,0.1c-0.2,0.1-0.2,0.6-0.4,0.7
				c-0.2,0.1-0.7-0.3-0.9-0.2c-0.2,0.1-0.1,0.9-0.3,1c-0.2,0.1-0.7-0.3-0.9-0.2c-0.2,0.1-0.1,0.8-0.3,0.9c-0.2,0.1-0.6-0.1-0.8,0
				c-0.2,0.1-0.4,0.3-0.6,0.4c-0.2,0.1-0.4,0.3-0.6,0.4c-0.2,0.1-0.4,0.3-0.6,0.4c-0.2,0.1-0.8-0.5-1-0.4c-0.2,0.1-0.4,0.2-0.6,0.3
				c-0.2,0.1-0.3,0.5-0.5,0.6c-0.2,0.1-0.2,0.6-0.4,0.7c-0.2,0.1-0.7-0.4-0.9-0.3c-0.2,0.1-0.3,0.4-0.5,0.5
				c-0.2,0.1-0.4,0.3-0.6,0.4c-0.2,0.1-0.3,0.3-0.5,0.5c-0.2,0.1-0.4,0.2-0.6,0.3c-0.2,0.1-0.4,0.3-0.6,0.4
				c-0.2,0.1-0.2,0.5-0.4,0.6s-0.6-0.1-0.8,0c-0.2,0.1-0.5,0.1-0.7,0.2s-0.1,0.8-0.3,0.9c-0.2,0.1-0.5,0-0.7,0.1
				c-0.2,0.1-0.3,0.4-0.5,0.5c-0.2,0.1-0.6-0.2-0.8,0c-0.2,0.1-0.2,0.6-0.4,0.7c-0.2,0.1-0.5,0-0.7,0.2c-0.2,0.1-0.3,0.4-0.5,0.5
				c-0.2,0.1-0.3,0.4-0.5,0.5c-0.2,0.1-0.8-0.3-0.9-0.2c-0.2,0.1,0,0.9-0.2,1c-0.2,0.1-0.5,0-0.7,0.1c-0.2,0.1-0.7-0.3-0.9-0.1
				c-0.2,0.1-0.4,0.2-0.6,0.4c-0.2,0.1,0.1,1-0.1,1.1c-0.2,0.1-0.6,0-0.7,0.1c-0.2,0.1-0.3,0.4-0.5,0.6c-0.2,0.1-0.4,0.3-0.6,0.4
				c-0.2,0.1-0.6,0-0.8,0.1c-0.2,0.1-0.5,0.1-0.7,0.2c-0.2,0.1-0.5,0.1-0.7,0.3c-0.2,0.1-0.3,0.5-0.4,0.6c-0.2,0.1-0.4,0.2-0.6,0.4
				c-0.2,0.1-0.1,0.7-0.3,0.8s-0.8-0.4-1-0.2c-0.2,0.1-0.2,0.5-0.4,0.6c-0.2,0.1-0.2,0.5-0.4,0.7c-0.2,0.1-0.4,0.2-0.6,0.3
				c-0.2,0.1-0.7-0.2-0.9,0c-0.2,0.1-0.1,0.7-0.2,0.8c-0.2,0.1-0.6,0-0.8,0.1c-0.2,0.1-0.2,0.5-0.4,0.6c-0.2,0.1,0,0.7-0.2,0.9
				c-0.2,0.1-0.7-0.1-0.9,0s-0.2,0.5-0.4,0.7c-0.2,0.1-0.8-0.2-0.9,0c-0.2,0.1-0.4,0.2-0.6,0.4c-0.2,0.1,0,0.8-0.2,0.9
				c-0.2,0.1-0.2,0.5-0.4,0.7c-0.2,0.1-0.7-0.1-0.9,0.1c-0.2,0.1-0.5,0.1-0.7,0.3c-0.2,0.1-0.3,0.4-0.5,0.5
				c-0.2,0.1-0.2,0.4-0.4,0.6c-0.2,0.1-0.2,0.5-0.4,0.7c-0.2,0.1-0.5,0.2-0.6,0.3c-0.2,0.2-0.2,0.5-0.4,0.7
				c-0.2,0.2-0.7-0.1-0.9,0.1c-0.2,0.2-0.6,0.1-0.7,0.2c-0.2,0.2,0,0.7-0.2,0.9c-0.2,0.2-0.3,0.4-0.5,0.5c-0.2,0.2-0.5,0.1-0.7,0.3
				c-0.2,0.2-0.3,0.3-0.5,0.5c-0.2,0.2-0.1,0.6-0.3,0.7c-0.2,0.2-0.5,0.1-0.7,0.3c-0.2,0.2,0,0.6-0.2,0.8c-0.2,0.2-0.9-0.2-1-0.1
				c-0.2,0.2,0.1,0.8-0.1,1c-0.2,0.2-0.3,0.4-0.4,0.5c-0.2,0.2-0.4,0.2-0.6,0.4c-0.2,0.2-0.4,0.3-0.6,0.4c-0.2,0.2-0.4,0.2-0.6,0.4
				c-0.2,0.2-0.7-0.1-0.9,0.1c-0.2,0.2,0.2,0.9,0,1c-0.2,0.2-0.2,0.4-0.4,0.6c-0.2,0.2-0.9-0.3-1.1-0.1c-0.2,0.2-0.3,0.3-0.5,0.5
				s-0.2,0.4-0.4,0.6c-0.2,0.2-0.3,0.3-0.5,0.5c-0.2,0.2-0.5,0.2-0.6,0.4c-0.2,0.2-0.1,0.5-0.3,0.7c-0.2,0.2-0.3,0.4-0.4,0.6
				c-0.2,0.2-0.1,0.6-0.2,0.7c-0.2,0.2-0.4,0.2-0.6,0.4c-0.2,0.2-0.5,0.2-0.7,0.3c-0.2,0.2-0.4,0.2-0.6,0.4c-0.2,0.2,0.1,0.8,0,0.9
				c-0.2,0.2-0.7,0-0.8,0.2c-0.2,0.2,0.1,0.7,0,0.9c-0.2,0.2-0.8-0.1-0.9,0.1c-0.2,0.2-0.2,0.5-0.3,0.6c-0.2,0.2-0.3,0.4-0.4,0.6
				c-0.2,0.2-0.2,0.5-0.3,0.6c-0.2,0.2-0.4,0.3-0.5,0.5c-0.2,0.2-0.1,0.5-0.3,0.7c-0.2,0.2-0.5,0.1-0.7,0.3
				c-0.2,0.2-0.2,0.5-0.3,0.6c-0.2,0.2-0.2,0.4-0.4,0.6c-0.2,0.2-0.6,0.1-0.7,0.3c-0.2,0.2-0.4,0.2-0.6,0.4
				c-0.2,0.2-0.4,0.3-0.5,0.5c-0.2,0.2,0.2,0.8,0,0.9c-0.2,0.2-0.4,0.2-0.6,0.4c-0.2,0.2-0.8,0-0.9,0.1c-0.1,0.2-0.1,0.5-0.2,0.7
				c-0.1,0.2-0.2,0.5-0.3,0.6c-0.1,0.2-0.3,0.4-0.4,0.6c-0.1,0.2,0,0.6-0.1,0.8c-0.1,0.2-0.4,0.3-0.6,0.4c-0.1,0.2-0.6,0.1-0.7,0.3
				c-0.1,0.2-0.5,0.2-0.6,0.4s0.1,0.7,0,0.9c-0.1,0.2-0.4,0.3-0.6,0.4c-0.1,0.2,0,0.6-0.2,0.7c-0.1,0.2-0.9-0.1-1,0.1
				c-0.1,0.2-0.2,0.4-0.4,0.6c-0.1,0.2,0,0.6-0.2,0.8c-0.1,0.2-0.6,0.2-0.7,0.3c-0.1,0.2,0.2,0.7,0.1,0.9c-0.1,0.2-0.4,0.3-0.5,0.5
				c-0.1,0.2-0.1,0.5-0.2,0.7c-0.1,0.2-0.4,0.3-0.6,0.5c-0.1,0.2-0.1,0.5-0.2,0.7c-0.1,0.2-0.2,0.4-0.4,0.6
				c-0.1,0.2-0.5,0.2-0.6,0.4c-0.1,0.2,0,0.5-0.2,0.7c-0.1,0.2-0.8,0-0.9,0.2c-0.1,0.2,0.2,0.7,0,0.9c-0.1,0.2-0.5,0.2-0.6,0.4
				c-0.1,0.2-0.3,0.4-0.4,0.6c-0.1,0.2,0.1,0.6-0.1,0.8c-0.1,0.2-0.6,0.2-0.7,0.4c-0.1,0.2,0,0.6-0.1,0.8c-0.1,0.2-0.8,0-0.9,0.2
				c-0.1,0.2,0.2,0.7,0.1,0.9c-0.1,0.2-0.3,0.3-0.5,0.5c-0.1,0.2-0.1,0.5-0.3,0.7c-0.1,0.2-0.3,0.4-0.4,0.6
				c-0.1,0.2-0.2,0.4-0.3,0.6c-0.1,0.2-0.1,0.5-0.3,0.7c-0.1,0.2-1-0.1-1.2,0.1c-0.1,0.2,0.6,0.9,0.4,1.1c-0.1,0.2-0.4,0.3-0.5,0.5
				c-0.1,0.2-0.1,0.5-0.2,0.7c-0.1,0.2-1-0.1-1.1,0.1c-0.1,0.2-0.2,0.4-0.3,0.6c-0.1,0.2,0.5,0.8,0.4,1c-0.1,0.2-0.5,0.3-0.6,0.5
				c-0.1,0.2-0.1,0.5-0.2,0.7s-0.9,0-1.1,0.2c-0.1,0.2,0,0.5-0.1,0.8c-0.1,0.2,0,0.5-0.1,0.8c-0.1,0.2-0.3,0.4-0.4,0.6
				c-0.1,0.2-0.4,0.3-0.5,0.5c-0.1,0.2-0.1,0.5-0.2,0.7c-0.1,0.2-0.5,0.2-0.6,0.4c-0.1,0.2,0.2,0.6,0.1,0.8
				c-0.1,0.2-0.1,0.5-0.2,0.7c-0.1,0.2-0.5,0.3-0.6,0.5c-0.1,0.2-0.6,0.2-0.7,0.4c-0.1,0.2,0.6,0.8,0.5,1c-0.1,0.2-1,0-1.1,0.2
				c-0.1,0.2,0.2,0.6,0.1,0.8c-0.1,0.2-0.2,0.4-0.3,0.6c-0.1,0.2-0.6,0.2-0.7,0.5c-0.1,0.2,0.3,0.7,0.2,0.9
				c-0.1,0.2-0.5,0.3-0.6,0.5c-0.1,0.2,0.1,0.6,0,0.8c-0.1,0.2,0.1,0.5,0,0.8c-0.1,0.2-0.2,0.4-0.3,0.6c-0.1,0.2-0.4,0.3-0.5,0.6
				c-0.1,0.2-0.3,0.4-0.4,0.6c-0.1,0.2-0.2,0.4-0.3,0.6c-0.1,0.2,0.1,0.5,0,0.8c-0.1,0.2-0.6,0.3-0.7,0.5c-0.1,0.2-0.2,0.4-0.3,0.6
				c-0.1,0.2,0,0.5-0.1,0.7c-0.1,0.2,0.1,0.5,0,0.8c-0.1,0.2-0.7,0.2-0.8,0.4c-0.1,0.2-0.1,0.5-0.1,0.7c-0.1,0.2-0.1,0.5-0.1,0.7
				c-0.1,0.2-0.1,0.4-0.2,0.7c-0.1,0.2,0.1,0.5,0.1,0.8c-0.1,0.2-0.9,0.1-1,0.4c-0.1,0.2,0.3,0.6,0.3,0.8c-0.1,0.2-0.7,0.2-0.8,0.5
				c-0.1,0.2,0.5,0.7,0.4,0.9c-0.1,0.2-0.3,0.4-0.4,0.6c-0.1,0.2,0.2,0.6,0.2,0.8c-0.1,0.2-0.6,0.3-0.7,0.5
				c-0.1,0.2-0.3,0.4-0.4,0.6c-0.1,0.2,0.1,0.5,0,0.7c-0.1,0.2-0.5,0.3-0.5,0.6c-0.1,0.2,0.2,0.6,0.2,0.8c-0.1,0.2-0.1,0.5-0.2,0.7
				c-0.1,0.2-0.6,0.3-0.6,0.5c-0.1,0.2-0.2,0.4-0.2,0.7c-0.1,0.2-0.1,0.4-0.2,0.7c-0.1,0.2,0.5,0.6,0.4,0.8
				c-0.1,0.2-0.7,0.3-0.8,0.5c-0.1,0.2,0.4,0.6,0.4,0.8c-0.1,0.2,0.1,0.5,0.1,0.7c-0.1,0.2-0.9,0.2-1,0.5c-0.1,0.2-0.1,0.4-0.2,0.7
				s0.4,0.6,0.4,0.8c-0.1,0.2-0.5,0.4-0.6,0.6c-0.1,0.2-0.3,0.4-0.3,0.6c-0.1,0.2,0.5,0.6,0.5,0.8c-0.1,0.2-0.3,0.4-0.4,0.6
				c-0.1,0.2-0.2,0.4-0.2,0.7c-0.1,0.2,0.2,0.5,0.1,0.7c0,0.2-0.6,0.4-0.6,0.6c0,0.2,0.1,0.5,0,0.7c0,0.2-0.3,0.4-0.4,0.6
				c0,0.2,0.5,0.6,0.5,0.8c0,0.2-0.5,0.4-0.6,0.6c0,0.2-0.4,0.4-0.4,0.6c0,0.2,0.2,0.5,0.2,0.7c0,0.2-0.2,0.4-0.2,0.7
				c0,0.2,0.4,0.5,0.4,0.8c0,0.2-0.9,0.3-0.9,0.6c0,0.2,0.1,0.5,0.1,0.7c0,0.2,0.7,0.6,0.7,0.8c0,0.2-0.1,0.5-0.1,0.7
				c0,0.2-0.9,0.4-0.9,0.6c0,0.2,0.6,0.5,0.6,0.8c0,0.2-0.1,0.5-0.1,0.7c0,0.2-0.1,0.5-0.1,0.7c0,0.2-0.7,0.4-0.7,0.6
				c0,0.2,0.8,0.5,0.7,0.8c0,0.2-0.3,0.4-0.3,0.7c0,0.2-0.4,0.4-0.4,0.7c0,0.2,0,0.5,0,0.7c0,0.2,0.4,0.5,0.4,0.7
				c0,0.2-0.6,0.4-0.6,0.7c0,0.2-0.1,0.5-0.1,0.7c0,0.2-0.1,0.5-0.1,0.7c0,0.2,0.6,0.5,0.6,0.7c0,0.2-0.1,0.5-0.1,0.7
				c0,0.2,0.2,0.5,0.2,0.7c0,0.2-0.1,0.5-0.1,0.7c0,0.2-0.4,0.5-0.4,0.7c0,0.2,0.5,0.4,0.5,0.7c0,0.2-0.1,0.5-0.1,0.7
				c0,0.2,0,0.5,0,0.7c0,0.2-0.4,0.5-0.4,0.7c0,0.2,0.5,0.4,0.5,0.7c0,0.2-0.4,0.5-0.4,0.7c0,0.2,0.2,0.5,0.2,0.7
				c0,0.2,0.3,0.4,0.3,0.7c0,0.2,0.4,0.4,0.4,0.6c0,0.2-0.5,0.5-0.4,0.8c0,0.2,0.5,0.4,0.5,0.6c0,0.2,0.1,0.4,0.2,0.7
				c0,0.2,0.1,0.4,0.2,0.7c0,0.2,0.1,0.5,0.1,0.7c0,0.2,0.2,0.4,0.2,0.7c0.1,0.2-0.3,0.5-0.3,0.8c0.1,0.2,0.3,0.4,0.4,0.6
				c0.1,0.2-0.1,0.5-0.1,0.7c0.1,0.2,0.1,0.5,0.1,0.7c0.1,0.2,0.5,0.3,0.6,0.5c0.1,0.2-0.3,0.6-0.2,0.8c0.1,0.2,0.7,0.3,0.7,0.5
				c0.1,0.2,0.4,0.4,0.4,0.6c0.1,0.2-0.6,0.7-0.5,0.9c0.1,0.2,0.4,0.3,0.5,0.6c0.1,0.2,0,0.5,0.1,0.7c0.1,0.2,0.6,0.2,0.7,0.4
				c0.1,0.2,0.4,0.3,0.5,0.5c0.1,0.2-0.4,0.7-0.3,0.9c0.1,0.2,0.4,0.3,0.5,0.5c0.1,0.2,0,0.6,0.1,0.8c0.1,0.2,0.9,0,1,0.2
				c0.1,0.2-0.4,0.8-0.3,1c0.1,0.2,0.4,0.3,0.5,0.5c0.1,0.2,0.5,0.2,0.6,0.4c0.1,0.2,0,0.6,0.2,0.7c0.1,0.2,0.7,0,0.9,0.2
				c0.2,0.2,0.3,0.4,0.4,0.5c0.2,0.2,0.3,0.3,0.5,0.5c0.2,0.2,0.1,0.6,0.3,0.7c0.2,0.2,0.2,0.5,0.4,0.6c0.2,0.2,0.6,0.1,0.7,0.2
				c0.2,0.1,0.7-0.1,0.8,0c0.2,0.1,0.2,0.5,0.4,0.6c0.2,0.1,0.1,0.8,0.3,0.9c0.2,0.1,0.6-0.1,0.8,0c0.2,0.1,0.6-0.2,0.8-0.1
				c0.2,0.1,0.2,0.6,0.4,0.7c0.2,0.1,0.5-0.2,0.8-0.1c0.2,0.1,0.2,0.8,0.4,0.9c0.2,0.1,0.5-0.1,0.8-0.1c0.2,0.1,0.4,0.3,0.7,0.3
				c0.2,0,0.6-0.6,0.8-0.6c0.2,0,0.4,0.5,0.6,0.6c0.2,0,0.5,0.1,0.7,0.1c0.2,0,0.5,0,0.7,0c0.2,0,0.4-0.6,0.7-0.7
				c0.2,0,0.5,0.2,0.7,0.2c0.2,0,0.4-0.2,0.7-0.3c0.2,0,0.4-0.1,0.7-0.1c0.2,0,0.4-0.1,0.7-0.2c0.2-0.1,0.6,0.6,0.9,0.6
				c0.2-0.1,0.5-0.1,0.7-0.2c0.2-0.1,0.4-0.2,0.6-0.3c0.2-0.1,0.4-0.3,0.6-0.4c0.2-0.1,0.4-0.3,0.6-0.4c0.2-0.1,0.3-0.5,0.5-0.6
				c0.2-0.1,0.7,0.6,1,0.5c0.2-0.1,0.4-0.2,0.7-0.3c0.2-0.1,0.1-0.8,0.4-0.9c0.2-0.1,0.5-0.1,0.7-0.2c0.2-0.1,0.4-0.3,0.6-0.4
				c0.2-0.1,0.6,0.2,0.8,0.1c0.2-0.1,0.1-0.7,0.3-0.8c0.2-0.1,0.4-0.2,0.6-0.3c0.2-0.1,0.5-0.1,0.7-0.2c0.2-0.1,0.5-0.1,0.7-0.2
				c0.2-0.1,0.3-0.4,0.5-0.5c0.2-0.1,0.5,0,0.7-0.1c0.2-0.1,0.4-0.3,0.6-0.4c0.2-0.1,0.3-0.3,0.5-0.5c0.2-0.1,0.6,0,0.8-0.1
				c0.2-0.1,0.2-0.5,0.4-0.6c0.2-0.1,0.3-0.4,0.5-0.5c0.2-0.1,0.6,0,0.8-0.1c0.2-0.1,0-0.8,0.2-0.9c0.2-0.1,0.7,0.2,0.9,0.1
				c0.2-0.1,0.3-0.4,0.5-0.6c0.2-0.1,0.3-0.4,0.5-0.5c0.2-0.1,0.5,0,0.7-0.2c0.2-0.1,0.1-0.6,0.3-0.7c0.2-0.1,0.8,0.3,1,0.1
				c0.2-0.1,0.1-0.6,0.3-0.7c0.2-0.1,0.5-0.1,0.7-0.2c0.2-0.1,0.5-0.2,0.6-0.3c0.2-0.1-0.1-0.9,0-1.1c0.2-0.1,0.8,0.3,1,0.1
				c0.2-0.1,0-0.7,0.2-0.8c0.2-0.1,0.4-0.2,0.6-0.4c0.2-0.1,0.4-0.3,0.5-0.4c0.2-0.1,0.3-0.4,0.5-0.5c0.2-0.1,0.2-0.5,0.3-0.7
				c0.2-0.1,0.6,0,0.8-0.2c0.2-0.1,0.4-0.2,0.6-0.4c0.2-0.1,0.2-0.4,0.4-0.6c0.2-0.1,0.6-0.1,0.7-0.2c0.2-0.2,0.5-0.1,0.7-0.3
				c0.2-0.2-0.1-0.8,0.1-1c0.2-0.2,0.3-0.3,0.5-0.5c0.2-0.2,0.8,0.2,1,0.1c0.2-0.2,0-0.7,0.2-0.9c0.2-0.2,0.8,0.2,1,0
				c0.2-0.2-0.1-0.8,0.1-1c0.2-0.2,0.3-0.4,0.4-0.5c0.2-0.2,0.8,0.2,0.9,0c0.2-0.2,0.2-0.4,0.4-0.6c0.2-0.2,0.4-0.3,0.6-0.4
				c0.2-0.2,0.3-0.4,0.4-0.6c0.2-0.2,0.2-0.5,0.3-0.7c0.2-0.2,0.3-0.3,0.5-0.5c0.2-0.2,0.7,0.1,0.9,0c0.2-0.2,0-0.7,0.2-0.8
				c0.2-0.2,0.5-0.1,0.7-0.2c0.2-0.2,0-0.7,0.1-0.9c0.2-0.2,0.9,0.3,1.1,0.1c0.2-0.2,0.3-0.4,0.5-0.5c0.2-0.2-0.1-0.8,0.1-1
				c0.2-0.2,0.9,0.3,1,0.1c0.2-0.2,0.4-0.3,0.5-0.4c0.2-0.2-0.2-0.9,0-1.1c0.2-0.2,0.4-0.2,0.6-0.4c0.2-0.2,0.4-0.3,0.5-0.4
				c0.2-0.2,0.5-0.2,0.7-0.3c0.2-0.2,0.1-0.6,0.2-0.8c0.2-0.2,0.6,0,0.8-0.2c0.2-0.2,0.3-0.4,0.5-0.5c0.2-0.2,0.6-0.1,0.7-0.2
				c0.2-0.2,0.4-0.2,0.6-0.4c0.2-0.2,0.1-0.5,0.3-0.7c0.2-0.2,0.5-0.1,0.7-0.3c0.2-0.2-0.2-0.9-0.1-1.1c0.2-0.2,0.8,0.1,0.9,0
				c0.2-0.2,0.2-0.4,0.4-0.6c0.2-0.2,0.7,0,0.8-0.1c0.2-0.2-0.1-0.8,0.1-1c0.2-0.2,0.6,0,0.8-0.2c0.2-0.2,0.3-0.4,0.5-0.5
				c0.2-0.2,0.5-0.1,0.7-0.3c0.2-0.2,0-0.7,0.1-0.9c0.2-0.2,0.4-0.2,0.6-0.4c0.2-0.2,0.6,0,0.8-0.2c0.2-0.2-0.1-0.8,0.1-0.9
				c0.2-0.2,0.6-0.1,0.7-0.2c0.2-0.2,0.5-0.2,0.6-0.3c0.2-0.2,0.2-0.4,0.4-0.6c0.2-0.2,0.3-0.3,0.5-0.5c0.2-0.2,0.1-0.6,0.3-0.7
				c0.2-0.2,0.7,0.1,0.9-0.1c0.2-0.2,0.1-0.6,0.2-0.8c0.2-0.2,0.2-0.5,0.3-0.7c0.2-0.2,0.3-0.3,0.5-0.5c0.2-0.2,0.7,0.1,0.9-0.1
				c0.2-0.2,0.6-0.1,0.8-0.2c0.2-0.2-0.2-0.8,0-1c0.2-0.2,0.2-0.4,0.4-0.6c0.2-0.2,0.8,0.2,1,0c0.2-0.2,0-0.7,0.2-0.8
				c0.2-0.2,0.5-0.2,0.6-0.4c0.2-0.2,0.1-0.6,0.3-0.7c0.2-0.2,0.9,0.2,1,0.1c0.2-0.2,0.1-0.5,0.3-0.7c0.2-0.2,0.4-0.3,0.6-0.4
				c0.2-0.2,0-0.7,0.1-0.9c0.2-0.2,0.9,0.3,1.1,0.1c0.2-0.2,0.3-0.3,0.5-0.5c0.2-0.2-0.1-0.8,0.1-1c0.2-0.2,0.3-0.3,0.5-0.5
				c0.2-0.2,0.4-0.3,0.5-0.5c0.2-0.2,0.6,0,0.8-0.2c0.2-0.2,0.1-0.6,0.2-0.8c0.2-0.2,0.4-0.2,0.6-0.4s0.5-0.2,0.6-0.3
				c0.2-0.2,0.6,0,0.8-0.2c0.2-0.2,0.4-0.3,0.5-0.5c0.2-0.2,0-0.6,0.2-0.8c0.2-0.2,0.2-0.5,0.4-0.6c0.2-0.2,0.9,0.3,1.1,0.1
				c0.2-0.2-0.1-0.8,0-1c0.2-0.2,0.7,0,0.8-0.1c0.2-0.2,0.5-0.1,0.7-0.3c0.2-0.2,0.2-0.4,0.4-0.6c0.2-0.2,0.3-0.3,0.5-0.5
				c0.2-0.2,0-0.7,0.2-0.8c0.2-0.2,0.5-0.1,0.7-0.3c0.2-0.2,0.4-0.3,0.5-0.5c0.2-0.2,0.4-0.3,0.5-0.4c0.2-0.2,0.4-0.2,0.6-0.4
				c0.2-0.2,0.1-0.6,0.3-0.7c0.2-0.2,0.8,0.2,1,0c0.2-0.2,0.3-0.3,0.5-0.5c0.2-0.2,0.3-0.3,0.5-0.5c0.2-0.2-0.2-0.9,0-1.1
				c0.2-0.2,0.5-0.2,0.7-0.3c0.2-0.2,0.7,0.1,0.9,0c0.2-0.2-0.2-0.9,0-1.1c0.2-0.2,0.3-0.4,0.5-0.5c0.2-0.2,0.9,0.3,1.1,0.2
				c0.2-0.2-0.1-0.8,0.1-1c0.2-0.2,0.3-0.4,0.5-0.5c0.2-0.2,0.4-0.3,0.5-0.4c0.2-0.2,0.8,0.2,1,0c0.2-0.2-0.1-0.9,0-1
				c0.2-0.2,0.6-0.1,0.7-0.2c0.2-0.2,0.6,0,0.8-0.1c0.2-0.2,0.3-0.4,0.5-0.5c0.2-0.2,0.4-0.3,0.6-0.4c0.2-0.2-0.1-0.8,0.1-1
				c0.2-0.2,0.8,0.3,1,0.1c0.2-0.2,0-0.7,0.2-0.8c0.2-0.2,0.5-0.1,0.7-0.3c0.2-0.2,0.1-0.6,0.3-0.7c0.2-0.2,0.3-0.4,0.5-0.5
				c0.2-0.2,0.6,0,0.8-0.1c0.2-0.2,0.2-0.5,0.4-0.6c0.2-0.1,0.4-0.3,0.5-0.5c0.2-0.1,0.4-0.2,0.6-0.3c0.2-0.2,0.4-0.3,0.5-0.5
				c0.2-0.2,0.4-0.3,0.5-0.5c0.2-0.2,0.5-0.1,0.7-0.3c0.2-0.1,0.5-0.1,0.7-0.3c0.2-0.2,0-0.7,0.2-0.8c0.2-0.1,0.7,0.1,0.9-0.1
				c0.2-0.1-0.1-0.8,0.1-1c0.2-0.1,0.6,0,0.8-0.1c0.2-0.1,0.2-0.5,0.3-0.7c0.2-0.1,0.3-0.4,0.5-0.5c0.2-0.1,0.6,0,0.7-0.2
				c0.2-0.1,0.1-0.7,0.2-0.8c0.2-0.1,0.6,0,0.8-0.1c0.2-0.1,0.1-0.6,0.3-0.7c0.2-0.1,0.7,0.1,0.8-0.1c0.2-0.1,0.2-0.4,0.4-0.6
				c0.2-0.1,0.3-0.3,0.5-0.5c0.2-0.1,0.3-0.4,0.5-0.5c0.2-0.1,0.4-0.3,0.5-0.4s0.5-0.1,0.7-0.2c0.2-0.1,0.3-0.4,0.5-0.6
				c0.2-0.1,0.8,0.2,1,0.1c0.2-0.1-0.1-0.8,0.1-1c0.2-0.1,0.3-0.4,0.5-0.5c0.2-0.1,0.7,0.2,0.9,0c0.2-0.1,0.5-0.1,0.7-0.3
				c0.2-0.1,0.2-0.5,0.4-0.6c0.2-0.1,0.2-0.4,0.4-0.6c0.2-0.1,0.6,0,0.8-0.1c0.2-0.1-0.1-0.8,0.1-1c0.2-0.1,0.7,0.2,0.9,0.1
				c0.2-0.1-0.1-0.9,0.1-1.1c0.2-0.1,0.8,0.3,1,0.2c0.2-0.1,0.2-0.5,0.4-0.6c0.2-0.1,0.3-0.4,0.4-0.6c0.2-0.1,0.7,0.2,0.9,0
				c0.2-0.1-0.1-1,0-1.1c0.2-0.1,0.4-0.2,0.6-0.3c0.2-0.1,0.4-0.2,0.6-0.3c0.2-0.1,0.3-0.4,0.5-0.5c0.2-0.1,0.6,0,0.8-0.2
				c0.2-0.1,0.5-0.1,0.7-0.2c0.2-0.1,0.1-0.6,0.3-0.8c0.2-0.1,0.5-0.1,0.7-0.2c0.2-0.1,0.3-0.4,0.5-0.5c0.2-0.1,0.2-0.5,0.4-0.6
				c0.2-0.1,0.7,0.2,0.9,0.1c0.2-0.1,0.3-0.4,0.5-0.5c0.2-0.1,0.4-0.3,0.6-0.4c0.2-0.1,0.5-0.1,0.7-0.2c0.2-0.1,0.1-0.6,0.3-0.8
				c0.2-0.1,0.5-0.2,0.6-0.3c0.2-0.1,0.2-0.5,0.4-0.7s0.6,0,0.8-0.1c0.2-0.1,0.3-0.4,0.5-0.5c0.2-0.1,0.3-0.4,0.5-0.5
				c0.2-0.1,0.2-0.5,0.4-0.6c0.2-0.1,0.5,0,0.7-0.2c0.2-0.1,0.6,0,0.7-0.2c0.2-0.1,0.5-0.1,0.7-0.3c0.2-0.1,0.1-0.6,0.3-0.8
				c0.2-0.1,0.4-0.3,0.6-0.4c0.2-0.1,0.5-0.2,0.6-0.3c0.2-0.1,0.6,0.1,0.8-0.1c0.2-0.1,0.1-0.7,0.3-0.8c0.2-0.1,0.5-0.2,0.7-0.3
				c0.2-0.1,0.5-0.1,0.7-0.3c0.2-0.1,0.2-0.5,0.4-0.6c0.2-0.1,0.6,0.1,0.8-0.1c0.2-0.1,0-0.9,0.1-1c0.2-0.1,0.7,0.1,0.9,0
				c0.2-0.1,0.2-0.5,0.4-0.6c0.2-0.1,0.3-0.3,0.5-0.5c0.2-0.1,0.4-0.3,0.5-0.4c0.2-0.1,0.4-0.3,0.6-0.4c0.2-0.1,0.5-0.1,0.7-0.3
				c0.2-0.1,0.5-0.1,0.7-0.3c0.2-0.1,0.4-0.3,0.6-0.4c0.2-0.1,0.3-0.4,0.5-0.5c0.2-0.1,0.3-0.4,0.5-0.5c0.2-0.1,0.5,0,0.7-0.2
				c0.2-0.1,0.5-0.1,0.7-0.3c0.2-0.1,0.5-0.1,0.7-0.2c0.2-0.1,0.3-0.4,0.4-0.6c0.2-0.1,0.1-0.6,0.3-0.8c0.2-0.1,0.7,0.2,0.9,0
				c0.2-0.1,0.4-0.2,0.6-0.4c0.2-0.1,0.2-0.5,0.4-0.6c0.2-0.1,0.3-0.4,0.5-0.5c0.2-0.1,0.4-0.3,0.5-0.4c0.2-0.1,0.6,0,0.8-0.1
				c0.2-0.1,0.1-0.6,0.3-0.7c0.2-0.1,0.4-0.3,0.6-0.4c0.2-0.1,0.7,0.1,0.8,0c0.2-0.1,0.3-0.4,0.5-0.5c0.2-0.1,0.4-0.2,0.6-0.3
				c0.2-0.1,0.3-0.4,0.5-0.5c0.2-0.1,0.4-0.2,0.6-0.3c0.2-0.1,0.5,0,0.7-0.2c0.2-0.1,0.3-0.4,0.5-0.5c0.2-0.1,0.3-0.4,0.5-0.5
				c0.2-0.1,0.1-0.7,0.3-0.8c0.2-0.1,0.6,0,0.7-0.2c0.2-0.1,0.7,0.2,0.9,0c0.2-0.1,0.3-0.4,0.5-0.5c0.2-0.1,0.1-0.7,0.3-0.8
				c0.2-0.1,0.7,0.2,0.9,0c0.2-0.1,0.5-0.2,0.6-0.3c0.2-0.1,0.4-0.3,0.6-0.4c0.2-0.1,0.4-0.2,0.6-0.4c0.2-0.1,0-0.8,0.2-0.9
				c0.2-0.1,0.7,0.2,0.9,0c0.2-0.1,0.3-0.4,0.5-0.5c0.2-0.1,0.2-0.5,0.4-0.7c0.2-0.1,0.2-0.5,0.4-0.7c0.2-0.1,0.3-0.3,0.5-0.5
				c0.2-0.1,0.5-0.1,0.7-0.2c0.2-0.1,0.3-0.3,0.5-0.5c0.2-0.1,0.6,0,0.8-0.1c0.2-0.1,0.1-0.7,0.3-0.8c0.2-0.1,0.8,0.3,1,0.2
				c0.2-0.1,0.2-0.5,0.4-0.6c0.2-0.1,0.1-0.6,0.3-0.8c0.2-0.1,0.6,0.1,0.8-0.1c0.2-0.1,0.2-0.5,0.4-0.6c0.2-0.1,0.6,0,0.8-0.1
				c0.2-0.1,0.3-0.4,0.5-0.5c0.2-0.1,0.7,0.2,0.9,0c0.2-0.1-0.1-0.9,0.1-1c0.2-0.1,0.8,0.3,1,0.1c0.2-0.1,0.2-0.5,0.4-0.7
				c0.2-0.1,0.5-0.1,0.7-0.2c0.2-0.1,0-0.7,0.2-0.9c0.2-0.1,0.6,0.1,0.8-0.1c0.2-0.1,0.3-0.4,0.5-0.5c0.2-0.1,0.3-0.3,0.5-0.5
				c0.2-0.1,0.4-0.2,0.6-0.4c0.2-0.1,0-0.8,0.2-0.9c0.2-0.1,0.8,0.2,1,0.1c0.2-0.1,0-0.8,0.2-0.9c0.2-0.1,0.7,0.2,0.9,0
				c0.2-0.1,0.2-0.5,0.4-0.7c0.2-0.1,0.3-0.4,0.5-0.5c0.2-0.1,0.3-0.4,0.5-0.5c0.2-0.1,0.6,0,0.8-0.2c0.2-0.1,0.3-0.4,0.5-0.5
				c0.2-0.2,0.5-0.1,0.7-0.2c0.2-0.1,0.1-0.6,0.2-0.8c0.2-0.2,0.5-0.2,0.6-0.3c0.2-0.2,0.5-0.1,0.7-0.3c0.2-0.2,0.3-0.3,0.5-0.5
				c0.2-0.2,0.5-0.1,0.7-0.3c0.2-0.2,0.2-0.4,0.4-0.6c0.2-0.2,0.5-0.2,0.7-0.3c0.2-0.2-0.2-0.9,0-1.1c0.2-0.2,0.7,0.1,0.9-0.1
				c0.2-0.2,0.6-0.1,0.7-0.2c0.2-0.2,0-0.7,0.1-0.9c0.2-0.2,0.8,0.1,0.9-0.1c0.2-0.2-0.2-0.9,0-1c0.2-0.2,0.8,0.2,1,0
				c0.2-0.2-0.3-0.9-0.1-1.1c0.2-0.2,0.7,0.1,0.9-0.1c0.2-0.2,0-0.6,0.1-0.8c0.2-0.2,0.2-0.4,0.4-0.6c0.2-0.2,0.3-0.3,0.5-0.5
				c0.2-0.2,0.5-0.2,0.7-0.3c0.2-0.2,0.8,0.1,1-0.1c0.1-0.2-0.2-0.7,0-0.9c0.1-0.2,0.6-0.1,0.8-0.3c0.1-0.2-0.1-0.7,0-0.9
				c0.1-0.2,0.3-0.3,0.5-0.5c0.1-0.2,0.1-0.5,0.2-0.7c0.1-0.2,0.8,0,0.9-0.2c0.1-0.2,0.3-0.4,0.4-0.6c0.1-0.2,0-0.5,0.2-0.7
				c0.1-0.2,0.4-0.3,0.5-0.5c0.1-0.2,0.3-0.4,0.4-0.6c0.1-0.2,0.4-0.3,0.5-0.5c0.1-0.2-0.1-0.6,0-0.8c0.1-0.2,0.4-0.3,0.5-0.5
				c0.1-0.2-0.4-0.7-0.3-0.9c0.1-0.2,0.9-0.2,0.9-0.4c0.1-0.2-0.4-0.6-0.4-0.8c0.1-0.2,0.1-0.4,0.1-0.7c0.1-0.2,0.3-0.4,0.4-0.6
				c0-0.2,0.2-0.4,0.2-0.7c0-0.2-0.2-0.5-0.2-0.7c0-0.2,0-0.4,0-0.7c0-0.2,0.6-0.4,0.6-0.7c0-0.2-0.5-0.4-0.5-0.7
				c0-0.2,0.6-0.5,0.6-0.7c0-0.2-0.2-0.4-0.2-0.7c0-0.2-0.5-0.4-0.5-0.6c0-0.2-0.3-0.4-0.3-0.6c-0.1-0.2,0.1-0.5,0-0.7
				c-0.1-0.2,0.4-0.6,0.3-0.8c-0.1-0.2,0-0.5-0.1-0.7c-0.1-0.2-1-0.1-1.1-0.3c-0.1-0.2,0.3-0.6,0.2-0.9c-0.1-0.2-0.3-0.4-0.4-0.6
				c-0.1-0.2-0.7-0.1-0.8-0.3c-0.1-0.2,0.3-0.7,0.2-0.9c-0.1-0.2-0.6-0.1-0.7-0.3C340,101.2,339.7,101.1,339.6,100.9"/>
		</defs>
		<use xlink:href="#XMLID_44_"  style="overflow:visible;fill:#005944;"/>
		<clipPath id="XMLID_21_">
			<use xlink:href="#XMLID_44_"  style="overflow:visible;"/>
		</clipPath>
	</g>
	<g>
		<defs>
			<path id="XMLID_46_" d="M168,285.4c-0.3-0.1-0.2-0.5-0.4-0.8c-0.2-0.2,0.1-0.6-0.2-0.8c-0.2-0.2-0.4-0.1-0.7-0.3
				c-0.2-0.2-0.2-0.2-0.5-0.5c-0.2-0.2-0.5,0-0.7-0.3c-0.2-0.2,0.2-0.7,0-0.9c-0.2-0.2-0.4,0-0.7-0.3c-0.2-0.2-0.5,0-0.7-0.3
				c-0.2-0.2-0.2-0.3-0.4-0.5c-0.2-0.2-0.2-0.3-0.4-0.6c-0.2-0.2-0.4-0.1-0.6-0.3c-0.2-0.2-0.2-0.3-0.5-0.5
				c-0.2-0.2,0.2-0.7-0.1-0.9c-0.2-0.2-0.4-0.1-0.7-0.3s-0.3-0.1-0.6-0.4c-0.2-0.2-0.5,0-0.8-0.2c-0.2-0.2-0.1-0.4-0.4-0.6
				c-0.2-0.2,0-0.5-0.2-0.8c-0.2-0.2-0.5,0-0.8-0.2c-0.2-0.2,0-0.5-0.2-0.8c-0.2-0.2-0.6,0.2-0.9-0.1c-0.2-0.2-0.1-0.3-0.4-0.6
				c-0.2-0.2,0.1-0.6-0.1-0.8c-0.2-0.2-0.7,0.2-1,0c-0.2-0.2-0.1-0.4-0.3-0.6c-0.2-0.2,0.2-0.7,0-1c-0.2-0.2-0.3-0.2-0.5-0.4
				c-0.2-0.2-0.5,0-0.8-0.2c-0.2-0.2-0.5,0-0.7-0.2c-0.2-0.2-0.3-0.2-0.5-0.5c-0.2-0.2,0.3-0.8,0-1c-0.2-0.2-0.7,0.2-1,0
				c-0.2-0.2-0.1-0.4-0.3-0.6c-0.2-0.2-0.2-0.3-0.4-0.5c-0.2-0.2-0.3-0.2-0.5-0.5c-0.2-0.2-0.2-0.3-0.4-0.5c-0.2-0.2,0-0.5-0.2-0.7
				s-0.6,0.1-0.8-0.2c-0.2-0.2-0.4-0.1-0.7-0.3c-0.2-0.2,0.2-0.4,0.2-0.7c0-0.3-0.4-0.5-0.2-0.7c0.3-0.2,0.5,0,0.7-0.3
				c0.3-0.2,0.5,0,0.8-0.2c0.3-0.2-0.3-0.8,0-1c0.3-0.2,0.8,0.3,1,0.1c0.3-0.2-0.1-0.6,0.2-0.8c0.3-0.2,0.1-0.4,0.3-0.7
				c0.3-0.2,0.3-0.2,0.6-0.4c0.3-0.2,0.4-0.1,0.6-0.3c0.3-0.2,0.6,0.1,0.8-0.1c0.3-0.2-0.3-0.8,0-1.1c0.3-0.2,0.5,0,0.7-0.2
				c0.3-0.2,0.1-0.4,0.3-0.7c0.3-0.2,0.8,0.3,1,0.1c0.3-0.2-0.1-0.6,0.2-0.9c0.3-0.2,0.6,0.1,0.8-0.1c0.3-0.2,0.2-0.3,0.4-0.6
				c0.3-0.2,0.3-0.2,0.5-0.5c0.3-0.2-0.1-0.6,0.2-0.8c0.3-0.2,0.5,0,0.8-0.2c0.3-0.2-0.2-0.7,0.1-0.9c0.3-0.2,0.8,0.3,1.1,0.1
				c0.3-0.2,0.4-0.1,0.6-0.4c0.3-0.2,0-0.6,0.2-0.8c0.3-0.2,0.1-0.4,0.4-0.6c0.3-0.2,0.2-0.3,0.4-0.6c0.3-0.2,0.3-0.2,0.5-0.4
				c0.3-0.2,0.3-0.2,0.5-0.5c0.3-0.2,0.6,0.1,0.8-0.1c0.3-0.2,0.4-0.1,0.6-0.3c0.3-0.2,0.2-0.2,0.5-0.5c0.3-0.2-0.3-0.8,0-1
				c0.3-0.2,0.6,0.2,0.9-0.1c0.3-0.2,0.3-0.2,0.6-0.4c0.3-0.2-0.1-0.6,0.2-0.9c0.3-0.2,0.4-0.1,0.7-0.3c0.3-0.2,0.6,0.1,0.8-0.1
				c0.3-0.2,0.3-0.2,0.5-0.5c0.3-0.2,0.2-0.3,0.5-0.5s0.2-0.3,0.4-0.6c0.3-0.2-0.1-0.7,0.1-0.9c0.3-0.2,0.2-0.3,0.4-0.6s0.7,0.3,1,0
				c0.3-0.2,0.1-0.4,0.3-0.7c0.3-0.2,0.1-0.4,0.3-0.7c0.3-0.2,0.7,0.2,0.9,0c0.3-0.2-0.1-0.6,0.2-0.8c0.3-0.2,0.1-0.4,0.3-0.7
				c0.3-0.2,0.5,0,0.7-0.2c0.3-0.2,0.1-0.4,0.4-0.6c0.3-0.2,0.2-0.3,0.4-0.6s0.3-0.2,0.6-0.4c0.3-0.2,0.3-0.2,0.5-0.5
				c0.3-0.2,0.3-0.2,0.5-0.5c0.3-0.2,0.4-0.1,0.6-0.4c0.3-0.2,0.6,0.2,0.9-0.1c0.3-0.2-0.1-0.6,0.2-0.8c0.3-0.2,0.4,0,0.7-0.3
				c0.3-0.2,0.2-0.2,0.5-0.5c0.3-0.2-0.1-0.6,0.2-0.8c0.3-0.2,0.5,0,0.8-0.2c0.3-0.2,0.5,0,0.7-0.3c0.3-0.2-0.2-0.7,0.1-0.9
				c0.3-0.2,0.5,0,0.8-0.2c0.3-0.2,0-0.5,0.3-0.7c0.3-0.2,0.7,0.2,0.9-0.1c0.3-0.2-0.3-0.8,0-1c0.3-0.2,0.2-0.3,0.4-0.6
				c0.3-0.2,0.6,0.2,0.9-0.1c0.3-0.2,0.4-0.1,0.7-0.3c0.3-0.2-0.2-0.8,0-1c0.3-0.2,0.2-0.2,0.5-0.5c0.3-0.2,0.4-0.1,0.6-0.4
				c0.3-0.2,0.5,0.1,0.8-0.2c0.3-0.2,0.1-0.4,0.3-0.7c0.3-0.2,0.4,0,0.7-0.3c0.3-0.2,0-0.6,0.2-0.8c0.3-0.2,0.2-0.3,0.5-0.5
				c0.3-0.2,0.2-0.3,0.5-0.5c0.3-0.2,0.6,0.2,0.9-0.1c0.3-0.2,0.1-0.4,0.4-0.6c0.3-0.2,0.1-0.4,0.4-0.6c0.3-0.2,0.6,0.1,0.8-0.1
				c0.3-0.2,0-0.5,0.2-0.8c0.3-0.2,0.4,0,0.7-0.3c0.3-0.2,0.3-0.2,0.5-0.5c0.3-0.2,0.1-0.4,0.4-0.6c0.3-0.2,0.7,0.2,0.9-0.1
				c0.3-0.2,0-0.5,0.2-0.8c0.3-0.2,0.1-0.4,0.3-0.7c0.3-0.2,0.6,0.1,0.8-0.1c0.3-0.2-0.2-0.7,0.1-0.9s0.3-0.2,0.6-0.4
				c0.3-0.2,0.6,0.2,0.9-0.1c0.3-0.2,0-0.5,0.3-0.7c0.3-0.2,0.3-0.2,0.6-0.4c0.3-0.2-0.1-0.6,0.2-0.8c0.3-0.2,0.3-0.2,0.5-0.4
				c0.3-0.2,0.6,0.1,0.8-0.1c0.3-0.2,0.2-0.3,0.4-0.6c0.3-0.2,0.5,0,0.7-0.2c0.3-0.2-0.3-0.8,0-1.1c0.3-0.2,0.8,0.4,1.1,0.1
				c0.3-0.2,0.1-0.4,0.3-0.7c0.3-0.2,0-0.6,0.2-0.8c0.3-0.2,0.4-0.1,0.6-0.4c0.3-0.2,0.3-0.2,0.6-0.4c0.3-0.2,0.2-0.3,0.5-0.5
				c0.3-0.2,0.3-0.2,0.5-0.4c0.3-0.2,0.2-0.3,0.4-0.5c0.3-0.2,0.1-0.4,0.4-0.6c0.3-0.2,0.8,0.4,1.1,0.1c0.3-0.2-0.2-0.7,0-1
				c0.3-0.2,0.1-0.4,0.4-0.6c0.3-0.2,0.6,0.2,0.9-0.1c0.3-0.2,0-0.5,0.3-0.7c0.3-0.2,0.5,0,0.8-0.2c0.3-0.2-0.1-0.6,0.1-0.9
				c0.3-0.2,0.7,0.2,0.9,0c0.3-0.2,0.2-0.3,0.4-0.6c0.3-0.2,0.2-0.3,0.4-0.5c0.3-0.2,0.1-0.4,0.4-0.6c0.3-0.2,0.2-0.3,0.5-0.5
				c0.3-0.2,0.6,0.2,0.9-0.1c0.3-0.2-0.2-0.8,0-1c0.3-0.2,0.8,0.4,1.1,0.1c0.3-0.2,0.2-0.3,0.5-0.5c0.3-0.2-0.3-0.8,0-1
				c0.3-0.2,0.9,0.4,1.1,0.2c0.3-0.2,0.1-0.4,0.4-0.6c0.3-0.2,0.1-0.4,0.4-0.6c0.3-0.2,0.5,0,0.7-0.2c0.3-0.2,0.2-0.3,0.5-0.5
				c0.3-0.2,0.2-0.3,0.5-0.5c0.3-0.2,0.1-0.4,0.3-0.7c0.3-0.2-0.1-0.7,0.1-0.9c0.3-0.2,0.3-0.1,0.6-0.4c0.3-0.2,0.4-0.1,0.7-0.3
				c0.3-0.2,0.6,0.1,0.9-0.1c0.3-0.2,0.1-0.4,0.3-0.7c0.3-0.2,0.1-0.5,0.3-0.7c0.3-0.2,0.3-0.2,0.5-0.5c0.3-0.2,0.7,0.2,0.9-0.1
				c0.3-0.2-0.1-0.6,0.2-0.8c0.3-0.2,0.4-0.1,0.7-0.3c0.3-0.2,0.1-0.4,0.3-0.7c0.3-0.2,0.2-0.3,0.4-0.6c0.3-0.2,0.6,0.1,0.8-0.2
				c0.3-0.2,0.4-0.1,0.6-0.3c0.3-0.2,0.2-0.3,0.5-0.5c0.3-0.2,0.2-0.3,0.5-0.5c0.3-0.2,0.2-0.3,0.4-0.6c0.3-0.2,0.2-0.3,0.4-0.6
				c0.3-0.2,0.4-0.1,0.6-0.3c0.3-0.2,0.4-0.1,0.6-0.3c0.3-0.2-0.3-0.8,0-1c0.3-0.2,0.4-0.1,0.6-0.4c0.3-0.2,0.4-0.1,0.6-0.4
				c0.3-0.2,0.5,0,0.7-0.2c0.3-0.2,0-0.5,0.3-0.7c0.3-0.2,0.4-0.1,0.7-0.3c0.3-0.2-0.1-0.6,0.2-0.9c0.3-0.2,0.4-0.1,0.7-0.3
				c0.3-0.2,0.4,0,0.7-0.3c0.3-0.2,0.3-0.2,0.6-0.4c0.3-0.2,0.2-0.3,0.4-0.6c0.3-0.2-0.1-0.6,0.2-0.8c0.3-0.2,0.6,0.2,0.9-0.1
				c0.3-0.2,0.4-0.1,0.6-0.3c0.3-0.2,0.2-0.3,0.5-0.5c0.3-0.2-0.2-0.7,0-1c0.3-0.2,0.7,0.3,1,0c0.3-0.2,0-0.5,0.2-0.8
				c0.3-0.2,0.1-0.4,0.4-0.6c0.3-0.2,0.7,0.2,0.9,0c0.3-0.2-0.1-0.6,0.2-0.8c0.3-0.2,0.2-0.4,0.4-0.6c0.3-0.2,0.7,0.2,1,0
				c0.3-0.2,0.2-0.3,0.4-0.6c0.3-0.2,0.3-0.2,0.6-0.4c0.3-0.2,0.4-0.1,0.6-0.4c0.3-0.2-0.2-0.7,0.1-1c0.3-0.2,0.7,0.2,0.9,0
				c0.3-0.2-0.3-0.9,0-1.1c0.3-0.2,0.6,0.2,0.9,0c0.3-0.2,0.2-0.3,0.5-0.5c0.3-0.2,0.2-0.3,0.5-0.5s0.5,0.1,0.8-0.1
				c0.3-0.2,0.1-0.5,0.4-0.7c0.3-0.2,0.6,0.2,0.9,0c0.3-0.2-0.1-0.8,0.2-1c0.3-0.2,0.5,0.2,0.8,0c0.3-0.2,0.5,0.1,0.8-0.1
				c0.3-0.2,0-0.6,0.3-0.8c0.3-0.2,0-0.6,0.3-0.8c0.3-0.2,0.8,0.6,1.1,0.4c0.3-0.2,0.3-0.2,0.6-0.4c0.3-0.2-0.1-0.8,0.2-1
				c0.3-0.2,0.4,0,0.7-0.2c0.3-0.2,0.2-0.3,0.5-0.5c0.3-0.2,0.6,0.3,0.9,0.1c0.3-0.2,0.1-0.4,0.4-0.6c0.3-0.2,0.4,0,0.7-0.2
				c0.3-0.2-0.1-0.8,0.2-1c0.3-0.2,0.5,0.1,0.8-0.1c0.3-0.2,0.2-0.3,0.5-0.5c0.3-0.2,0.1-0.4,0.4-0.6c0.3-0.2,0.3-0.2,0.6-0.4
				c0.3-0.2,0.8,0.5,1.1,0.3c0.3-0.2,0.2-0.3,0.5-0.5c0.3-0.2,0-0.6,0.3-0.7c0.3-0.2,0.2-0.3,0.5-0.5c0.3-0.2,0.5,0.2,0.8,0
				c0.3-0.2,0.1-0.5,0.4-0.7c0.3-0.2,0.4-0.1,0.7-0.3c0.3-0.2,0.4,0,0.7-0.2c0.3-0.2,0-0.6,0.3-0.8c0.3-0.2,0.6,0.3,0.9,0.1
				c0.3-0.2-0.1-0.8,0.2-1c0.3-0.2,0.6,0.3,0.9,0.1c0.3-0.2-0.1-0.7,0.2-0.9c0.3-0.2,0.5,0.1,0.7-0.1c0.3-0.2,0.2-0.3,0.5-0.5
				c0.3-0.2,0.3-0.2,0.5-0.4c0.3-0.2,0.3-0.2,0.5-0.4c0.3-0.2,0.7,0.4,1,0.3c0.3-0.2,0.3-0.2,0.6-0.4c0.3-0.2,0.1-0.4,0.4-0.6
				c0.3-0.2,0.1-0.5,0.3-0.7c0.3-0.2,0.7,0.4,1,0.2c0.3-0.2,0.2-0.3,0.5-0.5c0.3-0.2,0.2-0.3,0.5-0.5c0.3-0.2,0.2-0.3,0.5-0.5
				c0.3-0.2,0.3-0.2,0.6-0.4c0.3-0.2,0.2-0.3,0.5-0.5c0.3-0.2,0.1-0.5,0.4-0.7c0.3-0.2,0.5,0.2,0.8,0c0.3-0.2,0.4-0.1,0.6-0.3
				c0.3-0.2-0.1-0.7,0.2-0.9c0.3-0.2,0.4,0,0.7-0.2c0.3-0.2,0.2-0.3,0.5-0.5c0.3-0.2,0.6,0.2,0.8,0c0.3-0.2,0.1-0.5,0.4-0.7
				c0.3-0.2,0.4,0,0.7-0.2c0.3-0.2,0.2-0.4,0.5-0.6c0.3-0.2,0.2-0.3,0.5-0.5c0.3-0.2,0.7,0.3,1,0.1c0.3-0.2-0.1-0.8,0.1-1
				c0.3-0.2,0.4,0,0.7-0.2c0.3-0.2,0.6,0.3,0.9,0.1c0.3-0.2,0.3-0.2,0.6-0.4c0.3-0.2-0.2-0.9,0.1-1.1c0.3-0.2,0.5,0,0.7-0.2
				c0.3-0.2,0.2-0.4,0.5-0.6c0.3-0.2,0.3-0.2,0.6-0.4c0.3-0.2,0.5,0.1,0.8-0.1c0.3-0.2,0.4,0,0.7-0.2c0.3-0.2,0.4,0,0.7-0.2
				c0.3-0.2,0.2-0.4,0.4-0.6c0.3-0.2,0.3-0.2,0.6-0.4c0.3-0.2,0-0.6,0.3-0.8c0.3-0.2,0.7,0.4,1,0.2c0.3-0.2,0.1-0.4,0.4-0.6
				c0.3-0.2,0.1-0.5,0.4-0.7c0.3-0.2,0.3-0.1,0.6-0.3c0.3-0.2,0.6,0.3,0.9,0.1c0.3-0.2,0-0.6,0.3-0.8c0.3-0.2,0.5,0.1,0.8-0.1
				c0.3-0.2,0.1-0.4,0.4-0.6c0.3-0.2,0-0.6,0.3-0.8c0.3-0.2,0.6,0.2,0.9,0c0.3-0.2,0.1-0.4,0.4-0.6c0.3-0.2,0.6,0.3,0.9,0.1
				c0.3-0.2,0.3-0.1,0.6-0.3c0.3-0.2-0.1-0.7,0.2-0.9c0.3-0.2,0.1-0.4,0.4-0.6c0.3-0.2,0.6,0.2,0.9,0c0.3-0.2,0.4,0,0.7-0.2
				c0.3-0.2,0.2-0.3,0.5-0.5c0.3-0.2,0.2-0.3,0.5-0.5c0.3-0.2,0.1-0.4,0.4-0.6c0.3-0.2,0.4-0.1,0.7-0.3c0.3-0.2,0.1-0.4,0.4-0.6
				c0.3-0.2,0.6,0.2,0.9,0s0.5,0.1,0.8-0.1c0.3-0.2,0-0.6,0.3-0.8c0.3-0.2,0.2-0.3,0.5-0.4c0.3-0.2,0.4,0,0.7-0.2
				c0.3-0.2,0.3-0.2,0.6-0.4c0.3-0.2,0.1-0.5,0.4-0.7c0.3-0.2,0.4,0,0.7-0.2c0.3-0.2,0-0.6,0.3-0.8c0.3-0.2,0.7,0.4,1,0.2
				c0.3-0.2-0.1-0.7,0.2-0.9c0.3-0.2,0.2-0.3,0.5-0.5c0.3-0.2,0.3-0.1,0.6-0.3c0.3-0.2,0.3-0.1,0.6-0.3c0.3-0.2,0.4-0.1,0.7-0.3
				c0.3-0.2,0.6,0.3,0.9,0.1c0.3-0.2-0.1-0.8,0.2-1c0.3-0.2,0.2-0.3,0.5-0.5c0.3-0.2,0.8,0.5,1.1,0.3s0.3-0.2,0.6-0.4
				c0.3-0.2,0.2-0.3,0.5-0.5c0.3-0.2,0.3-0.2,0.6-0.4c0.3-0.2,0.4-0.1,0.7-0.2s0.1-0.4,0.4-0.6c0.3-0.2,0.2-0.3,0.5-0.5
				c0.3-0.2,0.1-0.5,0.4-0.7c0.3-0.2,0.4-0.1,0.6-0.3c0.3-0.2,0.4,0,0.7-0.2c0.3-0.2,0.4-0.1,0.7-0.3s-0.1-0.7,0.2-0.9
				c0.3-0.2,0.6,0.2,0.9,0c0.3-0.2,0-0.7,0.2-0.9c0.3-0.2,0.6,0.3,0.9,0.1c0.3-0.2,0.2-0.4,0.5-0.6c0.3-0.2,0.3-0.3,0.5-0.5
				c0.3-0.2,0.2-0.3,0.5-0.5c0.3-0.2,0.3-0.1,0.6-0.3c0.3-0.2,0.2-0.4,0.5-0.6c0.3-0.2,0.5,0.1,0.8-0.1c0.3-0.2,0.2-0.3,0.5-0.5
				c0.3-0.2,0.2-0.3,0.5-0.5c0.3-0.2,0.5,0.1,0.8-0.1c0.3-0.2,0.4-0.1,0.7-0.3c0.3-0.2,0.3-0.1,0.6-0.3c0.3-0.2-0.1-0.7,0.2-0.9
				c0.3-0.2,0.4-0.1,0.7-0.3c0.3-0.2,0.7,0.3,0.9,0.1c0.3-0.2,0.1-0.4,0.4-0.6c0.3-0.2,0.2-0.3,0.5-0.5c0.3-0.2,0.3-0.2,0.6-0.4
				c0.3-0.2,0.1-0.5,0.3-0.7c0.3-0.2,0.4-0.1,0.7-0.3c0.3-0.2,0.5,0.1,0.8-0.1c0.3-0.2,0.4,0,0.7-0.2c0.3-0.2,0-0.6,0.3-0.8
				c0.3-0.2,0.4-0.1,0.7-0.3c0.3-0.2,0.1-0.4,0.4-0.6c0.3-0.2,0.7,0.4,1,0.2c0.3-0.2,0.3-0.2,0.6-0.4c0.3-0.2,0.1-0.5,0.4-0.7
				c0.3-0.2,0.5,0.1,0.8-0.1c0.3-0.2,0-0.7,0.3-0.9c0.3-0.2,0.4-0.1,0.7-0.3c0.3-0.2,0.2-0.4,0.4-0.6c0.3-0.2,0.4,0,0.7-0.2
				c0.3-0.2,0.2-0.4,0.5-0.6c0.3-0.2,0.3-0.2,0.6-0.4c0.3-0.2,0.4,0,0.7-0.2c0.3-0.2,0.1-0.4,0.4-0.6c0.3-0.2,0.6,0.3,0.9,0.1
				c0.3-0.2,0-0.6,0.3-0.8c0.3-0.2,0.4-0.1,0.7-0.2c0.3-0.1,0.2,0.2,0.6,0.4c0.2,0.1,0.6-0.1,0.8,0.1c0.2,0.1,0.2,0.5,0.4,0.7
				c0.2,0.1,0.6,0,0.8,0.1c0.2,0.1,0,0.8,0.2,0.9c0.2,0.1,0.7-0.2,0.9-0.1c0.2,0.1,0.3,0.4,0.5,0.5c0.2,0.1,0.4,0.2,0.6,0.3
				c0.2,0.1,0.3,0.3,0.5,0.5c0.2,0.1,0.4,0.2,0.6,0.4c0.2,0.1,0.4,0.2,0.6,0.3c0.2,0.1-0.2,1,0,1.2c0.2,0.1,0.9-0.5,1.1-0.3
				c0.2,0.1,0.2,0.4,0.4,0.6c0.2,0.1,0.5,0.1,0.7,0.3c0.2,0.1-0.2,1,0,1.1c0.2,0.1,0.4,0.2,0.6,0.4c0.2,0.1,0.9-0.4,1.1-0.2
				c0.2,0.1,0.2,0.5,0.4,0.7c0.2,0.1,0.5,0.1,0.7,0.3c0.2,0.1-0.2,0.9,0,1.1c0.2,0.1,0.5,0.1,0.7,0.2c0.2,0.1,0.5,0.1,0.7,0.2
				c0.2,0.1,0.3,0.4,0.5,0.5c0.2,0.1,0.3,0.4,0.4,0.6c0.2,0.1,0.4,0.2,0.6,0.3c0.2,0.1,0.1,0.6,0.3,0.7c0.2,0.2,0.6,0,0.8,0.1
				c0.2,0.1,0.4,0.2,0.6,0.4c0.2,0.2,0.1,0.6,0.3,0.7c0.2,0.2,0.1,0.6,0.2,0.8c0.2,0.2,1-0.4,1.1-0.2c0.2,0.2-0.2,0.9-0.1,1.1
				c0.2,0.2,0.6,0,0.8,0.2c0.2,0.2,0.3,0.3,0.5,0.5c0.2,0.2,0.1,0.6,0.2,0.8c0.2,0.2,0.7-0.1,0.9,0c0.2,0.2,0.1,0.6,0.3,0.7
				c0.2,0.2,0.6,0.1,0.7,0.2c0.2,0.2,0.5,0.1,0.7,0.3c0.2,0.2,0.3,0.3,0.5,0.5c0.2,0.2,0.2,0.5,0.4,0.6c0.2,0.2,0.2,0.4,0.4,0.6
				c0.2,0.2,0.4,0.3,0.5,0.5c0.2,0.2,0.5,0.1,0.7,0.3c0.2,0.2,0,0.6,0.2,0.8c0.2,0.2,0.3,0.4,0.4,0.5c0.2,0.2,0.4,0.2,0.6,0.4
				c0.2,0.2,0.6,0.1,0.7,0.3c0.2,0.2-0.1,0.8,0,0.9c0.2,0.2,0.4,0.2,0.6,0.4c0.2,0.2,0.4,0.3,0.6,0.4c0.2,0.2,0.4,0.3,0.5,0.5
				c0.2,0.2,0.6,0.1,0.7,0.3c0.2,0.2-0.3,0.9-0.1,1.1c0.2,0.2,0.7,0,0.9,0.1c0.2,0.2-0.1,0.7,0.1,0.9c0.2,0.2,0.8-0.1,1,0.1
				c0.2,0.2,0.2,0.5,0.3,0.6c0.2,0.2,0.6,0.1,0.8,0.2c0.2,0.2-0.1,0.7,0.1,0.9c0.2,0.2,0.2,0.5,0.3,0.6c0.2,0.2,0.5,0.2,0.6,0.4
				c0.2,0.2,0,0.6,0.2,0.7c0.2,0.2,0.6,0.1,0.8,0.3c0.1,0.2,0.3,0.3,0.5,0.5c0.2,0.2,0,0.6,0.1,0.8c0.1,0.2,0.3,0.4,0.4,0.5
				c0.1,0.2,0.3,0.4,0.4,0.5c0.1,0.2,0.8,0,0.9,0.1c0.1,0.2-0.2,0.7,0,0.9c0.1,0.2,0.7,0,0.9,0.2c0.1,0.2,0.5,0.2,0.6,0.4
				c0.1,0.2-0.4,0.9-0.2,1c0.1,0.2,0.3,0.4,0.4,0.6c0.1,0.2,0.7,0,0.9,0.2c0.1,0.2,0,0.6,0.1,0.8c0.1,0.2,0.2,0.5,0.3,0.6
				c0.1,0.2,0.8,0,0.9,0.2c0.1,0.2,0.1,0.5,0.3,0.7c0.1,0.2,0.2,0.4,0.3,0.6c0.1,0.2,0.5,0.2,0.6,0.4c0.1,0.2-0.1,0.6,0,0.8
				c0.1,0.2,0.4,0.3,0.6,0.5c0.1,0.2,0.1,0.5,0.2,0.7c0.1,0.2,0.8,0,0.9,0.2c0.1,0.2-0.1,0.6,0,0.8c0.1,0.2,0,0.5,0.2,0.7
				c0.1,0.2,0.5,0.2,0.6,0.4c0.1,0.2,0.2,0.4,0.3,0.6c0.1,0.2,0.7,0.1,0.8,0.3c0.1,0.2-0.4,0.8-0.3,1c0.1,0.2,0.4,0.3,0.5,0.5
				c0.1,0.2,0.9,0,1,0.2c0.1,0.2,0.2,0.4,0.3,0.6c0.1,0.2-0.5,0.8-0.3,1c0.1,0.2,0.8,0,0.9,0.2c0.1,0.2,0.2,0.4,0.3,0.6
				c0.1,0.2,0.2,0.4,0.3,0.6c0.1,0.2-0.3,0.7-0.2,0.9c0.1,0.2,0.9,0,1,0.2c0.1,0.2,0,0.5,0.2,0.7c0.1,0.2-0.1,0.6,0,0.8
				c0.1,0.2,0.3,0.4,0.4,0.6c0.1,0.2,0.6,0.2,0.7,0.4c0.1,0.2-0.3,0.7-0.2,0.9c0.1,0.2,0.1,0.5,0.2,0.7c0.1,0.2,0.1,0.5,0.2,0.7
				c0.1,0.2,0.8,0.1,0.9,0.3c0.1,0.2,0.1,0.5,0.2,0.7c0.1,0.2,0.4,0.3,0.5,0.5c0.1,0.2,0.1,0.5,0.2,0.7c0.1,0.2-0.2,0.6-0.1,0.8
				c0.1,0.2,0.6,0.2,0.7,0.4c0.1,0.2,0.1,0.5,0.2,0.7c0.1,0.2,0.2,0.4,0.2,0.7c0.1,0.2-0.2,0.6-0.1,0.8c0.1,0.2,0.6,0.2,0.7,0.5
				c0.1,0.2-0.2,0.6-0.1,0.8c0.1,0.2,0.3,0.4,0.4,0.6c0.1,0.2,0.4,0.3,0.5,0.6c0.1,0.2,0.5,0.3,0.6,0.5c0.1,0.2-0.3,0.6-0.2,0.8
				c0.1,0.2,0.5,0.3,0.6,0.5c0.1,0.2,0.2,0.4,0.3,0.6c0.1,0.2,0.2,0.4,0.3,0.6c0.1,0.2,0.1,0.4,0.2,0.7c0.1,0.2,0.2,0.4,0.3,0.6
				c0.1,0.2-0.3,0.6-0.2,0.8c0.1,0.2,0.4,0.4,0.4,0.6c0.1,0.2-0.1,0.5,0,0.7c0.1,0.2,0.1,0.5,0.2,0.7c0.1,0.2,0.5,0.3,0.6,0.6
				c0.1,0.2-0.3,0.6-0.3,0.8c0.1,0.2,0.6,0.3,0.7,0.5c0.1,0.2,0.3,0.4,0.4,0.6c0.1,0.2-0.6,0.6-0.6,0.9c0.1,0.2,0.3,0.4,0.4,0.6
				c0.1,0.2-0.1,0.5,0,0.7c0.1,0.2,0.5,0.3,0.6,0.6c0.1,0.2,0.3,0.4,0.4,0.6c0,0.2-0.6,0.6-0.5,0.8c0,0.2,0.3,0.4,0.3,0.6
				c0,0.2-0.2,0.5-0.2,0.7c0,0.2,0.8,0.3,0.9,0.5c0,0.2-0.7,0.6-0.6,0.8c0,0.2,0.2,0.4,0.3,0.7c0,0.2,0.3,0.4,0.4,0.6
				c0,0.2-0.3,0.5-0.2,0.7c0,0.2,0.6,0.4,0.6,0.6c0,0.2,0,0.5,0.1,0.7c0,0.2,0,0.5,0.1,0.7s-0.3,0.5-0.2,0.7c0,0.2-0.1,0.5-0.1,0.7
				c0,0.2,0.3,0.4,0.4,0.7c0,0.2,0.5,0.4,0.5,0.7c0,0.2-0.2,0.5-0.2,0.7c0,0.2-0.6,0.5-0.6,0.7c0,0.2,0.4,0.4,0.4,0.7
				c0,0.2,0.5,0.4,0.5,0.7c0,0.2-0.4,0.5-0.4,0.7c0,0.2,0.3,0.7,0.3,0.9c-0.2,0-0.7-0.6-0.9-0.6c-0.2,0-0.5,0.3-0.7,0.3
				c-0.2,0-0.5-0.2-0.7-0.2c-0.2,0-0.5,0.7-0.7,0.7c-0.2,0-0.5-0.5-0.7-0.5c-0.2,0-0.5-0.1-0.7-0.1c-0.2,0-0.5,0-0.7,0
				c-0.2,0-0.4,0.6-0.7,0.6c-0.2,0-0.5-0.2-0.7-0.2c-0.2,0-0.5,0.2-0.7,0.2c-0.2,0-0.5,0-0.7,0c-0.2,0-0.5,0.1-0.7,0.1
				c-0.2,0-0.5-0.7-0.7-0.7c-0.2,0-0.5,0-0.7,0c-0.2,0-0.5,0.1-0.7,0.1c-0.2,0-0.5,0.2-0.7,0.2c-0.2,0-0.5,0.2-0.7,0.2
				c-0.2,0-0.4,0.4-0.7,0.4c-0.2,0-0.5-0.8-0.7-0.8c-0.2,0-0.5,0-0.7,0c-0.2,0-0.4,0.7-0.6,0.7c-0.2,0-0.5-0.1-0.7-0.1
				c-0.2,0-0.5,0.2-0.7,0.2c-0.2,0-0.5-0.4-0.7-0.4c-0.2,0-0.4,0.6-0.6,0.6c-0.2,0-0.5,0-0.7,0c-0.2,0-0.5-0.1-0.7-0.1
				c-0.2,0-0.5-0.1-0.7-0.1c-0.2,0-0.4,0.2-0.7,0.2c-0.2,0-0.5-0.2-0.7-0.2c-0.2,0-0.5,0.1-0.7,0.1c-0.2,0-0.5,0.1-0.7,0.2
				c-0.2,0-0.5-0.3-0.7-0.3c-0.2,0-0.4,0.3-0.7,0.4c-0.2,0-0.4,0.2-0.7,0.2c-0.2,0-0.5-0.3-0.7-0.2c-0.2,0-0.4,0.7-0.6,0.7
				c-0.2,0-0.5-0.5-0.8-0.5c-0.2,0-0.4,0.2-0.7,0.3c-0.2,0-0.4,0.2-0.7,0.2c-0.2,0-0.5-0.2-0.7-0.2c-0.2,0-0.4,0.4-0.6,0.5
				c-0.2,0-0.5-0.6-0.8-0.6c-0.2,0-0.4,0.5-0.6,0.5c-0.2,0-0.5-0.2-0.7-0.1c-0.2,0-0.5-0.1-0.7-0.1c-0.2,0-0.4,0.9-0.6,0.9
				c-0.2,0-0.6-0.6-0.8-0.6c-0.2,0-0.4,0.6-0.6,0.6c-0.2,0-0.5,0-0.7,0c-0.2,0-0.5,0-0.7,0.1c-0.2,0-0.4,0.2-0.7,0.2
				c-0.2,0-0.4,0.4-0.6,0.4c-0.2,0-0.5-0.3-0.7-0.3c-0.2,0-0.5-0.1-0.7,0c-0.2,0-0.4,0.2-0.7,0.3c-0.2,0-0.5-0.2-0.7-0.2
				c-0.2,0-0.5-0.1-0.7-0.1c-0.2,0-0.4,0.8-0.6,0.8c-0.2,0-0.4,0.1-0.7,0.2c-0.2,0-0.6-0.6-0.8-0.6c-0.2,0-0.4,0.6-0.6,0.6
				c-0.2,0-0.6-0.6-0.8-0.5c-0.2,0-0.4,0.7-0.6,0.8c-0.2,0-0.4,0.2-0.7,0.2c-0.2,0-0.6-0.5-0.8-0.5c-0.2,0-0.4,0.2-0.7,0.3
				c-0.2,0-0.5,0-0.7,0.1c-0.2,0-0.4,0.2-0.7,0.2c-0.2,0-0.4,0.4-0.6,0.4c-0.2,0-0.5,0.1-0.7,0.1c-0.2,0-0.6-0.5-0.8-0.5
				c-0.2,0-0.4,0.5-0.6,0.6c-0.2,0-0.5-0.2-0.7-0.2c-0.2,0-0.4,0.6-0.6,0.7c-0.2,0-0.6-0.7-0.8-0.7c-0.2,0-0.4,0.2-0.7,0.2
				c-0.2,0-0.3,0.7-0.6,0.8c-0.2,0-0.6-0.7-0.8-0.6c-0.2,0-0.5,0-0.7,0.1c-0.2,0-0.3,0.9-0.5,0.9c-0.2,0-0.5,0-0.7,0
				c-0.2,0-0.5,0-0.7,0.1c-0.2,0-0.5-0.1-0.7-0.1c-0.2,0-0.4,0.5-0.6,0.5c-0.2,0-0.5-0.3-0.8-0.2c-0.2,0-0.4,0.2-0.7,0.2
				c-0.2,0-0.5-0.2-0.7-0.2c-0.2,0-0.5-0.1-0.7,0c-0.2,0-0.4,0.4-0.6,0.4c-0.2,0-0.5-0.2-0.7-0.1c-0.2,0-0.3,0.9-0.5,1
				c-0.2,0-0.6-0.5-0.8-0.5c-0.2,0-0.4,0.2-0.7,0.3c-0.2,0-0.5-0.4-0.8-0.3c-0.2,0-0.3,0.7-0.6,0.8c-0.2,0-0.5-0.3-0.8-0.2
				c-0.2,0-0.4,0.2-0.7,0.2c-0.2,0-0.5-0.2-0.7-0.1c-0.2,0-0.3,0.6-0.6,0.7c-0.2,0-0.5,0-0.7,0.1c-0.2,0-0.5-0.3-0.8-0.3
				c-0.2,0-0.3,0.7-0.6,0.7c-0.2,0-0.5-0.2-0.7-0.2c-0.2,0-0.5-0.1-0.7,0c-0.2,0-0.4,0.2-0.7,0.3c-0.2,0-0.5,0.1-0.7,0.2
				c-0.2,0-0.4,0.5-0.6,0.5c-0.2,0.1-0.6-0.5-0.8-0.4c-0.2,0-0.4,0.5-0.6,0.5c-0.2,0.1-0.4,0.3-0.6,0.4c-0.2,0.1-0.5,0.1-0.7,0.1
				c-0.2,0.1-0.6-0.4-0.8-0.3c-0.2,0.1-0.5-0.2-0.8-0.2c-0.2,0.1-0.3,0.8-0.5,0.9c-0.2,0.1-0.4,0.3-0.6,0.3
				c-0.2,0.1-0.6-0.5-0.8-0.5c-0.2,0.1-0.3,0.6-0.6,0.6c-0.2,0.1-0.5-0.1-0.7,0c-0.2,0.1-0.4,0.4-0.6,0.5c-0.2,0.1-0.6-0.6-0.9-0.6
				c-0.2,0.1-0.4,0.4-0.6,0.4c-0.2,0.1-0.5,0-0.7,0.1c-0.2,0.1-0.3,0.7-0.5,0.7c-0.2,0.1-0.6-0.7-0.9-0.6c-0.2,0.1-0.4,0.1-0.7,0.2
				c-0.2,0.1-0.3,0.8-0.5,0.8c-0.2,0.1-0.4,0.1-0.7,0.2c-0.2,0.1-0.5,0.1-0.7,0.2c-0.2,0.1-0.5-0.3-0.8-0.2
				c-0.2,0.1-0.4,0.5-0.6,0.6c-0.2,0.1-0.5,0-0.7,0.1c-0.2,0.1-0.5-0.1-0.7,0c-0.2,0.1-0.6-0.3-0.8-0.2c-0.2,0.1-0.5,0.1-0.7,0.2
				c-0.2,0.1-0.3,0.6-0.6,0.6c-0.2,0.1-0.4,0.3-0.6,0.4c-0.2,0.1-0.6-0.7-0.9-0.6c-0.2,0.1-0.3,0.8-0.5,0.9
				c-0.2,0.1-0.6-0.3-0.8-0.3c-0.2,0.1-0.5-0.1-0.7-0.1c-0.2,0.1-0.4,0.3-0.6,0.4c-0.2,0.1-0.4,0.1-0.7,0.2
				c-0.2,0.1-0.3,0.6-0.6,0.6c-0.2,0.1-0.5-0.1-0.7,0c-0.2,0.1-0.5,0.1-0.7,0.2c-0.2,0.1-0.5,0.1-0.7,0.1c-0.2,0.1-0.5,0-0.7,0.1
				s-0.4,0.5-0.6,0.5c-0.2,0.1-0.6-0.5-0.8-0.4c-0.2,0.1-0.4,0.1-0.7,0.2c-0.2,0.1-0.4,0.1-0.7,0.2c-0.2,0.1-0.2,0.9-0.5,1
				c-0.2,0.1-0.5-0.1-0.7,0c-0.2,0.1-0.6-0.4-0.8-0.4c-0.2,0.1-0.2,0.9-0.5,1c-0.2,0.1-0.4,0.2-0.7,0.2c-0.2,0.1-0.7-0.7-0.9-0.7
				c-0.2,0.1-0.3,0.8-0.5,0.9c-0.2,0.1-0.4,0.2-0.6,0.3c-0.2,0.1-0.5,0.1-0.7,0.2c-0.2,0.1-0.6-0.5-0.9-0.5
				c-0.2,0.1-0.2,0.8-0.5,0.9c-0.2,0.1-0.5-0.2-0.8-0.1c-0.2,0.1-0.6-0.3-0.8-0.2c-0.2,0.1-0.4,0.2-0.7,0.3
				c-0.2,0.1-0.5,0.1-0.7,0.2c-0.2,0.1-0.2,0.8-0.5,0.9c-0.2,0.1-0.7-0.6-0.9-0.5c-0.2,0.1-0.3,0.6-0.5,0.7
				c-0.2,0.1-0.5-0.1-0.7-0.1c-0.2,0.1-0.3,0.5-0.6,0.6c-0.2,0.1-0.4,0.2-0.6,0.3c-0.2,0.1-0.6-0.2-0.8-0.2
				c-0.2,0.1-0.4,0.4-0.6,0.4c-0.2,0.1-0.4,0.1-0.7,0.2c-0.2,0.1-0.5,0-0.7,0.1c-0.2,0.1-0.4,0.2-0.7,0.2c-0.2,0.1-0.4,0.2-0.7,0.2
				c-0.2,0.1-0.5-0.1-0.7,0c-0.2,0.1-0.5-0.1-0.7,0c-0.2,0.1-0.3,0.6-0.5,0.7c-0.2,0.1-0.6-0.3-0.8-0.3c-0.2,0.1-0.2,0.8-0.5,0.8
				c-0.2,0.1-0.6-0.3-0.8-0.2c-0.2,0.1-0.4,0.4-0.6,0.5c-0.2,0.1-0.4,0.2-0.6,0.3c-0.2,0.1-0.5-0.2-0.8-0.1
				c-0.2,0.1-0.3,0.6-0.5,0.7c-0.2,0.1-0.6-0.2-0.8-0.2c-0.2,0.1-0.3,0.5-0.6,0.6c-0.2,0.1-0.6-0.3-0.8-0.2
				c-0.2,0.1-0.4,0.3-0.6,0.4c-0.2,0.1-0.4,0.2-0.7,0.3c-0.2,0.1-0.4,0.3-0.6,0.3c-0.2,0.1-0.4,0.2-0.7,0.2c-0.2,0.1-0.5-0.1-0.7,0
				c-0.2,0.1-0.4,0.3-0.6,0.4c-0.2,0.1-0.7-0.5-0.9-0.4c-0.2,0.1-0.2,0.8-0.4,0.9c-0.2,0.1-0.4,0.3-0.6,0.3
				c-0.2,0.1-0.6-0.4-0.9-0.3c-0.2,0.1-0.5,0-0.7,0.1c-0.2,0.1-0.4,0.4-0.6,0.5c-0.2,0.1-0.4,0.3-0.6,0.4c-0.2,0.1-0.6-0.2-0.8-0.2
				c-0.2,0.1-0.2,0.8-0.4,0.9c-0.2,0.1-0.6-0.4-0.9-0.3c-0.2,0.1-0.2,0.9-0.4,1c-0.2,0.1-0.7-0.5-0.9-0.4c-0.2,0.1-0.4,0.4-0.6,0.5
				c-0.2,0.1-0.4,0.3-0.6,0.4c-0.2,0.1-0.6-0.4-0.9-0.3c-0.2,0.1-0.1,1-0.4,1c-0.2,0.1-0.5,0-0.7,0.1c-0.2,0.1-0.5,0.1-0.7,0.2
				c-0.2,0.1-0.4,0.3-0.6,0.4c-0.2,0.1-0.6-0.1-0.8,0c-0.2,0.1-0.5-0.1-0.7,0c-0.2,0.1-0.3,0.6-0.5,0.7c-0.2,0.1-0.5-0.1-0.7,0
				s-0.4,0.3-0.6,0.4c-0.2,0.1-0.3,0.4-0.5,0.5c-0.2,0.1-0.7-0.4-0.9-0.3c-0.2,0.1-0.4,0.3-0.6,0.4c-0.2,0.1-0.4,0.2-0.7,0.2
				c-0.2,0.1-0.5,0-0.7,0.1c-0.2,0.1-0.3,0.6-0.5,0.7c-0.2,0.1-0.5,0.1-0.7,0.1c-0.2,0.1-0.3,0.5-0.5,0.6c-0.2,0.1-0.6-0.1-0.8-0.1
				c-0.2,0.1-0.4,0.3-0.6,0.4c-0.2,0.1-0.4,0.3-0.6,0.4c-0.2,0.1-0.3,0.4-0.5,0.5c-0.2,0.1-0.5-0.1-0.8,0c-0.2,0.1-0.5-0.1-0.8,0
				c-0.2,0.1-0.5,0-0.7,0.1c-0.2,0.1-0.2,0.6-0.5,0.7c-0.2,0.1-0.4,0.2-0.7,0.3c-0.2,0.1-0.5,0.1-0.7,0.2c-0.2,0.1-0.6-0.2-0.8-0.1
				c-0.2,0.1-0.2,0.7-0.4,0.8c-0.2,0.1-0.5,0.1-0.7,0.1c-0.2,0.1-0.5,0-0.7,0.1c-0.2,0.1-0.3,0.4-0.5,0.5c-0.2,0.1-0.6-0.2-0.8-0.1
				c-0.2,0.1-0.1,0.8-0.3,0.9c-0.2,0.1-0.6-0.3-0.8-0.2c-0.2,0.1-0.3,0.4-0.5,0.5c-0.2,0.1-0.4,0.3-0.6,0.4
				c-0.2,0.1-0.4,0.2-0.6,0.3c-0.2,0.1-0.4,0.2-0.6,0.3c-0.2,0.1-0.5,0.1-0.7,0.2c-0.2,0.1-0.5,0-0.7,0.1c-0.2,0.1-0.4,0.2-0.6,0.3
				c-0.2,0.1-0.4,0.3-0.6,0.4c-0.2,0.1-0.4,0.3-0.6,0.4c-0.2,0.1-0.5-0.1-0.8,0c-0.2,0.1-0.5,0.1-0.7,0.2c-0.2,0.1-0.5,0-0.7,0.1
				c-0.2,0.1-0.3,0.4-0.5,0.5c-0.2,0.1-0.2,0.6-0.4,0.7c-0.2,0.1-0.7-0.3-0.9-0.2c-0.2,0.1-0.4,0.2-0.6,0.3
				c-0.2,0.1-0.3,0.4-0.5,0.5c-0.2,0.1-0.4,0.3-0.6,0.4c-0.2,0.1-0.4,0.3-0.6,0.4c-0.2,0.1-0.6-0.1-0.8,0c-0.2,0.1-0.2,0.6-0.4,0.7
				c-0.2,0.1-0.4,0.2-0.6,0.3c-0.2,0.1-0.6-0.2-0.8-0.1c-0.2,0.1-0.4,0.3-0.6,0.4c-0.2,0.1-0.5,0.1-0.7,0.2
				c-0.2,0.1-0.3,0.4-0.5,0.5c-0.2,0.1-0.5,0.1-0.7,0.2c-0.2,0.1-0.5,0-0.7,0.1c-0.2,0.1-0.3,0.4-0.5,0.5c-0.2,0.1-0.3,0.4-0.5,0.5
				c-0.2,0.1-0.2,0.7-0.4,0.8c-0.2,0.1-0.6,0-0.8,0.1c-0.2,0.1-0.7-0.2-0.9-0.1c-0.2,0.1-0.3,0.4-0.5,0.5c-0.2,0.1-0.2,0.7-0.4,0.8
				c-0.2,0.1-0.7-0.2-0.9-0.1c-0.2,0.1-0.5,0.1-0.7,0.2c-0.2,0.1-0.4,0.2-0.6,0.3c-0.2,0.1-0.4,0.2-0.6,0.3
				c-0.2,0.1-0.1,0.8-0.3,0.9c-0.2,0.1-0.7-0.2-0.9-0.1c-0.2,0.1-0.3,0.4-0.5,0.5c-0.2,0.1-0.2,0.5-0.4,0.6
				c-0.2,0.1-0.2,0.5-0.4,0.6c-0.2,0.1-0.4,0.3-0.6,0.4c-0.2,0.1-0.5,0-0.7,0.2c-0.2,0.1-0.4,0.3-0.6,0.4c-0.2,0.1-0.6,0-0.8,0.1
				c-0.2,0.1-0.1,0.7-0.3,0.8c-0.2,0.1-0.8-0.4-1-0.3c-0.2,0.1-0.3,0.5-0.4,0.6c-0.2,0.1-0.2,0.6-0.4,0.7c-0.2,0.1-0.6-0.1-0.8,0
				c-0.2,0.1-0.3,0.5-0.5,0.6s-0.6,0-0.8,0.1c-0.2,0.1-0.3,0.4-0.5,0.5c-0.2,0.1-0.7-0.2-0.9-0.1c-0.2,0.1,0,0.9-0.2,1
				c-0.2,0.1-0.8-0.3-1-0.2c-0.2,0.1-0.2,0.5-0.4,0.6c-0.2,0.1-0.5,0-0.7,0.2c-0.2,0.1-0.1,0.7-0.3,0.9c-0.2,0.1-0.6-0.1-0.8,0
				c-0.2,0.1-0.3,0.4-0.5,0.5c-0.2,0.1-0.4,0.3-0.6,0.4c-0.2,0.1-0.4,0.2-0.6,0.3c-0.2,0.1,0,0.8-0.2,0.9c-0.2,0.1-0.8-0.3-0.9-0.1
				c-0.2,0.1,0,0.8-0.2,0.9c-0.2,0.1-0.7-0.2-0.9,0c-0.2,0.1-0.2,0.5-0.4,0.7c-0.2,0.1-0.3,0.3-0.5,0.5c-0.2,0.1-0.3,0.4-0.5,0.5
				c-0.2,0.1-0.6,0-0.8,0.1c-0.2,0.1-0.3,0.4-0.5,0.5c-0.2,0.1-0.6,0.1-0.7,0.2c-0.2,0.1-0.1,0.6-0.3,0.8c-0.2,0.1-0.5,0.2-0.6,0.3
				c-0.2,0.1-0.5,0.1-0.7,0.3c-0.2,0.1-0.3,0.3-0.5,0.5c-0.2,0.1-0.5,0.1-0.7,0.3c-0.2,0.1-0.3,0.4-0.4,0.6
				c-0.2,0.1-0.5,0.1-0.7,0.3c-0.2,0.1,0.2,0.9,0,1.1c-0.2,0.2-0.7-0.1-0.9,0c-0.2,0.2-0.6,0.1-0.8,0.2c-0.2,0.2,0,0.7-0.2,0.9
				c-0.2,0.2-0.8-0.1-0.9,0c-0.2,0.2,0.2,0.9,0,1c-0.2,0.2-0.8-0.2-1,0c-0.2,0.2,0.2,0.9,0.1,1.1c-0.2,0.2-0.7-0.1-0.9,0.1
				c-0.2,0.2,0,0.6-0.2,0.8c-0.2,0.2-0.3,0.4-0.4,0.5c-0.2,0.2-0.3,0.3-0.5,0.5c-0.2,0.2-0.5,0.1-0.7,0.3c-0.2,0.2-0.8-0.1-1,0
				c-0.2,0.2,0.1,0.8-0.1,0.9c-0.2,0.2-0.6,0-0.8,0.2c-0.2,0.2,0,0.7-0.1,0.9c-0.2,0.2-0.4,0.3-0.5,0.5c-0.2,0.2-0.1,0.5-0.3,0.7
				c-0.2,0.2-0.8-0.1-1,0.1c-0.2,0.2-0.3,0.4-0.5,0.5c-0.2,0.2-0.1,0.5-0.3,0.7c-0.2,0.2-0.4,0.2-0.6,0.4c-0.2,0.2-0.3,0.3-0.5,0.5
				c-0.2,0.2-0.4,0.2-0.6,0.4c-0.2,0.2,0,0.6-0.2,0.8c-0.2,0.2-0.5,0.2-0.7,0.4c-0.1,0.2,0.2,0.8,0.1,0.9c-0.1,0.2-0.9-0.1-1,0.1
				c-0.1,0.2,0.2,0.7,0,0.9C168.7,284.8,168.1,285.2,168,285.4"/>
		</defs>
		<use xlink:href="#XMLID_46_"  style="overflow:visible;fill:#096A52;"/>
		<clipPath id="XMLID_22_">
			<use xlink:href="#XMLID_46_"  style="overflow:visible;"/>
		</clipPath>
	</g>
	<g>
		<defs>
			<path id="XMLID_47_" d="M167.6,285.6c0-0.3,0.1-0.4,0.3-0.8c0.1-0.2,0.5-0.2,0.7-0.4c0.1-0.2-0.2-0.6-0.1-0.8
				c0.1-0.2,0.8-0.1,0.9-0.3c0.1-0.2-0.1-0.6,0-0.8c0.1-0.2,0.8,0,1-0.2c0.1-0.2-0.4-0.8-0.3-1c0.1-0.2,0.4-0.3,0.5-0.5
				c0.1-0.2,0.5-0.2,0.6-0.4c0.1-0.2,0.1-0.5,0.2-0.7c0.1-0.2-0.2-0.7-0.1-0.9c0.1-0.2,1,0.1,1.1-0.1c0.1-0.2,0-0.6,0.1-0.7
				c0.1-0.2,0.2-0.4,0.3-0.6c0.1-0.2,0-0.5,0.2-0.7c0.1-0.2,0.5-0.2,0.6-0.4c0.1-0.2,0.4-0.3,0.5-0.5c0.1-0.2,0.4-0.3,0.5-0.5
				c0.1-0.2-0.2-0.7,0-0.9c0.1-0.2,0.5-0.2,0.7-0.4c0.1-0.2,0.2-0.4,0.4-0.6c0.1-0.2-0.1-0.6,0-0.8c0.1-0.2,0.3-0.4,0.4-0.5
				c0.1-0.2,0.6-0.2,0.7-0.4c0.1-0.2,0.1-0.5,0.2-0.7c0.1-0.2,0.7-0.1,0.8-0.3c0.1-0.2,0.4-0.3,0.5-0.5c0.1-0.2,0.2-0.4,0.3-0.6
				c0.1-0.2,0.1-0.5,0.2-0.7c0.1-0.2,0.1-0.5,0.2-0.7c0.1-0.2,0.7,0,0.8-0.2c0.1-0.2-0.2-0.7,0-0.9c0.1-0.2,0.5-0.2,0.7-0.3
				c0.1-0.2,0.2-0.4,0.4-0.6c0.1-0.2,0.4-0.3,0.5-0.5c0.1-0.2-0.1-0.6,0.1-0.8c0.1-0.2,0.3-0.4,0.4-0.6c0.1-0.2,0.7-0.1,0.8-0.2
				c0.1-0.2,0.1-0.5,0.2-0.7c0.1-0.2,0.3-0.4,0.4-0.5c0.1-0.2,0.4-0.3,0.6-0.4c0.1-0.2-0.1-0.7,0-0.9c0.1-0.2,0.9,0.2,1.1,0
				c0.1-0.2-0.2-0.8-0.1-0.9c0.2-0.2,0.2-0.4,0.4-0.6c0.1-0.2,0.4-0.3,0.6-0.4c0.2-0.2,0.3-0.3,0.5-0.5c0.2-0.2,0.3-0.3,0.5-0.5
				c0.2-0.2,0.4-0.3,0.5-0.5c0.2-0.2,0.2-0.4,0.4-0.6c0.2-0.2,0.2-0.4,0.3-0.6c0.2-0.2,0.5-0.2,0.6-0.3c0.2-0.2,0.7,0,0.9-0.1
				c0.2-0.2,0.4-0.3,0.5-0.4c0.2-0.2-0.1-0.7,0-0.9c0.2-0.2,0.5-0.1,0.7-0.3c0.2-0.2,0.5-0.1,0.7-0.3c0.2-0.2-0.1-0.7,0.1-0.9
				c0.2-0.2,0.3-0.3,0.5-0.5c0.2-0.2,0.4-0.3,0.5-0.5c0.2-0.2,0.2-0.5,0.3-0.6c0.2-0.2,0.3-0.3,0.5-0.5c0.2-0.2,0.5-0.1,0.7-0.3
				c0.2-0.2,0.5-0.1,0.7-0.3c0.2-0.2,0.1-0.6,0.2-0.8c0.2-0.2,0.2-0.5,0.3-0.7c0.2-0.2,0.5-0.1,0.7-0.3c0.2-0.2,0.6-0.1,0.7-0.3
				c0.2-0.2-0.3-0.9-0.1-1.1c0.2-0.2,0.8,0.2,1,0c0.2-0.2,0.3-0.3,0.5-0.5c0.2-0.2,0.1-0.6,0.2-0.7c0.2-0.2,0.8,0.1,0.9,0
				c0.2-0.2-0.1-0.8,0.1-0.9c0.2-0.2,0.4-0.2,0.6-0.4c0.2-0.2,0.4-0.3,0.6-0.4c0.2-0.2,0.3-0.4,0.5-0.5c0.2-0.2,0.4-0.2,0.6-0.4
				c0.2-0.2,0.1-0.6,0.3-0.7c0.2-0.2,0.2-0.5,0.4-0.6c0.2-0.2,0.5-0.1,0.7-0.2c0.2-0.2,0.6,0,0.8-0.1c0.2-0.2,0.2-0.5,0.4-0.6
				c0.2-0.2,0.4-0.3,0.5-0.4c0.2-0.2,0.1-0.6,0.3-0.7c0.2-0.2,0.8,0.2,0.9,0c0.2-0.2,0.2-0.5,0.3-0.7c0.2-0.1,0.2-0.5,0.3-0.7
				c0.2-0.1,0.4-0.3,0.6-0.4c0.2-0.1,0.4-0.2,0.6-0.4c0.2-0.1,0.2-0.5,0.4-0.6c0.2-0.1,0.4-0.3,0.5-0.4c0.2-0.1,0.7,0.2,0.9,0
				c0.2-0.1,0.2-0.5,0.4-0.6c0.2-0.1,0.3-0.4,0.5-0.5c0.2-0.1,0.1-0.6,0.3-0.7c0.2-0.1,0.5-0.2,0.6-0.3c0.2-0.1,0.6,0,0.8-0.1
				c0.2-0.1,0.1-0.6,0.3-0.7c0.2-0.1,0.6,0,0.8-0.1c0.2-0.1,0-0.7,0.2-0.9c0.2-0.1,0.5-0.2,0.6-0.3c0.2-0.1,0.7,0.1,0.9,0
				c0.2-0.1,0-0.8,0.2-0.9c0.2-0.1,0.5-0.1,0.7-0.2c0.2-0.1,0.8,0.3,1,0.1c0.2-0.1,0.3-0.3,0.5-0.5c0.2-0.1,0.1-0.6,0.3-0.7
				c0.2-0.1,0.2-0.5,0.4-0.7c0.2-0.1,0.4-0.3,0.6-0.4c0.2-0.1,0.8,0.3,1,0.2c0.2-0.1,0-0.8,0.2-1c0.2-0.1,0.5-0.1,0.7-0.2
				c0.2-0.1,0.4-0.2,0.6-0.3c0.2-0.1,0.4-0.3,0.6-0.4c0.2-0.1,0.4-0.2,0.6-0.3c0.2-0.1,0.6,0,0.8-0.1c0.2-0.1,0.1-0.6,0.3-0.8
				c0.2-0.1,0.3-0.4,0.5-0.6c0.2-0.1,0.8,0.4,1,0.3c0.2-0.1,0-0.9,0.2-1c0.2-0.1,0.6,0,0.7-0.1c0.2-0.1,0.6,0.1,0.8-0.1
				c0.2-0.1,0-0.9,0.2-1c0.2-0.1,0.8,0.4,1,0.3c0.2-0.1,0.1-0.7,0.3-0.8c0.2-0.1,0.3-0.5,0.5-0.6c0.2-0.1,0.4-0.2,0.6-0.3
				c0.2-0.1,0.5-0.1,0.7-0.2c0.2-0.1,0.7,0.2,0.9,0.1c0.2-0.1,0-0.9,0.2-1c0.2-0.1,0.6,0,0.8-0.1c0.2-0.1,0.3-0.5,0.5-0.6
				c0.2-0.1,0.8,0.4,1,0.3c0.2-0.1,0.1-0.7,0.3-0.8c0.2-0.1,0.7,0.2,0.9,0.1c0.2-0.1,0.4-0.3,0.6-0.4c0.2-0.1,0.4-0.2,0.6-0.3
				c0.2-0.1,0.2-0.6,0.4-0.8c0.2-0.1,0.6,0.1,0.8,0c0.2-0.1,0.1-0.8,0.3-0.9c0.2-0.1,0.8,0.5,1,0.4c0.2-0.1,0.5-0.1,0.7-0.2
				c0.2-0.1,0.2-0.6,0.4-0.7c0.2-0.1,0.3-0.4,0.5-0.5c0.2-0.1,0.4-0.3,0.6-0.4c0.2-0.1,0.4-0.2,0.6-0.3c0.2-0.1,0.4-0.2,0.6-0.3
				c0.2-0.1,0.6,0.2,0.8,0.1c0.2-0.1,0.5,0,0.7-0.1c0.2-0.1,0.4-0.2,0.6-0.3c0.2-0.1,0.1-0.9,0.3-1c0.2-0.1,0.7,0.3,0.9,0.2
				c0.2-0.1,0.5-0.1,0.7-0.2c0.2-0.1,0.2-0.7,0.4-0.8c0.2-0.1,0.5,0,0.7-0.1c0.2-0.1,0.6,0.2,0.8,0.1c0.2-0.1,0.4-0.2,0.6-0.3
				c0.2-0.1,0.4-0.2,0.6-0.3c0.2-0.1,0.4-0.3,0.6-0.4c0.2-0.1,0.2-0.7,0.4-0.8c0.2-0.1,0.4-0.3,0.6-0.4c0.2-0.1,0.7,0.5,0.9,0.4
				c0.2-0.1,0.3-0.5,0.5-0.5c0.2-0.1,0.3-0.4,0.5-0.5c0.2-0.1,0.7,0.4,0.9,0.3c0.2-0.1,0.2-0.6,0.4-0.7c0.2-0.1,0.3-0.4,0.5-0.5
				c0.2-0.1,0.6,0.1,0.8,0c0.2-0.1,0.4-0.4,0.6-0.4c0.2-0.1,0.4-0.3,0.6-0.4c0.2-0.1,0.5-0.1,0.7-0.2s0.4-0.2,0.7-0.2
				c0.2-0.1,0.4-0.2,0.7-0.2c0.2-0.1,0.5,0,0.7-0.1c0.2-0.1,0.6,0.4,0.9,0.3c0.2-0.1,0.3-0.6,0.5-0.7c0.2-0.1,0.5,0.1,0.8,0
				c0.2-0.1,0.4-0.2,0.7-0.3c0.2-0.1,0.3-0.6,0.5-0.7c0.2-0.1,0.6,0.2,0.8,0.1c0.2-0.1,0.5,0.1,0.8,0c0.2-0.1,0.2-0.7,0.5-0.8
				c0.2-0.1,0.6,0.2,0.8,0.1c0.2-0.1,0.3-0.5,0.5-0.6c0.2-0.1,0.6,0.4,0.9,0.3c0.2-0.1,0.2-0.9,0.4-1c0.2-0.1,0.4-0.3,0.6-0.4
				s0.6,0.3,0.8,0.3c0.2-0.1,0.5,0.1,0.7,0c0.2-0.1,0.2-0.8,0.4-0.9c0.2-0.1,0.4-0.2,0.7-0.2c0.2-0.1,0.5,0,0.7-0.1
				c0.2-0.1,0.6,0.2,0.8,0.2c0.2-0.1,0.4-0.4,0.6-0.5c0.2-0.1,0.5,0.1,0.7,0c0.2-0.1,0.3-0.6,0.5-0.6c0.2-0.1,0.4-0.2,0.6-0.3
				c0.2-0.1,0.4-0.2,0.6-0.3c0.2-0.1,0.6,0.4,0.8,0.3c0.2-0.1,0.4-0.3,0.6-0.4c0.2-0.1,0.4-0.3,0.6-0.4c0.2-0.1,0.6,0.3,0.8,0.2
				c0.2-0.1,0.3-0.5,0.5-0.6c0.2-0.1,0.5,0.1,0.8,0.1c0.2-0.1,0.5-0.1,0.7-0.2c0.2-0.1,0.4-0.3,0.6-0.4c0.2-0.1,0.6,0.4,0.8,0.4
				c0.2-0.1,0.3-0.5,0.6-0.6c0.2-0.1,0.4-0.4,0.6-0.5c0.2-0.1,0.6,0.3,0.8,0.3c0.2-0.1,0.3-0.7,0.5-0.8c0.2-0.1,0.5-0.1,0.7-0.1
				c0.2-0.1,0.6,0.4,0.8,0.3c0.2-0.1,0.4-0.5,0.6-0.5c0.2-0.1,0.5,0,0.7-0.1c0.2-0.1,0.3-0.6,0.6-0.6c0.2-0.1,0.5-0.1,0.7-0.1
				c0.2-0.1,0.6,0.3,0.8,0.3c0.2-0.1,0.4-0.2,0.6-0.3c0.2-0.1,0.5,0.2,0.8,0.2c0.2-0.1,0.3-0.9,0.5-0.9c0.2-0.1,0.7,0.7,0.9,0.6
				c0.2-0.1,0.4-0.4,0.6-0.4c0.2-0.1,0.3-0.5,0.6-0.6c0.2-0.1,0.5,0,0.7,0c0.2-0.1,0.5,0,0.7-0.1c0.2-0.1,0.4-0.2,0.7-0.2
				c0.2-0.1,0.5-0.1,0.7-0.1c0.2-0.1,0.4-0.2,0.7-0.3c0.2-0.1,0.4-0.3,0.6-0.4c0.2-0.1,0.6,0.7,0.9,0.7c0.2-0.1,0.3-0.8,0.5-0.8
				c0.2-0.1,0.4-0.3,0.6-0.3c0.2-0.1,0.6,0.4,0.8,0.4c0.2-0.1,0.4-0.4,0.6-0.5c0.2-0.1,0.5,0.3,0.8,0.2c0.2,0,0.3-0.6,0.6-0.7
				c0.2,0,0.6,0.5,0.8,0.4c0.2,0,0.4-0.2,0.7-0.3c0.2,0,0.4-0.2,0.7-0.2c0.2,0,0.4-0.3,0.6-0.3c0.2,0,0.4-0.2,0.7-0.2
				c0.2,0,0.6,0.5,0.8,0.4c0.2,0,0.3-0.8,0.5-0.8c0.2,0,0.6,0.7,0.8,0.7c0.2,0,0.5-0.1,0.7-0.2s0.3-0.8,0.5-0.9
				c0.2,0,0.6,0.8,0.9,0.8c0.2,0,0.4-0.2,0.7-0.3c0.2,0,0.4-0.3,0.7-0.3c0.2,0,0.5,0.2,0.7,0.2c0.2,0,0.5-0.1,0.7-0.1
				c0.2,0,0.5-0.1,0.7-0.2c0.2,0,0.4-0.3,0.6-0.4c0.2,0,0.4-0.6,0.6-0.7c0.2,0,0.5,0.1,0.7,0c0.2,0,0.5,0.1,0.7,0.1
				c0.2,0,0.5,0.4,0.8,0.4c0.2,0,0.4-0.3,0.7-0.4c0.2,0,0.4-0.4,0.6-0.4c0.2,0,0.5-0.1,0.7-0.1c0.2,0,0.5,0.5,0.8,0.5
				c0.2,0,0.4-0.5,0.6-0.6c0.2,0,0.5,0.2,0.7,0.1c0.2,0,0.4-0.3,0.7-0.3c0.2,0,0.4-0.2,0.7-0.2c0.2,0,0.5,0.4,0.7,0.4
				c0.2,0,0.5,0.1,0.7,0.1c0.2,0,0.5-0.1,0.7-0.2c0.2,0,0.5-0.1,0.7-0.1c0.2,0,0.4-0.2,0.7-0.2c0.2,0,0.4-0.2,0.7-0.2
				c0.2,0,0.5,0.1,0.7,0.1c0.2,0,0.5,0.1,0.7,0.1c0.2,0,0.4-0.8,0.6-0.8c0.2,0,0.5,0.1,0.7,0.1c0.2,0,0.5,0.1,0.7,0.1
				c0.2,0,0.5,0.3,0.7,0.3c0.2,0,0.4-0.4,0.7-0.4c0.2,0,0.5,0.2,0.7,0.1c0.2,0,0.4-0.6,0.7-0.6c0.2,0,0.5,0.2,0.7,0.2
				c0.2,0,0.5,0.2,0.7,0.2c0.2,0,0.5,0,0.7,0c0.2,0,0.5-0.2,0.7-0.2c0.2,0,0.4-0.5,0.7-0.5c0.2,0,0.5,0.5,0.7,0.5
				c0.2,0,0.5,0.2,0.7,0.1c0.2,0,0.5-0.1,0.7-0.1c0.2,0,0.4-0.7,0.7-0.7c0.2,0,0.5,0.7,0.7,0.7c0.2,0,0.4-0.4,0.7-0.4
				c0.2,0,0.5-0.2,0.7-0.3c0.2,0,0.5,0.6,0.7,0.6c0.2,0,0.4-0.5,0.7-0.5c0.2,0,0.5-0.2,0.7-0.2c0.2,0,0.5,0.7,0.7,0.6
				c0.2,0,0.5-0.2,0.7-0.2c0.2,0,0.5,0.1,0.7,0.1c0.2,0,0.5,0.2,0.7,0.1c0.2,0,0.5-0.7,0.7-0.7c0.2,0,0.5,0.6,0.7,0.6
				c0.2,0,0.5-0.9,0.7-0.9c0.2,0,0.5,0.5,0.7,0.5c0.2,0,0.5-0.2,0.7-0.2c0.2,0,0.5-0.1,0.7-0.1c0.2,0,0.5,0.4,0.7,0.4
				c0.2,0,0.5-0.3,0.7-0.3c0.2,0,0.5,0.5,0.7,0.5c0.2,0,0.5-0.7,0.7-0.7c0.2,0,0.5,0.5,0.7,0.5c0.2,0,0.5,0.4,0.7,0.4
				c0.2,0,0.5-0.4,0.7-0.4c0.2,0,0.5-0.4,0.7-0.4c0.2,0,0.4,0.9,0.7,0.9c0.2,0,0.5,0,0.7,0c0.2,0,0.5-0.7,0.7-0.7
				c0.2,0,0.5,0.3,0.7,0.3c0.2,0,0.5-0.2,0.7-0.1c0.2,0,0.4,0.6,0.7,0.6c0.2,0,0.5-0.3,0.7-0.2c0.2,0,0.4,0.3,0.7,0.3
				c0.2,0,0.5-0.7,0.7-0.7c0.2,0,0.4,0.4,0.7,0.4c0.2,0,0.5-0.1,0.7-0.1c0.2,0,0.5-0.2,0.7-0.2c0.2,0,0.5,0,0.7,0
				c0.2,0,0.4,0.9,0.6,0.9c0.2,0,0.5-0.1,0.7-0.1c0.2,0,0.5-0.4,0.7-0.4c0.2,0,0.5,0,0.7,0c0.2,0,0.4,0.5,0.6,0.5
				c0.2,0,0.5-0.3,0.7-0.3c0.2,0,0.4,0.2,0.7,0.2c0.2,0,0.4,0.3,0.7,0.4c0.2,0,0.5-0.4,0.7-0.4c0.2,0,0.4,0.6,0.6,0.7
				c0.2,0,0.6-0.7,0.8-0.6c0.2,0,0.4,0.6,0.6,0.6c0.2,0,0.6-0.6,0.8-0.5c0.2,0,0.4,0.4,0.6,0.4c0.2,0,0.5-0.1,0.7,0
				c0.2,0,0.5,0,0.7,0c0.2,0,0.5,0,0.7,0.1c0.2,0,0.3,0.9,0.6,0.9c0.2,0,0.4,0.1,0.7,0.2c0.2,0,0.5-0.2,0.7-0.2
				c0.2,0,0.5-0.3,0.8-0.3c0.2,0,0.3,0.8,0.6,0.8c0.2,0,0.5-0.1,0.7,0c0.2,0,0.5,0,0.7,0c0.2,0,0.5,0,0.7,0c0.2,0,0.4,0.1,0.7,0.2
				c0.2,0.1,0.5,0,0.7,0.1c0.2,0.1,0.5-0.2,0.8-0.2c0.2,0.1,0.4,0.5,0.6,0.6c0.2,0.1,0.4,0.2,0.6,0.3c0.2,0.1,0.6-0.5,0.8-0.5
				c0.2,0.1,0.4,0.4,0.6,0.4c0.2,0.1,0.5,0,0.7,0c0.2,0.1,0.3,0.6,0.5,0.6c0.2,0.1,0.5-0.2,0.8-0.2c0.2,0.1,0.4,0.4,0.6,0.4
				c0.2,0.1,0.5-0.1,0.7,0c0.2,0.1,0.5,0,0.7,0.1c0.2,0.1,0.2,0.8,0.5,0.8c0.2,0.1,0.7-0.6,0.9-0.5c0.2,0.1,0.3,0.4,0.6,0.5
				c0.2,0.1,0.2,0.7,0.4,0.8c0.2,0.1,0.4,0.2,0.6,0.3c0.2,0.1,0.8-0.7,1-0.6c0.2,0.1,0.3,0.4,0.5,0.5c0.2,0.1,0.5,0,0.7,0.1
				c0.2,0.1,0.4,0.1,0.7,0.2c0.2,0.1,0.3,0.5,0.5,0.6c0.2,0.1,0.3,0.4,0.5,0.5c0.2,0.1,0.3,0.4,0.5,0.5c0.2,0.1,0.5,0,0.7,0.1
				c0.2,0.1,0.4,0.2,0.6,0.3c0.2,0.1,0.7-0.2,0.9-0.1c0.2,0.1,0,0.9,0.2,1c0.2,0.1,0.5,0,0.7,0.1c0.2,0.1,0.6,0,0.8,0.1
				c0.1,0.2,0.1,0.5,0.1,0.8c0.1,0.2-0.5,0.6-0.4,0.8c0,0.2,0.6,0.3,0.7,0.6c0,0.2-0.3,0.5-0.3,0.8c0,0.2,0.3,0.4,0.3,0.6
				c0,0.2,0.6,0.4,0.6,0.6c0,0.2-0.4,0.5-0.4,0.7c0,0.2,0.3,0.4,0.3,0.7c0,0.2-0.6,0.5-0.6,0.7c0,0.2,0,0.5,0,0.7
				c0,0.2,0.6,0.4,0.6,0.7c0,0.2,0.3,0.5,0.3,0.7c0,0.2-0.5,0.5-0.5,0.7c0,0.2-0.2,0.5-0.2,0.7c0,0.2,0.1,0.5,0.1,0.7
				c0,0.2,0.2,0.5,0.2,0.7c0,0.2,0.3,0.5,0.3,0.7c0,0.2-0.2,0.5-0.2,0.7c0,0.2,0.3,0.5,0.3,0.7c0,0.2-0.5,0.5-0.6,0.7
				c0,0.2-0.3,0.5-0.3,0.7c0,0.2,0.5,0.5,0.5,0.7c0,0.2,0,0.5,0,0.7c0,0.2-0.2,0.5-0.3,0.7c0,0.2,0,0.5,0,0.7c0,0.2,0.3,0.5,0.3,0.7
				c0,0.2-0.3,0.4-0.3,0.7c0,0.2,0.4,0.5,0.4,0.7c0,0.2-0.8,0.4-0.8,0.6c0,0.2,0.6,0.5,0.6,0.8c0,0.2,0,0.5,0,0.7
				c0,0.3-0.1,0.5-0.2,0.7c0,0.3-0.1,0.5-0.2,0.7c-0.1,0.4,0,0.5-0.3,0.7c-0.3,0.2-0.2-0.6-0.6-0.7c-0.2,0-0.6,0.6-0.8,0.6
				c-0.2,0-0.5,0.1-0.7,0c-0.2,0-0.3-0.9-0.5-1c-0.2,0-0.4-0.1-0.7-0.1c-0.2,0-0.5,0-0.7,0c-0.2,0-0.4-0.1-0.7-0.1
				c-0.2,0-0.4-0.3-0.7-0.3c-0.2,0-0.5,0.2-0.7,0.2c-0.2,0-0.5,0-0.7,0c-0.2,0-0.5,0.3-0.7,0.2c-0.2,0-0.4-0.2-0.7-0.2
				c-0.2,0-0.4-0.3-0.6-0.3c-0.2,0-0.4-0.2-0.7-0.2c-0.2,0-0.6,0.6-0.8,0.5c-0.2,0-0.4-0.6-0.6-0.6c-0.2,0-0.5,0.5-0.8,0.5
				c-0.2,0-0.4-0.7-0.6-0.7c-0.2,0-0.5,0.1-0.7,0.1c-0.2,0-0.5,0-0.7,0c-0.2,0-0.5,0.1-0.7,0.1c-0.2,0-0.4-0.2-0.7-0.2
				c-0.2,0-0.5,0.2-0.7,0.1c-0.2,0-0.4-0.4-0.7-0.4c-0.2,0-0.5,0.1-0.7,0.1c-0.2,0-0.5,0-0.7,0c-0.2,0-0.4-0.4-0.6-0.4
				c-0.2,0-0.4-0.2-0.7-0.2c-0.2,0-0.4-0.2-0.7-0.2c-0.2,0-0.5,0.6-0.8,0.6c-0.2,0-0.4-0.2-0.7-0.2c-0.2,0-0.4-0.7-0.6-0.7
				c-0.2,0-0.5,0.2-0.7,0.2c-0.2,0-0.5,0.1-0.7,0.1c-0.2,0-0.5,0-0.7,0c-0.2,0-0.5,0.4-0.7,0.3c-0.2,0-0.4-0.2-0.7-0.2
				c-0.2,0-0.4-0.4-0.7-0.4c-0.2,0-0.4-0.2-0.7-0.3c-0.2,0-0.5,0.5-0.7,0.4c-0.2,0-0.4-0.2-0.7-0.2c-0.2,0-0.5,0.3-0.7,0.3
				c-0.2,0-0.4-0.8-0.6-0.8c-0.2,0-0.5,0-0.7,0c-0.2,0-0.5,0.3-0.7,0.3c-0.2,0-0.4-0.4-0.7-0.4c-0.2,0-0.5,0.6-0.7,0.5
				c-0.2,0-0.5-0.2-0.7-0.2c-0.2,0-0.5,0.2-0.7,0.2c-0.2,0-0.5-0.2-0.7-0.2c-0.2,0-0.5,0.2-0.7,0.2c-0.2,0-0.5,0-0.7,0
				c-0.2,0-0.5-0.3-0.7-0.3c-0.2,0-0.5,0.3-0.7,0.3c-0.2,0-0.4-0.6-0.7-0.6c-0.2,0-0.5,0.5-0.7,0.5c-0.2,0-0.5-0.3-0.7-0.3
				c-0.2,0-0.5,0-0.7-0.1c-0.2,0-0.5,0.4-0.7,0.4c-0.2,0-0.5-0.4-0.7-0.4c-0.2,0-0.5,0.3-0.7,0.3c-0.2,0-0.5-0.6-0.7-0.6
				c-0.2,0-0.5,0.6-0.7,0.6c-0.2,0-0.5-0.1-0.7-0.1c-0.2,0-0.5,0.1-0.7,0.1c-0.2,0-0.5-0.1-0.7-0.1c-0.2,0-0.5,0.1-0.7,0.1
				c-0.2,0-0.5,0.1-0.7,0.1c-0.2,0-0.5-0.9-0.7-0.9c-0.2,0-0.4,0.9-0.7,1c-0.2,0-0.5-0.2-0.7-0.2c-0.2,0-0.5,0.2-0.7,0.2
				c-0.2,0-0.5-0.9-0.7-0.9c-0.2,0-0.5,0.1-0.7,0.1s-0.4,0.8-0.7,0.9c-0.2,0-0.5-0.3-0.7-0.3c-0.2,0-0.5,0.2-0.7,0.2
				c-0.2,0-0.5-0.8-0.7-0.8c-0.2,0-0.5,0.3-0.7,0.3c-0.2,0-0.5,0.3-0.7,0.3c-0.2,0-0.5-0.1-0.7-0.1c-0.2,0-0.5-0.1-0.7-0.1
				c-0.2,0-0.5,0.2-0.7,0.2c-0.2,0-0.5-0.3-0.7-0.3c-0.2,0-0.4,0.5-0.7,0.5c-0.2,0-0.5,0.2-0.7,0.2c-0.2,0-0.5-0.3-0.7-0.3
				c-0.2,0-0.5-0.4-0.7-0.4c-0.2,0-0.4,0.9-0.6,1c-0.2,0-0.5-0.8-0.8-0.8c-0.2,0-0.4,0.4-0.7,0.5s-0.5,0-0.7,0
				c-0.2,0-0.5-0.4-0.7-0.4c-0.2,0-0.4,0.6-0.6,0.7c-0.2,0-0.5-0.3-0.7-0.3c-0.2,0-0.4,0.4-0.7,0.4c-0.2,0-0.4,0.3-0.7,0.4
				c-0.2,0-0.5,0-0.7,0.1c-0.2,0-0.5-0.1-0.7-0.1c-0.2,0-0.5-0.1-0.7-0.1c-0.2,0-0.5,0.1-0.7,0.1c-0.2,0-0.4,0.3-0.7,0.4
				c-0.2,0-0.5-0.4-0.7-0.3c-0.2,0-0.5,0-0.7,0c-0.2,0-0.4,0.2-0.7,0.3c-0.2,0-0.4,0.4-0.7,0.4c-0.2,0-0.5-0.5-0.8-0.5
				c-0.2,0-0.4,0.2-0.7,0.2c-0.2,0-0.4,0.2-0.7,0.2c-0.2,0-0.5,0.1-0.7,0.1c-0.2,0-0.4,0.4-0.6,0.4c-0.2,0-0.6-0.7-0.8-0.7
				c-0.2,0-0.4,0.6-0.6,0.6c-0.2,0-0.5-0.5-0.8-0.5c-0.2,0-0.4,0.7-0.6,0.8c-0.2,0-0.5-0.1-0.7-0.1c-0.2,0-0.4,0.5-0.6,0.5
				c-0.2,0-0.5-0.4-0.8-0.4c-0.2,0-0.5-0.1-0.7-0.1c-0.2,0-0.4,0.3-0.6,0.4c-0.2,0-0.5-0.3-0.7-0.2c-0.2,0-0.4,0.5-0.6,0.5
				c-0.2,0-0.5,0.1-0.7,0.2c-0.2,0-0.5-0.4-0.8-0.3c-0.2,0-0.5,0.1-0.7,0.1c-0.2,0-0.5,0.1-0.7,0.1c-0.2,0-0.3,0.7-0.6,0.7
				c-0.2,0-0.6-0.5-0.8-0.5c-0.2,0-0.4,0.6-0.6,0.7c-0.2,0-0.4,0.3-0.6,0.4c-0.2,0-0.6-0.7-0.8-0.7c-0.2,0-0.5,0.1-0.7,0.1
				c-0.2,0-0.3,0.7-0.6,0.7c-0.2,0-0.5-0.3-0.8-0.3c-0.2,0-0.5,0-0.7,0s-0.3,0.7-0.6,0.8c-0.2,0-0.5-0.1-0.7,0c-0.2,0-0.5,0-0.7,0.1
				c-0.2,0.1-0.4,0.4-0.6,0.4c-0.2,0.1-0.6-0.4-0.8-0.3c-0.2,0.1-0.4,0.3-0.6,0.3c-0.2,0.1-0.5-0.1-0.7-0.1
				c-0.2,0.1-0.3,0.7-0.5,0.7c-0.2,0.1-0.6-0.3-0.8-0.3c-0.2,0.1-0.5-0.2-0.7-0.1c-0.2,0.1-0.4,0.4-0.6,0.5c-0.2,0.1-0.5,0-0.7,0.1
				c-0.2,0.1-0.3,0.6-0.6,0.6c-0.2,0.1-0.7-0.7-0.9-0.6c-0.2,0.1-0.4,0.3-0.6,0.3c-0.2,0.1-0.3,0.9-0.5,0.9
				c-0.2,0.1-0.5,0.1-0.7,0.1c-0.2,0.1-0.7-0.7-0.9-0.6c-0.2,0.1-0.3,0.8-0.5,0.8c-0.2,0.1-0.5,0.1-0.7,0.2
				c-0.2,0.1-0.5,0.1-0.7,0.2c-0.2,0.1-0.6-0.5-0.8-0.4c-0.2,0.1-0.2,0.9-0.5,1c-0.2,0.1-0.5-0.1-0.7,0c-0.2,0.1-0.5-0.2-0.8-0.1
				c-0.2,0.1-0.4,0.2-0.7,0.3c-0.2,0.1-0.3,0.6-0.5,0.6c-0.2,0.1-0.6-0.4-0.8-0.3c-0.2,0.1-0.5,0-0.7,0.1s-0.5,0-0.7,0.1
				c-0.2,0.1-0.3,0.7-0.5,0.8c-0.2,0.1-0.5,0.1-0.7,0.1c-0.2,0.1-0.4,0.3-0.6,0.4c-0.2,0.1-0.5,0-0.7,0.1c-0.2,0.1-0.6-0.3-0.8-0.2
				c-0.2,0.1-0.3,0.6-0.5,0.7c-0.2,0.1-0.5,0-0.7,0.1c-0.2,0.1-0.5,0.1-0.7,0.2c-0.2,0.1-0.6-0.3-0.8-0.2c-0.2,0.1-0.3,0.6-0.5,0.7
				c-0.2,0.1-0.6-0.3-0.8-0.2c-0.2,0.1-0.4,0.3-0.6,0.3c-0.2,0.1-0.4,0.4-0.6,0.4c-0.2,0.1-0.3,0.5-0.5,0.5
				c-0.2,0.1-0.6-0.3-0.8-0.3c-0.2,0.1-0.3,0.5-0.5,0.6c-0.2,0.1-0.4,0.2-0.6,0.3c-0.2,0.1-0.4,0.2-0.6,0.3
				c-0.2,0.1-0.4,0.1-0.7,0.2c-0.2,0.1-0.4,0.2-0.6,0.3c-0.2,0.1-0.6-0.2-0.8-0.1c-0.2,0.1-0.3,0.4-0.6,0.5c-0.2,0.1-0.5-0.1-0.7,0
				c-0.2,0.1-0.5,0.1-0.7,0.2c-0.2,0.1-0.3,0.5-0.5,0.6c-0.2,0.1-0.6-0.3-0.8-0.2c-0.2,0.1-0.2,0.7-0.4,0.8
				c-0.2,0.1-0.3,0.4-0.6,0.5c-0.2,0.1-0.7-0.5-0.9-0.4c-0.2,0.1-0.3,0.4-0.6,0.5c-0.2,0.1-0.5,0-0.7,0.1c-0.2,0.1-0.3,0.6-0.5,0.7
				c-0.2,0.1-0.3,0.4-0.5,0.5s-0.7-0.4-0.9-0.3c-0.2,0.1-0.4,0.3-0.6,0.4c-0.2,0.1-0.6-0.1-0.8,0c-0.2,0.1-0.1,0.9-0.3,1
				c-0.2,0.1-0.7-0.5-0.9-0.4c-0.2,0.1-0.4,0.3-0.6,0.4c-0.2,0.1-0.3,0.4-0.5,0.5c-0.2,0.1-0.6-0.1-0.8,0c-0.2,0.1-0.2,0.7-0.4,0.8
				c-0.2,0.1-0.4,0.2-0.6,0.3c-0.2,0.1-0.4,0.2-0.6,0.3c-0.2,0.1-0.6-0.1-0.8,0c-0.2,0.1-0.5,0-0.7,0.1c-0.2,0.1-0.3,0.5-0.5,0.6
				c-0.2,0.1-0.2,0.6-0.4,0.7c-0.2,0.1-0.5,0-0.7,0.1c-0.2,0.1-0.7-0.3-0.9-0.2c-0.2,0.1-0.3,0.5-0.5,0.6c-0.2,0.1-0.2,0.6-0.4,0.7
				c-0.2,0.1-0.6-0.2-0.8-0.1c-0.2,0.1-0.3,0.5-0.5,0.6c-0.2,0.1-0.7-0.4-1-0.3c-0.2,0.1-0.3,0.5-0.5,0.6c-0.2,0.1-0.5,0.1-0.7,0.2
				c-0.2,0.1-0.1,0.8-0.3,0.9c-0.2,0.1-0.6-0.2-0.8-0.1c-0.2,0.1-0.4,0.2-0.7,0.3c-0.2,0.1-0.4,0.2-0.6,0.3
				c-0.2,0.1-0.1,0.8-0.3,0.9c-0.2,0.1-0.5,0-0.7,0.1c-0.2,0.1-0.3,0.4-0.5,0.5c-0.2,0.1-0.4,0.2-0.6,0.3c-0.2,0.1-0.4,0.3-0.6,0.4
				c-0.2,0.1-0.8-0.4-1-0.3c-0.2,0.1-0.4,0.2-0.6,0.3c-0.2,0.1-0.4,0.3-0.6,0.4c-0.2,0.1-0.3,0.4-0.5,0.5c-0.2,0.1-0.3,0.4-0.5,0.5
				c-0.2,0.1-0.2,0.5-0.4,0.6c-0.2,0.1-0.8-0.5-1-0.3c-0.2,0.1-0.4,0.2-0.6,0.3c-0.2,0.1-0.1,0.8-0.3,0.9c-0.2,0.1-0.5,0.1-0.7,0.2
				c-0.2,0.1-0.3,0.3-0.5,0.5c-0.2,0.1-0.6-0.1-0.8,0c-0.2,0.1-0.1,0.7-0.3,0.9c-0.2,0.1-0.4,0.2-0.6,0.3c-0.2,0.1-0.5,0.1-0.7,0.2
				c-0.2,0.1-0.5,0.1-0.7,0.2c-0.2,0.1-0.3,0.4-0.5,0.5c-0.2,0.1-0.5,0-0.7,0.1c-0.2,0.1-0.4,0.3-0.6,0.4c-0.2,0.1-0.3,0.3-0.5,0.5
				c-0.2,0.1-0.6,0-0.8,0.1c-0.2,0.1-0.2,0.5-0.4,0.6c-0.2,0.1-0.3,0.4-0.5,0.5c-0.2,0.1-0.6,0-0.8,0.1c-0.2,0.1,0,0.8-0.2,0.9
				c-0.2,0.1-0.7-0.2-0.9-0.1c-0.2,0.1-0.3,0.4-0.5,0.5c-0.2,0.1-0.3,0.4-0.5,0.5c-0.2,0.1-0.5,0-0.7,0.2c-0.2,0.1-0.2,0.6-0.4,0.7
				c-0.2,0.1-0.8-0.3-1-0.2c-0.2,0.1-0.2,0.6-0.3,0.7c-0.2,0.1-0.5,0.1-0.7,0.2c-0.2,0.1-0.5,0.1-0.7,0.3c-0.2,0.1,0.1,0.9-0.1,1.1
				c-0.2,0.1-0.8-0.3-1-0.2c-0.2,0.1-0.1,0.7-0.3,0.8c-0.2,0.1-0.4,0.2-0.6,0.3c-0.2,0.1-0.4,0.3-0.6,0.4s-0.3,0.4-0.5,0.5
				c-0.2,0.1-0.2,0.5-0.4,0.7c-0.2,0.1-0.6,0-0.8,0.1c-0.2,0.1-0.4,0.2-0.6,0.3c-0.2,0.1-0.3,0.4-0.4,0.6c-0.2,0.1-0.6,0-0.7,0.2
				c-0.2,0.1-0.5,0.1-0.7,0.3c-0.2,0.1,0.1,0.8-0.1,1c-0.2,0.1-0.3,0.3-0.5,0.5c-0.2,0.1-0.8-0.3-1-0.1c-0.2,0.1,0,0.7-0.2,0.9
				c-0.2,0.1-0.8-0.2-1-0.1c-0.2,0.1,0,0.8-0.1,1c-0.2,0.1-0.3,0.4-0.5,0.5c-0.2,0.1-0.8-0.2-0.9-0.1c-0.2,0.1-0.3,0.4-0.4,0.6
				c-0.2,0.1-0.4,0.3-0.6,0.4c-0.2,0.1-0.3,0.4-0.5,0.5c-0.2,0.1-0.2,0.5-0.4,0.7c-0.2,0.1-0.3,0.3-0.5,0.5c-0.2,0.1-0.7-0.1-0.9,0
				c-0.2,0.1-0.1,0.7-0.2,0.8c-0.2,0.2-0.5,0.1-0.7,0.2c-0.2,0.2,0,0.7-0.2,0.9c-0.2,0.2-0.9-0.3-1.1-0.2c-0.2,0.2-0.3,0.4-0.5,0.5
				c-0.2,0.2,0.1,0.8-0.1,1c-0.2,0.2-0.9-0.3-1-0.1c-0.2,0.2-0.4,0.3-0.6,0.4c-0.2,0.2,0.2,0.9,0,1.1c-0.2,0.2-0.4,0.2-0.6,0.4
				c-0.2,0.2-0.4,0.3-0.6,0.4c-0.2,0.2-0.5,0.1-0.7,0.3c-0.2,0.2-0.1,0.6-0.3,0.8c-0.2,0.2-0.6,0-0.8,0.2c-0.2,0.2-0.3,0.4-0.5,0.5
				c-0.2,0.2-0.6,0.1-0.7,0.2c-0.2,0.2-0.4,0.2-0.6,0.4c-0.2,0.2-0.1,0.5-0.3,0.7c-0.2,0.2-0.5,0.1-0.7,0.3
				c-0.2,0.2,0.2,0.9,0.1,1.1c-0.2,0.2-0.8-0.1-0.9,0c-0.2,0.2-0.2,0.4-0.4,0.6c-0.2,0.2-0.7,0-0.8,0.2c-0.2,0.2,0.1,0.8,0,1
				c-0.2,0.2-0.6,0.1-0.8,0.2c-0.2,0.2-0.3,0.4-0.4,0.5s-0.5,0.1-0.7,0.3c-0.2,0.2,0,0.7-0.1,0.9c-0.2,0.2-0.4,0.3-0.6,0.4
				c-0.2,0.2-0.6,0-0.8,0.2c-0.2,0.2,0.1,0.8-0.1,0.9c-0.2,0.2-0.6,0.1-0.7,0.3c-0.2,0.2-0.5,0.2-0.6,0.4c-0.2,0.2-0.2,0.4-0.4,0.6
				c-0.2,0.2-0.3,0.3-0.5,0.5c-0.2,0.2-0.1,0.6-0.2,0.8c-0.2,0.2-0.7-0.1-0.9,0.1c-0.2,0.2,0,0.6-0.2,0.8c-0.2,0.2-0.1,0.5-0.3,0.7
				c-0.2,0.2-0.3,0.3-0.5,0.5c-0.2,0.2-0.7,0-0.9,0.2c-0.2,0.2-0.6,0.1-0.7,0.3c-0.2,0.2,0.2,0.8,0.1,1c-0.2,0.2-0.2,0.5-0.4,0.6
				c-0.2,0.2-0.8-0.1-1,0.1c-0.2,0.2,0,0.7-0.1,0.8c-0.2,0.2-0.4,0.2-0.6,0.4c-0.2,0.2-0.1,0.6-0.2,0.8c-0.2,0.2-0.9-0.2-1,0
				c-0.2,0.2-0.1,0.5-0.3,0.7c-0.2,0.2-0.4,0.3-0.5,0.5c-0.2,0.2,0.1,0.7,0,0.9c-0.2,0.2-0.9-0.2-1.1,0c-0.2,0.2-0.3,0.4-0.4,0.6
				c-0.2,0.2,0.2,0.8,0,1c-0.2,0.2-0.3,0.4-0.4,0.6c-0.2,0.2-0.3,0.3-0.5,0.5c-0.2,0.2-0.6,0.1-0.8,0.3c-0.2,0.2,0,0.6-0.1,0.8
				c-0.2,0.2-0.4,0.3-0.5,0.5c-0.2,0.2-0.4,0.2-0.6,0.4c-0.2,0.2-0.6,0.1-0.8,0.3c-0.2,0.2-0.3,0.4-0.5,0.5
				c-0.2,0.2,0.1,0.7-0.1,0.8c-0.2,0.2-0.4,0.6-0.6,0.8c-0.1-0.2,0.1-1-0.1-1.2c-0.1-0.2-0.9,0.1-1-0.1c-0.1-0.2,0.1-0.7,0-0.8
				c-0.1-0.2-0.1-0.5-0.2-0.7c-0.1-0.2-0.4-0.3-0.5-0.5c-0.1-0.2-0.3-0.4-0.4-0.6c-0.1-0.2-0.7-0.1-0.8-0.3
				c-0.1-0.2-0.1-0.5-0.2-0.7c-0.1-0.2-0.2-0.4-0.4-0.6c-0.1-0.2-0.2-0.4-0.3-0.6c-0.1-0.2-0.1-0.5-0.3-0.7s-0.6-0.2-0.7-0.4
				c-0.1-0.2,0.3-0.7,0.2-0.9c-0.1-0.2-0.3-0.4-0.4-0.6c-0.1-0.2-0.2-0.4-0.4-0.6c-0.1-0.2-0.9,0-1-0.2c-0.1-0.2-0.1-0.5-0.2-0.7
				c-0.1-0.2,0.3-0.7,0.2-0.9c-0.1-0.2-0.9,0-1-0.2c-0.1-0.2-0.3-0.4-0.4-0.6c-0.1-0.2,0.5-0.8,0.4-1c-0.1-0.2-0.8-0.1-0.9-0.3
				c-0.1-0.2-0.3-0.4-0.4-0.6c-0.1-0.2-0.2-0.4-0.3-0.6c-0.1-0.2,0.4-0.7,0.3-0.9c-0.1-0.2-0.9-0.1-1-0.3c-0.1-0.2,0.1-0.6,0-0.8
				c-0.1-0.2,0.2-0.6,0.1-0.8c-0.1-0.2-0.3-0.4-0.4-0.6c-0.1-0.2-0.2-0.5-0.3-0.6C168.2,285.7,167.6,285.9,167.6,285.6"/>
		</defs>
		<use xlink:href="#XMLID_47_"  style="overflow:visible;fill:#005944;"/>
		<clipPath id="XMLID_23_">
			<use xlink:href="#XMLID_47_"  style="overflow:visible;"/>
		</clipPath>
	</g>
	<g>
		<defs>
			<path id="XMLID_34_" d="M205.4,117.7c0.1,0.2-0.3,0.4-0.3,0.7c0,0.2,0,0.4,0,0.6c0,0.2,0.5,0.6,0.4,0.8c-0.1,0.2,0.1,0.6,0,0.8
				c-0.1,0.2-0.7,0.2-0.8,0.4c-0.1,0.2,0.1,0.6-0.1,0.8c-0.1,0.2-0.8,0-0.9,0.2c-0.1,0.2,0.1,0.6-0.1,0.8c-0.1,0.2-0.1,0.5-0.2,0.7
				c-0.1,0.2-0.4,0.3-0.5,0.5c-0.2,0.2-0.8-0.1-0.9,0.1c-0.2,0.2,0.2,0.8,0,1c-0.2,0.2-0.2,0.4-0.4,0.6c-0.2,0.2-0.4,0.2-0.6,0.4
				c-0.2,0.2-0.3,0.4-0.4,0.5c-0.2,0.2-0.6,0-0.8,0.2c-0.2,0.2,0,0.7-0.2,0.8c-0.2,0.2-0.8-0.2-1,0c-0.2,0.2-0.1,0.6-0.2,0.8
				c-0.2,0.2-0.8-0.2-1-0.1c-0.2,0.1,0.1,0.8-0.1,1c-0.2,0.1-0.5,0.2-0.6,0.3c-0.2,0.1-0.6,0-0.7,0.2c-0.2,0.1-0.2,0.5-0.4,0.6
				c-0.2,0.1,0,0.7-0.2,0.8c-0.2,0.1-0.9-0.4-1.1-0.2c-0.2,0.1-0.2,0.5-0.3,0.7c-0.2,0.1-0.3,0.4-0.5,0.5c-0.2,0.1-0.2,0.5-0.4,0.6
				c-0.2,0.1-0.5,0.1-0.7,0.2c-0.2,0.1-0.5,0.1-0.7,0.3c-0.2,0.1-0.5,0.1-0.7,0.3c-0.2,0.1-0.1,0.7-0.3,0.8c-0.2,0.1-0.6,0-0.8,0.1
				c-0.2,0.1-0.4,0.3-0.6,0.4c-0.2,0.1-0.1,0.6-0.3,0.8c-0.2,0.1-0.4,0.2-0.6,0.4c-0.2,0.1-0.6,0-0.8,0.1c-0.2,0.1-0.2,0.5-0.4,0.6
				c-0.2,0.1-0.7-0.2-0.9,0c-0.2,0.1-0.4,0.2-0.6,0.3c-0.2,0.1-0.3,0.4-0.5,0.5c-0.2,0.1-0.3,0.4-0.4,0.6c-0.2,0.1-0.2,0.5-0.4,0.6
				c-0.2,0.1-0.7-0.2-0.9,0c-0.2,0.1-0.1,0.7-0.3,0.8c-0.2,0.1-0.6,0-0.8,0.1c-0.2,0.1-0.3,0.3-0.5,0.4c-0.2,0.1-0.4,0.2-0.6,0.3
				c-0.2,0.1-0.1,0.6-0.3,0.8c-0.2,0.1-0.4,0.3-0.6,0.4c-0.2,0.1-0.6-0.1-0.8,0c-0.2,0.1-0.2,0.5-0.4,0.6c-0.2,0.1-0.4,0.3-0.6,0.4
				c-0.2,0.1-0.5,0.1-0.7,0.2c-0.2,0.1-0.1,0.7-0.3,0.8c-0.2,0.1-0.9-0.4-1-0.3c-0.2,0.1,0,0.8-0.2,0.9c-0.2,0.1-0.4,0.4-0.6,0.5
				c-0.2,0.1-0.6,0.1-0.8,0.1c-0.2,0-0.6,0-0.8,0c-0.2-0.1-0.5-0.2-0.7-0.4c-0.2-0.1-0.3-0.4-0.5-0.6c-0.1-0.2-0.4-0.3-0.5-0.6
				c-0.1-0.2-0.3-0.4-0.4-0.6c-0.1-0.2,0.1-0.5,0-0.8c-0.1-0.2,0.4-0.6,0.4-0.8c0-0.2,0-0.4,0-0.7c0-0.2-0.7-0.4-0.7-0.6
				c0-0.2,0.2-0.5,0.2-0.7c0-0.2,0.3-0.5,0.2-0.7c0-0.2-0.5-0.4-0.5-0.7c0-0.2,0-0.5,0-0.7c0-0.2,0.1-0.5,0.1-0.7
				c0-0.2-0.2-0.5-0.2-0.7c0-0.2,0.1-0.5,0.1-0.7c0-0.2,0.3-0.4,0.3-0.7c0-0.2,0.3-0.4,0.4-0.7c0-0.2-0.3-0.5-0.3-0.7
				c0-0.2-0.2-0.5-0.2-0.7c0-0.2,0.3-0.4,0.4-0.6c0-0.2,0.4-0.4,0.4-0.6c0-0.2-0.7-0.6-0.7-0.8c0-0.2,0.7-0.3,0.8-0.5
				c0.1-0.2,0.1-0.5,0.1-0.7c0.1-0.2-0.3-0.5-0.2-0.8c0.1-0.2,0.7-0.3,0.8-0.5c0.1-0.2-0.5-0.6-0.4-0.8c0.1-0.2,0.3-0.4,0.3-0.6
				c0.1-0.2,0.2-0.4,0.3-0.6c0.1-0.2,0.1-0.5,0.2-0.7c0.1-0.2,0.3-0.4,0.4-0.6c0.1-0.2-0.1-0.6,0-0.8c0.1-0.2,0-0.5,0.1-0.7
				c0.1-0.2,0.5-0.3,0.6-0.5c0.1-0.2,0.6-0.1,0.7-0.3c0.1-0.2,0.1-0.5,0.2-0.7c0.1-0.2,0.3-0.4,0.4-0.5c0.1-0.2,0.1-0.6,0.2-0.7
				c0.2-0.2,0.8,0.1,0.9-0.1c0.2-0.2,0.1-0.5,0.3-0.7c0.2-0.2,0.2-0.5,0.3-0.7c0.2-0.1,0.4-0.2,0.6-0.4c0.2-0.1,0.4-0.2,0.6-0.3
				c0.2-0.1,0.3-0.4,0.5-0.5c0.2-0.1,0.4-0.2,0.6-0.3c0.2-0.1,0.7,0.3,0.9,0.2c0.2-0.1,0.3-0.4,0.5-0.5c0.2-0.1,0.4-0.3,0.6-0.4
				c0.2-0.1,0.3-0.5,0.5-0.6c0.2-0.1,0.5,0,0.7-0.1c0.2-0.1,0.6,0.2,0.8,0.2c0.2-0.1,0.3-0.5,0.6-0.6c0.2-0.1,0.6,0.3,0.8,0.2
				c0.2-0.1,0.3-0.7,0.5-0.7c0.2-0.1,0.5,0,0.7,0c0.2-0.1,0.6,0.4,0.8,0.3c0.2-0.1,0.3-0.7,0.5-0.8c0.2-0.1,0.5,0.1,0.7,0.1
				c0.2,0,0.6,0.6,0.8,0.5c0.2,0,0.4-0.2,0.7-0.2c0.2,0,0.4-0.5,0.6-0.5c0.2,0,0.4-0.4,0.6-0.4c0.2,0,0.5-0.1,0.7-0.1
				c0.2,0,0.6,0.7,0.8,0.7c0.2,0,0.4-0.7,0.6-0.8c0.2,0,0.5,0.2,0.7,0.2c0.2,0,0.5,0,0.7,0c0.2,0,0.5,0,0.7,0c0.2,0,0.5,0.1,0.7,0.1
				c0.2,0,0.5,0.4,0.7,0.4c0.2,0,0.5-0.5,0.7-0.4c0.2,0,0.5-0.2,0.7-0.2c0.2,0,0.4,0.8,0.6,0.9c0.2,0,0.6-0.7,0.8-0.6
				c0.2,0,0.4,0.4,0.6,0.5c0.2,0.1,0.3,0.5,0.5,0.6c0.2,0.1,0.7-0.5,1-0.4c0.2,0.1,0.1,0.9,0.3,1c0.2,0.1,0.7-0.2,0.9,0
				c0.2,0.1,0.6,0.2,0.7,0.3c0.2,0.2,0.3,0.5,0.4,0.7c0.1,0.2,0.1,0.5,0.2,0.7C205.4,117.2,205.3,117.5,205.4,117.7"/>
		</defs>
		<use xlink:href="#XMLID_34_"  style="overflow:visible;fill:#096A52;"/>
		<clipPath id="XMLID_26_">
			<use xlink:href="#XMLID_34_"  style="overflow:visible;"/>
		</clipPath>
	</g>
	<g>
		<defs>
			<path id="XMLID_62_" d="M289.6,177.3c0,0,19.7,27.1,23.9,45.2s-5.9,7.4-5.9,7.4l-4.9,5.9c0,0-3.6,3.1-5.4-11.1
				C295.5,210.6,290.3,180.2,289.6,177.3"/>
		</defs>
		<use xlink:href="#XMLID_62_"  style="overflow:visible;fill:#004B37;"/>
		<clipPath id="XMLID_28_">
			<use xlink:href="#XMLID_62_"  style="overflow:visible;"/>
		</clipPath>
	</g>
	<path class="st5" d="M307.8,217.4c0.3,1.8-1,3.4-2.7,3.7c-1.7,0.2-3.3-1-3.6-2.8c-0.3-1.8,1-3.4,2.7-3.7
		C305.9,214.4,307.5,215.7,307.8,217.4"/>
</g>
<g>
	<g>
		<path class="st6" d="M457.3,227.9c4.8,1.6,9.6,3.4,14.2,5.5c1.2,0.5,2.2-1.2,1-1.7c-4.8-2.1-9.7-4.1-14.7-5.7
			C456.6,225.5,456.1,227.4,457.3,227.9L457.3,227.9z"/>
	</g>
</g>
<g>
	<path class="st7" d="M502.4,252.9c-0.8,0.6-1.7,1.3-2.3,2.1c-0.6,0.8-1,1.9-0.8,3c0.4,1.7,2.4,2.7,4.1,2.4c1.7-0.4,3-1.9,3.7-3.5
		c0.6-1.4,0.6-3.2-0.5-4.3c-0.7-0.7-1.8-0.9-2.7-0.7c-1,0.2-1.8,0.7-2.6,1.3c-0.8,0.7-1.5,1.6-1.8,2.6"/>
	<g>
		<path class="st7" d="M501.9,252c-1.1,0.8-2.1,1.6-2.8,2.7c-0.7,1.1-1.1,2.5-0.7,3.8c0.7,2.2,3.3,3.3,5.4,2.8
			c2.3-0.6,4-2.7,4.5-4.9c0.3-1.2,0.3-2.4-0.3-3.5c-0.6-1.2-1.8-1.9-3-2c-1.4-0.2-2.8,0.4-3.9,1.2c-1.2,0.9-2.2,2-2.6,3.5
			c-0.3,1.2,1.6,1.8,1.9,0.5c0.4-1.5,2.1-3,3.7-3.2c0.7-0.1,1.5,0.1,1.9,0.6c0.4,0.5,0.5,1.3,0.4,2c-0.2,1.5-1.2,3.1-2.6,3.8
			c-1.2,0.5-2.7,0.2-3.4-0.9c-0.1-0.2-0.2-0.6-0.2-1c0-0.5,0.2-0.9,0.4-1.3c0.5-0.9,1.4-1.6,2.3-2.2c0.4-0.3,0.7-0.9,0.4-1.4
			C503,252,502.3,251.7,501.9,252L501.9,252z"/>
	</g>
</g>
<g>
	<defs>
		
			<rect id="SVGID_1_" x="450.8" y="58.2" transform="matrix(0.9618 0.2739 -0.2739 0.9618 68.0837 -146.2596)" width="214.2" height="225.1"/>
	</defs>
	<clipPath id="SVGID_2_">
		<use xlink:href="#SVGID_1_"  style="overflow:visible;"/>
	</clipPath>
	<path class="st8" d="M615.3,254.1c5.6-19.7-23.1-45.1-64.1-56.8c-41-11.7-78.8-5.2-84.4,14.5c-3.5,12.4,6.5,27,24.5,39
		c2.5,3,8.3,10,9.9,12.3c2.1,3,2.8-2.1,7.8-0.5c5,1.6,3.4,6.2,3.4,6.2s4.9-2.9,8.3-2.2c3.4,0.7,3.7,7.6,3.7,7.6l6.1-5
		c0.5-0.4,1.3-0.2,1.5,0.4l2.6,7.5c0,0,3.9-5.7,7.2-4.5c3.3,1.2,5.9,6.2,5.9,6.2s1.1-4.7,6.2-3.4c5.1,1.3,3,6,6.4,4.5
		c3.2-1.4,15-5.3,16.5-5.8C597,273,611.9,265.9,615.3,254.1"/>
	<path class="st9" d="M582,247.3c-17.3-7.2-39.7-11.6-42.6-12.2c-0.2,0-0.4-0.1-0.6-0.2c-2.7-1.1-24.1-9.2-42.6-12.1
		c-11.3-1.8-16.5,2.3-18.9,6.2c-1.3,2.2,2.5-0.1,5.4,0.3c1.4,0.2,3.1,0.6,4.8,1.4c1.6,0.7,2.4,2,2.8,3.6c0.6,2.4,1.9,9.1,4.4,8.1
		c1.6-0.7,3.3-1,5.3-0.8c5.7,0.6,7.9,4.1,8.5,8.1c0.4,2.6,3.7,4.1,6.3,3.1c1.1-0.5,2.4-0.7,3.8-0.6c4.8,0.4,8.2,7.2,9.9,11.6
		c0.7,1.9,2.9,2.5,4.5,1.3c3.8-2.9,10.2-6.8,14.5-4.7c1.2,0.6,2.2,1.5,2.9,2.5c1.6,2.3,5.3,2.7,7,0.7c2.6-3,6.4-4.9,11.5-2.4
		c1.8,0.8,3.1,2.1,4.1,3.5c1.6,2.2,5.6-2.9,7.4-4.7c1.1-1.1,2.5-1.8,4.2-1.6c1.9,0.2,3.5,0.8,4.8,1.3c2.7,1.2,5.4,5.3,5.4,2.8
		C594.8,258,592.5,251.7,582,247.3"/>
	<g class="st10">
		<defs>
			<path id="XMLID_25_" d="M539,237.2c2.8,7.2,8.5,12.9,16,15.1c13.7,3.9,28.4-5.5,32.8-21c2.9-10.2,1.2-12.5-9.5-59.5
				c0,0.2,0.1,0.3,0.1,0.5c0-0.2,0-0.5,0-0.7l-0.2,0.1c-2.3-8.3,4.9-17.1,12.8-14.9l12.5,3.6c10.1,2.9,22.3-1.2,33-13.6
				c4.8,16.7,5,35.4-0.3,53.9c-2.2,7.7-6.3,15.3-6.1,28.8l0,0c0,6.1,1.4,13.4,4.2,19.7c-4.5-0.9-8.9-3.2-12.3-6.9
				c-4.6,8.4-7.2,18.1-7.4,27.7c-4.2-2.8-7.3-6.9-8.9-11.5c-3.1,6.2-5.2,12.9-6,19.4c-3.1-1.7-5.8-4.2-7.8-7.2
				c-2-3-3.4-6.5-3.7-10.3c-6.7,3.4-14.1,4.2-21,2.2l-65.7-18.7c-6.9-2-12.8-6.5-16.7-13c-2.3,3.1-5.3,5.4-8.6,6.8
				c-3.3,1.5-6.9,2.2-10.5,2c2.7-6,4.5-12.8,5.1-19.7c-3.8,3.1-8.6,4.9-13.6,5.1c4.9-8.2,7.8-17.9,8.4-27.4c-4.8,1.3-9.8,1-14.1-0.6
				c5.7-3.9,10.7-9.3,13.9-14.5l0,0c7.3-11.4,7.8-20,10-27.7c5.3-18.5,15.3-34.2,28.2-45.9c2.6,16.3,10.8,26.1,20.9,29l12.5,3.6
				c7.9,2.3,9.4,13.6,3,19.4l-0.1-0.2c-0.1,0.2-0.2,0.4-0.3,0.6c0.1-0.1,0.2-0.2,0.4-0.3c-33.9,34.3-36.5,35.3-39.4,45.6
				c-4.4,15.5,3.1,31.2,16.8,35.1C525,243.7,532.8,241.8,539,237.2"/>
		</defs>
		<use xlink:href="#XMLID_25_"  style="overflow:visible;fill:#F4D5BD;"/>
		<clipPath id="XMLID_31_">
			<use xlink:href="#XMLID_25_"  style="overflow:visible;"/>
		</clipPath>
	</g>
	<path class="st11" d="M581.1,89.2c0.1,0,0.3,0.1,0.4,0.1c7.3,2.1,14.1,5.2,20.2,9.1c-6.1-3.9-12.9-7-20.2-9.1
		C581.5,89.4,581.3,89.3,581.1,89.2c-0.2,0-0.4-0.1-0.6-0.1c-7.3-2.1-14.6-3-21.9-2.9c7.3-0.1,14.7,0.8,22,2.9
		C580.8,89.1,581,89.2,581.1,89.2"/>
	<path class="st12" d="M539,237.3c3.2,7.9,9.6,13.7,17.6,15.3c-2,7.1-8.8,11.4-15.1,9.6l-17.8-5.1c-6.3-1.8-9.8-9-7.7-16.1
		C523.6,243.9,532.2,242.3,539,237.3"/>
	<path class="st13" d="M643.3,245.9c-0.1,0.4-0.5,0.7-0.9,0.6l-54.7-15.6c0.1-0.5,0.3-1,0.4-1.5l54.7,15.6
		C643.2,245.1,643.4,245.5,643.3,245.9"/>
	<path class="st13" d="M445.7,189.7c-0.1,0.4,0.1,0.8,0.4,0.9l54.7,15.6c0.1-0.5,0.3-1,0.5-1.5l-54.7-15.6
		C446.2,189,445.9,189.2,445.7,189.7"/>
	<path class="st13" d="M636.2,254.4c-0.1,0.4-0.5,0.7-0.9,0.6l-51.8-14.8c0.3-0.4,0.6-0.9,0.9-1.4l51.4,14.6
		C636.1,253.5,636.3,254,636.2,254.4"/>
	<path class="st13" d="M447.3,200.6c-0.1,0.4,0.1,0.8,0.4,0.9l51.8,14.8c0-0.5,0-1.1,0-1.6L448.2,200
		C447.8,199.9,447.4,200.2,447.3,200.6"/>
	<path class="st13" d="M629.1,262.8c-0.1,0.4-0.5,0.7-0.9,0.6l-52.7-15c0.5-0.4,1-0.8,1.5-1.2l51.6,14.7
		C629.1,262,629.3,262.4,629.1,262.8"/>
	<path class="st13" d="M448.9,211.5c-0.1,0.4,0.1,0.8,0.4,0.9l52.7,15c-0.3-0.6-0.5-1.2-0.7-1.8l-51.6-14.7
		C449.4,210.8,449,211.1,448.9,211.5"/>
	<g class="st10">
		<defs>
			<path id="XMLID_24_" d="M581.1,89.3c0.2,0.1,0.4,0.1,0.5,0.2c27.4,7.8,47.2,29.9,55,57.2c0,0,0,0,0,0
				c-10.8,12.5-22.9,16.5-33,13.6l-12.5-3.6c-7.9-2.3-15.2,6.6-12.8,14.9l0.2-0.1c0,0.2,0,0.4,0,0.7c-0.1-0.2-0.1-0.3-0.1-0.5
				c10.7,47,12.4,49.2,9.5,59.5c-4.4,15.5-19.1,24.9-32.8,21c-7.5-2.1-13.1-7.8-16-15.1c-6.2,4.7-14,6.5-21.5,4.4
				c-13.7-3.9-21.2-19.6-16.8-35.1c2.9-10.2,5.6-11.3,39.4-45.6c-0.1,0.1-0.2,0.2-0.4,0.3c0.1-0.2,0.2-0.4,0.3-0.6l0.1,0.2
				c6.4-5.8,4.9-17.2-3-19.4l-12.5-3.6c-10.1-2.9-18.3-12.7-20.9-29c0,0,0,0,0,0c21-19.1,49.5-27.5,76.9-19.7
				C580.8,89.2,580.9,89.2,581.1,89.3"/>
		</defs>
		<use xlink:href="#XMLID_24_"  style="overflow:visible;fill:#D88A4B;"/>
		<clipPath id="XMLID_32_">
			<use xlink:href="#XMLID_24_"  style="overflow:visible;"/>
		</clipPath>
	</g>
	<path class="st9" d="M631.2,132.3c0.5,1,0.9,1.9,1.3,2.9C632.1,134.2,631.7,133.3,631.2,132.3"/>
	<path class="st9" d="M515.9,99.5c-0.9,0.6-1.8,1.2-2.6,1.8C514.1,100.6,515,100,515.9,99.5"/>
	<path class="st9" d="M616.3,110.5l-0.2,0.1c0-0.1,0.1-0.2,0.1-0.2C616.2,110.4,616.2,110.4,616.3,110.5"/>
	<path class="st9" d="M540.1,88.8l0.1,0.2c0-0.1,0-0.2,0-0.3C540.2,88.7,540.2,88.8,540.1,88.8"/>
	<path class="st9" d="M633.7,149.9c0.6-0.6,1.2-1.2,1.8-1.9L633.7,149.9L633.7,149.9z"/>
	<path class="st9" d="M504.5,113.1c-0.2-0.8-0.4-1.7-0.5-2.6L504.5,113.1L504.5,113.1z"/>
	<path class="st14" d="M656,121.7c-2,7.1-5,10.5-19.4,25c-4.4-15.5-12.7-29.2-24-39.7l14.2-7.8C642.6,90,661.6,102.1,656,121.7"/>
	<path class="st14" d="M500.4,77.4c-2,7.1-1.2,11.6,3.3,31.4C515.6,98,529.9,90.6,545,87.7l-8-14.2C528.5,57.5,506,57.8,500.4,77.4"
		/>
	<path class="st15" d="M651.6,120.4c-1.2,4.3-7.3,11.8-16.8,20.6c-2.4-6.6-5.4-12.9-9.2-18.7c3.2-4.4,7.7-7.5,12.6-8.7
		c-3.3-1.5-6.8-2-10.1-1.6c4.3-3.9,9.8-5.8,15.1-5.3c-3-2.7-6.5-4.4-10-4.9c2.9-0.8,5.9-0.8,8.8,0
		C648.7,103.6,654.5,110.3,651.6,120.4"/>
	<path class="st15" d="M504.8,78.6c-1.2,4.3,0,13.9,3.4,26.3c5.5-4.4,11.4-8.1,17.6-11c-0.4-5.5-2.6-10.5-6.2-14.1
		c3.6,0.5,6.8,1.9,9.4,3.9c-1.6-5.6-5.2-10.1-10-12.5c4-0.7,7.8-0.3,11.1,1.1c-2.1-2.2-4.6-3.8-7.5-4.6
		C516.1,65.9,507.7,68.5,504.8,78.6"/>
	<path class="st13" d="M539,237.1c2.8,7.2,8.5,12.9,15.9,15c0.6,0.2,1.1,0.4,1.7,0.5c-0.3,1.1-10.6-1.3-20.8-4.2
		c-10.2-2.9-20.2-6.3-19.9-7.4c0.5,0.2,1.1,0.3,1.7,0.5C525.1,243.6,532.8,241.8,539,237.1"/>
	<path class="st16" d="M608.3,170c-2.7,9.3-11.5,15-19.8,12.7c-5.1-1.4-8.8-5.6-10.2-10.8c0.1-3.8,2-7.2,4.6-9.3
		c2.2-1.7,4.9-2.5,7.7-1.8c2.3,0.6,11.5,3.3,11.7,3.3c0.6,0.2,1.3,0.3,2,0.5c1.5,0.3,3.1,0.5,4.7,0.5
		C609,166.8,608.8,168.4,608.3,170"/>
	<path class="st16" d="M515.5,143.6c-2.7,9.3,1.9,18.8,10.1,21.2c5.1,1.4,10.4-0.2,14.4-3.8c1.9-3.3,2.1-7.2,1-10.3
		c-1-2.6-2.9-4.7-5.6-5.6c-2.3-0.7-11.5-3.3-11.7-3.3c-0.6-0.2-1.3-0.4-1.9-0.6c-1.5-0.5-2.9-1.2-4.3-2.1
		C516.6,140.4,515.9,142,515.5,143.6"/>
	<path class="st17" d="M603.8,168.7c-1.9,6.5-8,10.5-13.8,8.8c-5.8-1.6-8.9-8.3-7.1-14.8c0-0.1,0-0.1,0.1-0.2
		c2.2-1.7,4.9-2.5,7.7-1.8c2.3,0.6,11.4,3.3,11.7,3.3c0.6,0.2,1.3,0.3,2,0.5C604.4,166,604.2,167.4,603.8,168.7"/>
	<path class="st17" d="M520,144.9c-1.9,6.5,1.3,13.2,7.1,14.8c5.8,1.6,12-2.3,13.8-8.8c0-0.1,0-0.1,0-0.2c-1-2.6-2.9-4.7-5.6-5.6
		c-2.3-0.7-11.5-3.3-11.7-3.3c-0.6-0.2-1.3-0.4-1.9-0.6C521,142.2,520.4,143.5,520,144.9"/>
	<path class="st18" d="M596.1,168.7c-0.6,2.1-2.6,3.5-4.5,2.9c-1.9-0.5-2.9-2.7-2.3-4.9c0.6-2.1,2.6-3.5,4.5-2.9
		C595.7,164.3,596.7,166.5,596.1,168.7"/>
	<path class="st18" d="M526.6,148.9c-0.6,2.1,0.4,4.3,2.3,4.9c1.9,0.5,3.9-0.8,4.5-2.9c0.6-2.1-0.4-4.3-2.3-4.9
		C529.2,145.4,527.2,146.7,526.6,148.9"/>
	<path class="st19" d="M578.4,171.4c0,0.2,0,0.4,0,0.7c-0.1-0.2-0.1-0.3-0.1-0.5l0-0.1L578.4,171.4z"/>
	<path class="st19" d="M540.2,160.6c-0.1,0.2-0.2,0.4-0.3,0.6c0.1-0.1,0.2-0.2,0.4-0.3l0.1-0.1L540.2,160.6z"/>
	<path class="st19" d="M591.8,161.2l-1.1-0.3c0.2,0,0.4,0.1,0.5,0.1C591.4,161.1,591.6,161.1,591.8,161.2"/>
	<path class="st19" d="M534.2,144.8l1.1,0.3c-0.2-0.1-0.4-0.1-0.5-0.2C534.6,144.9,534.4,144.8,534.2,144.8"/>
	<path class="st17" d="M597,167.2c-0.3,0.9-1.1,1.4-1.9,1.2c-0.8-0.2-1.2-1.1-1-2c0.3-0.9,1.1-1.4,1.9-1.2
		C596.8,165.4,597.2,166.3,597,167.2"/>
	<path class="st17" d="M526.6,147.1c-0.3,0.9,0.2,1.8,1,2c0.8,0.2,1.6-0.3,1.9-1.2c0.3-0.9-0.2-1.8-1-2
		C527.7,145.7,526.9,146.2,526.6,147.1"/>
	<path class="st13" d="M541.6,228.1c0.4,0.1,0.6,0.5,0.5,0.9l-4.7,16.5c-0.1,0.4-0.5,0.6-0.9,0.5c-0.4-0.1-0.6-0.5-0.5-0.9l4.7-16.5
		C540.8,228.3,541.2,228,541.6,228.1"/>
	<path class="st13" d="M552.4,231.4c-0.4-0.1-0.7-0.6-0.5-1.1c0.1-0.5,0.6-0.8,1-0.7c0.4,0.1,0.7,0.6,0.5,1.1
		C553.3,231.3,552.9,231.6,552.4,231.4"/>
	<path class="st13" d="M530.6,225.2c0.4,0.1,0.9-0.2,1-0.7c0.1-0.5-0.1-1-0.5-1.1c-0.4-0.1-0.9,0.2-1,0.7
		C530,224.6,530.2,225.1,530.6,225.2"/>
	<path class="st13" d="M561.3,234c-0.4-0.1-0.7-0.6-0.5-1.1c0.1-0.5,0.6-0.8,1-0.7c0.4,0.1,0.7,0.6,0.5,1.1
		C562.2,233.8,561.8,234.1,561.3,234"/>
	<path class="st13" d="M521.7,222.7c0.4,0.1,0.9-0.2,1-0.7c0.1-0.5-0.1-1-0.5-1.1c-0.4-0.1-0.9,0.2-1,0.7
		C521.1,222.1,521.3,222.6,521.7,222.7"/>
	<path class="st13" d="M570.3,236.5c-0.4-0.1-0.7-0.6-0.5-1.1c0.1-0.5,0.6-0.8,1-0.7c0.4,0.1,0.7,0.6,0.5,1.1
		C571.1,236.4,570.7,236.6,570.3,236.5"/>
	<path class="st13" d="M512.8,220.2c0.4,0.1,0.9-0.2,1-0.7c0.1-0.5-0.1-1-0.5-1.1c-0.4-0.1-0.9,0.2-1,0.7
		C512.1,219.6,512.4,220,512.8,220.2"/>
	<path class="st13" d="M579.2,239.1c-0.4-0.1-0.7-0.6-0.5-1.1c0.1-0.5,0.6-0.8,1-0.7c0.4,0.1,0.7,0.6,0.5,1.1
		C580.1,238.9,579.6,239.2,579.2,239.1"/>
	<path class="st13" d="M503.9,217.6c0.4,0.1,0.9-0.2,1-0.7c0.1-0.5-0.1-1-0.5-1.1c-0.4-0.1-0.9,0.2-1,0.7
		C503.2,217,503.5,217.5,503.9,217.6"/>
	<path class="st13" d="M559.6,223c-0.4-0.1-0.7-0.6-0.5-1.1c0.1-0.5,0.6-0.8,1-0.7c0.4,0.1,0.7,0.6,0.5,1.1
		C560.5,222.9,560.1,223.2,559.6,223"/>
	<path class="st13" d="M528.9,214.3c0.4,0.1,0.9-0.2,1-0.6c0.1-0.5-0.1-1-0.5-1.1c-0.4-0.1-0.9,0.2-1,0.7
		C528.3,213.7,528.5,214.2,528.9,214.3"/>
	<path class="st13" d="M568.6,225.6c-0.4-0.1-0.7-0.6-0.5-1.1c0.1-0.5,0.6-0.8,1-0.7c0.4,0.1,0.7,0.6,0.5,1.1
		C569.4,225.4,569,225.7,568.6,225.6"/>
	<path class="st13" d="M520,211.7c0.4,0.1,0.9-0.2,1-0.6c0.1-0.5-0.1-1-0.5-1.1c-0.4-0.1-0.9,0.2-1,0.7
		C519.4,211.1,519.6,211.6,520,211.7"/>
	<path class="st13" d="M577.5,228.1c-0.4-0.1-0.7-0.6-0.5-1.1c0.1-0.5,0.6-0.8,1-0.7c0.4,0.1,0.7,0.6,0.5,1.1
		C578.4,227.9,577.9,228.2,577.5,228.1"/>
	<path class="st13" d="M511.1,209.2c0.4,0.1,0.9-0.2,1-0.6c0.1-0.5-0.1-1-0.5-1.1c-0.4-0.1-0.9,0.2-1,0.7
		C510.4,208.6,510.7,209.1,511.1,209.2"/>
	<path class="st13" d="M551.5,241.7c-0.4-0.1-0.7-0.6-0.5-1.1c0.1-0.5,0.6-0.8,1-0.7c0.4,0.1,0.7,0.6,0.5,1.1
		C552.4,241.5,551.9,241.8,551.5,241.7"/>
	<path class="st13" d="M526,234.4c0.4,0.1,0.9-0.2,1-0.6c0.1-0.5-0.1-1-0.5-1.1c-0.4-0.1-0.9,0.2-1,0.7
		C525.4,233.8,525.6,234.3,526,234.4"/>
	<path class="st13" d="M560.4,244.2c-0.4-0.1-0.7-0.6-0.5-1.1c0.1-0.5,0.6-0.8,1-0.7c0.4,0.1,0.7,0.6,0.5,1.1
		C561.3,244,560.9,244.3,560.4,244.2"/>
	<path class="st13" d="M517.1,231.9c0.4,0.1,0.9-0.2,1-0.6c0.1-0.5-0.1-1-0.5-1.1c-0.4-0.1-0.9,0.2-1,0.7
		C516.5,231.3,516.7,231.7,517.1,231.9"/>
	<path class="st13" d="M569.3,246.7c-0.4-0.1-0.7-0.6-0.5-1.1c0.1-0.5,0.6-0.8,1-0.7s0.7,0.6,0.5,1.1
		C570.2,246.6,569.8,246.9,569.3,246.7"/>
	<path class="st13" d="M508.2,229.3c0.4,0.1,0.9-0.2,1-0.6c0.1-0.5-0.1-1-0.5-1.1c-0.4-0.1-0.9,0.2-1,0.7
		C507.5,228.7,507.8,229.2,508.2,229.3"/>
	<path class="st15" d="M636.6,146.7c-7.5,16.1-23,20.7-34.3,17.5c-0.3-0.1-9.4-2.7-11.7-3.3c-6.1-1.7-12.2,4.3-12.3,11.2
		c-2.8-8.5,4.6-17.7,12.6-15.4l12.5,3.6C613.6,163.1,625.9,159.2,636.6,146.7"/>
	<path class="st15" d="M503.7,108.8c-2.1,17.6,8.6,29.7,19.9,33c0.3,0.1,9.4,2.7,11.7,3.3c6.1,1.8,8.1,10.1,4.6,16
		c6.9-5.7,5.5-17.5-2.6-19.8l-12.5-3.6C514.6,134.9,506.3,125.1,503.7,108.8"/>
	<path class="st20" d="M578.3,172.1c-0.4-1.2-0.6-2.5-0.6-3.7c0.1,1.2,0.3,2.4,0.6,3.5C578.3,172,578.3,172,578.3,172.1"/>
	<path class="st20" d="M539.9,161.2c1-0.8,1.8-1.8,2.5-2.8c-0.7,1-1.5,1.8-2.4,2.6C539.9,161,539.9,161.1,539.9,161.2"/>
	<path class="st21" d="M612,148.4c-6.8,0.1-11.1-4-18-3.4c-4.2,0.4-8.6,5.2-9.5,8.5c1.7-2.4,7.9-7.2,14.6-4.3
		c7.6,3.3,11,4.1,15.8,3.1c6.8-1.4,12-5.8,14.8-11.9C624,146.6,619.5,148.3,612,148.4"/>
	<path class="st21" d="M523.7,123.3c5.7,3.7,11.6,2.4,17.1,6.6c3.4,2.6,4.6,8.9,3.6,12.3c-0.2-2.9-2.9-10.3-10.2-11.4
		c-8.2-1.2-11.5-2.3-15.1-5.7c-5.1-4.8-7.2-11.2-6.3-17.9C514.5,115.4,517.4,119.3,523.7,123.3"/>
	<path class="st21" d="M563.9,149.6c0.5-0.6,1-1.2,1.5-1.7c0.6-0.6,1.2-1.3,1.9-1.9c23-21.5,38,8.5,54.7-20.4
		c-8.4,8.6-14.7,9.5-22.7,8.5c-7.3-0.8-12.5-5.7-24-2.3c-1.5,0.4-3.1,1.2-4.7,2.5c1.6-2.7,3.6-5.1,6.1-6.9c-0.7,0.1-1.5,0.3-2.1,0.5
		c5.3-5.8,7.4-18.5,2.8-25.3c-7.5,3.3-12.5,15.2-11,23c-0.5-0.6-1-1.1-1.6-1.5c1.1,2.9,1.7,6,1.5,9.1c-0.7-2-1.6-3.4-2.7-4.6
		c-8-9-15-7.6-21.6-10.7c-7.3-3.5-12.2-7.4-14.8-19.2c-1,33.4,27.5,15.8,35.7,46.1c0.2,0.9,0.4,1.7,0.6,2.6
		C563.7,148.1,563.8,148.9,563.9,149.6"/>
	<path class="st21" d="M580.2,126.9c15-5,24.8,10.5,36-8.8c-5.9,6-10,5.7-15.6,5.1c-3.9-0.4-7.6-2.8-12.9-2.6
		c2.7-10.8,0.2-21.7-7.2-25.7C587,100.8,585.7,114.5,580.2,126.9"/>
	<path class="st21" d="M562,121.8c-10.2-12.1-26.6-4.2-26-26.5c1.8,8.3,5.5,10.1,10.6,12.6c3.6,1.7,7.9,1.6,12.3,4.6
		c3.4-10.6,11.3-18.6,19.7-18.1C570,96,564,108.3,562,121.8"/>
	<path class="st21" d="M625.5,131.6c-3.5,7.4-10.7,11.6-17.7,10.6C614.9,148,625.5,141.7,625.5,131.6"/>
	<path class="st21" d="M521.1,101.8c-0.9,8.1,3,15.5,9.4,18.3C521.5,121.4,515.8,110.4,521.1,101.8"/>
	<path class="st21" d="M560.2,174.9c7.6,2.6,15.3-6,12.7-14.4C571.8,167.7,566.5,173.5,560.2,174.9"/>
	<path class="st21" d="M553.8,173.1c-7.9-1.8-9.8-13.1-3.2-19C547.8,160.9,549.2,168.6,553.8,173.1"/>
	<path class="st21" d="M570.6,150.4c0.5,0.4,0.9,0.6,1.4,0.9c-6.3,0.7-11.8,7.7-10.2,15.3c2.4-10.6,9.8-11.6,14.2-12.7
		c6.1-1.5,10.6-7.4,10.5-13.7C583.4,147,577,151.1,570.6,150.4"/>
	<path class="st21" d="M557.9,146.8c-0.6,0.1-1.1,0.1-1.7,0c5,3.9,5.9,12.7,0.6,18.4c3.5-10.2-2.2-15-5.4-18.2
		c-4.5-4.5-5.1-11.9-1.7-17.2C548.7,137.2,552.1,144,557.9,146.8"/>
	<path class="st21" d="M594,115.9c5.3,3.6,13.1,3.1,18.3-2.4c-4.6,1.6-9.7,1.4-13.7-1.2c0.7-5.6-0.7-10.6-5.9-13.2
		C596.4,104.1,595.2,110.5,594,115.9"/>
	<path class="st21" d="M556.2,105.2c-6.4,0.3-12.8-4.3-14.3-11.7c3.1,3.8,7.5,6.3,12.3,6.2c2.3-5.1,6.2-8.6,12-8.1
		C560.3,93.8,557.9,99.9,556.2,105.2"/>
	<path class="st20" d="M596.3,186.9c9.7-1,17.9-8.4,20.4-18.6C619.8,181.1,607.4,192.8,596.3,186.9"/>
	<path class="st20" d="M516.8,164.2c-7.7-6-10.8-16.5-7.5-26.6C499.9,147,504.3,163.4,516.8,164.2"/>
	<path class="st20" d="M594,198.8c19.8,0.3,27-10.7,31.3-28.1C628.9,191.4,612.8,208.1,594,198.8"/>
	<path class="st20" d="M512.5,175.6c-17-10.2-17.3-23.3-11.8-40.4C486.7,150.9,491.6,173.6,512.5,175.6"/>
	<path class="st20" d="M630.9,199c3.1-8.4,5.4-19.5,3.2-25.8c-2.2,20.2-14.4,40.4-36.4,39.6c8.2,3.3,16.4,2.9,23.1,0
		c-1.8,13.4,3.6,19.6,5.4,21C623.7,220.2,627.3,208.7,630.9,199"/>
	<path class="st20" d="M481,156.4c1.8-8.8,5.6-19.4,10.8-23.6c-8.8,18.3-9,42,10.1,52.8c-8.7-1.6-15.5-6.2-19.6-12.2
		c-5.5,12.3-13.4,14.7-15.6,15C476,178.2,479,166.5,481,156.4"/>
	<path class="st22" d="M547.7,206.8c0.5,0.2,1,0.4,1.5,0.5c1.2,0.3,2.4,0.1,3.5-0.7c2-1.5,0.6-0.4,4-2.9c2-1.5,4-1.9,5.9-1.3
		c3.5,1,7.2-1,8.9-4.5c1.6,6.2-2.8,12.4-8.3,12.9c0.2-1.3-0.5-2.6-1.7-2.9c-1.3-0.4-2.7,0.5-3.1,2c-0.2,0.8-0.1,1.7,0.3,2.4
		c-3.6,2.6-10.5,7.7-10.5,7.7l-2.3,8l-5.3,3.9l-2.5-6.1l2.3-8c0,0-3.2-7.9-4.9-12.1c0.7-0.3,1.3-1,1.5-1.8c0.4-1.5-0.3-3-1.6-3.4
		c-1.2-0.3-2.5,0.4-3,1.6c-4.4-3.3-4.9-10.9-0.2-15.3c-0.4,3.9,1.7,7.6,5.2,8.6c1.9,0.5,3.4,1.9,4.3,4.2c1.6,3.9,0.9,2.3,1.9,4.6
		c0.5,1.2,1.4,2.1,2.6,2.4C546.6,206.6,547.2,206.7,547.7,206.8"/>
</g>
<g>
	<g>
		<path class="st6" d="M219.4,301.2c4.5,2,8.9,4.2,13.3,6.4c1.1,0.6,2.2-1.1,1-1.7c-4.4-2.3-8.8-4.4-13.3-6.4
			c-0.5-0.2-1.1-0.1-1.4,0.4C218.8,300.3,218.9,301,219.4,301.2L219.4,301.2z"/>
	</g>
</g>
<g>
	<g>
		<path class="st6" d="M222.5,307.8c4-2.7,8-5.6,11.8-8.6c0.4-0.3,0.3-1.1,0-1.4c-0.4-0.4-1-0.3-1.4,0c-3.7,2.9-7.5,5.6-11.4,8.3
			C220.4,306.7,221.4,308.5,222.5,307.8L222.5,307.8z"/>
	</g>
</g>
<g>
	<g>
		<path class="st6" d="M314.1,302.5c3.8,2.1,7.5,4.4,11.1,6.9c1.1,0.7,2.1-1,1-1.7c-3.6-2.4-7.3-4.7-11.1-6.9
			C314,300.1,313,301.8,314.1,302.5L314.1,302.5z"/>
	</g>
</g>
<g>
	<g>
		<path class="st6" d="M315.6,308.8c3.8-2.2,7.7-4.2,11.6-6.1c1.2-0.6,0.1-2.3-1-1.7c-3.9,1.9-7.8,3.9-11.6,6.1
			C313.5,307.7,314.5,309.5,315.6,308.8L315.6,308.8z"/>
	</g>
</g>
<g>
	<path class="st7" d="M270.2,307.8c-1.8-0.1-3.3,0.2-4.5,1.1c-1.2,0.9-2,2.3-2.1,3.8c-0.1,0.9,0.2,1.9,0.9,2.3
		c0.7,0.4,1.6,0,2.2-0.5c0.6-0.5,1.1-1.2,1.8-1.6c0.2-0.1,0.4-0.2,0.7-0.2c0.6,0,1,0.4,1.4,0.8c0.7,0.7,1.6,1.3,2.5,1.4
		c1.2,0.2,2.5-0.4,3.1-1.5c0.6-1,0.6-2.5-0.2-3.5c-0.7-0.9-1.8-1.4-2.8-1.7c-1.8-0.5-3.2-0.6-5.7-0.2"/>
	<g>
		<path class="st7" d="M270.2,306.8c-3.1-0.1-6,1.1-7.2,4.1c-0.5,1.2-0.7,2.8,0.1,4c0.9,1.4,2.7,1.4,4,0.5c0.6-0.4,1.1-1,1.7-1.5
			c0.1-0.1,0.4-0.3,0.6-0.3c0.3,0,0.6,0.5,0.8,0.6c1.2,1.1,2.6,1.8,4.3,1.5c3.2-0.5,4.4-4.6,2.2-6.9c-1.1-1.2-2.8-1.7-4.4-1.9
			c-1.6-0.3-3.2-0.2-4.9,0.1c-0.5,0.1-0.8,0.8-0.7,1.2c0.2,0.6,0.7,0.8,1.2,0.7c2-0.3,4.3-0.3,6.2,0.6c1,0.4,1.7,1.2,1.7,2.3
			c0,1-0.7,1.8-1.7,2c-1.1,0.2-2-0.5-2.8-1.2c-0.9-0.9-2-1.3-3.2-0.6c-0.9,0.5-1.6,1.8-2.7,2c-0.9,0.2-0.9-1.1-0.8-1.7
			c0.2-1.1,0.9-2.2,1.9-2.8c1.1-0.7,2.4-0.8,3.7-0.7C271.5,308.8,271.5,306.8,270.2,306.8L270.2,306.8z"/>
	</g>
</g>
<path class="st1" d="M392.2,293.3c-26.2,18.8-53.6,36-82,51.6c-1-0.7-2-1.3-3.1-1.9c-1.5-0.9-3.4-2.1-5.1-1.1
	c-1.7,1-2.1,3.1-1.2,4.8c0.4,0.6,0.9,1.2,1.5,1.7c-0.6,0.3-1.2,0.6-1.8,0.9c-2.7,1.5-4.9,3.7-5.2,6.8c-0.4,4.2,4.4,4.9,7.6,4.5
	c3-0.5,6-1.8,8.8-3.1c0.8-0.4,1.6-0.8,2.4-1.2c0.3-0.1,0.6-0.2,0.8-0.4c28.8-15.7,56.6-33.2,83.3-52.3
	C404.5,299.2,398.5,288.7,392.2,293.3z"/>
<g>
	<path class="st23" d="M133.7,287.7c-15.5,4.9-33.3,6.1-47.3-2.2c-12.1-7.1-19.8-21.2-19.3-35.2s9.3-27.5,22-33.5
		c5-2.4,11-3.6,16.1-1.3c7.7,3.6,9.7,13.3,10.8,21.8c0.9,6.9,1.8,13.8,2.7,20.7c0.8,6,1.6,12.2,4.4,17.6c2.8,5.4,8.3,10.8,14.4,11.1
		C136.1,286.9,134.9,287.4,133.7,287.7"/>
</g>
</svg>
